<?xml version="1.0" encoding="UTF-8" standalone="no"?>
<!-- Created with Inkscape (http://www.inkscape.org/) -->

<svg
   width="32"
   height="32"
   viewBox="0 0 32 32"
   version="1.1"
   id="svg8"
   inkscape:version="1.2.2 (b0a8486541, 2022-12-01)"
   sodipodi:docname="application-x-sif.svg"
   xml:space="preserve"
   xmlns:inkscape="http://www.inkscape.org/namespaces/inkscape"
   xmlns:sodipodi="http://sodipodi.sourceforge.net/DTD/sodipodi-0.dtd"
   xmlns:xlink="http://www.w3.org/1999/xlink"
   xmlns="http://www.w3.org/2000/svg"
   xmlns:svg="http://www.w3.org/2000/svg"
   xmlns:rdf="http://www.w3.org/1999/02/22-rdf-syntax-ns#"
   xmlns:cc="http://creativecommons.org/ns#"
   xmlns:dc="http://purl.org/dc/elements/1.1/"><title
     id="title7895">Antu icon Theme</title><defs
     id="defs2"><linearGradient
       gradientUnits="userSpaceOnUse"
       y2="289.85626"
       x2="4.2333331"
       y1="296.47086"
       x1="4.2333331"
       id="linearGradient837"
       xlink:href="#linearGradient5716"
       inkscape:collect="always"
       gradientTransform="matrix(3.7795275,0,0,3.7795275,5e-7,-807.86971)" /><linearGradient
       inkscape:collect="always"
       id="linearGradient5716"><stop
         style="stop-color:#1c9af5;stop-opacity:1;"
         offset="0"
         id="stop5712" /><stop
         style="stop-color:#1fb5f9;stop-opacity:1"
         offset="1"
         id="stop5714" /></linearGradient></defs><sodipodi:namedview
     id="base"
     pagecolor="#ffffff"
     bordercolor="#666666"
     borderopacity="1.0"
     inkscape:pageopacity="0.0"
     inkscape:pageshadow="2"
     inkscape:zoom="45.254831"
     inkscape:cx="14.108991"
     inkscape:cy="14.296816"
     inkscape:document-units="px"
     inkscape:current-layer="layer1"
     showgrid="true"
     units="px"
     inkscape:window-width="2560"
     inkscape:window-height="1363"
     inkscape:window-x="0"
     inkscape:window-y="0"
     inkscape:window-maximized="1"
     objecttolerance="10"
     gridtolerance="10"
     guidetolerance="10"
     inkscape:showpageshadow="2"
     inkscape:pagecheckerboard="0"
     inkscape:deskcolor="#d1d1d1"><inkscape:grid
       type="xygrid"
       id="grid7897"
       empspacing="4" /></sodipodi:namedview><metadata
     id="metadata5"><rdf:RDF><cc:Work
         rdf:about=""><dc:format>image/svg+xml</dc:format><dc:type
           rdf:resource="http://purl.org/dc/dcmitype/StillImage" /><dc:title>Antu icon Theme</dc:title></cc:Work></rdf:RDF></metadata><g
     inkscape:label="Capa 1"
     inkscape:groupmode="layer"
     id="layer1"
     transform="translate(0,-282.64999)"><path
       inkscape:connector-curvature="0"
       style="fill:#1568b4;fill-opacity:1;stroke:none;stroke-width:2;stroke-linecap:round;stroke-linejoin:round;stroke-miterlimit:4;stroke-dasharray:none;stroke-opacity:1"
       d="M 5.0000005,283.64999 H 26.999999 c 1.108,0 2,0.892 2,2 v 26 c 0,1.108 -0.892,2 -2,2 H 5.0000005 c -1.108,0 -2,-0.892 -2,-2 v -26 c 0,-1.108 0.892,-2 2,-2 z"
       id="rect827" /><path
       inkscape:connector-curvature="0"
       style="fill:url(#linearGradient837);fill-opacity:1;stroke:none;stroke-width:2;stroke-linecap:round;stroke-linejoin:round;stroke-miterlimit:4;stroke-dasharray:none;stroke-opacity:1"
       d="M 5.0000005,284.64999 H 26.999999 c 0.554,0 1,0.446 1,1 v 26 c 0,0.554 -0.446,1 -1,1 H 5.0000005 c -0.554,0 -1,-0.446 -1,-1 v -26 c 0,-0.554 0.446,-1 1,-1 z"
       id="rect829" /><g
       id="g847"
       transform="translate(46,-4.55627)"
       style="fill:#ffffff;fill-opacity:0.240122"><path
         style="fill:#ffffff;fill-opacity:0.240122;stroke-width:3.77953"
         d="m -30,305.20626 h -4 v 4 h 4 z"
         id="path2706" /><path
         style="fill:#ffffff;fill-opacity:0.240122;stroke-width:3.77953"
         d="m -30,301.20626 v 4 h 4 v -4 z"
         id="path2704" /><path
         style="fill:#ffffff;fill-opacity:0.240122;stroke-width:3.77953"
         d="m -34,301.20626 h 4 v -4 h -4 z"
         id="path2702" /><path
         style="fill:#ffffff;fill-opacity:0.240122;stroke-width:3.77953"
         d="m -38,301.20626 v -4 h -4 v 4 z"
         id="path2700" /><path
         style="fill:#ffffff;fill-opacity:0.240122;stroke-width:3.77953"
         d="m -38,305.20626 h 4 v -4 h -4 z"
         id="path2698" /><path
         style="fill:#ffffff;fill-opacity:0.240122;stroke-width:3.77953"
         d="m -38,309.20626 v -4 h -4 v 4 z"
         id="path2696" /><path
         style="fill:#ffffff;fill-opacity:0.240122;stroke-width:3.77953"
         d="m -38,313.20626 h -1 -2 -1 v 1 2 c 0,0.55394 0.446071,1 1,1 h 2 1 v -1 -2 z"
         id="path2694" /><path
         style="fill:#ffffff;fill-opacity:0.240122;stroke-width:3.77953"
         d="m -34,313.20626 v -4 h -4 v 4 z"
         id="path2692" /><path
         style="fill:#ffffff;fill-opacity:0.240122;stroke-width:3.77953"
         d="m -30,313.20626 h -4 v 4 h 4 z"
         id="path2690" /><path
         style="fill:#ffffff;fill-opacity:0.240122;stroke-width:3.77953"
         d="m -26,313.20626 v -4 h -4 v 4 z"
         id="path2688" /><path
         style="fill:#ffffff;fill-opacity:0.240122;stroke-width:3.77953"
         d="m -22,313.20626 h -4 v 4 h 4 z"
         id="path2686" /><path
         style="fill:#ffffff;fill-opacity:0.240122;stroke-width:3.77953"
         d="m -22,309.20626 v 1 2 1 h 3 1 v -1 -3 z"
         id="path2684" /><path
         style="fill:#ffffff;fill-opacity:0.240122;stroke-width:3.77953"
         d="m -22,305.20626 h -4 v 4 h 4 z"
         id="path2682" /><path
         style="fill:#ffffff;fill-opacity:0.240122;stroke-width:3.77953"
         d="m -22,301.20626 v 4 h 4 v -4 z"
         id="path2680" /><path
         style="fill:#ffffff;fill-opacity:0.240122;stroke-width:3.77953"
         d="m -22,297.20626 h -4 v 4 h 4 z"
         id="path2678" /><path
         style="fill:#ffffff;fill-opacity:0.240122;stroke-width:3.77953"
         d="m -22,293.20626 v 4 h 4 v -4 z"
         id="path2676" /><path
         style="fill:#ffffff;fill-opacity:0.240122;stroke-width:3.77953"
         d="m -26,293.20626 h 4 v -4 h -4 z"
         id="path2674" /><path
         style="fill:#ffffff;fill-opacity:0.240122;stroke-width:3.77953"
         d="m -30,293.20626 v 4 h 4 v -4 z"
         id="path2672" /><path
         style="fill:#ffffff;fill-opacity:0.240122;stroke-width:3.77953"
         d="m -34,293.20626 h 4 v -4 h -4 z"
         id="path2670" /><path
         style="fill:#ffffff;fill-opacity:0.240122;stroke-width:3.77953"
         d="m -38,293.20626 v 4 h 4 v -4 z"
         id="path2668" /><path
         style="fill:#ffffff;fill-opacity:0.240122;stroke-width:3.77953"
         d="m -41,289.20626 c -0.553946,0 -1,0.44607 -1,1 v 2 1 h 1 2 1 v -1 -2 -1 h -1 z"
         id="path1128" /></g><g
       transform="translate(84.000907,-2.9999999)"
       id="g328-3"><path
         d="m -68,293.64999 a 1.0001,1.0001 0 0 0 -0.636719,0.22852 c -2.931001,2.41926 -5.606403,5.98283 -6.359375,13.67382 a 1.0001,1.0001 0 0 0 0.839844,1.08594 c 2.149113,0.33971 3.818441,1.45423 5.541016,2.79883 a 1.0001,1.0001 0 0 0 1.230468,0 c 1.722575,-1.3446 3.391903,-2.45912 5.541016,-2.79883 a 1.0001,1.0001 0 0 0 0.839844,-1.08594 c -0.752972,-7.69099 -3.428374,-11.25456 -6.359375,-13.67382 A 1.0001,1.0001 0 0 0 -68,293.64999 Z"
         id="path326-6"
         style="fill:#1568b4;fill-opacity:1" /></g><g
       transform="translate(84,-3.9999962)"
       id="g328"><path
         d="m -68,293.64999 a 1.0001,1.0001 0 0 0 -0.636719,0.22852 c -2.931001,2.41926 -5.606403,5.98283 -6.359375,13.67382 a 1.0001,1.0001 0 0 0 0.839844,1.08594 c 2.149113,0.33971 3.818441,1.45423 5.541016,2.79883 a 1.0001,1.0001 0 0 0 1.230468,0 c 1.722575,-1.3446 3.391903,-2.45912 5.541016,-2.79883 a 1.0001,1.0001 0 0 0 0.839844,-1.08594 c -0.752972,-7.69099 -3.428374,-11.25456 -6.359375,-13.67382 A 1.0001,1.0001 0 0 0 -68,293.64999 Z"
         fill="#f4fbff"
         stroke-linecap="round"
         stroke-linejoin="round"
         stroke-miterlimit="1.8"
         id="path326" /></g></g></svg>
