<?xml version="1.0" encoding="UTF-8" standalone="no"?>
<svg
   height="32"
   viewBox="0 0 32 32"
   width="32"
   version="1.1"
   id="svg10"
   sodipodi:docname="viewps.svg"
   xml:space="preserve"
   inkscape:version="1.2.2 (b0a8486541, 2022-12-01)"
   xmlns:inkscape="http://www.inkscape.org/namespaces/inkscape"
   xmlns:sodipodi="http://sodipodi.sourceforge.net/DTD/sodipodi-0.dtd"
   xmlns:xlink="http://www.w3.org/1999/xlink"
   xmlns="http://www.w3.org/2000/svg"
   xmlns:svg="http://www.w3.org/2000/svg"><defs
     id="defs14"><linearGradient
       inkscape:collect="always"
       id="linearGradient1204"><stop
         style="stop-color:#de386d;stop-opacity:1;"
         offset="0"
         id="stop1200" /><stop
         style="stop-color:#f15082;stop-opacity:1;"
         offset="1"
         id="stop1202" /></linearGradient><linearGradient
       inkscape:collect="always"
       xlink:href="#linearGradient1204"
       id="linearGradient1206"
       x1="-12"
       y1="305.39999"
       x2="-12"
       y2="279.39999"
       gradientUnits="userSpaceOnUse" /></defs><sodipodi:namedview
     id="namedview12"
     pagecolor="#ffffff"
     bordercolor="#000000"
     borderopacity="0.25"
     inkscape:showpageshadow="2"
     inkscape:pageopacity="0.0"
     inkscape:pagecheckerboard="0"
     inkscape:deskcolor="#d1d1d1"
     showgrid="true"
     inkscape:zoom="22.693708"
     inkscape:cx="17.031152"
     inkscape:cy="15.070256"
     inkscape:window-width="1517"
     inkscape:window-height="1363"
     inkscape:window-x="0"
     inkscape:window-y="0"
     inkscape:window-maximized="0"
     inkscape:current-layer="svg10"><inkscape:grid
       type="xygrid"
       id="grid1898" /></sodipodi:namedview><g
     transform="translate(28 -276.39999)"
     id="g6"><path
       style="fill:#ba205b;fill-opacity:1"
       d="m -23,277.39999 h 21.999999 c 1.108,0 2,0.892 2,2 v 26 c 0,1.108 -0.892,2 -2,2 H -23 c -1.108,0 -2,-0.892 -2,-2 v -26 c 0,-1.108 0.892,-2 2,-2 z"
       id="path2" /><path
       style="fill-opacity:1;fill:url(#linearGradient1206)"
       d="m -23,278.39999 h 21.999999 c 0.554,0 1,0.446 1,1 v 26 c 0,0.554 -0.446,1 -1,1 H -23 c -0.554,0 -1,-0.446 -1,-1 v -26 c 0,-0.554 0.446,-1 1,-1 z"
       id="path4" /></g><path
     style="fill:#ba205b;fill-opacity:1;stroke-width:3.77953"
     d="m 11.999999,19.999994 v 3.999987 l 8.000002,3.8e-5 v -4.000025 z"
     id="path2355" /><path
     style="fill:#ba205b;fill-opacity:1;stroke-width:3.77953"
     d="m 9.9999991,12.999969 v 3 H 9.4999994 c -0.2770017,0 -0.5000003,0.222992 -0.5000003,0.500031 v 4.999975 c 0,0.277039 0.2229998,0.499994 0.5000003,0.499994 h 1.4999996 v -3 L 21,19.000006 v 3.000001 h 1.5 c 0.277002,0 0.500001,-0.222993 0.500001,-0.499994 V 16.5 c 0,-0.277039 -0.222992,-0.499994 -0.500001,-0.499994 h -0.500001 v -3 H 21 v 3 l -10.000001,-3.7e-5 v -3 z"
     id="path2353" /><path
     style="fill:#ba205b;fill-opacity:1;stroke-width:3.77953"
     d="m 11.999999,11.999981 v 3 l 8.000002,3.8e-5 v -3 z"
     id="path8-7" /><path
     style="fill:#ffffff;fill-opacity:1"
     d="m 8.7764189,287.46879 v 1.05833 l 2.1166671,10e-6 v -1.05834 z"
     transform="matrix(3.7795276,0,0,3.7795276,-21.170718,-1067.4962)"
     id="path2349" /><path
     style="fill:#ffffff;fill-opacity:1"
     d="m 8.2472522,285.6167 v 0.79375 H 8.1149606 c -0.07329,0 -0.1322917,0.059 -0.1322917,0.1323 v 1.32291 c 0,0.0733 0.059002,0.13229 0.1322917,0.13229 h 0.396875 v -0.79375 l 2.6458334,10e-6 v 0.79375 h 0.396875 c 0.07329,0 0.132292,-0.059 0.132292,-0.13229 v -1.32292 c 0,-0.0733 -0.059,-0.13229 -0.132292,-0.13229 h -0.132292 v -0.79375 h -0.264583 v 0.79375 l -2.6458334,-10e-6 v -0.79375 z"
     transform="matrix(3.7795276,0,0,3.7795276,-21.170718,-1067.4962)"
     id="path2347" /><path
     style="fill:#ffffff;fill-opacity:1"
     d="m 8.7764189,285.35212 v 0.79375 l 2.1166671,10e-6 v -0.79375 z"
     transform="matrix(3.7795276,0,0,3.7795276,-21.170718,-1067.4962)"
     id="path8" /></svg>
