<?xml version="1.0" encoding="UTF-8" standalone="no"?>
<svg
   height="32"
   viewBox="0 0 32 32"
   width="32"
   version="1.1"
   id="svg12"
   sodipodi:docname="virtualbox-vdi.svg"
   xml:space="preserve"
   inkscape:version="1.2.2 (b0a8486541, 2022-12-01)"
   xmlns:inkscape="http://www.inkscape.org/namespaces/inkscape"
   xmlns:sodipodi="http://sodipodi.sourceforge.net/DTD/sodipodi-0.dtd"
   xmlns:xlink="http://www.w3.org/1999/xlink"
   xmlns="http://www.w3.org/2000/svg"
   xmlns:svg="http://www.w3.org/2000/svg"><defs
     id="defs16"><linearGradient
       inkscape:collect="always"
       id="linearGradient3197"><stop
         style="stop-color:#dd376c;stop-opacity:1;"
         offset="0"
         id="stop3193" /><stop
         style="stop-color:#f15082;stop-opacity:1;"
         offset="1"
         id="stop3195" /></linearGradient><linearGradient
       inkscape:collect="always"
       xlink:href="#linearGradient3197"
       id="linearGradient3199"
       x1="-10"
       y1="1050.3622"
       x2="-10"
       y2="1022.3622"
       gradientUnits="userSpaceOnUse" /></defs><sodipodi:namedview
     id="namedview14"
     pagecolor="#ffffff"
     bordercolor="#000000"
     borderopacity="0.25"
     inkscape:showpageshadow="2"
     inkscape:pageopacity="0.0"
     inkscape:pagecheckerboard="0"
     inkscape:deskcolor="#d1d1d1"
     showgrid="true"
     inkscape:zoom="32.09375"
     inkscape:cx="12.634859"
     inkscape:cy="14.021422"
     inkscape:window-width="1517"
     inkscape:window-height="1363"
     inkscape:window-x="0"
     inkscape:window-y="0"
     inkscape:window-maximized="0"
     inkscape:current-layer="g10"><inkscape:grid
       type="xygrid"
       id="grid3891" /></sodipodi:namedview><g
     transform="translate(0 -282.64999)"
     id="g10"><path
       style="fill:#ba205b;fill-opacity:1"
       d="M -21,1021.3622 H 0.999999 c 1.108,0 2,0.892 2,2 v 26 c 0,1.108 -0.892,2 -2,2 H -21 c -1.108,0 -2,-0.892 -2,-2 v -26 c 0,-1.108 0.892,-2 2,-2 z"
       transform="translate(26,-737.71221)"
       id="path2" /><path
       style="fill-opacity:1;fill:url(#linearGradient3199)"
       d="M -21,1022.3622 H 0.999999 c 0.554,0 1,0.446 1,1 v 26 c 0,0.554 -0.446,1 -1,1 H -21 c -0.554,0 -1,-0.446 -1,-1 v -26 c 0,-0.554 0.446,-1 1,-1 z"
       transform="translate(26,-737.71221)"
       id="path4" /><path
       id="path6-3"
       d="m 9,291.64999 c -0.5539924,0 -1,0.44599 -1,1 v 14 c 0,0.55396 0.4460076,1 1,1 h 14 c 0.553992,0 1,-0.44603 1,-1 v -7 -7 c 0,-0.55401 -0.446008,-0.99999 -1,-1 z m 0,1 h 14 v 5 2 h -1 a 0.50005,0.50005 0 0 0 -0.447266,0.27539 l -0.460937,0.91992 -1.617188,-4.85351 a 0.50005,0.50005 0 0 0 -0.49414,-0.3418 0.50005,0.50005 0 0 0 -0.464844,0.37891 l -0.90625,3.62109 H 16 a 0.50005,0.50005 0 0 0 -0.447266,0.27539 l -1.460937,2.91992 -1.617188,-4.85351 a 0.50005,0.50005 0 0 0 -0.921875,-0.0664 L 10.691406,299.65 H 9 v -2 z m 10.068359,5.28711 1.457032,4.37109 a 0.50005,0.50005 0 0 0 0.921875,0.0645 l 0.861328,-1.72266 H 23 v 1 3 2 H 9 v -2 -3 -1 h 2 a 0.50005,0.50005 0 0 0 0.447266,-0.27734 l 0.458984,-0.91993 1.619141,4.85547 a 0.50005,0.50005 0 0 0 0.921875,0.0645 l 1.861328,-3.72266 H 18 a 0.50005,0.50005 0 0 0 0.484375,-0.37891 z"
       style="fill:#ba205b;fill-opacity:1" /><path
       id="path6"
       d="M 9 290.64999 C 8.4460076 290.64999 8 291.09598 8 291.64999 L 8 305.64999 C 8 306.20395 8.4460076 306.64999 9 306.64999 L 23 306.64999 C 23.553992 306.64999 24 306.20396 24 305.64999 L 24 298.64999 L 24 291.64999 C 24 291.09598 23.553992 290.65 23 290.64999 L 9 290.64999 z M 9 291.64999 L 23 291.64999 L 23 296.64999 L 23 298.64999 L 22 298.64999 A 0.50005 0.50005 0 0 0 21.552734 298.92538 L 21.091797 299.8453 L 19.474609 294.99179 A 0.50005 0.50005 0 0 0 18.980469 294.64999 A 0.50005 0.50005 0 0 0 18.515625 295.0289 L 17.609375 298.64999 L 16 298.64999 A 0.50005 0.50005 0 0 0 15.552734 298.92538 L 14.091797 301.8453 L 12.474609 296.99179 A 0.50005 0.50005 0 0 0 11.552734 296.92538 L 10.691406 298.64999 L 9 298.64999 L 9 296.64999 L 9 291.64999 z M 19.068359 296.9371 L 20.525391 301.30819 A 0.50005 0.50005 0 0 0 21.447266 301.37265 L 22.308594 299.64999 L 23 299.64999 L 23 300.64999 L 23 303.64999 L 23 305.64999 L 9 305.64999 L 9 303.64999 L 9 300.64999 L 9 299.64999 L 11 299.64999 A 0.50005 0.50005 0 0 0 11.447266 299.37265 L 11.90625 298.45272 L 13.525391 303.30819 A 0.50005 0.50005 0 0 0 14.447266 303.37265 L 16.308594 299.64999 L 18 299.64999 A 0.50005 0.50005 0 0 0 18.484375 299.27108 L 19.068359 296.9371 z "
       style="fill:#ffffff;fill-opacity:1" /></g></svg>
