<?xml version="1.0" encoding="UTF-8" standalone="no"?>
<svg
   height="32"
   viewBox="0 0 32 32"
   width="32"
   version="1.1"
   id="svg10"
   sodipodi:docname="text-x-subviewer.svg"
   inkscape:version="1.2.2 (b0a8486541, 2022-12-01)"
   xml:space="preserve"
   xmlns:inkscape="http://www.inkscape.org/namespaces/inkscape"
   xmlns:sodipodi="http://sodipodi.sourceforge.net/DTD/sodipodi-0.dtd"
   xmlns:xlink="http://www.w3.org/1999/xlink"
   xmlns="http://www.w3.org/2000/svg"
   xmlns:svg="http://www.w3.org/2000/svg"><defs
     id="defs14"><linearGradient
       inkscape:collect="always"
       id="linearGradient2739"><stop
         style="stop-color:#3471f0;stop-opacity:1;"
         offset="0"
         id="stop2735" /><stop
         style="stop-color:#5694fb;stop-opacity:1;"
         offset="1"
         id="stop2737" /></linearGradient><style
       id="current-color-scheme"
       type="text/css">
      .ColorScheme-Text {
        color:#122036;
      }
      </style><style
       id="current-color-scheme-2"
       type="text/css">
      .ColorScheme-Text {
        color:#122036;
      }
      </style><style
       id="current-color-scheme-0"
       type="text/css">
      .ColorScheme-Text {
        color:#122036;
      }
      </style><style
       id="current-color-scheme-5"
       type="text/css">
      .ColorScheme-Text {
        color:#122036;
      }
      </style><style
       id="current-color-scheme-2-3"
       type="text/css">
      .ColorScheme-Text {
        color:#122036;
      }
      </style><style
       id="current-color-scheme-0-5"
       type="text/css">
      .ColorScheme-Text {
        color:#122036;
      }
      </style><style
       type="text/css"
       id="current-color-scheme-36">
      .ColorScheme-Text {
        color:#36404d;
      }
      </style><style
       id="current-color-scheme-3"
       type="text/css">
      .ColorScheme-Text {
        color:#122036;
      }
      </style><style
       type="text/css"
       id="current-color-scheme-5-7">
      .ColorScheme-Text {
        color:#122036;
      }
      </style><style
       type="text/css"
       id="current-color-scheme-2-5">
      .ColorScheme-Text {
        color:#122036;
      }
      </style><style
       type="text/css"
       id="current-color-scheme-1">
      .ColorScheme-Text {
        color:#122036;
      }
      </style><style
       id="current-color-scheme-10"
       type="text/css">
      .ColorScheme-Text {
        color:#122036;
      }
      </style><style
       type="text/css"
       id="current-color-scheme-0-3">
      .ColorScheme-Text {
        color:#122036;
      }
      </style><style
       type="text/css"
       id="current-color-scheme-26">
      .ColorScheme-Text {
        color:#122036;
      }
      </style><linearGradient
       inkscape:collect="always"
       xlink:href="#linearGradient2739"
       id="linearGradient2741"
       x1="8.625"
       y1="293.64999"
       x2="8.625"
       y2="267.64999"
       gradientUnits="userSpaceOnUse" /></defs><sodipodi:namedview
     id="namedview12"
     pagecolor="#ffffff"
     bordercolor="#000000"
     borderopacity="0.25"
     inkscape:showpageshadow="2"
     inkscape:pageopacity="0.0"
     inkscape:pagecheckerboard="0"
     inkscape:deskcolor="#d1d1d1"
     showgrid="true"
     inkscape:zoom="20.85965"
     inkscape:cx="24.664843"
     inkscape:cy="14.525651"
     inkscape:window-width="1517"
     inkscape:window-height="1363"
     inkscape:window-x="0"
     inkscape:window-y="0"
     inkscape:window-maximized="0"
     inkscape:current-layer="g8"><inkscape:grid
       type="xygrid"
       id="grid297" /></sodipodi:namedview><g
     transform="translate(6.375 -264.64999)"
     id="g8"><path
       id="rect1420"
       style="fill:#33518f;stroke-width:2;stroke-linecap:round;stroke-linejoin:round;stroke-miterlimit:1.8;paint-order:stroke fill markers;stop-color:#000000;fill-opacity:1"
       d="M -1.3750039,265.64999 H 20.625004 c 1.107998,0 1.999996,0.892 1.999996,2 V 293.65 c 0,1.108 -0.891998,1.99999 -1.999996,1.99999 H -1.3750039 C -2.4830018,295.64999 -3.375,294.758 -3.375,293.65 v -26.00001 c 0,-1.108 0.8919982,-2 1.9999961,-2 z" /><path
       id="rect1441"
       style="fill:url(#linearGradient2741);stroke-width:2;stroke-linecap:round;stroke-linejoin:round;stroke-miterlimit:1.8;paint-order:stroke fill markers;stop-color:#000000;fill-opacity:1"
       d="m -1.375,266.64999 h 22 c 0.554,0 1,0.446 1,1 v 26 c 0,0.554 -0.446,1 -1,1 h -22 c -0.554,0 -1,-0.446 -1,-1 v -26 c 0,-0.554 0.446,-1 1,-1 z" /><path
       id="path351-5"
       style="fill:#335291;fill-opacity:1;stroke-width:2.57863;stroke-linecap:round;stroke-linejoin:round;stroke-miterlimit:1.8;paint-order:stroke fill markers;stop-color:#000000"
       d="m 9.625,273.64999 a 8,8 0 0 0 -8,8 8,8 0 0 0 8,8 h 8 a 1.0001,1.0001 0 0 0 0.707031,-1.70703 l -1.974609,-1.97461 a 8,8 0 0 0 1.267578,-4.31836 8,8 0 0 0 -8,-8 z m -4,7 c 0.5539983,0 1,0.446 1,1 0,0.554 -0.4460017,1 -1,1 -0.5539983,0 -1,-0.446 -1,-1 0,-0.554 0.4460017,-1 1,-1 z m 4,0 c 0.553998,0 1,0.446 1,1 0,0.554 -0.446002,1 -1,1 -0.5539983,0 -1,-0.446 -1,-1 0,-0.554 0.4460017,-1 1,-1 z m 4,0 c 0.553998,0 1,0.446 1,1 0,0.554 -0.446002,1 -1,1 -0.553998,0 -1,-0.446 -1,-1 0,-0.554 0.446002,-1 1,-1 z" /><path
       id="path351"
       style="fill:#fbfcfd;stroke-width:2.57863;stroke-linecap:round;stroke-linejoin:round;stroke-miterlimit:1.8;paint-order:stroke fill markers;stop-color:#000000;fill-opacity:1"
       d="M 9.625 272.64999 A 8 8 0 0 0 1.625 280.64999 A 8 8 0 0 0 9.625 288.64999 L 17.625 288.64999 A 1.0001 1.0001 0 0 0 18.332031 286.94296 L 16.357422 284.96835 A 8 8 0 0 0 17.625 280.64999 A 8 8 0 0 0 9.625 272.64999 z M 5.625 279.64999 C 6.1789983 279.64999 6.625 280.09599 6.625 280.64999 C 6.625 281.20399 6.1789983 281.64999 5.625 281.64999 C 5.0710017 281.64999 4.625 281.20399 4.625 280.64999 C 4.625 280.09599 5.0710017 279.64999 5.625 279.64999 z M 9.625 279.64999 C 10.178998 279.64999 10.625 280.09599 10.625 280.64999 C 10.625 281.20399 10.178998 281.64999 9.625 281.64999 C 9.0710017 281.64999 8.625 281.20399 8.625 280.64999 C 8.625 280.09599 9.0710017 279.64999 9.625 279.64999 z M 13.625 279.64999 C 14.178998 279.64999 14.625 280.09599 14.625 280.64999 C 14.625 281.20399 14.178998 281.64999 13.625 281.64999 C 13.071002 281.64999 12.625 281.20399 12.625 280.64999 C 12.625 280.09599 13.071002 279.64999 13.625 279.64999 z " /><g
       id="path416" /></g></svg>
