<?xml version="1.0" encoding="UTF-8" standalone="no"?>
<svg
   height="32"
   viewBox="0 0 32 32"
   width="32"
   version="1.1"
   id="svg10"
   sodipodi:docname="text-x-sql.svg"
   inkscape:version="1.2.2 (b0a8486541, 2022-12-01)"
   xmlns:inkscape="http://www.inkscape.org/namespaces/inkscape"
   xmlns:sodipodi="http://sodipodi.sourceforge.net/DTD/sodipodi-0.dtd"
   xmlns:xlink="http://www.w3.org/1999/xlink"
   xmlns="http://www.w3.org/2000/svg"
   xmlns:svg="http://www.w3.org/2000/svg">
  <defs
     id="defs14">
    <linearGradient
       inkscape:collect="always"
       id="linearGradient874">
      <stop
         style="stop-color:#85baff;stop-opacity:1;"
         offset="0"
         id="stop870" />
      <stop
         style="stop-color:#a6ceff;stop-opacity:1;"
         offset="1"
         id="stop872" />
    </linearGradient>
    <linearGradient
       inkscape:collect="always"
       xlink:href="#linearGradient874"
       id="linearGradient876"
       x1="0"
       y1="303.64999"
       x2="0"
       y2="276.64999"
       gradientUnits="userSpaceOnUse" />
  </defs>
  <sodipodi:namedview
     id="namedview12"
     pagecolor="#ffffff"
     bordercolor="#000000"
     borderopacity="0.25"
     inkscape:showpageshadow="2"
     inkscape:pageopacity="0.0"
     inkscape:pagecheckerboard="0"
     inkscape:deskcolor="#d1d1d1"
     showgrid="true"
     inkscape:zoom="32.09375"
     inkscape:cx="14.987342"
     inkscape:cy="16.015579"
     inkscape:window-width="2510"
     inkscape:window-height="1411"
     inkscape:window-x="0"
     inkscape:window-y="0"
     inkscape:window-maximized="1"
     inkscape:current-layer="svg10">
    <inkscape:grid
       type="xygrid"
       id="grid290" />
  </sodipodi:namedview>
  <g
     transform="translate(16 -274.64999)"
     id="g6">
    <path
       d="m-11 275.64999h21.999999c1.108 0 2 .892 2 2v26c0 1.108-.892 2-2 2h-21.999999c-1.108 0-2-.892-2-2v-26c0-1.108.892-2 2-2z"
       fill="#75b3ff"
       id="path2" />
    <path
       style="fill-opacity:1;fill:url(#linearGradient876)"
       d="m -11,276.64999 h 21.999999 c 0.554,0 1,0.446 1,1 v 26 c 0,0.554 -0.446,1 -1,1 H -11 c -0.554,0 -1,-0.446 -1,-1 v -26 c 0,-0.554 0.446,-1 1,-1 z"
       id="path4" />
  </g>
  <path
     id="path904"
     style="fill:#75b3ff;fill-opacity:1"
     d="M 8 10 L 8 15 L 8 26 L 24 26 L 24 15 L 19 15 L 19 10 L 8 10 z M 9 11 L 18 11 L 18 15 L 9 15 L 9 11 z M 10 12 L 10 14 L 17 14 L 17 12 L 10 12 z M 9 16 L 23 16 L 23 20 L 9 20 L 9 16 z M 10 17 L 10 19 L 22 19 L 22 17 L 10 17 z M 9 21 L 23 21 L 23 25 L 9 25 L 9 21 z M 10 22 L 10 24 L 22 24 L 22 22 L 10 22 z " />
  <path
     id="path904-3"
     style="fill:#ebf4ff;fill-opacity:0.980392"
     d="m 8,9 v 5 11 H 24 V 14 H 19 V 9 Z m 1,1 h 9 v 4 H 9 Z m 1,1 v 2 h 7 v -2 z m -1,4 h 14 v 4 H 9 Z m 1,1 v 2 h 12 v -2 z m -1,4 h 14 v 4 H 9 Z m 1,1 v 2 h 12 v -2 z" />
</svg>
