<?xml version="1.0" encoding="UTF-8" standalone="no"?>
<!-- Created with Inkscape (http://www.inkscape.org/) -->

<svg
   width="32"
   height="32"
   viewBox="0 0 32 32"
   version="1.1"
   id="svg8"
   inkscape:version="1.2.2 (b0a8486541, 2022-12-01)"
   sodipodi:docname="application-x-perl.svg"
   xml:space="preserve"
   xmlns:inkscape="http://www.inkscape.org/namespaces/inkscape"
   xmlns:sodipodi="http://sodipodi.sourceforge.net/DTD/sodipodi-0.dtd"
   xmlns:xlink="http://www.w3.org/1999/xlink"
   xmlns="http://www.w3.org/2000/svg"
   xmlns:svg="http://www.w3.org/2000/svg"
   xmlns:rdf="http://www.w3.org/1999/02/22-rdf-syntax-ns#"
   xmlns:cc="http://creativecommons.org/ns#"
   xmlns:dc="http://purl.org/dc/elements/1.1/"><title
     id="title7895">Antu icon Theme</title><defs
     id="defs2"><linearGradient
       gradientUnits="userSpaceOnUse"
       y2="289.59164"
       x2="4.2333336"
       y1="296.20624"
       x1="4.2333336"
       id="linearGradient837"
       xlink:href="#linearGradient5716"
       inkscape:collect="always"
       gradientTransform="matrix(3.7795275,0,0,3.7795275,-4,-805.24471)" /><linearGradient
       inkscape:collect="always"
       id="linearGradient5716"><stop
         style="stop-color:#06a4f9;stop-opacity:1;"
         offset="0"
         id="stop5712" /><stop
         style="stop-color:#50c1f9;stop-opacity:1;"
         offset="1"
         id="stop5714" /></linearGradient><style
       id="current-color-scheme"
       type="text/css">
      .ColorScheme-Text {
        color:#122036;
      }
      </style><style
       type="text/css"
       id="current-color-scheme-53">
      .ColorScheme-Text {
        color:#122036;
      }
      </style><style
       id="current-color-scheme-5"
       type="text/css">
      .ColorScheme-Text {
        color:#122036;
      }
      </style><style
       id="current-color-scheme-2"
       type="text/css">
      .ColorScheme-Text {
        color:#122036;
      }
      </style><style
       id="current-color-scheme-1"
       type="text/css">
      .ColorScheme-Text {
        color:#122036;
      }
      </style><style
       type="text/css"
       id="current-color-scheme-10">
      .ColorScheme-Text {
        color:#122036;
      }
      </style><style
       id="current-color-scheme-0"
       type="text/css">
      .ColorScheme-Text {
        color:#122036;
      }
      </style><style
       id="current-color-scheme-26"
       type="text/css">
      .ColorScheme-Text {
        color:#122036;
      }
      </style><style
       id="current-color-scheme-7"
       type="text/css">
      .ColorScheme-Text {
        color:#122036;
      }
      </style><style
       id="current-color-scheme-535"
       type="text/css">
      .ColorScheme-Text {
        color:#122036;
      }
      </style><style
       type="text/css"
       id="current-color-scheme-53-6">
      .ColorScheme-Text {
        color:#122036;
      }
      </style><style
       id="current-color-scheme-5-2"
       type="text/css">
      .ColorScheme-Text {
        color:#122036;
      }
      </style><style
       id="current-color-scheme-2-9"
       type="text/css">
      .ColorScheme-Text {
        color:#122036;
      }
      </style><style
       id="current-color-scheme-1-1"
       type="text/css">
      .ColorScheme-Text {
        color:#122036;
      }
      </style><style
       type="text/css"
       id="current-color-scheme-10-2">
      .ColorScheme-Text {
        color:#122036;
      }
      </style><style
       id="current-color-scheme-0-7"
       type="text/css">
      .ColorScheme-Text {
        color:#122036;
      }
      </style><style
       id="current-color-scheme-26-0"
       type="text/css">
      .ColorScheme-Text {
        color:#122036;
      }
      </style><style
       id="current-color-scheme-7-9"
       type="text/css">
      .ColorScheme-Text {
        color:#122036;
      }
      </style></defs><sodipodi:namedview
     id="base"
     pagecolor="#ffffff"
     bordercolor="#666666"
     borderopacity="1.0"
     inkscape:pageopacity="0.0"
     inkscape:pageshadow="2"
     inkscape:zoom="31.999999"
     inkscape:cx="29.140626"
     inkscape:cy="15.218751"
     inkscape:document-units="px"
     inkscape:current-layer="layer1"
     showgrid="true"
     units="px"
     inkscape:window-width="2560"
     inkscape:window-height="1363"
     inkscape:window-x="0"
     inkscape:window-y="0"
     inkscape:window-maximized="1"
     objecttolerance="10"
     gridtolerance="10"
     guidetolerance="10"
     inkscape:showpageshadow="2"
     inkscape:pagecheckerboard="0"
     inkscape:deskcolor="#d1d1d1"><inkscape:grid
       type="xygrid"
       id="grid7897"
       empspacing="4" /></sodipodi:namedview><metadata
     id="metadata5"><rdf:RDF><cc:Work
         rdf:about=""><dc:format>image/svg+xml</dc:format><dc:type
           rdf:resource="http://purl.org/dc/dcmitype/StillImage" /><dc:title>Antu icon Theme</dc:title></cc:Work></rdf:RDF></metadata><g
     inkscape:label="Capa 1"
     inkscape:groupmode="layer"
     id="layer1"
     transform="translate(0,-282.64999)"><g
       id="g9752"
       transform="translate(4.0000005,-2.625)"><path
         inkscape:connector-curvature="0"
         style="opacity:1;fill:#3182d9;fill-opacity:1;stroke:none;stroke-width:2;stroke-linecap:round;stroke-linejoin:round;stroke-miterlimit:4;stroke-dasharray:none;stroke-opacity:1"
         d="m 1,286.27499 h 21.999999 c 1.108,0 2,0.892 2,2 v 26 c 0,1.108 -0.892,2 -2,2 H 1 c -1.108,0 -2,-0.892 -2,-2 v -26 c 0,-1.108 0.892,-2 2,-2 z"
         id="rect827" /><path
         inkscape:connector-curvature="0"
         style="opacity:1;fill:url(#linearGradient837);fill-opacity:1;stroke:none;stroke-width:2;stroke-linecap:round;stroke-linejoin:round;stroke-miterlimit:4;stroke-dasharray:none;stroke-opacity:1"
         d="m 1,287.27499 h 21.999999 c 0.554,0 1,0.446 1,1 v 26 c 0,0.554 -0.446,1 -1,1 H 1 c -0.554,0 -1,-0.446 -1,-1 v -26 c 0,-0.554 0.446,-1 1,-1 z"
         id="rect829" /></g><g
       id="g4218"
       transform="translate(44,-1.75)"><path
         id="rect4405-73"
         style="opacity:1;fill:#3182d9;fill-opacity:1;stroke:none;stroke-width:1;stroke-linecap:round;stroke-linejoin:round;stroke-miterlimit:4;stroke-dasharray:none;stroke-dashoffset:0;stroke-opacity:1"
         d="M -38 289.39999 L -38 291.39999 L -33 291.39999 L -33 289.39999 L -38 289.39999 z M -32 289.39999 L -32 291.39999 L -30 291.39999 L -30 289.39999 L -32 289.39999 z M -29 289.39999 L -29 291.39999 L -24 291.39999 L -24 289.39999 L -29 289.39999 z M -23 289.39999 L -23 291.39999 L -21 291.39999 L -21 289.39999 L -23 289.39999 z M -38 292.39999 L -38 294.39999 L -30 294.39999 L -30 292.39999 L -38 292.39999 z M -29 292.39999 L -29 294.39999 L -27 294.39999 L -27 292.39999 L -29 292.39999 z M -26 292.39999 L -26 294.39999 L -21 294.39999 L -21 292.39999 L -26 292.39999 z M -38 295.39999 L -38 297.39999 L -36 297.39999 L -36 295.39999 L -38 295.39999 z M -35 295.39999 L -35 297.39999 L -33 297.39999 L -33 295.39999 L -35 295.39999 z M -32 295.39999 L -32 297.39999 L -27 297.39999 L -27 295.39999 L -32 295.39999 z M -26 295.39999 L -26 297.39999 L -24 297.39999 L -24 295.39999 L -26 295.39999 z M -23 295.39999 L -23 297.39999 L -21 297.39999 L -21 295.39999 L -23 295.39999 z M -38 298.39999 L -38 300.39999 L -33 300.39999 L -33 298.39999 L -38 298.39999 z M -32 298.39999 L -32 300.39999 L -30 300.39999 L -30 298.39999 L -32 298.39999 z M -29 298.39999 L -29 300.39999 L -24 300.39999 L -24 298.39999 L -29 298.39999 z M -38 301.39999 L -38 303.39999 L -36 303.39999 L -36 301.39999 L -38 301.39999 z M -35 301.39999 L -35 303.39999 L -30 303.39999 L -30 301.39999 L -35 301.39999 z M -28 302.39999 L -27 311.39999 L -23 314.39999 L -19 311.39999 L -18 302.39999 L -28 302.39999 z M -38 304.39999 L -38 306.39999 L -33 306.39999 L -33 304.39999 L -38 304.39999 z M -32 304.39999 L -32 306.39999 L -30 306.39999 L -30 304.39999 L -32 304.39999 z M -38 307.39999 L -38 309.39999 L -36 309.39999 L -36 307.39999 L -38 307.39999 z M -35 307.39999 L -35 309.39999 L -32 309.39999 L -32 307.39999 L -35 307.39999 z M -31 307.39999 L -31 309.39999 L -29 309.39999 L -29 307.39999 L -31 307.39999 z M -38 310.39999 L -38 312.39999 L -33 312.39999 L -33 310.39999 L -38 310.39999 z M -32 310.39999 L -32 312.39999 L -29 312.39999 L -29 310.39999 L -32 310.39999 z " /><g
         id="g5094"
         transform="translate(-44,1.7499998)"><path
           style="opacity:1;fill:#ffffff;fill-opacity:1;stroke:none;stroke-width:1;stroke-linecap:round;stroke-linejoin:round;stroke-miterlimit:4;stroke-dasharray:none;stroke-dashoffset:0;stroke-opacity:1"
           d="m 6,286.64999 5,0 0,2 -5,0 z"
           id="rect4405"
           inkscape:connector-curvature="0" /><path
           style="opacity:1;fill:#d7f1fe;fill-opacity:1;stroke:none;stroke-width:1;stroke-linecap:round;stroke-linejoin:round;stroke-miterlimit:4;stroke-dasharray:none;stroke-dashoffset:0;stroke-opacity:1"
           d="m 12,286.64999 2,0 0,2 -2,0 z"
           id="rect4407"
           inkscape:connector-curvature="0" /><path
           style="opacity:1;fill:#d7f1fe;fill-opacity:1;stroke:none;stroke-width:1;stroke-linecap:round;stroke-linejoin:round;stroke-miterlimit:4;stroke-dasharray:none;stroke-dashoffset:0;stroke-opacity:1"
           d="m 15,286.64999 5,0 0,2 -5,0 z"
           id="rect4409"
           inkscape:connector-curvature="0" /><path
           style="opacity:1;fill:#d7f1fe;fill-opacity:1;stroke:none;stroke-width:1;stroke-linecap:round;stroke-linejoin:round;stroke-miterlimit:4;stroke-dasharray:none;stroke-dashoffset:0;stroke-opacity:1"
           d="m 21,286.64999 2,0 0,2 -2,0 z"
           id="rect4407-0"
           inkscape:connector-curvature="0" /><path
           style="opacity:1;fill:#d7f1fe;fill-opacity:1;stroke:none;stroke-width:1;stroke-linecap:round;stroke-linejoin:round;stroke-miterlimit:4;stroke-dasharray:none;stroke-dashoffset:0;stroke-opacity:1"
           d="m 6,289.64999 8,0 0,2 -8,0 z"
           id="rect4405-6"
           inkscape:connector-curvature="0" /><path
           style="opacity:1;fill:#ffffff;fill-opacity:1;stroke:none;stroke-width:1;stroke-linecap:round;stroke-linejoin:round;stroke-miterlimit:4;stroke-dasharray:none;stroke-dashoffset:0;stroke-opacity:1"
           d="m 15,289.64999 2,0 0,2 -2,0 z"
           id="rect4407-2"
           inkscape:connector-curvature="0" /><path
           style="opacity:1;fill:#ffffff;fill-opacity:1;stroke:none;stroke-width:1;stroke-linecap:round;stroke-linejoin:round;stroke-miterlimit:4;stroke-dasharray:none;stroke-dashoffset:0;stroke-opacity:1"
           d="m 18,289.64999 5,0 0,2 -5,0 z"
           id="rect4409-6"
           inkscape:connector-curvature="0" /><path
           style="opacity:1;fill:#ffffff;fill-opacity:1;stroke:none;stroke-width:1;stroke-linecap:round;stroke-linejoin:round;stroke-miterlimit:4;stroke-dasharray:none;stroke-dashoffset:0;stroke-opacity:1"
           d="m 6,292.64999 2,0 0,2 -2,0 z"
           id="rect4407-0-1"
           inkscape:connector-curvature="0" /><path
           style="opacity:1;fill:#d7f1fe;fill-opacity:1;stroke:none;stroke-width:1;stroke-linecap:round;stroke-linejoin:round;stroke-miterlimit:4;stroke-dasharray:none;stroke-dashoffset:0;stroke-opacity:1"
           d="m 9,292.64999 2,0 0,2 -2,0 z"
           id="rect4407-0-8"
           inkscape:connector-curvature="0" /><path
           style="opacity:1;fill:#d7f1fe;fill-opacity:1;stroke:none;stroke-width:1;stroke-linecap:round;stroke-linejoin:round;stroke-miterlimit:4;stroke-dasharray:none;stroke-dashoffset:0;stroke-opacity:1"
           d="m 12,292.64999 5,0 0,2 -5,0 z"
           id="rect4405-7"
           inkscape:connector-curvature="0" /><path
           style="opacity:1;fill:#ffffff;fill-opacity:1;stroke:none;stroke-width:1;stroke-linecap:round;stroke-linejoin:round;stroke-miterlimit:4;stroke-dasharray:none;stroke-dashoffset:0;stroke-opacity:1"
           d="m 18,292.64999 2,0 0,2 -2,0 z"
           id="rect4407-2-9"
           inkscape:connector-curvature="0" /><path
           style="opacity:1;fill:#ffffff;fill-opacity:1;stroke:none;stroke-width:1;stroke-linecap:round;stroke-linejoin:round;stroke-miterlimit:4;stroke-dasharray:none;stroke-dashoffset:0;stroke-opacity:1"
           d="m 21,292.64999 2,0 0,2 -2,0 z"
           id="rect4407-2-9-2"
           inkscape:connector-curvature="0" /><path
           style="opacity:1;fill:#d7f1fe;fill-opacity:1;stroke:none;stroke-width:1;stroke-linecap:round;stroke-linejoin:round;stroke-miterlimit:4;stroke-dasharray:none;stroke-dashoffset:0;stroke-opacity:1"
           d="m 6,295.64999 5,0 0,2 -5,0 z"
           id="rect4405-7-0"
           inkscape:connector-curvature="0" /><path
           style="opacity:1;fill:#d7f1fe;fill-opacity:1;stroke:none;stroke-width:1;stroke-linecap:round;stroke-linejoin:round;stroke-miterlimit:4;stroke-dasharray:none;stroke-dashoffset:0;stroke-opacity:1"
           d="m 6,298.64999 2,0 0,2 -2,0 z"
           id="rect4407-0-1-2"
           inkscape:connector-curvature="0" /><path
           style="opacity:1;fill:#d7f1fe;fill-opacity:1;stroke:none;stroke-width:1;stroke-linecap:round;stroke-linejoin:round;stroke-miterlimit:4;stroke-dasharray:none;stroke-dashoffset:0;stroke-opacity:1"
           d="m 9,298.64999 5,0 0,2 -5,0 z"
           id="rect4405-7-0-3"
           inkscape:connector-curvature="0" /><path
           style="opacity:1;fill:#ffffff;fill-opacity:1;stroke:none;stroke-width:1;stroke-linecap:round;stroke-linejoin:round;stroke-miterlimit:4;stroke-dasharray:none;stroke-dashoffset:0;stroke-opacity:1"
           d="m 6,301.64999 5,0 0,2 -5,0 z"
           id="rect4405-7-0-3-7"
           inkscape:connector-curvature="0" /><path
           style="opacity:1;fill:#d7f1fe;fill-opacity:1;stroke:none;stroke-width:1;stroke-linecap:round;stroke-linejoin:round;stroke-miterlimit:4;stroke-dasharray:none;stroke-dashoffset:0;stroke-opacity:1"
           d="m 6,304.64999 2,0 0,2 -2,0 z"
           id="rect4407-2-9-5"
           inkscape:connector-curvature="0" /><path
           style="opacity:1;fill:#ffffff;fill-opacity:1;stroke:none;stroke-width:1;stroke-linecap:round;stroke-linejoin:round;stroke-miterlimit:4;stroke-dasharray:none;stroke-dashoffset:0;stroke-opacity:1"
           d="m 13,304.64999 2,0 0,2 -2,0 z"
           id="rect4407-2-9-2-9"
           inkscape:connector-curvature="0" /><path
           style="opacity:1;fill:#d7f1fe;fill-opacity:1;stroke:none;stroke-width:1;stroke-linecap:round;stroke-linejoin:round;stroke-miterlimit:4;stroke-dasharray:none;stroke-dashoffset:0;stroke-opacity:1"
           d="m 9,304.64999 3,0 0,2 -3,0 z"
           id="rect4405-7-0-3-7-2"
           inkscape:connector-curvature="0" /><path
           style="opacity:1;fill:#d7f1fe;fill-opacity:1;stroke:none;stroke-width:1;stroke-linecap:round;stroke-linejoin:round;stroke-miterlimit:4;stroke-dasharray:none;stroke-dashoffset:0;stroke-opacity:1"
           d="m 6,307.64999 5,0 0,2 -5,0 z"
           id="rect4639"
           inkscape:connector-curvature="0" /><path
           style="opacity:1;fill:#d7f1fe;fill-opacity:1;stroke:none;stroke-width:1;stroke-linecap:round;stroke-linejoin:round;stroke-miterlimit:4;stroke-dasharray:none;stroke-dashoffset:0;stroke-opacity:1"
           d="m 12,307.64999 3,0 0,2 -3,0 z"
           id="rect4641"
           inkscape:connector-curvature="0" /><path
           style="opacity:1;fill:#d7f1fe;fill-opacity:1;stroke:none;stroke-width:1;stroke-linecap:round;stroke-linejoin:round;stroke-miterlimit:4;stroke-dasharray:none;stroke-dashoffset:0;stroke-opacity:1"
           d="m 12,301.64999 2,0 0,2 -2,0 z"
           id="rect4407-2-9-2-9-2"
           inkscape:connector-curvature="0" /><path
           style="opacity:1;fill:#ffffff;fill-opacity:1;stroke:none;stroke-width:1;stroke-linecap:round;stroke-linejoin:round;stroke-miterlimit:4;stroke-dasharray:none;stroke-dashoffset:0;stroke-opacity:1"
           d="m 12,295.64999 2,0 0,2 -2,0 z"
           id="rect4407-2-9-2-8"
           inkscape:connector-curvature="0" /><path
           style="opacity:1;fill:#d7f1fe;fill-opacity:1;stroke:none;stroke-width:1;stroke-linecap:round;stroke-linejoin:round;stroke-miterlimit:4;stroke-dasharray:none;stroke-dashoffset:0;stroke-opacity:1"
           d="m 15,295.64999 5,0 0,2 -5,0 z"
           id="rect4405-7-0-3-9"
           inkscape:connector-curvature="0" /></g><path
         sodipodi:nodetypes="cccccc"
         inkscape:connector-curvature="0"
         id="path4782"
         d="m -28,301.39999 10,0 -1,9 -4,3 -4,-3 z"
         style="fill:#d7f1fe;fill-opacity:1;fill-rule:evenodd;stroke:none;stroke-width:1px;stroke-linecap:butt;stroke-linejoin:miter;stroke-opacity:1" /><path
         sodipodi:nodetypes="ccccc"
         inkscape:connector-curvature="0"
         id="path4799"
         d="m -23,302.39999 4,0 -1,7.5 -3,2.5 z"
         style="fill:#50c1f9;fill-opacity:1;fill-rule:evenodd;stroke:none;stroke-width:1px;stroke-linecap:butt;stroke-linejoin:miter;stroke-opacity:1" /></g></g></svg>
