<?xml version="1.0" encoding="UTF-8" standalone="no"?>
<!-- Created with Inkscape (http://www.inkscape.org/) -->

<svg
   width="32"
   height="32"
   viewBox="0 0 32 32"
   version="1.1"
   id="svg8"
   inkscape:version="1.2.2 (b0a8486541, 2022-12-01)"
   sodipodi:docname="application-x-ar.svg"
   xml:space="preserve"
   xmlns:inkscape="http://www.inkscape.org/namespaces/inkscape"
   xmlns:sodipodi="http://sodipodi.sourceforge.net/DTD/sodipodi-0.dtd"
   xmlns:xlink="http://www.w3.org/1999/xlink"
   xmlns="http://www.w3.org/2000/svg"
   xmlns:svg="http://www.w3.org/2000/svg"
   xmlns:rdf="http://www.w3.org/1999/02/22-rdf-syntax-ns#"
   xmlns:cc="http://creativecommons.org/ns#"
   xmlns:dc="http://purl.org/dc/elements/1.1/"><title
     id="title7895">Antu icon Theme</title><defs
     id="defs2"><linearGradient
       gradientTransform="translate(-27.999999,264.77488)"
       inkscape:collect="always"
       xlink:href="#linearGradient4926"
       id="linearGradient4928"
       x1="16"
       y1="18.000013"
       x2="16"
       y2="3.0000134"
       gradientUnits="userSpaceOnUse" /><linearGradient
       inkscape:collect="always"
       id="linearGradient4926"><stop
         style="stop-color:#212121;stop-opacity:1"
         offset="0"
         id="stop4922" /><stop
         style="stop-color:#2c2c2c;stop-opacity:1"
         offset="1"
         id="stop4924" /></linearGradient><linearGradient
       gradientUnits="userSpaceOnUse"
       y2="289.85626"
       x2="4.2333331"
       y1="296.47086"
       x1="4.2333331"
       id="linearGradient837"
       xlink:href="#linearGradient5716"
       inkscape:collect="always"
       gradientTransform="matrix(3.7795275,0,0,3.7795275,-4,-805.24471)" /><linearGradient
       inkscape:collect="always"
       id="linearGradient5716"><stop
         style="stop-color:#1c9af5;stop-opacity:1;"
         offset="0"
         id="stop5712" /><stop
         style="stop-color:#1fb5f9;stop-opacity:1"
         offset="1"
         id="stop5714" /></linearGradient></defs><sodipodi:namedview
     id="base"
     pagecolor="#ffffff"
     bordercolor="#666666"
     borderopacity="1.0"
     inkscape:pageopacity="0.0"
     inkscape:pageshadow="2"
     inkscape:zoom="11.313708"
     inkscape:cx="48.304233"
     inkscape:cy="10.253048"
     inkscape:document-units="px"
     inkscape:current-layer="g9752"
     showgrid="true"
     units="px"
     inkscape:window-width="2560"
     inkscape:window-height="1363"
     inkscape:window-x="0"
     inkscape:window-y="0"
     inkscape:window-maximized="1"
     objecttolerance="10"
     gridtolerance="10"
     guidetolerance="10"
     inkscape:showpageshadow="2"
     inkscape:pagecheckerboard="0"
     inkscape:deskcolor="#d1d1d1"><inkscape:grid
       type="xygrid"
       id="grid7897"
       empspacing="4" /></sodipodi:namedview><metadata
     id="metadata5"><rdf:RDF><cc:Work
         rdf:about=""><dc:format>image/svg+xml</dc:format><dc:type
           rdf:resource="http://purl.org/dc/dcmitype/StillImage" /><dc:title>Antu icon Theme</dc:title></cc:Work></rdf:RDF></metadata><g
     inkscape:label="Capa 1"
     inkscape:groupmode="layer"
     id="layer1"
     transform="translate(0,-282.64999)"><g
       id="g9752"
       transform="translate(4.0000005,-2.625)"><path
         inkscape:connector-curvature="0"
         style="opacity:1;fill:#1568b4;fill-opacity:1;stroke:none;stroke-width:2;stroke-linecap:round;stroke-linejoin:round;stroke-miterlimit:4;stroke-dasharray:none;stroke-opacity:1"
         d="m 1,286.27499 h 21.999999 c 1.108,0 2,0.892 2,2 v 26 c 0,1.108 -0.892,2 -2,2 H 1 c -1.108,0 -2,-0.892 -2,-2 v -26 c 0,-1.108 0.892,-2 2,-2 z"
         id="rect827" /><path
         inkscape:connector-curvature="0"
         style="opacity:1;fill:url(#linearGradient837);fill-opacity:1;stroke:none;stroke-width:2;stroke-linecap:round;stroke-linejoin:round;stroke-miterlimit:4;stroke-dasharray:none;stroke-opacity:1"
         d="m 1,287.27499 h 21.999999 c 0.554,0 1,0.446 1,1 v 26 c 0,0.554 -0.446,1 -1,1 H 1 c -0.554,0 -1,-0.446 -1,-1 v -26 c 0,-0.554 0.446,-1 1,-1 z"
         id="rect829" /></g><g
       id="g4720"
       transform="translate(28,17.875005)"><path
         sodipodi:nodetypes="cccsssccccccc"
         inkscape:connector-curvature="0"
         style="fill:#010102;fill-opacity:1;stroke:none;stroke-width:1.00157475;stroke-linecap:round;stroke-linejoin:round;stroke-miterlimit:4;stroke-dasharray:none;stroke-opacity:1"
         d="m -14.999999,265.77496 v 5 1 13.00008 c 0,1.66202 1.338,3 3,3 1.662,0 2.9999998,-1.33798 2.9999998,-3 v -13.00008 -1 -5 h -1 -1.9999998 -2 z"
         id="rect4856" /><path
         style="fill:url(#linearGradient4928);fill-opacity:1;stroke:none;stroke-width:1.00157475;stroke-linecap:round;stroke-linejoin:round;stroke-miterlimit:4;stroke-dasharray:none;stroke-opacity:1"
         d="m -13.999999,266.77493 v 2.99997 15.00008 c 0,1.108 0.892,2.00002 2,2.00002 1.108,0 1.9999998,-0.89202 1.9999998,-2.00002 v -15.00008 -2.99997 h -1.9999998 z"
         id="rect4917"
         inkscape:connector-curvature="0"
         sodipodi:nodetypes="ccssscccc" /><path
         id="path904"
         d="m -11.999999,266.77501 v 1 h 1 v -1 z m 0,1 h -1 v 1 h 1 z m 0,1 v 1 h 1 v -1 z m 0,1 h -1 v 1 h 1 z m 0,1 v 1 h 1 v -1 z m 0,1 h -1 v 1 h 1 z m 0,1 v 1 h 1 v -1 z m 0,1 h -1 v 1 h 1 z m 0,1 v 1 h 1 v -1 z m 0,1 h -1 v 1 h 1 z m 0,1 v 1 h 1 v -1 z m 0,1 h -1 v 1 h 1 z m 0,1 v 1 h 1 v -1 z m 0,1 h -1 v 1 h 1 z m 0,1 v 1 h 1 v -1 z m 0,1 h -1 v 1 h 1 z m 0,1 v 1 h 1 v -1 z m 0,1 h -1 v 1 h 1 z m 0,1 v 1 h 1 v -1 z"
         style="fill:#fefefe;fill-opacity:1;stroke:none;stroke-width:1.00157475;stroke-linecap:round;stroke-linejoin:round;stroke-miterlimit:4;stroke-dasharray:none;stroke-opacity:1"
         inkscape:connector-curvature="0" /></g></g></svg>
