<?xml version="1.0" encoding="UTF-8" standalone="no"?>
<svg
   height="32"
   viewBox="0 0 32 32"
   width="32"
   version="1.1"
   id="svg10"
   sodipodi:docname="application-x-partial-download.svg"
   xml:space="preserve"
   inkscape:version="1.2.2 (b0a8486541, 2022-12-01)"
   xmlns:inkscape="http://www.inkscape.org/namespaces/inkscape"
   xmlns:sodipodi="http://sodipodi.sourceforge.net/DTD/sodipodi-0.dtd"
   xmlns:xlink="http://www.w3.org/1999/xlink"
   xmlns="http://www.w3.org/2000/svg"
   xmlns:svg="http://www.w3.org/2000/svg"><defs
     id="defs14"><linearGradient
       inkscape:collect="always"
       id="linearGradient1225"><stop
         style="stop-color:#e4e4e4;stop-opacity:1;"
         offset="0"
         id="stop1221" /><stop
         style="stop-color:#fbfbfb;stop-opacity:1;"
         offset="1"
         id="stop1223" /></linearGradient><linearGradient
       inkscape:collect="always"
       xlink:href="#linearGradient1225"
       id="linearGradient1227"
       x1="-68"
       y1="308.64999"
       x2="-68"
       y2="288.64999"
       gradientUnits="userSpaceOnUse" /></defs><sodipodi:namedview
     id="namedview12"
     pagecolor="#ffffff"
     bordercolor="#000000"
     borderopacity="0.25"
     inkscape:showpageshadow="2"
     inkscape:pageopacity="0.0"
     inkscape:pagecheckerboard="0"
     inkscape:deskcolor="#d1d1d1"
     showgrid="true"
     inkscape:zoom="23.268233"
     inkscape:cx="40.033122"
     inkscape:cy="15.084945"
     inkscape:window-width="2560"
     inkscape:window-height="1363"
     inkscape:window-x="0"
     inkscape:window-y="0"
     inkscape:window-maximized="1"
     inkscape:current-layer="svg10"><inkscape:grid
       type="xygrid"
       id="grid243" /></sodipodi:namedview><g
     stroke-linecap="round"
     stroke-linejoin="round"
     transform="translate(84 -286.64999)"
     id="g6"><path
       style="fill:#535e66;fill-opacity:1"
       d="m -63,316.64999 v 1 h 2 v -1 z"
       id="path2830" /><path
       style="fill:#535e66;fill-opacity:1"
       d="m -70,316.64999 v 1 h 4 v -1 z"
       id="path2828" /><path
       style="fill:#535e66;fill-opacity:1"
       d="m -75,316.64999 v 1 h 2 v -1 z"
       id="path2826" /><path
       style="fill:#535e66;fill-opacity:1"
       d="m -56,315.64999 c 0,0.554 -0.445977,1 -1,1 h -1 v 1 h 1 c 1.10802,0 2,-0.89199 2,-2 z"
       id="path2824" /><path
       style="fill:#535e66;fill-opacity:1"
       d="m -81,315.64999 c 0,1.10801 0.89198,2 2,2 h 1 v -1 h -1 c -0.554022,0 -1,-0.446 -1,-1 z"
       id="path2822" /><path
       style="fill:#535e66;fill-opacity:1"
       d="m -56,311.64999 v 1 1 h 1 v -2 z"
       id="path2820" /><path
       style="fill:#535e66;fill-opacity:1"
       d="m -81,311.64999 v 2 h 1 v -1 -1 z"
       id="path2818" /><path
       style="fill:#535e66;fill-opacity:1"
       d="m -79,287.64999 c -1.090713,0 -2,0.9093 -2,2 v 17 2 1 c 3.51e-4,0.89064 1.077038,1.33659 1.707031,0.70703 L -78,309.06405 l 1.292969,1.29297 c 0.390529,0.39037 1.023533,0.39037 1.414062,0 L -74,309.06405 l 1.292969,1.29297 c 0.390529,0.39037 1.023533,0.39037 1.414062,0 L -70,309.06405 l 1.292969,1.29297 c 0.390529,0.39037 1.023533,0.39037 1.414062,0 L -66,309.06405 l 1.292969,1.29297 c 0.390529,0.39037 1.023533,0.39037 1.414062,0 L -62,309.06405 l 1.292969,1.29297 c 0.390529,0.39037 1.023533,0.39037 1.414062,0 L -58,309.06405 l 1.292969,1.29297 c 0.629993,0.62956 1.70668,0.18361 1.707031,-0.70703 v -1 -2 -17 c 0,-1.0907 -0.909311,-2 -2,-2 z"
       id="path2" /><path
       style="fill-opacity:1;fill:url(#linearGradient1227)"
       d="m -79,288.64999 c -0.553999,0 -1,0.44601 -1,1 v 17 2 1 l 2,-2 2,2 2,-2 2,2 2,-2 2,2 2,-2 2,2 2,-2 2,2 2,-2 2,2 v -1 -2 -17 c 0,-0.55401 -0.446001,-1 -1,-1 z"
       id="path4" /></g><path
     style="fill:#ccced0;fill-opacity:1"
     d="m -7.3578633,296.55768 h -1.0583333 v 1.32292 l 0.5291667,-0.52917 0.5291666,0.52917 z"
     transform="matrix(3.7795277,0,0,3.7795277,43.809248,-1102.848)"
     id="path2868" /><path
     style="fill:#ccced0;fill-opacity:1"
     d="m -7.3578633,295.49934 v 1.05834 H -6.29953 v -1.05834 z"
     transform="matrix(3.7795277,0,0,3.7795277,43.809248,-1102.848)"
     id="path2866" /><path
     style="fill:#ccced0;fill-opacity:1"
     d="m -8.4161966,295.49934 h 1.0583333 v -1.05833 h -1.0583333 z"
     transform="matrix(3.7795277,0,0,3.7795277,43.809248,-1102.848)"
     id="path2864" /><path
     style="fill:#ccced0;fill-opacity:1"
     d="m -9.4745299,295.49934 v -1.05833 h -1.0583331 v 1.05833 z"
     transform="matrix(3.7795277,0,0,3.7795277,43.809248,-1102.848)"
     id="path2862" /><path
     style="fill:#ccced0;fill-opacity:1"
     d="m -9.4745299,296.55768 h 1.0583333 v -1.05834 h -1.0583333 z"
     transform="matrix(3.7795277,0,0,3.7795277,43.809248,-1102.848)"
     id="path2860" /><path
     style="fill:#ccced0;fill-opacity:1"
     d="m -9.4745298,297.8806 -1e-7,-1.32292 h -1.0583331 v 1.32292 l 0.529167,-0.52917 z"
     transform="matrix(3.7795277,0,0,3.7795277,43.809248,-1102.848)"
     id="path2858" /><path
     style="fill:#ccced0;fill-opacity:1"
     d="M -8.4161966,297.61601 H -9.4745299 Z"
     transform="matrix(3.7795277,0,0,3.7795277,43.809248,-1102.848)"
     id="path2856" /><path
     style="fill:#ccced0;fill-opacity:1"
     d="m -6.29953,297.8806 -1.0583333,-0.26459 z"
     transform="matrix(3.7795277,0,0,3.7795277,43.809248,-1102.848)"
     id="path2854" /><path
     style="fill:#ccced0;fill-opacity:1"
     d="m -5.2411967,297.8806 1.0583333,-0.26459 z"
     transform="matrix(3.7795277,0,0,3.7795277,43.809248,-1102.848)"
     id="path2852" /><path
     style="fill:#ccced0;fill-opacity:1"
     d="M -5.2411966,296.55768 H -6.29953 v 1.32292 l 0.5291667,-0.52917 0.5291666,0.52917 z"
     transform="matrix(3.7795277,0,0,3.7795277,43.809248,-1102.848)"
     id="path2850" /><path
     style="fill:#ccced0;fill-opacity:1"
     d="m -5.2411966,295.49934 v 1.05834 h 1.0583332 v -1.05834 z"
     transform="matrix(3.7795277,0,0,3.7795277,43.809248,-1102.848)"
     id="path2848" /><path
     style="fill:#ccced0;fill-opacity:1"
     d="M -5.2411966,294.44101 H -6.29953 v 1.05833 h 1.0583334 z"
     transform="matrix(3.7795277,0,0,3.7795277,43.809248,-1102.848)"
     id="path2846" /><path
     style="fill:#ccced0;fill-opacity:1"
     d="m -5.2411966,293.38268 v 1.05833 h 1.0583332 v -1.05833 z"
     transform="matrix(3.7795277,0,0,3.7795277,43.809248,-1102.848)"
     id="path2844" /><path
     style="fill:#ccced0;fill-opacity:1"
     d="m -6.29953,293.38268 h 1.0583334 v -1.05834 H -6.29953 Z"
     transform="matrix(3.7795277,0,0,3.7795277,43.809248,-1102.848)"
     id="path2842" /><path
     style="fill:#ccced0;fill-opacity:1"
     d="m -7.3578633,293.38268 v 1.05833 H -6.29953 v -1.05833 z"
     transform="matrix(3.7795277,0,0,3.7795277,43.809248,-1102.848)"
     id="path2840" /><path
     style="fill:#ccced0;fill-opacity:1"
     d="m -8.4161966,293.38268 h 1.0583333 v -1.05834 h -1.0583333 z"
     transform="matrix(3.7795277,0,0,3.7795277,43.809248,-1102.848)"
     id="path2838" /><path
     style="fill:#ccced0;fill-opacity:1"
     d="m -9.4745299,293.38268 v 1.05833 h 1.0583333 v -1.05833 z"
     transform="matrix(3.7795277,0,0,3.7795277,43.809248,-1102.848)"
     id="path2836" /><path
     style="fill:#ccced0;fill-opacity:1"
     d="m -10.26828,292.32434 c -0.146565,0 -0.264583,0.11803 -0.264583,0.26459 v 0.52916 0.26459 h 0.264583 0.5291668 0.2645833 v -0.26459 -0.52916 -0.26459 h -0.2645833 z"
     transform="matrix(3.7795277,0,0,3.7795277,43.809248,-1102.848)"
     id="path8" /></svg>
