<?xml version="1.0" encoding="UTF-8" standalone="no"?>
<svg
   height="32"
   viewBox="0 0 32 32"
   width="32"
   version="1.1"
   id="svg10"
   sodipodi:docname="application-vnd.oasis.opendocument.web-template.svg"
   inkscape:version="1.2.2 (b0a8486541, 2022-12-01)"
   xml:space="preserve"
   xmlns:inkscape="http://www.inkscape.org/namespaces/inkscape"
   xmlns:sodipodi="http://sodipodi.sourceforge.net/DTD/sodipodi-0.dtd"
   xmlns:xlink="http://www.w3.org/1999/xlink"
   xmlns="http://www.w3.org/2000/svg"
   xmlns:svg="http://www.w3.org/2000/svg"><defs
     id="defs14"><linearGradient
       inkscape:collect="always"
       id="linearGradient961"><stop
         style="stop-color:#1684f3;stop-opacity:1;"
         offset="0"
         id="stop957" /><stop
         style="stop-color:#02b2fe;stop-opacity:1;"
         offset="1"
         id="stop959" /></linearGradient><style
       type="text/css"
       id="current-color-scheme">
      .ColorScheme-Text {
        color:#122036;
      }
      </style><linearGradient
       inkscape:collect="always"
       xlink:href="#linearGradient961"
       id="linearGradient963"
       x1="0"
       y1="303.64999"
       x2="0"
       y2="277.64999"
       gradientUnits="userSpaceOnUse"
       gradientTransform="translate(16,-274.64999)" /></defs><sodipodi:namedview
     id="namedview12"
     pagecolor="#ffffff"
     bordercolor="#000000"
     borderopacity="0.25"
     inkscape:showpageshadow="2"
     inkscape:pageopacity="0.0"
     inkscape:pagecheckerboard="0"
     inkscape:deskcolor="#d1d1d1"
     showgrid="true"
     inkscape:zoom="10.429825"
     inkscape:cx="18.600504"
     inkscape:cy="30.201849"
     inkscape:window-width="1517"
     inkscape:window-height="1363"
     inkscape:window-x="0"
     inkscape:window-y="0"
     inkscape:window-maximized="0"
     inkscape:current-layer="svg10"><inkscape:grid
       type="xygrid"
       id="grid331" /></sodipodi:namedview><path
     style="fill:#1670d9;fill-opacity:0.980392"
     d="m 5,1 h 21.999999 c 1.108,0 2,0.892 2,2 v 26 c 0,1.108 -0.892,2 -2,2 H 5 C 3.892,31 3,30.108 3,29 V 3 C 3,1.892 3.892,1 5,1 Z"
     id="path2" /><path
     style="fill:url(#linearGradient963);fill-opacity:1"
     d="m 5,2 h 21.999999 c 0.554,0 1,0.446 1,1 v 26 c 0,0.554 -0.446,1 -1,1 H 5 C 4.446,30 4,29.554 4,29 V 3 C 4,2.446 4.446,2 5,2 Z"
     id="path4" /><g
     id="g847"
     transform="translate(46,-287.20626)"
     style="fill:#ffffff;fill-opacity:0.240122"><path
       style="fill:#ffffff;fill-opacity:0.240122;stroke-width:3.77953"
       d="m -30,305.20626 h -4 v 4 h 4 z"
       id="path2706" /><path
       style="fill:#ffffff;fill-opacity:0.240122;stroke-width:3.77953"
       d="m -30,301.20626 v 4 h 4 v -4 z"
       id="path2704" /><path
       style="fill:#ffffff;fill-opacity:0.240122;stroke-width:3.77953"
       d="m -34,301.20626 h 4 v -4 h -4 z"
       id="path2702" /><path
       style="fill:#ffffff;fill-opacity:0.240122;stroke-width:3.77953"
       d="m -38,301.20626 v -4 h -4 v 4 z"
       id="path2700" /><path
       style="fill:#ffffff;fill-opacity:0.240122;stroke-width:3.77953"
       d="m -38,305.20626 h 4 v -4 h -4 z"
       id="path2698" /><path
       style="fill:#ffffff;fill-opacity:0.240122;stroke-width:3.77953"
       d="m -38,309.20626 v -4 h -4 v 4 z"
       id="path2696" /><path
       style="fill:#ffffff;fill-opacity:0.240122;stroke-width:3.77953"
       d="m -38,313.20626 h -1 -2 -1 v 1 2 c 0,0.55394 0.446071,1 1,1 h 2 1 v -1 -2 z"
       id="path2694" /><path
       style="fill:#ffffff;fill-opacity:0.240122;stroke-width:3.77953"
       d="m -34,313.20626 v -4 h -4 v 4 z"
       id="path2692" /><path
       style="fill:#ffffff;fill-opacity:0.240122;stroke-width:3.77953"
       d="m -30,313.20626 h -4 v 4 h 4 z"
       id="path2690" /><path
       style="fill:#ffffff;fill-opacity:0.240122;stroke-width:3.77953"
       d="m -26,313.20626 v -4 h -4 v 4 z"
       id="path2688" /><path
       style="fill:#ffffff;fill-opacity:0.240122;stroke-width:3.77953"
       d="m -22,313.20626 h -4 v 4 h 4 z"
       id="path2686" /><path
       style="fill:#ffffff;fill-opacity:0.240122;stroke-width:3.77953"
       d="m -22,309.20626 v 1 2 1 h 3 1 v -1 -3 z"
       id="path2684" /><path
       style="fill:#ffffff;fill-opacity:0.240122;stroke-width:3.77953"
       d="m -22,305.20626 h -4 v 4 h 4 z"
       id="path2682" /><path
       style="fill:#ffffff;fill-opacity:0.240122;stroke-width:3.77953"
       d="m -22,301.20626 v 4 h 4 v -4 z"
       id="path2680" /><path
       style="fill:#ffffff;fill-opacity:0.240122;stroke-width:3.77953"
       d="m -22,297.20626 h -4 v 4 h 4 z"
       id="path2678" /><path
       style="fill:#ffffff;fill-opacity:0.240122;stroke-width:3.77953"
       d="m -22,293.20626 v 4 h 4 v -4 z"
       id="path2676" /><path
       style="fill:#ffffff;fill-opacity:0.240122;stroke-width:3.77953"
       d="m -26,293.20626 h 4 v -4 h -4 z"
       id="path2674" /><path
       style="fill:#ffffff;fill-opacity:0.240122;stroke-width:3.77953"
       d="m -30,293.20626 v 4 h 4 v -4 z"
       id="path2672" /><path
       style="fill:#ffffff;fill-opacity:0.240122;stroke-width:3.77953"
       d="m -34,293.20626 h 4 v -4 h -4 z"
       id="path2670" /><path
       style="fill:#ffffff;fill-opacity:0.240122;stroke-width:3.77953"
       d="m -38,293.20626 v 4 h 4 v -4 z"
       id="path2668" /><path
       style="fill:#ffffff;fill-opacity:0.240122;stroke-width:3.77953"
       d="m -41,289.20626 c -0.553946,0 -1,0.44607 -1,1 v 2 1 h 1 2 1 v -1 -2 -1 h -1 z"
       id="path1128" /></g><path
     id="path10038-3"
     class="ColorScheme-Text"
     style="color:#122036;opacity:0.99;fill:#1570d9;fill-opacity:0.980392;stroke:none;stroke-width:0.999999"
     d="M 10.000001,11.000012 C 9.446001,11.000012 9,11.445997 9,12 V 22.999974 C 9,23.553978 9.446002,24 10.000001,24 H 12 l 1.000002,-3.8e-5 h 6 L 20,24 h 2.000001 C 22.554001,24 23,23.553978 23,22.999974 V 12 c 0,-0.554003 -0.446,-0.999988 -1,-0.999988 z m 1,1.999975 H 21 l 1e-6,7.999975 h -3 v 1.000025 h -4 l 1e-6,-1.000025 h -3 z M 12,15 v 3 h 2.000001 v -3 z m 3,0 v 3 h 2 v -3 z m 3,0 v 3 h 2 v -3 z"
     inkscape:connector-curvature="0"
     sodipodi:nodetypes="ssssccccssssscccccccccccccccccccccccc" /><path
     id="path10038"
     class="ColorScheme-Text"
     style="color:#122036;opacity:0.99;fill:#d7f0fe;fill-opacity:1;stroke:none;stroke-width:0.999999"
     d="M 10.000001,10 C 9.446001,10 9,10.445985 9,10.999988 v 10.999974 c 0,0.554004 0.446002,1.000026 1.000001,1.000026 H 12 l 1.000002,-3.8e-5 h 6 L 20,22.999988 h 2.000001 C 22.554001,22.999988 23,22.553966 23,21.999962 V 10.999988 C 23,10.445985 22.554,10 22,10 Z m 1,1.999975 H 21 l 1e-6,7.999975 h -3 v 1.000025 h -4 l 1e-6,-1.000025 h -3 z M 12,13.999988 v 3 h 2.000001 v -3 z m 3,0 v 3 h 2 v -3 z m 3,0 v 3 h 2 v -3 z"
     inkscape:connector-curvature="0"
     sodipodi:nodetypes="ssssccccssssscccccccccccccccccccccccc" /></svg>
