<?xml version="1.0" encoding="UTF-8" standalone="no"?>
<svg
   height="32"
   viewBox="0 0 32 32"
   width="32"
   version="1.1"
   id="svg14"
   sodipodi:docname="application-vnd.oasis.opendocument.draw.template.svg"
   xml:space="preserve"
   inkscape:version="1.2.2 (b0a8486541, 2022-12-01)"
   xmlns:inkscape="http://www.inkscape.org/namespaces/inkscape"
   xmlns:sodipodi="http://sodipodi.sourceforge.net/DTD/sodipodi-0.dtd"
   xmlns:xlink="http://www.w3.org/1999/xlink"
   xmlns="http://www.w3.org/2000/svg"
   xmlns:svg="http://www.w3.org/2000/svg"><defs
     id="defs18"><linearGradient
       id="linearGradient4627"
       inkscape:collect="always"><stop
         id="stop4623"
         offset="0"
         style="stop-color:#ffc900;stop-opacity:1" /><stop
         id="stop4625"
         offset="1"
         style="stop-color:#ffe200;stop-opacity:1" /></linearGradient><linearGradient
       inkscape:collect="always"
       xlink:href="#linearGradient4627"
       id="linearGradient1513"
       x1="-68"
       y1="316.64999"
       x2="-68"
       y2="289.64999"
       gradientUnits="userSpaceOnUse"
       gradientTransform="translate(84,-286.64997)" /></defs><sodipodi:namedview
     id="namedview16"
     pagecolor="#ffffff"
     bordercolor="#000000"
     borderopacity="0.25"
     inkscape:showpageshadow="2"
     inkscape:pageopacity="0.0"
     inkscape:pagecheckerboard="0"
     inkscape:deskcolor="#d1d1d1"
     showgrid="true"
     inkscape:zoom="45.387416"
     inkscape:cx="21.294449"
     inkscape:cy="10.817977"
     inkscape:window-width="2560"
     inkscape:window-height="1363"
     inkscape:window-x="0"
     inkscape:window-y="0"
     inkscape:window-maximized="1"
     inkscape:current-layer="svg14"><inkscape:grid
       type="xygrid"
       id="grid1002" /></sodipodi:namedview><g
     inkscape:label="Capa 1"
     id="layer1"><path
       style="fill:#ff9600;fill-opacity:0.960784"
       d="m 5,1 h 22 c 1.108,0 2,0.89202 2,2.00001 V 29.00002 C 29,30.10799 28.108,31 27,31 H 5 C 3.892,31 3,30.10799 3,29.00002 v -26 C 3,1.89202 3.892,1.00002 5,1 Z"
       id="path2" /><path
       style="fill:url(#linearGradient1513);fill-opacity:1"
       d="m 5,2.00005 h 22 c 0.554,0 1,0.44599 1,1 v 26 c 0,0.55401 -0.446,1 -1,1 H 5 c -0.554,0 -1,-0.44599 -1,-1 v -26 c 0,-0.55399 0.446,-1 1,-1 z"
       id="path4" /><path
       style="fill:#fff1b5;fill-opacity:1;stroke-width:3.77953"
       d="M 16,18.00002 H 12 V 22 h 4 z"
       id="path17820" /><path
       style="fill:#fff1b5;fill-opacity:1;stroke-width:3.77953"
       d="m 16,13.99999 v 4.00003 h 4 v -4.00003 z"
       id="path17818" /><path
       style="fill:#fff1b5;fill-opacity:1;stroke-width:3.77953"
       d="m 12,13.99999 h 4 V 10 h -4 z"
       id="path17816" /><path
       style="fill:#fff1b5;fill-opacity:1;stroke-width:3.77953"
       d="M 8,13.99999 V 10 H 4 v 3.99999 z"
       id="path17814" /><path
       style="fill:#fff1b5;fill-opacity:1;stroke-width:3.77953"
       d="m 8,18.00002 h 4 V 13.99999 H 8 Z"
       id="path17812" /><path
       style="fill:#fff1b5;fill-opacity:1;stroke-width:3.77953"
       d="M 8,22 V 18.00002 H 4 V 22 Z"
       id="path17810" /><path
       style="fill:#fff1b5;fill-opacity:1;stroke-width:3.77953"
       d="M 8,25.99999 H 4 v 4.00003 h 4 z"
       id="path17808" /><path
       style="fill:#fff1b5;fill-opacity:1;stroke-width:3.77953"
       d="M 12,25.99999 V 22 H 8 v 3.99999 z"
       id="path17806" /><path
       style="fill:#fff1b5;fill-opacity:1;stroke-width:3.77953"
       d="m 16,25.99999 h -4 v 4.00003 h 4 z"
       id="path17804" /><path
       style="fill:#fff1b5;fill-opacity:1;stroke-width:3.77953"
       d="M 20,25.99999 V 22 h -4 v 3.99999 z"
       id="path17802" /><path
       style="fill:#fff1b5;fill-opacity:1;stroke-width:3.77953"
       d="m 24,25.99999 h -4 v 4.00003 h 4 z"
       id="path17800" /><path
       style="fill:#fff1b5;fill-opacity:1;stroke-width:3.77953"
       d="M 24,22 V 22.99999 25 25.99999 h 3 1 V 25 22 Z"
       id="path17798" /><path
       style="fill:#fff1b5;fill-opacity:1;stroke-width:3.77953"
       d="M 24,18.00002 H 20 V 22 h 4 z"
       id="path17796" /><path
       style="fill:#fff1b5;fill-opacity:1;stroke-width:3.77953"
       d="m 24,13.99999 v 4.00003 h 4 v -4.00003 z"
       id="path17794" /><path
       style="fill:#fff1b5;fill-opacity:1;stroke-width:3.77953"
       d="m 24,10 h -4 v 3.99999 h 4 z"
       id="path17792" /><path
       style="fill:#fff1b5;fill-opacity:1;stroke-width:3.77953"
       d="M 24,6.00002 V 10 h 4 V 6.00002 Z"
       id="path17790" /><path
       style="fill:#fff1b5;fill-opacity:1;stroke-width:3.77953"
       d="m 20,6.00002 h 4 V 1.99999 h -4 z"
       id="path17788" /><path
       style="fill:#fff1b5;fill-opacity:1;stroke-width:3.77953"
       d="M 16,6.00002 V 10 h 4 V 6.00002 Z"
       id="path17786" /><path
       style="fill:#fff1b5;fill-opacity:1;stroke-width:3.77953"
       d="m 12,6.00002 h 4 V 1.99999 h -4 z"
       id="path17784" /><path
       style="fill:#fff1b5;fill-opacity:1;stroke-width:3.77953"
       d="M 8,6.00002 V 10 h 4 V 6.00002 Z"
       id="path17782" /><path
       style="fill:#fff1b5;fill-opacity:1;stroke-width:3.77953"
       d="m 5,1.99999 c -0.55395,0 -1,0.4461 -1,1.00003 V 4.99999 6.00002 H 5 7 8 V 4.99999 3.00002 1.99999 H 7 Z"
       id="path6-9" /></g><g
     fill="#f6ac23"
     stroke-linecap="square"
     stroke-miterlimit="1.8"
     id="g10"
     transform="translate(16,-273.64999)"
     style="fill:#ff9600;fill-opacity:0.960784"><path
       id="path6"
       style="fill:#ff9600;fill-opacity:0.960784"
       d="m -8,282.64999 v 1 1 1 h 1 v 10 h -1 v 1 1 1 h 1 1 1 v -1 H 5 v 1 h 3 v -3 H 7 v -10 h 1 v -3 H 5 v 1 H -5 v -1 z m 1,1 h 1 v 1 h -1 z m 13,0 h 1 v 1 H 6 Z m -11,1 h 5 5 v 1 h 1 v 5 5 H 5 v 1 H 0 -5 v -1 h -1 v -5 -5 h 1 z m -1,6 c 0,3.32398 2.6760066,6 6,6 3.3239934,0 6,-2.67602 6,-6 0,-3.324 -2.6760066,-6 -6,-6 -3.3239934,0 -6,2.676 -6,6 z m -1,6 h 1 v 1 h -1 z m 13,0 h 1 v 1 H 6 Z" /></g><g
     fill="#f6ac23"
     stroke-linecap="square"
     stroke-miterlimit="1.8"
     id="g10-3"
     transform="translate(16,-274.64999)"
     style="fill:#fffadc;fill-opacity:1"><path
       id="path6-6"
       style="fill:#714500;fill-opacity:1"
       d="m -8,282.64999 v 1 1 1 h 1 v 10 h -1 v 1 1 1 h 1 1 1 v -1 H 5 v 1 h 3 v -3 H 7 v -10 h 1 v -3 H 5 v 1 H -5 v -1 z m 1,1 h 1 v 1 h -1 z m 13,0 h 1 v 1 H 6 Z m -11,1 h 5 5 v 1 h 1 v 5 5 H 5 v 1 H 0 -5 v -1 h -1 v -5 -5 h 1 z m -1,6 c 0,3.32398 2.6760066,6 6,6 3.3239934,0 6,-2.67602 6,-6 0,-3.324 -2.6760066,-6 -6,-6 -3.3239934,0 -6,2.676 -6,6 z m -1,6 h 1 v 1 h -1 z m 13,0 h 1 v 1 H 6 Z" /></g></svg>
