<?xml version="1.0" encoding="UTF-8" standalone="no"?>
<!-- Created with Inkscape (http://www.inkscape.org/) -->

<svg
   width="32"
   height="32"
   viewBox="0 0 32 32"
   version="1.1"
   id="svg8"
   inkscape:version="1.2.2 (b0a8486541, 2022-12-01)"
   sodipodi:docname="application-x-theme.svg"
   xml:space="preserve"
   xmlns:inkscape="http://www.inkscape.org/namespaces/inkscape"
   xmlns:sodipodi="http://sodipodi.sourceforge.net/DTD/sodipodi-0.dtd"
   xmlns:xlink="http://www.w3.org/1999/xlink"
   xmlns="http://www.w3.org/2000/svg"
   xmlns:svg="http://www.w3.org/2000/svg"
   xmlns:rdf="http://www.w3.org/1999/02/22-rdf-syntax-ns#"
   xmlns:cc="http://creativecommons.org/ns#"
   xmlns:dc="http://purl.org/dc/elements/1.1/"><title
     id="title7895">Antu icon Theme</title><defs
     id="defs2"><linearGradient
       gradientUnits="userSpaceOnUse"
       y2="289.85626"
       x2="4.2333331"
       y1="296.47086"
       x1="4.2333331"
       id="linearGradient837"
       xlink:href="#linearGradient5716"
       inkscape:collect="always"
       gradientTransform="matrix(3.7795275,0,0,3.7795275,5e-7,-807.86971)" /><linearGradient
       inkscape:collect="always"
       id="linearGradient5716"><stop
         style="stop-color:#1c9af5;stop-opacity:1;"
         offset="0"
         id="stop5712" /><stop
         style="stop-color:#1fb5f9;stop-opacity:1"
         offset="1"
         id="stop5714" /></linearGradient><linearGradient
       gradientUnits="userSpaceOnUse"
       y2="289.59164"
       x2="4.2333336"
       y1="296.20624"
       x1="4.2333336"
       id="linearGradient837-3"
       xlink:href="#linearGradient1143"
       inkscape:collect="always"
       gradientTransform="matrix(3.7795275,0,0,3.7795275,0,-807.86971)" /><linearGradient
       inkscape:collect="always"
       id="linearGradient1143"><stop
         style="stop-color:#f1efea;stop-opacity:1"
         offset="0"
         id="stop1139" /><stop
         style="stop-color:#fcfcfc;stop-opacity:1"
         offset="1"
         id="stop1141" /></linearGradient></defs><sodipodi:namedview
     id="base"
     pagecolor="#ffffff"
     bordercolor="#666666"
     borderopacity="1.0"
     inkscape:pageopacity="0.0"
     inkscape:pageshadow="2"
     inkscape:zoom="7.9999995"
     inkscape:cx="39.812502"
     inkscape:cy="12.000001"
     inkscape:document-units="px"
     inkscape:current-layer="layer1"
     showgrid="true"
     units="px"
     inkscape:window-width="2560"
     inkscape:window-height="1363"
     inkscape:window-x="0"
     inkscape:window-y="0"
     inkscape:window-maximized="1"
     objecttolerance="10"
     gridtolerance="10"
     guidetolerance="10"
     inkscape:showpageshadow="2"
     inkscape:pagecheckerboard="0"
     inkscape:deskcolor="#d1d1d1"><inkscape:grid
       type="xygrid"
       id="grid7897"
       empspacing="4" /></sodipodi:namedview><metadata
     id="metadata5"><rdf:RDF><cc:Work
         rdf:about=""><dc:format>image/svg+xml</dc:format><dc:type
           rdf:resource="http://purl.org/dc/dcmitype/StillImage" /><dc:title>Antu icon Theme</dc:title></cc:Work></rdf:RDF></metadata><g
     inkscape:label="Capa 1"
     inkscape:groupmode="layer"
     id="layer1"
     transform="translate(0,-282.64999)"><path
       inkscape:connector-curvature="0"
       style="fill:#1568b4;fill-opacity:1;stroke:none;stroke-width:2;stroke-linecap:round;stroke-linejoin:round;stroke-miterlimit:4;stroke-dasharray:none;stroke-opacity:1"
       d="M 5.0000005,283.64999 H 26.999999 c 1.108,0 2,0.892 2,2 v 26 c 0,1.108 -0.892,2 -2,2 H 5.0000005 c -1.108,0 -2,-0.892 -2,-2 v -26 c 0,-1.108 0.892,-2 2,-2 z"
       id="rect827" /><path
       inkscape:connector-curvature="0"
       style="fill:url(#linearGradient837);fill-opacity:1;stroke:none;stroke-width:2;stroke-linecap:round;stroke-linejoin:round;stroke-miterlimit:4;stroke-dasharray:none;stroke-opacity:1"
       d="M 5.0000005,284.64999 H 26.999999 c 0.554,0 1,0.446 1,1 v 26 c 0,0.554 -0.446,1 -1,1 H 5.0000005 c -0.554,0 -1,-0.446 -1,-1 v -26 c 0,-0.554 0.446,-1 1,-1 z"
       id="rect829" /><g
       id="g847"
       transform="translate(46,-4.55627)"
       style="fill:#ffffff;fill-opacity:0.240122"><path
         style="fill:#ffffff;fill-opacity:0.240122;stroke-width:3.77953"
         d="m -30,305.20626 h -4 v 4 h 4 z"
         id="path2706" /><path
         style="fill:#ffffff;fill-opacity:0.240122;stroke-width:3.77953"
         d="m -30,301.20626 v 4 h 4 v -4 z"
         id="path2704" /><path
         style="fill:#ffffff;fill-opacity:0.240122;stroke-width:3.77953"
         d="m -34,301.20626 h 4 v -4 h -4 z"
         id="path2702" /><path
         style="fill:#ffffff;fill-opacity:0.240122;stroke-width:3.77953"
         d="m -38,301.20626 v -4 h -4 v 4 z"
         id="path2700" /><path
         style="fill:#ffffff;fill-opacity:0.240122;stroke-width:3.77953"
         d="m -38,305.20626 h 4 v -4 h -4 z"
         id="path2698" /><path
         style="fill:#ffffff;fill-opacity:0.240122;stroke-width:3.77953"
         d="m -38,309.20626 v -4 h -4 v 4 z"
         id="path2696" /><path
         style="fill:#ffffff;fill-opacity:0.240122;stroke-width:3.77953"
         d="m -38,313.20626 h -1 -2 -1 v 1 2 c 0,0.55394 0.446071,1 1,1 h 2 1 v -1 -2 z"
         id="path2694" /><path
         style="fill:#ffffff;fill-opacity:0.240122;stroke-width:3.77953"
         d="m -34,313.20626 v -4 h -4 v 4 z"
         id="path2692" /><path
         style="fill:#ffffff;fill-opacity:0.240122;stroke-width:3.77953"
         d="m -30,313.20626 h -4 v 4 h 4 z"
         id="path2690" /><path
         style="fill:#ffffff;fill-opacity:0.240122;stroke-width:3.77953"
         d="m -26,313.20626 v -4 h -4 v 4 z"
         id="path2688" /><path
         style="fill:#ffffff;fill-opacity:0.240122;stroke-width:3.77953"
         d="m -22,313.20626 h -4 v 4 h 4 z"
         id="path2686" /><path
         style="fill:#ffffff;fill-opacity:0.240122;stroke-width:3.77953"
         d="m -22,309.20626 v 1 2 1 h 3 1 v -1 -3 z"
         id="path2684" /><path
         style="fill:#ffffff;fill-opacity:0.240122;stroke-width:3.77953"
         d="m -22,305.20626 h -4 v 4 h 4 z"
         id="path2682" /><path
         style="fill:#ffffff;fill-opacity:0.240122;stroke-width:3.77953"
         d="m -22,301.20626 v 4 h 4 v -4 z"
         id="path2680" /><path
         style="fill:#ffffff;fill-opacity:0.240122;stroke-width:3.77953"
         d="m -22,297.20626 h -4 v 4 h 4 z"
         id="path2678" /><path
         style="fill:#ffffff;fill-opacity:0.240122;stroke-width:3.77953"
         d="m -22,293.20626 v 4 h 4 v -4 z"
         id="path2676" /><path
         style="fill:#ffffff;fill-opacity:0.240122;stroke-width:3.77953"
         d="m -26,293.20626 h 4 v -4 h -4 z"
         id="path2674" /><path
         style="fill:#ffffff;fill-opacity:0.240122;stroke-width:3.77953"
         d="m -30,293.20626 v 4 h 4 v -4 z"
         id="path2672" /><path
         style="fill:#ffffff;fill-opacity:0.240122;stroke-width:3.77953"
         d="m -34,293.20626 h 4 v -4 h -4 z"
         id="path2670" /><path
         style="fill:#ffffff;fill-opacity:0.240122;stroke-width:3.77953"
         d="m -38,293.20626 v 4 h 4 v -4 z"
         id="path2668" /><path
         style="fill:#ffffff;fill-opacity:0.240122;stroke-width:3.77953"
         d="m -41,289.20626 c -0.553946,0 -1,0.44607 -1,1 v 2 1 h 1 2 1 v -1 -2 -1 h -1 z"
         id="path1128" /></g><g
       inkscape:label="Capa 1"
       id="layer1-7"
       transform="translate(0,-3e-5)"><g
         inkscape:label="Capa 1"
         id="layer1-6"><path
           id="rect827-8"
           style="fill:#90a4ae;fill-opacity:1;stroke:none;stroke-width:2;stroke-linecap:round;stroke-linejoin:round;stroke-miterlimit:4;stroke-dasharray:none;stroke-opacity:1"
           d="m 15,283.65002 v 2 26 2 h 2 10 c 1.107998,0 2,-0.892 2,-2 v -26 c 0,-1.108 -0.892002,-2 -2,-2 H 17 Z" /><path
           id="rect829-4"
           style="fill:url(#linearGradient837-3);fill-opacity:1;stroke:none;stroke-width:2;stroke-linecap:round;stroke-linejoin:round;stroke-miterlimit:4;stroke-dasharray:none;stroke-opacity:1"
           d="m 16,284.65002 v 1 2 22 2 1 h 1 2 8 c 0.553999,0 1,-0.446 1,-1 v -26 c 0,-0.554 -0.446001,-1 -1,-1 h -8 -2 z" /></g><path
         d="m 16,296.64999 v 4.00003 h 4 v -4.00003 z"
         id="path397"
         style="fill:#d6dbdb;fill-opacity:1" /><path
         d="M 20,308.64999 V 304.65 h -4 v 3.99999 z"
         id="path381"
         style="fill:#d6dbdb;fill-opacity:1" /><path
         d="m 24,308.64999 h -4 v 4.00003 h 4 z"
         id="path379"
         style="fill:#d6dbdb;fill-opacity:1" /><path
         d="m 24,304.65 v 0.99999 2.00001 0.99999 h 3 1 v -0.99999 -3 z"
         id="path377"
         style="fill:#d6dbdb;fill-opacity:1" /><path
         d="M 24,300.65002 H 20 V 304.65 h 4 z"
         id="path375"
         style="fill:#d6dbdb;fill-opacity:1" /><path
         d="m 24,296.64999 v 4.00003 h 4 v -4.00003 z"
         id="path373"
         style="fill:#d6dbdb;fill-opacity:1" /><path
         d="m 24,292.65 h -4 v 3.99999 h 4 z"
         id="path371"
         style="fill:#d6dbdb;fill-opacity:1" /><path
         d="M 24,288.65002 V 292.65 h 4 v -3.99998 z"
         id="path369"
         style="fill:#d6dbdb;fill-opacity:1" /><path
         d="m 20,288.65002 h 4 v -4.00003 h -4 z"
         id="path367"
         style="fill:#d6dbdb;fill-opacity:1" /><path
         d="M 16,288.65002 V 292.65 h 4 v -3.99998 z"
         id="path365"
         style="fill:#d6dbdb;fill-opacity:1" /></g><path
       id="path257"
       d="m 17,290.65 -3,2.99996 4,4.00003 -4,3.99998 3,3 7,-6.99998 z m -6.025391,1.99997 C 10.432669,292.66509 10,293.10465 10,293.64996 c 0,0.554 0.446,1.00003 1,1.00003 0.553998,0 1,-0.44603 1,-1.00003 0,-0.55396 -0.446002,-0.99999 -1,-0.99999 -0.0087,0 -0.01678,-2.2e-4 -0.0254,0 z m -2.0273434,3.99999 C 7.8633908,296.67642 7,297.55928 7,298.64997 c 0,1.10797 0.892006,2.00002 1.9999999,2.00002 1.1079981,0 2.0000001,-0.89205 2.0000001,-2.00002 0,-1.108 -0.892002,-2.00001 -2.0000001,-2.00001 -0.01731,0 -0.035528,-4.1e-4 -0.052734,0 z m 2.9746094,6 c -1.625819,0.0408 -2.9218751,1.36403 -2.9218751,3 0,1.66201 1.3380011,3 3.0000001,3 1.661999,0 3,-1.33799 3,-3 0,-1.66193 -1.338001,-3 -3,-3 -0.02596,0 -0.05232,-6.4e-4 -0.07813,0 z"
       style="fill:#000000;fill-opacity:0.11246201;stroke-width:3.77953" /><path
       id="path257-6"
       d="m 17,289.65 -3,2.99996 4,4.00003 -4,3.99998 3,3 7,-6.99998 z m -6.025391,1.99997 C 10.432669,291.66509 10,292.10465 10,292.64996 c 0,0.554 0.446,1.00003 1,1.00003 0.553999,0 1,-0.44603 1,-1.00003 0,-0.55396 -0.446001,-0.99999 -1,-0.99999 -0.0087,0 -0.01678,-2.2e-4 -0.0254,0 z m -2.027343,3.99999 C 7.863391,295.67642 7,296.55928 7,297.64997 c 0,1.10797 0.892006,2.00002 2,2.00002 1.107999,0 2,-0.89205 2,-2.00002 0,-1.108 -0.892001,-2.00001 -2,-2.00001 -0.01731,0 -0.03553,-4.1e-4 -0.05273,0 z m 2.974609,6 C 10.296056,301.69078 9,303.01399 9,304.64996 c 0,1.66201 1.338002,3 3,3 1.661999,0 3,-1.33799 3,-3 0,-1.66193 -1.338001,-3 -3,-3 -0.02596,0 -0.05232,-6.4e-4 -0.07813,0 z"
       style="fill:#3d434a;fill-opacity:1;stroke-width:3.77953" /></g></svg>
