<?xml version="1.0" encoding="UTF-8" standalone="no"?>
<!-- Created with Inkscape (http://www.inkscape.org/) -->

<svg
   width="32"
   height="32"
   viewBox="0 0 32 32"
   version="1.1"
   id="svg8"
   inkscape:version="1.2.2 (b0a8486541, 2022-12-01)"
   sodipodi:docname="application-x-ms-dos-executable.svg"
   xml:space="preserve"
   xmlns:inkscape="http://www.inkscape.org/namespaces/inkscape"
   xmlns:sodipodi="http://sodipodi.sourceforge.net/DTD/sodipodi-0.dtd"
   xmlns:xlink="http://www.w3.org/1999/xlink"
   xmlns="http://www.w3.org/2000/svg"
   xmlns:svg="http://www.w3.org/2000/svg"
   xmlns:rdf="http://www.w3.org/1999/02/22-rdf-syntax-ns#"
   xmlns:cc="http://creativecommons.org/ns#"
   xmlns:dc="http://purl.org/dc/elements/1.1/"><title
     id="title7895">Antu icon Theme</title><defs
     id="defs2"><linearGradient
       inkscape:collect="always"
       id="linearGradient11546"><stop
         style="stop-color:#fc393d;stop-opacity:1;"
         offset="0"
         id="stop11542" /><stop
         style="stop-color:#fd5238;stop-opacity:1;"
         offset="1"
         id="stop11544" /></linearGradient><linearGradient
       inkscape:collect="always"
       id="linearGradient9217"><stop
         style="stop-color:#67d924;stop-opacity:1;"
         offset="0"
         id="stop9213" /><stop
         style="stop-color:#a3eb1e;stop-opacity:1;"
         offset="1"
         id="stop9215" /></linearGradient><linearGradient
       inkscape:collect="always"
       id="linearGradient7164"><stop
         style="stop-color:#ffc900;stop-opacity:1;"
         offset="0"
         id="stop7160" /><stop
         style="stop-color:#ffe200;stop-opacity:1;"
         offset="1"
         id="stop7162" /></linearGradient><linearGradient
       inkscape:collect="always"
       id="linearGradient3914"><stop
         style="stop-color:#1780f2;stop-opacity:1;"
         offset="0"
         id="stop3910" /><stop
         style="stop-color:#02b3fe;stop-opacity:1;"
         offset="1"
         id="stop3912" /></linearGradient><linearGradient
       gradientTransform="matrix(3.7795275,0,0,3.7795275,10e-7,-807.86971)"
       inkscape:collect="always"
       xlink:href="#linearGradient1500"
       id="linearGradient837-3"
       x1="4.2333336"
       y1="296.20624"
       x2="4.2333336"
       y2="289.59164"
       gradientUnits="userSpaceOnUse" /><linearGradient
       id="linearGradient1500"
       inkscape:collect="always"><stop
         id="stop1496"
         offset="0"
         style="stop-color:#06111c;stop-opacity:1;" /><stop
         id="stop1498"
         offset="1"
         style="stop-color:#15272f;stop-opacity:1;" /></linearGradient><linearGradient
       inkscape:collect="always"
       xlink:href="#linearGradient3914"
       id="linearGradient3916"
       x1="-32"
       y1="306.39999"
       x2="-32"
       y2="301.39999"
       gradientUnits="userSpaceOnUse"
       gradientTransform="translate(44,-1.75)" /><linearGradient
       inkscape:collect="always"
       xlink:href="#linearGradient7164"
       id="linearGradient7166"
       x1="19"
       y1="304.64999"
       x2="19"
       y2="299.64999"
       gradientUnits="userSpaceOnUse" /><linearGradient
       inkscape:collect="always"
       xlink:href="#linearGradient9217"
       id="linearGradient9219"
       x1="19"
       y1="297.64999"
       x2="19"
       y2="292.64999"
       gradientUnits="userSpaceOnUse" /><linearGradient
       inkscape:collect="always"
       xlink:href="#linearGradient11546"
       id="linearGradient11548"
       x1="12"
       y1="297.64999"
       x2="12"
       y2="292.64999"
       gradientUnits="userSpaceOnUse" /></defs><sodipodi:namedview
     id="base"
     pagecolor="#ffffff"
     bordercolor="#666666"
     borderopacity="1.0"
     inkscape:pageopacity="0.0"
     inkscape:pageshadow="2"
     inkscape:zoom="22.627416"
     inkscape:cx="25.698913"
     inkscape:cy="9.1040002"
     inkscape:document-units="px"
     inkscape:current-layer="layer1"
     showgrid="true"
     units="px"
     inkscape:window-width="2560"
     inkscape:window-height="1363"
     inkscape:window-x="0"
     inkscape:window-y="0"
     inkscape:window-maximized="1"
     objecttolerance="10"
     gridtolerance="10"
     guidetolerance="10"
     inkscape:showpageshadow="2"
     inkscape:pagecheckerboard="0"
     inkscape:deskcolor="#d1d1d1"><inkscape:grid
       type="xygrid"
       id="grid7897"
       empspacing="4" /></sodipodi:namedview><metadata
     id="metadata5"><rdf:RDF><cc:Work
         rdf:about=""><dc:format>image/svg+xml</dc:format><dc:type
           rdf:resource="http://purl.org/dc/dcmitype/StillImage" /><dc:title>Antu icon Theme</dc:title></cc:Work></rdf:RDF></metadata><g
     inkscape:label="Capa 1"
     inkscape:groupmode="layer"
     id="layer1"
     transform="translate(0,-282.64999)"><path
       id="rect827-8"
       d="M 5.000001,283.64999 H 27 c 1.108,0 2,0.89202 2,2.00001 v 26.00001 c 0,1.10797 -0.892,1.99998 -2,1.99998 H 5.000001 c -1.108,0 -2,-0.89201 -2,-1.99998 v -26 c 0,-1.108 0.892,-2 2,-2.00002 z"
       style="fill:#1a1a1a;fill-opacity:1;stroke:none;stroke-width:2;stroke-linecap:round;stroke-linejoin:round;stroke-miterlimit:4;stroke-dasharray:none;stroke-opacity:1"
       inkscape:connector-curvature="0" /><path
       id="rect829-6"
       d="M 5.000001,284.65001 H 27 c 0.554,0 1,0.44599 1,1 v 26 c 0,0.55401 -0.446,1 -1,1 H 5.000001 c -0.554,0 -1,-0.44599 -1,-1 v -26 c 0,-0.55399 0.446,-1 1,-1 z"
       style="fill:url(#linearGradient837-3);fill-opacity:1;stroke:none;stroke-width:2;stroke-linecap:round;stroke-linejoin:round;stroke-miterlimit:4;stroke-dasharray:none;stroke-opacity:1"
       inkscape:connector-curvature="0" /><path
       style="fill:#ffffff;fill-opacity:0.10942249"
       d="M 16,300.65002 H 12 V 304.65 h 4 z"
       id="path1430" /><path
       style="fill:#ffffff;fill-opacity:0.10942249"
       d="m 16,296.64999 v 4.00003 h 4 v -4.00003 z"
       id="path1428" /><path
       style="fill:#ffffff;fill-opacity:0.10942249"
       d="m 12,296.64999 h 4 V 292.65 h -4 z"
       id="path1426" /><path
       style="fill:#ffffff;fill-opacity:0.10942249"
       d="M 8,296.64999 V 292.65 H 4 v 3.99999 z"
       id="path1424" /><path
       style="fill:#ffffff;fill-opacity:0.10942249"
       d="m 8,300.65002 h 4 v -4.00003 H 8 Z"
       id="path1422" /><path
       style="fill:#ffffff;fill-opacity:0.10942249"
       d="m 8,304.65 v -3.99998 H 4 V 304.65 Z"
       id="path1420" /><path
       style="fill:#ffffff;fill-opacity:0.10942249"
       d="M 8,308.64999 H 4 v 3 c 0,0 -0.0037,1.00003 1.000001,1.00002 L 8,312.65002 Z"
       id="path1418" /><path
       style="fill:#ffffff;fill-opacity:0.10942249"
       d="M 12,308.64999 V 304.65 H 8 v 3.99999 z"
       id="path1416" /><path
       style="fill:#ffffff;fill-opacity:0.10942249"
       d="m 16,308.64999 h -4 v 4.00003 h 4 z"
       id="path1414" /><path
       style="fill:#ffffff;fill-opacity:0.10942249"
       d="M 20,308.64999 V 304.65 h -4 v 3.99999 z"
       id="path1412" /><path
       style="fill:#ffffff;fill-opacity:0.10942249"
       d="m 24,308.64999 h -4 v 4.00003 h 4 z"
       id="path1410" /><path
       style="fill:#ffffff;fill-opacity:0.10942249"
       d="m 24,304.65 v 0.99999 2.00001 0.99999 h 3 1 v -0.99999 -3 z"
       id="path1408" /><path
       style="fill:#ffffff;fill-opacity:0.10942249"
       d="M 24,300.65002 H 20 V 304.65 h 4 z"
       id="path1406" /><path
       style="fill:#ffffff;fill-opacity:0.10942249"
       d="m 24,296.64999 v 4.00003 h 4 v -4.00003 z"
       id="path1404" /><path
       style="fill:#ffffff;fill-opacity:0.10942249"
       d="m 24,292.65 h -4 v 3.99999 h 4 z"
       id="path1402" /><path
       style="fill:#ffffff;fill-opacity:0.10942249"
       d="M 24,288.65002 V 292.65 h 4 v -3.99998 z"
       id="path1400" /><path
       style="fill:#ffffff;fill-opacity:0.10942249"
       d="m 20,288.65002 h 4 v -4.00003 h -4 z"
       id="path1398" /><path
       style="fill:#ffffff;fill-opacity:0.10942249"
       d="M 16,288.65002 V 292.65 h 4 v -3.99998 z"
       id="path1396" /><path
       style="fill:#ffffff;fill-opacity:0.10942249"
       d="m 12,288.65002 h 4 v -4.00003 h -4 z"
       id="path1394" /><path
       style="fill:#ffffff;fill-opacity:0.10942249"
       d="M 8,288.65002 V 292.65 h 4 v -3.99998 z"
       id="path1392" /><path
       style="fill:#ffffff;fill-opacity:0.10942249"
       d="m 5,284.64999 c -0.553947,0 -1,0.4461 -1,1.00003 v 1.99997 1.00003 h 1 2 1 v -1.00003 -1.99997 -1.00003 H 7 Z"
       id="path337" /><path
       id="path339-7"
       style="fill:#1a1a1a;fill-opacity:1"
       d="m 9,292.64999 v 7 7 h 7 7 v -7 -7 h -7 z" /><path
       style="fill:#b2262c;fill-opacity:1"
       d="m 9,291.64999 h 7 v 7 H 9 Z"
       id="path339" /><path
       style="fill:#56b11c;fill-opacity:0.99215686"
       d="m 16,291.64999 h 7 v 7 h -7 z"
       id="path341" /><path
       style="fill:#0f49bf;fill-opacity:1"
       d="m 9,298.64999 h 7 v 7 H 9 Z"
       id="path343" /><path
       style="fill:#ff9600;fill-opacity:0.96078432"
       d="m 16,298.64999 h 7 v 7 h -7 z"
       id="path345" /><path
       style="fill:url(#linearGradient11548);fill-opacity:1"
       d="m 10,292.64999 h 5 v 5 h -5 z"
       id="path347" /><path
       style="fill-opacity:1;fill:url(#linearGradient9219)"
       d="m 17,292.64999 h 5 v 5 h -5 z"
       id="path349" /><path
       style="fill:url(#linearGradient3916);fill-opacity:1"
       d="m 10,299.64999 h 5 v 5 h -5 z"
       id="path351" /><path
       style="fill-opacity:1;fill:url(#linearGradient7166)"
       d="m 17,299.64999 h 5 v 5 h -5 z"
       id="path353" /></g></svg>
