<?xml version="1.0" encoding="UTF-8" standalone="no"?>
<!-- Created with Inkscape (http://www.inkscape.org/) -->

<svg
   width="32"
   height="32"
   viewBox="0 0 32 32"
   version="1.1"
   id="svg8"
   inkscape:version="1.2.2 (b0a8486541, 2022-12-01)"
   sodipodi:docname="application-vnd.oasis.opendocument.database.svg"
   xml:space="preserve"
   xmlns:inkscape="http://www.inkscape.org/namespaces/inkscape"
   xmlns:sodipodi="http://sodipodi.sourceforge.net/DTD/sodipodi-0.dtd"
   xmlns:xlink="http://www.w3.org/1999/xlink"
   xmlns="http://www.w3.org/2000/svg"
   xmlns:svg="http://www.w3.org/2000/svg"
   xmlns:rdf="http://www.w3.org/1999/02/22-rdf-syntax-ns#"
   xmlns:cc="http://creativecommons.org/ns#"
   xmlns:dc="http://purl.org/dc/elements/1.1/"><title
     id="title7895">Antu icon Theme</title><defs
     id="defs2"><linearGradient
       gradientTransform="matrix(3.7795275,0,0,3.7795275,-7.9999992,-802.49464)"
       inkscape:collect="always"
       xlink:href="#linearGradient2902"
       id="linearGradient837-3"
       x1="4.2333336"
       y1="296.20624"
       x2="4.2333336"
       y2="289.59164"
       gradientUnits="userSpaceOnUse" /><linearGradient
       inkscape:collect="always"
       id="linearGradient2902"><stop
         style="stop-color:#a065a6;stop-opacity:1"
         offset="0"
         id="stop2898" /><stop
         style="stop-color:#bc83bf;stop-opacity:1"
         offset="1"
         id="stop2900" /></linearGradient></defs><sodipodi:namedview
     id="base"
     pagecolor="#ffffff"
     bordercolor="#666666"
     borderopacity="1.0"
     inkscape:pageopacity="0.0"
     inkscape:pageshadow="2"
     inkscape:zoom="5.6568542"
     inkscape:cx="15.821514"
     inkscape:cy="-4.065864"
     inkscape:document-units="px"
     inkscape:current-layer="g12724"
     showgrid="true"
     units="px"
     inkscape:window-width="2560"
     inkscape:window-height="1363"
     inkscape:window-x="0"
     inkscape:window-y="0"
     inkscape:window-maximized="1"
     objecttolerance="10"
     gridtolerance="10"
     guidetolerance="10"
     inkscape:showpageshadow="2"
     inkscape:pagecheckerboard="0"
     inkscape:deskcolor="#d1d1d1"><inkscape:grid
       type="xygrid"
       id="grid7897"
       empspacing="4" /></sodipodi:namedview><metadata
     id="metadata5"><rdf:RDF><cc:Work
         rdf:about=""><dc:format>image/svg+xml</dc:format><dc:type
           rdf:resource="http://purl.org/dc/dcmitype/StillImage" /><dc:title>Antu icon Theme</dc:title></cc:Work></rdf:RDF></metadata><g
     inkscape:label="Capa 1"
     inkscape:groupmode="layer"
     id="layer1"
     transform="translate(0,-282.64999)"><g
       id="g6297"
       transform="translate(7.9999996,-5.374995)"><path
         inkscape:connector-curvature="0"
         style="opacity:1;fill:#8631a6;fill-opacity:1;stroke:none;stroke-width:1.99999988;stroke-linecap:round;stroke-linejoin:round;stroke-miterlimit:4;stroke-dasharray:none;stroke-opacity:1"
         d="M -2.9999991,289.02501 H 19 c 1.108,0 2,0.89202 2,2.00001 v 26.00001 c 0,1.10797 -0.892,1.99998 -2,1.99998 H -2.9999991 c -1.1080001,0 -2.0000001,-0.89201 -2.0000001,-1.99998 v -26 c 0,-1.108 0.892,-2.00001 2.0000001,-2.00002 z"
         id="rect827-8" /><path
         inkscape:connector-curvature="0"
         style="opacity:1;fill:url(#linearGradient837-3);fill-opacity:1;stroke:none;stroke-width:1.99999988;stroke-linecap:round;stroke-linejoin:round;stroke-miterlimit:4;stroke-dasharray:none;stroke-opacity:1"
         d="M -2.9999992,290.02503 H 19 c 0.554,0 1,0.44599 1,1 v 26 c 0,0.55401 -0.446,1 -1,1 H -2.9999992 c -0.554,0 -1,-0.44599 -1,-1 v -26 c 0,-0.554 0.446,-1 1,-1 z"
         id="rect829-6" /></g><g
       id="g12724"
       transform="translate(5e-7,282.64999)"><g
         transform="translate(16,-274.64999)"
         id="g6" /><path
         id="path904-35"
         style="fill:#8631a6;fill-opacity:1"
         d="m 8,10 v 5 11 H 24 V 15 h -5 v -5 z m 1,1 h 9 v 4 H 9 Z m 1,1 v 2 h 7 v -2 z m -1,4 h 14 v 4 H 9 Z m 1,1 v 2 h 12 v -2 z m -1,4 h 14 v 4 H 9 Z m 1,1 v 2 h 12 v -2 z" /><path
         id="path904-3"
         style="fill:#f4ecf7;fill-opacity:1"
         d="m 8,9 v 5 11 H 24 V 14 H 19 V 9 Z m 1,1 h 9 v 4 H 9 Z m 1,1 v 2 h 7 v -2 z m -1,4 h 14 v 4 H 9 Z m 1,1 v 2 h 12 v -2 z m -1,4 h 14 v 4 H 9 Z m 1,1 v 2 h 12 v -2 z" /></g></g></svg>
