<?xml version="1.0" encoding="UTF-8" standalone="no"?>
<!-- Created with Inkscape (http://www.inkscape.org/) -->

<svg
   width="32"
   height="32"
   viewBox="0 0 32 32"
   version="1.1"
   id="svg8"
   inkscape:version="1.2.2 (b0a8486541, 2022-12-01)"
   sodipodi:docname="application-vnd.ms-word.template.macroenabled.12.svg"
   xml:space="preserve"
   xmlns:inkscape="http://www.inkscape.org/namespaces/inkscape"
   xmlns:sodipodi="http://sodipodi.sourceforge.net/DTD/sodipodi-0.dtd"
   xmlns:xlink="http://www.w3.org/1999/xlink"
   xmlns="http://www.w3.org/2000/svg"
   xmlns:svg="http://www.w3.org/2000/svg"
   xmlns:rdf="http://www.w3.org/1999/02/22-rdf-syntax-ns#"
   xmlns:cc="http://creativecommons.org/ns#"
   xmlns:dc="http://purl.org/dc/elements/1.1/"><title
     id="title7895">Antu icon Theme</title><defs
     id="defs2"><linearGradient
       inkscape:collect="always"
       id="linearGradient1210"><stop
         style="stop-color:#4a4a4a;stop-opacity:1;"
         offset="0"
         id="stop1206" /><stop
         style="stop-color:#212121;stop-opacity:1;"
         offset="1"
         id="stop1208" /></linearGradient><linearGradient
       inkscape:collect="always"
       xlink:href="#linearGradient1210"
       id="linearGradient1212"
       x1="2.1166668"
       y1="296.47083"
       x2="2.1166668"
       y2="293.82498"
       gradientUnits="userSpaceOnUse"
       gradientTransform="matrix(3.7795275,0,0,3.7795275,14,-807.86961)" /><linearGradient
       gradientUnits="userSpaceOnUse"
       y2="289.59164"
       x2="4.2333336"
       y1="296.20624"
       x1="4.2333336"
       id="linearGradient837-5"
       xlink:href="#linearGradient4602"
       inkscape:collect="always"
       gradientTransform="matrix(3.7795275,0,0,3.7795275,0,-807.86971)" /><linearGradient
       id="linearGradient4602"
       inkscape:collect="always"><stop
         id="stop4598"
         offset="0"
         style="stop-color:#228ee9;stop-opacity:1" /><stop
         id="stop4600"
         offset="1"
         style="stop-color:#2eb5fd;stop-opacity:1" /></linearGradient></defs><sodipodi:namedview
     id="base"
     pagecolor="#ffffff"
     bordercolor="#666666"
     borderopacity="1.0"
     inkscape:pageopacity="0.0"
     inkscape:pageshadow="2"
     inkscape:zoom="22.627416"
     inkscape:cx="21.721437"
     inkscape:cy="14.318913"
     inkscape:document-units="px"
     inkscape:current-layer="layer1"
     showgrid="true"
     units="px"
     inkscape:window-width="2560"
     inkscape:window-height="1363"
     inkscape:window-x="0"
     inkscape:window-y="0"
     inkscape:window-maximized="1"
     objecttolerance="10"
     gridtolerance="10"
     guidetolerance="10"
     inkscape:showpageshadow="2"
     inkscape:pagecheckerboard="0"
     inkscape:deskcolor="#d1d1d1"><inkscape:grid
       type="xygrid"
       id="grid7897"
       empspacing="4" /></sodipodi:namedview><metadata
     id="metadata5"><rdf:RDF><cc:Work
         rdf:about=""><dc:format>image/svg+xml</dc:format><dc:type
           rdf:resource="http://purl.org/dc/dcmitype/StillImage" /><dc:title>Antu icon Theme</dc:title></cc:Work></rdf:RDF></metadata><g
     inkscape:label="Capa 1"
     inkscape:groupmode="layer"
     id="layer1"
     transform="translate(0,-282.64999)"><g
       id="g847"
       transform="translate(46,-4.55627)"><g
         inkscape:label="Capa 1"
         id="layer1-2"
         transform="translate(-46,4.55627)"><path
           inkscape:connector-curvature="0"
           style="fill:#1568b4;fill-opacity:1;stroke:none;stroke-width:2;stroke-linecap:round;stroke-linejoin:round;stroke-miterlimit:4;stroke-dasharray:none;stroke-opacity:1"
           d="m 5,283.64999 h 21.999999 c 1.108,0 2,0.892 2,2 v 26 c 0,1.108 -0.892,2 -2,2 H 5 c -1.108,0 -2,-0.892 -2,-2 v -26 c 0,-1.108 0.892,-2 2,-2 z"
           id="rect827-9" /><path
           inkscape:connector-curvature="0"
           style="fill:url(#linearGradient837-5);fill-opacity:1;stroke:none;stroke-width:2;stroke-linecap:round;stroke-linejoin:round;stroke-miterlimit:4;stroke-dasharray:none;stroke-opacity:1"
           d="m 5,284.64999 h 21.999999 c 0.554,0 1,0.446 1,1 v 26 c 0,0.554 -0.446,1 -1,1 H 5 c -0.554,0 -1,-0.446 -1,-1 v -26 c 0,-0.554 0.446,-1 1,-1 z"
           id="rect829-1" /><path
           style="fill:#ffffff;fill-opacity:0.237082;stroke-width:3.77953"
           d="m 16,300.65001 h -4 v 3.99998 h 4 z"
           id="path1128" /><path
           style="fill:#ffffff;fill-opacity:0.237082;stroke-width:3.77953"
           d="m 16,296.64998 v 4.00003 h 4 v -4.00003 z"
           id="path1126" /><path
           style="fill:#ffffff;fill-opacity:0.237082;stroke-width:3.77953"
           d="m 12,296.64998 h 4 v -3.99999 h -4 z"
           id="path1124" /><path
           style="fill:#ffffff;fill-opacity:0.237082;stroke-width:3.77953"
           d="m 8,296.64998 v -3.99999 H 4 v 3.99999 z"
           id="path1122" /><path
           style="fill:#ffffff;fill-opacity:0.237082;stroke-width:3.77953"
           d="m 8,300.65001 h 4 v -4.00003 H 8 Z"
           id="path1120" /><path
           style="fill:#ffffff;fill-opacity:0.237082;stroke-width:3.77953"
           d="m 8,304.64999 v -3.99998 H 4 v 3.99998 z"
           id="path1118" /><path
           style="fill:#ffffff;fill-opacity:0.237082;stroke-width:3.77953"
           d="m 12,308.64998 v -3.99999 H 8 v 3.99999 z"
           id="path1114" /><path
           style="fill:#ffffff;fill-opacity:0.237082;stroke-width:3.77953"
           d="m 16,308.64998 h -4 v 4.00003 h 4 z"
           id="path1112" /><path
           style="fill:#ffffff;fill-opacity:0.237082;stroke-width:3.77953"
           d="m 20,308.64998 v -3.99999 h -4 v 3.99999 z"
           id="path1110" /><path
           style="fill:#ffffff;fill-opacity:0.237082;stroke-width:3.77953"
           d="m 24,308.64998 h -4 v 4.00003 h 4 z"
           id="path1108" /><path
           style="fill:#ffffff;fill-opacity:0.237082;stroke-width:3.77953"
           d="m 24,304.64999 v 0.99999 2.00001 0.99999 h 3 1 v -0.99999 -3 z"
           id="path1106" /><path
           style="fill:#ffffff;fill-opacity:0.237082;stroke-width:3.77953"
           d="m 24,300.65001 h -4 v 3.99998 h 4 z"
           id="path1104" /><path
           style="fill:#ffffff;fill-opacity:0.237082;stroke-width:3.77953"
           d="m 24,296.64998 v 4.00003 h 4 v -4.00003 z"
           id="path1102" /><path
           style="fill:#ffffff;fill-opacity:0.237082;stroke-width:3.77953"
           d="m 24,292.64999 h -4 v 3.99999 h 4 z"
           id="path1100" /><path
           style="fill:#ffffff;fill-opacity:0.237082;stroke-width:3.77953"
           d="m 24,288.65001 v 3.99998 h 4 v -3.99998 z"
           id="path1098" /><path
           style="fill:#ffffff;fill-opacity:0.237082;stroke-width:3.77953"
           d="m 20,288.65001 h 4 v -4.00003 h -4 z"
           id="path1096" /><path
           style="fill:#ffffff;fill-opacity:0.237082;stroke-width:3.77953"
           d="m 16,288.65001 v 3.99998 h 4 v -3.99998 z"
           id="path1094" /><path
           style="fill:#ffffff;fill-opacity:0.237082;stroke-width:3.77953"
           d="m 12,288.65001 h 4 v -4.00003 h -4 z"
           id="path1092" /><path
           style="fill:#ffffff;fill-opacity:0.237082;stroke-width:3.77953"
           d="m 8,288.65001 v 3.99998 h 4 v -3.99998 z"
           id="path1090" /><path
           style="fill:#ffffff;fill-opacity:0.237082;stroke-width:3.77953"
           d="m 5,284.64998 c -0.553947,0 -1,0.4461 -1,1.00003 v 1.99997 1.00003 h 1 2 1 v -1.00003 -1.99997 -1.00003 H 7 Z"
           id="path145" /><path
           style="fill:#ffffff;fill-opacity:0.237082;stroke-width:3.77953"
           d="m 3.999985,311.64998 c 0,0.55394 0.4461,1 1.00003,1 h 1.99997 1.00003 v -1 -2 -1 h -1.00003 -1.99997 -1.00003 v 1 z"
           id="path145-3" /><path
           style="font-style:normal;font-variant:normal;font-weight:normal;font-stretch:normal;font-size:40px;line-height:125%;font-family:'Segoe UI';-inkscape-font-specification:'Segoe UI';letter-spacing:0px;word-spacing:0px;fill:#1568b4;fill-opacity:1;stroke:none;stroke-width:0.298427"
           d="m 10.000001,303.64999 v -8 l 7.999999,-3 4,2 v 11 l -4,1 -7.999999,-3 6.999995,1 v -9 l -4,1 v 6 z"
           id="path3025-0-9-2"
           inkscape:connector-curvature="0"
           sodipodi:nodetypes="cccccccccccc" /><path
           sodipodi:nodetypes="cccccccccccc"
           inkscape:connector-curvature="0"
           id="path3025-0-7"
           d="m 10.000001,302.64999 v -8 l 7.999999,-3 4,2 v 11 l -4,1 -8,-2 h 6.999995 v -9 l -3.999999,1 v 6 z"
           style="font-style:normal;font-variant:normal;font-weight:normal;font-stretch:normal;font-size:40px;line-height:125%;font-family:'Segoe UI';-inkscape-font-specification:'Segoe UI';letter-spacing:0px;word-spacing:0px;fill:#f8faf8;fill-opacity:1;stroke:none;stroke-width:0.298427" /></g></g><path
       style="fill:#030303;fill-opacity:1;stroke-width:3.77953"
       d="M 15.900391,300.65005 C 15.427248,300.65005 15,301.03439 15,301.50747 l 10e-7,11.28518 c 0,0.4735 0.427248,0.85742 0.900391,0.85742 h 12.199217 c 0.473144,0 0.900392,-0.38434 0.900392,-0.85742 L 29,301.49186 c 0,-0.47358 -0.427249,-0.84072 -0.900391,-0.84181 z"
       id="path253" /><path
       style="fill:url(#linearGradient1212);fill-opacity:1;stroke-width:3.77953"
       d="m 16,301.65003 h 12 v 11.00005 H 16.000001 Z"
       id="path255" /><g
       fill="#3c4f5e"
       id="g265"
       transform="matrix(3.7795275,0,0,3.7795275,4.0000014,-805.36961)"><path
         d="M 3.175,294.22186 H 6.35 v 0.52917 H 3.175 Z"
         id="path259"
         style="fill:#0f0f0f;fill-opacity:0.392157" /><path
         d="M 3.175,293.16351 H 6.35 v 0.52917 H 3.175 Z"
         id="path261"
         style="fill:#0f0f0f;fill-opacity:0.392157" /><path
         d="M 3.175,295.28018 H 6.35 v 0.52917 H 3.175 Z"
         id="path263"
         style="fill:#0f0f0f;fill-opacity:0.392157" /></g><path
       id="path267"
       style="fill:#32ff3f;fill-opacity:1;stroke-width:3.77953"
       d="M 18 303.64999 L 18 304.64999 L 17 304.64999 L 17 305.64999 L 18 305.64999 L 18 306.64999 L 17 306.64999 L 17 307.64999 L 18 307.64999 L 18 308.64999 L 19 308.64999 L 19 307.64999 L 20 307.64999 L 20 308.64999 L 21 308.64999 L 21 307.64999 L 22 307.64999 L 22 306.64999 L 21 306.64999 L 21 305.64999 L 22 305.64999 L 22 304.64999 L 21 304.64999 L 21 303.64999 L 20 303.64999 L 20 304.64999 L 19 304.64999 L 19 303.64999 L 18 303.64999 z M 19 305.64999 L 20 305.64999 L 20 306.64999 L 19 306.64999 L 19 305.64999 z " /><path
       style="fill:#32ff3f;fill-opacity:1;stroke-width:3.77953"
       d="m 23.000001,307.65003 h 4 v 0.99998 h -4 z"
       id="path269" /></g></svg>
