<?xml version="1.0" encoding="UTF-8" standalone="no"?>
<!-- Created with Inkscape (http://www.inkscape.org/) -->

<svg
   width="32"
   height="32"
   viewBox="0 0 32 32"
   version="1.1"
   id="svg8"
   inkscape:version="1.2.2 (b0a8486541, 2022-12-01)"
   sodipodi:docname="application-x-smb-server.svg"
   xml:space="preserve"
   xmlns:inkscape="http://www.inkscape.org/namespaces/inkscape"
   xmlns:sodipodi="http://sodipodi.sourceforge.net/DTD/sodipodi-0.dtd"
   xmlns:xlink="http://www.w3.org/1999/xlink"
   xmlns="http://www.w3.org/2000/svg"
   xmlns:svg="http://www.w3.org/2000/svg"
   xmlns:rdf="http://www.w3.org/1999/02/22-rdf-syntax-ns#"
   xmlns:cc="http://creativecommons.org/ns#"
   xmlns:dc="http://purl.org/dc/elements/1.1/"><title
     id="title7895">Antu icon Theme</title><defs
     id="defs2"><linearGradient
       gradientUnits="userSpaceOnUse"
       y2="289.59164"
       x2="4.2333336"
       y1="296.20624"
       x1="4.2333336"
       id="linearGradient837-8"
       xlink:href="#linearGradient1143"
       inkscape:collect="always"
       gradientTransform="matrix(3.7795275,0,0,3.7795275,-28,-825.61971)" /><linearGradient
       inkscape:collect="always"
       id="linearGradient1143"><stop
         style="stop-color:#f1efea;stop-opacity:1"
         offset="0"
         id="stop1139" /><stop
         style="stop-color:#fcfcfc;stop-opacity:1"
         offset="1"
         id="stop1141" /></linearGradient><linearGradient
       inkscape:collect="always"
       xlink:href="#linearGradient5667"
       id="linearGradient5669"
       x1="49"
       y1="306.64999"
       x2="49"
       y2="303.64999"
       gradientUnits="userSpaceOnUse"
       gradientTransform="translate(-1,24)" /><linearGradient
       inkscape:collect="always"
       id="linearGradient5667"><stop
         style="stop-color:#fc3c3c;stop-opacity:1;"
         offset="0"
         id="stop5663" /><stop
         style="stop-color:#fd5038;stop-opacity:1;"
         offset="1"
         id="stop5665" /></linearGradient><linearGradient
       inkscape:collect="always"
       xlink:href="#linearGradient9535"
       id="linearGradient9537"
       x1="54"
       y1="311.64999"
       x2="54"
       y2="308.64999"
       gradientUnits="userSpaceOnUse"
       gradientTransform="translate(-1,24)" /><linearGradient
       inkscape:collect="always"
       id="linearGradient9535"><stop
         style="stop-color:#ffca00;stop-opacity:1;"
         offset="0"
         id="stop9531" /><stop
         style="stop-color:#ffde00;stop-opacity:1;"
         offset="1"
         id="stop9533" /></linearGradient><linearGradient
       inkscape:collect="always"
       xlink:href="#linearGradient8768"
       id="linearGradient8770"
       x1="50"
       y1="311.64999"
       x2="50"
       y2="308.64999"
       gradientUnits="userSpaceOnUse"
       gradientTransform="translate(-1,24)" /><linearGradient
       inkscape:collect="always"
       id="linearGradient8768"><stop
         style="stop-color:#1389f4;stop-opacity:1;"
         offset="0"
         id="stop8764" /><stop
         style="stop-color:#04affd;stop-opacity:1;"
         offset="1"
         id="stop8766" /></linearGradient><linearGradient
       inkscape:collect="always"
       xlink:href="#linearGradient7104"
       id="linearGradient7106"
       x1="54"
       y1="306.64999"
       x2="54"
       y2="303.64999"
       gradientUnits="userSpaceOnUse"
       gradientTransform="translate(-1,24)" /><linearGradient
       inkscape:collect="always"
       id="linearGradient7104"><stop
         style="stop-color:#6ddb23;stop-opacity:1;"
         offset="0"
         id="stop7100" /><stop
         style="stop-color:#9de91f;stop-opacity:1;"
         offset="1"
         id="stop7102" /></linearGradient></defs><sodipodi:namedview
     id="base"
     pagecolor="#ffffff"
     bordercolor="#666666"
     borderopacity="1.0"
     inkscape:pageopacity="0.0"
     inkscape:pageshadow="2"
     inkscape:zoom="22.627417"
     inkscape:cx="6.2092814"
     inkscape:cy="19.79899"
     inkscape:document-units="px"
     inkscape:current-layer="g12567"
     showgrid="true"
     units="px"
     inkscape:window-width="2560"
     inkscape:window-height="1363"
     inkscape:window-x="0"
     inkscape:window-y="0"
     inkscape:window-maximized="1"
     objecttolerance="10"
     gridtolerance="10"
     guidetolerance="10"
     inkscape:showpageshadow="2"
     inkscape:pagecheckerboard="0"
     inkscape:deskcolor="#d1d1d1"><inkscape:grid
       type="xygrid"
       id="grid7897"
       empspacing="4" /></sodipodi:namedview><metadata
     id="metadata5"><rdf:RDF><cc:Work
         rdf:about=""><dc:format>image/svg+xml</dc:format><dc:type
           rdf:resource="http://purl.org/dc/dcmitype/StillImage" /><dc:title>Antu icon Theme</dc:title></cc:Work></rdf:RDF></metadata><g
     inkscape:label="Capa 1"
     inkscape:groupmode="layer"
     id="layer1"
     transform="translate(0,-282.64999)"><g
       id="g12567"
       transform="translate(-29,-24.999975)"><g
         id="g9909"
         transform="translate(56,24.999975)"><g
           inkscape:label="Capa 1"
           id="layer1-6"
           transform="translate(-27)"><g
             id="g1507"
             transform="translate(28,17.75)"><path
               style="opacity:1;fill:#90a4ae;fill-opacity:1;stroke:none;stroke-width:2;stroke-linecap:round;stroke-linejoin:round;stroke-miterlimit:4;stroke-dasharray:none;stroke-opacity:1"
               d="m -23,265.89999 h 21.9999995 c 1.108,0 2,0.892 2,2 v 26 c 0,1.108 -0.892,2 -2,2 H -23 c -1.108,0 -2,-0.892 -2,-2 v -26 c 0,-1.108 0.892,-2 2,-2 z"
               id="rect827-2" /><path
               style="opacity:1;fill:url(#linearGradient837-8);fill-opacity:1;stroke:none;stroke-width:2;stroke-linecap:round;stroke-linejoin:round;stroke-miterlimit:4;stroke-dasharray:none;stroke-opacity:1"
               d="m -23,266.89999 h 21.9999995 c 0.554,0 1,0.446 1,1 v 26 c 0,0.554 -0.446,1 -1,1 H -23 c -0.553999,0 -1,-0.446 -1,-1 v -26 c 0,-0.554 0.446001,-1 1,-1 z"
               id="rect829-3" /></g></g><path
           style="fill:#d6dbdb;fill-opacity:1"
           d="m -11,300.65003 h -4 v 3.99998 h 4 z"
           id="path399" /><path
           style="fill:#d6dbdb;fill-opacity:1"
           d="m -11,296.65 v 4.00003 h 4 V 296.65 Z"
           id="path397" /><path
           style="fill:#d6dbdb;fill-opacity:1"
           d="m -15,296.65 h 4 v -3.99999 h -4 z"
           id="path395" /><path
           style="fill:#d6dbdb;fill-opacity:1"
           d="m -19,296.65 v -3.99999 h -4 V 296.65 Z"
           id="path393" /><path
           style="fill:#d6dbdb;fill-opacity:1"
           d="m -19,300.65003 h 4 V 296.65 h -4 z"
           id="path391" /><path
           style="fill:#d6dbdb;fill-opacity:1"
           d="m -19,304.65001 v -3.99998 h -4 v 3.99998 z"
           id="path389" /><path
           style="fill:#d6dbdb;fill-opacity:1"
           d="m -15,308.65 v -3.99999 h -4 V 308.65 Z"
           id="path385" /><path
           style="fill:#d6dbdb;fill-opacity:1"
           d="m -11,308.65 h -4 v 4.00003 h 4 z"
           id="path383" /><path
           style="fill:#d6dbdb;fill-opacity:1"
           d="m -7,308.65 v -3.99999 h -4 V 308.65 Z"
           id="path381" /><path
           style="fill:#d6dbdb;fill-opacity:1"
           d="m -3,308.65 h -4 v 4.00003 h 4 z"
           id="path379" /><path
           style="fill:#d6dbdb;fill-opacity:1"
           d="m -3,304.65001 v 0.99999 2.00001 0.99999 h 3 1 v -0.99999 -3 z"
           id="path377" /><path
           style="fill:#d6dbdb;fill-opacity:1"
           d="m -3,300.65003 h -4 v 3.99998 h 4 z"
           id="path375" /><path
           style="fill:#d6dbdb;fill-opacity:1"
           d="m -3,296.65 v 4.00003 H 1 V 296.65 Z"
           id="path373" /><path
           style="fill:#d6dbdb;fill-opacity:1"
           d="M -3,292.65001 H -7 V 296.65 h 4 z"
           id="path371" /><path
           style="fill:#d6dbdb;fill-opacity:1"
           d="m -3,288.65003 v 3.99998 h 4 v -3.99998 z"
           id="path369" /><path
           style="fill:#d6dbdb;fill-opacity:1"
           d="m -7,288.65003 h 4 V 284.65 h -4 z"
           id="path367" /><path
           style="fill:#d6dbdb;fill-opacity:1"
           d="m -11,288.65003 v 3.99998 h 4 v -3.99998 z"
           id="path365" /><path
           style="fill:#d6dbdb;fill-opacity:1"
           d="m -15,288.65003 h 4 V 284.65 h -4 z"
           id="path363" /><path
           style="fill:#d6dbdb;fill-opacity:1"
           d="m -19,288.65003 v 3.99998 h 4 v -3.99998 z"
           id="path361" /><path
           style="fill:#d6dbdb;fill-opacity:1"
           d="m -22,284.65 c -0.553947,0 -1,0.4461 -1,1.00003 v 1.99997 1.00003 h 1 2 1 V 287.65 285.65003 284.65 h -1 z"
           id="path6" /><path
           style="fill:#d6dbdb;fill-opacity:1"
           d="m -22,312.65003 c -0.553947,0 -1,-0.4461 -1,-1.00003 V 309.65003 308.65 h 1 2 1 v 1.00003 1.99997 1.00003 h -1 z"
           id="path6-3" /></g><path
         id="path10038-7"
         class="ColorScheme-Text"
         style="color:#122036;opacity:0.99;fill:#a7babe;fill-opacity:1;stroke:none;stroke-width:0.999999"
         d="m 39.000001,318.64999 c -0.554,0 -1.000001,0.44598 -1.000001,1 v 10.99997 c 0,0.55401 0.446002,1.00003 1.000001,1.00003 H 41 l 1.000002,-5e-5 h 6 L 49,331.64999 h 2.000001 c 0.554,0 0.999999,-0.44602 0.999999,-1.00003 v -10.99997 c 0,-0.55402 -0.446,-1 -1,-1 z m 1,1.99997 H 50 l 10e-7,7.99998 h -3 v 1.00002 h -4 l 1e-6,-1.00002 h -3 z M 41,322.64999 v 3 h 2.000001 v -3 z m 3,0 v 3 h 2 v -3 z m 3,0 v 3 h 2 v -3 z"
         inkscape:connector-curvature="0"
         sodipodi:nodetypes="ssssccccssssscccccccccccccccccccccccc" /><path
         id="path9306-5"
         style="fill:#a8bbbf;fill-opacity:1;stroke-width:3.77953"
         d="m 46,327.64996 v 5 5 h 5 5 v -5 -5 h -5 z" /><path
         id="path10038"
         class="ColorScheme-Text"
         style="color:#122036;opacity:0.99;fill:#788989;fill-opacity:1;stroke:none;stroke-width:0.999999"
         d="m 39.000001,317.64999 c -0.554,0 -1.000001,0.44598 -1.000001,0.99999 v 10.99997 c 0,0.55401 0.446002,1.00003 1.000001,1.00003 H 41 l 1.000002,-4e-5 h 6 L 49,330.64998 h 2.000001 c 0.554,0 0.999999,-0.44602 0.999999,-1.00003 v -10.99997 c 0,-0.55401 -0.446,-0.99999 -1,-0.99999 z m 1,1.99997 H 50 l 10e-7,7.99998 h -3 v 1.00002 h -4 l 1e-6,-1.00002 h -3 z M 41,321.64998 v 3 h 2.000001 v -3 z m 3,0 v 3 h 2 v -3 z m 3,0 v 3 h 2 v -3 z"
         inkscape:connector-curvature="0"
         sodipodi:nodetypes="ssssccccssssscccccccccccccccccccccccc" /><path
         style="fill:#b2262c;fill-opacity:1;stroke-width:3.77953"
         d="M 46.000001,326.64999 H 51 v 5 h -4.999999 z"
         id="path9306" /><path
         style="fill:#56b11c;fill-opacity:1;stroke-width:3.77953"
         d="m 51,326.64999 h 5.000001 v 5 H 51 Z"
         id="path9308" /><path
         style="fill:#0f49bf;fill-opacity:1;stroke-width:3.77953"
         d="M 46.000001,331.64999 H 51 v 5 h -4.999999 z"
         id="path9310" /><path
         style="fill:#f59101;fill-opacity:1;stroke-width:3.77953"
         d="m 51,331.64999 h 5.000001 v 5 H 51 Z"
         id="path9312" /><path
         style="fill:url(#linearGradient5669);fill-opacity:1;stroke-width:3.77953"
         d="m 47,327.64999 h 3.000001 v 3 H 47 Z"
         id="path9314" /><path
         style="fill:url(#linearGradient9537);fill-opacity:1;stroke-width:3.77953"
         d="m 52.000001,332.64999 h 3 v 3 h -3 z"
         id="path9316" /><path
         style="fill:url(#linearGradient8770);fill-opacity:1;stroke-width:3.77953"
         d="m 47,332.64999 h 3.000001 v 3 H 47 Z"
         id="path9318" /><path
         style="fill:url(#linearGradient7106);fill-opacity:1;stroke-width:3.77953"
         d="m 52.000001,327.64999 h 3 v 3 h -3 z"
         id="path9320" /></g></g></svg>
