<?xml version="1.0" encoding="UTF-8" standalone="no"?>
<!-- Created with Inkscape (http://www.inkscape.org/) -->

<svg
   width="32"
   height="32"
   viewBox="0 0 32 32"
   version="1.1"
   id="svg8"
   inkscape:version="1.2.2 (b0a8486541, 2022-12-01)"
   sodipodi:docname="application-ogg.svg"
   xml:space="preserve"
   xmlns:inkscape="http://www.inkscape.org/namespaces/inkscape"
   xmlns:sodipodi="http://sodipodi.sourceforge.net/DTD/sodipodi-0.dtd"
   xmlns:xlink="http://www.w3.org/1999/xlink"
   xmlns="http://www.w3.org/2000/svg"
   xmlns:svg="http://www.w3.org/2000/svg"
   xmlns:rdf="http://www.w3.org/1999/02/22-rdf-syntax-ns#"
   xmlns:cc="http://creativecommons.org/ns#"
   xmlns:dc="http://purl.org/dc/elements/1.1/"><title
     id="title7895">Antu icon Theme</title><defs
     id="defs2"><linearGradient
       gradientTransform="matrix(3.7795275,0,0,3.7795275,-15.999999,-815.86964)"
       inkscape:collect="always"
       xlink:href="#linearGradient4627"
       id="linearGradient837-3"
       x1="4.2333336"
       y1="296.20624"
       x2="4.2333336"
       y2="289.59164"
       gradientUnits="userSpaceOnUse" /><linearGradient
       id="linearGradient4627"
       inkscape:collect="always"><stop
         id="stop4623"
         offset="0"
         style="stop-color:#ffc900;stop-opacity:1" /><stop
         id="stop4625"
         offset="1"
         style="stop-color:#ffe200;stop-opacity:1" /></linearGradient><style
       type="text/css"
       id="current-color-scheme">
      .ColorScheme-Text {
        color:#122036;
      }
      </style><style
       type="text/css"
       id="current-color-scheme-1">
      .ColorScheme-Text {
        color:#122036;
      }
      </style><style
       id="current-color-scheme-10"
       type="text/css">
      .ColorScheme-Text {
        color:#122036;
      }
      </style><style
       id="current-color-scheme-5"
       type="text/css">
      .ColorScheme-Text {
        color:#122036;
      }
      </style><style
       id="current-color-scheme-1-2"
       type="text/css">
      .ColorScheme-Text {
        color:#122036;
      }
      </style><style
       type="text/css"
       id="current-color-scheme-10-9">
      .ColorScheme-Text {
        color:#122036;
      }
      </style><style
       type="text/css"
       id="current-color-scheme-6">
      .ColorScheme-Text {
        color:#122036;
      }
      </style><style
       type="text/css"
       id="current-color-scheme-1-9">
      .ColorScheme-Text {
        color:#122036;
      }
      </style><style
       id="current-color-scheme-10-1"
       type="text/css">
      .ColorScheme-Text {
        color:#122036;
      }
      </style><style
       type="text/css"
       id="current-color-scheme-7">
      .ColorScheme-Text {
        color:#122036;
      }
      </style><style
       type="text/css"
       id="current-color-scheme-1-5">
      .ColorScheme-Text {
        color:#122036;
      }
      </style><style
       id="current-color-scheme-10-3"
       type="text/css">
      .ColorScheme-Text {
        color:#122036;
      }
      </style><style
       id="current-color-scheme-5-5"
       type="text/css">
      .ColorScheme-Text {
        color:#122036;
      }
      </style><style
       id="current-color-scheme-1-2-6"
       type="text/css">
      .ColorScheme-Text {
        color:#122036;
      }
      </style><style
       type="text/css"
       id="current-color-scheme-10-9-2">
      .ColorScheme-Text {
        color:#122036;
      }
      </style><style
       type="text/css"
       id="current-color-scheme-6-9">
      .ColorScheme-Text {
        color:#122036;
      }
      </style><style
       type="text/css"
       id="current-color-scheme-1-9-1">
      .ColorScheme-Text {
        color:#122036;
      }
      </style><style
       id="current-color-scheme-10-1-2"
       type="text/css">
      .ColorScheme-Text {
        color:#122036;
      }
      </style></defs><sodipodi:namedview
     id="base"
     pagecolor="#ffffff"
     bordercolor="#666666"
     borderopacity="1.0"
     inkscape:pageopacity="0.0"
     inkscape:pageshadow="2"
     inkscape:zoom="22.627417"
     inkscape:cx="5.5021746"
     inkscape:cy="20.85965"
     inkscape:document-units="px"
     inkscape:current-layer="g5827"
     showgrid="true"
     units="px"
     inkscape:window-width="2560"
     inkscape:window-height="1363"
     inkscape:window-x="0"
     inkscape:window-y="0"
     inkscape:window-maximized="1"
     objecttolerance="10"
     gridtolerance="10"
     guidetolerance="10"
     inkscape:showpageshadow="2"
     inkscape:pagecheckerboard="0"
     inkscape:deskcolor="#d1d1d1"><inkscape:grid
       type="xygrid"
       id="grid7897"
       empspacing="4" /></sodipodi:namedview><metadata
     id="metadata5"><rdf:RDF><cc:Work
         rdf:about=""><dc:format>image/svg+xml</dc:format><dc:type
           rdf:resource="http://purl.org/dc/dcmitype/StillImage" /><dc:title>Antu icon Theme</dc:title></cc:Work></rdf:RDF></metadata><g
     inkscape:label="Capa 1"
     inkscape:groupmode="layer"
     id="layer1"
     transform="translate(0,-282.64999)"><g
       id="g9127"
       transform="translate(15.999999,7.99998)"><path
         inkscape:connector-curvature="0"
         style="opacity:1;fill:#ff9600;fill-opacity:0.960784;stroke:none;stroke-width:2;stroke-linecap:round;stroke-linejoin:round;stroke-miterlimit:4;stroke-dasharray:none;stroke-opacity:1"
         d="M -10.999999,275.65001 H 11 c 1.108,0 2,0.89202 2,2.00001 v 26.00001 c 0,1.10797 -0.892,1.99998 -2,1.99998 h -21.999999 c -1.108,0 -2,-0.892 -2,-1.99998 v -26 c 0,-1.108 0.892,-2 2,-2.00002 z"
         id="rect827-8" /><path
         inkscape:connector-curvature="0"
         style="opacity:1;fill:url(#linearGradient837-3);fill-opacity:1;stroke:none;stroke-width:2;stroke-linecap:round;stroke-linejoin:round;stroke-miterlimit:4;stroke-dasharray:none;stroke-opacity:1"
         d="M -10.999999,276.65003 H 11 c 0.554,0 1,0.44599 1,1 v 26 c 0,0.55401 -0.446,1 -1,1 h -21.999999 c -0.554,0 -1,-0.44599 -1,-1 v -26 c 0,-0.55399 0.446,-1 1,-1 z"
         id="rect829-6" /></g><g
       id="g5827"
       transform="translate(6.3749997,18)"><path
         style="opacity:1;fill:#ffb000;fill-opacity:1;stroke:none;stroke-width:1;stroke-opacity:1"
         d="m 4.6250006,272.64999 c -0.554,0 -1,0.446 -1,1 0,0.554 0.446,1 1,1 0.554,0 1,-0.446 1,-1 0,-0.554 -0.446,-1 -1,-1 z"
         id="rect4689-9-9-7" /><path
         style="opacity:1;fill:#ffb000;fill-opacity:1;stroke:none;stroke-width:1;stroke-opacity:1"
         d="m 14.625001,289.64999 c -0.554,0 -1,0.446 -1,1 0,0.554 0.446,1 1,1 0.554,0 1,-0.446 1,-1 0,-0.554 -0.446,-1 -1,-1 z"
         id="path430" /><path
         style="opacity:1;fill:#ffb000;fill-opacity:1;stroke:none;stroke-width:1;stroke-opacity:1"
         d="m 18.625001,287.64999 c -0.554,0 -1,0.446 -1,1 0,0.554 0.446,1 1,1 0.554,0 1,-0.446 1,-1 0,-0.554 -0.446,-1 -1,-1 z"
         id="path428" /><path
         style="opacity:1;fill:#ffb000;fill-opacity:1;stroke:none;stroke-width:1;stroke-opacity:1"
         d="m 14.625001,285.64999 c -0.554,0 -1,0.446 -1,1 0,0.554 0.446,1 1,1 0.554,0 1,-0.446 1,-1 0,-0.554 -0.446,-1 -1,-1 z"
         id="path426" /><path
         style="opacity:1;fill:#ffb000;fill-opacity:1;stroke:none;stroke-width:1;stroke-opacity:1"
         d="m 18.625001,283.64999 c -0.554,0 -1,0.446 -1,1 0,0.554 0.446,1 1,1 0.554,0 1,-0.446 1,-1 0,-0.554 -0.446,-1 -1,-1 z"
         id="path424" /><path
         style="opacity:1;fill:#ffb000;fill-opacity:1;stroke:none;stroke-width:1;stroke-opacity:1"
         d="m 0.62500062,282.64999 c -0.554,0 -1,0.446 -1,1 0,0.554 0.446,1 1,1 0.55399998,0 0.99999998,-0.446 0.99999998,-1 0,-0.554 -0.446,-1 -0.99999998,-1 z"
         id="path422" /><path
         style="opacity:1;fill:#ffb000;fill-opacity:1;stroke:none;stroke-width:1;stroke-opacity:1"
         d="m 18.625001,279.64999 c -0.554,0 -1,0.446 -1,1 0,0.554 0.446,1 1,1 0.554,0 1,-0.446 1,-1 0,-0.554 -0.446,-1 -1,-1 z"
         id="path420" /><path
         style="opacity:1;fill:#ffb000;fill-opacity:1;stroke:none;stroke-width:1;stroke-opacity:1"
         d="m 0.62500062,278.64999 c -0.554,0 -1,0.446 -1,1 0,0.554 0.446,1 1,1 0.55399998,0 0.99999998,-0.446 0.99999998,-1 0,-0.554 -0.446,-1 -0.99999998,-1 z"
         id="path418" /><path
         style="opacity:1;fill:#ffb000;fill-opacity:1;stroke:none;stroke-width:1;stroke-opacity:1"
         d="m 4.6250006,276.64999 c -0.554,0 -1,0.446 -1,1 0,0.554 0.446,1 1,1 0.554,0 1,-0.446 1,-1 0,-0.554 -0.446,-1 -1,-1 z"
         id="path416" /><path
         style="opacity:1;fill:#ffb000;fill-opacity:1;stroke:none;stroke-width:1;stroke-opacity:1"
         d="m 0.62500062,274.64999 c -0.554,0 -1,0.446 -1,1 0,0.554 0.446,1 1,1 0.55399998,0 0.99999998,-0.446 0.99999998,-1 0,-0.554 -0.446,-1 -0.99999998,-1 z"
         id="path414" /><path
         style="opacity:1;fill:#ffb000;fill-opacity:1;stroke:none;stroke-width:1;stroke-opacity:1"
         d="m 14.625001,273.64999 -5.0000004,2 v 3 1 2.5508 c -0.589552,-0.3417 -1.266971,-0.5508 -2,-0.5508 -2.216,0 -4,1.784 -4,4 0,2.216 1.784,4 4,4 2.216,0 4.0000004,-1.784 4.0000004,-4 v -5 -1.8008 l 3,-1.1992 z"
         id="path412" /><path
         style="opacity:1;fill:#714500;fill-opacity:1;stroke:none;stroke-width:1;stroke-opacity:1"
         d="m 14.625001,288.64999 c -0.554,0 -1,0.446 -1,1 0,0.554 0.446,1 1,1 0.554,0 1,-0.446 1,-1 0,-0.554 -0.446,-1 -1,-1 z"
         id="path1903" /><path
         style="opacity:1;fill:#714500;fill-opacity:1;stroke:none;stroke-width:1;stroke-opacity:1"
         d="m 18.625001,286.64999 c -0.554,0 -1,0.446 -1,1 0,0.554 0.446,1 1,1 0.554,0 1,-0.446 1,-1 0,-0.554 -0.446,-1 -1,-1 z"
         id="path1901" /><path
         style="opacity:1;fill:#714500;fill-opacity:1;stroke:none;stroke-width:1;stroke-opacity:1"
         d="m 14.625001,284.64999 c -0.554,0 -1,0.446 -1,1 0,0.554 0.446,1 1,1 0.554,0 1,-0.446 1,-1 0,-0.554 -0.446,-1 -1,-1 z"
         id="path1899" /><path
         style="opacity:1;fill:#714500;fill-opacity:1;stroke:none;stroke-width:1;stroke-opacity:1"
         d="m 18.625001,282.64999 c -0.554,0 -1,0.446 -1,1 0,0.554 0.446,1 1,1 0.554,0 1,-0.446 1,-1 0,-0.554 -0.446,-1 -1,-1 z"
         id="path1897" /><path
         style="opacity:1;fill:#714500;fill-opacity:1;stroke:none;stroke-width:1;stroke-opacity:1"
         d="m 0.62500062,281.64999 c -0.554,0 -1,0.446 -1,1 0,0.554 0.446,1 1,1 0.55399998,0 0.99999998,-0.446 0.99999998,-1 0,-0.554 -0.446,-1 -0.99999998,-1 z"
         id="path1895" /><path
         style="opacity:1;fill:#714500;fill-opacity:1;stroke:none;stroke-width:1;stroke-opacity:1"
         d="m 18.625001,278.64999 c -0.554,0 -1,0.446 -1,1 0,0.554 0.446,1 1,1 0.554,0 1,-0.446 1,-1 0,-0.554 -0.446,-1 -1,-1 z"
         id="path1893" /><path
         style="opacity:1;fill:#714500;fill-opacity:1;stroke:none;stroke-width:1;stroke-opacity:1"
         d="m 0.62500062,277.64999 c -0.554,0 -1,0.446 -1,1 0,0.554 0.446,1 1,1 0.55399998,0 0.99999998,-0.446 0.99999998,-1 0,-0.554 -0.446,-1 -0.99999998,-1 z"
         id="path1891" /><path
         style="opacity:1;fill:#714500;fill-opacity:1;stroke:none;stroke-width:1;stroke-opacity:1"
         d="m 4.6250006,275.64999 c -0.554,0 -1,0.446 -1,1 0,0.554 0.446,1 1,1 0.554,0 1,-0.446 1,-1 0,-0.554 -0.446,-1 -1,-1 z"
         id="path1889" /><path
         style="opacity:1;fill:#714500;fill-opacity:1;stroke:none;stroke-width:1;stroke-opacity:1"
         d="m 0.62500062,273.64999 c -0.554,0 -1,0.446 -1,1 0,0.554 0.446,1 1,1 0.55399998,0 0.99999998,-0.446 0.99999998,-1 0,-0.554 -0.446,-1 -0.99999998,-1 z"
         id="path1887" /><path
         style="opacity:1;fill:#714500;fill-opacity:1;stroke:none;stroke-width:1;stroke-opacity:1"
         d="m 14.625001,272.64999 -5.0000004,2 v 3 1 2.5508 c -0.589552,-0.3417 -1.266971,-0.5508 -2,-0.5508 -2.216,0 -4,1.784 -4,4 0,2.216 1.784,4 4,4 2.216,0 4.0000004,-1.784 4.0000004,-4 v -5 -1.8008 l 3,-1.1992 z"
         id="path1885" /><path
         style="opacity:1;fill:#714500;fill-opacity:1;stroke:none;stroke-width:1;stroke-opacity:1"
         d="m 4.6250006,271.64999 c -0.554,0 -1,0.446 -1,1 0,0.554 0.446,1 1,1 0.554,0 1,-0.446 1,-1 0,-0.554 -0.446,-1 -1,-1 z"
         id="rect4689-9-9" /></g></g></svg>
