<?xml version="1.0" encoding="UTF-8" standalone="no"?>
<!-- Created with Inkscape (http://www.inkscape.org/) -->

<svg
   width="32"
   height="32"
   viewBox="0 0 32 32"
   version="1.1"
   id="svg8"
   inkscape:version="1.2.2 (b0a8486541, 2022-12-01)"
   sodipodi:docname="application-x-gettext-translation.svg"
   xml:space="preserve"
   xmlns:inkscape="http://www.inkscape.org/namespaces/inkscape"
   xmlns:sodipodi="http://sodipodi.sourceforge.net/DTD/sodipodi-0.dtd"
   xmlns:xlink="http://www.w3.org/1999/xlink"
   xmlns="http://www.w3.org/2000/svg"
   xmlns:svg="http://www.w3.org/2000/svg"
   xmlns:rdf="http://www.w3.org/1999/02/22-rdf-syntax-ns#"
   xmlns:cc="http://creativecommons.org/ns#"
   xmlns:dc="http://purl.org/dc/elements/1.1/"><title
     id="title7895">Antu icon Theme</title><defs
     id="defs2"><style
       id="current-color-scheme"
       type="text/css">
      .ColorScheme-Text {
        color:#122036;
      }
      </style><style
       type="text/css"
       id="current-color-scheme-53">
      .ColorScheme-Text {
        color:#122036;
      }
      </style><style
       id="current-color-scheme-5"
       type="text/css">
      .ColorScheme-Text {
        color:#122036;
      }
      </style><style
       id="current-color-scheme-2"
       type="text/css">
      .ColorScheme-Text {
        color:#122036;
      }
      </style><style
       id="current-color-scheme-1"
       type="text/css">
      .ColorScheme-Text {
        color:#122036;
      }
      </style><style
       type="text/css"
       id="current-color-scheme-10">
      .ColorScheme-Text {
        color:#122036;
      }
      </style><style
       id="current-color-scheme-0"
       type="text/css">
      .ColorScheme-Text {
        color:#122036;
      }
      </style><style
       id="current-color-scheme-26"
       type="text/css">
      .ColorScheme-Text {
        color:#122036;
      }
      </style><style
       id="current-color-scheme-7"
       type="text/css">
      .ColorScheme-Text {
        color:#122036;
      }
      </style><linearGradient
       gradientUnits="userSpaceOnUse"
       y2="289.85626"
       x2="4.2333331"
       y1="296.47086"
       x1="4.2333331"
       id="linearGradient837"
       xlink:href="#linearGradient5716"
       inkscape:collect="always"
       gradientTransform="matrix(3.7795275,0,0,3.7795275,2.5e-7,-807.86971)" /><linearGradient
       inkscape:collect="always"
       id="linearGradient5716"><stop
         style="stop-color:#1c9af5;stop-opacity:1;"
         offset="0"
         id="stop5712" /><stop
         style="stop-color:#1fb5f9;stop-opacity:1"
         offset="1"
         id="stop5714" /></linearGradient></defs><sodipodi:namedview
     id="base"
     pagecolor="#ffffff"
     bordercolor="#666666"
     borderopacity="1.0"
     inkscape:pageopacity="0.0"
     inkscape:pageshadow="2"
     inkscape:zoom="32.000001"
     inkscape:cx="24.453124"
     inkscape:cy="16.249999"
     inkscape:document-units="px"
     inkscape:current-layer="layer1-2"
     showgrid="true"
     units="px"
     inkscape:window-width="2560"
     inkscape:window-height="1363"
     inkscape:window-x="0"
     inkscape:window-y="0"
     inkscape:window-maximized="1"
     objecttolerance="10"
     gridtolerance="10"
     guidetolerance="10"
     inkscape:showpageshadow="2"
     inkscape:pagecheckerboard="0"
     inkscape:deskcolor="#d1d1d1"><inkscape:grid
       type="xygrid"
       id="grid7897"
       empspacing="4" /></sodipodi:namedview><metadata
     id="metadata5"><rdf:RDF><cc:Work
         rdf:about=""><dc:format>image/svg+xml</dc:format><dc:type
           rdf:resource="http://purl.org/dc/dcmitype/StillImage" /><dc:title>Antu icon Theme</dc:title></cc:Work></rdf:RDF></metadata><g
     inkscape:label="Capa 1"
     inkscape:groupmode="layer"
     id="layer1"
     transform="translate(0,-282.64999)"><path
       inkscape:connector-curvature="0"
       style="fill:#1568b4;fill-opacity:1;stroke:none;stroke-width:2;stroke-linecap:round;stroke-linejoin:round;stroke-miterlimit:4;stroke-dasharray:none;stroke-opacity:1"
       d="M 5.0000007,283.64999 H 26.999999 c 1.108,0 2,0.892 2,2 v 26 c 0,1.108 -0.892,2 -2,2 H 5.0000007 c -1.108,0 -2,-0.892 -2,-2 v -26 c 0,-1.108 0.892,-2 2,-2 z"
       id="rect827" /><path
       inkscape:connector-curvature="0"
       style="fill:url(#linearGradient837);fill-opacity:1;stroke:none;stroke-width:2;stroke-linecap:round;stroke-linejoin:round;stroke-miterlimit:4;stroke-dasharray:none;stroke-opacity:1"
       d="M 5.0000007,284.64999 H 26.999999 c 0.554,0 1,0.446 1,1 v 26 c 0,0.554 -0.446,1 -1,1 H 5.0000007 c -0.554,0 -1,-0.446 -1,-1 v -26 c 0,-0.554 0.446,-1 1,-1 z"
       id="rect829" /><g
       inkscape:label="Capa 1"
       id="layer1-2"><g
         id="g1507"
         transform="translate(28,17.75)" /><path
         style="fill:#1568b4;fill-opacity:1;stroke-width:3.77953"
         d="m 13,295.64999 c -0.553999,0 -1,0.446 -1,1 v 12 c 0,0.554 0.446001,1 1,1 h 12 c 0.553999,0 1,-0.446 1,-1 v -12 c 0,-0.554 -0.446001,-1 -1,-1 z"
         id="path263-7" /><path
         id="path263"
         style="fill:#eef7ff;fill-opacity:1;stroke-width:2;stroke-linecap:round;stroke-linejoin:round;stroke-miterlimit:1.8"
         d="M 13 294.64999 C 12.446002 294.64999 12 295.09599 12 295.64999 L 12 307.64999 C 12 308.20399 12.446002 308.64999 13 308.64999 L 25 308.64999 C 25.553998 308.64999 26 308.20399 26 307.64999 L 26 295.64999 C 26 295.09599 25.553998 294.64999 25 294.64999 L 13 294.64999 z M 15 296.64999 L 18 296.64999 L 20 296.64999 L 23 296.64999 L 23 301.64999 L 22 301.64999 L 16 301.64999 L 16 302.64999 L 23 302.64999 L 23 303.64999 L 23 304.64999 L 23 305.64999 L 23 306.64999 L 22 306.64999 L 22 305.64999 L 21 305.64999 L 21 306.64999 L 20 306.64999 L 20 305.64999 L 19 305.64999 L 19 306.64999 L 18 306.64999 L 18 305.64999 L 16 305.64999 L 16 306.64999 L 15 306.64999 L 15 305.64999 L 15 304.64999 L 22 304.64999 L 22 303.64999 L 15 303.64999 L 15 302.64999 L 15 301.64999 L 15 300.64999 L 15 299.64999 L 15 298.64999 L 15 297.64999 L 15 296.64999 z M 16 297.64999 L 16 298.64999 L 22 298.64999 L 22 297.64999 L 16 297.64999 z M 16 299.64999 L 16 300.64999 L 22 300.64999 L 22 299.64999 L 16 299.64999 z " /><path
         style="fill:#1568b4;fill-opacity:1;stroke-width:3.77953"
         d="m 7,289.64999 c -0.553999,0 -1,0.446 -1,1 v 12 c 0,0.554 0.446001,1 1,1 h 12 c 0.553999,0 1,-0.446 1,-1 v -12 c 0,-0.554 -0.446001,-1 -1,-1 z"
         id="path267-5" /><path
         id="path267"
         style="fill:#ffffff;fill-opacity:1;stroke-width:2;stroke-linecap:round;stroke-linejoin:round;stroke-miterlimit:1.8"
         d="m 7.0000001,288.64999 c -0.5539984,0 -1,0.446 -1,1 v 12 c 0,0.554 0.4460016,1 1,1 H 19 c 0.553998,0 1,-0.446 1,-1 v -12 c 0,-0.554 -0.446002,-1 -1,-1 z m 4.9999999,2 h 2 l 4,8 -2,1 -1,-2 h -4 l -1,2 -2.0000002,-1 z m 1,2 -1,3 h 2 z" /></g></g></svg>
