<?xml version="1.0" encoding="UTF-8" standalone="no"?>
<!-- Created with Inkscape (http://www.inkscape.org/) -->

<svg
   width="32"
   height="32"
   viewBox="0 0 32 32"
   version="1.1"
   id="svg8"
   inkscape:version="1.2.2 (b0a8486541, 2022-12-01)"
   sodipodi:docname="application-x-audacity-project.svg"
   xmlns:inkscape="http://www.inkscape.org/namespaces/inkscape"
   xmlns:sodipodi="http://sodipodi.sourceforge.net/DTD/sodipodi-0.dtd"
   xmlns:xlink="http://www.w3.org/1999/xlink"
   xmlns="http://www.w3.org/2000/svg"
   xmlns:svg="http://www.w3.org/2000/svg"
   xmlns:rdf="http://www.w3.org/1999/02/22-rdf-syntax-ns#"
   xmlns:cc="http://creativecommons.org/ns#"
   xmlns:dc="http://purl.org/dc/elements/1.1/">
  <title
     id="title7895">Antu icon Theme</title>
  <defs
     id="defs2">
    <linearGradient
       gradientUnits="userSpaceOnUse"
       y2="289.59164"
       x2="4.2333336"
       y1="296.20624"
       x1="4.2333336"
       id="linearGradient837"
       xlink:href="#linearGradient4894"
       inkscape:collect="always"
       gradientTransform="matrix(3.7795275,0,0,3.7795275,-6.3749994,-825.86971)" />
    <linearGradient
       inkscape:collect="always"
       id="linearGradient4894">
      <stop
         style="stop-color:#306dee;stop-opacity:1"
         offset="0"
         id="stop4890" />
      <stop
         style="stop-color:#5795fb;stop-opacity:1"
         offset="1"
         id="stop4892" />
    </linearGradient>
  </defs>
  <sodipodi:namedview
     id="base"
     pagecolor="#ffffff"
     bordercolor="#666666"
     borderopacity="1.0"
     inkscape:pageopacity="0.0"
     inkscape:pageshadow="2"
     inkscape:zoom="32"
     inkscape:cx="31.046875"
     inkscape:cy="20.59375"
     inkscape:document-units="px"
     inkscape:current-layer="layer1"
     showgrid="true"
     units="px"
     inkscape:window-width="2560"
     inkscape:window-height="1363"
     inkscape:window-x="0"
     inkscape:window-y="0"
     inkscape:window-maximized="1"
     objecttolerance="10"
     gridtolerance="10"
     guidetolerance="10"
     inkscape:showpageshadow="2"
     inkscape:pagecheckerboard="0"
     inkscape:deskcolor="#d1d1d1">
    <inkscape:grid
       type="xygrid"
       id="grid7897"
       empspacing="4" />
  </sodipodi:namedview>
  <metadata
     id="metadata5">
    <rdf:RDF>
      <cc:Work
         rdf:about="">
        <dc:format>image/svg+xml</dc:format>
        <dc:type
           rdf:resource="http://purl.org/dc/dcmitype/StillImage" />
        <dc:title>Antu icon Theme</dc:title>
      </cc:Work>
    </rdf:RDF>
  </metadata>
  <g
     inkscape:label="Capa 1"
     inkscape:groupmode="layer"
     id="layer1"
     transform="translate(0,-282.64999)">
    <g
       id="g5827"
       transform="translate(6.3749997,18)">
      <path
         id="rect827"
         d="M -1.3749994,265.64999 H 20.625 c 1.108,0 2,0.892 2,2 v 26 c 0,1.108 -0.892,2 -2,2 H -1.3749994 c -1.108,0 -2,-0.892 -2,-2 v -26 c 0,-1.108 0.892,-2 2,-2 z"
         style="opacity:1;fill:#145cd8;fill-opacity:1;stroke:none;stroke-width:1.99999988;stroke-linecap:round;stroke-linejoin:round;stroke-miterlimit:4;stroke-dasharray:none;stroke-opacity:1"
         inkscape:connector-curvature="0" />
      <path
         id="rect829"
         d="M -1.3749994,266.64999 H 20.625 c 0.554,0 1,0.446 1,1 v 26 c 0,0.554 -0.446,1 -1,1 H -1.3749994 c -0.554,0 -1,-0.446 -1,-1 v -26 c 0,-0.554 0.446,-1 1,-1 z"
         style="opacity:1;fill:url(#linearGradient837);fill-opacity:1;stroke:none;stroke-width:1.99999988;stroke-linecap:round;stroke-linejoin:round;stroke-miterlimit:4;stroke-dasharray:none;stroke-opacity:1"
         inkscape:connector-curvature="0" />
    </g>
    <g
       fill="#fafcff"
       id="g149"
       transform="translate(6.3749997,18)">
      <path
         id="path145-3"
         d="m 9.1250003,273.64999 c -4.154981,0 -7.5,3.345 -7.5,7.5 0,0.16824 0.0068,0.33458 0.01758,0.5 h -0.01758 v 0.66797 c -0.6250261,0.7725 -0.9999997,1.75644 -0.9999997,2.83203 0,2.493 2.0070087,4.5 4.4999997,4.5 h 0.5 v -3 h 2 a 1.0001,1.0001 0 0 0 0.949219,-0.68359 l 0.05078,-0.15235 1.050782,3.15235 a 1.0001,1.0001 0 0 0 1.8984367,0 l 0.771484,-2.31641 H 13.625 v 3 h 0.5 c 2.492992,0 4.5,-2.007 4.5,-4.5 0,-1.07559 -0.374973,-2.05953 -1,-2.83203 v -0.66797 h -0.01758 c 0.0108,-0.16542 0.01758,-0.33176 0.01758,-0.5 0,-4.155 -3.345019,-7.5 -7.5,-7.5 z m 0.5,2 c 3.0656697,0 5.5788717,2.27679 5.9511717,5.23828 -0.454957,-0.15394 -0.942928,-0.23828 -1.451172,-0.23828 h -0.5 v 4 h -2 a 1.0001,1.0001 0 0 0 -0.949218,0.68359 l -0.05078,0.15235 -1.0507807,-3.15235 a 1.0001,1.0001 0 0 0 -0.949221,-0.68359 1.0001,1.0001 0 0 0 -0.949219,0.68359 l -0.771484,2.31641 h -1.279297 v -4 h -0.5 c -0.508243,0 -0.996214,0.0843 -1.451172,0.23828 0.372301,-2.96149 2.885502,-5.23828 5.951172,-5.23828 z"
         style="fill:#145cd8;fill-opacity:1" />
      <path
         id="path145"
         d="M 11.125 264.64999 C 6.9700195 264.64999 3.6250003 267.99499 3.6250003 272.14999 C 3.6250003 272.31823 3.6317804 272.48457 3.6425784 272.64999 L 3.6250003 272.64999 L 3.6250003 273.31796 C 2.9999739 274.09046 2.6250003 275.0744 2.6250003 276.14999 C 2.6250003 278.64299 4.6320088 280.64999 7.1250003 280.64999 L 7.6250003 280.64999 L 7.6250003 277.64999 L 9.6250003 277.64999 A 1.0001 1.0001 0 0 0 10.574219 276.9664 L 10.625 276.81405 L 11.675782 279.9664 A 1.0001 1.0001 0 0 0 13.574219 279.9664 L 14.345703 277.64999 L 15.625 277.64999 L 15.625 280.64999 L 16.125 280.64999 C 18.617992 280.64999 20.625 278.64299 20.625 276.14999 C 20.625 275.0744 20.250027 274.09046 19.625 273.31796 L 19.625 272.64999 L 19.607422 272.64999 C 19.618222 272.48457 19.625 272.31823 19.625 272.14999 C 19.625 267.99499 16.279981 264.64999 12.125 264.64999 L 11.125 264.64999 z M 11.625 266.64999 C 14.69067 266.64999 17.203872 268.92678 17.576172 271.88827 C 17.121215 271.73433 16.633244 271.64999 16.125 271.64999 L 15.625 271.64999 L 15.625 275.64999 L 13.625 275.64999 A 1.0001 1.0001 0 0 0 12.675782 276.33358 L 12.625 276.48593 L 11.574219 273.33358 A 1.0001 1.0001 0 0 0 10.625 272.64999 A 1.0001 1.0001 0 0 0 9.6757815 273.33358 L 8.9042972 275.64999 L 7.6250003 275.64999 L 7.6250003 271.64999 L 7.1250003 271.64999 C 6.6167568 271.64999 6.128786 271.73429 5.6738284 271.88827 C 6.0461291 268.92678 8.5593304 266.64999 11.625 266.64999 z "
         transform="translate(-2,8)" />
    </g>
  </g>
</svg>
