<?xml version="1.0" encoding="UTF-8" standalone="no"?>
<!-- Created with Inkscape (http://www.inkscape.org/) -->

<svg
   width="32"
   height="32"
   viewBox="0 0 32 32"
   version="1.1"
   id="svg8"
   inkscape:version="1.2.2 (b0a8486541, 2022-12-01)"
   sodipodi:docname="text-x-rpm-spec.svg"
   xml:space="preserve"
   xmlns:inkscape="http://www.inkscape.org/namespaces/inkscape"
   xmlns:sodipodi="http://sodipodi.sourceforge.net/DTD/sodipodi-0.dtd"
   xmlns:xlink="http://www.w3.org/1999/xlink"
   xmlns="http://www.w3.org/2000/svg"
   xmlns:svg="http://www.w3.org/2000/svg"
   xmlns:rdf="http://www.w3.org/1999/02/22-rdf-syntax-ns#"
   xmlns:cc="http://creativecommons.org/ns#"
   xmlns:dc="http://purl.org/dc/elements/1.1/"><title
     id="title7895">Antu icon Theme</title><defs
     id="defs2"><linearGradient
       inkscape:collect="always"
       id="linearGradient4919"><stop
         style="stop-color:#f8dde3;stop-opacity:1;"
         offset="0"
         id="stop4915" /><stop
         style="stop-color:#fbebee;stop-opacity:1;"
         offset="1"
         id="stop4917" /></linearGradient><linearGradient
       inkscape:collect="always"
       id="linearGradient3485"><stop
         style="stop-color:#222222;stop-opacity:1;"
         offset="0"
         id="stop3481" /><stop
         style="stop-color:#2c2c2c;stop-opacity:1;"
         offset="1"
         id="stop3483" /></linearGradient><linearGradient
       inkscape:collect="always"
       id="linearGradient2787"><stop
         style="stop-color:#222222;stop-opacity:1;"
         offset="0"
         id="stop2783" /><stop
         style="stop-color:#2c2c2c;stop-opacity:1;"
         offset="1"
         id="stop2785" /></linearGradient><linearGradient
       inkscape:collect="always"
       id="linearGradient2088"><stop
         style="stop-color:#212121;stop-opacity:1;"
         offset="0"
         id="stop2084" /><stop
         style="stop-color:#2c2c2c;stop-opacity:1;"
         offset="1"
         id="stop2086" /></linearGradient><linearGradient
       gradientUnits="userSpaceOnUse"
       y2="289.59164"
       x2="4.2333336"
       y1="296.20624"
       x1="4.2333336"
       id="linearGradient837"
       xlink:href="#linearGradient4582"
       inkscape:collect="always"
       gradientTransform="matrix(3.7795275,0,0,3.7795275,-18,-793.49464)" /><linearGradient
       id="linearGradient4582"
       inkscape:collect="always"><stop
         id="stop4578"
         offset="0"
         style="stop-color:#fc393d;stop-opacity:1" /><stop
         id="stop4580"
         offset="1"
         style="stop-color:#fd5238;stop-opacity:1" /></linearGradient><linearGradient
       inkscape:collect="always"
       xlink:href="#linearGradient2088"
       id="linearGradient2090"
       x1="-2"
       y1="311.02499"
       x2="-2"
       y2="299.02499"
       gradientUnits="userSpaceOnUse" /><linearGradient
       inkscape:collect="always"
       xlink:href="#linearGradient2787"
       id="linearGradient2789"
       x1="-2"
       y1="323.02499"
       x2="-2"
       y2="318.02499"
       gradientUnits="userSpaceOnUse" /><linearGradient
       inkscape:collect="always"
       xlink:href="#linearGradient3485"
       id="linearGradient3487"
       x1="-2"
       y1="320.02499"
       x2="-2"
       y2="317.02499"
       gradientUnits="userSpaceOnUse" /><linearGradient
       inkscape:collect="always"
       xlink:href="#linearGradient4919"
       id="linearGradient4921"
       x1="-2"
       y1="325.02499"
       x2="-2"
       y2="315.02499"
       gradientUnits="userSpaceOnUse" /></defs><sodipodi:namedview
     id="base"
     pagecolor="#ffffff"
     bordercolor="#666666"
     borderopacity="1.0"
     inkscape:pageopacity="0.0"
     inkscape:pageshadow="2"
     inkscape:zoom="22.627417"
     inkscape:cx="31.643028"
     inkscape:cy="15.158602"
     inkscape:document-units="px"
     inkscape:current-layer="layer1"
     showgrid="true"
     units="px"
     inkscape:window-width="2510"
     inkscape:window-height="1411"
     inkscape:window-x="0"
     inkscape:window-y="0"
     inkscape:window-maximized="1"
     objecttolerance="10"
     gridtolerance="10"
     guidetolerance="10"
     inkscape:showpageshadow="2"
     inkscape:pagecheckerboard="0"
     inkscape:deskcolor="#d1d1d1"><inkscape:grid
       type="xygrid"
       id="grid7897"
       empspacing="4" /></sodipodi:namedview><metadata
     id="metadata5"><rdf:RDF><cc:Work
         rdf:about=""><dc:format>image/svg+xml</dc:format><dc:type
           rdf:resource="http://purl.org/dc/dcmitype/StillImage" /><dc:title>Antu icon Theme</dc:title></cc:Work></rdf:RDF></metadata><g
     inkscape:label="Capa 1"
     inkscape:groupmode="layer"
     id="layer1"
     transform="translate(0,-282.64999)"><g
       id="g3063"
       transform="translate(18,-14.374995)"><path
         inkscape:connector-curvature="0"
         style="opacity:1;fill:#b2262c;fill-opacity:1;stroke:none;stroke-width:1.99999988;stroke-linecap:round;stroke-linejoin:round;stroke-miterlimit:4;stroke-dasharray:none;stroke-opacity:1"
         d="M -13,298.02501 H 8.999999 c 1.108,0 2,0.89202 2,2.00001 v 26.00001 c 0,1.10797 -0.892,1.99998 -2,1.99998 H -13 c -1.108,0 -2,-0.89201 -2,-1.99998 v -26 c 0,-1.108 0.892,-2.00001 2,-2.00002 z"
         id="rect827" /><path
         inkscape:connector-curvature="0"
         style="opacity:1;fill:url(#linearGradient837);fill-opacity:1;stroke:none;stroke-width:1.99999988;stroke-linecap:round;stroke-linejoin:round;stroke-miterlimit:4;stroke-dasharray:none;stroke-opacity:1"
         d="M -13,299.02503 H 8.999999 c 0.554,0 1,0.44599 1,1 v 26 c 0,0.55401 -0.446,1 -1,1 H -13 c -0.554,0 -1,-0.44599 -1,-1 v -26 c 0,-0.554 0.446,-1 1,-1 z"
         id="rect829" /></g><g
       transform="translate(18,-14.37501)"
       id="g292"><path
         d="m -5,298.02499 v 1 10 c 0,1.66199 1.3380034,3 3,3 1.66199668,0 3,-1.33801 3,-3 v -10 -1 z"
         fill="#36404d"
         id="path254"
         style="fill:#010102;fill-opacity:1" /><path
         d="m -4,299.02499 v 10 c 0,1.10798 0.8920011,2 2,2 1.10799889,0 2,-0.89202 2,-2 v -10 z"
         fill="#4b6477"
         id="path256"
         style="fill:url(#linearGradient2090);fill-opacity:1" /><g
         fill="#eff0f3"
         id="g280"><path
           id="path258"
           d="m -2,299.02499 v 1 h 1 v -1 z m 0,1 h -1 v 1 h 1 z m 0,1 v 1 h 1 v -1 z m 0,1 h -1 v 1 h 1 z m 0,1 v 1 h 1 v -1 z m 0,1 h -1 v 1 h 1 z m 0,1 v 1 h 1 v -1 z m 0,1 h -1 v 1 h 1 z m 0,1 v 1 h 1 v -1 z m 0,1 h -1 v 1 h 1 z m 0,1 v 1 h 1 v -1 z"
           style="fill:#fefefe;fill-opacity:1" /></g><path
         style="fill:#b2262c;fill-opacity:1"
         d="m -2,315.02499 c 2.76142062,0 4.9999953,2.23858 5,5 -4.7e-6,2.76142 -2.23857938,5 -5,5 -2.7614206,0 -4.9999953,-2.23858 -5,-5 4.7e-6,-2.76142 2.2385794,-5 5,-5 z"
         id="path264" /><path
         style="fill:#b2262c;fill-opacity:1"
         d="m -2,314.02499 c -3.3137051,0 -5.9999953,2.68629 -6,6 4.7e-6,3.31371 2.6862949,6 6,6 3.3137051,0 5.9999953,-2.68629 6,-6 -4.7e-6,-3.31371 -2.6862949,-6 -6,-6 z"
         id="path282" /><path
         id="circle284"
         style="fill:url(#linearGradient4921);stroke-width:2.10819;stroke-linecap:square;stroke-miterlimit:1.8;fill-opacity:1"
         d="m 3,320.02499 a 5,5 0 0 1 -5,5 5,5 0 0 1 -5,-5 5,5 0 0 1 5,-5 5,5 0 0 1 5,5 z" /><path
         d="m -2,318.02499 -0.9394531,3.66601 a 1,1 0 0 0 -0.050781,0.19727 L -3,321.92538 h 0.00586 A 1,1 0 0 0 -3,322.02499 a 1,1 0 0 0 1,1 1,1 0 0 0 1,-1 1,1 0 0 0 -0.00391,-0.0996 H -1 l -0.011719,-0.043 v -0.004 a 1,1 0 0 0 -0.052734,-0.20703 z"
         fill="#36404d"
         stroke-linecap="square"
         stroke-miterlimit="1.8"
         stroke-width="2"
         id="path286"
         style="fill-opacity:1;fill:url(#linearGradient2789)" /><path
         d="m -2,316.02499 a 4,4 0 0 0 -4,4 h 1 a 3,3 0 0 1 3,-3 3,3 0 0 1 3,3 h 1 a 4,4 0 0 0 -4,-4 z"
         fill="#36404d"
         stroke-linecap="square"
         stroke-miterlimit="1.8"
         stroke-width="2"
         id="path288"
         style="fill-opacity:1;fill:url(#linearGradient3487)" /><path
         d="m -2,316.02499 v 1 a 3,3 0 0 1 3,3 h 1 a 4,4 0 0 0 -4,-4 z"
         fill="#dd4f66"
         stroke-linecap="square"
         stroke-miterlimit="1.8"
         stroke-width="2"
         id="path290"
         style="fill:#b2262c;fill-opacity:1" /></g></g></svg>
