<?xml version="1.0" encoding="UTF-8" standalone="no"?>
<svg
   height="32"
   viewBox="0 0 32 32"
   width="32"
   version="1.1"
   id="svg10"
   sodipodi:docname="application-vnd.appimage.svg"
   inkscape:version="1.2.2 (b0a8486541, 2022-12-01)"
   xml:space="preserve"
   xmlns:inkscape="http://www.inkscape.org/namespaces/inkscape"
   xmlns:sodipodi="http://sodipodi.sourceforge.net/DTD/sodipodi-0.dtd"
   xmlns:xlink="http://www.w3.org/1999/xlink"
   xmlns="http://www.w3.org/2000/svg"
   xmlns:svg="http://www.w3.org/2000/svg"><defs
     id="defs14"><linearGradient
       inkscape:collect="always"
       id="linearGradient961"><stop
         style="stop-color:#1684f3;stop-opacity:1;"
         offset="0"
         id="stop957" /><stop
         style="stop-color:#02b2fe;stop-opacity:1;"
         offset="1"
         id="stop959" /></linearGradient><style
       type="text/css"
       id="current-color-scheme">
      .ColorScheme-Text {
        color:#122036;
      }
      </style><linearGradient
       inkscape:collect="always"
       xlink:href="#linearGradient961"
       id="linearGradient963"
       x1="0"
       y1="303.64999"
       x2="0"
       y2="277.64999"
       gradientUnits="userSpaceOnUse" /><linearGradient
       y2="13"
       x2="16"
       y1="19"
       x1="16"
       gradientTransform="matrix(1.25,0,0,-1.25,-17,313.64999)"
       gradientUnits="userSpaceOnUse"
       id="linearGradient1208"
       xlink:href="#linearGradient1289"
       inkscape:collect="always" /><linearGradient
       inkscape:collect="always"
       id="linearGradient1289"><stop
         style="stop-color:#94a1a1;stop-opacity:1"
         offset="0"
         id="stop1285" /><stop
         style="stop-color:#fcfcfc;stop-opacity:1"
         offset="1"
         id="stop1287" /></linearGradient><linearGradient
       y2="291.64999"
       x2="16"
       y1="305.64999"
       x1="16"
       gradientUnits="userSpaceOnUse"
       id="linearGradient1213"
       xlink:href="#linearGradient4582"
       inkscape:collect="always"
       gradientTransform="translate(-13,-5)" /><linearGradient
       id="linearGradient4582"
       inkscape:collect="always"><stop
         id="stop4578"
         offset="0"
         style="stop-color:#e3e3e3;stop-opacity:1" /><stop
         id="stop4580"
         offset="1"
         style="stop-color:#fcfcfc;stop-opacity:1" /></linearGradient></defs><sodipodi:namedview
     id="namedview12"
     pagecolor="#ffffff"
     bordercolor="#000000"
     borderopacity="0.25"
     inkscape:showpageshadow="2"
     inkscape:pageopacity="0.0"
     inkscape:pagecheckerboard="0"
     inkscape:deskcolor="#d1d1d1"
     showgrid="true"
     inkscape:zoom="29.5"
     inkscape:cx="15.728814"
     inkscape:cy="12.169492"
     inkscape:window-width="1517"
     inkscape:window-height="1363"
     inkscape:window-x="0"
     inkscape:window-y="0"
     inkscape:window-maximized="0"
     inkscape:current-layer="svg10"><inkscape:grid
       type="xygrid"
       id="grid331" /></sodipodi:namedview><g
     transform="translate(16 -274.64999)"
     id="g8"><path
       style="fill:#1670d9;fill-opacity:0.98039216"
       d="m -11,275.64999 h 21.999999 c 1.108,0 2,0.892 2,2 v 26 c 0,1.108 -0.892,2 -2,2 H -11 c -1.108,0 -2,-0.892 -2,-2 v -26 c 0,-1.108 0.892,-2 2,-2 z"
       id="path2" /><path
       style="fill-opacity:1;fill:url(#linearGradient963)"
       d="m -11,276.64999 h 21.999999 c 0.554,0 1,0.446 1,1 v 26 c 0,0.554 -0.446,1 -1,1 H -11 c -0.554,0 -1,-0.446 -1,-1 v -26 c 0,-0.554 0.446,-1 1,-1 z"
       id="path4" /></g><g
     inkscape:label="Capa 1"
     id="layer1"
     transform="translate(0,-282.64999)"><path
       style="fill:#ffffff;fill-opacity:0.237082;stroke-width:3.77953"
       d="m 16,300.65001 h -4 v 3.99998 h 4 z"
       id="path1128" /><path
       style="fill:#ffffff;fill-opacity:0.237082;stroke-width:3.77953"
       d="m 16,296.64998 v 4.00003 h 4 v -4.00003 z"
       id="path1126" /><path
       style="fill:#ffffff;fill-opacity:0.237082;stroke-width:3.77953"
       d="m 12,296.64998 h 4 v -3.99999 h -4 z"
       id="path1124" /><path
       style="fill:#ffffff;fill-opacity:0.237082;stroke-width:3.77953"
       d="m 8,296.64998 v -3.99999 H 4 v 3.99999 z"
       id="path1122" /><path
       style="fill:#ffffff;fill-opacity:0.237082;stroke-width:3.77953"
       d="m 8,300.65001 h 4 v -4.00003 H 8 Z"
       id="path1120" /><path
       style="fill:#ffffff;fill-opacity:0.237082;stroke-width:3.77953"
       d="m 8,304.64999 v -3.99998 H 4 v 3.99998 z"
       id="path1118" /><path
       style="fill:#ffffff;fill-opacity:0.237082;stroke-width:3.77953"
       d="m 12,308.64998 v -3.99999 H 8 v 3.99999 z"
       id="path1114" /><path
       style="fill:#ffffff;fill-opacity:0.237082;stroke-width:3.77953"
       d="m 16,308.64998 h -4 v 4.00003 h 4 z"
       id="path1112" /><path
       style="fill:#ffffff;fill-opacity:0.237082;stroke-width:3.77953"
       d="m 20,308.64998 v -3.99999 h -4 v 3.99999 z"
       id="path1110" /><path
       style="fill:#ffffff;fill-opacity:0.237082;stroke-width:3.77953"
       d="m 24,308.64998 h -4 v 4.00003 h 4 z"
       id="path1108" /><path
       style="fill:#ffffff;fill-opacity:0.237082;stroke-width:3.77953"
       d="m 24,304.64999 v 0.99999 2.00001 0.99999 h 3 1 v -0.99999 -3 z"
       id="path1106" /><path
       style="fill:#ffffff;fill-opacity:0.237082;stroke-width:3.77953"
       d="m 24,300.65001 h -4 v 3.99998 h 4 z"
       id="path1104" /><path
       style="fill:#ffffff;fill-opacity:0.237082;stroke-width:3.77953"
       d="m 24,296.64998 v 4.00003 h 4 v -4.00003 z"
       id="path1102" /><path
       style="fill:#ffffff;fill-opacity:0.237082;stroke-width:3.77953"
       d="m 24,292.64999 h -4 v 3.99999 h 4 z"
       id="path1100" /><path
       style="fill:#ffffff;fill-opacity:0.237082;stroke-width:3.77953"
       d="m 24,288.65001 v 3.99998 h 4 v -3.99998 z"
       id="path1098" /><path
       style="fill:#ffffff;fill-opacity:0.237082;stroke-width:3.77953"
       d="m 20,288.65001 h 4 v -4.00003 h -4 z"
       id="path1096" /><path
       style="fill:#ffffff;fill-opacity:0.237082;stroke-width:3.77953"
       d="m 16,288.65001 v 3.99998 h 4 v -3.99998 z"
       id="path1094" /><path
       style="fill:#ffffff;fill-opacity:0.237082;stroke-width:3.77953"
       d="m 12,288.65002 h 4 v -4.00003 h -4 z"
       id="path1092" /><path
       style="fill:#ffffff;fill-opacity:0.237082;stroke-width:3.77953"
       d="m 8,288.65001 v 3.99998 h 4 v -3.99998 z"
       id="path1090" /><path
       style="fill:#ffffff;fill-opacity:0.237082;stroke-width:3.77953"
       d="m 5,284.64998 c -0.553947,0 -1,0.4461 -1,1.00003 v 1.99997 1.00003 h 1 2 1 v -1.00003 -1.99997 -1.00003 H 7 Z"
       id="path145" /><path
       style="fill:#ffffff;fill-opacity:0.237082;stroke-width:3.77953"
       d="m 3.999985,311.64998 c 0,0.55394 0.4461,1 1.00003,1 h 1.99997 1.00003 v -1 -2 -1 h -1.00003 -1.99997 -1.00003 v 1 z"
       id="path145-3" /></g><g
     id="g9832"
     transform="translate(28,-282.65001)" /><g
     id="layer1-6-3"
     inkscape:label="Capa 1"
     transform="translate(0,-281.64999)"
     style="fill:#1570d9;fill-opacity:0.980392"><g
       transform="translate(13,5)"
       id="g1660-5"
       style="fill:#1570d9;fill-opacity:0.980392"><path
         inkscape:connector-curvature="0"
         id="path1204-6"
         d="m 3,298.64999 c -2.769999,0 -5,-2.23 -5,-5 0,-2.77 2.230001,-5 5,-5 2.769999,0 5,2.23 5,5 0,2.77 -2.230001,5 -5,5 z m 0,-2 c 1.662,0 3,-1.338 3,-3 0,-1.662 -1.338,-3 -3,-3 -1.662,0 -3,1.338 -3,3 0,1.662 1.338,3 3,3 z"
         style="opacity:1;fill:#1570d9;fill-opacity:0.980392;stroke:none;stroke-width:2.5;stroke-linecap:round;stroke-linejoin:round;stroke-miterlimit:4;stroke-dasharray:none;stroke-dashoffset:0;stroke-opacity:1" /><path
         inkscape:connector-curvature="0"
         id="path825-2"
         d="m -1,285.64999 c -0.359147,-2.9e-4 -0.690953,0.19205 -0.869141,0.50391 l -3.9999996,7 c -0.175604,0.30741 -0.175604,0.68477 0,0.99218 l 3.9999996,7 c 0.178188,0.31186 0.509994,0.5042 0.869141,0.50391 h 8 c 0.359147,2.9e-4 0.690952,-0.19205 0.869141,-0.50391 l 4,-7 c 0.175604,-0.30741 0.175604,-0.68477 0,-0.99218 l -4,-7 C 7.690952,285.84204 7.359148,285.6497 7,285.64999 Z m 4,4 c 2.216,0 4,1.784 4,4 0,2.216 -1.784,4 -4,4 -2.216,0 -4,-1.784 -4,-4 0,-2.216 1.784,-4 4,-4 z"
         style="color:#122036;fill:#1570d9;fill-opacity:0.980392;fill-rule:evenodd;stroke:none" /></g></g><g
     id="layer1-6"
     inkscape:label="Capa 1"
     transform="translate(-2e-7,-282.64999)"><g
       transform="translate(13,5)"
       id="g1660"><path
         inkscape:connector-curvature="0"
         id="path1204"
         d="m 3,298.64999 c -2.769999,0 -5,-2.23 -5,-5 0,-2.77 2.230001,-5 5,-5 2.769999,0 5,2.23 5,5 0,2.77 -2.230001,5 -5,5 z m 0,-2 c 1.662,0 3,-1.338 3,-3 0,-1.662 -1.338,-3 -3,-3 -1.662,0 -3,1.338 -3,3 0,1.662 1.338,3 3,3 z"
         style="opacity:1;fill:url(#linearGradient1208);fill-opacity:1;stroke:none;stroke-width:2.5;stroke-linecap:round;stroke-linejoin:round;stroke-miterlimit:4;stroke-dasharray:none;stroke-dashoffset:0;stroke-opacity:1" /><path
         inkscape:connector-curvature="0"
         id="path825"
         d="m -1,285.64999 c -0.359147,-2.9e-4 -0.690953,0.19205 -0.869141,0.50391 l -3.9999996,7 c -0.175604,0.30741 -0.175604,0.68477 0,0.99218 l 3.9999996,7 c 0.178188,0.31186 0.509994,0.5042 0.869141,0.50391 h 8 c 0.359147,2.9e-4 0.690952,-0.19205 0.869141,-0.50391 l 4,-7 c 0.175604,-0.30741 0.175604,-0.68477 0,-0.99218 l -4,-7 C 7.690952,285.84204 7.359148,285.6497 7,285.64999 Z m 4,4 c 2.216,0 4,1.784 4,4 0,2.216 -1.784,4 -4,4 -2.216,0 -4,-1.784 -4,-4 0,-2.216 1.784,-4 4,-4 z"
         style="color:#122036;fill:url(#linearGradient1213);fill-opacity:1;fill-rule:evenodd;stroke:none" /></g></g></svg>
