<?xml version="1.0" encoding="UTF-8" standalone="no"?>
<!-- Created with Inkscape (http://www.inkscape.org/) -->

<svg
   width="32"
   height="32"
   viewBox="0 0 32 32"
   version="1.1"
   id="svg8"
   inkscape:version="1.2.2 (b0a8486541, 2022-12-01)"
   sodipodi:docname="audio-mp2.svg"
   xml:space="preserve"
   xmlns:inkscape="http://www.inkscape.org/namespaces/inkscape"
   xmlns:sodipodi="http://sodipodi.sourceforge.net/DTD/sodipodi-0.dtd"
   xmlns:xlink="http://www.w3.org/1999/xlink"
   xmlns="http://www.w3.org/2000/svg"
   xmlns:svg="http://www.w3.org/2000/svg"
   xmlns:rdf="http://www.w3.org/1999/02/22-rdf-syntax-ns#"
   xmlns:cc="http://creativecommons.org/ns#"
   xmlns:dc="http://purl.org/dc/elements/1.1/"><title
     id="title7895">Antu icon Theme</title><defs
     id="defs2"><style
       type="text/css"
       id="current-color-scheme">
      .ColorScheme-Text {
        color:#122036;
      }
      </style><style
       type="text/css"
       id="current-color-scheme-63">
      .ColorScheme-Text {
        color:#36404d;
      }
      </style><style
       type="text/css"
       id="current-color-scheme-67">
      .ColorScheme-Text {
        color:#122036;
      }
      </style><style
       type="text/css"
       id="current-color-scheme-7">
      .ColorScheme-Text {
        color:#122036;
      }
      </style><style
       type="text/css"
       id="current-color-scheme-5">
      .ColorScheme-Text {
        color:#122036;
      }
      </style><style
       type="text/css"
       id="current-color-scheme-6">
      .ColorScheme-Text {
        color:#122036;
      }
      </style><style
       type="text/css"
       id="current-color-scheme-1">
      .ColorScheme-Text {
        color:#122036;
      }
      </style><style
       id="current-color-scheme-10"
       type="text/css">
      .ColorScheme-Text {
        color:#122036;
      }
      </style><style
       id="current-color-scheme-5-7"
       type="text/css">
      .ColorScheme-Text {
        color:#122036;
      }
      </style><style
       id="current-color-scheme-1-2"
       type="text/css">
      .ColorScheme-Text {
        color:#122036;
      }
      </style><style
       type="text/css"
       id="current-color-scheme-10-9">
      .ColorScheme-Text {
        color:#122036;
      }
      </style><linearGradient
       inkscape:collect="always"
       xlink:href="#linearGradient1698"
       id="linearGradient1700"
       x1="3.999999"
       y1="308.64999"
       x2="3.999999"
       y2="280.64999"
       gradientUnits="userSpaceOnUse" /><linearGradient
       inkscape:collect="always"
       id="linearGradient1698"><stop
         style="stop-color:#5765b3;stop-opacity:1;"
         offset="0"
         id="stop1694" /><stop
         style="stop-color:#7885cb;stop-opacity:1;"
         offset="1"
         id="stop1696" /></linearGradient></defs><sodipodi:namedview
     id="base"
     pagecolor="#ffffff"
     bordercolor="#666666"
     borderopacity="1.0"
     inkscape:pageopacity="0.0"
     inkscape:pageshadow="2"
     inkscape:zoom="22.627417"
     inkscape:cx="10.230951"
     inkscape:cy="23.5113"
     inkscape:document-units="px"
     inkscape:current-layer="layer1"
     showgrid="true"
     units="px"
     inkscape:window-width="2560"
     inkscape:window-height="1363"
     inkscape:window-x="0"
     inkscape:window-y="0"
     inkscape:window-maximized="1"
     objecttolerance="10"
     gridtolerance="10"
     guidetolerance="10"
     inkscape:showpageshadow="2"
     inkscape:pagecheckerboard="0"
     inkscape:deskcolor="#d1d1d1"><inkscape:grid
       type="xygrid"
       id="grid7897"
       empspacing="4" /></sodipodi:namedview><metadata
     id="metadata5"><rdf:RDF><cc:Work
         rdf:about=""><dc:format>image/svg+xml</dc:format><dc:type
           rdf:resource="http://purl.org/dc/dcmitype/StillImage" /><dc:title>Antu icon Theme</dc:title></cc:Work></rdf:RDF></metadata><g
     inkscape:label="Capa 1"
     inkscape:groupmode="layer"
     id="layer1"
     transform="translate(0,-282.64999)"><g
       id="g31189"
       transform="translate(5e-7,282.64999)"><g
         id="g27288"><g
           id="g297"><g
             transform="translate(12,-278.64999)"
             id="g8-2"><path
               style="fill:#4a5599;fill-opacity:1"
               d="m -7,279.64999 h 21.999999 c 1.108,0 2,0.892 2,2 v 26 c 0,1.108 -0.892,2 -2,2 H -7 c -1.108,0 -2,-0.892 -2,-2 v -26 c 0,-1.108 0.892,-2 2,-2 z"
               id="path2-3" /><path
               style="fill:url(#linearGradient1700);fill-opacity:1"
               d="m -7,280.64999 h 21.999999 c 0.554,0 1,0.446 1,1 v 26 c 0,0.554 -0.446,1 -1,1 H -7 c -0.554,0 -1,-0.446 -1,-1 v -26 c 0,-0.554 0.446,-1 1,-1 z"
               id="path4-6" /></g><g
             id="g293"
             transform="translate(27.871471)" /></g></g></g><g
       transform="translate(46,-4.55627)"
       id="g8" /><g
       id="g5827"
       transform="translate(6.3749997,18)"><path
         style="opacity:1;fill:#4a5599;fill-opacity:1;stroke:none;stroke-width:1;stroke-opacity:1"
         d="m 4.6250006,272.64999 c -0.554,0 -1,0.446 -1,1 0,0.554 0.446,1 1,1 0.554,0 1,-0.446 1,-1 0,-0.554 -0.446,-1 -1,-1 z m 10.0000004,1 -5.0000004,2 v 3 1 2.5508 c -0.589552,-0.3417 -1.266971,-0.5508 -2,-0.5508 -2.216,0 -4,1.784 -4,4 0,2.216 1.784,4 4,4 2.216,0 4.0000004,-1.784 4.0000004,-4 v -5 -1.8008 l 3,-1.1992 z m -14.00000038,1 c -0.554,0 -1,0.446 -1,1 0,0.554 0.446,1 1,1 0.55399998,0 0.99999998,-0.446 0.99999998,-1 0,-0.554 -0.446,-1 -0.99999998,-1 z m 3.99999998,2 c -0.554,0 -1,0.446 -1,1 0,0.554 0.446,1 1,1 0.554,0 1,-0.446 1,-1 0,-0.554 -0.446,-1 -1,-1 z m -3.99999998,2 c -0.554,0 -1,0.446 -1,1 0,0.554 0.446,1 1,1 0.55399998,0 0.99999998,-0.446 0.99999998,-1 0,-0.554 -0.446,-1 -0.99999998,-1 z m 18.00000038,1 c -0.554,0 -1,0.446 -1,1 0,0.554 0.446,1 1,1 0.554,0 1,-0.446 1,-1 0,-0.554 -0.446,-1 -1,-1 z m -18.00000038,3 c -0.554,0 -1,0.446 -1,1 0,0.554 0.446,1 1,1 0.55399998,0 0.99999998,-0.446 0.99999998,-1 0,-0.554 -0.446,-1 -0.99999998,-1 z m 18.00000038,1 c -0.554,0 -1,0.446 -1,1 0,0.554 0.446,1 1,1 0.554,0 1,-0.446 1,-1 0,-0.554 -0.446,-1 -1,-1 z m -4,2 c -0.554,0 -1,0.446 -1,1 0,0.554 0.446,1 1,1 0.554,0 1,-0.446 1,-1 0,-0.554 -0.446,-1 -1,-1 z m 4,2 c -0.554,0 -1,0.446 -1,1 0,0.554 0.446,1 1,1 0.554,0 1,-0.446 1,-1 0,-0.554 -0.446,-1 -1,-1 z m -4,2 c -0.554,0 -1,0.446 -1,1 0,0.554 0.446,1 1,1 0.554,0 1,-0.446 1,-1 0,-0.554 -0.446,-1 -1,-1 z"
         id="rect4689-9-9-7"
         inkscape:connector-curvature="0" /><path
         style="opacity:1;fill:#e4e7f8;fill-opacity:1;stroke:none;stroke-width:1;stroke-opacity:1"
         d="m 4.6250006,271.64999 c -0.554,0 -1,0.446 -1,1 0,0.554 0.446,1 1,1 0.554,0 1,-0.446 1,-1 0,-0.554 -0.446,-1 -1,-1 z m 10.0000004,1 -5.0000004,2 v 3 1 2.5508 c -0.589552,-0.3417 -1.266971,-0.5508 -2,-0.5508 -2.216,0 -4,1.784 -4,4 0,2.216 1.784,4 4,4 2.216,0 4.0000004,-1.784 4.0000004,-4 v -5 -1.8008 l 3,-1.1992 z m -14.00000038,1 c -0.554,0 -1,0.446 -1,1 0,0.554 0.446,1 1,1 0.55399998,0 0.99999998,-0.446 0.99999998,-1 0,-0.554 -0.446,-1 -0.99999998,-1 z m 3.99999998,2 c -0.554,0 -1,0.446 -1,1 0,0.554 0.446,1 1,1 0.554,0 1,-0.446 1,-1 0,-0.554 -0.446,-1 -1,-1 z m -3.99999998,2 c -0.554,0 -1,0.446 -1,1 0,0.554 0.446,1 1,1 0.55399998,0 0.99999998,-0.446 0.99999998,-1 0,-0.554 -0.446,-1 -0.99999998,-1 z m 18.00000038,1 c -0.554,0 -1,0.446 -1,1 0,0.554 0.446,1 1,1 0.554,0 1,-0.446 1,-1 0,-0.554 -0.446,-1 -1,-1 z m -18.00000038,3 c -0.554,0 -1,0.446 -1,1 0,0.554 0.446,1 1,1 0.55399998,0 0.99999998,-0.446 0.99999998,-1 0,-0.554 -0.446,-1 -0.99999998,-1 z m 18.00000038,1 c -0.554,0 -1,0.446 -1,1 0,0.554 0.446,1 1,1 0.554,0 1,-0.446 1,-1 0,-0.554 -0.446,-1 -1,-1 z m -4,2 c -0.554,0 -1,0.446 -1,1 0,0.554 0.446,1 1,1 0.554,0 1,-0.446 1,-1 0,-0.554 -0.446,-1 -1,-1 z m 4,2 c -0.554,0 -1,0.446 -1,1 0,0.554 0.446,1 1,1 0.554,0 1,-0.446 1,-1 0,-0.554 -0.446,-1 -1,-1 z m -4,2 c -0.554,0 -1,0.446 -1,1 0,0.554 0.446,1 1,1 0.554,0 1,-0.446 1,-1 0,-0.554 -0.446,-1 -1,-1 z"
         id="rect4689-9-9"
         inkscape:connector-curvature="0" /></g></g></svg>
