<?xml version="1.0" encoding="UTF-8" standalone="no"?>
<svg
   id="svg1399"
   version="1.1"
   viewBox="0 0 8.4666662 8.4666664"
   height="32"
   width="32"
   sodipodi:docname="image-raw.svg"
   inkscape:version="1.2.2 (b0a8486541, 2022-12-01)"
   xml:space="preserve"
   xmlns:inkscape="http://www.inkscape.org/namespaces/inkscape"
   xmlns:sodipodi="http://sodipodi.sourceforge.net/DTD/sodipodi-0.dtd"
   xmlns:xlink="http://www.w3.org/1999/xlink"
   xmlns="http://www.w3.org/2000/svg"
   xmlns:svg="http://www.w3.org/2000/svg"
   xmlns:rdf="http://www.w3.org/1999/02/22-rdf-syntax-ns#"
   xmlns:cc="http://creativecommons.org/ns#"
   xmlns:dc="http://purl.org/dc/elements/1.1/"><sodipodi:namedview
     pagecolor="#ffffff"
     bordercolor="#666666"
     borderopacity="1"
     objecttolerance="10"
     gridtolerance="10"
     guidetolerance="10"
     inkscape:pageopacity="0"
     inkscape:pageshadow="2"
     inkscape:window-width="2560"
     inkscape:window-height="1363"
     id="namedview30"
     showgrid="true"
     inkscape:zoom="7.375"
     inkscape:cx="63.118644"
     inkscape:cy="24.271186"
     inkscape:window-x="0"
     inkscape:window-y="0"
     inkscape:window-maximized="1"
     inkscape:current-layer="g2395"
     inkscape:showpageshadow="2"
     inkscape:pagecheckerboard="0"
     inkscape:deskcolor="#d1d1d1"><inkscape:grid
       type="xygrid"
       id="grid840" /></sodipodi:namedview><defs
     id="defs1393"><linearGradient
       inkscape:collect="always"
       id="linearGradient1058"><stop
         style="stop-color:#d85a75;stop-opacity:1;"
         offset="0"
         id="stop1054" /><stop
         style="stop-color:#c62f4e;stop-opacity:1;"
         offset="1"
         id="stop1056" /></linearGradient><linearGradient
       gradientTransform="translate(-9.077593,5.9706421)"
       xlink:href="#linearGradient4846"
       id="linearGradient837"
       x1="4.2333336"
       y1="296.20624"
       x2="4.2333336"
       y2="289.59164"
       gradientUnits="userSpaceOnUse" /><linearGradient
       id="linearGradient4846"><stop
         id="stop4842"
         offset="0"
         style="stop-color:#313f4f;stop-opacity:1;" /><stop
         id="stop4844"
         offset="1"
         style="stop-color:#4b6477;stop-opacity:1;" /></linearGradient><style
       type="text/css"
       id="current-color-scheme">
      .ColorScheme-Text {
        color:#122036;
      }
      </style><style
       type="text/css"
       id="current-color-scheme-63">
      .ColorScheme-Text {
        color:#36404d;
      }
      </style><style
       type="text/css"
       id="current-color-scheme-67">
      .ColorScheme-Text {
        color:#122036;
      }
      </style><style
       type="text/css"
       id="current-color-scheme-7">
      .ColorScheme-Text {
        color:#122036;
      }
      </style><style
       type="text/css"
       id="current-color-scheme-5">
      .ColorScheme-Text {
        color:#122036;
      }
      </style><style
       type="text/css"
       id="current-color-scheme-6">
      .ColorScheme-Text {
        color:#122036;
      }
      </style><style
       type="text/css"
       id="current-color-scheme-1">
      .ColorScheme-Text {
        color:#122036;
      }
      </style><style
       id="current-color-scheme-10"
       type="text/css">
      .ColorScheme-Text {
        color:#122036;
      }
      </style><style
       id="current-color-scheme-5-7"
       type="text/css">
      .ColorScheme-Text {
        color:#122036;
      }
      </style><style
       id="current-color-scheme-1-2"
       type="text/css">
      .ColorScheme-Text {
        color:#122036;
      }
      </style><style
       type="text/css"
       id="current-color-scheme-10-9">
      .ColorScheme-Text {
        color:#122036;
      }
      </style><linearGradient
       inkscape:collect="always"
       xlink:href="#linearGradient1058"
       id="linearGradient1060"
       x1="-4.3150935"
       y1="300.06021"
       x2="-4.3150935"
       y2="295.82687"
       gradientUnits="userSpaceOnUse" /></defs><metadata
     id="metadata1396"><rdf:RDF><cc:Work
         rdf:about=""><dc:format>image/svg+xml</dc:format><dc:type
           rdf:resource="http://purl.org/dc/dcmitype/StillImage" /></cc:Work></rdf:RDF></metadata><g
     transform="translate(0,-288.53338)"
     id="layer1"><g
       transform="translate(9.0775932,-5.9705869)"
       id="g2395"><path
         style="opacity:1;fill:#36404d;fill-opacity:1;stroke:none;stroke-width:0.52916664;stroke-linecap:round;stroke-linejoin:round;stroke-miterlimit:4;stroke-dasharray:none;stroke-opacity:1"
         d="m -7.7546764,294.76855 h 5.8208328 c 0.2931583,0 0.5291666,0.23601 0.5291666,0.52917 v 6.87916 c 0,0.29316 -0.2360083,0.52917 -0.5291666,0.52917 h -5.8208328 c -0.2931583,0 -0.5291667,-0.23601 -0.5291667,-0.52917 v -6.87916 c 0,-0.29316 0.2360084,-0.52917 0.5291667,-0.52917 z"
         id="rect827" /><path
         style="opacity:1;fill:url(#linearGradient837);fill-opacity:1;stroke:none;stroke-width:0.52916664;stroke-linecap:round;stroke-linejoin:round;stroke-miterlimit:4;stroke-dasharray:none;stroke-opacity:1"
         d="m -7.7546764,295.03313 h 5.8208328 c 0.1465791,0 0.2645833,0.11801 0.2645833,0.26459 v 6.87916 c 0,0.14658 -0.1180042,0.26459 -0.2645833,0.26459 h -5.8208328 c -0.1465792,0 -0.2645833,-0.11801 -0.2645833,-0.26459 v -6.87916 c 0,-0.14658 0.1180041,-0.26459 0.2645833,-0.26459 z"
         id="rect829" /><g
         id="g171"><path
           style="fill-opacity:1;fill:url(#linearGradient1060)"
           d="m -7.4900934,295.5623 v 6.35 h 5.2916664 v -6.35 z"
           id="path159" /><path
           style="fill-opacity:1;fill:#e5b0c3"
           d="m -2.1984268,301.9123 v -1.32292 l -1.3229167,-1.32292 -1.147521,1.1066 1.4121043,1.53924 z"
           id="path161" /><path
           d="m -7.4900933,301.9123 v -1.32292 l 1.8520833,-1.85208 2.9104167,3.175 z"
           id="path163"
           style="fill:#d27292;fill-opacity:1" /><path
           style="fill-opacity:1;fill:#e5b0c3"
           d="m -7.4900933,300.58938 1.8520833,-1.85208 1.3229167,3.175 h -3.175 z"
           id="path165" /><path
           style="fill:#e5b0c3;fill-opacity:1"
           d="m 9.332687,297.1541 a 1.0583333,1.0583333 0 0 1 0.931209,1.04955 1.0583333,1.0583333 0 0 1 -1.0583331,1.05834 1.0583333,1.0583333 0 0 1 -0.9208741,-0.53795 1.0583333,1.0583333 0 0 0 0.05219,0.006 1.0583333,1.0583333 0 0 0 0.07493,0.003 1.0583333,1.0583333 0 0 0 0.10542,-0.005 1.0583333,1.0583333 0 0 0 0.104903,-0.016 1.0583333,1.0583333 0 0 0 0.10232,-0.0258 1.0583333,1.0583333 0 0 0 0.09973,-0.0367 1.0583333,1.0583333 0 0 0 0.09509,-0.046 1.0583333,1.0583333 0 0 0 0.08992,-0.0553 1.0583333,1.0583333 0 0 0 0.08423,-0.0641 1.0583333,1.0583333 0 0 0 0.07752,-0.0718 1.0583333,1.0583333 0 0 0 0.069763,-0.0796 1.0583333,1.0583333 0 0 0 0.061495,-0.0858 1.0583333,1.0583333 0 0 0 0.05271,-0.092 1.0583333,1.0583333 0 0 0 0.043408,-0.0966 1.0583333,1.0583333 0 0 0 0.03307,-0.10026 1.0583333,1.0583333 0 0 0 0.02325,-0.10335 1.0583333,1.0583333 0 0 0 0.01292,-0.1049 1.0583333,1.0583333 0 0 0 0.0026,-0.0749 1.0583333,1.0583333 0 0 0 -0.0052,-0.10542 1.0583333,1.0583333 0 0 0 -0.01602,-0.10491 1.0583333,1.0583333 0 0 0 -0.02584,-0.10231 1.0583333,1.0583333 0 0 0 -0.03669,-0.0997 1.0583333,1.0583333 0 0 0 -0.045992,-0.0951 1.0583333,1.0583333 0 0 0 -0.00775,-0.0129 z"
           transform="translate(-13.256073,-0.789265)"
           id="path169" /></g><path
         style="fill:#000000;fill-opacity:0.20171676;stroke:none;stroke-width:0.21166666;stroke-linecap:round;stroke-linejoin:round;stroke-miterlimit:4;stroke-dasharray:none;stroke-opacity:1"
         d="m -7.4900934,295.5623 v 6.35 h 5.2916664 v -6.35 z m 0.2645833,0.26458 h 4.7624998 v 5.82084 h -4.7624998 z"
         id="rect6732-8" /></g></g></svg>
