<?xml version="1.0" encoding="UTF-8" standalone="no"?>
<!-- Created with Inkscape (http://www.inkscape.org/) -->

<svg
   width="32"
   height="32"
   viewBox="0 0 32 32"
   version="1.1"
   id="svg8"
   inkscape:version="1.2.2 (b0a8486541, 2022-12-01)"
   sodipodi:docname="application-vnd.oasis.opendocument.presentation-template.svg"
   xmlns:inkscape="http://www.inkscape.org/namespaces/inkscape"
   xmlns:sodipodi="http://sodipodi.sourceforge.net/DTD/sodipodi-0.dtd"
   xmlns:xlink="http://www.w3.org/1999/xlink"
   xmlns="http://www.w3.org/2000/svg"
   xmlns:svg="http://www.w3.org/2000/svg"
   xmlns:rdf="http://www.w3.org/1999/02/22-rdf-syntax-ns#"
   xmlns:cc="http://creativecommons.org/ns#"
   xmlns:dc="http://purl.org/dc/elements/1.1/">
  <title
     id="title7895">Antu icon Theme</title>
  <defs
     id="defs2">
    <linearGradient
       gradientUnits="userSpaceOnUse"
       y2="289.59164"
       x2="4.2333336"
       y1="296.20624"
       x1="4.2333336"
       id="linearGradient837"
       xlink:href="#linearGradient6408"
       inkscape:collect="always"
       gradientTransform="matrix(3.7795275,0,0,3.7795275,10e-7,-807.86971)" />
    <linearGradient
       id="linearGradient6408"
       inkscape:collect="always">
      <stop
         id="stop6404"
         offset="0"
         style="stop-color:#f34242;stop-opacity:1" />
      <stop
         id="stop6406"
         offset="1"
         style="stop-color:#ff6767;stop-opacity:1" />
    </linearGradient>
  </defs>
  <sodipodi:namedview
     id="base"
     pagecolor="#ffffff"
     bordercolor="#666666"
     borderopacity="1.0"
     inkscape:pageopacity="0.0"
     inkscape:pageshadow="2"
     inkscape:zoom="32"
     inkscape:cx="14.171875"
     inkscape:cy="14.0625"
     inkscape:document-units="px"
     inkscape:current-layer="layer1"
     showgrid="true"
     units="px"
     inkscape:window-width="2560"
     inkscape:window-height="1363"
     inkscape:window-x="0"
     inkscape:window-y="0"
     inkscape:window-maximized="1"
     objecttolerance="10"
     gridtolerance="10"
     guidetolerance="10"
     inkscape:showpageshadow="2"
     inkscape:pagecheckerboard="0"
     inkscape:deskcolor="#d1d1d1">
    <inkscape:grid
       type="xygrid"
       id="grid7897"
       empspacing="4" />
  </sodipodi:namedview>
  <metadata
     id="metadata5">
    <rdf:RDF>
      <cc:Work
         rdf:about="">
        <dc:format>image/svg+xml</dc:format>
        <dc:type
           rdf:resource="http://purl.org/dc/dcmitype/StillImage" />
        <dc:title>Antu icon Theme</dc:title>
      </cc:Work>
    </rdf:RDF>
  </metadata>
  <g
     inkscape:label="Capa 1"
     inkscape:groupmode="layer"
     id="layer1"
     transform="translate(0,-282.64999)">
    <path
       inkscape:connector-curvature="0"
       style="fill:#b52d2d;fill-opacity:1;stroke:none;stroke-width:2;stroke-linecap:round;stroke-linejoin:round;stroke-miterlimit:4;stroke-dasharray:none;stroke-opacity:1"
       d="M 5.000001,283.64999 H 27 c 1.108,0 2,0.892 2,2 v 26 c 0,1.108 -0.892,2 -2,2 H 5.000001 c -1.108,0 -2,-0.892 -2,-2 v -26 c 0,-1.108 0.892,-2 2,-2 z"
       id="rect827" />
    <path
       inkscape:connector-curvature="0"
       style="fill:url(#linearGradient837);fill-opacity:1;stroke:none;stroke-width:2;stroke-linecap:round;stroke-linejoin:round;stroke-miterlimit:4;stroke-dasharray:none;stroke-opacity:1"
       d="M 5.000001,284.64999 H 27 c 0.554,0 1,0.446 1,1 v 26 c 0,0.554 -0.446,1 -1,1 H 5.000001 c -0.554,0 -1,-0.446 -1,-1 v -26 c 0,-0.554 0.446,-1 1,-1 z"
       id="rect829" />
    <g
       id="g847"
       transform="translate(46,-4.55627)"
       style="fill:#ffffff;fill-opacity:0.240122">
      <path
         style="fill:#ffffff;fill-opacity:0.240122;stroke-width:3.77953"
         d="m -30,305.20626 h -4 v 4 h 4 z"
         id="path2706" />
      <path
         style="fill:#ffffff;fill-opacity:0.240122;stroke-width:3.77953"
         d="m -30,301.20626 v 4 h 4 v -4 z"
         id="path2704" />
      <path
         style="fill:#ffffff;fill-opacity:0.240122;stroke-width:3.77953"
         d="m -34,301.20626 h 4 v -4 h -4 z"
         id="path2702" />
      <path
         style="fill:#ffffff;fill-opacity:0.240122;stroke-width:3.77953"
         d="m -38,301.20626 v -4 h -4 v 4 z"
         id="path2700" />
      <path
         style="fill:#ffffff;fill-opacity:0.240122;stroke-width:3.77953"
         d="m -38,305.20626 h 4 v -4 h -4 z"
         id="path2698" />
      <path
         style="fill:#ffffff;fill-opacity:0.240122;stroke-width:3.77953"
         d="m -38,309.20626 v -4 h -4 v 4 z"
         id="path2696" />
      <path
         style="fill:#ffffff;fill-opacity:0.240122;stroke-width:3.77953"
         d="m -38,313.20626 h -1 -2 -1 v 1 2 c 0,0.55394 0.446071,1 1,1 h 2 1 v -1 -2 z"
         id="path2694" />
      <path
         style="fill:#ffffff;fill-opacity:0.240122;stroke-width:3.77953"
         d="m -34,313.20626 v -4 h -4 v 4 z"
         id="path2692" />
      <path
         style="fill:#ffffff;fill-opacity:0.240122;stroke-width:3.77953"
         d="m -30,313.20626 h -4 v 4 h 4 z"
         id="path2690" />
      <path
         style="fill:#ffffff;fill-opacity:0.240122;stroke-width:3.77953"
         d="m -26,313.20626 v -4 h -4 v 4 z"
         id="path2688" />
      <path
         style="fill:#ffffff;fill-opacity:0.240122;stroke-width:3.77953"
         d="m -22,313.20626 h -4 v 4 h 4 z"
         id="path2686" />
      <path
         style="fill:#ffffff;fill-opacity:0.240122;stroke-width:3.77953"
         d="m -22,309.20626 v 1 2 1 h 3 1 v -1 -3 z"
         id="path2684" />
      <path
         style="fill:#ffffff;fill-opacity:0.240122;stroke-width:3.77953"
         d="m -22,305.20626 h -4 v 4 h 4 z"
         id="path2682" />
      <path
         style="fill:#ffffff;fill-opacity:0.240122;stroke-width:3.77953"
         d="m -22,301.20626 v 4 h 4 v -4 z"
         id="path2680" />
      <path
         style="fill:#ffffff;fill-opacity:0.240122;stroke-width:3.77953"
         d="m -22,297.20626 h -4 v 4 h 4 z"
         id="path2678" />
      <path
         style="fill:#ffffff;fill-opacity:0.240122;stroke-width:3.77953"
         d="m -22,293.20626 v 4 h 4 v -4 z"
         id="path2676" />
      <path
         style="fill:#ffffff;fill-opacity:0.240122;stroke-width:3.77953"
         d="m -26,293.20626 h 4 v -4 h -4 z"
         id="path2674" />
      <path
         style="fill:#ffffff;fill-opacity:0.240122;stroke-width:3.77953"
         d="m -30,293.20626 v 4 h 4 v -4 z"
         id="path2672" />
      <path
         style="fill:#ffffff;fill-opacity:0.240122;stroke-width:3.77953"
         d="m -34,293.20626 h 4 v -4 h -4 z"
         id="path2670" />
      <path
         style="fill:#ffffff;fill-opacity:0.240122;stroke-width:3.77953"
         d="m -38,293.20626 v 4 h 4 v -4 z"
         id="path2668" />
      <path
         style="fill:#ffffff;fill-opacity:0.240122;stroke-width:3.77953"
         d="m -41,289.20626 c -0.553946,0 -1,0.44607 -1,1 v 2 1 h 1 2 1 v -1 -2 -1 h -1 z"
         id="path1128" />
    </g>
    <path
       style="opacity:0.98;fill:#b52d2d;fill-opacity:1;stroke:none;stroke-width:1.77778;stroke-linecap:square;stroke-linejoin:miter;stroke-miterlimit:4;stroke-dasharray:none;stroke-opacity:1;paint-order:stroke markers fill"
       d="m 13.000001,294.64999 v 4 h 4 c 0,-2.20914 -1.790861,-4 -4,-4 z m -1,1 c -1.617649,0 -3.076056,0.97432 -3.695313,2.46875 -0.619196,1.49478 -0.276928,3.21537 0.867188,4.35937 1.14401,1.14412 2.864599,1.48639 4.359375,0.86719 1.494426,-0.61925 2.468753,-2.07766 2.46875,-3.69531 h -4 z m 6,0 v 2 h 6 v -2 z m 2,3 v 2 h 4 v -2 z m -3,3 v 2 h 7 v -2 z"
       id="path2316-3-4-0"
       inkscape:connector-curvature="0"
       sodipodi:nodetypes="cccccccccccccccccccccccccc" />
    <path
       style="opacity:0.98;fill:#fbf8f8;fill-opacity:1;stroke:none;stroke-width:1.77778;stroke-linecap:square;stroke-linejoin:miter;stroke-miterlimit:4;stroke-dasharray:none;stroke-opacity:1;paint-order:stroke markers fill"
       d="m 13.000001,293.64999 v 4 h 4 c 0,-2.20914 -1.790861,-4 -4,-4 z m -1,1 c -1.617649,0 -3.076056,0.97432 -3.695313,2.46875 -0.619196,1.49478 -0.276928,3.21537 0.867188,4.35937 1.14401,1.14412 2.864599,1.48639 4.359375,0.86719 1.494426,-0.61925 2.468753,-2.07766 2.46875,-3.69531 h -4 z m 6,0 v 2 h 6 v -2 z m 2,3 v 2 h 4 v -2 z m -3,3 v 2 h 7 v -2 z"
       id="path2316-3-4"
       inkscape:connector-curvature="0"
       sodipodi:nodetypes="cccccccccccccccccccccccccc" />
  </g>
</svg>
