<?xml version="1.0" encoding="UTF-8" standalone="no"?>
<!-- Created with Inkscape (http://www.inkscape.org/) -->

<svg
   width="32"
   height="32"
   viewBox="0 0 32 32"
   version="1.1"
   id="svg8"
   inkscape:version="1.2.2 (b0a8486541, 2022-12-01)"
   sodipodi:docname="message-partial.svg"
   xml:space="preserve"
   xmlns:inkscape="http://www.inkscape.org/namespaces/inkscape"
   xmlns:sodipodi="http://sodipodi.sourceforge.net/DTD/sodipodi-0.dtd"
   xmlns:xlink="http://www.w3.org/1999/xlink"
   xmlns="http://www.w3.org/2000/svg"
   xmlns:svg="http://www.w3.org/2000/svg"
   xmlns:rdf="http://www.w3.org/1999/02/22-rdf-syntax-ns#"
   xmlns:cc="http://creativecommons.org/ns#"
   xmlns:dc="http://purl.org/dc/elements/1.1/"><title
     id="title7895">Antu icon Theme</title><defs
     id="defs2"><linearGradient
       inkscape:collect="always"
       id="linearGradient7712"><stop
         style="stop-color:#d4e6e6;stop-opacity:1;"
         offset="0"
         id="stop7708" /><stop
         style="stop-color:#f7f9f9;stop-opacity:1;"
         offset="1"
         id="stop7710" /></linearGradient><style
       id="current-color-scheme"
       type="text/css">
      .ColorScheme-Text {
        color:#122036;
      }
      </style><style
       type="text/css"
       id="current-color-scheme-5">
      .ColorScheme-Text {
        color:#122036;
      }
      </style><style
       type="text/css"
       id="current-color-scheme-2">
      .ColorScheme-Text {
        color:#122036;
      }
      </style><style
       type="text/css"
       id="current-color-scheme-1">
      .ColorScheme-Text {
        color:#122036;
      }
      </style><style
       id="current-color-scheme-10"
       type="text/css">
      .ColorScheme-Text {
        color:#122036;
      }
      </style><style
       id="current-color-scheme-20"
       type="text/css">
      .ColorScheme-Text {
        color:#122036;
      }
      </style><style
       type="text/css"
       id="current-color-scheme-1-2">
      .ColorScheme-Text {
        color:#122036;
      }
      </style><style
       type="text/css"
       id="current-color-scheme-9">
      .ColorScheme-Text {
        color:#122036;
      }
      </style><style
       id="current-color-scheme-53"
       type="text/css">
      .ColorScheme-Text {
        color:#122036;
      }
      </style><style
       type="text/css"
       id="current-color-scheme-5-3">
      .ColorScheme-Text {
        color:#122036;
      }
      </style><style
       type="text/css"
       id="current-color-scheme-2-7">
      .ColorScheme-Text {
        color:#122036;
      }
      </style><style
       type="text/css"
       id="current-color-scheme-1-1">
      .ColorScheme-Text {
        color:#122036;
      }
      </style><style
       id="current-color-scheme-10-5"
       type="text/css">
      .ColorScheme-Text {
        color:#122036;
      }
      </style><style
       id="current-color-scheme-535"
       type="text/css">
      .ColorScheme-Text {
        color:#122036;
      }
      </style><style
       id="current-color-scheme-0"
       type="text/css">
      .ColorScheme-Text {
        color:#122036;
      }
      </style><style
       id="current-color-scheme-5356"
       type="text/css">
      .ColorScheme-Text {
        color:#122036;
      }
      </style><style
       type="text/css"
       id="current-color-scheme-93">
      .ColorScheme-Text {
        color:#36404d;
      }
      </style><style
       id="current-color-scheme-26"
       type="text/css">
      .ColorScheme-Text {
        color:#122036;
      }
      </style><style
       type="text/css"
       id="current-color-scheme-1-18">
      .ColorScheme-Text {
        color:#122036;
      }
      </style><style
       type="text/css"
       id="current-color-scheme-6">
      .ColorScheme-Text {
        color:#36404d;
      }
      </style><style
       type="text/css"
       id="current-color-scheme-7">
      .ColorScheme-Text {
        color:#36404d;
      }
      </style><style
       type="text/css"
       id="current-color-scheme-5-7">
      .ColorScheme-Text {
        color:#122036;
      }
      </style><style
       id="current-color-scheme-1-3"
       type="text/css">
      .ColorScheme-Text {
        color:#122036;
      }
      </style><style
       type="text/css"
       id="current-color-scheme-2-9">
      .ColorScheme-Text {
        color:#36404d;
      }
      </style><linearGradient
       inkscape:collect="always"
       xlink:href="#linearGradient7712"
       id="linearGradient7714"
       x1="40"
       y1="343.64999"
       x2="40"
       y2="317.64999"
       gradientUnits="userSpaceOnUse" /><style
       id="current-color-scheme-535629"
       type="text/css">
      .ColorScheme-Text {
        color:#122036;
      }
      </style><style
       type="text/css"
       id="current-color-scheme-5-12">
      .ColorScheme-Text {
        color:#122036;
      }
      </style><style
       type="text/css"
       id="current-color-scheme-53-7">
      .ColorScheme-Text {
        color:#122036;
      }
      </style><style
       id="current-color-scheme-9-0"
       type="text/css">
      .ColorScheme-Text {
        color:#122036;
      }
      </style><style
       id="current-color-scheme-6-9"
       type="text/css">
      .ColorScheme-Text {
        color:#122036;
      }
      </style><style
       id="current-color-scheme-3"
       type="text/css">
      .ColorScheme-Text {
        color:#122036;
      }
      </style><style
       type="text/css"
       id="current-color-scheme-53562">
      .ColorScheme-Text {
        color:#122036;
      }
      </style><style
       id="current-color-scheme-5356-3"
       type="text/css">
      .ColorScheme-Text {
        color:#122036;
      }
      </style><style
       type="text/css"
       id="current-color-scheme-5-1">
      .ColorScheme-Text {
        color:#122036;
      }
      </style><style
       type="text/css"
       id="current-color-scheme-53-2">
      .ColorScheme-Text {
        color:#122036;
      }
      </style><style
       type="text/css"
       id="current-color-scheme-535-6">
      .ColorScheme-Text {
        color:#122036;
      }
      </style><style
       id="current-color-scheme-5-6"
       type="text/css">
      .ColorScheme-Text {
        color:#122036;
      }
      </style><style
       type="text/css"
       id="current-color-scheme-70">
      .ColorScheme-Text {
        color:#122036;
      }
      </style><style
       id="current-color-scheme-5-9"
       type="text/css">
      .ColorScheme-Text {
        color:#122036;
      }
      </style><style
       id="current-color-scheme-2-0"
       type="text/css">
      .ColorScheme-Text {
        color:#122036;
      }
      </style><style
       id="current-color-scheme-1-6"
       type="text/css">
      .ColorScheme-Text {
        color:#122036;
      }
      </style><style
       type="text/css"
       id="current-color-scheme-10-26">
      .ColorScheme-Text {
        color:#122036;
      }
      </style><style
       id="current-color-scheme-0-1"
       type="text/css">
      .ColorScheme-Text {
        color:#122036;
      }
      </style><style
       id="current-color-scheme-26-8"
       type="text/css">
      .ColorScheme-Text {
        color:#122036;
      }
      </style><style
       id="current-color-scheme-7-7"
       type="text/css">
      .ColorScheme-Text {
        color:#122036;
      }
      </style><style
       id="current-color-scheme-6-6"
       type="text/css">
      .ColorScheme-Text {
        color:#122036;
      }
      </style><style
       id="current-color-scheme-09"
       type="text/css">
      .ColorScheme-Text {
        color:#122036;
      }
      </style><style
       type="text/css"
       id="current-color-scheme-53562-3">
      .ColorScheme-Text {
        color:#122036;
      }
      </style><style
       id="current-color-scheme-5356-6"
       type="text/css">
      .ColorScheme-Text {
        color:#122036;
      }
      </style><style
       type="text/css"
       id="current-color-scheme-5-0">
      .ColorScheme-Text {
        color:#122036;
      }
      </style><style
       type="text/css"
       id="current-color-scheme-53-6">
      .ColorScheme-Text {
        color:#122036;
      }
      </style><style
       type="text/css"
       id="current-color-scheme-535-2">
      .ColorScheme-Text {
        color:#122036;
      }
      </style><style
       id="current-color-scheme-5-6-6"
       type="text/css">
      .ColorScheme-Text {
        color:#122036;
      }
      </style><style
       type="text/css"
       id="current-color-scheme-70-1">
      .ColorScheme-Text {
        color:#122036;
      }
      </style><style
       id="current-color-scheme-5-9-8"
       type="text/css">
      .ColorScheme-Text {
        color:#122036;
      }
      </style><style
       id="current-color-scheme-2-7-9"
       type="text/css">
      .ColorScheme-Text {
        color:#122036;
      }
      </style><style
       id="current-color-scheme-1-9"
       type="text/css">
      .ColorScheme-Text {
        color:#122036;
      }
      </style><style
       type="text/css"
       id="current-color-scheme-10-2">
      .ColorScheme-Text {
        color:#122036;
      }
      </style><style
       id="current-color-scheme-0-0"
       type="text/css">
      .ColorScheme-Text {
        color:#122036;
      }
      </style><style
       id="current-color-scheme-26-2"
       type="text/css">
      .ColorScheme-Text {
        color:#122036;
      }
      </style><style
       id="current-color-scheme-7-3"
       type="text/css">
      .ColorScheme-Text {
        color:#122036;
      }
      </style><style
       id="current-color-scheme-6-7"
       type="text/css">
      .ColorScheme-Text {
        color:#122036;
      }
      </style><linearGradient
       inkscape:collect="always"
       xlink:href="#linearGradient1790"
       id="linearGradient1792"
       x1="-4.7440348"
       y1="296.91577"
       x2="-4.7440348"
       y2="293.21161"
       gradientUnits="userSpaceOnUse"
       gradientTransform="matrix(3.7795276,0,0,3.7795276,57.93021,-784.55136)" /><linearGradient
       inkscape:collect="always"
       id="linearGradient1790"><stop
         style="stop-color:#fc393d;stop-opacity:1;"
         offset="0"
         id="stop1786" /><stop
         style="stop-color:#fd5238;stop-opacity:1;"
         offset="1"
         id="stop1788" /></linearGradient></defs><sodipodi:namedview
     id="base"
     pagecolor="#ffffff"
     bordercolor="#666666"
     borderopacity="1.0"
     inkscape:pageopacity="0.0"
     inkscape:pageshadow="2"
     inkscape:zoom="31.678384"
     inkscape:cx="35.339555"
     inkscape:cy="16.730652"
     inkscape:document-units="px"
     inkscape:current-layer="g872"
     showgrid="true"
     units="px"
     inkscape:window-width="2560"
     inkscape:window-height="1363"
     inkscape:window-x="0"
     inkscape:window-y="0"
     inkscape:window-maximized="1"
     objecttolerance="10"
     gridtolerance="10"
     guidetolerance="10"
     inkscape:showpageshadow="2"
     inkscape:pagecheckerboard="0"
     inkscape:deskcolor="#d1d1d1"
     showguides="false"><inkscape:grid
       type="xygrid"
       id="grid7897"
       empspacing="4" /></sodipodi:namedview><metadata
     id="metadata5"><rdf:RDF><cc:Work
         rdf:about=""><dc:format>image/svg+xml</dc:format><dc:type
           rdf:resource="http://purl.org/dc/dcmitype/StillImage" /><dc:title>Antu icon Theme</dc:title></cc:Work></rdf:RDF></metadata><g
     inkscape:label="Capa 1"
     inkscape:groupmode="layer"
     id="layer1"
     transform="translate(0,-282.64999)"><g
       id="g872"
       transform="translate(-24,-32)"><path
         id="path5683"
         style="fill:#90a4ae;fill-opacity:1;stroke:#90a4ae;stroke-width:2;stroke-linecap:round;stroke-linejoin:round;stroke-miterlimit:1.8;stroke-opacity:1;paint-order:fill markers stroke;stop-color:#000000"
         d="M 31.091797,317.64999 H 29 c -0.553997,0 -1,0.446 -1,1 v 1.0918 c 0.02756,0.01 0.0572,0.0141 0.08398,0.0254 0.08979,0.0378 0.176084,0.0849 0.25586,0.13867 0.07978,0.0538 0.154875,0.11386 0.222656,0.18164 0.06778,0.0678 0.127834,0.14288 0.181641,0.22266 0.05381,0.0798 0.10082,0.16607 0.138671,0.25586 0.03785,0.0898 0.06602,0.18342 0.08594,0.28125 0.01992,0.0978 0.03125,0.19886 0.03125,0.30273 0,0.10387 -0.01133,0.20491 -0.03125,0.30273 -0.01992,0.0978 -0.04809,0.19147 -0.08594,0.28125 -0.03785,0.0898 -0.08487,0.17609 -0.138671,0.25586 -0.05381,0.0798 -0.11386,0.15488 -0.181641,0.22266 -0.06778,0.0678 -0.142881,0.12783 -0.222656,0.18164 -0.07978,0.0538 -0.166071,0.10082 -0.25586,0.13867 -0.02679,0.0113 -0.05642,0.0156 -0.08398,0.0254 v 2.1836 c 0.02756,0.01 0.0572,0.0141 0.08398,0.0254 0.08979,0.0378 0.176084,0.0849 0.25586,0.13867 0.07978,0.0538 0.154875,0.11386 0.222656,0.18164 0.06778,0.0678 0.127834,0.14288 0.181641,0.22266 0.05381,0.0798 0.10082,0.16607 0.138671,0.25586 0.03785,0.0898 0.06602,0.18342 0.08594,0.28125 0.01992,0.0978 0.03125,0.19886 0.03125,0.30273 0,0.10387 -0.01133,0.20491 -0.03125,0.30273 -0.01992,0.0978 -0.04809,0.19147 -0.08594,0.28125 -0.03785,0.0898 -0.08487,0.17609 -0.138671,0.25586 -0.05381,0.0798 -0.11386,0.15488 -0.181641,0.22266 -0.06778,0.0678 -0.142881,0.12783 -0.222656,0.18164 -0.07978,0.0538 -0.166071,0.10082 -0.25586,0.13867 -0.02679,0.0113 -0.05642,0.0156 -0.08398,0.0254 v 2.1836 c 0.02756,0.01 0.0572,0.0141 0.08398,0.0254 0.08979,0.0378 0.176084,0.0849 0.25586,0.13867 0.07978,0.0538 0.154875,0.11386 0.222656,0.18164 0.06778,0.0678 0.127834,0.14288 0.181641,0.22266 0.05381,0.0798 0.10082,0.16607 0.138671,0.25586 0.03785,0.0898 0.06602,0.18342 0.08594,0.28125 0.01992,0.0978 0.03125,0.19886 0.03125,0.30273 0,0.10387 -0.01133,0.20491 -0.03125,0.30273 -0.01992,0.0978 -0.04809,0.19147 -0.08594,0.28125 -0.03785,0.0898 -0.08487,0.17609 -0.138671,0.25586 -0.05381,0.0798 -0.11386,0.15488 -0.181641,0.22266 -0.06778,0.0678 -0.142881,0.12783 -0.222656,0.18164 -0.07978,0.0538 -0.166071,0.10082 -0.25586,0.13867 -0.02679,0.0113 -0.05642,0.0156 -0.08398,0.0254 v 2.1836 c 0.02756,0.01 0.0572,0.0141 0.08398,0.0254 0.08979,0.0378 0.176084,0.0849 0.25586,0.13867 0.07978,0.0538 0.154875,0.11386 0.222656,0.18164 0.06778,0.0678 0.127834,0.14288 0.181641,0.22266 0.05381,0.0798 0.10082,0.16607 0.138671,0.25586 0.03785,0.0898 0.06602,0.18342 0.08594,0.28125 0.01992,0.0978 0.03125,0.19886 0.03125,0.30273 0,0.10387 -0.01133,0.20491 -0.03125,0.30273 -0.01992,0.0978 -0.04809,0.19147 -0.08594,0.28125 -0.03785,0.0898 -0.08487,0.17609 -0.138671,0.25586 -0.05381,0.0798 -0.11386,0.15488 -0.181641,0.22266 -0.06778,0.0678 -0.142881,0.12783 -0.222656,0.18164 -0.07978,0.0538 -0.166071,0.10082 -0.25586,0.13867 -0.02679,0.0113 -0.05642,0.0156 -0.08398,0.0254 v 2.1836 c 0.02756,0.01 0.0572,0.0141 0.08398,0.0254 0.08979,0.0378 0.176084,0.0849 0.25586,0.13867 0.07978,0.0538 0.154875,0.11386 0.222656,0.18164 0.06778,0.0678 0.127834,0.14288 0.181641,0.22266 0.05381,0.0798 0.10082,0.16607 0.138671,0.25586 0.03785,0.0898 0.06602,0.18342 0.08594,0.28125 0.01992,0.0978 0.03125,0.19886 0.03125,0.30273 0,0.10387 -0.01133,0.20491 -0.03125,0.30273 -0.01992,0.0978 -0.04809,0.19147 -0.08594,0.28125 -0.03785,0.0898 -0.08487,0.17609 -0.138671,0.25586 -0.05381,0.0798 -0.11386,0.15488 -0.181641,0.22266 -0.06778,0.0678 -0.142881,0.12783 -0.222656,0.18164 -0.07978,0.0538 -0.166071,0.10082 -0.25586,0.13867 -0.02679,0.0113 -0.05642,0.0156 -0.08398,0.0254 v 1.0918 c 0,0.554 0.446003,1 1,1 h 2.091797 c 0.0098,-0.0276 0.0141,-0.0572 0.02539,-0.084 0.03785,-0.0898 0.08487,-0.17609 0.138671,-0.25586 0.05381,-0.0798 0.11386,-0.15488 0.181641,-0.22266 0.06778,-0.0678 0.142881,-0.12783 0.222656,-0.18164 0.07978,-0.0538 0.166071,-0.10082 0.25586,-0.13867 0.08979,-0.0378 0.183428,-0.066 0.28125,-0.0859 0.09782,-0.0199 0.198859,-0.0312 0.302734,-0.0312 0.103875,0 0.204912,0.0113 0.302734,0.0312 0.09782,0.0199 0.191461,0.0481 0.28125,0.0859 0.08979,0.0378 0.176084,0.0849 0.25586,0.13867 0.07977,0.0538 0.154875,0.11386 0.222656,0.18164 0.06778,0.0678 0.127834,0.14288 0.181641,0.22266 0.05381,0.0798 0.10082,0.16607 0.138671,0.25586 0.01129,0.0268 0.01563,0.0564 0.02539,0.084 h 2.183594 c 0.0098,-0.0276 0.0141,-0.0572 0.02539,-0.084 0.03785,-0.0898 0.08487,-0.17609 0.138671,-0.25586 0.05381,-0.0798 0.11386,-0.15488 0.181641,-0.22266 0.06778,-0.0678 0.142881,-0.12783 0.222656,-0.18164 0.07978,-0.0538 0.166071,-0.10082 0.25586,-0.13867 0.08979,-0.0378 0.183428,-0.066 0.28125,-0.0859 0.09782,-0.0199 0.198859,-0.0312 0.302734,-0.0312 0.103875,0 0.204912,0.0113 0.302734,0.0312 0.09782,0.0199 0.191461,0.0481 0.28125,0.0859 0.08979,0.0378 0.176084,0.0849 0.25586,0.13867 0.07977,0.0538 0.154875,0.11386 0.222656,0.18164 0.06778,0.0678 0.127834,0.14288 0.181641,0.22266 0.05381,0.0798 0.10082,0.16607 0.138671,0.25586 0.01129,0.0268 0.01563,0.0564 0.02539,0.084 h 2.183594 c 0.0098,-0.0276 0.0141,-0.0572 0.02539,-0.084 0.03785,-0.0898 0.08487,-0.17609 0.138671,-0.25586 0.05381,-0.0798 0.11386,-0.15488 0.181641,-0.22266 0.06778,-0.0678 0.142881,-0.12783 0.222656,-0.18164 0.07978,-0.0538 0.166071,-0.10082 0.25586,-0.13867 0.08979,-0.0378 0.183428,-0.066 0.28125,-0.0859 0.09782,-0.0199 0.198859,-0.0312 0.302734,-0.0312 0.103875,0 0.204912,0.0113 0.302734,0.0312 0.09782,0.0199 0.191461,0.0481 0.28125,0.0859 0.08979,0.0378 0.176084,0.0849 0.25586,0.13867 0.07977,0.0538 0.154875,0.11386 0.222656,0.18164 0.06778,0.0678 0.127834,0.14288 0.181641,0.22266 0.05381,0.0798 0.10082,0.16607 0.138671,0.25586 0.01129,0.0268 0.01563,0.0564 0.02539,0.084 h 2.183594 c 0.0098,-0.0276 0.0141,-0.0572 0.02539,-0.084 0.03785,-0.0898 0.08487,-0.17609 0.138671,-0.25586 0.05381,-0.0798 0.11386,-0.15488 0.181641,-0.22266 0.06778,-0.0678 0.142881,-0.12783 0.222656,-0.18164 0.07978,-0.0538 0.166071,-0.10082 0.25586,-0.13867 0.08979,-0.0378 0.183428,-0.066 0.28125,-0.0859 0.09782,-0.0199 0.198859,-0.0312 0.302734,-0.0312 0.103875,0 0.204912,0.0113 0.302734,0.0312 0.09782,0.0199 0.191461,0.0481 0.28125,0.0859 0.08979,0.0378 0.176084,0.0849 0.25586,0.13867 0.07977,0.0538 0.154875,0.11386 0.222656,0.18164 0.06778,0.0678 0.127834,0.14288 0.181641,0.22266 0.05381,0.0798 0.10082,0.16607 0.138671,0.25586 0.01129,0.0268 0.01563,0.0564 0.02539,0.084 H 51 c 0.553997,0 1,-0.446 1,-1 v -1.0918 c -0.02757,-0.01 -0.0572,-0.0141 -0.08398,-0.0254 -0.08979,-0.0378 -0.176084,-0.0849 -0.25586,-0.13867 -0.07977,-0.0538 -0.154875,-0.11386 -0.222656,-0.18164 -0.06778,-0.0678 -0.127834,-0.14288 -0.181641,-0.22266 -0.05381,-0.0798 -0.10082,-0.16607 -0.138671,-0.25586 -0.03785,-0.0898 -0.06602,-0.18342 -0.08594,-0.28125 C 51.011334,341.3549 51,341.25386 51,341.14999 c 0,-0.10387 0.01133,-0.20491 0.03125,-0.30273 0.01992,-0.0978 0.04809,-0.19147 0.08594,-0.28125 0.03785,-0.0898 0.08487,-0.17609 0.138671,-0.25586 0.05381,-0.0798 0.11386,-0.15488 0.181641,-0.22266 0.06778,-0.0678 0.142881,-0.12783 0.222656,-0.18164 0.07978,-0.0538 0.166071,-0.10082 0.25586,-0.13867 0.02679,-0.0113 0.05642,-0.0156 0.08398,-0.0254 v -2.1836 c -0.02757,-0.01 -0.0572,-0.0141 -0.08398,-0.0254 -0.08979,-0.0378 -0.176084,-0.0849 -0.25586,-0.13867 -0.07977,-0.0538 -0.154875,-0.11386 -0.222656,-0.18164 -0.06778,-0.0678 -0.127834,-0.14288 -0.181641,-0.22266 -0.05381,-0.0798 -0.10082,-0.16607 -0.138671,-0.25586 -0.03785,-0.0898 -0.06602,-0.18342 -0.08594,-0.28125 C 51.011334,336.3549 51,336.25386 51,336.14999 c 0,-0.10387 0.01133,-0.20491 0.03125,-0.30273 0.01992,-0.0978 0.04809,-0.19147 0.08594,-0.28125 0.03785,-0.0898 0.08487,-0.17609 0.138671,-0.25586 0.05381,-0.0798 0.11386,-0.15488 0.181641,-0.22266 0.06778,-0.0678 0.142881,-0.12783 0.222656,-0.18164 0.07978,-0.0538 0.166071,-0.10082 0.25586,-0.13867 0.02679,-0.0113 0.05642,-0.0156 0.08398,-0.0254 v -2.1836 c -0.02757,-0.01 -0.0572,-0.0141 -0.08398,-0.0254 -0.08979,-0.0378 -0.176084,-0.0849 -0.25586,-0.13867 -0.07977,-0.0538 -0.154875,-0.11386 -0.222656,-0.18164 -0.06778,-0.0678 -0.127834,-0.14288 -0.181641,-0.22266 -0.05381,-0.0798 -0.10082,-0.16607 -0.138671,-0.25586 -0.03785,-0.0898 -0.06602,-0.18342 -0.08594,-0.28125 C 51.011334,331.3549 51,331.25386 51,331.14999 c 0,-0.10387 0.01133,-0.20491 0.03125,-0.30273 0.01992,-0.0978 0.04809,-0.19147 0.08594,-0.28125 0.03785,-0.0898 0.08487,-0.17609 0.138671,-0.25586 0.05381,-0.0798 0.11386,-0.15488 0.181641,-0.22266 0.06778,-0.0678 0.142881,-0.12783 0.222656,-0.18164 0.07978,-0.0538 0.166071,-0.10082 0.25586,-0.13867 0.02679,-0.0113 0.05642,-0.0156 0.08398,-0.0254 v -2.1836 c -0.02757,-0.01 -0.0572,-0.0141 -0.08398,-0.0254 -0.08979,-0.0378 -0.176084,-0.0849 -0.25586,-0.13867 -0.07977,-0.0538 -0.154875,-0.11386 -0.222656,-0.18164 -0.06778,-0.0678 -0.127834,-0.14288 -0.181641,-0.22266 -0.05381,-0.0798 -0.10082,-0.16607 -0.138671,-0.25586 -0.03785,-0.0898 -0.06602,-0.18342 -0.08594,-0.28125 C 51.011334,326.3549 51,326.25386 51,326.14999 c 0,-0.10387 0.01133,-0.20491 0.03125,-0.30273 0.01992,-0.0978 0.04809,-0.19147 0.08594,-0.28125 0.03785,-0.0898 0.08487,-0.17609 0.138671,-0.25586 0.05381,-0.0798 0.11386,-0.15488 0.181641,-0.22266 0.06778,-0.0678 0.142881,-0.12783 0.222656,-0.18164 0.07978,-0.0538 0.166071,-0.10082 0.25586,-0.13867 0.02679,-0.0113 0.05642,-0.0156 0.08398,-0.0254 v -2.1836 c -0.02757,-0.01 -0.0572,-0.0141 -0.08398,-0.0254 -0.08979,-0.0378 -0.176084,-0.0849 -0.25586,-0.13867 -0.07977,-0.0538 -0.154875,-0.11386 -0.222656,-0.18164 -0.06778,-0.0678 -0.127834,-0.14288 -0.181641,-0.22266 -0.05381,-0.0798 -0.10082,-0.16607 -0.138671,-0.25586 -0.03785,-0.0898 -0.06602,-0.18342 -0.08594,-0.28125 C 51.011334,321.3549 51,321.25386 51,321.14999 c 0,-0.10387 0.01133,-0.20491 0.03125,-0.30273 0.01992,-0.0978 0.04809,-0.19147 0.08594,-0.28125 0.03785,-0.0898 0.08487,-0.17609 0.138671,-0.25586 0.05381,-0.0798 0.11386,-0.15488 0.181641,-0.22266 0.06778,-0.0678 0.142881,-0.12783 0.222656,-0.18164 0.07978,-0.0538 0.166071,-0.10082 0.25586,-0.13867 0.02679,-0.0113 0.05642,-0.0156 0.08398,-0.0254 v -1.0918 c 0,-0.554 -0.446003,-1 -1,-1 h -2.091797 c -0.0098,0.0276 -0.0141,0.0572 -0.02539,0.084 -0.03785,0.0898 -0.08487,0.17609 -0.138671,0.25586 -0.05381,0.0798 -0.11386,0.15488 -0.181641,0.22266 -0.06778,0.0678 -0.142881,0.12783 -0.222656,0.18164 -0.07978,0.0538 -0.166071,0.10082 -0.25586,0.13867 -0.08979,0.0378 -0.183428,0.066 -0.28125,0.0859 -0.09782,0.0199 -0.198859,0.0312 -0.302734,0.0312 -0.103875,0 -0.204912,-0.0113 -0.302734,-0.0312 -0.09782,-0.0199 -0.191461,-0.0481 -0.28125,-0.0859 -0.08979,-0.0378 -0.176084,-0.0849 -0.25586,-0.13867 -0.07977,-0.0538 -0.154875,-0.11386 -0.222656,-0.18164 -0.06778,-0.0678 -0.127834,-0.14288 -0.181641,-0.22266 -0.05381,-0.0798 -0.10082,-0.16607 -0.138671,-0.25586 -0.01129,-0.0268 -0.01563,-0.0564 -0.02539,-0.084 h -2.183594 c -0.0098,0.0276 -0.0141,0.0572 -0.02539,0.084 -0.03785,0.0898 -0.08487,0.17609 -0.138671,0.25586 -0.05381,0.0798 -0.11386,0.15488 -0.181641,0.22266 -0.06778,0.0678 -0.142881,0.12783 -0.222656,0.18164 -0.07978,0.0538 -0.166071,0.10082 -0.25586,0.13867 -0.08979,0.0378 -0.183428,0.066 -0.28125,0.0859 -0.09782,0.0199 -0.198859,0.0312 -0.302734,0.0312 -0.103875,0 -0.204912,-0.0113 -0.302734,-0.0312 -0.09782,-0.0199 -0.191461,-0.0481 -0.28125,-0.0859 -0.08979,-0.0378 -0.176084,-0.0849 -0.25586,-0.13867 -0.07977,-0.0538 -0.154875,-0.11386 -0.222656,-0.18164 -0.06778,-0.0678 -0.127834,-0.14288 -0.181641,-0.22266 -0.05381,-0.0798 -0.10082,-0.16607 -0.138671,-0.25586 -0.01129,-0.0268 -0.01563,-0.0564 -0.02539,-0.084 h -2.183594 c -0.0098,0.0276 -0.0141,0.0572 -0.02539,0.084 -0.03785,0.0898 -0.08487,0.17609 -0.138671,0.25586 -0.05381,0.0798 -0.11386,0.15488 -0.181641,0.22266 -0.06778,0.0678 -0.142881,0.12783 -0.222656,0.18164 -0.07978,0.0538 -0.166071,0.10082 -0.25586,0.13867 -0.08979,0.0378 -0.183428,0.066 -0.28125,0.0859 -0.09782,0.0199 -0.198859,0.0312 -0.302734,0.0312 -0.103875,0 -0.204912,-0.0113 -0.302734,-0.0312 -0.09782,-0.0199 -0.191461,-0.0481 -0.28125,-0.0859 -0.08979,-0.0378 -0.176084,-0.0849 -0.25586,-0.13867 -0.07977,-0.0538 -0.154875,-0.11386 -0.222656,-0.18164 -0.06778,-0.0678 -0.127834,-0.14288 -0.181641,-0.22266 -0.05381,-0.0798 -0.10082,-0.16607 -0.138671,-0.25586 -0.01129,-0.0268 -0.01563,-0.0564 -0.02539,-0.084 h -2.183594 c -0.0098,0.0276 -0.0141,0.0572 -0.02539,0.084 -0.03785,0.0898 -0.08487,0.17609 -0.138671,0.25586 -0.05381,0.0798 -0.11386,0.15488 -0.181641,0.22266 -0.06778,0.0678 -0.142881,0.12783 -0.222656,0.18164 -0.07978,0.0538 -0.166071,0.10082 -0.25586,0.13867 -0.08979,0.0378 -0.183428,0.066 -0.28125,0.0859 -0.09782,0.0199 -0.198859,0.0312 -0.302734,0.0312 -0.103875,0 -0.204912,-0.0113 -0.302734,-0.0312 -0.09782,-0.0199 -0.191461,-0.0481 -0.28125,-0.0859 -0.08979,-0.0378 -0.176084,-0.0849 -0.25586,-0.13867 -0.07978,-0.0538 -0.154875,-0.11386 -0.222656,-0.18164 -0.06778,-0.0678 -0.127834,-0.14288 -0.181641,-0.22266 -0.05381,-0.0798 -0.10082,-0.16607 -0.138671,-0.25586 -0.01129,-0.0268 -0.01563,-0.0564 -0.02539,-0.084 z" /><path
         id="path5683-7"
         style="fill:url(#linearGradient7714);fill-opacity:1;stroke:none;stroke-width:2;stroke-linecap:round;stroke-linejoin:round;stroke-miterlimit:1.8;stroke-opacity:1;paint-order:fill markers stroke;stop-color:#000000"
         d="M 31.091797,317.64999 H 29 c -0.553997,0 -1,0.446 -1,1 v 1.0918 c 0.02756,0.01 0.0572,0.0141 0.08398,0.0254 0.08979,0.0378 0.176084,0.0849 0.25586,0.13867 0.07978,0.0538 0.154875,0.11386 0.222656,0.18164 0.06778,0.0678 0.127834,0.14288 0.181641,0.22266 0.05381,0.0798 0.10082,0.16607 0.138671,0.25586 0.03785,0.0898 0.06602,0.18342 0.08594,0.28125 0.01992,0.0978 0.03125,0.19886 0.03125,0.30273 0,0.10387 -0.01133,0.20491 -0.03125,0.30273 -0.01992,0.0978 -0.04809,0.19147 -0.08594,0.28125 -0.03785,0.0898 -0.08487,0.17609 -0.138671,0.25586 -0.05381,0.0798 -0.11386,0.15488 -0.181641,0.22266 -0.06778,0.0678 -0.142881,0.12783 -0.222656,0.18164 -0.07978,0.0538 -0.166071,0.10082 -0.25586,0.13867 -0.02679,0.0113 -0.05642,0.0156 -0.08398,0.0254 v 2.1836 c 0.02756,0.01 0.0572,0.0141 0.08398,0.0254 0.08979,0.0378 0.176084,0.0849 0.25586,0.13867 0.07978,0.0538 0.154875,0.11386 0.222656,0.18164 0.06778,0.0678 0.127834,0.14288 0.181641,0.22266 0.05381,0.0798 0.10082,0.16607 0.138671,0.25586 0.03785,0.0898 0.06602,0.18342 0.08594,0.28125 0.01992,0.0978 0.03125,0.19886 0.03125,0.30273 0,0.10387 -0.01133,0.20491 -0.03125,0.30273 -0.01992,0.0978 -0.04809,0.19147 -0.08594,0.28125 -0.03785,0.0898 -0.08487,0.17609 -0.138671,0.25586 -0.05381,0.0798 -0.11386,0.15488 -0.181641,0.22266 -0.06778,0.0678 -0.142881,0.12783 -0.222656,0.18164 -0.07978,0.0538 -0.166071,0.10082 -0.25586,0.13867 -0.02679,0.0113 -0.05642,0.0156 -0.08398,0.0254 v 2.1836 c 0.02756,0.01 0.0572,0.0141 0.08398,0.0254 0.08979,0.0378 0.176084,0.0849 0.25586,0.13867 0.07978,0.0538 0.154875,0.11386 0.222656,0.18164 0.06778,0.0678 0.127834,0.14288 0.181641,0.22266 0.05381,0.0798 0.10082,0.16607 0.138671,0.25586 0.03785,0.0898 0.06602,0.18342 0.08594,0.28125 0.01992,0.0978 0.03125,0.19886 0.03125,0.30273 0,0.10387 -0.01133,0.20491 -0.03125,0.30273 -0.01992,0.0978 -0.04809,0.19147 -0.08594,0.28125 -0.03785,0.0898 -0.08487,0.17609 -0.138671,0.25586 -0.05381,0.0798 -0.11386,0.15488 -0.181641,0.22266 -0.06778,0.0678 -0.142881,0.12783 -0.222656,0.18164 -0.07978,0.0538 -0.166071,0.10082 -0.25586,0.13867 -0.02679,0.0113 -0.05642,0.0156 -0.08398,0.0254 v 2.1836 c 0.02756,0.01 0.0572,0.0141 0.08398,0.0254 0.08979,0.0378 0.176084,0.0849 0.25586,0.13867 0.07978,0.0538 0.154875,0.11386 0.222656,0.18164 0.06778,0.0678 0.127834,0.14288 0.181641,0.22266 0.05381,0.0798 0.10082,0.16607 0.138671,0.25586 0.03785,0.0898 0.06602,0.18342 0.08594,0.28125 0.01992,0.0978 0.03125,0.19886 0.03125,0.30273 0,0.10387 -0.01133,0.20491 -0.03125,0.30273 -0.01992,0.0978 -0.04809,0.19147 -0.08594,0.28125 -0.03785,0.0898 -0.08487,0.17609 -0.138671,0.25586 -0.05381,0.0798 -0.11386,0.15488 -0.181641,0.22266 -0.06778,0.0678 -0.142881,0.12783 -0.222656,0.18164 -0.07978,0.0538 -0.166071,0.10082 -0.25586,0.13867 -0.02679,0.0113 -0.05642,0.0156 -0.08398,0.0254 v 2.1836 c 0.02756,0.01 0.0572,0.0141 0.08398,0.0254 0.08979,0.0378 0.176084,0.0849 0.25586,0.13867 0.07978,0.0538 0.154875,0.11386 0.222656,0.18164 0.06778,0.0678 0.127834,0.14288 0.181641,0.22266 0.05381,0.0798 0.10082,0.16607 0.138671,0.25586 0.03785,0.0898 0.06602,0.18342 0.08594,0.28125 0.01992,0.0978 0.03125,0.19886 0.03125,0.30273 0,0.10387 -0.01133,0.20491 -0.03125,0.30273 -0.01992,0.0978 -0.04809,0.19147 -0.08594,0.28125 -0.03785,0.0898 -0.08487,0.17609 -0.138671,0.25586 -0.05381,0.0798 -0.11386,0.15488 -0.181641,0.22266 -0.06778,0.0678 -0.142881,0.12783 -0.222656,0.18164 -0.07978,0.0538 -0.166071,0.10082 -0.25586,0.13867 -0.02679,0.0113 -0.05642,0.0156 -0.08398,0.0254 v 1.0918 c 0,0.554 0.446003,1 1,1 h 2.091797 c 0.0098,-0.0276 0.0141,-0.0572 0.02539,-0.084 0.03785,-0.0898 0.08487,-0.17609 0.138671,-0.25586 0.05381,-0.0798 0.11386,-0.15488 0.181641,-0.22266 0.06778,-0.0678 0.142881,-0.12783 0.222656,-0.18164 0.07978,-0.0538 0.166071,-0.10082 0.25586,-0.13867 0.08979,-0.0378 0.183428,-0.066 0.28125,-0.0859 0.09782,-0.0199 0.198859,-0.0312 0.302734,-0.0312 0.103875,0 0.204912,0.0113 0.302734,0.0312 0.09782,0.0199 0.191461,0.0481 0.28125,0.0859 0.08979,0.0378 0.176084,0.0849 0.25586,0.13867 0.07977,0.0538 0.154875,0.11386 0.222656,0.18164 0.06778,0.0678 0.127834,0.14288 0.181641,0.22266 0.05381,0.0798 0.10082,0.16607 0.138671,0.25586 0.01129,0.0268 0.01563,0.0564 0.02539,0.084 h 2.183594 c 0.0098,-0.0276 0.0141,-0.0572 0.02539,-0.084 0.03785,-0.0898 0.08487,-0.17609 0.138671,-0.25586 0.05381,-0.0798 0.11386,-0.15488 0.181641,-0.22266 0.06778,-0.0678 0.142881,-0.12783 0.222656,-0.18164 0.07978,-0.0538 0.166071,-0.10082 0.25586,-0.13867 0.08979,-0.0378 0.183428,-0.066 0.28125,-0.0859 0.09782,-0.0199 0.198859,-0.0312 0.302734,-0.0312 0.103875,0 0.204912,0.0113 0.302734,0.0312 0.09782,0.0199 0.191461,0.0481 0.28125,0.0859 0.08979,0.0378 0.176084,0.0849 0.25586,0.13867 0.07977,0.0538 0.154875,0.11386 0.222656,0.18164 0.06778,0.0678 0.127834,0.14288 0.181641,0.22266 0.05381,0.0798 0.10082,0.16607 0.138671,0.25586 0.01129,0.0268 0.01563,0.0564 0.02539,0.084 h 2.183594 c 0.0098,-0.0276 0.0141,-0.0572 0.02539,-0.084 0.03785,-0.0898 0.08487,-0.17609 0.138671,-0.25586 0.05381,-0.0798 0.11386,-0.15488 0.181641,-0.22266 0.06778,-0.0678 0.142881,-0.12783 0.222656,-0.18164 0.07978,-0.0538 0.166071,-0.10082 0.25586,-0.13867 0.08979,-0.0378 0.183428,-0.066 0.28125,-0.0859 0.09782,-0.0199 0.198859,-0.0312 0.302734,-0.0312 0.103875,0 0.204912,0.0113 0.302734,0.0312 0.09782,0.0199 0.191461,0.0481 0.28125,0.0859 0.08979,0.0378 0.176084,0.0849 0.25586,0.13867 0.07977,0.0538 0.154875,0.11386 0.222656,0.18164 0.06778,0.0678 0.127834,0.14288 0.181641,0.22266 0.05381,0.0798 0.10082,0.16607 0.138671,0.25586 0.01129,0.0268 0.01563,0.0564 0.02539,0.084 h 2.183594 c 0.0098,-0.0276 0.0141,-0.0572 0.02539,-0.084 0.03785,-0.0898 0.08487,-0.17609 0.138671,-0.25586 0.05381,-0.0798 0.11386,-0.15488 0.181641,-0.22266 0.06778,-0.0678 0.142881,-0.12783 0.222656,-0.18164 0.07978,-0.0538 0.166071,-0.10082 0.25586,-0.13867 0.08979,-0.0378 0.183428,-0.066 0.28125,-0.0859 0.09782,-0.0199 0.198859,-0.0312 0.302734,-0.0312 0.103875,0 0.204912,0.0113 0.302734,0.0312 0.09782,0.0199 0.191461,0.0481 0.28125,0.0859 0.08979,0.0378 0.176084,0.0849 0.25586,0.13867 0.07977,0.0538 0.154875,0.11386 0.222656,0.18164 0.06778,0.0678 0.127834,0.14288 0.181641,0.22266 0.05381,0.0798 0.10082,0.16607 0.138671,0.25586 0.01129,0.0268 0.01563,0.0564 0.02539,0.084 H 51 c 0.553997,0 1,-0.446 1,-1 v -1.0918 c -0.02757,-0.01 -0.0572,-0.0141 -0.08398,-0.0254 -0.08979,-0.0378 -0.176084,-0.0849 -0.25586,-0.13867 -0.07977,-0.0538 -0.154875,-0.11386 -0.222656,-0.18164 -0.06778,-0.0678 -0.127834,-0.14288 -0.181641,-0.22266 -0.05381,-0.0798 -0.10082,-0.16607 -0.138671,-0.25586 -0.03785,-0.0898 -0.06602,-0.18342 -0.08594,-0.28125 C 51.011334,341.3549 51,341.25386 51,341.14999 c 0,-0.10387 0.01133,-0.20491 0.03125,-0.30273 0.01992,-0.0978 0.04809,-0.19147 0.08594,-0.28125 0.03785,-0.0898 0.08487,-0.17609 0.138671,-0.25586 0.05381,-0.0798 0.11386,-0.15488 0.181641,-0.22266 0.06778,-0.0678 0.142881,-0.12783 0.222656,-0.18164 0.07978,-0.0538 0.166071,-0.10082 0.25586,-0.13867 0.02679,-0.0113 0.05642,-0.0156 0.08398,-0.0254 v -2.1836 c -0.02757,-0.01 -0.0572,-0.0141 -0.08398,-0.0254 -0.08979,-0.0378 -0.176084,-0.0849 -0.25586,-0.13867 -0.07977,-0.0538 -0.154875,-0.11386 -0.222656,-0.18164 -0.06778,-0.0678 -0.127834,-0.14288 -0.181641,-0.22266 -0.05381,-0.0798 -0.10082,-0.16607 -0.138671,-0.25586 -0.03785,-0.0898 -0.06602,-0.18342 -0.08594,-0.28125 C 51.011334,336.3549 51,336.25386 51,336.14999 c 0,-0.10387 0.01133,-0.20491 0.03125,-0.30273 0.01992,-0.0978 0.04809,-0.19147 0.08594,-0.28125 0.03785,-0.0898 0.08487,-0.17609 0.138671,-0.25586 0.05381,-0.0798 0.11386,-0.15488 0.181641,-0.22266 0.06778,-0.0678 0.142881,-0.12783 0.222656,-0.18164 0.07978,-0.0538 0.166071,-0.10082 0.25586,-0.13867 0.02679,-0.0113 0.05642,-0.0156 0.08398,-0.0254 v -2.1836 c -0.02757,-0.01 -0.0572,-0.0141 -0.08398,-0.0254 -0.08979,-0.0378 -0.176084,-0.0849 -0.25586,-0.13867 -0.07977,-0.0538 -0.154875,-0.11386 -0.222656,-0.18164 -0.06778,-0.0678 -0.127834,-0.14288 -0.181641,-0.22266 -0.05381,-0.0798 -0.10082,-0.16607 -0.138671,-0.25586 -0.03785,-0.0898 -0.06602,-0.18342 -0.08594,-0.28125 C 51.011334,331.3549 51,331.25386 51,331.14999 c 0,-0.10387 0.01133,-0.20491 0.03125,-0.30273 0.01992,-0.0978 0.04809,-0.19147 0.08594,-0.28125 0.03785,-0.0898 0.08487,-0.17609 0.138671,-0.25586 0.05381,-0.0798 0.11386,-0.15488 0.181641,-0.22266 0.06778,-0.0678 0.142881,-0.12783 0.222656,-0.18164 0.07978,-0.0538 0.166071,-0.10082 0.25586,-0.13867 0.02679,-0.0113 0.05642,-0.0156 0.08398,-0.0254 v -2.1836 c -0.02757,-0.01 -0.0572,-0.0141 -0.08398,-0.0254 -0.08979,-0.0378 -0.176084,-0.0849 -0.25586,-0.13867 -0.07977,-0.0538 -0.154875,-0.11386 -0.222656,-0.18164 -0.06778,-0.0678 -0.127834,-0.14288 -0.181641,-0.22266 -0.05381,-0.0798 -0.10082,-0.16607 -0.138671,-0.25586 -0.03785,-0.0898 -0.06602,-0.18342 -0.08594,-0.28125 C 51.011334,326.3549 51,326.25386 51,326.14999 c 0,-0.10387 0.01133,-0.20491 0.03125,-0.30273 0.01992,-0.0978 0.04809,-0.19147 0.08594,-0.28125 0.03785,-0.0898 0.08487,-0.17609 0.138671,-0.25586 0.05381,-0.0798 0.11386,-0.15488 0.181641,-0.22266 0.06778,-0.0678 0.142881,-0.12783 0.222656,-0.18164 0.07978,-0.0538 0.166071,-0.10082 0.25586,-0.13867 0.02679,-0.0113 0.05642,-0.0156 0.08398,-0.0254 v -2.1836 c -0.02757,-0.01 -0.0572,-0.0141 -0.08398,-0.0254 -0.08979,-0.0378 -0.176084,-0.0849 -0.25586,-0.13867 -0.07977,-0.0538 -0.154875,-0.11386 -0.222656,-0.18164 -0.06778,-0.0678 -0.127834,-0.14288 -0.181641,-0.22266 -0.05381,-0.0798 -0.10082,-0.16607 -0.138671,-0.25586 -0.03785,-0.0898 -0.06602,-0.18342 -0.08594,-0.28125 C 51.011334,321.3549 51,321.25386 51,321.14999 c 0,-0.10387 0.01133,-0.20491 0.03125,-0.30273 0.01992,-0.0978 0.04809,-0.19147 0.08594,-0.28125 0.03785,-0.0898 0.08487,-0.17609 0.138671,-0.25586 0.05381,-0.0798 0.11386,-0.15488 0.181641,-0.22266 0.06778,-0.0678 0.142881,-0.12783 0.222656,-0.18164 0.07978,-0.0538 0.166071,-0.10082 0.25586,-0.13867 0.02679,-0.0113 0.05642,-0.0156 0.08398,-0.0254 v -1.0918 c 0,-0.554 -0.446003,-1 -1,-1 h -2.091797 c -0.0098,0.0276 -0.0141,0.0572 -0.02539,0.084 -0.03785,0.0898 -0.08487,0.17609 -0.138671,0.25586 -0.05381,0.0798 -0.11386,0.15488 -0.181641,0.22266 -0.06778,0.0678 -0.142881,0.12783 -0.222656,0.18164 -0.07978,0.0538 -0.166071,0.10082 -0.25586,0.13867 -0.08979,0.0378 -0.183428,0.066 -0.28125,0.0859 -0.09782,0.0199 -0.198859,0.0312 -0.302734,0.0312 -0.103875,0 -0.204912,-0.0113 -0.302734,-0.0312 -0.09782,-0.0199 -0.191461,-0.0481 -0.28125,-0.0859 -0.08979,-0.0378 -0.176084,-0.0849 -0.25586,-0.13867 -0.07977,-0.0538 -0.154875,-0.11386 -0.222656,-0.18164 -0.06778,-0.0678 -0.127834,-0.14288 -0.181641,-0.22266 -0.05381,-0.0798 -0.10082,-0.16607 -0.138671,-0.25586 -0.01129,-0.0268 -0.01563,-0.0564 -0.02539,-0.084 h -2.183594 c -0.0098,0.0276 -0.0141,0.0572 -0.02539,0.084 -0.03785,0.0898 -0.08487,0.17609 -0.138671,0.25586 -0.05381,0.0798 -0.11386,0.15488 -0.181641,0.22266 -0.06778,0.0678 -0.142881,0.12783 -0.222656,0.18164 -0.07978,0.0538 -0.166071,0.10082 -0.25586,0.13867 -0.08979,0.0378 -0.183428,0.066 -0.28125,0.0859 -0.09782,0.0199 -0.198859,0.0312 -0.302734,0.0312 -0.103875,0 -0.204912,-0.0113 -0.302734,-0.0312 -0.09782,-0.0199 -0.191461,-0.0481 -0.28125,-0.0859 -0.08979,-0.0378 -0.176084,-0.0849 -0.25586,-0.13867 -0.07977,-0.0538 -0.154875,-0.11386 -0.222656,-0.18164 -0.06778,-0.0678 -0.127834,-0.14288 -0.181641,-0.22266 -0.05381,-0.0798 -0.10082,-0.16607 -0.138671,-0.25586 -0.01129,-0.0268 -0.01563,-0.0564 -0.02539,-0.084 h -2.183594 c -0.0098,0.0276 -0.0141,0.0572 -0.02539,0.084 -0.03785,0.0898 -0.08487,0.17609 -0.138671,0.25586 -0.05381,0.0798 -0.11386,0.15488 -0.181641,0.22266 -0.06778,0.0678 -0.142881,0.12783 -0.222656,0.18164 -0.07978,0.0538 -0.166071,0.10082 -0.25586,0.13867 -0.08979,0.0378 -0.183428,0.066 -0.28125,0.0859 -0.09782,0.0199 -0.198859,0.0312 -0.302734,0.0312 -0.103875,0 -0.204912,-0.0113 -0.302734,-0.0312 -0.09782,-0.0199 -0.191461,-0.0481 -0.28125,-0.0859 -0.08979,-0.0378 -0.176084,-0.0849 -0.25586,-0.13867 -0.07977,-0.0538 -0.154875,-0.11386 -0.222656,-0.18164 -0.06778,-0.0678 -0.127834,-0.14288 -0.181641,-0.22266 -0.05381,-0.0798 -0.10082,-0.16607 -0.138671,-0.25586 -0.01129,-0.0268 -0.01563,-0.0564 -0.02539,-0.084 h -2.183594 c -0.0098,0.0276 -0.0141,0.0572 -0.02539,0.084 -0.03785,0.0898 -0.08487,0.17609 -0.138671,0.25586 -0.05381,0.0798 -0.11386,0.15488 -0.181641,0.22266 -0.06778,0.0678 -0.142881,0.12783 -0.222656,0.18164 -0.07978,0.0538 -0.166071,0.10082 -0.25586,0.13867 -0.08979,0.0378 -0.183428,0.066 -0.28125,0.0859 -0.09782,0.0199 -0.198859,0.0312 -0.302734,0.0312 -0.103875,0 -0.204912,-0.0113 -0.302734,-0.0312 -0.09782,-0.0199 -0.191461,-0.0481 -0.28125,-0.0859 -0.08979,-0.0378 -0.176084,-0.0849 -0.25586,-0.13867 -0.07978,-0.0538 -0.154875,-0.11386 -0.222656,-0.18164 -0.06778,-0.0678 -0.127834,-0.14288 -0.181641,-0.22266 -0.05381,-0.0798 -0.10082,-0.16607 -0.138671,-0.25586 -0.01129,-0.0268 -0.01563,-0.0564 -0.02539,-0.084 z" /><path
         style="fill:#b2262c;stroke-width:2;stroke-linecap:round;stroke-linejoin:round;stroke-miterlimit:1.8;paint-order:fill markers stroke;stop-color:#000000;fill-opacity:1"
         d="m 30.999996,319.64999 h 18.000008 c 0.553998,0 0.999996,0.446 0.999996,1 v 21 c 0,0.554 -0.445998,1 -0.999996,1 H 30.999996 c -0.553998,0 -0.999996,-0.446 -0.999996,-1 v -21 c 0,-0.554 0.445998,-1 0.999996,-1 z"
         id="rect5718" /><path
         style="fill:url(#linearGradient1792);fill-opacity:1;stroke-width:3.77953"
         d="m 31,320.64999 h 18 v 21 H 31 Z"
         id="path224"
         sodipodi:nodetypes="ccccc" /><path
         d="m 43.999998,336.64994 h 2 v -1.99997 h -2 z"
         id="path226-6"
         style="fill:#b2262c;fill-opacity:1;stroke-width:3.77953" /><path
         d="m 35.999997,332.64996 10e-7,2.00001 h 8.000001 l -1e-6,-2.00001 z"
         id="path228-0"
         style="fill:#b2262c;fill-opacity:1;stroke-width:3.77953" /><path
         d="m 33.999997,334.64997 v 1.99997 h 2 v -1.99997 z"
         id="path230-6"
         style="fill:#b2262c;fill-opacity:1;stroke-width:3.77953" /><path
         d="m 42.999998,326.64996 -10e-7,2.99996 2.000001,4e-5 1e-6,-3 z"
         id="path232-2"
         style="fill:#b2262c;fill-opacity:1;stroke-width:3.77953" /><path
         d="m 34.999999,326.64996 v 3 h 1.999999 v -3 z"
         id="path234-6"
         style="fill:#b2262c;fill-opacity:1;stroke-width:3.77953" /><g
         fill="#fbebee"
         id="g236"
         transform="matrix(3.7795276,0,0,3.7795276,57.93021,-784.55136)"><path
           d="m -3.6857011,296.3866 h 0.5291667 v -0.52916 h -0.5291667 z"
           id="path226"
           style="fill:#f9e1e6;fill-opacity:1" /><path
           d="m -5.8023677,295.32827 2e-7,0.52917 h 2.1166666 l -2e-7,-0.52917 z"
           id="path228"
           style="fill:#f9e1e6;fill-opacity:1" /><path
           d="m -6.3315344,295.85744 v 0.52916 h 0.5291667 v -0.52916 z"
           id="path230"
           style="fill:#f9e1e6;fill-opacity:1" /><path
           d="m -3.9502844,293.74077 -3e-7,0.79374 0.5291669,10e-6 3e-7,-0.79375 z"
           id="path232"
           style="fill:#f9e1e6;fill-opacity:1" /><path
           d="m -6.0669509,293.74077 v 0.79375 h 0.5291665 v -0.79375 z"
           id="path234"
           style="fill:#f9e1e6;fill-opacity:1" /></g></g></g></svg>
