<?xml version="1.0" encoding="UTF-8" standalone="no"?>
<svg
   height="32"
   viewBox="0 0 32 32"
   width="32"
   version="1.1"
   id="svg10"
   sodipodi:docname="x-media-podcast.svg"
   xml:space="preserve"
   inkscape:version="1.2.2 (b0a8486541, 2022-12-01)"
   xmlns:inkscape="http://www.inkscape.org/namespaces/inkscape"
   xmlns:sodipodi="http://sodipodi.sourceforge.net/DTD/sodipodi-0.dtd"
   xmlns:xlink="http://www.w3.org/1999/xlink"
   xmlns="http://www.w3.org/2000/svg"
   xmlns:svg="http://www.w3.org/2000/svg"><defs
     id="defs14"><linearGradient
       inkscape:collect="always"
       id="linearGradient1698"><stop
         style="stop-color:#5765b3;stop-opacity:1;"
         offset="0"
         id="stop1694" /><stop
         style="stop-color:#7885cb;stop-opacity:1;"
         offset="1"
         id="stop1696" /></linearGradient><style
       type="text/css"
       id="current-color-scheme">
      .ColorScheme-Text {
        color:#36404d;
      }
      </style><style
       type="text/css"
       id="current-color-scheme-67">
      .ColorScheme-Text {
        color:#122036;
      }
      </style><style
       type="text/css"
       id="current-color-scheme-7">
      .ColorScheme-Text {
        color:#122036;
      }
      </style><style
       type="text/css"
       id="current-color-scheme-5">
      .ColorScheme-Text {
        color:#122036;
      }
      </style><style
       type="text/css"
       id="current-color-scheme-6">
      .ColorScheme-Text {
        color:#122036;
      }
      </style><style
       type="text/css"
       id="current-color-scheme-1">
      .ColorScheme-Text {
        color:#122036;
      }
      </style><style
       id="current-color-scheme-10"
       type="text/css">
      .ColorScheme-Text {
        color:#122036;
      }
      </style><style
       id="current-color-scheme-5-7"
       type="text/css">
      .ColorScheme-Text {
        color:#122036;
      }
      </style><style
       id="current-color-scheme-1-2"
       type="text/css">
      .ColorScheme-Text {
        color:#122036;
      }
      </style><style
       type="text/css"
       id="current-color-scheme-10-9">
      .ColorScheme-Text {
        color:#122036;
      }
      </style><linearGradient
       inkscape:collect="always"
       xlink:href="#linearGradient1698"
       id="linearGradient1700"
       x1="3.999999"
       y1="308.64999"
       x2="3.999999"
       y2="280.64999"
       gradientUnits="userSpaceOnUse" /></defs><sodipodi:namedview
     id="namedview12"
     pagecolor="#ffffff"
     bordercolor="#000000"
     borderopacity="0.25"
     inkscape:showpageshadow="2"
     inkscape:pageopacity="0.0"
     inkscape:pagecheckerboard="0"
     inkscape:deskcolor="#d1d1d1"
     showgrid="true"
     inkscape:zoom="22.693708"
     inkscape:cx="19.807252"
     inkscape:cy="15.554972"
     inkscape:window-width="1517"
     inkscape:window-height="1363"
     inkscape:window-x="0"
     inkscape:window-y="0"
     inkscape:window-maximized="0"
     inkscape:current-layer="svg10"><inkscape:grid
       type="xygrid"
       id="grid243" /></sodipodi:namedview><g
     transform="translate(12.000001 -278.64999)"
     id="g8"><path
       style="fill:#4a5599;fill-opacity:1"
       d="m -7,279.64999 h 21.999999 c 1.108,0 2,0.892 2,2 v 26 c 0,1.108 -0.892,2 -2,2 H -7 c -1.108,0 -2,-0.892 -2,-2 v -26 c 0,-1.108 0.892,-2 2,-2 z"
       id="path2" /><path
       style="fill-opacity:1;fill:url(#linearGradient1700)"
       d="m -7,280.64999 h 21.999999 c 0.554,0 1,0.446 1,1 v 26 c 0,0.554 -0.446,1 -1,1 H -7 c -0.554,0 -1,-0.446 -1,-1 v -26 c 0,-0.554 0.446,-1 1,-1 z"
       id="path4" /><path
       style="fill:#4b569a;fill-opacity:1;stroke-width:3.77953"
       d="m 12.999999,298.64999 c -0.554,0 -1,0.446 -1,1 0,0.554 0.446,1 1,1 0.554,0 1,-0.446 1,-1 0,-0.554 -0.446,-1 -1,-1 z"
       id="path3744" /><path
       style="fill:#4b569a;fill-opacity:1;stroke-width:3.77953"
       d="m -5.0000014,298.64999 c -0.5540001,0 -0.9999998,0.446 -0.9999998,1 0,0.554 0.4459997,1 0.9999998,1 0.5540002,0 0.9999999,-0.446 0.9999999,-1 0,-0.554 -0.4459997,-1 -0.9999999,-1 z"
       id="path3742" /><path
       style="fill:#4b569a;fill-opacity:1;stroke-width:3.77953"
       d="m 12.999999,294.64999 c -0.554,0 -1,0.446 -1,1 0,0.554 0.446,1 1,1 0.554,0 1,-0.446 1,-1 0,-0.554 -0.446,-1 -1,-1 z"
       id="path3740" /><path
       style="fill:#4b569a;fill-opacity:1;stroke-width:3.77953"
       d="m -3.000001,294.64999 c -1.15e-4,2.50097 1.334093,4.81201 3.5,6.0625 0.771046,0.44333 1.619515,0.73565 2.5,0.86133 v 3.07617 h 2 v -3.07812 c 0.880352,-0.12507 1.728813,-0.41674 2.5,-0.85938 2.165907,-1.25049 3.500115,-3.56153 3.5,-6.0625 h -2 c -1.8e-5,1.78631 -0.95301,3.43692 -2.5,4.33008 -1.547005,0.89316 -3.452995,0.89316 -5,0 -1.54699,-0.89316 -2.499982,-2.54377 -2.5,-4.33008 z"
       id="path3738" /><path
       style="fill:#4b569a;fill-opacity:1;stroke-width:3.77953"
       d="m -5.0000014,294.64999 c -0.5540001,0 -0.9999998,0.446 -0.9999998,1 0,0.554 0.4459997,1 0.9999998,1 0.5540002,0 0.9999999,-0.446 0.9999999,-1 0,-0.554 -0.4459997,-1 -0.9999999,-1 z"
       id="path3736" /><path
       style="fill:#4b569a;fill-opacity:1;stroke-width:3.77953"
       d="m 12.999999,290.64999 c -0.554,0 -1,0.446 -1,1 0,0.554 0.446,1 1,1 0.554,0 1,-0.446 1,-1 0,-0.554 -0.446,-1 -1,-1 z"
       id="path3734" /><path
       style="fill:#4b569a;fill-opacity:1;stroke-width:3.77953"
       d="m -5.0000014,290.64999 c -0.5540001,0 -0.9999998,0.446 -0.9999998,1 0,0.554 0.4459997,1 0.9999998,1 0.5540002,0 0.9999999,-0.446 0.9999999,-1 0,-0.554 -0.4459997,-1 -0.9999999,-1 z"
       id="path3732" /><path
       style="fill:#4b569a;fill-opacity:1;stroke-width:3.77953"
       d="m 3.999999,286.64999 c -2.216,0 -4,1.784 -4,4 v 1 h 3 v 1 h -3 v 1 h 3 v 1 h -3 c 0,2.216 1.784,4 4,4 2.216,0 4,-1.784 4,-4 h -3 v -1 h 3 v -1 h -3 v -1 h 3 v -1 c 0,-2.216 -1.784,-4 -4,-4 z"
       id="path6-3" /><path
       style="fill:#e7e8f1;fill-opacity:1"
       d="m -2.1390888,6.7670551 c -0.1465792,0 -0.2645833,0.1180042 -0.2645833,0.2645833 0,0.1465792 0.1180041,0.2645834 0.2645833,0.2645834 0.1465792,0 0.2645833,-0.1180042 0.2645833,-0.2645834 0,-0.1465791 -0.1180041,-0.2645833 -0.2645833,-0.2645833 z"
       transform="matrix(3.7795276,0,0,3.7795276,21.084745,272.07372)"
       id="path3728" /><path
       style="fill:#e7e8f1;fill-opacity:1"
       d="m -6.9015888,6.7670551 c -0.1465792,0 -0.2645833,0.1180042 -0.2645833,0.2645833 0,0.1465792 0.1180041,0.2645834 0.2645833,0.2645834 0.1465792,0 0.2645833,-0.1180042 0.2645833,-0.2645834 0,-0.1465791 -0.1180041,-0.2645833 -0.2645833,-0.2645833 z"
       transform="matrix(3.7795276,0,0,3.7795276,21.084745,272.07372)"
       id="path3726" /><path
       style="fill:#e7e8f1;fill-opacity:1"
       d="m -2.1390888,5.7087218 c -0.1465792,0 -0.2645833,0.1180041 -0.2645833,0.2645833 0,0.1465792 0.1180041,0.2645833 0.2645833,0.2645833 0.1465792,0 0.2645833,-0.1180041 0.2645833,-0.2645833 0,-0.1465792 -0.1180041,-0.2645833 -0.2645833,-0.2645833 z"
       transform="matrix(3.7795276,0,0,3.7795276,21.084745,272.07372)"
       id="path3724" /><path
       style="fill:#e7e8f1;fill-opacity:1"
       d="m -6.3724221,5.7087218 c -3.05e-5,0.661715 0.3529787,1.2731776 0.9260416,1.6040364 0.2040059,0.1172978 0.4284967,0.1946402 0.6614584,0.2278931 v 0.8139038 h 0.5291666 V 7.5401345 c 0.2329265,-0.033091 0.4574151,-0.1102611 0.6614584,-0.2273763 0.5730628,-0.3308588 0.926072,-0.9423214 0.9260416,-1.6040364 h -0.5291666 c -4.8e-6,0.4726278 -0.2521506,0.9093512 -0.6614584,1.1456664 -0.4093117,0.2363153 -0.9136049,0.2363153 -1.3229166,0 C -5.5911049,6.618073 -5.8432507,6.1813496 -5.8432555,5.7087218 Z"
       transform="matrix(3.7795276,0,0,3.7795276,21.084745,272.07372)"
       id="path3722" /><path
       style="fill:#e7e8f1;fill-opacity:1"
       d="m -6.9015888,5.7087218 c -0.1465792,0 -0.2645833,0.1180041 -0.2645833,0.2645833 0,0.1465792 0.1180041,0.2645833 0.2645833,0.2645833 0.1465792,0 0.2645833,-0.1180041 0.2645833,-0.2645833 0,-0.1465792 -0.1180041,-0.2645833 -0.2645833,-0.2645833 z"
       transform="matrix(3.7795276,0,0,3.7795276,21.084745,272.07372)"
       id="path3720" /><path
       style="fill:#e7e8f1;fill-opacity:1"
       d="m -2.1390888,4.6503884 c -0.1465792,0 -0.2645833,0.1180042 -0.2645833,0.2645834 0,0.1465791 0.1180041,0.2645833 0.2645833,0.2645833 0.1465792,0 0.2645833,-0.1180042 0.2645833,-0.2645833 0,-0.1465792 -0.1180041,-0.2645834 -0.2645833,-0.2645834 z"
       transform="matrix(3.7795276,0,0,3.7795276,21.084745,272.07372)"
       id="path3718" /><path
       style="fill:#e7e8f1;fill-opacity:1"
       d="m -6.9015888,4.6503884 c -0.1465792,0 -0.2645833,0.1180042 -0.2645833,0.2645834 0,0.1465791 0.1180041,0.2645833 0.2645833,0.2645833 0.1465792,0 0.2645833,-0.1180042 0.2645833,-0.2645833 0,-0.1465792 -0.1180041,-0.2645834 -0.2645833,-0.2645834 z"
       transform="matrix(3.7795276,0,0,3.7795276,21.084745,272.07372)"
       id="path3716" /><path
       style="fill:#e7e8f1;fill-opacity:1"
       d="m -4.5203388,3.5920551 c -0.5863167,0 -1.0583333,0.4720167 -1.0583333,1.0583333 v 0.2645834 h 0.79375 v 0.2645833 h -0.79375 v 0.2645833 h 0.79375 v 0.2645834 h -0.79375 c 0,0.5863166 0.4720166,1.0583333 1.0583333,1.0583333 0.5863167,0 1.0583333,-0.4720167 1.0583333,-1.0583333 h -0.79375 V 5.4441384 h 0.79375 V 5.1795551 h -0.79375 V 4.9149718 h 0.79375 V 4.6503884 c 0,-0.5863166 -0.4720166,-1.0583333 -1.0583333,-1.0583333 z"
       transform="matrix(3.7795276,0,0,3.7795276,21.084745,272.07372)"
       id="path6" /></g></svg>
