<?xml version="1.0" encoding="UTF-8" standalone="no"?>
<svg
   height="32"
   viewBox="0 0 32 32"
   width="32"
   version="1.1"
   id="svg28"
   sodipodi:docname="x-office-contact.svg"
   xml:space="preserve"
   inkscape:version="1.2.2 (b0a8486541, 2022-12-01)"
   xmlns:inkscape="http://www.inkscape.org/namespaces/inkscape"
   xmlns:sodipodi="http://sodipodi.sourceforge.net/DTD/sodipodi-0.dtd"
   xmlns:xlink="http://www.w3.org/1999/xlink"
   xmlns="http://www.w3.org/2000/svg"
   xmlns:svg="http://www.w3.org/2000/svg"><defs
     id="defs32"><linearGradient
       inkscape:collect="always"
       id="linearGradient3533"><stop
         style="stop-color:#326fef;stop-opacity:1;"
         offset="0"
         id="stop3529" /><stop
         style="stop-color:#5795fb;stop-opacity:1;"
         offset="1"
         id="stop3531" /></linearGradient><style
       type="text/css"
       id="current-color-scheme">
      .ColorScheme-Text {
        color:#36404d;
      }
      </style><style
       id="current-color-scheme-3"
       type="text/css">
      .ColorScheme-Text {
        color:#122036;
      }
      </style><style
       type="text/css"
       id="current-color-scheme-5">
      .ColorScheme-Text {
        color:#122036;
      }
      </style><style
       type="text/css"
       id="current-color-scheme-2">
      .ColorScheme-Text {
        color:#122036;
      }
      </style><style
       type="text/css"
       id="current-color-scheme-1">
      .ColorScheme-Text {
        color:#122036;
      }
      </style><style
       id="current-color-scheme-10"
       type="text/css">
      .ColorScheme-Text {
        color:#122036;
      }
      </style><style
       type="text/css"
       id="current-color-scheme-0">
      .ColorScheme-Text {
        color:#122036;
      }
      </style><style
       type="text/css"
       id="current-color-scheme-26">
      .ColorScheme-Text {
        color:#122036;
      }
      </style><linearGradient
       inkscape:collect="always"
       xlink:href="#linearGradient3533"
       id="linearGradient3535"
       x1="11"
       y1="315.27499"
       x2="11"
       y2="287.27499"
       gradientUnits="userSpaceOnUse" /></defs><sodipodi:namedview
     id="namedview30"
     pagecolor="#ffffff"
     bordercolor="#000000"
     borderopacity="0.25"
     inkscape:showpageshadow="2"
     inkscape:pageopacity="0.0"
     inkscape:pagecheckerboard="0"
     inkscape:deskcolor="#d1d1d1"
     showgrid="true"
     inkscape:zoom="32.09375"
     inkscape:cx="13.507303"
     inkscape:cy="13.242454"
     inkscape:window-width="1517"
     inkscape:window-height="1363"
     inkscape:window-x="0"
     inkscape:window-y="0"
     inkscape:window-maximized="0"
     inkscape:current-layer="svg28"><inkscape:grid
       type="xygrid"
       id="grid261" /></sodipodi:namedview><g
     inkscape:label="Capa 1"
     id="layer1"
     transform="matrix(3.7795276,0,0,3.7795276,-0.99999938,-1090.5201)"><g
       id="g6882"
       transform="translate(8.1434933,-2.5963067)"><path
         id="rect868-2-5"
         d="m -0.99974388,293.51099 h 0.529167 c 0.1465789,0 0.264583,0.11801 0.264583,0.26458 v 1.32292 c 0,0.14658 -0.1180041,0.26458 -0.264583,0.26458 h -0.529167 c -0.14657892,0 -0.26458302,-0.118 -0.26458302,-0.26458 v -1.32292 c 0,-0.14657 0.1180041,-0.26458 0.26458302,-0.26458 z"
         style="opacity:0.98;fill:#363c4d;fill-opacity:1;stroke:none;stroke-width:0.529167;stroke-linecap:round;stroke-linejoin:round;stroke-miterlimit:4;stroke-dasharray:none;stroke-dashoffset:0;stroke-opacity:1"
         inkscape:connector-curvature="0" /><path
         inkscape:connector-curvature="0"
         id="rect868-6"
         d="m -0.99974328,291.6589 h 0.5291664 c 0.1465791,0 0.2645836,0.11801 0.2645836,0.26459 v 1.32291 c 0,0.14658 -0.1180045,0.26459 -0.2645836,0.26459 h -0.5291664 c -0.14657952,0 -0.26458362,-0.11801 -0.26458362,-0.26459 v -1.32291 c 0,-0.14658 0.1180041,-0.26459 0.26458362,-0.26459 z"
         style="opacity:0.98;fill:#cc0120;fill-opacity:1;stroke:none;stroke-width:0.529167;stroke-linecap:round;stroke-linejoin:round;stroke-miterlimit:4;stroke-dasharray:none;stroke-dashoffset:0;stroke-opacity:1" /><path
         inkscape:connector-curvature="0"
         id="rect870-2"
         d="m -0.99974328,291.92349 h 0.5291664 v 1.32291 h -0.5291664 z"
         style="opacity:0.98;fill:#fc3a56;fill-opacity:1;stroke:none;stroke-width:0.529167;stroke-linecap:round;stroke-linejoin:round;stroke-miterlimit:4;stroke-dasharray:none;stroke-dashoffset:0;stroke-opacity:1" /><path
         inkscape:connector-curvature="0"
         id="rect870-9-9"
         d="m -0.99974328,293.77557 h 0.5291664 v 1.32292 h -0.5291664 z"
         style="opacity:0.98;fill:#68718b;fill-opacity:1;stroke:none;stroke-width:0.529167;stroke-linecap:round;stroke-linejoin:round;stroke-miterlimit:4;stroke-dasharray:none;stroke-dashoffset:0;stroke-opacity:1" /><path
         inkscape:connector-curvature="0"
         id="rect868-2-1-1"
         d="m -0.99974328,295.36307 h 0.5291664 c 0.1465791,0 0.2645836,0.118 0.2645836,0.26458 v 1.32292 c 0,0.14658 -0.1180045,0.26458 -0.2645836,0.26458 h -0.5291664 c -0.14657952,0 -0.26458362,-0.118 -0.26458362,-0.26458 v -1.32292 c 0,-0.14658 0.1180041,-0.26458 0.26458362,-0.26458 z"
         style="opacity:0.98;fill:#2aa65a;fill-opacity:1;stroke:none;stroke-width:0.529167;stroke-linecap:round;stroke-linejoin:round;stroke-miterlimit:4;stroke-dasharray:none;stroke-dashoffset:0;stroke-opacity:1" /><path
         inkscape:connector-curvature="0"
         id="rect870-9-2-2"
         d="m -0.99974328,295.62765 h 0.5291664 v 1.32292 h -0.5291664 z"
         style="opacity:0.98;fill:#6bdf73;fill-opacity:1;stroke:none;stroke-width:0.529167;stroke-linecap:round;stroke-linejoin:round;stroke-miterlimit:4;stroke-dasharray:none;stroke-dashoffset:0;stroke-opacity:1" /><path
         inkscape:connector-curvature="0"
         id="rect868-2-7-7"
         d="m -0.99974328,297.21515 h 0.5291664 c 0.1465791,0 0.2645836,0.11801 0.2645836,0.26459 v 1.32291 c 0,0.14658 -0.1180045,0.26459 -0.2645836,0.26459 h -0.5291664 c -0.14657952,0 -0.26458362,-0.11801 -0.26458362,-0.26459 v -1.32291 c 0,-0.14658 0.1180041,-0.26459 0.26458362,-0.26459 z"
         style="opacity:0.98;fill:#f89804;fill-opacity:1;stroke:none;stroke-width:0.529167;stroke-linecap:round;stroke-linejoin:round;stroke-miterlimit:4;stroke-dasharray:none;stroke-dashoffset:0;stroke-opacity:1" /><path
         inkscape:connector-curvature="0"
         id="rect870-9-0-3"
         d="m -0.99974328,297.47974 h 0.5291664 v 1.32291 h -0.5291664 z"
         style="opacity:0.98;fill:#ffe200;fill-opacity:1;stroke:none;stroke-width:0.529167;stroke-linecap:round;stroke-linejoin:round;stroke-miterlimit:4;stroke-dasharray:none;stroke-dashoffset:0;stroke-opacity:1" /></g><g
       transform="translate(6.6358446,-0.32595451)"
       id="layer1-8"
       inkscape:label="Capa 1"><g
         transform="translate(5.2916667)"
         id="g1658" /></g></g><g
     transform="translate(4 -285.27499)"
     id="g26"><g
       transform="matrix(3.7795275 0 0 3.7795275 18 -805.2445)"
       id="g18" /><path
       style="fill:#33518f;fill-opacity:1"
       d="m 1,286.27499 h 19.999999 c 1.108,0 2,0.892 2,2 v 26 c 0,1.108 -0.892,2 -2,2 H 1 c -1.108,0 -2,-0.892 -2,-2 v -26 c 0,-1.108 0.892,-2 2,-2 z"
       id="path20" /><path
       style="fill-opacity:1;fill:url(#linearGradient3535)"
       d="m 1,287.27499 h 19.999999 c 0.554,0 1,0.446 1,1 v 26 c 0,0.554 -0.446,1 -1,1 H 1 c -0.554,0 -1,-0.446 -1,-1 v -26 c 0,-0.554 0.446,-1 1,-1 z"
       id="path22" /><path
       style="fill:#335291;fill-opacity:1"
       d="m 11,303.27498 c -2.7614245,0 -5.0000005,2.23858 -5.0000005,5.00001 3.2163525,1.24777 6.5338565,1.41664 10.0000005,0 0,-2.76143 -2.238576,-5.00001 -5,-5.00001 z"
       id="path750" /><path
       style="fill:#335291;fill-opacity:1"
       d="m 11,296.27499 c -1.662,0 -3.0000004,1.33799 -3.0000004,3 0,1.66201 1.3380004,3 3.0000004,3 1.662,0 3,-1.33799 3,-3 0,-1.66201 -1.338,-3 -3,-3 z"
       id="path24-3" /><path
       style="fill:#fbfcfd;fill-opacity:1"
       d="m 11,302.27498 c -2.7614245,0 -5.0000005,2.23858 -5.0000005,5.00001 3.2163525,1.24777 6.5338565,1.41664 10.0000005,0 0,-2.76143 -2.238576,-5.00001 -5,-5.00001 z"
       id="path789" /><path
       style="fill:#fbfcfd;fill-opacity:1"
       d="m 11,295.27499 c -1.662,0 -3.0000004,1.33799 -3.0000004,3 0,1.66201 1.3380004,3 3.0000004,3 1.662,0 3,-1.33799 3,-3 0,-1.66201 -1.338,-3 -3,-3 z"
       id="path24" /></g></svg>
