<?xml version="1.0" encoding="UTF-8" standalone="no"?>
<!-- Created with Inkscape (http://www.inkscape.org/) -->

<svg
   width="32"
   height="32"
   viewBox="0 0 32 32"
   version="1.1"
   id="svg8"
   inkscape:version="1.2.2 (b0a8486541, 2022-12-01)"
   sodipodi:docname="text-x-lua.svg"
   xml:space="preserve"
   xmlns:inkscape="http://www.inkscape.org/namespaces/inkscape"
   xmlns:sodipodi="http://sodipodi.sourceforge.net/DTD/sodipodi-0.dtd"
   xmlns:xlink="http://www.w3.org/1999/xlink"
   xmlns="http://www.w3.org/2000/svg"
   xmlns:svg="http://www.w3.org/2000/svg"
   xmlns:rdf="http://www.w3.org/1999/02/22-rdf-syntax-ns#"
   xmlns:cc="http://creativecommons.org/ns#"
   xmlns:dc="http://purl.org/dc/elements/1.1/"><title
     id="title7895">Antu icon Theme</title><defs
     id="defs2"><linearGradient
       inkscape:collect="always"
       id="linearGradient1420"><stop
         style="stop-color:#cacfe2;stop-opacity:1;"
         offset="0"
         id="stop1416" /><stop
         style="stop-color:#ffffff;stop-opacity:1;"
         offset="1"
         id="stop1418" /></linearGradient><linearGradient
       inkscape:collect="always"
       id="linearGradient936"><stop
         style="stop-color:#5c70ad;stop-opacity:1;"
         offset="0"
         id="stop932" /><stop
         style="stop-color:#6175b1;stop-opacity:1;"
         offset="1"
         id="stop934" /></linearGradient><style
       type="text/css"
       id="current-color-scheme">
      .ColorScheme-Text {
        color:#122036;
      }
      </style><style
       type="text/css"
       id="current-color-scheme-2">
      .ColorScheme-Text {
        color:#122036;
      }
      </style><style
       type="text/css"
       id="current-color-scheme-0">
      .ColorScheme-Text {
        color:#122036;
      }
      </style><style
       id="current-color-scheme-5"
       type="text/css">
      .ColorScheme-Text {
        color:#122036;
      }
      </style><style
       type="text/css"
       id="current-color-scheme-53">
      .ColorScheme-Text {
        color:#122036;
      }
      </style><style
       type="text/css"
       id="current-color-scheme-2-5">
      .ColorScheme-Text {
        color:#122036;
      }
      </style><style
       type="text/css"
       id="current-color-scheme-0-6">
      .ColorScheme-Text {
        color:#122036;
      }
      </style><linearGradient
       inkscape:collect="always"
       xlink:href="#linearGradient936"
       id="linearGradient938"
       x1="-9.75"
       y1="302.39999"
       x2="-9.75"
       y2="276.39999"
       gradientUnits="userSpaceOnUse" /><linearGradient
       inkscape:collect="always"
       xlink:href="#linearGradient1420"
       id="linearGradient1422"
       x1="-9.75"
       y1="296.39999"
       x2="-9.75"
       y2="282.39999"
       gradientUnits="userSpaceOnUse" /></defs><sodipodi:namedview
     id="base"
     pagecolor="#ffffff"
     bordercolor="#666666"
     borderopacity="1.0"
     inkscape:pageopacity="0.0"
     inkscape:pageshadow="2"
     inkscape:zoom="32"
     inkscape:cx="20.546875"
     inkscape:cy="13.359375"
     inkscape:document-units="px"
     inkscape:current-layer="g7713"
     showgrid="true"
     units="px"
     inkscape:window-width="2560"
     inkscape:window-height="1366"
     inkscape:window-x="0"
     inkscape:window-y="0"
     inkscape:window-maximized="1"
     objecttolerance="10"
     gridtolerance="10"
     guidetolerance="10"
     inkscape:showpageshadow="2"
     inkscape:pagecheckerboard="0"
     inkscape:deskcolor="#d1d1d1"><inkscape:grid
       type="xygrid"
       id="grid7897"
       empspacing="4" /></sodipodi:namedview><metadata
     id="metadata5"><rdf:RDF><cc:Work
         rdf:about=""><dc:format>image/svg+xml</dc:format><dc:type
           rdf:resource="http://purl.org/dc/dcmitype/StillImage" /><dc:title>Antu icon Theme</dc:title></cc:Work></rdf:RDF></metadata><g
     inkscape:label="Capa 1"
     inkscape:groupmode="layer"
     id="layer1"
     transform="translate(0,-282.64999)"><g
       id="g7713"
       transform="translate(25.75,9.250005)"><path
         inkscape:connector-curvature="0"
         style="opacity:1;fill:#395093;fill-opacity:1;stroke:none;stroke-width:1.99999988;stroke-linecap:round;stroke-linejoin:round;stroke-miterlimit:4;stroke-dasharray:none;stroke-opacity:1"
         d="M -20.75,274.40001 H 1.2499994 c 1.108,0 2,0.89202 2,2.00001 v 26.00001 c 0,1.10797 -0.892,1.99998 -2,1.99998 H -20.75 c -1.108,0 -2,-0.89201 -2,-1.99998 v -26 c 0,-1.108 0.892,-2.00001 2,-2.00002 z"
         id="rect827-8" /><path
         style="opacity:1;fill:url(#linearGradient938);fill-opacity:1;stroke:none;stroke-width:1.99999988;stroke-linecap:round;stroke-linejoin:round;stroke-miterlimit:4;stroke-dasharray:none;stroke-opacity:1"
         d="M -20.75,275.40003 H 1.2499994 c 0.554,0 1,0.44599 1,1 v 26 c 0,0.55401 -0.446,1 -1,1 H -20.75 c -0.554,0 -1,-0.44599 -1,-1 v -26 c 0,-0.554 0.446,-1 1,-1 z"
         id="rect829-6" /><g
         id="g3510"
         transform="translate(0,0.9999911)"><path
           id="path2779-3"
           style="fill:#395093;fill-opacity:1;stroke:none;stroke-width:2.06559;stroke-linecap:round;stroke-linejoin:round;stroke-miterlimit:1.8;paint-order:stroke fill markers;stop-color:#000000"
           d="m -2.75,280.39999 a 2,2 0 0 0 -2,2 2,2 0 0 0 2,2 2,2 0 0 0 2,-2 2,2 0 0 0 -2,-2 z m -7,2 a 8,8 0 0 0 -8,8 8,8 0 0 0 8,8 8,8 0 0 0 8,-8 8,8 0 0 0 -2.029297,-5.32226 2,2 0 0 1 0.01953,0.12695 2,2 0 0 1 0.0098,0.19531 2,2 0 0 1 -0.06836,0.51758 2,2 0 0 1 -0.199219,0.48242 2,2 0 0 1 -0.318359,0.41407 2,2 0 0 1 -0.414067,0.31836 2,2 0 0 1 -0.482422,0.19921 2,2 0 0 1 -0.517578,0.0684 2,2 0 0 1 -0.517578,-0.0684 2,2 0 0 1 -0.482422,-0.19921 2,2 0 0 1 -0.414063,-0.31836 2,2 0 0 1 -0.318359,-0.41407 2,2 0 0 1 -0.199219,-0.48242 2,2 0 0 1 -0.06836,-0.51758 2,2 0 0 1 0.06836,-0.51757 2,2 0 0 1 0.199219,-0.48243 2,2 0 0 1 0.318359,-0.41406 2,2 0 0 1 0.414063,-0.31836 2,2 0 0 1 0.482422,-0.19922 2,2 0 0 1 0.414062,-0.0547 A 8,8 0 0 0 -9.75,282.39999 Z" /><path
           id="path2779"
           style="opacity:1;fill:url(#linearGradient1422);fill-opacity:1;stroke:none;stroke-width:2.06559;stroke-linecap:round;stroke-linejoin:round;stroke-miterlimit:1.8;paint-order:stroke fill markers;stop-color:#000000"
           d="M -2.75 279.39999 A 2 2 0 0 0 -4.75 281.39999 A 2 2 0 0 0 -2.75 283.39999 A 2 2 0 0 0 -0.75 281.39999 A 2 2 0 0 0 -2.75 279.39999 z M -9.75 281.39999 A 8 8 0 0 0 -17.75 289.39999 A 8 8 0 0 0 -9.75 297.39999 A 8 8 0 0 0 -1.75 289.39999 A 8 8 0 0 0 -3.7792969 284.07773 A 2 2 0 0 1 -3.7597656 284.20468 A 2 2 0 0 1 -3.75 284.39999 A 2 2 0 0 1 -3.8183594 284.91757 A 2 2 0 0 1 -4.0175781 285.39999 A 2 2 0 0 1 -4.3359375 285.81406 A 2 2 0 0 1 -4.75 286.13242 A 2 2 0 0 1 -5.2324219 286.33163 A 2 2 0 0 1 -5.75 286.39999 A 2 2 0 0 1 -6.2675781 286.33163 A 2 2 0 0 1 -6.75 286.13242 A 2 2 0 0 1 -7.1640625 285.81406 A 2 2 0 0 1 -7.4824219 285.39999 A 2 2 0 0 1 -7.6816406 284.91757 A 2 2 0 0 1 -7.75 284.39999 A 2 2 0 0 1 -7.6816406 283.88242 A 2 2 0 0 1 -7.4824219 283.39999 A 2 2 0 0 1 -7.1640625 282.98593 A 2 2 0 0 1 -6.75 282.66757 A 2 2 0 0 1 -6.2675781 282.46835 A 2 2 0 0 1 -5.8535156 282.41367 A 8 8 0 0 0 -9.75 281.39999 z " /></g></g></g></svg>
