<?xml version="1.0" encoding="UTF-8" standalone="no"?>
<svg
   height="32"
   viewBox="0 0 32 32"
   width="32"
   version="1.1"
   id="svg14"
   sodipodi:docname="viewbib.svg"
   xml:space="preserve"
   inkscape:version="1.2.2 (b0a8486541, 2022-12-01)"
   xmlns:inkscape="http://www.inkscape.org/namespaces/inkscape"
   xmlns:sodipodi="http://sodipodi.sourceforge.net/DTD/sodipodi-0.dtd"
   xmlns:xlink="http://www.w3.org/1999/xlink"
   xmlns="http://www.w3.org/2000/svg"
   xmlns:svg="http://www.w3.org/2000/svg"><defs
     id="defs18"><style
       type="text/css"
       id="current-color-scheme">
      .ColorScheme-Text {
        color:#36404d;
      }
      </style><style
       type="text/css"
       id="current-color-scheme-67">
      .ColorScheme-Text {
        color:#122036;
      }
      </style><style
       type="text/css"
       id="current-color-scheme-7">
      .ColorScheme-Text {
        color:#122036;
      }
      </style><style
       type="text/css"
       id="current-color-scheme-5">
      .ColorScheme-Text {
        color:#122036;
      }
      </style><style
       type="text/css"
       id="current-color-scheme-6">
      .ColorScheme-Text {
        color:#122036;
      }
      </style><style
       type="text/css"
       id="current-color-scheme-1">
      .ColorScheme-Text {
        color:#122036;
      }
      </style><style
       id="current-color-scheme-10"
       type="text/css">
      .ColorScheme-Text {
        color:#122036;
      }
      </style><style
       id="current-color-scheme-5-7"
       type="text/css">
      .ColorScheme-Text {
        color:#122036;
      }
      </style><style
       id="current-color-scheme-1-2"
       type="text/css">
      .ColorScheme-Text {
        color:#122036;
      }
      </style><style
       type="text/css"
       id="current-color-scheme-10-9">
      .ColorScheme-Text {
        color:#122036;
      }
      </style><linearGradient
       inkscape:collect="always"
       xlink:href="#linearGradient1698"
       id="linearGradient1700"
       x1="3.999999"
       y1="308.64999"
       x2="3.999999"
       y2="280.64999"
       gradientUnits="userSpaceOnUse" /><linearGradient
       inkscape:collect="always"
       id="linearGradient1698"><stop
         style="stop-color:#5765b3;stop-opacity:1;"
         offset="0"
         id="stop1694" /><stop
         style="stop-color:#7885cb;stop-opacity:1;"
         offset="1"
         id="stop1696" /></linearGradient></defs><sodipodi:namedview
     id="namedview16"
     pagecolor="#ffffff"
     bordercolor="#000000"
     borderopacity="0.25"
     inkscape:showpageshadow="2"
     inkscape:pageopacity="0.0"
     inkscape:pagecheckerboard="0"
     inkscape:deskcolor="#d1d1d1"
     showgrid="true"
     inkscape:zoom="11.346854"
     inkscape:cx="17.00912"
     inkscape:cy="31.286205"
     inkscape:window-width="1517"
     inkscape:window-height="1363"
     inkscape:window-x="0"
     inkscape:window-y="0"
     inkscape:window-maximized="0"
     inkscape:current-layer="svg14"><inkscape:grid
       type="xygrid"
       id="grid2316" /></sodipodi:namedview><g
     transform="translate(12,-278.64999)"
     id="g8"><path
       style="fill:#4a5599;fill-opacity:1"
       d="m -7,279.64999 h 21.999999 c 1.108,0 2,0.892 2,2 v 26 c 0,1.108 -0.892,2 -2,2 H -7 c -1.108,0 -2,-0.892 -2,-2 v -26 c 0,-1.108 0.892,-2 2,-2 z"
       id="path2-3" /><path
       style="fill:url(#linearGradient1700);fill-opacity:1"
       d="m -7,280.64999 h 21.999999 c 0.554,0 1,0.446 1,1 v 26 c 0,0.554 -0.446,1 -1,1 H -7 c -0.554,0 -1,-0.446 -1,-1 v -26 c 0,-0.554 0.446,-1 1,-1 z"
       id="path4-6" /></g><path
     id="path6-7"
     style="fill:#4a5599;fill-opacity:1"
     d="m 8,10 v 2 h 16 v -2 z m 0,4 v 2 h 6 v -2 z m 8,0 v 2 l 3,3 -3,3 v 2 h 8 v -3 h -2 v 1 h -3 l 3,-3 -3,-3 h 3 v 1 h 2 v -3 z m -8,4 v 2 h 6 v -2 z m 0,4 v 2 h 6 v -2 z" /><g
     transform="translate(4 -285.27499)"
     id="g12"><g
       fill="#f0f2fb"
       id="g10"><path
         id="path6"
         style="fill:#e7e8f1;fill-opacity:1"
         d="M 4 294.27499 L 4 296.27499 L 20 296.27499 L 20 294.27499 L 4 294.27499 z M 4 298.27499 L 4 300.27499 L 10 300.27499 L 10 298.27499 L 4 298.27499 z M 12 298.27499 L 12 300.27499 L 15 303.27499 L 12 306.27499 L 12 308.27499 L 20 308.27499 L 20 305.27499 L 18 305.27499 L 18 306.27499 L 15 306.27499 L 18 303.27499 L 15 300.27499 L 18 300.27499 L 18 301.27499 L 20 301.27499 L 20 298.27499 L 12 298.27499 z M 4 302.27499 L 4 304.27499 L 10 304.27499 L 10 302.27499 L 4 302.27499 z M 4 306.27499 L 4 308.27499 L 10 308.27499 L 10 306.27499 L 4 306.27499 z " /></g></g><g
     id="g293"
     transform="translate(27.871471)" /></svg>
