<?xml version="1.0" encoding="UTF-8" standalone="no"?>
<!-- Created with Inkscape (http://www.inkscape.org/) -->

<svg
   width="32"
   height="32"
   viewBox="0 0 8.4666667 8.4666667"
   version="1.1"
   id="svg5"
   inkscape:version="1.2.2 (b0a8486541, 2022-12-01)"
   sodipodi:docname="text-x-python.svg"
   xmlns:inkscape="http://www.inkscape.org/namespaces/inkscape"
   xmlns:sodipodi="http://sodipodi.sourceforge.net/DTD/sodipodi-0.dtd"
   xmlns:xlink="http://www.w3.org/1999/xlink"
   xmlns="http://www.w3.org/2000/svg"
   xmlns:svg="http://www.w3.org/2000/svg">
  <sodipodi:namedview
     id="namedview7"
     pagecolor="#ffffff"
     bordercolor="#9c9c9c"
     borderopacity="0.24705882"
     inkscape:showpageshadow="false"
     inkscape:pageopacity="0.0"
     inkscape:pagecheckerboard="0"
     inkscape:deskcolor="#5e5e5e"
     inkscape:document-units="px"
     showgrid="true"
     inkscape:zoom="20.70196"
     inkscape:cx="36.445825"
     inkscape:cy="18.476512"
     inkscape:window-width="2560"
     inkscape:window-height="1366"
     inkscape:window-x="0"
     inkscape:window-y="0"
     inkscape:window-maximized="1"
     inkscape:current-layer="layer1">
    <inkscape:grid
       type="xygrid"
       id="grid132"
       originx="0"
       originy="0" />
  </sodipodi:namedview>
  <defs
     id="defs2">
    <linearGradient
       gradientTransform="matrix(3.7795275,0,0,3.7795275,-83.999999,-803.86971)"
       inkscape:collect="always"
       xlink:href="#linearGradient4846"
       id="linearGradient837-3"
       x1="4.2333336"
       y1="296.20624"
       x2="4.2333331"
       y2="289.19476"
       gradientUnits="userSpaceOnUse" />
    <linearGradient
       id="linearGradient4846"
       inkscape:collect="always">
      <stop
         id="stop4842"
         offset="0"
         style="stop-color:#e4efef;stop-opacity:1" />
      <stop
         id="stop4844"
         offset="1"
         style="stop-color:#fcfcfc;stop-opacity:1" />
    </linearGradient>
    <linearGradient
       inkscape:collect="always"
       xlink:href="#linearGradient1868"
       id="linearGradient1870"
       x1="13.478518"
       y1="10.11328"
       x2="13.478518"
       y2="-0.88672"
       gradientUnits="userSpaceOnUse" />
    <linearGradient
       inkscape:collect="always"
       id="linearGradient1868">
      <stop
         style="stop-color:#3471f0;stop-opacity:1;"
         offset="0"
         id="stop1864" />
      <stop
         style="stop-color:#5694fb;stop-opacity:1;"
         offset="1"
         id="stop1866" />
    </linearGradient>
    <linearGradient
       inkscape:collect="always"
       xlink:href="#linearGradient3564"
       id="linearGradient3566"
       x1="19.478518"
       y1="14.11328"
       x2="19.478518"
       y2="3.1132801"
       gradientUnits="userSpaceOnUse" />
    <linearGradient
       inkscape:collect="always"
       id="linearGradient3564">
      <stop
         style="stop-color:#fac500;stop-opacity:1;"
         offset="0"
         id="stop3560" />
      <stop
         style="stop-color:#ffe200;stop-opacity:1;"
         offset="1"
         id="stop3562" />
    </linearGradient>
  </defs>
  <g
     inkscape:label="Capa 1"
     inkscape:groupmode="layer"
     id="layer1">
    <g
       id="g5127"
       transform="translate(-13.229167,-7.9375001)">
      <g
         id="g4255"
         transform="matrix(0.26458333,0,0,0.26458333,13.229167,7.9375002)">
        <g
           id="g5329"
           transform="translate(84,-286.64999)">
          <path
             style="opacity:1;fill:#90a4ae;fill-opacity:1;stroke:none;stroke-width:2;stroke-linecap:round;stroke-linejoin:round;stroke-miterlimit:4;stroke-dasharray:none;stroke-opacity:1"
             d="M -78.999999,287.64999 H -57 c 1.108,0 2,0.89202 2,2.00001 v 26.00001 c 0,1.10797 -0.892,1.99998 -2,1.99998 h -21.999999 c -1.108,0 -2,-0.89201 -2,-1.99998 v -26 c 0,-1.108 0.892,-2 2,-2.00002 z"
             id="rect827-8" />
          <path
             style="opacity:1;fill:url(#linearGradient837-3);fill-opacity:1;stroke:none;stroke-width:2;stroke-linecap:round;stroke-linejoin:round;stroke-miterlimit:4;stroke-dasharray:none;stroke-opacity:1"
             d="M -78.999999,288.65001 H -57 c 0.554,0 1,0.44599 1,1 v 26 c 0,0.55401 -0.446,1 -1,1 h -21.999999 c -0.554,0 -1,-0.44599 -1,-1 v -26 c 0,-0.55399 0.446,-1 1,-1 z"
             id="rect829-6" />
        </g>
        <g
           transform="translate(84,-286.64999)"
           id="g10">
          <path
             id="path388"
             style="fill:#d0dcdf;fill-opacity:1"
             d="m -78.999095,288.65024 c -0.553946,0 -1,0.44607 -1,1 v 2 1 h 1 2 1 v -1 -2 -1 h -1 z m 3,4 v 4 h 4 v -4 z m 4,0 h 4 v -4 h -4 z m 4,0 v 4 h 4 v -4 z m 4,0 h 4 v -4 h -4 z m 4,0 v 4 h 4 v -4 z m 0,4 h -4 v 4 h 4 z m 0,4 v 4 h 4 v -4 z m 0,4 h -4 v 4 h 4 z m 0,4 v 1 2 1 h 3 1 v -1 -3 z m 0,4 h -4 v 4 h 4 z m -4,0 v -4 h -4 v 4 z m -4,0 h -4 v 4 h 4 z m -4,0 v -4 h -4 v 4 z m -4,0 h -4 v 3 c 0,0 -0.0037,1 1,1 h 3 z m 0,-4 v -4 h -4 v 4 z m 0,-4 h 4 v -4 h -4 z m 0,-4 v -4 h -4 v 4 z m 4,0 h 4 v -4 h -4 z m 4,0 v 4 h 4 v -4 z m 0,4 h -4 v 4 h 4 z" />
        </g>
      </g>
      <path
         id="path10-3"
         style="fill:#90a4ae;fill-opacity:1;stroke-width:0.264583"
         d="m 17.197917,10.054167 c -0.581738,0 -1.058333,0.476595 -1.058333,1.058333 -0.581739,0 -1.058334,0.476595 -1.058334,1.058333 V 12.7 c 0,0.581738 0.476595,1.058333 1.058334,1.058333 0,0.515369 0.370917,0.948942 0.862996,1.040247 h 5.29e-4 c 0.06334,0.01175 0.128412,0.01809 0.194808,0.01809 h 0.529167 c 0.581738,0 1.058333,-0.476595 1.058333,-1.058334 0.581738,0 1.058333,-0.476595 1.058333,-1.058333 v -0.529167 c 0,-0.581738 -0.476595,-1.058333 -1.058333,-1.058333 0,-0.515368 -0.371435,-0.949458 -0.863513,-1.040763 -0.06336,-0.01175 -0.128424,-0.01757 -0.19482,-0.01757 z"
         sodipodi:nodetypes="scsscccsscssccss" />
      <g
         stroke-linecap="round"
         stroke-linejoin="round"
         stroke-miterlimit="1.8"
         transform="matrix(0.26458333,0,0,0.26458333,12.308809,10.288778)"
         id="g22">
        <g
           id="g14">
          <path
             style="fill:#3b61af;fill-opacity:1"
             d="M 20.847656,-0.01953125 A 1.0001,1.0001 0 0 0 21.144531,0.140625 l -0.292969,0.005859 c 0.930348,0.17262644 1.626954,0.970039 1.626954,1.9667973 v 1.9999999 1 c 0,0.040369 -9.44e-4,0.074157 -0.0039,0.1035157 -0.0024,0.024045 -0.009,0.057414 -0.01758,0.099609 -0.007,0.034424 -0.01416,0.065751 -0.02344,0.095703 -0.01122,0.036225 -0.02254,0.066489 -0.0332,0.091797 -0.01398,0.033169 -0.02793,0.06375 -0.04102,0.087891 -0.0149,0.027503 -0.03192,0.052119 -0.05078,0.080078 -0.01779,0.026367 -0.03646,0.053644 -0.05664,0.078125 -0.02328,0.028236 -0.04547,0.053283 -0.06445,0.072266 -0.01903,0.019033 -0.04408,0.04121 -0.07227,0.064453 -0.02443,0.020146 -0.04979,0.038846 -0.07617,0.056641 -0.02798,0.01887 -0.05457,0.033949 -0.08203,0.048828 a 1.0001,1.0001 0 0 0 0,0.00195 c -0.02419,0.013109 -0.05472,0.027031 -0.08789,0.041016 -0.02519,0.010618 -0.05547,0.021951 -0.0918,0.033203 -0.02996,0.00928 -0.05937,0.016438 -0.09375,0.023437 -0.04226,0.0086 -0.07559,0.013202 -0.09961,0.015625 a 1.0001,1.0001 0 0 0 -0.002,0 c -0.02887,0.00292 -0.06276,0.00586 -0.103515,0.00586 h -4 c -0.09784,0 -0.198964,0.00301 -0.304688,0.013672 -0.110704,0.011176 -0.210628,0.02892 -0.298828,0.046875 -0.09603,0.01955 -0.19359,0.044647 -0.289063,0.074219 -0.08911,0.027598 -0.180883,0.05977 -0.27539,0.099609 -0.08654,0.036483 -0.174504,0.078637 -0.263672,0.1269532 -0.08589,0.04654 -0.167661,0.095533 -0.246094,0.1484375 -0.08003,0.053975 -0.15817,0.1126005 -0.232422,0.1738281 -0.0705,0.058136 -0.141557,0.1220309 -0.21289,0.1933594 -0.07132,0.071319 -0.135169,0.1423137 -0.19336,0.2128906 -0.06122,0.074246 -0.119849,0.1504354 -0.173828,0.2304687 -0.05288,0.078407 -0.101904,0.1621811 -0.148437,0.2480469 -0.04826,0.089075 -0.09044,0.1770367 -0.126953,0.2636719 -0.03988,0.094578 -0.07202,0.1863039 -0.09961,0.2753906 -0.02956,0.095455 -0.05467,0.1911076 -0.07422,0.2871094 -0.01797,0.088236 -0.03375,0.18808 -0.04492,0.2988281 -0.01064,0.1054349 -0.01563,0.2085099 -0.01563,0.3066407 v 1 c -1.125282,0 -2,-0.8747184 -2,-2 V 6.1132812 c 0,-1.1252816 0.874718,-2 2,-2 h 1 4 a 1.0001,1.0001 0 0 0 1,-0.9999999 v -1 a 1.0001,1.0001 0 0 0 -1,-1.0000001 h -2.59375 c 0.348803,-0.5653469 0.864125,-0.99999995 1.59375,-0.99999995 h 2 c 0.128424,0 0.252946,0.0109278 0.373046,0.0332031 z"
             id="path256" />
          <path
             style="fill:#3b61af;fill-opacity:1"
             d="m 18.478516,-1.8867187 c -2.198698,0 -4,1.80130139 -4,4 -2.198699,0 -4,1.8013019 -4,3.9999999 v 2.0000001 c 0,2.1986977 1.801301,3.9999997 4,3.9999997 h 1 a 1.0001,1.0001 0 0 0 1,-1 V 9.1132813 c 0,-0.040369 9.44e-4,-0.07611 0.0039,-0.1054688 0.0024,-0.024046 0.009,-0.057416 0.01758,-0.099609 0.007,-0.034426 0.01416,-0.065755 0.02344,-0.095703 0.01125,-0.036317 0.0226,-0.064704 0.0332,-0.089844 0.01394,-0.033083 0.02785,-0.063594 0.04102,-0.087891 0.01491,-0.027506 0.02997,-0.054072 0.04883,-0.082031 0.01776,-0.026335 0.03843,-0.05367 0.05859,-0.078125 0.02319,-0.028125 0.0454,-0.051258 0.06445,-0.070312 0.01905,-0.019046 0.04407,-0.041201 0.07227,-0.064453 0.02445,-0.02016 0.04983,-0.040829 0.07617,-0.058594 0.02793,-0.018838 0.05455,-0.033935 0.08203,-0.048828 0.02421,-0.01312 0.05472,-0.028984 0.08789,-0.042969 0.02521,-0.010628 0.05355,-0.020008 0.08984,-0.03125 0.02993,-0.00927 0.0613,-0.018387 0.0957,-0.025391 0.04224,-0.0086 0.07552,-0.013193 0.09961,-0.015625 0.02908,-0.00293 0.06481,-0.00391 0.105469,-0.00391 h 4 c 0.09774,0 0.198765,-0.00492 0.304687,-0.015625 0.110784,-0.011177 0.210656,-0.028924 0.298828,-0.046875 0.09606,-0.019555 0.191665,-0.042703 0.28711,-0.072266 0.08907,-0.02759 0.182813,-0.061713 0.277343,-0.1015625 0.08655,-0.036484 0.174492,-0.076675 0.263672,-0.125 0.08592,-0.046557 0.167704,-0.097519 0.246094,-0.1503906 0.07998,-0.053947 0.158151,-0.1106319 0.232422,-0.171875 0.07051,-0.058145 0.141547,-0.1220174 0.21289,-0.1933594 0.0714,-0.071391 0.135252,-0.1443794 0.19336,-0.2148437 0.0612,-0.074221 0.117912,-0.1504689 0.171875,-0.2304688 0.05288,-0.078407 0.103855,-0.1602241 0.15039,-0.2460937 0.04836,-0.089231 0.09047,-0.1771226 0.126954,-0.2636719 0.03979,-0.09441 0.07199,-0.1881645 0.09961,-0.2773438 0.02956,-0.095452 0.05467,-0.1911042 0.07422,-0.2871093 0.01797,-0.088235 0.03375,-0.1880789 0.04492,-0.2988282 0.01064,-0.105435 0.01563,-0.2065568 0.01563,-0.3046875 v -1 -1.9999999 c 0,-1.94784914 -1.403845,-3.5885027 -3.263672,-3.9335938 -0.239456,-0.044413 -0.485381,-0.066406 -0.736328,-0.066406 z"
             id="path10" />
          <path
             style="fill:url(#linearGradient1870);fill-opacity:1"
             d="m 18.478368,-0.88738 c -1.661991,0 -3,1.3380083 -3,3 h 4 v 1 h -4 -1 c -1.661992,0 -3,1.3380085 -3,3 v 2 c 0,1.6619915 1.338008,3 3,3 h 1 v -2 c 0,-0.06925 0.003,-0.1376811 0.0098,-0.2050781 0.0068,-0.067397 0.01797,-0.134004 0.03125,-0.1992188 0.01328,-0.065214 0.02941,-0.1287045 0.04883,-0.1914062 0.01942,-0.062702 0.04117,-0.1237345 0.06641,-0.1835938 0.02523,-0.059859 0.05327,-0.1190951 0.08398,-0.1757812 0.03072,-0.056686 0.06374,-0.1108793 0.09961,-0.1640625 0.03587,-0.053184 0.07454,-0.1049464 0.115234,-0.1542969 0.04069,-0.049351 0.08372,-0.097391 0.128907,-0.1425781 0.04519,-0.045187 0.09323,-0.088212 0.142578,-0.1289063 0.04935,-0.040694 0.101113,-0.079364 0.154297,-0.1152343 0.05318,-0.035871 0.107376,-0.068892 0.164062,-0.099609 0.05669,-0.030718 0.115922,-0.05875 0.175781,-0.083984 0.05986,-0.025234 0.120892,-0.046986 0.183594,-0.066406 0.0627,-0.019421 0.126192,-0.035551 0.191406,-0.048828 0.06522,-0.013277 0.131822,-0.024446 0.199219,-0.03125 0.0674,-0.0068 0.135829,-0.00977 0.205078,-0.00977 h 4 c 0.06925,0 0.137681,-0.00296 0.205078,-0.00977 0.0674,-0.0068 0.134004,-0.017973 0.199219,-0.03125 0.06522,-0.013277 0.128704,-0.029407 0.191406,-0.048828 0.0627,-0.019421 0.123735,-0.041172 0.183594,-0.066406 0.05986,-0.025234 0.119095,-0.053267 0.175781,-0.083984 0.05669,-0.030718 0.110879,-0.063738 0.164063,-0.099609 0.05318,-0.035871 0.104946,-0.07454 0.154297,-0.1152344 0.04935,-0.040694 0.09739,-0.083719 0.142578,-0.1289063 0.04519,-0.045187 0.08821,-0.093228 0.128906,-0.1425781 0.04069,-0.049351 0.07936,-0.1011134 0.115234,-0.1542969 0.03587,-0.053183 0.06889,-0.107376 0.09961,-0.1640625 0.03072,-0.056686 0.05875,-0.115922 0.08398,-0.1757812 0.02523,-0.059859 0.04699,-0.1208917 0.06641,-0.1835938 0.01942,-0.062702 0.03555,-0.1261916 0.04883,-0.1914062 0.01328,-0.065215 0.02445,-0.1318214 0.03125,-0.1992188 0.0068,-0.067397 0.0098,-0.1358283 0.0098,-0.2050781 v -1 -2 c 0,-1.47230514 -1.050223,-2.69035991 -2.445312,-2.94921875 -0.0509,0.0114969 -0.101071,0.0237863 -0.150391,0.0390625 0.04932,-0.0152762 0.09949,-0.0275656 0.150391,-0.0390625 -0.179778,-0.033344 -0.365041,-0.0507747 -0.554727,-0.0507747 z"
             id="path12" />
        </g>
        <g
           id="g20">
          <path
             style="fill:#ff9600;fill-opacity:0.960784"
             d="m 24.478516,4.1132812 c 1.125282,0 2,0.8747191 2,2 v 2.0000001 c 0,1.1252816 -0.874718,1.9999997 -2,1.9999997 h -1 -4 a 1.0001,1.0001 0 0 0 -1,1 v 1 a 1.0001,1.0001 0 0 0 1,1 h 2.59375 c -0.348804,0.565347 -0.864125,1 -1.59375,1 h -2 c -0.128427,0 -0.252936,-0.01288 -0.373047,-0.03516 l 0.002,0.06836 a 1.0001,1.0001 0 0 0 -0.267578,-0.0625 l 0.265625,-0.0059 c -0.930348,-0.172626 -1.626953,-0.968084 -1.626953,-1.964844 v -2 -0.9999997 c 0,-0.040369 9.44e-4,-0.07611 0.0039,-0.1054688 0.0024,-0.024045 0.009,-0.057414 0.01758,-0.099609 0.007,-0.034424 0.01416,-0.065751 0.02344,-0.095703 0.01122,-0.036225 0.02254,-0.064536 0.0332,-0.089844 0.01398,-0.033169 0.02793,-0.06375 0.04102,-0.087891 0.0149,-0.027503 0.02997,-0.054072 0.04883,-0.082031 0.01779,-0.026367 0.03841,-0.053644 0.05859,-0.078125 0.02328,-0.028236 0.04547,-0.05133 0.06445,-0.070312 0.01903,-0.019033 0.04408,-0.04121 0.07227,-0.064453 0.02443,-0.020146 0.04979,-0.040799 0.07617,-0.058594 0.02798,-0.01887 0.05457,-0.033949 0.08203,-0.048828 0.02419,-0.013109 0.05472,-0.028984 0.08789,-0.042969 0.02519,-0.010618 0.05352,-0.019998 0.08984,-0.03125 0.02996,-0.00928 0.06132,-0.018391 0.0957,-0.025391 0.04226,-0.0086 0.07559,-0.013202 0.09961,-0.015625 0.02887,-0.00292 0.06471,-0.00391 0.105469,-0.00391 h 4 c 0.09784,0 0.198964,-0.00496 0.304687,-0.015625 0.110704,-0.011176 0.210628,-0.02892 0.298828,-0.046875 0.09603,-0.019551 0.191637,-0.042694 0.28711,-0.072266 0.08911,-0.027598 0.182836,-0.061723 0.277343,-0.1015625 0.08654,-0.036483 0.174505,-0.076684 0.263672,-0.125 0.08589,-0.04654 0.167662,-0.097486 0.246094,-0.1503906 0.08003,-0.053975 0.158171,-0.1106474 0.232422,-0.171875 0.0705,-0.058136 0.141557,-0.1220309 0.21289,-0.1933594 0.07132,-0.071319 0.135169,-0.1442668 0.19336,-0.2148437 0.06122,-0.074246 0.117896,-0.1504355 0.171875,-0.2304688 0.05288,-0.078407 0.103857,-0.1602279 0.15039,-0.2460937 0.04826,-0.089075 0.09044,-0.1770367 0.126954,-0.2636719 0.03988,-0.094578 0.07202,-0.188257 0.09961,-0.2773438 0.02956,-0.095455 0.05467,-0.1911075 0.07422,-0.2871093 0.01797,-0.088236 0.03375,-0.18808 0.04492,-0.2988282 0.01064,-0.1054348 0.01563,-0.2065567 0.01563,-0.3046875 z"
             id="path287" />
          <path
             style="fill:#ff9600;fill-opacity:0.960784"
             d="m 23.478516,2.1132813 a 1.0001,1.0001 0 0 0 -1,1 v 1.9999999 c 0,0.040369 -0.0029,0.074157 -0.0059,0.1035157 -0.0024,0.024046 -0.007,0.057416 -0.01563,0.099609 -0.007,0.034426 -0.01416,0.065755 -0.02344,0.095703 -0.01125,0.036317 -0.0226,0.066657 -0.0332,0.091797 -0.01394,0.033083 -0.02785,0.063593 -0.04102,0.087891 -0.01491,0.027506 -0.03192,0.052119 -0.05078,0.080078 -0.01776,0.026335 -0.03648,0.05367 -0.05664,0.078125 -0.02319,0.028125 -0.0454,0.053211 -0.06445,0.072266 -0.01905,0.019046 -0.04407,0.041201 -0.07227,0.064453 -0.02445,0.02016 -0.04983,0.038876 -0.07617,0.056641 -0.02793,0.018838 -0.05455,0.035888 -0.08203,0.050781 -0.02421,0.01312 -0.05472,0.027031 -0.08789,0.041016 -0.02521,0.010628 -0.0555,0.021961 -0.0918,0.033203 -0.02993,0.00927 -0.05935,0.016434 -0.09375,0.023437 -0.04224,0.0086 -0.07747,0.013193 -0.101563,0.015625 -0.02875,0.00284 -0.06361,0.00586 -0.103515,0.00586 h -4 c -0.09775,0 -0.200719,0.00297 -0.306641,0.013672 -0.109933,0.011182 -0.209265,0.029039 -0.296875,0.046875 -0.09606,0.019555 -0.193618,0.044656 -0.289063,0.074219 -0.08907,0.02759 -0.18086,0.059759 -0.27539,0.099609 -0.08655,0.036484 -0.174492,0.078628 -0.263672,0.1269532 -0.08592,0.046557 -0.167704,0.095566 -0.246094,0.1484375 -0.07998,0.053947 -0.158151,0.112585 -0.232422,0.1738281 -0.07051,0.058145 -0.141547,0.1220174 -0.21289,0.1933594 -0.0714,0.071391 -0.135252,0.1424263 -0.19336,0.2128906 -0.06119,0.074221 -0.119865,0.1504689 -0.173828,0.2304687 -0.05288,0.078407 -0.101902,0.1621773 -0.148437,0.2480469 -0.04836,0.089231 -0.09047,0.1771226 -0.126953,0.2636719 -0.03979,0.09441 -0.07199,0.1862114 -0.09961,0.2753906 -0.02956,0.095452 -0.05467,0.1930574 -0.07422,0.2890625 -0.01797,0.088235 -0.0357,0.1861258 -0.04687,0.296875 -0.01064,0.1054351 -0.01367,0.20851 -0.01367,0.3066407 v 1 2 c 0,1.94785 1.401891,3.58655 3.261718,3.931641 a 1.0001,1.0001 0 0 0 0.002,0 c 0.239445,0.04441 0.485384,0.06836 0.736329,0.06836 h 2 c 2.198697,0 4,-1.801301 4,-4 2.198698,0 4,-1.801302 4,-4 V 6.1132812 c 0,-2.1986976 -1.801302,-3.9999999 -4,-3.9999999 z"
             id="path16" />
          <path
             style="fill:url(#linearGradient3566);fill-opacity:1"
             d="m 20.478368,15.11262 c 1.661991,0 3,-1.338008 3,-3 h -4 v -1 h 4 1 c 1.661992,0 3,-1.3380085 3,-3 v -2 c 0,-1.661991 -1.338008,-3 -3,-3 h -1 v 2 c 0,0.06925 -0.003,0.1376811 -0.0098,0.2050781 -0.0068,0.067397 -0.01797,0.134004 -0.03125,0.1992188 -0.01328,0.065214 -0.02941,0.1287045 -0.04883,0.1914062 -0.01942,0.062702 -0.04117,0.1237345 -0.06641,0.1835938 -0.02523,0.059859 -0.05327,0.1190951 -0.08398,0.1757812 -0.03072,0.056686 -0.06374,0.1108793 -0.09961,0.1640625 -0.03587,0.053184 -0.07454,0.1049464 -0.115234,0.1542969 -0.04069,0.049351 -0.08372,0.097391 -0.128907,0.1425781 -0.04519,0.045187 -0.09323,0.088212 -0.142578,0.1289063 -0.04935,0.040694 -0.101113,0.079364 -0.154297,0.1152343 -0.05318,0.035871 -0.107376,0.068892 -0.164062,0.099609 -0.05669,0.030718 -0.115922,0.05875 -0.175781,0.083984 -0.05986,0.025234 -0.120892,0.046986 -0.183594,0.066406 -0.0627,0.019421 -0.126192,0.035551 -0.191406,0.048828 -0.06522,0.013277 -0.131822,0.024446 -0.199219,0.03125 -0.0674,0.0068 -0.135829,0.00977 -0.205078,0.00977 h -4 c -0.06925,0 -0.137681,0.00296 -0.205078,0.00977 -0.0674,0.0068 -0.134004,0.017973 -0.199219,0.03125 -0.06522,0.013277 -0.128704,0.029407 -0.191406,0.048828 -0.0627,0.019421 -0.123735,0.041172 -0.183594,0.066406 -0.05986,0.025234 -0.119095,0.053267 -0.175781,0.083984 -0.05669,0.030718 -0.110879,0.063738 -0.164063,0.099609 -0.05318,0.035871 -0.104946,0.07454 -0.154297,0.1152344 -0.04935,0.040694 -0.09739,0.083719 -0.142578,0.1289063 -0.04519,0.045187 -0.08821,0.093228 -0.128906,0.1425781 -0.04069,0.049351 -0.07936,0.1011134 -0.115234,0.1542969 -0.03587,0.053183 -0.06889,0.107376 -0.09961,0.1640625 -0.03072,0.056686 -0.05875,0.115922 -0.08398,0.1757812 -0.02523,0.059859 -0.04699,0.1208917 -0.06641,0.1835938 -0.01942,0.062702 -0.03555,0.1261916 -0.04883,0.1914062 -0.01328,0.065215 -0.02445,0.1318214 -0.03125,0.1992188 -0.0068,0.067397 -0.0098,0.1358283 -0.0098,0.2050781 v 1.0000005 1.999999 c 0,1.472306 1.050223,2.69036 2.445312,2.949219 0.0509,-0.0115 0.101071,-0.02379 0.150391,-0.03906 -0.04932,0.01528 -0.09949,0.02756 -0.150391,0.03906 0.179778,0.03334 0.365041,0.05077 0.554727,0.05077 z"
             id="path18" />
        </g>
      </g>
    </g>
  </g>
</svg>
