<?xml version="1.0" encoding="UTF-8" standalone="no"?>
<!-- Created with Inkscape (http://www.inkscape.org/) -->

<svg
   width="32"
   height="32"
   viewBox="0 0 32 32"
   version="1.1"
   id="svg8"
   inkscape:version="1.2.2 (b0a8486541, 2022-12-01)"
   sodipodi:docname="text-x-cmake.svg"
   xml:space="preserve"
   xmlns:inkscape="http://www.inkscape.org/namespaces/inkscape"
   xmlns:sodipodi="http://sodipodi.sourceforge.net/DTD/sodipodi-0.dtd"
   xmlns:xlink="http://www.w3.org/1999/xlink"
   xmlns="http://www.w3.org/2000/svg"
   xmlns:svg="http://www.w3.org/2000/svg"
   xmlns:rdf="http://www.w3.org/1999/02/22-rdf-syntax-ns#"
   xmlns:cc="http://creativecommons.org/ns#"
   xmlns:dc="http://purl.org/dc/elements/1.1/"><title
     id="title7895">Antu icon Theme</title><defs
     id="defs2"><linearGradient
       inkscape:collect="always"
       id="linearGradient5470"><stop
         style="stop-color:#75dd23;stop-opacity:1;"
         offset="0"
         id="stop5466" /><stop
         style="stop-color:#92e620;stop-opacity:1;"
         offset="1"
         id="stop5468" /></linearGradient><linearGradient
       inkscape:collect="always"
       id="linearGradient3875"><stop
         style="stop-color:#1a86f2;stop-opacity:1;"
         offset="0"
         id="stop3871" /><stop
         style="stop-color:#2db1fa;stop-opacity:1;"
         offset="1"
         id="stop3873" /></linearGradient><linearGradient
       inkscape:collect="always"
       id="linearGradient2556"><stop
         style="stop-color:#f34242;stop-opacity:1;"
         offset="0"
         id="stop2552" /><stop
         style="stop-color:#ff6767;stop-opacity:1;"
         offset="1"
         id="stop2554" /></linearGradient><linearGradient
       gradientUnits="userSpaceOnUse"
       y2="289.59164"
       x2="4.2333336"
       y1="296.20624"
       x1="4.2333336"
       id="linearGradient837"
       xlink:href="#linearGradient1143"
       inkscape:collect="always"
       gradientTransform="matrix(3.7795275,0,0,3.7795275,-28,-825.61971)" /><linearGradient
       inkscape:collect="always"
       id="linearGradient1143"><stop
         style="stop-color:#f1efea;stop-opacity:1"
         offset="0"
         id="stop1139" /><stop
         style="stop-color:#fcfcfc;stop-opacity:1"
         offset="1"
         id="stop1141" /></linearGradient><linearGradient
       inkscape:collect="always"
       xlink:href="#linearGradient2556"
       id="linearGradient2558"
       x1="16"
       y1="302.64999"
       x2="16"
       y2="291.64999"
       gradientUnits="userSpaceOnUse" /><linearGradient
       inkscape:collect="always"
       xlink:href="#linearGradient3875"
       id="linearGradient3877"
       x1="15"
       y1="301.64999"
       x2="15"
       y2="292.64999"
       gradientUnits="userSpaceOnUse" /><linearGradient
       inkscape:collect="always"
       xlink:href="#linearGradient5470"
       id="linearGradient5472"
       x1="14"
       y1="305.64999"
       x2="14"
       y2="302.64999"
       gradientUnits="userSpaceOnUse" /></defs><sodipodi:namedview
     id="base"
     pagecolor="#ffffff"
     bordercolor="#666666"
     borderopacity="1.0"
     inkscape:pageopacity="0.0"
     inkscape:pageshadow="2"
     inkscape:zoom="32"
     inkscape:cx="15.890625"
     inkscape:cy="18.875"
     inkscape:document-units="px"
     inkscape:current-layer="layer1"
     showgrid="true"
     units="px"
     inkscape:window-width="2560"
     inkscape:window-height="1363"
     inkscape:window-x="0"
     inkscape:window-y="0"
     inkscape:window-maximized="1"
     objecttolerance="10"
     gridtolerance="10"
     guidetolerance="10"
     inkscape:showpageshadow="2"
     inkscape:pagecheckerboard="0"
     inkscape:deskcolor="#d1d1d1"><inkscape:grid
       type="xygrid"
       id="grid7897"
       empspacing="4" /></sodipodi:namedview><metadata
     id="metadata5"><rdf:RDF><cc:Work
         rdf:about=""><dc:format>image/svg+xml</dc:format><dc:type
           rdf:resource="http://purl.org/dc/dcmitype/StillImage" /><dc:title>Antu icon Theme</dc:title></cc:Work></rdf:RDF></metadata><g
     inkscape:label="Capa 1"
     inkscape:groupmode="layer"
     id="layer1"
     transform="translate(0,-282.64999)"><g
       inkscape:label="Capa 1"
       id="layer1-6"><g
         id="g1507"
         transform="translate(28,17.75)"><path
           style="opacity:1;fill:#90a4ae;fill-opacity:1;stroke:none;stroke-width:2;stroke-linecap:round;stroke-linejoin:round;stroke-miterlimit:4;stroke-dasharray:none;stroke-opacity:1"
           d="m -23,265.89999 h 21.9999995 c 1.108,0 2,0.892 2,2 v 26 c 0,1.108 -0.892,2 -2,2 H -23 c -1.108,0 -2,-0.892 -2,-2 v -26 c 0,-1.108 0.892,-2 2,-2 z"
           id="rect827" /><path
           style="opacity:1;fill:url(#linearGradient837);fill-opacity:1;stroke:none;stroke-width:2;stroke-linecap:round;stroke-linejoin:round;stroke-miterlimit:4;stroke-dasharray:none;stroke-opacity:1"
           d="m -23,266.89999 h 21.9999995 c 0.554,0 1,0.446 1,1 v 26 c 0,0.554 -0.446,1 -1,1 H -23 c -0.553999,0 -1,-0.446 -1,-1 v -26 c 0,-0.554 0.446001,-1 1,-1 z"
           id="rect829" /></g></g><path
       style="fill:#d6dbdb;fill-opacity:1"
       d="M 16,300.65002 H 12 V 304.65 h 4 z"
       id="path399" /><path
       style="fill:#d6dbdb;fill-opacity:1"
       d="m 16,296.64999 v 4.00003 h 4 v -4.00003 z"
       id="path397" /><path
       style="fill:#d6dbdb;fill-opacity:1"
       d="m 12,296.64999 h 4 V 292.65 h -4 z"
       id="path395" /><path
       style="fill:#d6dbdb;fill-opacity:1"
       d="M 8,296.64999 V 292.65 H 4 v 3.99999 z"
       id="path393" /><path
       style="fill:#d6dbdb;fill-opacity:1"
       d="m 8,300.65002 h 4 v -4.00003 H 8 Z"
       id="path391" /><path
       style="fill:#d6dbdb;fill-opacity:1"
       d="m 8,304.65 v -3.99998 H 4 V 304.65 Z"
       id="path389" /><path
       style="fill:#d6dbdb;fill-opacity:1"
       d="M 12,308.64999 V 304.65 H 8 v 3.99999 z"
       id="path385" /><path
       style="fill:#d6dbdb;fill-opacity:1"
       d="m 16,308.64999 h -4 v 4.00003 h 4 z"
       id="path383" /><path
       style="fill:#d6dbdb;fill-opacity:1"
       d="M 20,308.64999 V 304.65 h -4 v 3.99999 z"
       id="path381" /><path
       style="fill:#d6dbdb;fill-opacity:1"
       d="m 24,308.64999 h -4 v 4.00003 h 4 z"
       id="path379" /><path
       style="fill:#d6dbdb;fill-opacity:1"
       d="m 24,304.65 v 0.99999 2.00001 0.99999 h 3 1 v -0.99999 -3 z"
       id="path377" /><path
       style="fill:#d6dbdb;fill-opacity:1"
       d="M 24,300.65002 H 20 V 304.65 h 4 z"
       id="path375" /><path
       style="fill:#d6dbdb;fill-opacity:1"
       d="m 24,296.64999 v 4.00003 h 4 v -4.00003 z"
       id="path373" /><path
       style="fill:#d6dbdb;fill-opacity:1"
       d="m 24,292.65 h -4 v 3.99999 h 4 z"
       id="path371" /><path
       style="fill:#d6dbdb;fill-opacity:1"
       d="M 24,288.65002 V 292.65 h 4 v -3.99998 z"
       id="path369" /><path
       style="fill:#d6dbdb;fill-opacity:1"
       d="m 20,288.65002 h 4 v -4.00003 h -4 z"
       id="path367" /><path
       style="fill:#d6dbdb;fill-opacity:1"
       d="M 16,288.65002 V 292.65 h 4 v -3.99998 z"
       id="path365" /><path
       style="fill:#d6dbdb;fill-opacity:1"
       d="m 12,288.65002 h 4 v -4.00003 h -4 z"
       id="path363" /><path
       style="fill:#d6dbdb;fill-opacity:1"
       d="M 8,288.65002 V 292.65 h 4 v -3.99998 z"
       id="path361" /><path
       style="fill:#d6dbdb;fill-opacity:1"
       d="m 5,284.64999 c -0.553947,0 -1,0.4461 -1,1.00003 v 1.99997 1.00003 h 1 2 1 v -1.00003 -1.99997 -1.00003 H 7 Z"
       id="path6" /><path
       style="fill:#d6dbdb;fill-opacity:1"
       d="m 5,312.65002 c -0.553947,0 -1,-0.4461 -1,-1.00003 v -1.99997 -1.00003 h 1 2 1 v 1.00003 1.99997 1.00003 H 7 Z"
       id="path6-3" /><path
       id="path1478-1"
       style="color:#000000;fill:#bcc6ca;fill-opacity:1;stroke-linecap:round;stroke-linejoin:round;stroke-miterlimit:1.8;paint-order:stroke fill markers"
       d="m 15.940645,291.65094 c -0.0072,4.5e-4 -0.01432,0.003 -0.02148,0.004 -0.03308,0.003 -0.06523,0.008 -0.09766,0.0137 -0.0169,0.003 -0.0339,0.004 -0.05078,0.008 -0.0061,10e-4 -0.0115,0.004 -0.01758,0.006 -0.03132,0.008 -0.06149,0.0183 -0.0918,0.0293 -0.0224,0.008 -0.04485,0.0158 -0.06641,0.0254 -0.03659,0.0163 -0.07105,0.0361 -0.105469,0.0566 -0.01143,0.007 -0.02404,0.0123 -0.03516,0.0195 -0.02939,0.0192 -0.05666,0.0422 -0.08398,0.0645 -0.01691,0.0138 -0.03485,0.0261 -0.05078,0.041 -0.02231,0.0208 -0.04204,0.0435 -0.0625,0.0664 -0.01655,0.0185 -0.03371,0.037 -0.04883,0.0566 -0.01873,0.0245 -0.03419,0.0517 -0.05078,0.0781 -0.01269,0.0202 -0.02586,0.0395 -0.03711,0.0605 -0.004,0.008 -0.0098,0.0138 -0.01367,0.0215 l -6.9687454,13.93914 c -0.042988,0.0724 -0.075489,0.14809 -0.097657,0.22656 -0.010942,0.0387 -0.021276,0.0777 -0.027343,0.11719 -0.00742,0.0413 -0.00971,0.0824 -0.011719,0.12304 -0.010644,0.21598 0.050503,0.4201 0.1640621,0.58985 0.021776,0.0326 0.045027,0.0639 0.070313,0.0937 0.02425,0.0297 0.050375,0.0572 0.078125,0.084 0.036509,0.0353 0.074852,0.0682 0.117188,0.0977 0.035896,0.025 0.073371,0.0482 0.113281,0.0684 0.020836,0.0109 0.042867,0.0198 0.064453,0.0293 0.018931,0.008 0.036934,0.0167 0.05664,0.0234 0.127198,0.0468 0.264639,0.0657 0.40625,0.0547 H 23.001192 c 0.0013,0 0.0045,0 0.0059,0 0.0026,0 0.0052,2e-5 0.0078,0 0.04651,-5e-4 0.09128,-0.004 0.134766,-0.01 0.0013,-1.8e-4 0.0026,1.9e-4 0.0039,0 0.434006,-0.0582 0.713898,-0.36592 0.810547,-0.72265 0.0079,-0.0277 0.0141,-0.0555 0.01953,-0.084 0.0023,-0.0125 0.0059,-0.0245 0.0078,-0.0371 0.0077,-0.0507 0.01215,-0.10216 0.01172,-0.15429 1.1e-5,-0.003 9e-6,-0.005 0,-0.008 -3.72e-4,-0.0227 -0.0039,-0.0455 -0.0059,-0.0684 -0.01127,-0.16478 -0.06223,-0.32494 -0.154297,-0.4668 l -6.947266,-13.89649 c -0.0038,-0.008 -0.0096,-0.0139 -0.01367,-0.0215 -0.01125,-0.0211 -0.02441,-0.0404 -0.03711,-0.0605 -0.01659,-0.0264 -0.03205,-0.0537 -0.05078,-0.0781 -0.01512,-0.0197 -0.03228,-0.0381 -0.04883,-0.0566 -0.02046,-0.0229 -0.04019,-0.0457 -0.0625,-0.0664 -0.01593,-0.0149 -0.03387,-0.0272 -0.05078,-0.041 -0.02733,-0.0223 -0.05459,-0.0453 -0.08398,-0.0645 -0.01125,-0.007 -0.02363,-0.0127 -0.03516,-0.0195 -0.03442,-0.0205 -0.06888,-0.0404 -0.105469,-0.0566 -0.02156,-0.01 -0.04401,-0.0173 -0.06641,-0.0254 -0.03031,-0.011 -0.06048,-0.0213 -0.0918,-0.0293 -0.0061,-0.002 -0.01145,-0.004 -0.01758,-0.006 -0.01688,-0.004 -0.03388,-0.005 -0.05078,-0.008 -0.03242,-0.006 -0.06458,-0.011 -0.09766,-0.0137 -0.02751,-0.002 -0.0547,-0.002 -0.08203,-0.002 -0.02021,10e-6 -0.04023,-0.003 -0.06055,-0.002 z" /><path
       style="color:#000000;fill:#115799;fill-opacity:1;stroke-linecap:round;stroke-linejoin:round;stroke-miterlimit:1.8;paint-order:stroke fill markers"
       d="m 16.230469,290.67732 c -0.451473,-0.10704 -0.917278,0.1105 -1.125,0.52539 l -7.0000002,14 c -0.4439965,0.88532 0.5309715,1.80825 1.390625,1.31641 l 7.0000002,-4 C 16.80795,302.34092 17.000292,302.00916 17,301.64998 v -10 c -2.33e-4,-0.46333 -0.318681,-0.86584 -0.769531,-0.97266 z"
       id="path1478"
       sodipodi:nodetypes="cccccccc" /><path
       style="color:#000000;fill:url(#linearGradient3877);fill-opacity:1;stroke-width:2;stroke-linecap:round;stroke-linejoin:round;stroke-miterlimit:1.8;paint-order:stroke fill markers"
       d="m 9,305.64998 7,-14 v 10 z"
       id="path1480" /><g
       id="path1340-3"
       transform="translate(0,282.64998)"><path
         style="color:#000000;fill:#b42c2c;fill-opacity:0.92156863;stroke-linecap:round;stroke-linejoin:round;stroke-miterlimit:1.8;paint-order:stroke fill markers"
         d="M 15.769531,8.0273438 C 15.318681,8.134163 15.000233,8.5366684 15,9 v 10 3 c -4.2e-5,0.498005 0.366325,0.920159 0.859375,0.990234 l 7,1 c 0.798421,0.11344 1.395876,-0.716233 1.035156,-1.4375 l -7,-13.9999996 c -0.207722,-0.414894 -0.673527,-0.6324316 -1.125,-0.5253906 z"
         id="path1472"
         sodipodi:nodetypes="ccccccccc" /></g><path
       style="color:#000000;fill:url(#linearGradient2558);fill-opacity:1;stroke-width:2;stroke-linecap:round;stroke-linejoin:round;stroke-miterlimit:1.8;paint-order:stroke fill markers"
       d="m 23,305.64998 -7,-14 v 10 3 z"
       id="path1474" /><path
       style="color:#000000;fill:#56b21d;fill-opacity:1;stroke-linecap:round;stroke-linejoin:round;stroke-miterlimit:1.8;paint-order:stroke fill markers"
       d="m 14.316406,301.70076 c -0.27684,-0.0919 -0.580014,-0.0584 -0.830078,0.0918 l -4.9999999,3 C 7.6176305,305.31437 7.9866282,306.64866 9,306.64998 h 14 c 1.135814,0.001 1.394322,-1.59121 0.316406,-1.94922 z"
       id="path1484"
       sodipodi:nodetypes="ccccccc" /><path
       style="color:#000000;fill:url(#linearGradient5472);fill-opacity:1;stroke-width:2;stroke-linecap:round;stroke-linejoin:round;stroke-miterlimit:1.8;-inkscape-stroke:none;paint-order:stroke fill markers"
       d="m 9,305.64998 5,-3 9,3 z"
       id="path1486" /><g
       id="path1340-3-2"
       transform="translate(-32,283.64998)" /></g></svg>
