<?xml version="1.0" encoding="UTF-8" standalone="no"?>
<svg
   height="32"
   viewBox="0 0 32 32"
   width="32"
   version="1.1"
   id="svg16"
   sodipodi:docname="text-xml.svg"
   xml:space="preserve"
   inkscape:version="1.2.2 (b0a8486541, 2022-12-01)"
   xmlns:inkscape="http://www.inkscape.org/namespaces/inkscape"
   xmlns:sodipodi="http://sodipodi.sourceforge.net/DTD/sodipodi-0.dtd"
   xmlns:xlink="http://www.w3.org/1999/xlink"
   xmlns="http://www.w3.org/2000/svg"
   xmlns:svg="http://www.w3.org/2000/svg"><defs
     id="defs20"><style
       type="text/css"
       id="current-color-scheme">
      .ColorScheme-Text {
        color:#36404d;
      }
      </style><style
       type="text/css"
       id="current-color-scheme-67">
      .ColorScheme-Text {
        color:#122036;
      }
      </style><style
       type="text/css"
       id="current-color-scheme-7">
      .ColorScheme-Text {
        color:#122036;
      }
      </style><style
       type="text/css"
       id="current-color-scheme-5">
      .ColorScheme-Text {
        color:#122036;
      }
      </style><style
       type="text/css"
       id="current-color-scheme-6">
      .ColorScheme-Text {
        color:#122036;
      }
      </style><style
       type="text/css"
       id="current-color-scheme-1">
      .ColorScheme-Text {
        color:#122036;
      }
      </style><style
       id="current-color-scheme-10"
       type="text/css">
      .ColorScheme-Text {
        color:#122036;
      }
      </style><style
       id="current-color-scheme-5-7"
       type="text/css">
      .ColorScheme-Text {
        color:#122036;
      }
      </style><style
       id="current-color-scheme-1-2"
       type="text/css">
      .ColorScheme-Text {
        color:#122036;
      }
      </style><style
       type="text/css"
       id="current-color-scheme-10-9">
      .ColorScheme-Text {
        color:#122036;
      }
      </style><linearGradient
       inkscape:collect="always"
       xlink:href="#linearGradient1698"
       id="linearGradient1700"
       x1="3.999999"
       y1="308.64999"
       x2="3.999999"
       y2="280.64999"
       gradientUnits="userSpaceOnUse" /><linearGradient
       inkscape:collect="always"
       id="linearGradient1698"><stop
         style="stop-color:#5765b3;stop-opacity:1;"
         offset="0"
         id="stop1694" /><stop
         style="stop-color:#7885cb;stop-opacity:1;"
         offset="1"
         id="stop1696" /></linearGradient></defs><sodipodi:namedview
     id="namedview18"
     pagecolor="#ffffff"
     bordercolor="#000000"
     borderopacity="0.25"
     inkscape:showpageshadow="2"
     inkscape:pageopacity="0.0"
     inkscape:pagecheckerboard="0"
     inkscape:deskcolor="#d1d1d1"
     showgrid="true"
     inkscape:zoom="32.09375"
     inkscape:cx="14.706913"
     inkscape:cy="15.610516"
     inkscape:window-width="1517"
     inkscape:window-height="1363"
     inkscape:window-x="0"
     inkscape:window-y="0"
     inkscape:window-maximized="0"
     inkscape:current-layer="svg16"><inkscape:grid
       type="xygrid"
       id="grid1659" /></sodipodi:namedview><g
     id="g297"><g
       transform="translate(12,-278.64999)"
       id="g8"><path
         style="fill:#4a5599;fill-opacity:1"
         d="m -7,279.64999 h 21.999999 c 1.108,0 2,0.892 2,2 v 26 c 0,1.108 -0.892,2 -2,2 H -7 c -1.108,0 -2,-0.892 -2,-2 v -26 c 0,-1.108 0.892,-2 2,-2 z"
         id="path2-3" /><path
         style="fill:url(#linearGradient1700);fill-opacity:1"
         d="m -7,280.64999 h 21.999999 c 0.554,0 1,0.446 1,1 v 26 c 0,0.554 -0.446,1 -1,1 H -7 c -0.554,0 -1,-0.446 -1,-1 v -26 c 0,-0.554 0.446,-1 1,-1 z"
         id="path4-6" /></g><g
       id="g293"
       transform="translate(27.871471)" /></g><g
     transform="translate(84 -286.64999)"
     id="g14"><path
       style="fill:#ffffff;fill-opacity:0.25590551"
       d="M 3.2254697,296.55768 H 2.1671364 v 1.05833 h 1.0583333 z"
       transform="matrix(3.7795277,0,0,3.7795277,-80.190752,-816.19798)"
       id="path3886" /><path
       style="fill:#ffffff;fill-opacity:0.25590551"
       d="m 3.2254697,295.49934 v 1.05834 H 4.283803 v -1.05834 z"
       transform="matrix(3.7795277,0,0,3.7795277,-80.190752,-816.19798)"
       id="path3884" /><path
       style="fill:#ffffff;fill-opacity:0.25590551"
       d="m 2.1671364,295.49934 h 1.0583333 v -1.05833 H 2.1671364 Z"
       transform="matrix(3.7795277,0,0,3.7795277,-80.190752,-816.19798)"
       id="path3882" /><path
       style="fill:#ffffff;fill-opacity:0.25590551"
       d="m 1.1088031,295.49934 v -1.05833 H 0.0504698 v 1.05833 z"
       transform="matrix(3.7795277,0,0,3.7795277,-80.190752,-816.19798)"
       id="path3880" /><path
       style="fill:#ffffff;fill-opacity:0.25590551"
       d="m 1.1088031,296.55768 h 1.0583333 v -1.05834 H 1.1088031 Z"
       transform="matrix(3.7795277,0,0,3.7795277,-80.190752,-816.19798)"
       id="path3878" /><path
       style="fill:#ffffff;fill-opacity:0.25590551"
       d="m 1.1088031,297.61601 v -1.05833 H 0.0504698 v 1.05833 z"
       transform="matrix(3.7795277,0,0,3.7795277,-80.190752,-816.19798)"
       id="path3876" /><path
       style="fill:#ffffff;fill-opacity:0.25590551"
       d="M 1.1088031,298.67434 H 0.0504698 v 1.05834 h 1.0583333 z"
       transform="matrix(3.7795277,0,0,3.7795277,-80.190752,-816.19798)"
       id="path3874" /><path
       style="fill:#ffffff;fill-opacity:0.25590551"
       d="m 2.1671364,298.67434 v -1.05833 H 1.1088031 v 1.05833 z"
       transform="matrix(3.7795277,0,0,3.7795277,-80.190752,-816.19798)"
       id="path3872" /><path
       style="fill:#ffffff;fill-opacity:0.25590551"
       d="M 3.2254697,298.67434 H 2.1671364 v 1.05834 h 1.0583333 z"
       transform="matrix(3.7795277,0,0,3.7795277,-80.190752,-816.19798)"
       id="path3870" /><path
       style="fill:#ffffff;fill-opacity:0.25590551"
       d="m 4.283803,298.67434 v -1.05833 H 3.2254697 v 1.05833 z"
       transform="matrix(3.7795277,0,0,3.7795277,-80.190752,-816.19798)"
       id="path3868" /><path
       style="fill:#ffffff;fill-opacity:0.25590551"
       d="M 5.3421363,298.67434 H 4.283803 v 1.05834 h 1.0583333 z"
       transform="matrix(3.7795277,0,0,3.7795277,-80.190752,-816.19798)"
       id="path3866" /><path
       style="fill:#ffffff;fill-opacity:0.25590551"
       d="m 5.3421363,297.61601 v 0.26458 0.52917 0.26458 h 0.7937499 0.2645834 v -0.26458 -0.79375 z"
       transform="matrix(3.7795277,0,0,3.7795277,-80.190752,-816.19798)"
       id="path3864" /><path
       style="fill:#ffffff;fill-opacity:0.25590551"
       d="M 5.3421363,296.55768 H 4.283803 v 1.05833 h 1.0583333 z"
       transform="matrix(3.7795277,0,0,3.7795277,-80.190752,-816.19798)"
       id="path3862" /><path
       style="fill:#ffffff;fill-opacity:0.25590551"
       d="m 5.3421363,295.49934 v 1.05834 h 1.0583333 v -1.05834 z"
       transform="matrix(3.7795277,0,0,3.7795277,-80.190752,-816.19798)"
       id="path3860" /><path
       style="fill:#ffffff;fill-opacity:0.25590551"
       d="M 5.3421363,294.44101 H 4.283803 v 1.05833 h 1.0583333 z"
       transform="matrix(3.7795277,0,0,3.7795277,-80.190752,-816.19798)"
       id="path3858" /><path
       style="fill:#ffffff;fill-opacity:0.25590551"
       d="m 5.3421363,293.38268 v 1.05833 h 1.0583333 v -1.05833 z"
       transform="matrix(3.7795277,0,0,3.7795277,-80.190752,-816.19798)"
       id="path3856" /><path
       style="fill:#ffffff;fill-opacity:0.25590551"
       d="m 4.283803,293.38268 h 1.0583333 v -1.05834 H 4.283803 Z"
       transform="matrix(3.7795277,0,0,3.7795277,-80.190752,-816.19798)"
       id="path3854" /><path
       style="fill:#ffffff;fill-opacity:0.25590551"
       d="m 3.2254697,293.38268 v 1.05833 H 4.283803 v -1.05833 z"
       transform="matrix(3.7795277,0,0,3.7795277,-80.190752,-816.19798)"
       id="path3852" /><path
       style="fill:#ffffff;fill-opacity:0.25590551"
       d="m 2.1671364,293.38268 h 1.0583333 v -1.05834 H 2.1671364 Z"
       transform="matrix(3.7795277,0,0,3.7795277,-80.190752,-816.19798)"
       id="path3850" /><path
       style="fill:#ffffff;fill-opacity:0.25590551"
       d="m 1.1088031,293.38268 v 1.05833 h 1.0583333 v -1.05833 z"
       transform="matrix(3.7795277,0,0,3.7795277,-80.190752,-816.19798)"
       id="path3848" /><path
       style="fill:#ffffff;fill-opacity:0.25590551"
       d="m 0.31505312,292.32434 c -0.14656525,0 -0.26458332,0.11803 -0.26458332,0.26459 v 0.52916 0.26459 H 0.31505312 0.84421977 1.1088031 v -0.26459 -0.52916 -0.26459 H 0.84421977 Z"
       transform="matrix(3.7795277,0,0,3.7795277,-80.190752,-816.19798)"
       id="path6" /><path
       d="m -63.007812,298.65003 c -0.265201,4e-5 -0.519526,0.10542 -0.707031,0.29297 -0.390422,0.39051 -0.390422,1.02355 0,1.41406 l 3.292969,3.29297 -3.292969,3.29297 c -0.390422,0.39051 -0.390422,1.02355 0,1.41406 0.390506,0.39042 1.023556,0.39042 1.414062,0 l 4,-4 c 0.390367,-0.39053 0.390367,-1.02353 0,-1.41406 l -4,-4 c -0.187505,-0.18755 -0.44183,-0.29293 -0.707031,-0.29297 z"
       id="path404-7"
       style="fill:#4a5599;fill-opacity:1;stroke-linecap:round;stroke-linejoin:round;stroke-miterlimit:1.8" /><path
       d="m -73.007812,298.65003 c -0.265201,4e-5 -0.519526,0.10542 -0.707031,0.29297 l -4,4 c -0.390367,0.39053 -0.390367,1.02353 0,1.41406 l 4,4 c 0.390506,0.39042 1.023556,0.39042 1.414062,0 0.390422,-0.39051 0.390422,-1.02355 0,-1.41406 l -3.292969,-3.29297 3.292969,-3.29297 c 0.390422,-0.39051 0.390422,-1.02355 0,-1.41406 -0.187505,-0.18755 -0.44183,-0.29293 -0.707031,-0.29297 z"
       id="path402-5"
       style="fill:#4a5599;fill-opacity:1;stroke-linecap:round;stroke-linejoin:round;stroke-miterlimit:1.8" /><path
       d="m -66,296.65003 a 1,1 0 0 0 -0.957031,0.68359 l -4,12 a 1,1 0 0 0 0.632813,1.26563 1,1 0 0 0 1.265625,-0.63281 l 4,-12 A 1,1 0 0 0 -65.691406,296.70081 1,1 0 0 0 -66,296.65001 Z"
       id="path8-3"
       style="fill:#4a5599;fill-opacity:1;stroke-linecap:round;stroke-linejoin:round;stroke-miterlimit:1.8" /><path
       d="m -70,308.64999 4,-12"
       fill="#a2aee9"
       stroke-width="2"
       id="path10"
       style="stroke-linecap:round;stroke-linejoin:round;stroke-miterlimit:1.8" /><path
       d="m -63,297.64999 c -0.265201,4e-5 -0.519526,0.10542 -0.707031,0.29297 -0.390422,0.39051 -0.390422,1.02355 0,1.41406 l 3.292969,3.29297 -3.292969,3.29297 c -0.390422,0.39051 -0.390422,1.02355 0,1.41406 0.390506,0.39042 1.023556,0.39042 1.414062,0 l 4,-4 c 0.390367,-0.39053 0.390367,-1.02353 0,-1.41406 l -4,-4 c -0.187505,-0.18755 -0.44183,-0.29293 -0.707031,-0.29297 z"
       id="path404"
       style="fill:#e7e8f1;fill-opacity:1;stroke-linecap:round;stroke-linejoin:round;stroke-miterlimit:1.8" /><path
       d="m -73,297.64999 c -0.265201,4e-5 -0.519526,0.10542 -0.707031,0.29297 l -4,4 c -0.390367,0.39053 -0.390367,1.02353 0,1.41406 l 4,4 c 0.390506,0.39042 1.023556,0.39042 1.414062,0 0.390422,-0.39051 0.390422,-1.02355 0,-1.41406 l -3.292969,-3.29297 3.292969,-3.29297 c 0.390422,-0.39051 0.390422,-1.02355 0,-1.41406 -0.187505,-0.18755 -0.44183,-0.29293 -0.707031,-0.29297 z"
       id="path402"
       style="fill:#e7e8f1;fill-opacity:1;stroke-linecap:round;stroke-linejoin:round;stroke-miterlimit:1.8" /><path
       d="m -65.992188,295.64999 a 1,1 0 0 0 -0.957031,0.68359 l -4,12 a 1,1 0 0 0 0.632813,1.26563 1,1 0 0 0 1.265625,-0.63281 l 4,-12 a 1,1 0 0 0 -0.632813,-1.26563 1,1 0 0 0 -0.308594,-0.0508 z"
       id="path8"
       style="fill:#e7e8f1;fill-opacity:1;stroke-linecap:round;stroke-linejoin:round;stroke-miterlimit:1.8" /></g></svg>
