<?xml version="1.0" encoding="UTF-8" standalone="no"?>
<svg
   height="32"
   viewBox="0 0 32 32"
   width="32"
   version="1.1"
   id="svg16"
   sodipodi:docname="x-office-calendar.svg"
   xml:space="preserve"
   inkscape:version="1.2.2 (b0a8486541, 2022-12-01)"
   xmlns:inkscape="http://www.inkscape.org/namespaces/inkscape"
   xmlns:sodipodi="http://sodipodi.sourceforge.net/DTD/sodipodi-0.dtd"
   xmlns:xlink="http://www.w3.org/1999/xlink"
   xmlns="http://www.w3.org/2000/svg"
   xmlns:svg="http://www.w3.org/2000/svg"><defs
     id="defs20"><linearGradient
       inkscape:collect="always"
       id="linearGradient5241"><stop
         style="stop-color:#e4efef;stop-opacity:1;"
         offset="0"
         id="stop5237" /><stop
         style="stop-color:#f6f9f9;stop-opacity:1;"
         offset="1"
         id="stop5239" /></linearGradient><linearGradient
       inkscape:collect="always"
       id="linearGradient2079"><stop
         style="stop-color:#f11535;stop-opacity:1;"
         offset="0"
         id="stop2075" /><stop
         style="stop-color:#fa3652;stop-opacity:1;"
         offset="1"
         id="stop2077" /></linearGradient><linearGradient
       inkscape:collect="always"
       xlink:href="#linearGradient2079"
       id="linearGradient2081"
       x1="7.1437497"
       y1="289.85623"
       x2="7.1437497"
       y2="288.26874"
       gradientUnits="userSpaceOnUse"
       gradientTransform="matrix(3.7795275,0,0,3.7795275,-11.999999,-1087.5196)" /><linearGradient
       inkscape:collect="always"
       xlink:href="#linearGradient5241"
       id="linearGradient5243"
       x1="-10"
       y1="293.77499"
       x2="-10"
       y2="272.77499"
       gradientUnits="userSpaceOnUse" /></defs><sodipodi:namedview
     id="namedview18"
     pagecolor="#ffffff"
     bordercolor="#000000"
     borderopacity="0.25"
     inkscape:showpageshadow="2"
     inkscape:pageopacity="0.0"
     inkscape:pagecheckerboard="0"
     inkscape:deskcolor="#d1d1d1"
     showgrid="true"
     inkscape:zoom="32.09375"
     inkscape:cx="15.03408"
     inkscape:cy="15.361246"
     inkscape:window-width="1517"
     inkscape:window-height="1363"
     inkscape:window-x="0"
     inkscape:window-y="0"
     inkscape:window-maximized="0"
     inkscape:current-layer="svg16"><inkscape:grid
       type="xygrid"
       id="grid344" /></sodipodi:namedview><g
     transform="translate(28 -264.774985)"
     id="g6"><path
       style="fill:#92a6b0;fill-opacity:1"
       d="m -22.999999,265.77501 h 21.9999988 c 1.108,0 2,0.89202 2,2.00001 v 26.00001 c 0,1.10797 -0.892,1.99998 -2,1.99998 H -22.999999 c -1.108,0 -2,-0.89201 -2,-1.99998 v -26 c 0,-1.108 0.892,-2.00001 2,-2.00002 z"
       id="path2" /><path
       style="fill-opacity:1;fill:url(#linearGradient5243)"
       d="m -22.999999,266.77503 h 21.9999988 c 0.554,0 1,0.44599 1,1 v 26 c 0,0.55401 -0.446,1 -1,1 H -22.999999 c -0.554,0 -1,-0.44599 -1,-1 v -26 c 0,-0.554 0.446,-1 1,-1 z"
       id="path4" /></g><path
     id="path8"
     style="fill:#92a6b0;fill-opacity:1;stroke-width:3.77953"
     d="M 8 11 L 8 12 L 8 14 L 8 27 L 14 27 L 24 27 L 24 26 L 24 24 L 24 23 L 24 21 L 24 20 L 24 18 L 24 17 L 24 15 L 24 14 L 24 12 L 24 11 L 21 11 L 20 11 L 14 11 L 12 11 L 11 11 L 9 11 L 8 11 z M 9 12 L 11 12 L 11 14 L 9 14 L 9 12 z M 12 12 L 14 12 L 14 14 L 12 14 L 12 12 z M 15 12 L 17 12 L 17 14 L 15 14 L 15 12 z M 18 12 L 20 12 L 20 14 L 18 14 L 18 12 z M 21 12 L 23 12 L 23 14 L 21 14 L 21 12 z M 9 15 L 11 15 L 11 17 L 9 17 L 9 15 z M 12 15 L 14 15 L 14 17 L 12 17 L 12 15 z M 15 15 L 17 15 L 17 17 L 15 17 L 15 15 z M 18 15 L 20 15 L 20 17 L 18 17 L 18 15 z M 21 15 L 23 15 L 23 17 L 21 17 L 21 15 z M 9 18 L 11 18 L 11 20 L 9 20 L 9 18 z M 12 18 L 14 18 L 14 20 L 12 20 L 12 18 z M 15 18 L 17 18 L 17 20 L 15 20 L 15 18 z M 18 18 L 20 18 L 20 20 L 18 20 L 18 18 z M 21 18 L 23 18 L 23 20 L 21 20 L 21 18 z M 9 21 L 11 21 L 11 23 L 9 23 L 9 21 z M 12 21 L 14 21 L 14 23 L 12 23 L 12 21 z M 15 21 L 17 21 L 17 23 L 15 23 L 15 21 z M 18 21 L 20 21 L 20 23 L 18 23 L 18 21 z M 21 21 L 23 21 L 23 23 L 21 23 L 21 21 z M 9 24 L 11 24 L 11 26 L 9 26 L 9 24 z M 12 24 L 14 24 L 14 26 L 12 26 L 12 24 z M 15 24 L 17 24 L 17 26 L 15 26 L 15 24 z M 18 24 L 20 24 L 20 26 L 18 26 L 18 24 z M 21 24 L 23 24 L 23 26 L 21 26 L 21 24 z " /><path
     style="fill:#bc0722;fill-opacity:1;stroke-width:3.77953"
     d="M 5.0000001,1.000005 C 3.8920021,1.000005 3,1.8920113 3,3.0000176 v 3 l -3e-6,3.78e-5 v 2.0000125 h 2.0000001 l 21.9999999,-3.78e-5 h 2.000001 V 6.0000176 l 4e-6,-3.78e-5 v -3 C 29.000002,1.8919735 28.107999,0.99996724 27,0.99996724 Z"
     id="path10" /><path
     style="fill:url(#linearGradient2081);fill-opacity:1;stroke-width:3.77953"
     d="m 5.0000001,1.9999924 c -0.5539978,0 -1.0000002,0.4460221 -1.0000002,1.0000252 v 3 l -3.1e-6,3.78e-5 v 1.0000251 h 1.0000003 l 21.9999999,-3.78e-5 h 1.000002 V 6.0000176 l 4e-6,-3.78e-5 v -3 C 28.000003,2.4459767 27.554,1.9999546 27,1.9999546 Z"
     id="path12" /></svg>
