<?xml version="1.0" encoding="UTF-8" standalone="no"?>
<!-- Created with Inkscape (http://www.inkscape.org/) -->

<svg
   width="32"
   height="32"
   viewBox="0 0 32 32"
   version="1.1"
   id="svg8"
   inkscape:version="1.2.2 (b0a8486541, 2022-12-01)"
   sodipodi:docname="text-x-authors.svg"
   xmlns:inkscape="http://www.inkscape.org/namespaces/inkscape"
   xmlns:sodipodi="http://sodipodi.sourceforge.net/DTD/sodipodi-0.dtd"
   xmlns:xlink="http://www.w3.org/1999/xlink"
   xmlns="http://www.w3.org/2000/svg"
   xmlns:svg="http://www.w3.org/2000/svg"
   xmlns:rdf="http://www.w3.org/1999/02/22-rdf-syntax-ns#"
   xmlns:cc="http://creativecommons.org/ns#"
   xmlns:dc="http://purl.org/dc/elements/1.1/">
  <title
     id="title7895">Antu icon Theme</title>
  <defs
     id="defs2">
    <linearGradient
       inkscape:collect="always"
       xlink:href="#linearGradient873"
       id="linearGradient875"
       x1="0"
       y1="305.64999"
       x2="0"
       y2="272.64999"
       gradientUnits="userSpaceOnUse" />
    <linearGradient
       inkscape:collect="always"
       id="linearGradient873">
      <stop
         style="stop-color:#91a3c0;stop-opacity:1;"
         offset="0"
         id="stop869" />
      <stop
         style="stop-color:#bdccdb;stop-opacity:1;"
         offset="1"
         id="stop871" />
    </linearGradient>
  </defs>
  <sodipodi:namedview
     id="base"
     pagecolor="#ffffff"
     bordercolor="#666666"
     borderopacity="1.0"
     inkscape:pageopacity="0.0"
     inkscape:pageshadow="2"
     inkscape:zoom="22.627417"
     inkscape:cx="18.937204"
     inkscape:cy="13.479223"
     inkscape:document-units="px"
     inkscape:current-layer="layer1"
     showgrid="true"
     units="px"
     inkscape:window-width="2560"
     inkscape:window-height="1363"
     inkscape:window-x="0"
     inkscape:window-y="0"
     inkscape:window-maximized="1"
     objecttolerance="10"
     gridtolerance="10"
     guidetolerance="10"
     inkscape:showpageshadow="2"
     inkscape:pagecheckerboard="0"
     inkscape:deskcolor="#d1d1d1">
    <inkscape:grid
       type="xygrid"
       id="grid7897"
       empspacing="4" />
  </sodipodi:namedview>
  <metadata
     id="metadata5">
    <rdf:RDF>
      <cc:Work
         rdf:about="">
        <dc:format>image/svg+xml</dc:format>
        <dc:type
           rdf:resource="http://purl.org/dc/dcmitype/StillImage" />
        <dc:title>Antu icon Theme</dc:title>
      </cc:Work>
    </rdf:RDF>
  </metadata>
  <g
     inkscape:label="Capa 1"
     inkscape:groupmode="layer"
     id="layer1"
     transform="translate(0,-282.64999)">
    <g
       id="g4545"
       transform="translate(-64,-32)">
      <g
         id="g11901"
         transform="translate(80,40)">
        <path
           inkscape:connector-curvature="0"
           style="opacity:1;fill:#66798f;fill-opacity:1;stroke:none;stroke-width:2;stroke-linecap:round;stroke-linejoin:round;stroke-miterlimit:4;stroke-dasharray:none;stroke-opacity:1"
           d="m -11,275.64999 h 21.999999 c 1.108,0 2,0.892 2,2 v 26 c 0,1.108 -0.892,2 -2,2 H -11 c -1.108,0 -2,-0.892 -2,-2 v -26 c 0,-1.108 0.892,-2 2,-2 z"
           id="rect827" />
        <path
           inkscape:connector-curvature="0"
           style="opacity:1;fill:url(#linearGradient875);fill-opacity:1;stroke:none;stroke-width:2;stroke-linecap:round;stroke-linejoin:round;stroke-miterlimit:4;stroke-dasharray:none;stroke-opacity:1"
           d="m -11,276.64999 h 21.999999 c 0.554,0 1,0.446 1,1 v 26 c 0,0.554 -0.446,1 -1,1 H -11 c -0.554,0 -1,-0.446 -1,-1 v -26 c 0,-0.554 0.446,-1 1,-1 z"
           id="rect829" />
      </g>
      <path
         id="path7581"
         style="fill:#66798f;fill-opacity:1;stroke-width:2.4;stroke-linecap:round;stroke-linejoin:round;stroke-miterlimit:1.8;paint-order:stroke fill markers;stop-color:#000000"
         d="m 80,322.64999 a 9,9 0 0 0 -9,9 9,9 0 0 0 9,9 9,9 0 0 0 9,-9 9,9 0 0 0 -9,-9 z m 0,2 a 7,7 0 0 1 7,7 7,7 0 0 1 -7,7 7,7 0 0 1 -7,-7 7,7 0 0 1 7,-7 z m 0,3 a 4,4 0 0 0 -3.464844,2 4,4 0 0 0 0,4 4,4 0 0 0 3.464844,2 h 2 v -2 h -2 a 2,2 0 0 1 -0.347656,-0.0312 2,2 0 0 1 -0.335938,-0.0898 A 2,2 0 0 1 79,333.38241 2,2 0 0 1 78.714844,333.18124 2,2 0 0 1 78.46875,332.93515 2,2 0 0 1 78.267578,332.64999 2,2 0 0 1 78.121094,332.33358 2,2 0 0 1 78.03125,331.99765 2,2 0 0 1 78,331.64999 a 2,2 0 0 1 0.03125,-0.34766 2,2 0 0 1 0.08984,-0.33593 2,2 0 0 1 0.146484,-0.31641 2,2 0 0 1 0.201172,-0.28516 2,2 0 0 1 0.246094,-0.24609 2,2 0 0 1 0.28516,-0.20117 2,2 0 0 1 0.316406,-0.14649 2,2 0 0 1 0.335938,-0.0898 A 2,2 0 0 1 80,329.64999 h 2 v -2 z" />
      <path
         id="path7581-3"
         style="fill:#ebeff4;fill-opacity:1;stroke-width:2.4;stroke-linecap:round;stroke-linejoin:round;stroke-miterlimit:1.8;paint-order:stroke fill markers;stop-color:#000000"
         d="m 80,321.64999 a 9,9 0 0 0 -9,9 9,9 0 0 0 9,9 9,9 0 0 0 9,-9 9,9 0 0 0 -9,-9 z m 0,2 a 7,7 0 0 1 7,7 7,7 0 0 1 -7,7 7,7 0 0 1 -7,-7 7,7 0 0 1 7,-7 z m 0,3 a 4,4 0 0 0 -3.464844,2 4,4 0 0 0 0,4 4,4 0 0 0 3.464844,2 h 2 v -2 h -2 a 2,2 0 0 1 -0.347656,-0.0312 2,2 0 0 1 -0.335938,-0.0898 A 2,2 0 0 1 79,332.38241 2,2 0 0 1 78.714844,332.18124 2,2 0 0 1 78.46875,331.93515 2,2 0 0 1 78.267578,331.64999 2,2 0 0 1 78.121094,331.33358 2,2 0 0 1 78.03125,330.99765 2,2 0 0 1 78,330.64999 a 2,2 0 0 1 0.03125,-0.34766 2,2 0 0 1 0.08984,-0.33593 2,2 0 0 1 0.146484,-0.31641 2,2 0 0 1 0.201172,-0.28516 2,2 0 0 1 0.246094,-0.24609 2,2 0 0 1 0.28516,-0.20117 2,2 0 0 1 0.316406,-0.14649 2,2 0 0 1 0.335938,-0.0898 A 2,2 0 0 1 80,328.64999 h 2 v -2 z" />
    </g>
  </g>
</svg>
