<?xml version="1.0" encoding="UTF-8" standalone="no"?>
<svg
   height="32"
   viewBox="0 0 32 32"
   width="32"
   version="1.1"
   id="svg12"
   sodipodi:docname="unknown.svg"
   xml:space="preserve"
   inkscape:version="1.2.2 (b0a8486541, 2022-12-01)"
   xmlns:inkscape="http://www.inkscape.org/namespaces/inkscape"
   xmlns:sodipodi="http://sodipodi.sourceforge.net/DTD/sodipodi-0.dtd"
   xmlns:xlink="http://www.w3.org/1999/xlink"
   xmlns="http://www.w3.org/2000/svg"
   xmlns:svg="http://www.w3.org/2000/svg"><defs
     id="defs16"><linearGradient
       id="linearGradient4846"
       inkscape:collect="always"><stop
         id="stop4842"
         offset="0"
         style="stop-color:#e4efef;stop-opacity:1" /><stop
         id="stop4844"
         offset="1"
         style="stop-color:#fcfcfc;stop-opacity:1" /></linearGradient><linearGradient
       gradientTransform="matrix(3.7795275,0,0,3.7795275,-83.999999,-803.86971)"
       inkscape:collect="always"
       xlink:href="#linearGradient4846"
       id="linearGradient837-3"
       x1="4.2333336"
       y1="296.20624"
       x2="4.2333331"
       y2="289.19476"
       gradientUnits="userSpaceOnUse" /></defs><sodipodi:namedview
     id="namedview14"
     pagecolor="#ffffff"
     bordercolor="#000000"
     borderopacity="0.25"
     inkscape:showpageshadow="2"
     inkscape:pageopacity="0.0"
     inkscape:pagecheckerboard="0"
     inkscape:deskcolor="#d1d1d1"
     showgrid="true"
     inkscape:zoom="22.693708"
     inkscape:cx="19.300504"
     inkscape:cy="18.154812"
     inkscape:window-width="1517"
     inkscape:window-height="1363"
     inkscape:window-x="0"
     inkscape:window-y="0"
     inkscape:window-maximized="0"
     inkscape:current-layer="g10"><inkscape:grid
       type="xygrid"
       id="grid1790" /></sodipodi:namedview><g
     id="g5329"
     transform="translate(84,-286.64999)"><path
       style="opacity:1;fill:#90a4ae;fill-opacity:1;stroke:none;stroke-width:2;stroke-linecap:round;stroke-linejoin:round;stroke-miterlimit:4;stroke-dasharray:none;stroke-opacity:1"
       d="M -78.999999,287.64999 H -57 c 1.108,0 2,0.89202 2,2.00001 v 26.00001 c 0,1.10797 -0.892,1.99998 -2,1.99998 h -21.999999 c -1.108,0 -2,-0.89201 -2,-1.99998 v -26 c 0,-1.108 0.892,-2 2,-2.00002 z"
       id="rect827-8" /><path
       style="opacity:1;fill:url(#linearGradient837-3);fill-opacity:1;stroke:none;stroke-width:2;stroke-linecap:round;stroke-linejoin:round;stroke-miterlimit:4;stroke-dasharray:none;stroke-opacity:1"
       d="M -78.999999,288.65001 H -57 c 0.554,0 1,0.44599 1,1 v 26 c 0,0.55401 -0.446,1 -1,1 h -21.999999 c -0.554,0 -1,-0.44599 -1,-1 v -26 c 0,-0.55399 0.446,-1 1,-1 z"
       id="rect829-6" /></g><g
     transform="translate(84 -286.64999)"
     id="g10"><path
       style="fill:#d0dcdf;fill-opacity:1"
       d="m -68,304.64999 h -4 v 3.99998 h 4 z"
       id="path388" /><path
       style="fill:#d0dcdf;fill-opacity:1"
       d="m -68,300.64996 v 4.00003 h 4 v -4.00003 z"
       id="path386" /><path
       style="fill:#d0dcdf;fill-opacity:1"
       d="m -72,300.64996 h 4 v -3.99999 h -4 z"
       id="path384" /><path
       style="fill:#d0dcdf;fill-opacity:1"
       d="m -76,300.64996 v -3.99999 h -4 v 3.99999 z"
       id="path382" /><path
       style="fill:#d0dcdf;fill-opacity:1"
       d="m -76,304.64999 h 4 v -4.00003 h -4 z"
       id="path380" /><path
       style="fill:#d0dcdf;fill-opacity:1"
       d="m -76,308.64997 v -3.99998 h -4 v 3.99998 z"
       id="path378" /><path
       style="fill:#d0dcdf;fill-opacity:1"
       d="m -76,312.64996 h -4 v 3.00003 c 0,0 -0.0037,1 1,1 h 3 z"
       id="path376" /><path
       style="fill:#d0dcdf;fill-opacity:1"
       d="m -72,312.64996 v -3.99999 h -4 v 3.99999 z"
       id="path374" /><path
       style="fill:#d0dcdf;fill-opacity:1"
       d="m -68,312.64996 h -4 v 4.00003 h 4 z"
       id="path372" /><path
       style="fill:#d0dcdf;fill-opacity:1"
       d="m -64,312.64996 v -3.99999 h -4 v 3.99999 z"
       id="path370" /><path
       style="fill:#d0dcdf;fill-opacity:1"
       d="m -60,312.64996 h -4 v 4.00003 h 4 z"
       id="path368" /><path
       style="fill:#d0dcdf;fill-opacity:1"
       d="m -60,308.64997 v 0.99999 2.00001 0.99999 h 3 1 v -0.99999 -3 z"
       id="path366" /><path
       style="fill:#d0dcdf;fill-opacity:1"
       d="m -60,304.64999 h -4 v 3.99998 h 4 z"
       id="path364" /><path
       style="fill:#d0dcdf;fill-opacity:1"
       d="m -60,300.64996 v 4.00003 h 4 v -4.00003 z"
       id="path362" /><path
       style="fill:#d0dcdf;fill-opacity:1"
       d="m -60,296.64997 h -4 v 3.99999 h 4 z"
       id="path360" /><path
       style="fill:#d0dcdf;fill-opacity:1"
       d="m -60,292.64999 v 3.99998 h 4 v -3.99998 z"
       id="path358" /><path
       style="fill:#d0dcdf;fill-opacity:1"
       d="m -64,292.64999 h 4 v -4.00003 h -4 z"
       id="path356" /><path
       style="fill:#d0dcdf;fill-opacity:1"
       d="m -68,292.64999 v 3.99998 h 4 v -3.99998 z"
       id="path354" /><path
       style="fill:#d0dcdf;fill-opacity:1"
       d="m -72,292.64999 h 4 v -4.00003 h -4 z"
       id="path352" /><path
       style="fill:#d0dcdf;fill-opacity:1"
       d="m -76,292.64999 v 3.99998 h 4 v -3.99998 z"
       id="path350" /><path
       style="fill:#d0dcdf;fill-opacity:1"
       d="m -79,288.64996 c -0.553947,0 -1,0.4461 -1,1.00003 v 1.99997 1.00003 h 1 2 1 v -1.00003 -1.99997 -1.00003 h -1 z"
       id="path6" /><path
       id="path346"
       style="fill:#90a4ae;fill-opacity:1"
       d="M -68 295.64999 A 7 8 0 0 0 -75 303.64999 A 7 8 0 0 0 -68 311.64999 A 7 8 0 0 0 -61 303.64999 A 7 8 0 0 0 -68 295.64999 z M -68 298.64999 A 4 5 0 0 1 -64 303.64999 A 4 5 0 0 1 -68 308.64999 A 4 5 0 0 1 -72 303.64999 A 4 5 0 0 1 -68 298.64999 z " /><path
       id="path8-7"
       style="fill:#4a505a;fill-opacity:1"
       d="M -68 294.64999 A 7 8 0 0 0 -75 302.64999 A 7 8 0 0 0 -68 310.64999 A 7 8 0 0 0 -61 302.64999 A 7 8 0 0 0 -68 294.64999 z M -68 297.64999 A 4 5 0 0 1 -64 302.64999 A 4 5 0 0 1 -68 307.64999 A 4 5 0 0 1 -72 302.64999 A 4 5 0 0 1 -68 297.64999 z " /></g></svg>
