<?xml version="1.0" encoding="UTF-8" standalone="no"?>
<svg
   height="32"
   viewBox="0 0 32 32"
   width="32"
   version="1.1"
   id="svg30"
   sodipodi:docname="video-x-mng.svg"
   xml:space="preserve"
   inkscape:version="1.2.2 (b0a8486541, 2022-12-01)"
   xmlns:inkscape="http://www.inkscape.org/namespaces/inkscape"
   xmlns:sodipodi="http://sodipodi.sourceforge.net/DTD/sodipodi-0.dtd"
   xmlns:xlink="http://www.w3.org/1999/xlink"
   xmlns="http://www.w3.org/2000/svg"
   xmlns:svg="http://www.w3.org/2000/svg"><defs
     id="defs34"><linearGradient
       gradientUnits="userSpaceOnUse"
       y2="289.59164"
       x2="4.2333336"
       y1="296.20624"
       x1="4.2333336"
       id="linearGradient837"
       xlink:href="#linearGradient4580"
       inkscape:collect="always"
       gradientTransform="matrix(3.7795275,0,0,3.7795275,-26,-70.15745)" /><linearGradient
       inkscape:collect="always"
       id="linearGradient4580"><stop
         style="stop-color:#06111c;stop-opacity:1"
         offset="0"
         id="stop4576" /><stop
         style="stop-color:#15272f;stop-opacity:1"
         offset="1"
         id="stop4578-6" /></linearGradient><linearGradient
       inkscape:collect="always"
       xlink:href="#linearGradient4565"
       id="linearGradient3347"
       gradientUnits="userSpaceOnUse"
       gradientTransform="translate(-53.958655,728.71254)"
       x1="43.958656"
       y1="317.64966"
       x2="43.958656"
       y2="297.64966" /><linearGradient
       inkscape:collect="always"
       id="linearGradient4565"><stop
         style="stop-color:#1780f2;stop-opacity:1"
         offset="0"
         id="stop4561" /><stop
         style="stop-color:#02b3fe;stop-opacity:1"
         offset="1"
         id="stop4563" /></linearGradient></defs><sodipodi:namedview
     id="namedview32"
     pagecolor="#ffffff"
     bordercolor="#000000"
     borderopacity="0.25"
     inkscape:showpageshadow="2"
     inkscape:pageopacity="0.0"
     inkscape:pagecheckerboard="0"
     inkscape:deskcolor="#d1d1d1"
     showgrid="false"
     inkscape:zoom="32.09375"
     inkscape:cx="15.984421"
     inkscape:cy="15.984421"
     inkscape:window-width="2560"
     inkscape:window-height="1363"
     inkscape:window-x="0"
     inkscape:window-y="0"
     inkscape:window-maximized="1"
     inkscape:current-layer="svg30" /><g
     id="g3498"
     transform="translate(26,-1020.3622)"><path
       inkscape:connector-curvature="0"
       style="opacity:1;fill:#02070c;fill-opacity:0.992157;stroke:none;stroke-width:2;stroke-linecap:round;stroke-linejoin:round;stroke-miterlimit:4;stroke-dasharray:none;stroke-opacity:1"
       d="M -21,1021.3622 H 0.999999 c 1.108,0 2,0.892 2,2 v 26 c 0,1.108 -0.892,2 -2,2 H -21 c -1.108,0 -2,-0.892 -2,-2 v -26 c 0,-1.108 0.892,-2 2,-2 z"
       id="rect827" /><path
       inkscape:connector-curvature="0"
       style="opacity:1;fill:url(#linearGradient837);fill-opacity:1;stroke:none;stroke-width:2;stroke-linecap:round;stroke-linejoin:round;stroke-miterlimit:4;stroke-dasharray:none;stroke-opacity:1"
       d="M -21,1022.3622 H 0.999999 c 0.554,0 1,0.446 1,1 v 26 c 0,0.554 -0.446,1 -1,1 H -21 c -0.554,0 -1,-0.446 -1,-1 v -26 c 0,-0.554 0.446,-1 1,-1 z"
       id="rect829" /><path
       sodipodi:nodetypes="ccccccccccccccccccccccccc"
       inkscape:connector-curvature="0"
       style="opacity:1;fill:#03080d;fill-opacity:0.992157;stroke:none;stroke-width:2.2336;stroke-linecap:round;stroke-linejoin:round;stroke-miterlimit:4;stroke-dasharray:none;stroke-opacity:1"
       d="m -21,1024.3622 v 4 h 2 v -4 z m 0,5 v 4 h 2 v -4 z m 0,5 v 4 h 2 v -4 z m 0,5 v 4 h 2 v -4 z m 0,5 v 4 h 2 v -4 z"
       id="path1665-9-7-9-7" /><path
       sodipodi:nodetypes="ccccccccccccccccccccccccc"
       inkscape:connector-curvature="0"
       style="opacity:1;fill:#f1f2f3;fill-opacity:1;stroke:none;stroke-width:2.2336;stroke-linecap:round;stroke-linejoin:round;stroke-miterlimit:4;stroke-dasharray:none;stroke-opacity:1"
       d="m -21,1024.3622 v 3 h 2 v -3 z m 0,5 v 3 h 2 v -3 z m 0,5 v 3 h 2 v -3 z m 0,5 v 3 h 2 v -3 z m 0,5 v 3 h 2 v -3 z"
       id="path1665-9-3-9" /><path
       sodipodi:nodetypes="ccccccccccccccccccccccccc"
       inkscape:connector-curvature="0"
       style="opacity:1;fill:#03080d;fill-opacity:0.992157;stroke:none;stroke-width:2.2336;stroke-linecap:round;stroke-linejoin:round;stroke-miterlimit:4;stroke-dasharray:none;stroke-opacity:1"
       d="m -1,1024.3622 v 4 h 2 v -4 z m 0,5 v 4 h 2 v -4 z m 0,5 v 4 h 2 v -4 z m 0,5 v 4 h 2 v -4 z m 0,5 v 4 h 2 v -4 z"
       id="path1665-9-7-9-7-2" /><path
       sodipodi:nodetypes="ccccccccccccccccccccccccc"
       inkscape:connector-curvature="0"
       style="opacity:1;fill:#f1f2f3;fill-opacity:1;stroke:none;stroke-width:2.2336;stroke-linecap:round;stroke-linejoin:round;stroke-miterlimit:4;stroke-dasharray:none;stroke-opacity:1"
       d="m -1,1024.3622 v 3 h 2 v -3 z m 0,5 v 3 h 2 v -3 z m 0,5 v 3 h 2 v -3 z m 0,5 v 3 h 2 v -3 z m 0,5 v 3 h 2 v -3 z"
       id="path1665-9-3-9-0" /><path
       style="fill:url(#linearGradient3347);fill-opacity:1;stroke:none;stroke-width:0.8;stroke-linecap:round;stroke-linejoin:round;stroke-miterlimit:4;stroke-dasharray:none;stroke-opacity:1"
       d="m -16.000001,1024.3622 h 12.0000017 c 0.5539996,0 0.9999993,0.446 0.9999993,1 v 22 c 0,0.554 -0.4459997,1 -0.9999993,1 H -16.000001 c -0.553999,0 -0.999999,-0.446 -0.999999,-1 v -22 c 0,-0.554 0.446,-1 0.999999,-1 z"
       id="rect3210"
       inkscape:connector-curvature="0" /></g><g
     transform="translate(26.000001 -1020.3622)"
     id="g28"><g
       transform="matrix(3.7795277 0 0 3.7795277 8.309015 -92.7237)"
       id="g26"><path
         d="m-3.2567601 301.9123c.0045807 0 .0089137-.00029.0134359-.00052.0045221-.00022.0089777-.00058.0134358-.00103.0044582-.00045.0090472-.00088.0134359-.00155s.0086054-.00119.0129191-.00207c.0043138-.00088.0086857-.00201.0129191-.0031.0042334-.00108.0087716-.00233.0129191-.00362.0041476-.00128.0078294-.00265.0118856-.00413.0040563-.00148.0084429-.00298.0124024-.00465s.0075115-.00332.0113688-.00517.0076192-.00417.0113688-.0062.0077323-.004.0113688-.0062c.0036365-.00221.0073341-.00435.0108521-.00672.0035179-.00237.0069414-.0047.0103352-.00723.0033939-.00254.0065542-.00558.0098186-.00827s.0066891-.00543.0098185-.00827.005796-.0058.008785-.00878c.002989-.00299.0059418-.00566.008785-.00879.0028431-.00313.0055764-.00655.0082682-.00982.0026918-.00326.0057332-.00642.0082682-.00982.002535-.00339.004862-.00681.0072347-.01033.0023728-.00352.0045129-.00722.006718-.01085.002205-.00364.0041693-.00762.0062011-.01137.0020319-.00375.004348-.00751.0062012-.01137.0018533-.00386.0034985-.00741.0051677-.01137.0016691-.00396.0031712-.00835.0046508-.0124.0014797-.00406.0028495-.00774.0041341-.01189.0012847-.00415.0025332-.00868.0036174-.01292.0010842-.00423.0022223-.0086.0031006-.01292.0008782-.00431.0014002-.00853.002067-.01292.0006669-.00438.0011003-.00897.0015503-.01343.0004501-.00446.0008058-.00892.0010336-.01344.0002277-.00452.0005167-.00885.0005167-.01343v-1.85209l-.5291666-.52916-1.1477335 1.10639z"
         fill="#dcecfe"
         id="path12" /><g
         fill="#8fcaf9"
         id="g20"><path
           d="m-3.0696914 301.83479c.0014945-.0015.0031925-.00261.0046509-.00414.0014583-.00153.0027125-.00309.0041341-.00465.0014215-.00156.00275-.00357.0041341-.00517-.0041698.00478-.0084149.00945-.0129191.01396z"
           id="path14" /><path
           d="m-3.0836441 301.8477c.0015988-.00138.003603-.00271.0051677-.00413s.0031209-.00268.0046509-.00413c.0015299-.00146.0026396-.00316.0041341-.00465-.0045042.00449-.0091797.00874-.0139527.01291z"
           id="path16" /><path
           d="m-6.6963433 299.79563v1.85209c0 .00916.0006502.01795.0015503.02687.0009001.00891.0018608.01773.0036173.02635.0017566.00863.0041487.01755.006718.02584.0025692.0083.0054466.01637.008785.02429.0033383.00792.007305.01524.0113688.02274s.0081736.01518.0129191.02222c.0047455.00703.0101193.01362.0155029.02015s.0110752.01263.0170532.01861c.0059781.00597.0120748.01166.0186036.01705.0065287.00538.0131179.01076.0201538.0155.0070358.00475.0147216.00886.0222208.01292.0074993.00406.0148186.00803.0227377.01137.007919.00334.0159928.00621.0242879.00878s.0172107.00497.0258382.00672c.0086275.00176.0174387.00272.026355.00362.0089162.0009.0177104.00155.0268717.00155h3.1749999c.0091614 0 .0179555-.00065.0268717-.00155.0089163-.0009.0177275-.00186.026355-.00362.0086275-.00175.0175431-.00415.0258382-.00672s.0163689-.00544.024288-.00878c.007919-.00334.0152383-.00731.0227376-.01137s.015185-.00817.0222209-.01292c.0070358-.00474.013625-.01012.0201538-.0155.0065287-.00539.0126255-.01108.0186035-.01705.005978-.00598.0116696-.01208.0170532-.01861s.0107574-.01312.0155029-.02015c.0047456-.00704.0088554-.01472.0129191-.02222.0040638-.0075.0080305-.01482.0113689-.02274.0033383-.00792.0062157-.01599.0087849-.02429.0025693-.00829.0049615-.01721.006718-.02584.0017565-.00862.0027172-.01744.0036173-.02635.0009001-.00892.0015503-.01771.0015503-.02687v-.02429l-2.6458332-2.88613z"
           id="path18" /></g><path
         d="m-6.6963433 299.79563v1.85209c0 .00458.000289.00891.0005168.01343.0002277.00452.0005834.00898.0010335.01344.00045.00446.0008834.00905.0015503.01343.0006669.00439.0011888.00861.002067.01292.0008783.00432.0020165.00869.0031006.01292.0010842.00424.0023327.00877.0036174.01292.0012846.00415.0026545.00783.0041341.01189.0014796.00405.0029817.00844.0046509.0124.0016691.00396.0033144.00751.0051676.01137.0018533.00386.0041693.00762.0062012.01137s.0039961.00773.0062012.01137c.002205.00363.0043451.00733.0067179.01085s.0046997.00694.0072347.01033c.002535.0034.0055764.00656.0082682.00982.0026918.00327.0054251.00669.0082683.00982.0028431.00313.0057959.0058.0087849.00879.0029891.00298.0056556.00594.008785.00878.0031295.00284.0065542.00558.0098186.00827.0032643.00269.0064246.00573.0098185.00827.0033939.00253.0068173.00486.0103353.00723.0035179.00237.0072155.00451.010852.00672.0036365.0022.0076192.00417.0113688.0062.0037497.00203.0075115.00435.0113688.0062.0038574.00185.0074093.0035.0113689.00517.0039595.00167.008346.00317.0124023.00465s.007738.00285.0118856.00413c.0041475.00129.0086857.00254.0129191.00362.0042334.00109.0086053.00222.0129191.0031s.0085304.0014.0129191.00207.0089777.0011.0134359.00155c.0044581.00045.0089137.00081.0134358.00103.0045222.00023.0088552.00052.0134359.00052h2.1166666l-1.3229166-3.175z"
         fill="#dcecfe"
         id="path22" /><path
         d="m-4.4473857 296.22376h.0000012c.5130268 0 .9260411.41302.9260411.92604 0 .51303-.4130143.92604-.9260411.92604h-.0000012c-.5130267 0-.926041-.41301-.926041-.92604 0-.51302.4130143-.92604.926041-.92604z"
         fill="#dcecfe"
         id="path24" /></g></g></svg>
