<?xml version="1.0" encoding="UTF-8" standalone="no"?>
<svg
   height="32"
   viewBox="0 0 32 32"
   width="32"
   version="1.1"
   id="svg12"
   sodipodi:docname="virtualbox-vbox-extpack.svg"
   xml:space="preserve"
   inkscape:version="1.2.2 (b0a8486541, 2022-12-01)"
   xmlns:inkscape="http://www.inkscape.org/namespaces/inkscape"
   xmlns:sodipodi="http://sodipodi.sourceforge.net/DTD/sodipodi-0.dtd"
   xmlns:xlink="http://www.w3.org/1999/xlink"
   xmlns="http://www.w3.org/2000/svg"
   xmlns:svg="http://www.w3.org/2000/svg"><defs
     id="defs16"><linearGradient
       inkscape:collect="always"
       id="linearGradient1021"><stop
         style="stop-color:#29b672;stop-opacity:1;"
         offset="0"
         id="stop1017" /><stop
         style="stop-color:#54d38c;stop-opacity:1;"
         offset="1"
         id="stop1019" /></linearGradient><linearGradient
       inkscape:collect="always"
       xlink:href="#linearGradient1021"
       id="linearGradient1023"
       x1="-10"
       y1="1049.3622"
       x2="-10"
       y2="1023.3622"
       gradientUnits="userSpaceOnUse"
       gradientTransform="translate(26,-1020.3622)" /></defs><sodipodi:namedview
     id="namedview14"
     pagecolor="#ffffff"
     bordercolor="#000000"
     borderopacity="0.25"
     inkscape:showpageshadow="2"
     inkscape:pageopacity="0.0"
     inkscape:pagecheckerboard="0"
     inkscape:deskcolor="#d1d1d1"
     showgrid="true"
     inkscape:zoom="22.693708"
     inkscape:cx="20.512293"
     inkscape:cy="18.771723"
     inkscape:window-width="1517"
     inkscape:window-height="1363"
     inkscape:window-x="0"
     inkscape:window-y="0"
     inkscape:window-maximized="0"
     inkscape:current-layer="svg12"><inkscape:grid
       type="xygrid"
       id="grid2267" /></sodipodi:namedview><path
     style="fill:#278c5a;fill-opacity:1"
     d="m 5,1 h 21.999999 c 1.108,0 2,0.892 2,2 v 26 c 0,1.108 -0.892,2 -2,2 H 5 C 3.892,31 3,30.108 3,29 V 3 C 3,1.892 3.892,1 5,1 Z"
     id="path2" /><path
     style="fill:url(#linearGradient1023);fill-opacity:1"
     d="m 5,2 h 21.999999 c 0.554,0 1,0.446 1,1 v 26 c 0,0.554 -0.446,1 -1,1 H 5 C 4.446,30 4,29.554 4,29 V 3 C 4,2.446 4.446,2 5,2 Z"
     id="path4" /><path
     id="path6-3"
     d="M 9,9 C 8.4460076,9 8,9.44599 8,10 v 14 c 0,0.55396 0.4460076,1 1,1 h 14 c 0.553992,0 1,-0.44603 1,-1 V 17 10 C 24,9.44599 23.553992,9.00001 23,9 Z m 0,1 h 14 v 5 2 h -1 a 0.50005,0.50005 0 0 0 -0.447266,0.27539 L 21.091797,18.19531 19.474609,13.3418 A 0.50005,0.50005 0 0 0 18.980469,13 0.50005,0.50005 0 0 0 18.515625,13.37891 L 17.609375,17 H 16 a 0.50005,0.50005 0 0 0 -0.447266,0.27539 l -1.460937,2.91992 -1.617188,-4.85351 a 0.50005,0.50005 0 0 0 -0.921875,-0.0664 l -0.861328,1.72461 H 9 v -2 z m 10.068359,5.28711 1.457032,4.37109 a 0.50005,0.50005 0 0 0 0.921875,0.0645 l 0.861328,-1.72266 H 23 v 1 3 2 H 9 v -2 -3 -1 h 2 a 0.50005,0.50005 0 0 0 0.447266,-0.27734 l 0.458984,-0.91993 1.619141,4.85547 a 0.50005,0.50005 0 0 0 0.921875,0.0645 l 1.861328,-3.72266 H 18 a 0.50005,0.50005 0 0 0 0.484375,-0.37891 z"
     style="fill:#278c5a;fill-opacity:1" /><path
     id="path6"
     d="M 9,8 C 8.4460076,8 8,8.44599 8,9 v 14 c 0,0.55396 0.4460076,1 1,1 h 14 c 0.553992,0 1,-0.44603 1,-1 V 16 9 C 24,8.44599 23.553992,8.00001 23,8 Z m 0,1 h 14 v 5 2 h -1 a 0.50005,0.50005 0 0 0 -0.447266,0.27539 L 21.091797,17.19531 19.474609,12.3418 A 0.50005,0.50005 0 0 0 18.980469,12 0.50005,0.50005 0 0 0 18.515625,12.37891 L 17.609375,16 H 16 a 0.50005,0.50005 0 0 0 -0.447266,0.27539 l -1.460937,2.91992 -1.617188,-4.85351 a 0.50005,0.50005 0 0 0 -0.921875,-0.0664 l -0.861328,1.72461 H 9 v -2 z m 10.068359,5.28711 1.457032,4.37109 a 0.50005,0.50005 0 0 0 0.921875,0.0645 l 0.861328,-1.72266 H 23 v 1 3 2 H 9 v -2 -3 -1 h 2 a 0.50005,0.50005 0 0 0 0.447266,-0.27734 l 0.458984,-0.91993 1.619141,4.85547 a 0.50005,0.50005 0 0 0 0.921875,0.0645 l 1.861328,-3.72266 H 18 a 0.50005,0.50005 0 0 0 0.484375,-0.37891 z"
     style="fill:#f8faf9;fill-opacity:1" /></svg>
