<?xml version="1.0" encoding="UTF-8" standalone="no"?>
<svg
   height="32"
   viewBox="0 0 32 32"
   width="32"
   version="1.1"
   id="svg10"
   sodipodi:docname="vnd.ms-publisher.svg"
   xml:space="preserve"
   inkscape:version="1.2.2 (b0a8486541, 2022-12-01)"
   xmlns:inkscape="http://www.inkscape.org/namespaces/inkscape"
   xmlns:sodipodi="http://sodipodi.sourceforge.net/DTD/sodipodi-0.dtd"
   xmlns:xlink="http://www.w3.org/1999/xlink"
   xmlns="http://www.w3.org/2000/svg"
   xmlns:svg="http://www.w3.org/2000/svg"><defs
     id="defs14"><linearGradient
       inkscape:collect="always"
       id="linearGradient1739"><stop
         style="stop-color:#24b3cd;stop-opacity:1;"
         offset="0"
         id="stop1735" /><stop
         style="stop-color:#3bc6e0;stop-opacity:1;"
         offset="1"
         id="stop1737" /></linearGradient><linearGradient
       inkscape:collect="always"
       xlink:href="#linearGradient1739"
       id="linearGradient1741"
       x1="-30"
       y1="316.20627"
       x2="-30"
       y2="290.20627"
       gradientUnits="userSpaceOnUse" /></defs><sodipodi:namedview
     id="namedview12"
     pagecolor="#ffffff"
     bordercolor="#000000"
     borderopacity="0.25"
     inkscape:showpageshadow="2"
     inkscape:pageopacity="0.0"
     inkscape:pagecheckerboard="0"
     inkscape:deskcolor="#d1d1d1"
     showgrid="true"
     inkscape:zoom="16.046875"
     inkscape:cx="2.9600779"
     inkscape:cy="7.6650438"
     inkscape:window-width="1517"
     inkscape:window-height="1363"
     inkscape:window-x="0"
     inkscape:window-y="0"
     inkscape:window-maximized="0"
     inkscape:current-layer="svg10"><inkscape:grid
       type="xygrid"
       id="grid297" /></sodipodi:namedview><g
     transform="translate(46 -287.20626)"
     id="g8"><path
       style="fill:#288799;fill-opacity:1"
       d="m -41,288.20626 h 21.999999 c 1.108,0 2,0.892 2,2 v 26 c 0,1.108 -0.892,2 -2,2 H -41 c -1.108,0 -2,-0.892 -2,-2 v -26 c 0,-1.108 0.892,-2 2,-2 z"
       id="path2" /><path
       style="fill-opacity:1;fill:url(#linearGradient1741)"
       d="m -41,289.20626 h 21.999999 c 0.554,0 1,0.446 1,1 v 26 c 0,0.554 -0.446,1 -1,1 H -41 c -0.554,0 -1,-0.446 -1,-1 v -26 c 0,-0.554 0.446,-1 1,-1 z"
       id="path4" /><path
       style="fill:#288799;fill-opacity:1"
       d="m -35.999999,308.20626 v -8 l 7.999999,-3 4,2 v 11 l -4,1 -8,-2 h 6.999995 v -9 l -3.999999,1 v 6 z"
       id="path6-3" /><path
       style="fill:#e2fbf8;fill-opacity:1"
       d="m -35.999999,307.20626 v -8 l 7.999999,-3 4,2 v 11 l -4,1 -8,-2 h 6.999995 v -9 l -3.999999,1 v 6 z"
       id="path6" /></g></svg>
