<?xml version="1.0" encoding="UTF-8" standalone="no"?>
<svg
   height="32"
   viewBox="0 0 32 32"
   width="32"
   version="1.1"
   id="svg10"
   sodipodi:docname="x-kde-nsplugin-generated.svg"
   xml:space="preserve"
   inkscape:version="1.2.2 (b0a8486541, 2022-12-01)"
   xmlns:inkscape="http://www.inkscape.org/namespaces/inkscape"
   xmlns:sodipodi="http://sodipodi.sourceforge.net/DTD/sodipodi-0.dtd"
   xmlns:xlink="http://www.w3.org/1999/xlink"
   xmlns="http://www.w3.org/2000/svg"
   xmlns:svg="http://www.w3.org/2000/svg"><defs
     id="defs14"><linearGradient
       inkscape:collect="always"
       id="linearGradient2200"><stop
         style="stop-color:#326fef;stop-opacity:1;"
         offset="0"
         id="stop2196" /><stop
         style="stop-color:#5694fb;stop-opacity:1;"
         offset="1"
         id="stop2198" /></linearGradient><style
       type="text/css"
       id="current-color-scheme">
      .ColorScheme-Text {
        color:#36404d;
      }
      </style><style
       id="current-color-scheme-3"
       type="text/css">
      .ColorScheme-Text {
        color:#122036;
      }
      </style><style
       type="text/css"
       id="current-color-scheme-5">
      .ColorScheme-Text {
        color:#122036;
      }
      </style><style
       type="text/css"
       id="current-color-scheme-2">
      .ColorScheme-Text {
        color:#122036;
      }
      </style><style
       type="text/css"
       id="current-color-scheme-1">
      .ColorScheme-Text {
        color:#122036;
      }
      </style><style
       id="current-color-scheme-10"
       type="text/css">
      .ColorScheme-Text {
        color:#122036;
      }
      </style><style
       type="text/css"
       id="current-color-scheme-0">
      .ColorScheme-Text {
        color:#122036;
      }
      </style><style
       type="text/css"
       id="current-color-scheme-26">
      .ColorScheme-Text {
        color:#122036;
      }
      </style><linearGradient
       inkscape:collect="always"
       xlink:href="#linearGradient2200"
       id="linearGradient2202"
       x1="0"
       y1="304.64999"
       x2="0"
       y2="276.64999"
       gradientUnits="userSpaceOnUse" /></defs><sodipodi:namedview
     id="namedview12"
     pagecolor="#ffffff"
     bordercolor="#000000"
     borderopacity="0.25"
     inkscape:showpageshadow="2"
     inkscape:pageopacity="0.0"
     inkscape:pagecheckerboard="0"
     inkscape:deskcolor="#d1d1d1"
     showgrid="true"
     inkscape:zoom="16.046875"
     inkscape:cx="17.853944"
     inkscape:cy="23.369036"
     inkscape:window-width="1517"
     inkscape:window-height="1363"
     inkscape:window-x="0"
     inkscape:window-y="0"
     inkscape:window-maximized="0"
     inkscape:current-layer="svg10"><inkscape:grid
       type="xygrid"
       id="grid243" /></sodipodi:namedview><g
     transform="translate(16 -274.649985)"
     id="g8"><path
       style="fill:#33518f;fill-opacity:1"
       d="M -10.999999,275.65001 H 11 c 1.108,0 2,0.89202 2,2.00001 v 26.00001 c 0,1.10797 -0.892,1.99998 -2,1.99998 h -21.999999 c -1.108,0 -2,-0.892 -2,-1.99998 v -26 c 0,-1.108 0.892,-2 2,-2.00002 z"
       id="path2" /><path
       style="fill-opacity:1;fill:url(#linearGradient2202)"
       d="M -10.999999,276.65003 H 11 c 0.554,0 1,0.44599 1,1 v 26 c 0,0.55401 -0.446,1 -1,1 h -21.999999 c -0.554,0 -1,-0.44599 -1,-1 v -26 c 0,-0.55399 0.446,-1 1,-1 z"
       id="path4" /><path
       style="fill:#335291;fill-opacity:1"
       d="m -1.5,283.65007 c -1.213957,0 -2.221083,0.85579 -2.451172,2 L -6,285.65 c -2,0 -2,2 -2,2 v 2.05084 c 0.0019,3.6e-4 0.004,-3.9e-4 0.0059,0 0.08152,0.0166 0.159904,0.0363 0.238282,0.0605 0.07838,0.0243 0.155644,0.0524 0.230468,0.084 0.07482,0.0315 0.147892,0.0671 0.21875,0.10548 0.07086,0.0384 0.140552,0.0802 0.207032,0.125 0.06648,0.0448 0.129718,0.0937 0.191406,0.14452 0.06169,0.0509 0.12125,0.10368 0.177734,0.16015 0.05649,0.0565 0.109289,0.11604 0.160157,0.17775 0.05087,0.0617 0.09969,0.12491 0.144531,0.19139 0.04484,0.0665 0.0866,0.13619 0.125,0.20705 0.0384,0.0709 0.07393,0.14391 0.105469,0.21875 0.03154,0.0748 0.05971,0.15208 0.08398,0.23045 0.02428,0.0784 0.04395,0.15677 0.06055,0.2383 0.0166,0.0815 0.0286,0.16575 0.03711,0.25 0.0085,0.0842 0.01367,0.16928 0.01367,0.25585 0,0.0865 -0.0052,0.17161 -0.01367,0.25585 -0.0085,0.0842 -0.02051,0.1685 -0.03711,0.25 -0.0166,0.0815 -0.03627,0.15992 -0.06055,0.2383 -0.02428,0.0784 -0.05244,0.15564 -0.08398,0.23045 -0.03154,0.0748 -0.06707,0.1479 -0.105469,0.21875 -0.0384,0.0709 -0.08016,0.14056 -0.125,0.20705 -0.04484,0.0665 -0.09367,0.1297 -0.144531,0.19139 -0.05087,0.0617 -0.103672,0.12124 -0.160157,0.17773 -0.05648,0.0565 -0.116046,0.10929 -0.177734,0.16015 -0.06169,0.0509 -0.124927,0.0997 -0.191406,0.14452 -0.06648,0.0448 -0.136174,0.0866 -0.207032,0.125 -0.07086,0.0384 -0.143925,0.0739 -0.21875,0.10548 -0.07482,0.0315 -0.152091,0.0597 -0.230468,0.084 -0.07838,0.0243 -0.156763,0.0439 -0.238282,0.0605 -0.0019,3.9e-4 -0.004,-3.6e-4 -0.0059,0 v 3.0508 c 0,0 0,2 2,2 h 2.050781 c 3.77e-4,-0.002 -3.8e-4,-0.004 0,-0.006 0.0166,-0.0815 0.03627,-0.15992 0.06055,-0.2383 0.02428,-0.0784 0.05244,-0.15564 0.08398,-0.23045 0.03154,-0.0748 0.06707,-0.1479 0.105469,-0.21875 0.0384,-0.0709 0.08016,-0.14056 0.125,-0.20705 0.04484,-0.0665 0.09367,-0.1297 0.144531,-0.19139 0.05087,-0.0617 0.103672,-0.12124 0.160157,-0.17773 0.05648,-0.0565 0.116046,-0.10928 0.177734,-0.16014 0.06169,-0.0509 0.124927,-0.0997 0.191406,-0.14452 0.06648,-0.0448 0.136174,-0.0866 0.207032,-0.125 0.07086,-0.0384 0.143925,-0.0739 0.21875,-0.10548 0.07482,-0.0315 0.152091,-0.0597 0.230468,-0.084 0.07838,-0.0243 0.156763,-0.0439 0.238282,-0.0605 0.08152,-0.0166 0.165753,-0.0286 0.25,-0.0371 0.08425,-0.009 0.169297,-0.0137 0.255859,-0.0137 0.08656,0 0.171613,0.005 0.255859,0.0137 0.08425,0.009 0.168482,0.0205 0.25,0.0371 0.08152,0.0166 0.159904,0.0363 0.238282,0.0605 0.07838,0.0243 0.155644,0.0524 0.230468,0.084 0.07482,0.0315 0.147892,0.0671 0.21875,0.10548 0.07086,0.0384 0.140552,0.0802 0.207032,0.125 0.06648,0.0448 0.129718,0.0937 0.191406,0.14452 0.06169,0.0509 0.12125,0.10367 0.177734,0.16014 0.05649,0.0565 0.109289,0.11604 0.160157,0.17773 0.05087,0.0617 0.09969,0.12491 0.144531,0.19139 0.04484,0.0665 0.0866,0.13619 0.125,0.20705 0.0384,0.0709 0.07393,0.14391 0.105469,0.21875 0.03154,0.0748 0.05971,0.15208 0.08398,0.23045 0.02428,0.0784 0.04395,0.15677 0.06055,0.2383 3.8e-4,0.002 -3.77e-4,0.004 0,0.006 H 4 c 0,0 2,0 2,-2 v -3.04884 c 1.14421,-0.2301 2,-1.23721 2,-2.45116 0,-1.21396 -0.85579,-2.2211 -2,-2.45119 V 287.65 c 0,0 0,-2 -2,-2 H 0.951172 c -0.230089,-1.14421 -1.237215,-2 -2.451172,-2 z"
       id="path6-3" /><path
       style="fill:#fbfcfd;fill-opacity:1"
       d="m -1.5,282.65006 c -1.213957,0 -2.221083,0.85579 -2.451172,2 L -6,284.64999 c -2,0 -2,2 -2,2 v 2.05084 c 0.0019,3.6e-4 0.004,-3.9e-4 0.0059,0 0.08152,0.0166 0.159904,0.0363 0.238282,0.0605 0.07838,0.0243 0.155644,0.0524 0.230468,0.084 0.07482,0.0315 0.147892,0.0671 0.21875,0.10548 0.07086,0.0384 0.140552,0.0802 0.207032,0.125 0.06648,0.0448 0.129718,0.0937 0.191406,0.14452 0.06169,0.0509 0.12125,0.10368 0.177734,0.16015 0.05649,0.0565 0.109289,0.11605 0.160157,0.17774 0.05087,0.0617 0.09969,0.12492 0.144531,0.1914 0.04484,0.0665 0.0866,0.13618 0.125,0.20704 0.0384,0.0709 0.07393,0.14392 0.105469,0.21875 0.03154,0.0748 0.05971,0.15209 0.08398,0.23046 0.02428,0.0784 0.04395,0.15677 0.06055,0.23829 0.0166,0.0815 0.0286,0.16575 0.03711,0.25 0.0085,0.0842 0.01367,0.16929 0.01367,0.25586 0,0.0865 -0.0052,0.17161 -0.01367,0.25585 -0.0085,0.0842 -0.02051,0.16849 -0.03711,0.25 -0.0166,0.0815 -0.03627,0.15991 -0.06055,0.23829 -0.02428,0.0784 -0.05244,0.15564 -0.08398,0.23046 -0.03154,0.0748 -0.06707,0.1479 -0.105469,0.21875 -0.0384,0.0709 -0.08016,0.14056 -0.125,0.20704 -0.04484,0.0665 -0.09367,0.12971 -0.144531,0.1914 -0.05087,0.0617 -0.103672,0.12125 -0.160157,0.17774 -0.05648,0.0565 -0.116046,0.10928 -0.177734,0.16015 -0.06169,0.0509 -0.124927,0.0997 -0.191406,0.14452 -0.06648,0.0448 -0.136174,0.0866 -0.207032,0.125 -0.07086,0.0384 -0.143925,0.0739 -0.21875,0.10548 -0.07482,0.0315 -0.152091,0.0597 -0.230468,0.084 -0.07838,0.0243 -0.156763,0.0439 -0.238282,0.0605 -0.0019,3.9e-4 -0.004,-3.6e-4 -0.0059,0 v 3.05079 c 0,0 0,2 2,2 l 2.050781,10e-6 c 3.77e-4,-0.002 -3.8e-4,-0.004 0,-0.006 0.0166,-0.0815 0.03627,-0.15991 0.06055,-0.23829 0.02428,-0.0784 0.05244,-0.15564 0.08398,-0.23046 0.03154,-0.0748 0.06707,-0.1479 0.105469,-0.21875 0.0384,-0.0709 0.08016,-0.14056 0.125,-0.20704 0.04484,-0.0665 0.09367,-0.12971 0.144531,-0.1914 0.05087,-0.0617 0.103672,-0.12125 0.160157,-0.17774 0.05648,-0.0565 0.116046,-0.10928 0.177734,-0.16015 0.06169,-0.0509 0.124927,-0.0997 0.191406,-0.14453 0.06648,-0.0448 0.136174,-0.0866 0.207032,-0.125 0.07086,-0.0384 0.143925,-0.0739 0.21875,-0.10547 0.07482,-0.0315 0.152091,-0.0597 0.230468,-0.084 0.07838,-0.0243 0.156763,-0.0439 0.238282,-0.0605 0.08152,-0.0166 0.165753,-0.0286 0.25,-0.0371 0.08425,-0.009 0.169297,-0.0137 0.255859,-0.0137 0.08656,0 0.171613,0.005 0.255859,0.0137 0.08425,0.009 0.168482,0.0205 0.25,0.0371 0.08152,0.0166 0.159904,0.0363 0.238282,0.0605 0.07838,0.0243 0.155644,0.0524 0.230468,0.084 0.07482,0.0315 0.147892,0.0671 0.21875,0.10547 0.07086,0.0384 0.140552,0.0802 0.207032,0.125 0.06648,0.0448 0.129718,0.0937 0.191406,0.14453 0.06169,0.0509 0.12125,0.10367 0.177734,0.16015 0.05649,0.0565 0.109289,0.11605 0.160157,0.17774 0.05087,0.0617 0.09969,0.12492 0.144531,0.1914 0.04484,0.0665 0.0866,0.13618 0.125,0.20704 0.0384,0.0709 0.07393,0.14392 0.105469,0.21875 0.03154,0.0748 0.05971,0.15209 0.08398,0.23046 0.02428,0.0784 0.04395,0.15677 0.06055,0.23829 3.8e-4,0.002 -3.77e-4,0.004 0,0.006 L 4,298.64999 c 0,0 2,0 2,-2 v -3.04883 c 1.14421,-0.23009 2,-1.23721 2,-2.45116 0,-1.21396 -0.85579,-2.2211 -2,-2.45119 v -2.04882 c 0,0 0,-2 -2,-2 l -3.048828,10e-6 c -0.230089,-1.14421 -1.237215,-2 -2.451172,-2 z"
       id="path6" /></g></svg>
