<?xml version="1.0" encoding="UTF-8" standalone="no"?>
<!-- Created with Inkscape (http://www.inkscape.org/) -->

<svg
   width="128"
   height="128"
   viewBox="0 0 128 128"
   version="1.1"
   id="svg8"
   inkscape:version="1.2.2 (b0a8486541, 2022-12-01)"
   sodipodi:docname="user-identity.svg"
   xmlns:inkscape="http://www.inkscape.org/namespaces/inkscape"
   xmlns:sodipodi="http://sodipodi.sourceforge.net/DTD/sodipodi-0.dtd"
   xmlns:xlink="http://www.w3.org/1999/xlink"
   xmlns="http://www.w3.org/2000/svg"
   xmlns:svg="http://www.w3.org/2000/svg"
   xmlns:rdf="http://www.w3.org/1999/02/22-rdf-syntax-ns#"
   xmlns:cc="http://creativecommons.org/ns#"
   xmlns:dc="http://purl.org/dc/elements/1.1/">
  <title
     id="title7895">Antu icon Theme</title>
  <defs
     id="defs2">
    <linearGradient
       gradientTransform="matrix(3.7795275,0,0,3.7795275,-431.74368,-825.68691)"
       inkscape:collect="always"
       xlink:href="#linearGradient5716"
       id="linearGradient4581-7"
       x1="32.740517"
       y1="304.88913"
       x2="32.740517"
       y2="278.43082"
       gradientUnits="userSpaceOnUse" />
    <linearGradient
       inkscape:collect="always"
       id="linearGradient5716">
      <stop
         style="stop-color:#23b099;stop-opacity:1;"
         offset="0"
         id="stop5712" />
      <stop
         style="stop-color:#42d5b4;stop-opacity:1;"
         offset="1"
         id="stop5714" />
    </linearGradient>
  </defs>
  <sodipodi:namedview
     id="base"
     pagecolor="#ffffff"
     bordercolor="#666666"
     borderopacity="1.0"
     inkscape:pageopacity="0.0"
     inkscape:pageshadow="2"
     inkscape:zoom="1.4"
     inkscape:cx="-73.571429"
     inkscape:cy="102.85714"
     inkscape:document-units="px"
     inkscape:current-layer="g4852"
     showgrid="true"
     units="px"
     inkscape:window-width="2560"
     inkscape:window-height="1363"
     inkscape:window-x="0"
     inkscape:window-y="0"
     inkscape:window-maximized="1"
     objecttolerance="10"
     gridtolerance="10"
     guidetolerance="10"
     inkscape:snap-bbox="true"
     inkscape:bbox-paths="true"
     inkscape:bbox-nodes="true"
     inkscape:snap-bbox-edge-midpoints="true"
     inkscape:snap-bbox-midpoints="true"
     inkscape:object-paths="true"
     inkscape:snap-intersection-paths="true"
     inkscape:showpageshadow="false"
     inkscape:object-nodes="true"
     inkscape:snap-smooth-nodes="true"
     inkscape:pagecheckerboard="0"
     inkscape:deskcolor="#d1d1d1">
    <inkscape:grid
       type="xygrid"
       id="grid7897"
       empspacing="4" />
  </sodipodi:namedview>
  <metadata
     id="metadata5">
    <rdf:RDF>
      <cc:Work
         rdf:about="">
        <dc:format>image/svg+xml</dc:format>
        <dc:type
           rdf:resource="http://purl.org/dc/dcmitype/StillImage" />
        <dc:title>Antu icon Theme</dc:title>
      </cc:Work>
    </rdf:RDF>
  </metadata>
  <g
     inkscape:label="Capa 1"
     inkscape:groupmode="layer"
     id="layer1"
     transform="translate(0,-186.64999)">
    <g
       id="g1525"
       transform="translate(-32,-4)">
      <g
         id="g4852"
         transform="translate(640,128)">
        <g
           id="g7136"
           transform="translate(-236,-152)">
          <path
             inkscape:connector-curvature="0"
             id="rect4500-7"
             d="m -308,215.64999 c 34.902,0 63,28.09799 63,63 0,34.90197 -28.098,63 -63,63 -34.902,0 -63,-28.09803 -63,-63 0,-34.90201 28.098,-63 63,-63 z"
             style="fill:#2b8873;fill-opacity:1;stroke:none;stroke-width:0.187117;stroke-miterlimit:4;stroke-dasharray:none;stroke-opacity:1" />
          <path
             inkscape:connector-curvature="0"
             id="rect4500-3-2"
             d="m -308,216.64998 c 34.348,0 62,27.652 62,62.00001 0,34.348 -27.652,62.00001 -62,62.00001 -34.348,0 -62,-27.65201 -62,-62.00001 0,-34.34801 27.652,-62.00001 62,-62.00001 z"
             style="fill:url(#linearGradient4581-7);fill-opacity:1;stroke:none;stroke-width:0.184147;stroke-miterlimit:4;stroke-dasharray:none;stroke-opacity:1" />
          <path
             style="fill:#2b8873;fill-opacity:1;stroke:none;stroke-width:2;stroke-linecap:round;stroke-linejoin:round;stroke-miterlimit:4;stroke-dasharray:none;stroke-dashoffset:0;stroke-opacity:1"
             d="m -308,240.64999 c -11.08,0 -20,8.92 -20,20 0,11.08 8.92,20 20,20 11.08,0 20,-8.92 20,-20 0,-11.08 -8.92,-20 -20,-20 z m 0,46 c -16.56854,0 -30,13.43146 -30,30 27,8 34,8 60,0 0,-16.56854 -13.43146,-30 -30,-30 z"
             id="rect4180-3"
             inkscape:connector-curvature="0"
             sodipodi:nodetypes="ssssssccs" />
          <path
             style="fill:#d8f3ed;fill-opacity:1;stroke:none;stroke-width:2;stroke-linecap:round;stroke-linejoin:round;stroke-miterlimit:4;stroke-dasharray:none;stroke-dashoffset:0;stroke-opacity:1"
             d="m -308,239.64999 c -11.08,0 -20,8.92 -20,20 0,11.08 8.92,20 20,20 11.08,0 20,-8.92 20,-20 0,-11.08 -8.92,-20 -20,-20 z m 0,46 c -16.56854,0 -30,13.43146 -30,30 27,8 34,8 60,0 0,-16.56854 -13.43146,-30 -30,-30 z"
             id="rect4180"
             inkscape:connector-curvature="0"
             sodipodi:nodetypes="ssssssccs" />
        </g>
      </g>
    </g>
  </g>
</svg>
