<?xml version="1.0" encoding="UTF-8" standalone="no"?>
<svg
   height="16"
   viewBox="0 0 16 16"
   width="16"
   id="svg2"
   version="1.1"
   inkscape:version="1.3.2 (091e20ef0f, 2023-11-25, custom)"
   sodipodi:docname="emblem-symbolic-link.svg"
   xmlns:inkscape="http://www.inkscape.org/namespaces/inkscape"
   xmlns:sodipodi="http://sodipodi.sourceforge.net/DTD/sodipodi-0.dtd"
   xmlns:xlink="http://www.w3.org/1999/xlink"
   xmlns="http://www.w3.org/2000/svg"
   xmlns:svg="http://www.w3.org/2000/svg"
   xmlns:rdf="http://www.w3.org/1999/02/22-rdf-syntax-ns#"
   xmlns:cc="http://creativecommons.org/ns#"
   xmlns:dc="http://purl.org/dc/elements/1.1/">
  <metadata
     id="metadata10">
    <rdf:RDF>
      <cc:Work
         rdf:about="">
        <dc:format>image/svg+xml</dc:format>
        <dc:type
           rdf:resource="http://purl.org/dc/dcmitype/StillImage" />
        <dc:title />
      </cc:Work>
    </rdf:RDF>
  </metadata>
  <sodipodi:namedview
     pagecolor="#ffffff"
     bordercolor="#666666"
     borderopacity="1"
     objecttolerance="10"
     gridtolerance="10"
     guidetolerance="10"
     inkscape:pageopacity="0"
     inkscape:pageshadow="2"
     inkscape:window-width="2560"
     inkscape:window-height="1356"
     id="namedview8"
     showgrid="true"
     inkscape:showpageshadow="false"
     inkscape:snap-bbox="true"
     inkscape:bbox-paths="true"
     inkscape:bbox-nodes="true"
     inkscape:snap-bbox-edge-midpoints="true"
     inkscape:snap-bbox-midpoints="true"
     inkscape:object-paths="true"
     inkscape:object-nodes="true"
     inkscape:snap-smooth-nodes="false"
     inkscape:snap-midpoints="false"
     inkscape:snap-intersection-paths="true"
     showguides="false"
     inkscape:zoom="32"
     inkscape:cx="9.796875"
     inkscape:cy="7.4375"
     inkscape:window-x="0"
     inkscape:window-y="0"
     inkscape:window-maximized="1"
     inkscape:current-layer="svg2"
     inkscape:pagecheckerboard="0"
     inkscape:deskcolor="#d1d1d1">
    <inkscape:grid
       type="xygrid"
       id="grid4138"
       originx="0"
       originy="0"
       spacingy="1"
       spacingx="1"
       units="px"
       visible="true" />
  </sodipodi:namedview>
  <defs
     id="defs2">
    <style
       type="text/css"
       id="current-color-scheme">
      .ColorScheme-Text {
        color:#122036;
      }
      </style>
    <style
       id="current-color-scheme-3"
       type="text/css">
      .ColorScheme-Text {
        color:#122036;
      }
      </style>
    <style
       id="current-color-scheme-1"
       type="text/css">
      .ColorScheme-Text {
        color:#122036;
      }
      </style>
    <style
       type="text/css"
       id="current-color-scheme-10">
      .ColorScheme-Text {
        color:#122036;
      }
      </style>
    <style
       id="current-color-scheme-7"
       type="text/css">
      .ColorScheme-Text {
        color:#122036;
      }
      </style>
    <style
       id="current-color-scheme-1-0"
       type="text/css">
      .ColorScheme-Text {
        color:#122036;
      }
      </style>
    <style
       type="text/css"
       id="current-color-scheme-10-9">
      .ColorScheme-Text {
        color:#122036;
      }
      </style>
    <style
       id="current-color-scheme-18"
       type="text/css">
      .ColorScheme-Text {
        color:#122036;
      }
      </style>
    <style
       id="current-color-scheme-1-79"
       type="text/css">
      .ColorScheme-Text {
        color:#122036;
      }
      </style>
    <style
       type="text/css"
       id="current-color-scheme-10-20">
      .ColorScheme-Text {
        color:#122036;
      }
      </style>
    <style
       type="text/css"
       id="current-color-scheme-12">
      .ColorScheme-Text {
        color:#122036;
      }
      </style>
    <style
       type="text/css"
       id="current-color-scheme-1-7">
      .ColorScheme-Text {
        color:#122036;
      }
      </style>
    <style
       id="current-color-scheme-10-3"
       type="text/css">
      .ColorScheme-Text {
        color:#122036;
      }
      </style>
    <style
       type="text/css"
       id="current-color-scheme-2">
      .ColorScheme-Text {
        color:#122036;
      }
      </style>
    <style
       type="text/css"
       id="current-color-scheme-1-0-2">
      .ColorScheme-Text {
        color:#122036;
      }
      </style>
    <style
       id="current-color-scheme-10-2"
       type="text/css">
      .ColorScheme-Text {
        color:#122036;
      }
      </style>
    <style
       id="current-color-scheme-22"
       type="text/css">
      .ColorScheme-Text {
        color:#122036;
      }
      </style>
    <linearGradient
       inkscape:collect="always"
       xlink:href="#linearGradient2"
       id="linearGradient3"
       x1="-11.375"
       y1="-4.499145"
       x2="-11.375"
       y2="6.1883545"
       gradientUnits="userSpaceOnUse"
       gradientTransform="translate(31.375,21.499146)" />
    <linearGradient
       id="linearGradient2"
       inkscape:collect="always">
      <stop
         style="stop-color:#343c49;stop-opacity:1;"
         offset="0"
         id="stop2" />
      <stop
         style="stop-color:#272c36;stop-opacity:1;"
         offset="1"
         id="stop3" />
    </linearGradient>
  </defs>
  <g
     id="g1"
     transform="translate(-11,-14)">
    <path
       id="rect1"
       style="fill:#1f1f27;fill-opacity:1;stroke-width:1.75"
       d="m 19,15 c 3.878,0 7,3.122 7,7 0,3.878 -3.122,7.000001 -7,7.000001 -3.878,0 -7,-3.122001 -7,-7.000001 0,-3.878 3.122,-7 7,-7 z" />
    <path
       id="rect2"
       style="fill:url(#linearGradient3);stroke-width:2"
       d="m 19,16 c 3.324,0 6,2.676 6,6 0,3.324 -2.676,6.000001 -6,6.000001 -3.324,0 -6,-2.676001 -6,-6.000001 0,-3.324 2.676,-6 6,-6 z" />
    <path
       id="path5-0"
       style="color:#000000;fill:#1e1e25;fill-opacity:1;stroke-linecap:round;stroke-linejoin:round;-inkscape-stroke:none;paint-order:stroke fill markers"
       d="m 19.876953,19.000001 a 1.0001,1.0001 0 0 0 -0.832031,0.466797 l -1.890625,3 A 1.0001,1.0001 0 0 0 18,24.000001 h 1 c 0,1.108 -0.892002,2.000001 -2,2.000001 -0.95813,0 -1.753202,-0.667545 -1.951172,-1.564454 C 15.01765,24.608628 15,24.786422 15,24.968751 c 0,1.644684 1.324067,2.968751 2.96875,2.968751 h 0.0625 C 19.675933,27.937502 21,26.613435 21,24.968751 v -0.96875 h 0.890625 a 1.0001,1.0001 0 0 0 0.832031,-1.554687 l -2,-3 a 1.0001,1.0001 0 0 0 -0.845703,-0.445313 z" />
    <path
       id="path5"
       style="color:#000000;fill:#ffffff;fill-opacity:1;stroke-linecap:round;stroke-linejoin:round;-inkscape-stroke:none;paint-order:stroke fill markers"
       d="m 19.876953,18.000001 a 1.0001,1.0001 0 0 0 -0.832031,0.466797 l -1.890625,3 A 1.0001,1.0001 0 0 0 18,23.000001 h 1 c 0,1.107999 -0.892002,2 -2,2 -0.95813,0 -1.753202,-0.667545 -1.951172,-1.564453 C 15.01765,23.608628 15,23.786421 15,23.968751 c 0,1.644683 1.324068,2.96875 2.96875,2.96875 h 0.0625 c 1.644683,0 2.96875,-1.324067 2.96875,-2.96875 v -0.96875 h 0.890625 a 1.0001,1.0001 0 0 0 0.832031,-1.554688 l -2,-3 a 1.0001,1.0001 0 0 0 -0.845703,-0.445312 z" />
  </g>
</svg>
