<?xml version="1.0" encoding="UTF-8" standalone="no"?>
<svg
   version="1.1"
   viewBox="0 0 32 32"
   id="svg1"
   sodipodi:docname="kdeconnect.svg"
   xml:space="preserve"
   inkscape:version="1.3.2 (091e20ef0f, 2023-11-25, custom)"
   xmlns:inkscape="http://www.inkscape.org/namespaces/inkscape"
   xmlns:sodipodi="http://sodipodi.sourceforge.net/DTD/sodipodi-0.dtd"
   xmlns:xlink="http://www.w3.org/1999/xlink"
   xmlns="http://www.w3.org/2000/svg"
   xmlns:svg="http://www.w3.org/2000/svg"><defs
     id="defs1"><linearGradient
       inkscape:collect="always"
       xlink:href="#linearGradient4506"
       id="linearGradient1186"
       x1="-51"
       y1="320.64999"
       x2="-51"
       y2="291.64999"
       gradientUnits="userSpaceOnUse" /><linearGradient
       inkscape:collect="always"
       id="linearGradient4506"><stop
         style="stop-color:#252a34;stop-opacity:1"
         offset="0"
         id="stop4502" /><stop
         style="stop-color:#353d4b;stop-opacity:1"
         offset="1"
         id="stop4504" /></linearGradient><linearGradient
       id="linearGradient1962"
       inkscape:collect="always"><stop
         id="stop1958"
         offset="0"
         style="stop-color:#33acfa;stop-opacity:1" /><stop
         id="stop1960"
         offset="1"
         style="stop-color:#0d72ec;stop-opacity:1" /></linearGradient><linearGradient
       inkscape:collect="always"
       xlink:href="#linearGradient1962"
       id="linearGradient893"
       x1="-51"
       y1="318.64999"
       x2="-51"
       y2="294.64999"
       gradientUnits="userSpaceOnUse" /><style
       id="current-color-scheme-9"
       type="text/css">
      .ColorScheme-Text {
        color:#122036;
      }
      </style><style
       id="current-color-scheme-7"
       type="text/css">
      .ColorScheme-Text {
        color:#122036;
      }
      </style><style
       id="current-color-scheme-5"
       type="text/css">
      .ColorScheme-Text {
        color:#122036;
      }
      </style></defs><sodipodi:namedview
     id="namedview1"
     pagecolor="#ffffff"
     bordercolor="#000000"
     borderopacity="0.25"
     inkscape:showpageshadow="2"
     inkscape:pageopacity="0.0"
     inkscape:pagecheckerboard="0"
     inkscape:deskcolor="#d1d1d1"
     showgrid="true"
     inkscape:zoom="36"
     inkscape:cx="11.736111"
     inkscape:cy="14.694444"
     inkscape:window-width="2560"
     inkscape:window-height="1356"
     inkscape:window-x="0"
     inkscape:window-y="0"
     inkscape:window-maximized="1"
     inkscape:current-layer="g1196"><inkscape:grid
       id="grid1"
       units="px"
       originx="0"
       originy="0"
       spacingx="1"
       spacingy="1"
       empcolor="#0099e5"
       empopacity="0.30196078"
       color="#0099e5"
       opacity="0.14902"
       empspacing="5"
       dotted="false"
       gridanglex="30"
       gridanglez="30"
       visible="true" /></sodipodi:namedview><style
     id="current-color-scheme"
     type="text/css">.ColorScheme-Highlight {
    color:#3daee9;
}
.ColorScheme-Text {
    color:#232629;
}</style><g
     transform="translate(67,-290.64999)"
     id="g1196"><rect
       style="fill:url(#linearGradient1186);fill-opacity:1;stroke:none;stroke-width:0.8;stroke-linecap:round;stroke-linejoin:round;stroke-miterlimit:4;stroke-dasharray:none;stroke-opacity:1"
       id="rect837-3-6"
       width="20"
       height="29.999996"
       x="-61"
       y="291.64999"
       ry="2.9999962" /><path
       style="opacity:1;vector-effect:none;fill:url(#linearGradient893);fill-opacity:1;stroke:none;stroke-width:2;stroke-linecap:round;stroke-linejoin:round;stroke-miterlimit:4;stroke-dasharray:none;stroke-dashoffset:0;stroke-opacity:1"
       d="m -58,293.64999 h 14 c 0.554,0 1,0.446 1,1 v 24 c 0,0.554 -0.446,1 -1,1 h -14 c -0.554,0 -1,-0.446 -1,-1 v -24 c 0,-0.554 0.446,-1 1,-1 z"
       id="rect834" /><path
       style="fill:#15151a;fill-opacity:1;stroke:none;stroke-width:0.8;stroke-linecap:round;stroke-linejoin:round;stroke-miterlimit:4;stroke-dasharray:none;stroke-opacity:0"
       d="M 9,1 C 7.338002,1 6,2.338 6,4 v 24 c 0,1.662 1.338002,3 3,3 h 14 c 1.661998,0 3,-1.338 3,-3 V 4 C 26,2.338 24.661998,1 23,1 h -1.96875 -10.0625 z m 0,1 h 1 12 1 c 1.107998,0 2,0.892 2,2 v 24 c 0,1.108 -0.892002,2 -2,2 H 9 C 7.892002,30 7,29.108 7,28 V 4 C 7,2.892 7.897501,1.88975 9,2 Z"
       transform="translate(-67,290.64999)"
       id="rect835-7"
       inkscape:connector-curvature="0"
       sodipodi:nodetypes="ssssssssccscccsssssssc" /><path
       id="rect995-3"
       d="m -54.500002,317.64987 h 7.000004 c 0.276999,0 0.499998,0.223 0.499998,0.5 0,0.277 -0.222999,0.5 -0.499998,0.5 h -7.000004 c -0.276999,0 -0.499998,-0.223 -0.499998,-0.5 0,-0.277 0.222999,-0.5 0.499998,-0.5 z"
       style="fill:#15151a;fill-opacity:1;stroke:none;stroke-width:0.8;stroke-linecap:round;stroke-linejoin:round;stroke-miterlimit:4;stroke-dasharray:none;stroke-opacity:1"
       inkscape:connector-curvature="0" /><path
       id="rect1"
       style="fill:#15151a;fill-opacity:1;stroke:none;stroke-width:4;stroke-linecap:round;stroke-linejoin:round;paint-order:stroke fill markers"
       d="m -54,294.64999 c -0.553999,0 -1,0.446 -1,1 0,0.554 0.446001,1 1,1 0.553999,0 1,-0.446 1,-1 0,-0.554 -0.446001,-1 -1,-1 z m 3,0 c -0.553999,0 -1,0.446 -1,1 0,0.554 0.446001,1 1,1 h 3 c 0.553999,0 1,-0.446 1,-1 0,-0.554 -0.446001,-1 -1,-1 z"
       sodipodi:nodetypes="ssssssssssss" /><path
       id="rect2-9"
       style="fill:#0f74ed;fill-opacity:1;stroke:none;stroke-width:2.66667;stroke-linecap:round;stroke-linejoin:round;stroke-opacity:1;paint-order:stroke fill markers"
       d="m -58,315.64999 v 2 h 2 v -2 z m 3,0 v 2 h 2 v -2 z m 3,0 v 2 h 2 v -2 z m 3,0 v 2 h 2 v -2 z m 3,0 v 2 h 2 v -2 z"
       sodipodi:nodetypes="ccccccccccccccccccccccccc" /><path
       id="rect2"
       style="fill:#ddf1fe;fill-opacity:1;stroke:none;stroke-width:2.66667;stroke-linecap:round;stroke-linejoin:round;stroke-opacity:1;paint-order:stroke fill markers"
       d="m -58,314.64999 v 2 h 2 v -2 z m 3,0 v 2 h 2 v -2 z m 3,0 v 2 h 2 v -2 z m 3,0 v 2 h 2 v -2 z m 3,0 v 2 h 2 v -2 z"
       sodipodi:nodetypes="ccccccccccccccccccccccccc" /><g
       id="g949"
       transform="translate(96,-59)" /><path
       id="path15158-2"
       style="fill:#0f74ed;fill-opacity:1;stroke-width:0.999999"
       d="M -54.025391,300.65 C -54.56733,300.66512 -55,301.10464 -55,301.64999 c 0,0.554 0.446,0.99998 1,0.99998 0.553999,0 1,-0.44598 1,-0.99998 0,-0.55401 -0.446001,-0.99999 -1,-0.99999 -0.0087,0 -0.01678,-2.3e-4 -0.0254,0 z m 4.025391,0 -2,1.99997 3,3 -3,3 2,2.00002 3,-3 2,-2.00002 -2,-1.99997 z m -5.539062,3.99999 C -56.351973,304.66888 -57,305.33196 -57,306.15001 c 0,0.83101 0.669,1.49998 1.5,1.49998 0.830999,0 1.5,-0.66897 1.5,-1.49998 0,-0.83101 -0.669001,-1.50002 -1.5,-1.50002 -0.013,0 -0.02615,-3.4e-4 -0.03906,0 z m 1.486327,5.00001 C -55.136614,309.67646 -56,310.55932 -56,311.64997 c 0,1.10797 0.892001,2.00002 2,2.00002 1.107999,0 2,-0.89205 2,-2.00002 0,-1.108 -0.892001,-1.99997 -2,-1.99997 -0.01731,0 -0.03553,-4.5e-4 -0.05273,0 z" /><path
       id="path15158"
       style="fill:#ddf1fe;fill-opacity:1;stroke-width:0.999999"
       d="M -54.025391,299.65002 C -54.56733,299.66514 -55,300.10466 -55,300.65001 c 0,0.554 0.446,0.99998 1,0.99998 0.553999,0 1,-0.44598 1,-0.99998 0,-0.55401 -0.446001,-0.99999 -1,-0.99999 -0.0087,0 -0.01678,-2.3e-4 -0.0254,0 z m 4.025391,0 -2,1.99997 3,3 -3,3 2,2.00002 3,-3 2,-2.00002 -2,-1.99997 z m -5.539062,3.99999 C -56.351973,303.6689 -57,304.33198 -57,305.15003 c 0,0.831 0.669,1.49998 1.5,1.49998 0.830999,0 1.5,-0.66898 1.5,-1.49998 0,-0.83101 -0.669001,-1.50002 -1.5,-1.50002 -0.013,0 -0.02615,-3.4e-4 -0.03906,0 z m 1.486327,5.00001 C -55.136614,308.67648 -56,309.55934 -56,310.64999 c 0,1.10797 0.892001,2.00002 2,2.00002 1.107999,0 2,-0.89205 2,-2.00002 0,-1.108 -0.892001,-1.99997 -2,-1.99997 -0.01731,0 -0.03553,-4.5e-4 -0.05273,0 z" /></g></svg>
