<?xml version="1.0" encoding="UTF-8" standalone="no"?>
<!-- Created with Inkscape (http://www.inkscape.org/) -->

<svg
   width="64"
   height="64"
   viewBox="0 0 64 64"
   version="1.1"
   id="svg8"
   inkscape:version="1.2.2 (b0a8486541, 2022-12-01)"
   sodipodi:docname="firefox-nightly.svg"
   xml:space="preserve"
   xmlns:inkscape="http://www.inkscape.org/namespaces/inkscape"
   xmlns:sodipodi="http://sodipodi.sourceforge.net/DTD/sodipodi-0.dtd"
   xmlns:xlink="http://www.w3.org/1999/xlink"
   xmlns="http://www.w3.org/2000/svg"
   xmlns:svg="http://www.w3.org/2000/svg"
   xmlns:rdf="http://www.w3.org/1999/02/22-rdf-syntax-ns#"
   xmlns:cc="http://creativecommons.org/ns#"
   xmlns:dc="http://purl.org/dc/elements/1.1/"><title
     id="title7895">Antu icon Theme</title><defs
     id="defs2"><linearGradient
       inkscape:collect="always"
       id="linearGradient8416"><stop
         style="stop-color:#a166a7;stop-opacity:1;"
         offset="0"
         id="stop8412" /><stop
         style="stop-color:#b57bb8;stop-opacity:1;"
         offset="1"
         id="stop8414" /></linearGradient><linearGradient
       inkscape:collect="always"
       id="linearGradient7166"><stop
         style="stop-color:#a065a6;stop-opacity:1;"
         offset="0"
         id="stop7162" /><stop
         style="stop-color:#bb82be;stop-opacity:1;"
         offset="1"
         id="stop7164" /></linearGradient><linearGradient
       inkscape:collect="always"
       id="linearGradient6606"><stop
         style="stop-color:#a065a6;stop-opacity:1;"
         offset="0"
         id="stop6602" /><stop
         style="stop-color:#bb82be;stop-opacity:1;"
         offset="1"
         id="stop6604" /></linearGradient><linearGradient
       inkscape:collect="always"
       id="linearGradient5770"><stop
         style="stop-color:#e0e0e0;stop-opacity:1;"
         offset="0"
         id="stop5766" /><stop
         style="stop-color:#fffcf2;stop-opacity:1;"
         offset="1"
         id="stop5768" /></linearGradient><linearGradient
       inkscape:collect="always"
       id="linearGradient4451"><stop
         style="stop-color:#d8e2eb;stop-opacity:1;"
         offset="0"
         id="stop4447" /><stop
         style="stop-color:#f0f1f2;stop-opacity:1;"
         offset="1"
         id="stop4449" /></linearGradient><style
       id="current-color-scheme"
       type="text/css">
      .ColorScheme-Text {
        color:#122036;
      }
      </style><style
       type="text/css"
       id="current-color-scheme-53">
      .ColorScheme-Text {
        color:#122036;
      }
      </style><style
       id="current-color-scheme-5"
       type="text/css">
      .ColorScheme-Text {
        color:#122036;
      }
      </style><style
       id="current-color-scheme-2"
       type="text/css">
      .ColorScheme-Text {
        color:#122036;
      }
      </style><style
       id="current-color-scheme-1"
       type="text/css">
      .ColorScheme-Text {
        color:#122036;
      }
      </style><style
       type="text/css"
       id="current-color-scheme-10">
      .ColorScheme-Text {
        color:#122036;
      }
      </style><style
       id="current-color-scheme-0"
       type="text/css">
      .ColorScheme-Text {
        color:#122036;
      }
      </style><style
       id="current-color-scheme-26"
       type="text/css">
      .ColorScheme-Text {
        color:#122036;
      }
      </style><style
       id="current-color-scheme-7"
       type="text/css">
      .ColorScheme-Text {
        color:#122036;
      }
      </style><style
       id="current-color-scheme-3"
       type="text/css">
      .ColorScheme-Text {
        color:#122036;
      }
      </style><style
       id="current-color-scheme-22"
       type="text/css">
      .ColorScheme-Text {
        color:#122036;
      }
      </style><style
       id="current-color-scheme-75"
       type="text/css">
      .ColorScheme-Text {
        color:#122036;
      }
      </style><style
       type="text/css"
       id="current-color-scheme-53-3">
      .ColorScheme-Text {
        color:#122036;
      }
      </style><style
       id="current-color-scheme-5-5"
       type="text/css">
      .ColorScheme-Text {
        color:#122036;
      }
      </style><style
       id="current-color-scheme-2-6"
       type="text/css">
      .ColorScheme-Text {
        color:#122036;
      }
      </style><style
       id="current-color-scheme-1-2"
       type="text/css">
      .ColorScheme-Text {
        color:#122036;
      }
      </style><style
       type="text/css"
       id="current-color-scheme-10-9">
      .ColorScheme-Text {
        color:#122036;
      }
      </style><style
       id="current-color-scheme-0-1"
       type="text/css">
      .ColorScheme-Text {
        color:#122036;
      }
      </style><style
       id="current-color-scheme-26-2"
       type="text/css">
      .ColorScheme-Text {
        color:#122036;
      }
      </style><style
       id="current-color-scheme-29"
       type="text/css">
      .ColorScheme-Text {
        color:#122036;
      }
      </style><style
       type="text/css"
       id="current-color-scheme-5-1">
      .ColorScheme-Text {
        color:#122036;
      }
      </style><style
       type="text/css"
       id="current-color-scheme-2-2">
      .ColorScheme-Text {
        color:#122036;
      }
      </style><style
       type="text/css"
       id="current-color-scheme-1-7">
      .ColorScheme-Text {
        color:#122036;
      }
      </style><style
       id="current-color-scheme-10-0"
       type="text/css">
      .ColorScheme-Text {
        color:#122036;
      }
      </style><style
       type="text/css"
       id="current-color-scheme-0-9">
      .ColorScheme-Text {
        color:#122036;
      }
      </style><style
       type="text/css"
       id="current-color-scheme-26-3">
      .ColorScheme-Text {
        color:#122036;
      }
      </style><style
       id="current-color-scheme-12"
       type="text/css">
      .ColorScheme-Text {
        color:#122036;
      }
      </style><style
       type="text/css"
       id="current-color-scheme-5-9">
      .ColorScheme-Text {
        color:#122036;
      }
      </style><style
       type="text/css"
       id="current-color-scheme-2-3">
      .ColorScheme-Text {
        color:#122036;
      }
      </style><style
       type="text/css"
       id="current-color-scheme-1-1">
      .ColorScheme-Text {
        color:#122036;
      }
      </style><style
       id="current-color-scheme-10-94"
       type="text/css">
      .ColorScheme-Text {
        color:#122036;
      }
      </style><style
       type="text/css"
       id="current-color-scheme-0-7">
      .ColorScheme-Text {
        color:#122036;
      }
      </style><style
       type="text/css"
       id="current-color-scheme-26-8">
      .ColorScheme-Text {
        color:#122036;
      }
      </style><style
       type="text/css"
       id="current-color-scheme-7-4">
      .ColorScheme-Text {
        color:#122036;
      }
      </style><linearGradient
       inkscape:collect="always"
       xlink:href="#linearGradient4451"
       id="linearGradient4453"
       x1="32"
       y1="292.64999"
       x2="33"
       y2="272.64999"
       gradientUnits="userSpaceOnUse" /><linearGradient
       inkscape:collect="always"
       xlink:href="#linearGradient5770"
       id="linearGradient5772"
       x1="19"
       y1="287.64999"
       x2="19"
       y2="277.64999"
       gradientUnits="userSpaceOnUse" /><linearGradient
       inkscape:collect="always"
       xlink:href="#linearGradient6606"
       id="linearGradient6608"
       x1="32"
       y1="310.64999"
       x2="32"
       y2="267.64999"
       gradientUnits="userSpaceOnUse" /><linearGradient
       inkscape:collect="always"
       xlink:href="#linearGradient7166"
       id="linearGradient7168"
       x1="47"
       y1="278.64999"
       x2="47"
       y2="256.64999"
       gradientUnits="userSpaceOnUse" /><linearGradient
       inkscape:collect="always"
       xlink:href="#linearGradient8416"
       id="linearGradient8418"
       x1="20"
       y1="269.64999"
       x2="20"
       y2="264.64999"
       gradientUnits="userSpaceOnUse" /></defs><sodipodi:namedview
     id="base"
     pagecolor="#ffffff"
     bordercolor="#666666"
     borderopacity="1.0"
     inkscape:pageopacity="0.0"
     inkscape:pageshadow="2"
     inkscape:zoom="15.839192"
     inkscape:cx="41.984465"
     inkscape:cy="31.567267"
     inkscape:document-units="px"
     inkscape:current-layer="layer1"
     showgrid="true"
     units="px"
     inkscape:window-width="2560"
     inkscape:window-height="1367"
     inkscape:window-x="0"
     inkscape:window-y="0"
     inkscape:window-maximized="1"
     objecttolerance="10"
     gridtolerance="10"
     guidetolerance="10"
     inkscape:snap-bbox="true"
     inkscape:bbox-paths="true"
     inkscape:bbox-nodes="false"
     inkscape:snap-bbox-edge-midpoints="true"
     inkscape:snap-bbox-midpoints="true"
     inkscape:object-paths="true"
     inkscape:snap-intersection-paths="true"
     inkscape:showpageshadow="false"
     inkscape:pagecheckerboard="0"
     inkscape:deskcolor="#d1d1d1"><inkscape:grid
       type="xygrid"
       id="grid7897"
       empspacing="4" /></sodipodi:namedview><metadata
     id="metadata5"><rdf:RDF><cc:Work
         rdf:about=""><dc:format>image/svg+xml</dc:format><dc:type
           rdf:resource="http://purl.org/dc/dcmitype/StillImage" /><dc:title>Antu icon Theme</dc:title></cc:Work></rdf:RDF></metadata><g
     inkscape:label="Capa 1"
     inkscape:groupmode="layer"
     id="layer1"
     transform="translate(0,-250.64999)"><path
       style="color:#000000;fill:#704276;fill-opacity:1;stroke-width:3.77953;stroke-linecap:round;stroke-linejoin:round;-inkscape-stroke:none"
       d="m 41.238199,252.7492 a 1.0001001,1.0001001 0 0 0 -0.996556,0.0738 c -6.478534,4.40316 -9.211748,9.53631 -10.201773,14.77116 -0.990024,5.23486 -0.335773,10.53598 -0.302664,15.56841 a 1.0001001,1.0001001 0 0 0 0.280516,0.6939 l 14.977852,15.37647 a 1.0001001,1.0001001 0 0 0 1.505908,-0.0886 c 5.888651,-7.65678 8.681817,-13.14178 9.463585,-17.51721 0.781769,-4.37543 -0.593907,-7.6133 -2.694391,-10.23868 -4.20096,-5.25077 -10.86644,-8.51363 -11.471456,-17.80512 a 1.0001001,1.0001001 0 0 0 -0.561021,-0.83416 z m -0.981793,2.8125 c 1.457552,8.72238 7.94479,12.69218 11.456693,17.0817 1.888327,2.36021 2.967012,4.78995 2.281005,8.62943 -0.651847,3.64827 -3.22645,8.73493 -8.430119,15.67913 L 31.745087,282.76397 c -0.0607,-5.05327 -0.631075,-10.09769 0.258369,-14.80069 0.836659,-4.42392 3.218887,-8.5429 8.25295,-12.40158 z"
       id="path21655" /><path
       style="color:#000000;fill:url(#linearGradient7168);fill-opacity:1;stroke-width:2;stroke-linecap:round;stroke-linejoin:round;-inkscape-stroke:none"
       d="m 40.801417,253.64737 c 1.270443,19.51079 28.270444,14.51079 4.910506,44.88484 L 30.736411,283.15872 c -0.06724,-10.22026 -2.520333,-20.95768 10.065006,-29.51135 z"
       id="path21653" /><path
       style="color:#000000;fill:#704276;fill-opacity:1;stroke-width:3.77953;stroke-linecap:round;stroke-linejoin:round;-inkscape-stroke:none"
       d="m 22.133866,263.42342 c -2.154951,0.70844 -3.983879,2.25392 -5.5438,3.82381 -1.559917,1.56991 -2.867146,3.20622 -3.75738,4.08957 a 1.0001001,1.0001001 0 0 0 0.524115,1.69784 l 3.742617,0.66437 6.053148,1.57234 a 1.0001001,1.0001001 0 0 0 1.225394,-1.19587 c -0.704742,-2.97625 -1.934411,-4.28031 -0.952263,-9.51525 a 1.0001001,1.0001001 0 0 0 -1.291831,-1.13681 z m -0.716043,2.84202 c -0.209915,2.90238 0.05401,5.0147 0.561025,6.63632 l -4.414371,-1.14419 a 1.0001001,1.0001001 0 0 0 -0.07381,-0.0147 l -1.993111,-0.3617 c 0.790356,-0.88545 1.537621,-1.74548 2.509841,-2.72392 1.050251,-1.05696 2.240333,-1.72361 3.410434,-2.39173 z"
       id="path21950" /><path
       style="color:#000000;fill:url(#linearGradient8418);fill-opacity:1;stroke-width:2;stroke-linecap:round;stroke-linejoin:round;-inkscape-stroke:none"
       d="m 13.534469,272.04689 c 1.94507,-1.93003 5.121162,-6.42418 8.910732,-7.67 -1.018115,5.42665 0.301795,7.15145 0.958752,9.92588 l -6.090882,-1.57911 z"
       id="path21948" /><path
       id="circle13599"
       style="fill:#a6b2bd;fill-opacity:1;stroke-width:1.07143"
       d="m 46.996467,284.64737 a 15,15 0 0 1 -15,15 15,15 0 0 1 -15,-15 15,15 0 0 1 15,-15 15,15 0 0 1 15,15 z" /><path
       id="circle13599-9"
       style="fill:url(#linearGradient4453);fill-opacity:1;stroke-width:0.999999"
       d="m 45.996467,284.64737 a 14,14 0 0 1 -14,14 14,14 0 0 1 -14,-14 14,14 0 0 1 14,-14 14,14 0 0 1 14,14 z" /><g
       id="g1592"
       transform="translate(30.498398,-24.492925)"
       style="fill:#a3b7cc;fill-opacity:1"><path
         style="color:#000000;font-style:normal;font-variant:normal;font-weight:normal;font-stretch:normal;font-size:medium;line-height:normal;font-family:sans-serif;font-variant-ligatures:normal;font-variant-position:normal;font-variant-caps:normal;font-variant-numeric:normal;font-variant-alternates:normal;font-feature-settings:normal;text-indent:0;text-align:start;text-decoration:none;text-decoration-line:none;text-decoration-style:solid;text-decoration-color:#000000;letter-spacing:normal;word-spacing:normal;text-transform:none;writing-mode:lr-tb;direction:ltr;text-orientation:mixed;dominant-baseline:auto;baseline-shift:baseline;text-anchor:start;white-space:normal;shape-padding:0;clip-rule:nonzero;display:inline;overflow:visible;visibility:visible;opacity:1;isolation:auto;mix-blend-mode:normal;color-interpolation:sRGB;color-interpolation-filters:linearRGB;solid-color:#000000;solid-opacity:1;vector-effect:none;fill:#a6b2bd;fill-opacity:1;fill-rule:nonzero;stroke:none;stroke-width:1;stroke-linecap:round;stroke-linejoin:miter;stroke-miterlimit:4;stroke-dasharray:none;stroke-dashoffset:0;stroke-opacity:1;color-rendering:auto;image-rendering:auto;shape-rendering:auto;text-rendering:auto;enable-background:accumulate"
         d="m 17.976562,2.4941406 a 0.50004997,0.50004997 0 0 0 -0.265624,0.097656 C 16.98862,3.0974169 16.317039,3.626005 15.685547,4.171875 15.479323,4.065445 15.248922,4 15,4 c -0.831,0 -1.5,0.669 -1.5,1.5 0,0.23725 0.05899,0.4591631 0.15625,0.6582031 -1.631469,1.826757 -2.807712,3.808681 -3.519531,5.8652349 C 10.089913,12.019027 10.048058,12 10,12 9.5664174,12 9.1796144,12.184323 8.90625,12.476562 7.1676211,11.865293 5.597395,10.888418 4.3574219,9.6484375 A 0.50132771,0.50132771 0 1 0 3.6484375,10.357422 c 1.334328,1.33433 3.0076072,2.385185 4.8613281,3.046875 C 8.5077056,13.436597 8.5,13.4672 8.5,13.5 c 0,0.640464 0.4001807,1.180597 0.9628906,1.396484 -0.029985,0.22919 -0.067285,0.457454 -0.085937,0.6875 -0.1081655,1.334049 -0.011548,2.676495 0.265625,4.007813 -1.8132397,0.878746 -3.5142007,2.168956 -5.0195312,3.875 A 0.50207555,0.50207555 0 1 0 5.375,24.130859 c 1.3714056,-1.554264 2.8965755,-2.722505 4.5117188,-3.539062 0.3969692,1.406437 1.0000672,2.795325 1.8300782,4.140625 C 11.58226,24.957462 11.5,25.21769 11.5,25.5 c 0,0.831 0.669,1.5 1.5,1.5 0.111077,0 0.218188,-0.01441 0.322266,-0.03711 0.691682,0.82887 1.471396,1.634726 2.34375,2.410156 a 0.50004997,0.50004997 0 1 0 0.664062,-0.746094 C 15.528067,27.914062 14.811828,27.17828 14.173828,26.42578 14.375122,26.170531 14.5,25.85177 14.5,25.5 14.5,24.669 13.831,24 13,24 c -0.181781,0 -0.352702,0.037 -0.513672,0.0957 -0.776156,-1.278984 -1.331735,-2.591715 -1.6875,-3.916015 1.551603,-0.640917 3.172143,-0.978516 4.822266,-0.978516 0.02011,0 0.04043,0.0039 0.06055,0.0039 C 15.933844,19.676758 16.425721,20 17,20 c 0.463133,0 0.871757,-0.211232 1.146484,-0.539062 1.023472,0.200076 2.047172,0.528081 3.060547,0.970703 -1.006058,2.54231 -1.04844,5.470056 0.365235,7.826171 a 0.50006747,0.50006747 0 0 0 0.855468,-0.517578 c -1.207239,-2.012049 -1.196183,-4.593938 -0.314453,-6.875 1.562658,0.801985 3.091159,1.89028 4.53711,3.294922 a 0.50112229,0.50112229 0 1 0 0.701171,-0.714844 c -1.524072,-1.48053 -3.151629,-2.637306 -4.826171,-3.492187 0.01589,-0.03116 0.02674,-0.06472 0.04297,-0.0957 0.416733,-0.795577 0.948993,-1.514136 1.556641,-2.140625 0.244301,0.175651 0.542442,0.281535 0.867188,0.283203 0.993519,1.08794 2.249226,1.962633 3.748046,2.470703 a 0.50004996,0.50004996 0 1 0 0.324219,-0.945312 C 27.867684,19.119711 26.854975,18.437806 26.019531,17.597656 26.314117,17.324106 26.5,16.93557 26.5,16.5 c 0,-0.148329 -0.02861,-0.288706 -0.06836,-0.423828 0.796884,-0.357204 1.654791,-0.574219 2.566406,-0.574219 a 0.501978,0.501978 0 1 0 0,-1.003906 c -1.140993,0 -2.206335,0.279018 -3.175781,0.748047 C 25.586237,15.091437 25.304448,15 25,15 c -0.246751,0 -0.474775,0.0652 -0.679688,0.169922 -1.043115,-2.203759 -1.19473,-4.784855 -0.277343,-6.8808595 0.482216,-0.6233104 0.94786,-1.2946089 1.388672,-2.0292969 a 0.50004998,0.50004998 0 0 0 0.03516,-0.066406 0.50004996,0.50004996 0 0 0 0.0098,-0.023437 0.50004998,0.50004998 0 0 0 -0.496093,-0.6796875 0.50004998,0.50004998 0 0 0 -0.01367,0.00195 0.50004998,0.50004998 0 0 0 -0.386719,0.2324219 C 23.984961,6.33705 23.5182,7.029008 23.171916,7.7734351 c -2.70151,3.4572559 -5.940654,5.0464309 -9.09375,5.3515629 -0.893974,0.0865 -1.780226,0.06333 -2.646484,-0.04687 -0.07116,-0.24257 -0.212911,-0.448227 -0.384766,-0.623047 0.655976,-1.949295 1.75835,-3.8404262 3.322266,-5.5976565 C 14.561485,6.9468219 14.773222,7 15,7 c 0.831,0 1.5,-0.669 1.5,-1.5 0,-0.21242 -0.04409,-0.4129231 -0.123047,-0.5957031 0.596364,-0.51302 1.225789,-1.0150906 1.910156,-1.4941407 A 0.50004997,0.50004997 0 0 0 17.976562,2.4941406 Z m 4.525391,7.5449214 c -0.291069,1.994909 0.100108,4.128091 1.085938,5.976563 C 23.535601,16.168555 23.5,16.32892 23.5,16.5 c 0,0.129379 0.02026,0.253435 0.05078,0.373047 -0.741927,0.733074 -1.380239,1.586178 -1.86914,2.519531 -0.02189,0.0418 -0.03724,0.0868 -0.05859,0.128906 C 20.592559,19.06896 19.548405,18.723973 18.5,18.505859 c 8e-6,-0.002 0,-0.0039 0,-0.0059 0,-0.83097 -0.669013,-1.5 -1.5,-1.5 -0.729103,0 -1.331505,0.515555 -1.46875,1.203125 -1.694362,0.01121 -3.360755,0.357321 -4.957031,0.994141 -0.224777,-1.177496 -0.296323,-2.359675 -0.201172,-3.533204 0.02006,-0.247401 0.05959,-0.493543 0.09375,-0.740234 0.416037,-0.135437 0.751435,-0.444707 0.917969,-0.845703 0.913113,0.1097 1.84742,0.134259 2.791015,0.04297 2.858304,-0.276594 5.775834,-1.548521 8.326172,-4.082032 z"
         transform="translate(-15,292.64999)"
         id="path4538" /></g><path
       style="color:#000000;fill:#704276;fill-opacity:1;stroke-width:3.77953;stroke-linecap:round;stroke-linejoin:round;-inkscape-stroke:none"
       d="m 14.375501,261.26052 a 1.0001001,1.0001001 0 0 0 -1.033467,0.11811 c -6.3509061,4.91131 -9.7737521,12.38299 -10.2755902,20.73573 -0.044409,0.55939 -0.066444,1.1712 -0.066444,1.86024 0,15.83011 12.9979542,28.67126 28.9960632,28.67126 15.998109,0 29.003445,-12.84115 29.003445,-28.67126 0,-7.21444 -2.767563,-13.77027 -7.219488,-18.80906 -4.61e-4,-0.002 3.1e-5,-0.0147 0,-0.0147 -3.93e-4,-0.001 -0.03553,-0.091 -0.05167,-0.12548 -0.129562,-0.27545 -0.196308,-0.29654 -0.258368,-0.35433 -0.124082,-0.11558 -0.229947,-0.1821 -0.361701,-0.25837 -0.263509,-0.15254 -0.589002,-0.45982 -1.328742,-0.18455 a 1.0001001,1.0001001 0 0 0 -0.509348,1.45423 c 1.236185,2.04901 2.102226,4.34877 2.517222,6.79872 a 1.0001001,1.0001001 0 0 0 0,0.008 c 0.113008,0.66977 0.197442,1.34605 0.24359,2.03002 0.0091,0.13191 0.0155,0.27096 0.0223,0.41339 0.0037,0.0807 0.0045,0.16622 0.0076,0.25837 0.0057,0.19392 0.0076,0.38796 0.0076,0.57579 0,0.20318 -0.0024,0.41304 -0.0076,0.64222 -0.341216,10.47382 -8.906642,18.24065 -19.532482,18.24065 a 1.0001001,1.0001001 0 0 0 -0.05167,0 c -6.955585,0.33762 -11.963203,-2.89635 -13.265254,-6.69538 -0.457099,-1.33368 -0.53362,-2.09252 -0.35433,-2.63533 0.179301,-0.54281 0.701669,-1.12961 1.941433,-1.9562 1.237958,-0.78174 3.023074,-1.3533 6.186025,-1.45423 a 1.0001001,1.0001001 0 0 0 0.524115,-0.16978 c 1.539976,-1.01278 2.40486,-1.71845 2.945374,-2.38435 0.540514,-0.6659 0.684465,-1.50428 0.561022,-2.01526 a 1.0001001,1.0001001 0 0 0 -0.708661,-0.7308 c -0.749783,-0.205 -3.29469,-1.17381 -5.433071,-2.85679 -1.826593,-1.4376 -5.409948,-4.4596 -11.05807,-4.85729 -0.796468,-1.77793 -0.755876,-4.25448 -0.863679,-6.76919 a 1.0001001,1.0001001 0 0 0 -0.576121,-0.8639 z m 38.40059,3.21112 a 1.0001001,1.0001001 0 0 0 -0.856297,0.59055 c 0.006,-0.0185 0.0223,-0.0592 0.0223,-0.0591 -4.01e-4,7.7e-4 0.222123,-0.28849 0.221442,-0.28789 -6.8e-4,6e-4 0.251944,-0.16282 0.250999,-0.1624 -0.0019,8.6e-4 0.364838,-0.0813 0.361701,-0.0812 z m -39.48573,0.0665 c 0.03477,1.88627 -0.122684,3.8241 0.797246,5.59547 a 1.0001001,1.0001001 0 0 0 0.878445,0.53887 c 5.538754,0.0517 8.552179,2.98629 10.666829,4.6506 2.087036,1.64258 3.988943,2.32604 5.278053,2.76082 -0.0083,0.0102 0.0016,-0.004 -0.0076,0.008 -0.281537,0.34685 -1.042533,1.00657 -2.428641,1.92668 -3.048246,0.16388 -5.259145,0.70236 -6.769195,1.66092 a 1.0001001,1.0001001 0 0 0 -0.0223,0.0147 c -1.382736,0.92192 -2.330547,1.80607 -2.72392,2.99705 -0.39337,1.19098 -0.145097,2.42628 0.3617,3.90502 1.684075,4.91366 7.630723,8.4067 15.236221,8.04626 11.597926,-0.0159 21.132201,-8.64438 21.503445,-20.1747 a 1.0001001,1.0001001 0 0 0 0,-0.0147 c 0.0049,-0.21755 0.0076,-0.44261 0.0076,-0.68652 0,-0.21449 -0.0015,-0.42925 -0.0076,-0.63484 -0.0028,-0.0904 -0.0028,-0.18671 -0.0076,-0.28789 -0.0068,-0.14736 -0.0189,-0.30149 -0.02948,-0.45768 -0.04985,-0.7389 -0.139653,-1.46504 -0.258368,-2.17765 a 1.0001001,1.0001001 0 0 0 0.0076,-0.0223 c -0.0019,-0.011 -0.01285,-0.0185 -0.01474,-0.0295 -0.0155,-0.0923 -0.07185,-0.16649 -0.08859,-0.25837 h 0.0076 c 1.930265,3.6724 3.321849,7.6486 3.321849,12.07677 0,14.73646 -12.073179,26.67077 -27.002952,26.67077 -14.929777,0 -27.0029522,-11.93431 -27.0029522,-26.67077 0,-0.64732 0.025323,-1.21019 0.066444,-1.71998 a 1.0001001,1.0001001 0 0 0 0,-0.0223 c 0.4289953,-7.14036 3.38767,-13.207 8.2308062,-17.69439 z m 38.607285,0.59793 a 1.0001001,1.0001001 0 0 0 0.169776,0.94488 c -0.02683,-0.0163 -0.05409,-0.008 -0.147628,-0.2067 -0.01474,-0.0317 -0.04467,-0.11936 -0.0443,-0.11811 3.93e-4,10e-4 -0.03704,-0.17824 -0.03704,-0.17715 1.36e-4,0.001 1.29e-4,-0.25931 0,-0.25837 -7.5e-5,5.4e-4 0.02986,-0.0934 0.05907,-0.18455 z"
       id="path21662" /><path
       style="color:#000000;fill:url(#linearGradient6608);fill-opacity:1;stroke-width:2;stroke-linecap:round;stroke-linejoin:round;-inkscape-stroke:none"
       d="m 13.955452,262.16885 c -6.1013408,4.71832 -9.4028753,11.88565 -9.8906233,20.00391 -0.0432,0.53728 -0.068372,1.1285 -0.068372,1.80078 0,15.2833 12.5360393,27.67383 27.9999993,27.67383 15.463956,0 28.000003,-12.39053 28.000003,-27.67383 0,-7.11542 -2.716777,-13.60316 -7.181643,-18.50586 0.09951,-0.004 -0.418976,-0.39998 -0.685546,-0.30078 1.306817,2.16608 2.222907,4.59251 2.656248,7.1836 -0.0042,-0.008 -0.0076,-0.017 -0.01172,-0.0253 0.117997,0.69936 0.205304,1.40868 0.253908,2.12891 0.0098,0.14404 0.01701,0.28872 0.02343,0.43359 0.0042,0.091 0.0068,0.18214 0.0098,0.27345 0.0057,0.19975 0.0098,0.40041 0.0098,0.60156 0,0.22356 -0.0068,0.44655 -0.01172,0.66992 -0.354482,11.00925 -9.410915,19.21485 -20.531249,19.21485 -7.286853,0.35369 -12.767682,-3.01387 -14.261718,-7.37305 -0.963912,-2.81242 -0.647894,-3.99953 1.97461,-5.74804 1.424455,-0.90423 3.429283,-1.51625 6.714841,-1.6211 3.001353,-1.97386 3.232264,-2.73247 3.087893,-3.33007 -0.932353,-0.25493 -3.503973,-1.24257 -5.789064,-3.04102 -2.023934,-1.59291 -5.383106,-4.80428 -11.281252,-4.85938 -1.114265,-2.14559 -0.90836,-4.95824 -1.017577,-7.50585 z"
       id="path21660" /><path
       style="color:#000000;fill:#704276;fill-opacity:1;stroke-width:3.77953;stroke-linecap:round;stroke-linejoin:round;-inkscape-stroke:none"
       d="m 16.531011,274.65865 c -2.147044,-0.0466 -3.970216,0.69556 -5.374016,1.65355 -0.05027,0.0351 -0.09721,0.0745 -0.140258,0.11811 -0.0018,0.002 -0.09789,0.10998 -0.132888,0.1624 -0.03515,0.0524 -0.05964,0.0999 -0.08118,0.14763 -0.04312,0.0955 -0.06818,0.18085 -0.08118,0.251 -0.02608,0.14026 -0.02154,0.23599 -0.01474,0.31744 0.01323,0.16286 0.04577,0.27107 0.08118,0.38386 0.07087,0.2256 0.174539,0.44958 0.310035,0.70128 0.270992,0.5034 0.681653,1.10274 1.254924,1.70522 0.956406,1.00513 2.659846,1.71503 4.532477,2.0374 -0.0257,3.40391 1.095992,6.40655 2.76821,8.65157 2.302167,2.64459 4.438216,4.30134 7.677161,4.90174 1.205639,0.2104 1.661465,-1.51379 0.509352,-1.92668 -3.442348,-1.18092 -5.794231,-3.38149 -6.628936,-5.81693 -0.457191,-1.33394 -0.533167,-2.09327 -0.354331,-2.63533 0.178167,-0.54 0.697036,-1.11977 1.926671,-1.94144 0.0045,-0.003 0.0027,-0.004 0.0076,-0.008 1.238102,-0.7831 3.026873,-1.35318 6.193406,-1.45423 0.18463,-0.008 0.363477,-0.0665 0.516733,-0.16978 1.539882,-1.01271 2.411188,-1.71579 2.952756,-2.38435 0.269896,-0.33271 0.468031,-0.67446 0.561022,-1.03346 0.09294,-0.35955 0.06323,-0.72144 0,-0.98179 -0.181617,-0.76314 -1.131057,-1.02963 -1.683262,-0.47246 -0.863421,0.86952 -1.724364,1.23445 -2.701772,1.3435 -0.977405,0.10904 -2.083242,-0.0686 -3.255413,-0.43553 -2.344339,-0.73386 -4.874351,-2.19372 -7.278543,-2.93061 -0.0291,-0.009 -0.05873,-0.0163 -0.08859,-0.0223 -0.489082,-0.10439 -0.981853,-0.15171 -1.476378,-0.16241 z m -0.0443,1.99311 c 0.369411,0.008 0.72641,0.0493 1.062992,0.11811 2.041856,0.63382 4.590323,2.08314 7.226869,2.90847 1.085869,0.33993 2.212509,0.43845 3.336612,0.42815 -2.784559,0.20163 -4.97811,0.66499 -6.407479,1.57234 -0.0076,0.005 -0.01512,0.01 -0.0223,0.0147 -1.082959,0.72205 -1.640908,1.50731 -2.133369,2.34744 -0.159269,-0.88232 -0.808615,-1.47356 -0.75295,-2.4434 0.03175,-0.56959 -0.41873,-1.05026 -0.989174,-1.05561 -1.807809,-0.0189 -3.125379,-0.89536 -4.008367,-1.82333 -0.344655,-0.36223 -0.549373,-0.69171 -0.738187,-0.99655 1.008306,-0.56131 2.068498,-1.09982 3.425197,-1.07038 z"
       id="path21944"
       sodipodi:nodetypes="ccccccccscccccsccccccccccsccccccccccccccccc" /><path
       style="color:#000000;fill:url(#linearGradient5772);fill-opacity:1;stroke-width:2;stroke-linecap:round;stroke-linejoin:round;-inkscape-stroke:none"
       d="m 16.50819,275.65518 c -1.905456,-0.0413 -3.510928,0.61481 -4.785158,1.48437 -0.228245,0.22825 1.81564,4.35756 6.074219,4.40235 -0.394288,6.86954 4.746777,11.8927 8.19922,12.88672 l 1.515621,0.27734 c -3.669574,-1.25888 -6.286787,-3.63461 -7.246092,-6.43359 -0.963911,-2.81243 -0.649848,-3.99759 1.972657,-5.7461 1.424458,-0.90423 3.429279,-1.51625 6.714845,-1.62109 1.500676,-0.98693 2.31199,-1.67181 2.726562,-2.1836 0.207307,-0.25557 0.315099,-0.4663 0.363288,-0.65234 0.04815,-0.18625 0.03628,-0.34669 0,-0.49609 -4.04561,4.07421 -9.790083,-0.40887 -14.242186,-1.77344 -0.418956,-0.0894 -0.853251,-0.135 -1.292968,-0.14453 z"
       id="path21942" /></g></svg>
