<?xml version="1.0" encoding="UTF-8" standalone="no"?>
<!-- Created with Inkscape (http://www.inkscape.org/) -->

<svg
   width="64"
   height="64"
   viewBox="0 0 64 64"
   version="1.1"
   id="svg8"
   inkscape:version="1.2.2 (b0a8486541, 2022-12-01)"
   sodipodi:docname="firefox-esr.svg"
   xml:space="preserve"
   xmlns:inkscape="http://www.inkscape.org/namespaces/inkscape"
   xmlns:sodipodi="http://sodipodi.sourceforge.net/DTD/sodipodi-0.dtd"
   xmlns:xlink="http://www.w3.org/1999/xlink"
   xmlns="http://www.w3.org/2000/svg"
   xmlns:svg="http://www.w3.org/2000/svg"
   xmlns:rdf="http://www.w3.org/1999/02/22-rdf-syntax-ns#"
   xmlns:cc="http://creativecommons.org/ns#"
   xmlns:dc="http://purl.org/dc/elements/1.1/"><title
     id="title7895">Antu icon Theme</title><defs
     id="defs2"><linearGradient
       inkscape:collect="always"
       id="linearGradient9512"><stop
         style="stop-color:#3ca3f5;stop-opacity:1;"
         offset="0"
         id="stop9508" /><stop
         style="stop-color:#6fb8f1;stop-opacity:1;"
         offset="1"
         id="stop9510" /></linearGradient><linearGradient
       inkscape:collect="always"
       id="linearGradient6882"><stop
         style="stop-color:#f2d3c3;stop-opacity:1;"
         offset="0"
         id="stop6878" /><stop
         style="stop-color:#fffcf2;stop-opacity:1;"
         offset="1"
         id="stop6880" /></linearGradient><linearGradient
       inkscape:collect="always"
       id="linearGradient5908"><stop
         style="stop-color:#ff6e42;stop-opacity:1;"
         offset="0"
         id="stop5904" /><stop
         style="stop-color:#ff8d62;stop-opacity:1;"
         offset="1"
         id="stop5906" /></linearGradient><linearGradient
       inkscape:collect="always"
       id="linearGradient5141"><stop
         style="stop-color:#ff6e42;stop-opacity:1;"
         offset="0"
         id="stop5137" /><stop
         style="stop-color:#ff8d62;stop-opacity:1;"
         offset="1"
         id="stop5139" /></linearGradient><linearGradient
       inkscape:collect="always"
       id="linearGradient4581"><stop
         style="stop-color:#ff6e42;stop-opacity:1;"
         offset="0"
         id="stop4577" /><stop
         style="stop-color:#ff875b;stop-opacity:1;"
         offset="1"
         id="stop4579" /></linearGradient><style
       id="current-color-scheme"
       type="text/css">
      .ColorScheme-Text {
        color:#122036;
      }
      </style><style
       type="text/css"
       id="current-color-scheme-53">
      .ColorScheme-Text {
        color:#122036;
      }
      </style><style
       id="current-color-scheme-5"
       type="text/css">
      .ColorScheme-Text {
        color:#122036;
      }
      </style><style
       id="current-color-scheme-2"
       type="text/css">
      .ColorScheme-Text {
        color:#122036;
      }
      </style><style
       id="current-color-scheme-1"
       type="text/css">
      .ColorScheme-Text {
        color:#122036;
      }
      </style><style
       type="text/css"
       id="current-color-scheme-10">
      .ColorScheme-Text {
        color:#122036;
      }
      </style><style
       id="current-color-scheme-0"
       type="text/css">
      .ColorScheme-Text {
        color:#122036;
      }
      </style><style
       id="current-color-scheme-26"
       type="text/css">
      .ColorScheme-Text {
        color:#122036;
      }
      </style><style
       id="current-color-scheme-7"
       type="text/css">
      .ColorScheme-Text {
        color:#122036;
      }
      </style><style
       id="current-color-scheme-3"
       type="text/css">
      .ColorScheme-Text {
        color:#122036;
      }
      </style><style
       id="current-color-scheme-22"
       type="text/css">
      .ColorScheme-Text {
        color:#122036;
      }
      </style><style
       id="current-color-scheme-75"
       type="text/css">
      .ColorScheme-Text {
        color:#122036;
      }
      </style><style
       type="text/css"
       id="current-color-scheme-53-3">
      .ColorScheme-Text {
        color:#122036;
      }
      </style><style
       id="current-color-scheme-5-5"
       type="text/css">
      .ColorScheme-Text {
        color:#122036;
      }
      </style><style
       id="current-color-scheme-2-6"
       type="text/css">
      .ColorScheme-Text {
        color:#122036;
      }
      </style><style
       id="current-color-scheme-1-2"
       type="text/css">
      .ColorScheme-Text {
        color:#122036;
      }
      </style><style
       type="text/css"
       id="current-color-scheme-10-9">
      .ColorScheme-Text {
        color:#122036;
      }
      </style><style
       id="current-color-scheme-0-1"
       type="text/css">
      .ColorScheme-Text {
        color:#122036;
      }
      </style><style
       id="current-color-scheme-26-2"
       type="text/css">
      .ColorScheme-Text {
        color:#122036;
      }
      </style><style
       id="current-color-scheme-29"
       type="text/css">
      .ColorScheme-Text {
        color:#122036;
      }
      </style><style
       type="text/css"
       id="current-color-scheme-5-1">
      .ColorScheme-Text {
        color:#122036;
      }
      </style><style
       type="text/css"
       id="current-color-scheme-2-2">
      .ColorScheme-Text {
        color:#122036;
      }
      </style><style
       type="text/css"
       id="current-color-scheme-1-7">
      .ColorScheme-Text {
        color:#122036;
      }
      </style><style
       id="current-color-scheme-10-0"
       type="text/css">
      .ColorScheme-Text {
        color:#122036;
      }
      </style><style
       type="text/css"
       id="current-color-scheme-0-9">
      .ColorScheme-Text {
        color:#122036;
      }
      </style><style
       type="text/css"
       id="current-color-scheme-26-3">
      .ColorScheme-Text {
        color:#122036;
      }
      </style><style
       type="text/css"
       id="current-color-scheme-74">
      .ColorScheme-Text {
        color:#122036;
      }
      </style><linearGradient
       inkscape:collect="always"
       xlink:href="#linearGradient4581"
       id="linearGradient4583"
       x1="20.618486"
       y1="23.942631"
       x2="20.88307"
       y2="10.184298"
       gradientUnits="userSpaceOnUse" /><linearGradient
       inkscape:collect="always"
       xlink:href="#linearGradient5141"
       id="linearGradient5143"
       x1="23.528904"
       y1="14.153048"
       x2="23.528904"
       y2="9.6551304"
       gradientUnits="userSpaceOnUse" /><linearGradient
       inkscape:collect="always"
       xlink:href="#linearGradient5908"
       id="linearGradient5910"
       x1="18.501822"
       y1="13.094714"
       x2="18.501822"
       y2="12.300964"
       gradientUnits="userSpaceOnUse" /><linearGradient
       inkscape:collect="always"
       xlink:href="#linearGradient6882"
       id="linearGradient6884"
       x1="18.237238"
       y1="17.59263"
       x2="18.237238"
       y2="15.211381"
       gradientUnits="userSpaceOnUse" /><linearGradient
       inkscape:collect="always"
       xlink:href="#linearGradient9512"
       id="linearGradient9514"
       x1="21.003531"
       y1="290.65262"
       x2="21.003531"
       y2="270.65262"
       gradientUnits="userSpaceOnUse" /></defs><sodipodi:namedview
     id="base"
     pagecolor="#ffffff"
     bordercolor="#666666"
     borderopacity="1.0"
     inkscape:pageopacity="0.0"
     inkscape:pageshadow="2"
     inkscape:zoom="15.839192"
     inkscape:cx="39.395949"
     inkscape:cy="25.885159"
     inkscape:document-units="px"
     inkscape:current-layer="g22834"
     showgrid="true"
     units="px"
     inkscape:window-width="2560"
     inkscape:window-height="1367"
     inkscape:window-x="0"
     inkscape:window-y="0"
     inkscape:window-maximized="1"
     objecttolerance="10"
     gridtolerance="10"
     guidetolerance="10"
     inkscape:snap-bbox="true"
     inkscape:bbox-paths="true"
     inkscape:bbox-nodes="false"
     inkscape:snap-bbox-edge-midpoints="true"
     inkscape:snap-bbox-midpoints="true"
     inkscape:object-paths="true"
     inkscape:snap-intersection-paths="true"
     inkscape:showpageshadow="false"
     inkscape:pagecheckerboard="0"
     inkscape:deskcolor="#d1d1d1"><inkscape:grid
       type="xygrid"
       id="grid7897"
       empspacing="4" /></sodipodi:namedview><metadata
     id="metadata5"><rdf:RDF><cc:Work
         rdf:about=""><dc:format>image/svg+xml</dc:format><dc:type
           rdf:resource="http://purl.org/dc/dcmitype/StillImage" /><dc:title>Antu icon Theme</dc:title></cc:Work></rdf:RDF></metadata><g
     inkscape:label="Capa 1"
     inkscape:groupmode="layer"
     id="layer1"
     transform="translate(0,-250.64999)"><g
       id="g22834"
       transform="translate(11.996469,0.99737736)"><g
         id="path13593"
         transform="matrix(3.7795276,0,0,3.7795276,-61.924611,219.16078)"><path
           style="color:#000000;fill:#dd4d25;stroke-linecap:round;stroke-linejoin:round;-inkscape-stroke:none;fill-opacity:1"
           d="m 24.121094,8.6230469 a 0.26460981,0.26460981 0 0 0 -0.263672,0.019531 C 22.14331,9.80758 21.420147,11.165726 21.158203,12.550781 c -0.261944,1.385056 -0.08884,2.787644 -0.08008,4.119141 a 0.26460981,0.26460981 0 0 0 0.07422,0.183594 l 3.96289,4.068359 a 0.26460981,0.26460981 0 0 0 0.398438,-0.02344 C 27.07171,18.872579 27.810735,17.421338 28.017578,16.263672 28.224421,15.106006 27.86044,14.24932 27.304687,13.554688 26.193183,12.165422 24.429608,11.302125 24.269531,8.84375 A 0.26460981,0.26460981 0 0 0 24.121094,8.6230469 Z m -0.259766,0.7441406 c 0.385644,2.3077945 2.102059,3.3581385 3.03125,4.5195315 0.49962,0.624474 0.785022,1.267342 0.603516,2.283203 -0.172468,0.965273 -0.853665,2.311118 -2.230469,4.148437 l -3.65625,-3.753906 c -0.01606,-1.337009 -0.166972,-2.671679 0.06836,-3.916015 0.221366,-1.170496 0.851664,-2.260308 2.183593,-3.2812505 z"
           id="path21655" /><path
           style="color:#000000;fill:url(#linearGradient5143);stroke-width:0.529167;stroke-linecap:round;stroke-linejoin:round;-inkscape-stroke:none;fill-opacity:1"
           d="M 24.005529,8.8606858 C 24.341667,14.022917 31.485417,12.7 25.304767,20.736467 l -3.962271,-4.067569 c -0.01779,-2.704111 -0.666838,-5.545054 2.663033,-7.8082122 z"
           id="path21653" /></g><g
         id="path13597"
         transform="matrix(3.7795276,0,0,3.7795276,-61.924611,219.16078)"><path
           style="color:#000000;fill:#dd4d25;stroke-linecap:round;stroke-linejoin:round;-inkscape-stroke:none;fill-opacity:1"
           d="m 19.066406,11.447266 c -0.570164,0.187441 -1.054068,0.596349 -1.466797,1.011718 -0.412728,0.41537 -0.758599,0.848311 -0.99414,1.082032 a 0.26460981,0.26460981 0 0 0 0.138672,0.449218 l 0.990234,0.175782 1.601562,0.416015 a 0.26460981,0.26460981 0 0 0 0.324219,-0.316406 c -0.186463,-0.787466 -0.511813,-1.132499 -0.251953,-2.517578 a 0.26460981,0.26460981 0 0 0 -0.341797,-0.300781 z m -0.189453,0.751953 c -0.05554,0.76792 0.01429,1.326804 0.148438,1.755859 l -1.167969,-0.302734 a 0.26460981,0.26460981 0 0 0 -0.01953,-0.0039 l -0.527344,-0.0957 c 0.209115,-0.234276 0.406829,-0.461824 0.664062,-0.720703 0.277879,-0.279656 0.592755,-0.456039 0.902344,-0.632812 z"
           id="path21950" /><path
           style="color:#000000;fill:url(#linearGradient5910);stroke-width:0.529167;stroke-linecap:round;stroke-linejoin:round;-inkscape-stroke:none;fill-opacity:1"
           d="m 16.791149,13.728894 c 0.514633,-0.510654 1.354974,-1.699731 2.357631,-2.029354 -0.269376,1.4358 0.07985,1.892152 0.25367,2.626222 l -1.611546,-0.417808 z"
           id="path21948" /></g><path
         id="circle13599"
         style="fill:#4f92db;stroke-width:1.07143;fill-opacity:1"
         d="m 34.999998,283.64999 a 15,15 0 0 1 -15,15 15,15 0 0 1 -14.9999999,-15 15,15 0 0 1 14.9999999,-15 15,15 0 0 1 15,15 z" /><path
         id="circle13599-9"
         style="fill:url(#linearGradient9514);stroke-width:0.999999;fill-opacity:1"
         d="m 33.999998,283.64999 a 14,14 0 0 1 -14,14 14,14 0 0 1 -13.9999999,-14 14,14 0 0 1 13.9999999,-14 14,14 0 0 1 14,14 z" /><g
         id="g1592"
         transform="translate(19.003531,-24.997417)"><path
           style="color:#000000;font-style:normal;font-variant:normal;font-weight:normal;font-stretch:normal;font-size:medium;line-height:normal;font-family:sans-serif;font-variant-ligatures:normal;font-variant-position:normal;font-variant-caps:normal;font-variant-numeric:normal;font-variant-alternates:normal;font-feature-settings:normal;text-indent:0;text-align:start;text-decoration:none;text-decoration-line:none;text-decoration-style:solid;text-decoration-color:#000000;letter-spacing:normal;word-spacing:normal;text-transform:none;writing-mode:lr-tb;direction:ltr;text-orientation:mixed;dominant-baseline:auto;baseline-shift:baseline;text-anchor:start;white-space:normal;shape-padding:0;clip-rule:nonzero;display:inline;overflow:visible;visibility:visible;opacity:1;isolation:auto;mix-blend-mode:normal;color-interpolation:sRGB;color-interpolation-filters:linearRGB;solid-color:#000000;solid-opacity:1;vector-effect:none;fill:#e6f9ff;fill-opacity:1;fill-rule:nonzero;stroke:none;stroke-width:1;stroke-linecap:round;stroke-linejoin:miter;stroke-miterlimit:4;stroke-dasharray:none;stroke-dashoffset:0;stroke-opacity:1;color-rendering:auto;image-rendering:auto;shape-rendering:auto;text-rendering:auto;enable-background:accumulate"
           d="m 17.976562,2.4941406 a 0.50004997,0.50004997 0 0 0 -0.265624,0.097656 C 16.98862,3.0974169 16.317039,3.626005 15.685547,4.171875 15.479323,4.065445 15.248922,4 15,4 c -0.831,0 -1.5,0.669 -1.5,1.5 0,0.23725 0.05899,0.4591631 0.15625,0.6582031 -1.631469,1.826757 -2.807712,3.808681 -3.519531,5.8652349 C 10.089913,12.019027 10.048058,12 10,12 9.5664174,12 9.1796144,12.184323 8.90625,12.476562 7.1676211,11.865293 5.597395,10.888418 4.3574219,9.6484375 A 0.50132771,0.50132771 0 1 0 3.6484375,10.357422 c 1.334328,1.33433 3.0076072,2.385185 4.8613281,3.046875 C 8.5077056,13.436597 8.5,13.4672 8.5,13.5 c 0,0.640464 0.4001807,1.180597 0.9628906,1.396484 -0.029985,0.22919 -0.067285,0.457454 -0.085937,0.6875 -0.1081655,1.334049 -0.011548,2.676495 0.265625,4.007813 -1.8132397,0.878746 -3.5142007,2.168956 -5.0195312,3.875 A 0.50207555,0.50207555 0 1 0 5.375,24.130859 c 1.3714056,-1.554264 2.8965755,-2.722505 4.5117188,-3.539062 0.3969692,1.406437 1.0000672,2.795325 1.8300782,4.140625 C 11.58226,24.957462 11.5,25.21769 11.5,25.5 c 0,0.831 0.669,1.5 1.5,1.5 0.111077,0 0.218188,-0.01441 0.322266,-0.03711 0.691682,0.82887 1.471396,1.634726 2.34375,2.410156 a 0.50004997,0.50004997 0 1 0 0.664062,-0.746094 C 15.528067,27.914062 14.811828,27.17828 14.173828,26.42578 14.375122,26.170531 14.5,25.85177 14.5,25.5 14.5,24.669 13.831,24 13,24 c -0.181781,0 -0.352702,0.037 -0.513672,0.0957 -0.776156,-1.278984 -1.331735,-2.591715 -1.6875,-3.916015 1.551603,-0.640917 3.172143,-0.978516 4.822266,-0.978516 0.02011,0 0.04043,0.0039 0.06055,0.0039 C 15.933844,19.676758 16.425721,20 17,20 c 0.463133,0 0.871757,-0.211232 1.146484,-0.539062 1.023472,0.200076 2.047172,0.528081 3.060547,0.970703 -1.006058,2.54231 -1.04844,5.470056 0.365235,7.826171 a 0.50006747,0.50006747 0 0 0 0.855468,-0.517578 c -1.207239,-2.012049 -1.196183,-4.593938 -0.314453,-6.875 1.562658,0.801985 3.091159,1.89028 4.53711,3.294922 a 0.50112229,0.50112229 0 1 0 0.701171,-0.714844 c -1.524072,-1.48053 -3.151629,-2.637306 -4.826171,-3.492187 0.01589,-0.03116 0.02674,-0.06472 0.04297,-0.0957 0.416733,-0.795577 0.948993,-1.514136 1.556641,-2.140625 0.244301,0.175651 0.542442,0.281535 0.867188,0.283203 0.993519,1.08794 2.249226,1.962633 3.748046,2.470703 a 0.50004996,0.50004996 0 1 0 0.324219,-0.945312 C 27.867684,19.119711 26.854975,18.437806 26.019531,17.597656 26.314117,17.324106 26.5,16.93557 26.5,16.5 c 0,-0.148329 -0.02861,-0.288706 -0.06836,-0.423828 0.796884,-0.357204 1.654791,-0.574219 2.566406,-0.574219 a 0.501978,0.501978 0 1 0 0,-1.003906 c -1.140993,0 -2.206335,0.279018 -3.175781,0.748047 C 25.586237,15.091437 25.304448,15 25,15 c -0.246751,0 -0.474775,0.0652 -0.679688,0.169922 -1.043115,-2.203759 -1.19473,-4.784855 -0.277343,-6.8808595 0.482216,-0.6233104 0.94786,-1.2946089 1.388672,-2.0292969 a 0.50004998,0.50004998 0 0 0 0.03516,-0.066406 0.50004996,0.50004996 0 0 0 0.0098,-0.023437 0.50004998,0.50004998 0 0 0 -0.496093,-0.6796875 0.50004998,0.50004998 0 0 0 -0.01367,0.00195 0.50004998,0.50004998 0 0 0 -0.386719,0.2324219 C 23.984961,6.33705 23.5182,7.029008 23.171916,7.7734351 c -2.70151,3.4572559 -5.940654,5.0464309 -9.09375,5.3515629 -0.893974,0.0865 -1.780226,0.06333 -2.646484,-0.04687 -0.07116,-0.24257 -0.212911,-0.448227 -0.384766,-0.623047 0.655976,-1.949295 1.75835,-3.8404262 3.322266,-5.5976565 C 14.561485,6.9468219 14.773222,7 15,7 c 0.831,0 1.5,-0.669 1.5,-1.5 0,-0.21242 -0.04409,-0.4129231 -0.123047,-0.5957031 0.596364,-0.51302 1.225789,-1.0150906 1.910156,-1.4941407 A 0.50004997,0.50004997 0 0 0 17.976562,2.4941406 Z m 4.525391,7.5449214 c -0.291069,1.994909 0.100108,4.128091 1.085938,5.976563 C 23.535601,16.168555 23.5,16.32892 23.5,16.5 c 0,0.129379 0.02026,0.253435 0.05078,0.373047 -0.741927,0.733074 -1.380239,1.586178 -1.86914,2.519531 -0.02189,0.0418 -0.03724,0.0868 -0.05859,0.128906 C 20.592559,19.06896 19.548405,18.723973 18.5,18.505859 c 8e-6,-0.002 0,-0.0039 0,-0.0059 0,-0.83097 -0.669013,-1.5 -1.5,-1.5 -0.729103,0 -1.331505,0.515555 -1.46875,1.203125 -1.694362,0.01121 -3.360755,0.357321 -4.957031,0.994141 -0.224777,-1.177496 -0.296323,-2.359675 -0.201172,-3.533204 0.02006,-0.247401 0.05959,-0.493543 0.09375,-0.740234 0.416037,-0.135437 0.751435,-0.444707 0.917969,-0.845703 0.913113,0.1097 1.84742,0.134259 2.791015,0.04297 2.858304,-0.276594 5.775834,-1.548521 8.326172,-4.082032 z"
           transform="translate(-15,292.64999)"
           id="path4538" /></g><g
         id="ellipse841-9"
         transform="matrix(3.7795276,0,0,3.7795276,-61.924611,219.16078)"><path
           style="color:#000000;fill:#dd4d25;stroke-linecap:round;stroke-linejoin:round;-inkscape-stroke:none;fill-opacity:1"
           d="m 17.013672,10.875 a 0.26460981,0.26460981 0 0 0 -0.273438,0.03125 c -1.680344,1.299451 -2.585972,3.276332 -2.71875,5.486328 -0.01175,0.148006 -0.01758,0.309881 -0.01758,0.492188 0,4.188384 3.439042,7.585937 7.671875,7.585937 4.232833,0 7.673828,-3.397553 7.673828,-7.585937 0,-1.908821 -0.732251,-3.643383 -1.910156,-4.976563 -1.22e-4,-5.46e-4 8e-6,-0.0039 0,-0.0039 -1.04e-4,-3.27e-4 -0.0094,-0.02409 -0.01367,-0.0332 -0.03428,-0.07288 -0.05194,-0.07846 -0.06836,-0.09375 -0.03283,-0.03058 -0.06084,-0.04818 -0.0957,-0.06836 -0.06972,-0.04036 -0.15584,-0.121661 -0.351563,-0.04883 a 0.26460981,0.26460981 0 0 0 -0.134765,0.384766 c 0.327074,0.542134 0.556214,1.150612 0.666015,1.798828 a 0.26460981,0.26460981 0 0 0 0,0.002 c 0.0299,0.17721 0.05224,0.356142 0.06445,0.53711 0.0024,0.0349 0.0041,0.07169 0.0059,0.109375 9.72e-4,0.02136 0.0012,0.04398 0.002,0.06836 0.0015,0.05131 0.002,0.102649 0.002,0.152344 0,0.05376 -6.25e-4,0.109284 -0.002,0.169922 -0.09028,2.771197 -2.356549,4.826171 -5.167969,4.826171 a 0.26460981,0.26460981 0 0 0 -0.01367,0 c -1.840332,0.08933 -3.165264,-0.766324 -3.509765,-1.771484 -0.120941,-0.35287 -0.141187,-0.553647 -0.09375,-0.697266 0.04744,-0.143618 0.18565,-0.298875 0.513671,-0.517578 0.327543,-0.206836 0.799855,-0.358061 1.636719,-0.384765 a 0.26460981,0.26460981 0 0 0 0.138672,-0.04492 c 0.407452,-0.267965 0.636286,-0.454674 0.779297,-0.63086 0.143011,-0.176185 0.181098,-0.398006 0.148437,-0.533203 a 0.26460981,0.26460981 0 0 0 -0.1875,-0.193359 c -0.19838,-0.05424 -0.87172,-0.310569 -1.4375,-0.755859 -0.483286,-0.380365 -1.431382,-1.179936 -2.925781,-1.285157 -0.210732,-0.47041 -0.199992,-1.125665 -0.228515,-1.791015 A 0.26460981,0.26460981 0 0 0 17.013672,10.875 Z m 10.160156,0.849609 a 0.26460981,0.26460981 0 0 0 -0.226562,0.15625 c 0.0016,-0.0049 0.0059,-0.01566 0.0059,-0.01563 -1.06e-4,2.04e-4 0.05877,-0.07633 0.05859,-0.07617 -1.8e-4,1.59e-4 0.06666,-0.04308 0.06641,-0.04297 -5.1e-4,2.27e-4 0.09653,-0.02152 0.0957,-0.02149 z m -10.447266,0.01758 c 0.0092,0.499075 -0.03246,1.011793 0.210938,1.480468 a 0.26460981,0.26460981 0 0 0 0.232422,0.142578 c 1.465462,0.01369 2.262764,0.790122 2.822265,1.230469 0.552195,0.434599 1.055408,0.615433 1.396485,0.730469 -0.0022,0.0027 4.12e-4,-9.61e-4 -0.002,0.002 -0.07449,0.09177 -0.275837,0.26632 -0.642578,0.509766 -0.806515,0.04336 -1.391482,0.185833 -1.791016,0.439453 a 0.26460981,0.26460981 0 0 0 -0.0059,0.0039 c -0.365849,0.243923 -0.616624,0.477856 -0.720704,0.792969 -0.104079,0.315112 -0.03839,0.641953 0.0957,1.033203 0.445578,1.300073 2.018962,2.224274 4.03125,2.128906 3.068618,-0.0042 5.591228,-2.287159 5.689453,-5.33789 a 0.26460981,0.26460981 0 0 0 0,-0.0039 c 0.0013,-0.05756 0.002,-0.117105 0.002,-0.18164 0,-0.05675 -3.89e-4,-0.113574 -0.002,-0.167969 -7.53e-4,-0.02393 -7.34e-4,-0.0494 -0.002,-0.07617 -0.0018,-0.03899 -0.005,-0.07977 -0.0078,-0.121094 -0.01319,-0.195501 -0.03695,-0.387627 -0.06836,-0.576172 a 0.26460981,0.26460981 0 0 0 0.002,-0.0059 c -4.91e-4,-0.0029 -0.0034,-0.0049 -0.0039,-0.0078 -0.0041,-0.02441 -0.01901,-0.04405 -0.02344,-0.06836 h 0.002 c 0.510716,0.971657 0.878906,2.023692 0.878906,3.195313 0,3.899021 -3.194362,7.05664 -7.144531,7.05664 -3.95017,0 -7.144531,-3.157619 -7.144531,-7.05664 0,-0.17127 0.0067,-0.320197 0.01758,-0.455079 a 0.26460981,0.26460981 0 0 0 0,-0.0059 c 0.113505,-1.889221 0.896321,-3.494351 2.177734,-4.68164 z m 10.214844,0.158203 a 0.26460981,0.26460981 0 0 0 0.04492,0.25 c -0.0071,-0.0043 -0.01431,-0.0021 -0.03906,-0.05469 -0.0039,-0.0084 -0.01182,-0.03158 -0.01172,-0.03125 1.04e-4,3.27e-4 -0.0098,-0.04716 -0.0098,-0.04687 3.6e-5,2.88e-4 3.4e-5,-0.06861 0,-0.06836 -2e-5,1.43e-4 0.0079,-0.02471 0.01563,-0.04883 z"
           id="path21662" /><path
           style="color:#000000;fill:url(#linearGradient4583);fill-opacity:1;stroke-width:0.529167;stroke-linecap:round;stroke-linejoin:round;-inkscape-stroke:none"
           d="m 16.902534,11.115329 c -1.614313,1.248387 -2.487844,3.144743 -2.616894,5.2927 -0.01143,0.142155 -0.01809,0.298584 -0.01809,0.476456 0,4.043707 3.316827,7.322034 7.408333,7.322034 4.091505,0 7.408334,-3.278327 7.408334,-7.322034 0,-1.882621 -0.718814,-3.599168 -1.900143,-4.896342 0.02633,-0.001 -0.110854,-0.105827 -0.181384,-0.07958 0.345762,0.573109 0.588144,1.215102 0.702799,1.900659 -0.0011,-0.0022 -0.002,-0.0045 -0.0031,-0.0067 0.03122,0.185037 0.05432,0.372712 0.06718,0.563273 0.0026,0.03811 0.0045,0.07639 0.0062,0.114722 0.0011,0.02407 0.0018,0.04819 0.0026,0.07235 0.0015,0.05285 0.0026,0.105942 0.0026,0.159163 0,0.05915 -0.0018,0.118149 -0.0031,0.17725 -0.09379,2.912862 -2.489971,5.083928 -5.432226,5.083928 -1.92798,0.09358 -3.378116,-0.797419 -3.773413,-1.950786 -0.255035,-0.74412 -0.171422,-1.05821 0.522449,-1.520837 0.376887,-0.239244 0.907331,-0.401174 1.776635,-0.428914 0.794108,-0.522252 0.855203,-0.722966 0.817005,-0.881083 -0.246685,-0.06745 -0.927093,-0.328761 -1.53169,-0.804603 -0.535499,-0.421457 -1.42428,-1.271132 -2.984831,-1.285709 -0.294816,-0.567689 -0.240337,-1.31187 -0.269234,-1.985925 z"
           id="path21660" /></g><g
         id="path13608"
         transform="matrix(3.7795276,0,0,3.7795276,-61.924611,219.16078)"><path
           style="color:#000000;fill:#dd4d25;stroke-linecap:round;stroke-linejoin:round;-inkscape-stroke:none;fill-opacity:1"
           d="m 17.583984,14.419922 c -0.568072,-0.01233 -1.050453,0.184033 -1.421875,0.4375 -0.0133,0.0093 -0.02572,0.01972 -0.03711,0.03125 -4.72e-4,4.72e-4 -0.0259,0.0291 -0.03516,0.04297 -0.0093,0.01387 -0.01578,0.02643 -0.02148,0.03906 -0.01141,0.02527 -0.01804,0.04785 -0.02148,0.06641 -0.0069,0.03711 -0.0057,0.06244 -0.0039,0.08399 0.0035,0.04309 0.01211,0.07172 0.02148,0.101562 0.01875,0.05969 0.04618,0.118951 0.08203,0.185547 0.0717,0.133192 0.180354,0.291768 0.332032,0.451172 0.253049,0.265941 0.703751,0.453769 1.199218,0.539062 -0.0068,0.900619 0.289981,1.695067 0.732422,2.289063 0.609115,0.699715 1.174278,1.138061 2.031249,1.296917 0.318992,0.05567 0.439596,-0.400522 0.134766,-0.509766 -0.910788,-0.312453 -1.533057,-0.894685 -1.753906,-1.539062 -0.120965,-0.35294 -0.141067,-0.553845 -0.09375,-0.697266 0.04714,-0.142875 0.184424,-0.296272 0.509765,-0.513672 0.0012,-8.29e-4 7.06e-4,-0.0011 0.002,-0.002 0.327581,-0.207195 0.80086,-0.35803 1.638672,-0.384765 0.04885,-0.0021 0.09617,-0.0176 0.136719,-0.04492 0.407427,-0.267947 0.63796,-0.45397 0.78125,-0.63086 0.07141,-0.08803 0.123833,-0.178451 0.148437,-0.273437 0.02459,-0.09513 0.01673,-0.19088 0,-0.259766 C 21.89731,14.926998 21.646104,14.856489 21.5,15.003906 c -0.228447,0.230062 -0.456238,0.326615 -0.714844,0.355469 -0.258605,0.02885 -0.551191,-0.01815 -0.861328,-0.115234 -0.620273,-0.194167 -1.289672,-0.580423 -1.925781,-0.775391 -0.0077,-0.0023 -0.01554,-0.0043 -0.02344,-0.0059 -0.129403,-0.02762 -0.259782,-0.04014 -0.390625,-0.04297 z m -0.01172,0.527344 c 0.09774,0.0021 0.192196,0.01305 0.28125,0.03125 0.540241,0.167697 1.214523,0.551162 1.912109,0.769531 0.287303,0.08994 0.585393,0.116006 0.882812,0.113281 -0.736748,0.05335 -1.317125,0.175947 -1.695312,0.416016 -0.002,0.0013 -0.004,0.0026 -0.0059,0.0039 -0.286533,0.191041 -0.434157,0.39881 -0.564454,0.621094 -0.04214,-0.233449 -0.213946,-0.389881 -0.199218,-0.646485 0.0084,-0.150704 -0.110789,-0.27788 -0.261719,-0.279296 -0.478316,-0.005 -0.826923,-0.236897 -1.060547,-0.482422 -0.09119,-0.09584 -0.145355,-0.183015 -0.195312,-0.263672 0.266781,-0.148512 0.54729,-0.290993 0.90625,-0.283203 z"
           id="path21944"
           sodipodi:nodetypes="ccccccccscccccsccccccccccsccccccccccccccccc" /><path
           style="color:#000000;fill:url(#linearGradient6884);stroke-width:0.529167;stroke-linecap:round;stroke-linejoin:round;-inkscape-stroke:none;fill-opacity:1"
           d="m 17.577946,14.683586 c -0.504152,-0.01094 -0.928933,0.162669 -1.266073,0.392741 -0.06039,0.06039 0.480388,1.152938 1.607137,1.164787 -0.104322,1.817567 1.255918,3.146611 2.169377,3.409611 l 0.401008,0.07338 c -0.970908,-0.333078 -1.663379,-0.961658 -1.917195,-1.702221 -0.255035,-0.744122 -0.171939,-1.057694 0.521932,-1.520321 0.376888,-0.239244 0.90733,-0.401175 1.776636,-0.428915 0.397054,-0.261125 0.611714,-0.442333 0.721403,-0.577742 0.05485,-0.06762 0.08337,-0.123377 0.09612,-0.172599 0.01274,-0.04928 0.0096,-0.09173 0,-0.131258 -1.070401,1.077968 -2.590293,-0.108179 -3.768245,-0.469222 -0.110849,-0.02366 -0.225756,-0.03572 -0.342098,-0.03824 z"
           id="path21942" /></g></g></g></svg>
