<?xml version="1.0" encoding="UTF-8" standalone="no"?>
<!-- Created with Inkscape (http://www.inkscape.org/) -->

<svg
   width="64"
   height="64"
   viewBox="0 0 64 64"
   version="1.1"
   id="svg8"
   inkscape:version="1.2.2 (b0a8486541, 2022-12-01)"
   sodipodi:docname="thunderbird.svg"
   xml:space="preserve"
   xmlns:inkscape="http://www.inkscape.org/namespaces/inkscape"
   xmlns:sodipodi="http://sodipodi.sourceforge.net/DTD/sodipodi-0.dtd"
   xmlns:xlink="http://www.w3.org/1999/xlink"
   xmlns="http://www.w3.org/2000/svg"
   xmlns:svg="http://www.w3.org/2000/svg"
   xmlns:rdf="http://www.w3.org/1999/02/22-rdf-syntax-ns#"
   xmlns:cc="http://creativecommons.org/ns#"
   xmlns:dc="http://purl.org/dc/elements/1.1/"><title
     id="title7895">Antu icon Theme</title><defs
     id="defs2"><linearGradient
       inkscape:collect="always"
       id="linearGradient24100"><stop
         style="stop-color:#1d72d1;stop-opacity:1;"
         offset="0"
         id="stop24096" /><stop
         style="stop-color:#7184cb;stop-opacity:1;"
         offset="1"
         id="stop24098" /></linearGradient><linearGradient
       inkscape:collect="always"
       id="linearGradient22574"><stop
         style="stop-color:#1755a3;stop-opacity:1;"
         offset="0"
         id="stop22570" /><stop
         style="stop-color:#46559a;stop-opacity:1;"
         offset="1"
         id="stop22572" /></linearGradient><linearGradient
       inkscape:collect="always"
       id="linearGradient21600"><stop
         style="stop-color:#1f73d1;stop-opacity:1;"
         offset="0"
         id="stop21596" /><stop
         style="stop-color:#7886cb;stop-opacity:1;"
         offset="1"
         id="stop21598" /></linearGradient><linearGradient
       inkscape:collect="always"
       id="linearGradient16616"><stop
         style="stop-color:#1455a4;stop-opacity:1;"
         offset="0"
         id="stop16612" /><stop
         style="stop-color:#45559a;stop-opacity:1;"
         offset="1"
         id="stop16614" /></linearGradient><linearGradient
       inkscape:collect="always"
       id="linearGradient15005"><stop
         style="stop-color:#2a72cf;stop-opacity:1;"
         offset="0"
         id="stop15001" /><stop
         style="stop-color:#6573be;stop-opacity:1;"
         offset="1"
         id="stop15003" /></linearGradient><linearGradient
       inkscape:collect="always"
       id="linearGradient13893"><stop
         style="stop-color:#1055a5;stop-opacity:1;"
         offset="0"
         id="stop13889" /><stop
         style="stop-color:#475599;stop-opacity:1;"
         offset="1"
         id="stop13891" /></linearGradient><linearGradient
       inkscape:collect="always"
       id="linearGradient10987"><stop
         style="stop-color:#2672d0;stop-opacity:1;"
         offset="0"
         id="stop10983" /><stop
         style="stop-color:#6173c0;stop-opacity:1;"
         offset="1"
         id="stop10985" /></linearGradient><linearGradient
       inkscape:collect="always"
       id="linearGradient10005"><stop
         style="stop-color:#1c72d1;stop-opacity:1;"
         offset="0"
         id="stop10001" /><stop
         style="stop-color:#7986cb;stop-opacity:1;"
         offset="1"
         id="stop10003" /></linearGradient><linearGradient
       inkscape:collect="always"
       id="linearGradient9506"><stop
         style="stop-color:#0e55a5;stop-opacity:1;"
         offset="0"
         id="stop9502" /><stop
         style="stop-color:#495599;stop-opacity:1;"
         offset="1"
         id="stop9504" /></linearGradient><linearGradient
       inkscape:collect="always"
       id="linearGradient8465"><stop
         style="stop-color:#e4e4e4;stop-opacity:1;"
         offset="0"
         id="stop8461" /><stop
         style="stop-color:#f3f3f3;stop-opacity:1;"
         offset="1"
         id="stop8463" /></linearGradient><style
       id="current-color-scheme"
       type="text/css">
      .ColorScheme-Text {
        color:#122036;
      }
      </style><style
       type="text/css"
       id="current-color-scheme-53">
      .ColorScheme-Text {
        color:#122036;
      }
      </style><style
       id="current-color-scheme-5"
       type="text/css">
      .ColorScheme-Text {
        color:#122036;
      }
      </style><style
       id="current-color-scheme-2"
       type="text/css">
      .ColorScheme-Text {
        color:#122036;
      }
      </style><style
       id="current-color-scheme-1"
       type="text/css">
      .ColorScheme-Text {
        color:#122036;
      }
      </style><style
       type="text/css"
       id="current-color-scheme-10">
      .ColorScheme-Text {
        color:#122036;
      }
      </style><style
       id="current-color-scheme-0"
       type="text/css">
      .ColorScheme-Text {
        color:#122036;
      }
      </style><style
       id="current-color-scheme-26"
       type="text/css">
      .ColorScheme-Text {
        color:#122036;
      }
      </style><style
       id="current-color-scheme-7"
       type="text/css">
      .ColorScheme-Text {
        color:#122036;
      }
      </style><style
       id="current-color-scheme-3"
       type="text/css">
      .ColorScheme-Text {
        color:#122036;
      }
      </style><style
       id="current-color-scheme-22"
       type="text/css">
      .ColorScheme-Text {
        color:#122036;
      }
      </style><style
       id="current-color-scheme-75"
       type="text/css">
      .ColorScheme-Text {
        color:#122036;
      }
      </style><style
       type="text/css"
       id="current-color-scheme-53-3">
      .ColorScheme-Text {
        color:#122036;
      }
      </style><style
       id="current-color-scheme-5-5"
       type="text/css">
      .ColorScheme-Text {
        color:#122036;
      }
      </style><style
       id="current-color-scheme-2-6"
       type="text/css">
      .ColorScheme-Text {
        color:#122036;
      }
      </style><style
       id="current-color-scheme-1-2"
       type="text/css">
      .ColorScheme-Text {
        color:#122036;
      }
      </style><style
       type="text/css"
       id="current-color-scheme-10-9">
      .ColorScheme-Text {
        color:#122036;
      }
      </style><style
       id="current-color-scheme-0-1"
       type="text/css">
      .ColorScheme-Text {
        color:#122036;
      }
      </style><style
       id="current-color-scheme-26-2"
       type="text/css">
      .ColorScheme-Text {
        color:#122036;
      }
      </style><style
       id="current-color-scheme-29"
       type="text/css">
      .ColorScheme-Text {
        color:#122036;
      }
      </style><style
       type="text/css"
       id="current-color-scheme-5-1">
      .ColorScheme-Text {
        color:#122036;
      }
      </style><style
       type="text/css"
       id="current-color-scheme-2-2">
      .ColorScheme-Text {
        color:#122036;
      }
      </style><style
       type="text/css"
       id="current-color-scheme-1-7">
      .ColorScheme-Text {
        color:#122036;
      }
      </style><style
       id="current-color-scheme-10-0"
       type="text/css">
      .ColorScheme-Text {
        color:#122036;
      }
      </style><style
       type="text/css"
       id="current-color-scheme-0-9">
      .ColorScheme-Text {
        color:#122036;
      }
      </style><style
       type="text/css"
       id="current-color-scheme-26-3">
      .ColorScheme-Text {
        color:#122036;
      }
      </style><style
       id="current-color-scheme-79"
       type="text/css">
      .ColorScheme-Text {
        color:#122036;
      }
      </style><style
       type="text/css"
       id="current-color-scheme-23">
      .ColorScheme-Text {
        color:#122036;
      }
      </style><style
       id="current-color-scheme-5-2"
       type="text/css">
      .ColorScheme-Text {
        color:#122036;
      }
      </style><style
       id="current-color-scheme-2-0"
       type="text/css">
      .ColorScheme-Text {
        color:#122036;
      }
      </style><style
       id="current-color-scheme-1-23"
       type="text/css">
      .ColorScheme-Text {
        color:#122036;
      }
      </style><style
       type="text/css"
       id="current-color-scheme-10-7">
      .ColorScheme-Text {
        color:#122036;
      }
      </style><style
       id="current-color-scheme-0-5"
       type="text/css">
      .ColorScheme-Text {
        color:#122036;
      }
      </style><style
       id="current-color-scheme-26-9"
       type="text/css">
      .ColorScheme-Text {
        color:#122036;
      }
      </style><style
       type="text/css"
       id="current-color-scheme-9">
      .ColorScheme-Text {
        color:#122036;
      }
      </style><linearGradient
       inkscape:collect="always"
       xlink:href="#linearGradient8465"
       id="linearGradient8467"
       x1="74.999367"
       y1="281.65048"
       x2="74.999367"
       y2="259.65048"
       gradientUnits="userSpaceOnUse" /><linearGradient
       inkscape:collect="always"
       xlink:href="#linearGradient9506"
       id="linearGradient9508"
       x1="89.999367"
       y1="297.65048"
       x2="89.999367"
       y2="239.6505"
       gradientUnits="userSpaceOnUse" /><linearGradient
       inkscape:collect="always"
       xlink:href="#linearGradient10005"
       id="linearGradient10007"
       x1="89.999367"
       y1="297.65048"
       x2="89.999367"
       y2="239.6505"
       gradientUnits="userSpaceOnUse" /><linearGradient
       inkscape:collect="always"
       xlink:href="#linearGradient10987"
       id="linearGradient10989"
       x1="65.999367"
       y1="295.65048"
       x2="65.999367"
       y2="269.65048"
       gradientUnits="userSpaceOnUse" /><linearGradient
       inkscape:collect="always"
       xlink:href="#linearGradient13893"
       id="linearGradient13895"
       x1="65.999367"
       y1="295.65048"
       x2="65.999367"
       y2="269.65048"
       gradientUnits="userSpaceOnUse" /><linearGradient
       inkscape:collect="always"
       xlink:href="#linearGradient15005"
       id="linearGradient15007"
       x1="58.999363"
       y1="293.65048"
       x2="57.999363"
       y2="272.65048"
       gradientUnits="userSpaceOnUse" /><linearGradient
       inkscape:collect="always"
       xlink:href="#linearGradient16616"
       id="linearGradient16618"
       x1="48.999363"
       y1="271.65048"
       x2="48.999363"
       y2="249.6505"
       gradientUnits="userSpaceOnUse" /><linearGradient
       inkscape:collect="always"
       xlink:href="#linearGradient21600"
       id="linearGradient21602"
       x1="53.999363"
       y1="274.65048"
       x2="53.999363"
       y2="251.6505"
       gradientUnits="userSpaceOnUse" /><linearGradient
       inkscape:collect="always"
       xlink:href="#linearGradient22574"
       id="linearGradient22576"
       x1="61.999363"
       y1="264.65048"
       x2="61.999363"
       y2="239.6505"
       gradientUnits="userSpaceOnUse" /><linearGradient
       inkscape:collect="always"
       xlink:href="#linearGradient24100"
       id="linearGradient24102"
       x1="59.999363"
       y1="260.65048"
       x2="60.999363"
       y2="240.6505"
       gradientUnits="userSpaceOnUse" /><linearGradient
       inkscape:collect="always"
       xlink:href="#linearGradient10005"
       id="linearGradient24582"
       gradientUnits="userSpaceOnUse"
       x1="89.999367"
       y1="297.65048"
       x2="89.999367"
       y2="239.6505"
       gradientTransform="translate(7.2e-5,10e-5)" /></defs><sodipodi:namedview
     id="base"
     pagecolor="#ffffff"
     bordercolor="#666666"
     borderopacity="1.0"
     inkscape:pageopacity="0.0"
     inkscape:pageshadow="2"
     inkscape:zoom="7.919596"
     inkscape:cx="10.354064"
     inkscape:cy="21.71828"
     inkscape:document-units="px"
     inkscape:current-layer="g103299"
     showgrid="true"
     units="px"
     inkscape:window-width="2560"
     inkscape:window-height="1369"
     inkscape:window-x="0"
     inkscape:window-y="0"
     inkscape:window-maximized="1"
     objecttolerance="10"
     gridtolerance="10"
     guidetolerance="10"
     inkscape:snap-bbox="true"
     inkscape:bbox-paths="true"
     inkscape:bbox-nodes="false"
     inkscape:snap-bbox-edge-midpoints="true"
     inkscape:snap-bbox-midpoints="true"
     inkscape:object-paths="true"
     inkscape:snap-intersection-paths="true"
     inkscape:showpageshadow="false"
     inkscape:pagecheckerboard="0"
     inkscape:deskcolor="#d1d1d1"><inkscape:grid
       type="xygrid"
       id="grid7897"
       empspacing="4" /></sodipodi:namedview><metadata
     id="metadata5"><rdf:RDF><cc:Work
         rdf:about=""><dc:format>image/svg+xml</dc:format><dc:type
           rdf:resource="http://purl.org/dc/dcmitype/StillImage" /><dc:title>Antu icon Theme</dc:title></cc:Work></rdf:RDF></metadata><g
     inkscape:label="Capa 1"
     inkscape:groupmode="layer"
     id="layer1"
     transform="translate(0,-250.64999)"><g
       id="g103299"
       transform="translate(-44.999364,14.9995)"><path
         style="color:#000000;fill:#4e8fe4;fill-opacity:1;stroke:url(#linearGradient22576);stroke-width:2;stroke-linecap:round;stroke-linejoin:round;stroke-dasharray:none;stroke-opacity:1;paint-order:stroke markers fill"
         d="M 66.999995,238.65051 C 65.729553,258.1613 38.729556,253.1613 62.08949,283.53535 l 14.975516,-15.37349 c 0.06726,-10.22026 2.52033,-20.95769 -10.065011,-29.51135 z"
         id="path21653" /><path
         style="color:#000000;fill:url(#linearGradient24102);fill-opacity:1;stroke:none;stroke-width:2;stroke-linecap:round;stroke-linejoin:round;stroke-opacity:1;-inkscape-stroke:none"
         d="m 67.000001,238.65051 c -1.270443,19.51078 -28.270438,14.51078 -4.910505,44.88483 l 14.975515,-15.37349 c 0.06726,-10.22026 2.520331,-20.95768 -10.06501,-29.51134 z"
         id="path21653-9" /><path
         id="path100869-5-5"
         style="fill:none;fill-opacity:1;stroke:url(#linearGradient16618);stroke-width:2.03774;stroke-linecap:round;stroke-linejoin:round;stroke-dasharray:none;stroke-opacity:1;paint-order:stroke fill markers;stop-color:#000000"
         d="m 56.000016,250.65051 a 26.999999,26.999999 0 0 0 -5.744142,16.62499 26.999999,26.999999 0 0 0 26.999996,27 26.999999,26.999999 0 0 0 27,-27 26.999999,26.999999 0 0 0 -1.23242,-8.03906 24,24 0 0 1 -0.0625,0.79297 24,24 0 0 1 -0.87891,3.66211 24,24 0 0 1 -1.4414,3.48046 24,24 0 0 1 -1.968753,3.21094 24,24 0 0 1 -2.44531,2.86328 24,24 0 0 1 -2.863285,2.44532 24,24 0 0 1 -3.210933,1.96876 24,24 0 0 1 -3.480472,1.44139 24,24 0 0 1 -3.662108,0.87891 24,24 0 0 1 -3.753907,0.29493 24,24 0 0 1 -3.753907,-0.29493 24,24 0 0 1 -3.662108,-0.87891 24,24 0 0 1 -3.480472,-1.44139 24,24 0 0 1 -3.210933,-1.96876 24,24 0 0 1 -2.86328,-2.44532 24,24 0 0 1 -2.445315,-2.86328 24,24 0 0 1 -1.968751,-3.21094 24,24 0 0 1 -1.441405,-3.48046 24,24 0 0 1 -0.878906,-3.66211 24,24 0 0 1 -0.294924,-3.75391 24,24 0 0 1 0.294924,-3.7539 24,24 0 0 1 0.449204,-1.87109 z" /><path
         id="path100869-5"
         style="fill:url(#linearGradient21602);fill-opacity:1;stroke:none;stroke-width:2;stroke-linecap:round;stroke-linejoin:round;stroke-dasharray:none;stroke-opacity:1;paint-order:stroke markers fill;stop-color:#000000"
         d="m 55.999999,250.65051 a 26.999999,26.999999 0 0 0 -5.744142,16.62499 26.999999,26.999999 0 0 0 26.999996,27 26.999999,26.999999 0 0 0 26.999997,-27 26.999999,26.999999 0 0 0 -1.23242,-8.03906 24,24 0 0 1 -0.0625,0.79297 24,24 0 0 1 -0.8789,3.66211 24,24 0 0 1 -1.44141,3.48046 24,24 0 0 1 -1.96875,3.21094 24,24 0 0 1 -2.44531,2.86328 24,24 0 0 1 -2.863285,2.44532 24,24 0 0 1 -3.210933,1.96876 24,24 0 0 1 -3.480473,1.44139 24,24 0 0 1 -3.662107,0.87891 24,24 0 0 1 -3.753907,0.29493 24,24 0 0 1 -3.753908,-0.29493 24,24 0 0 1 -3.662107,-0.87891 24,24 0 0 1 -3.480472,-1.44139 24,24 0 0 1 -3.210933,-1.96876 24,24 0 0 1 -2.86328,-2.44532 24,24 0 0 1 -2.445316,-2.86328 24,24 0 0 1 -1.96875,-3.21094 24,24 0 0 1 -1.441405,-3.48046 24,24 0 0 1 -0.878906,-3.66211 24,24 0 0 1 -0.294925,-3.75391 24,24 0 0 1 0.294925,-3.7539 24,24 0 0 1 0.449203,-1.87109 z" /><path
         id="circle15091-1-7-5-1-6-2-1-4"
         style="fill:#7f9099;fill-opacity:1;stroke-width:2.71429"
         d="m 56.999997,270.65051 a 19,19 0 0 0 18.999987,19 19,19 0 0 0 19.000017,-19 19,19 0 0 0 -19.000017,-19.00002 19,19 0 0 0 -18.999987,19.00002 z" /><path
         id="circle15091-1-7-5-1-6-2-1-4-1-8-5"
         style="fill:url(#linearGradient8467);fill-opacity:1;stroke-width:2.57143"
         d="m 76.000002,252.65051 a 17.999998,17.999998 0 0 0 -15.636718,9.08985 17.999998,17.999998 0 0 0 -0.472635,0.88866 L 76.000025,273.65051 92.1094,262.62708 a 17.999998,17.999998 0 0 0 -0.470687,-0.88868 17.999998,17.999998 0 0 0 -15.638671,-9.08789 z m 16.537112,10.89258 -15.976562,10.93359 a 1.0001,1.0001 0 0 1 -0.212886,0.10937 1.0001,1.0001 0 0 1 -0.232422,0.0586 1.0001,1.0001 0 0 1 -0.240213,0 1.0001,1.0001 0 0 1 -0.232422,-0.0586 1.0001,1.0001 0 0 1 -0.212886,-0.10937 L 59.460975,263.54895 a 17.999998,17.999998 0 0 0 -1.46094,7.10156 17.999998,17.999998 0 0 0 18.000001,18 17.999998,17.999998 0 0 0 18.000001,-18 17.999998,17.999998 0 0 0 -1.462888,-7.10742 z" /><path
         id="path100869"
         style="fill:url(#linearGradient10989);fill-opacity:1;stroke:url(#linearGradient13895);stroke-width:2;stroke-linecap:round;stroke-linejoin:round;stroke-dasharray:none;stroke-opacity:1;paint-order:stroke fill markers;stop-color:#000000"
         d="m 47.218751,265.59387 a 26.999999,26.999999 0 0 0 -0.21873,3.05664 26.999999,26.999999 0 0 0 26.999996,26.99999 26.999999,26.999999 0 0 0 27.000003,-26.99999 26.999999,26.999999 0 0 0 -1.214845,-7.99805 26.999999,26.999999 0 0 1 -0.06055,0.83984 26.999999,26.999999 0 0 1 -0.818357,3.76563 26.999999,26.999999 0 0 1 -1.345704,3.60938 26.999999,26.999999 0 0 1 -1.847659,3.38085 26.999999,26.999999 0 0 1 -2.308589,3.08398 26.999999,26.999999 0 0 1 -2.722658,2.72267 26.999999,26.999999 0 0 1 -3.083986,2.30859 26.999999,26.999999 0 0 1 -3.380858,1.84766 26.999999,26.999999 0 0 1 -3.609373,1.34569 26.999999,26.999999 0 0 1 -3.765629,0.81837 26.999999,26.999999 0 0 1 -3.841794,0.27539 26.999999,26.999999 0 0 1 -3.8418,-0.27539 26.999999,26.999999 0 0 1 -3.765623,-0.81837 26.999999,26.999999 0 0 1 -3.609373,-1.34569 26.999999,26.999999 0 0 1 -3.380864,-1.84766 26.999999,26.999999 0 0 1 -3.08398,-2.30859 26.999999,26.999999 0 0 1 -2.722658,-2.72267 26.999999,26.999999 0 0 1 -2.308595,-3.08398 26.999999,26.999999 0 0 1 -1.847654,-3.38085 26.999999,26.999999 0 0 1 -1.220704,-3.27344 z" /><path
         id="path100835"
         style="fill:#4e8fe4;fill-opacity:1;stroke:none;stroke-width:2.62855;stroke-linecap:round;stroke-linejoin:round;stroke-dasharray:none;stroke-opacity:1;paint-order:stroke fill markers;stop-color:#000000"
         d="m 102.38867,253.65051 a 28.999998,28.999998 0 0 0 -0.38865,-0.69532 v 0.69532 z" /><path
         id="path100869-7"
         style="fill:url(#linearGradient15007);fill-opacity:1;stroke:none;stroke-width:2.03774;stroke-linecap:round;stroke-linejoin:round;stroke-dasharray:none;stroke-opacity:1;paint-order:stroke fill markers;stop-color:#000000"
         d="m 47.219885,265.59438 a 26.999999,26.999999 0 0 0 -0.21873,3.05664 26.999999,26.999999 0 0 0 26.999996,27 26.999999,26.999999 0 0 0 26.999999,-27 26.999999,26.999999 0 0 0 -1.214841,-7.99805 26.999999,26.999999 0 0 1 -0.06056,0.83985 26.999999,26.999999 0 0 1 -0.818357,3.76562 26.999999,26.999999 0 0 1 -1.345703,3.60938 26.999999,26.999999 0 0 1 -1.847659,3.38086 26.999999,26.999999 0 0 1 -2.30859,3.08398 26.999999,26.999999 0 0 1 -2.722658,2.72266 26.999999,26.999999 0 0 1 -3.083986,2.30859 26.999999,26.999999 0 0 1 -3.380858,1.84766 26.999999,26.999999 0 0 1 -3.609373,1.3457 26.999999,26.999999 0 0 1 -3.765628,0.81836 26.999999,26.999999 0 0 1 -3.841795,0.27539 26.999999,26.999999 0 0 1 -3.8418,-0.27539 26.999999,26.999999 0 0 1 -3.765623,-0.81836 26.999999,26.999999 0 0 1 -3.609373,-1.3457 26.999999,26.999999 0 0 1 -3.380863,-1.84766 26.999999,26.999999 0 0 1 -3.083981,-2.30859 26.999999,26.999999 0 0 1 -2.722658,-2.72266 26.999999,26.999999 0 0 1 -2.308595,-3.08398 26.999999,26.999999 0 0 1 -1.847653,-3.38086 26.999999,26.999999 0 0 1 -1.220705,-3.27344 z" /><path
         id="path100858"
         style="fill:url(#linearGradient10007);fill-opacity:1;stroke:url(#linearGradient9508);stroke-width:2;stroke-linecap:round;stroke-linejoin:round;stroke-dasharray:none;stroke-opacity:1;paint-order:stroke markers fill;stop-color:#000000"
         d="m 92.85547,242.64855 c -4.678347,-0.0221 -9.323088,1.667 -13.015627,5.12696 -1.443966,1.35302 -2.741696,2.97667 -3.839841,4.875 -3.522019,1.58439 -4.759142,5.20454 -4.958984,5.86328 a 14,14 0 0 1 0.294925,-0.17576 14,14 0 0 1 1.041017,-0.50782 14,14 0 0 1 1.078123,-0.42187 14,14 0 0 1 1.107421,-0.3301 14,14 0 0 1 1.132817,-0.23632 14,14 0 0 1 1.148434,-0.14454 14,14 0 0 1 1.156249,-0.047 14,14 0 0 1 0.392602,0.006 14,14 0 0 1 0.392602,0.0155 14,14 0 0 1 0.390597,0.0275 14,14 0 0 1 0.392602,0.039 14,14 0 0 1 0.388649,0.0487 14,14 0 0 1 0.388649,0.0606 14,14 0 0 1 0.384754,0.0723 14,14 0 0 1 0.384753,0.082 14,14 0 0 1 0.380858,0.0918 14,14 0 0 1 0.37891,0.10352 14,14 0 0 1 0.376962,0.11521 14,14 0 0 1 0.371119,0.12306 14,14 0 0 1 0.369113,0.13474 14,14 0 0 1 0.365218,0.14649 14,14 0 0 1 0.361323,0.15428 14,14 0 0 1 0.355478,0.16602 14,14 0 0 1 0.351583,0.17576 14,14 0 0 1 0.345683,0.18362 14,14 0 0 1 0.341786,0.19529 14,14 0 0 1 0.335944,0.2051 14,14 0 0 1 0.328151,0.21289 14,14 0 0 1 0.324199,0.22262 14,14 0 0 1 0.316408,0.23242 14,14 0 0 1 0.310564,0.24022 14,14 0 0 1 0.304664,0.24806 14,14 0 0 1 0.294924,0.2578 14,14 0 0 1 0.28908,0.26565 14,14 0 0 1 0.28318,0.27344 14,14 0 0 1 0.273441,0.28318 14,14 0 0 1 0.26565,0.28908 14,14 0 0 1 0.257801,0.29492 14,14 0 0 1 0.248061,0.30467 14,14 0 0 1 0.240213,0.31056 14,14 0 0 1 0.232422,0.31641 14,14 0 0 1 0.222683,0.3242 14,14 0 0 1 0.212886,0.32815 14,14 0 0 1 0.205095,0.33594 14,14 0 0 1 0.195299,0.34179 14,14 0 0 1 0.183611,0.34568 14,14 0 0 1 0.175763,0.35159 14,14 0 0 1 0.166024,0.35547 14,14 0 0 1 0.154279,0.36133 14,14 0 0 1 0.146488,0.36521 14,14 0 0 1 0.134744,0.36912 14,14 0 0 1 0.123057,0.37112 14,14 0 0 1 0.115209,0.37696 14,14 0 0 1 0.103521,0.37891 14,14 0 0 1 0.09178,0.38086 14,14 0 0 1 0.08204,0.38475 14,14 0 0 1 0.0723,0.38475 14,14 0 0 1 0.06055,0.38865 14,14 0 0 1 0.0487,0.38865 14,14 0 0 1 0.03896,0.3926 14,14 0 0 1 0.01547,0.23048 14,14 0 0 1 0.01146,0.16018 14,14 0 0 1 0.01547,0.3926 14,14 0 0 1 0.0057,0.3926 14,14 0 0 1 -0.04698,1.15625 14,14 0 0 1 -0.144541,1.14843 14,14 0 0 1 -0.236317,1.13282 14,14 0 0 1 -0.3301,1.10742 14,14 0 0 1 -0.421877,1.07813 14,14 0 0 1 -0.263701,0.53903 23.999999,23.999999 0 0 1 -0.242219,0.67383 23.999999,23.999999 0 0 1 -0.597657,1.38281 23.999999,23.999999 0 0 1 -0.685544,1.34375 23.999999,23.999999 0 0 1 -0.767582,1.29688 23.999999,23.999999 0 0 1 -0.847655,1.24804 23.999999,23.999999 0 0 1 -0.923826,1.19141 23.999999,23.999999 0 0 1 -0.996097,1.13086 23.999999,23.999999 0 0 1 -1.066402,1.0664 23.999999,23.999999 0 0 1 -1.130864,0.9961 23.999999,23.999999 0 0 1 -1.191401,0.92383 23.999999,23.999999 0 0 1 -1.248048,0.84765 23.999999,23.999999 0 0 1 -1.296876,0.76758 23.999999,23.999999 0 0 1 -1.34375,0.68555 23.999999,23.999999 0 0 1 -1.382815,0.59766 23.999999,23.999999 0 0 1 -1.419921,0.5117 23.999999,23.999999 0 0 1 -1.447266,0.41993 23.999999,23.999999 0 0 1 -1.470702,0.32815 23.999999,23.999999 0 0 1 -1.490233,0.23632 23.999999,23.999999 0 0 1 -1.5,0.14259 23.999999,23.999999 0 0 1 -1.507814,0.047 23.999999,23.999999 0 0 1 -1.507809,-0.047 23.999999,23.999999 0 0 1 -1.5,-0.14259 23.999999,23.999999 0 0 1 -1.490238,-0.23632 23.999999,23.999999 0 0 1 -1.470702,-0.32815 23.999999,23.999999 0 0 1 -1.447266,-0.41993 23.999999,23.999999 0 0 1 -0.189455,-0.0683 c 4.857536,3.39978 10.651857,5.23761 16.60547,5.24218 16.016207,0 28.999992,-12.98379 28.999992,-29 -2.7e-4,-4.90054 -1.2435,-9.71614 -3.60546,-14 h 4.60547 l -7.000004,-5 h 7.000004 c -3.98085,-3.95123 -9.082898,-5.97809 -14.144531,-6.00195 z" /><path
         id="path100858-3"
         style="fill:none;fill-opacity:1;stroke:none;stroke-width:2.62855;stroke-linecap:round;stroke-linejoin:round;stroke-dasharray:none;stroke-opacity:1;paint-order:stroke fill markers;stop-color:#000000"
         d="m 92.856604,242.64907 c -4.678347,-0.0218 -9.323088,1.667 -13.015627,5.12695 -1.443966,1.35303 -2.741695,2.97668 -3.839841,4.875 -3.522018,1.58439 -4.759142,5.20455 -4.958983,5.86328 a 14,14 0 0 1 0.294924,-0.17576 14,14 0 0 1 1.041017,-0.50781 14,14 0 0 1 1.078123,-0.42188 14,14 0 0 1 1.107421,-0.3301 14,14 0 0 1 1.132817,-0.23631 14,14 0 0 1 1.148435,-0.14454 14,14 0 0 1 1.156248,-0.047 14,14 0 0 1 0.392602,0.006 14,14 0 0 1 0.392602,0.0155 14,14 0 0 1 0.390597,0.0275 14,14 0 0 1 0.392602,0.039 14,14 0 0 1 0.388649,0.0487 14,14 0 0 1 0.388649,0.0606 14,14 0 0 1 0.384754,0.0723 14,14 0 0 1 0.384753,0.082 14,14 0 0 1 0.380858,0.0918 14,14 0 0 1 0.37891,0.10352 14,14 0 0 1 0.376962,0.11521 14,14 0 0 1 0.371119,0.12305 14,14 0 0 1 0.369114,0.13475 14,14 0 0 1 0.365218,0.14648 14,14 0 0 1 0.361322,0.15428 14,14 0 0 1 0.355479,0.16603 14,14 0 0 1 0.351583,0.17576 14,14 0 0 1 0.345682,0.18361 14,14 0 0 1 0.341787,0.1953 14,14 0 0 1 0.335943,0.2051 14,14 0 0 1 0.328152,0.21288 14,14 0 0 1 0.324199,0.22263 14,14 0 0 1 0.316407,0.23242 14,14 0 0 1 0.310564,0.24021 14,14 0 0 1 0.304664,0.24806 14,14 0 0 1 0.294924,0.2578 14,14 0 0 1 0.289081,0.26565 14,14 0 0 1 0.28318,0.27344 14,14 0 0 1 0.27344,0.28318 14,14 0 0 1 0.26565,0.28909 14,14 0 0 1 0.257801,0.29492 14,14 0 0 1 0.248062,0.30466 14,14 0 0 1 0.240213,0.31057 14,14 0 0 1 0.232422,0.3164 14,14 0 0 1 0.222682,0.3242 14,14 0 0 1 0.212886,0.32816 14,14 0 0 1 0.205095,0.33594 14,14 0 0 1 0.195299,0.34179 14,14 0 0 1 0.183611,0.34568 14,14 0 0 1 0.175763,0.35158 14,14 0 0 1 0.166024,0.35548 14,14 0 0 1 0.15428,0.36132 14,14 0 0 1 0.146488,0.36522 14,14 0 0 1 0.134744,0.36911 14,14 0 0 1 0.123057,0.37112 14,14 0 0 1 0.115208,0.37696 14,14 0 0 1 0.103521,0.37891 14,14 0 0 1 0.09178,0.38086 14,14 0 0 1 0.08204,0.38476 14,14 0 0 1 0.0723,0.38475 14,14 0 0 1 0.06055,0.38865 14,14 0 0 1 0.0487,0.38865 14,14 0 0 1 0.03896,0.3926 14,14 0 0 1 0.01547,0.23047 14,14 0 0 1 0.01146,0.16018 14,14 0 0 1 0.01547,0.39261 14,14 0 0 1 0.0057,0.3926 14,14 0 0 1 -0.04698,1.15625 14,14 0 0 1 -0.14454,1.14843 14,14 0 0 1 -0.236318,1.13282 14,14 0 0 1 -0.3301,1.10742 14,14 0 0 1 -0.421876,1.07812 14,14 0 0 1 -0.263702,0.53903 23.999999,23.999999 0 0 1 -0.242218,0.67383 23.999999,23.999999 0 0 1 -0.597657,1.38282 23.999999,23.999999 0 0 1 -0.685544,1.34375 23.999999,23.999999 0 0 1 -0.767582,1.29687 23.999999,23.999999 0 0 1 -0.847655,1.24805 23.999999,23.999999 0 0 1 -0.923827,1.1914 23.999999,23.999999 0 0 1 -0.996097,1.13086 23.999999,23.999999 0 0 1 -1.066402,1.06641 23.999999,23.999999 0 0 1 -1.130863,0.9961 23.999999,23.999999 0 0 1 -1.191401,0.92382 23.999999,23.999999 0 0 1 -1.248049,0.84766 23.999999,23.999999 0 0 1 -1.296876,0.76757 23.999999,23.999999 0 0 1 -1.343749,0.68555 23.999999,23.999999 0 0 1 -1.382816,0.59766 23.999999,23.999999 0 0 1 -1.419921,0.51171 23.999999,23.999999 0 0 1 -1.447266,0.41993 23.999999,23.999999 0 0 1 -1.470702,0.32815 23.999999,23.999999 0 0 1 -1.490232,0.23632 23.999999,23.999999 0 0 1 -1.5,0.14259 23.999999,23.999999 0 0 1 -1.507815,0.047 23.999999,23.999999 0 0 1 -1.507808,-0.047 23.999999,23.999999 0 0 1 -1.5,-0.14259 23.999999,23.999999 0 0 1 -1.490238,-0.23632 23.999999,23.999999 0 0 1 -1.470703,-0.32815 23.999999,23.999999 0 0 1 -1.447265,-0.41993 23.999999,23.999999 0 0 1 -0.189455,-0.0684 c 4.857535,3.39978 10.651856,5.23762 16.60547,5.24219 16.016206,0 28.999997,-12.98379 28.999997,-29 -2.7e-4,-4.90054 -1.24351,-9.71614 -3.60547,-14 H 107 L 99.999997,248.6505 H 107 c -3.98085,-3.95122 -9.082896,-5.97808 -14.14453,-6.00194 z" /><path
         id="path100858-36"
         style="fill:url(#linearGradient24582);fill-opacity:1;stroke:none;stroke-width:2;stroke-linecap:round;stroke-linejoin:round;stroke-dasharray:none;stroke-opacity:1;paint-order:stroke markers fill;stop-color:#000000"
         d="m 92.855542,242.64865 c -4.67835,-0.0221 -9.32309,1.667 -13.01563,5.12696 -1.44396,1.35302 -2.74169,2.97667 -3.83984,4.875 -3.52202,1.58439 -4.75914,5.20454 -4.95898,5.86328 a 14,14 0 0 1 0.29492,-0.17576 14,14 0 0 1 1.04102,-0.50782 14,14 0 0 1 1.07812,-0.42187 14,14 0 0 1 1.10742,-0.3301 14,14 0 0 1 1.13282,-0.23632 14,14 0 0 1 1.14844,-0.14454 14,14 0 0 1 1.15624,-0.047 14,14 0 0 1 0.39261,0.006 14,14 0 0 1 0.3926,0.0155 14,14 0 0 1 0.39059,0.0275 14,14 0 0 1 0.39261,0.039 14,14 0 0 1 0.38865,0.0487 14,14 0 0 1 0.38864,0.0606 14,14 0 0 1 0.38476,0.0723 14,14 0 0 1 0.38475,0.082 14,14 0 0 1 0.38086,0.0918 14,14 0 0 1 0.37891,0.10352 14,14 0 0 1 0.37696,0.11521 14,14 0 0 1 0.37112,0.12306 14,14 0 0 1 0.36911,0.13474 14,14 0 0 1 0.36522,0.14649 14,14 0 0 1 0.36133,0.15428 14,14 0 0 1 0.35547,0.16602 14,14 0 0 1 0.35159,0.17576 14,14 0 0 1 0.34568,0.18362 14,14 0 0 1 0.34179,0.19529 14,14 0 0 1 0.33594,0.2051 14,14 0 0 1 0.32815,0.21289 14,14 0 0 1 0.3242,0.22262 14,14 0 0 1 0.31641,0.23242 14,14 0 0 1 0.31056,0.24022 14,14 0 0 1 0.30467,0.24806 14,14 0 0 1 0.29492,0.2578 14,14 0 0 1 0.28908,0.26565 14,14 0 0 1 0.28318,0.27344 14,14 0 0 1 0.27344,0.28318 14,14 0 0 1 0.26565,0.28908 14,14 0 0 1 0.2578,0.29492 14,14 0 0 1 0.24806,0.30467 14,14 0 0 1 0.24021,0.31056 14,14 0 0 1 0.23243,0.31641 14,14 0 0 1 0.22268,0.3242 14,14 0 0 1 0.21289,0.32815 14,14 0 0 1 0.20509,0.33594 14,14 0 0 1 0.1953,0.34179 14,14 0 0 1 0.18361,0.34568 14,14 0 0 1 0.17576,0.35159 14,14 0 0 1 0.16603,0.35547 14,14 0 0 1 0.15428,0.36133 14,14 0 0 1 0.14649,0.36521 14,14 0 0 1 0.13474,0.36912 14,14 0 0 1 0.12306,0.37112 14,14 0 0 1 0.11521,0.37696 14,14 0 0 1 0.10352,0.37891 14,14 0 0 1 0.0918,0.38086 14,14 0 0 1 0.082,0.38475 14,14 0 0 1 0.0723,0.38475 14,14 0 0 1 0.0606,0.38865 14,14 0 0 1 0.0487,0.38865 14,14 0 0 1 0.039,0.3926 14,14 0 0 1 0.0155,0.23048 14,14 0 0 1 0.0115,0.16018 14,14 0 0 1 0.0155,0.3926 14,14 0 0 1 0.006,0.3926 14,14 0 0 1 -0.047,1.15625 14,14 0 0 1 -0.14455,1.14843 14,14 0 0 1 -0.23631,1.13282 14,14 0 0 1 -0.3301,1.10742 14,14 0 0 1 -0.42188,1.07813 14,14 0 0 1 -0.2637,0.53903 23.999999,23.999999 0 0 1 -0.24222,0.67383 23.999999,23.999999 0 0 1 -0.59766,1.38281 23.999999,23.999999 0 0 1 -0.68554,1.34375 23.999999,23.999999 0 0 1 -0.76758,1.29688 23.999999,23.999999 0 0 1 -0.84766,1.24804 23.999999,23.999999 0 0 1 -0.92382,1.19141 23.999999,23.999999 0 0 1 -0.9961,1.13086 23.999999,23.999999 0 0 1 -1.0664,1.0664 23.999999,23.999999 0 0 1 -1.13087,0.9961 23.999999,23.999999 0 0 1 -1.1914,0.92383 23.999999,23.999999 0 0 1 -1.24805,0.84765 23.999999,23.999999 0 0 1 -1.29687,0.76758 23.999999,23.999999 0 0 1 -1.34375,0.68555 23.999999,23.999999 0 0 1 -1.38282,0.59766 23.999999,23.999999 0 0 1 -1.41992,0.5117 23.999999,23.999999 0 0 1 -1.44726,0.41993 23.999999,23.999999 0 0 1 -1.47071,0.32815 23.999999,23.999999 0 0 1 -1.49023,0.23632 23.999999,23.999999 0 0 1 -1.499998,0.14259 23.999999,23.999999 0 0 1 -1.507814,0.047 23.999999,23.999999 0 0 1 -1.507809,-0.047 23.999999,23.999999 0 0 1 -1.5,-0.14259 23.999999,23.999999 0 0 1 -1.490238,-0.23632 23.999999,23.999999 0 0 1 -1.470702,-0.32815 23.999999,23.999999 0 0 1 -1.447266,-0.41993 23.999999,23.999999 0 0 1 -0.189455,-0.0683 c 4.857536,3.39978 10.651852,5.23761 16.605472,5.24218 16.0162,0 28.999978,-12.98379 28.999978,-29 -2.7e-4,-4.90054 -1.2435,-9.71614 -3.60546,-14 h 4.60547 l -6.999992,-5 h 6.999992 c -3.98085,-3.95123 -9.082892,-5.97809 -14.144518,-6.00195 z" /></g></g></svg>
