<?xml version="1.0" encoding="UTF-8" standalone="no"?>
<!-- Created with Inkscape (http://www.inkscape.org/) -->

<svg
   width="64"
   height="64"
   viewBox="0 0 16.933333 16.933333"
   version="1.1"
   id="svg5"
   inkscape:version="1.3.2 (091e20ef0f, 2023-11-25, custom)"
   sodipodi:docname="x-office-calendar.svg"
   xml:space="preserve"
   xmlns:inkscape="http://www.inkscape.org/namespaces/inkscape"
   xmlns:sodipodi="http://sodipodi.sourceforge.net/DTD/sodipodi-0.dtd"
   xmlns:xlink="http://www.w3.org/1999/xlink"
   xmlns="http://www.w3.org/2000/svg"
   xmlns:svg="http://www.w3.org/2000/svg"><sodipodi:namedview
     id="namedview7"
     pagecolor="#ffffff"
     bordercolor="#000000"
     borderopacity="0.25"
     inkscape:showpageshadow="false"
     inkscape:pageopacity="0.0"
     inkscape:pagecheckerboard="0"
     inkscape:deskcolor="#d1d1d1"
     inkscape:document-units="px"
     showgrid="true"
     inkscape:zoom="14.481547"
     inkscape:cx="40.15455"
     inkscape:cy="31.902669"
     inkscape:window-width="2560"
     inkscape:window-height="1356"
     inkscape:window-x="0"
     inkscape:window-y="0"
     inkscape:window-maximized="1"
     inkscape:current-layer="layer1"><inkscape:grid
       type="xygrid"
       id="grid290"
       originx="0"
       originy="0"
       spacingy="1"
       spacingx="1"
       units="px"
       visible="true" /></sodipodi:namedview><defs
     id="defs2"><linearGradient
       id="linearGradient3"
       inkscape:collect="always"><stop
         style="stop-color:#f52241;stop-opacity:1;"
         offset="0"
         id="stop3" /><stop
         style="stop-color:#fa3350;stop-opacity:1;"
         offset="1"
         id="stop4" /></linearGradient><linearGradient
       id="linearGradient1"
       inkscape:collect="always"><stop
         style="stop-color:#e5efef;stop-opacity:1;"
         offset="0"
         id="stop1" /><stop
         style="stop-color:#f5f9f9;stop-opacity:1;"
         offset="1"
         id="stop2" /></linearGradient><style
       id="current-color-scheme"
       type="text/css">
      .ColorScheme-Text {
        color:#122036;
      }
      </style><style
       id="current-color-scheme-2"
       type="text/css">
      .ColorScheme-Text {
        color:#122036;
      }
      </style><style
       id="current-color-scheme-0"
       type="text/css">
      .ColorScheme-Text {
        color:#122036;
      }
      </style><linearGradient
       inkscape:collect="always"
       xlink:href="#linearGradient1"
       id="linearGradient2"
       x1="10.852082"
       y1="16.779011"
       x2="10.852082"
       y2="4.8849945"
       gradientUnits="userSpaceOnUse" /><linearGradient
       inkscape:collect="always"
       xlink:href="#linearGradient3"
       id="linearGradient4"
       x1="9.7428637"
       y1="3.96875"
       x2="9.6522503"
       y2="1.05834"
       gradientUnits="userSpaceOnUse" /></defs><g
     inkscape:label="Capa 1"
     inkscape:groupmode="layer"
     id="layer1"><g
       id="g4079"
       transform="translate(-1.8520825,-0.5291685)"><path
         id="rect971"
         d="m 4.2333323,0.79375 c -0.5863163,0 -1.0583333,0.47202 -1.0583333,1.05833 v 3.70417 1.05833 9.525 c 0,0.58632 0.472017,1.05834 1.0583333,1.05834 H 16.404165 c 0.586317,0 1.058334,-0.47202 1.058334,-1.05834 V 6.61458 5.55625 5.29167 1.85208 c 0,-0.58631 -0.472017,-1.05833 -1.058334,-1.05833 z"
         style="vector-effect:none;fill:#92a6b0;fill-opacity:1;stroke:none;stroke-width:0.529167;stroke-linecap:round;stroke-linejoin:round;stroke-miterlimit:4;stroke-dasharray:none;stroke-dashoffset:0;stroke-opacity:1"
         inkscape:connector-curvature="0" /><path
         id="rect971-2"
         d="m 4.2333323,1.05833 c -0.4397373,0 -0.7937503,0.35402 -0.7937503,0.79375 v 3.175 0.52917 0.79375 9.78958 c 0,0.43974 0.354013,0.79375 0.7937503,0.79375 H 16.404165 c 0.439738,0 0.79375,-0.35401 0.79375,-0.79375 V 6.35 5.55625 5.02708 1.85208 c 0,-0.43973 -0.354012,-0.79375 -0.79375,-0.79375 z"
         style="vector-effect:none;fill:url(#linearGradient2);fill-opacity:1;stroke:none;stroke-width:0.529167;stroke-linecap:round;stroke-linejoin:round;stroke-miterlimit:4;stroke-dasharray:none;stroke-dashoffset:0;stroke-opacity:1"
         inkscape:connector-curvature="0" /><path
         id="path1719"
         style="vector-effect:none;fill:#bc0722;fill-opacity:1;stroke:none;stroke-width:0.529167;stroke-linecap:round;stroke-linejoin:round;stroke-miterlimit:4;stroke-dasharray:none;stroke-dashoffset:0;stroke-opacity:1"
         d="M 3.175,1.85209 V 3.43958 4.23333 H 17.462499 V 3.43958 3.175 1.85209 c 0,-0.58631 -0.472017,-1.05834 -1.058333,-1.05834 H 4.233333 C 3.647018,0.79375 3.175,1.26578 3.175,1.85209 Z"
         sodipodi:nodetypes="scccccssss" /><path
         id="path1778"
         style="vector-effect:none;fill:url(#linearGradient4);fill-opacity:1;stroke:none;stroke-width:0.529167;stroke-linecap:round;stroke-linejoin:round;stroke-miterlimit:4;stroke-dasharray:none;stroke-dashoffset:0;stroke-opacity:1"
         d="M 3.439583,3.96875 H 17.197916 V 3.43958 2.91042 1.85209 c 0,-0.43973 -0.354012,-0.79375 -0.79375,-0.79375 H 4.233333 c -0.439737,0 -0.79375,0.35402 -0.79375,0.79375 v 1.05833 0.52916 z"
         sodipodi:nodetypes="ccccssssccc" /><path
         id="rect1063-4"
         style="opacity:0.98;vector-effect:none;fill:#92a6b0;fill-opacity:1;stroke:none;stroke-width:0.529167;stroke-linecap:round;stroke-linejoin:round;stroke-miterlimit:4;stroke-dasharray:none;stroke-dashoffset:0;stroke-opacity:1;paint-order:normal"
         d="m 15.081249,6.61458 h -0.264583 -1.5875 -0.264583 -1.5875 H 11.1125 9.5249995 9.2604162 7.6729162 7.4083329 5.8208329 5.5562496 V 14.2875 H 15.081249 Z M 5.8208329,6.87917 h 1.5875 v 1.58749 h -1.5875 z m 1.8520833,0 h 1.5875 v 1.58749 h -1.5875 z m 1.8520833,0 H 11.1125 V 8.46666 H 9.5249995 Z m 1.8520835,0 h 1.5875 v 1.58749 h -1.5875 z m 1.852083,0 h 1.5875 v 1.58749 h -1.5875 z M 5.8208329,8.73125 h 1.5875 v 1.5875 h -1.5875 z m 1.8520833,0 h 1.5875 v 1.5875 h -1.5875 z m 1.8520833,0 H 11.1125 v 1.5875 H 9.5249995 Z m 1.8520835,0 h 1.5875 v 1.5875 h -1.5875 z m 1.852083,0 h 1.5875 v 1.5875 h -1.5875 z m -7.4083331,1.85208 h 1.5875 v 1.5875 h -1.5875 z m 1.8520833,0 h 1.5875 v 1.5875 h -1.5875 z m 1.8520833,0 H 11.1125 v 1.5875 H 9.5249995 Z m 1.8520835,0 h 1.5875 v 1.5875 h -1.5875 z m 1.852083,0 h 1.5875 v 1.5875 h -1.5875 z m -7.4083331,1.85208 h 1.5875 v 1.5875 h -1.5875 z m 1.8520833,0 h 1.5875 v 1.5875 h -1.5875 z m 1.8520833,0 H 11.1125 v 1.5875 H 9.5249995 Z m 1.8520835,0 h 1.5875 v 1.5875 h -1.5875 z m 1.852083,0 h 1.5875 v 1.5875 h -1.5875 z" /></g></g></svg>
