<?xml version="1.0" encoding="UTF-8" standalone="no"?>
<!-- Created with Inkscape (http://www.inkscape.org/) -->

<svg
   width="64"
   height="64"
   viewBox="0 0 16.933333 16.933333"
   version="1.1"
   id="svg5"
   inkscape:version="1.3.2 (091e20ef0f, 2023-11-25, custom)"
   sodipodi:docname="x-office-contact.svg"
   xml:space="preserve"
   xmlns:inkscape="http://www.inkscape.org/namespaces/inkscape"
   xmlns:sodipodi="http://sodipodi.sourceforge.net/DTD/sodipodi-0.dtd"
   xmlns:xlink="http://www.w3.org/1999/xlink"
   xmlns="http://www.w3.org/2000/svg"
   xmlns:svg="http://www.w3.org/2000/svg"><sodipodi:namedview
     id="namedview7"
     pagecolor="#ffffff"
     bordercolor="#000000"
     borderopacity="0.25"
     inkscape:showpageshadow="false"
     inkscape:pageopacity="0.0"
     inkscape:pagecheckerboard="0"
     inkscape:deskcolor="#d1d1d1"
     inkscape:document-units="px"
     showgrid="true"
     inkscape:zoom="20.48"
     inkscape:cx="68.969726"
     inkscape:cy="32.128906"
     inkscape:window-width="2560"
     inkscape:window-height="1356"
     inkscape:window-x="0"
     inkscape:window-y="0"
     inkscape:window-maximized="1"
     inkscape:current-layer="layer1"><inkscape:grid
       type="xygrid"
       id="grid290"
       originx="0"
       originy="0"
       spacingy="1"
       spacingx="1"
       units="px"
       visible="true" /></sodipodi:namedview><defs
     id="defs2"><linearGradient
       id="linearGradient1"
       inkscape:collect="always"><stop
         style="stop-color:#3370ef;stop-opacity:1;"
         offset="0"
         id="stop1" /><stop
         style="stop-color:#5694fb;stop-opacity:1;"
         offset="1"
         id="stop2" /></linearGradient><style
       id="current-color-scheme"
       type="text/css">
      .ColorScheme-Text {
        color:#122036;
      }
      </style><style
       id="current-color-scheme-2"
       type="text/css">
      .ColorScheme-Text {
        color:#122036;
      }
      </style><style
       id="current-color-scheme-0"
       type="text/css">
      .ColorScheme-Text {
        color:#122036;
      }
      </style><style
       type="text/css"
       id="current-color-scheme-36">
      .ColorScheme-Text {
        color:#36404d;
      }
      </style><style
       id="current-color-scheme-3"
       type="text/css">
      .ColorScheme-Text {
        color:#122036;
      }
      </style><style
       type="text/css"
       id="current-color-scheme-5">
      .ColorScheme-Text {
        color:#122036;
      }
      </style><style
       type="text/css"
       id="current-color-scheme-2-7">
      .ColorScheme-Text {
        color:#122036;
      }
      </style><style
       type="text/css"
       id="current-color-scheme-1">
      .ColorScheme-Text {
        color:#122036;
      }
      </style><style
       id="current-color-scheme-10"
       type="text/css">
      .ColorScheme-Text {
        color:#122036;
      }
      </style><style
       type="text/css"
       id="current-color-scheme-0-5">
      .ColorScheme-Text {
        color:#122036;
      }
      </style><style
       type="text/css"
       id="current-color-scheme-26">
      .ColorScheme-Text {
        color:#122036;
      }
      </style><linearGradient
       inkscape:collect="always"
       xlink:href="#linearGradient1"
       id="linearGradient2"
       x1="-7.7637792"
       y1="317.12244"
       x2="-8"
       y2="258.64999"
       gradientUnits="userSpaceOnUse" /></defs><g
     inkscape:label="Capa 1"
     inkscape:groupmode="layer"
     id="layer1"><g
       id="g2715"
       transform="translate(-6.8791665,-1.3229171)"><g
         id="g1769"
         transform="matrix(0.26458333,0,0,0.26458333,16.933333,-66.582392)"><g
           id="g8143"><g
             id="g6709"
             transform="translate(0,-2.000002)"><path
               id="rect6061"
               style="fill:#cc0020;fill-opacity:0.98039216;stroke-width:2;stroke-linecap:square;stroke-miterlimit:1.8;paint-order:stroke fill markers;stop-color:#000000"
               d="m 12.999996,264.64999 h 7.000008 c 0.553998,0 0.999996,0.446 0.999996,1 v 11 c 0,0.554 -0.445998,1 -0.999996,1 h -7.000008 c -0.553998,0 -0.999996,-0.446 -0.999996,-1 v -11 c 0,-0.554 0.445998,-1 0.999996,-1 z" /><path
               id="rect6061-2"
               style="fill:#363c4d;fill-opacity:0.98039216;stroke-width:2;stroke-linecap:square;stroke-miterlimit:1.8;paint-order:stroke fill markers;stop-color:#000000"
               d="m 12.999996,277.64999 h 7.000008 c 0.553998,0 0.999996,0.446 0.999996,1 v 11 c 0,0.554 -0.445998,1 -0.999996,1 h -7.000008 c -0.553998,0 -0.999996,-0.446 -0.999996,-1 v -11 c 0,-0.554 0.445998,-1 0.999996,-1 z" /><path
               id="rect6061-0"
               style="fill:#2aa65a;fill-opacity:0.98039216;stroke-width:2;stroke-linecap:square;stroke-miterlimit:1.8;paint-order:stroke fill markers;stop-color:#000000"
               d="m 12.999996,290.64999 h 7.000008 c 0.553998,0 0.999996,0.446 0.999996,1 v 11 c 0,0.554 -0.445998,1 -0.999996,1 h -7.000008 c -0.553998,0 -0.999996,-0.446 -0.999996,-1 v -11 c 0,-0.554 0.445998,-1 0.999996,-1 z" /><path
               id="rect6061-2-6"
               style="fill:#f99803;fill-opacity:0.98039216;stroke-width:2;stroke-linecap:square;stroke-miterlimit:1.8;paint-order:stroke fill markers;stop-color:#000000"
               d="m 12.999996,303.64999 h 7.000008 c 0.553998,0 0.999996,0.446 0.999996,1 v 11 c 0,0.554 -0.445998,1 -0.999996,1 h -7.000008 c -0.553998,0 -0.999996,-0.446 -0.999996,-1 v -11 c 0,-0.554 0.445998,-1 0.999996,-1 z" /></g><path
             id="rect6711"
             style="fill:#fb3955;stroke-width:2;stroke-linecap:square;stroke-miterlimit:1.8;paint-order:stroke fill markers;stop-color:#000000;fill-opacity:1"
             d="m 13,263.64999 h 7 v 11 h -7 z" /><path
             id="rect6980"
             style="fill:#677089;stroke-width:2;stroke-linecap:square;stroke-miterlimit:1.8;paint-order:stroke fill markers;stop-color:#000000;fill-opacity:1"
             d="m 13,276.64999 h 7 v 11 h -7 z" /><path
             id="rect6982"
             style="fill:#6ade73;stroke-width:2;stroke-linecap:square;stroke-miterlimit:1.8;paint-order:stroke fill markers;stop-color:#000000;fill-opacity:1"
             d="m 13,289.64999 h 7 v 11 h -7 z" /><path
             id="rect6984"
             style="fill:#ffe100;stroke-width:2;stroke-linecap:square;stroke-miterlimit:1.8;paint-order:stroke fill markers;stop-color:#000000;fill-opacity:1"
             d="m 13,302.64999 h 7 v 11 h -7 z" /></g><path
           id="rect971-6"
           d="m -29,257.64999 h 42 c 2.216,0 4,1.784 4,4 v 54 c 0,2.216 -1.784,4 -4,4 h -42 c -2.216,0 -4,-1.784 -4,-4 v -54 c 0,-2.216 1.784,-4 4,-4 z"
           style="vector-effect:none;fill:#335291;fill-opacity:1;stroke:none;stroke-width:2;stroke-linecap:round;stroke-linejoin:round;stroke-miterlimit:4;stroke-dasharray:none;stroke-dashoffset:0;stroke-opacity:1"
           inkscape:connector-curvature="0"
           sodipodi:nodetypes="sssssssss" /><path
           id="rect971-2-3"
           d="m -29,258.64999 h 42 c 1.662,0 3,1.338 3,3 v 54 c 0,1.662 -1.338,3 -3,3 h -42 c -1.662,0 -3,-1.338 -3,-3 v -54 c 0,-1.662 1.338,-3 3,-3 z"
           style="fill:url(#linearGradient2);fill-opacity:1;stroke:none;stroke-width:2;stroke-linecap:round;stroke-linejoin:round;stroke-miterlimit:4;stroke-dasharray:none;stroke-dashoffset:0;stroke-opacity:1"
           inkscape:connector-curvature="0"
           sodipodi:nodetypes="sssssssss" /><path
           id="rect10556-7"
           style="fill:#335291;fill-opacity:1;stroke-width:2;stroke-linecap:square;stroke-miterlimit:1.8;paint-order:stroke fill markers;stop-color:#000000"
           d="m -8,274.64999 c -3.877996,0 -7,3.122 -7,7 0,3.878 3.122004,7 7,7 3.8779961,0 7,-3.122 7,-7 0,-3.878 -3.1220039,-7 -7,-7 z m 0,17 c -6.62741,0 -12,5.37259 -12,12 5.46564,2.36678 17.3333176,2.95292 24,0 0,-6.62741 -5.3725896,-12 -12,-12 z" /><path
           id="rect10556"
           style="fill:#fbfcfd;fill-opacity:1;stroke-width:2;stroke-linecap:square;stroke-miterlimit:1.8;paint-order:stroke fill markers;stop-color:#000000"
           d="m -8,273.64999 c -3.877996,0 -7,3.122 -7,7 0,3.878 3.122004,7 7,7 3.8779961,0 7,-3.122 7,-7 0,-3.878 -3.1220039,-7 -7,-7 z m 0,17 c -6.62741,0 -12,5.37259 -12,12 5.46564,2.36678 17.3333176,2.95292 24,0 0,-6.62741 -5.3725896,-12 -12,-12 z" /></g></g></g></svg>
