<?xml version="1.0" encoding="UTF-8" standalone="no"?>
<!-- Created with Inkscape (http://www.inkscape.org/) -->

<svg
   width="64"
   height="64"
   viewBox="0 0 16.933333 16.933333"
   version="1.1"
   id="svg5"
   inkscape:version="1.3.2 (091e20ef0f, 2023-11-25, custom)"
   sodipodi:docname="application-x-audacity-project.svg"
   xml:space="preserve"
   xmlns:inkscape="http://www.inkscape.org/namespaces/inkscape"
   xmlns:sodipodi="http://sodipodi.sourceforge.net/DTD/sodipodi-0.dtd"
   xmlns:xlink="http://www.w3.org/1999/xlink"
   xmlns="http://www.w3.org/2000/svg"
   xmlns:svg="http://www.w3.org/2000/svg"><sodipodi:namedview
     id="namedview7"
     pagecolor="#ffffff"
     bordercolor="#000000"
     borderopacity="0.25"
     inkscape:showpageshadow="false"
     inkscape:pageopacity="0.0"
     inkscape:pagecheckerboard="0"
     inkscape:deskcolor="#d1d1d1"
     inkscape:document-units="px"
     showgrid="true"
     inkscape:zoom="14.481547"
     inkscape:cx="40.15455"
     inkscape:cy="31.902669"
     inkscape:window-width="2560"
     inkscape:window-height="1356"
     inkscape:window-x="0"
     inkscape:window-y="0"
     inkscape:window-maximized="1"
     inkscape:current-layer="layer1"><inkscape:grid
       type="xygrid"
       id="grid290"
       originx="0"
       originy="0"
       spacingy="1"
       spacingx="1"
       units="px"
       visible="true" /></sodipodi:namedview><defs
     id="defs2"><linearGradient
       id="linearGradient1"
       inkscape:collect="always"><stop
         style="stop-color:#316eee;stop-opacity:1;"
         offset="0"
         id="stop1" /><stop
         style="stop-color:#5694fb;stop-opacity:1;"
         offset="1"
         id="stop2" /></linearGradient><style
       id="current-color-scheme"
       type="text/css">
      .ColorScheme-Text {
        color:#122036;
      }
      </style><style
       id="current-color-scheme-2"
       type="text/css">
      .ColorScheme-Text {
        color:#122036;
      }
      </style><style
       id="current-color-scheme-0"
       type="text/css">
      .ColorScheme-Text {
        color:#122036;
      }
      </style><linearGradient
       inkscape:collect="always"
       xlink:href="#linearGradient1"
       id="linearGradient2"
       x1="14.534455"
       y1="15.345798"
       x2="14.608276"
       y2="1.0218215"
       gradientUnits="userSpaceOnUse" /></defs><g
     inkscape:label="Capa 1"
     inkscape:groupmode="layer"
     id="layer1"><g
       id="g7173"
       transform="translate(-5.2916675,0.2645815)"><path
         sodipodi:nodetypes="sssssssss"
         inkscape:connector-curvature="0"
         style="fill:#145cd8;fill-opacity:1;stroke:none;stroke-width:0.529167;stroke-linecap:round;stroke-linejoin:round;stroke-miterlimit:4;stroke-dasharray:none;stroke-dashoffset:0;stroke-opacity:1"
         d="M 7.672917,0 H 19.84375 c 0.586317,0 1.058334,0.47202 1.058334,1.05833 v 14.2875 c 0,0.58632 -0.472017,1.05834 -1.058334,1.05834 H 7.672917 c -0.586317,0 -1.058333,-0.47202 -1.058333,-1.05834 V 1.05833 C 6.614584,0.47202 7.0866,0 7.672917,0 Z"
         id="rect971" /><path
         sodipodi:nodetypes="sssssssss"
         inkscape:connector-curvature="0"
         style="fill:url(#linearGradient2);fill-opacity:1;stroke:none;stroke-width:0.529167;stroke-linecap:round;stroke-linejoin:round;stroke-miterlimit:4;stroke-dasharray:none;stroke-dashoffset:0;stroke-opacity:1"
         d="M 7.672917,0.26458 H 19.84375 c 0.439738,0 0.79375,0.35402 0.79375,0.79375 v 14.2875 c 0,0.43974 -0.354012,0.79375 -0.79375,0.79375 H 7.672917 c -0.439737,0 -0.79375,-0.35401 -0.79375,-0.79375 V 1.05833 c 0,-0.43973 0.354013,-0.79375 0.79375,-0.79375 z"
         id="rect971-2" /><g
         id="path5976-7"
         transform="translate(0.897004,-282.58927)"
         style="fill:#145cd8;fill-opacity:1"><path
           id="path5981-5"
           style="color:#000000;fill:#145cd8;fill-opacity:1;stroke-linecap:round;stroke-linejoin:round;stroke-miterlimit:1.8;paint-order:stroke fill markers"
           d="m 12.729041,286.29349 c -2.271968,0 -4.1010411,1.82909 -4.1010411,4.10104 v 0.66146 h 0.00258 c -0.6435921,0.48289 -1.0609172,1.25147 -1.0609172,2.11563 0,1.45812 1.1882332,2.64687 2.6463503,2.64687 a 0.26460978,0.26460978 0 0 0 0.264066,-0.26406 v -2.38281 h 0.793233 a 0.26460996,0.26460996 0 0 0 0.24443,-0.15968 l 0.49196,-1.14876 0.861446,3.23081 a 0.26460996,0.26460996 0 0 0 0.501778,0.0232 l 0.730705,-1.94562 h 1.138948 v 2.38281 a 0.26460978,0.26460978 0 0 0 0.264067,0.26406 c 1.458116,0 2.64635,-1.18875 2.64635,-2.64687 0,-0.97643 -0.532953,-1.83068 -1.322917,-2.28874 v -0.48835 c 0,-2.27195 -1.829071,-4.10104 -4.101042,-4.10104 z m 0,1.05834 c 1.685657,0 3.042709,1.40329 3.042709,3.14657 v 0.0419 c -0.08729,-0.009 -0.175561,-0.0129 -0.2651,-0.0129 a 0.26460978,0.26460978 0 0 0 -0.264067,0.26355 v 1.85157 h -1.322917 a 0.26460996,0.26460996 0 0 0 -0.248046,0.17208 l -0.503846,1.34565 -0.845426,-3.17189 a 0.26460996,0.26460996 0 0 0 -0.236161,-0.19534 0.26460996,0.26460996 0 0 0 -0.262,0.15813 l -0.724503,1.69137 h -0.619601 v -1.85157 a 0.26460978,0.26460978 0 0 0 -0.264066,-0.26355 c -0.181352,0 -0.3584448,0.0183 -0.5296838,0.0532 v -0.0822 c 0,-1.74328 1.3570538,-3.14657 3.0427078,-3.14657 z" /></g><g
         id="path5976"
         transform="translate(0.897004,-282.8539)"
         style="fill:#fafcff;fill-opacity:1"><path
           id="path5981"
           style="color:#000000;fill:#fafcff;fill-opacity:1;stroke-linecap:round;stroke-linejoin:round;stroke-miterlimit:1.8;paint-order:stroke fill markers"
           d="m 12.729041,286.29349 c -2.271968,0 -4.1010411,1.82909 -4.1010411,4.10104 v 0.66146 h 0.00258 c -0.6435921,0.48289 -1.0609172,1.25147 -1.0609172,2.11563 0,1.45812 1.1882332,2.64687 2.6463503,2.64687 a 0.26460978,0.26460978 0 0 0 0.264066,-0.26406 v -2.38281 h 0.793233 a 0.26460996,0.26460996 0 0 0 0.24443,-0.15968 l 0.49196,-1.14876 0.861446,3.23081 a 0.26460996,0.26460996 0 0 0 0.501778,0.0232 l 0.730705,-1.94562 h 1.138948 v 2.38281 a 0.26460978,0.26460978 0 0 0 0.264067,0.26406 c 1.458116,0 2.64635,-1.18875 2.64635,-2.64687 0,-0.97643 -0.532953,-1.83068 -1.322917,-2.28874 v -0.48835 c 0,-2.27195 -1.829071,-4.10104 -4.101042,-4.10104 z m 0,1.05834 c 1.685657,0 3.042709,1.40329 3.042709,3.14657 v 0.0419 c -0.08729,-0.009 -0.175561,-0.0129 -0.2651,-0.0129 a 0.26460978,0.26460978 0 0 0 -0.264067,0.26355 v 1.85157 h -1.322917 a 0.26460996,0.26460996 0 0 0 -0.248046,0.17208 l -0.503846,1.34565 -0.845426,-3.17189 a 0.26460996,0.26460996 0 0 0 -0.236161,-0.19534 0.26460996,0.26460996 0 0 0 -0.262,0.15813 l -0.724503,1.69137 h -0.619601 v -1.85157 a 0.26460978,0.26460978 0 0 0 -0.264066,-0.26355 c -0.181352,0 -0.3584448,0.0183 -0.5296838,0.0532 v -0.0822 c 0,-1.74328 1.3570538,-3.14657 3.0427078,-3.14657 z" /></g></g></g></svg>
