<?xml version="1.0" encoding="UTF-8" standalone="no"?>
<!-- Created with Inkscape (http://www.inkscape.org/) -->

<svg
   width="64"
   height="64"
   viewBox="0 0 16.933333 16.933333"
   version="1.1"
   id="svg1399"
   inkscape:version="1.3.2 (091e20ef0f, 2023-11-25, custom)"
   sodipodi:docname="application-x-perl.svg"
   xml:space="preserve"
   xmlns:inkscape="http://www.inkscape.org/namespaces/inkscape"
   xmlns:sodipodi="http://sodipodi.sourceforge.net/DTD/sodipodi-0.dtd"
   xmlns:xlink="http://www.w3.org/1999/xlink"
   xmlns="http://www.w3.org/2000/svg"
   xmlns:svg="http://www.w3.org/2000/svg"
   xmlns:rdf="http://www.w3.org/1999/02/22-rdf-syntax-ns#"
   xmlns:cc="http://creativecommons.org/ns#"
   xmlns:dc="http://purl.org/dc/elements/1.1/"><defs
     id="defs1393"><linearGradient
       id="linearGradient1"
       inkscape:collect="always"><stop
         style="stop-color:#09a5f9;stop-opacity:1;"
         offset="0"
         id="stop1" /><stop
         style="stop-color:#4fc1f9;stop-opacity:1;"
         offset="1"
         id="stop2" /></linearGradient><style
       id="current-color-scheme"
       type="text/css">
      .ColorScheme-Text {
        color:#122036;
      }
      </style><style
       type="text/css"
       id="current-color-scheme-53">
      .ColorScheme-Text {
        color:#122036;
      }
      </style><style
       id="current-color-scheme-5"
       type="text/css">
      .ColorScheme-Text {
        color:#122036;
      }
      </style><style
       id="current-color-scheme-2"
       type="text/css">
      .ColorScheme-Text {
        color:#122036;
      }
      </style><style
       id="current-color-scheme-1"
       type="text/css">
      .ColorScheme-Text {
        color:#122036;
      }
      </style><style
       type="text/css"
       id="current-color-scheme-10">
      .ColorScheme-Text {
        color:#122036;
      }
      </style><style
       id="current-color-scheme-0"
       type="text/css">
      .ColorScheme-Text {
        color:#122036;
      }
      </style><style
       id="current-color-scheme-26"
       type="text/css">
      .ColorScheme-Text {
        color:#122036;
      }
      </style><style
       id="current-color-scheme-7"
       type="text/css">
      .ColorScheme-Text {
        color:#122036;
      }
      </style><style
       id="current-color-scheme-535"
       type="text/css">
      .ColorScheme-Text {
        color:#122036;
      }
      </style><style
       type="text/css"
       id="current-color-scheme-53-6">
      .ColorScheme-Text {
        color:#122036;
      }
      </style><style
       id="current-color-scheme-5-2"
       type="text/css">
      .ColorScheme-Text {
        color:#122036;
      }
      </style><style
       id="current-color-scheme-2-9"
       type="text/css">
      .ColorScheme-Text {
        color:#122036;
      }
      </style><style
       id="current-color-scheme-1-1"
       type="text/css">
      .ColorScheme-Text {
        color:#122036;
      }
      </style><style
       type="text/css"
       id="current-color-scheme-10-2">
      .ColorScheme-Text {
        color:#122036;
      }
      </style><style
       id="current-color-scheme-0-7"
       type="text/css">
      .ColorScheme-Text {
        color:#122036;
      }
      </style><style
       id="current-color-scheme-26-0"
       type="text/css">
      .ColorScheme-Text {
        color:#122036;
      }
      </style><style
       id="current-color-scheme-7-9"
       type="text/css">
      .ColorScheme-Text {
        color:#122036;
      }
      </style><style
       id="current-color-scheme-5356"
       type="text/css">
      .ColorScheme-Text {
        color:#122036;
      }
      </style><style
       type="text/css"
       id="current-color-scheme-53-2">
      .ColorScheme-Text {
        color:#122036;
      }
      </style><style
       id="current-color-scheme-5-9"
       type="text/css">
      .ColorScheme-Text {
        color:#122036;
      }
      </style><style
       id="current-color-scheme-2-1"
       type="text/css">
      .ColorScheme-Text {
        color:#122036;
      }
      </style><style
       id="current-color-scheme-1-27"
       type="text/css">
      .ColorScheme-Text {
        color:#122036;
      }
      </style><style
       type="text/css"
       id="current-color-scheme-10-0">
      .ColorScheme-Text {
        color:#122036;
      }
      </style><style
       id="current-color-scheme-0-9"
       type="text/css">
      .ColorScheme-Text {
        color:#122036;
      }
      </style><style
       id="current-color-scheme-26-3"
       type="text/css">
      .ColorScheme-Text {
        color:#122036;
      }
      </style><style
       id="current-color-scheme-7-60"
       type="text/css">
      .ColorScheme-Text {
        color:#122036;
      }
      </style><style
       id="current-color-scheme-535-6"
       type="text/css">
      .ColorScheme-Text {
        color:#122036;
      }
      </style><style
       type="text/css"
       id="current-color-scheme-53-6-2">
      .ColorScheme-Text {
        color:#122036;
      }
      </style><style
       id="current-color-scheme-5-2-6"
       type="text/css">
      .ColorScheme-Text {
        color:#122036;
      }
      </style><style
       id="current-color-scheme-2-9-1"
       type="text/css">
      .ColorScheme-Text {
        color:#122036;
      }
      </style><style
       id="current-color-scheme-1-1-8"
       type="text/css">
      .ColorScheme-Text {
        color:#122036;
      }
      </style><style
       type="text/css"
       id="current-color-scheme-10-2-7">
      .ColorScheme-Text {
        color:#122036;
      }
      </style><style
       id="current-color-scheme-0-7-9"
       type="text/css">
      .ColorScheme-Text {
        color:#122036;
      }
      </style><style
       id="current-color-scheme-26-0-2"
       type="text/css">
      .ColorScheme-Text {
        color:#122036;
      }
      </style><style
       id="current-color-scheme-7-9-0"
       type="text/css">
      .ColorScheme-Text {
        color:#122036;
      }
      </style><style
       type="text/css"
       id="current-color-scheme-3">
      .ColorScheme-Text {
        color:#36404d;
      }
      </style><style
       type="text/css"
       id="current-color-scheme-67">
      .ColorScheme-Text {
        color:#122036;
      }
      </style><style
       type="text/css"
       id="current-color-scheme-7-6">
      .ColorScheme-Text {
        color:#122036;
      }
      </style><style
       type="text/css"
       id="current-color-scheme-5-75">
      .ColorScheme-Text {
        color:#122036;
      }
      </style><style
       type="text/css"
       id="current-color-scheme-6">
      .ColorScheme-Text {
        color:#122036;
      }
      </style><style
       type="text/css"
       id="current-color-scheme-1-3">
      .ColorScheme-Text {
        color:#122036;
      }
      </style><style
       id="current-color-scheme-10-5"
       type="text/css">
      .ColorScheme-Text {
        color:#122036;
      }
      </style><style
       id="current-color-scheme-5-7"
       type="text/css">
      .ColorScheme-Text {
        color:#122036;
      }
      </style><style
       id="current-color-scheme-1-2"
       type="text/css">
      .ColorScheme-Text {
        color:#122036;
      }
      </style><style
       type="text/css"
       id="current-color-scheme-10-9">
      .ColorScheme-Text {
        color:#122036;
      }
      </style><linearGradient
       inkscape:collect="always"
       xlink:href="#linearGradient1"
       id="linearGradient2"
       x1="-29"
       y1="318.64999"
       x2="-29"
       y2="258.64999"
       gradientUnits="userSpaceOnUse" /><style
       id="current-color-scheme-36"
       type="text/css">
      .ColorScheme-Text {
        color:#122036;
      }
      </style><style
       type="text/css"
       id="current-color-scheme-53-7">
      .ColorScheme-Text {
        color:#122036;
      }
      </style><style
       id="current-color-scheme-5-5"
       type="text/css">
      .ColorScheme-Text {
        color:#122036;
      }
      </style><style
       id="current-color-scheme-2-3"
       type="text/css">
      .ColorScheme-Text {
        color:#122036;
      }
      </style><style
       id="current-color-scheme-1-5"
       type="text/css">
      .ColorScheme-Text {
        color:#122036;
      }
      </style><style
       type="text/css"
       id="current-color-scheme-10-6">
      .ColorScheme-Text {
        color:#122036;
      }
      </style><style
       id="current-color-scheme-0-2"
       type="text/css">
      .ColorScheme-Text {
        color:#122036;
      }
      </style><style
       id="current-color-scheme-26-9"
       type="text/css">
      .ColorScheme-Text {
        color:#122036;
      }
      </style><style
       id="current-color-scheme-7-1"
       type="text/css">
      .ColorScheme-Text {
        color:#122036;
      }
      </style><style
       id="current-color-scheme-535-2"
       type="text/css">
      .ColorScheme-Text {
        color:#122036;
      }
      </style><style
       type="text/css"
       id="current-color-scheme-53-6-7">
      .ColorScheme-Text {
        color:#122036;
      }
      </style><style
       id="current-color-scheme-5-2-0"
       type="text/css">
      .ColorScheme-Text {
        color:#122036;
      }
      </style><style
       id="current-color-scheme-2-9-9"
       type="text/css">
      .ColorScheme-Text {
        color:#122036;
      }
      </style><style
       id="current-color-scheme-1-1-3"
       type="text/css">
      .ColorScheme-Text {
        color:#122036;
      }
      </style><style
       type="text/css"
       id="current-color-scheme-10-2-6">
      .ColorScheme-Text {
        color:#122036;
      }
      </style><style
       id="current-color-scheme-0-7-0"
       type="text/css">
      .ColorScheme-Text {
        color:#122036;
      }
      </style><style
       id="current-color-scheme-26-0-6"
       type="text/css">
      .ColorScheme-Text {
        color:#122036;
      }
      </style><style
       id="current-color-scheme-7-9-2"
       type="text/css">
      .ColorScheme-Text {
        color:#122036;
      }
      </style></defs><sodipodi:namedview
     id="base"
     pagecolor="#ffffff"
     bordercolor="#666666"
     borderopacity="1.0"
     inkscape:pageopacity="0.0"
     inkscape:pageshadow="2"
     inkscape:zoom="11.2"
     inkscape:cx="26.383929"
     inkscape:cy="30.267857"
     inkscape:document-units="px"
     inkscape:current-layer="g1850"
     showgrid="false"
     inkscape:showpageshadow="false"
     units="px"
     inkscape:window-width="2560"
     inkscape:window-height="1356"
     inkscape:window-x="0"
     inkscape:window-y="0"
     inkscape:window-maximized="1"
     inkscape:pagecheckerboard="0"
     inkscape:deskcolor="#d1d1d1" /><metadata
     id="metadata1396"><rdf:RDF><cc:Work
         rdf:about=""><dc:format>image/svg+xml</dc:format><dc:type
           rdf:resource="http://purl.org/dc/dcmitype/StillImage" /></cc:Work></rdf:RDF></metadata><g
     inkscape:label="Capa 1"
     inkscape:groupmode="layer"
     id="layer1"
     transform="translate(0,-280.06672)"><g
       id="g1850"
       transform="translate(11.540266,-3.7560391)"><g
         transform="matrix(0.26458333,0,0,0.26458333,-1.4860995,215.91745)"
         id="g1769"><path
           sodipodi:nodetypes="sssssssss"
           inkscape:connector-curvature="0"
           style="opacity:1;vector-effect:none;fill:#3182d9;fill-opacity:1;stroke:none;stroke-width:2;stroke-linecap:round;stroke-linejoin:round;stroke-miterlimit:4;stroke-dasharray:none;stroke-dashoffset:0;stroke-opacity:1"
           d="m -29,257.64999 h 46 c 2.216,0 4,1.784 4,4 v 54 c 0,2.216 -1.784,4 -4,4 h -46 c -2.216,0 -4,-1.784 -4,-4 v -54 c 0,-2.216 1.784,-4 4,-4 z"
           id="rect971" /><path
           sodipodi:nodetypes="sssssssss"
           inkscape:connector-curvature="0"
           style="opacity:1;vector-effect:none;fill:url(#linearGradient2);fill-opacity:1;stroke:none;stroke-width:2;stroke-linecap:round;stroke-linejoin:round;stroke-miterlimit:4;stroke-dasharray:none;stroke-dashoffset:0;stroke-opacity:1"
           d="m -29,258.64999 h 46 c 1.662,0 3,1.338 3,3 v 54 c 0,1.662 -1.338,3 -3,3 h -46 c -1.662,0 -3,-1.338 -3,-3 v -54 c 0,-1.662 1.338,-3 3,-3 z"
           id="rect971-2" /></g><path
         id="path1121-1"
         style="vector-effect:none;fill:#3182d9;fill-opacity:1;stroke:none;stroke-width:0.529167;stroke-linecap:round;stroke-linejoin:round;stroke-miterlimit:4;stroke-dasharray:none;stroke-dashoffset:0;stroke-opacity:1"
         d="m -8.3652661,286.99776 v 0.52916 h 2.1166667 v -0.52916 z m 2.6458333,0 v 0.52916 h 0.79375 v -0.52916 z m 1.3229167,0 v 0.52916 h 1.0583333 v -0.52916 z m 1.5874999,0 v 0.52916 h 2.38125 v -0.52916 z m -5.5562499,1.05833 v 0.52917 h 1.0583334 v -0.52917 z m 1.5875,0 v 0.52917 h 2.1166666 v -0.52917 z m 2.6458333,0 v 0.52917 h 0.2645833 1.0583333 0.5291667 1.5875 v -0.52917 h -1.5875 -0.5291667 -1.0583333 z m -4.2333333,1.05833 v 0.52917 h 0.79375 v -0.52917 z m 1.3229167,0 v 0.52917 h 1.0583333 v -0.52917 z m 1.5874999,0 v 0.52917 h 2.1166667 v -0.52917 z m 2.6458333,0 v 0.52917 h 0.5291667 1.8520833 0.2645833 v -0.52917 h -0.2645833 -1.8520833 z m -5.5562499,1.05834 v 0.52916 h 2.9104166 v -0.52916 z m 3.4395833,0 v 0.52916 h 0.5291667 0.5291666 0.5291667 2.38124993 0.52916667 v -0.52916 H -0.95693287 -3.3381828 -3.8673495 -4.3965161 Z m -3.4395833,1.05833 v 0.52917 h 1.0583334 v -0.52917 z m 1.5875,0 v 0.52917 h 2.1166666 0.5291667 1.3229166 0.5291667 1.5875 0.5291666 v -0.52917 h -0.5291666 -1.5875 -0.5291667 -1.3229166 -0.5291667 z m -1.5875,1.05833 v 0.52917 h 2.9104166 v -0.52917 z m 3.4395833,0 v 0.52917 h 0.2645833 0.79375 0.5291667 v -0.52917 h -0.5291667 -0.79375 z m 2.38125,0.79375 0.5291666,5.02709 2.38125,1.32291 2.3812499,-1.32291 0.5291667,-5.02709 z m -5.8208333,0.26459 v 0.52916 h 1.0583334 v -0.52916 z m 1.5875,0 v 0.52916 h 2.38125 0.5291666 0.5291667 v -0.52916 h -0.5291667 -0.5291666 z m -1.5875,1.05833 v 0.52917 h 2.1166667 v -0.52917 z m 2.6458333,0 v 0.52917 h 1.0583333 1.3229167 v -0.52917 h -1.3229167 z m -2.6458333,1.05833 v 0.52917 h 2.9104166 v -0.52917 z m 3.4395833,0 v 0.52917 h 0.2645833 0.79375 0.5291667 v -0.52917 h -0.5291667 -0.79375 z m -3.4395833,1.05834 v 0.52916 h 1.0583334 v -0.52916 z m 1.5875,0 v 0.52916 h 2.38125 0.5291666 0.5291667 v -0.52916 h -0.5291667 -0.5291666 z m -1.5875,1.05833 v 0.52917 h 2.1166667 v -0.52917 z m 2.6458333,0 v 0.52917 h 1.0583333 1.3229167 v -0.52917 h -1.3229167 z" /><path
         id="path1121"
         style="opacity:1;vector-effect:none;fill:#d7f1fe;fill-opacity:1;stroke:none;stroke-width:0.52916664;stroke-linecap:round;stroke-linejoin:round;stroke-miterlimit:4;stroke-dasharray:none;stroke-dashoffset:0;stroke-opacity:1"
         d="M -8.3652661 286.73318 L -8.3652661 287.26234 L -6.2485994 287.26234 L -6.2485994 286.73318 L -8.3652661 286.73318 z M -5.7194328 286.73318 L -5.7194328 287.26234 L -4.9256828 287.26234 L -4.9256828 286.73318 L -5.7194328 286.73318 z M -4.3965161 286.73318 L -4.3965161 287.26234 L -3.3381828 287.26234 L -3.3381828 286.73318 L -4.3965161 286.73318 z M -2.8090162 286.73318 L -2.8090162 287.26234 L -0.42776622 287.26234 L -0.42776622 286.73318 L -2.8090162 286.73318 z M -8.3652661 287.79151 L -8.3652661 288.32068 L -7.3069327 288.32068 L -7.3069327 287.79151 L -8.3652661 287.79151 z M -6.7777661 287.79151 L -6.7777661 288.32068 L -4.6610995 288.32068 L -4.6610995 287.79151 L -6.7777661 287.79151 z M -4.1319328 287.79151 L -4.1319328 288.32068 L -3.8673495 288.32068 L -2.8090162 288.32068 L -2.2798495 288.32068 L -0.69234955 288.32068 L -0.69234955 287.79151 L -2.2798495 287.79151 L -2.8090162 287.79151 L -3.8673495 287.79151 L -4.1319328 287.79151 z M -8.3652661 288.84984 L -8.3652661 289.37901 L -7.5715161 289.37901 L -7.5715161 288.84984 L -8.3652661 288.84984 z M -7.0423494 288.84984 L -7.0423494 289.37901 L -5.9840161 289.37901 L -5.9840161 288.84984 L -7.0423494 288.84984 z M -5.4548495 288.84984 L -5.4548495 289.37901 L -3.3381828 289.37901 L -3.3381828 288.84984 L -5.4548495 288.84984 z M -2.8090162 288.84984 L -2.8090162 289.37901 L -2.2798495 289.37901 L -0.42776622 289.37901 L -0.16318289 289.37901 L -0.16318289 288.84984 L -0.42776622 288.84984 L -2.2798495 288.84984 L -2.8090162 288.84984 z M -8.3652661 289.90818 L -8.3652661 290.43734 L -5.4548495 290.43734 L -5.4548495 289.90818 L -8.3652661 289.90818 z M -4.9256828 289.90818 L -4.9256828 290.43734 L -4.3965161 290.43734 L -3.8673495 290.43734 L -3.3381828 290.43734 L -0.95693287 290.43734 L -0.42776622 290.43734 L -0.42776622 289.90818 L -0.95693287 289.90818 L -3.3381828 289.90818 L -3.8673495 289.90818 L -4.3965161 289.90818 L -4.9256828 289.90818 z M -8.3652661 290.96651 L -8.3652661 291.49568 L -7.3069327 291.49568 L -7.3069327 290.96651 L -8.3652661 290.96651 z M -6.7777661 290.96651 L -6.7777661 291.49568 L -4.6610995 291.49568 L -4.1319328 291.49568 L -2.8090162 291.49568 L -2.2798495 291.49568 L -0.69234955 291.49568 L -0.16318289 291.49568 L -0.16318289 290.96651 L -0.69234955 290.96651 L -2.2798495 290.96651 L -2.8090162 290.96651 L -4.1319328 290.96651 L -4.6610995 290.96651 L -6.7777661 290.96651 z M -8.3652661 292.02484 L -8.3652661 292.55401 L -5.4548495 292.55401 L -5.4548495 292.02484 L -8.3652661 292.02484 z M -4.9256828 292.02484 L -4.9256828 292.55401 L -4.6610995 292.55401 L -3.8673495 292.55401 L -3.3381828 292.55401 L -3.3381828 292.02484 L -3.8673495 292.02484 L -4.6610995 292.02484 L -4.9256828 292.02484 z M -2.5444328 292.81859 L -2.0152662 297.84568 L 0.36598377 299.16859 L 2.7472337 297.84568 L 3.2764004 292.81859 L -2.5444328 292.81859 z M -8.3652661 293.08318 L -8.3652661 293.61234 L -7.3069327 293.61234 L -7.3069327 293.08318 L -8.3652661 293.08318 z M -6.7777661 293.08318 L -6.7777661 293.61234 L -4.3965161 293.61234 L -3.8673495 293.61234 L -3.3381828 293.61234 L -3.3381828 293.08318 L -3.8673495 293.08318 L -4.3965161 293.08318 L -6.7777661 293.08318 z M -8.3652661 294.14151 L -8.3652661 294.67068 L -6.2485994 294.67068 L -6.2485994 294.14151 L -8.3652661 294.14151 z M -5.7194328 294.14151 L -5.7194328 294.67068 L -4.6610995 294.67068 L -3.3381828 294.67068 L -3.3381828 294.14151 L -4.6610995 294.14151 L -5.7194328 294.14151 z M -8.3652661 295.19984 L -8.3652661 295.72901 L -5.4548495 295.72901 L -5.4548495 295.19984 L -8.3652661 295.19984 z M -4.9256828 295.19984 L -4.9256828 295.72901 L -4.6610995 295.72901 L -3.8673495 295.72901 L -3.3381828 295.72901 L -3.3381828 295.19984 L -3.8673495 295.19984 L -4.6610995 295.19984 L -4.9256828 295.19984 z M -8.3652661 296.25818 L -8.3652661 296.78734 L -7.3069327 296.78734 L -7.3069327 296.25818 L -8.3652661 296.25818 z M -6.7777661 296.25818 L -6.7777661 296.78734 L -4.3965161 296.78734 L -3.8673495 296.78734 L -3.3381828 296.78734 L -3.3381828 296.25818 L -3.8673495 296.25818 L -4.3965161 296.25818 L -6.7777661 296.25818 z M -8.3652661 297.31651 L -8.3652661 297.84568 L -6.2485994 297.84568 L -6.2485994 297.31651 L -8.3652661 297.31651 z M -5.7194328 297.31651 L -5.7194328 297.84568 L -4.6610995 297.84568 L -3.3381828 297.84568 L -3.3381828 297.31651 L -4.6610995 297.31651 L -5.7194328 297.31651 z " /><path
         style="fill:#50c1f9;fill-opacity:1;fill-rule:evenodd;stroke:none;stroke-width:0.48846155px;stroke-linecap:butt;stroke-linejoin:miter;stroke-opacity:1"
         d="M 0.36598366,293.08317 H 3.0118167 l -0.529166,4.49792 -2.11666704,1.32292 z"
         id="path4799-9-2"
         inkscape:connector-curvature="0"
         sodipodi:nodetypes="ccccc" /></g></g></svg>
