<?xml version="1.0" encoding="UTF-8" standalone="no"?>
<!-- Created with Inkscape (http://www.inkscape.org/) -->

<svg
   width="64"
   height="64"
   viewBox="0 0 16.933333 16.933333"
   version="1.1"
   id="svg1399"
   inkscape:version="1.3.2 (091e20ef0f, 2023-11-25, custom)"
   sodipodi:docname="application-vnd.ms-word.document.macroenabled.12.svg"
   xml:space="preserve"
   xmlns:inkscape="http://www.inkscape.org/namespaces/inkscape"
   xmlns:sodipodi="http://sodipodi.sourceforge.net/DTD/sodipodi-0.dtd"
   xmlns:xlink="http://www.w3.org/1999/xlink"
   xmlns="http://www.w3.org/2000/svg"
   xmlns:svg="http://www.w3.org/2000/svg"
   xmlns:rdf="http://www.w3.org/1999/02/22-rdf-syntax-ns#"
   xmlns:cc="http://creativecommons.org/ns#"
   xmlns:dc="http://purl.org/dc/elements/1.1/"><defs
     id="defs1393"><linearGradient
       id="linearGradient1"
       inkscape:collect="always"><stop
         style="stop-color:#404040;stop-opacity:1;"
         offset="0"
         id="stop1" /><stop
         style="stop-color:#222222;stop-opacity:1;"
         offset="1"
         id="stop2" /></linearGradient><linearGradient
       inkscape:collect="always"
       xlink:href="#linearGradient1"
       id="linearGradient2"
       x1="3.175"
       y1="298.05838"
       x2="3.175"
       y2="294.35419"
       gradientUnits="userSpaceOnUse" /><linearGradient
       gradientUnits="userSpaceOnUse"
       y2="252.64999"
       x2="88"
       y1="306.64999"
       x1="88"
       id="linearGradient1149"
       xlink:href="#linearGradient4602"
       inkscape:collect="always"
       gradientTransform="translate(-8,-256.64999)" /><linearGradient
       id="linearGradient4602"
       inkscape:collect="always"><stop
         id="stop4598"
         offset="0"
         style="stop-color:#228ee9;stop-opacity:1" /><stop
         id="stop4600"
         offset="1"
         style="stop-color:#2eb5fd;stop-opacity:1" /></linearGradient></defs><sodipodi:namedview
     id="base"
     pagecolor="#ffffff"
     bordercolor="#666666"
     borderopacity="1.0"
     inkscape:pageopacity="0.0"
     inkscape:pageshadow="2"
     inkscape:zoom="11.2"
     inkscape:cx="45.133929"
     inkscape:cy="30.267857"
     inkscape:document-units="px"
     inkscape:current-layer="g2934"
     showgrid="true"
     inkscape:showpageshadow="false"
     units="px"
     inkscape:window-width="2560"
     inkscape:window-height="1356"
     inkscape:window-x="0"
     inkscape:window-y="0"
     inkscape:window-maximized="1"
     inkscape:pagecheckerboard="0"
     inkscape:deskcolor="#d1d1d1"><inkscape:grid
       type="xygrid"
       id="grid1993"
       originx="0"
       originy="0"
       spacingy="1"
       spacingx="1"
       units="px"
       visible="true" /></sodipodi:namedview><metadata
     id="metadata1396"><rdf:RDF><cc:Work
         rdf:about=""><dc:format>image/svg+xml</dc:format><dc:type
           rdf:resource="http://purl.org/dc/dcmitype/StillImage" /></cc:Work></rdf:RDF></metadata><g
     inkscape:label="Capa 1"
     inkscape:groupmode="layer"
     id="layer1"
     transform="translate(0,-280.06672)"><g
       id="g2934"
       transform="translate(10.93891,-3.1880891)"><g
         id="g2934-5"
         transform="translate(-15.475,-1.237504)"><g
           id="g2934-56"
           transform="translate(15.475,1.237504)"><g
             inkscape:label="Capa 1"
             id="layer1-6-2"
             transform="matrix(0.26458333,0,0,0.26458333,-10.93891,216.937)"><g
               id="g1769-9"
               transform="translate(38,-6)"><path
                 id="rect971-1"
                 transform="translate(-84,264.64999)"
                 d="m 55,-7 c -2.216,0 -4,1.784 -4,4 v 14 4 36 c 0,2.216 1.784,4 4,4 h 46 c 2.216,0 4,-1.784 4,-4 V 15 11 10 -3 c 0,-2.216 -1.784,-4 -4,-4 z"
                 style="opacity:1;vector-effect:none;fill:#1568b4;fill-opacity:1;stroke:none;stroke-width:2;stroke-linecap:round;stroke-linejoin:round;stroke-miterlimit:4;stroke-dasharray:none;stroke-dashoffset:0;stroke-opacity:1"
                 inkscape:connector-curvature="0" /><path
                 id="rect971-2-2"
                 transform="translate(-84,264.64999)"
                 d="m 55,-6 c -1.662,0 -3,1.338 -3,3 v 12 2 3 37 c 0,1.662 1.338,3 3,3 h 46 c 1.662,0 3,-1.338 3,-3 V 14 11 9 -3 c 0,-1.662 -1.338,-3 -3,-3 z"
                 style="opacity:1;vector-effect:none;fill:url(#linearGradient1149);fill-opacity:1;stroke:none;stroke-width:2;stroke-linecap:round;stroke-linejoin:round;stroke-miterlimit:4;stroke-dasharray:none;stroke-dashoffset:0;stroke-opacity:1"
                 inkscape:connector-curvature="0" /></g></g><g
             id="g2054"
             class="cls-1"
             transform="matrix(0.26458333,0,0,0.26458333,3.3485899,282.34994)"
             style="isolation:isolate"><g
               data-name="Icons - Color"
               id="Icons_-_Color"><path
                 style="fill:#1568b4;fill-opacity:1;stroke:none;stroke-width:2;stroke-linecap:butt;stroke-linejoin:round;stroke-miterlimit:4;stroke-dasharray:none;stroke-opacity:1"
                 d="m -35,44.419963 6,-1 L -29.0455,30.374504 -19,27.419963 v 20 h -16 l 17,4 9,-2 v -23 l -9,-5 -17,6 z"
                 id="path2212"
                 inkscape:connector-curvature="0" /></g></g><g
             id="g2054-7-7"
             class="cls-1"
             transform="matrix(0.26458333,0,0,0.26458333,3.3485899,282.08536)"
             style="isolation:isolate;fill:#faf8f8;fill-opacity:1"><g
               data-name="Icons - Color"
               id="Icons_-_Color-4-0"
               style="fill:#faf8f8;fill-opacity:1"><path
                 style="fill:#f5fafe;fill-opacity:1;stroke:none;stroke-width:2;stroke-linecap:butt;stroke-linejoin:round;stroke-miterlimit:4;stroke-dasharray:none;stroke-opacity:1"
                 d="m -35,44.419963 6,-1 L -29.0455,30.374504 -19,27.419963 v 20 h -16 l 17,4 9,-2 v -23 l -9,-5 -17,6 z"
                 id="path2212-5-9"
                 inkscape:connector-curvature="0" /></g></g></g></g><g
         id="g2054-7"
         class="cls-1"
         transform="matrix(0.26458333,0,0,0.26458333,3.3485899,282.08536)"
         style="isolation:isolate;fill:#f8faf9;fill-opacity:1" /><g
         id="g1431"
         transform="translate(-0.09099347,1.600608)"><path
           id="path819"
           d="m 1.0914063,294.08958 c -0.1643063,0 -0.2976563,0.13538 -0.2976563,0.30231 v 3.62872 c 0,0.16707 0.13335,0.3023 0.2976563,0.3023 h 4.1671875 c 0.1643062,0 0.2976562,-0.13538 0.2976562,-0.3023 v -3.62459 c 0,-0.16709 -0.13335,-0.30644 -0.2976562,-0.30644 H 2.1166667 Z"
           style="fill:#030303;fill-opacity:1;stroke:none;stroke-width:0.264583"
           inkscape:connector-curvature="0" /><path
           style="opacity:1;fill:url(#linearGradient2);fill-opacity:1;stroke:none;stroke-width:0.529167;stroke-linecap:round;stroke-linejoin:round;stroke-miterlimit:4;stroke-dasharray:none;stroke-opacity:1"
           d="m 1.0583333,294.35419 h 4.2333331 v 3.70416 H 1.0583333 Z"
           id="rect838" /><g
           id="g1546"
           transform="translate(-1.3229166,4.7625016)"><path
             id="rect1285"
             style="opacity:1;fill:#000000;stroke-width:0.529167;stroke-linecap:round;stroke-linejoin:round;stroke-miterlimit:1.8;paint-order:fill markers stroke;stop-color:#000000;fill-opacity:0.31423897"
             d="M 2.3812498 289.5917 L 2.3812498 290.12087 L 6.6145831 290.12087 L 6.6145831 289.5917 L 2.3812498 289.5917 z M 2.3812498 290.65003 L 2.3812498 291.1792 L 6.6145831 291.1792 L 6.6145831 290.65003 L 2.3812498 290.65003 z M 2.3812498 291.70837 L 2.3812498 292.23753 L 6.6145831 292.23753 L 6.6145831 291.70837 L 2.3812498 291.70837 z M 2.3812498 292.7667 L 2.3812498 293.29587 L 6.6145831 293.29587 L 6.6145831 292.7667 L 2.3812498 292.7667 z " /><path
             id="path827"
             d="m 2.9104166,289.85625 v 0.26458 H 2.6458333 v 0.26459 H 2.9104166 V 290.65 H 2.6458333 v 0.26458 h 0.2645833 v 0.26459 H 3.175 v -0.26459 h 0.2645833 v 0.26459 h 0.2645833 v -0.26459 H 3.96875 V 290.65 H 3.7041666 v -0.26458 H 3.96875 v -0.26459 H 3.7041666 v -0.26458 H 3.4395833 v 0.26458 H 3.175 v -0.26458 z M 3.175,290.38542 H 3.4395833 V 290.65 H 3.175 Z m 1.0583333,0.52916 v 0.26459 h 1.0583332 v -0.26459 z"
             style="fill:#32ff3f;fill-opacity:1;stroke:none;stroke-width:0.264583"
             inkscape:connector-curvature="0" /></g></g></g></g></svg>
