<?xml version="1.0" encoding="UTF-8" standalone="no"?>
<!-- Created with Inkscape (http://www.inkscape.org/) -->

<svg
   width="64"
   height="64"
   viewBox="0 0 64 64"
   version="1.1"
   id="svg8"
   inkscape:version="1.3.2 (091e20ef0f, 2023-11-25, custom)"
   sodipodi:docname="application-x-macbinary.svg"
   xml:space="preserve"
   xmlns:inkscape="http://www.inkscape.org/namespaces/inkscape"
   xmlns:sodipodi="http://sodipodi.sourceforge.net/DTD/sodipodi-0.dtd"
   xmlns:xlink="http://www.w3.org/1999/xlink"
   xmlns="http://www.w3.org/2000/svg"
   xmlns:svg="http://www.w3.org/2000/svg"
   xmlns:rdf="http://www.w3.org/1999/02/22-rdf-syntax-ns#"
   xmlns:cc="http://creativecommons.org/ns#"
   xmlns:dc="http://purl.org/dc/elements/1.1/"><title
     id="title7895">Antu icon Theme</title><defs
     id="defs2"><linearGradient
       id="linearGradient3"
       inkscape:collect="always"><stop
         style="stop-color:#d4deea;stop-opacity:1;"
         offset="0"
         id="stop3" /><stop
         style="stop-color:#f0f1f2;stop-opacity:1;"
         offset="1"
         id="stop4" /></linearGradient><linearGradient
       id="linearGradient1"
       inkscape:collect="always"><stop
         style="stop-color:#1e75ee;stop-opacity:1;"
         offset="0"
         id="stop1" /><stop
         style="stop-color:#1b9df3;stop-opacity:1;"
         offset="1"
         id="stop2" /></linearGradient><linearGradient
       gradientTransform="translate(-54,2)"
       inkscape:collect="always"
       xlink:href="#linearGradient4656"
       id="linearGradient1149"
       x1="86"
       y1="308.64999"
       x2="86"
       y2="252.64999"
       gradientUnits="userSpaceOnUse" /><linearGradient
       inkscape:collect="always"
       id="linearGradient4656"><stop
         style="stop-color:#f1efea;stop-opacity:1;"
         offset="0"
         id="stop4652" /><stop
         style="stop-color:#fcfcfc;stop-opacity:1;"
         offset="1"
         id="stop4654" /></linearGradient><style
       id="current-color-scheme"
       type="text/css">
      .ColorScheme-Text {
        color:#122036;
      }
      </style><style
       type="text/css"
       id="current-color-scheme-5">
      .ColorScheme-Text {
        color:#122036;
      }
      </style><style
       type="text/css"
       id="current-color-scheme-2">
      .ColorScheme-Text {
        color:#122036;
      }
      </style><style
       type="text/css"
       id="current-color-scheme-1">
      .ColorScheme-Text {
        color:#122036;
      }
      </style><style
       id="current-color-scheme-10"
       type="text/css">
      .ColorScheme-Text {
        color:#122036;
      }
      </style><style
       type="text/css"
       id="current-color-scheme-0">
      .ColorScheme-Text {
        color:#122036;
      }
      </style><style
       type="text/css"
       id="current-color-scheme-26">
      .ColorScheme-Text {
        color:#122036;
      }
      </style><style
       id="current-color-scheme-27"
       type="text/css">
      .ColorScheme-Text {
        color:#122036;
      }
      </style><style
       id="current-color-scheme-7"
       type="text/css">
      .ColorScheme-Text {
        color:#122036;
      }
      </style><style
       id="current-color-scheme-5-09"
       type="text/css">
      .ColorScheme-Text {
        color:#122036;
      }
      </style><style
       id="current-color-scheme-0-3"
       type="text/css">
      .ColorScheme-Text {
        color:#122036;
      }
      </style><style
       id="current-color-scheme-7-9"
       type="text/css">
      .ColorScheme-Text {
        color:#122036;
      }
      </style><style
       id="current-color-scheme-5-3"
       type="text/css">
      .ColorScheme-Text {
        color:#122036;
      }
      </style><style
       id="current-color-scheme-79"
       type="text/css">
      .ColorScheme-Text {
        color:#122036;
      }
      </style><style
       id="current-color-scheme-7-2"
       type="text/css">
      .ColorScheme-Text {
        color:#122036;
      }
      </style><style
       id="current-color-scheme-5-0"
       type="text/css">
      .ColorScheme-Text {
        color:#122036;
      }
      </style><style
       type="text/css"
       id="current-color-scheme-6">
      .ColorScheme-Text {
        color:#122036;
      }
      </style><style
       id="current-color-scheme-5-2"
       type="text/css">
      .ColorScheme-Text {
        color:#122036;
      }
      </style><style
       id="current-color-scheme-2-1"
       type="text/css">
      .ColorScheme-Text {
        color:#122036;
      }
      </style><style
       id="current-color-scheme-1-7"
       type="text/css">
      .ColorScheme-Text {
        color:#122036;
      }
      </style><style
       type="text/css"
       id="current-color-scheme-10-8">
      .ColorScheme-Text {
        color:#122036;
      }
      </style><style
       id="current-color-scheme-0-5"
       type="text/css">
      .ColorScheme-Text {
        color:#122036;
      }
      </style><style
       id="current-color-scheme-26-7"
       type="text/css">
      .ColorScheme-Text {
        color:#122036;
      }
      </style><style
       type="text/css"
       id="current-color-scheme-27-4">
      .ColorScheme-Text {
        color:#122036;
      }
      </style><style
       type="text/css"
       id="current-color-scheme-7-1">
      .ColorScheme-Text {
        color:#122036;
      }
      </style><style
       type="text/css"
       id="current-color-scheme-5-09-8">
      .ColorScheme-Text {
        color:#122036;
      }
      </style><style
       type="text/css"
       id="current-color-scheme-0-3-5">
      .ColorScheme-Text {
        color:#122036;
      }
      </style><style
       type="text/css"
       id="current-color-scheme-7-9-9">
      .ColorScheme-Text {
        color:#122036;
      }
      </style><style
       type="text/css"
       id="current-color-scheme-5-3-7">
      .ColorScheme-Text {
        color:#122036;
      }
      </style><style
       type="text/css"
       id="current-color-scheme-79-5">
      .ColorScheme-Text {
        color:#122036;
      }
      </style><style
       type="text/css"
       id="current-color-scheme-7-2-3">
      .ColorScheme-Text {
        color:#122036;
      }
      </style><style
       type="text/css"
       id="current-color-scheme-5-0-8">
      .ColorScheme-Text {
        color:#122036;
      }
      </style><style
       id="current-color-scheme-3"
       type="text/css">
      .ColorScheme-Text {
        color:#122036;
      }
      </style><style
       id="current-color-scheme-2-6"
       type="text/css">
      .ColorScheme-Text {
        color:#122036;
      }
      </style><style
       id="current-color-scheme-0-0"
       type="text/css">
      .ColorScheme-Text {
        color:#122036;
      }
      </style><style
       id="current-color-scheme-53"
       type="text/css">
      .ColorScheme-Text {
        color:#122036;
      }
      </style><style
       id="current-color-scheme-2-5"
       type="text/css">
      .ColorScheme-Text {
        color:#122036;
      }
      </style><style
       id="current-color-scheme-0-6"
       type="text/css">
      .ColorScheme-Text {
        color:#122036;
      }
      </style><style
       id="current-color-scheme-70"
       type="text/css">
      .ColorScheme-Text {
        color:#122036;
      }
      </style><style
       id="current-color-scheme-2-9"
       type="text/css">
      .ColorScheme-Text {
        color:#122036;
      }
      </style><style
       id="current-color-scheme-0-36"
       type="text/css">
      .ColorScheme-Text {
        color:#122036;
      }
      </style><style
       id="current-color-scheme-535"
       type="text/css">
      .ColorScheme-Text {
        color:#122036;
      }
      </style><style
       type="text/css"
       id="current-color-scheme-5-6">
      .ColorScheme-Text {
        color:#122036;
      }
      </style><style
       type="text/css"
       id="current-color-scheme-2-2">
      .ColorScheme-Text {
        color:#122036;
      }
      </style><style
       type="text/css"
       id="current-color-scheme-1-9">
      .ColorScheme-Text {
        color:#122036;
      }
      </style><style
       id="current-color-scheme-10-1"
       type="text/css">
      .ColorScheme-Text {
        color:#122036;
      }
      </style><style
       type="text/css"
       id="current-color-scheme-0-2">
      .ColorScheme-Text {
        color:#122036;
      }
      </style><style
       type="text/css"
       id="current-color-scheme-26-70">
      .ColorScheme-Text {
        color:#122036;
      }
      </style><style
       id="current-color-scheme-27-9"
       type="text/css">
      .ColorScheme-Text {
        color:#122036;
      }
      </style><style
       id="current-color-scheme-7-3"
       type="text/css">
      .ColorScheme-Text {
        color:#122036;
      }
      </style><style
       id="current-color-scheme-5-09-6"
       type="text/css">
      .ColorScheme-Text {
        color:#122036;
      }
      </style><style
       id="current-color-scheme-0-3-0"
       type="text/css">
      .ColorScheme-Text {
        color:#122036;
      }
      </style><style
       id="current-color-scheme-7-9-6"
       type="text/css">
      .ColorScheme-Text {
        color:#122036;
      }
      </style><style
       id="current-color-scheme-5-3-2"
       type="text/css">
      .ColorScheme-Text {
        color:#122036;
      }
      </style><style
       id="current-color-scheme-79-6"
       type="text/css">
      .ColorScheme-Text {
        color:#122036;
      }
      </style><style
       id="current-color-scheme-7-2-1"
       type="text/css">
      .ColorScheme-Text {
        color:#122036;
      }
      </style><style
       id="current-color-scheme-5-0-87"
       type="text/css">
      .ColorScheme-Text {
        color:#122036;
      }
      </style><style
       type="text/css"
       id="current-color-scheme-6-9">
      .ColorScheme-Text {
        color:#122036;
      }
      </style><style
       id="current-color-scheme-5-2-2"
       type="text/css">
      .ColorScheme-Text {
        color:#122036;
      }
      </style><style
       id="current-color-scheme-2-1-0"
       type="text/css">
      .ColorScheme-Text {
        color:#122036;
      }
      </style><style
       id="current-color-scheme-1-7-2"
       type="text/css">
      .ColorScheme-Text {
        color:#122036;
      }
      </style><style
       type="text/css"
       id="current-color-scheme-10-8-3">
      .ColorScheme-Text {
        color:#122036;
      }
      </style><style
       id="current-color-scheme-0-5-7"
       type="text/css">
      .ColorScheme-Text {
        color:#122036;
      }
      </style><style
       id="current-color-scheme-26-7-5"
       type="text/css">
      .ColorScheme-Text {
        color:#122036;
      }
      </style><style
       type="text/css"
       id="current-color-scheme-27-4-9">
      .ColorScheme-Text {
        color:#122036;
      }
      </style><style
       type="text/css"
       id="current-color-scheme-7-1-2">
      .ColorScheme-Text {
        color:#122036;
      }
      </style><style
       type="text/css"
       id="current-color-scheme-5-09-8-2">
      .ColorScheme-Text {
        color:#122036;
      }
      </style><style
       type="text/css"
       id="current-color-scheme-0-3-5-8">
      .ColorScheme-Text {
        color:#122036;
      }
      </style><style
       type="text/css"
       id="current-color-scheme-7-9-9-9">
      .ColorScheme-Text {
        color:#122036;
      }
      </style><style
       type="text/css"
       id="current-color-scheme-5-3-7-7">
      .ColorScheme-Text {
        color:#122036;
      }
      </style><style
       type="text/css"
       id="current-color-scheme-79-5-3">
      .ColorScheme-Text {
        color:#122036;
      }
      </style><style
       type="text/css"
       id="current-color-scheme-7-2-3-6">
      .ColorScheme-Text {
        color:#122036;
      }
      </style><style
       type="text/css"
       id="current-color-scheme-5-0-8-1">
      .ColorScheme-Text {
        color:#122036;
      }
      </style><style
       id="current-color-scheme-61"
       type="text/css">
      .ColorScheme-Text {
        color:#122036;
      }
      </style><style
       id="current-color-scheme-2-55"
       type="text/css">
      .ColorScheme-Text {
        color:#122036;
      }
      </style><style
       id="current-color-scheme-0-4"
       type="text/css">
      .ColorScheme-Text {
        color:#122036;
      }
      </style><linearGradient
       inkscape:collect="always"
       xlink:href="#linearGradient1"
       id="linearGradient2"
       x1="3"
       y1="313.64999"
       x2="3"
       y2="284.65018"
       gradientUnits="userSpaceOnUse" /><linearGradient
       inkscape:collect="always"
       xlink:href="#linearGradient3"
       id="linearGradient4"
       x1="27"
       y1="305.64999"
       x2="26.939341"
       y2="277.24271"
       gradientUnits="userSpaceOnUse" /></defs><sodipodi:namedview
     id="base"
     pagecolor="#ffffff"
     bordercolor="#666666"
     borderopacity="1.0"
     inkscape:pageopacity="0.0"
     inkscape:pageshadow="2"
     inkscape:zoom="4"
     inkscape:cx="40.375"
     inkscape:cy="66"
     inkscape:document-units="px"
     inkscape:current-layer="layer1-5-8"
     showgrid="false"
     units="px"
     inkscape:window-width="2560"
     inkscape:window-height="1356"
     inkscape:window-x="0"
     inkscape:window-y="0"
     inkscape:window-maximized="1"
     objecttolerance="10"
     gridtolerance="10"
     guidetolerance="10"
     inkscape:snap-bbox="true"
     inkscape:bbox-paths="true"
     inkscape:bbox-nodes="true"
     inkscape:snap-bbox-edge-midpoints="true"
     inkscape:snap-bbox-midpoints="true"
     inkscape:object-paths="true"
     inkscape:snap-intersection-paths="true"
     inkscape:showpageshadow="false"
     inkscape:pagecheckerboard="0"
     inkscape:deskcolor="#d1d1d1"><inkscape:grid
       type="xygrid"
       id="grid7897"
       empspacing="4"
       originx="0"
       originy="0"
       spacingy="1"
       spacingx="1"
       units="px"
       visible="false" /></sodipodi:namedview><metadata
     id="metadata5"><rdf:RDF><cc:Work
         rdf:about=""><dc:format>image/svg+xml</dc:format><dc:type
           rdf:resource="http://purl.org/dc/dcmitype/StillImage" /><dc:title>Antu icon Theme</dc:title></cc:Work></rdf:RDF></metadata><g
     inkscape:label="Capa 1"
     inkscape:groupmode="layer"
     id="layer1"
     transform="translate(0,-250.64999)"><path
       id="rect971"
       d="m 9,251.64999 h 46 c 2.216,0 4,1.784 4,4 v 54 c 0,2.216 -1.784,4 -4,4 H 9 c -2.216,0 -4,-1.784 -4,-4 v -54 c 0,-2.216 1.784,-4 4,-4 z"
       style="vector-effect:none;fill:#90a4ae;fill-opacity:1;stroke:none;stroke-width:2;stroke-linecap:round;stroke-linejoin:round;stroke-miterlimit:4;stroke-dasharray:none;stroke-dashoffset:0;stroke-opacity:1"
       inkscape:connector-curvature="0"
       sodipodi:nodetypes="sssssssss" /><path
       id="rect971-2"
       d="m 9,252.64999 h 46 c 1.662,0 3,1.338 3,3 v 54 c 0,1.662 -1.338,3 -3,3 H 9 c -1.662,0 -3,-1.338 -3,-3 v -54 c 0,-1.662 1.338,-3 3,-3 z"
       style="vector-effect:none;fill:url(#linearGradient1149);fill-opacity:1;stroke:none;stroke-width:2;stroke-linecap:round;stroke-linejoin:round;stroke-miterlimit:4;stroke-dasharray:none;stroke-dashoffset:0;stroke-opacity:1"
       inkscape:connector-curvature="0"
       sodipodi:nodetypes="sssssssss" /><g
       inkscape:label="Capa 1"
       id="layer1-6"
       style="fill:#d8e0e8;fill-opacity:1"><path
         id="rect5971-3"
         style="fill:#d6dbdb;fill-opacity:1;stroke-width:1.6;stroke-linecap:round;stroke-linejoin:round;stroke-miterlimit:1.8;paint-order:stroke fill markers;stop-color:#000000"
         d="m 9,252.64999 c -1.6619943,0 -3,1.338 -3,3 v 1 H 6.1699219 10 v -3.83008 -0.16992 z m 1,4 v 4 h 4 v -4 z m 4,0 h 4 v -4 h -4 z m 4,0 v 4 h 4 v -4 z m 4,0 h 4 v -4 h -4 z m 4,0 v 4 h 4 v -4 z m 4,0 h 4 v -4 h -4 z m 4,0 v 4 h 4 v -4 z m 4,0 h 4 v -4 h -4 z m 4,0 v 4 h 4 v -4 z m 4,0 h 4 v -4 h -4 z m 4,0 v 4 h 4 v -4 z m 4,0 H 57.830078 58 v -1 c 0,-1.662 -1.338006,-3 -3,-3 h -1 v 0.16992 z m 0,4 v 4 h 4 v -4 z m 0,4 h -4 v 4 h 4 z m 0,4 v 4 h 4 v -4 z m 0,4 h -4 v 4 h 4 z m 0,4 v 4 h 4 v -4 z m 0,4 h -4 v 4 h 4 z m 0,4 v 4 h 4 v -4 z m 0,4 h -4 v 4 h 4 z m 0,4 v 4 h 4 v -4 z m 0,4 h -4 v 4 h 4 z m 0,4 v 4 h 4 v -4 z m 0,4 h -4 v 4 h 4 z m 0,4 v 3.83008 0.16992 h 1 c 1.661994,0 3,-1.338 3,-3 v -1 h -0.169922 z m -4,0 h -4 v 4 h 4 z m -4,0 v -4 h -4 v 4 z m -4,0 h -4 v 4 h 4 z m -4,0 v -4 h -4 v 4 z m -4,0 h -4 v 4 h 4 z m -4,0 v -4 h -4 v 4 z m -4,0 h -4 v 4 h 4 z m -4,0 v -4 h -4 v 4 z m -4,0 h -4 v 4 h 4 z m -4,0 v -4 h -4 v 4 z m -4,0 H 6.1699219 6 v 1 c 0,1.662 1.3380057,3 3,3 h 1 v -0.16992 z m 0,-4 v -4 H 6 v 4 z m 0,-4 h 4 v -4 h -4 z m 0,-4 v -4 H 6 v 4 z m 0,-4 h 4 v -4 h -4 z m 0,-4 v -4 H 6 v 4 z m 0,-4 h 4 v -4 h -4 z m 0,-4 v -4 H 6 v 4 z m 0,-4 h 4 v -4 h -4 z m 0,-4 v -4 H 6 v 4 z m 0,-4 h 4 v -4 h -4 z m 0,-4 v -4 H 6 v 4 z m 4,0 h 4 v -4 h -4 z m 4,0 v 4 h 4 v -4 z m 4,0 h 4 v -4 h -4 z m 4,0 v 4 h 4 v -4 z m 4,0 h 4 v -4 h -4 z m 4,0 v 4 h 4 v -4 z m 4,0 h 4 v -4 h -4 z m 4,0 v 4 h 4 v -4 z m 4,0 h 4 v -4 h -4 z m 0,4 v 4 h 4 v -4 z m 0,4 h -4 v 4 h 4 z m 0,4 v 4 h 4 v -4 z m 0,4 h -4 v 4 h 4 z m 0,4 v 4 h 4 v -4 z m 0,4 h -4 v 4 h 4 z m 0,4 v 4 h 4 v -4 z m 0,4 h -4 v 4 h 4 z m 0,4 v 4 h 4 v -4 z m -4,0 h -4 v 4 h 4 z m -4,0 v -4 h -4 v 4 z m -4,0 h -4 v 4 h 4 z m -4,0 v -4 h -4 v 4 z m -4,0 h -4 v 4 h 4 z m -4,0 v -4 h -4 v 4 z m -4,0 h -4 v 4 h 4 z m 0,-4 v -4 h -4 v 4 z m 0,-4 h 4 v -4 h -4 z m 0,-4 v -4 h -4 v 4 z m 0,-4 h 4 v -4 h -4 z m 0,-4 v -4 h -4 v 4 z m 0,-4 h 4 v -4 h -4 z m 0,-4 v -4 h -4 v 4 z m 4,0 h 4 v -4 h -4 z m 4,0 v 4 h 4 v -4 z m 4,0 h 4 v -4 h -4 z m 4,0 v 4 h 4 v -4 z m 4,0 h 4 v -4 h -4 z m 0,4 v 4 h 4 v -4 z m 0,4 h -4 v 4 h 4 z m 0,4 v 4 h 4 v -4 z m 0,4 h -4 v 4 h 4 z m 0,4 v 4 h 4 v -4 z m -4,0 h -4 v 4 h 4 z m -4,0 v -4 h -4 v 4 z m -4,0 h -4 v 4 h 4 z m 0,-4 v -4 h -4 v 4 z m 0,-4 h 4 v -4 h -4 z m 0,-4 v -4 h -4 v 4 z m 4,0 h 4 v -4 h -4 z m 0,4 v 4 h 4 v -4 z" /><g
         transform="translate(16,-16.000032)"
         id="layer1-9-2"
         inkscape:label="Capa 1"
         style="fill:#d8e0e8;fill-opacity:1"><g
           transform="translate(17,-4)"
           id="g1698-7"
           style="fill:#d8e0e8;fill-opacity:1" /></g></g><g
       transform="translate(16,-16.000032)"
       id="layer1-9"
       inkscape:label="Capa 1" /><g
       id="g6756"
       transform="matrix(3.7795276,0,0,3.7795276,49.729786,255.23756)"><g
         transform="matrix(0.396875,0,0,0.396875,14.973514,-116.57056)"
         id="layer1-6-6"
         inkscape:label="Capa 1"><g
           transform="translate(84,-4)"
           id="g5329" /></g><g
         inkscape:label="Capa 1"
         id="layer1-1"
         transform="matrix(0.26458333,0,0,0.26458333,6.5207128,-63.199052)"><g
           inkscape:label="Capa 1"
           id="layer1-5-8"
           transform="translate(14.625,-20.374999)"><path
             id="rect843-4"
             d="m -70,272.64999 h 26 c 1.108,0 2,0.892 2,2 v 26 c 0,1.108 -0.892,2 -2,2 h -26 c -1.108,0 -2,-0.892 -2,-2 v -26 c 0,-1.108 0.892,-2 2,-2 z"
             style="opacity:1;fill:#c4d3d5;fill-opacity:1;stroke:none;stroke-width:2.39314;stroke-linecap:round;stroke-linejoin:round;stroke-miterlimit:4;stroke-dasharray:none;stroke-opacity:1"
             inkscape:connector-curvature="0" /></g><g
           inkscape:label="Capa 1"
           id="layer1-5"
           transform="translate(-58.375,-32.375198)"><path
             id="rect843"
             d="m 3,283.64999 h 26 c 1.108,0 2,0.892 2,2 v 26 c 0,1.108 -0.892,2 -2,2 H 3 c -1.108,0 -2,-0.892 -2,-2 v -26 c 0,-1.108 0.892,-2 2,-2 z"
             style="opacity:1;fill:#0b50b5;fill-opacity:1;stroke:none;stroke-width:2.39314;stroke-linecap:round;stroke-linejoin:round;stroke-miterlimit:4;stroke-dasharray:none;stroke-opacity:1"
             inkscape:connector-curvature="0" /><path
             id="rect843-3"
             d="m 3,284.64999 h 26 c 0.553999,0 1,0.446 1,1 v 26 c 0,0.554 -0.446001,1 -1,1 H 3 c -0.554,0 -1,-0.446 -1,-1 v -26 c 0,-0.554 0.446,-1 1,-1 z"
             style="opacity:1;fill:url(#linearGradient2);fill-opacity:1;stroke:none;stroke-width:2.2336;stroke-linecap:round;stroke-linejoin:round;stroke-miterlimit:4;stroke-dasharray:none;stroke-opacity:1"
             inkscape:connector-curvature="0" /><g
             id="g945"
             transform="translate(1.9955523,7)"><path
               style="color:#000000;font-style:normal;font-variant:normal;font-weight:normal;font-stretch:normal;font-size:medium;line-height:normal;font-family:sans-serif;font-variant-ligatures:normal;font-variant-position:normal;font-variant-caps:normal;font-variant-numeric:normal;font-variant-alternates:normal;font-feature-settings:normal;text-indent:0;text-align:start;text-decoration:none;text-decoration-line:none;text-decoration-style:solid;text-decoration-color:#000000;letter-spacing:normal;word-spacing:normal;text-transform:none;writing-mode:lr-tb;direction:ltr;text-orientation:mixed;dominant-baseline:auto;baseline-shift:baseline;text-anchor:start;white-space:normal;shape-padding:0;clip-rule:nonzero;display:inline;overflow:visible;visibility:visible;opacity:1;isolation:auto;mix-blend-mode:normal;color-interpolation:sRGB;color-interpolation-filters:linearRGB;solid-color:#000000;solid-opacity:1;vector-effect:none;fill:#acb8c3;fill-opacity:1;fill-rule:nonzero;stroke:none;stroke-width:2;stroke-linecap:round;stroke-linejoin:round;stroke-miterlimit:4;stroke-dasharray:none;stroke-dashoffset:0;stroke-opacity:1;color-rendering:auto;image-rendering:auto;shape-rendering:auto;text-rendering:auto;enable-background:accumulate"
               d="m 14,276.65039 c -0.359182,-2.9e-4 -0.690936,0.19205 -0.869141,0.50391 -2.566043,4.50533 -3.075855,9.05874 -3.126953,13.5 -6e-6,0.002 -6e-6,0.004 0,0.006 -0.0032,0.517 0.139316,1.09494 0.564453,1.49414 0.425137,0.39919 0.965142,0.49609 1.431641,0.49609 h 3 c 0,0 -0.0011,2.51784 0.125,5.41797 0.126093,2.90013 0.320373,6.08221 0.925781,7.89844 0.136314,0.40838 0.518687,0.6837 0.949219,0.68345 h 10 c 1.090703,0 2,-0.9093 2,-2 v -26 c 0,-1.0907 -0.909297,-2 -2,-2 z"
               id="rect843-3-5-1"
               inkscape:connector-curvature="0"
               sodipodi:nodetypes="cccccsccccssssc" /><path
               inkscape:connector-curvature="0"
               style="opacity:1;fill:url(#linearGradient4);fill-opacity:1;stroke:none;stroke-width:2.2336;stroke-linecap:round;stroke-linejoin:round;stroke-miterlimit:4;stroke-dasharray:none;stroke-opacity:1"
               d="m 14,277.64999 h 13 c 0.554,0 1,0.446 1,1 v 26 c 0,0.554 -0.446001,1 -1,1 H 17 c -1,-3 -1,-13 -1,-13 0,-0.57915 -0.372805,-1 -1,-1 h -3 c -0.658458,0 -1,-0.27116 -0.995518,-0.98432 0.05032,-4.37364 0.543893,-8.71124 2.995518,-13.01568 z"
               id="rect843-3-5"
               sodipodi:nodetypes="csssscccccc" /></g><path
             style="color:#000000;font-style:normal;font-variant:normal;font-weight:normal;font-stretch:normal;font-size:medium;line-height:normal;font-family:sans-serif;font-variant-ligatures:normal;font-variant-position:normal;font-variant-caps:normal;font-variant-numeric:normal;font-variant-alternates:normal;font-feature-settings:normal;text-indent:0;text-align:start;text-decoration:none;text-decoration-line:none;text-decoration-style:solid;text-decoration-color:#000000;letter-spacing:normal;word-spacing:normal;text-transform:none;writing-mode:lr-tb;direction:ltr;text-orientation:mixed;dominant-baseline:auto;baseline-shift:baseline;text-anchor:start;white-space:normal;shape-padding:0;clip-rule:nonzero;display:inline;overflow:visible;visibility:visible;opacity:1;isolation:auto;mix-blend-mode:normal;color-interpolation:sRGB;color-interpolation-filters:linearRGB;solid-color:#000000;solid-opacity:1;vector-effect:none;fill:#293949;fill-opacity:1;fill-rule:nonzero;stroke:none;stroke-width:1.0263;stroke-linecap:round;stroke-linejoin:round;stroke-miterlimit:4;stroke-dasharray:none;stroke-dashoffset:0;stroke-opacity:1;color-rendering:auto;image-rendering:auto;shape-rendering:auto;text-rendering:auto;enable-background:accumulate"
             d="M 8.984375,291.6246 C 8.4328588,291.63322 7.9924473,292.08674 8,292.63827 v 2 c -0.019125,1.35232 2.019125,1.35232 2,0 v -2 c 0.0077,-0.56377 -0.451871,-1.02248 -1.015625,-1.01367 z m 14,0 c -0.551516,0.009 -0.991928,0.46214 -0.984375,1.01367 v 2 c -0.01912,1.35232 2.019125,1.35232 2,0 v -2 c 0.0077,-0.56377 -0.451871,-1.02248 -1.015625,-1.01367 z m 2.5,11.00195 c -0.179522,10e-4 -0.345432,0.0959 -0.4375,0.25 -1.596339,2.42647 -5.305956,3.74593 -9.058594,3.7461 -3.752637,1.7e-4 -7.4545389,-1.32012 -9.0410154,-3.7461 -0.093805,-0.14786 -0.2565307,-0.2377 -0.4316406,-0.23828 -0.4126979,-0.002 -0.6590075,0.45897 -0.4277344,0.80078 1.8831257,2.8796 5.9132774,4.21112 9.9003904,4.21094 3.987114,-1.8e-4 8.022821,-1.33324 9.916016,-4.21094 0.244599,-0.34067 -5.39e-4,-0.81499 -0.419922,-0.8125 z"
             id="path966"
             inkscape:connector-curvature="0"
             sodipodi:nodetypes="ccccccccccccccscccscc" /></g></g></g></g></svg>
