<?xml version="1.0" encoding="UTF-8" standalone="no"?>
<!-- Created with Inkscape (http://www.inkscape.org/) -->

<svg
   width="64"
   height="64"
   viewBox="0 0 16.933333 16.933333"
   version="1.1"
   id="svg1399"
   inkscape:version="1.3.2 (091e20ef0f, 2023-11-25, custom)"
   sodipodi:docname="application-x-kdenlivetitle.svg"
   xml:space="preserve"
   xmlns:inkscape="http://www.inkscape.org/namespaces/inkscape"
   xmlns:sodipodi="http://sodipodi.sourceforge.net/DTD/sodipodi-0.dtd"
   xmlns:xlink="http://www.w3.org/1999/xlink"
   xmlns="http://www.w3.org/2000/svg"
   xmlns:svg="http://www.w3.org/2000/svg"
   xmlns:rdf="http://www.w3.org/1999/02/22-rdf-syntax-ns#"
   xmlns:cc="http://creativecommons.org/ns#"
   xmlns:dc="http://purl.org/dc/elements/1.1/"><defs
     id="defs1393"><linearGradient
       inkscape:collect="always"
       xlink:href="#linearGradient4565"
       id="linearGradient5316"
       gradientUnits="userSpaceOnUse"
       gradientTransform="matrix(0.37282192,0,0,0.35790872,1.66555,177.60981)"
       x1="19.067223"
       y1="326.40991"
       x2="19.567955"
       y2="292.35797" /><linearGradient
       inkscape:collect="always"
       id="linearGradient4565"><stop
         style="stop-color:#1780f2;stop-opacity:1"
         offset="0"
         id="stop4561" /><stop
         style="stop-color:#02b3fe;stop-opacity:1"
         offset="1"
         id="stop4563" /></linearGradient><linearGradient
       gradientUnits="userSpaceOnUse"
       y2="252.64999"
       x2="88"
       y1="306.64999"
       x1="88"
       id="linearGradient1149"
       xlink:href="#linearGradient983"
       inkscape:collect="always"
       gradientTransform="matrix(0.26458333,0,0,0.26458333,-14.2875,214.27808)" /><linearGradient
       id="linearGradient983"
       inkscape:collect="always"><stop
         id="stop979"
         offset="0"
         style="stop-color:#06111c;stop-opacity:1" /><stop
         id="stop981"
         offset="1"
         style="stop-color:#15272f;stop-opacity:1" /></linearGradient></defs><sodipodi:namedview
     id="base"
     pagecolor="#ffffff"
     bordercolor="#666666"
     borderopacity="1.0"
     inkscape:pageopacity="0.0"
     inkscape:pageshadow="2"
     inkscape:zoom="11.2"
     inkscape:cx="41.026786"
     inkscape:cy="18.75"
     inkscape:document-units="px"
     inkscape:current-layer="layer1"
     showgrid="false"
     inkscape:showpageshadow="false"
     units="px"
     inkscape:window-width="2560"
     inkscape:window-height="1356"
     inkscape:window-x="0"
     inkscape:window-y="0"
     inkscape:window-maximized="1"
     inkscape:pagecheckerboard="0"
     inkscape:deskcolor="#d1d1d1" /><metadata
     id="metadata1396"><rdf:RDF><cc:Work
         rdf:about=""><dc:format>image/svg+xml</dc:format><dc:type
           rdf:resource="http://purl.org/dc/dcmitype/StillImage" /></cc:Work></rdf:RDF></metadata><g
     inkscape:label="Capa 1"
     inkscape:groupmode="layer"
     id="layer1"
     transform="translate(0,-280.06672)"><path
       inkscape:connector-curvature="0"
       id="rect971"
       d="m 2.3812501,280.33131 c -0.5863166,0 -1.0583333,0.47201 -1.0583333,1.05833 v 3.70417 1.05833 9.525 c 0,0.58632 0.4720167,1.05833 1.0583333,1.05833 H 14.552083 c 0.586317,0 1.058334,-0.47201 1.058334,-1.05833 v -9.525 -1.05833 -0.26459 -3.43958 c 0,-0.58632 -0.472017,-1.05833 -1.058334,-1.05833 z"
       style="vector-effect:none;fill:#00050a;fill-opacity:1;stroke:none;stroke-width:0.529167;stroke-linecap:round;stroke-linejoin:round;stroke-miterlimit:4;stroke-dasharray:none;stroke-dashoffset:0;stroke-opacity:1" /><path
       inkscape:connector-curvature="0"
       id="rect971-2"
       d="m 2.3812501,280.59589 c -0.4397374,0 -0.7937499,0.35401 -0.7937499,0.79375 v 3.175 0.52917 0.79375 9.78958 c 0,0.43974 0.3540125,0.79375 0.7937499,0.79375 H 14.552083 c 0.439738,0 0.79375,-0.35401 0.79375,-0.79375 v -9.78958 -0.79375 -0.52917 -3.175 c 0,-0.43974 -0.354012,-0.79375 -0.79375,-0.79375 z"
       style="vector-effect:none;fill:url(#linearGradient1149);fill-opacity:1;stroke:none;stroke-width:0.529167;stroke-linecap:round;stroke-linejoin:round;stroke-miterlimit:4;stroke-dasharray:none;stroke-dashoffset:0;stroke-opacity:1" /><rect
       ry="0.76199919"
       y="282.18338"
       x="4.2333331"
       height="12.7"
       width="8.4666662"
       id="rect5281"
       style="vector-effect:none;fill:url(#linearGradient5316);fill-opacity:1;stroke:none;stroke-width:0.329937;stroke-linecap:round;stroke-linejoin:round;stroke-miterlimit:4;stroke-dasharray:none;stroke-dashoffset:0;stroke-opacity:1;paint-order:normal" /><path
       id="rect5338-5"
       d="m 2.645833,282.44797 c -0.14658,0 -0.264583,0.118 -0.264583,0.26458 v 1.32292 c 0,0.14658 0.118003,0.26458 0.264583,0.26458 H 3.175 c 0.146581,0 0.264583,-0.118 0.264583,-0.26458 v -1.32292 c 0,-0.14658 -0.118002,-0.26458 -0.264583,-0.26458 z m 11.1125,0 c -0.14658,0 -0.264583,0.118 -0.264583,0.26458 v 1.32292 c 0,0.14658 0.118003,0.26458 0.264583,0.26458 H 14.2875 c 0.14658,0 0.264583,-0.118 0.264583,-0.26458 v -1.32292 c 0,-0.14658 -0.118003,-0.26458 -0.264583,-0.26458 z m -11.1125,2.64583 c -0.14658,0 -0.264583,0.11801 -0.264583,0.26459 v 1.32291 c 0,0.14658 0.118003,0.26459 0.264583,0.26459 H 3.175 c 0.146581,0 0.264583,-0.11801 0.264583,-0.26459 v -1.32291 c 0,-0.14658 -0.118002,-0.26459 -0.264583,-0.26459 z m 11.1125,0 c -0.14658,0 -0.264583,0.11801 -0.264583,0.26459 v 1.32291 c 0,0.14658 0.118003,0.26459 0.264583,0.26459 H 14.2875 c 0.14658,0 0.264583,-0.11801 0.264583,-0.26459 v -1.32291 c 0,-0.14658 -0.118003,-0.26459 -0.264583,-0.26459 z m -11.1125,2.64584 c -0.14658,0 -0.264583,0.118 -0.264583,0.26458 v 1.32292 c 0,0.14659 0.118003,0.26458 0.264583,0.26458 H 3.175 c 0.146581,0 0.264583,-0.11799 0.264583,-0.26458 v -1.32292 c 0,-0.14658 -0.118002,-0.26458 -0.264583,-0.26458 z m 11.1125,0 c -0.14658,0 -0.264583,0.118 -0.264583,0.26458 v 1.32292 c 0,0.14659 0.118003,0.26458 0.264583,0.26458 H 14.2875 c 0.14658,0 0.264583,-0.11799 0.264583,-0.26458 v -1.32292 c 0,-0.14658 -0.118003,-0.26458 -0.264583,-0.26458 z m -11.1125,2.64583 c -0.14658,0 -0.264583,0.118 -0.264583,0.26458 v 1.32292 c 0,0.14658 0.118003,0.26458 0.264583,0.26458 H 3.175 c 0.146581,0 0.264583,-0.118 0.264583,-0.26458 v -1.32292 c 0,-0.14658 -0.118002,-0.26458 -0.264583,-0.26458 z m 11.1125,0 c -0.14658,0 -0.264583,0.118 -0.264583,0.26458 v 1.32292 c 0,0.14658 0.118003,0.26458 0.264583,0.26458 H 14.2875 c 0.14658,0 0.264583,-0.118 0.264583,-0.26458 v -1.32292 c 0,-0.14658 -0.118003,-0.26458 -0.264583,-0.26458 z m -11.1125,2.64583 c -0.14658,0 -0.264583,0.11801 -0.264583,0.26459 v 1.32291 c 0,0.14658 0.118003,0.26459 0.264583,0.26459 H 3.175 c 0.146581,0 0.264583,-0.11801 0.264583,-0.26459 v -1.32291 c 0,-0.14658 -0.118002,-0.26459 -0.264583,-0.26459 z m 11.1125,0 c -0.14658,0 -0.264583,0.11801 -0.264583,0.26459 v 1.32291 c 0,0.14658 0.118003,0.26459 0.264583,0.26459 H 14.2875 c 0.14658,0 0.264583,-0.11801 0.264583,-0.26459 v -1.32291 c 0,-0.14658 -0.118003,-0.26459 -0.264583,-0.26459 z"
       style="vector-effect:none;fill:#02070c;fill-opacity:1;stroke:none;stroke-width:0.529167;stroke-linecap:round;stroke-linejoin:round;stroke-miterlimit:4;stroke-dasharray:none;stroke-dashoffset:0;stroke-opacity:1;paint-order:normal"
       inkscape:connector-curvature="0" /><path
       id="rect5338"
       d="m 2.645833,282.18339 c -0.14658,0 -0.264583,0.118 -0.264583,0.26458 v 1.32292 c 0,0.14658 0.118003,0.26458 0.264583,0.26458 H 3.175 c 0.146581,0 0.264583,-0.118 0.264583,-0.26458 v -1.32292 c 0,-0.14658 -0.118002,-0.26458 -0.264583,-0.26458 z m 11.1125,0 c -0.14658,0 -0.264583,0.118 -0.264583,0.26458 v 1.32292 c 0,0.14658 0.118003,0.26458 0.264583,0.26458 H 14.2875 c 0.14658,0 0.264583,-0.118 0.264583,-0.26458 v -1.32292 c 0,-0.14658 -0.118003,-0.26458 -0.264583,-0.26458 z m -11.1125,2.64583 c -0.14658,0 -0.264583,0.118 -0.264583,0.26458 v 1.32292 c 0,0.14658 0.118003,0.26458 0.264583,0.26458 H 3.175 c 0.146581,0 0.264583,-0.118 0.264583,-0.26458 v -1.32292 c 0,-0.14658 -0.118002,-0.26458 -0.264583,-0.26458 z m 11.1125,0 c -0.14658,0 -0.264583,0.118 -0.264583,0.26458 v 1.32292 c 0,0.14658 0.118003,0.26458 0.264583,0.26458 H 14.2875 c 0.14658,0 0.264583,-0.118 0.264583,-0.26458 v -1.32292 c 0,-0.14658 -0.118003,-0.26458 -0.264583,-0.26458 z m -11.1125,2.64583 c -0.14658,0 -0.264583,0.11801 -0.264583,0.26459 v 1.32291 c 0,0.14659 0.118003,0.26459 0.264583,0.26459 H 3.175 c 0.146581,0 0.264583,-0.118 0.264583,-0.26459 v -1.32291 c 0,-0.14658 -0.118002,-0.26459 -0.264583,-0.26459 z m 11.1125,0 c -0.14658,0 -0.264583,0.11801 -0.264583,0.26459 v 1.32291 c 0,0.14659 0.118003,0.26459 0.264583,0.26459 H 14.2875 c 0.14658,0 0.264583,-0.118 0.264583,-0.26459 v -1.32291 c 0,-0.14658 -0.118003,-0.26459 -0.264583,-0.26459 z m -11.1125,2.64584 c -0.14658,0 -0.264583,0.118 -0.264583,0.26458 v 1.32292 c 0,0.14658 0.118003,0.26458 0.264583,0.26458 H 3.175 c 0.146581,0 0.264583,-0.118 0.264583,-0.26458 v -1.32292 c 0,-0.14658 -0.118002,-0.26458 -0.264583,-0.26458 z m 11.1125,0 c -0.14658,0 -0.264583,0.118 -0.264583,0.26458 v 1.32292 c 0,0.14658 0.118003,0.26458 0.264583,0.26458 H 14.2875 c 0.14658,0 0.264583,-0.118 0.264583,-0.26458 v -1.32292 c 0,-0.14658 -0.118003,-0.26458 -0.264583,-0.26458 z m -11.1125,2.64583 c -0.14658,0 -0.264583,0.118 -0.264583,0.26458 v 1.32292 c 0,0.14658 0.118003,0.26458 0.264583,0.26458 H 3.175 c 0.146581,0 0.264583,-0.118 0.264583,-0.26458 v -1.32292 c 0,-0.14658 -0.118002,-0.26458 -0.264583,-0.26458 z m 11.1125,0 c -0.14658,0 -0.264583,0.118 -0.264583,0.26458 v 1.32292 c 0,0.14658 0.118003,0.26458 0.264583,0.26458 H 14.2875 c 0.14658,0 0.264583,-0.118 0.264583,-0.26458 v -1.32292 c 0,-0.14658 -0.118003,-0.26458 -0.264583,-0.26458 z"
       style="vector-effect:none;fill:#f1f2f3;fill-opacity:1;stroke:none;stroke-width:0.529167;stroke-linecap:round;stroke-linejoin:round;stroke-miterlimit:4;stroke-dasharray:none;stroke-dashoffset:0;stroke-opacity:1;paint-order:normal"
       inkscape:connector-curvature="0" /><path
       id="rect5971-3"
       style="fill:#ffffff;fill-opacity:0.271686;stroke-width:0.423333;stroke-linecap:round;stroke-linejoin:round;stroke-miterlimit:1.8;paint-order:stroke fill markers;stop-color:#000000"
       d="m 5.0270827,282.18355 c -0.439736,0 -0.79375,0.35401 -0.79375,0.79375 v 0.26458 h 0.04496 1.013375 v -1.01338 -0.045 z m 0.264583,1.05833 v 1.05833 h 1.058334 v -1.05833 z m 1.058334,0 h 1.058333 v -1.05833 h -1.058333 z m 1.058333,0 v 1.05833 h 1.058333 v -1.05833 z m 1.058333,0 h 1.058334 v -1.05833 h -1.058334 z m 1.058334,0 v 1.05833 h 1.0583323 v -1.05833 z m 1.0583323,0 h 1.058333 v -1.05833 h -1.058333 z m 1.058333,0 v 1.05833 h 1.058334 v -1.05833 z m -6.3499993,11.64167 h 1.058334 v -1.05834 h -1.058334 z m 0,-1.05834 v -1.05833 h -1.058333 v 1.05833 z m 0,-1.05833 h 1.058334 v -1.05833 h -1.058334 z m 0,-1.05833 v -1.05834 h -1.058333 v 1.05834 z m 0,-1.05834 h 1.058334 v -1.05833 h -1.058334 z m 0,-1.05833 v -1.05833 h -1.058333 v 1.05833 z m 0,-1.05833 h 1.058334 v -1.05834 h -1.058334 z m 0,-1.05834 v -1.05833 h -1.058333 v 1.05833 z m 0,-1.05833 h 1.058334 v -1.05833 h -1.058334 z m 0,-1.05833 v -1.05834 h -1.058333 v 1.05834 z m 1.058334,0 h 1.058333 v -1.05834 h -1.058333 z m 1.058333,0 v 1.05833 h 1.058333 v -1.05833 z m 1.058333,0 h 1.058334 v -1.05834 h -1.058334 z m 1.058334,0 v 1.05833 h 1.0583323 v -1.05833 z m 1.0583323,0 h 1.058333 v -1.05834 h -1.058333 z m 1.058333,0 v 1.05833 h 1.058334 v -1.05833 z m 1.058335,8.7312 -10e-7,-0.26454 h -1.058334 v 1.05834 l 0.264585,-5e-5 c 0,0 0.79375,0 0.79375,-0.79375 z m -2.116668,0.7938 v -1.05834 H 9.5249997 v 1.05834 z m -2.1166663,0 v -1.05834 h -1.058333 v 1.05834 z m -1.058333,-1.05834 v -1.05833 h -1.058333 v 1.05833 z m 0,-1.05833 h 1.058333 v -1.05833 h -1.058333 z m 0,-1.05833 v -1.05834 h -1.058333 v 1.05834 z m 0,-1.05834 h 1.058333 v -1.05833 h -1.058333 z m 0,-1.05833 v -1.05833 h -1.058333 v 1.05833 z m 0,-1.05833 h 1.058333 v -1.05834 h -1.058333 z m 0,-1.05834 v -1.05833 h -1.058333 v 1.05833 z m 1.058333,0 h 1.058334 v -1.05833 h -1.058334 z m 1.058334,0 v 1.05834 h 1.0583323 v -1.05834 z m 1.0583323,0 h 1.058333 v -1.05833 h -1.058333 z m 1.058333,0 v 1.05834 h 1.058334 v -1.05834 z m 1.058334,2.11667 h -1.058334 v 1.05833 h 1.058334 z m 0,2.11667 h -1.058334 v 1.05833 h 1.058334 z m -1.058334,1.05833 h -1.058333 v 1.05833 h 1.058333 z m -1.058333,0 v -1.05833 H 9.5249997 v 1.05833 z m -1.0583323,0 h -1.058334 v 1.05833 h 1.058334 z m 0,-1.05833 v -1.05834 h -1.058334 v 1.05834 z m 0,-1.05834 h 1.0583323 v -1.05833 H 9.5249997 Z m 0,-1.05833 v -1.05833 h -1.058334 v 1.05833 z m 1.0583323,0 h 1.058333 v -1.05833 h -1.058333 z m 0,1.05833 v 1.05834 h 1.058333 v -1.05834 z"
       sodipodi:nodetypes="cscccccccccccccccccccccccccccccccccccccccccccccccccccccccccccccccccccccccccccccccccccccccccccccccccccccccccccccccccccccccccccccccccccccccccccccccccccccccccccccccccccccccccccccccccccccccccccccccccccccccccccccccccccccccccccccccccccccccccccccccccc" /><path
       sodipodi:nodetypes="ccccccccc"
       inkscape:connector-curvature="0"
       id="path5463-6"
       d="m 6.6145834,285.88753 c -0.1438799,0.003 -0.2592787,0.11977 -0.2597656,0.26367 v 5.29297 c 0.00177,0.20966 0.2350567,0.33409 0.4101563,0.21875 l 3.9687479,-2.64453 c 0.158185,-0.10462 0.158185,-0.33679 0,-0.44141 l -3.9687479,-2.64453 c -0.044436,-0.0298 -0.096873,-0.0455 -0.1503907,-0.0449 z"
       style="color:#000000;font-style:normal;font-variant:normal;font-weight:normal;font-stretch:normal;font-size:medium;line-height:normal;font-family:sans-serif;font-variant-ligatures:normal;font-variant-position:normal;font-variant-caps:normal;font-variant-numeric:normal;font-variant-alternates:normal;font-feature-settings:normal;text-indent:0;text-align:start;text-decoration:none;text-decoration-line:none;text-decoration-style:solid;text-decoration-color:#000000;letter-spacing:normal;word-spacing:normal;text-transform:none;writing-mode:lr-tb;direction:ltr;text-orientation:mixed;dominant-baseline:auto;baseline-shift:baseline;text-anchor:start;white-space:normal;shape-padding:0;clip-rule:nonzero;display:inline;overflow:visible;visibility:visible;isolation:auto;mix-blend-mode:normal;color-interpolation:sRGB;color-interpolation-filters:linearRGB;solid-color:#000000;solid-opacity:1;vector-effect:none;fill:#0f49bf;fill-opacity:1;fill-rule:nonzero;stroke:none;stroke-width:0.529167;stroke-linecap:round;stroke-linejoin:round;stroke-miterlimit:4;stroke-dasharray:none;stroke-dashoffset:0;stroke-opacity:1;color-rendering:auto;image-rendering:auto;shape-rendering:auto;text-rendering:auto;enable-background:accumulate" /><path
       sodipodi:nodetypes="ccccccccc"
       inkscape:connector-curvature="0"
       id="path5463"
       d="m 6.6097658,285.62366 c -0.1438799,0.003 -0.2592787,0.11977 -0.2597658,0.26367 v 5.29297 c 0.00177,0.20966 0.2350567,0.33409 0.4101563,0.21875 l 3.9687487,-2.64453 c 0.158185,-0.10462 0.158185,-0.33679 0,-0.44141 l -3.9687487,-2.64453 c -0.044436,-0.0298 -0.096873,-0.0455 -0.1503905,-0.0449 z"
       style="color:#000000;font-style:normal;font-variant:normal;font-weight:normal;font-stretch:normal;font-size:medium;line-height:normal;font-family:sans-serif;font-variant-ligatures:normal;font-variant-position:normal;font-variant-caps:normal;font-variant-numeric:normal;font-variant-alternates:normal;font-feature-settings:normal;text-indent:0;text-align:start;text-decoration:none;text-decoration-line:none;text-decoration-style:solid;text-decoration-color:#000000;letter-spacing:normal;word-spacing:normal;text-transform:none;writing-mode:lr-tb;direction:ltr;text-orientation:mixed;dominant-baseline:auto;baseline-shift:baseline;text-anchor:start;white-space:normal;shape-padding:0;clip-rule:nonzero;display:inline;overflow:visible;visibility:visible;isolation:auto;mix-blend-mode:normal;color-interpolation:sRGB;color-interpolation-filters:linearRGB;solid-color:#000000;solid-opacity:1;vector-effect:none;fill:#ffffff;fill-opacity:1;fill-rule:nonzero;stroke:none;stroke-width:0.529167;stroke-linecap:round;stroke-linejoin:round;stroke-miterlimit:4;stroke-dasharray:none;stroke-dashoffset:0;stroke-opacity:1;color-rendering:auto;image-rendering:auto;shape-rendering:auto;text-rendering:auto;enable-background:accumulate" /></g></svg>
