<?xml version="1.0" encoding="UTF-8" standalone="no"?>
<!-- Created with Inkscape (http://www.inkscape.org/) -->

<svg
   width="64"
   height="64"
   viewBox="0 0 16.933333 16.933333"
   version="1.1"
   id="svg5"
   inkscape:version="1.3.2 (091e20ef0f, 2023-11-25, custom)"
   sodipodi:docname="application-x-theme.svg"
   xml:space="preserve"
   xmlns:inkscape="http://www.inkscape.org/namespaces/inkscape"
   xmlns:sodipodi="http://sodipodi.sourceforge.net/DTD/sodipodi-0.dtd"
   xmlns:xlink="http://www.w3.org/1999/xlink"
   xmlns="http://www.w3.org/2000/svg"
   xmlns:svg="http://www.w3.org/2000/svg"><sodipodi:namedview
     id="namedview7"
     pagecolor="#ffffff"
     bordercolor="#000000"
     borderopacity="0.25"
     inkscape:showpageshadow="false"
     inkscape:pageopacity="0.0"
     inkscape:pagecheckerboard="0"
     inkscape:deskcolor="#d1d1d1"
     inkscape:document-units="px"
     showgrid="true"
     inkscape:zoom="10.24"
     inkscape:cx="65.966796"
     inkscape:cy="37.304687"
     inkscape:window-width="2560"
     inkscape:window-height="1356"
     inkscape:window-x="0"
     inkscape:window-y="0"
     inkscape:window-maximized="1"
     inkscape:current-layer="g4367"><inkscape:grid
       type="xygrid"
       id="grid290"
       originx="0"
       originy="0"
       spacingy="1"
       spacingx="1"
       units="px"
       visible="true" /></sodipodi:namedview><defs
     id="defs2"><linearGradient
       id="linearGradient3"
       inkscape:collect="always"><stop
         style="stop-color:#d6dbdb;stop-opacity:1;"
         offset="0"
         id="stop3" /><stop
         style="stop-color:#d6dbdb;stop-opacity:1;"
         offset="1"
         id="stop4" /></linearGradient><linearGradient
       id="linearGradient1"
       inkscape:collect="always"><stop
         style="stop-color:#1c9cf5;stop-opacity:1;"
         offset="0"
         id="stop1" /><stop
         style="stop-color:#1fb4f9;stop-opacity:1;"
         offset="1"
         id="stop2" /></linearGradient><style
       id="current-color-scheme"
       type="text/css">
      .ColorScheme-Text {
        color:#122036;
      }
      </style><style
       id="current-color-scheme-2"
       type="text/css">
      .ColorScheme-Text {
        color:#122036;
      }
      </style><style
       id="current-color-scheme-0"
       type="text/css">
      .ColorScheme-Text {
        color:#122036;
      }
      </style><style
       id="current-color-scheme-6"
       type="text/css">
      .ColorScheme-Text {
        color:#122036;
      }
      </style><style
       id="current-color-scheme-2-7"
       type="text/css">
      .ColorScheme-Text {
        color:#122036;
      }
      </style><style
       id="current-color-scheme-0-5"
       type="text/css">
      .ColorScheme-Text {
        color:#122036;
      }
      </style><linearGradient
       inkscape:collect="always"
       xlink:href="#linearGradient1"
       id="linearGradient2"
       x1="9.260416"
       y1="15.610417"
       x2="9.260416"
       y2="-0.26458317"
       gradientUnits="userSpaceOnUse" /><linearGradient
       inkscape:collect="always"
       xlink:href="#linearGradient3"
       id="linearGradient4"
       x1="15.610416"
       y1="15.610417"
       x2="16.007292"
       y2="-0.26458317"
       gradientUnits="userSpaceOnUse" /></defs><g
     inkscape:label="Capa 1"
     inkscape:groupmode="layer"
     id="layer1"><g
       id="g4367"
       transform="translate(-7.4083332,-0.26458347)"><g
         id="g6756"
         transform="translate(2.9104166,1.0583333)"><path
           id="rect971"
           style="fill:#90a4ae;fill-opacity:1;stroke:none;stroke-width:0.529167;stroke-linecap:round;stroke-linejoin:round;stroke-miterlimit:4;stroke-dasharray:none;stroke-dashoffset:0;stroke-opacity:1"
           d="M 12.964583 -0.5291665 L 12.964583 15.875 L 19.05 15.875 C 19.636315 15.875 20.108333 15.402983 20.108333 14.816667 L 20.108333 0.52916681 C 20.108333 -0.057149263 19.636315 -0.5291665 19.05 -0.5291665 L 12.964583 -0.5291665 z " /><path
           id="path2119"
           style="fill:#1568b4;fill-opacity:1;stroke:none;stroke-width:0.529167;stroke-linecap:round;stroke-linejoin:round;stroke-miterlimit:4;stroke-dasharray:none;stroke-dashoffset:0;stroke-opacity:1"
           d="M 6.8791666 -0.5291665 C 6.2928504 -0.5291665 5.8208332 -0.057149263 5.8208332 0.52916681 L 5.8208332 14.816667 C 5.8208332 15.402983 6.2928504 15.875 6.8791666 15.875 L 12.964583 15.875 L 12.964583 -0.5291665 L 6.8791666 -0.5291665 z " /><path
           id="rect971-2"
           style="fill:url(#linearGradient2);fill-opacity:1;stroke:none;stroke-width:0.529167;stroke-linecap:round;stroke-linejoin:round;stroke-miterlimit:4;stroke-dasharray:none;stroke-dashoffset:0;stroke-opacity:1"
           d="M 12.964583 -0.26458317 L 6.8791666 -0.26458317 C 6.4394295 -0.26458317 6.0854166 0.08942975 6.0854166 0.52916681 L 6.0854166 14.816667 C 6.0854166 15.256404 6.4394295 15.610417 6.8791666 15.610417 L 12.964583 15.610417 L 12.964583 -0.26458317 z " /><path
           id="path2135"
           style="fill:url(#linearGradient4);fill-opacity:1;stroke:none;stroke-width:0.529167;stroke-linecap:round;stroke-linejoin:round;stroke-miterlimit:4;stroke-dasharray:none;stroke-dashoffset:0;stroke-opacity:1"
           d="M 12.964583 -0.26458317 L 12.964583 15.610417 L 19.05 15.610417 C 19.489736 15.610417 19.84375 15.256404 19.84375 14.816667 L 19.84375 0.52916681 C 19.84375 0.08942975 19.489736 -0.26458317 19.05 -0.26458317 L 12.964583 -0.26458317 z " /><path
           id="rect5971-3"
           style="fill:#fafafa;fill-opacity:1;stroke-width:0.423333;stroke-linecap:round;stroke-linejoin:round;stroke-miterlimit:1.8;paint-order:stroke fill markers;stop-color:#000000"
           d="M 12.964583 -0.26458317 L 12.964583 0.79375014 L 13.49375 0.79375014 L 13.49375 -0.26458317 L 12.964583 -0.26458317 z M 13.49375 0.79375014 L 13.49375 1.8520835 L 14.552083 1.8520835 L 14.552083 0.79375014 L 13.49375 0.79375014 z M 14.552083 0.79375014 L 15.610416 0.79375014 L 15.610416 -0.26458317 L 14.552083 -0.26458317 L 14.552083 0.79375014 z M 15.610416 0.79375014 L 15.610416 1.8520835 L 16.66875 1.8520835 L 16.66875 0.79375014 L 15.610416 0.79375014 z M 16.66875 0.79375014 L 17.727083 0.79375014 L 17.727083 -0.26458317 L 16.66875 -0.26458317 L 16.66875 0.79375014 z M 17.727083 0.79375014 L 17.727083 1.8520835 L 18.785416 1.8520835 L 18.785416 0.79375014 L 17.727083 0.79375014 z M 18.785416 0.79375014 L 19.798791 0.79375014 L 19.84375 0.79375014 L 19.84375 0.52916681 C 19.84375 0.08943063 19.489733 -0.26458317 19.05 -0.26458317 L 18.785416 -0.26458317 L 18.785416 -0.21962468 L 18.785416 0.79375014 z M 18.785416 1.8520835 L 18.785416 2.9104168 L 19.84375 2.9104168 L 19.84375 1.8520835 L 18.785416 1.8520835 z M 18.785416 2.9104168 L 17.727083 2.9104168 L 17.727083 3.9687501 L 18.785416 3.9687501 L 18.785416 2.9104168 z M 18.785416 3.9687501 L 18.785416 5.0270834 L 19.84375 5.0270834 L 19.84375 3.9687501 L 18.785416 3.9687501 z M 18.785416 5.0270834 L 17.727083 5.0270834 L 17.727083 6.0854167 L 18.785416 6.0854167 L 18.785416 5.0270834 z M 18.785416 6.0854167 L 18.785416 7.14375 L 19.84375 7.14375 L 19.84375 6.0854167 L 18.785416 6.0854167 z M 18.785416 7.14375 L 17.727083 7.14375 L 17.727083 8.2020833 L 18.785416 8.2020833 L 18.785416 7.14375 z M 18.785416 8.2020833 L 18.785416 9.2604166 L 19.84375 9.2604166 L 19.84375 8.2020833 L 18.785416 8.2020833 z M 18.785416 9.2604166 L 17.727083 9.2604166 L 17.727083 10.31875 L 18.785416 10.31875 L 18.785416 9.2604166 z M 18.785416 10.31875 L 18.785416 11.377083 L 19.84375 11.377083 L 19.84375 10.31875 L 18.785416 10.31875 z M 18.785416 11.377083 L 17.727083 11.377083 L 17.727083 12.435417 L 18.785416 12.435417 L 18.785416 11.377083 z M 18.785416 12.435417 L 18.785416 13.49375 L 19.84375 13.49375 L 19.84375 12.435417 L 18.785416 12.435417 z M 18.785416 13.49375 L 17.727083 13.49375 L 17.727083 14.552083 L 18.785416 14.552083 L 18.785416 13.49375 z M 18.785416 14.552083 L 18.785416 15.565458 L 18.785416 15.610417 L 19.05 15.610417 C 19.489733 15.610417 19.84375 15.256402 19.84375 14.816667 L 19.84375 14.552083 L 19.798791 14.552083 L 18.785416 14.552083 z M 17.727083 14.552083 L 16.66875 14.552083 L 16.66875 15.610417 L 17.727083 15.610417 L 17.727083 14.552083 z M 16.66875 14.552083 L 16.66875 13.49375 L 15.610416 13.49375 L 15.610416 14.552083 L 16.66875 14.552083 z M 15.610416 14.552083 L 14.552083 14.552083 L 14.552083 15.610417 L 15.610416 15.610417 L 15.610416 14.552083 z M 14.552083 14.552083 L 14.552083 13.49375 L 13.49375 13.49375 L 13.49375 14.552083 L 14.552083 14.552083 z M 13.49375 14.552083 L 12.964583 14.552083 L 12.964583 15.610417 L 13.49375 15.610417 L 13.49375 14.552083 z M 13.49375 13.49375 L 13.49375 12.435417 L 12.964583 12.435417 L 12.964583 13.49375 L 13.49375 13.49375 z M 13.49375 12.435417 L 14.552083 12.435417 L 14.552083 11.377083 L 13.49375 11.377083 L 13.49375 12.435417 z M 13.49375 11.377083 L 13.49375 10.31875 L 12.964583 10.31875 L 12.964583 11.377083 L 13.49375 11.377083 z M 13.49375 10.31875 L 14.552083 10.31875 L 14.552083 9.2604166 L 13.49375 9.2604166 L 13.49375 10.31875 z M 13.49375 9.2604166 L 13.49375 8.2020833 L 12.964583 8.2020833 L 12.964583 9.2604166 L 13.49375 9.2604166 z M 13.49375 8.2020833 L 14.552083 8.2020833 L 14.552083 7.14375 L 13.49375 7.14375 L 13.49375 8.2020833 z M 13.49375 7.14375 L 13.49375 6.0854167 L 12.964583 6.0854167 L 12.964583 7.14375 L 13.49375 7.14375 z M 13.49375 6.0854167 L 14.552083 6.0854167 L 14.552083 5.0270834 L 13.49375 5.0270834 L 13.49375 6.0854167 z M 13.49375 5.0270834 L 13.49375 3.9687501 L 12.964583 3.9687501 L 12.964583 5.0270834 L 13.49375 5.0270834 z M 13.49375 3.9687501 L 14.552083 3.9687501 L 14.552083 2.9104168 L 13.49375 2.9104168 L 13.49375 3.9687501 z M 13.49375 2.9104168 L 13.49375 1.8520835 L 12.964583 1.8520835 L 12.964583 2.9104168 L 13.49375 2.9104168 z M 14.552083 2.9104168 L 15.610416 2.9104168 L 15.610416 1.8520835 L 14.552083 1.8520835 L 14.552083 2.9104168 z M 15.610416 2.9104168 L 15.610416 3.9687501 L 16.66875 3.9687501 L 16.66875 2.9104168 L 15.610416 2.9104168 z M 16.66875 2.9104168 L 17.727083 2.9104168 L 17.727083 1.8520835 L 16.66875 1.8520835 L 16.66875 2.9104168 z M 16.66875 3.9687501 L 16.66875 5.0270834 L 17.727083 5.0270834 L 17.727083 3.9687501 L 16.66875 3.9687501 z M 16.66875 5.0270834 L 15.610416 5.0270834 L 15.610416 6.0854167 L 16.66875 6.0854167 L 16.66875 5.0270834 z M 16.66875 6.0854167 L 16.66875 7.14375 L 17.727083 7.14375 L 17.727083 6.0854167 L 16.66875 6.0854167 z M 16.66875 7.14375 L 15.610416 7.14375 L 15.610416 8.2020833 L 16.66875 8.2020833 L 16.66875 7.14375 z M 16.66875 8.2020833 L 16.66875 9.2604166 L 17.727083 9.2604166 L 17.727083 8.2020833 L 16.66875 8.2020833 z M 16.66875 9.2604166 L 15.610416 9.2604166 L 15.610416 10.31875 L 16.66875 10.31875 L 16.66875 9.2604166 z M 16.66875 10.31875 L 16.66875 11.377083 L 17.727083 11.377083 L 17.727083 10.31875 L 16.66875 10.31875 z M 16.66875 11.377083 L 15.610416 11.377083 L 15.610416 12.435417 L 16.66875 12.435417 L 16.66875 11.377083 z M 16.66875 12.435417 L 16.66875 13.49375 L 17.727083 13.49375 L 17.727083 12.435417 L 16.66875 12.435417 z M 15.610416 12.435417 L 14.552083 12.435417 L 14.552083 13.49375 L 15.610416 13.49375 L 15.610416 12.435417 z M 15.610416 11.377083 L 15.610416 10.31875 L 14.552083 10.31875 L 14.552083 11.377083 L 15.610416 11.377083 z M 15.610416 9.2604166 L 15.610416 8.2020833 L 14.552083 8.2020833 L 14.552083 9.2604166 L 15.610416 9.2604166 z M 15.610416 7.14375 L 15.610416 6.0854167 L 14.552083 6.0854167 L 14.552083 7.14375 L 15.610416 7.14375 z M 15.610416 5.0270834 L 15.610416 3.9687501 L 14.552083 3.9687501 L 14.552083 5.0270834 L 15.610416 5.0270834 z " /><path
           id="path2833"
           style="fill:#4cc3fa;fill-opacity:1;stroke-width:0.423333;stroke-linecap:round;stroke-linejoin:round;stroke-miterlimit:1.8;paint-order:stroke fill markers;stop-color:#000000"
           d="M 6.8791666 -0.26458317 C 6.4394314 -0.26458317 6.0854166 0.08943019 6.0854166 0.52916681 L 6.0854166 0.79375014 L 6.1303751 0.79375014 L 7.1437499 0.79375014 L 7.1437499 -0.21962468 L 7.1437499 -0.26458317 L 6.8791666 -0.26458317 z M 7.1437499 0.79375014 L 7.1437499 1.8520835 L 8.2020832 1.8520835 L 8.2020832 0.79375014 L 7.1437499 0.79375014 z M 8.2020832 0.79375014 L 9.2604165 0.79375014 L 9.2604165 -0.26458317 L 8.2020832 -0.26458317 L 8.2020832 0.79375014 z M 9.2604165 0.79375014 L 9.2604165 1.8520835 L 10.31875 1.8520835 L 10.31875 0.79375014 L 9.2604165 0.79375014 z M 10.31875 0.79375014 L 11.377083 0.79375014 L 11.377083 -0.26458317 L 10.31875 -0.26458317 L 10.31875 0.79375014 z M 11.377083 0.79375014 L 11.377083 1.8520835 L 12.435416 1.8520835 L 12.435416 0.79375014 L 11.377083 0.79375014 z M 12.435416 0.79375014 L 12.964583 0.79375014 L 12.964583 -0.26458317 L 12.435416 -0.26458317 L 12.435416 0.79375014 z M 12.435416 1.8520835 L 12.435416 2.9104168 L 12.964583 2.9104168 L 12.964583 1.8520835 L 12.435416 1.8520835 z M 12.435416 2.9104168 L 11.377083 2.9104168 L 11.377083 3.9687501 L 12.435416 3.9687501 L 12.435416 2.9104168 z M 12.435416 3.9687501 L 12.435416 5.0270834 L 12.964583 5.0270834 L 12.964583 3.9687501 L 12.435416 3.9687501 z M 12.435416 5.0270834 L 11.377083 5.0270834 L 11.377083 6.0854167 L 12.435416 6.0854167 L 12.435416 5.0270834 z M 12.435416 6.0854167 L 12.435416 7.14375 L 12.964583 7.14375 L 12.964583 6.0854167 L 12.435416 6.0854167 z M 12.435416 7.14375 L 11.377083 7.14375 L 11.377083 8.2020833 L 12.435416 8.2020833 L 12.435416 7.14375 z M 12.435416 8.2020833 L 12.435416 9.2604166 L 12.964583 9.2604166 L 12.964583 8.2020833 L 12.435416 8.2020833 z M 12.435416 9.2604166 L 11.377083 9.2604166 L 11.377083 10.31875 L 12.435416 10.31875 L 12.435416 9.2604166 z M 12.435416 10.31875 L 12.435416 11.377083 L 12.964583 11.377083 L 12.964583 10.31875 L 12.435416 10.31875 z M 12.435416 11.377083 L 11.377083 11.377083 L 11.377083 12.435417 L 12.435416 12.435417 L 12.435416 11.377083 z M 12.435416 12.435417 L 12.435416 13.49375 L 12.964583 13.49375 L 12.964583 12.435417 L 12.435416 12.435417 z M 12.435416 13.49375 L 11.377083 13.49375 L 11.377083 14.552083 L 12.435416 14.552083 L 12.435416 13.49375 z M 12.435416 14.552083 L 12.435416 15.610417 L 12.964583 15.610417 L 12.964583 14.552083 L 12.435416 14.552083 z M 11.377083 14.552083 L 10.31875 14.552083 L 10.31875 15.610417 L 11.377083 15.610417 L 11.377083 14.552083 z M 10.31875 14.552083 L 10.31875 13.49375 L 9.2604165 13.49375 L 9.2604165 14.552083 L 10.31875 14.552083 z M 9.2604165 14.552083 L 8.2020832 14.552083 L 8.2020832 15.610417 L 9.2604165 15.610417 L 9.2604165 14.552083 z M 8.2020832 14.552083 L 8.2020832 13.49375 L 7.1437499 13.49375 L 7.1437499 14.552083 L 8.2020832 14.552083 z M 7.1437499 14.552083 L 6.1303751 14.552083 L 6.0854166 14.552083 L 6.0854166 14.816667 C 6.0854166 15.256403 6.4394314 15.610417 6.8791666 15.610417 L 7.1437499 15.610417 L 7.1437499 15.565458 L 7.1437499 14.552083 z M 7.1437499 13.49375 L 7.1437499 12.435417 L 6.0854166 12.435417 L 6.0854166 13.49375 L 7.1437499 13.49375 z M 7.1437499 12.435417 L 8.2020832 12.435417 L 8.2020832 11.377083 L 7.1437499 11.377083 L 7.1437499 12.435417 z M 7.1437499 11.377083 L 7.1437499 10.31875 L 6.0854166 10.31875 L 6.0854166 11.377083 L 7.1437499 11.377083 z M 7.1437499 10.31875 L 8.2020832 10.31875 L 8.2020832 9.2604166 L 7.1437499 9.2604166 L 7.1437499 10.31875 z M 7.1437499 9.2604166 L 7.1437499 8.2020833 L 6.0854166 8.2020833 L 6.0854166 9.2604166 L 7.1437499 9.2604166 z M 7.1437499 8.2020833 L 8.2020832 8.2020833 L 8.2020832 7.14375 L 7.1437499 7.14375 L 7.1437499 8.2020833 z M 7.1437499 7.14375 L 7.1437499 6.0854167 L 6.0854166 6.0854167 L 6.0854166 7.14375 L 7.1437499 7.14375 z M 7.1437499 6.0854167 L 8.2020832 6.0854167 L 8.2020832 5.0270834 L 7.1437499 5.0270834 L 7.1437499 6.0854167 z M 7.1437499 5.0270834 L 7.1437499 3.9687501 L 6.0854166 3.9687501 L 6.0854166 5.0270834 L 7.1437499 5.0270834 z M 7.1437499 3.9687501 L 8.2020832 3.9687501 L 8.2020832 2.9104168 L 7.1437499 2.9104168 L 7.1437499 3.9687501 z M 7.1437499 2.9104168 L 7.1437499 1.8520835 L 6.0854166 1.8520835 L 6.0854166 2.9104168 L 7.1437499 2.9104168 z M 8.2020832 2.9104168 L 9.2604165 2.9104168 L 9.2604165 1.8520835 L 8.2020832 1.8520835 L 8.2020832 2.9104168 z M 9.2604165 2.9104168 L 9.2604165 3.9687501 L 10.31875 3.9687501 L 10.31875 2.9104168 L 9.2604165 2.9104168 z M 10.31875 2.9104168 L 11.377083 2.9104168 L 11.377083 1.8520835 L 10.31875 1.8520835 L 10.31875 2.9104168 z M 10.31875 3.9687501 L 10.31875 5.0270834 L 11.377083 5.0270834 L 11.377083 3.9687501 L 10.31875 3.9687501 z M 10.31875 5.0270834 L 9.2604165 5.0270834 L 9.2604165 6.0854167 L 10.31875 6.0854167 L 10.31875 5.0270834 z M 10.31875 6.0854167 L 10.31875 7.14375 L 11.377083 7.14375 L 11.377083 6.0854167 L 10.31875 6.0854167 z M 9.2604165 6.0854167 L 8.2020832 6.0854167 L 8.2020832 7.14375 L 9.2604165 7.14375 L 9.2604165 6.0854167 z M 9.2604165 5.0270834 L 9.2604165 3.9687501 L 8.2020832 3.9687501 L 8.2020832 5.0270834 L 9.2604165 5.0270834 z M 8.2020832 8.2020833 L 8.2020832 9.2604166 L 9.2604165 9.2604166 L 9.2604165 8.2020833 L 8.2020832 8.2020833 z M 9.2604165 9.2604166 L 9.2604165 10.31875 L 10.31875 10.31875 L 10.31875 9.2604166 L 9.2604165 9.2604166 z M 10.31875 9.2604166 L 11.377083 9.2604166 L 11.377083 8.2020833 L 10.31875 8.2020833 L 10.31875 9.2604166 z M 9.2604165 10.31875 L 8.2020832 10.31875 L 8.2020832 11.377083 L 9.2604165 11.377083 L 9.2604165 10.31875 z M 9.2604165 11.377083 L 9.2604165 12.435417 L 10.31875 12.435417 L 10.31875 11.377083 L 9.2604165 11.377083 z M 10.31875 12.435417 L 10.31875 13.49375 L 11.377083 13.49375 L 11.377083 12.435417 L 10.31875 12.435417 z M 9.2604165 12.435417 L 8.2020832 12.435417 L 8.2020832 13.49375 L 9.2604165 13.49375 L 9.2604165 12.435417 z " /><path
           id="path2823"
           style="fill:#44acff;fill-opacity:1;stroke-width:0.423333;stroke-linecap:round;stroke-linejoin:round;stroke-miterlimit:1.8;paint-order:stroke fill markers;stop-color:#000000"
           d="M 9.2604165 8.2020833 L 10.31875 8.2020833 L 10.31875 7.14375 L 9.2604165 7.14375 L 9.2604165 8.2020833 z " /><path
           id="path2807"
           style="fill:#44acff;fill-opacity:1;stroke-width:0.423333;stroke-linecap:round;stroke-linejoin:round;stroke-miterlimit:1.8;paint-order:stroke fill markers;stop-color:#000000"
           d="M 11.377083 10.31875 L 10.31875 10.31875 L 10.31875 11.377083 L 11.377083 11.377083 L 11.377083 10.31875 z " /></g><g
         id="g3319"
         transform="translate(-3.4395833,1.058335)"><path
           id="rect4119-5"
           style="fill:#000000;fill-opacity:0.1;stroke-width:0.253999"
           d="m 20.108333,3.704165 -1.322917,1.3229167 2.116667,2.1166666 -2.116667,2.1166666 1.322917,1.3229131 3.439583,-3.4395797 z m -2.931087,0.79375 c -0.430164,0.010826 -0.77308,0.3608814 -0.77308,0.79375 0,0.4397395 0.354014,0.79375 0.79375,0.79375 0.439738,0 0.79375,-0.3540105 0.79375,-0.79375 0,-0.4397396 -0.354012,-0.79375 -0.79375,-0.79375 -0.0069,0 -0.01384,-1.718e-4 -0.02067,0 z m -1.037663,2.38125 c -0.586314,0 -1.058333,0.4720239 -1.058333,1.0583333 0,0.5863094 0.472019,1.0583333 1.058333,1.0583333 0.586314,0 1.058333,-0.4720239 1.058333,-1.0583333 0,-0.5863094 -0.472019,-1.0583333 -1.058333,-1.0583333 z M 17.4625,9.5249978 c -0.732896,0 -1.322917,0.5900172 -1.322917,1.3229142 0,0.732899 0.590021,1.322916 1.322917,1.322916 0.732895,0 1.322916,-0.590017 1.322916,-1.322916 0,-0.732897 -0.590021,-1.3229142 -1.322916,-1.3229142 z" /><path
           id="rect4119"
           style="fill:#3d434a;fill-opacity:1;stroke-width:0.253999"
           d="M 20.108333 3.4395817 L 18.785416 4.7624984 L 20.902083 6.879165 L 18.785416 8.9958316 L 20.108333 10.318748 L 23.547916 6.879165 L 20.108333 3.4395817 z M 17.177246 4.2333317 C 16.747082 4.2441572 16.404166 4.5942131 16.404166 5.0270817 C 16.404166 5.4668212 16.75818 5.8208317 17.197916 5.8208317 C 17.637654 5.8208317 17.991666 5.4668212 17.991666 5.0270817 C 17.991666 4.5873421 17.637654 4.2333317 17.197916 4.2333317 C 17.191045 4.2333317 17.184074 4.2331599 17.177246 4.2333317 z M 16.139583 6.6145817 C 15.553269 6.6145817 15.08125 7.0866056 15.08125 7.672915 C 15.08125 8.2592244 15.553269 8.7312483 16.139583 8.7312483 C 16.725897 8.7312483 17.197916 8.2592244 17.197916 7.672915 C 17.197916 7.0866056 16.725897 6.6145817 16.139583 6.6145817 z M 17.4625 9.2604149 C 16.729604 9.2604149 16.139583 9.8504323 16.139583 10.583332 C 16.139583 11.316231 16.729604 11.906248 17.4625 11.906248 C 18.195395 11.906248 18.785416 11.316231 18.785416 10.583332 C 18.785416 9.8504323 18.195395 9.2604149 17.4625 9.2604149 z " /></g></g></g></svg>
