<?xml version="1.0" encoding="UTF-8" standalone="no"?>
<!-- Created with Inkscape (http://www.inkscape.org/) -->

<svg
   width="64"
   height="64"
   viewBox="0 0 64 64"
   version="1.1"
   id="svg8"
   inkscape:version="1.3.2 (091e20ef0f, 2023-11-25, custom)"
   sodipodi:docname="application-x-n64-rom.svg"
   xml:space="preserve"
   xmlns:inkscape="http://www.inkscape.org/namespaces/inkscape"
   xmlns:sodipodi="http://sodipodi.sourceforge.net/DTD/sodipodi-0.dtd"
   xmlns:xlink="http://www.w3.org/1999/xlink"
   xmlns="http://www.w3.org/2000/svg"
   xmlns:svg="http://www.w3.org/2000/svg"
   xmlns:rdf="http://www.w3.org/1999/02/22-rdf-syntax-ns#"
   xmlns:cc="http://creativecommons.org/ns#"
   xmlns:dc="http://purl.org/dc/elements/1.1/"><title
     id="title7895">Antu icon Theme</title><defs
     id="defs2"><linearGradient
       id="linearGradient5"
       inkscape:collect="always"><stop
         style="stop-color:#219e6e;stop-opacity:1;"
         offset="0"
         id="stop5" /><stop
         style="stop-color:#27bb82;stop-opacity:1;"
         offset="1"
         id="stop6" /></linearGradient><linearGradient
       id="linearGradient3"
       inkscape:collect="always"><stop
         style="stop-color:#e8f1f1;stop-opacity:1;"
         offset="0"
         id="stop3" /><stop
         style="stop-color:#fbfbfb;stop-opacity:1;"
         offset="1"
         id="stop4" /></linearGradient><linearGradient
       id="linearGradient1"
       inkscape:collect="always"><stop
         style="stop-color:#ebf3f3;stop-opacity:1;"
         offset="0"
         id="stop1" /><stop
         style="stop-color:#fafbfb;stop-opacity:1;"
         offset="1"
         id="stop2" /></linearGradient><linearGradient
       gradientTransform="translate(-54,2)"
       inkscape:collect="always"
       xlink:href="#linearGradient4656"
       id="linearGradient1149"
       x1="86"
       y1="308.64999"
       x2="86"
       y2="252.64999"
       gradientUnits="userSpaceOnUse" /><linearGradient
       inkscape:collect="always"
       id="linearGradient4656"><stop
         style="stop-color:#e4efef;stop-opacity:1;"
         offset="0"
         id="stop4652" /><stop
         style="stop-color:#fcfcfc;stop-opacity:1;"
         offset="1"
         id="stop4654" /></linearGradient><style
       id="current-color-scheme"
       type="text/css">
      .ColorScheme-Text {
        color:#122036;
      }
      </style><style
       type="text/css"
       id="current-color-scheme-5">
      .ColorScheme-Text {
        color:#122036;
      }
      </style><style
       type="text/css"
       id="current-color-scheme-2">
      .ColorScheme-Text {
        color:#122036;
      }
      </style><style
       type="text/css"
       id="current-color-scheme-1">
      .ColorScheme-Text {
        color:#122036;
      }
      </style><style
       id="current-color-scheme-10"
       type="text/css">
      .ColorScheme-Text {
        color:#122036;
      }
      </style><style
       type="text/css"
       id="current-color-scheme-0">
      .ColorScheme-Text {
        color:#122036;
      }
      </style><style
       type="text/css"
       id="current-color-scheme-26">
      .ColorScheme-Text {
        color:#122036;
      }
      </style><style
       id="current-color-scheme-27"
       type="text/css">
      .ColorScheme-Text {
        color:#122036;
      }
      </style><style
       id="current-color-scheme-7"
       type="text/css">
      .ColorScheme-Text {
        color:#122036;
      }
      </style><style
       id="current-color-scheme-5-09"
       type="text/css">
      .ColorScheme-Text {
        color:#122036;
      }
      </style><style
       id="current-color-scheme-0-3"
       type="text/css">
      .ColorScheme-Text {
        color:#122036;
      }
      </style><style
       id="current-color-scheme-7-9"
       type="text/css">
      .ColorScheme-Text {
        color:#122036;
      }
      </style><style
       id="current-color-scheme-5-3"
       type="text/css">
      .ColorScheme-Text {
        color:#122036;
      }
      </style><style
       id="current-color-scheme-79"
       type="text/css">
      .ColorScheme-Text {
        color:#122036;
      }
      </style><style
       id="current-color-scheme-7-2"
       type="text/css">
      .ColorScheme-Text {
        color:#122036;
      }
      </style><style
       id="current-color-scheme-5-0"
       type="text/css">
      .ColorScheme-Text {
        color:#122036;
      }
      </style><style
       type="text/css"
       id="current-color-scheme-6">
      .ColorScheme-Text {
        color:#122036;
      }
      </style><style
       id="current-color-scheme-5-2"
       type="text/css">
      .ColorScheme-Text {
        color:#122036;
      }
      </style><style
       id="current-color-scheme-2-1"
       type="text/css">
      .ColorScheme-Text {
        color:#122036;
      }
      </style><style
       id="current-color-scheme-1-7"
       type="text/css">
      .ColorScheme-Text {
        color:#122036;
      }
      </style><style
       type="text/css"
       id="current-color-scheme-10-8">
      .ColorScheme-Text {
        color:#122036;
      }
      </style><style
       id="current-color-scheme-0-5"
       type="text/css">
      .ColorScheme-Text {
        color:#122036;
      }
      </style><style
       id="current-color-scheme-26-7"
       type="text/css">
      .ColorScheme-Text {
        color:#122036;
      }
      </style><style
       type="text/css"
       id="current-color-scheme-27-4">
      .ColorScheme-Text {
        color:#122036;
      }
      </style><style
       type="text/css"
       id="current-color-scheme-7-1">
      .ColorScheme-Text {
        color:#122036;
      }
      </style><style
       type="text/css"
       id="current-color-scheme-5-09-8">
      .ColorScheme-Text {
        color:#122036;
      }
      </style><style
       type="text/css"
       id="current-color-scheme-0-3-5">
      .ColorScheme-Text {
        color:#122036;
      }
      </style><style
       type="text/css"
       id="current-color-scheme-7-9-9">
      .ColorScheme-Text {
        color:#122036;
      }
      </style><style
       type="text/css"
       id="current-color-scheme-5-3-7">
      .ColorScheme-Text {
        color:#122036;
      }
      </style><style
       type="text/css"
       id="current-color-scheme-79-5">
      .ColorScheme-Text {
        color:#122036;
      }
      </style><style
       type="text/css"
       id="current-color-scheme-7-2-3">
      .ColorScheme-Text {
        color:#122036;
      }
      </style><style
       type="text/css"
       id="current-color-scheme-5-0-8">
      .ColorScheme-Text {
        color:#122036;
      }
      </style><style
       id="current-color-scheme-3"
       type="text/css">
      .ColorScheme-Text {
        color:#122036;
      }
      </style><style
       id="current-color-scheme-2-6"
       type="text/css">
      .ColorScheme-Text {
        color:#122036;
      }
      </style><style
       id="current-color-scheme-0-0"
       type="text/css">
      .ColorScheme-Text {
        color:#122036;
      }
      </style><linearGradient
       inkscape:collect="always"
       xlink:href="#linearGradient1"
       id="linearGradient2"
       x1="-117"
       y1="327.64999"
       x2="-117"
       y2="320.64999"
       gradientUnits="userSpaceOnUse" /><linearGradient
       inkscape:collect="always"
       xlink:href="#linearGradient3"
       id="linearGradient4"
       x1="-107"
       y1="318.64999"
       x2="-107.125"
       y2="303.96249"
       gradientUnits="userSpaceOnUse" /><linearGradient
       inkscape:collect="always"
       xlink:href="#linearGradient5"
       id="linearGradient6"
       x1="-119"
       y1="318.64999"
       x2="-120"
       y2="301.64999"
       gradientUnits="userSpaceOnUse" /><style
       id="current-color-scheme-53"
       type="text/css">
      .ColorScheme-Text {
        color:#122036;
      }
      </style><style
       id="current-color-scheme-2-5"
       type="text/css">
      .ColorScheme-Text {
        color:#122036;
      }
      </style><style
       id="current-color-scheme-0-6"
       type="text/css">
      .ColorScheme-Text {
        color:#122036;
      }
      </style></defs><sodipodi:namedview
     id="base"
     pagecolor="#ffffff"
     bordercolor="#666666"
     borderopacity="1.0"
     inkscape:pageopacity="0.0"
     inkscape:pageshadow="2"
     inkscape:zoom="16"
     inkscape:cx="45.28125"
     inkscape:cy="38.25"
     inkscape:document-units="px"
     inkscape:current-layer="g6756"
     showgrid="false"
     units="px"
     inkscape:window-width="2560"
     inkscape:window-height="1356"
     inkscape:window-x="0"
     inkscape:window-y="0"
     inkscape:window-maximized="1"
     objecttolerance="10"
     gridtolerance="10"
     guidetolerance="10"
     inkscape:snap-bbox="true"
     inkscape:bbox-paths="true"
     inkscape:bbox-nodes="true"
     inkscape:snap-bbox-edge-midpoints="true"
     inkscape:snap-bbox-midpoints="true"
     inkscape:object-paths="true"
     inkscape:snap-intersection-paths="true"
     inkscape:showpageshadow="false"
     inkscape:pagecheckerboard="0"
     inkscape:deskcolor="#d1d1d1"><inkscape:grid
       type="xygrid"
       id="grid7897"
       empspacing="4"
       originx="0"
       originy="0"
       spacingy="1"
       spacingx="1"
       units="px"
       visible="false" /></sodipodi:namedview><metadata
     id="metadata5"><rdf:RDF><cc:Work
         rdf:about=""><dc:format>image/svg+xml</dc:format><dc:type
           rdf:resource="http://purl.org/dc/dcmitype/StillImage" /><dc:title>Antu icon Theme</dc:title></cc:Work></rdf:RDF></metadata><g
     inkscape:label="Capa 1"
     inkscape:groupmode="layer"
     id="layer1"
     transform="translate(0,-250.64999)"><path
       id="rect971"
       d="m 9,251.64999 h 46 c 2.216,0 4,1.784 4,4 v 54 c 0,2.216 -1.784,4 -4,4 H 9 c -2.216,0 -4,-1.784 -4,-4 v -54 c 0,-2.216 1.784,-4 4,-4 z"
       style="vector-effect:none;fill:#90a4ae;fill-opacity:1;stroke:none;stroke-width:2;stroke-linecap:round;stroke-linejoin:round;stroke-miterlimit:4;stroke-dasharray:none;stroke-dashoffset:0;stroke-opacity:1"
       inkscape:connector-curvature="0"
       sodipodi:nodetypes="sssssssss" /><path
       id="rect971-2"
       d="m 9,252.64999 h 46 c 1.662,0 3,1.338 3,3 v 54 c 0,1.662 -1.338,3 -3,3 H 9 c -1.662,0 -3,-1.338 -3,-3 v -54 c 0,-1.662 1.338,-3 3,-3 z"
       style="vector-effect:none;fill:url(#linearGradient1149);fill-opacity:1;stroke:none;stroke-width:2;stroke-linecap:round;stroke-linejoin:round;stroke-miterlimit:4;stroke-dasharray:none;stroke-dashoffset:0;stroke-opacity:1"
       inkscape:connector-curvature="0"
       sodipodi:nodetypes="sssssssss" /><g
       inkscape:label="Capa 1"
       id="layer1-6"
       style="fill:#d8e0e8;fill-opacity:1"><path
         id="rect5971-3"
         style="fill:#d0dcdf;fill-opacity:1;stroke-width:1.6;stroke-linecap:round;stroke-linejoin:round;stroke-miterlimit:1.8;paint-order:stroke fill markers;stop-color:#000000"
         d="m 9,252.64999 c -1.6619943,0 -3,1.338 -3,3 v 1 H 6.1699219 10 v -3.83008 -0.16992 z m 1,4 v 4 h 4 v -4 z m 4,0 h 4 v -4 h -4 z m 4,0 v 4 h 4 v -4 z m 4,0 h 4 v -4 h -4 z m 4,0 v 4 h 4 v -4 z m 4,0 h 4 v -4 h -4 z m 4,0 v 4 h 4 v -4 z m 4,0 h 4 v -4 h -4 z m 4,0 v 4 h 4 v -4 z m 4,0 h 4 v -4 h -4 z m 4,0 v 4 h 4 v -4 z m 4,0 H 57.830078 58 v -1 c 0,-1.662 -1.338006,-3 -3,-3 h -1 v 0.16992 z m 0,4 v 4 h 4 v -4 z m 0,4 h -4 v 4 h 4 z m 0,4 v 4 h 4 v -4 z m 0,4 h -4 v 4 h 4 z m 0,4 v 4 h 4 v -4 z m 0,4 h -4 v 4 h 4 z m 0,4 v 4 h 4 v -4 z m 0,4 h -4 v 4 h 4 z m 0,4 v 4 h 4 v -4 z m 0,4 h -4 v 4 h 4 z m 0,4 v 4 h 4 v -4 z m 0,4 h -4 v 4 h 4 z m 0,4 v 3.83008 0.16992 h 1 c 1.661994,0 3,-1.338 3,-3 v -1 h -0.169922 z m -4,0 h -4 v 4 h 4 z m -4,0 v -4 h -4 v 4 z m -4,0 h -4 v 4 h 4 z m -4,0 v -4 h -4 v 4 z m -4,0 h -4 v 4 h 4 z m -4,0 v -4 h -4 v 4 z m -4,0 h -4 v 4 h 4 z m -4,0 v -4 h -4 v 4 z m -4,0 h -4 v 4 h 4 z m -4,0 v -4 h -4 v 4 z m -4,0 H 6.1699219 6 v 1 c 0,1.662 1.3380057,3 3,3 h 1 v -0.16992 z m 0,-4 v -4 H 6 v 4 z m 0,-4 h 4 v -4 h -4 z m 0,-4 v -4 H 6 v 4 z m 0,-4 h 4 v -4 h -4 z m 0,-4 v -4 H 6 v 4 z m 0,-4 h 4 v -4 h -4 z m 0,-4 v -4 H 6 v 4 z m 0,-4 h 4 v -4 h -4 z m 0,-4 v -4 H 6 v 4 z m 0,-4 h 4 v -4 h -4 z m 0,-4 v -4 H 6 v 4 z m 4,0 h 4 v -4 h -4 z m 4,0 v 4 h 4 v -4 z m 4,0 h 4 v -4 h -4 z m 4,0 v 4 h 4 v -4 z m 4,0 h 4 v -4 h -4 z m 4,0 v 4 h 4 v -4 z m 4,0 h 4 v -4 h -4 z m 4,0 v 4 h 4 v -4 z m 4,0 h 4 v -4 h -4 z m 0,4 v 4 h 4 v -4 z m 0,4 h -4 v 4 h 4 z m 0,4 v 4 h 4 v -4 z m 0,4 h -4 v 4 h 4 z m 0,4 v 4 h 4 v -4 z m 0,4 h -4 v 4 h 4 z m 0,4 v 4 h 4 v -4 z m 0,4 h -4 v 4 h 4 z m 0,4 v 4 h 4 v -4 z m -4,0 h -4 v 4 h 4 z m -4,0 v -4 h -4 v 4 z m -4,0 h -4 v 4 h 4 z m -4,0 v -4 h -4 v 4 z m -4,0 h -4 v 4 h 4 z m -4,0 v -4 h -4 v 4 z m -4,0 h -4 v 4 h 4 z m 0,-4 v -4 h -4 v 4 z m 0,-4 h 4 v -4 h -4 z m 0,-4 v -4 h -4 v 4 z m 0,-4 h 4 v -4 h -4 z m 0,-4 v -4 h -4 v 4 z m 0,-4 h 4 v -4 h -4 z m 0,-4 v -4 h -4 v 4 z m 4,0 h 4 v -4 h -4 z m 4,0 v 4 h 4 v -4 z m 4,0 h 4 v -4 h -4 z m 4,0 v 4 h 4 v -4 z m 4,0 h 4 v -4 h -4 z m 0,4 v 4 h 4 v -4 z m 0,4 h -4 v 4 h 4 z m 0,4 v 4 h 4 v -4 z m 0,4 h -4 v 4 h 4 z m 0,4 v 4 h 4 v -4 z m -4,0 h -4 v 4 h 4 z m -4,0 v -4 h -4 v 4 z m -4,0 h -4 v 4 h 4 z m 0,-4 v -4 h -4 v 4 z m 0,-4 h 4 v -4 h -4 z m 0,-4 v -4 h -4 v 4 z m 4,0 h 4 v -4 h -4 z m 0,4 v 4 h 4 v -4 z" /><g
         transform="translate(16,-16.000032)"
         id="layer1-9-2"
         inkscape:label="Capa 1"
         style="fill:#d8e0e8;fill-opacity:1"><g
           transform="translate(17,-4)"
           id="g1698-7"
           style="fill:#d8e0e8;fill-opacity:1" /></g></g><g
       transform="translate(16,-16.000032)"
       id="layer1-9"
       inkscape:label="Capa 1" /><g
       id="g6756"
       transform="matrix(3.7795276,0,0,3.7795276,49.729786,255.23756)"><g
         id="g35210-6"
         transform="matrix(0.26458333,0,0,0.26458333,49.548577,-76.262853)"><path
           id="rect30528-2-2"
           style="fill:#90a4ae;fill-opacity:1;stroke-width:2;stroke-linecap:round;stroke-linejoin:round;stroke-miterlimit:1.8;paint-order:stroke fill markers;stop-color:#000000"
           d="m -212,302.64999 v 2 h -2 v 2 h -2 v 2 h -2 v 3 h -2 v 12 h 4 v 5 h 2 v 2 h 18 v -2 h 2 v -5 h 4 v -12 h -2 v -3 h -2 v -2 h -2 v -2 h -2 v -2 z"
           sodipodi:nodetypes="ccccccccccccccccccccccccccccc" /></g><g
         id="g35210"
         transform="matrix(0.26458333,0,0,0.26458333,24.41316,-76.262853)"><path
           id="rect30528-2"
           style="fill:#15151a;fill-opacity:1;stroke-width:2;stroke-linecap:round;stroke-linejoin:round;stroke-miterlimit:1.8;paint-order:stroke fill markers;stop-color:#000000"
           d="m -117,301.64999 v 2 h -2 v 2 h -2 v 2 h -2 v 3 h -2 v 12 h 4 v 5 h 2 v 2 h 18 v -2 h 2 v -5 h 4 v -12 h -2 v -3 h -2 v -2 h -2 v -2 h -2 v -2 z"
           sodipodi:nodetypes="ccccccccccccccccccccccccccccc" /><path
           id="rect31357-7"
           style="fill:url(#linearGradient2);fill-opacity:1;stroke-width:2;stroke-linecap:round;stroke-linejoin:round;stroke-miterlimit:1.8;paint-order:stroke fill markers;stop-color:#000000"
           d="m -117,320.64999 v 2 h -2 v 3 h 2 v 2 h 11 3 v -2 h 2 v -3 h -2 v -2 h -3 v 3 h -2 v -3 h -4 v 3 h -2 v -3 z"
           sodipodi:nodetypes="cccccccccccccccccccccc" /><path
           id="rect31666"
           style="fill:url(#linearGradient6);fill-opacity:1;stroke-width:2;stroke-linecap:round;stroke-linejoin:round;stroke-miterlimit:1.8;paint-order:stroke fill markers;stop-color:#000000"
           d="m -115,303.64999 v 2 h -2 v 2 h -2 v 2 h -2 v 3 h -2 v 8 h 4 v -2 h 18 v 2 h 4 v -5 -3 h -2 v -3 h -2 v -2 h -2 v -2 h -2 v -2 z"
           sodipodi:nodetypes="cccccccccccccccccccccccccc" /><path
           id="rect32132"
           style="fill:url(#linearGradient4);fill-opacity:1;stroke-width:2;stroke-linecap:round;stroke-linejoin:round;stroke-miterlimit:1.8;paint-order:stroke fill markers;stop-color:#000000"
           d="m -115,303.64999 v 2 h -2 v 4 h 4 v -2 h 2 v -4 z m 6,0 v 4 h 2 v 2 h 4 v -4 h -2 v -2 z m -12,7 v 2 h -2 v 6 h 2 v -2 h 4 v -4 h -2 v -2 z m 8,0 v 2 h -2 v 4 h 2 v 2 h 6 v -2 h 2 v -4 h -2 v -2 z m 12,0 v 2 h -2 v 4 h 4 v 2 h 2 v -6 h -1 -1 v -2 z" /></g></g></g></svg>
