<?xml version="1.0" encoding="UTF-8" standalone="no"?>
<!-- Created with Inkscape (http://www.inkscape.org/) -->

<svg
   width="64"
   height="64"
   viewBox="0 0 64 64"
   version="1.1"
   id="svg8"
   inkscape:version="1.3.2 (091e20ef0f, 2023-11-25, custom)"
   sodipodi:docname="application-x-partial-download.svg"
   xml:space="preserve"
   xmlns:inkscape="http://www.inkscape.org/namespaces/inkscape"
   xmlns:sodipodi="http://sodipodi.sourceforge.net/DTD/sodipodi-0.dtd"
   xmlns:xlink="http://www.w3.org/1999/xlink"
   xmlns="http://www.w3.org/2000/svg"
   xmlns:svg="http://www.w3.org/2000/svg"
   xmlns:rdf="http://www.w3.org/1999/02/22-rdf-syntax-ns#"
   xmlns:cc="http://creativecommons.org/ns#"
   xmlns:dc="http://purl.org/dc/elements/1.1/"><title
     id="title7895">Antu icon Theme</title><defs
     id="defs2"><linearGradient
       id="linearGradient1"
       inkscape:collect="always"><stop
         style="stop-color:#e6e6e6;stop-opacity:1;"
         offset="0"
         id="stop1" /><stop
         style="stop-color:#f9f9f9;stop-opacity:1;"
         offset="1"
         id="stop2" /></linearGradient><style
       id="current-color-scheme"
       type="text/css">
      .ColorScheme-Text {
        color:#122036;
      }
      </style><style
       type="text/css"
       id="current-color-scheme-5">
      .ColorScheme-Text {
        color:#122036;
      }
      </style><style
       type="text/css"
       id="current-color-scheme-2">
      .ColorScheme-Text {
        color:#122036;
      }
      </style><style
       type="text/css"
       id="current-color-scheme-1">
      .ColorScheme-Text {
        color:#122036;
      }
      </style><style
       id="current-color-scheme-10"
       type="text/css">
      .ColorScheme-Text {
        color:#122036;
      }
      </style><style
       type="text/css"
       id="current-color-scheme-0">
      .ColorScheme-Text {
        color:#122036;
      }
      </style><style
       type="text/css"
       id="current-color-scheme-26">
      .ColorScheme-Text {
        color:#122036;
      }
      </style><style
       id="current-color-scheme-27"
       type="text/css">
      .ColorScheme-Text {
        color:#122036;
      }
      </style><style
       id="current-color-scheme-7"
       type="text/css">
      .ColorScheme-Text {
        color:#122036;
      }
      </style><style
       id="current-color-scheme-5-09"
       type="text/css">
      .ColorScheme-Text {
        color:#122036;
      }
      </style><style
       id="current-color-scheme-0-3"
       type="text/css">
      .ColorScheme-Text {
        color:#122036;
      }
      </style><style
       id="current-color-scheme-7-9"
       type="text/css">
      .ColorScheme-Text {
        color:#122036;
      }
      </style><style
       id="current-color-scheme-5-3"
       type="text/css">
      .ColorScheme-Text {
        color:#122036;
      }
      </style><style
       id="current-color-scheme-79"
       type="text/css">
      .ColorScheme-Text {
        color:#122036;
      }
      </style><style
       id="current-color-scheme-7-2"
       type="text/css">
      .ColorScheme-Text {
        color:#122036;
      }
      </style><style
       id="current-color-scheme-5-0"
       type="text/css">
      .ColorScheme-Text {
        color:#122036;
      }
      </style><style
       type="text/css"
       id="current-color-scheme-6">
      .ColorScheme-Text {
        color:#122036;
      }
      </style><style
       id="current-color-scheme-5-2"
       type="text/css">
      .ColorScheme-Text {
        color:#122036;
      }
      </style><style
       id="current-color-scheme-2-1"
       type="text/css">
      .ColorScheme-Text {
        color:#122036;
      }
      </style><style
       id="current-color-scheme-1-7"
       type="text/css">
      .ColorScheme-Text {
        color:#122036;
      }
      </style><style
       type="text/css"
       id="current-color-scheme-10-8">
      .ColorScheme-Text {
        color:#122036;
      }
      </style><style
       id="current-color-scheme-0-5"
       type="text/css">
      .ColorScheme-Text {
        color:#122036;
      }
      </style><style
       id="current-color-scheme-26-7"
       type="text/css">
      .ColorScheme-Text {
        color:#122036;
      }
      </style><style
       type="text/css"
       id="current-color-scheme-27-4">
      .ColorScheme-Text {
        color:#122036;
      }
      </style><style
       type="text/css"
       id="current-color-scheme-7-1">
      .ColorScheme-Text {
        color:#122036;
      }
      </style><style
       type="text/css"
       id="current-color-scheme-5-09-8">
      .ColorScheme-Text {
        color:#122036;
      }
      </style><style
       type="text/css"
       id="current-color-scheme-0-3-5">
      .ColorScheme-Text {
        color:#122036;
      }
      </style><style
       type="text/css"
       id="current-color-scheme-7-9-9">
      .ColorScheme-Text {
        color:#122036;
      }
      </style><style
       type="text/css"
       id="current-color-scheme-5-3-7">
      .ColorScheme-Text {
        color:#122036;
      }
      </style><style
       type="text/css"
       id="current-color-scheme-79-5">
      .ColorScheme-Text {
        color:#122036;
      }
      </style><style
       type="text/css"
       id="current-color-scheme-7-2-3">
      .ColorScheme-Text {
        color:#122036;
      }
      </style><style
       type="text/css"
       id="current-color-scheme-5-0-8">
      .ColorScheme-Text {
        color:#122036;
      }
      </style><linearGradient
       inkscape:collect="always"
       xlink:href="#linearGradient1"
       id="linearGradient2"
       x1="30"
       y1="280.64999"
       x2="30"
       y2="252.64999"
       gradientUnits="userSpaceOnUse" /></defs><sodipodi:namedview
     id="base"
     pagecolor="#ffffff"
     bordercolor="#666666"
     borderopacity="1.0"
     inkscape:pageopacity="0.0"
     inkscape:pageshadow="2"
     inkscape:zoom="11.313709"
     inkscape:cx="48.392617"
     inkscape:cy="19.533824"
     inkscape:document-units="px"
     inkscape:current-layer="layer1"
     showgrid="true"
     units="px"
     inkscape:window-width="2560"
     inkscape:window-height="1356"
     inkscape:window-x="0"
     inkscape:window-y="0"
     inkscape:window-maximized="1"
     objecttolerance="10"
     gridtolerance="10"
     guidetolerance="10"
     inkscape:snap-bbox="true"
     inkscape:bbox-paths="true"
     inkscape:bbox-nodes="true"
     inkscape:snap-bbox-edge-midpoints="true"
     inkscape:snap-bbox-midpoints="true"
     inkscape:object-paths="true"
     inkscape:snap-intersection-paths="true"
     inkscape:showpageshadow="false"
     inkscape:pagecheckerboard="0"
     inkscape:deskcolor="#d1d1d1"><inkscape:grid
       type="xygrid"
       id="grid7897"
       empspacing="4"
       originx="0"
       originy="0"
       spacingy="1"
       spacingx="1"
       units="px"
       visible="true" /></sodipodi:namedview><metadata
     id="metadata5"><rdf:RDF><cc:Work
         rdf:about=""><dc:format>image/svg+xml</dc:format><dc:type
           rdf:resource="http://purl.org/dc/dcmitype/StillImage" /><dc:title>Antu icon Theme</dc:title></cc:Work></rdf:RDF></metadata><g
     inkscape:label="Capa 1"
     inkscape:groupmode="layer"
     id="layer1"
     transform="translate(0,-250.64999)"><path
       id="rect971"
       style="fill:#535e66;fill-opacity:1;stroke:none;stroke-width:2;stroke-linecap:round;stroke-linejoin:round;stroke-miterlimit:4;stroke-dasharray:none;stroke-dashoffset:0;stroke-opacity:1"
       d="m 5,283.64999 v 4 h 1 v -1 -3 z m 53,0 v 3 1 h 1 v -4 z m -53,8 v 4 h 1 v -1 -3 z m 53,0 v 3 1 h 1 v -4 z m -53,8 v 4 h 1 v -4 z m 53,0 v 4 h 1 v -4 z m -53,8 v 2 c 0,2.216 1.7840088,4 4,4 h 2 v -1 H 9 c -1.6619894,0 -3,-1.338 -3,-3 v -2 z m 53,0 v 2 c 0,1.662 -1.338012,3 -3,3 v 1 c 2.215992,0 4,-1.784 4,-4 v -2 z m -43,5 v 1 h 4 v -1 z m 8,0 v 1 h 4 v -1 z m 8,0 v 1 h 4 v -1 z m 8,0 v 1 h 4 v -1 z m 8,0 v 1 h 4 v -1 z"
       sodipodi:nodetypes="cccccccccccccccccccccccccccccccccccssccsscccsccsccccccccccccccccccccccccccc" /><g
       id="path1894"><g
         id="path3458"><g
           id="path3671"><path
             style="color:#000000;fill:#535e66;stroke-linecap:round;stroke-linejoin:round;-inkscape-stroke:none;fill-opacity:1"
             d="m 9,251.65039 c -2.1986994,0 -4,1.8013 -4,4 v 25 a 1.0001,1.0001 0 0 0 1.5996094,0.79883 L 10,278.90039 l 3.400391,2.54883 a 1.0001,1.0001 0 0 0 1.199218,0 L 18,278.90039 l 3.400391,2.54883 a 1.0001,1.0001 0 0 0 1.199218,0 L 26,278.90039 l 3.400391,2.54883 a 1.0001,1.0001 0 0 0 1.199218,0 L 34,278.90039 l 3.400391,2.54883 a 1.0001,1.0001 0 0 0 1.199218,0 L 42,278.90039 l 3.400391,2.54883 a 1.0001,1.0001 0 0 0 1.199218,0 L 50,278.90039 l 3.400391,2.54883 a 1.0001,1.0001 0 0 0 1.30664,-0.0918 l 4,-4 A 1.0001,1.0001 0 0 0 59,276.65039 v -21 c 0,-2.1987 -1.801301,-4 -4,-4 z m 0,2 h 46 c 1.125293,0 2,0.87471 2,2 v 20.58594 l -3.09375,3.09375 -3.306641,-2.48047 a 1.0001,1.0001 0 0 0 -1.199218,0 L 46,279.40039 42.599609,276.84961 a 1.0001,1.0001 0 0 0 -1.199218,0 L 38,279.40039 34.599609,276.84961 a 1.0001,1.0001 0 0 0 -1.199218,0 L 30,279.40039 26.599609,276.84961 a 1.0001,1.0001 0 0 0 -1.199218,0 L 22,279.40039 18.599609,276.84961 a 1.0001,1.0001 0 0 0 -1.199218,0 L 14,279.40039 10.599609,276.84961 a 1.0001,1.0001 0 0 0 -1.1992184,0 L 7,278.65039 v -23 c 0,-1.12529 0.8747061,-2 2,-2 z"
             id="path1906" /><path
             style="color:#000000;fill:url(#linearGradient2);stroke-width:2;stroke-linecap:round;stroke-linejoin:round;-inkscape-stroke:none"
             d="m 9,252.64999 c -1.6619983,0 -3,1.338 -3,3 v 25 0 l 4,-3 4,3 v 0 0 l 4,-3 4,3 v 0 0 l 4,-3 4,3 v 0 0 l 4,-3 4,3 v 0 0 l 4,-3 4,3 v 0 0 l 4,-3 4,3 v 0 0 0 l 4,-4 v -21 c 0,-1.662 -1.338002,-3 -3,-3 z"
             id="path1904" /></g></g></g><path
       id="path1872"
       style="fill:#ccced0;fill-opacity:1;stroke-width:1.6;stroke-linecap:round;stroke-linejoin:round;stroke-miterlimit:1.8;paint-order:stroke fill markers;stop-color:#000000"
       d="m 6,276.64999 v 4 0 l 4,-3 v -1 z m 8,0 v 4 0 l 4,-3 v -1 z m 8,0 v 4 0 l 4,-3 v -1 z m 8,0 v 4 0 l 4,-3 v -1 z m 8,0 v 4 0 l 4,-3 v -1 z m 8,0 v 4 0 l 4,-3 v -1 z m 8,0 v 4 0 0 l 4,-4 z"
       sodipodi:nodetypes="cccccccccccccccccccccccccccccccccccccccccc" /><path
       id="path1838"
       style="fill:#ccced0;fill-opacity:1;stroke-width:1.6;stroke-linecap:round;stroke-linejoin:round;stroke-miterlimit:1.8;paint-order:stroke fill markers;stop-color:#000000"
       d="M 38 272.64999 L 42 272.64999 L 42 268.64999 L 38 268.64999 L 38 272.64999 z " /><path
       id="path1836"
       style="fill:#ccced0;fill-opacity:1;stroke-width:1.6;stroke-linecap:round;stroke-linejoin:round;stroke-miterlimit:1.8;paint-order:stroke fill markers;stop-color:#000000"
       d="M 34 272.64999 L 34 276.64999 L 38 276.64999 L 38 272.64999 L 34 272.64999 z " /><path
       id="path1834"
       style="fill:#ccced0;fill-opacity:1;stroke-width:1.6;stroke-linecap:round;stroke-linejoin:round;stroke-miterlimit:1.8;paint-order:stroke fill markers;stop-color:#000000"
       d="M 30 272.64999 L 34 272.64999 L 34 268.64999 L 30 268.64999 L 30 272.64999 z " /><path
       id="path1832"
       style="fill:#ccced0;fill-opacity:1;stroke-width:1.6;stroke-linecap:round;stroke-linejoin:round;stroke-miterlimit:1.8;paint-order:stroke fill markers;stop-color:#000000"
       d="M 26 272.64999 L 26 276.64999 L 30 276.64999 L 30 272.64999 L 26 272.64999 z " /><path
       id="path1830"
       style="fill:#ccced0;fill-opacity:1;stroke-width:1.6;stroke-linecap:round;stroke-linejoin:round;stroke-miterlimit:1.8;paint-order:stroke fill markers;stop-color:#000000"
       d="M 22 272.64999 L 26 272.64999 L 26 268.64999 L 22 268.64999 L 22 272.64999 z " /><path
       id="path1828"
       style="fill:#ccced0;fill-opacity:1;stroke-width:1.6;stroke-linecap:round;stroke-linejoin:round;stroke-miterlimit:1.8;paint-order:stroke fill markers;stop-color:#000000"
       d="M 18 272.64999 L 18 268.64999 L 14 268.64999 L 14 272.64999 L 18 272.64999 z " /><path
       id="path1826"
       style="fill:#ccced0;fill-opacity:1;stroke-width:1.6;stroke-linecap:round;stroke-linejoin:round;stroke-miterlimit:1.8;paint-order:stroke fill markers;stop-color:#000000"
       d="M 18 276.64999 L 22 276.64999 L 22 272.64999 L 18 272.64999 L 18 276.64999 z " /><path
       id="path1778"
       style="fill:#ccced0;fill-opacity:1;stroke-width:1.6;stroke-linecap:round;stroke-linejoin:round;stroke-miterlimit:1.8;paint-order:stroke fill markers;stop-color:#000000"
       d="M 46 272.64999 L 42 272.64999 L 42 276.64999 L 46 276.64999 L 46 272.64999 z " /><path
       id="path1776"
       style="fill:#ccced0;fill-opacity:1;stroke-width:1.6;stroke-linecap:round;stroke-linejoin:round;stroke-miterlimit:1.8;paint-order:stroke fill markers;stop-color:#000000"
       d="M 46 268.64999 L 46 272.64999 L 50 272.64999 L 50 268.64999 L 46 268.64999 z " /><path
       id="path1774"
       style="fill:#ccced0;fill-opacity:1;stroke-width:1.6;stroke-linecap:round;stroke-linejoin:round;stroke-miterlimit:1.8;paint-order:stroke fill markers;stop-color:#000000"
       d="M 46 264.64999 L 50 264.64999 L 50 260.64999 L 46 260.64999 L 46 264.64999 z " /><path
       id="path1772"
       style="fill:#ccced0;fill-opacity:1;stroke-width:1.6;stroke-linecap:round;stroke-linejoin:round;stroke-miterlimit:1.8;paint-order:stroke fill markers;stop-color:#000000"
       d="M 42 264.64999 L 42 268.64999 L 46 268.64999 L 46 264.64999 L 42 264.64999 z " /><path
       id="path1770"
       style="fill:#ccced0;fill-opacity:1;stroke-width:1.6;stroke-linecap:round;stroke-linejoin:round;stroke-miterlimit:1.8;paint-order:stroke fill markers;stop-color:#000000"
       d="M 38 264.64999 L 42 264.64999 L 42 260.64999 L 38 260.64999 L 38 264.64999 z " /><path
       id="path1768"
       style="fill:#ccced0;fill-opacity:1;stroke-width:1.6;stroke-linecap:round;stroke-linejoin:round;stroke-miterlimit:1.8;paint-order:stroke fill markers;stop-color:#000000"
       d="M 34 264.64999 L 34 268.64999 L 38 268.64999 L 38 264.64999 L 34 264.64999 z " /><path
       id="path1766"
       style="fill:#ccced0;fill-opacity:1;stroke-width:1.6;stroke-linecap:round;stroke-linejoin:round;stroke-miterlimit:1.8;paint-order:stroke fill markers;stop-color:#000000"
       d="M 30 264.64999 L 34 264.64999 L 34 260.64999 L 30 260.64999 L 30 264.64999 z " /><path
       id="path1764"
       style="fill:#ccced0;fill-opacity:1;stroke-width:1.6;stroke-linecap:round;stroke-linejoin:round;stroke-miterlimit:1.8;paint-order:stroke fill markers;stop-color:#000000"
       d="M 26 264.64999 L 26 268.64999 L 30 268.64999 L 30 264.64999 L 26 264.64999 z " /><path
       id="path1762"
       style="fill:#ccced0;fill-opacity:1;stroke-width:1.6;stroke-linecap:round;stroke-linejoin:round;stroke-miterlimit:1.8;paint-order:stroke fill markers;stop-color:#000000"
       d="M 22 264.64999 L 26 264.64999 L 26 260.64999 L 22 260.64999 L 22 264.64999 z " /><path
       id="path1760"
       style="fill:#ccced0;fill-opacity:1;stroke-width:1.6;stroke-linecap:round;stroke-linejoin:round;stroke-miterlimit:1.8;paint-order:stroke fill markers;stop-color:#000000"
       d="M 18 264.64999 L 18 268.64999 L 22 268.64999 L 22 264.64999 L 18 264.64999 z " /><path
       id="path1758"
       style="fill:#ccced0;fill-opacity:1;stroke-width:1.6;stroke-linecap:round;stroke-linejoin:round;stroke-miterlimit:1.8;paint-order:stroke fill markers;stop-color:#000000"
       d="M 14 264.64999 L 18 264.64999 L 18 260.64999 L 14 260.64999 L 14 264.64999 z " /><path
       id="path1756"
       style="fill:#ccced0;fill-opacity:1;stroke-width:1.6;stroke-linecap:round;stroke-linejoin:round;stroke-miterlimit:1.8;paint-order:stroke fill markers;stop-color:#000000"
       d="M 10 264.64999 L 10 260.64999 L 6 260.64999 L 6 264.64999 L 10 264.64999 z " /><path
       id="path1754"
       style="fill:#ccced0;fill-opacity:1;stroke-width:1.6;stroke-linecap:round;stroke-linejoin:round;stroke-miterlimit:1.8;paint-order:stroke fill markers;stop-color:#000000"
       d="M 10 268.64999 L 14 268.64999 L 14 264.64999 L 10 264.64999 L 10 268.64999 z " /><path
       id="path1752"
       style="fill:#ccced0;fill-opacity:1;stroke-width:1.6;stroke-linecap:round;stroke-linejoin:round;stroke-miterlimit:1.8;paint-order:stroke fill markers;stop-color:#000000"
       d="M 10 272.64999 L 10 268.64999 L 6 268.64999 L 6 272.64999 L 10 272.64999 z " /><path
       id="path1750"
       style="fill:#ccced0;fill-opacity:1;stroke-width:1.6;stroke-linecap:round;stroke-linejoin:round;stroke-miterlimit:1.8;paint-order:stroke fill markers;stop-color:#000000"
       d="M 10 276.64999 L 14 276.64999 L 14 272.64999 L 10 272.64999 L 10 276.64999 z " /><path
       id="path1718"
       style="fill:#ccced0;fill-opacity:1;stroke-width:1.6;stroke-linecap:round;stroke-linejoin:round;stroke-miterlimit:1.8;paint-order:stroke fill markers;stop-color:#000000"
       d="M 54 272.64999 L 50 272.64999 L 50 276.64999 L 54 276.64999 L 54 272.64999 z " /><path
       id="path1716"
       style="fill:#ccced0;fill-opacity:1;stroke-width:1.6;stroke-linecap:round;stroke-linejoin:round;stroke-miterlimit:1.8;paint-order:stroke fill markers;stop-color:#000000"
       d="M 54 268.64999 L 54 272.64999 L 58 272.64999 L 58 268.64999 L 54 268.64999 z " /><path
       id="path1714"
       style="fill:#ccced0;fill-opacity:1;stroke-width:1.6;stroke-linecap:round;stroke-linejoin:round;stroke-miterlimit:1.8;paint-order:stroke fill markers;stop-color:#000000"
       d="M 54 264.64999 L 50 264.64999 L 50 268.64999 L 54 268.64999 L 54 264.64999 z " /><path
       id="path1712"
       style="fill:#ccced0;fill-opacity:1;stroke-width:1.6;stroke-linecap:round;stroke-linejoin:round;stroke-miterlimit:1.8;paint-order:stroke fill markers;stop-color:#000000"
       d="M 54 260.64999 L 54 264.64999 L 58 264.64999 L 58 260.64999 L 54 260.64999 z " /><path
       id="path1710"
       style="fill:#ccced0;fill-opacity:1;stroke-width:1.6;stroke-linecap:round;stroke-linejoin:round;stroke-miterlimit:1.8;paint-order:stroke fill markers;stop-color:#000000"
       d="M 54 256.64999 L 57.830078 256.64999 L 58 256.64999 L 58 255.64999 C 58 253.98799 56.661992 252.64999 55 252.64999 L 54 252.64999 L 54 252.81991 L 54 256.64999 z " /><path
       id="path1708"
       style="fill:#ccced0;fill-opacity:1;stroke-width:1.6;stroke-linecap:round;stroke-linejoin:round;stroke-miterlimit:1.8;paint-order:stroke fill markers;stop-color:#000000"
       d="M 50 256.64999 L 50 260.64999 L 54 260.64999 L 54 256.64999 L 50 256.64999 z " /><path
       id="path1706"
       style="fill:#ccced0;fill-opacity:1;stroke-width:1.6;stroke-linecap:round;stroke-linejoin:round;stroke-miterlimit:1.8;paint-order:stroke fill markers;stop-color:#000000"
       d="M 46 256.64999 L 50 256.64999 L 50 252.64999 L 46 252.64999 L 46 256.64999 z " /><path
       id="path1704"
       style="fill:#ccced0;fill-opacity:1;stroke-width:1.6;stroke-linecap:round;stroke-linejoin:round;stroke-miterlimit:1.8;paint-order:stroke fill markers;stop-color:#000000"
       d="M 42 256.64999 L 42 260.64999 L 46 260.64999 L 46 256.64999 L 42 256.64999 z " /><path
       id="path1702"
       style="fill:#ccced0;fill-opacity:1;stroke-width:1.6;stroke-linecap:round;stroke-linejoin:round;stroke-miterlimit:1.8;paint-order:stroke fill markers;stop-color:#000000"
       d="M 38 256.64999 L 42 256.64999 L 42 252.64999 L 38 252.64999 L 38 256.64999 z " /><path
       id="path1700"
       style="fill:#ccced0;fill-opacity:1;stroke-width:1.6;stroke-linecap:round;stroke-linejoin:round;stroke-miterlimit:1.8;paint-order:stroke fill markers;stop-color:#000000"
       d="M 34 256.64999 L 34 260.64999 L 38 260.64999 L 38 256.64999 L 34 256.64999 z " /><path
       id="path1698"
       style="fill:#ccced0;fill-opacity:1;stroke-width:1.6;stroke-linecap:round;stroke-linejoin:round;stroke-miterlimit:1.8;paint-order:stroke fill markers;stop-color:#000000"
       d="M 30 256.64999 L 34 256.64999 L 34 252.64999 L 30 252.64999 L 30 256.64999 z " /><path
       id="path1696"
       style="fill:#ccced0;fill-opacity:1;stroke-width:1.6;stroke-linecap:round;stroke-linejoin:round;stroke-miterlimit:1.8;paint-order:stroke fill markers;stop-color:#000000"
       d="M 26 256.64999 L 26 260.64999 L 30 260.64999 L 30 256.64999 L 26 256.64999 z " /><path
       id="path1694"
       style="fill:#ccced0;fill-opacity:1;stroke-width:1.6;stroke-linecap:round;stroke-linejoin:round;stroke-miterlimit:1.8;paint-order:stroke fill markers;stop-color:#000000"
       d="M 22 256.64999 L 26 256.64999 L 26 252.64999 L 22 252.64999 L 22 256.64999 z " /><path
       id="path1692"
       style="fill:#ccced0;fill-opacity:1;stroke-width:1.6;stroke-linecap:round;stroke-linejoin:round;stroke-miterlimit:1.8;paint-order:stroke fill markers;stop-color:#000000"
       d="M 18 256.64999 L 18 260.64999 L 22 260.64999 L 22 256.64999 L 18 256.64999 z " /><path
       id="path1690"
       style="fill:#ccced0;fill-opacity:1;stroke-width:1.6;stroke-linecap:round;stroke-linejoin:round;stroke-miterlimit:1.8;paint-order:stroke fill markers;stop-color:#000000"
       d="M 14 256.64999 L 18 256.64999 L 18 252.64999 L 14 252.64999 L 14 256.64999 z " /><path
       id="path1688"
       style="fill:#ccced0;fill-opacity:1;stroke-width:1.6;stroke-linecap:round;stroke-linejoin:round;stroke-miterlimit:1.8;paint-order:stroke fill markers;stop-color:#000000"
       d="M 10 256.64999 L 10 260.64999 L 14 260.64999 L 14 256.64999 L 10 256.64999 z " /><path
       id="path1686"
       style="fill:#ccced0;fill-opacity:1;stroke-width:1.6;stroke-linecap:round;stroke-linejoin:round;stroke-miterlimit:1.8;paint-order:stroke fill markers;stop-color:#000000"
       d="M 9 252.64999 C 7.3380074 252.64999 6 253.98799 6 255.64999 L 6 256.64999 L 6.1699219 256.64999 L 10 256.64999 L 10 252.81991 L 10 252.64999 L 9 252.64999 z " /></g></svg>
