<?xml version="1.0" encoding="UTF-8" standalone="no"?>
<!-- Created with Inkscape (http://www.inkscape.org/) -->

<svg
   width="64"
   height="64"
   viewBox="0 0 64 64"
   version="1.1"
   id="svg1"
   inkscape:version="1.3.2 (091e20ef0f, 2023-11-25, custom)"
   sodipodi:docname="dibujo.svg"
   xmlns:inkscape="http://www.inkscape.org/namespaces/inkscape"
   xmlns:sodipodi="http://sodipodi.sourceforge.net/DTD/sodipodi-0.dtd"
   xmlns:xlink="http://www.w3.org/1999/xlink"
   xmlns="http://www.w3.org/2000/svg"
   xmlns:svg="http://www.w3.org/2000/svg">
  <sodipodi:namedview
     id="namedview1"
     pagecolor="#ffffff"
     bordercolor="#000000"
     borderopacity="0.25"
     inkscape:showpageshadow="false"
     inkscape:pageopacity="0.0"
     inkscape:pagecheckerboard="true"
     inkscape:deskcolor="#d1d1d1"
     inkscape:document-units="px"
     inkscape:zoom="8.210101"
     inkscape:cx="51.5828"
     inkscape:cy="44.213829"
     inkscape:window-width="2560"
     inkscape:window-height="1356"
     inkscape:window-x="0"
     inkscape:window-y="0"
     inkscape:window-maximized="1"
     inkscape:current-layer="layer1" />
  <defs
     id="defs1">
    <linearGradient
       inkscape:collect="always"
       xlink:href="#linearGradient1"
       id="linearGradient2"
       x1="-3.9842515"
       y1="317.12244"
       x2="-3.9842515"
       y2="260.4295"
       gradientUnits="userSpaceOnUse" />
    <linearGradient
       id="linearGradient1"
       inkscape:collect="always">
      <stop
         style="stop-color:#262626;stop-opacity:1;"
         offset="0"
         id="stop1" />
      <stop
         style="stop-color:#333333;stop-opacity:1;"
         offset="1"
         id="stop2" />
    </linearGradient>
    <linearGradient
       inkscape:collect="always"
       xlink:href="#linearGradient5"
       id="linearGradient6"
       x1="0.10140035"
       y1="297.81436"
       x2="0.10140037"
       y2="295.72885"
       gradientUnits="userSpaceOnUse"
       gradientTransform="matrix(3.7795276,0,0,3.7795276,43.616754,-1064.716)" />
    <linearGradient
       id="linearGradient5"
       inkscape:collect="always">
      <stop
         style="stop-color:#52c2fa;stop-opacity:1;"
         offset="0"
         id="stop5" />
      <stop
         style="stop-color:#81d4fa;stop-opacity:1;"
         offset="1"
         id="stop6" />
    </linearGradient>
    <linearGradient
       inkscape:collect="always"
       xlink:href="#linearGradient3"
       id="linearGradient4"
       x1="0.10140037"
       y1="295.72885"
       x2="0.10140037"
       y2="292.55386"
       gradientUnits="userSpaceOnUse"
       gradientTransform="matrix(3.7795276,0,0,3.7795276,43.616754,-1064.716)" />
    <linearGradient
       id="linearGradient3"
       inkscape:collect="always">
      <stop
         style="stop-color:#fcc95f;stop-opacity:1;"
         offset="0"
         id="stop3" />
      <stop
         style="stop-color:#fcd98d;stop-opacity:1;"
         offset="1"
         id="stop4" />
    </linearGradient>
  </defs>
  <g
     inkscape:label="Capa 1"
     inkscape:groupmode="layer"
     id="layer1">
    <g
       id="g1"
       transform="translate(0,-7.99995)">
      <g
         transform="translate(38,-248.65004)"
         id="g1769">
        <path
           sodipodi:nodetypes="sssssssss"
           inkscape:connector-curvature="0"
           style="opacity:1;fill:#1a1a1a;fill-opacity:1;stroke:none;stroke-width:2;stroke-linecap:round;stroke-linejoin:round;stroke-miterlimit:4;stroke-dasharray:none;stroke-dashoffset:0;stroke-opacity:1"
           d="m -29,257.64999 h 46 c 2.216,0 4,1.784 4,4 v 54 c 0,2.216 -1.784,4 -4,4 h -46 c -2.216,0 -4,-1.784 -4,-4 v -54 c 0,-2.216 1.784,-4 4,-4 z"
           id="rect971" />
        <path
           sodipodi:nodetypes="sssssssss"
           inkscape:connector-curvature="0"
           style="opacity:1;fill:url(#linearGradient2);fill-opacity:1;stroke:none;stroke-width:2;stroke-linecap:round;stroke-linejoin:round;stroke-miterlimit:4;stroke-dasharray:none;stroke-dashoffset:0;stroke-opacity:1"
           d="m -29,258.64999 h 46 c 1.662,0 3,1.338 3,3 v 54 c 0,1.662 -1.338,3 -3,3 h -46 c -1.662,0 -3,-1.338 -3,-3 v -54 c 0,-1.662 1.338,-3 3,-3 z"
           id="rect971-2" />
      </g>
      <path
         id="path13016-1-5-3"
         style="fill:#1f1f1f;fill-opacity:1;stroke-width:0.999999"
         d="m 43.999999,40.999955 c -3.877996,0 -7,3.121966 -7,6.999988 0,1.91554 0.761661,3.646715 2,4.908208 V 63.99993 c 2e-5,0.743396 0.782317,1.226911 1.447266,0.894539 l 3.552734,-1.894526 3.552735,1.894526 c 0.664949,0.33222 1.447245,-0.151181 1.447265,-0.894539 V 52.908151 c 1.238339,-1.261493 2,-2.992668 2,-4.908208 0,-3.878022 -3.122004,-6.999988 -7,-6.999988 z" />
      <path
         d="m 40,45.999968 c -0.55226,3.8e-5 -0.99994,0.447723 -1.000001,0.999987 v 15.99961 c 2e-5,0.743395 0.78232,1.22691 1.44727,0.894539 l 3.55273,-1.894942 3.552731,1.894904 C 48.21768,64.226286 48.99998,63.742885 49,62.999527 V 46.999955 c -6e-5,-0.552264 -0.44774,-0.999949 -1,-1.000025 z"
         fill="#42a5f5"
         id="path13016-1-5"
         sodipodi:nodetypes="cccccccccc"
         style="fill:#1aa7ff;fill-opacity:1;stroke-width:0.999999" />
      <path
         id="path1121-5"
         style="fill:#1a1a1a;fill-opacity:1;stroke:none;stroke-width:2;stroke-linecap:round;stroke-linejoin:round;stroke-miterlimit:4;stroke-dasharray:none;stroke-dashoffset:0;stroke-opacity:1"
         d="m 12,19.999955 v 1.999975 h 8 v -1.999975 z m 10,0 v 1.999975 h 3 v -1.999975 z m 5,0 v 1.999975 h 4 v -1.999975 z m 6,0 v 1.999975 h 9 v -1.999975 z m -21,3.999988 v 2.000012 h 4 v -2.000012 z m 6,0 v 2.000012 h 8 v -2.000012 z m 10,0 v 2.000012 h 1 4 2 6 V 23.999943 H 35 33 29 Z M 12,27.99993 v 2.000013 h 3 V 27.99993 Z m 5,0 v 2.000013 h 4 V 27.99993 Z m 6,0 v 2.000013 h 8 V 27.99993 Z m 10,0 v 2.000013 h 2 7 1 V 27.99993 h -1 -7 z m -21,4.000025 v 1.999975 h 11 v -1.999975 z m 13,0 v 1.999975 h 2 2 2 9 2 v -1.999975 h -2 -9 -2 -2 z m -13,3.999988 v 2.000012 h 4 v -2.000012 z m 6,0 v 2.000012 h 8 2 5 2 6 2 v -2.000012 h -2 -6 -2 -5 -2 z m -6,3.999987 v 2.000013 H 23 V 39.99993 Z m 13,0 v 2.000013 h 1 3 6 V 39.99993 h -6 -3 z m -13,4.000025 v 1.999975 h 4 v -1.999975 z m 6,0 v 1.999975 h 9 2 4 v -1.999975 h -4 -2 z m -6,3.999988 v 2.000012 h 8 v -2.000012 z m 10,0 v 2.000012 h 4 8 V 47.999943 H 26 Z M 12,51.99993 v 2.000013 H 23 V 51.99993 Z m 13,0 v 2.000013 h 1 3 6 V 51.99993 h -6 -3 z m -13,4.000025 v 1.999975 h 4 v -1.999975 z m 6,0 v 1.999975 h 9 2 4 v -1.999975 h -4 -2 z m -6,3.999988 v 2.000013 h 8 v -2.000013 z m 10,0 v 2.000013 h 4 8 v -2.000013 h -8 z"
         sodipodi:nodetypes="ccccccccccccccccccccccccccccccccccccccccccccccccccccccccccccccccccccccccccccccccccccccccccccccccccccccccccccccccccccccccccccccccccccccccccccccccccccccccccccccccccccccccccccccccccccccc" />
      <path
         d="m 40,46.999577 -10e-7,15.999572 4,-2.117556 L 48,62.999149 V 46.99954 Z"
         fill="#81d4fa"
         stroke-width="2"
         id="path13018-8-3"
         sodipodi:nodetypes="cccccc"
         style="fill:url(#linearGradient6);fill-opacity:1" />
      <path
         d="m 43.999999,39.999363 c 3.878,0 7,3.122003 7,7.000025 0,3.877947 -3.122,7.000026 -7,7.000026 -3.878,0 -7,-3.122079 -7,-7.000026 0,-3.878022 3.122,-7.000025 7,-7.000025 z"
         fill="#f6ac23"
         stroke-linecap="square"
         stroke-width="4.00003"
         id="path13022-7-5" />
      <path
         d="m 43.999999,40.999388 c 3.324,0 6,2.675944 6,5.999963 0,3.324019 -2.676,6 -6,6 -3.324,0 -6,-2.675981 -6,-6 0,-3.324019 2.676,-5.999963 6,-5.999963 z"
         fill="#fcd277"
         stroke-linecap="square"
         stroke-width="4.8"
         id="path13024-9-6"
         style="fill:url(#linearGradient4)" />
      <path
         id="path1121"
         style="fill:#ffffff;fill-opacity:1;stroke:none;stroke-width:2;stroke-linecap:round;stroke-linejoin:round;stroke-miterlimit:4;stroke-dasharray:none;stroke-dashoffset:0;stroke-opacity:1"
         d="m 12,18.999968 v 1.999974 h 8 v -1.999974 z m 10,0 v 1.999974 h 3 v -1.999974 z m 5,0 v 1.999974 h 4 v -1.999974 z m 6,0 v 1.999974 h 9 v -1.999974 z m -21,3.999987 v 2.000013 h 4 v -2.000013 z m 6,0 v 2.000013 h 8 v -2.000013 z m 10,0 v 2.000013 h 1 4 2 6 v -2.000013 h -6 -2 -4 z m -16,3.999988 v 2.000012 h 3 v -2.000012 z m 5,0 v 2.000012 h 4 v -2.000012 z m 6,0 v 2.000012 h 8 v -2.000012 z m 10,0 v 2.000012 h 2 7 1 v -2.000012 h -1 -7 z m -21,4.000025 v 1.999975 h 11 v -1.999975 z m 13,0 v 1.999975 h 2 2 2 9 2 v -1.999975 h -2 -9 -2 -2 z m -13,3.999987 v 2.000013 h 4 v -2.000013 z m 6,0 v 2.000013 h 8 2 5 2 6 2 v -2.000013 h -2 -6 -2 -5 -2 z m -6,3.999988 v 2.000012 h 11 v -2.000012 z m 13,0 v 2.000012 h 1 3 6 v -2.000012 h -6 -3 z m -13,4.000025 v 1.999975 h 4 v -1.999975 z m 6,0 v 1.999975 h 9 2 4 v -1.999975 h -4 -2 z m -6,3.999987 v 2.000013 h 8 v -2.000013 z m 10,0 v 2.000013 h 4 8 v -2.000013 h -8 z m -10,3.999988 v 2.000012 h 11 v -2.000012 z m 13,0 v 2.000012 h 1 3 6 v -2.000012 h -6 -3 z m -13,4.000025 v 1.999975 h 4 v -1.999975 z m 6,0 v 1.999975 h 9 2 4 v -1.999975 h -4 -2 z m -6,3.999987 v 2.000013 h 8 v -2.000013 z m 10,0 v 2.000013 h 4 8 v -2.000013 h -8 z"
         sodipodi:nodetypes="ccccccccccccccccccccccccccccccccccccccccccccccccccccccccccccccccccccccccccccccccccccccccccccccccccccccccccccccccccccccccccccccccccccccccccccccccccccccccccccccccccccccccccccccccccccccc" />
    </g>
  </g>
</svg>
