<?xml version="1.0" encoding="UTF-8" standalone="no"?>
<!-- Created with Inkscape (http://www.inkscape.org/) -->

<svg
   width="64"
   height="64"
   viewBox="0 0 16.933333 16.933333"
   version="1.1"
   id="svg1399"
   inkscape:version="1.3.2 (091e20ef0f, 2023-11-25, custom)"
   sodipodi:docname="audio-x-speex+ogg.svg"
   xml:space="preserve"
   xmlns:inkscape="http://www.inkscape.org/namespaces/inkscape"
   xmlns:sodipodi="http://sodipodi.sourceforge.net/DTD/sodipodi-0.dtd"
   xmlns:xlink="http://www.w3.org/1999/xlink"
   xmlns="http://www.w3.org/2000/svg"
   xmlns:svg="http://www.w3.org/2000/svg"
   xmlns:rdf="http://www.w3.org/1999/02/22-rdf-syntax-ns#"
   xmlns:cc="http://creativecommons.org/ns#"
   xmlns:dc="http://purl.org/dc/elements/1.1/"><defs
     id="defs1393"><linearGradient
       gradientUnits="userSpaceOnUse"
       y2="252.64999"
       x2="88"
       y1="306.64999"
       x1="88"
       id="linearGradient1149"
       xlink:href="#linearGradient4894"
       inkscape:collect="always"
       gradientTransform="translate(-8,-256.64999)" /><linearGradient
       inkscape:collect="always"
       id="linearGradient4894"><stop
         style="stop-color:#ffcb00;stop-opacity:1;"
         offset="0"
         id="stop4890" /><stop
         style="stop-color:#ffe200;stop-opacity:1;"
         offset="1"
         id="stop4892" /></linearGradient></defs><sodipodi:namedview
     id="base"
     pagecolor="#ffffff"
     bordercolor="#666666"
     borderopacity="1.0"
     inkscape:pageopacity="0.0"
     inkscape:pageshadow="2"
     inkscape:zoom="11.2"
     inkscape:cx="-4.2410714"
     inkscape:cy="27.767857"
     inkscape:document-units="px"
     inkscape:current-layer="layer1"
     showgrid="false"
     inkscape:showpageshadow="false"
     units="px"
     inkscape:window-width="2560"
     inkscape:window-height="1356"
     inkscape:window-x="0"
     inkscape:window-y="0"
     inkscape:window-maximized="1"
     inkscape:pagecheckerboard="0"
     inkscape:deskcolor="#d1d1d1" /><metadata
     id="metadata1396"><rdf:RDF><cc:Work
         rdf:about=""><dc:format>image/svg+xml</dc:format><dc:type
           rdf:resource="http://purl.org/dc/dcmitype/StillImage" /></cc:Work></rdf:RDF></metadata><g
     inkscape:label="Capa 1"
     inkscape:groupmode="layer"
     id="layer1"
     transform="translate(0,-280.06672)"><g
       id="g1638"
       transform="translate(12.442301,-3.4887691)"><g
         inkscape:label="Capa 1"
         id="layer1-6"
         transform="matrix(0.26458333,0,0,0.26458333,-12.442301,217.23768)"><g
           id="g1769"
           transform="translate(38,-6)"><path
             inkscape:connector-curvature="0"
             id="rect971"
             transform="translate(-84,264.64999)"
             d="m 55,-7 c -2.216,0 -4,1.784 -4,4 v 14 4 36 c 0,2.216 1.784,4 4,4 h 46 c 2.216,0 4,-1.784 4,-4 V 15 11 10 -3 c 0,-2.216 -1.784,-4 -4,-4 z"
             style="opacity:1;vector-effect:none;fill:#ff9600;fill-opacity:0.96078432;stroke:none;stroke-width:2;stroke-linecap:round;stroke-linejoin:round;stroke-miterlimit:4;stroke-dasharray:none;stroke-dashoffset:0;stroke-opacity:1" /><path
             inkscape:connector-curvature="0"
             transform="translate(-84,264.64999)"
             id="rect971-2"
             d="m 55,-6 c -1.662,0 -3,1.338 -3,3 v 12 2 3 37 c 0,1.662 1.338,3 3,3 h 46 c 1.662,0 3,-1.338 3,-3 V 14 11 9 -3 c 0,-1.662 -1.338,-3 -3,-3 z"
             style="opacity:1;vector-effect:none;fill:url(#linearGradient1149);fill-opacity:1;stroke:none;stroke-width:2;stroke-linecap:round;stroke-linejoin:round;stroke-miterlimit:4;stroke-dasharray:none;stroke-dashoffset:0;stroke-opacity:1" /></g></g><g
         inkscape:label="Capa 1"
         id="layer1-67"
         transform="matrix(0.26458333,0,0,0.26458333,-12.442301,215.38558)"><g
           transform="translate(-6,-93.00001)"
           id="g1529" /><g
           id="g9421"
           transform="translate(23.999999,-1.569155)"><path
             id="rect4545"
             style="opacity:1;fill:#ffbb00;fill-opacity:1;stroke:none;stroke-width:1;stroke-opacity:1"
             d="M -8.4999991 265.21921 C -9.3309977 265.21921 -9.9999991 265.88824 -9.9999991 266.71921 C -9.9999991 267.55021 -9.3309977 268.21921 -8.4999991 268.21921 C -7.6689997 268.21921 -6.9999991 267.55021 -6.9999991 266.71921 C -6.9999991 265.88824 -7.6689997 265.21921 -8.4999991 265.21921 z M -13.499999 267.21921 C -14.330998 267.21921 -14.999999 267.8882 -14.999999 268.71921 C -14.999999 269.55021 -14.330998 270.21921 -13.499999 270.21921 C -12.669001 270.21921 -11.999999 269.55021 -11.999999 268.71921 C -11.999999 267.8882 -12.669001 267.21921 -13.499999 267.21921 z M -8.4999991 270.21921 C -9.3309977 270.21921 -9.9999991 270.8882 -9.9999991 271.71921 C -9.9999991 272.55021 -9.3309977 273.21921 -8.4999991 273.21921 C -7.6689997 273.21921 -6.9999991 272.55021 -6.9999991 271.71921 C -6.9999991 270.8882 -7.6689997 270.21921 -8.4999991 270.21921 z M -13.499999 272.21921 C -14.330998 272.21921 -14.999999 272.8882 -14.999999 273.71921 C -14.999999 274.55021 -14.330998 275.21921 -13.499999 275.21921 C -12.669001 275.21921 -11.999999 274.55021 -11.999999 273.71921 C -11.999999 272.8882 -12.669001 272.21921 -13.499999 272.21921 z M -13.499999 277.21921 C -14.330998 277.21921 -14.999999 277.88824 -14.999999 278.71921 C -14.999999 279.55021 -14.330998 280.21921 -13.499999 280.21921 C -12.669001 280.21921 -11.999999 279.55021 -11.999999 278.71921 C -11.999999 277.88824 -12.669001 277.21921 -13.499999 277.21921 z M 4.0000008 277.21921 L -0.99999916 279.21921 L -0.99999916 281.21921 L -0.99999916 283.21921 L -0.99999916 285.56491 C -1.4555607 285.34872 -1.9603857 285.21921 -2.4999992 285.21921 C -4.4389972 285.21921 -5.9999991 286.78019 -5.9999991 288.71921 C -5.9999991 290.65822 -4.4389972 292.21921 -2.4999992 292.21921 C -0.56099813 292.21921 1.1217797 290.6544 1.0000008 288.71921 L 1.0000008 282.41843 L 4.0000008 281.21921 L 4.0000008 277.21921 z M 13.000001 280.21921 L 6.0000008 283.21921 L 6.0000008 294.24265 C 4.9901798 293.59772 3.7920615 293.21921 2.5000008 293.21921 C -1.1009936 293.21921 -3.9999991 296.11819 -3.9999991 299.71921 C -3.9999991 303.32018 -1.1009936 306.21921 2.5000008 306.21921 C 6.1009992 306.21921 9.0000008 303.32018 9.0000008 299.71921 C 9.0000008 299.68521 8.9953414 299.65045 8.9941414 299.61569 L 9.0000008 299.6196 L 9.0000008 290.21921 L 9.0000008 288.21921 L 13.000001 286.21921 L 13.000001 280.21921 z M 21.000001 288.21921 L 16.000001 290.21921 L 16.000001 292.21921 L 16.000001 294.21921 L 16.000001 296.56491 C 15.544439 296.34872 15.039614 296.21921 14.500001 296.21921 C 12.561006 296.21921 11.000001 297.7802 11.000001 299.71921 C 11.000001 301.65822 12.561006 303.21921 14.500001 303.21921 C 16.439002 303.21921 18.058845 301.65731 18.000001 299.71921 L 18.000001 293.41843 L 21.000001 292.21921 L 21.000001 288.21921 z M 29.500001 304.21921 C 28.669004 304.21921 28.000001 304.88824 28.000001 305.71921 C 28.000001 306.55021 28.669004 307.21921 29.500001 307.21921 C 30.331001 307.21921 31.000001 306.55021 31.000001 305.71921 C 31.000001 304.88824 30.331001 304.21921 29.500001 304.21921 z M 29.500001 309.21921 C 28.669004 309.21921 28.000001 309.8882 28.000001 310.71921 C 28.000001 311.55021 28.669004 312.21921 29.500001 312.21921 C 30.331001 312.21921 31.000001 311.55021 31.000001 310.71921 C 31.000001 309.8882 30.331001 309.21921 29.500001 309.21921 z M 24.500001 311.21921 C 23.669001 311.21921 23.000001 311.8882 23.000001 312.71921 C 23.000001 313.55021 23.669001 314.21921 24.500001 314.21921 C 25.331001 314.21921 26.000001 313.55021 26.000001 312.71921 C 26.000001 311.8882 25.331001 311.21921 24.500001 311.21921 z M 29.500001 314.21921 C 28.669004 314.21921 28.000001 314.8882 28.000001 315.71921 C 28.000001 316.55021 28.669004 317.21921 29.500001 317.21921 C 30.331001 317.21921 31.000001 316.55021 31.000001 315.71921 C 31.000001 314.8882 30.331001 314.21921 29.500001 314.21921 z M 24.500001 316.21921 C 23.669001 316.21921 23.000001 316.88824 23.000001 317.71921 C 23.000001 318.55021 23.669001 319.21921 24.500001 319.21921 C 25.331001 319.21921 26.000001 318.55021 26.000001 317.71921 C 26.000001 316.88824 25.331001 316.21921 24.500001 316.21921 z " /><path
             id="rect4545-5"
             style="opacity:1;fill:#714500;fill-opacity:1;stroke:none;stroke-width:1;stroke-opacity:1"
             d="M -8.4999991 264.21921 C -9.3309977 264.21921 -9.9999991 264.8882 -9.9999991 265.71921 C -9.9999991 266.55021 -9.3309977 267.21921 -8.4999991 267.21921 C -7.6689997 267.21921 -6.9999991 266.55021 -6.9999991 265.71921 C -6.9999991 264.8882 -7.6689997 264.21921 -8.4999991 264.21921 z M -13.499999 266.21921 C -14.330998 266.21921 -14.999999 266.8882 -14.999999 267.71921 C -14.999999 268.55021 -14.330998 269.21921 -13.499999 269.21921 C -12.669001 269.21921 -11.999999 268.55021 -11.999999 267.71921 C -11.999999 266.8882 -12.669001 266.21921 -13.499999 266.21921 z M -8.4999991 269.21921 C -9.3309977 269.21921 -9.9999991 269.8882 -9.9999991 270.71921 C -9.9999991 271.55021 -9.3309977 272.21921 -8.4999991 272.21921 C -7.6689997 272.21921 -6.9999991 271.55021 -6.9999991 270.71921 C -6.9999991 269.8882 -7.6689997 269.21921 -8.4999991 269.21921 z M -13.499999 271.21921 C -14.330998 271.21921 -14.999999 271.88824 -14.999999 272.71921 C -14.999999 273.55021 -14.330998 274.21921 -13.499999 274.21921 C -12.669001 274.21921 -11.999999 273.55021 -11.999999 272.71921 C -11.999999 271.88824 -12.669001 271.21921 -13.499999 271.21921 z M -13.499999 276.21921 C -14.330998 276.21921 -14.999999 276.8882 -14.999999 277.71921 C -14.999999 278.55021 -14.330998 279.21921 -13.499999 279.21921 C -12.669001 279.21921 -11.999999 278.55021 -11.999999 277.71921 C -11.999999 276.8882 -12.669001 276.21921 -13.499999 276.21921 z M 4.0000008 276.21921 L -0.99999916 278.21921 L -0.99999916 280.21921 L -0.99999916 282.21921 L -0.99999916 284.56491 C -1.4555607 284.34872 -1.9603857 284.21921 -2.4999992 284.21921 C -4.4389972 284.21921 -5.9999991 285.7802 -5.9999991 287.71921 C -5.9999991 289.65822 -4.4389972 291.21921 -2.4999992 291.21921 C -0.56099813 291.21921 1.0000008 289.65822 1.0000008 287.71921 L 1.0000008 281.41843 L 4.0000008 280.21921 L 4.0000008 276.21921 z M 13.000001 279.21921 L 6.0000008 282.21921 L 6.0000008 293.24265 C 4.9901798 292.59772 3.7920615 292.21921 2.5000008 292.21921 C -1.1009936 292.21921 -3.9999991 295.11819 -3.9999991 298.71921 C -3.9999991 302.32018 -1.1009936 305.21921 2.5000008 305.21921 C 6.1010002 305.21921 9.0000008 302.32018 9.0000008 298.71921 C 9.0000008 298.68521 8.9953414 298.65045 8.9941414 298.61569 L 9.0000008 298.6196 L 9.0000008 289.21921 L 9.0000008 287.21921 L 13.000001 285.21921 L 13.000001 279.21921 z M 21.000001 287.21921 L 16.000001 289.21921 L 16.000001 291.21921 L 16.000001 293.21921 L 16.000001 295.56491 C 15.544439 295.34872 15.039614 295.21921 14.500001 295.21921 C 12.561006 295.21921 11.000001 296.7802 11.000001 298.71921 C 11.000001 300.65822 12.561006 302.21921 14.500001 302.21921 C 16.439002 302.21921 18.040049 300.6578 18.000001 298.71921 L 18.000001 292.41843 L 21.000001 291.21921 L 21.000001 287.21921 z M 29.500001 303.21921 C 28.669004 303.21921 28.000001 303.8882 28.000001 304.71921 C 28.000001 305.55021 28.669004 306.21921 29.500001 306.21921 C 30.331001 306.21921 31.000001 305.55021 31.000001 304.71921 C 31.000001 303.8882 30.331001 303.21921 29.500001 303.21921 z M 29.500001 308.21921 C 28.669004 308.21921 28.000001 308.8882 28.000001 309.71921 C 28.000001 310.55021 28.669004 311.21921 29.500001 311.21921 C 30.331001 311.21921 31.000001 310.55021 31.000001 309.71921 C 31.000001 308.8882 30.331001 308.21921 29.500001 308.21921 z M 24.500001 310.21921 C 23.669001 310.21921 23.000001 310.88824 23.000001 311.71921 C 23.000001 312.55021 23.669001 313.21921 24.500001 313.21921 C 25.331001 313.21921 26.000001 312.55021 26.000001 311.71921 C 26.000001 310.88824 25.331001 310.21921 24.500001 310.21921 z M 29.500001 313.21921 C 28.669004 313.21921 28.000001 313.88824 28.000001 314.71921 C 28.000001 315.55021 28.669004 316.21921 29.500001 316.21921 C 30.331001 316.21921 31.000001 315.55021 31.000001 314.71921 C 31.000001 313.88824 30.331001 313.21921 29.500001 313.21921 z M 24.500001 315.21921 C 23.669001 315.21921 23.000001 315.8882 23.000001 316.71921 C 23.000001 317.55021 23.669001 318.21921 24.500001 318.21921 C 25.331001 318.21921 26.000001 317.55021 26.000001 316.71921 C 26.000001 315.8882 25.331001 315.21921 24.500001 315.21921 z " /></g></g></g></g></svg>
