<?xml version="1.0" encoding="UTF-8" standalone="no"?>
<!-- Created with Inkscape (http://www.inkscape.org/) -->

<svg
   width="64"
   height="64"
   viewBox="0 0 16.933333 16.933333"
   version="1.1"
   id="svg1399"
   inkscape:version="1.3.2 (091e20ef0f, 2023-11-25, custom)"
   sodipodi:docname="audio-prs.sid.svg"
   xml:space="preserve"
   xmlns:inkscape="http://www.inkscape.org/namespaces/inkscape"
   xmlns:sodipodi="http://sodipodi.sourceforge.net/DTD/sodipodi-0.dtd"
   xmlns:xlink="http://www.w3.org/1999/xlink"
   xmlns="http://www.w3.org/2000/svg"
   xmlns:svg="http://www.w3.org/2000/svg"
   xmlns:rdf="http://www.w3.org/1999/02/22-rdf-syntax-ns#"
   xmlns:cc="http://creativecommons.org/ns#"
   xmlns:dc="http://purl.org/dc/elements/1.1/"><defs
     id="defs1393"><linearGradient
       id="linearGradient15"
       inkscape:collect="always"><stop
         style="stop-color:#263238;stop-opacity:1;"
         offset="0"
         id="stop15" /><stop
         style="stop-color:#37474f;stop-opacity:1;"
         offset="1"
         id="stop16" /></linearGradient><linearGradient
       id="linearGradient13"
       inkscape:collect="always"><stop
         style="stop-color:#e4efef;stop-opacity:1;"
         offset="0"
         id="stop13" /><stop
         style="stop-color:#fbfbfb;stop-opacity:1;"
         offset="1"
         id="stop14" /></linearGradient><linearGradient
       id="linearGradient11"
       inkscape:collect="always"><stop
         style="stop-color:#ffd100;stop-opacity:1;"
         offset="0"
         id="stop11" /><stop
         style="stop-color:#ffde00;stop-opacity:1;"
         offset="1"
         id="stop12" /></linearGradient><linearGradient
       id="linearGradient8"
       inkscape:collect="always"><stop
         style="stop-color:#33a369;stop-opacity:1;"
         offset="0"
         id="stop8" /><stop
         style="stop-color:#4dcd87;stop-opacity:1;"
         offset="1"
         id="stop9" /></linearGradient><linearGradient
       id="linearGradient5"
       inkscape:collect="always"><stop
         style="stop-color:#ff5a26;stop-opacity:1;"
         offset="0"
         id="stop5" /><stop
         style="stop-color:#ff875c;stop-opacity:1;"
         offset="1"
         id="stop6" /></linearGradient><linearGradient
       id="linearGradient3"
       inkscape:collect="always"><stop
         style="stop-color:#e4efef;stop-opacity:1;"
         offset="0"
         id="stop3" /><stop
         style="stop-color:#fbfbfb;stop-opacity:1;"
         offset="1"
         id="stop4" /></linearGradient><linearGradient
       id="linearGradient1"
       inkscape:collect="always"><stop
         style="stop-color:#282e39;stop-opacity:1;"
         offset="0"
         id="stop1" /><stop
         style="stop-color:#333b49;stop-opacity:1;"
         offset="1"
         id="stop2" /></linearGradient><linearGradient
       inkscape:collect="always"
       xlink:href="#linearGradient1"
       id="linearGradient2"
       x1="8.7312498"
       y1="292.50214"
       x2="8.7312498"
       y2="289.85629"
       gradientUnits="userSpaceOnUse" /><linearGradient
       inkscape:collect="always"
       xlink:href="#linearGradient3"
       id="linearGradient4"
       x1="8.4562588"
       y1="294.89087"
       x2="8.4666662"
       y2="289.85629"
       gradientUnits="userSpaceOnUse" /><linearGradient
       inkscape:collect="always"
       xlink:href="#linearGradient5"
       id="linearGradient6"
       x1="3.4395833"
       y1="287.73962"
       x2="3.4395835"
       y2="286.94589"
       gradientUnits="userSpaceOnUse" /><linearGradient
       inkscape:collect="always"
       xlink:href="#linearGradient5"
       id="linearGradient7"
       gradientUnits="userSpaceOnUse"
       x1="3.4395833"
       y1="287.73962"
       x2="3.4395835"
       y2="286.94589"
       gradientTransform="translate(-5.34375e-7,-1.8520866)" /><linearGradient
       inkscape:collect="always"
       xlink:href="#linearGradient8"
       id="linearGradient9"
       x1="12.7"
       y1="287.73965"
       x2="12.7"
       y2="286.94589"
       gradientUnits="userSpaceOnUse" /><linearGradient
       inkscape:collect="always"
       xlink:href="#linearGradient8"
       id="linearGradient10"
       gradientUnits="userSpaceOnUse"
       x1="12.7"
       y1="287.73965"
       x2="12.7"
       y2="286.94589"
       gradientTransform="translate(-4.2e-7,-1.8520897)" /><linearGradient
       inkscape:collect="always"
       xlink:href="#linearGradient11"
       id="linearGradient12"
       x1="8.0697918"
       y1="288.00421"
       x2="8"
       y2="285.06671"
       gradientUnits="userSpaceOnUse" /><linearGradient
       inkscape:collect="always"
       xlink:href="#linearGradient13"
       id="linearGradient14"
       x1="3.3072915"
       y1="283.24173"
       x2="3.3072915"
       y2="281.91879"
       gradientUnits="userSpaceOnUse" /><linearGradient
       inkscape:collect="always"
       xlink:href="#linearGradient15"
       id="linearGradient16"
       x1="77.443214"
       y1="52.789349"
       x2="78"
       y2="-6"
       gradientUnits="userSpaceOnUse" /></defs><sodipodi:namedview
     id="base"
     pagecolor="#ffffff"
     bordercolor="#666666"
     borderopacity="1.0"
     inkscape:pageopacity="0.0"
     inkscape:pageshadow="2"
     inkscape:zoom="15.839192"
     inkscape:cx="46.561719"
     inkscape:cy="32.703688"
     inkscape:document-units="px"
     inkscape:current-layer="layer1"
     showgrid="true"
     inkscape:showpageshadow="false"
     units="px"
     inkscape:window-width="2560"
     inkscape:window-height="1356"
     inkscape:window-x="0"
     inkscape:window-y="0"
     inkscape:window-maximized="1"
     inkscape:pagecheckerboard="0"
     inkscape:deskcolor="#d1d1d1"
     showguides="true"><inkscape:grid
       type="xygrid"
       id="grid27181"
       originx="0"
       originy="0"
       spacingy="1"
       spacingx="1"
       units="px"
       visible="true" /><sodipodi:guide
       position="5.2916666,7.1437499"
       orientation="0,-1"
       id="guide27793"
       inkscape:locked="false" /></sodipodi:namedview><metadata
     id="metadata1396"><rdf:RDF><cc:Work
         rdf:about=""><dc:format>image/svg+xml</dc:format><dc:type
           rdf:resource="http://purl.org/dc/dcmitype/StillImage" /></cc:Work></rdf:RDF></metadata><g
     inkscape:label="Capa 1"
     inkscape:groupmode="layer"
     id="layer1"
     transform="translate(0,-280.06672)"><g
       id="g1638"
       transform="translate(12.442301,-3.4887691)"><g
         inkscape:label="Capa 1"
         id="layer1-6"
         transform="matrix(0.26458333,0,0,0.26458333,-12.442301,217.23768)"><g
           id="g1769"
           transform="translate(38,-6)"><path
             inkscape:connector-curvature="0"
             id="rect971"
             transform="translate(-84,264.64999)"
             d="m 55,-7 c -2.216,0 -4,1.784 -4,4 v 14 4 36 c 0,2.216 1.784,4 4,4 h 46 c 2.216,0 4,-1.784 4,-4 V 15 11 10 -3 c 0,-2.216 -1.784,-4 -4,-4 z"
             style="opacity:1;vector-effect:none;fill:#1a2226;fill-opacity:1;stroke:none;stroke-width:2;stroke-linecap:round;stroke-linejoin:round;stroke-miterlimit:4;stroke-dasharray:none;stroke-dashoffset:0;stroke-opacity:1" /><path
             inkscape:connector-curvature="0"
             transform="translate(-84,264.64999)"
             id="rect971-2"
             d="m 55,-6 c -1.662,0 -3,1.338 -3,3 v 12 2 3 37 c 0,1.662 1.338,3 3,3 h 46 c 1.662,0 3,-1.338 3,-3 V 14 11 9 -3 c 0,-1.662 -1.338,-3 -3,-3 z"
             style="opacity:1;vector-effect:none;fill:url(#linearGradient16);fill-opacity:1;stroke:none;stroke-width:2;stroke-linecap:round;stroke-linejoin:round;stroke-miterlimit:4;stroke-dasharray:none;stroke-dashoffset:0;stroke-opacity:1" /></g></g></g><rect
       style="fill:#1a2226;fill-opacity:1;stroke-width:0.529167;stroke-linecap:square;stroke-miterlimit:1.8;paint-order:stroke fill markers;stop-color:#000000"
       id="rect27584"
       width="11.377083"
       height="5.8208475"
       x="2.6458333"
       y="289.59171"
       ry="0.26459783" /><path
       id="rect27584-5"
       style="fill:#1a2226;fill-opacity:1;stroke-width:0.529167;stroke-linecap:square;stroke-miterlimit:1.8;paint-order:stroke fill markers;stop-color:#000000"
       d="m 5.2916669,284.82922 c -0.1465792,0 -0.2645833,0.118 -0.2645833,0.26458 v 3.175 c 0,0.14658 0.1180041,0.26459 0.2645833,0.26459 h 6.3499991 c 0.14658,0 0.264584,-0.11801 0.264584,-0.26459 v -3.175 c 0,-0.14658 -0.118004,-0.26458 -0.264584,-0.26458 z m -1.8520833,0.26458 c -0.1465788,0 -0.2645833,0.11801 -0.2645833,0.26459 v 0.79375 c 0,0.14658 0.1180045,0.26458 0.2645833,0.26458 h 0.79375 c 0.1465799,0 0.2645833,-0.118 0.2645833,-0.26458 v -0.79375 c 0,-0.14658 -0.1180034,-0.26459 -0.2645833,-0.26459 z m 9.2604164,0 c -0.146579,0 -0.264584,0.11801 -0.264584,0.26459 v 0.79375 c 0,0.14658 0.118005,0.26458 0.264584,0.26458 h 0.79375 c 0.14658,0 0.264583,-0.118 0.264583,-0.26458 v -0.79375 c 0,-0.14658 -0.118003,-0.26459 -0.264583,-0.26459 z m -9.2604164,1.85209 c -0.1465788,0 -0.2645833,0.118 -0.2645833,0.26458 v 0.79375 c 0,0.14658 0.1180045,0.26458 0.2645833,0.26458 h 0.79375 c 0.1465799,0 0.2645833,-0.118 0.2645833,-0.26458 v -0.79375 c 0,-0.14658 -0.1180034,-0.26458 -0.2645833,-0.26458 z m 9.2604164,0 c -0.146579,0 -0.264584,0.118 -0.264584,0.26458 v 0.79375 c 0,0.14658 0.118005,0.26458 0.264584,0.26458 h 0.79375 c 0.14658,0 0.264583,-0.118 0.264583,-0.26458 v -0.79375 c 0,-0.14658 -0.118003,-0.26458 -0.264583,-0.26458 z m -9.789583,2.91041 c -0.1465871,0 -0.2645834,0.118 -0.2645834,0.26459 v 5.29166 c 10e-8,0.14659 0.1179963,0.26459 0.2645834,0.26459 h 10.847916 c 0.146587,0 0.264583,-0.118 0.264583,-0.26459 v -5.29166 c 0,-0.14659 -0.117996,-0.26459 -0.264583,-0.26459 z" /><path
       id="rect27682-4-4-8"
       style="fill:url(#linearGradient4);fill-opacity:1;stroke-width:0.529167;stroke-linecap:square;stroke-miterlimit:1.8;paint-order:stroke fill markers;stop-color:#000000"
       d="m 2.9104166,289.8563 10e-8,5.29167 h 1.5875 l -1e-7,-5.29167 z m 1.8520833,0 1e-7,5.29167 H 6.35 l -10e-8,-5.29167 z m 1.8520833,0 10e-8,5.29167 h 1.5875 l -10e-8,-5.29167 z m 1.8520833,0 10e-8,5.29167 h 1.5874994 l 0,-5.29167 z m 1.8520835,0 0,5.29167 h 1.5875 l 0,-5.29167 z m 1.852083,0 0,5.29167 h 1.5875 l 0,-5.29167 z"
       sodipodi:nodetypes="cccccccccccccccccccccccccccccc" /><rect
       style="fill:#1a2226;fill-opacity:1;stroke-width:0.529167;stroke-linecap:square;stroke-miterlimit:1.8;paint-order:stroke fill markers;stop-color:#000000"
       id="rect27998"
       width="1.3229166"
       height="3.1749732"
       x="3.96875"
       y="289.59171" /><rect
       style="fill:#1a2226;fill-opacity:1;stroke-width:0.529167;stroke-linecap:square;stroke-miterlimit:1.8;paint-order:stroke fill markers;stop-color:#000000"
       id="rect27998-2"
       width="1.322917"
       height="3.1749732"
       x="5.8208332"
       y="289.59171" /><rect
       style="fill:#1a2226;fill-opacity:1;stroke-width:0.529167;stroke-linecap:square;stroke-miterlimit:1.8;paint-order:stroke fill markers;stop-color:#000000"
       id="rect27998-6"
       width="1.322916"
       height="3.1749732"
       x="11.377084"
       y="289.59174" /><rect
       style="fill:#1a2226;fill-opacity:1;stroke-width:0.529167;stroke-linecap:square;stroke-miterlimit:1.8;paint-order:stroke fill markers;stop-color:#000000"
       id="rect27998-6-2"
       width="1.322916"
       height="3.1749732"
       x="9.5250006"
       y="289.59174" /><rect
       style="fill:#1a2226;fill-opacity:1;stroke-width:0.529167;stroke-linecap:square;stroke-miterlimit:1.8;paint-order:stroke fill markers;stop-color:#000000"
       id="rect27998-9"
       width="1.3229159"
       height="3.1749732"
       x="7.6729164"
       y="289.59171" /><path
       id="rect28231"
       style="fill:#1a2226;stroke-width:0.529167;stroke-linecap:square;stroke-miterlimit:1.8;paint-order:stroke fill markers;stop-color:#000000;fill-opacity:1"
       d="m 6.8791676,281.65424 h 7.6729154 v 0.26459 H 6.8791676 Z" /><path
       id="rect28231-8"
       style="fill:#1a2226;stroke-width:0.529167;stroke-linecap:square;stroke-miterlimit:1.8;paint-order:stroke fill markers;stop-color:#000000;fill-opacity:1"
       d="m 6.8791676,282.18338 h 7.6729154 v 0.2646 H 6.8791676 Z" /><path
       id="rect28231-7"
       style="fill:#1a2226;stroke-width:0.529167;stroke-linecap:square;stroke-miterlimit:1.8;paint-order:stroke fill markers;stop-color:#000000;fill-opacity:1"
       d="m 6.8791676,282.71255 h 7.6729154 v 0.2646 H 6.8791676 Z" /><path
       id="rect28231-8-1"
       style="fill:#1a2226;stroke-width:0.529167;stroke-linecap:square;stroke-miterlimit:1.8;paint-order:stroke fill markers;stop-color:#000000;fill-opacity:1"
       d="m 6.8791676,283.2417 h 7.6729154 v 0.26459 H 6.8791676 Z" /><path
       id="rect28304"
       style="fill:#1a2226;stroke-width:0.529167;stroke-linecap:square;stroke-miterlimit:1.8;paint-order:stroke fill markers;stop-color:#000000;fill-opacity:1"
       d="m 5.4239593,281.65424 c 0.5130271,0 0.9260417,0.41301 0.9260417,0.92604 0,0.51302 -0.4130146,0.92604 -0.9260417,0.92604 -0.5130271,0 -0.9260416,-0.41302 -0.9260416,-0.92604 0,-0.51303 0.4130145,-0.92604 0.9260416,-0.92604 z" /><path
       id="rect28304-7"
       style="fill:#1a2226;stroke-width:0.529167;stroke-linecap:square;stroke-miterlimit:1.8;paint-order:stroke fill markers;stop-color:#000000;fill-opacity:1"
       d="m 3.3072928,281.65424 c 0.513027,0 0.9260416,0.41301 0.9260416,0.92604 0,0.51302 -0.4130146,0.92604 -0.9260416,0.92604 -0.5130271,0 -0.9260417,-0.41302 -0.9260417,-0.92604 0,-0.51303 0.4130146,-0.92604 0.9260417,-0.92604 z" /><path
       id="rect28344"
       style="fill:url(#linearGradient14);fill-opacity:1;stroke-width:0.529167;stroke-linecap:square;stroke-miterlimit:1.8;paint-order:stroke fill markers;stop-color:#000000"
       d="M 3.3072916 281.9188 C 2.9408441 281.9188 2.6458333 282.21381 2.6458333 282.58026 C 2.6458333 282.94671 2.9408441 283.24172 3.3072916 283.24172 C 3.6737391 283.24172 3.9687499 282.94671 3.9687499 282.58026 C 3.9687499 282.21381 3.6737391 281.9188 3.3072916 281.9188 z M 5.4239582 281.9188 C 5.0575107 281.9188 4.7624999 282.21381 4.7624999 282.58026 C 4.7624999 282.94671 5.0575107 283.24172 5.4239582 283.24172 C 5.7904058 283.24172 6.0854165 282.94671 6.0854165 282.58026 C 6.0854165 282.21381 5.7904058 281.9188 5.4239582 281.9188 z " /><rect
       style="fill:#f79303;fill-opacity:1;stroke-width:0.529167;stroke-linecap:square;stroke-miterlimit:1.8;paint-order:stroke fill markers;stop-color:#000000"
       id="rect28348"
       width="6.8791666"
       height="3.7041667"
       x="5.0270834"
       y="284.56464"
       ry="0.26458368" /><rect
       style="fill:url(#linearGradient12);fill-opacity:1;stroke-width:0.529167;stroke-linecap:square;stroke-miterlimit:1.8;paint-order:stroke fill markers;stop-color:#000000"
       id="rect28350"
       width="6.3499999"
       height="3.175"
       x="5.2916665"
       y="284.82922" /><path
       id="rect28663"
       style="fill:#714500;fill-opacity:1;stroke-width:0.529167;stroke-linecap:square;stroke-miterlimit:1.8;paint-order:stroke fill markers;stop-color:#000000"
       d="M 7.6729165 285.88755 L 7.6729165 287.47505 L 7.4083332 287.47505 L 7.4083332 286.6813 L 7.1437499 286.6813 L 7.1437499 286.41672 L 6.8791665 286.41672 L 6.8791665 286.94589 L 6.6145832 286.94589 L 6.6145832 287.47505 L 6.3499999 287.47505 L 6.3499999 287.21047 L 6.0854165 287.21047 L 6.0854165 287.73964 L 5.8208332 287.73964 L 5.8208332 287.47505 L 5.5562499 287.47505 L 5.5562499 287.73964 L 5.2916666 287.73964 L 5.2916666 288.00422 L 5.5562499 288.00422 L 5.8208332 288.00422 L 6.0854165 288.00422 L 6.3499999 288.00422 L 6.6145832 288.00422 L 6.8791665 288.00422 L 7.1437499 288.00422 L 7.4083332 288.00422 L 7.6729165 288.00422 L 7.9374998 288.00422 L 8.2020832 288.00422 L 8.4666665 288.00422 L 8.7312498 288.00422 L 8.9958332 288.00422 L 9.2604165 288.00422 L 9.5249998 288.00422 L 9.7895831 288.00422 L 10.054166 288.00422 L 10.31875 288.00422 L 10.583333 288.00422 L 10.847916 288.00422 L 11.1125 288.00422 L 11.377083 288.00422 L 11.641666 288.00422 L 11.641666 286.6813 L 11.377083 286.6813 L 11.377083 287.47505 L 11.1125 287.47505 L 11.1125 286.41672 L 10.847916 286.41672 L 10.847916 285.88755 L 10.583333 285.88755 L 10.583333 286.94589 L 10.31875 286.94589 L 10.31875 287.47505 L 10.054166 287.47505 L 10.054166 287.21047 L 9.7895831 287.21047 L 9.7895831 286.15214 L 9.5249998 286.15214 L 9.5249998 286.94589 L 9.2604165 286.94589 L 9.2604165 286.6813 L 8.9958332 286.6813 L 8.9958332 287.73964 L 8.7312498 287.73964 L 8.7312498 286.41672 L 8.4666665 286.41672 L 8.4666665 287.21047 L 8.2020832 287.21047 L 8.2020832 286.6813 L 7.9374998 286.6813 L 7.9374998 285.88755 L 7.6729165 285.88755 z " /><path
       id="rect29021"
       style="fill:#278c5a;stroke-width:0.529167;stroke-linecap:square;stroke-miterlimit:1.8;paint-order:stroke fill markers;stop-color:#000000;fill-opacity:1"
       d="m 12.7,284.82922 h 0.793749 c 0.14658,0 0.264584,0.11801 0.264584,0.26459 v 0.79375 c 0,0.14658 -0.118004,0.26458 -0.264584,0.26458 H 12.7 c -0.146579,0 -0.264584,-0.118 -0.264584,-0.26458 v -0.79375 c 0,-0.14658 0.118005,-0.26459 0.264584,-0.26459 z" /><path
       id="rect29021-2"
       style="fill:#278c5a;stroke-width:0.529167;stroke-linecap:square;stroke-miterlimit:1.8;paint-order:stroke fill markers;stop-color:#000000;fill-opacity:1"
       d="m 12.7,286.6813 h 0.793749 c 0.14658,0 0.264584,0.11801 0.264584,0.26459 v 0.79375 c 0,0.14658 -0.118004,0.26458 -0.264584,0.26458 H 12.7 c -0.146579,0 -0.264584,-0.118 -0.264584,-0.26458 v -0.79375 c 0,-0.14658 0.118005,-0.26459 0.264584,-0.26459 z" /><path
       id="rect29397"
       style="fill:url(#linearGradient9);stroke-width:0.529167;stroke-linecap:square;stroke-miterlimit:1.8;paint-order:stroke fill markers;stop-color:#000000"
       d="m 12.7,286.94589 h 0.79375 v 0.79375 H 12.7 Z" /><path
       id="rect29397-3"
       style="fill:url(#linearGradient10);stroke-width:0.529167;stroke-linecap:square;stroke-miterlimit:1.8;paint-order:stroke fill markers;stop-color:#000000"
       d="m 12.699999,285.0938 h 0.79375 v 0.79375 h -0.79375 z" /><path
       id="rect29021-1"
       style="fill:#dd4d25;stroke-width:0.529167;stroke-linecap:square;stroke-miterlimit:1.8;paint-order:stroke fill markers;stop-color:#000000;fill-opacity:1"
       d="m 3.4395834,284.8292 h 0.793749 c 0.14658,0 0.264584,0.11801 0.264584,0.26459 v 0.79375 c 0,0.14658 -0.118004,0.26458 -0.264584,0.26458 h -0.793749 c -0.146579,0 -0.264584,-0.118 -0.264584,-0.26458 v -0.79375 c 0,-0.14658 0.118005,-0.26459 0.264584,-0.26459 z" /><path
       id="rect29021-2-5"
       style="fill:#dd4d25;stroke-width:0.529167;stroke-linecap:square;stroke-miterlimit:1.8;paint-order:stroke fill markers;stop-color:#000000;fill-opacity:1"
       d="m 3.4395834,286.68128 h 0.793749 c 0.14658,0 0.264584,0.11801 0.264584,0.26459 v 0.79375 c 0,0.14658 -0.118004,0.26458 -0.264584,0.26458 h -0.793749 c -0.146579,0 -0.264584,-0.118 -0.264584,-0.26458 v -0.79375 c 0,-0.14658 0.118005,-0.26459 0.264584,-0.26459 z" /><path
       id="rect29397-4"
       style="fill:url(#linearGradient6);stroke-width:0.529167;stroke-linecap:square;stroke-miterlimit:1.8;paint-order:stroke fill markers;stop-color:#000000;fill-opacity:1"
       d="m 3.4395834,286.94587 h 0.79375 v 0.79375 h -0.79375 z" /><path
       id="rect29397-4-7"
       style="fill:url(#linearGradient7);fill-opacity:1;stroke-width:0.529167;stroke-linecap:square;stroke-miterlimit:1.8;paint-order:stroke fill markers;stop-color:#000000"
       d="m 3.4395829,285.09378 h 0.79375 v 0.79375 h -0.79375 z" /><path
       id="rect28069"
       style="fill:url(#linearGradient2);fill-opacity:1;stroke-width:0.529167;stroke-linecap:square;stroke-miterlimit:1.8;paint-order:stroke fill markers;stop-color:#000000"
       d="M 4.2333332 289.8563 L 4.2333332 292.50214 L 5.0270832 292.50214 L 5.0270832 289.8563 L 4.2333332 289.8563 z M 6.0854165 289.8563 L 6.0854165 292.50214 L 6.8791665 292.50214 L 6.8791665 289.8563 L 6.0854165 289.8563 z M 7.9374998 289.8563 L 7.9374998 292.50214 L 8.7312498 292.50214 L 8.7312498 289.8563 L 7.9374998 289.8563 z M 9.7895831 289.8563 L 9.7895831 292.50214 L 10.583333 292.50214 L 10.583333 289.8563 L 9.7895831 289.8563 z M 11.641666 289.8563 L 11.641666 292.50214 L 12.435416 292.50214 L 12.435416 289.8563 L 11.641666 289.8563 z " /></g></svg>
