<?xml version="1.0" encoding="UTF-8" standalone="no"?>
<!-- Created with Inkscape (http://www.inkscape.org/) -->

<svg
   width="64"
   height="64"
   viewBox="0 0 16.933333 16.933333"
   version="1.1"
   id="svg5"
   inkscape:version="1.3.2 (091e20ef0f, 2023-11-25, custom)"
   sodipodi:docname="x-media-podcast.svg"
   xml:space="preserve"
   xmlns:inkscape="http://www.inkscape.org/namespaces/inkscape"
   xmlns:sodipodi="http://sodipodi.sourceforge.net/DTD/sodipodi-0.dtd"
   xmlns:xlink="http://www.w3.org/1999/xlink"
   xmlns="http://www.w3.org/2000/svg"
   xmlns:svg="http://www.w3.org/2000/svg"><sodipodi:namedview
     id="namedview7"
     pagecolor="#ffffff"
     bordercolor="#000000"
     borderopacity="0.25"
     inkscape:showpageshadow="false"
     inkscape:pageopacity="0.0"
     inkscape:pagecheckerboard="0"
     inkscape:deskcolor="#d1d1d1"
     inkscape:document-units="px"
     showgrid="true"
     inkscape:zoom="14.481547"
     inkscape:cx="40.15455"
     inkscape:cy="31.902669"
     inkscape:window-width="2560"
     inkscape:window-height="1356"
     inkscape:window-x="0"
     inkscape:window-y="0"
     inkscape:window-maximized="1"
     inkscape:current-layer="layer1"><inkscape:grid
       type="xygrid"
       id="grid290"
       originx="0"
       originy="0"
       spacingy="1"
       spacingx="1"
       units="px"
       visible="true" /></sodipodi:namedview><defs
     id="defs2"><linearGradient
       id="linearGradient1"
       inkscape:collect="always"><stop
         style="stop-color:#5967b4;stop-opacity:1;"
         offset="0"
         id="stop1" /><stop
         style="stop-color:#7683ca;stop-opacity:1;"
         offset="1"
         id="stop2" /></linearGradient><style
       id="current-color-scheme"
       type="text/css">
      .ColorScheme-Text {
        color:#122036;
      }
      </style><style
       id="current-color-scheme-2"
       type="text/css">
      .ColorScheme-Text {
        color:#122036;
      }
      </style><style
       id="current-color-scheme-0"
       type="text/css">
      .ColorScheme-Text {
        color:#122036;
      }
      </style><style
       type="text/css"
       id="current-color-scheme-3">
      .ColorScheme-Text {
        color:#36404d;
      }
      </style><style
       type="text/css"
       id="current-color-scheme-67">
      .ColorScheme-Text {
        color:#122036;
      }
      </style><style
       type="text/css"
       id="current-color-scheme-7">
      .ColorScheme-Text {
        color:#122036;
      }
      </style><style
       type="text/css"
       id="current-color-scheme-5">
      .ColorScheme-Text {
        color:#122036;
      }
      </style><style
       type="text/css"
       id="current-color-scheme-6">
      .ColorScheme-Text {
        color:#122036;
      }
      </style><style
       type="text/css"
       id="current-color-scheme-1">
      .ColorScheme-Text {
        color:#122036;
      }
      </style><style
       id="current-color-scheme-10"
       type="text/css">
      .ColorScheme-Text {
        color:#122036;
      }
      </style><style
       id="current-color-scheme-5-7"
       type="text/css">
      .ColorScheme-Text {
        color:#122036;
      }
      </style><style
       id="current-color-scheme-1-2"
       type="text/css">
      .ColorScheme-Text {
        color:#122036;
      }
      </style><style
       type="text/css"
       id="current-color-scheme-10-9">
      .ColorScheme-Text {
        color:#122036;
      }
      </style><linearGradient
       inkscape:collect="always"
       xlink:href="#linearGradient1"
       id="linearGradient2"
       x1="8"
       y1="16"
       x2="8"
       y2="1"
       gradientUnits="userSpaceOnUse" /></defs><g
     inkscape:label="Capa 1"
     inkscape:groupmode="layer"
     id="layer1"><path
       style="fill:#4d599e;fill-opacity:1;stroke:none;stroke-width:0.529167;stroke-linecap:round;stroke-linejoin:round;stroke-miterlimit:4;stroke-dasharray:none;stroke-dashoffset:0;stroke-opacity:1"
       d="m 2.3812492,0.26458329 c -0.5863167,0 -1.0583334,0.47201666 -1.0583334,1.05833331 v 3.7041666 1.0583333 9.5249995 c 0,0.586317 0.4720167,1.058334 1.0583334,1.058334 H 14.552082 c 0.586317,0 1.058334,-0.472017 1.058334,-1.058334 V 6.0854165 5.0270832 4.7624999 1.3229166 c 0,-0.58631665 -0.472017,-1.05833331 -1.058334,-1.05833331 z"
       id="rect971"
       inkscape:connector-curvature="0" /><path
       style="fill:url(#linearGradient2);fill-opacity:1;stroke:none;stroke-width:0.529167;stroke-linecap:round;stroke-linejoin:round;stroke-miterlimit:4;stroke-dasharray:none;stroke-dashoffset:0;stroke-opacity:1"
       d="m 2.3812492,0.52916662 c -0.4397375,0 -0.79375,0.3540125 -0.79375,0.79374998 v 3.175 0.5291666 0.79375 9.7895828 c 0,0.439738 0.3540125,0.79375 0.79375,0.79375 H 14.552082 c 0.439738,0 0.79375,-0.354012 0.79375,-0.79375 v -9.7895828 -0.79375 -0.5291666 -3.175 c 0,-0.43973748 -0.354012,-0.79374998 -0.79375,-0.79374998 z"
       id="rect971-2"
       inkscape:connector-curvature="0" /><path
       style="fill:#4d599e;fill-opacity:1;stroke:none;stroke-width:1.05833;stroke-linecap:round;stroke-linejoin:round;stroke-miterlimit:4;stroke-dasharray:none;stroke-dashoffset:0;stroke-opacity:1"
       d="m 8.4666674,4.7624999 c -1.0260542,0 -1.8520834,0.82603 -1.8520834,1.85208 v 0.26459 h 0.79375 v 0.26458 h -0.79375 v 0.26458 h 0.79375 v 0.26459 h -0.79375 v 0.26458 h 0.79375 v 0.26458 h -0.79375 c 0,1.02606 0.8260292,1.8520891 1.8520834,1.8520891 1.0260541,0 1.8520836,-0.8260291 1.8520836,-1.8520891 H 9.5250007 v -0.26458 h 0.7937503 v -0.26458 H 9.5250007 v -0.26459 h 0.7937503 v -0.26458 H 9.5250007 v -0.26458 h 0.7937503 v -0.26459 c 0,-1.02605 -0.8260295,-1.85208 -1.8520836,-1.85208 z m -4.6302081,1.5875 c -0.2198687,0 -0.3968749,0.17701 -0.3968749,0.39687 0,0.21987 0.1770062,0.39688 0.3968749,0.39688 0.2198688,0 0.396875,-0.17701 0.396875,-0.39688 0,-0.21986 -0.1770062,-0.39687 -0.396875,-0.39687 z m 9.2604167,0 c -0.219869,0 -0.396875,0.17701 -0.396875,0.39687 0,0.21987 0.177006,0.39688 0.396875,0.39688 0.219869,0 0.396875,-0.17701 0.396875,-0.39688 0,-0.21986 -0.177006,-0.39687 -0.396875,-0.39687 z m -4.6302086,0.52917 c 0.2931583,0 0.5291666,0.236 0.5291666,0.52916 0,0.29316 -0.2360083,0.52917 -0.5291666,0.52917 -0.2931584,0 -0.5291667,-0.23601 -0.5291667,-0.52917 0,-0.29316 0.2360083,-0.52916 0.5291667,-0.52916 z m -5.9531248,0.26458 c -0.2198688,0 -0.396875,0.17701 -0.396875,0.39687 0,0.21987 0.1770062,0.39688 0.396875,0.39688 0.2198688,0 0.3968751,-0.17701 0.3968751,-0.39688 0,-0.21986 -0.1770063,-0.39687 -0.3968751,-0.39687 z m 11.9062504,0 c -0.219869,0 -0.396875,0.17701 -0.396875,0.39687 0,0.21987 0.177006,0.39688 0.396875,0.39688 0.219868,0 0.396875,-0.17701 0.396875,-0.39688 0,-0.21986 -0.177007,-0.39687 -0.396875,-0.39687 z m -10.5833337,0.52917 c -0.2198687,0 -0.3968749,0.177 -0.3968749,0.39687 0,0.21987 0.1770062,0.39688 0.3968749,0.39688 0.2198688,0 0.396875,-0.17701 0.396875,-0.39688 0,-0.21987 -0.1770062,-0.39687 -0.396875,-0.39687 z m 9.2604167,0 c -0.219869,0 -0.396875,0.177 -0.396875,0.39687 0,0.21987 0.177006,0.39688 0.396875,0.39688 0.219869,0 0.396875,-0.17701 0.396875,-0.39688 0,-0.21987 -0.177006,-0.39687 -0.396875,-0.39687 z m -8.0697919,0.26458 c 0.00122,1.69439 1.2362005,3.1354971 2.9104166,3.3961771 v 1.10174 c 0,0.29315 0.2360083,0.52916 0.5291667,0.52916 0.2931583,0 0.5291666,-0.23601 0.5291666,-0.52916 v -1.10381 c 1.673442,-0.26056 2.908187,-1.7005071 2.910417,-3.3941071 h -0.79375 c 0,1.46125 -1.1845804,2.6458271 -2.6458336,2.6458271 -1.4612536,0 -2.6458333,-1.1845771 -2.6458333,-2.6458271 z m -2.5135415,0.52917 c -0.2198688,0 -0.396875,0.177 -0.396875,0.39687 0,0.21987 0.1770062,0.39688 0.396875,0.39688 0.2198688,0 0.3968751,-0.17701 0.3968751,-0.39688 0,-0.21987 -0.1770063,-0.39687 -0.3968751,-0.39687 z m 11.9062504,0 c -0.219869,0 -0.396875,0.177 -0.396875,0.39687 0,0.21987 0.177006,0.39688 0.396875,0.39688 0.219868,0 0.396875,-0.17701 0.396875,-0.39688 0,-0.21987 -0.177007,-0.39687 -0.396875,-0.39687 z m -10.5833337,0.52916 c -0.2198687,0 -0.3968749,0.17701 -0.3968749,0.39688 0,0.21987 0.1770062,0.39687 0.3968749,0.39687 0.2198688,0 0.396875,-0.177 0.396875,-0.39687 0,-0.21987 -0.1770062,-0.39688 -0.396875,-0.39688 z m 9.2604167,0 c -0.219869,0 -0.396875,0.17701 -0.396875,0.39688 0,0.21987 0.177006,0.39687 0.396875,0.39687 0.219869,0 0.396875,-0.177 0.396875,-0.39687 0,-0.21987 -0.177006,-0.39688 -0.396875,-0.39688 z m -10.5833334,0.79375 c -0.2198688,0 -0.396875,0.17701 -0.396875,0.3968781 0,0.219869 0.1770062,0.396869 0.396875,0.396869 0.2198688,0 0.3968751,-0.177 0.3968751,-0.396869 0,-0.2198681 -0.1770063,-0.3968781 -0.3968751,-0.3968781 z m 11.9062504,0 c -0.219869,0 -0.396875,0.17701 -0.396875,0.3968781 0,0.219869 0.177006,0.396869 0.396875,0.396869 0.219868,0 0.396875,-0.177 0.396875,-0.396869 0,-0.2198681 -0.177007,-0.3968781 -0.396875,-0.3968781 z M 3.8364593,10.318747 c -0.2198687,0 -0.3968749,0.17701 -0.3968749,0.39687 0,0.21987 0.1770062,0.39688 0.3968749,0.39688 0.2198688,0 0.396875,-0.17701 0.396875,-0.39688 0,-0.21986 -0.1770062,-0.39687 -0.396875,-0.39687 z m 9.2604167,0 c -0.219869,0 -0.396875,0.17701 -0.396875,0.39687 0,0.21987 0.177006,0.39688 0.396875,0.39688 0.219869,0 0.396875,-0.17701 0.396875,-0.39688 0,-0.21986 -0.177006,-0.39687 -0.396875,-0.39687 z"
       id="rect4645-1-7"
       inkscape:connector-curvature="0"
       sodipodi:nodetypes="ssccccccccccccsccccccccccccsssssssssssssssssssssssssssssssssssssccssscccsccssssssssssssssssssssssssssssssssssssssss" /><path
       style="fill:#f0f2fb;fill-opacity:1;stroke:none;stroke-width:1.05833;stroke-linecap:round;stroke-linejoin:round;stroke-miterlimit:4;stroke-dasharray:none;stroke-dashoffset:0;stroke-opacity:1"
       d="m 8.4666674,4.4979309 c -1.0260542,0 -1.8520834,0.82603 -1.8520834,1.85208 v 0.26459 h 0.79375 v 0.26458 h -0.79375 v 0.26458 h 0.79375 v 0.26459 h -0.79375 v 0.26458 h 0.79375 v 0.26458 h -0.79375 c 0,1.02606 0.8260292,1.85209 1.8520834,1.85209 1.0260541,0 1.8520836,-0.82603 1.8520836,-1.85209 H 9.5250007 v -0.26458 h 0.7937503 v -0.26458 H 9.5250007 v -0.26459 h 0.7937503 v -0.26458 H 9.5250007 v -0.26458 h 0.7937503 v -0.26459 c 0,-1.02605 -0.8260295,-1.85208 -1.8520836,-1.85208 z m -4.6302081,1.5875 c -0.2198687,0 -0.3968749,0.17701 -0.3968749,0.39687 0,0.21987 0.1770062,0.39688 0.3968749,0.39688 0.2198688,0 0.396875,-0.17701 0.396875,-0.39688 0,-0.21986 -0.1770062,-0.39687 -0.396875,-0.39687 z m 9.2604167,0 c -0.219869,0 -0.396875,0.17701 -0.396875,0.39687 0,0.21987 0.177006,0.39688 0.396875,0.39688 0.219869,0 0.396875,-0.17701 0.396875,-0.39688 0,-0.21986 -0.177006,-0.39687 -0.396875,-0.39687 z m -4.6302086,0.52917 c 0.2931583,0 0.5291666,0.236 0.5291666,0.52916 0,0.29316 -0.2360083,0.52917 -0.5291666,0.52917 -0.2931584,0 -0.5291667,-0.23601 -0.5291667,-0.52917 0,-0.29316 0.2360083,-0.52916 0.5291667,-0.52916 z m -5.9531248,0.26458 c -0.2198688,0 -0.396875,0.17701 -0.396875,0.39687 0,0.21987 0.1770062,0.39688 0.396875,0.39688 0.2198688,0 0.3968751,-0.17701 0.3968751,-0.39688 0,-0.21986 -0.1770063,-0.39687 -0.3968751,-0.39687 z m 11.9062504,0 c -0.219869,0 -0.396875,0.17701 -0.396875,0.39687 0,0.21987 0.177006,0.39688 0.396875,0.39688 0.219868,0 0.396875,-0.17701 0.396875,-0.39688 0,-0.21986 -0.177007,-0.39687 -0.396875,-0.39687 z m -10.5833337,0.52917 c -0.2198687,0 -0.3968749,0.177 -0.3968749,0.39687 0,0.21987 0.1770062,0.39688 0.3968749,0.39688 0.2198688,0 0.396875,-0.17701 0.396875,-0.39688 0,-0.21987 -0.1770062,-0.39687 -0.396875,-0.39687 z m 9.2604167,0 c -0.219869,0 -0.396875,0.177 -0.396875,0.39687 0,0.21987 0.177006,0.39688 0.396875,0.39688 0.219869,0 0.396875,-0.17701 0.396875,-0.39688 0,-0.21987 -0.177006,-0.39687 -0.396875,-0.39687 z m -8.0697919,0.26458 c 0.00122,1.69439 1.2362005,3.1355001 2.9104166,3.3961801 v 1.10174 c 0,0.29315 0.2360083,0.52916 0.5291667,0.52916 0.2931583,0 0.5291666,-0.23601 0.5291666,-0.52916 v -1.10381 c 1.673442,-0.26056 2.908187,-1.7005101 2.910417,-3.3941101 h -0.79375 c 0,1.46125 -1.1845804,2.6458301 -2.6458336,2.6458301 -1.4612536,0 -2.6458333,-1.1845801 -2.6458333,-2.6458301 z m -2.5135415,0.52917 c -0.2198688,0 -0.396875,0.177 -0.396875,0.39687 0,0.21987 0.1770062,0.39688 0.396875,0.39688 0.2198688,0 0.3968751,-0.17701 0.3968751,-0.39688 0,-0.21987 -0.1770063,-0.39687 -0.3968751,-0.39687 z m 11.9062504,0 c -0.219869,0 -0.396875,0.177 -0.396875,0.39687 0,0.21987 0.177006,0.39688 0.396875,0.39688 0.219868,0 0.396875,-0.17701 0.396875,-0.39688 0,-0.21987 -0.177007,-0.39687 -0.396875,-0.39687 z m -10.5833337,0.52916 c -0.2198687,0 -0.3968749,0.17701 -0.3968749,0.39688 0,0.21987 0.1770062,0.39687 0.3968749,0.39687 0.2198688,0 0.396875,-0.177 0.396875,-0.39687 0,-0.21987 -0.1770062,-0.39688 -0.396875,-0.39688 z m 9.2604167,0 c -0.219869,0 -0.396875,0.17701 -0.396875,0.39688 0,0.21987 0.177006,0.39687 0.396875,0.39687 0.219869,0 0.396875,-0.177 0.396875,-0.39687 0,-0.21987 -0.177006,-0.39688 -0.396875,-0.39688 z m -10.5833334,0.79375 c -0.2198688,0 -0.396875,0.17701 -0.396875,0.39688 0,0.2198701 0.1770062,0.3968701 0.396875,0.3968701 0.2198688,0 0.3968751,-0.177 0.3968751,-0.3968701 0,-0.21987 -0.1770063,-0.39688 -0.3968751,-0.39688 z m 11.9062504,0 c -0.219869,0 -0.396875,0.17701 -0.396875,0.39688 0,0.2198701 0.177006,0.3968701 0.396875,0.3968701 0.219868,0 0.396875,-0.177 0.396875,-0.3968701 0,-0.21987 -0.177007,-0.39688 -0.396875,-0.39688 z M 3.8364593,10.054181 c -0.2198687,0 -0.3968749,0.17701 -0.3968749,0.39687 0,0.21987 0.1770062,0.39688 0.3968749,0.39688 0.2198688,0 0.396875,-0.17701 0.396875,-0.39688 0,-0.21986 -0.1770062,-0.39687 -0.396875,-0.39687 z m 9.2604167,0 c -0.219869,0 -0.396875,0.17701 -0.396875,0.39687 0,0.21987 0.177006,0.39688 0.396875,0.39688 0.219869,0 0.396875,-0.17701 0.396875,-0.39688 0,-0.21986 -0.177006,-0.39687 -0.396875,-0.39687 z"
       id="rect4645-1"
       inkscape:connector-curvature="0"
       sodipodi:nodetypes="ssccccccccccccsccccccccccccsssssssssssssssssssssssssssssssssssssccssscccsccssssssssssssssssssssssssssssssssssssssss" /></g></svg>
