<?xml version="1.0" encoding="UTF-8" standalone="no"?>
<!-- Created with Inkscape (http://www.inkscape.org/) -->

<svg
   width="64"
   height="64"
   viewBox="0 0 16.933333 16.933333"
   version="1.1"
   id="svg5"
   inkscape:version="1.3.2 (091e20ef0f, 2023-11-25, custom)"
   sodipodi:docname="text-x-scala.svg"
   xml:space="preserve"
   xmlns:inkscape="http://www.inkscape.org/namespaces/inkscape"
   xmlns:sodipodi="http://sodipodi.sourceforge.net/DTD/sodipodi-0.dtd"
   xmlns:xlink="http://www.w3.org/1999/xlink"
   xmlns="http://www.w3.org/2000/svg"
   xmlns:svg="http://www.w3.org/2000/svg"><sodipodi:namedview
     id="namedview7"
     pagecolor="#ffffff"
     bordercolor="#000000"
     borderopacity="0.25"
     inkscape:showpageshadow="false"
     inkscape:pageopacity="0.0"
     inkscape:pagecheckerboard="0"
     inkscape:deskcolor="#d1d1d1"
     inkscape:document-units="px"
     showgrid="true"
     inkscape:zoom="10.24"
     inkscape:cx="36.376953"
     inkscape:cy="30.859375"
     inkscape:window-width="2560"
     inkscape:window-height="1356"
     inkscape:window-x="0"
     inkscape:window-y="0"
     inkscape:window-maximized="1"
     inkscape:current-layer="g21147"><inkscape:grid
       type="xygrid"
       id="grid290"
       originx="0"
       originy="0"
       spacingy="1"
       spacingx="1"
       units="px"
       visible="true" /></sodipodi:namedview><defs
     id="defs2"><linearGradient
       id="linearGradient1"
       inkscape:collect="always"><stop
         style="stop-color:#263238;stop-opacity:1;"
         offset="0"
         id="stop1" /><stop
         style="stop-color:#37474f;stop-opacity:1;"
         offset="1"
         id="stop2" /></linearGradient><linearGradient
       inkscape:collect="always"
       xlink:href="#linearGradient1"
       id="linearGradient2"
       x1="-6"
       y1="318.64999"
       x2="-6.5625"
       y2="260.4295"
       gradientUnits="userSpaceOnUse" /></defs><g
     inkscape:label="Capa 1"
     inkscape:groupmode="layer"
     id="layer1"><g
       id="g21147"
       transform="translate(-2.1166675,-0.52916906)"><g
         transform="matrix(0.26458333,0,0,0.26458333,12.170834,-67.37614)"
         id="g1769"><path
           sodipodi:nodetypes="sssssssss"
           inkscape:connector-curvature="0"
           style="opacity:1;fill:#1a2226;fill-opacity:1;stroke:none;stroke-width:2;stroke-linecap:round;stroke-linejoin:round;stroke-miterlimit:4;stroke-dasharray:none;stroke-dashoffset:0;stroke-opacity:1"
           d="m -29,257.64999 h 46 c 2.216,0 4,1.784 4,4 v 54 c 0,2.216 -1.784,4 -4,4 h -46 c -2.216,0 -4,-1.784 -4,-4 v -54 c 0,-2.216 1.784,-4 4,-4 z"
           id="rect971" /><path
           sodipodi:nodetypes="sssssssss"
           inkscape:connector-curvature="0"
           style="opacity:1;fill:url(#linearGradient2);fill-opacity:1;stroke:none;stroke-width:2;stroke-linecap:round;stroke-linejoin:round;stroke-miterlimit:4;stroke-dasharray:none;stroke-dashoffset:0;stroke-opacity:1"
           d="m -29,258.64999 h 46 c 1.662,0 3,1.338 3,3 v 54 c 0,1.662 -1.338,3 -3,3 h -46 c -1.662,0 -3,-1.338 -3,-3 v -54 c 0,-1.662 1.338,-3 3,-3 z"
           id="rect971-2" /></g><path
         id="path1121-5"
         style="fill:#1a2226;fill-opacity:1;stroke:none;stroke-width:0.529167;stroke-linecap:round;stroke-linejoin:round;stroke-miterlimit:4;stroke-dasharray:none;stroke-dashoffset:0;stroke-opacity:1"
         d="m 5.2916684,3.704169 v 0.529167 h 2.116666 V 3.704169 Z m 2.645833,0 v 0.529167 h 0.79375 V 3.704169 Z m 1.322916,0 V 4.233336 H 10.318751 V 3.704169 Z m 1.5874996,0 v 0.529167 h 2.38125 V 3.704169 Z M 5.2916684,4.762502 v 0.529167 h 1.058333 V 4.762502 Z m 1.587499,0 v 0.529167 h 2.116667 V 4.762502 Z m 2.645834,0 v 0.529167 h 0.264583 1.0583326 0.529167 1.5875 V 4.762502 h -1.5875 -0.529167 -1.0583326 z m -4.233333,1.058334 v 0.5291663 h 0.793749 V 5.820836 Z m 1.322916,0 v 0.5291663 h 1.058333 V 5.820836 Z m 1.5875,0 V 6.3500023 H 10.318751 V 5.820836 Z m 2.6458326,0 v 0.5291663 h 0.529167 1.852083 0.264584 V 5.820836 H 13.229167 11.377084 Z M 5.2916684,6.8791689 v 0.5291667 h 2.910416 V 6.8791689 Z m 3.439583,0 v 0.5291667 h 0.529166 0.529167 0.5291666 2.38125 0.529166 V 6.8791689 h -0.529166 -2.38125 -0.5291666 -0.529167 z m -3.439583,1.0583333 v 0.5291667 h 1.058333 V 7.9375022 Z m 1.587499,0 v 0.5291667 h 2.116667 0.529167 1.3229156 0.529167 1.5875 0.529167 V 7.9375022 h -0.529167 -1.5875 -0.529167 -1.3229156 -0.529167 z m -1.587499,1.0583333 v 0.5291667 h 2.910416 V 8.9958355 Z m 3.439583,0 v 0.5291667 h 0.264583 0.79375 0.5291666 V 8.9958355 h -0.5291666 -0.79375 z m 7.4083326,0.5291667 -4.233333,0.5291658 v 0.529164 0.264583 0.529167 0.264583 l 1.693436,0.317294 -1.693436,0.211873 v 0.529167 0.264583 0.529167 0.264583 l 1.693436,0.317293 -1.693436,0.211874 v 1.322916 l 4.233333,-0.529166 v -0.529167 -1.058333 l -1.693437,-0.317294 1.693437,-0.211873 v -0.529167 -1.058333 l -1.693437,-0.317293 1.693437,-0.211874 z M 5.2916684,10.054168 v 0.529164 h 1.058333 v -0.529164 z m 1.587499,0 v 0.529164 h 2.38125 0.529167 0.5291666 V 10.054168 H 9.7895844 9.2604174 Z m -1.587499,1.058331 v 0.529166 h 2.116666 v -0.529166 z m 2.645833,0 v 0.529166 h 1.058333 1.3229166 V 11.112499 H 8.9958344 Z m -2.645833,1.058333 v 0.529167 h 2.910416 v -0.529167 z m 3.439583,0 v 0.529167 h 0.264583 0.79375 0.5291666 v -0.529167 h -0.5291666 -0.79375 z m -3.439583,1.058333 v 0.529167 h 1.058333 v -0.529167 z m 1.587499,0 v 0.529167 h 2.38125 0.529167 0.5291666 V 13.229165 H 9.7895844 9.2604174 Z m -1.587499,1.058334 v 0.529166 h 2.116666 v -0.529166 z m 2.645833,0 v 0.529166 h 1.058333 1.3229166 V 14.287499 H 8.9958344 Z" /><path
         id="path1121"
         d="M 5.291667,3.43958 V 3.96875 H 7.4083336 V 3.43958 Z"
         style="fill:#ebebeb;fill-opacity:1;stroke:none;stroke-width:0.529167;stroke-linecap:round;stroke-linejoin:round;stroke-miterlimit:4;stroke-dasharray:none;stroke-dashoffset:0;stroke-opacity:1"
         inkscape:connector-curvature="0" /><path
         id="path1119"
         d="m 7.9375003,3.43958 v 0.52917 h 0.79375 V 3.43958 Z"
         style="fill:#ff778a;fill-opacity:1;stroke:none;stroke-width:0.529167;stroke-linecap:round;stroke-linejoin:round;stroke-miterlimit:4;stroke-dasharray:none;stroke-dashoffset:0;stroke-opacity:1"
         inkscape:connector-curvature="0" /><path
         id="path1117"
         d="M 9.2604169,3.43958 V 3.96875 H 10.31875 V 3.43958 Z"
         style="fill:#fbebee;fill-opacity:1;stroke:none;stroke-width:0.529167;stroke-linecap:round;stroke-linejoin:round;stroke-miterlimit:4;stroke-dasharray:none;stroke-dashoffset:0;stroke-opacity:1"
         inkscape:connector-curvature="0" /><path
         id="path1115"
         d="m 10.847917,3.43958 v 0.52917 h 2.38125 V 3.43958 Z"
         style="fill:#ff778a;fill-opacity:1;stroke:none;stroke-width:0.529167;stroke-linecap:round;stroke-linejoin:round;stroke-miterlimit:4;stroke-dasharray:none;stroke-dashoffset:0;stroke-opacity:1"
         inkscape:connector-curvature="0" /><path
         id="path1113"
         d="M 5.291667,4.49792 V 5.02708 H 6.3500003 V 4.49792 Z"
         style="fill:#ffffff;fill-opacity:1;stroke:none;stroke-width:0.529167;stroke-linecap:round;stroke-linejoin:round;stroke-miterlimit:4;stroke-dasharray:none;stroke-dashoffset:0;stroke-opacity:1"
         inkscape:connector-curvature="0" /><path
         id="path1111"
         d="M 6.879167,4.49792 V 5.02708 H 8.9958336 V 4.49792 Z"
         style="fill:#ff778a;fill-opacity:1;stroke:none;stroke-width:0.529167;stroke-linecap:round;stroke-linejoin:round;stroke-miterlimit:4;stroke-dasharray:none;stroke-dashoffset:0;stroke-opacity:1"
         inkscape:connector-curvature="0" /><path
         id="path1109"
         d="m 9.5250002,4.49792 v 0.52916 h 0.2645834 1.0583334 0.529167 1.587499 V 4.49792 H 11.377084 10.847917 9.7895836 Z"
         style="fill:#fbebee;fill-opacity:1;stroke:none;stroke-width:0.529167;stroke-linecap:round;stroke-linejoin:round;stroke-miterlimit:4;stroke-dasharray:none;stroke-dashoffset:0;stroke-opacity:1"
         inkscape:connector-curvature="0" /><path
         id="path1107"
         d="m 5.291667,5.55625 v 0.52917 h 0.79375 V 5.55625 Z"
         style="fill:#fbebee;fill-opacity:1;stroke:none;stroke-width:0.529167;stroke-linecap:round;stroke-linejoin:round;stroke-miterlimit:4;stroke-dasharray:none;stroke-dashoffset:0;stroke-opacity:1"
         inkscape:connector-curvature="0" /><path
         id="path1105"
         d="M 6.6145836,5.55625 V 6.08542 H 7.6729169 V 5.55625 Z"
         style="fill:#ff778a;fill-opacity:1;stroke:none;stroke-width:0.529167;stroke-linecap:round;stroke-linejoin:round;stroke-miterlimit:4;stroke-dasharray:none;stroke-dashoffset:0;stroke-opacity:1"
         inkscape:connector-curvature="0" /><path
         id="path1103"
         d="M 8.2020836,5.55625 V 6.08542 H 10.31875 V 5.55625 Z"
         style="fill:#ffffff;fill-opacity:1;stroke:none;stroke-width:0.529167;stroke-linecap:round;stroke-linejoin:round;stroke-miterlimit:4;stroke-dasharray:none;stroke-dashoffset:0;stroke-opacity:1"
         inkscape:connector-curvature="0" /><path
         id="path1101"
         d="m 10.847917,5.55625 v 0.52917 h 0.529167 1.852083 0.264583 V 5.55625 h -0.264583 -1.852083 z"
         style="fill:#ebebeb;fill-opacity:1;stroke:none;stroke-width:0.529167;stroke-linecap:round;stroke-linejoin:round;stroke-miterlimit:4;stroke-dasharray:none;stroke-dashoffset:0;stroke-opacity:1"
         inkscape:connector-curvature="0" /><path
         id="path1099"
         d="M 5.291667,6.61458 V 7.14375 H 8.2020836 V 6.61458 Z"
         style="fill:#fbebee;fill-opacity:1;stroke:none;stroke-width:0.529167;stroke-linecap:round;stroke-linejoin:round;stroke-miterlimit:4;stroke-dasharray:none;stroke-dashoffset:0;stroke-opacity:1"
         inkscape:connector-curvature="0" /><path
         id="path1097"
         d="M 8.7312503,6.61458 V 7.14375 H 9.2604169 9.7895836 10.31875 12.7 13.229167 V 6.61458 H 12.7 10.31875 9.7895836 9.2604169 Z"
         style="fill:#ffffff;fill-opacity:1;stroke:none;stroke-width:0.529167;stroke-linecap:round;stroke-linejoin:round;stroke-miterlimit:4;stroke-dasharray:none;stroke-dashoffset:0;stroke-opacity:1"
         inkscape:connector-curvature="0" /><path
         id="path1095"
         d="M 5.291667,7.67292 V 8.20208 H 6.3500003 V 7.67292 Z"
         style="fill:#ffffff;fill-opacity:1;stroke:none;stroke-width:0.529167;stroke-linecap:round;stroke-linejoin:round;stroke-miterlimit:4;stroke-dasharray:none;stroke-dashoffset:0;stroke-opacity:1"
         inkscape:connector-curvature="0" /><path
         id="path1093"
         d="m 6.879167,7.67292 v 0.52916 h 2.1166666 0.5291666 1.3229168 0.529167 1.587499 0.529167 V 7.67292 H 12.964583 11.377084 10.847917 9.5250002 8.9958336 Z"
         style="fill:#fbebee;fill-opacity:1;stroke:none;stroke-width:0.529167;stroke-linecap:round;stroke-linejoin:round;stroke-miterlimit:4;stroke-dasharray:none;stroke-dashoffset:0;stroke-opacity:1"
         inkscape:connector-curvature="0" /><path
         id="path1091"
         d="M 5.291667,8.73125 V 9.26042 H 8.2020836 V 8.73125 Z"
         style="fill:#ff778a;fill-opacity:1;stroke:none;stroke-width:0.529167;stroke-linecap:round;stroke-linejoin:round;stroke-miterlimit:4;stroke-dasharray:none;stroke-dashoffset:0;stroke-opacity:1"
         inkscape:connector-curvature="0" /><path
         id="path1089"
         d="m 8.7312503,8.73125 v 0.52917 h 0.2645833 0.79375 0.5291664 V 8.73125 h -0.5291664 -0.79375 z"
         style="fill:#fbebee;fill-opacity:1;stroke:none;stroke-width:0.529167;stroke-linecap:round;stroke-linejoin:round;stroke-miterlimit:4;stroke-dasharray:none;stroke-dashoffset:0;stroke-opacity:1"
         inkscape:connector-curvature="0" /><path
         id="path1087"
         d="m 5.291667,9.78958 v 0.52917 H 6.3500003 V 9.78958 Z"
         style="fill:#ebebeb;fill-opacity:1;stroke:none;stroke-width:0.529167;stroke-linecap:round;stroke-linejoin:round;stroke-miterlimit:4;stroke-dasharray:none;stroke-dashoffset:0;stroke-opacity:1"
         inkscape:connector-curvature="0" /><path
         id="path1085"
         d="m 6.879167,9.78958 v 0.52917 H 9.2604169 9.7895836 10.31875 V 9.78958 H 9.7895836 9.2604169 Z"
         style="fill:#ff778a;fill-opacity:1;stroke:none;stroke-width:0.529167;stroke-linecap:round;stroke-linejoin:round;stroke-miterlimit:4;stroke-dasharray:none;stroke-dashoffset:0;stroke-opacity:1"
         inkscape:connector-curvature="0" /><path
         id="path1083"
         d="m 5.291667,10.84792 v 0.52916 h 2.1166666 v -0.52916 z"
         style="fill:#fbebee;fill-opacity:1;stroke:none;stroke-width:0.529167;stroke-linecap:round;stroke-linejoin:round;stroke-miterlimit:4;stroke-dasharray:none;stroke-dashoffset:0;stroke-opacity:1"
         inkscape:connector-curvature="0" /><path
         id="path1081"
         d="m 7.9375003,10.84792 v 0.52916 H 8.9958336 10.31875 V 10.84792 H 8.9958336 Z"
         style="fill:#ebebeb;fill-opacity:1;stroke:none;stroke-width:0.529167;stroke-linecap:round;stroke-linejoin:round;stroke-miterlimit:4;stroke-dasharray:none;stroke-dashoffset:0;stroke-opacity:1"
         inkscape:connector-curvature="0" /><path
         id="path1079"
         d="m 5.291667,11.90625 v 0.52917 h 2.9104166 v -0.52917 z"
         style="fill:#ff778a;fill-opacity:1;stroke:none;stroke-width:0.529167;stroke-linecap:round;stroke-linejoin:round;stroke-miterlimit:4;stroke-dasharray:none;stroke-dashoffset:0;stroke-opacity:1"
         inkscape:connector-curvature="0" /><path
         id="path1077"
         d="m 8.7312503,11.90625 v 0.52917 h 0.2645833 0.79375 0.5291664 v -0.52917 h -0.5291664 -0.79375 z"
         style="fill:#fbebee;fill-opacity:1;stroke:none;stroke-width:0.529167;stroke-linecap:round;stroke-linejoin:round;stroke-miterlimit:4;stroke-dasharray:none;stroke-dashoffset:0;stroke-opacity:1"
         inkscape:connector-curvature="0" /><path
         id="path1075"
         d="m 5.291667,12.96458 v 0.52917 h 1.0583333 v -0.52917 z"
         style="fill:#ff778a;fill-opacity:1;stroke:none;stroke-width:0.529167;stroke-linecap:round;stroke-linejoin:round;stroke-miterlimit:4;stroke-dasharray:none;stroke-dashoffset:0;stroke-opacity:1"
         inkscape:connector-curvature="0" /><path
         id="path1073"
         d="m 6.879167,12.96458 v 0.52917 H 9.2604169 9.7895836 10.31875 V 12.96458 H 9.7895836 9.2604169 Z"
         style="fill:#ffffff;fill-opacity:1;stroke:none;stroke-width:0.529167;stroke-linecap:round;stroke-linejoin:round;stroke-miterlimit:4;stroke-dasharray:none;stroke-dashoffset:0;stroke-opacity:1"
         inkscape:connector-curvature="0" /><path
         id="path1071"
         d="m 5.291667,14.02292 v 0.52916 h 2.1166666 v -0.52916 z"
         style="fill:#fbebee;fill-opacity:1;stroke:none;stroke-width:0.529167;stroke-linecap:round;stroke-linejoin:round;stroke-miterlimit:4;stroke-dasharray:none;stroke-dashoffset:0;stroke-opacity:1"
         inkscape:connector-curvature="0" /><path
         id="rect1001"
         d="m 7.9375003,14.02292 v 0.52916 H 8.9958336 10.31875 V 14.02292 H 8.9958336 Z"
         style="fill:#ff778a;fill-opacity:1;stroke:none;stroke-width:0.529167;stroke-linecap:round;stroke-linejoin:round;stroke-miterlimit:4;stroke-dasharray:none;stroke-dashoffset:0;stroke-opacity:1"
         inkscape:connector-curvature="0" /><path
         style="fill:#dd4f66;fill-opacity:1;stroke-width:0.529167;stroke-linecap:round;stroke-linejoin:round;stroke-miterlimit:1.8;paint-order:stroke fill markers;stop-color:#000000"
         d="m 11.906251,10.583332 v 0.79375 l 4.233333,0.79375 v -1.05833 l -4.233333,-0.79375 z"
         id="path19326"
         sodipodi:nodetypes="cccccc" /><path
         style="fill:#dd4f66;fill-opacity:1;stroke-width:0.529167;stroke-linecap:round;stroke-linejoin:round;stroke-miterlimit:1.8;paint-order:stroke fill markers;stop-color:#000000"
         d="m 11.906251,12.700002 v 0.79375 l 4.233333,0.79375 v -1.05834 l -4.233333,-0.79374 z"
         id="path19326-6"
         sodipodi:nodetypes="cccccc" /><path
         style="fill:#ff778a;fill-opacity:1;stroke-width:0.529167;stroke-linecap:round;stroke-linejoin:round;stroke-miterlimit:1.8;paint-order:stroke fill markers;stop-color:#000000"
         d="m 11.906251,9.7895812 v 1.3229208 l 4.233333,-0.52917 V 9.260421 Z"
         id="path19279" /><path
         style="fill:#ff778a;fill-opacity:1;stroke-width:0.529167;stroke-linecap:round;stroke-linejoin:round;stroke-miterlimit:1.8;paint-order:stroke fill markers;stop-color:#000000"
         d="m 11.90625,11.90625 v 1.32292 L 16.139583,12.7 v -1.32291 z"
         id="path19279-6" /><path
         style="fill:#ff778a;fill-opacity:1;stroke-width:0.529167;stroke-linecap:round;stroke-linejoin:round;stroke-miterlimit:1.8;paint-order:stroke fill markers;stop-color:#000000"
         d="m 11.906251,14.022912 v 1.32292 l 4.233333,-0.52917 v -1.32291 z"
         id="path19279-5" /></g></g></svg>
