<?xml version="1.0" encoding="UTF-8" standalone="no"?>
<!-- Created with Inkscape (http://www.inkscape.org/) -->

<svg
   width="64"
   height="64"
   viewBox="0 0 16.933333 16.933333"
   version="1.1"
   id="svg5"
   inkscape:version="1.3.2 (091e20ef0f, 2023-11-25, custom)"
   sodipodi:docname="text-x-lua.svg"
   xml:space="preserve"
   xmlns:inkscape="http://www.inkscape.org/namespaces/inkscape"
   xmlns:sodipodi="http://sodipodi.sourceforge.net/DTD/sodipodi-0.dtd"
   xmlns:xlink="http://www.w3.org/1999/xlink"
   xmlns="http://www.w3.org/2000/svg"
   xmlns:svg="http://www.w3.org/2000/svg"><sodipodi:namedview
     id="namedview7"
     pagecolor="#ffffff"
     bordercolor="#000000"
     borderopacity="0.25"
     inkscape:showpageshadow="false"
     inkscape:pageopacity="0.0"
     inkscape:pagecheckerboard="0"
     inkscape:deskcolor="#d1d1d1"
     inkscape:document-units="px"
     showgrid="true"
     inkscape:zoom="14.481547"
     inkscape:cx="40.15455"
     inkscape:cy="31.902669"
     inkscape:window-width="2560"
     inkscape:window-height="1356"
     inkscape:window-x="0"
     inkscape:window-y="0"
     inkscape:window-maximized="1"
     inkscape:current-layer="layer1"><inkscape:grid
       type="xygrid"
       id="grid290"
       originx="0"
       originy="0"
       spacingy="1"
       spacingx="1"
       units="px"
       visible="true" /></sodipodi:namedview><defs
     id="defs2"><linearGradient
       id="linearGradient3"
       inkscape:collect="always"><stop
         style="stop-color:#5c70ad;stop-opacity:1;"
         offset="0"
         id="stop3" /><stop
         style="stop-color:#7b8ec1;stop-opacity:1;"
         offset="1"
         id="stop4" /></linearGradient><linearGradient
       id="linearGradient1"
       inkscape:collect="always"><stop
         style="stop-color:#ccd0e3;stop-opacity:1;"
         offset="0"
         id="stop1" /><stop
         style="stop-color:#ffffff;stop-opacity:1;"
         offset="1"
         id="stop2" /></linearGradient><style
       type="text/css"
       id="current-color-scheme">
      .ColorScheme-Text {
        color:#122036;
      }
      </style><style
       type="text/css"
       id="current-color-scheme-7">
      .ColorScheme-Text {
        color:#122036;
      }
      </style><style
       type="text/css"
       id="current-color-scheme-5">
      .ColorScheme-Text {
        color:#122036;
      }
      </style><style
       type="text/css"
       id="current-color-scheme-0">
      .ColorScheme-Text {
        color:#122036;
      }
      </style><style
       type="text/css"
       id="current-color-scheme-7-9">
      .ColorScheme-Text {
        color:#122036;
      }
      </style><style
       type="text/css"
       id="current-color-scheme-5-3">
      .ColorScheme-Text {
        color:#122036;
      }
      </style><style
       type="text/css"
       id="current-color-scheme-79">
      .ColorScheme-Text {
        color:#122036;
      }
      </style><style
       type="text/css"
       id="current-color-scheme-7-2">
      .ColorScheme-Text {
        color:#122036;
      }
      </style><style
       type="text/css"
       id="current-color-scheme-5-0">
      .ColorScheme-Text {
        color:#122036;
      }
      </style><style
       type="text/css"
       id="current-color-scheme-20">
      .ColorScheme-Text {
        color:#122036;
      }
      </style><style
       type="text/css"
       id="current-color-scheme-2">
      .ColorScheme-Text {
        color:#122036;
      }
      </style><style
       type="text/css"
       id="current-color-scheme-0-2">
      .ColorScheme-Text {
        color:#122036;
      }
      </style><style
       id="current-color-scheme-5-37"
       type="text/css">
      .ColorScheme-Text {
        color:#122036;
      }
      </style><style
       type="text/css"
       id="current-color-scheme-53">
      .ColorScheme-Text {
        color:#122036;
      }
      </style><style
       type="text/css"
       id="current-color-scheme-2-5">
      .ColorScheme-Text {
        color:#122036;
      }
      </style><style
       type="text/css"
       id="current-color-scheme-0-6">
      .ColorScheme-Text {
        color:#122036;
      }
      </style><style
       id="current-color-scheme-535"
       type="text/css">
      .ColorScheme-Text {
        color:#122036;
      }
      </style><style
       id="current-color-scheme-2-6"
       type="text/css">
      .ColorScheme-Text {
        color:#122036;
      }
      </style><style
       id="current-color-scheme-0-29"
       type="text/css">
      .ColorScheme-Text {
        color:#122036;
      }
      </style><style
       type="text/css"
       id="current-color-scheme-3">
      .ColorScheme-Text {
        color:#36404d;
      }
      </style><style
       type="text/css"
       id="current-color-scheme-67">
      .ColorScheme-Text {
        color:#122036;
      }
      </style><style
       type="text/css"
       id="current-color-scheme-7-1">
      .ColorScheme-Text {
        color:#122036;
      }
      </style><style
       type="text/css"
       id="current-color-scheme-5-2">
      .ColorScheme-Text {
        color:#122036;
      }
      </style><style
       type="text/css"
       id="current-color-scheme-6">
      .ColorScheme-Text {
        color:#122036;
      }
      </style><style
       type="text/css"
       id="current-color-scheme-1">
      .ColorScheme-Text {
        color:#122036;
      }
      </style><style
       id="current-color-scheme-10"
       type="text/css">
      .ColorScheme-Text {
        color:#122036;
      }
      </style><style
       id="current-color-scheme-5-7"
       type="text/css">
      .ColorScheme-Text {
        color:#122036;
      }
      </style><style
       id="current-color-scheme-1-2"
       type="text/css">
      .ColorScheme-Text {
        color:#122036;
      }
      </style><style
       type="text/css"
       id="current-color-scheme-10-9">
      .ColorScheme-Text {
        color:#122036;
      }
      </style><style
       type="text/css"
       id="current-color-scheme-26">
      .ColorScheme-Text {
        color:#122036;
      }
      </style><style
       type="text/css"
       id="current-color-scheme-2-1">
      .ColorScheme-Text {
        color:#122036;
      }
      </style><style
       type="text/css"
       id="current-color-scheme-0-8">
      .ColorScheme-Text {
        color:#122036;
      }
      </style><style
       id="current-color-scheme-5-79"
       type="text/css">
      .ColorScheme-Text {
        color:#122036;
      }
      </style><style
       type="text/css"
       id="current-color-scheme-53-2">
      .ColorScheme-Text {
        color:#122036;
      }
      </style><style
       type="text/css"
       id="current-color-scheme-2-5-0">
      .ColorScheme-Text {
        color:#122036;
      }
      </style><style
       type="text/css"
       id="current-color-scheme-0-6-2">
      .ColorScheme-Text {
        color:#122036;
      }
      </style><style
       id="current-color-scheme-9"
       type="text/css">
      .ColorScheme-Text {
        color:#122036;
      }
      </style><style
       type="text/css"
       id="current-color-scheme-53-7">
      .ColorScheme-Text {
        color:#122036;
      }
      </style><style
       id="current-color-scheme-5-36"
       type="text/css">
      .ColorScheme-Text {
        color:#122036;
      }
      </style><style
       id="current-color-scheme-2-12"
       type="text/css">
      .ColorScheme-Text {
        color:#122036;
      }
      </style><style
       id="current-color-scheme-1-9"
       type="text/css">
      .ColorScheme-Text {
        color:#122036;
      }
      </style><style
       type="text/css"
       id="current-color-scheme-10-3">
      .ColorScheme-Text {
        color:#122036;
      }
      </style><style
       id="current-color-scheme-0-1"
       type="text/css">
      .ColorScheme-Text {
        color:#122036;
      }
      </style><style
       id="current-color-scheme-26-9"
       type="text/css">
      .ColorScheme-Text {
        color:#122036;
      }
      </style><style
       id="current-color-scheme-7-4"
       type="text/css">
      .ColorScheme-Text {
        color:#122036;
      }
      </style><style
       type="text/css"
       id="current-color-scheme-535-7">
      .ColorScheme-Text {
        color:#122036;
      }
      </style><style
       type="text/css"
       id="current-color-scheme-2-6-8">
      .ColorScheme-Text {
        color:#122036;
      }
      </style><style
       type="text/css"
       id="current-color-scheme-0-2-4">
      .ColorScheme-Text {
        color:#122036;
      }
      </style><style
       id="current-color-scheme-5-9"
       type="text/css">
      .ColorScheme-Text {
        color:#122036;
      }
      </style><style
       type="text/css"
       id="current-color-scheme-53-1">
      .ColorScheme-Text {
        color:#122036;
      }
      </style><style
       type="text/css"
       id="current-color-scheme-2-5-5">
      .ColorScheme-Text {
        color:#122036;
      }
      </style><style
       type="text/css"
       id="current-color-scheme-0-6-0">
      .ColorScheme-Text {
        color:#122036;
      }
      </style><linearGradient
       inkscape:collect="always"
       xlink:href="#linearGradient1"
       id="linearGradient2"
       x1="9.7895832"
       y1="11.90625"
       x2="9.322917"
       y2="2.8224685"
       gradientUnits="userSpaceOnUse" /><linearGradient
       inkscape:collect="always"
       xlink:href="#linearGradient3"
       id="linearGradient4"
       x1="-3.8262146"
       y1="318.64999"
       x2="-3.9842515"
       y2="259.23325"
       gradientUnits="userSpaceOnUse" /></defs><g
     inkscape:label="Capa 1"
     inkscape:groupmode="layer"
     id="layer1"><g
       id="g52301"
       transform="translate(-1.3229166,0.79375004)"><g
         id="g1919"
         transform="translate(-1.0583329,-0.7937501)"><g
           id="g1769"
           transform="matrix(0.26458333,0,0,0.26458333,12.435416,-67.905309)"><path
             id="rect971"
             d="m -29,257.64999 h 46 c 2.216,0 4,1.784 4,4 v 54 c 0,2.216 -1.784,4 -4,4 h -46 c -2.216,0 -4,-1.784 -4,-4 v -54 c 0,-2.216 1.784,-4 4,-4 z"
             style="opacity:1;fill:#395093;fill-opacity:1;stroke:none;stroke-width:2;stroke-linecap:round;stroke-linejoin:round;stroke-miterlimit:4;stroke-dasharray:none;stroke-dashoffset:0;stroke-opacity:1"
             inkscape:connector-curvature="0"
             sodipodi:nodetypes="sssssssss" /><path
             id="rect971-2"
             d="m -29,258.64999 h 46 c 1.662,0 3,1.338 3,3 v 54 c 0,1.662 -1.338,3 -3,3 h -46 c -1.662,0 -3,-1.338 -3,-3 v -54 c 0,-1.662 1.338,-3 3,-3 z"
             style="opacity:1;fill:url(#linearGradient4);fill-opacity:1;stroke:none;stroke-width:2;stroke-linecap:round;stroke-linejoin:round;stroke-miterlimit:4;stroke-dasharray:none;stroke-dashoffset:0;stroke-opacity:1"
             inkscape:connector-curvature="0"
             sodipodi:nodetypes="sssssssss" /></g></g><path
         id="path51365-5"
         style="fill:#395093;fill-opacity:1;stroke-width:0.259981;stroke-linecap:round;stroke-linejoin:round;stroke-miterlimit:1.8;paint-order:stroke fill markers;stop-color:#000000"
         d="M 12.7,3.1749999 A 1.0583333,1.0583333 0 0 0 11.641667,4.2333332 1.0583333,1.0583333 0 0 0 12.7,5.2916666 1.0583333,1.0583333 0 0 0 13.758333,4.2333332 1.0583333,1.0583333 0 0 0 12.7,3.1749999 Z m -2.910417,1.5875 A 3.7041667,3.7041667 0 0 0 6.0854168,8.4666665 3.7041667,3.7041667 0 0 0 9.789583,12.170833 3.7041667,3.7041667 0 0 0 13.49375,8.4666665 3.7041667,3.7041667 0 0 0 12.407512,5.8456379 a 1.0583333,1.0583333 0 0 1 0.0088,0.039274 1.0583333,1.0583333 0 0 1 0.0083,0.050126 1.0583333,1.0583333 0 0 1 0.0062,0.049609 1.0583333,1.0583333 0 0 1 0.0036,0.050643 1.0583333,1.0583333 0 0 1 10e-4,0.050126 1.0583333,1.0583333 0 0 1 -0.01085,0.1503785 1.0583333,1.0583333 0 0 1 -0.03204,0.1477946 1.0583333,1.0583333 0 0 1 -0.05271,0.1415934 1.0583333,1.0583333 0 0 1 -0.07235,0.1322916 1.0583333,1.0583333 0 0 1 -0.09043,0.1209229 1.0583333,1.0583333 0 0 1 -0.106971,0.1069702 1.0583333,1.0583333 0 0 1 -0.120922,0.090434 1.0583333,1.0583333 0 0 1 -0.132292,0.072347 1.0583333,1.0583333 0 0 1 -0.141594,0.05271 1.0583333,1.0583333 0 0 1 -0.147794,0.032039 1.0583333,1.0583333 0 0 1 -0.150379,0.010852 1.0583333,1.0583333 0 0 1 -0.150375,-0.010851 1.0583333,1.0583333 0 0 1 -0.147795,-0.032039 1.0583333,1.0583333 0 0 1 -0.141593,-0.05271 1.0583333,1.0583333 0 0 1 -0.132292,-0.072347 1.0583333,1.0583333 0 0 1 -0.120923,-0.090434 1.0583333,1.0583333 0 0 1 -0.10697,-0.1069702 1.0583333,1.0583333 0 0 1 -0.09043,-0.1209229 1.0583333,1.0583333 0 0 1 -0.07235,-0.1322916 1.0583333,1.0583333 0 0 1 -0.05271,-0.1415934 1.0583333,1.0583333 0 0 1 -0.03204,-0.1477946 1.0583333,1.0583333 0 0 1 -0.01085,-0.1503785 1.0583333,1.0583333 0 0 1 0.01085,-0.1503784 1.0583333,1.0583333 0 0 1 0.03204,-0.1477946 1.0583333,1.0583333 0 0 1 0.05271,-0.1415934 1.0583333,1.0583333 0 0 1 0.07235,-0.1322916 1.0583333,1.0583333 0 0 1 0.09043,-0.1209229 1.0583333,1.0583333 0 0 1 0.10697,-0.1069702 1.0583333,1.0583333 0 0 1 0.120923,-0.090434 1.0583333,1.0583333 0 0 1 0.132292,-0.072347 1.0583333,1.0583333 0 0 1 0.141593,-0.05271 1.0583333,1.0583333 0 0 1 0.124024,-0.026872 3.7041667,3.7041667 0 0 0 -1.413351,-0.2806029 z" /><path
         id="path51365"
         style="fill:url(#linearGradient2);fill-opacity:1;stroke-width:0.259981;stroke-linecap:round;stroke-linejoin:round;stroke-miterlimit:1.8;paint-order:stroke fill markers;stop-color:#000000"
         d="M 12.7,2.9104165 A 1.0583333,1.0583333 0 0 0 11.641667,3.9687498 1.0583333,1.0583333 0 0 0 12.7,5.0270832 1.0583333,1.0583333 0 0 0 13.758333,3.9687498 1.0583333,1.0583333 0 0 0 12.7,2.9104165 Z m -2.9104169,1.5875 A 3.7041667,3.7041667 0 0 0 6.0854165,8.2020831 3.7041667,3.7041667 0 0 0 9.7895831,11.90625 3.7041667,3.7041667 0 0 0 13.49375,8.2020831 3.7041667,3.7041667 0 0 0 12.407512,5.5810545 a 1.0583333,1.0583333 0 0 1 0.0088,0.039274 1.0583333,1.0583333 0 0 1 0.0083,0.050126 1.0583333,1.0583333 0 0 1 0.0062,0.049609 1.0583333,1.0583333 0 0 1 0.0036,0.050643 1.0583333,1.0583333 0 0 1 10e-4,0.050126 1.0583333,1.0583333 0 0 1 -0.01085,0.1503785 1.0583333,1.0583333 0 0 1 -0.03204,0.1477946 1.0583333,1.0583333 0 0 1 -0.05271,0.1415934 1.0583333,1.0583333 0 0 1 -0.07235,0.1322916 1.0583333,1.0583333 0 0 1 -0.09043,0.1209229 1.0583333,1.0583333 0 0 1 -0.106971,0.1069702 1.0583333,1.0583333 0 0 1 -0.120922,0.090434 1.0583333,1.0583333 0 0 1 -0.132292,0.072347 1.0583333,1.0583333 0 0 1 -0.141594,0.05271 1.0583333,1.0583333 0 0 1 -0.147794,0.032039 1.0583333,1.0583333 0 0 1 -0.150379,0.010852 1.0583333,1.0583333 0 0 1 -0.150375,-0.010851 1.0583333,1.0583333 0 0 1 -0.147795,-0.032039 1.0583333,1.0583333 0 0 1 -0.141593,-0.05271 1.0583333,1.0583333 0 0 1 -0.132292,-0.072347 1.0583333,1.0583333 0 0 1 -0.120923,-0.090434 1.0583333,1.0583333 0 0 1 -0.10697,-0.1069702 1.0583333,1.0583333 0 0 1 -0.09043,-0.1209229 1.0583333,1.0583333 0 0 1 -0.07235,-0.1322916 1.0583333,1.0583333 0 0 1 -0.05271,-0.1415934 1.0583333,1.0583333 0 0 1 -0.03204,-0.1477946 1.0583333,1.0583333 0 0 1 -0.01085,-0.1503785 1.0583333,1.0583333 0 0 1 0.01085,-0.1503784 1.0583333,1.0583333 0 0 1 0.03204,-0.1477946 1.0583333,1.0583333 0 0 1 0.05271,-0.1415934 1.0583333,1.0583333 0 0 1 0.07235,-0.1322916 1.0583333,1.0583333 0 0 1 0.09043,-0.1209229 1.0583333,1.0583333 0 0 1 0.10697,-0.1069702 1.0583333,1.0583333 0 0 1 0.120923,-0.090434 1.0583333,1.0583333 0 0 1 0.132292,-0.072347 1.0583333,1.0583333 0 0 1 0.141593,-0.05271 1.0583333,1.0583333 0 0 1 0.124024,-0.026872 3.7041667,3.7041667 0 0 0 -1.4133509,-0.2806029 z" /></g></g></svg>
