<?xml version="1.0" encoding="UTF-8" standalone="no"?>
<!-- Created with Inkscape (http://www.inkscape.org/) -->

<svg
   width="64"
   height="64"
   viewBox="0 0 16.933333 16.933333"
   version="1.1"
   id="svg5"
   inkscape:version="1.3.2 (091e20ef0f, 2023-11-25, custom)"
   sodipodi:docname="text-x-sql.svg"
   xml:space="preserve"
   xmlns:inkscape="http://www.inkscape.org/namespaces/inkscape"
   xmlns:sodipodi="http://sodipodi.sourceforge.net/DTD/sodipodi-0.dtd"
   xmlns:xlink="http://www.w3.org/1999/xlink"
   xmlns="http://www.w3.org/2000/svg"
   xmlns:svg="http://www.w3.org/2000/svg"><sodipodi:namedview
     id="namedview7"
     pagecolor="#ffffff"
     bordercolor="#000000"
     borderopacity="0.25"
     inkscape:showpageshadow="false"
     inkscape:pageopacity="0.0"
     inkscape:pagecheckerboard="0"
     inkscape:deskcolor="#d1d1d1"
     inkscape:document-units="px"
     showgrid="true"
     inkscape:zoom="14.481547"
     inkscape:cx="40.15455"
     inkscape:cy="31.902669"
     inkscape:window-width="2560"
     inkscape:window-height="1356"
     inkscape:window-x="0"
     inkscape:window-y="0"
     inkscape:window-maximized="1"
     inkscape:current-layer="layer1"><inkscape:grid
       type="xygrid"
       id="grid290"
       originx="0"
       originy="0"
       spacingy="1"
       spacingx="1"
       units="px"
       visible="true" /></sodipodi:namedview><defs
     id="defs2"><linearGradient
       id="linearGradient2"
       inkscape:collect="always"><stop
         style="stop-color:#85baff;stop-opacity:1;"
         offset="0"
         id="stop2" /><stop
         style="stop-color:#a6ceff;stop-opacity:1;"
         offset="1"
         id="stop3" /></linearGradient><style
       id="current-color-scheme"
       type="text/css">
      .ColorScheme-Text {
        color:#122036;
      }
      </style><style
       id="current-color-scheme-2"
       type="text/css">
      .ColorScheme-Text {
        color:#122036;
      }
      </style><style
       id="current-color-scheme-0"
       type="text/css">
      .ColorScheme-Text {
        color:#122036;
      }
      </style><linearGradient
       inkscape:collect="always"
       xlink:href="#linearGradient2"
       id="linearGradient3"
       x1="76.236221"
       y1="52.472443"
       x2="76.236221"
       y2="-4.2204723"
       gradientUnits="userSpaceOnUse" /></defs><g
     inkscape:label="Capa 1"
     inkscape:groupmode="layer"
     id="layer1"><g
       id="g3043"
       transform="translate(-1.8520833,-0.52916908)"><g
         transform="matrix(0.26458333,0,0,0.26458333,1.8520832,-65.78864)"
         id="layer1-6"
         inkscape:label="Capa 1"><g
           transform="translate(38,-6)"
           id="g1769"><path
             style="opacity:1;fill:#75b3ff;fill-opacity:1;stroke:none;stroke-width:2;stroke-linecap:round;stroke-linejoin:round;stroke-miterlimit:4;stroke-dasharray:none;stroke-dashoffset:0;stroke-opacity:1"
             d="m 55,-7 c -2.216,0 -4,1.784 -4,4 v 14 4 36 c 0,2.216 1.784,4 4,4 h 46 c 2.216,0 4,-1.784 4,-4 V 15 11 10 -3 c 0,-2.216 -1.784,-4 -4,-4 z"
             transform="translate(-84,264.64999)"
             id="rect971"
             inkscape:connector-curvature="0" /><path
             style="opacity:1;fill:url(#linearGradient3);fill-opacity:1;stroke:none;stroke-width:2;stroke-linecap:round;stroke-linejoin:round;stroke-miterlimit:4;stroke-dasharray:none;stroke-dashoffset:0;stroke-opacity:1"
             d="m 55,-6 c -1.662,0 -3,1.338 -3,3 v 12 2 3 37 c 0,1.662 1.338,3 3,3 h 46 c 1.662,0 3,-1.338 3,-3 V 14 11 9 -3 c 0,-1.662 -1.338,-3 -3,-3 z"
             id="rect971-2"
             transform="translate(-84,264.64999)"
             inkscape:connector-curvature="0" /></g></g><path
         id="rect1771-5"
         style="fill:#75b3ff;fill-opacity:1;stroke-width:0.529164;stroke-linecap:square;stroke-miterlimit:1.8;paint-order:stroke fill markers;stop-color:#000000"
         d="m 6.3499997,5.5562523 v 1.85208 5.5562467 0.26459 H 14.2875 V 7.4083323 h -3.704167 v -1.85208 z m 0.2645833,0.26458 h 3.704167 v 1.5875 H 6.614583 Z m 0.2645834,0.26459 v 1.05833 h 3.1749996 v -1.05833 z m -0.2645834,1.5875 h 7.408334 v 1.5875 H 6.6145831 Z m 0.2645834,0.26458 v 1.05833 h 6.8791666 v -1.05833 z m -0.2645834,1.5875 h 7.408334 V 11.112499 H 6.6145831 Z m 0.2645834,0.26458 V 10.847919 H 13.758333 V 9.7895823 Z M 6.614583,11.377079 h 7.408334 v 1.5875 H 6.6145831 Z m 0.2645834,0.26459 v 1.05833 h 6.8791666 v -1.05833 z"
         sodipodi:nodetypes="ccccccccccccccccccccccccccccccccccccccccccccccccc" /><path
         id="rect1771"
         style="fill:#eaf4ff;fill-opacity:1;stroke-width:0.529164;stroke-linecap:square;stroke-miterlimit:1.8;paint-order:stroke fill markers;stop-color:#000000"
         d="M 6.3499997,5.29167 V 7.14375 12.7 12.96459 H 14.2875 V 7.14375 H 10.583333 V 5.29167 Z M 6.614583,5.55625 h 3.704167 v 1.5875 H 6.614583 Z M 6.8791664,5.82084 V 6.87917 H 10.054166 V 5.82084 Z M 6.614583,7.40834 h 7.408334 v 1.5875 H 6.6145831 Z M 6.8791664,7.67292 V 8.73125 H 13.758333 V 7.67292 Z M 6.614583,9.26042 h 7.408334 v 1.5875 H 6.6145831 Z M 6.8791664,9.525 v 1.05834 H 13.758333 V 9.525 Z M 6.614583,11.1125 h 7.408334 V 12.7 H 6.6145831 Z m 0.2645834,0.26459 v 1.05833 h 6.8791666 v -1.05833 z"
         sodipodi:nodetypes="ccccccccccccccccccccccccccccccccccccccccccccccccc" /></g></g></svg>
