<?xml version="1.0" encoding="UTF-8" standalone="no"?>
<!-- Created with Inkscape (http://www.inkscape.org/) -->

<svg
   width="64"
   height="64"
   viewBox="0 0 16.933333 16.933333"
   version="1.1"
   id="svg5"
   inkscape:version="1.3.2 (091e20ef0f, 2023-11-25, custom)"
   sodipodi:docname="text-xml.svg"
   xml:space="preserve"
   xmlns:inkscape="http://www.inkscape.org/namespaces/inkscape"
   xmlns:sodipodi="http://sodipodi.sourceforge.net/DTD/sodipodi-0.dtd"
   xmlns:xlink="http://www.w3.org/1999/xlink"
   xmlns="http://www.w3.org/2000/svg"
   xmlns:svg="http://www.w3.org/2000/svg"><sodipodi:namedview
     id="namedview7"
     pagecolor="#ffffff"
     bordercolor="#000000"
     borderopacity="0.25"
     inkscape:showpageshadow="false"
     inkscape:pageopacity="0.0"
     inkscape:pagecheckerboard="0"
     inkscape:deskcolor="#d1d1d1"
     inkscape:document-units="px"
     showgrid="true"
     inkscape:zoom="14.481547"
     inkscape:cx="40.15455"
     inkscape:cy="31.902669"
     inkscape:window-width="2560"
     inkscape:window-height="1356"
     inkscape:window-x="0"
     inkscape:window-y="0"
     inkscape:window-maximized="1"
     inkscape:current-layer="layer1"><inkscape:grid
       type="xygrid"
       id="grid290"
       originx="0"
       originy="0"
       spacingy="1"
       spacingx="1"
       units="px"
       visible="true" /></sodipodi:namedview><defs
     id="defs2"><linearGradient
       id="linearGradient3"
       inkscape:collect="always"><stop
         style="stop-color:#7986cb;stop-opacity:1;"
         offset="0"
         id="stop3" /><stop
         style="stop-color:#828fd9;stop-opacity:1;"
         offset="1"
         id="stop4" /></linearGradient><style
       id="current-color-scheme"
       type="text/css">
      .ColorScheme-Text {
        color:#122036;
      }
      </style><style
       type="text/css"
       id="current-color-scheme-53">
      .ColorScheme-Text {
        color:#122036;
      }
      </style><style
       id="current-color-scheme-5"
       type="text/css">
      .ColorScheme-Text {
        color:#122036;
      }
      </style><style
       id="current-color-scheme-2"
       type="text/css">
      .ColorScheme-Text {
        color:#122036;
      }
      </style><style
       id="current-color-scheme-1"
       type="text/css">
      .ColorScheme-Text {
        color:#122036;
      }
      </style><style
       type="text/css"
       id="current-color-scheme-10">
      .ColorScheme-Text {
        color:#122036;
      }
      </style><style
       id="current-color-scheme-0"
       type="text/css">
      .ColorScheme-Text {
        color:#122036;
      }
      </style><style
       id="current-color-scheme-26"
       type="text/css">
      .ColorScheme-Text {
        color:#122036;
      }
      </style><style
       id="current-color-scheme-7"
       type="text/css">
      .ColorScheme-Text {
        color:#122036;
      }
      </style><style
       id="current-color-scheme-535"
       type="text/css">
      .ColorScheme-Text {
        color:#122036;
      }
      </style><style
       id="current-color-scheme-2-6"
       type="text/css">
      .ColorScheme-Text {
        color:#122036;
      }
      </style><style
       id="current-color-scheme-0-2"
       type="text/css">
      .ColorScheme-Text {
        color:#122036;
      }
      </style><linearGradient
       inkscape:collect="always"
       xlink:href="#linearGradient3"
       id="linearGradient4"
       x1="8.9958324"
       y1="16.404165"
       x2="8.9958324"
       y2="0.52916586"
       gradientUnits="userSpaceOnUse" /></defs><g
     inkscape:label="Capa 1"
     inkscape:groupmode="layer"
     id="layer1"><path
       id="rect971"
       d="M 2.3812498,0.26458318 H 14.552082 c 0.586318,0 1.058334,0.47201666 1.058334,1.05833332 V 15.610416 c 0,0.586317 -0.472017,1.058334 -1.058334,1.058334 H 2.3812498 c -0.5863167,0 -1.0583333,-0.472017 -1.0583333,-1.058334 V 1.3229165 c 0,-0.58631666 0.4720166,-1.05833332 1.0583333,-1.05833332 z"
       style="vector-effect:none;fill:#4a5599;fill-opacity:1;stroke:none;stroke-width:0.529167;stroke-linecap:round;stroke-linejoin:round;stroke-miterlimit:4;stroke-dasharray:none;stroke-dashoffset:0;stroke-opacity:1"
       inkscape:connector-curvature="0"
       sodipodi:nodetypes="sssssssss" /><path
       id="rect971-2"
       d="M 2.3812502,0.52916684 H 14.552083 c 0.439738,0 0.79375,0.35401249 0.79375,0.79374996 V 15.610416 c 0,0.439738 -0.354012,0.79375 -0.79375,0.79375 H 2.3812502 c -0.4397375,0 -0.79375,-0.354012 -0.79375,-0.79375 V 1.3229168 c 0,-0.43973747 0.3540125,-0.79374996 0.79375,-0.79374996 z"
       style="fill:url(#linearGradient4);fill-opacity:1;stroke:none;stroke-width:0.529167;stroke-linecap:round;stroke-linejoin:round;stroke-miterlimit:4;stroke-dasharray:none;stroke-dashoffset:0;stroke-opacity:1"
       inkscape:connector-curvature="0"
       sodipodi:nodetypes="sssssssss" /><path
       id="rect5971-3"
       style="fill:#929dde;fill-opacity:1;stroke-width:0.423333;stroke-linecap:round;stroke-linejoin:round;stroke-miterlimit:1.8;paint-order:stroke fill markers;stop-color:#000000"
       d="m 2.3812492,0.52916584 c -0.439736,0 -0.79375,0.35401249 -0.79375,0.79374996 V 1.5874992 H 1.6324572 2.645832 V 0.57412384 0.52916584 Z M 2.6458325,1.5874992 V 2.6458325 H 3.7041658 V 1.5874992 Z m 1.0583333,0 H 4.7624991 V 0.52916584 H 3.7041658 Z m 1.0583333,0 V 2.6458325 H 5.8208325 V 1.5874992 Z m 1.0583334,0 H 6.8791657 V 0.52916584 H 5.8208325 Z m 1.0583332,0 V 2.6458325 H 7.9374989 V 1.5874992 Z m 1.0583332,0 h 1.058334 V 0.52916584 h -1.058334 z m 1.058334,0 V 2.6458325 H 10.054166 V 1.5874992 Z m 1.0583331,0 h 1.058333 V 0.52916584 h -1.058333 z m 1.058333,0 v 1.0583333 h 1.058333 V 1.5874992 Z m 1.058333,0 h 1.058334 V 0.52916584 h -1.058334 z m 1.058334,0 v 1.0583333 h 1.058333 V 1.5874992 Z m 1.058333,0 h 1.013375 0.04496 V 1.3229158 c 0,-0.43973747 -0.354014,-0.79374996 -0.79375,-0.79374996 h -0.264583 v 0.044958 z m 0,1.0583333 v 1.0583333 h 1.058333 V 2.6458325 Z m 0,1.0583333 h -1.058333 v 1.0583334 h 1.058333 z m 0,1.0583334 v 1.0583333 h 1.058333 V 4.7624992 Z m 0,1.0583333 h -1.058333 v 1.0583333 h 1.058333 z m 0,1.0583333 v 1.0583333 h 1.058333 V 6.8791658 Z m 0,1.0583333 h -1.058333 v 1.0583333 h 1.058333 z m 0,1.0583333 v 1.0583336 h 1.058333 V 8.9958324 Z m 0,1.0583336 h -1.058333 v 1.058333 h 1.058333 z m 0,1.058333 v 1.058333 h 1.058333 v -1.058333 z m 0,1.058333 h -1.058333 v 1.058334 h 1.058333 z m 0,1.058334 v 1.058333 h 1.058333 v -1.058333 z m 0,1.058333 h -1.058333 v 1.058333 h 1.058333 z m 0,1.058333 v 1.013375 0.04496 h 0.264583 c 0.439736,0 0.79375,-0.354012 0.79375,-0.79375 v -0.264585 h -0.04496 z m -1.058333,0 h -1.058334 v 1.058333 h 1.058334 z m -1.058334,0 v -1.058333 h -1.058333 v 1.058333 z m -1.058333,0 h -1.058333 v 1.058333 h 1.058333 z m -1.058333,0 V 14.287499 H 8.9958329 v 1.058333 z m -1.0583331,0 h -1.058334 v 1.058333 h 1.058334 z m -1.058334,0 V 14.287499 H 6.8791657 v 1.058333 z m -1.0583332,0 H 5.8208325 v 1.058333 h 1.0583332 z m -1.0583332,0 V 14.287499 H 4.7624991 v 1.058333 z m -1.0583334,0 H 3.7041658 v 1.058333 h 1.0583333 z m -1.0583333,0 V 14.287499 H 2.6458325 v 1.058333 z m -1.0583333,0 H 1.6324577 1.5874992 v 0.264583 c 0,0.439738 0.354014,0.79375 0.79375,0.79375 h 0.2645833 v -0.04496 z m 0,-1.058333 V 13.229166 H 1.5874992 v 1.058333 z m 0,-1.058333 H 3.7041658 V 12.170832 H 2.6458325 Z m 0,-1.058334 V 11.112499 H 1.5874992 v 1.058333 z m 0,-1.058333 H 3.7041658 V 10.054166 H 2.6458325 Z m 0,-1.058333 V 8.9958324 H 1.5874992 v 1.0583336 z m 0,-1.0583336 H 3.7041658 V 7.9374991 H 2.6458325 Z m 0,-1.0583333 V 6.8791658 H 1.5874992 v 1.0583333 z m 0,-1.0583333 H 3.7041658 V 5.8208325 H 2.6458325 Z m 0,-1.0583333 V 4.7624992 H 1.5874992 v 1.0583333 z m 0,-1.0583333 H 3.7041658 V 3.7041658 H 2.6458325 Z m 0,-1.0583334 V 2.6458325 H 1.5874992 v 1.0583333 z m 1.0583333,0 H 4.7624991 V 2.6458325 H 3.7041658 Z m 1.0583333,0 V 4.7624992 H 5.8208325 V 3.7041658 Z m 1.0583334,0 H 6.8791657 V 2.6458325 H 5.8208325 Z m 1.0583332,0 V 4.7624992 H 7.9374989 V 3.7041658 Z m 1.0583332,0 h 1.058334 V 2.6458325 h -1.058334 z m 1.058334,0 V 4.7624992 H 10.054166 V 3.7041658 Z m 1.0583331,0 h 1.058333 V 2.6458325 h -1.058333 z m 1.058333,0 v 1.0583334 h 1.058333 V 3.7041658 Z m 1.058333,0 h 1.058334 V 2.6458325 h -1.058334 z m 0,1.0583334 v 1.0583333 h 1.058334 V 4.7624992 Z m 0,1.0583333 h -1.058333 v 1.0583333 h 1.058333 z m 0,1.0583333 v 1.0583333 h 1.058334 V 6.8791658 Z m 0,1.0583333 h -1.058333 v 1.0583333 h 1.058333 z m 0,1.0583333 v 1.0583336 h 1.058334 V 8.9958324 Z m 0,1.0583336 h -1.058333 v 1.058333 h 1.058333 z m 0,1.058333 v 1.058333 h 1.058334 v -1.058333 z m 0,1.058333 h -1.058333 v 1.058334 h 1.058333 z m 0,1.058334 v 1.058333 h 1.058334 v -1.058333 z m -1.058333,0 h -1.058333 v 1.058333 h 1.058333 z m -1.058333,0 V 12.170832 H 8.9958329 v 1.058334 z m -1.0583331,0 h -1.058334 v 1.058333 h 1.058334 z m -1.058334,0 V 12.170832 H 6.8791657 v 1.058334 z m -1.0583332,0 H 5.8208325 v 1.058333 h 1.0583332 z m -1.0583332,0 V 12.170832 H 4.7624991 v 1.058334 z m -1.0583334,0 H 3.7041658 v 1.058333 h 1.0583333 z m 0,-1.058334 V 11.112499 H 3.7041658 v 1.058333 z m 0,-1.058333 H 5.8208325 V 10.054166 H 4.7624991 Z m 0,-1.058333 V 8.9958324 H 3.7041658 v 1.0583336 z m 0,-1.0583336 H 5.8208325 V 7.9374991 H 4.7624991 Z m 0,-1.0583333 V 6.8791658 H 3.7041658 v 1.0583333 z m 0,-1.0583333 H 5.8208325 V 5.8208325 H 4.7624991 Z m 0,-1.0583333 V 4.7624992 H 3.7041658 v 1.0583333 z m 1.0583334,0 H 6.8791657 V 4.7624992 H 5.8208325 Z m 1.0583332,0 V 6.8791658 H 7.9374989 V 5.8208325 Z m 1.0583332,0 h 1.058334 V 4.7624992 h -1.058334 z m 1.058334,0 V 6.8791658 H 10.054166 V 5.8208325 Z m 1.0583331,0 h 1.058333 V 4.7624992 h -1.058333 z m 0,1.0583333 v 1.0583333 h 1.058333 V 6.8791658 Z m 0,1.0583333 H 8.9958329 v 1.0583333 h 1.0583331 z m 0,1.0583333 v 1.0583336 h 1.058333 V 8.9958324 Z m 0,1.0583336 H 8.9958329 v 1.058333 h 1.0583331 z m 0,1.058333 v 1.058333 h 1.058333 v -1.058333 z m -1.0583331,0 h -1.058334 v 1.058333 h 1.058334 z m -1.058334,0 V 10.054166 H 6.8791657 v 1.058333 z m -1.0583332,0 H 5.8208325 v 1.058333 h 1.0583332 z m 0,-1.058333 V 8.9958324 H 5.8208325 v 1.0583336 z m 0,-1.0583336 H 7.9374989 V 7.9374991 H 6.8791657 Z m 0,-1.0583333 V 6.8791658 H 5.8208325 v 1.0583333 z m 1.0583332,0 h 1.058334 V 6.8791658 h -1.058334 z m 0,1.0583333 v 1.0583336 h 1.058334 V 8.9958324 Z" /><path
       id="path10945-7"
       style="color:#000000;fill:#4a5599;fill-opacity:1;stroke-width:0.264583;stroke-linecap:round;stroke-linejoin:round;stroke-miterlimit:1.8;-inkscape-stroke:none;paint-order:stroke fill markers"
       d="m 9.5001945,5.0283203 a 0.26458333,0.26458333 0 0 0 -0.227893,0.1855179 l -2.116666,6.8791628 a 0.26458333,0.26458333 0 0 0 0.174666,0.330729 0.26458333,0.26458333 0 0 0 0.330729,-0.175183 L 9.7776975,5.3693841 A 0.26458333,0.26458333 0 0 0 9.6030315,5.0386549 0.26458333,0.26458333 0 0 0 9.5001945,5.0283097 Z M 5.8208331,6.0856191 A 0.26458333,0.26458333 0 0 0 5.6337644,6.1631341 L 3.2525145,8.544384 a 0.26460979,0.26460979 0 0 0 0,0.3741367 l 2.3812499,2.3812463 a 0.26458333,0.26458333 0 0 0 0.3741373,0 0.26458333,0.26458333 0 0 0 0,-0.374136 L 3.8137203,8.7314524 6.0079017,6.5372708 a 0.26458333,0.26458333 0 0 0 0,-0.3741367 0.26458333,0.26458333 0 0 0 -0.1870686,-0.077515 z m 5.2916669,0 a 0.26458333,0.26458333 0 0 0 -0.187068,0.077515 0.26458333,0.26458333 0 0 0 0,0.3741367 l 2.194181,2.1941816 -2.194181,2.1941786 a 0.26458333,0.26458333 0 0 0 0,0.374136 0.26458333,0.26458333 0 0 0 0.374136,0 l 2.381249,-2.3812463 a 0.26460979,0.26460979 0 0 0 0,-0.3741367 L 11.299568,6.1631341 A 0.26458333,0.26458333 0 0 0 11.1125,6.0856191 Z" /><path
       id="path10945"
       style="color:#000000;fill:#eaedf9;stroke-width:0.264583;stroke-linecap:round;stroke-linejoin:round;stroke-miterlimit:1.8;-inkscape-stroke:none;paint-order:stroke fill markers"
       d="M 9.5001945,4.763728 A 0.26458333,0.26458333 0 0 0 9.2723015,4.9492459 L 7.1556353,11.828412 a 0.26458333,0.26458333 0 0 0 0.1746663,0.330729 0.26458333,0.26458333 0 0 0 0.3307289,-0.175183 L 9.7776975,5.1047918 A 0.26458333,0.26458333 0 0 0 9.6030315,4.7740626 0.26458333,0.26458333 0 0 0 9.5001945,4.7637174 Z M 5.8208331,5.8210268 A 0.26458333,0.26458333 0 0 0 5.6337644,5.8985418 L 3.2525145,8.2797917 a 0.26460979,0.26460979 0 0 0 0,0.3741367 l 2.3812499,2.3812496 a 0.26458333,0.26458333 0 0 0 0.3741373,0 0.26458333,0.26458333 0 0 0 0,-0.374136 L 3.8137203,8.4668601 6.0079017,6.2726785 a 0.26458333,0.26458333 0 0 0 0,-0.3741367 0.26458333,0.26458333 0 0 0 -0.1870686,-0.077515 z m 5.2916669,0 a 0.26458333,0.26458333 0 0 0 -0.187068,0.077515 0.26458333,0.26458333 0 0 0 0,0.3741367 l 2.194181,2.1941816 -2.194181,2.1941819 a 0.26458333,0.26458333 0 0 0 0,0.374136 0.26458333,0.26458333 0 0 0 0.374136,0 l 2.38125,-2.3812496 a 0.26460979,0.26460979 0 0 0 0,-0.3741367 L 11.299568,5.8985418 A 0.26458333,0.26458333 0 0 0 11.1125,5.8210268 Z" /></g></svg>
