<?xml version="1.0" encoding="UTF-8" standalone="no"?>
<!-- Created with Inkscape (http://www.inkscape.org/) -->

<svg
   width="64"
   height="64"
   viewBox="0 0 16.933333 16.933333"
   version="1.1"
   id="svg5"
   inkscape:version="1.3.2 (091e20ef0f, 2023-11-25, custom)"
   sodipodi:docname="text-x-rust.svg"
   xml:space="preserve"
   xmlns:inkscape="http://www.inkscape.org/namespaces/inkscape"
   xmlns:sodipodi="http://sodipodi.sourceforge.net/DTD/sodipodi-0.dtd"
   xmlns:xlink="http://www.w3.org/1999/xlink"
   xmlns="http://www.w3.org/2000/svg"
   xmlns:svg="http://www.w3.org/2000/svg"><sodipodi:namedview
     id="namedview7"
     pagecolor="#ffffff"
     bordercolor="#000000"
     borderopacity="0.25"
     inkscape:showpageshadow="false"
     inkscape:pageopacity="0.0"
     inkscape:pagecheckerboard="0"
     inkscape:deskcolor="#d1d1d1"
     inkscape:document-units="px"
     showgrid="true"
     inkscape:zoom="14.481547"
     inkscape:cx="40.15455"
     inkscape:cy="31.902669"
     inkscape:window-width="2560"
     inkscape:window-height="1356"
     inkscape:window-x="0"
     inkscape:window-y="0"
     inkscape:window-maximized="1"
     inkscape:current-layer="layer1"><inkscape:grid
       type="xygrid"
       id="grid290"
       originx="0"
       originy="0"
       spacingy="1"
       spacingx="1"
       units="px"
       visible="true" /></sodipodi:namedview><defs
     id="defs2"><linearGradient
       id="linearGradient1"
       inkscape:collect="always"><stop
         style="stop-color:#5866b3;stop-opacity:1;"
         offset="0"
         id="stop1" /><stop
         style="stop-color:#7784ca;stop-opacity:1;"
         offset="1"
         id="stop2" /></linearGradient><style
       id="current-color-scheme"
       type="text/css">
      .ColorScheme-Text {
        color:#122036;
      }
      </style><style
       type="text/css"
       id="current-color-scheme-53">
      .ColorScheme-Text {
        color:#122036;
      }
      </style><style
       id="current-color-scheme-5"
       type="text/css">
      .ColorScheme-Text {
        color:#122036;
      }
      </style><style
       id="current-color-scheme-2"
       type="text/css">
      .ColorScheme-Text {
        color:#122036;
      }
      </style><style
       id="current-color-scheme-1"
       type="text/css">
      .ColorScheme-Text {
        color:#122036;
      }
      </style><style
       type="text/css"
       id="current-color-scheme-10">
      .ColorScheme-Text {
        color:#122036;
      }
      </style><style
       id="current-color-scheme-0"
       type="text/css">
      .ColorScheme-Text {
        color:#122036;
      }
      </style><style
       id="current-color-scheme-26"
       type="text/css">
      .ColorScheme-Text {
        color:#122036;
      }
      </style><style
       id="current-color-scheme-7"
       type="text/css">
      .ColorScheme-Text {
        color:#122036;
      }
      </style><style
       id="current-color-scheme-535"
       type="text/css">
      .ColorScheme-Text {
        color:#122036;
      }
      </style><style
       type="text/css"
       id="current-color-scheme-53-6">
      .ColorScheme-Text {
        color:#122036;
      }
      </style><style
       id="current-color-scheme-5-2"
       type="text/css">
      .ColorScheme-Text {
        color:#122036;
      }
      </style><style
       id="current-color-scheme-2-9"
       type="text/css">
      .ColorScheme-Text {
        color:#122036;
      }
      </style><style
       id="current-color-scheme-1-1"
       type="text/css">
      .ColorScheme-Text {
        color:#122036;
      }
      </style><style
       type="text/css"
       id="current-color-scheme-10-2">
      .ColorScheme-Text {
        color:#122036;
      }
      </style><style
       id="current-color-scheme-0-7"
       type="text/css">
      .ColorScheme-Text {
        color:#122036;
      }
      </style><style
       id="current-color-scheme-26-0"
       type="text/css">
      .ColorScheme-Text {
        color:#122036;
      }
      </style><style
       id="current-color-scheme-7-9"
       type="text/css">
      .ColorScheme-Text {
        color:#122036;
      }
      </style><style
       id="current-color-scheme-5356"
       type="text/css">
      .ColorScheme-Text {
        color:#122036;
      }
      </style><style
       type="text/css"
       id="current-color-scheme-53-2">
      .ColorScheme-Text {
        color:#122036;
      }
      </style><style
       id="current-color-scheme-5-9"
       type="text/css">
      .ColorScheme-Text {
        color:#122036;
      }
      </style><style
       id="current-color-scheme-2-1"
       type="text/css">
      .ColorScheme-Text {
        color:#122036;
      }
      </style><style
       id="current-color-scheme-1-27"
       type="text/css">
      .ColorScheme-Text {
        color:#122036;
      }
      </style><style
       type="text/css"
       id="current-color-scheme-10-0">
      .ColorScheme-Text {
        color:#122036;
      }
      </style><style
       id="current-color-scheme-0-9"
       type="text/css">
      .ColorScheme-Text {
        color:#122036;
      }
      </style><style
       id="current-color-scheme-26-3"
       type="text/css">
      .ColorScheme-Text {
        color:#122036;
      }
      </style><style
       id="current-color-scheme-7-60"
       type="text/css">
      .ColorScheme-Text {
        color:#122036;
      }
      </style><style
       id="current-color-scheme-535-6"
       type="text/css">
      .ColorScheme-Text {
        color:#122036;
      }
      </style><style
       type="text/css"
       id="current-color-scheme-53-6-2">
      .ColorScheme-Text {
        color:#122036;
      }
      </style><style
       id="current-color-scheme-5-2-6"
       type="text/css">
      .ColorScheme-Text {
        color:#122036;
      }
      </style><style
       id="current-color-scheme-2-9-1"
       type="text/css">
      .ColorScheme-Text {
        color:#122036;
      }
      </style><style
       id="current-color-scheme-1-1-8"
       type="text/css">
      .ColorScheme-Text {
        color:#122036;
      }
      </style><style
       type="text/css"
       id="current-color-scheme-10-2-7">
      .ColorScheme-Text {
        color:#122036;
      }
      </style><style
       id="current-color-scheme-0-7-9"
       type="text/css">
      .ColorScheme-Text {
        color:#122036;
      }
      </style><style
       id="current-color-scheme-26-0-2"
       type="text/css">
      .ColorScheme-Text {
        color:#122036;
      }
      </style><style
       id="current-color-scheme-7-9-0"
       type="text/css">
      .ColorScheme-Text {
        color:#122036;
      }
      </style><style
       type="text/css"
       id="current-color-scheme-3">
      .ColorScheme-Text {
        color:#36404d;
      }
      </style><style
       type="text/css"
       id="current-color-scheme-67">
      .ColorScheme-Text {
        color:#122036;
      }
      </style><style
       type="text/css"
       id="current-color-scheme-7-6">
      .ColorScheme-Text {
        color:#122036;
      }
      </style><style
       type="text/css"
       id="current-color-scheme-5-75">
      .ColorScheme-Text {
        color:#122036;
      }
      </style><style
       type="text/css"
       id="current-color-scheme-6">
      .ColorScheme-Text {
        color:#122036;
      }
      </style><style
       type="text/css"
       id="current-color-scheme-1-3">
      .ColorScheme-Text {
        color:#122036;
      }
      </style><style
       id="current-color-scheme-10-5"
       type="text/css">
      .ColorScheme-Text {
        color:#122036;
      }
      </style><style
       id="current-color-scheme-5-7"
       type="text/css">
      .ColorScheme-Text {
        color:#122036;
      }
      </style><style
       id="current-color-scheme-1-2"
       type="text/css">
      .ColorScheme-Text {
        color:#122036;
      }
      </style><style
       type="text/css"
       id="current-color-scheme-10-9">
      .ColorScheme-Text {
        color:#122036;
      }
      </style><linearGradient
       inkscape:collect="always"
       xlink:href="#linearGradient1"
       id="linearGradient2"
       x1="8"
       y1="16"
       x2="8.202116"
       y2="1"
       gradientUnits="userSpaceOnUse" /></defs><g
     inkscape:label="Capa 1"
     inkscape:groupmode="layer"
     id="layer1"><path
       sodipodi:nodetypes="sssssssss"
       inkscape:connector-curvature="0"
       style="fill:#4a5599;fill-opacity:1;stroke:none;stroke-width:0.529167;stroke-linecap:round;stroke-linejoin:round;stroke-miterlimit:4;stroke-dasharray:none;stroke-dashoffset:0;stroke-opacity:1"
       d="M 2.3812504,0.26458333 H 14.552084 c 0.586316,0 1.058333,0.47201666 1.058333,1.05833327 V 15.610416 c 0,0.586317 -0.472017,1.058334 -1.058333,1.058334 H 2.3812504 c -0.5863166,0 -1.0583333,-0.472017 -1.0583333,-1.058334 V 1.3229166 c 0,-0.58631661 0.4720167,-1.05833327 1.0583333,-1.05833327 z"
       id="rect971" /><path
       sodipodi:nodetypes="sssssssss"
       inkscape:connector-curvature="0"
       style="fill:url(#linearGradient2);fill-opacity:1;stroke:none;stroke-width:0.529167;stroke-linecap:round;stroke-linejoin:round;stroke-miterlimit:4;stroke-dasharray:none;stroke-dashoffset:0;stroke-opacity:1"
       d="M 2.3812504,0.52916666 H 14.552084 c 0.439737,0 0.79375,0.35401249 0.79375,0.79374994 V 15.610416 c 0,0.439738 -0.354013,0.79375 -0.79375,0.79375 H 2.3812504 c -0.4397375,0 -0.79375,-0.354012 -0.79375,-0.79375 V 1.3229166 c 0,-0.43973745 0.3540125,-0.79374994 0.79375,-0.79374994 z"
       id="rect971-2" /><path
       id="path1121-5"
       style="fill:#4a5599;fill-opacity:1;stroke:none;stroke-width:0.529167;stroke-linecap:round;stroke-linejoin:round;stroke-miterlimit:4;stroke-dasharray:none;stroke-dashoffset:0;stroke-opacity:1"
       d="M 3.1749999,3.1749999 V 3.7041666 H 5.2916666 V 3.1749999 Z m 2.6458333,0 v 0.5291667 h 0.79375 V 3.1749999 Z m 1.3229167,0 V 3.7041666 H 8.2020832 V 3.1749999 Z m 1.5874999,0 V 3.7041666 H 11.1125 V 3.1749999 Z M 3.1749999,4.2333332 V 4.7624999 H 4.2333332 V 4.2333332 Z m 1.5875,0 V 4.7624999 H 6.8791665 V 4.2333332 Z m 2.6458333,0 V 4.7624999 H 7.6729165 8.7312498 9.2604165 10.847916 V 4.2333332 H 9.2604165 8.7312498 7.6729165 Z M 3.1749999,5.2916665 v 0.5291667 h 0.79375 V 5.2916665 Z m 1.3229167,0 V 5.8208332 H 5.5562499 V 5.2916665 Z m 1.5874999,0 V 5.8208332 H 8.2020832 V 5.2916665 Z m 2.6458333,0 V 5.8208332 H 9.2604165 11.1125 11.377083 V 5.2916665 H 11.1125 9.2604165 Z M 3.1749999,6.3499998 V 6.8791665 H 6.0854165 V 6.3499998 Z m 3.4395833,0 V 6.8791665 H 7.1437499 7.6729165 8.2020832 10.583333 11.1125 V 6.3499998 H 10.583333 8.2020832 7.6729165 7.1437499 Z M 3.1749999,7.4083332 V 7.9374998 H 4.2333332 V 7.4083332 Z m 1.5875,0 v 0.5291666 h 2.1166666 0.5291667 1.3229166 0.5291667 1.5874995 0.529167 V 7.4083332 H 10.847916 9.2604165 8.7312498 7.4083332 6.8791665 Z m -1.5875,1.0583333 V 8.9958331 H 6.0854165 V 8.4666665 Z m 3.4395833,0 v 0.5291666 h 0.2645833 0.79375 2.6458335 V 8.4666665 H 7.6729165 6.8791665 Z M 3.1749999,9.5249998 V 10.054166 H 4.2333332 V 9.5249998 Z m 1.5875,0 V 10.054166 H 6.6145832 7.1437499 7.6729165 V 9.5249998 H 7.1437499 6.6145832 Z M 8.7312498,9.7895831 V 10.58333 h 0.79375 v 1.058333 0.79375 1.058333 h -0.79375 v 0.79375 H 11.1125 v -0.79375 h -0.79375 v -1.058333 h 1.5875 v 1.852083 h 2.645833 v -0.529166 -0.264584 -0.79375 h -0.79375 v 0.79375 H 12.7 v -1.058333 h 0.529166 V 11.641663 9.7895831 Z M 3.1749999,10.58333 v 0.529166 H 5.2916666 V 10.58333 Z m 2.6458333,0 v 0.529166 H 6.8791665 8.2020832 V 10.58333 H 6.8791665 Z m 4.4979168,0 h 2.116666 v 1.058333 H 10.31875 Z m -7.1437501,1.058333 v 0.529167 h 2.9104166 v -0.529167 z m 3.4395833,0 V 12.17083 H 6.8791665 7.1437499 7.6729165 V 11.641663 H 7.1437499 6.8791665 Z m -3.4395833,1.058333 v 0.529167 h 1.0583333 v -0.529167 z m 1.5875,0 v 0.529167 h 2.38125 0.5291666 0.5291667 V 12.699996 H 7.6729165 7.1437499 Z m -1.5875,1.058334 v 0.529166 H 5.2916666 V 13.75833 Z m 2.6458333,0 v 0.529166 h 1.0583333 0.79375 V 13.75833 h -0.79375 z" /><path
       id="path1121"
       style="fill:#eaecf6;fill-opacity:1;stroke:none;stroke-width:0.529167;stroke-linecap:round;stroke-linejoin:round;stroke-miterlimit:4;stroke-dasharray:none;stroke-dashoffset:0;stroke-opacity:1"
       d="M 3.1749999 2.9104166 L 3.1749999 3.4395833 L 5.2916666 3.4395833 L 5.2916666 2.9104166 L 3.1749999 2.9104166 z M 5.8208332 2.9104166 L 5.8208332 3.4395833 L 6.6145832 3.4395833 L 6.6145832 2.9104166 L 5.8208332 2.9104166 z M 7.1437499 2.9104166 L 7.1437499 3.4395833 L 8.2020832 3.4395833 L 8.2020832 2.9104166 L 7.1437499 2.9104166 z M 8.7312498 2.9104166 L 8.7312498 3.4395833 L 11.1125 3.4395833 L 11.1125 2.9104166 L 8.7312498 2.9104166 z M 3.1749999 3.9687499 L 3.1749999 4.4979166 L 4.2333332 4.4979166 L 4.2333332 3.9687499 L 3.1749999 3.9687499 z M 4.7624999 3.9687499 L 4.7624999 4.4979166 L 6.8791665 4.4979166 L 6.8791665 3.9687499 L 4.7624999 3.9687499 z M 7.4083332 3.9687499 L 7.4083332 4.4979166 L 7.6729165 4.4979166 L 8.7312498 4.4979166 L 9.2604165 4.4979166 L 10.847916 4.4979166 L 10.847916 3.9687499 L 9.2604165 3.9687499 L 8.7312498 3.9687499 L 7.6729165 3.9687499 L 7.4083332 3.9687499 z M 3.1749999 5.0270832 L 3.1749999 5.5562499 L 3.9687499 5.5562499 L 3.9687499 5.0270832 L 3.1749999 5.0270832 z M 4.4979166 5.0270832 L 4.4979166 5.5562499 L 5.5562499 5.5562499 L 5.5562499 5.0270832 L 4.4979166 5.0270832 z M 6.0854165 5.0270832 L 6.0854165 5.5562499 L 8.2020832 5.5562499 L 8.2020832 5.0270832 L 6.0854165 5.0270832 z M 8.7312498 5.0270832 L 8.7312498 5.5562499 L 9.2604165 5.5562499 L 11.1125 5.5562499 L 11.377083 5.5562499 L 11.377083 5.0270832 L 11.1125 5.0270832 L 9.2604165 5.0270832 L 8.7312498 5.0270832 z M 3.1749999 6.0854165 L 3.1749999 6.6145832 L 6.0854165 6.6145832 L 6.0854165 6.0854165 L 3.1749999 6.0854165 z M 6.6145832 6.0854165 L 6.6145832 6.6145832 L 7.1437499 6.6145832 L 7.6729165 6.6145832 L 8.2020832 6.6145832 L 10.583333 6.6145832 L 11.1125 6.6145832 L 11.1125 6.0854165 L 10.583333 6.0854165 L 8.2020832 6.0854165 L 7.6729165 6.0854165 L 7.1437499 6.0854165 L 6.6145832 6.0854165 z M 3.1749999 7.1437499 L 3.1749999 7.6729165 L 4.2333332 7.6729165 L 4.2333332 7.1437499 L 3.1749999 7.1437499 z M 4.7624999 7.1437499 L 4.7624999 7.6729165 L 6.8791665 7.6729165 L 7.4083332 7.6729165 L 8.7312498 7.6729165 L 9.2604165 7.6729165 L 10.847916 7.6729165 L 11.377083 7.6729165 L 11.377083 7.1437499 L 10.847916 7.1437499 L 9.2604165 7.1437499 L 8.7312498 7.1437499 L 7.4083332 7.1437499 L 6.8791665 7.1437499 L 4.7624999 7.1437499 z M 3.1749999 8.2020832 L 3.1749999 8.7312498 L 6.0854165 8.7312498 L 6.0854165 8.2020832 L 3.1749999 8.2020832 z M 6.6145832 8.2020832 L 6.6145832 8.7312498 L 6.8791665 8.7312498 L 7.6729165 8.7312498 L 10.31875 8.7312498 L 10.31875 8.2020832 L 7.6729165 8.2020832 L 6.8791665 8.2020832 L 6.6145832 8.2020832 z M 3.1749999 9.2604165 L 3.1749999 9.7895831 L 4.2333332 9.7895831 L 4.2333332 9.2604165 L 3.1749999 9.2604165 z M 4.7624999 9.2604165 L 4.7624999 9.7895831 L 6.6145832 9.7895831 L 7.1437499 9.7895831 L 7.6729165 9.7895831 L 7.6729165 9.2604165 L 7.1437499 9.2604165 L 6.6145832 9.2604165 L 4.7624999 9.2604165 z M 8.7312498 9.5249998 L 8.7312498 10.31875 L 9.5249998 10.31875 L 9.5249998 11.377083 L 9.5249998 12.170833 L 9.5249998 13.229166 L 8.7312498 13.229166 L 8.7312498 14.022916 L 11.1125 14.022916 L 11.1125 13.229166 L 10.31875 13.229166 L 10.31875 12.170833 L 11.90625 12.170833 L 11.90625 14.022916 L 14.552083 14.022916 L 14.552083 13.49375 L 14.552083 13.229166 L 14.552083 12.435416 L 13.758333 12.435416 L 13.758333 13.229166 L 12.7 13.229166 L 12.7 12.170833 L 13.229166 12.170833 L 13.229166 11.377083 L 13.229166 9.5249998 L 8.7312498 9.5249998 z M 3.1749999 10.31875 L 3.1749999 10.847916 L 5.2916666 10.847916 L 5.2916666 10.31875 L 3.1749999 10.31875 z M 5.8208332 10.31875 L 5.8208332 10.847916 L 6.8791665 10.847916 L 8.2020832 10.847916 L 8.2020832 10.31875 L 6.8791665 10.31875 L 5.8208332 10.31875 z M 10.31875 10.31875 L 12.435416 10.31875 L 12.435416 11.377083 L 10.31875 11.377083 L 10.31875 10.31875 z M 3.1749999 11.377083 L 3.1749999 11.90625 L 6.0854165 11.90625 L 6.0854165 11.377083 L 3.1749999 11.377083 z M 6.6145832 11.377083 L 6.6145832 11.90625 L 6.8791665 11.90625 L 7.1437499 11.90625 L 7.6729165 11.90625 L 7.6729165 11.377083 L 7.1437499 11.377083 L 6.8791665 11.377083 L 6.6145832 11.377083 z M 3.1749999 12.435416 L 3.1749999 12.964583 L 4.2333332 12.964583 L 4.2333332 12.435416 L 3.1749999 12.435416 z M 4.7624999 12.435416 L 4.7624999 12.964583 L 7.1437499 12.964583 L 7.6729165 12.964583 L 8.2020832 12.964583 L 8.2020832 12.435416 L 7.6729165 12.435416 L 7.1437499 12.435416 L 4.7624999 12.435416 z M 3.1749999 13.49375 L 3.1749999 14.022916 L 5.2916666 14.022916 L 5.2916666 13.49375 L 3.1749999 13.49375 z M 5.8208332 13.49375 L 5.8208332 14.022916 L 6.8791665 14.022916 L 7.6729165 14.022916 L 7.6729165 13.49375 L 6.8791665 13.49375 L 5.8208332 13.49375 z " /></g></svg>
