<?xml version="1.0" encoding="UTF-8" standalone="no"?>
<!-- Created with Inkscape (http://www.inkscape.org/) -->

<svg
   width="64"
   height="64"
   viewBox="0 0 16.933333 16.933333"
   version="1.1"
   id="svg5"
   inkscape:version="1.3.2 (091e20ef0f, 2023-11-25, custom)"
   sodipodi:docname="unknown.svg"
   xml:space="preserve"
   xmlns:inkscape="http://www.inkscape.org/namespaces/inkscape"
   xmlns:sodipodi="http://sodipodi.sourceforge.net/DTD/sodipodi-0.dtd"
   xmlns:xlink="http://www.w3.org/1999/xlink"
   xmlns="http://www.w3.org/2000/svg"
   xmlns:svg="http://www.w3.org/2000/svg"><sodipodi:namedview
     id="namedview7"
     pagecolor="#ffffff"
     bordercolor="#000000"
     borderopacity="0.25"
     inkscape:showpageshadow="false"
     inkscape:pageopacity="0.0"
     inkscape:pagecheckerboard="0"
     inkscape:deskcolor="#d1d1d1"
     inkscape:document-units="px"
     showgrid="true"
     inkscape:zoom="14.481547"
     inkscape:cx="40.15455"
     inkscape:cy="31.902669"
     inkscape:window-width="2560"
     inkscape:window-height="1356"
     inkscape:window-x="0"
     inkscape:window-y="0"
     inkscape:window-maximized="1"
     inkscape:current-layer="layer1"><inkscape:grid
       type="xygrid"
       id="grid290"
       originx="0"
       originy="0"
       spacingy="1"
       spacingx="1"
       units="px"
       visible="true" /></sodipodi:namedview><defs
     id="defs2"><linearGradient
       id="linearGradient1"
       inkscape:collect="always"><stop
         style="stop-color:#e4efef;stop-opacity:1;"
         offset="0"
         id="stop1" /><stop
         style="stop-color:#fbfcfc;stop-opacity:1;"
         offset="1"
         id="stop2" /></linearGradient><style
       id="current-color-scheme"
       type="text/css">
      .ColorScheme-Text {
        color:#122036;
      }
      </style><style
       id="current-color-scheme-2"
       type="text/css">
      .ColorScheme-Text {
        color:#122036;
      }
      </style><style
       id="current-color-scheme-0"
       type="text/css">
      .ColorScheme-Text {
        color:#122036;
      }
      </style><style
       id="current-color-scheme-5"
       type="text/css">
      .ColorScheme-Text {
        color:#122036;
      }
      </style><style
       id="current-color-scheme-53"
       type="text/css">
      .ColorScheme-Text {
        color:#122036;
      }
      </style><style
       id="current-color-scheme-2-5"
       type="text/css">
      .ColorScheme-Text {
        color:#122036;
      }
      </style><style
       id="current-color-scheme-0-6"
       type="text/css">
      .ColorScheme-Text {
        color:#122036;
      }
      </style><linearGradient
       inkscape:collect="always"
       xlink:href="#linearGradient1"
       id="linearGradient2"
       x1="10.116667"
       y1="16.529167"
       x2="10.054167"
       y2="1.5875003"
       gradientUnits="userSpaceOnUse" /></defs><g
     inkscape:label="Capa 1"
     inkscape:groupmode="layer"
     id="layer1"><g
       id="g8147"
       transform="translate(-2.1166666,-0.52916717)"><path
         id="rect971"
         d="M 4.4979166,0.79375035 H 16.66875 c 0.586316,0 1.058333,0.47201665 1.058333,1.05833335 V 16.139583 c 0,0.586317 -0.472017,1.058334 -1.058333,1.058334 H 4.4979166 c -0.5863167,0 -1.0583333,-0.472017 -1.0583333,-1.058334 V 1.8520837 c 0,-0.5863167 0.4720166,-1.05833335 1.0583333,-1.05833335 z"
         style="fill:#90a4ae;fill-opacity:1;stroke:none;stroke-width:0.529167;stroke-linecap:round;stroke-linejoin:round;stroke-miterlimit:4;stroke-dasharray:none;stroke-dashoffset:0;stroke-opacity:1"
         inkscape:connector-curvature="0"
         sodipodi:nodetypes="sssssssss" /><path
         id="rect971-2"
         d="M 4.4979166,1.0583337 H 16.66875 c 0.439737,0 0.79375,0.3540125 0.79375,0.79375 V 16.139583 c 0,0.439738 -0.354013,0.79375 -0.79375,0.79375 H 4.4979166 c -0.4397375,0 -0.79375,-0.354012 -0.79375,-0.79375 V 1.8520837 c 0,-0.4397375 0.3540125,-0.79375 0.79375,-0.79375 z"
         style="fill:url(#linearGradient2);fill-opacity:1;stroke:none;stroke-width:0.529167;stroke-linecap:round;stroke-linejoin:round;stroke-miterlimit:4;stroke-dasharray:none;stroke-dashoffset:0;stroke-opacity:1"
         inkscape:connector-curvature="0"
         sodipodi:nodetypes="sssssssss" /><path
         id="rect5971-3"
         style="fill:#d0dcdf;fill-opacity:1;stroke-width:0.423333;stroke-linecap:round;stroke-linejoin:round;stroke-miterlimit:1.8;paint-order:stroke fill markers;stop-color:#000000"
         d="m 4.4979166,1.0583337 c -0.439736,0 -0.79375,0.3540125 -0.79375,0.79375 V 2.116667 h 0.044958 1.0133748 V 1.1032917 1.0583337 Z M 4.7624999,2.116667 V 3.1750003 H 5.8208332 V 2.116667 Z m 1.0583333,0 H 6.8791665 V 1.0583337 H 5.8208332 Z m 1.0583333,0 V 3.1750003 H 7.9374999 V 2.116667 Z m 1.0583334,0 H 8.9958332 V 1.0583337 H 7.9374999 Z m 1.0583333,0 V 3.1750003 H 10.054167 V 2.116667 Z m 1.0583338,0 H 11.1125 V 1.0583337 h -1.058333 z m 1.058333,0 v 1.0583333 h 1.058333 V 2.116667 Z m 1.058333,0 h 1.058333 V 1.0583337 h -1.058333 z m 1.058333,0 V 3.1750003 H 14.2875 V 2.116667 Z m 1.058334,0 h 1.058333 V 1.0583337 H 14.2875 Z m 1.058333,0 v 1.0583333 h 1.058333 V 2.116667 Z m 1.058333,0 h 1.013375 0.04496 V 1.8520837 c 0,-0.4397375 -0.354014,-0.79375 -0.79375,-0.79375 h -0.264584 v 0.044958 z m 0,1.0583333 V 4.2333336 H 17.4625 V 3.1750003 Z m 0,1.0583333 H 15.345833 V 5.291667 h 1.058333 z m 0,1.0583334 V 6.3500003 H 17.4625 V 5.291667 Z m 0,1.0583333 h -1.058333 v 1.0583333 h 1.058333 z m 0,1.0583333 V 8.4666669 H 17.4625 V 7.4083336 Z m 0,1.0583333 h -1.058333 v 1.0583333 h 1.058333 z m 0,1.0583333 V 10.583334 H 17.4625 V 9.5250002 Z m 0,1.0583338 h -1.058333 v 1.058333 h 1.058333 z m 0,1.058333 V 12.7 H 17.4625 v -1.058333 z m 0,1.058333 h -1.058333 v 1.058334 h 1.058333 z m 0,1.058334 v 1.058333 H 17.4625 v -1.058333 z m 0,1.058333 H 15.345833 V 15.875 h 1.058333 z m 0,1.058333 v 1.013375 0.04496 h 0.264584 c 0.439736,0 0.79375,-0.354012 0.79375,-0.79375 V 15.875 h -0.04496 z m -1.058333,0 H 14.2875 v 1.058333 h 1.058333 z m -1.058333,0 V 14.816667 H 13.229166 V 15.875 Z m -1.058334,0 h -1.058333 v 1.058333 h 1.058333 z m -1.058333,0 V 14.816667 H 11.1125 V 15.875 Z m -1.058333,0 h -1.058333 v 1.058333 H 11.1125 Z m -1.058333,0 V 14.816667 H 8.9958332 V 15.875 Z m -1.0583338,0 H 7.9374999 v 1.058333 h 1.0583333 z m -1.0583333,0 V 14.816667 H 6.8791665 V 15.875 Z m -1.0583334,0 H 5.8208332 v 1.058333 h 1.0583333 z m -1.0583333,0 V 14.816667 H 4.7624999 V 15.875 Z m -1.0583333,0 H 3.7491251 3.7041666 v 0.264583 c 0,0.439738 0.354014,0.79375 0.79375,0.79375 h 0.2645833 v -0.04496 z m 0,-1.058333 V 13.758334 H 3.7041666 v 1.058333 z m 0,-1.058333 H 5.8208332 V 12.7 H 4.7624999 Z m 0,-1.058334 V 11.641667 H 3.7041666 V 12.7 Z m 0,-1.058333 H 5.8208332 V 10.583334 H 4.7624999 Z m 0,-1.058333 V 9.5250002 H 3.7041666 v 1.0583338 z m 0,-1.0583338 H 5.8208332 V 8.4666669 H 4.7624999 Z m 0,-1.0583333 V 7.4083336 H 3.7041666 v 1.0583333 z m 0,-1.0583333 H 5.8208332 V 6.3500003 H 4.7624999 Z m 0,-1.0583333 V 5.291667 H 3.7041666 v 1.0583333 z m 0,-1.0583333 H 5.8208332 V 4.2333336 H 4.7624999 Z m 0,-1.0583334 V 3.1750003 H 3.7041666 v 1.0583333 z m 1.0583333,0 H 6.8791665 V 3.1750003 H 5.8208332 Z m 1.0583333,0 V 5.291667 H 7.9374999 V 4.2333336 Z m 1.0583334,0 H 8.9958332 V 3.1750003 H 7.9374999 Z m 1.0583333,0 V 5.291667 H 10.054167 V 4.2333336 Z m 1.0583338,0 H 11.1125 V 3.1750003 h -1.058333 z m 1.058333,0 V 5.291667 h 1.058333 V 4.2333336 Z m 1.058333,0 h 1.058333 V 3.1750003 h -1.058333 z m 1.058333,0 V 5.291667 H 14.2875 V 4.2333336 Z m 1.058334,0 h 1.058333 V 3.1750003 H 14.2875 Z m 0,1.0583334 v 1.0583333 h 1.058333 V 5.291667 Z m 0,1.0583333 H 13.229166 V 7.4083336 H 14.2875 Z m 0,1.0583333 v 1.0583333 h 1.058333 V 7.4083336 Z m 0,1.0583333 H 13.229166 V 9.5250002 H 14.2875 Z m 0,1.0583333 v 1.0583338 h 1.058333 V 9.5250002 Z m 0,1.0583338 h -1.058334 v 1.058333 H 14.2875 Z m 0,1.058333 V 12.7 h 1.058333 v -1.058333 z m 0,1.058333 h -1.058334 v 1.058334 H 14.2875 Z m 0,1.058334 v 1.058333 h 1.058333 v -1.058333 z m -1.058334,0 h -1.058333 v 1.058333 h 1.058333 z m -1.058333,0 V 12.7 H 11.1125 v 1.058334 z m -1.058333,0 h -1.058333 v 1.058333 H 11.1125 Z m -1.058333,0 V 12.7 H 8.9958332 v 1.058334 z m -1.0583338,0 H 7.9374999 v 1.058333 h 1.0583333 z m -1.0583333,0 V 12.7 H 6.8791665 v 1.058334 z m -1.0583334,0 H 5.8208332 v 1.058333 h 1.0583333 z m 0,-1.058334 V 11.641667 H 5.8208332 V 12.7 Z m 0,-1.058333 H 7.9374999 V 10.583334 H 6.8791665 Z m 0,-1.058333 V 9.5250002 H 5.8208332 v 1.0583338 z m 0,-1.0583338 H 7.9374999 V 8.4666669 H 6.8791665 Z m 0,-1.0583333 V 7.4083336 H 5.8208332 v 1.0583333 z m 0,-1.0583333 H 7.9374999 V 6.3500003 H 6.8791665 Z m 0,-1.0583333 V 5.291667 H 5.8208332 v 1.0583333 z m 1.0583334,0 H 8.9958332 V 5.291667 H 7.9374999 Z m 1.0583333,0 V 7.4083336 H 10.054167 V 6.3500003 Z m 1.0583338,0 H 11.1125 V 5.291667 h -1.058333 z m 1.058333,0 v 1.0583333 h 1.058333 V 6.3500003 Z m 1.058333,0 h 1.058333 V 5.291667 h -1.058333 z m 0,1.0583333 v 1.0583333 h 1.058333 V 7.4083336 Z m 0,1.0583333 H 11.1125 v 1.0583333 h 1.058333 z m 0,1.0583333 v 1.0583338 h 1.058333 V 9.5250002 Z m 0,1.0583338 H 11.1125 v 1.058333 h 1.058333 z m 0,1.058333 V 12.7 h 1.058333 v -1.058333 z m -1.058333,0 H 10.054167 V 12.7 H 11.1125 Z m -1.058333,0 V 10.583334 H 8.9958332 v 1.058333 z m -1.0583338,0 H 7.9374999 V 12.7 h 1.0583333 z m 0,-1.058333 V 9.5250002 H 7.9374999 v 1.0583338 z m 0,-1.0583338 H 10.054167 V 8.4666669 H 8.9958332 Z m 0,-1.0583333 V 7.4083336 H 7.9374999 v 1.0583333 z m 1.0583338,0 H 11.1125 V 7.4083336 h -1.058333 z m 0,1.0583333 V 10.583334 H 11.1125 V 9.5250002 Z" /><path
         id="path6457-7"
         style="fill:#90a4ae;fill-opacity:1;stroke-width:0.529167;stroke-linecap:round;stroke-linejoin:round;stroke-miterlimit:1.8;paint-order:stroke fill markers;stop-color:#000000"
         d="M 10.583333,4.7625004 A 3.96875,4.4979166 0 0 0 6.6145828,9.2604167 3.96875,4.4979166 0 0 0 10.583333,13.75833 3.96875,4.4979166 0 0 0 14.552083,9.2604167 3.96875,4.4979166 0 0 0 10.583333,4.7625004 Z m 0,1.3229166 A 2.6458333,3.175001 0 0 1 13.229166,9.2604167 2.6458333,3.175001 0 0 1 10.583333,12.435414 2.6458333,3.175001 0 0 1 7.9374995,9.2604167 2.6458333,3.175001 0 0 1 10.583333,6.085417 Z" /><path
         id="path6457"
         style="fill:#4a505a;fill-opacity:1;stroke-width:0.529167;stroke-linecap:round;stroke-linejoin:round;stroke-miterlimit:1.8;paint-order:stroke fill markers;stop-color:#000000"
         d="M 10.583333,4.497917 A 3.96875,4.4979166 0 0 0 6.6145832,8.9958336 3.96875,4.4979166 0 0 0 10.583333,13.49375 3.96875,4.4979166 0 0 0 14.552083,8.9958336 3.96875,4.4979166 0 0 0 10.583333,4.497917 Z m 0,1.3229166 a 2.6458333,3.175001 0 0 1 2.645833,3.175 2.6458333,3.175001 0 0 1 -2.645833,3.1750004 2.6458333,3.175001 0 0 1 -2.6458331,-3.1750004 2.6458333,3.175001 0 0 1 2.6458331,-3.175 z" /></g></g></svg>
