<?xml version="1.0" encoding="UTF-8" standalone="no"?>
<!-- Created with Inkscape (http://www.inkscape.org/) -->

<svg
   width="64"
   height="64"
   viewBox="0 0 16.933333 16.933333"
   version="1.1"
   id="svg5"
   inkscape:version="1.3.2 (091e20ef0f, 2023-11-25, custom)"
   sodipodi:docname="virtualbox-vbox.svg"
   xml:space="preserve"
   xmlns:inkscape="http://www.inkscape.org/namespaces/inkscape"
   xmlns:sodipodi="http://sodipodi.sourceforge.net/DTD/sodipodi-0.dtd"
   xmlns:xlink="http://www.w3.org/1999/xlink"
   xmlns="http://www.w3.org/2000/svg"
   xmlns:svg="http://www.w3.org/2000/svg"><sodipodi:namedview
     id="namedview7"
     pagecolor="#ffffff"
     bordercolor="#000000"
     borderopacity="0.25"
     inkscape:showpageshadow="false"
     inkscape:pageopacity="0.0"
     inkscape:pagecheckerboard="0"
     inkscape:deskcolor="#d1d1d1"
     inkscape:document-units="px"
     showgrid="true"
     inkscape:zoom="14.481547"
     inkscape:cx="40.15455"
     inkscape:cy="31.902669"
     inkscape:window-width="2560"
     inkscape:window-height="1356"
     inkscape:window-x="0"
     inkscape:window-y="0"
     inkscape:window-maximized="1"
     inkscape:current-layer="layer1"><inkscape:grid
       type="xygrid"
       id="grid290"
       originx="0"
       originy="0"
       spacingy="1"
       spacingx="1"
       units="px"
       visible="true" /></sodipodi:namedview><defs
     id="defs2"><linearGradient
       id="linearGradient1"
       inkscape:collect="always"><stop
         style="stop-color:#3572f0;stop-opacity:1;"
         offset="0"
         id="stop1" /><stop
         style="stop-color:#5694fb;stop-opacity:1;"
         offset="1"
         id="stop2" /></linearGradient><style
       id="current-color-scheme"
       type="text/css">
      .ColorScheme-Text {
        color:#122036;
      }
      </style><style
       id="current-color-scheme-2"
       type="text/css">
      .ColorScheme-Text {
        color:#122036;
      }
      </style><style
       id="current-color-scheme-0"
       type="text/css">
      .ColorScheme-Text {
        color:#122036;
      }
      </style><style
       id="current-color-scheme-53"
       type="text/css">
      .ColorScheme-Text {
        color:#122036;
      }
      </style><style
       id="current-color-scheme-2-56"
       type="text/css">
      .ColorScheme-Text {
        color:#122036;
      }
      </style><style
       id="current-color-scheme-0-2"
       type="text/css">
      .ColorScheme-Text {
        color:#122036;
      }
      </style><style
       id="current-color-scheme-5"
       type="text/css">
      .ColorScheme-Text {
        color:#122036;
      }
      </style><style
       id="current-color-scheme-2-3"
       type="text/css">
      .ColorScheme-Text {
        color:#122036;
      }
      </style><style
       id="current-color-scheme-0-5"
       type="text/css">
      .ColorScheme-Text {
        color:#122036;
      }
      </style><style
       id="current-color-scheme-6"
       type="text/css">
      .ColorScheme-Text {
        color:#122036;
      }
      </style><style
       id="current-color-scheme-2-7"
       type="text/css">
      .ColorScheme-Text {
        color:#122036;
      }
      </style><style
       id="current-color-scheme-0-53"
       type="text/css">
      .ColorScheme-Text {
        color:#122036;
      }
      </style><style
       id="current-color-scheme-5-5"
       type="text/css">
      .ColorScheme-Text {
        color:#122036;
      }
      </style><style
       id="current-color-scheme-2-3-6"
       type="text/css">
      .ColorScheme-Text {
        color:#122036;
      }
      </style><style
       id="current-color-scheme-0-5-2"
       type="text/css">
      .ColorScheme-Text {
        color:#122036;
      }
      </style><style
       type="text/css"
       id="current-color-scheme-36">
      .ColorScheme-Text {
        color:#36404d;
      }
      </style><style
       id="current-color-scheme-3"
       type="text/css">
      .ColorScheme-Text {
        color:#122036;
      }
      </style><style
       type="text/css"
       id="current-color-scheme-5-7">
      .ColorScheme-Text {
        color:#122036;
      }
      </style><style
       type="text/css"
       id="current-color-scheme-2-5">
      .ColorScheme-Text {
        color:#122036;
      }
      </style><style
       type="text/css"
       id="current-color-scheme-1">
      .ColorScheme-Text {
        color:#122036;
      }
      </style><style
       id="current-color-scheme-10"
       type="text/css">
      .ColorScheme-Text {
        color:#122036;
      }
      </style><style
       type="text/css"
       id="current-color-scheme-0-3">
      .ColorScheme-Text {
        color:#122036;
      }
      </style><style
       type="text/css"
       id="current-color-scheme-26">
      .ColorScheme-Text {
        color:#122036;
      }
      </style><linearGradient
       inkscape:collect="always"
       xlink:href="#linearGradient1"
       id="linearGradient2"
       x1="10.610369"
       y1="15.911508"
       x2="10.611108"
       y2="1.7702351"
       gradientUnits="userSpaceOnUse" /></defs><g
     inkscape:label="Capa 1"
     inkscape:groupmode="layer"
     id="layer1"><g
       id="g8518"
       transform="translate(-2.1166664,-0.26458314)"><path
         style="fill:#33518f;fill-opacity:1;stroke:none;stroke-width:0.529167;stroke-linecap:round;stroke-linejoin:round;stroke-miterlimit:4;stroke-dasharray:none;stroke-dashoffset:0;stroke-opacity:1"
         d="m 4.4979161,0.52916629 c -0.5863166,0 -1.0583333,0.47201671 -1.0583333,1.05833331 v 3.7041666 1.0583333 9.5249995 c 0,0.586317 0.4720167,1.058334 1.0583333,1.058334 H 16.668749 c 0.586317,0 1.058334,-0.472017 1.058334,-1.058334 V 6.3499995 5.2916662 5.0270829 1.5874996 c 0,-0.5863166 -0.472017,-1.05833331 -1.058334,-1.05833331 z"
         id="rect971"
         inkscape:connector-curvature="0" /><path
         style="fill:url(#linearGradient2);fill-opacity:1;stroke:none;stroke-width:0.529167;stroke-linecap:round;stroke-linejoin:round;stroke-miterlimit:4;stroke-dasharray:none;stroke-dashoffset:0;stroke-opacity:1"
         d="m 4.4979161,0.79374962 c -0.4397374,0 -0.7937499,0.35401248 -0.7937499,0.79374998 v 3.175 0.5291666 0.79375 9.7895828 c 0,0.439738 0.3540125,0.79375 0.7937499,0.79375 H 16.668749 c 0.439738,0 0.79375,-0.354012 0.79375,-0.79375 v -9.7895828 -0.79375 -0.5291666 -3.175 c 0,-0.4397375 -0.354012,-0.79374998 -0.79375,-0.79374998 z"
         id="rect971-2"
         inkscape:connector-curvature="0" /><path
         id="rect1291-7"
         style="fill:#33518f;fill-opacity:1;stroke-width:0.60174;stroke-linecap:round;stroke-miterlimit:1.8;paint-order:stroke fill markers;stop-color:#000000"
         d="m 6.8791666,5.027083 c -0.1465789,0 -0.2645834,0.1180044 -0.2645834,0.2645833 v 7.4083297 c 0,0.146579 0.1180045,0.264584 0.2645834,0.264584 H 14.2875 c 0.146579,0 0.264583,-0.118005 0.264583,-0.264584 V 5.2916663 c 0,-0.1465789 -0.118004,-0.2645833 -0.264583,-0.2645833 z M 7.1437499,5.5562496 H 14.022916 V 8.4656327 H 12.9651 A 0.26460996,0.26460996 0 0 0 12.728939,8.6123938 L 12.24473,9.5808101 11.633398,7.3385697 A 0.26460996,0.26460996 0 0 0 11.385351,7.1437496 0.26460996,0.26460996 0 0 0 11.125419,7.3251339 L 10.656714,8.7312496 H 10.31875 A 0.26460996,0.26460996 0 0 0 10.074837,8.8914465 L 9.5549719,10.104291 8.7172972,7.5886837 A 0.26460996,0.26460996 0 0 0 8.2212035,7.5752478 L 7.7581827,8.7312496 H 7.1437499 Z m 4.2080121,2.7631388 0.564823,2.0680876 a 0.26460996,0.26460996 0 0 0 0.489893,0.04909 l 0.720886,-1.4417686 h 0.895552 V 12.435413 H 7.1437499 V 9.260933 H 7.9380167 A 0.26460996,0.26460996 0 0 0 8.1839965,9.0945349 l 0.2599324,-0.6500895 0.829924,2.4882166 a 0.26460996,0.26460996 0 0 0 0.494026,0.01964 L 10.492383,9.260933 h 0.355534 A 0.26460996,0.26460996 0 0 0 11.09803,9.0790319 Z" /><path
         id="rect1291"
         style="fill:#e3f7ff;fill-opacity:1;stroke-width:0.60174;stroke-linecap:round;stroke-miterlimit:1.8;paint-order:stroke fill markers;stop-color:#000000"
         d="m 6.8791666,4.7624957 c -0.1465789,0 -0.2645834,0.1180044 -0.2645834,0.2645833 v 7.408333 c 0,0.146579 0.1180045,0.264584 0.2645834,0.264584 H 14.2875 c 0.146579,0 0.264583,-0.118005 0.264583,-0.264584 V 5.027079 c 0,-0.1465789 -0.118004,-0.2645833 -0.264583,-0.2645833 z M 7.1437499,5.2916623 H 14.022916 V 8.2010454 H 12.9651 A 0.26460996,0.26460996 0 0 0 12.728939,8.3478065 L 12.24473,9.3162228 11.633398,7.0739824 A 0.26460996,0.26460996 0 0 0 11.385351,6.8791623 0.26460996,0.26460996 0 0 0 11.125419,7.0605466 L 10.656714,8.4666623 H 10.31875 A 0.26460996,0.26460996 0 0 0 10.074837,8.6268592 L 9.5549722,9.839705 8.7172972,7.3240964 A 0.26460996,0.26460996 0 0 0 8.2212035,7.3106605 L 7.7581827,8.4666623 H 7.1437499 Z m 4.2080121,2.7631388 0.564823,2.0680909 a 0.26460996,0.26460996 0 0 0 0.489893,0.04909 l 0.720886,-1.4417719 h 0.895552 V 12.170829 H 7.1437499 V 8.9963457 H 7.9380167 A 0.26460996,0.26460996 0 0 0 8.1839965,8.8299476 L 8.4439289,8.1798581 9.2738524,10.668078 a 0.26460996,0.26460996 0 0 0 0.4940267,0.01964 L 10.492383,8.9963457 h 0.355534 A 0.26460996,0.26460996 0 0 0 11.09803,8.8144446 Z" /></g></g></svg>
