<?xml version="1.0" encoding="UTF-8" standalone="no"?>
<!-- Created with Inkscape (http://www.inkscape.org/) -->

<svg
   width="64"
   height="64"
   viewBox="0 0 16.933333 16.933333"
   version="1.1"
   id="svg5"
   inkscape:version="1.3.2 (091e20ef0f, 2023-11-25, custom)"
   sodipodi:docname="virtualbox-ova.svg"
   xml:space="preserve"
   xmlns:inkscape="http://www.inkscape.org/namespaces/inkscape"
   xmlns:sodipodi="http://sodipodi.sourceforge.net/DTD/sodipodi-0.dtd"
   xmlns:xlink="http://www.w3.org/1999/xlink"
   xmlns="http://www.w3.org/2000/svg"
   xmlns:svg="http://www.w3.org/2000/svg"><sodipodi:namedview
     id="namedview7"
     pagecolor="#ffffff"
     bordercolor="#000000"
     borderopacity="0.25"
     inkscape:showpageshadow="false"
     inkscape:pageopacity="0.0"
     inkscape:pagecheckerboard="0"
     inkscape:deskcolor="#d1d1d1"
     inkscape:document-units="px"
     showgrid="true"
     inkscape:zoom="14.481547"
     inkscape:cx="40.15455"
     inkscape:cy="31.902669"
     inkscape:window-width="2560"
     inkscape:window-height="1356"
     inkscape:window-x="0"
     inkscape:window-y="0"
     inkscape:window-maximized="1"
     inkscape:current-layer="layer1"><inkscape:grid
       type="xygrid"
       id="grid290"
       originx="0"
       originy="0"
       spacingy="1"
       spacingx="1"
       units="px"
       visible="true" /></sodipodi:namedview><defs
     id="defs2"><linearGradient
       id="linearGradient1"
       inkscape:collect="always"><stop
         style="stop-color:#ff6a3e;stop-opacity:1;"
         offset="0"
         id="stop1" /><stop
         style="stop-color:#ff9065;stop-opacity:1;"
         offset="1"
         id="stop2" /></linearGradient><style
       id="current-color-scheme"
       type="text/css">
      .ColorScheme-Text {
        color:#122036;
      }
      </style><style
       id="current-color-scheme-2"
       type="text/css">
      .ColorScheme-Text {
        color:#122036;
      }
      </style><style
       id="current-color-scheme-0"
       type="text/css">
      .ColorScheme-Text {
        color:#122036;
      }
      </style><linearGradient
       inkscape:collect="always"
       xlink:href="#linearGradient1"
       id="linearGradient2"
       x1="12.7625"
       y1="11.295834"
       x2="12.7625"
       y2="-2.7041669"
       gradientUnits="userSpaceOnUse" /></defs><g
     inkscape:label="Capa 1"
     inkscape:groupmode="layer"
     id="layer1"><g
       id="g15222"
       transform="translate(-4.7624995,3.7041668)"><path
         style="fill:#dd4d25;fill-opacity:1;stroke:none;stroke-width:0.529167;stroke-linecap:round;stroke-linejoin:round;stroke-miterlimit:4;stroke-dasharray:none;stroke-dashoffset:0;stroke-opacity:1"
         d="m 7.1437494,-3.4395837 c -0.5863166,0 -1.0583333,0.4720167 -1.0583333,1.0583333 v 3.7041666 1.0583334 9.5249994 c 0,0.586317 0.4720167,1.058334 1.0583333,1.058334 H 19.314583 c 0.586316,0 1.058333,-0.472017 1.058333,-1.058334 V 2.3812496 1.3229162 1.0583329 -2.3812504 c 0,-0.5863166 -0.472017,-1.0583333 -1.058333,-1.0583333 z"
         id="rect971"
         inkscape:connector-curvature="0" /><path
         style="fill:url(#linearGradient2);fill-opacity:1;stroke:none;stroke-width:0.529167;stroke-linecap:round;stroke-linejoin:round;stroke-miterlimit:4;stroke-dasharray:none;stroke-dashoffset:0;stroke-opacity:1"
         d="m 7.1437494,-3.1750004 c -0.4397374,0 -0.7937499,0.3540125 -0.7937499,0.79375 v 3.17499997 0.52916663 0.79375 9.7895828 c 0,0.439738 0.3540125,0.79375 0.7937499,0.79375 H 19.314583 c 0.439737,0 0.79375,-0.354012 0.79375,-0.79375 V 2.1166662 1.3229162 0.79374957 -2.3812504 c 0,-0.4397375 -0.354013,-0.79375 -0.79375,-0.79375 z"
         id="rect971-2"
         inkscape:connector-curvature="0" /><path
         id="rect1291-7"
         style="fill:#dd4d25;fill-opacity:1;stroke-width:0.60174;stroke-linecap:round;stroke-miterlimit:1.8;paint-order:stroke fill markers;stop-color:#000000"
         d="m 9.5249999,1.0583329 c -0.1465789,0 -0.2645834,0.1180044 -0.2645834,0.2645833 v 7.408333 c 0,0.146579 0.1180045,0.264584 0.2645834,0.264584 h 7.4083331 c 0.146579,0 0.264583,-0.118005 0.264583,-0.264584 v -7.408333 c 0,-0.1465789 -0.118004,-0.2645833 -0.264583,-0.2645833 z M 9.7895832,1.5874995 H 16.668749 V 4.4968826 H 15.610933 A 0.26460996,0.26460996 0 0 0 15.374772,4.6436437 L 14.890564,5.61206 14.279232,3.3698196 A 0.26460996,0.26460996 0 0 0 14.031185,3.1749995 0.26460996,0.26460996 0 0 0 13.771252,3.3563838 L 13.302547,4.7624995 H 12.964583 A 0.26460996,0.26460996 0 0 0 12.72067,4.9226964 L 12.200806,6.1355422 11.363131,3.6199336 A 0.26460996,0.26460996 0 0 0 10.867037,3.6064977 L 10.404016,4.7624995 H 9.7895832 Z m 4.2080118,2.7631388 0.564823,2.0680909 a 0.26460996,0.26460996 0 0 0 0.489893,0.04909 l 0.720886,-1.4417719 h 0.895552 V 8.4666662 H 9.7895832 V 5.2921829 H 10.58385 a 0.26460996,0.26460996 0 0 0 0.24598,-0.1663981 l 0.259932,-0.6500895 0.829924,2.4882199 a 0.26460996,0.26460996 0 0 0 0.494026,0.01964 l 0.724504,-1.6913723 h 0.355534 a 0.26460996,0.26460996 0 0 0 0.250114,-0.1819011 z" /><path
         id="rect1291"
         style="fill:#fddede;fill-opacity:1;stroke-width:0.60174;stroke-linecap:round;stroke-miterlimit:1.8;paint-order:stroke fill markers;stop-color:#000000"
         d="m 9.5249999,0.7937496 c -0.1465789,0 -0.2645834,0.1180044 -0.2645834,0.2645833 v 7.408333 c 0,0.146579 0.1180045,0.264584 0.2645834,0.264584 h 7.4083331 c 0.146579,0 0.264583,-0.118005 0.264583,-0.264584 v -7.408333 c 0,-0.1465789 -0.118004,-0.2645833 -0.264583,-0.2645833 z M 9.7895832,1.3229162 H 16.668749 V 4.2322993 H 15.610933 A 0.26460996,0.26460996 0 0 0 15.374772,4.3790604 L 14.890564,5.3474767 14.279232,3.1052363 A 0.26460996,0.26460996 0 0 0 14.031185,2.9104162 0.26460996,0.26460996 0 0 0 13.771252,3.0918005 L 13.302547,4.4979162 H 12.964583 A 0.26460996,0.26460996 0 0 0 12.72067,4.6581131 L 12.200806,5.8709589 11.363131,3.3553503 A 0.26460996,0.26460996 0 0 0 10.867037,3.3419144 L 10.404016,4.4979162 H 9.7895832 Z m 4.2080118,2.7631388 0.564823,2.0680909 a 0.26460996,0.26460996 0 0 0 0.489893,0.04909 L 15.773197,4.761464 h 0.895552 V 8.2020829 H 9.7895832 V 5.0275996 H 10.58385 a 0.26460996,0.26460996 0 0 0 0.24598,-0.1663981 l 0.259932,-0.6500895 0.829924,2.4882199 a 0.26460996,0.26460996 0 0 0 0.494026,0.01964 l 0.724504,-1.6913723 h 0.355534 a 0.26460996,0.26460996 0 0 0 0.250114,-0.1819011 z" /></g></g></svg>
