<?xml version="1.0" encoding="UTF-8" standalone="no"?>
<!-- Created with Inkscape (http://www.inkscape.org/) -->

<svg
   width="64"
   height="64"
   viewBox="0 0 16.933333 16.933333"
   version="1.1"
   id="svg5"
   inkscape:version="1.3.2 (091e20ef0f, 2023-11-25, custom)"
   sodipodi:docname="virtualbox-vhd.svg"
   xml:space="preserve"
   xmlns:inkscape="http://www.inkscape.org/namespaces/inkscape"
   xmlns:sodipodi="http://sodipodi.sourceforge.net/DTD/sodipodi-0.dtd"
   xmlns:xlink="http://www.w3.org/1999/xlink"
   xmlns="http://www.w3.org/2000/svg"
   xmlns:svg="http://www.w3.org/2000/svg"><sodipodi:namedview
     id="namedview7"
     pagecolor="#ffffff"
     bordercolor="#000000"
     borderopacity="0.25"
     inkscape:showpageshadow="false"
     inkscape:pageopacity="0.0"
     inkscape:pagecheckerboard="0"
     inkscape:deskcolor="#d1d1d1"
     inkscape:document-units="px"
     showgrid="true"
     inkscape:zoom="14.481547"
     inkscape:cx="35.942293"
     inkscape:cy="26.930824"
     inkscape:window-width="2560"
     inkscape:window-height="1356"
     inkscape:window-x="0"
     inkscape:window-y="0"
     inkscape:window-maximized="1"
     inkscape:current-layer="layer1"><inkscape:grid
       type="xygrid"
       id="grid290"
       originx="0"
       originy="0"
       spacingy="1"
       spacingx="1"
       units="px"
       visible="true" /></sodipodi:namedview><defs
     id="defs2"><linearGradient
       id="linearGradient1"
       inkscape:collect="always"><stop
         style="stop-color:#5967b4;stop-opacity:1;"
         offset="0"
         id="stop1" /><stop
         style="stop-color:#7683ca;stop-opacity:1;"
         offset="1"
         id="stop2" /></linearGradient><style
       id="current-color-scheme"
       type="text/css">
      .ColorScheme-Text {
        color:#122036;
      }
      </style><style
       id="current-color-scheme-2"
       type="text/css">
      .ColorScheme-Text {
        color:#122036;
      }
      </style><style
       id="current-color-scheme-0"
       type="text/css">
      .ColorScheme-Text {
        color:#122036;
      }
      </style><style
       id="current-color-scheme-675"
       type="text/css">
      .ColorScheme-Text {
        color:#122036;
      }
      </style><style
       id="current-color-scheme-2-3"
       type="text/css">
      .ColorScheme-Text {
        color:#122036;
      }
      </style><style
       id="current-color-scheme-0-5"
       type="text/css">
      .ColorScheme-Text {
        color:#122036;
      }
      </style><style
       type="text/css"
       id="current-color-scheme-3">
      .ColorScheme-Text {
        color:#36404d;
      }
      </style><style
       type="text/css"
       id="current-color-scheme-67">
      .ColorScheme-Text {
        color:#122036;
      }
      </style><style
       type="text/css"
       id="current-color-scheme-7">
      .ColorScheme-Text {
        color:#122036;
      }
      </style><style
       type="text/css"
       id="current-color-scheme-5">
      .ColorScheme-Text {
        color:#122036;
      }
      </style><style
       type="text/css"
       id="current-color-scheme-6">
      .ColorScheme-Text {
        color:#122036;
      }
      </style><style
       type="text/css"
       id="current-color-scheme-1">
      .ColorScheme-Text {
        color:#122036;
      }
      </style><style
       id="current-color-scheme-10"
       type="text/css">
      .ColorScheme-Text {
        color:#122036;
      }
      </style><style
       id="current-color-scheme-5-7"
       type="text/css">
      .ColorScheme-Text {
        color:#122036;
      }
      </style><style
       id="current-color-scheme-1-2"
       type="text/css">
      .ColorScheme-Text {
        color:#122036;
      }
      </style><style
       type="text/css"
       id="current-color-scheme-10-9">
      .ColorScheme-Text {
        color:#122036;
      }
      </style><style
       id="current-color-scheme-56"
       type="text/css">
      .ColorScheme-Text {
        color:#122036;
      }
      </style><style
       id="current-color-scheme-2-2"
       type="text/css">
      .ColorScheme-Text {
        color:#122036;
      }
      </style><style
       id="current-color-scheme-0-9"
       type="text/css">
      .ColorScheme-Text {
        color:#122036;
      }
      </style><style
       type="text/css"
       id="current-color-scheme-3-1">
      .ColorScheme-Text {
        color:#36404d;
      }
      </style><style
       type="text/css"
       id="current-color-scheme-67-2">
      .ColorScheme-Text {
        color:#122036;
      }
      </style><style
       type="text/css"
       id="current-color-scheme-7-7">
      .ColorScheme-Text {
        color:#122036;
      }
      </style><style
       type="text/css"
       id="current-color-scheme-5-0">
      .ColorScheme-Text {
        color:#122036;
      }
      </style><style
       type="text/css"
       id="current-color-scheme-6-9">
      .ColorScheme-Text {
        color:#122036;
      }
      </style><style
       type="text/css"
       id="current-color-scheme-1-3">
      .ColorScheme-Text {
        color:#122036;
      }
      </style><style
       id="current-color-scheme-10-6"
       type="text/css">
      .ColorScheme-Text {
        color:#122036;
      }
      </style><style
       id="current-color-scheme-5-7-0"
       type="text/css">
      .ColorScheme-Text {
        color:#122036;
      }
      </style><style
       id="current-color-scheme-1-2-6"
       type="text/css">
      .ColorScheme-Text {
        color:#122036;
      }
      </style><style
       type="text/css"
       id="current-color-scheme-10-9-2">
      .ColorScheme-Text {
        color:#122036;
      }
      </style><linearGradient
       inkscape:collect="always"
       xlink:href="#linearGradient1"
       id="linearGradient2"
       x1="76.236221"
       y1="52.472443"
       x2="76.236221"
       y2="-4.2204723"
       gradientUnits="userSpaceOnUse" /></defs><g
     inkscape:label="Capa 1"
     inkscape:groupmode="layer"
     id="layer1"><g
       id="g2770"
       transform="translate(0.26458333,-0.26457908)"><g
         transform="matrix(0.26458333,0,0,0.26458333,-0.26458339,-66.05323)"
         id="layer1-6"
         inkscape:label="Capa 1"><g
           transform="translate(38,-6)"
           id="g1769"><path
             style="opacity:1;fill:#4a5599;fill-opacity:1;stroke:none;stroke-width:2;stroke-linecap:round;stroke-linejoin:round;stroke-miterlimit:4;stroke-dasharray:none;stroke-dashoffset:0;stroke-opacity:1"
             d="m 55,-7 c -2.216,0 -4,1.784 -4,4 v 14 4 36 c 0,2.216 1.784,4 4,4 h 46 c 2.216,0 4,-1.784 4,-4 V 15 11 10 -3 c 0,-2.216 -1.784,-4 -4,-4 z"
             transform="translate(-84,264.64999)"
             id="rect971"
             inkscape:connector-curvature="0" /><path
             style="opacity:1;fill:url(#linearGradient2);fill-opacity:1;stroke:none;stroke-width:2;stroke-linecap:round;stroke-linejoin:round;stroke-miterlimit:4;stroke-dasharray:none;stroke-dashoffset:0;stroke-opacity:1"
             d="m 55,-6 c -1.662,0 -3,1.338 -3,3 v 12 2 3 37 c 0,1.662 1.338,3 3,3 h 46 c 1.662,0 3,-1.338 3,-3 V 14 11 9 -3 c 0,-1.662 -1.338,-3 -3,-3 z"
             id="rect971-2"
             transform="translate(-84,264.64999)"
             inkscape:connector-curvature="0" /></g></g><path
         id="rect1291-9"
         style="fill:#4a5599;fill-opacity:1;stroke-width:0.60174;stroke-linecap:round;stroke-miterlimit:1.8;paint-order:stroke fill markers;stop-color:#000000"
         d="m 4.4979166,5.027079 c -0.1465789,0 -0.2645834,0.1180044 -0.2645834,0.2645833 v 7.4083337 c 0,0.146579 0.1180045,0.264584 0.2645834,0.264584 H 11.90625 c 0.146579,0 0.264583,-0.118005 0.264583,-0.264584 V 5.2916623 c 0,-0.1465789 -0.118004,-0.2645833 -0.264583,-0.2645833 z M 4.7624999,5.5562456 H 11.641666 V 8.4656287 H 10.58385 A 0.26460996,0.26460996 0 0 0 10.347689,8.6123898 L 9.8634804,9.5808057 9.2521483,7.3385657 A 0.26460996,0.26460996 0 0 0 9.0041014,7.1437456 0.26460996,0.26460996 0 0 0 8.7441689,7.3251299 L 8.2754637,8.7312456 H 7.9374998 A 0.26460996,0.26460996 0 0 0 7.6935871,8.8914425 L 7.1737222,10.104289 6.3360472,7.5886797 A 0.26460996,0.26460996 0 0 0 5.8399535,7.5752438 L 5.3769327,8.7312456 H 4.7624999 Z m 4.2080118,2.7631388 0.5648234,2.0680916 a 0.26460996,0.26460996 0 0 0 0.4898929,0.04909 l 0.720886,-1.4417723 h 0.895552 V 12.435413 H 4.7624999 V 9.2609287 H 5.5567667 A 0.26460996,0.26460996 0 0 0 5.8027465,9.0945307 L 6.0626789,8.4444414 6.8926024,10.932662 a 0.26460996,0.26460996 0 0 0 0.4940267,0.01964 L 8.1111327,9.2609287 h 0.3555338 a 0.26460996,0.26460996 0 0 0 0.2501139,-0.181901 z" /><path
         id="rect1291"
         style="fill:#e7e8f1;fill-opacity:1;stroke-width:0.60174;stroke-linecap:round;stroke-miterlimit:1.8;paint-order:stroke fill markers;stop-color:#000000"
         d="M 4.4979166 4.7624957 C 4.3513377 4.7624957 4.2333332 4.8805001 4.2333332 5.027079 L 4.2333332 12.435412 C 4.2333332 12.581991 4.3513377 12.699996 4.4979166 12.699996 L 11.90625 12.699996 C 12.052829 12.699996 12.170833 12.581991 12.170833 12.435412 L 12.170833 5.027079 C 12.170833 4.8805001 12.052829 4.7624957 11.90625 4.7624957 L 4.4979166 4.7624957 z M 4.7624999 5.2916623 L 11.641666 5.2916623 L 11.641666 8.2010454 L 10.58385 8.2010454 A 0.26460996 0.26460996 0 0 0 10.347689 8.3478065 L 9.8634804 9.3162228 L 9.2521483 7.0739824 A 0.26460996 0.26460996 0 0 0 9.0041014 6.8791623 A 0.26460996 0.26460996 0 0 0 8.7441689 7.0605466 L 8.2754637 8.4666623 L 7.9374998 8.4666623 A 0.26460996 0.26460996 0 0 0 7.6935871 8.6268592 L 7.1737222 9.839705 L 6.3360472 7.3240964 A 0.26460996 0.26460996 0 0 0 5.8399535 7.3106605 L 5.3769327 8.4666623 L 4.7624999 8.4666623 L 4.7624999 5.2916623 z M 8.9705117 8.0548011 L 9.5353351 10.122892 A 0.26460996 0.26460996 0 0 0 10.025228 10.171984 L 10.746114 8.7302121 L 11.641666 8.7302121 L 11.641666 12.170829 L 4.7624999 12.170829 L 4.7624999 8.9963457 L 5.5567667 8.9963457 A 0.26460996 0.26460996 0 0 0 5.8027465 8.8299476 L 6.0626789 8.1798581 L 6.8926024 10.668078 A 0.26460996 0.26460996 0 0 0 7.3866291 10.687715 L 8.1111327 8.9963457 L 8.4666665 8.9963457 A 0.26460996 0.26460996 0 0 0 8.7167804 8.8144446 L 8.9705117 8.0548011 z " /></g></g></svg>
