<?xml version="1.0" encoding="UTF-8" standalone="no"?>
<!-- Created with Inkscape (http://www.inkscape.org/) -->

<svg
   width="64"
   height="64"
   viewBox="0 0 16.933333 16.933333"
   version="1.1"
   id="svg5"
   inkscape:version="1.3.2 (091e20ef0f, 2023-11-25, custom)"
   sodipodi:docname="x-office-address-book.svg"
   xml:space="preserve"
   xmlns:inkscape="http://www.inkscape.org/namespaces/inkscape"
   xmlns:sodipodi="http://sodipodi.sourceforge.net/DTD/sodipodi-0.dtd"
   xmlns:xlink="http://www.w3.org/1999/xlink"
   xmlns="http://www.w3.org/2000/svg"
   xmlns:svg="http://www.w3.org/2000/svg"><sodipodi:namedview
     id="namedview7"
     pagecolor="#ffffff"
     bordercolor="#000000"
     borderopacity="0.25"
     inkscape:showpageshadow="false"
     inkscape:pageopacity="0.0"
     inkscape:pagecheckerboard="0"
     inkscape:deskcolor="#d1d1d1"
     inkscape:document-units="px"
     showgrid="true"
     inkscape:zoom="14.481547"
     inkscape:cx="6.5255459"
     inkscape:cy="36.39114"
     inkscape:window-width="2560"
     inkscape:window-height="1356"
     inkscape:window-x="0"
     inkscape:window-y="0"
     inkscape:window-maximized="1"
     inkscape:current-layer="layer1"><inkscape:grid
       type="xygrid"
       id="grid290"
       originx="0"
       originy="0"
       spacingy="1"
       spacingx="1"
       units="px"
       visible="true" /></sodipodi:namedview><defs
     id="defs2"><linearGradient
       id="linearGradient1"
       inkscape:collect="always"><stop
         style="stop-color:#af884f;stop-opacity:1;"
         offset="0"
         id="stop1" /><stop
         style="stop-color:#c9a46a;stop-opacity:1;"
         offset="1"
         id="stop2" /></linearGradient><style
       id="current-color-scheme"
       type="text/css">
      .ColorScheme-Text {
        color:#122036;
      }
      </style><style
       id="current-color-scheme-2"
       type="text/css">
      .ColorScheme-Text {
        color:#122036;
      }
      </style><style
       id="current-color-scheme-0"
       type="text/css">
      .ColorScheme-Text {
        color:#122036;
      }
      </style><style
       id="current-color-scheme-6"
       type="text/css">
      .ColorScheme-Text {
        color:#122036;
      }
      </style><style
       id="current-color-scheme-2-75"
       type="text/css">
      .ColorScheme-Text {
        color:#122036;
      }
      </style><style
       id="current-color-scheme-0-3"
       type="text/css">
      .ColorScheme-Text {
        color:#122036;
      }
      </style><style
       type="text/css"
       id="current-color-scheme-36">
      .ColorScheme-Text {
        color:#36404d;
      }
      </style><style
       id="current-color-scheme-3"
       type="text/css">
      .ColorScheme-Text {
        color:#122036;
      }
      </style><style
       type="text/css"
       id="current-color-scheme-5">
      .ColorScheme-Text {
        color:#122036;
      }
      </style><style
       type="text/css"
       id="current-color-scheme-2-7">
      .ColorScheme-Text {
        color:#122036;
      }
      </style><style
       type="text/css"
       id="current-color-scheme-1">
      .ColorScheme-Text {
        color:#122036;
      }
      </style><style
       id="current-color-scheme-10"
       type="text/css">
      .ColorScheme-Text {
        color:#122036;
      }
      </style><style
       type="text/css"
       id="current-color-scheme-0-5">
      .ColorScheme-Text {
        color:#122036;
      }
      </style><style
       type="text/css"
       id="current-color-scheme-26">
      .ColorScheme-Text {
        color:#122036;
      }
      </style><style
       type="text/css"
       id="current-color-scheme-367">
      .ColorScheme-Text {
        color:#36404d;
      }
      </style><style
       id="current-color-scheme-3-5"
       type="text/css">
      .ColorScheme-Text {
        color:#122036;
      }
      </style><style
       type="text/css"
       id="current-color-scheme-5-3">
      .ColorScheme-Text {
        color:#122036;
      }
      </style><style
       type="text/css"
       id="current-color-scheme-2-5">
      .ColorScheme-Text {
        color:#122036;
      }
      </style><style
       type="text/css"
       id="current-color-scheme-1-6">
      .ColorScheme-Text {
        color:#122036;
      }
      </style><style
       id="current-color-scheme-10-2"
       type="text/css">
      .ColorScheme-Text {
        color:#122036;
      }
      </style><style
       type="text/css"
       id="current-color-scheme-0-9">
      .ColorScheme-Text {
        color:#122036;
      }
      </style><style
       type="text/css"
       id="current-color-scheme-26-1">
      .ColorScheme-Text {
        color:#122036;
      }
      </style><linearGradient
       inkscape:collect="always"
       xlink:href="#linearGradient1"
       id="linearGradient2"
       x1="8"
       y1="16"
       x2="8"
       y2="1"
       gradientUnits="userSpaceOnUse" /></defs><g
     inkscape:label="Capa 1"
     inkscape:groupmode="layer"
     id="layer1"><path
       id="rect6061"
       style="fill:#cc0020;fill-opacity:0.98039216;stroke-width:0.529167;stroke-linecap:square;stroke-miterlimit:1.8;paint-order:stroke fill markers;stop-color:#000000"
       d="m 13.493749,1.5874996 h 1.852086 c 0.146578,0 0.264582,0.1180042 0.264582,0.2645834 v 2.9104166 c 0,0.1465792 -0.118004,0.2645833 -0.264582,0.2645833 h -1.852086 c -0.146578,0 -0.264582,-0.1180041 -0.264582,-0.2645833 V 1.852083 c 0,-0.1465792 0.118004,-0.2645834 0.264582,-0.2645834 z" /><path
       id="rect6061-2"
       style="fill:#1770db;fill-opacity:0.96078432;stroke-width:0.529167;stroke-linecap:square;stroke-miterlimit:1.8;paint-order:stroke fill markers;stop-color:#000000"
       d="m 13.493749,5.0270829 h 1.852086 c 0.146578,0 0.264582,0.1180042 0.264582,0.2645834 v 2.9104166 c 0,0.1465792 -0.118004,0.2645833 -0.264582,0.2645833 h -1.852086 c -0.146578,0 -0.264582,-0.1180041 -0.264582,-0.2645833 V 5.2916663 c 0,-0.1465792 0.118004,-0.2645834 0.264582,-0.2645834 z" /><path
       id="rect6061-0"
       style="fill:#2aa65a;fill-opacity:0.98039216;stroke-width:0.529167;stroke-linecap:square;stroke-miterlimit:1.8;paint-order:stroke fill markers;stop-color:#000000"
       d="m 13.493749,8.4666662 h 1.852086 c 0.146578,0 0.264582,0.1180042 0.264582,0.2645833 v 2.9104165 c 0,0.146579 -0.118004,0.264584 -0.264582,0.264584 h -1.852086 c -0.146578,0 -0.264582,-0.118005 -0.264582,-0.264584 V 8.7312495 c 0,-0.1465791 0.118004,-0.2645833 0.264582,-0.2645833 z" /><path
       id="rect6061-2-6"
       style="fill:#f99803;fill-opacity:0.98039216;stroke-width:0.529167;stroke-linecap:square;stroke-miterlimit:1.8;paint-order:stroke fill markers;stop-color:#000000"
       d="m 13.493749,11.90625 h 1.852086 c 0.146578,0 0.264582,0.118004 0.264582,0.264583 v 2.910416 c 0,0.14658 -0.118004,0.264584 -0.264582,0.264584 h -1.852086 c -0.146578,0 -0.264582,-0.118004 -0.264582,-0.264584 v -2.910416 c 0,-0.146579 0.118004,-0.264583 0.264582,-0.264583 z" /><path
       id="rect6711"
       style="fill:#fb3955;stroke-width:0.529167;stroke-linecap:square;stroke-miterlimit:1.8;paint-order:stroke fill markers;stop-color:#000000;fill-opacity:1"
       d="m 13.49375,1.8520833 h 1.852084 V 4.7624999 H 13.49375 Z" /><path
       id="rect6980"
       style="fill:#03aefc;stroke-width:0.529167;stroke-linecap:square;stroke-miterlimit:1.8;paint-order:stroke fill markers;stop-color:#000000;fill-opacity:1"
       d="m 13.49375,5.2916666 h 1.852084 V 8.2020832 H 13.49375 Z" /><path
       id="rect6982"
       style="fill:#6ade73;stroke-width:0.529167;stroke-linecap:square;stroke-miterlimit:1.8;paint-order:stroke fill markers;stop-color:#000000;fill-opacity:1"
       d="m 13.49375,8.7312499 h 1.852084 V 11.641667 H 13.49375 Z" /><path
       id="rect6984"
       style="fill:#ffe100;fill-opacity:1;stroke-width:0.529167;stroke-linecap:square;stroke-miterlimit:1.8;paint-order:stroke fill markers;stop-color:#000000"
       d="m 13.49375,12.170833 h 1.852084 V 15.08125 H 13.49375 Z" /><path
       id="rect971-6"
       d="M 2.3812504,0.26458333 H 13.49375 c 0.586317,0 1.058334,0.47201666 1.058334,1.05833327 V 15.610416 c 0,0.586317 -0.472017,1.058334 -1.058334,1.058334 H 2.3812504 c -0.5863166,0 -1.0583333,-0.472017 -1.0583333,-1.058334 V 1.3229166 c 0,-0.58631661 0.4720167,-1.05833327 1.0583333,-1.05833327 z"
       style="vector-effect:none;fill:#987343;fill-opacity:1;stroke:none;stroke-width:0.529167;stroke-linecap:round;stroke-linejoin:round;stroke-miterlimit:4;stroke-dasharray:none;stroke-dashoffset:0;stroke-opacity:1"
       inkscape:connector-curvature="0"
       sodipodi:nodetypes="sssssssss" /><path
       id="rect971-2-3"
       d="M 2.3812504,0.52916666 H 13.49375 c 0.439738,0 0.79375,0.35401249 0.79375,0.79374994 V 15.610416 c 0,0.439738 -0.354012,0.79375 -0.79375,0.79375 H 2.3812504 c -0.4397375,0 -0.79375,-0.354012 -0.79375,-0.79375 V 1.3229166 c 0,-0.43973745 0.3540125,-0.79374994 0.79375,-0.79374994 z"
       style="fill:url(#linearGradient2);fill-opacity:1;stroke:none;stroke-width:0.529167;stroke-linecap:round;stroke-linejoin:round;stroke-miterlimit:4;stroke-dasharray:none;stroke-dashoffset:0;stroke-opacity:1"
       inkscape:connector-curvature="0"
       sodipodi:nodetypes="sssssssss" /><path
       id="rect10556-2"
       style="fill:#987343;fill-opacity:1;stroke-width:0.529167;stroke-linecap:square;stroke-miterlimit:1.8;paint-order:stroke fill markers;stop-color:#000000"
       d="m 7.9374999,4.7624999 c -1.0260531,0 -1.8520834,0.826029 -1.8520834,1.852083 0,1.026054 0.8260303,1.852083 1.8520834,1.852083 1.0260531,0 1.8520833,-0.826029 1.8520833,-1.852083 0,-1.026054 -0.8260302,-1.852083 -1.8520833,-1.852083 z m 0,4.497916 c -1.7535022,0 -3.175,1.4214951 -3.175,3.1749971 1.4461172,0.626211 4.5861069,0.781294 6.3500001,0 0,-1.753502 -1.4214978,-3.1749971 -3.1750001,-3.1749971 z" /><path
       id="rect10556"
       style="fill:#fbfcfd;fill-opacity:1;stroke-width:0.529167;stroke-linecap:square;stroke-miterlimit:1.8;paint-order:stroke fill markers;stop-color:#000000"
       d="m 7.9375004,4.4979166 c -1.0260531,0 -1.8520834,0.8260292 -1.8520834,1.8520833 0,1.0260542 0.8260303,1.8520833 1.8520834,1.8520833 1.0260531,0 1.8520833,-0.8260291 1.8520833,-1.8520833 0,-1.0260541 -0.8260302,-1.8520833 -1.8520833,-1.8520833 z m 0,4.4979166 c -1.7535022,0 -3.175,1.4214978 -3.175,3.1749998 1.4461172,0.626211 4.5861069,0.781294 6.3499996,0 0,-1.753502 -1.4214973,-3.1749998 -3.1749996,-3.1749998 z" /></g></svg>
