<?xml version="1.0" encoding="UTF-8" standalone="no"?>
<svg
   height="22"
   viewBox="0 0 5.8208332 5.8208335"
   width="22"
   version="1.1"
   id="svg6"
   sodipodi:docname="irc-voice.svg"
   xml:space="preserve"
   inkscape:version="1.3.2 (091e20ef0f, 2023-11-25, custom)"
   xmlns:inkscape="http://www.inkscape.org/namespaces/inkscape"
   xmlns:sodipodi="http://sodipodi.sourceforge.net/DTD/sodipodi-0.dtd"
   xmlns:xlink="http://www.w3.org/1999/xlink"
   xmlns="http://www.w3.org/2000/svg"
   xmlns:svg="http://www.w3.org/2000/svg"><sodipodi:namedview
     id="namedview8"
     pagecolor="#ffffff"
     bordercolor="#000000"
     borderopacity="0.25"
     inkscape:showpageshadow="2"
     inkscape:pageopacity="0.0"
     inkscape:pagecheckerboard="0"
     inkscape:deskcolor="#d1d1d1"
     showgrid="true"
     inkscape:zoom="23.340909"
     inkscape:cx="22.471276"
     inkscape:cy="15.037975"
     inkscape:window-width="2560"
     inkscape:window-height="1364"
     inkscape:window-x="0"
     inkscape:window-y="0"
     inkscape:window-maximized="1"
     inkscape:current-layer="svg6"><inkscape:grid
       type="xygrid"
       id="grid237"
       originx="0"
       originy="0"
       spacingy="1"
       spacingx="1"
       units="px"
       visible="true" /></sodipodi:namedview><defs
     id="defs2"><linearGradient
       id="linearGradient1"
       inkscape:collect="always"><stop
         style="stop-color:#2093f2;stop-opacity:1;"
         offset="0"
         id="stop3" /><stop
         style="stop-color:#24b1ff;stop-opacity:1;"
         offset="1"
         id="stop4" /></linearGradient><style
       type="text/css"
       id="current-color-scheme">
      .ColorScheme-Text {
        color:#36404d;
      }
      </style><linearGradient
       inkscape:collect="always"
       xlink:href="#linearGradient1"
       id="linearGradient4"
       x1="2.9111917"
       y1="5.0275998"
       x2="2.9104166"
       y2="0.5291667"
       gradientUnits="userSpaceOnUse" /></defs><g
     id="rect291"><path
       id="path455"
       style="color:#000000;fill:#1972bf;fill-opacity:1;stroke-linecap:round;stroke-linejoin:round;-inkscape-stroke:none"
       d="m 2.6463501,0.26354981 c -1.3146334,0 -2.38280029,1.06816689 -2.38280029,2.38280029 0,0.5661959 0.19853735,1.0862933 0.52916666,1.4949992 V 5.2911499 C 0.79201412,5.481837 0.98713214,5.6106422 1.162203,5.5350627 L 2.3796997,5.0126139 c 0.087607,0.00977 0.1764582,0.014986 0.2666504,0.014986 h 0.5296834 c 1.3146333,0 2.3807333,-1.0666167 2.3807333,-2.38125 0,-1.3146334 -1.0661,-2.38280029 -2.3807333,-2.38280029 z"
       sodipodi:nodetypes="ssccccsssss" /><path
       id="path453"
       style="color:#000000;fill:url(#linearGradient4);stroke-width:0.529167;stroke-linecap:round;stroke-linejoin:round;-inkscape-stroke:none;fill-opacity:1"
       d="M 2.6458333 0.52916667 C 1.4732012 0.52916667 0.52916667 1.4732012 0.52916667 2.6458333 C 0.52916667 3.1849011 0.72883141 3.675389 1.0583333 4.0483317 L 1.0583333 5.2916667 L 2.3430094 4.7407959 C 2.4419396 4.7548611 2.5428962 4.7625 2.6458333 4.7625 L 3.175 4.7625 C 4.3476321 4.7625 5.2916667 3.8184655 5.2916667 2.6458333 C 5.2916667 1.4732012 4.3476321 0.52916667 3.175 0.52916667 L 2.6458333 0.52916667 z " /></g><g
     id="path347" /><path
     id="rect1652-5"
     style="fill:#1972bf;fill-opacity:1;stroke-width:0.529167;stroke-linecap:round;stroke-linejoin:round"
     d="m 1.5735474,2.3813009 c -0.2867765,0.00722 -0.5152141,0.2405892 -0.5152141,0.5291666 0,0.2931581 0.2360086,0.5291667 0.5291667,0.5291667 0.293158,0 0.5291667,-0.2360086 0.5291667,-0.5291667 0,-0.293158 -0.2360087,-0.5291666 -0.5291667,-0.5291666 -0.00458,0 -0.0094,-1.146e-4 -0.013953,0 z m 1.3229166,0 C 2.6096876,2.3885179 2.38125,2.6218901 2.38125,2.9104675 c 0,0.293158 0.2360087,0.5291667 0.5291667,0.5291667 0.293158,0 0.5291666,-0.2360087 0.5291666,-0.5291667 0,-0.293158 -0.2360086,-0.5291666 -0.5291666,-0.5291666 -0.00458,0 -0.0094,-1.146e-4 -0.013953,0 z m 1.3229167,0 c -0.2867764,0.00722 -0.515214,0.2405892 -0.515214,0.5291666 0,0.2931581 0.2360086,0.5291667 0.5291666,0.5291667 0.2931581,0 0.5291667,-0.2360086 0.5291667,-0.5291667 0,-0.293158 -0.2360086,-0.5291666 -0.5291667,-0.5291666 -0.00458,0 -0.0094,-1.146e-4 -0.013953,0 z" /><path
     id="rect1652"
     style="fill:#ffffff;stroke-width:0.529167;stroke-linecap:round;stroke-linejoin:round"
     d="M 1.5735474 2.1166667 C 1.2867709 2.1238837 1.0583333 2.3572559 1.0583333 2.6458333 C 1.0583333 2.9389914 1.2943419 3.175 1.5875 3.175 C 1.880658 3.175 2.1166667 2.9389914 2.1166667 2.6458333 C 2.1166667 2.3526753 1.880658 2.1166667 1.5875 2.1166667 C 1.5829194 2.1166667 1.5780994 2.1165521 1.5735474 2.1166667 z M 2.896464 2.1166667 C 2.6096876 2.1238837 2.38125 2.3572559 2.38125 2.6458333 C 2.38125 2.9389913 2.6172587 3.175 2.9104167 3.175 C 3.2035747 3.175 3.4395833 2.9389913 3.4395833 2.6458333 C 3.4395833 2.3526753 3.2035747 2.1166667 2.9104167 2.1166667 C 2.9058361 2.1166667 2.901016 2.1165521 2.896464 2.1166667 z M 4.2193807 2.1166667 C 3.9326043 2.1238837 3.7041667 2.3572559 3.7041667 2.6458333 C 3.7041667 2.9389914 3.9401753 3.175 4.2333333 3.175 C 4.5264914 3.175 4.7625 2.9389914 4.7625 2.6458333 C 4.7625 2.3526753 4.5264914 2.1166667 4.2333333 2.1166667 C 4.2287528 2.1166667 4.2239327 2.1165521 4.2193807 2.1166667 z " /></svg>
