<?xml version="1.0" encoding="UTF-8" standalone="no"?>
<svg
   viewBox="0 0 22 22"
   id="svg6"
   version="1.1"
   sodipodi:docname="media-skip-forward.svg"
   inkscape:version="1.3.2 (091e20ef0f, 2023-11-25, custom)"
   xmlns:inkscape="http://www.inkscape.org/namespaces/inkscape"
   xmlns:sodipodi="http://sodipodi.sourceforge.net/DTD/sodipodi-0.dtd"
   xmlns:xlink="http://www.w3.org/1999/xlink"
   xmlns="http://www.w3.org/2000/svg"
   xmlns:svg="http://www.w3.org/2000/svg">
  <defs
     id="defs1">
    <linearGradient
       inkscape:collect="always"
       xlink:href="#linearGradient16188"
       id="linearGradient12"
       gradientUnits="userSpaceOnUse"
       gradientTransform="translate(21.431249,-0.5291666)"
       x1="-0.79374999"
       y1="5.8208332"
       x2="-0.79374999"
       y2="1.5875" />
    <linearGradient
       inkscape:collect="always"
       id="linearGradient16188">
      <stop
         style="stop-color:#636b85;stop-opacity:1;"
         offset="0"
         id="stop16184" />
      <stop
         style="stop-color:#6d7591;stop-opacity:1;"
         offset="1"
         id="stop16186" />
    </linearGradient>
  </defs>
  <sodipodi:namedview
     id="namedview1"
     pagecolor="#ffffff"
     bordercolor="#000000"
     borderopacity="0.25"
     inkscape:showpageshadow="2"
     inkscape:pageopacity="0.0"
     inkscape:pagecheckerboard="0"
     inkscape:deskcolor="#d1d1d1"
     inkscape:zoom="52.727273"
     inkscape:cx="10.990517"
     inkscape:cy="11"
     inkscape:window-width="2560"
     inkscape:window-height="1364"
     inkscape:window-x="0"
     inkscape:window-y="0"
     inkscape:window-maximized="1"
     inkscape:current-layer="svg6" />
  <style
     type="text/css"
     id="current-color-scheme">
        .ColorScheme-Text {
            color:#232629;
        }
    </style>
  <g
     id="g17"
     transform="matrix(3.7795276,0,0,3.7795276,-66.999997,-0.99999928)">
    <path
       id="rect15701-7-0"
       style="fill:#363c4d;fill-opacity:1;stroke-width:0.529167;stroke-linecap:round;stroke-linejoin:round;stroke-miterlimit:1.8;paint-order:fill markers stroke;stop-color:#000000"
       d="m 20.637499,0.52916655 c 1.465792,0 2.645833,1.18004165 2.645833,2.64583325 0,1.4657916 -1.180041,2.6458332 -2.645833,2.6458332 -1.465792,0 -2.645833,-1.1800416 -2.645833,-2.6458332 0,-1.4657916 1.180041,-2.64583325 2.645833,-2.64583325 z" />
    <path
       id="rect15701-2-4-3"
       style="fill:url(#linearGradient12);stroke-width:0.47625;stroke-linecap:round;stroke-linejoin:round;stroke-miterlimit:1.8;paint-order:fill markers stroke;stop-color:#000000"
       d="m 20.637499,0.79374985 c 1.319213,0 2.38125,1.06203745 2.38125,2.38124995 0,1.3192124 -1.062037,2.3812499 -2.38125,2.3812499 -1.319212,0 -2.38125,-1.0620375 -2.38125,-2.3812499 0,-1.3192125 1.062038,-2.38124995 2.38125,-2.38124995 z" />
    <path
       id="path13-4"
       style="color:#000000;fill:#363c4d;fill-opacity:1;stroke-linecap:round;stroke-linejoin:round;-inkscape-stroke:none;paint-order:stroke markers fill"
       d="m 22.225,2.1166665 c -0.146579,0 -0.264584,0.1180045 -0.264584,0.2645833 V 3.1016193 L 20.802864,2.1745441 A 0.26460996,0.26460996 0 0 0 20.372916,2.3817666 V 3.1005858 L 19.214848,2.1745441 A 0.26460996,0.26460996 0 0 0 18.935795,2.1435381 0.26460996,0.26460996 0 0 0 18.7849,2.3817664 v 2.1151164 a 0.26460996,0.26460996 0 0 0 0.429948,0.2072225 l 1.158068,-0.9260417 v 0.7188192 a 0.26460996,0.26460996 0 0 0 0.429948,0.2072225 l 1.157552,-0.9270752 v 0.7208862 c 0,0.1465788 0.118005,0.2645833 0.264584,0.2645833 0.146578,0 0.264583,-0.1180045 0.264583,-0.2645833 V 2.3812498 c 0,-0.1465788 -0.118005,-0.2645833 -0.264583,-0.2645833 z" />
    <path
       id="path13"
       style="color:#000000;fill:#f8f9fa;fill-opacity:1;stroke-linecap:round;stroke-linejoin:round;-inkscape-stroke:none;paint-order:stroke markers fill"
       d="m 22.225,1.8520832 c -0.146579,0 -0.264584,0.1180045 -0.264584,0.2645833 V 2.837036 L 20.802864,1.9099608 A 0.26460996,0.26460996 0 0 0 20.372916,2.1171833 V 2.8360025 L 19.214848,1.9099608 A 0.26460996,0.26460996 0 0 0 18.935795,1.878955 0.26460996,0.26460996 0 0 0 18.7849,2.1171833 v 2.1151164 a 0.26460996,0.26460996 0 0 0 0.429948,0.2072225 l 1.158068,-0.9260417 v 0.7188192 a 0.26460996,0.26460996 0 0 0 0.429948,0.2072225 L 21.960416,3.512447 v 0.7208862 c 0,0.1465788 0.118005,0.2645833 0.264584,0.2645833 0.146578,0 0.264583,-0.1180045 0.264583,-0.2645833 V 2.1166665 c 0,-0.1465788 -0.118005,-0.2645833 -0.264583,-0.2645833 z" />
  </g>
</svg>
