<?xml version="1.0" encoding="UTF-8" standalone="no"?>
<svg
   viewBox="0 0 22 22"
   version="1.1"
   id="svg1"
   sodipodi:docname="media-record.svg"
   inkscape:version="1.3.2 (091e20ef0f, 2023-11-25, custom)"
   xmlns:inkscape="http://www.inkscape.org/namespaces/inkscape"
   xmlns:sodipodi="http://sodipodi.sourceforge.net/DTD/sodipodi-0.dtd"
   xmlns:xlink="http://www.w3.org/1999/xlink"
   xmlns="http://www.w3.org/2000/svg"
   xmlns:svg="http://www.w3.org/2000/svg">
  <defs
     id="defs1">
    <linearGradient
       inkscape:collect="always"
       xlink:href="#linearGradient17"
       id="linearGradient14"
       gradientUnits="userSpaceOnUse"
       gradientTransform="matrix(3.7795276,0,0,3.7795276,10.999999,6.9250656e-7)"
       x1="-0.79374999"
       y1="5.8208332"
       x2="-0.79374999"
       y2="1.5875" />
    <linearGradient
       inkscape:collect="always"
       id="linearGradient17">
      <stop
         style="stop-color:#f41f3e;stop-opacity:1;"
         offset="0"
         id="stop16" />
      <stop
         style="stop-color:#fc3955;stop-opacity:1;"
         offset="1"
         id="stop17" />
    </linearGradient>
  </defs>
  <sodipodi:namedview
     id="namedview1"
     pagecolor="#ffffff"
     bordercolor="#000000"
     borderopacity="0.25"
     inkscape:showpageshadow="2"
     inkscape:pageopacity="0.0"
     inkscape:pagecheckerboard="0"
     inkscape:deskcolor="#d1d1d1"
     inkscape:zoom="52.727273"
     inkscape:cx="10.990517"
     inkscape:cy="11"
     inkscape:window-width="2560"
     inkscape:window-height="1364"
     inkscape:window-x="0"
     inkscape:window-y="0"
     inkscape:window-maximized="1"
     inkscape:current-layer="svg1" />
  <g
     id="g1"
     transform="translate(3.0000009,-2.9999995)">
    <path
       id="rect15701-63"
       style="fill:#cc0120;fill-opacity:1;stroke-width:2;stroke-linecap:round;stroke-linejoin:round;stroke-miterlimit:1.8;paint-order:fill markers stroke;stop-color:#000000"
       d="m 7.999999,4 c 5.539998,0 9.999999,4.4600001 9.999999,10 0,5.54 -4.460001,9.999999 -9.999999,9.999999 -5.5400013,0 -9.9999988,-4.459999 -9.9999988,-9.999999 0,-5.5399999 4.4599975,-10 9.9999988,-10 z" />
    <path
       id="rect15701-2-1"
       style="fill:url(#linearGradient14);stroke-width:1.8;stroke-linecap:round;stroke-linejoin:round;stroke-miterlimit:1.8;paint-order:fill markers stroke;stop-color:#000000"
       d="m 7.999999,5.0000001 c 4.985998,0 9,4.0139997 9,8.9999999 0,4.986 -4.014002,9 -9,9 -4.9860019,0 -9.0000001,-4.014 -9.0000001,-9 0,-4.9860002 4.0139982,-8.9999999 9.0000001,-8.9999999 z" />
    <path
       id="rect10-9-7"
       style="fill:#cc0120;stroke-width:1.93924;stroke-linecap:round;stroke-linejoin:round;paint-order:stroke markers fill"
       d="M 8.0000028,10 C 10.77,10 13,12.23 13,15 c 0,2.77 -2.23,5 -4.9999972,5 -2.7700006,0 -5.0000013,-2.23 -5.0000013,-5 0,-2.77 2.2300007,-5 5.0000013,-5 z" />
    <path
       id="rect10-5"
       style="fill:#fddde2;stroke-width:1.93924;stroke-linecap:round;stroke-linejoin:round;paint-order:stroke markers fill"
       d="M 8.0000028,9.0000001 C 10.77,9.0000001 13,11.23 13,14 c 0,2.77 -2.23,5 -4.9999972,5 -2.7700006,0 -5.0000013,-2.23 -5.0000013,-5 0,-2.77 2.2300007,-4.9999999 5.0000013,-4.9999999 z" />
  </g>
</svg>
