<?xml version="1.0" encoding="UTF-8" standalone="no"?>
<svg
   viewBox="0 0 22 22"
   version="1.1"
   id="svg1"
   sodipodi:docname="media-playback-pause.svg"
   inkscape:version="1.3.2 (091e20ef0f, 2023-11-25, custom)"
   xmlns:inkscape="http://www.inkscape.org/namespaces/inkscape"
   xmlns:sodipodi="http://sodipodi.sourceforge.net/DTD/sodipodi-0.dtd"
   xmlns:xlink="http://www.w3.org/1999/xlink"
   xmlns="http://www.w3.org/2000/svg"
   xmlns:svg="http://www.w3.org/2000/svg">
  <defs
     id="defs1">
    <linearGradient
       inkscape:collect="always"
       xlink:href="#linearGradient10"
       id="linearGradient3"
       gradientUnits="userSpaceOnUse"
       gradientTransform="matrix(3.7795276,0,0,3.7795276,10.000001,-2.999999)"
       x1="-0.79374999"
       y1="5.8208332"
       x2="-0.79374999"
       y2="1.5875" />
    <linearGradient
       inkscape:collect="always"
       id="linearGradient10">
      <stop
         style="stop-color:#636b85;stop-opacity:1;"
         offset="0"
         id="stop9" />
      <stop
         style="stop-color:#6e7692;stop-opacity:1;"
         offset="1"
         id="stop10" />
    </linearGradient>
  </defs>
  <sodipodi:namedview
     id="namedview1"
     pagecolor="#ffffff"
     bordercolor="#000000"
     borderopacity="0.25"
     inkscape:showpageshadow="2"
     inkscape:pageopacity="0.0"
     inkscape:pagecheckerboard="0"
     inkscape:deskcolor="#d1d1d1"
     inkscape:zoom="52.727273"
     inkscape:cx="10.990517"
     inkscape:cy="11"
     inkscape:window-width="2560"
     inkscape:window-height="1364"
     inkscape:window-x="0"
     inkscape:window-y="0"
     inkscape:window-maximized="1"
     inkscape:current-layer="svg1" />
  <style
     type="text/css"
     id="current-color-scheme">
        .ColorScheme-Text {
            color:#232629;
        }
    </style>
  <g
     id="g1"
     transform="translate(4.0000005)">
    <path
       id="rect15701-6-5"
       style="fill:#363c4d;fill-opacity:1;stroke-width:2;stroke-linecap:round;stroke-linejoin:round;stroke-miterlimit:1.8;paint-order:fill markers stroke;stop-color:#000000"
       d="m 7.0000001,1 c 5.5400009,0 9.9999989,4.4600002 9.9999989,10 0,5.54 -4.459998,10 -9.9999989,10 -5.5399998,0 -10,-4.46 -10,-10 0,-5.5399998 4.4600002,-10 10,-10 z" />
    <path
       id="rect15701-2-5-2"
       style="fill:url(#linearGradient3);stroke-width:1.8;stroke-linecap:round;stroke-linejoin:round;stroke-miterlimit:1.8;paint-order:fill markers stroke;stop-color:#000000"
       d="M 7.0000005,2.0000003 C 11.986002,2.0000003 16,6.0139999 16,11 c 0,4.986 -4.013998,9 -8.9999995,9 -4.9860001,0 -9.0000001,-4.014 -9.0000001,-9 0,-4.9860001 4.014,-8.9999997 9.0000001,-8.9999997 z" />
    <path
       id="rect10-9-3"
       style="fill:#363c4d;stroke-width:1.93924;stroke-linecap:round;stroke-linejoin:round;paint-order:stroke markers fill"
       d="m 3.0000002,7.0000004 h 1.9999986 c 0.5540032,0 1.0000026,0.4459998 1.0000026,0.9999999 V 16 c 0,0.554 -0.4459994,1 -1.0000026,1 H 3.0000002 C 2.4460004,17 2.0000003,16.554 2.0000003,16 V 8.0000003 c 0,-0.5540001 0.4460001,-0.9999999 0.9999999,-0.9999999 z"
       sodipodi:nodetypes="sssssssss" />
    <path
       id="rect10-90"
       style="fill:#f8f9fa;fill-opacity:1;stroke-width:1.93924;stroke-linecap:round;stroke-linejoin:round;paint-order:stroke markers fill"
       d="m 3.0000002,6.0000005 h 1.9999986 c 0.5540032,0 1.0000026,0.4460002 1.0000026,0.9999999 v 8.0000006 c 0,0.553999 -0.4459994,1 -1.0000026,1 H 3.0000002 c -0.5539998,0 -0.9999999,-0.446001 -0.9999999,-1 V 7.0000004 c 0,-0.5539997 0.4460001,-0.9999999 0.9999999,-0.9999999 z"
       sodipodi:nodetypes="sssssssss" />
    <path
       id="rect10-9-3-8"
       style="fill:#363c4d;stroke-width:1.93924;stroke-linecap:round;stroke-linejoin:round;paint-order:stroke markers fill"
       d="m 8.9999995,7.0000001 h 1.9999955 c 0.554003,0 1.000003,0.4459997 1.000003,1.0000002 V 16 c 0,0.554 -0.446,1 -1.000003,1 H 8.9999995 C 8.4460001,17 8.0000007,16.554 8.0000007,16 V 8.0000003 c 0,-0.5540005 0.4459994,-1.0000002 0.9999988,-1.0000002 z"
       sodipodi:nodetypes="sssssssss" />
    <path
       id="rect10-90-8"
       style="fill:#f8f9fa;fill-opacity:1;stroke-width:1.93924;stroke-linecap:round;stroke-linejoin:round;paint-order:stroke markers fill"
       d="m 8.9999995,6.0000005 h 1.9999955 c 0.554003,0 1.000003,0.4459998 1.000003,0.9999999 V 15.000001 C 11.999998,15.554 11.553998,16 10.999995,16 H 8.9999995 C 8.4460001,16 8.0000007,15.554 8.0000007,15.000001 V 7.0000001 c 0,-0.5539998 0.4459994,-0.9999999 0.9999988,-0.9999996 z"
       sodipodi:nodetypes="sssssssss" />
  </g>
</svg>
