<svg height="22" viewBox="0 0 22 22" width="22" xmlns="http://www.w3.org/2000/svg" xmlns:xlink="http://www.w3.org/1999/xlink"><defs id="antufoldercolor">
    <style type="text/css" id="current-color-scheme">
      .ColorScheme-Highlight {
        color:#45aaf5;
      }
      </style>
  </defs><linearGradient id="a" gradientUnits="userSpaceOnUse" x1="5" x2="5" y1="20" y2="8"><stop offset="0" stop-color="#dadada"/><stop offset="1" stop-color="#fcfcfc"/></linearGradient><linearGradient id="b" gradientUnits="userSpaceOnUse" x1="10" x2="10" y1="6" y2="2"><stop offset="0" stop-color="#2f3642"/><stop offset="1" stop-color="#3d4957"/></linearGradient><linearGradient id="c" gradientUnits="userSpaceOnUse" x1="11" x2="11" y1="15" y2="11"><stop offset="0" stop-color="#fff" stop-opacity="0"/><stop offset="1" stop-color="#fff" stop-opacity=".2"/></linearGradient><g stroke-linecap="round" stroke-linejoin="round"><g stroke-width="2"><path d="m2 3h18c.554 0 1 .446 1 1v16c0 .554-.446 1-1 1h-18c-.554 0-1-.446-1-1v-16c0-.554.446-1 1-1z" fill="#90a4ae"/><path d="m2 4h18v16h-18z" fill="url(#a)"/><path d="m2 1h18.000002c.553999 0 .999999.4459995.999999.9999989v3.0000022c0 .5539994-.446.9999989-.999999.9999989h-18.000002c-.5539994 0-.9999989-.4459995-.9999989-.9999989v-3.0000022c0-.5539994.4459995-.9999989.9999989-.9999989z" fill="#1f1f26"/><path d="m1.0000011 5h19.9999999v2h-19.9999999z" fill="#1f1f26"/><path d="m2.0000011 2h17.9999999v4h-17.9999999z" fill="url(#b)"/></g><path d="m5 10c-.553999 0-1 .446001-1 1v4c0 .553999.446001 1 1 1h4c.553999 0 1-.446001 1-1v-4c0-.553999-.446001-1-1-1zm8.03125 0c-.553999 0-1 .446001-1 1v4c0 .553999.446001 1 1 1h4c.553999 0 1-.446001 1-1v-4c0-.553999-.446001-1-1-1z" style="fill:currentColor"
class="ColorScheme-Highlight" stroke-width="1.58014"/><path d="m4.9980469 11v4h4.0019531v-4zm8.0312501 0v4h4.001953v-4z" fill="url(#c)" stroke-width="2"/><path d="m5 10c-.5539988 0-1 .446002-1 1v4c0 .553998.4460012 1 1 1h4c.5539988 0 1-.446002 1-1v-4c0-.553998-.4460012-1-1-1zm8.03125 0c-.553998 0-1 .446002-1 1v4c0 .553998.446002 1 1 1h4c.553998 0 1-.446002 1-1v-4c0-.553998-.446002-1-1-1zm-8.0332031 1h4.0019531v4h-4.0019531zm8.0312501 0h4.001953v4h-4.001953z" fill-opacity=".2" stroke-width="1.58014"/></g></svg>
