<svg height="22" viewBox="0 0 22 22" width="22" xmlns="http://www.w3.org/2000/svg" xmlns:xlink="http://www.w3.org/1999/xlink"><defs id="antufoldercolor">
    <style type="text/css" id="current-color-scheme">
      .ColorScheme-Highlight {
        color:#45aaf5;
      }
      </style>
  </defs>
<linearGradient id="a"><stop offset="0" stop-color="#fff" stop-opacity="0"/><stop offset="1" stop-color="#fff" stop-opacity=".2"/></linearGradient><linearGradient id="b" gradientUnits="userSpaceOnUse" x1="5" x2="5" y1="20" y2="8"><stop offset="0" stop-color="#dadada"/><stop offset="1" stop-color="#fcfcfc"/></linearGradient><linearGradient id="c" gradientUnits="userSpaceOnUse" x1="10" x2="10" y1="6" y2="2"><stop offset="0" stop-color="#2f3642"/><stop offset="1" stop-color="#3d4957"/></linearGradient><linearGradient id="d" gradientUnits="userSpaceOnUse" x1="6" x2="6" xlink:href="#a" y1="18" y2="15"/><linearGradient id="e" gradientUnits="userSpaceOnUse" x1="6.500977" x2="6.499023" xlink:href="#a" y1="12" y2="9"/><g stroke-linecap="round" stroke-linejoin="round"><g stroke-width="2"><path d="m2 3h18c.554 0 1 .446 1 1v16c0 .554-.446 1-1 1h-18c-.554 0-1-.446-1-1v-16c0-.554.446-1 1-1z" fill="#90a4ae"/><path d="m2 4h18v16h-18z" fill="url(#b)"/><path d="m2 1h18.000002c.553999 0 .999999.4459995.999999.9999989v3.0000022c0 .5539994-.446.9999989-.999999.9999989h-18.000002c-.5539994 0-.9999989-.4459995-.9999989-.9999989v-3.0000022c0-.5539994.4459995-.9999989.9999989-.9999989z" fill="#1f1f26"/><path d="m1.0000011 5h19.9999999v2h-19.9999999z" fill="#1f1f26"/><path d="m2.0000011 2h17.9999999v4h-17.9999999z" fill="url(#c)"/></g><path d="m5.0019531 8c-.5539994 0-1 .4460006-1 1v3c0 .553999.4460006 1 1 1h3c.5539995 0 1-.446001 1-1v-3c0-.5539994-.4460005-1-1-1zm-.0019531 6c-.5539994 0-1 .446001-1 1v3c0 .553999.4460006 1 1 1h3c.5539994 0 1-.446001 1-1v-3c0-.553999-.4460006-1-1-1z" style="fill:currentColor"
class="ColorScheme-Highlight" stroke-width="1.05343"/><path d="m5 15v3h2.9980469v-3z" fill="url(#d)" stroke-width=".999658"/><path d="m5.0019531 9v3h2.9980469v-3z" fill="url(#e)" stroke-width=".999658"/><path d="m10 8v1h8v-1zm0 2v1h8v-1zm0 2v1h8v-1zm0 2v1h8v-1zm0 2v1h8v-1zm0 2v1h8v-1z" fill="#90a4ae" stroke-width="1.99384"/><path d="m5 8c-.553998 0-1 .446002-1 1v3c0 .553998.446002 1 1 1h3c.554 0 1-.446002 1-1v-3c0-.553998-.446-1-1-1zm0 1h2.998047v3h-2.998047zm-.00195 5c-.553998 0-1 .446002-1 1v3c0 .553998.446002 1 1 1h3c.553998 0 1-.446002 1-1v-3c0-.553998-.446002-1-1-1zm0 1h2.998047v3h-2.99805z" fill-opacity=".2" stroke-width="1.05343"/></g></svg>
