<svg height="22" viewBox="0 0 22 22" width="22" xmlns="http://www.w3.org/2000/svg" xmlns:xlink="http://www.w3.org/1999/xlink"><defs id="antufoldercolor">
    <style type="text/css" id="current-color-scheme">
      .ColorScheme-Highlight {
        color:#45aaf5;
      }
      </style>
  </defs><linearGradient id="a"><stop offset="0" stop-color="#fff" stop-opacity=".027451"/><stop offset="1" stop-color="#fff" stop-opacity=".176471"/></linearGradient><linearGradient id="b" gradientUnits="userSpaceOnUse" x1="5" x2="5" y1="20" y2="8"><stop offset="0" stop-color="#dadada"/><stop offset="1" stop-color="#fcfcfc"/></linearGradient><linearGradient id="c" gradientUnits="userSpaceOnUse" x1="10" x2="10" y1="6" y2="2"><stop offset="0" stop-color="#2f3642"/><stop offset="1" stop-color="#3d4957"/></linearGradient><linearGradient id="d" gradientUnits="userSpaceOnUse" x1="13" x2="13" xlink:href="#a" y1="12" y2="9"/><linearGradient id="e" gradientUnits="userSpaceOnUse" x1="13" x2="13" xlink:href="#a" y1="17.999999" y2="14.999999"/><g stroke-linecap="round" stroke-linejoin="round"><g stroke-width="2"><path d="m2 3h18c.554 0 1 .446 1 1v16c0 .554-.446 1-1 1h-18c-.554 0-1-.446-1-1v-16c0-.554.446-1 1-1z" fill="#90a4ae"/><path d="m2 4h18v16h-18z" fill="url(#b)"/><path d="m2 1h18.000002c.553999 0 .999999.4459995.999999.9999989v3.0000022c0 .5539994-.446.9999989-.999999.9999989h-18.000002c-.5539994 0-.9999989-.4459995-.9999989-.9999989v-3.0000022c0-.5539994.4459995-.9999989.9999989-.9999989z" fill="#1f1f26"/><path d="m1.0000011 5h19.9999999v2h-19.9999999z" fill="#1f1f26"/><path d="m2.0000011 2h17.9999999v4h-17.9999999z" fill="url(#c)"/><path d="m5 7.022395h1v9.977605h-1z" fill="#90a4ae"/><path d="m4.998632 10h8.001368v1h-8.001368z" fill="#90a4ae"/><path d="m4.999316 16h8.001368v1h-8.001368z" fill="#90a4ae"/></g><rect style="fill:currentColor"
class="ColorScheme-Highlight" height="5" ry=".833333" stroke-width="1.31679" width="5" x="10" y="8"/><path d="m10.998632 9h3v3c-1.283583 0-2.145462 0-3 0z" fill="url(#d)" stroke-width="1.49975"/><rect style="fill:currentColor"
class="ColorScheme-Highlight" height="5" ry=".833333" stroke-width="1.31679" width="5" x="9.998632" y="14"/><path d="m10.832616 8c-.461666 0-.832031.372318-.832031.833984v3.332032c0 .461666.370365.833984.832031.833984h3.333985c.461666 0 .833984-.372318.833984-.833984v-3.332032c0-.461666-.372318-.833984-.833984-.833984zm.166016 1h3v3h-3zm-.166016 5c-.461666 0-.8339836.372318-.8339836.833984v3.332032c0 .461666.3723176.833984.8339836.833984h3.332032c.461666 0 .833984-.372318.833984-.833984v-3.332032c0-.461666-.372318-.833984-.833984-.833984zm.164063 1h3v3h-3z" fill-opacity=".2" stroke-width="1.31679"/><path d="m10.998632 15h3v3c-1.283583 0-2.145462 0-3 0z" fill="url(#e)" stroke-width="1.49975"/></g></svg>
