<svg height="22" viewBox="0 0 22 22" width="22" xmlns="http://www.w3.org/2000/svg" xmlns:xlink="http://www.w3.org/1999/xlink"><linearGradient id="a" gradientUnits="userSpaceOnUse" x1="3.174374" x2="3.175" y1="5.276577" y2="1.058333"><stop offset="0" stop-color="#e4e4e4"/><stop offset="1" stop-color="#fbfbfb"/></linearGradient><linearGradient id="b" gradientUnits="userSpaceOnUse" x1="10" x2="10" y1="13.636669" y2="8.396289"><stop offset="0" stop-color="#238fe9"/><stop offset="1" stop-color="#2eb6fd"/></linearGradient><g stroke-linecap="round" stroke-linejoin="round"><g fill="#ffb8a3" stroke-miterlimit="1.8" stroke-width=".529167" transform="matrix(3.7795276 0 0 3.7795276 -1 -1)"><path d="m1.0583333.52916664h4.2333332c.2931583 0 .5291666.23600832.5291666.52916666v4.2333332c0 .2931583-.2360083.5291666-.5291666.5291666h-4.2333332c-.29315834 0-.52916666-.2360083-.52916666-.5291666v-4.2333332c0-.29315834.23600832-.52916666.52916666-.52916666z" fill="#7f9099"/><path d="m1.0583333.79374999h4.2333341c.1465792 0 .2645834.11800416.2645834.26458331v4.2333332c0 .1465791-.1180042.2645833-.2645834.2645833h-4.2333341c-.14657915 0-.26458331-.1180042-.26458331-.2645833v-4.2333332c0-.14657915.11800416-.26458331.26458331-.26458331z" fill="url(#a)"/></g><g stroke-width="2"><path d="m4.4778963 3c.8187546 0 1.4778964.6591418 1.4778964 1.4778963v.044187c0 .8187549-.6591418 1.4778967-1.4778964 1.4778967-.8187545 0-1.4778963-.6591418-1.4778963-1.4778964v-.0441873c0-.8187545.6591418-1.4778963 1.4778963-1.4778963z" fill="#7f9099"/><path d="m8 7h6c2.216 0 4 1.784 4 4s-1.784 4-4 4h-6c-2.216 0-4-1.784-4-4s1.784-4 4-4z" fill="#1a6cb2"/><path d="m17.477896 3c.818755 0 1.477897.6591418 1.477897 1.4778963v.044187c0 .8187546-.659142 1.4778964-1.477897 1.4778964-.818754.0000003-1.477896-.6591415-1.477896-1.4778961v-.0441873c0-.8187545.659142-1.4778963 1.477896-1.4778963z" fill="#7f9099"/><path d="m4.4778963 16c.8187546 0 1.4778964.659142 1.4778964 1.477896v.04419c0 .818754-.6591418 1.477896-1.4778964 1.477896-.8187545-.000002-1.4778963-.659144-1.4778963-1.477898v-.04419c0-.818752.6591418-1.477894 1.4778963-1.477894z" fill="#7f9099"/><path d="m17.477896 16c.818755 0 1.477897.659142 1.477897 1.477896v.04419c0 .818754-.659142 1.477896-1.477897 1.477896-.818754-.000002-1.477896-.659144-1.477896-1.477898v-.04419c0-.818752.659142-1.477894 1.477896-1.477894z" fill="#7f9099"/><path d="m8 8h6c1.662 0 3 1.338 3 3s-1.338 3-3 3h-6c-1.662 0-3-1.338-3-3s1.338-3 3-3z" fill="url(#b)"/><path d="m13.996846 9h.003154c1.108 0 2 .892 2 2s-.892 2-2 2h-.0032c-1.108 0-2-.892-2-2s.892-2 2-2z" fill="#1a6cb2"/><path d="m14 10c.554 0 1 .446 1 1s-.446 1-1 1-1-.446-1-1 .446-1 1-1z" fill="#f1f1f1"/></g></g></svg>