<?xml version="1.0" encoding="UTF-8" standalone="no"?>
<svg
   height="22"
   viewBox="0 0 22 22"
   width="22"
   version="1.1"
   id="svg6"
   sodipodi:docname="xorg.svg"
   inkscape:version="1.3.2 (091e20ef0f, 2023-11-25, custom)"
   xml:space="preserve"
   xmlns:inkscape="http://www.inkscape.org/namespaces/inkscape"
   xmlns:sodipodi="http://sodipodi.sourceforge.net/DTD/sodipodi-0.dtd"
   xmlns:xlink="http://www.w3.org/1999/xlink"
   xmlns="http://www.w3.org/2000/svg"
   xmlns:svg="http://www.w3.org/2000/svg"><sodipodi:namedview
     id="namedview8"
     pagecolor="#ffffff"
     bordercolor="#000000"
     borderopacity="0.25"
     inkscape:showpageshadow="2"
     inkscape:pageopacity="0.0"
     inkscape:pagecheckerboard="0"
     inkscape:deskcolor="#d1d1d1"
     showgrid="true"
     inkscape:zoom="33.772727"
     inkscape:cx="20.267833"
     inkscape:cy="9.2678331"
     inkscape:window-width="2560"
     inkscape:window-height="1356"
     inkscape:window-x="0"
     inkscape:window-y="0"
     inkscape:window-maximized="1"
     inkscape:current-layer="svg6"><inkscape:grid
       id="grid1"
       units="px"
       originx="0"
       originy="0"
       spacingx="1"
       spacingy="1"
       empcolor="#0099e5"
       empopacity="0.30196078"
       color="#0099e5"
       opacity="0.14902"
       empspacing="5"
       dotted="false"
       gridanglex="30"
       gridanglez="30"
       visible="true" /></sodipodi:namedview><defs
     id="defs2"><linearGradient
       id="linearGradient5"
       inkscape:collect="always"><stop
         style="stop-color:#f2f4f4;stop-opacity:1;"
         offset="0"
         id="stop5" /><stop
         style="stop-color:#9ba7a7;stop-opacity:1;"
         offset="1"
         id="stop6" /></linearGradient><linearGradient
       id="linearGradient3"
       inkscape:collect="always"><stop
         style="stop-color:#cad5d6;stop-opacity:1;"
         offset="0"
         id="stop3" /><stop
         style="stop-color:#f1f4f5;stop-opacity:1;"
         offset="1"
         id="stop4" /></linearGradient><linearGradient
       id="linearGradient1"
       inkscape:collect="always"><stop
         style="stop-color:#484848;stop-opacity:1;"
         offset="0"
         id="stop1" /><stop
         style="stop-color:#222222;stop-opacity:1;"
         offset="1"
         id="stop2" /></linearGradient><style
       type="text/css"
       id="current-color-scheme">
      .ColorScheme-Text {
        color:#36404d;
      }
      </style><style
       type="text/css"
       id="current-color-scheme-7">
      .ColorScheme-Text {
        color:#122036;
      }
      </style><linearGradient
       inkscape:collect="always"
       xlink:href="#linearGradient1"
       id="linearGradient2"
       x1="11"
       y1="19"
       x2="11"
       y2="3"
       gradientUnits="userSpaceOnUse" /><linearGradient
       inkscape:collect="always"
       xlink:href="#linearGradient3"
       id="linearGradient4"
       x1="11"
       y1="16"
       x2="11"
       y2="6"
       gradientUnits="userSpaceOnUse" /><linearGradient
       inkscape:collect="always"
       xlink:href="#linearGradient5"
       id="linearGradient6"
       x1="11"
       y1="14"
       x2="11"
       y2="8"
       gradientUnits="userSpaceOnUse" /></defs><path
     id="rect1728"
     style="fill:#030303;fill-opacity:1;stroke-width:2;stroke-linecap:round;stroke-linejoin:round;stroke-miterlimit:1.8;paint-order:fill markers stroke;stop-color:#000000"
     d="M 3.0000003,1.0000003 H 19 c 1.108,0 2,0.892 2,2 V 19 c 0,1.108 -0.892,2 -2,2 H 3.0000003 c -1.108,0 -2,-0.892 -2,-2 V 3.0000003 c 0,-1.108 0.892,-2 2,-2 z" /><path
     id="rect1728-7"
     style="fill:url(#linearGradient2);fill-opacity:1;stroke-width:2;stroke-linecap:round;stroke-linejoin:round;stroke-miterlimit:1.8;paint-order:fill markers stroke;stop-color:#000000"
     d="m 3.0000003,2.0000004 c -0.5539993,0 -0.9999999,0.4460006 -0.9999999,0.9999999 V 19.000001 c 0,0.553999 0.4460006,1 0.9999999,1 H 19.000001 c 0.553999,0 1,-0.446001 1,-1 V 3.0000003 c 0,-0.5539993 -0.446001,-0.9999999 -1,-0.9999999 z"
     sodipodi:nodetypes="sssssssss" /><path
     id="rect2-3-6"
     style="fill:#000000;fill-opacity:1;stroke-width:2;stroke-linecap:round;stroke-linejoin:round;paint-order:stroke fill markers"
     d="M 2,4 V 6 H 20 V 4 Z m 0,4 v 2 H 20 V 8 Z m 0,4 v 2 h 18 v -2 z m 0,4 v 2 h 18 v -2 z" /><path
     id="path6374"
     style="color:#000000;fill:url(#linearGradient4);fill-opacity:1;stroke-width:3.77953;stroke-linecap:round;stroke-linejoin:round;stroke-miterlimit:1.8;paint-order:fill markers stroke"
     d="M 8.0000005,5.0000005 C 7.6488261,5.0007976 7.3226763,5.18485 7.1425784,5.4863285 L 4.1386722,10.484375 c -0.1888252,0.315965 -0.1888252,0.711379 0,1.027344 l 3.0039062,5.003907 c 0.1819162,0.298647 0.5077326,0.481232 0.8574221,0.480468 h 6.0000005 c 0.349689,7.64e-4 0.675505,-0.181821 0.857422,-0.480468 l 2.996093,-5.003907 c 0.188826,-0.315965 0.188826,-0.711378 0,-1.027344 L 14.857423,5.4863285 C 14.677325,5.18485 14.351176,5.0007976 14.000001,5.0000005 Z m 2.9472655,3.9999999 c 0.0172,-4.328e-4 0.03541,0 0.05274,0 1.107999,0 2,0.8920014 2,2.0000006 0,1.107998 -0.892001,2 -2,2 -1.1079989,0 -2.0000003,-0.892002 -2.0000003,-2 0,-1.0906871 0.8633862,-1.9727238 1.9472643,-2.0000006 z" /><path
     id="rect6460-7"
     style="fill:url(#linearGradient6);fill-opacity:1;stroke:none;stroke-width:1.33333;stroke-linecap:round;stroke-linejoin:round;stroke-miterlimit:1.8;stroke-dasharray:none;stroke-opacity:1;paint-order:fill markers stroke;stop-color:#000000"
     d="m 10.921875,8.0000005 c -1.6258189,0.040915 -2.9218745,1.3639703 -2.9218745,3.0000005 0,1.661998 1.3380015,3 3.0000005,3 1.661998,0 3,-1.338002 3,-3 0,-1.661999 -1.338002,-3.0000005 -3,-3.0000005 -0.02596,0 -0.05232,-6.497e-4 -0.07813,0 z m 0.0254,0.9999999 c 0.0172,-4.328e-4 0.03541,0 0.05274,0 1.108,0 2.000001,0.8920014 2.000001,1.9999996 0,1.107999 -0.892001,2.000001 -2.000001,2.000001 -1.1079984,0 -1.9999997,-0.892002 -1.9999997,-2.000001 0,-1.0906861 0.8633862,-1.9727228 1.9472637,-1.9999996 z" /></svg>
