<svg height="22" viewBox="0 0 22 22" width="22" xmlns="http://www.w3.org/2000/svg" xmlns:xlink="http://www.w3.org/1999/xlink"><linearGradient id="a" gradientUnits="userSpaceOnUse" x1="3.175" x2="3.175" y1="5.820833" y2="5.027083"><stop offset="0" stop-color="#d4e6e6"/><stop offset="1" stop-color="#edf4f4"/></linearGradient><linearGradient id="b" gradientUnits="userSpaceOnUse" x1="3.175" x2="3.175" y1="4.497917" y2=".79375"><stop offset="0" stop-color="#5d657e"/><stop offset="1" stop-color="#727b97"/></linearGradient><linearGradient id="c" gradientUnits="userSpaceOnUse" x1="15.139718" x2="15.139718" y1="8.294543" y2="6.44246"><stop offset="0" stop-color="#e5efef"/><stop offset="1" stop-color="#fcfcfc"/></linearGradient><g stroke-linecap="round" stroke-linejoin="round" stroke-miterlimit="1.8" stroke-width=".529167" transform="matrix(3.7795276 0 0 3.7795276 -1 -1.000001)"><path d="m.79374996 4.4979167h4.76249984c.1465792 0 .2645833.1180042.2645833.2645833v1.0583336c0 .1465792-.1180041.2645833-.2645833.2645833h-4.76249984c-.14657916 0-.26458332-.1180041-.26458332-.2645833v-1.0583336c0-.1465791.11800416-.2645833.26458332-.2645833z" fill="#363c4d"/><path d="m.7937499 4.7625001v1.0583333h.5291667v-.5291667h2.6458333v.5291667h1.5874999v-1.0583333zm.79375.79375v.2645833h.5291666v-.2645833zm.79375 0v.2645833h.5291666v-.2645833zm.79375 0v.2645833h.5291666v-.2645833z" fill="url(#a)"/><path d="m.79374996.26458332h4.76249984c.1465792 0 .2645833.11800416.2645833.26458332v4.23333316c0 .1465792-.1180041.2645833-.2645833.2645833h-4.76249984c-.14657916 0-.26458332-.1180041-.26458332-.2645833v-4.23333316c0-.14657916.11800416-.26458332.26458332-.26458332z" fill="#363c4d"/><path d="m.79374999.52916664h4.76249981v4.23333306h-4.76249981z" fill="url(#b)"/><g fill="#363c4d"><path d="m1.3229166.79374999c.1465792 0 .2645833.11800416.2645833.26458331 0 .1465792-.1180041.2645833-.2645833.2645833s-.2645833-.1180041-.2645833-.2645833c0-.14657915.1180041-.26458331.2645833-.26458331z"/><path d="m1.3229166 3.96875c.1465792 0 .2645833.1180042.2645833.2645833 0 .1465792-.1180041.2645833-.2645833.2645833s-.2645833-.1180041-.2645833-.2645833c0-.1465791.1180041-.2645833.2645833-.2645833z"/><path d="m1.3229166 2.3812499c.1465792 0 .2645833.1180042.2645833.2645833 0 .1465792-.1180041.2645833-.2645833.2645833s-.2645833-.1180041-.2645833-.2645833c0-.1465791.1180041-.2645833.2645833-.2645833z"/><path d="m5.0270836.79374999c.1465792 0 .2645833.11800416.2645833.26458331 0 .1465792-.1180041.2645833-.2645833.2645833s-.2645833-.1180041-.2645833-.2645833c0-.14657915.1180041-.26458331.2645833-.26458331z"/><path d="m5.0270836 3.96875c.1465792 0 .2645833.1180042.2645833.2645833 0 .1465792-.1180041.2645833-.2645833.2645833s-.2645833-.1180041-.2645833-.2645833c0-.1465791.1180041-.2645833.2645833-.2645833z"/><path d="m5.0270836 2.3812499c.1465792 0 .2645833.1180042.2645833.2645833 0 .1465792-.1180041.2645833-.2645833.2645833s-.2645833-.1180041-.2645833-.2645833c0-.1465791.1180041-.2645833.2645833-.2645833z"/></g><path d="m3.175 5.5562501h.5291666v.2645833h-.5291666z" fill="#f1f1f1"/><path d="m1.3229166.79374999c.1465792 0 .2645833.11800416.2645833.26458331 0 .1465792-.1180041.2645833-.2645833.2645833s-.2645833-.1180041-.2645833-.2645833c0-.14657915.1180041-.26458331.2645833-.26458331z" fill="#36404d"/><path d="m1.3229166 2.3812499c.1465792 0 .2645833.1180042.2645833.2645833 0 .1465792-.1180041.2645833-.2645833.2645833s-.2645833-.1180041-.2645833-.2645833c0-.1465791.1180041-.2645833.2645833-.2645833z" fill="#36404d"/><path d="m5.0270836.79374999c.1465792 0 .2645833.11800416.2645833.26458331 0 .1465792-.1180041.2645833-.2645833.2645833s-.2645833-.1180041-.2645833-.2645833c0-.14657915.1180041-.26458331.2645833-.26458331z" fill="#36404d"/><path d="m5.0270836 3.96875c.1465792 0 .2645833.1180042.2645833.2645833 0 .1465792-.1180041.2645833-.2645833.2645833s-.2645833-.1180041-.2645833-.2645833c0-.1465791.1180041-.2645833.2645833-.2645833z" fill="#36404d"/><path d="m5.0270836 2.3812499c.1465792 0 .2645833.1180042.2645833.2645833 0 .1465792-.1180041.2645833-.2645833.2645833s-.2645833-.1180041-.2645833-.2645833c0-.1465791.1180041-.2645833.2645833-.2645833z" fill="#36404d"/><g transform="translate(-10.377218 -2.738293)"><path d="m13.816801 5.9132929 2.38125-.0000001c.146579 0 .264583.1180042.264583.2645833v2.38125c0 .1465792-.118004.2645834-.264583.2645834l-2.38125.0000001c-.146579 0-.264583-.1180042-.264583-.2645834v-2.38125c0-.1465791.118004-.2645833.264583-.2645833z" fill="#90a4ae"/><path d="m13.816801 6.1778763 2.38125-.0000001v2.3812499l-2.38125.0000001z" fill="url(#c)"/><path d="m14.081384 6.4424595h1.852084v1.5875h-.529167v.2645834h-.79375v-.2645834h-.529167z" fill="#13161b"/><path d="m14.345968 6.7070429v.5291666h.264583v-.5291666zm.529166 0v.5291666h.264584v-.5291666zm.529167 0v.5291666h.264583v-.5291666z" fill="#ffd200"/></g></g></svg>