<svg height="22" viewBox="0 0 22 22" width="22" xmlns="http://www.w3.org/2000/svg" xmlns:xlink="http://www.w3.org/1999/xlink"><linearGradient id="a" gradientUnits="userSpaceOnUse" x1="3.175" x2="3.175" y1="5.820833" y2="5.027083"><stop offset="0" stop-color="#d4e6e6"/><stop offset="1" stop-color="#edf4f4"/></linearGradient><linearGradient id="b" gradientUnits="userSpaceOnUse" x1="3.175" x2="3.175" y1="4.497917" y2=".79375"><stop offset="0" stop-color="#5d657e"/><stop offset="1" stop-color="#727b97"/></linearGradient><linearGradient id="c" gradientUnits="userSpaceOnUse" x1="7.986544" x2="8" y1="14.031539" y2="2"><stop offset="0" stop-color="#1f9b6b"/><stop offset="1" stop-color="#24b07a"/></linearGradient><g transform="matrix(3.7795276 0 0 3.7795276 -1 -1.000001)"><g stroke-linecap="round" stroke-linejoin="round" stroke-miterlimit="1.8" stroke-width=".529167"><path d="m.79374996 4.4979167h4.76249984c.1465792 0 .2645833.1180042.2645833.2645833v1.0583336c0 .1465792-.1180041.2645833-.2645833.2645833h-4.76249984c-.14657916 0-.26458332-.1180041-.26458332-.2645833v-1.0583336c0-.1465791.11800416-.2645833.26458332-.2645833z" fill="#363c4d"/><path d="m.7937499 4.7625001v1.0583333h.5291667v-.5291667h2.6458333v.5291667h1.5874999v-1.0583333zm.79375.79375v.2645833h.5291666v-.2645833zm.79375 0v.2645833h.5291666v-.2645833zm.79375 0v.2645833h.5291666v-.2645833z" fill="url(#a)"/><path d="m.79374996.26458332h4.76249984c.1465792 0 .2645833.11800416.2645833.26458332v4.23333316c0 .1465792-.1180041.2645833-.2645833.2645833h-4.76249984c-.14657916 0-.26458332-.1180041-.26458332-.2645833v-4.23333316c0-.14657916.11800416-.26458332.26458332-.26458332z" fill="#363c4d"/><path d="m.79374999.52916664h4.76249981v4.23333306h-4.76249981z" fill="url(#b)"/><path d="m1.3229166.79374999c.1465792 0 .2645833.11800416.2645833.26458331 0 .1465792-.1180041.2645833-.2645833.2645833s-.2645833-.1180041-.2645833-.2645833c0-.14657915.1180041-.26458331.2645833-.26458331z" fill="#363c4d"/><path d="m1.3229166 3.96875c.1465792 0 .2645833.1180042.2645833.2645833 0 .1465792-.1180041.2645833-.2645833.2645833s-.2645833-.1180041-.2645833-.2645833c0-.1465791.1180041-.2645833.2645833-.2645833z" fill="#363c4d"/><path d="m1.3229166 2.3812499c.1465792 0 .2645833.1180042.2645833.2645833 0 .1465792-.1180041.2645833-.2645833.2645833s-.2645833-.1180041-.2645833-.2645833c0-.1465791.1180041-.2645833.2645833-.2645833z" fill="#363c4d"/><path d="m5.0270836.79374999c.1465792 0 .2645833.11800416.2645833.26458331 0 .1465792-.1180041.2645833-.2645833.2645833s-.2645833-.1180041-.2645833-.2645833c0-.14657915.1180041-.26458331.2645833-.26458331z" fill="#363c4d"/><path d="m5.0270836 3.96875c.1465792 0 .2645833.1180042.2645833.2645833 0 .1465792-.1180041.2645833-.2645833.2645833s-.2645833-.1180041-.2645833-.2645833c0-.1465791.1180041-.2645833.2645833-.2645833z" fill="#363c4d"/><path d="m5.0270836 2.3812499c.1465792 0 .2645833.1180042.2645833.2645833 0 .1465792-.1180041.2645833-.2645833.2645833s-.2645833-.1180041-.2645833-.2645833c0-.1465791.1180041-.2645833.2645833-.2645833z" fill="#363c4d"/><path d="m1.3229166.79374999c.1465792 0 .2645833.11800416.2645833.26458331 0 .1465792-.1180041.2645833-.2645833.2645833s-.2645833-.1180041-.2645833-.2645833c0-.14657915.1180041-.26458331.2645833-.26458331z" fill="#36404d"/><path d="m1.3229166 2.3812499c.1465792 0 .2645833.1180042.2645833.2645833 0 .1465792-.1180041.2645833-.2645833.2645833s-.2645833-.1180041-.2645833-.2645833c0-.1465791.1180041-.2645833.2645833-.2645833z" fill="#36404d"/><path d="m5.0270836.79374999c.1465792 0 .2645833.11800416.2645833.26458331 0 .1465792-.1180041.2645833-.2645833.2645833s-.2645833-.1180041-.2645833-.2645833c0-.14657915.1180041-.26458331.2645833-.26458331z" fill="#36404d"/><path d="m5.0270836 3.96875c.1465792 0 .2645833.1180042.2645833.2645833 0 .1465792-.1180041.2645833-.2645833.2645833s-.2645833-.1180041-.2645833-.2645833c0-.1465791.1180041-.2645833.2645833-.2645833z" fill="#36404d"/><path d="m5.0270836 2.3812499c.1465792 0 .2645833.1180042.2645833.2645833 0 .1465792-.1180041.2645833-.2645833.2645833s-.2645833-.1180041-.2645833-.2645833c0-.1465791.1180041-.2645833.2645833-.2645833z" fill="#36404d"/></g><g transform="matrix(.26458333 0 0 .26458333 2.120227 2.108322)"><path d="m8 1c-3.8779999 0-7 3.12202-7 7 0 3.87802 3.122 7 7 7s7-3.12198 7-7c0-3.87798-3.122-7-7-7z" fill="#00804b"/><path d="m8 2c3.324 0 6 2.676 6 6s-2.676 6-6 6-6-2.676-6-6 2.676-6 6-6z" fill="url(#c)"/><path d="m7.9865436 5.0315393c-.553999-.00001-1 .44604-1 1v3h-1a1.0001 1.0001 0 0 0 -.707031 1.7070307l2 2a1.0001 1.0001 0 0 0 1.414062 0l2.0000004-2a1.0001 1.0001 0 0 0 -.7070314-1.7070307h-1v-3c0-.55396-.446001-1-1-1z" fill="#278c5a"/><path d="m8 4c-.5539989-.00001-1 .44604-1 1v3h-1a1.0001 1.0001 0 0 0 -.7070312 1.7070312l2 1.9999998a1.0001 1.0001 0 0 0 1.4140624 0l1.9999998-1.9999998a1.0001 1.0001 0 0 0 -.707031-1.7070312h-1v-3c0-.55396-.446001-1-1-1z" fill="#e8ffee"/></g></g></svg>