<?xml version="1.0" encoding="UTF-8" standalone="no"?>
<!-- Created with Inkscape (http://www.inkscape.org/) -->

<svg
   width="22"
   height="22"
   viewBox="0 0 22 22"
   version="1.1"
   id="svg5"
   inkscape:version="1.3.2 (091e20ef0f, 2023-11-25, custom)"
   sodipodi:docname="preferences-log.svg"
   xml:space="preserve"
   xmlns:inkscape="http://www.inkscape.org/namespaces/inkscape"
   xmlns:sodipodi="http://sodipodi.sourceforge.net/DTD/sodipodi-0.dtd"
   xmlns:xlink="http://www.w3.org/1999/xlink"
   xmlns="http://www.w3.org/2000/svg"
   xmlns:svg="http://www.w3.org/2000/svg"><sodipodi:namedview
     id="namedview7"
     pagecolor="#ffffff"
     bordercolor="#000000"
     borderopacity="0.25"
     inkscape:showpageshadow="false"
     inkscape:pageopacity="0.0"
     inkscape:pagecheckerboard="0"
     inkscape:deskcolor="#d1d1d1"
     inkscape:document-units="px"
     showgrid="true"
     inkscape:zoom="26.910888"
     inkscape:cx="15.588486"
     inkscape:cy="14.343637"
     inkscape:window-width="2560"
     inkscape:window-height="1356"
     inkscape:window-x="0"
     inkscape:window-y="0"
     inkscape:window-maximized="1"
     inkscape:current-layer="layer1-7"><inkscape:grid
       type="xygrid"
       id="grid271"
       originx="0"
       originy="0"
       spacingy="1"
       spacingx="1"
       units="px"
       visible="true" /></sodipodi:namedview><defs
     id="defs2"><style
       id="current-color-scheme"
       type="text/css">
      .ColorScheme-Text {
        color:#122036;
      }
      </style><style
       id="current-color-scheme-6"
       type="text/css">
      .ColorScheme-Text {
        color:#122036;
      }
      </style><style
       type="text/css"
       id="current-color-scheme-67">
      .ColorScheme-Text {
        color:#36404d;
      }
      </style><style
       id="current-color-scheme-0"
       type="text/css">
      .ColorScheme-Text {
        color:#122036;
      }
      </style><style
       id="current-color-scheme-6-2"
       type="text/css">
      .ColorScheme-Text {
        color:#122036;
      }
      </style><style
       type="text/css"
       id="current-color-scheme-67-3">
      .ColorScheme-Text {
        color:#36404d;
      }
      </style><style
       id="current-color-scheme-675"
       type="text/css">
      .ColorScheme-Text {
        color:#122036;
      }
      </style><style
       id="current-color-scheme-1"
       type="text/css">
      .ColorScheme-Text {
        color:#122036;
      }
      </style><style
       type="text/css"
       id="current-color-scheme-10">
      .ColorScheme-Text {
        color:#122036;
      }
      </style><style
       type="text/css"
       id="current-color-scheme-6-3">
      .ColorScheme-Text {
        color:#122036;
      }
      </style><style
       type="text/css"
       id="current-color-scheme-1-9">
      .ColorScheme-Text {
        color:#122036;
      }
      </style><style
       id="current-color-scheme-10-1"
       type="text/css">
      .ColorScheme-Text {
        color:#122036;
      }
      </style><style
       type="text/css"
       id="current-color-scheme-56">
      .ColorScheme-Text {
        color:#122036;
      }
      </style><style
       type="text/css"
       id="current-color-scheme-1-91">
      .ColorScheme-Text {
        color:#122036;
      }
      </style><style
       id="current-color-scheme-10-2"
       type="text/css">
      .ColorScheme-Text {
        color:#122036;
      }
      </style><style
       id="current-color-scheme-5"
       type="text/css">
      .ColorScheme-Text {
        color:#122036;
      }
      </style><style
       id="current-color-scheme-1-2"
       type="text/css">
      .ColorScheme-Text {
        color:#122036;
      }
      </style><style
       type="text/css"
       id="current-color-scheme-10-9">
      .ColorScheme-Text {
        color:#122036;
      }
      </style><style
       type="text/css"
       id="current-color-scheme-6-7">
      .ColorScheme-Text {
        color:#122036;
      }
      </style><style
       type="text/css"
       id="current-color-scheme-1-9-0">
      .ColorScheme-Text {
        color:#122036;
      }
      </style><style
       id="current-color-scheme-10-1-9"
       type="text/css">
      .ColorScheme-Text {
        color:#122036;
      }
      </style><linearGradient
       inkscape:collect="always"
       xlink:href="#linearGradient1"
       id="linearGradient2"
       x1="0.79374993"
       y1="5.2916665"
       x2="0.79374993"
       y2="1.0583332"
       gradientUnits="userSpaceOnUse"
       gradientTransform="translate(14.632061,293.58292)" /><linearGradient
       id="linearGradient1"
       inkscape:collect="always"><stop
         style="stop-color:#4a4a4a;stop-opacity:1;"
         offset="0"
         id="stop1" /><stop
         style="stop-color:#232323;stop-opacity:1;"
         offset="1"
         id="stop2" /></linearGradient><linearGradient
       inkscape:collect="always"
       xlink:href="#linearGradient3"
       id="linearGradient4"
       x1="63.571701"
       y1="438.952"
       x2="62.388687"
       y2="451.60464"
       gradientUnits="userSpaceOnUse"
       gradientTransform="matrix(0.26458333,0,0,0.26458333,1.560507,179.94283)" /><linearGradient
       id="linearGradient3"
       inkscape:collect="always"><stop
         style="stop-color:#ffe200;stop-opacity:1;"
         offset="0"
         id="stop3" /><stop
         style="stop-color:#ffc900;stop-opacity:1;"
         offset="1"
         id="stop4" /></linearGradient></defs><g
     inkscape:label="Capa 1"
     inkscape:groupmode="layer"
     id="layer1"><g
       inkscape:label="Capa 1"
       id="layer1-7"
       transform="matrix(3.7795276,0,0,3.7795276,-0.9999997,-0.99999928)"><g
         id="g4"
         transform="translate(-14.641893,-293.58291)"><path
           id="rect1345-5"
           style="fill:#030303;fill-opacity:1;stroke-width:0.529167;stroke-linecap:round;stroke-linejoin:round;stroke-miterlimit:1.8;paint-order:fill markers stroke;stop-color:#000000"
           d="m 15.161228,294.11209 h 5.291666 c 0.146579,0 0.264583,0.118 0.264583,0.26458 v 4.7625 c 0,0.14658 -0.118004,0.26458 -0.264583,0.26458 h -5.291666 c -0.14658,0 -0.264584,-0.118 -0.264584,-0.26458 v -4.7625 c 0,-0.14658 0.118004,-0.26458 0.264584,-0.26458 z"
           sodipodi:nodetypes="sssssssss" /><path
           id="rect1345-7-9"
           style="fill:url(#linearGradient2);stroke-width:0.529167;stroke-linecap:round;stroke-linejoin:round;stroke-miterlimit:1.8;paint-order:fill markers stroke;stop-color:#000000"
           d="m 15.425811,294.64125 h 4.7625 v 4.23334 h -4.7625 z"
           sodipodi:nodetypes="ccccc" /><path
           style="fill:#cfcfcf;fill-opacity:1;stroke:none;stroke-width:0.264583;stroke-linecap:round;stroke-linejoin:round;stroke-miterlimit:4;stroke-dasharray:none;stroke-dashoffset:0;stroke-opacity:1"
           d="m 15.700226,294.90582 v 0.52917 h 1.322917 v -0.52917 z m 1.5875,0 v 0.52917 h 0.529167 v -0.52917 z m 0.79375,0 v 0.52917 h 1.322917 v -0.52917 z m -2.38125,0.79375 v 0.52917 h 2.116667 v -0.52917 z m 2.38125,0 v 0.52917 h 0.529167 v -0.52917 z m 0.79375,0 v 0.52917 l 1.048501,10e-6 v -0.52917 z m -3.175,0.79375 v 0.52917 h 0.529166 v -0.52917 z m 0.79375,0 v 0.52917 h 0.529167 v -0.52917 z m 0.79375,0 v 0.52917 h 1.322917 v -0.52917 z m 1.5875,0 v 0.52917 h 0.529167 v -0.52917 z m -3.175,0.79375 v 0.52917 h 1.322917 v -0.52917 z m 1.5875,0 v 0.52917 h 0.529167 v -0.52917 z m 0.79375,0 v 0.52917 h 1.322917 v -0.52917 z m -2.38125,0.79375 v 0.52917 h 0.529166 v -0.52917 z m 0.79375,0 v 0.52917 h 1.322917 v -0.52917 z m 1.5875,0 v 0.52917 h 0.79375 v -0.52917 z"
           id="rect4405-6-8"
           sodipodi:nodetypes="cccccccccccccccccccccccccccccccccccccccccccccccccccccccccccccccccccccccccccccccc" /><path
           style="color:#000000;fill:#fe9500;fill-opacity:1;stroke-width:0.264583;stroke-linecap:round;stroke-linejoin:round;stroke-miterlimit:1.8;paint-order:fill markers stroke"
           d="m 18.600661,295.96439 c -0.08846,1e-5 -0.171069,0.0442 -0.220141,0.11782 l -1.817311,3.17478 c -0.11717,0.17583 0.0088,0.4113 0.220141,0.41135 l 3.669394,2.1e-4 c 0.211294,-4e-5 0.337311,-0.23551 0.220142,-0.41134 l -1.852083,-3.175 c -0.04907,-0.0736 -0.13168,-0.11781 -0.220142,-0.11782 z m -0.229811,1.53509 1.587351,1.63991 -2.680307,-2.2e-4 z"
           id="path33228"
           sodipodi:nodetypes="cccccccccccc" /><path
           style="color:#000000;fill:url(#linearGradient4);stroke-width:0.529167;stroke-linecap:round;stroke-linejoin:round;stroke-miterlimit:1.8;paint-order:fill markers stroke"
           d="m 16.783499,299.40354 3.669395,2.1e-4 -1.852084,-3.175 z"
           id="path33226"
           sodipodi:nodetypes="cccc" /><path
           id="rect34256-9"
           style="fill:#fe9500;fill-opacity:1;stroke-width:0.529167;stroke-linecap:round;stroke-linejoin:round;stroke-miterlimit:1.8;paint-order:fill markers stroke;stop-color:#000000"
           d="m 18.587201,297.55178 c -0.140184,0.007 -0.251148,0.12259 -0.251148,0.26459 v 0.52916 c 0,0.14658 0.118005,0.26459 0.264584,0.26459 0.146579,0 0.264583,-0.11801 0.264583,-0.26459 v -0.52916 c 0,-0.14658 -0.118004,-0.26459 -0.264583,-0.26459 -0.0046,0 -0.0089,-2.2e-4 -0.01344,0 z m 0,1.32292 c -0.140184,0.007 -0.251148,0.12259 -0.251148,0.26458 0,0.14658 0.118005,0.26459 0.264584,0.26459 0.146579,0 0.264583,-0.11801 0.264583,-0.26459 0,-0.14658 -0.118004,-0.26458 -0.264583,-0.26458 -0.0046,0 -0.0089,-2.3e-4 -0.01344,0 z" /><path
           id="rect34256"
           style="fill:#714300;fill-opacity:1;stroke-width:0.529167;stroke-linecap:round;stroke-linejoin:round;stroke-miterlimit:1.8;paint-order:fill markers stroke;stop-color:#000000"
           d="m 18.587201,297.28723 c -0.140184,0.007 -0.251148,0.12259 -0.251148,0.26459 v 0.52916 c 0,0.14658 0.118005,0.26459 0.264584,0.26459 0.146579,0 0.264583,-0.11801 0.264583,-0.26459 v -0.52916 c 0,-0.14658 -0.118004,-0.26459 -0.264583,-0.26459 -0.0046,0 -0.0089,-2.2e-4 -0.01344,0 z m 0,1.32292 c -0.140184,0.007 -0.251148,0.12259 -0.251148,0.26458 0,0.14658 0.118005,0.26459 0.264584,0.26459 0.146579,0 0.264583,-0.11801 0.264583,-0.26459 0,-0.14658 -0.118004,-0.26458 -0.264583,-0.26458 -0.0046,0 -0.0089,-2.3e-4 -0.01344,0 z" /></g></g></g></svg>
