<svg height="22" viewBox="0 0 22 22" width="22" xmlns="http://www.w3.org/2000/svg" xmlns:xlink="http://www.w3.org/1999/xlink"><linearGradient id="a" gradientUnits="userSpaceOnUse" x1="3.175" x2="3.175" y1="5.291667" y2="1.5875"><stop offset="0" stop-color="#f41f3e"/><stop offset="1" stop-color="#fc556e"/></linearGradient><linearGradient id="b" gradientUnits="userSpaceOnUse" x1="11" x2="11" y1="17.000013" y2="7"><stop offset="0" stop-color="#f2c2c9"/><stop offset="1" stop-color="#fffdfe"/></linearGradient><g fill="#ffb8a3" stroke-linecap="round" stroke-linejoin="round" stroke-miterlimit="1.8" stroke-width=".529167" transform="matrix(3.7795276 0 0 3.7795276 -1 -1)"><path d="m1.0583333.52916664h4.2333332c.2931583 0 .5291666.23600832.5291666.52916666v4.2333332c0 .2931583-.2360083.5291666-.5291666.5291666h-4.2333332c-.29315834 0-.52916666-.2360083-.52916666-.5291666v-4.2333332c0-.29315834.23600832-.52916666.52916666-.52916666z" fill="#cc0120"/><path d="m1.0583333.79374999h4.2333341c.1465792 0 .2645834.11800416.2645834.26458331v4.2333332c0 .1465791-.1180042.2645833-.2645834.2645833h-4.2333341c-.14657915 0-.26458331-.1180042-.26458331-.2645833v-4.2333332c0-.14657915.11800416-.26458331.26458331-.26458331z" fill="url(#a)"/></g><path d="m-7.0429833 293.58829c-.5130271 0-.9260417.41302-.9260417.92605 0 .009.00236.0163.00259.0248h-.00259c0 .63665.79375 1.4304 1.5875 1.95957.7937501-.52917 1.5875001-1.32292 1.5875001-1.95544h-.0031c.0003175-.01.0031-.019.0031-.0289 0-.51303-.4130146-.92605-.9260417-.92605-.2600963 0-.4935625.10701-.6614584.27854-.1678958-.17153-.401362-.27854-.6614583-.27854z" fill="#cc0121" transform="matrix(3.7795275 0 0 3.7795275 35.119149 -1102.625028)"/><path d="m8.4999999 6c-1.939 0-3.5 1.5610204-3.5 3.5000315 0 .034016.00892.061606.00979.093732h-.00979c-0 2.4062365 2.9999999 5.4062365 6.0000001 7.4062495 3-2.000013 6-5.000013 6-7.3906398h-.01172c.001203-.037795.01172-.071811.01172-.1092283 0-1.9390111-1.561-3.5000315-3.5-3.5000315-.983041 0-1.865433.4044472-2.5 1.0527496-.634567-.6483024-1.5169589-1.0527496-2.5000001-1.0527496z" fill="url(#b)"/></svg>