<?xml version="1.0" encoding="UTF-8" standalone="no"?>
<!-- Created with Inkscape (http://www.inkscape.org/) -->

<svg
   width="22"
   height="22"
   viewBox="0 0 22 22"
   version="1.1"
   id="svg5"
   inkscape:version="1.3.2 (091e20ef0f, 2023-11-25, custom)"
   sodipodi:docname="preferences-desktop-peripherals.svg"
   xml:space="preserve"
   xmlns:inkscape="http://www.inkscape.org/namespaces/inkscape"
   xmlns:sodipodi="http://sodipodi.sourceforge.net/DTD/sodipodi-0.dtd"
   xmlns:xlink="http://www.w3.org/1999/xlink"
   xmlns="http://www.w3.org/2000/svg"
   xmlns:svg="http://www.w3.org/2000/svg"><sodipodi:namedview
     id="namedview7"
     pagecolor="#ffffff"
     bordercolor="#000000"
     borderopacity="0.25"
     inkscape:showpageshadow="false"
     inkscape:pageopacity="0.0"
     inkscape:pagecheckerboard="0"
     inkscape:deskcolor="#d1d1d1"
     inkscape:document-units="px"
     showgrid="true"
     inkscape:zoom="38.057741"
     inkscape:cx="20.00907"
     inkscape:cy="11.640207"
     inkscape:window-width="2560"
     inkscape:window-height="1356"
     inkscape:window-x="0"
     inkscape:window-y="0"
     inkscape:window-maximized="1"
     inkscape:current-layer="g2"><inkscape:grid
       type="xygrid"
       id="grid3636"
       originx="0"
       originy="0"
       spacingy="1"
       spacingx="1"
       units="px"
       visible="true" /></sodipodi:namedview><defs
     id="defs2"><linearGradient
       id="linearGradient7"
       inkscape:collect="always"><stop
         style="stop-color:#3b4153;stop-opacity:1;"
         offset="0"
         id="stop7" /><stop
         style="stop-color:#555d74;stop-opacity:1;"
         offset="1"
         id="stop8" /></linearGradient><linearGradient
       id="linearGradient5"
       inkscape:collect="always"><stop
         style="stop-color:#d1e4e4;stop-opacity:1;"
         offset="0"
         id="stop5" /><stop
         style="stop-color:#fcfcfc;stop-opacity:1;"
         offset="1"
         id="stop6" /></linearGradient><linearGradient
       id="linearGradient1"
       inkscape:collect="always"><stop
         style="stop-color:#5c647d;stop-opacity:1;"
         offset="0"
         id="stop1" /><stop
         style="stop-color:#727b97;stop-opacity:1;"
         offset="1"
         id="stop2" /></linearGradient><style
       type="text/css"
       id="current-color-scheme">
      .ColorScheme-Text {
        color:#36404d;
      }
      </style><style
       type="text/css"
       id="current-color-scheme-67">
      .ColorScheme-Text {
        color:#122036;
      }
      </style><style
       type="text/css"
       id="current-color-scheme-7">
      .ColorScheme-Text {
        color:#122036;
      }
      </style><style
       type="text/css"
       id="current-color-scheme-5">
      .ColorScheme-Text {
        color:#122036;
      }
      </style><style
       type="text/css"
       id="current-color-scheme-6">
      .ColorScheme-Text {
        color:#122036;
      }
      </style><style
       type="text/css"
       id="current-color-scheme-1">
      .ColorScheme-Text {
        color:#122036;
      }
      </style><style
       id="current-color-scheme-10"
       type="text/css">
      .ColorScheme-Text {
        color:#122036;
      }
      </style><style
       id="current-color-scheme-5-7"
       type="text/css">
      .ColorScheme-Text {
        color:#122036;
      }
      </style><style
       id="current-color-scheme-1-2"
       type="text/css">
      .ColorScheme-Text {
        color:#122036;
      }
      </style><style
       type="text/css"
       id="current-color-scheme-10-9">
      .ColorScheme-Text {
        color:#122036;
      }
      </style><style
       type="text/css"
       id="current-color-scheme-35">
      .ColorScheme-Text {
        color:#36404d;
      }
      </style><style
       type="text/css"
       id="current-color-scheme-67-6">
      .ColorScheme-Text {
        color:#122036;
      }
      </style><style
       type="text/css"
       id="current-color-scheme-7-2">
      .ColorScheme-Text {
        color:#122036;
      }
      </style><style
       type="text/css"
       id="current-color-scheme-5-9">
      .ColorScheme-Text {
        color:#122036;
      }
      </style><style
       type="text/css"
       id="current-color-scheme-6-1">
      .ColorScheme-Text {
        color:#122036;
      }
      </style><style
       type="text/css"
       id="current-color-scheme-1-27">
      .ColorScheme-Text {
        color:#122036;
      }
      </style><style
       id="current-color-scheme-10-0"
       type="text/css">
      .ColorScheme-Text {
        color:#122036;
      }
      </style><style
       id="current-color-scheme-5-7-9"
       type="text/css">
      .ColorScheme-Text {
        color:#122036;
      }
      </style><style
       id="current-color-scheme-1-2-3"
       type="text/css">
      .ColorScheme-Text {
        color:#122036;
      }
      </style><style
       type="text/css"
       id="current-color-scheme-10-9-6">
      .ColorScheme-Text {
        color:#122036;
      }
      </style><style
       id="current-color-scheme-53"
       type="text/css">
      .ColorScheme-Text {
        color:#122036;
      }
      </style><style
       id="current-color-scheme-6-5"
       type="text/css">
      .ColorScheme-Text {
        color:#122036;
      }
      </style><style
       type="text/css"
       id="current-color-scheme-9">
      .ColorScheme-Text {
        color:#36404d;
      }
      </style><style
       id="current-color-scheme-3"
       type="text/css">
      .ColorScheme-Text {
        color:#36404d;
      }
      </style><style
       type="text/css"
       id="current-color-scheme-356">
      .ColorScheme-Text {
        color:#36404d;
      }
      </style><style
       type="text/css"
       id="current-color-scheme-67-2">
      .ColorScheme-Text {
        color:#122036;
      }
      </style><style
       type="text/css"
       id="current-color-scheme-7-9">
      .ColorScheme-Text {
        color:#122036;
      }
      </style><style
       type="text/css"
       id="current-color-scheme-5-1">
      .ColorScheme-Text {
        color:#122036;
      }
      </style><style
       type="text/css"
       id="current-color-scheme-6-2">
      .ColorScheme-Text {
        color:#122036;
      }
      </style><style
       type="text/css"
       id="current-color-scheme-1-7">
      .ColorScheme-Text {
        color:#122036;
      }
      </style><style
       id="current-color-scheme-10-09"
       type="text/css">
      .ColorScheme-Text {
        color:#122036;
      }
      </style><style
       id="current-color-scheme-5-7-3"
       type="text/css">
      .ColorScheme-Text {
        color:#122036;
      }
      </style><style
       id="current-color-scheme-1-2-6"
       type="text/css">
      .ColorScheme-Text {
        color:#122036;
      }
      </style><style
       type="text/css"
       id="current-color-scheme-10-9-0">
      .ColorScheme-Text {
        color:#122036;
      }
      </style><linearGradient
       inkscape:collect="always"
       xlink:href="#linearGradient1"
       id="linearGradient2"
       x1="2.9697721"
       y1="5.3167286"
       x2="2.9104142"
       y2="1.673799"
       gradientUnits="userSpaceOnUse" /><style
       type="text/css"
       id="current-color-scheme-37">
      .ColorScheme-Text {
        color:#36404d;
      }
      </style><style
       type="text/css"
       id="current-color-scheme-67-5">
      .ColorScheme-Text {
        color:#122036;
      }
      </style><style
       type="text/css"
       id="current-color-scheme-7-92">
      .ColorScheme-Text {
        color:#122036;
      }
      </style><style
       type="text/css"
       id="current-color-scheme-5-2">
      .ColorScheme-Text {
        color:#122036;
      }
      </style><style
       type="text/css"
       id="current-color-scheme-6-8">
      .ColorScheme-Text {
        color:#122036;
      }
      </style><style
       type="text/css"
       id="current-color-scheme-1-9">
      .ColorScheme-Text {
        color:#122036;
      }
      </style><style
       id="current-color-scheme-10-7"
       type="text/css">
      .ColorScheme-Text {
        color:#122036;
      }
      </style><style
       id="current-color-scheme-5-7-36"
       type="text/css">
      .ColorScheme-Text {
        color:#122036;
      }
      </style><style
       id="current-color-scheme-1-2-1"
       type="text/css">
      .ColorScheme-Text {
        color:#122036;
      }
      </style><style
       type="text/css"
       id="current-color-scheme-10-9-2">
      .ColorScheme-Text {
        color:#122036;
      }
      </style><style
       id="current-color-scheme-53-9"
       type="text/css">
      .ColorScheme-Text {
        color:#122036;
      }
      </style><style
       id="current-color-scheme-6-5-3"
       type="text/css">
      .ColorScheme-Text {
        color:#122036;
      }
      </style><style
       type="text/css"
       id="current-color-scheme-9-1">
      .ColorScheme-Text {
        color:#36404d;
      }
      </style><style
       id="current-color-scheme-3-9"
       type="text/css">
      .ColorScheme-Text {
        color:#36404d;
      }
      </style><linearGradient
       inkscape:collect="always"
       xlink:href="#linearGradient5"
       id="linearGradient6"
       x1="4.4979143"
       y1="3.9688137"
       x2="4.4979143"
       y2="1.0583971"
       gradientUnits="userSpaceOnUse" /><linearGradient
       inkscape:collect="always"
       xlink:href="#linearGradient7"
       id="linearGradient8"
       x1="4.4913921"
       y1="1.852147"
       x2="4.4979143"
       y2="1.3229804"
       gradientUnits="userSpaceOnUse" /></defs><g
     inkscape:label="Capa 1"
     inkscape:groupmode="layer"
     id="layer1"><g
       id="g2"
       transform="matrix(3.7795276,0,0,3.7795276,-0.99999042,-1.000241)"><path
         id="rect1728"
         style="opacity:1;fill:#363c4d;fill-opacity:1;stroke-width:0.47625;stroke-linecap:round;stroke-linejoin:round;stroke-miterlimit:1.8;paint-order:fill markers stroke;stop-color:#000000"
         d="m 1.0054141,1.0583967 h 3.81 c 0.2638425,0 0.47625,0.2124074 0.47625,0.4762499 v 3.81 c 0,0.2638425 -0.2124075,0.47625 -0.47625,0.47625 h -3.81 c -0.2638425,0 -0.47624995,-0.2124075 -0.47624995,-0.47625 v -3.81 c 0,-0.2638425 0.21240745,-0.4762499 0.47624995,-0.4762499 z" /><path
         id="rect1728-7"
         style="fill:url(#linearGradient2);fill-opacity:1;stroke-width:0.470371;stroke-linecap:round;stroke-linejoin:round;stroke-miterlimit:1.8;paint-order:fill markers stroke;stop-color:#000000"
         d="m 1.0289326,1.3229804 h 3.762963 c 0.1302926,0 0.2351852,0.1048926 0.2351852,0.2351851 v 3.7629622 c 0,0.1302925 -0.1048926,0.2351851 -0.2351852,0.2351851 h -3.762963 c -0.1302926,0 -0.2351851,-0.1048926 -0.2351851,-0.2351851 V 1.5581655 c 0,-0.1302925 0.1048925,-0.2351851 0.2351851,-0.2351851 z" /><path
         id="rect1465-1-7"
         style="fill:#484f66;fill-opacity:1;stroke-width:0.529167;stroke-linecap:round;stroke-linejoin:round;stroke-miterlimit:1.8;paint-order:fill markers stroke;stop-color:#000000"
         d="m 1.9673424,2.0454171 c -0.3584694,0.00902 -0.6444051,0.3007374 -0.6444051,0.6614583 0,0.3664463 0.2950125,0.6614583 0.6614581,0.6614583 h 0.01705 0.379822 v 0.5291667 h -0.379822 -0.01705 c -0.3664456,0 -0.6614581,0.295012 -0.6614581,0.6614583 0,0.3607209 0.2859357,0.6524384 0.6444051,0.6614584 0.0057,1.43e-4 0.01135,0 0.01705,0 0.366449,0 0.661459,-0.2950119 0.661459,-0.6614584 0,-0.00573 1.43e-4,-0.011363 0,-0.017053 V 4.1620839 l 0.5291842,-6.36e-5 v 0.3798218 c -1.43e-4,0.00569 0,0.011323 0,0.017053 0,0.3664465 0.29501,0.6614584 0.661458,0.6614584 0.0057,0 0.01135,1.43e-4 0.01705,0 0.358471,-0.00902 0.644405,-0.3007375 0.644405,-0.6614584 0,-0.3664463 -0.295011,-0.6614583 -0.661458,-0.6614583 h -0.01705 -0.379822 V 3.3682701 h 0.379822 0.01705 c 0.366447,0 0.661458,-0.295012 0.661458,-0.6614583 0,-0.3607209 -0.285934,-0.6524386 -0.644405,-0.6614583 -0.0057,-1.43e-4 -0.01135,0 -0.01705,0 -0.366448,0 -0.661458,0.295012 -0.661458,0.6614583 0,0.00573 -1.43e-4,0.011363 0,0.017053 v 0.3798218 l -0.5291842,6.36e-5 V 2.7239284 c 1.43e-4,-0.00569 0,-0.011327 0,-0.017053 0,-0.3664463 -0.295011,-0.6614583 -0.661459,-0.6614583 -0.0057,0 -0.01136,-1.432e-4 -0.01705,0 z m 0.0067,0.2645833 c 0.0034,-8.59e-5 0.0069,0 0.01033,0 0.219869,0 0.396875,0.1770069 0.396875,0.396875 0,0.00344 8.6e-5,0.00692 0,0.010335 v 0.38654 h -0.386539 c -0.0034,8.59e-5 -0.0069,0 -0.01034,0 -0.2198673,0 -0.3968747,-0.1770069 -0.3968747,-0.396875 0,-0.2164327 0.1714577,-0.3914622 0.3865397,-0.396875 z m 1.8521012,-6.36e-5 c 0.0034,-8.59e-5 0.0069,0 0.01033,0 0.0034,0 0.0069,-8.59e-5 0.01033,0 0.21511,0.00541 0.386568,0.1804423 0.386568,0.396875 0,0.2198681 -0.177007,0.396875 -0.396875,0.396875 -0.0034,0 -0.0069,8.59e-5 -0.01033,0 H 3.4396216 V 2.7171471 c 0,-0.00341 0,-0.0069 0,-0.010335 0,-0.2164327 0.171457,-0.3914622 0.38654,-0.396875 z m -1.1803072,1.0583969 0.5291842,-6.36e-5 v 0.5291667 l -0.5291842,6.36e-5 z m -0.671794,0.79375 c -0.00339,2.543e-4 0.0069,0 0.01033,0 0.0034,0 0.0069,-8.59e-5 0.01034,0 h 0.386539 v 0.3865397 c 0,0.00341 0,0.0069 0,0.010335 0,0.2198681 -0.177006,0.396875 -0.396875,0.396875 -0.0034,0 -0.0069,8.59e-5 -0.01033,0 -0.2150818,-0.00541 -0.3865397,-0.1804423 -0.3865397,-0.396875 0,-0.2164325 0.1714582,-0.3914622 0.3865397,-0.396875 z m 1.4655612,-6.36e-5 h 0.38654 c 0.0034,0 0.0069,0 0.01033,0 0.219868,0 0.396875,0.1770071 0.396875,0.396875 0,0.2164327 -0.171458,0.391465 -0.38654,0.396875 -0.0034,8.59e-5 -0.0069,0 -0.01033,0 -0.219869,0 -0.396875,-0.1770069 -0.396875,-0.396875 0,-0.00344 -8.6e-5,-0.00693 0,-0.010335 z"
         sodipodi:nodetypes="sssccccsssssccccsscssccccsssssccccsssssscccssssccsscccssccsccsssccsscssccsssssccscs" /><path
         id="rect1465-1"
         style="fill:#ffffff;fill-opacity:1;stroke-width:0.529167;stroke-linecap:round;stroke-linejoin:round;stroke-miterlimit:1.8;paint-order:fill markers stroke;stop-color:#000000"
         d="m 1.9673218,1.8521465 c -0.3584694,0.00902 -0.6444051,0.3007374 -0.6444051,0.6614583 0,0.3664463 0.2950125,0.6614583 0.6614581,0.6614583 h 0.01705 0.379822 v 0.5291667 h -0.379822 -0.01705 c -0.3664456,0 -0.6614581,0.295012 -0.6614581,0.6614583 0,0.3607209 0.2859357,0.6524384 0.6444051,0.6614584 0.0057,1.43e-4 0.01135,0 0.01705,0 0.366449,0 0.661459,-0.2950119 0.661459,-0.6614584 0,-0.00573 1.43e-4,-0.011363 0,-0.017053 V 3.9688133 l 0.5291842,-6.36e-5 v 0.3798218 c -1.43e-4,0.00569 0,0.011323 0,0.017053 0,0.3664465 0.29501,0.6614584 0.661458,0.6614584 0.0057,0 0.01135,1.43e-4 0.01705,0 0.358471,-0.00902 0.644405,-0.3007375 0.644405,-0.6614584 0,-0.3664463 -0.295011,-0.6614583 -0.661458,-0.6614583 H 3.81942 3.439598 V 3.1749995 H 3.81942 3.83647 c 0.366447,0 0.661458,-0.295012 0.661458,-0.6614583 0,-0.3607209 -0.285934,-0.6524386 -0.644405,-0.6614583 -0.0057,-1.43e-4 -0.01135,0 -0.01705,0 -0.366448,0 -0.661458,0.295012 -0.661458,0.6614583 0,0.00573 -1.43e-4,0.011363 0,0.017053 V 2.910416 l -0.5291842,6.36e-5 V 2.5306578 c 1.43e-4,-0.00569 0,-0.011327 0,-0.017053 0,-0.3664463 -0.295011,-0.6614583 -0.661459,-0.6614583 -0.0057,0 -0.01136,-1.432e-4 -0.01705,0 z m 0.0067,0.2645833 c 0.0034,-8.59e-5 0.0069,0 0.01033,0 0.219869,0 0.396875,0.1770069 0.396875,0.396875 0,0.00344 8.6e-5,0.00692 0,0.010335 v 0.38654 h -0.386539 c -0.0034,8.59e-5 -0.0069,0 -0.01034,0 -0.2198673,0 -0.3968747,-0.1770069 -0.3968747,-0.396875 0,-0.2164327 0.1714577,-0.3914622 0.3865397,-0.396875 z m 1.8521012,-6.36e-5 c 0.0034,-8.59e-5 0.0069,0 0.01033,0 0.0034,0 0.0069,-8.59e-5 0.01033,0 0.21511,0.00541 0.386568,0.1804423 0.386568,0.396875 0,0.2198681 -0.177007,0.396875 -0.396875,0.396875 -0.0034,0 -0.0069,8.59e-5 -0.01033,0 H 3.439601 V 2.5238765 c 0,-0.00341 0,-0.0069 0,-0.010335 0,-0.2164327 0.171457,-0.3914622 0.38654,-0.396875 z M 2.6458158,3.1750631 3.175,3.1749995 v 0.5291667 l -0.5291842,6.36e-5 z m -0.671794,0.79375 c -0.00339,2.543e-4 0.0069,0 0.01033,0 0.0034,0 0.0069,-8.59e-5 0.01034,0 h 0.386539 v 0.3865397 c 0,0.00341 0,0.0069 0,0.010335 0,0.2198681 -0.177006,0.396875 -0.396875,0.396875 -0.0034,0 -0.0069,8.59e-5 -0.01033,0 -0.2150818,-0.00541 -0.3865397,-0.1804423 -0.3865397,-0.396875 0,-0.2164325 0.1714582,-0.3914622 0.3865397,-0.396875 z m 1.4655612,-6.36e-5 h 0.38654 c 0.0034,0 0.0069,0 0.01033,0 0.219868,0 0.396875,0.1770071 0.396875,0.396875 0,0.2164327 -0.171458,0.391465 -0.38654,0.396875 -0.0034,8.59e-5 -0.0069,0 -0.01033,0 -0.219869,0 -0.396875,-0.1770069 -0.396875,-0.396875 0,-0.00344 -8.6e-5,-0.00693 0,-0.010335 z"
         sodipodi:nodetypes="sssccccsssssccccsscssccccsssssccccsssssscccssssccsscccssccsccsssccsscssccsssssccscs" /><path
         id="rect2"
         style="fill:#90a4ae;stroke-width:0.529167;stroke-linecap:round;stroke-linejoin:round;paint-order:stroke fill markers;fill-opacity:1"
         d="m 4.4979141,0.52923042 c 0.7328959,0 1.3229167,0.59002088 1.3229167,1.32291678 v 1.3229165 c 0,0.7328958 -0.5900208,1.3229167 -1.3229167,1.3229167 -0.7328959,0 -1.3229168,-0.5900209 -1.3229168,-1.3229167 V 1.8521472 c 0,-0.7328959 0.5900209,-1.32291678 1.3229168,-1.32291678 z" /><path
         id="rect5"
         style="fill:url(#linearGradient6);stroke-width:0.529167;stroke-linecap:round;stroke-linejoin:round;paint-order:stroke fill markers"
         d="m 4.497914,0.79381377 c 0.5863166,0 1.0583332,0.47201663 1.0583332,1.05833323 v 1.3229168 c 0,0.5863166 -0.4720166,1.0583333 -1.0583332,1.0583333 -0.5863167,0 -1.0583333,-0.4720167 -1.0583333,-1.0583333 V 1.852147 c 0,-0.5863166 0.4720166,-1.05833323 1.0583333,-1.05833323 z" /><path
         id="rect4"
         style="fill:url(#linearGradient8);stroke-width:0.429425;stroke-linecap:round;stroke-linejoin:round;paint-order:stroke fill markers"
         d="m 4.4913923,1.3229804 c 0.1465792,0 0.2645834,0.1180042 0.2645834,0.2645833 0,0.1465792 -0.1180042,0.2645833 -0.2645834,0.2645833 -0.1465791,0 -0.2645833,-0.1180041 -0.2645833,-0.2645833 0,-0.1465791 0.1180042,-0.2645833 0.2645833,-0.2645833 z" /></g></g></svg>
