<?xml version="1.0" encoding="UTF-8" standalone="no"?>
<!-- Created with Inkscape (http://www.inkscape.org/) -->

<svg
   width="22"
   height="22"
   viewBox="0 0 22 22"
   version="1.1"
   id="svg5"
   inkscape:version="1.3.2 (091e20ef0f, 2023-11-25, custom)"
   sodipodi:docname="preferences-desktop-default-applications.svg"
   xml:space="preserve"
   xmlns:inkscape="http://www.inkscape.org/namespaces/inkscape"
   xmlns:sodipodi="http://sodipodi.sourceforge.net/DTD/sodipodi-0.dtd"
   xmlns:xlink="http://www.w3.org/1999/xlink"
   xmlns="http://www.w3.org/2000/svg"
   xmlns:svg="http://www.w3.org/2000/svg"><sodipodi:namedview
     id="namedview7"
     pagecolor="#ffffff"
     bordercolor="#000000"
     borderopacity="0.25"
     inkscape:showpageshadow="false"
     inkscape:pageopacity="0.0"
     inkscape:pagecheckerboard="0"
     inkscape:deskcolor="#d1d1d1"
     inkscape:document-units="px"
     showgrid="true"
     inkscape:zoom="4.7572178"
     inkscape:cx="-1.1561379"
     inkscape:cy="19.969655"
     inkscape:window-width="2560"
     inkscape:window-height="1356"
     inkscape:window-x="0"
     inkscape:window-y="0"
     inkscape:window-maximized="1"
     inkscape:current-layer="layer1"><inkscape:grid
       type="xygrid"
       id="grid3636"
       originx="0"
       originy="0"
       spacingy="1"
       spacingx="1"
       units="px"
       visible="true" /></sodipodi:namedview><defs
     id="defs2"><style
       type="text/css"
       id="current-color-scheme">
      .ColorScheme-Text {
        color:#36404d;
      }
      </style><style
       type="text/css"
       id="current-color-scheme-67">
      .ColorScheme-Text {
        color:#122036;
      }
      </style><style
       type="text/css"
       id="current-color-scheme-7">
      .ColorScheme-Text {
        color:#122036;
      }
      </style><style
       type="text/css"
       id="current-color-scheme-5">
      .ColorScheme-Text {
        color:#122036;
      }
      </style><style
       type="text/css"
       id="current-color-scheme-6">
      .ColorScheme-Text {
        color:#122036;
      }
      </style><style
       type="text/css"
       id="current-color-scheme-1">
      .ColorScheme-Text {
        color:#122036;
      }
      </style><style
       id="current-color-scheme-10"
       type="text/css">
      .ColorScheme-Text {
        color:#122036;
      }
      </style><style
       id="current-color-scheme-5-7"
       type="text/css">
      .ColorScheme-Text {
        color:#122036;
      }
      </style><style
       id="current-color-scheme-1-2"
       type="text/css">
      .ColorScheme-Text {
        color:#122036;
      }
      </style><style
       type="text/css"
       id="current-color-scheme-10-9">
      .ColorScheme-Text {
        color:#122036;
      }
      </style><style
       type="text/css"
       id="current-color-scheme-675">
      .ColorScheme-Text {
        color:#122036;
      }
      </style><style
       type="text/css"
       id="current-color-scheme-7-3">
      .ColorScheme-Text {
        color:#122036;
      }
      </style><style
       type="text/css"
       id="current-color-scheme-5-5">
      .ColorScheme-Text {
        color:#122036;
      }
      </style><linearGradient
       inkscape:collect="always"
       xlink:href="#linearGradient4111"
       id="linearGradient4113"
       x1="3.175"
       y1="5.0270834"
       x2="3.175"
       y2="1.0583333"
       gradientUnits="userSpaceOnUse" /><linearGradient
       inkscape:collect="always"
       id="linearGradient4111"><stop
         style="stop-color:#c9d4d5;stop-opacity:1;"
         offset="0"
         id="stop4107" /><stop
         style="stop-color:#f2f4f5;stop-opacity:1;"
         offset="1"
         id="stop4109" /></linearGradient><linearGradient
       inkscape:collect="always"
       xlink:href="#linearGradient3333"
       id="linearGradient3335"
       x1="3.175"
       y1="5.0270834"
       x2="3.175"
       y2="1.3229166"
       gradientUnits="userSpaceOnUse"
       gradientTransform="matrix(1.125,0,0,1.125,-0.39687499,-0.39687499)" /><linearGradient
       inkscape:collect="always"
       id="linearGradient3333"><stop
         style="stop-color:#5e6a73;stop-opacity:1;"
         offset="0"
         id="stop3329" /><stop
         style="stop-color:#475057;stop-opacity:1;"
         offset="1"
         id="stop3331" /></linearGradient><linearGradient
       inkscape:collect="always"
       xlink:href="#linearGradient4533"
       id="linearGradient4535"
       x1="1.0583333"
       y1="3.96875"
       x2="1.0583333"
       y2="2.6458333"
       gradientUnits="userSpaceOnUse"
       gradientTransform="matrix(2.6666665,0,0,2.6666665,0.35277783,-5.2916663)" /><linearGradient
       inkscape:collect="always"
       id="linearGradient4533"><stop
         style="stop-color:#475057;stop-opacity:1;"
         offset="0"
         id="stop4529" /><stop
         style="stop-color:#5e6a73;stop-opacity:1;"
         offset="1"
         id="stop4531" /></linearGradient><linearGradient
       inkscape:collect="always"
       xlink:href="#linearGradient6614"
       id="linearGradient6616"
       x1="3.175"
       y1="4.4979167"
       x2="3.175"
       y2="1.8520833"
       gradientUnits="userSpaceOnUse" /><linearGradient
       inkscape:collect="always"
       id="linearGradient6614"><stop
         style="stop-color:#c8d3d4;stop-opacity:1;"
         offset="0"
         id="stop6610" /><stop
         style="stop-color:#f3f5f6;stop-opacity:1;"
         offset="1"
         id="stop6612" /></linearGradient><linearGradient
       inkscape:collect="always"
       xlink:href="#linearGradient7174"
       id="linearGradient7176"
       x1="3.175"
       y1="3.96875"
       x2="3.175"
       y2="2.3812499"
       gradientUnits="userSpaceOnUse" /><linearGradient
       inkscape:collect="always"
       id="linearGradient7174"><stop
         style="stop-color:#f3f5f6;stop-opacity:1;"
         offset="0"
         id="stop7170" /><stop
         style="stop-color:#c8d3d4;stop-opacity:1;"
         offset="1"
         id="stop7172" /></linearGradient></defs><g
     inkscape:label="Capa 1"
     inkscape:groupmode="layer"
     id="layer1"><g
       id="g2"
       transform="matrix(3.7795276,0,0,3.7795276,-0.99999964,-0.99999964)"><path
         id="rect1728"
         style="opacity:1;fill:#90a4ae;stroke-width:0.529167;stroke-linecap:round;stroke-linejoin:round;stroke-miterlimit:1.8;paint-order:fill markers stroke;stop-color:#000000"
         d="m 1.0583333,0.52916664 h 4.2333332 c 0.2931583,0 0.5291666,0.23600832 0.5291666,0.52916666 v 4.2333332 c 0,0.2931583 -0.2360083,0.5291666 -0.5291666,0.5291666 H 1.0583333 c -0.29315834,0 -0.52916666,-0.2360083 -0.52916666,-0.5291666 V 1.0583333 c 0,-0.29315834 0.23600832,-0.52916666 0.52916666,-0.52916666 z" /><path
         id="rect1728-7"
         style="fill:url(#linearGradient4113);stroke-width:0.529167;stroke-linecap:round;stroke-linejoin:round;stroke-miterlimit:1.8;paint-order:fill markers stroke;stop-color:#000000"
         d="m 1.0583333,0.79374999 c -0.14657898,0 -0.26458331,0.11800433 -0.26458331,0.26458331 v 4.2333333 c 0,0.146579 0.11800433,0.2645834 0.26458331,0.2645834 H 5.2916666 C 5.4382457,5.55625 5.55625,5.4382456 5.55625,5.2916666 V 1.0583333 c 0,-0.14657898 -0.1180043,-0.26458331 -0.2645834,-0.26458331 z"
         sodipodi:nodetypes="sssssssss" /><path
         id="rect2556-5"
         style="fill:url(#linearGradient3335);fill-opacity:1;stroke-width:1.19062;stroke-linecap:round;stroke-linejoin:round;stroke-miterlimit:1.8;paint-order:fill markers stroke;stop-color:#000000"
         d="m 3.1750001,0.79374997 c 1.3192124,0 2.3812499,1.06203743 2.3812499,2.38125013 0,1.3192124 -1.0620375,2.3812499 -2.3812499,2.3812499 -1.3192126,0 -2.38125013,-1.0620375 -2.38125013,-2.3812499 0,-1.3192127 1.06203753,-2.38125012 2.38125013,-2.38125013 z" /><path
         id="rect2556-5-5"
         style="fill:url(#linearGradient4535);stroke-width:1.05833;stroke-linecap:round;stroke-linejoin:round;stroke-miterlimit:1.8;paint-order:fill markers stroke;stop-color:#000000"
         d="m 3.1749999,1.0583333 c 1.1726333,0 2.1166667,0.9440334 2.1166667,2.1166666 0,1.1726333 -0.9440334,2.1166667 -2.1166667,2.1166667 -1.1726332,0 -2.1166666,-0.9440334 -2.1166666,-2.1166667 0,-1.1726332 0.9440334,-2.1166666 2.1166666,-2.1166666 z" /><path
         id="path6374"
         style="color:#000000;fill:url(#linearGradient6616);fill-opacity:1;stroke-linecap:round;stroke-linejoin:round;stroke-miterlimit:1.8;paint-order:fill markers stroke"
         d="M 2.38125,1.5875 C 2.2883351,1.5877109 2.2020413,1.6364081 2.1543904,1.7161743 L 1.3596069,3.0385742 c -0.04996,0.083599 -0.04996,0.1882188 0,0.271818 l 0.7947835,1.3239502 c 0.048132,0.079017 0.1343376,0.1273259 0.2268596,0.127124 h 1.5875 c 0.092522,2.019e-4 0.1787273,-0.048107 0.2268595,-0.127124 L 4.988326,3.3103922 c 0.04996,-0.083599 0.04996,-0.1882188 0,-0.271818 L 4.1956095,1.7161743 C 4.1479587,1.6364081 4.061665,1.5877109 3.96875,1.5875 Z m 0.7797973,1.0583333 c 0.00455,-1.145e-4 0.00937,0 0.013953,0 0.293158,0 0.5291666,0.2360087 0.5291666,0.5291667 0,0.293158 -0.2360086,0.5291666 -0.5291666,0.5291666 -0.293158,0 -0.5291667,-0.2360086 -0.5291667,-0.5291666 0,-0.2885775 0.2284376,-0.5219497 0.5152137,-0.5291667 z" /><path
         id="rect6460-7"
         style="fill:url(#linearGradient7176);fill-opacity:1;stroke:none;stroke-width:0.352778;stroke-linecap:round;stroke-linejoin:round;stroke-miterlimit:1.8;stroke-dasharray:none;stroke-opacity:1;paint-order:fill markers stroke;stop-color:#000000"
         d="M 3.1543294,2.38125 C 2.7241647,2.3920755 2.38125,2.7421338 2.38125,3.175 c 0,0.4397371 0.3540129,0.79375 0.79375,0.79375 0.4397371,0 0.79375,-0.3540129 0.79375,-0.79375 0,-0.4397371 -0.3540129,-0.79375 -0.79375,-0.79375 -0.00687,0 -0.013843,-1.719e-4 -0.020671,0 z m 0.00672,0.2645833 c 0.00455,-1.145e-4 0.00937,0 0.013953,0 0.293158,0 0.5291666,0.2360087 0.5291666,0.5291667 0,0.293158 -0.2360086,0.5291666 -0.5291666,0.5291666 -0.293158,0 -0.5291667,-0.2360086 -0.5291667,-0.5291666 0,-0.2885775 0.2284376,-0.5219497 0.5152137,-0.5291667 z" /></g></g></svg>
