<?xml version="1.0" encoding="UTF-8" standalone="no"?>
<!-- Created with Inkscape (http://www.inkscape.org/) -->

<svg
   width="22"
   height="22"
   viewBox="0 0 22 22"
   version="1.1"
   id="svg5"
   inkscape:version="1.3.2 (091e20ef0f, 2023-11-25, custom)"
   sodipodi:docname="preferences-system-network-remote.svg"
   xml:space="preserve"
   xmlns:inkscape="http://www.inkscape.org/namespaces/inkscape"
   xmlns:sodipodi="http://sodipodi.sourceforge.net/DTD/sodipodi-0.dtd"
   xmlns:xlink="http://www.w3.org/1999/xlink"
   xmlns="http://www.w3.org/2000/svg"
   xmlns:svg="http://www.w3.org/2000/svg"><sodipodi:namedview
     id="namedview7"
     pagecolor="#ffffff"
     bordercolor="#000000"
     borderopacity="0.25"
     inkscape:showpageshadow="false"
     inkscape:pageopacity="0.0"
     inkscape:pagecheckerboard="0"
     inkscape:deskcolor="#d1d1d1"
     inkscape:document-units="px"
     showgrid="true"
     inkscape:zoom="9.5144357"
     inkscape:cx="30.322345"
     inkscape:cy="25.435034"
     inkscape:window-width="2560"
     inkscape:window-height="1356"
     inkscape:window-x="0"
     inkscape:window-y="0"
     inkscape:window-maximized="1"
     inkscape:current-layer="g2"><inkscape:grid
       type="xygrid"
       id="grid271"
       originx="0"
       originy="0"
       spacingy="1"
       spacingx="1"
       units="px"
       visible="true" /></sodipodi:namedview><defs
     id="defs2"><linearGradient
       id="linearGradient5"
       inkscape:collect="always"><stop
         style="stop-color:#d0e4e4;stop-opacity:1;"
         offset="0"
         id="stop5" /><stop
         style="stop-color:#fafbfb;stop-opacity:1;"
         offset="1"
         id="stop6" /></linearGradient><linearGradient
       id="linearGradient3"
       inkscape:collect="always"><stop
         style="stop-color:#fafafa;stop-opacity:1;"
         offset="0"
         id="stop3" /><stop
         style="stop-color:#e4e4e4;stop-opacity:1;"
         offset="1"
         id="stop4" /></linearGradient><linearGradient
       id="linearGradient1"
       inkscape:collect="always"><stop
         style="stop-color:#2799f5;stop-opacity:1;"
         offset="0"
         id="stop1" /><stop
         style="stop-color:#0e73ec;stop-opacity:1;"
         offset="1"
         id="stop2" /></linearGradient><style
       id="current-color-scheme"
       type="text/css">
      .ColorScheme-Text {
        color:#122036;
      }
      </style><style
       id="current-color-scheme-6"
       type="text/css">
      .ColorScheme-Text {
        color:#122036;
      }
      </style><linearGradient
       inkscape:collect="always"
       xlink:href="#linearGradient1"
       id="linearGradient2"
       x1="1.5874999"
       y1="4.2333331"
       x2="1.6004739"
       y2="1.1650242"
       gradientUnits="userSpaceOnUse" /><linearGradient
       inkscape:collect="always"
       xlink:href="#linearGradient3"
       id="linearGradient4"
       x1="2.9104166"
       y1="5.5562496"
       x2="2.9529324"
       y2="4.7978625"
       gradientUnits="userSpaceOnUse" /><linearGradient
       inkscape:collect="always"
       xlink:href="#linearGradient5"
       id="linearGradient6"
       x1="14.610551"
       y1="8.5591259"
       x2="14.610551"
       y2="6.177876"
       gradientUnits="userSpaceOnUse" /></defs><g
     inkscape:label="Capa 1"
     inkscape:groupmode="layer"
     id="layer1"><g
       id="g2"
       transform="matrix(3.7795276,0,0,3.7795276,-0.99999971,-0.99999962)"><path
         id="rect1475"
         style="opacity:1;fill:#73818c;fill-opacity:1;stroke-width:0.529167;stroke-linecap:round;stroke-linejoin:round;stroke-miterlimit:1.8;paint-order:fill markers stroke;stop-color:#000000"
         d="M 2.6458333,4.7625 V 5.55625 H 2.1166666 V 5.8208333 H 2.6458333 3.7041666 4.2333333 V 5.55625 H 3.7041666 V 4.7625 Z" /><path
         id="rect1345"
         style="opacity:1;fill:#040405;fill-opacity:1;stroke-width:0.529167;stroke-linecap:round;stroke-linejoin:round;stroke-miterlimit:1.8;paint-order:fill markers stroke;stop-color:#000000"
         d="m 0.52916663,0.52916643 5.29166657,2.3e-7 c 0.1465792,10e-9 0.2645833,0.11800417 0.2645833,0.26458335 V 4.4979164 c 0,0.1465792 -0.1180041,0.2645833 -0.2645833,0.2645833 l -5.29166657,-2e-7 c -0.14657918,0 -0.26458335,-0.1180041 -0.26458335,-0.2645833 V 0.79374978 c 0,-0.14657918 0.11800417,-0.26458336 0.26458335,-0.26458335 z"
         sodipodi:nodetypes="sssssssss" /><path
         id="rect1345-7"
         style="fill:url(#linearGradient2);fill-opacity:1;stroke-width:0.529167;stroke-linecap:round;stroke-linejoin:round;stroke-miterlimit:1.8;paint-order:fill markers stroke;stop-color:#000000"
         d="M 0.79374999,1.0583333 H 5.55625 v 3.175 H 0.79374999 Z"
         sodipodi:nodetypes="ccccc" /><path
         id="rect1480"
         style="opacity:1;fill:url(#linearGradient4);fill-opacity:1;stroke-width:0.529167;stroke-linecap:round;stroke-linejoin:round;stroke-miterlimit:1.8;paint-order:fill markers stroke;stop-color:#000000"
         d="m 2.9104166,4.7624998 h 0.5291666 v 0.79375 H 2.9104166 Z" /><path
         id="rect6259-6"
         style="fill:#005ac8;fill-opacity:1;stroke-width:0.529167;stroke-linecap:round;stroke-linejoin:round;stroke-miterlimit:1.8;paint-order:fill markers stroke;stop-color:#000000"
         d="m 3.1610472,1.5874999 c -0.2867765,0.00722 -0.5152141,0.2405892 -0.5152141,0.5291667 0,0.2862906 0.2249163,0.5184641 0.5084961,0.5291666 -0.4301642,0.010826 -0.7730794,0.3608842 -0.7730794,0.79375 h 1.5875 c 0,-0.4328658 -0.3429152,-0.7829244 -0.7730794,-0.79375 0.2835798,-0.010702 0.5084961,-0.242876 0.5084961,-0.5291666 0,-0.2931581 -0.2360087,-0.5291667 -0.5291667,-0.5291667 -0.00458,0 -0.0094,-1.145e-4 -0.013953,0 z" /><path
         id="rect6259"
         style="fill:#edfaff;fill-opacity:1;stroke-width:0.529167;stroke-linecap:round;stroke-linejoin:round;stroke-miterlimit:1.8;paint-order:fill markers stroke;stop-color:#000000"
         d="m 3.1610473,1.3229166 c -0.2867765,0.00722 -0.5152141,0.2405892 -0.5152141,0.5291667 0,0.2862906 0.2249163,0.5184641 0.5084961,0.5291666 -0.4301642,0.010826 -0.7730794,0.3608842 -0.7730794,0.79375 h 1.5875 c 0,-0.4328658 -0.3429152,-0.7829244 -0.7730794,-0.79375 0.2835798,-0.010702 0.5084961,-0.242876 0.5084961,-0.5291666 0,-0.2931581 -0.2360087,-0.5291667 -0.5291667,-0.5291667 -0.00458,0 -0.0094,-1.145e-4 -0.013953,0 z" /><rect
         style="fill:#005ac8;fill-opacity:1;stroke-width:0.529167;stroke-linecap:round;stroke-linejoin:round;paint-order:stroke fill markers"
         id="rect1-7"
         width="3.7041667"
         height="0.52916658"
         x="1.3229166"
         y="3.7041664" /><rect
         style="fill:#edfaff;fill-opacity:1;stroke-width:0.529167;stroke-linecap:round;stroke-linejoin:round;paint-order:stroke fill markers"
         id="rect1"
         width="3.7041667"
         height="0.52916658"
         x="1.3229166"
         y="3.4395833" /><g
         id="g2-0"
         transform="translate(-10.377218,-2.738293)"><path
           id="rect6677"
           style="opacity:1;fill:#90a4ae;fill-opacity:1;stroke-width:0.529167;stroke-linecap:round;stroke-linejoin:round;stroke-miterlimit:1.8;paint-order:fill markers stroke;stop-color:#000000"
           d="m 13.816801,5.9132929 2.38125,-1e-7 c 0.146579,0 0.264583,0.1180042 0.264583,0.2645833 v 2.38125 c 0,0.1465792 -0.118004,0.2645834 -0.264583,0.2645834 l -2.38125,1e-7 c -0.146579,0 -0.264583,-0.1180042 -0.264583,-0.2645834 v -2.38125 c 0,-0.1465791 0.118004,-0.2645833 0.264583,-0.2645833 z"
           sodipodi:nodetypes="sssssssss" /><path
           id="rect6830"
           style="opacity:1;fill:url(#linearGradient6);fill-opacity:1;stroke-width:0.529167;stroke-linecap:round;stroke-linejoin:round;stroke-miterlimit:1.8;paint-order:fill markers stroke;stop-color:#000000"
           d="m 13.816801,6.1778763 2.38125,-1e-7 v 2.3812499 l -2.38125,10e-8 z"
           sodipodi:nodetypes="ccccc" /><path
           id="rect7325"
           style="opacity:1;fill:#171a20;fill-opacity:1;stroke-width:0.529167;stroke-linecap:round;stroke-linejoin:round;stroke-miterlimit:1.8;paint-order:fill markers stroke;stop-color:#000000"
           d="m 14.081384,6.4424595 h 1.852084 v 1.5875 h -0.529167 v 0.2645834 h -0.79375 V 8.0299595 h -0.529167 z"
           sodipodi:nodetypes="ccccccccc" /><path
           id="rect7424"
           style="opacity:1;fill:#ffd200;fill-opacity:1;stroke-width:0.529167;stroke-linecap:round;stroke-linejoin:round;stroke-miterlimit:1.8;paint-order:fill markers stroke;stop-color:#000000"
           d="m 14.345968,6.7070429 v 0.5291666 h 0.264583 V 6.7070429 Z m 0.529166,0 v 0.5291666 h 0.264584 V 6.7070429 Z m 0.529167,0 v 0.5291666 h 0.264583 V 6.7070429 Z" /></g></g></g></svg>
