<?xml version="1.0" encoding="UTF-8" standalone="no"?>
<!-- Created with Inkscape (http://www.inkscape.org/) -->

<svg
   width="22"
   height="22"
   viewBox="0 0 22 22"
   version="1.1"
   id="svg5"
   inkscape:version="1.3.2 (091e20ef0f, 2023-11-25, custom)"
   sodipodi:docname="preferences-desktop-emoticons.svg"
   xml:space="preserve"
   xmlns:inkscape="http://www.inkscape.org/namespaces/inkscape"
   xmlns:sodipodi="http://sodipodi.sourceforge.net/DTD/sodipodi-0.dtd"
   xmlns:xlink="http://www.w3.org/1999/xlink"
   xmlns="http://www.w3.org/2000/svg"
   xmlns:svg="http://www.w3.org/2000/svg"><sodipodi:namedview
     id="namedview7"
     pagecolor="#ffffff"
     bordercolor="#000000"
     borderopacity="0.25"
     inkscape:showpageshadow="false"
     inkscape:pageopacity="0.0"
     inkscape:pagecheckerboard="0"
     inkscape:deskcolor="#d1d1d1"
     inkscape:document-units="px"
     showgrid="true"
     inkscape:zoom="26.910889"
     inkscape:cx="15.458427"
     inkscape:cy="15.699964"
     inkscape:window-width="1469"
     inkscape:window-height="1243"
     inkscape:window-x="0"
     inkscape:window-y="0"
     inkscape:window-maximized="0"
     inkscape:current-layer="layer1"><inkscape:grid
       type="xygrid"
       id="grid3636"
       originx="0"
       originy="0"
       spacingy="1"
       spacingx="1"
       units="px"
       visible="true" /></sodipodi:namedview><defs
     id="defs2"><style
       type="text/css"
       id="current-color-scheme">
      .ColorScheme-Text {
        color:#36404d;
      }
      </style><style
       type="text/css"
       id="current-color-scheme-67">
      .ColorScheme-Text {
        color:#122036;
      }
      </style><style
       type="text/css"
       id="current-color-scheme-7">
      .ColorScheme-Text {
        color:#122036;
      }
      </style><style
       type="text/css"
       id="current-color-scheme-5">
      .ColorScheme-Text {
        color:#122036;
      }
      </style><style
       type="text/css"
       id="current-color-scheme-6">
      .ColorScheme-Text {
        color:#122036;
      }
      </style><style
       type="text/css"
       id="current-color-scheme-1">
      .ColorScheme-Text {
        color:#122036;
      }
      </style><style
       id="current-color-scheme-10"
       type="text/css">
      .ColorScheme-Text {
        color:#122036;
      }
      </style><style
       id="current-color-scheme-5-7"
       type="text/css">
      .ColorScheme-Text {
        color:#122036;
      }
      </style><style
       id="current-color-scheme-1-2"
       type="text/css">
      .ColorScheme-Text {
        color:#122036;
      }
      </style><style
       type="text/css"
       id="current-color-scheme-10-9">
      .ColorScheme-Text {
        color:#122036;
      }
      </style><style
       type="text/css"
       id="current-color-scheme-2">
      .ColorScheme-Text {
        color:#36404d;
      }
      </style><style
       type="text/css"
       id="current-color-scheme-67-9">
      .ColorScheme-Text {
        color:#122036;
      }
      </style><style
       type="text/css"
       id="current-color-scheme-7-1">
      .ColorScheme-Text {
        color:#122036;
      }
      </style><style
       type="text/css"
       id="current-color-scheme-5-2">
      .ColorScheme-Text {
        color:#122036;
      }
      </style><style
       type="text/css"
       id="current-color-scheme-6-7">
      .ColorScheme-Text {
        color:#122036;
      }
      </style><style
       type="text/css"
       id="current-color-scheme-1-0">
      .ColorScheme-Text {
        color:#122036;
      }
      </style><style
       id="current-color-scheme-10-93"
       type="text/css">
      .ColorScheme-Text {
        color:#122036;
      }
      </style><style
       id="current-color-scheme-5-7-6"
       type="text/css">
      .ColorScheme-Text {
        color:#122036;
      }
      </style><style
       id="current-color-scheme-1-2-0"
       type="text/css">
      .ColorScheme-Text {
        color:#122036;
      }
      </style><style
       type="text/css"
       id="current-color-scheme-10-9-6">
      .ColorScheme-Text {
        color:#122036;
      }
      </style><linearGradient
       id="b"
       gradientTransform="matrix(0.64285644,0,0,0.64285644,-246.50993,-330.86975)"
       gradientUnits="userSpaceOnUse"
       x2="0"
       y1="545.79797"
       y2="517.79797"><stop
         offset="0"
         stop-color="#fdc95f"
         id="stop4327" /><stop
         offset="1"
         stop-color="#fdd583"
         id="stop4329" /></linearGradient><linearGradient
       id="c"
       gradientUnits="userSpaceOnUse"
       x1="11"
       x2="11"
       xlink:href="#a"
       y1="11"
       y2="7" /><linearGradient
       id="a"><stop
         offset="0"
         stop-color="#814b13"
         id="stop4322" /><stop
         offset="1"
         stop-color="#9d5b17"
         id="stop4324" /></linearGradient><linearGradient
       id="d"
       gradientUnits="userSpaceOnUse"
       x1="11"
       x2="11"
       xlink:href="#a"
       y1="16"
       y2="13" /><linearGradient
       inkscape:collect="always"
       xlink:href="#linearGradient16188"
       id="linearGradient16190"
       x1="-0.79374999"
       y1="5.8208332"
       x2="-0.79374999"
       y2="1.5875"
       gradientUnits="userSpaceOnUse"
       gradientTransform="translate(3.96875,-0.52916651)" /><linearGradient
       inkscape:collect="always"
       id="linearGradient16188"><stop
         style="stop-color:#ffce00;stop-opacity:1;"
         offset="0"
         id="stop16184" /><stop
         style="stop-color:#ffe100;stop-opacity:1;"
         offset="1"
         id="stop16186" /></linearGradient></defs><g
     inkscape:label="Capa 1"
     inkscape:groupmode="layer"
     id="layer1"><g
       id="g2"
       transform="matrix(3.7795276,0,0,3.7795276,-0.99999964,-0.99999964)"><path
         id="rect15701"
         style="opacity:1;fill:#ff9600;fill-opacity:0.960784;stroke-width:0.529167;stroke-linecap:round;stroke-linejoin:round;stroke-miterlimit:1.8;paint-order:fill markers stroke;stop-color:#000000"
         d="m 3.1749999,0.52916664 c 1.4657916,0 2.6458332,1.18004166 2.6458332,2.64583326 0,1.4657916 -1.1800416,2.6458332 -2.6458332,2.6458332 -1.4657916,0 -2.64583326,-1.1800416 -2.64583326,-2.6458332 0,-1.4657916 1.18004166,-2.64583326 2.64583326,-2.64583326 z" /><path
         id="rect15701-2"
         style="fill:url(#linearGradient16190);stroke-width:0.47625;stroke-linecap:round;stroke-linejoin:round;stroke-miterlimit:1.8;paint-order:fill markers stroke;stop-color:#000000"
         d="m 3.175,0.79374999 c 1.3192124,0 2.3812499,1.06203741 2.3812499,2.38124991 0,1.3192124 -1.0620375,2.3812499 -2.3812499,2.3812499 -1.3192125,0 -2.38124995,-1.0620375 -2.38124995,-2.3812499 0,-1.3192125 1.06203745,-2.38124991 2.38124995,-2.38124991 z" /><g
         transform="matrix(0.26458333,0,0,0.26458333,0.26561465,0.26458335)"
         id="g4342"><path
           id="rect5734"
           style="opacity:1;fill:#864e14;stroke-width:2;stroke-linecap:round;stroke-linejoin:round;stroke-miterlimit:1.8;paint-order:fill markers stroke;stop-color:#000000"
           d="m 7.4961023,7 c 0.831,0 1.5,0.669 1.5,1.5 0,0.831 -0.669,1.5 -1.5,1.5 -0.831,0 -1.5,-0.669 -1.5,-1.5 0,-0.831 0.669,-1.5 1.5,-1.5 z" /><path
           id="rect5736"
           style="opacity:1;fill:#864e14;stroke-width:2;stroke-linecap:round;stroke-linejoin:round;stroke-miterlimit:1.8;paint-order:fill markers stroke;stop-color:#000000"
           d="m 14.496102,7 c 0.831,0 1.5,0.669 1.5,1.5 0,0.831 -0.669,1.5 -1.5,1.5 -0.831,0 -1.5,-0.669 -1.5,-1.5 0,-0.831 0.669,-1.5 1.5,-1.5 z" /><path
           id="path6687"
           style="opacity:1;fill:#864e14;stroke-width:2;stroke-linecap:round;stroke-linejoin:round;stroke-miterlimit:1.8;paint-order:fill markers stroke;stop-color:#000000"
           d="m 7.9961021,13 h -1 a 4,4 0 0 0 2,3.464844 4,4 0 0 0 3.9999999,0 4,4 0 0 0 2,-3.464844 h -1 c 0,0.05194 -0.0013,0.103023 -0.0039,0.154297 -0.0026,0.05127 -0.0066,0.101796 -0.01172,0.152344 -0.0051,0.05055 -0.01197,0.102583 -0.01953,0.152343 -0.0076,0.04976 -0.01543,0.09757 -0.02539,0.146485 -0.01,0.04891 -0.02091,0.09848 -0.0332,0.146484 -0.01229,0.048 -0.02645,0.09555 -0.04101,0.142578 -0.01457,0.04703 -0.0301,0.09268 -0.04687,0.138672 -0.01678,0.04599 -0.03381,0.09182 -0.05274,0.136719 -0.01893,0.04489 -0.03953,0.08908 -0.06055,0.132812 -0.02101,0.04374 -0.04337,0.08639 -0.06641,0.128907 -0.02304,0.04251 -0.04726,0.08572 -0.07227,0.126953 -0.025,0.04123 -0.05122,0.08121 -0.07813,0.121093 -0.0269,0.03989 -0.05329,0.07871 -0.08203,0.117188 -0.02874,0.03848 -0.05932,0.07627 -0.08984,0.113281 -0.03052,0.03701 -0.06151,0.07389 -0.09375,0.109375 -0.03224,0.03548 -0.06572,0.06962 -0.09961,0.103516 -0.03389,0.03389 -0.06803,0.06737 -0.103516,0.09961 -0.03548,0.03224 -0.07236,0.06323 -0.109375,0.09375 -0.03701,0.03052 -0.0748,0.0611 -0.113281,0.08984 -0.03848,0.02874 -0.0773,0.05513 -0.117187,0.08203 -0.03989,0.0269 -0.07986,0.05312 -0.121094,0.07813 -0.04123,0.025 -0.08444,0.04923 -0.126953,0.07227 -0.04251,0.02304 -0.08517,0.04539 -0.128906,0.06641 -0.04374,0.02101 -0.08792,0.04162 -0.132813,0.06055 -0.04489,0.01893 -0.09073,0.03596 -0.136719,0.05273 -0.04599,0.01678 -0.09165,0.03231 -0.138672,0.04687 -0.04703,0.01457 -0.09458,0.02872 -0.142578,0.04102 -0.048,0.01229 -0.09757,0.02324 -0.146484,0.0332 -0.04891,0.01 -0.09672,0.01783 -0.146484,0.02539 -0.04976,0.0076 -0.101796,0.01443 -0.152344,0.01953 -0.05055,0.0051 -0.10107,0.0091 -0.152344,0.01172 -0.05128,0.0026 -0.102362,0.0039 -0.1543,0.0039 -0.05194,0 -0.103023,-0.0013 -0.154297,-0.0039 -0.05127,-0.0026 -0.101795,-0.0066 -0.152343,-0.01172 -0.05055,-0.0051 -0.102584,-0.01197 -0.152344,-0.01953 -0.04976,-0.0076 -0.09757,-0.01543 -0.146485,-0.02539 -0.04891,-0.01 -0.09848,-0.02091 -0.146484,-0.0332 -0.048,-0.01229 -0.09555,-0.02645 -0.142578,-0.04102 -0.04703,-0.01456 -0.09268,-0.0301 -0.138672,-0.04687 C 9.916908,15.80159 9.871075,15.78456 9.8261803,15.76564 9.7812853,15.74671 9.7371033,15.72611 9.6933678,15.70509 9.6496318,15.68408 9.6069768,15.66172 9.5644615,15.63868 9.5219465,15.61564 9.4787405,15.59142 9.4375084,15.56641 9.3962764,15.54141 9.3563024,15.51519 9.3164146,15.48828 9.2765266,15.46138 9.2377086,15.43499 9.1992271,15.40625 9.1607461,15.37751 9.1229591,15.34693 9.0859459,15.31641 9.0489329,15.28589 9.0120539,15.2549 8.9765709,15.22266 8.9410879,15.19042 8.9069459,15.15694 8.8730553,15.12305 c -0.033891,-0.03389 -0.067373,-0.06803 -0.099609,-0.103516 -0.032237,-0.03548 -0.063229,-0.07236 -0.09375,-0.109375 -0.030521,-0.03701 -0.061101,-0.0748 -0.089844,-0.113281 -0.028743,-0.03848 -0.055128,-0.0773 -0.082031,-0.117188 -0.026903,-0.03989 -0.053123,-0.07986 -0.078125,-0.121093 -0.025002,-0.04123 -0.049227,-0.08444 -0.072266,-0.126953 -0.023038,-0.04252 -0.045393,-0.08517 -0.066406,-0.128907 -0.021013,-0.04373 -0.041621,-0.08792 -0.060547,-0.132812 -0.018926,-0.0449 -0.035958,-0.09073 -0.052734,-0.136719 -0.016777,-0.04599 -0.032309,-0.09164 -0.046875,-0.138672 -0.014566,-0.04703 -0.028723,-0.09458 -0.041016,-0.142578 -0.012293,-0.048 -0.023245,-0.09757 -0.033203,-0.146484 -0.00996,-0.04891 -0.017829,-0.09672 -0.025391,-0.146485 -0.00756,-0.04976 -0.014429,-0.101795 -0.019531,-0.152343 -0.0051,-0.05055 -0.00914,-0.10107 -0.011719,-0.152344 -0.00258,-0.05127 -0.00391,-0.10236 -0.00391,-0.154297 z" /></g></g></g></svg>
