<?xml version="1.0" encoding="UTF-8" standalone="no"?>
<!-- Created with Inkscape (http://www.inkscape.org/) -->

<svg
   width="22"
   height="22"
   viewBox="0 0 22 22"
   version="1.1"
   id="svg5"
   inkscape:version="1.3.2 (091e20ef0f, 2023-11-25, custom)"
   sodipodi:docname="preferences-desktop-accessibility.svg"
   xml:space="preserve"
   xmlns:inkscape="http://www.inkscape.org/namespaces/inkscape"
   xmlns:sodipodi="http://sodipodi.sourceforge.net/DTD/sodipodi-0.dtd"
   xmlns:xlink="http://www.w3.org/1999/xlink"
   xmlns="http://www.w3.org/2000/svg"
   xmlns:svg="http://www.w3.org/2000/svg"><sodipodi:namedview
     id="namedview7"
     pagecolor="#ffffff"
     bordercolor="#000000"
     borderopacity="0.25"
     inkscape:showpageshadow="false"
     inkscape:pageopacity="0.0"
     inkscape:pagecheckerboard="0"
     inkscape:deskcolor="#d1d1d1"
     inkscape:document-units="px"
     showgrid="true"
     inkscape:zoom="13.455444"
     inkscape:cx="12.559972"
     inkscape:cy="16.461738"
     inkscape:window-width="1469"
     inkscape:window-height="1243"
     inkscape:window-x="0"
     inkscape:window-y="0"
     inkscape:window-maximized="0"
     inkscape:current-layer="layer1"><inkscape:grid
       type="xygrid"
       id="grid3636"
       originx="0"
       originy="0"
       spacingy="1"
       spacingx="1"
       units="px"
       visible="true" /></sodipodi:namedview><defs
     id="defs2"><style
       type="text/css"
       id="current-color-scheme">
      .ColorScheme-Text {
        color:#36404d;
      }
      </style><style
       type="text/css"
       id="current-color-scheme-67">
      .ColorScheme-Text {
        color:#122036;
      }
      </style><style
       type="text/css"
       id="current-color-scheme-7">
      .ColorScheme-Text {
        color:#122036;
      }
      </style><style
       type="text/css"
       id="current-color-scheme-5">
      .ColorScheme-Text {
        color:#122036;
      }
      </style><style
       type="text/css"
       id="current-color-scheme-6">
      .ColorScheme-Text {
        color:#122036;
      }
      </style><style
       type="text/css"
       id="current-color-scheme-1">
      .ColorScheme-Text {
        color:#122036;
      }
      </style><style
       id="current-color-scheme-10"
       type="text/css">
      .ColorScheme-Text {
        color:#122036;
      }
      </style><style
       id="current-color-scheme-5-7"
       type="text/css">
      .ColorScheme-Text {
        color:#122036;
      }
      </style><style
       id="current-color-scheme-1-2"
       type="text/css">
      .ColorScheme-Text {
        color:#122036;
      }
      </style><style
       type="text/css"
       id="current-color-scheme-10-9">
      .ColorScheme-Text {
        color:#122036;
      }
      </style><linearGradient
       inkscape:collect="always"
       xlink:href="#linearGradient16188"
       id="linearGradient16190"
       x1="-0.79374999"
       y1="5.8208332"
       x2="-0.79374999"
       y2="1.5875"
       gradientUnits="userSpaceOnUse"
       gradientTransform="matrix(3.7795276,0,0,3.7795276,15,-12.999999)" /><linearGradient
       inkscape:collect="always"
       id="linearGradient16188"><stop
         style="stop-color:#3a94da;stop-opacity:1;"
         offset="0"
         id="stop16184" /><stop
         style="stop-color:#42b3f2;stop-opacity:1;"
         offset="1"
         id="stop16186" /></linearGradient></defs><g
     inkscape:label="Capa 1"
     inkscape:groupmode="layer"
     id="layer1"><g
       id="g1"
       transform="translate(-0.9999995,10.000001)"><path
         id="rect15701"
         style="fill:#1b7ecc;fill-opacity:1;stroke-width:2;stroke-linecap:round;stroke-linejoin:round;stroke-miterlimit:1.8;paint-order:fill markers stroke;stop-color:#000000"
         d="m 12,-9.0000001 c 5.54,0 9.999999,4.46 9.999999,9.99999985 C 21.999999,6.5399996 17.54,10.999999 12,10.999999 6.46,10.999999 2,6.5399996 2,0.99999975 2,-4.5400001 6.46,-9.0000001 12,-9.0000001 Z" /><path
         id="rect15701-2"
         style="fill:url(#linearGradient16190);stroke-width:1.8;stroke-linecap:round;stroke-linejoin:round;stroke-miterlimit:1.8;paint-order:fill markers stroke;stop-color:#000000"
         d="m 12,-8 c 4.986,0 9,4.0139997 9,8.99999975 0,4.98599965 -4.014,8.99999975 -9,8.99999975 -4.9859998,0 -8.9999997,-4.0140001 -8.9999997,-8.99999975 C 3.0000003,-3.9860003 7.0140002,-8 12,-8 Z" /><path
         id="rect3977-3"
         style="fill:#1b7ecc;fill-opacity:1;stroke-width:2;stroke-linecap:round;stroke-linejoin:round;stroke-miterlimit:1.8;paint-order:fill markers stroke;stop-color:#000000"
         d="m 10.947266,-4.0000001 c -1.08388,0.027288 -1.9472662,0.9093136 -1.9472662,2.0000002 0,0.7429255 0.4017222,1.3894511 1.0000002,1.73437495 V 1.1699216 C 8.8328559,1.58035 7.9999999,2.6890827 7.9999999,3.9999998 c 0,1.661997 1.3380031,3 3.0000001,3 1.636028,0 2.959084,-1.2960571 3,-2.9218749 v 1.921875 h 1 1 V 5 H 15 V 2 H 13.240234 C 12.707595,1.4033328 11.939156,1.0216689 11.078125,0.99999975 H 14 V -1.3280184e-7 H 11.052734 C 12.136614,-0.02728832 13,-0.90931365 13,-1.9999999 c 0,-1.1079991 -0.892001,-2.0000002 -2,-2.0000002 -0.01731,0 -0.03553,-4.331e-4 -0.05273,0 z m 0,6.0000001 h 0.05273 c 1.107998,0 2.000001,0.8920022 2.000001,1.9999998 0,1.1079984 -0.892003,2.0000001 -2.000001,2.0000001 -1.1079971,0 -1.9999997,-0.8920017 -1.9999997,-2.0000001 0,-1.0906851 0.863387,-1.9727229 1.9472647,-1.9999998 z m 2.882812,0.9999999 h 0.16992 v 0.9218752 c -0.0081,-0.3230287 -0.06823,-0.6324333 -0.16992,-0.9218752 z" /><path
         id="rect3977"
         style="fill:#ffffff;fill-opacity:1;stroke-width:2;stroke-linecap:round;stroke-linejoin:round;stroke-miterlimit:1.8;paint-order:fill markers stroke;stop-color:#000000"
         d="m 10.947266,-4.9998076 c -1.08388,0.027288 -1.9472662,0.9093136 -1.9472662,2.0000002 0,0.7429255 0.4017222,1.3894511 1.0000002,1.7343749 V 0.17011414 C 8.8328559,0.58054249 7.9999999,1.6892752 7.9999999,3.0001923 c 0,1.661997 1.3380031,3 3.0000001,3 1.636028,0 2.959084,-1.2960571 3,-2.9218749 v 1.921875 h 1 1 V 4.0001925 h -1 v -3 H 13.240234 C 12.707595,0.40352529 11.939156,0.02186141 11.078125,1.9224515e-4 H 14 V -0.99980764 H 11.052734 C 12.136614,-1.0270958 13,-1.9091212 13,-2.9998074 c 0,-1.1079991 -0.892001,-2.0000002 -2,-2.0000002 -0.01731,0 -0.03553,-4.331e-4 -0.05273,0 z m 0,6.0000001 h 0.05273 c 1.107998,0 2.000001,0.8920022 2.000001,1.9999998 0,1.1079984 -0.892003,2.0000001 -2.000001,2.0000001 -1.1079971,0 -1.9999997,-0.8920017 -1.9999997,-2.0000001 0,-1.0906851 0.863387,-1.9727229 1.9472647,-1.9999998 z m 2.882812,0.9999999 h 0.16992 v 0.9218752 c -0.0081,-0.3230287 -0.06823,-0.6324333 -0.16992,-0.9218752 z" /></g></g></svg>
