<?xml version="1.0" encoding="UTF-8" standalone="no"?>
<!-- Created with Inkscape (http://www.inkscape.org/) -->

<svg
   width="22"
   height="22"
   viewBox="0 0 22 22"
   version="1.1"
   id="svg5"
   inkscape:version="1.3.2 (091e20ef0f, 2023-11-25, custom)"
   sodipodi:docname="preferences-desktop-effects.svg"
   xml:space="preserve"
   xmlns:inkscape="http://www.inkscape.org/namespaces/inkscape"
   xmlns:sodipodi="http://sodipodi.sourceforge.net/DTD/sodipodi-0.dtd"
   xmlns:xlink="http://www.w3.org/1999/xlink"
   xmlns="http://www.w3.org/2000/svg"
   xmlns:svg="http://www.w3.org/2000/svg"><sodipodi:namedview
     id="namedview7"
     pagecolor="#ffffff"
     bordercolor="#000000"
     borderopacity="0.25"
     inkscape:showpageshadow="false"
     inkscape:pageopacity="0.0"
     inkscape:pagecheckerboard="0"
     inkscape:deskcolor="#d1d1d1"
     inkscape:document-units="px"
     showgrid="true"
     inkscape:zoom="13.455444"
     inkscape:cx="3.8274471"
     inkscape:cy="13.600443"
     inkscape:window-width="2560"
     inkscape:window-height="1356"
     inkscape:window-x="0"
     inkscape:window-y="0"
     inkscape:window-maximized="1"
     inkscape:current-layer="layer1-6"><inkscape:grid
       type="xygrid"
       id="grid3636"
       originx="0"
       originy="0"
       spacingy="1"
       spacingx="1"
       units="px"
       visible="true" /></sodipodi:namedview><defs
     id="defs2"><style
       type="text/css"
       id="current-color-scheme">
      .ColorScheme-Text {
        color:#36404d;
      }
      </style><style
       type="text/css"
       id="current-color-scheme-67">
      .ColorScheme-Text {
        color:#122036;
      }
      </style><style
       type="text/css"
       id="current-color-scheme-7">
      .ColorScheme-Text {
        color:#122036;
      }
      </style><style
       type="text/css"
       id="current-color-scheme-5">
      .ColorScheme-Text {
        color:#122036;
      }
      </style><style
       type="text/css"
       id="current-color-scheme-6">
      .ColorScheme-Text {
        color:#122036;
      }
      </style><style
       type="text/css"
       id="current-color-scheme-1">
      .ColorScheme-Text {
        color:#122036;
      }
      </style><style
       id="current-color-scheme-10"
       type="text/css">
      .ColorScheme-Text {
        color:#122036;
      }
      </style><style
       id="current-color-scheme-5-7"
       type="text/css">
      .ColorScheme-Text {
        color:#122036;
      }
      </style><style
       id="current-color-scheme-1-2"
       type="text/css">
      .ColorScheme-Text {
        color:#122036;
      }
      </style><style
       type="text/css"
       id="current-color-scheme-10-9">
      .ColorScheme-Text {
        color:#122036;
      }
      </style><style
       id="current-color-scheme-53"
       type="text/css">
      .ColorScheme-Text {
        color:#122036;
      }
      </style><style
       id="current-color-scheme-6-5"
       type="text/css">
      .ColorScheme-Text {
        color:#122036;
      }
      </style><style
       type="text/css"
       id="current-color-scheme-9">
      .ColorScheme-Text {
        color:#36404d;
      }
      </style><style
       id="current-color-scheme-3"
       type="text/css">
      .ColorScheme-Text {
        color:#36404d;
      }
      </style><linearGradient
       inkscape:collect="always"
       xlink:href="#linearGradient2125"
       id="linearGradient2127"
       x1="3.175"
       y1="5.0270834"
       x2="3.175"
       y2="0.79374999"
       gradientUnits="userSpaceOnUse"
       gradientTransform="matrix(3.7795276,0,0,3.7795276,33,-20.999999)" /><linearGradient
       inkscape:collect="always"
       id="linearGradient2125"><stop
         style="stop-color:#1077ed;stop-opacity:1;"
         offset="0"
         id="stop2121" /><stop
         style="stop-color:#34affa;stop-opacity:1;"
         offset="1"
         id="stop2123" /></linearGradient></defs><g
     inkscape:label="Capa 1"
     inkscape:groupmode="layer"
     id="layer1"><g
       inkscape:label="Capa 1"
       id="layer1-6"><g
         id="g1"
         transform="translate(-34,21)"><path
           id="rect1345"
           style="fill:#0a5dbf;fill-opacity:1;stroke-width:2;stroke-linecap:round;stroke-linejoin:round;stroke-miterlimit:1.8;paint-order:fill markers stroke;stop-color:#000000"
           d="m 35,-20 20,1e-6 c 0.554,0 1,0.446 1,1 V -0.99999953 C 56,-0.4459994 55.554,3.5644356e-7 55,3.5644356e-7 L 35,-3.9946196e-7 C 34.446,-3.9946196e-7 34,-0.44600015 34,-1.0000003 V -19 c 0,-0.554 0.446,-1 1,-1 z"
           sodipodi:nodetypes="sssssssss" /><path
           id="rect1345-7"
           style="fill:url(#linearGradient2127);fill-opacity:1;stroke-width:2;stroke-linecap:round;stroke-linejoin:round;stroke-miterlimit:1.8;paint-order:fill markers stroke;stop-color:#000000"
           d="M 35,-18.999999 H 55 V -0.99999877 H 35 Z"
           sodipodi:nodetypes="ccccc" /><path
           id="path3184-0"
           style="color:#000000;fill:#0a5dbf;fill-opacity:1;stroke-width:3.77953;stroke-linecap:round;stroke-linejoin:round;stroke-miterlimit:1.8;paint-order:fill markers stroke"
           d="m 37,-16.999999 c -0.553999,0 -1,0.446001 -1,1 0,0.553999 0.446001,1 1,1 0.0087,0 0.01678,2.17e-4 0.0254,0 0.54194,-0.01364 0.97461,-0.454657 0.97461,-1 0,-0.553999 -0.446001,-1 -1.000001,-1 z m 16,0 c -0.553999,0 -1,0.446001 -1,1 0,0.545343 0.43267,0.986356 0.974609,1 0.0086,2.17e-4 0.01674,0 0.0254,0 0.553999,0 1,-0.446001 1,-1 0,-0.553999 -0.446001,-1 -1,-1 z m -13,1 c -0.553999,0 -1,0.446001 -1,1 0,0.553999 0.446001,1 1,1 0.0087,0 0.01678,2.16e-4 0.0254,0 0.541939,-0.01364 0.97461,-0.454657 0.97461,-1 0,-0.553999 -0.446001,-1 -1,-1 z m 10,0 c -0.553999,0 -1,0.446001 -1,1 0,0.545343 0.43267,0.986356 0.974609,1 0.0086,2.16e-4 0.01674,0 0.0254,0 0.553999,0 1,-0.446001 1,-1 0,-0.553999 -0.446001,-1 -1,-1 z m -4.996094,0.002 c -0.26502,-0.0017 -0.520242,0.101034 -0.708984,0.287109 -2.297727,1.708658 -2.296452,3.708851 -2.28711,6.164063 l -2.562499,1.7128906 c -0.418348,0.2796435 -0.564049,0.8268522 -0.339844,1.2773436 l 0.998047,2.0000001 c 0.168982,0.3387099 0.514062,0.5520888 0.892578,0.5527344 h 1.380859 l 0.730469,1.4472658 C 43.276405,-2.2179334 43.621485,-2.0025986 44,-2.0019519 h 2.001953 c 0.378516,-6.482e-4 0.723603,-0.2159811 0.892578,-0.5546876 l 0.722657,-1.4472658 h 1.380859 c 0.378515,-6.471e-4 0.723603,-0.2140271 0.892578,-0.552734 l 1.003906,-2.0000005 c 0.224202,-0.4504955 0.07851,-0.9977046 -0.339843,-1.2773439 l -2.619141,-1.7421869 c 0.063,-2.4256854 0.06229,-4.4256774 -2.222656,-6.1269534 -0.18754,-0.188783 -0.442887,-0.294692 -0.708985,-0.294922 z M 37,-13.999999 c -0.553999,0 -1,0.446001 -1,1 0,0.553999 0.446001,1 1,1 0.0087,0 0.01678,2.16e-4 0.0254,0 0.541939,-0.01364 0.97461,-0.454657 0.97461,-1 0,-0.553999 -0.446002,-1 -1.000001,-1 z m 16,0 c -0.553999,0 -1,0.446001 -1,1 0,0.545343 0.43267,0.986356 0.974609,1 0.0086,2.16e-4 0.01674,0 0.0254,0 0.553999,0 1,-0.446001 1,-1 0,-0.553999 -0.446001,-1 -1,-1 z m -13,1 c -0.553999,0 -1,0.446001 -1,1 0,0.553999 0.446001,1 1,1 0.0087,0 0.01678,2.16e-4 0.0254,0 0.541939,-0.01364 0.97461,-0.454658 0.97461,-1 0,-0.553999 -0.446001,-1 -1,-1 z m 10,0 c -0.553999,0 -1,0.446001 -1,1 0,0.545342 0.43267,0.986356 0.974609,1 0.0086,2.16e-4 0.01674,0 0.0254,0 0.553999,0 1,-0.446001 1,-1 0,-0.553999 -0.446001,-1 -1,-1 z m -13,2 c -0.553999,0 -1,0.446001 -1,0.9999998 0,0.5539986 0.446001,0.9999998 1,0.9999998 0.0087,0 0.01678,2.166e-4 0.0254,0 0.541939,-0.013644 0.97461,-0.4546575 0.97461,-0.9999998 0,-0.5539988 -0.446002,-0.9999998 -1.000001,-0.9999998 z m 16,0 c -0.553999,0 -1,0.446001 -1,0.9999998 0,0.5453423 0.43267,0.9863557 0.974609,0.9999998 0.0086,2.166e-4 0.01674,0 0.0254,0 0.553999,0 1,-0.4460012 1,-0.9999998 0,-0.5539988 -0.446001,-0.9999998 -1,-0.9999998 z"
           sodipodi:nodetypes="ssscssssssssssssscssssssssssccccccccccccccccccccssscssssssssssssscssssssssssssscssssssssss" /><path
           id="path3184"
           style="color:#000000;fill:#e6eef8;stroke-width:3.77953;stroke-linecap:round;stroke-linejoin:round;stroke-miterlimit:1.8;paint-order:fill markers stroke"
           d="m 37,-17.999999 c -0.553999,0 -1,0.446001 -1,1 0,0.553999 0.446001,1 1,1 0.0087,0 0.01678,2.17e-4 0.0254,0 0.541939,-0.01364 0.97461,-0.454657 0.97461,-1 0,-0.553999 -0.446002,-1 -1.000001,-1 z m 16,0 c -0.553999,0 -1,0.446001 -1,1 0,0.545343 0.43267,0.986356 0.974609,1 0.0086,2.17e-4 0.01674,0 0.0254,0 0.553999,0 1,-0.446001 1,-1 0,-0.553999 -0.446001,-1 -1,-1 z m -13,1 c -0.553999,0 -1,0.446001 -1,1 0,0.553999 0.446001,1 1,1 0.0087,0 0.01678,2.17e-4 0.0254,0 0.541939,-0.01364 0.97461,-0.454658 0.97461,-1 0,-0.553999 -0.446001,-1 -1,-1 z m 10,0 c -0.553999,0 -1,0.446001 -1,1 0,0.545342 0.43267,0.986356 0.974609,1 0.0086,2.17e-4 0.01674,0 0.0254,0 0.553999,0 1,-0.446001 1,-1 0,-0.553999 -0.446001,-1 -1,-1 z m -4.996094,0.002 c -0.26502,-0.0017 -0.520242,0.101033 -0.708984,0.287109 -2.297727,1.708658 -2.296452,3.708851 -2.28711,6.164063 l -2.562499,1.7128908 c -0.418348,0.2796434 -0.564049,0.8268521 -0.339844,1.2773439 l 0.998047,1.9999997 c 0.168982,0.3387099 0.514062,0.5520888 0.892578,0.5527348 h 1.380859 l 0.730469,1.447265 C 43.276405,-3.2179337 43.621485,-3.0025989 44,-3.0019522 h 2.001953 c 0.378516,-6.478e-4 0.723603,-0.2159811 0.892578,-0.5546876 l 0.722657,-1.447265 h 1.380859 c 0.378515,-6.475e-4 0.723603,-0.2140279 0.892578,-0.5527348 l 1.003906,-1.9999997 c 0.224202,-0.4504955 0.07851,-0.9977046 -0.339843,-1.2773439 l -2.619141,-1.7421878 c 0.063,-2.425684 0.06229,-4.425677 -2.222656,-6.126953 -0.18754,-0.188783 -0.442887,-0.294693 -0.708985,-0.294922 z M 37,-14.999999 c -0.553999,0 -1,0.446001 -1,1 0,0.553999 0.446001,1 1,1 0.0087,0 0.01678,2.17e-4 0.0254,0 0.541939,-0.01364 0.97461,-0.454657 0.97461,-1 0,-0.553999 -0.446002,-1 -1.000001,-1 z m 16,0 c -0.553999,0 -1,0.446001 -1,1 0,0.545343 0.43267,0.986356 0.974609,1 0.0086,2.17e-4 0.01674,0 0.0254,0 0.553999,0 1,-0.446001 1,-1 0,-0.553999 -0.446001,-1 -1,-1 z m -13,1 c -0.553999,0 -1,0.446001 -1,1 0,0.553999 0.446001,1 1,1 0.0087,0 0.01678,2.16e-4 0.0254,0 0.541939,-0.01364 0.97461,-0.454658 0.97461,-1 0,-0.553999 -0.446001,-1 -1,-1 z m 10,0 c -0.553999,0 -1,0.446001 -1,1 0,0.545342 0.43267,0.986356 0.974609,1 0.0086,2.16e-4 0.01674,0 0.0254,0 0.553999,0 1,-0.446001 1,-1 0,-0.553999 -0.446001,-1 -1,-1 z m -13,2 c -0.553999,0 -1,0.446001 -1,1 0,0.553998 0.446001,0.9999998 1,0.9999998 0.0087,0 0.01678,2.165e-4 0.0254,0 0.541939,-0.013644 0.97461,-0.4546578 0.97461,-0.9999998 0,-0.553999 -0.446002,-1 -1.000001,-1 z m 16,0 c -0.553999,0 -1,0.446001 -1,1 0,0.545342 0.43267,0.986356 0.974609,0.9999998 0.0086,2.165e-4 0.01674,0 0.0254,0 0.553999,0 1,-0.4460018 1,-0.9999998 0,-0.553999 -0.446001,-1 -1,-1 z"
           sodipodi:nodetypes="ssscssssssssssssscssssssssssccccccccccccccccccccssscssssssssssssscssssssssssssscssssssssss" /></g></g></g></svg>
