<?xml version="1.0" encoding="UTF-8" standalone="no"?>
<!-- Created with Inkscape (http://www.inkscape.org/) -->

<svg
   width="22"
   height="22"
   viewBox="0 0 22 22"
   version="1.1"
   id="svg5"
   inkscape:version="1.3.2 (091e20ef0f, 2023-11-25, custom)"
   sodipodi:docname="preferences-desktop-gaming.svg"
   xml:space="preserve"
   xmlns:inkscape="http://www.inkscape.org/namespaces/inkscape"
   xmlns:sodipodi="http://sodipodi.sourceforge.net/DTD/sodipodi-0.dtd"
   xmlns:xlink="http://www.w3.org/1999/xlink"
   xmlns="http://www.w3.org/2000/svg"
   xmlns:svg="http://www.w3.org/2000/svg"><sodipodi:namedview
     id="namedview7"
     pagecolor="#ffffff"
     bordercolor="#000000"
     borderopacity="0.25"
     inkscape:showpageshadow="false"
     inkscape:pageopacity="0.0"
     inkscape:pagecheckerboard="0"
     inkscape:deskcolor="#d1d1d1"
     inkscape:document-units="px"
     showgrid="true"
     inkscape:zoom="22.627417"
     inkscape:cx="22.340155"
     inkscape:cy="9.9436891"
     inkscape:window-width="2560"
     inkscape:window-height="1356"
     inkscape:window-x="0"
     inkscape:window-y="0"
     inkscape:window-maximized="1"
     inkscape:current-layer="g23"><inkscape:grid
       type="xygrid"
       id="grid3636"
       originx="0"
       originy="0"
       spacingy="1"
       spacingx="1"
       units="px"
       visible="true" /></sodipodi:namedview><defs
     id="defs2"><style
       type="text/css"
       id="current-color-scheme">
      .ColorScheme-Text {
        color:#36404d;
      }
      </style><style
       type="text/css"
       id="current-color-scheme-67">
      .ColorScheme-Text {
        color:#122036;
      }
      </style><style
       type="text/css"
       id="current-color-scheme-7">
      .ColorScheme-Text {
        color:#122036;
      }
      </style><style
       type="text/css"
       id="current-color-scheme-5">
      .ColorScheme-Text {
        color:#122036;
      }
      </style><style
       type="text/css"
       id="current-color-scheme-6">
      .ColorScheme-Text {
        color:#122036;
      }
      </style><style
       type="text/css"
       id="current-color-scheme-1">
      .ColorScheme-Text {
        color:#122036;
      }
      </style><style
       id="current-color-scheme-10"
       type="text/css">
      .ColorScheme-Text {
        color:#122036;
      }
      </style><style
       id="current-color-scheme-5-7"
       type="text/css">
      .ColorScheme-Text {
        color:#122036;
      }
      </style><style
       id="current-color-scheme-1-2"
       type="text/css">
      .ColorScheme-Text {
        color:#122036;
      }
      </style><style
       type="text/css"
       id="current-color-scheme-10-9">
      .ColorScheme-Text {
        color:#122036;
      }
      </style><style
       type="text/css"
       id="current-color-scheme-675">
      .ColorScheme-Text {
        color:#122036;
      }
      </style><style
       type="text/css"
       id="current-color-scheme-2">
      .ColorScheme-Text {
        color:#122036;
      }
      </style><style
       type="text/css"
       id="current-color-scheme-0">
      .ColorScheme-Text {
        color:#122036;
      }
      </style><style
       type="text/css"
       id="current-color-scheme-27">
      .ColorScheme-Text {
        color:#122036;
      }
      </style><style
       id="current-color-scheme-5-3"
       type="text/css">
      .ColorScheme-Text {
        color:#122036;
      }
      </style><style
       id="current-color-scheme-53"
       type="text/css">
      .ColorScheme-Text {
        color:#122036;
      }
      </style><style
       id="current-color-scheme-535"
       type="text/css">
      .ColorScheme-Text {
        color:#122036;
      }
      </style><style
       type="text/css"
       id="current-color-scheme-5-6">
      .ColorScheme-Text {
        color:#122036;
      }
      </style><style
       id="current-color-scheme-70"
       type="text/css">
      .ColorScheme-Text {
        color:#122036;
      }
      </style><style
       type="text/css"
       id="current-color-scheme-5-9">
      .ColorScheme-Text {
        color:#122036;
      }
      </style><style
       type="text/css"
       id="current-color-scheme-2-0">
      .ColorScheme-Text {
        color:#122036;
      }
      </style><style
       type="text/css"
       id="current-color-scheme-1-5">
      .ColorScheme-Text {
        color:#122036;
      }
      </style><style
       id="current-color-scheme-10-6"
       type="text/css">
      .ColorScheme-Text {
        color:#122036;
      }
      </style><style
       type="text/css"
       id="current-color-scheme-0-9">
      .ColorScheme-Text {
        color:#122036;
      }
      </style><style
       type="text/css"
       id="current-color-scheme-26">
      .ColorScheme-Text {
        color:#122036;
      }
      </style><style
       type="text/css"
       id="current-color-scheme-7-2">
      .ColorScheme-Text {
        color:#122036;
      }
      </style><linearGradient
       inkscape:collect="always"
       xlink:href="#linearGradient5"
       id="linearGradient6"
       x1="2.3812499"
       y1="5.5562496"
       x2="2.3812499"
       y2="0.79374999"
       gradientUnits="userSpaceOnUse" /><linearGradient
       id="linearGradient5"
       inkscape:collect="always"><stop
         style="stop-color:#06121c;stop-opacity:1;"
         offset="0"
         id="stop5" /><stop
         style="stop-color:#15262e;stop-opacity:1;"
         offset="1"
         id="stop6" /></linearGradient><linearGradient
       inkscape:collect="always"
       xlink:href="#linearGradient1"
       id="linearGradient2"
       x1="2.1166668"
       y1="5.5562501"
       x2="2.1166668"
       y2="0.79375005"
       gradientUnits="userSpaceOnUse" /><linearGradient
       id="linearGradient1"
       inkscape:collect="always"><stop
         style="stop-color:#1e8cb9;stop-opacity:1;"
         offset="0"
         id="stop1" /><stop
         style="stop-color:#1dd4fc;stop-opacity:1;"
         offset="1"
         id="stop2" /></linearGradient><linearGradient
       inkscape:collect="always"
       xlink:href="#linearGradient3"
       id="linearGradient4"
       x1="4.2333331"
       y1="5.5562501"
       x2="4.1878581"
       y2="0.83509111"
       gradientUnits="userSpaceOnUse" /><linearGradient
       id="linearGradient3"
       inkscape:collect="always"><stop
         style="stop-color:#e73c3f;stop-opacity:1;"
         offset="0"
         id="stop3" /><stop
         style="stop-color:#ff6a5e;stop-opacity:1;"
         offset="1"
         id="stop4" /></linearGradient></defs><g
     inkscape:label="Capa 1"
     inkscape:groupmode="layer"
     id="layer1"><g
       id="g1"
       transform="translate(-3.0000001,9.9999999)"><g
         id="g2"
         transform="matrix(3.7795276,0,0,3.7795276,2,-11)"><g
           id="g23"><g
             id="g3"><path
               id="rect19"
               style="fill:#1487af;fill-opacity:0.992157;stroke-width:0.529167;stroke-linecap:round;stroke-linejoin:round;paint-order:stroke fill markers"
               d="m 1.3229167,0.52916669 c -0.43973669,0 -0.79375001,0.35401332 -0.79375001,0.79375001 v 3.7041666 c 0,0.4397367 0.35401332,0.79375 0.79375001,0.79375 H 1.5875 2.38125 V 5.0270833 1.3229167 0.52916669 H 1.5875 Z" /><path
               id="rect1"
               style="fill:#03080d;fill-opacity:0.992157;stroke-width:0.529167;stroke-linecap:round;stroke-linejoin:round;paint-order:stroke fill markers"
               d="m 2.3812499,0.5291667 h 1.5875 v 5.2916665 h -1.5875 z" /><path
               id="rect2"
               style="fill:url(#linearGradient6);stroke-width:0.529167;stroke-linecap:round;stroke-linejoin:round;paint-order:stroke fill markers"
               d="M 2.3812499,0.79374999 H 3.96875 V 5.5562498 H 2.3812499 Z" /><path
               id="rect22"
               style="fill:url(#linearGradient2);fill-opacity:1;stroke-width:0.529167;stroke-linecap:round;stroke-linejoin:round;paint-order:stroke fill markers"
               d="m 1.335319,0.79375002 c -0.293158,0 -0.52916664,0.23600858 -0.52916664,0.52916668 v 3.7041666 c 0,0.2931581 0.23600864,0.5291667 0.52916664,0.5291667 H 1.5875 2.1166667 V 5.0270833 1.3229167 0.79375002 H 1.5875 Z" /><path
               id="rect19-9"
               style="fill:#c73436;fill-opacity:0.992157;stroke-width:0.529167;stroke-linecap:round;stroke-linejoin:round;paint-order:stroke fill markers"
               d="m 5.0270831,0.52916664 c 0.4397367,0 0.79375,0.3540133 0.79375,0.79374996 v 3.7041667 c 0,0.4397367 -0.3540133,0.79375 -0.79375,0.79375 H 4.7624998 3.9687498 V 5.0270833 1.3229166 0.52916664 h 0.79375 z" /><path
               id="rect22-4"
               style="fill:url(#linearGradient4);fill-opacity:1;stroke-width:0.529167;stroke-linecap:round;stroke-linejoin:round;paint-order:stroke fill markers"
               d="m 5.0146808,0.79374994 c 0.293158,0 0.5291666,0.23600856 0.5291666,0.52916666 v 3.7041667 c 0,0.2931581 -0.2360086,0.5291667 -0.5291666,0.5291667 H 4.7624998 4.2333331 V 5.0270833 1.3229166 0.79374994 h 0.5291667 z" /><path
               id="rect3"
               style="fill:#041e26;fill-opacity:1;stroke-width:0.396875;stroke-linecap:round;stroke-linejoin:round;paint-order:stroke fill markers"
               d="m 1.4552085,2.6458333 c 0.2198688,0 0.396875,0.1770062 0.396875,0.3968749 0,0.2198688 -0.1770062,0.396875 -0.396875,0.396875 -0.2198687,0 -0.396875,-0.1770062 -0.396875,-0.396875 0,-0.2198687 0.1770063,-0.3968749 0.396875,-0.3968749 z" /><path
               id="rect4"
               style="fill:#0b5065;fill-opacity:1;stroke-width:0.264583;stroke-linecap:round;stroke-linejoin:round;paint-order:stroke fill markers"
               d="m 1.4552084,2.9104166 c 0.07329,0 0.1322917,0.059002 0.1322917,0.1322917 0,0.07329 -0.059002,0.1322916 -0.1322917,0.1322916 -0.07329,0 -0.1322917,-0.059002 -0.1322917,-0.1322916 0,-0.07329 0.059002,-0.1322917 0.1322917,-0.1322917 z" /><path
               id="rect3-2"
               style="fill:#260b0b;fill-opacity:1;stroke-width:0.396875;stroke-linecap:round;stroke-linejoin:round;paint-order:stroke fill markers"
               d="m 4.8947917,3.7041667 c 0.2198687,0 0.396875,0.1770062 0.396875,0.3968749 0,0.2198688 -0.1770063,0.396875 -0.396875,0.396875 -0.2198688,0 -0.396875,-0.1770062 -0.396875,-0.396875 0,-0.2198687 0.1770062,-0.3968749 0.396875,-0.3968749 z" /><path
               id="rect4-3"
               style="fill:#842525;fill-opacity:1;stroke-width:0.264583;stroke-linecap:round;stroke-linejoin:round;paint-order:stroke fill markers"
               d="m 4.8947915,3.96875 c 0.073289,0 0.1322916,0.059002 0.1322916,0.1322917 0,0.07329 -0.059002,0.1322916 -0.1322916,0.1322916 -0.07329,0 -0.1322917,-0.059002 -0.1322917,-0.1322916 0,-0.07329 0.059002,-0.1322917 0.1322917,-0.1322917 z" /><path
               id="rect4-3-2"
               style="fill:#d7dadc;stroke-width:0.264583;stroke-linecap:round;stroke-linejoin:round;paint-order:stroke fill markers"
               d="m 2.7781249,2.116667 c 0.07329,0 0.1322917,0.059002 0.1322917,0.1322917 0,0.07329 -0.059002,0.1322917 -0.1322917,0.1322917 -0.07329,0 -0.1322916,-0.059002 -0.1322916,-0.1322917 0,-0.07329 0.059002,-0.1322917 0.1322916,-0.1322917 z" /><path
               id="rect4-3-2-8"
               style="fill:#000000;fill-opacity:1;stroke-width:0.264583;stroke-linecap:round;stroke-linejoin:round;paint-order:stroke fill markers"
               d="m 2.7781249,2.6458335 c 0.07329,0 0.1322917,0.059002 0.1322917,0.1322917 0,0.07329 -0.059002,0.1322916 -0.1322917,0.1322916 -0.07329,0 -0.1322916,-0.059002 -0.1322916,-0.1322916 0,-0.07329 0.059002,-0.1322917 0.1322916,-0.1322917 z" /><path
               id="rect4-3-2-7"
               style="fill:#000000;fill-opacity:1;stroke-width:0.264583;stroke-linecap:round;stroke-linejoin:round;paint-order:stroke fill markers"
               d="m 2.7781249,3.1750002 c 0.07329,0 0.1322917,0.059002 0.1322917,0.1322917 0,0.07329 -0.059002,0.1322916 -0.1322917,0.1322916 -0.07329,0 -0.1322916,-0.059002 -0.1322916,-0.1322916 0,-0.07329 0.059002,-0.1322917 0.1322916,-0.1322917 z" /><path
               id="rect4-3-2-8-3"
               style="fill:#000000;fill-opacity:1;stroke-width:0.264583;stroke-linecap:round;stroke-linejoin:round;paint-order:stroke fill markers"
               d="m 2.7781249,3.7041667 c 0.07329,0 0.1322917,0.059002 0.1322917,0.1322916 0,0.07329 -0.059002,0.1322917 -0.1322917,0.1322917 -0.07329,0 -0.1322916,-0.059002 -0.1322916,-0.1322917 0,-0.07329 0.059002,-0.1322916 0.1322916,-0.1322916 z" /><path
               id="rect4-3-2-1"
               style="fill:#d7dadc;stroke-width:0.264583;stroke-linecap:round;stroke-linejoin:round;paint-order:stroke fill markers"
               d="m 3.5718747,2.116667 c 0.07329,0 0.1322917,0.059002 0.1322917,0.1322917 0,0.07329 -0.059002,0.1322917 -0.1322917,0.1322917 -0.07329,0 -0.1322916,-0.059002 -0.1322916,-0.1322917 0,-0.07329 0.059002,-0.1322917 0.1322916,-0.1322917 z" /><path
               id="rect4-3-2-8-2"
               style="fill:#000000;fill-opacity:1;stroke-width:0.264583;stroke-linecap:round;stroke-linejoin:round;paint-order:stroke fill markers"
               d="m 3.5718747,2.6458335 c 0.07329,0 0.1322917,0.059002 0.1322917,0.1322917 0,0.07329 -0.059002,0.1322916 -0.1322917,0.1322916 -0.07329,0 -0.1322916,-0.059002 -0.1322916,-0.1322916 0,-0.07329 0.059002,-0.1322917 0.1322916,-0.1322917 z" /><path
               id="rect4-3-2-7-9"
               style="fill:#000000;fill-opacity:1;stroke-width:0.264583;stroke-linecap:round;stroke-linejoin:round;paint-order:stroke fill markers"
               d="m 3.5718747,3.1750002 c 0.07329,0 0.1322917,0.059002 0.1322917,0.1322917 0,0.07329 -0.059002,0.1322916 -0.1322917,0.1322916 -0.07329,0 -0.1322916,-0.059002 -0.1322916,-0.1322916 0,-0.07329 0.059002,-0.1322917 0.1322916,-0.1322917 z" /><path
               id="rect4-3-2-8-3-3"
               style="fill:#000000;fill-opacity:1;stroke-width:0.264583;stroke-linecap:round;stroke-linejoin:round;paint-order:stroke fill markers"
               d="m 3.5718747,3.7041667 c 0.07329,0 0.1322917,0.059002 0.1322917,0.1322916 0,0.07329 -0.059002,0.1322917 -0.1322917,0.1322917 -0.07329,0 -0.1322916,-0.059002 -0.1322916,-0.1322917 0,-0.07329 0.059002,-0.1322916 0.1322916,-0.1322916 z" /><path
               id="rect5"
               style="fill:#041e26;fill-opacity:1;stroke-width:0.529167;stroke-linecap:round;stroke-linejoin:round;paint-order:stroke fill markers"
               d="M 1.0583333,1.5875002 H 1.8520834 V 1.8520834 H 1.0583333 Z" /><path
               id="rect5-2"
               style="fill:#260b0b;fill-opacity:1;stroke-width:0.529167;stroke-linecap:round;stroke-linejoin:round;paint-order:stroke fill markers"
               d="M 4.4979167,1.5875001 H 5.2916668 V 1.8520835 H 4.4979167 Z" /><path
               id="rect5-2-8"
               style="fill:#260b0b;fill-opacity:1;stroke-width:0.529167;stroke-linecap:round;stroke-linejoin:round;paint-order:stroke fill markers"
               d="M 5.0270834,1.3229168 V 2.1166669 H 4.7625 V 1.3229168 Z" /><path
               id="rect10"
               style="fill:#1d3d52;stroke-width:0.529167;stroke-linecap:round;stroke-linejoin:round;paint-order:stroke fill markers"
               d="m 1.8520832,3.4395833 h 1e-7 v 0.2645833 h -1e-7 z" /><path
               id="rect11"
               style="fill:#041e26;fill-opacity:1;stroke-width:0.529167;stroke-linecap:round;stroke-linejoin:round;paint-order:stroke fill markers"
               d="M 1.5875,5.0270834 H 1.8520832 V 5.2916666 H 1.5875 Z" /><path
               id="rect11-5"
               style="fill:#260b0b;fill-opacity:1;stroke-width:0.529167;stroke-linecap:round;stroke-linejoin:round;paint-order:stroke fill markers"
               d="m 4.6302078,5.0270834 c 0.07329,0 0.1322916,0.059002 0.1322916,0.1322916 0,0.07329 -0.059002,0.1322916 -0.1322916,0.1322916 -0.073289,0 -0.1322916,-0.059002 -0.1322916,-0.1322916 0,-0.073289 0.059002,-0.1322916 0.1322916,-0.1322916 z" /><path
               id="rect18"
               style="fill:#041e26;fill-opacity:1;stroke-width:0.529167;stroke-linecap:round;stroke-linejoin:round;paint-order:stroke fill markers"
               d="m 1.4552083,3.7041667 h 1e-7 c 0.07329,0 0.1322916,0.059002 0.1322916,0.1322916 0,0.07329 -0.059002,0.1322917 -0.1322916,0.1322917 h -1e-7 c -0.07329,0 -0.1322917,-0.059002 -0.1322917,-0.1322917 0,-0.07329 0.059002,-0.1322916 0.1322917,-0.1322916 z" /><path
               id="rect18-6"
               style="fill:#041e26;fill-opacity:1;stroke-width:0.529167;stroke-linecap:round;stroke-linejoin:round;paint-order:stroke fill markers"
               d="m 1.4552083,4.2333293 h 1e-7 c 0.07329,0 0.1322916,0.059002 0.1322916,0.1322917 0,0.07329 -0.059002,0.1322916 -0.1322916,0.1322916 h -1e-7 c -0.07329,0 -0.1322917,-0.059002 -0.1322917,-0.1322916 0,-0.07329 0.059002,-0.1322917 0.1322917,-0.1322917 z" /><path
               id="rect18-6-6"
               style="fill:#041e26;fill-opacity:1;stroke-width:0.529167;stroke-linecap:round;stroke-linejoin:round;paint-order:stroke fill markers"
               d="m 1.7197915,3.96875 h 1e-7 c 0.07329,0 0.1322917,0.059002 0.1322917,0.1322917 0,0.07329 -0.059002,0.1322916 -0.1322917,0.1322916 h -1e-7 c -0.07329,0 -0.1322916,-0.059002 -0.1322916,-0.1322916 0,-0.07329 0.059002,-0.1322917 0.1322916,-0.1322917 z" /><path
               id="rect18-6-6-6"
               style="fill:#041e26;fill-opacity:1;stroke-width:0.529167;stroke-linecap:round;stroke-linejoin:round;paint-order:stroke fill markers"
               d="m 1.1906251,3.96875 v 0 c 0.07329,0 0.1322917,0.059002 0.1322917,0.1322917 0,0.07329 -0.059002,0.1322916 -0.1322917,0.1322916 v 0 c -0.07329,0 -0.1322917,-0.059002 -0.1322917,-0.1322916 0,-0.07329 0.059002,-0.1322917 0.1322917,-0.1322917 z" /><path
               id="rect18-8"
               style="fill:#260b0b;fill-opacity:1;stroke-width:0.529167;stroke-linecap:round;stroke-linejoin:round;paint-order:stroke fill markers"
               d="m 4.894792,2.6458333 v 0 c 0.07329,0 0.1322917,0.059002 0.1322917,0.1322916 0,0.07329 -0.059002,0.1322917 -0.1322917,0.1322917 v 0 c -0.07329,0 -0.1322917,-0.059002 -0.1322917,-0.1322917 0,-0.07329 0.059002,-0.1322916 0.1322917,-0.1322916 z" /><path
               id="rect18-6-7"
               style="fill:#260b0b;fill-opacity:1;stroke-width:0.529167;stroke-linecap:round;stroke-linejoin:round;paint-order:stroke fill markers"
               d="m 4.894792,3.1749959 v 0 c 0.07329,0 0.1322917,0.059002 0.1322917,0.1322917 0,0.07329 -0.059002,0.1322916 -0.1322917,0.1322916 v 0 c -0.07329,0 -0.1322917,-0.059002 -0.1322917,-0.1322916 0,-0.07329 0.059002,-0.1322917 0.1322917,-0.1322917 z" /><path
               id="rect18-6-6-9"
               style="fill:#260b0b;fill-opacity:1;stroke-width:0.529167;stroke-linecap:round;stroke-linejoin:round;paint-order:stroke fill markers"
               d="m 5.1593751,2.9104166 v 0 c 0.07329,0 0.1322917,0.059002 0.1322917,0.1322917 0,0.07329 -0.059002,0.1322917 -0.1322917,0.1322917 v 0 c -0.07329,0 -0.1322917,-0.059002 -0.1322917,-0.1322917 0,-0.07329 0.059002,-0.1322917 0.1322917,-0.1322917 z" /><path
               id="rect18-6-6-6-2"
               style="fill:#260b0b;fill-opacity:1;stroke-width:0.529167;stroke-linecap:round;stroke-linejoin:round;paint-order:stroke fill markers"
               d="m 4.6302084,2.9104166 v 0 c 0.07329,0 0.1322917,0.059002 0.1322917,0.1322917 0,0.07329 -0.059002,0.1322917 -0.1322917,0.1322917 v 0 c -0.07329,0 -0.1322917,-0.059002 -0.1322917,-0.1322917 0,-0.07329 0.059002,-0.1322917 0.1322917,-0.1322917 z" /></g></g></g></g></g></svg>
