<svg height="22" viewBox="0 0 22 22" width="22" xmlns="http://www.w3.org/2000/svg" xmlns:xlink="http://www.w3.org/1999/xlink"><linearGradient id="a" gradientUnits="userSpaceOnUse" x1="3.175" x2="3.175" y1="5.55625" y2=".79375"><stop offset="0" stop-color="#2092f2"/><stop offset="1" stop-color="#24b1ff"/></linearGradient><g stroke-linecap="round" stroke-linejoin="round"><g fill="#ffb8a3" stroke-miterlimit="1.8" stroke-width=".529167" transform="matrix(3.7795276 0 0 3.7795276 -1 -1)"><path d="m1.0583333.52916664h4.2333332c.2931583 0 .5291666.23600832.5291666.52916666v4.2333332c0 .2931583-.2360083.5291666-.5291666.5291666h-4.2333332c-.29315834 0-.52916666-.2360083-.52916666-.5291666v-4.2333332c0-.29315834.23600832-.52916666.52916666-.52916666z" fill="#1972bf"/><path d="m1.0583333.79374999h4.2333341c.1465792 0 .2645834.11800416.2645834.26458331v4.2333332c0 .1465791-.1180042.2645833-.2645834.2645833h-4.2333341c-.14657915 0-.26458331-.1180042-.26458331-.2645833v-4.2333332c0-.14657915.11800416-.26458331.26458331-.26458331z" fill="url(#a)"/></g><g stroke-width="1.71429"><path d="m4 5v6h6v-6zm8 0v6h6v-6zm-7 1h4v4h-4zm-1 7v6h6v-6zm8 0v6h6v-6zm1 1h4v4h-4z" fill="#1972bf"/><path d="m4 4v6h6v-6zm8 0v6h6v-6zm-7 1h4v4h-4zm-1 7v6h6v-6zm8 0v6h6v-6zm1 1h4v4h-4z" fill="#fff"/></g></g></svg>