<?xml version="1.0" encoding="UTF-8" standalone="no"?>
<svg
   height="22"
   viewBox="0 0 22 22"
   width="22"
   version="1.1"
   id="svg14"
   sodipodi:docname="preferences-system.svg"
   xml:space="preserve"
   inkscape:version="1.3.2 (091e20ef0f, 2023-11-25, custom)"
   xmlns:inkscape="http://www.inkscape.org/namespaces/inkscape"
   xmlns:sodipodi="http://sodipodi.sourceforge.net/DTD/sodipodi-0.dtd"
   xmlns="http://www.w3.org/2000/svg"
   xmlns:svg="http://www.w3.org/2000/svg"><defs
     id="defs14" /><sodipodi:namedview
     id="namedview14"
     pagecolor="#ffffff"
     bordercolor="#000000"
     borderopacity="0.25"
     inkscape:showpageshadow="2"
     inkscape:pageopacity="0.0"
     inkscape:pagecheckerboard="0"
     inkscape:deskcolor="#d1d1d1"
     inkscape:zoom="26.363636"
     inkscape:cx="15.836207"
     inkscape:cy="10.810345"
     inkscape:window-width="2560"
     inkscape:window-height="1364"
     inkscape:window-x="0"
     inkscape:window-y="0"
     inkscape:window-maximized="1"
     inkscape:current-layer="svg14" /><linearGradient
     id="a"
     gradientUnits="userSpaceOnUse"
     x1="3.174374"
     x2="3.175"
     y1="5.276577"
     y2="1.058333"><stop
       offset="0"
       stop-color="#e4e4e4"
       id="stop1" /><stop
       offset="1"
       stop-color="#fbfbfb"
       id="stop2" /></linearGradient><linearGradient
     id="b"
     gradientUnits="userSpaceOnUse"
     x1="10"
     x2="10"
     y1="13.636669"
     y2="8.396289"><stop
       offset="0"
       stop-color="#238fe9"
       id="stop3"
       style="stop-color:#ef0b2c;stop-opacity:1;" /><stop
       offset="1"
       stop-color="#2eb6fd"
       id="stop4"
       style="stop-color:#fc3a56;stop-opacity:1;" /></linearGradient><g
     stroke-linecap="round"
     stroke-linejoin="round"
     id="g14"
     transform="matrix(-1,0,0,1,21.999999,0)"><g
       fill="#ffb8a3"
       stroke-miterlimit="1.8"
       stroke-width="0.529167"
       transform="matrix(3.7795276,0,0,3.7795276,-1,-1)"
       id="g5"><path
         d="m 1.0583333,0.52916664 h 4.2333332 c 0.2931583,0 0.5291666,0.23600832 0.5291666,0.52916666 v 4.2333332 c 0,0.2931583 -0.2360083,0.5291666 -0.5291666,0.5291666 H 1.0583333 c -0.29315834,0 -0.52916666,-0.2360083 -0.52916666,-0.5291666 V 1.0583333 c 0,-0.29315834 0.23600832,-0.52916666 0.52916666,-0.52916666 z"
         fill="#7f9099"
         id="path4" /><path
         d="m 1.0583333,0.79374999 h 4.2333341 c 0.1465792,0 0.2645834,0.11800416 0.2645834,0.26458331 v 4.2333332 c 0,0.1465791 -0.1180042,0.2645833 -0.2645834,0.2645833 H 1.0583333 c -0.14657915,0 -0.26458331,-0.1180042 -0.26458331,-0.2645833 V 1.0583333 c 0,-0.14657915 0.11800416,-0.26458331 0.26458331,-0.26458331 z"
         fill="url(#a)"
         id="path5"
         style="fill:url(#a)" /></g><g
       stroke-width="2"
       id="g13"><path
         d="m 4.4778963,3 c 0.8187546,0 1.4778964,0.6591418 1.4778964,1.4778963 v 0.044187 C 5.9557927,5.3408382 5.2966509,5.99998 4.4778963,5.99998 3.6591418,5.99998 3,5.3408382 3,4.5220836 V 4.4778963 C 3,3.6591418 3.6591418,3 4.4778963,3 Z"
         fill="#7f9099"
         id="path6" /><path
         d="m 8,7 h 6 c 2.216,0 4,1.784 4,4 0,2.216 -1.784,4 -4,4 H 8 C 5.784,15 4,13.216 4,11 4,8.784 5.784,7 8,7 Z"
         fill="#1a6cb2"
         id="path7"
         style="fill:#be011e;fill-opacity:1" /><path
         d="m 17.477896,3 c 0.818755,0 1.477897,0.6591418 1.477897,1.4778963 v 0.044187 c 0,0.8187546 -0.659142,1.4778964 -1.477897,1.4778964 C 16.659142,5.99998 16,5.3408382 16,4.5220836 V 4.4778963 C 16,3.6591418 16.659142,3 17.477896,3 Z"
         fill="#7f9099"
         id="path8" /><path
         d="m 4.4778963,16 c 0.8187546,0 1.4778964,0.659142 1.4778964,1.477896 v 0.04419 c 0,0.818754 -0.6591418,1.477896 -1.4778964,1.477896 C 3.6591418,18.99998 3,18.340838 3,17.522084 v -0.04419 C 3,16.659142 3.6591418,16 4.4778963,16 Z"
         fill="#7f9099"
         id="path9" /><path
         d="m 17.477896,16 c 0.818755,0 1.477897,0.659142 1.477897,1.477896 v 0.04419 c 0,0.818754 -0.659142,1.477896 -1.477897,1.477896 C 16.659142,18.99998 16,18.340838 16,17.522084 v -0.04419 C 16,16.659142 16.659142,16 17.477896,16 Z"
         fill="#7f9099"
         id="path10" /><path
         d="m 8,8 h 6 c 1.662,0 3,1.338 3,3 0,1.662 -1.338,3 -3,3 H 8 C 6.338,14 5,12.662 5,11 5,9.338 6.338,8 8,8 Z"
         fill="url(#b)"
         id="path11"
         style="fill:url(#b)" /><path
         d="M 13.996846,9 H 14 c 1.108,0 2,0.892 2,2 0,1.108 -0.892,2 -2,2 h -0.0032 c -1.108,0 -2,-0.892 -2,-2 0,-1.108 0.892,-2 2,-2 z"
         fill="#1a6cb2"
         id="path12"
         style="fill:#be011e;fill-opacity:1" /><path
         d="m 14,10 c 0.554,0 1,0.446 1,1 0,0.554 -0.446,1 -1,1 -0.554,0 -1,-0.446 -1,-1 0,-0.554 0.446,-1 1,-1 z"
         fill="#f1f1f1"
         id="path13" /></g></g></svg>
