<svg viewBox="0 0 16 16" xmlns="http://www.w3.org/2000/svg" xmlns:xlink="http://www.w3.org/1999/xlink"><linearGradient id="a" gradientUnits="userSpaceOnUse" x1=".264583" x2=".264583" y1="295.41251" y2="292.76666"><stop offset="0" stop-color="#e1ebf2"/><stop offset="1" stop-color="#e1ebf2"/></linearGradient><linearGradient id="b" gradientUnits="userSpaceOnUse" x1=".264583" x2=".264583" y1="295.67709" y2="292.50211"><stop offset="0" stop-color="#1f1f26"/><stop offset="1" stop-color="#353d4b"/></linearGradient><linearGradient id="c" gradientUnits="userSpaceOnUse" x1="12.5" x2="12.5" y1="15" y2="10"><stop offset="0" stop-color="#fb3d3c"/><stop offset="1" stop-color="#fc5039"/></linearGradient><g transform="matrix(3.7795275 0 0 3.7795275 7 -1103.519636)"><path d="m.26458329 292.23749c-1.02605413 0-1.85208329.82603-1.85208329 1.85208 0 1.02606.82602916 1.85209 1.85208329 1.85209 1.02605421 0 1.85208341-.82603 1.85208341-1.85209 0-1.02605-.8260292-1.85208-1.85208341-1.85208z" fill="#1f1f26"/><path d="m.26458329 292.50207c.87947501 0 1.58750001.70803 1.58750001 1.5875 0 .87948-.708025 1.5875-1.58750001 1.5875-.87947496 0-1.58749999-.70802-1.58749999-1.5875 0-.87947.70802503-1.5875 1.58749999-1.5875z" fill="url(#b)"/><path d="m.26458329 292.76666c.7328959 0 1.32291671.59002 1.32291671 1.32291 0 .7329-.59002081 1.32292-1.32291671 1.32292-.7328958 0-1.32291659-.59002-1.32291659-1.32292 0-.73289.59002079-1.32291 1.32291659-1.32291z" fill="url(#a)"/><path d="m.26458329 293.03124c.1465792 0 .2645834.118.2645834.26458v.52917h.52916661c.1465792 0 .2645834.11801.2645834.26459s-.1180042.26458-.2645834.26458h-.79375001c-.1465791-0-.26458329-.118-.26458329-.26458v-.79376c0-.14658.11800419-.26458.26458329-.26458z" fill="#1f1f26"/></g><g stroke-linecap="round" stroke-linejoin="round" stroke-width="2"><path d="m12.5 9c1.939 0 3.5 1.561 3.5 3.5s-1.561 3.5-3.5 3.5-3.5-1.561-3.5-3.5 1.561-3.5 3.5-3.5z" fill="#b2252b" fill-opacity=".992157"/><path d="m12.5 10c1.385 0 2.5 1.115 2.5 2.5s-1.115 2.5-2.5 2.5-2.5-1.115-2.5-2.5 1.115-2.5 2.5-2.5z" fill="url(#c)"/></g></svg>