<?xml version="1.0" encoding="UTF-8" standalone="no"?>
<svg
   height="16"
   width="16"
   version="1.1"
   id="svg2"
   sodipodi:docname="battery-050-charging.svg"
   inkscape:version="1.3.2 (091e20ef0f, 2023-11-25, custom)"
   xmlns:inkscape="http://www.inkscape.org/namespaces/inkscape"
   xmlns:sodipodi="http://sodipodi.sourceforge.net/DTD/sodipodi-0.dtd"
   xmlns:xlink="http://www.w3.org/1999/xlink"
   xmlns="http://www.w3.org/2000/svg"
   xmlns:svg="http://www.w3.org/2000/svg">
  <sodipodi:namedview
     id="namedview2"
     pagecolor="#ffffff"
     bordercolor="#000000"
     borderopacity="0.25"
     inkscape:showpageshadow="2"
     inkscape:pageopacity="0.0"
     inkscape:pagecheckerboard="0"
     inkscape:deskcolor="#d1d1d1"
     inkscape:zoom="36"
     inkscape:cx="6.6805556"
     inkscape:cy="6.5277778"
     inkscape:window-width="2560"
     inkscape:window-height="1356"
     inkscape:window-x="0"
     inkscape:window-y="0"
     inkscape:window-maximized="1"
     inkscape:current-layer="svg2" />
  <defs
     id="defs1">
    <style
       type="text/css"
       id="current-color-scheme">
            .ColorScheme-Text {
                color:#232629;
            }
            .ColorScheme-PositiveText {
                color:#27ae60;
            }
        </style>
    <linearGradient
       inkscape:collect="always"
       xlink:href="#linearGradient6"
       id="linearGradient10"
       gradientUnits="userSpaceOnUse"
       x1="25"
       y1="0"
       x2="25"
       y2="-10"
       gradientTransform="translate(-5.9999999,22)" />
    <linearGradient
       id="linearGradient6"
       inkscape:collect="always">
      <stop
         style="stop-color:#252a34;stop-opacity:1;"
         offset="0"
         id="stop6" />
      <stop
         style="stop-color:#343c4a;stop-opacity:1;"
         offset="1"
         id="stop7" />
    </linearGradient>
    <linearGradient
       inkscape:collect="always"
       xlink:href="#linearGradient8"
       id="linearGradient11"
       gradientUnits="userSpaceOnUse"
       x1="25"
       y1="-1.2655923"
       x2="25"
       y2="-8.4471455"
       gradientTransform="translate(-5.9999999,22)" />
    <linearGradient
       id="linearGradient8"
       inkscape:collect="always">
      <stop
         style="stop-color:#454545;stop-opacity:1;"
         offset="0"
         id="stop8" />
      <stop
         style="stop-color:#212121;stop-opacity:1;"
         offset="1"
         id="stop9" />
    </linearGradient>
    <linearGradient
       inkscape:collect="always"
       xlink:href="#linearGradient28"
       id="linearGradient29"
       gradientUnits="userSpaceOnUse"
       x1="-3.0962617"
       y1="1.1023517"
       x2="-3.0962617"
       y2="-0.48514828"
       gradientTransform="matrix(3.7795276,0,0,3.7795276,26.702407,15.833631)" />
    <linearGradient
       id="linearGradient28"
       inkscape:collect="always">
      <stop
         style="stop-color:#0fcc5b;stop-opacity:1;"
         offset="0"
         id="stop27" />
      <stop
         style="stop-color:#6fd87b;stop-opacity:1;"
         offset="1"
         id="stop28" />
    </linearGradient>
    <linearGradient
       inkscape:collect="always"
       xlink:href="#linearGradient28"
       id="linearGradient2"
       gradientUnits="userSpaceOnUse"
       gradientTransform="matrix(3.7795276,0,0,3.7795276,26.702407,15.833631)"
       x1="-3.0962617"
       y1="1.1023517"
       x2="-3.0962617"
       y2="-0.48514828" />
    <linearGradient
       inkscape:collect="always"
       xlink:href="#linearGradient28"
       id="linearGradient3"
       gradientUnits="userSpaceOnUse"
       gradientTransform="matrix(3.7795276,0,0,3.7795276,26.702407,15.833631)"
       x1="-3.0962617"
       y1="1.1023517"
       x2="-3.0962617"
       y2="-0.48514828" />
  </defs>
  <g
     id="g3"
     transform="translate(-11,-9)">
    <path
       id="rect1-0"
       style="fill:#15151a;fill-opacity:1;stroke-width:2;stroke-linecap:round;stroke-linejoin:round;stroke-opacity:0.960784;paint-order:stroke fill markers"
       d="m 12,11 c -0.553999,0 -1,0.446001 -1,1 v 10 c 0,0.553999 0.446001,1 1,1 h 12 c 0.553999,0 1,-0.446001 1,-1 v -1 h 1 c 0.553999,0 1,-0.446001 1,-1 v -6 c 0,-0.554 -0.446001,-1 -1,-1 h -1 v -1 c 0,-0.553999 -0.446001,-1 -1,-1 z" />
    <path
       id="rect3-2"
       style="fill:url(#linearGradient10);fill-opacity:1;stroke-width:2;stroke-linecap:round;stroke-linejoin:round;stroke-opacity:0.960784;paint-order:stroke fill markers"
       d="m 12,12 v 10 h 12 v -2 h 2 v -6 h -2 v -2 z" />
    <path
       id="rect5-3"
       style="fill:url(#linearGradient11);fill-opacity:1;stroke-width:2;stroke-linecap:round;stroke-linejoin:round;stroke-opacity:0.960784;paint-order:stroke fill markers"
       d="m 13,13 v 8 h 10 v -2 h 2 v -4 h -2 v -2 z" />
    <path
       id="rect11-5"
       style="fill:url(#linearGradient2);stroke-width:2;stroke-linecap:round;stroke-linejoin:round;stroke-opacity:0.960784;paint-order:stroke fill markers"
       d="m 19,16.408203 -1.232422,1.242187 0.103518,0.06641 1.128906,-1.13086 z" />
    <path
       id="path32"
       style="fill:url(#linearGradient3);stroke-width:2;stroke-linecap:round;stroke-linejoin:round;stroke-opacity:0.960784;paint-order:stroke fill markers"
       d="M 17.978516,20 H 19 v -0.585938 l -0.294922,0.294922 A 1.0001,1.0001 0 0 1 17.978516,20 Z" />
    <path
       id="path31"
       style="fill:url(#linearGradient29);stroke-width:2;stroke-linecap:round;stroke-linejoin:round;stroke-opacity:0.960784;paint-order:stroke fill markers"
       d="M 19,14.001953 V 14 h -5 v 6 h 3.947266 A 1.0001,1.0001 0 0 1 17.44336,19.833984 l -2.998047,-2 A 1.0001,1.0001 0 0 1 15,16.003906 h 1.585938 l 1.705078,-1.712891 A 1.0001,1.0001 0 0 1 19,14.001953 Z" />
    <g
       id="path4614-7-4-0-0"
       transform="matrix(3.7795276,0,0,3.7795276,8.7024071,15.833631)">
      <path
         style="color:#000000;fill:#ffffff;stroke-linecap:round;stroke-linejoin:round;-inkscape-stroke:none"
         d="m 1.6662381,0.30860172 0.7937499,0.5291666 0.5291667,-0.5291666 h 0.5291667 l -0.79375,-0.5291667 -0.5291667,0.5291667 z"
         id="path29" />
    </g>
  </g>
</svg>
