<?xml version="1.0" encoding="UTF-8" standalone="no"?>
<svg
   height="16"
   width="16"
   version="1.1"
   id="svg3"
   sodipodi:docname="battery-missing.svg"
   inkscape:version="1.3.2 (091e20ef0f, 2023-11-25, custom)"
   xmlns:inkscape="http://www.inkscape.org/namespaces/inkscape"
   xmlns:sodipodi="http://sodipodi.sourceforge.net/DTD/sodipodi-0.dtd"
   xmlns:xlink="http://www.w3.org/1999/xlink"
   xmlns="http://www.w3.org/2000/svg"
   xmlns:svg="http://www.w3.org/2000/svg">
  <sodipodi:namedview
     id="namedview3"
     pagecolor="#ffffff"
     bordercolor="#000000"
     borderopacity="0.25"
     inkscape:showpageshadow="2"
     inkscape:pageopacity="0.0"
     inkscape:pagecheckerboard="0"
     inkscape:deskcolor="#d1d1d1"
     inkscape:zoom="18"
     inkscape:cx="2.75"
     inkscape:cy="5.7777778"
     inkscape:window-width="2560"
     inkscape:window-height="1356"
     inkscape:window-x="0"
     inkscape:window-y="0"
     inkscape:window-maximized="1"
     inkscape:current-layer="svg3" />
  <defs
     id="defs1">
    <style
       type="text/css"
       id="current-color-scheme">
            .ColorScheme-Text {
                color:#232629;
            }
            .ColorScheme-NegativeText {
                color:#da4453;
            }
        </style>
    <linearGradient
       inkscape:collect="always"
       xlink:href="#linearGradient6"
       id="linearGradient7"
       x1="25"
       y1="0"
       x2="25"
       y2="-10"
       gradientUnits="userSpaceOnUse"
       gradientTransform="translate(9.24e-4,30)" />
    <linearGradient
       id="linearGradient6"
       inkscape:collect="always">
      <stop
         style="stop-color:#252a34;stop-opacity:1;"
         offset="0"
         id="stop6" />
      <stop
         style="stop-color:#343c4a;stop-opacity:1;"
         offset="1"
         id="stop7" />
    </linearGradient>
    <linearGradient
       inkscape:collect="always"
       xlink:href="#linearGradient8"
       id="linearGradient9"
       x1="25"
       y1="-1.2655923"
       x2="25"
       y2="-8.4471455"
       gradientUnits="userSpaceOnUse"
       gradientTransform="translate(9.24e-4,30)" />
    <linearGradient
       id="linearGradient8"
       inkscape:collect="always">
      <stop
         style="stop-color:#454545;stop-opacity:1;"
         offset="0"
         id="stop8" />
      <stop
         style="stop-color:#212121;stop-opacity:1;"
         offset="1"
         id="stop9" />
    </linearGradient>
    <linearGradient
       inkscape:collect="always"
       xlink:href="#linearGradient50657"
       id="linearGradient50659"
       x1="-189.46428"
       y1="413.50504"
       x2="-189.46428"
       y2="405.50504"
       gradientUnits="userSpaceOnUse"
       gradientTransform="translate(212.4652,-383.50503)" />
    <linearGradient
       inkscape:collect="always"
       id="linearGradient50657">
      <stop
         style="stop-color:#f4213f;stop-opacity:1;"
         offset="0"
         id="stop50653" />
      <stop
         style="stop-color:#fc3955;stop-opacity:1;"
         offset="1"
         id="stop50655" />
    </linearGradient>
  </defs>
  <g
     id="g3"
     transform="translate(-17.000462,-17.000412)">
    <path
       id="rect1"
       style="fill:#15151a;fill-opacity:1;stroke-width:2;stroke-linecap:round;stroke-linejoin:round;stroke-opacity:0.960784;paint-order:stroke fill markers"
       d="m 18.000924,19 c -0.553999,0 -1,0.446001 -1,1 v 10 c 0,0.553999 0.446001,1 1,1 h 12 c 0.553999,0 1,-0.446001 1,-1 v -1 h 1 c 0.553999,0 1,-0.446001 1,-1 v -6 c 0,-0.553999 -0.446001,-1 -1,-1 h -1 v -1 c 0,-0.553999 -0.446001,-1 -1,-1 z" />
    <path
       id="rect3"
       style="fill:url(#linearGradient7);fill-opacity:1;stroke-width:2;stroke-linecap:round;stroke-linejoin:round;stroke-opacity:0.960784;paint-order:stroke fill markers"
       d="m 18.000924,20 v 10 h 12 v -2 h 2 v -6 h -2 v -2 z" />
    <path
       id="rect5"
       style="fill:url(#linearGradient9);fill-opacity:1;stroke-width:2;stroke-linecap:round;stroke-linejoin:round;stroke-opacity:0.960784;paint-order:stroke fill markers"
       d="m 19.000924,21 v 8 h 10 v -2 h 2 v -4 h -2 v -2 z" />
    <path
       style="color:#000000;fill:#cc0120;fill-opacity:1;stroke-width:0.999999;stroke-linecap:round;stroke-linejoin:round;stroke-miterlimit:1.8;paint-order:fill markers stroke"
       d="m 23.000364,21.000825 a 1.0001,1.0001 0 0 0 -0.84766,0.46875 l -5,7.999999 a 1.0001,1.0001 0 0 0 0.84766,1.53125 h 10 a 1.0001,1.0001 0 0 0 0.84765,-1.53125 l -5,-7.999999 a 1.0001,1.0001 0 0 0 -0.84765,-0.46875 z m 0,2.88476 3.19726,5.11524 h -6.39453 z"
       id="path50582" />
    <path
       style="color:#000000;fill:url(#linearGradient50659);fill-opacity:1;stroke-width:2;stroke-linecap:round;stroke-linejoin:round;stroke-miterlimit:1.8;paint-order:fill markers stroke"
       d="m 18.000924,30.000005 5,-8 5,8 z"
       id="path50580" />
    <path
       id="rect51282-1"
       style="fill:#cc0120;fill-opacity:1;stroke-width:2;stroke-linecap:round;stroke-linejoin:round;stroke-miterlimit:1.8;paint-order:fill markers stroke;stop-color:#000000"
       d="m 23.000924,24 c 0.554,0 1,0.446 1,0.99999 V 27 c 0,0.554 -0.446,1 -1,1 -0.554,0 -1,-0.446 -1,-1 v -2.00001 c 0,-0.55399 0.446,-0.99999 1,-0.99999 z" />
    <path
       id="rect51282"
       style="fill:#fddde2;fill-opacity:1;stroke-width:2;stroke-linecap:round;stroke-linejoin:round;stroke-miterlimit:1.8;paint-order:fill markers stroke;stop-color:#000000"
       d="m 23.000924,23 c 0.554,0 1,0.446 1,0.99999 V 26 c 0,0.554 -0.446,0.999999 -1,0.999999 -0.554,0 -1,-0.445999 -1,-0.999999 v -2.00001 c 0,-0.55399 0.446,-0.99999 1,-0.99999 z" />
    <rect
       style="fill:#cc0120;fill-opacity:1;stroke:none;stroke-width:2;stroke-linecap:round;stroke-linejoin:round;stroke-dasharray:none;stroke-opacity:1;paint-order:stroke fill markers"
       id="rect62-2"
       width="1.9999999"
       height="1.9999999"
       x="22.000923"
       y="29"
       ry="0.99999994" />
    <rect
       style="fill:#fddde2;fill-opacity:1;stroke:none;stroke-width:2;stroke-linecap:round;stroke-linejoin:round;stroke-dasharray:none;stroke-opacity:1;paint-order:stroke fill markers"
       id="rect62"
       width="1.9999999"
       height="1.9999999"
       x="22.000923"
       y="28"
       ry="0.99999994" />
  </g>
</svg>
