<?xml version="1.0" encoding="UTF-8" standalone="no"?>
<svg
   viewBox="0 0 16 16"
   version="1.1"
   id="svg3"
   sodipodi:docname="state-information.svg"
   inkscape:version="1.3.2 (091e20ef0f, 2023-11-25, custom)"
   xmlns:inkscape="http://www.inkscape.org/namespaces/inkscape"
   xmlns:sodipodi="http://sodipodi.sourceforge.net/DTD/sodipodi-0.dtd"
   xmlns:xlink="http://www.w3.org/1999/xlink"
   xmlns="http://www.w3.org/2000/svg"
   xmlns:svg="http://www.w3.org/2000/svg">
  <sodipodi:namedview
     id="namedview3"
     pagecolor="#ffffff"
     bordercolor="#000000"
     borderopacity="0.25"
     inkscape:showpageshadow="2"
     inkscape:pageopacity="0.0"
     inkscape:pagecheckerboard="0"
     inkscape:deskcolor="#d1d1d1"
     inkscape:zoom="18"
     inkscape:cx="1.1944444"
     inkscape:cy="5.8888889"
     inkscape:window-width="2560"
     inkscape:window-height="1356"
     inkscape:window-x="0"
     inkscape:window-y="0"
     inkscape:window-maximized="1"
     inkscape:current-layer="svg3" />
  <defs
     id="defs3051">
    <style
       type="text/css"
       id="current-color-scheme">
      .ColorScheme-Text {
        color:#232629;
      }
      .ColorScheme-Highlight {
        color:#3daee9;
      }
      </style>
    <linearGradient
       inkscape:collect="always"
       xlink:href="#linearGradient45"
       id="linearGradient54"
       gradientUnits="userSpaceOnUse"
       x1="2.1166668"
       y1="296.47086"
       x2="2.1166668"
       y2="293.29584" />
    <linearGradient
       id="linearGradient45"
       inkscape:collect="always">
      <stop
         style="stop-color:#b1d3ff;stop-opacity:1;"
         offset="0"
         id="stop44" />
      <stop
         style="stop-color:#ebf1ff;stop-opacity:1;"
         offset="1"
         id="stop45" />
    </linearGradient>
    <linearGradient
       inkscape:collect="always"
       xlink:href="#linearGradient56"
       id="linearGradient57"
       x1="20.506945"
       y1="21"
       x2="20.506945"
       y2="16"
       gradientUnits="userSpaceOnUse" />
    <linearGradient
       id="linearGradient56"
       inkscape:collect="always">
      <stop
         style="stop-color:#0f94f7;stop-opacity:1;"
         offset="0"
         id="stop56" />
      <stop
         style="stop-color:#03b1fe;stop-opacity:1;"
         offset="1"
         id="stop57" />
    </linearGradient>
  </defs>
  <g
     id="g57"
     transform="translate(-8,-6.999955)">
    <g
       inkscape:label="Capa 1"
       id="layer1-19-65"
       transform="matrix(3.7795275,0,0,3.7795275,8,-1099.5197)">
      <path
         id="rect1324-05-7"
         style="opacity:1;fill:url(#linearGradient54);fill-opacity:1;stroke-width:0.529167;stroke-linecap:round;stroke-linejoin:round;stroke-miterlimit:1.8;paint-order:fill markers stroke;stop-color:#000000"
         d="m 2.2489584,293.29584 c -0.3726586,0 -0.6925947,0.21794 -0.8397421,0.53382 -0.028408,-0.003 -0.057055,-0.005 -0.0863,-0.005 -0.43973668,0 -0.79375003,0.35402 -0.79375003,0.79375 0,0.0292 0.001598,0.0579 0.004651,0.0863 C 0.21793096,294.85204 0,295.17213 0,295.5448 c 0,0.51302 0.41301579,0.92604 0.92604168,0.92604 H 3.0427084 c 0.6596045,0 1.190625,-0.53101 1.190625,-1.19062 0,-0.61767 -0.4657568,-1.12274 -1.0666016,-1.18443 -0.061095,-0.45301 -0.4474932,-0.79995 -0.9177734,-0.79995 z" />
      <g
         id="g1467-6-1"
         transform="translate(1.8520833,0.79374668)" />
    </g>
    <path
       id="rect1324-05-0-3"
       style="fill:#000000;fill-opacity:0.15;stroke-width:2;stroke-linecap:round;stroke-linejoin:round;stroke-miterlimit:1.8;paint-order:fill markers stroke;stop-color:#000000"
       d="m 16.5,8.999955 c -1.40847,0 -2.61768,0.823702 -3.17383,2.017578 -0.10737,-0.01134 -0.21564,-0.01953 -0.32617,-0.01953 -1.662,0 -3,1.33803 -3,3 0,0.110362 0.006,0.218833 0.0176,0.326172 C 8.82365,14.881654 8,16.09144 8,17.499955 c 0,1.938971 1.561,3.5 3.5,3.5 h 8 c 2.493,0 4.5,-2.006988 4.5,-4.5 0,-2.334498 -1.76034,-4.243404 -4.03125,-4.476563 C 19.73784,10.311231 18.27744,8.999955 16.5,8.999955 Z m -0.0644,1 c 0.0214,-5.29e-4 0.0427,0 0.0644,0 1.385,0 2.5,1.114994 2.5,2.5 0,0.187011 -0.022,0.369552 -0.0606,0.544922 0.18234,-0.02986 0.36987,-0.04492 0.5606,-0.04492 1.93899,0 3.5,1.561029 3.5,3.5 0,1.905409 -1.50819,3.445134 -3.40039,3.498047 v 0.002 h -0.0996 -8 c -1.385,0 -2.5,-1.115031 -2.5,-2.5 0,-1.233523 0.88477,-2.252685 2.05664,-2.460938 h 0.002 C 11.02079,14.865462 11,14.684774 11,14.499955 c 0,-1.385006 1.115,-2.5 2.5,-2.5 0.18502,0 0.3657,0.0208 0.53906,0.05859 0.20458,-1.151356 1.19218,-2.028358 2.39649,-2.058594 z" />
    <path
       id="rect18"
       style="fill:#0a5dbf;fill-opacity:1;stroke-width:2;stroke-linecap:round;stroke-linejoin:round;paint-order:stroke fill markers"
       d="m 20.506944,15 c 1.939,0 3.5,1.561 3.5,3.5 0,1.939 -1.561,3.5 -3.5,3.5 -1.939,0 -3.5,-1.561 -3.5,-3.5 0,-1.939 1.561,-3.5 3.5,-3.5 z" />
    <path
       id="rect18-9"
       style="fill:url(#linearGradient57);fill-opacity:1;stroke-width:1.42857;stroke-linecap:round;stroke-linejoin:round;paint-order:stroke fill markers"
       d="m 20.506944,16 c 1.385,0 2.5,1.115 2.5,2.5 0,1.385 -1.115,2.5 -2.5,2.5 -1.385,0 -2.5,-1.115 -2.5,-2.5 0,-1.385 1.115,-2.5 2.5,-2.5 z" />
    <path
       id="rect54-3"
       style="fill:#0a5dbf;stroke-width:2;stroke-linecap:round;stroke-linejoin:round;paint-order:stroke fill markers"
       d="m 20.5,20 c 0.277,0 0.5,0.223 0.5,0.5 v 1 C 21,21.777 20.777,22 20.5,22 20.223,22 20,21.777 20,21.5 v -1 C 20,20.223 20.223,20 20.5,20 Z" />
    <path
       id="rect55-8"
       style="fill:#0a5dbf;stroke-width:1.933;stroke-linecap:round;stroke-linejoin:round;paint-order:stroke fill markers"
       d="m 20,18 h 1 v 1 h -1 z" />
    <path
       id="rect54"
       style="fill:#ffffff;stroke-width:2;stroke-linecap:round;stroke-linejoin:round;paint-order:stroke fill markers"
       d="m 20,19 h 1 v 2 h -1 z" />
    <path
       id="rect55"
       style="fill:#ffffff;stroke-width:1.933;stroke-linecap:round;stroke-linejoin:round;paint-order:stroke fill markers"
       d="m 20,17 h 1 v 1 h -1 z" />
  </g>
</svg>
