<?xml version="1.0" encoding="UTF-8" standalone="no"?>
<svg
   viewBox="0 0 16 16"
   version="1.1"
   id="svg3"
   sodipodi:docname="state-download.svg"
   inkscape:version="1.3.2 (091e20ef0f, 2023-11-25, custom)"
   xmlns:inkscape="http://www.inkscape.org/namespaces/inkscape"
   xmlns:sodipodi="http://sodipodi.sourceforge.net/DTD/sodipodi-0.dtd"
   xmlns:xlink="http://www.w3.org/1999/xlink"
   xmlns="http://www.w3.org/2000/svg"
   xmlns:svg="http://www.w3.org/2000/svg">
  <sodipodi:namedview
     id="namedview3"
     pagecolor="#ffffff"
     bordercolor="#000000"
     borderopacity="0.25"
     inkscape:showpageshadow="2"
     inkscape:pageopacity="0.0"
     inkscape:pagecheckerboard="0"
     inkscape:deskcolor="#d1d1d1"
     inkscape:zoom="36"
     inkscape:cx="11.152778"
     inkscape:cy="9.7777778"
     inkscape:window-width="2560"
     inkscape:window-height="1356"
     inkscape:window-x="0"
     inkscape:window-y="0"
     inkscape:window-maximized="1"
     inkscape:current-layer="svg3" />
  <defs
     id="defs3051">
    <style
       type="text/css"
       id="current-color-scheme">
      .ColorScheme-Text {
        color:#232629;
      }
      .ColorScheme-PositiveText {
        color:#27ae60;
      }
      </style>
    <linearGradient
       inkscape:collect="always"
       xlink:href="#linearGradient45"
       id="linearGradient46"
       gradientUnits="userSpaceOnUse"
       x1="2.1166668"
       y1="296.47086"
       x2="2.1166668"
       y2="293.29584" />
    <linearGradient
       id="linearGradient45"
       inkscape:collect="always">
      <stop
         style="stop-color:#b1d3ff;stop-opacity:1;"
         offset="0"
         id="stop44" />
      <stop
         style="stop-color:#ebf1ff;stop-opacity:1;"
         offset="1"
         id="stop45" />
    </linearGradient>
    <linearGradient
       inkscape:collect="always"
       xlink:href="#linearGradient51"
       id="linearGradient53"
       gradientUnits="userSpaceOnUse"
       x1="97.875"
       y1="33.25"
       x2="97.875"
       y2="27.25"
       gradientTransform="translate(-71.875,-10.249993)" />
    <linearGradient
       id="linearGradient51"
       inkscape:collect="always">
      <stop
         style="stop-color:#209f6e;stop-opacity:1;"
         offset="0"
         id="stop51" />
      <stop
         style="stop-color:#24b27b;stop-opacity:1;"
         offset="1"
         id="stop52" />
    </linearGradient>
  </defs>
  <g
     id="g3"
     transform="translate(-14,-8.9999929)">
    <g
       inkscape:label="Capa 1"
       id="layer1-19-6"
       transform="matrix(3.7795275,0,0,3.7795275,14,-1097.5197)">
      <path
         id="rect1324-05-4"
         style="opacity:1;fill:url(#linearGradient46);fill-opacity:1;stroke-width:0.529167;stroke-linecap:round;stroke-linejoin:round;stroke-miterlimit:1.8;paint-order:fill markers stroke;stop-color:#000000"
         d="m 2.2489584,293.29584 c -0.3726586,0 -0.6925947,0.21794 -0.8397421,0.53382 -0.028408,-0.003 -0.057055,-0.005 -0.0863,-0.005 -0.43973668,0 -0.79375003,0.35402 -0.79375003,0.79375 0,0.0292 0.001598,0.0579 0.004651,0.0863 C 0.21793096,294.85204 0,295.17213 0,295.5448 c 0,0.51302 0.41301579,0.92604 0.92604168,0.92604 H 3.0427084 c 0.6596045,0 1.190625,-0.53101 1.190625,-1.19062 0,-0.61767 -0.4657568,-1.12274 -1.0666016,-1.18443 -0.061095,-0.45301 -0.4474932,-0.79995 -0.9177734,-0.79995 z" />
      <g
         id="g1467-6-5"
         transform="translate(1.8520833,0.79374668)" />
    </g>
    <path
       id="rect1324-05-0-2"
       style="fill:#000000;fill-opacity:0.15;stroke-width:2;stroke-linecap:round;stroke-linejoin:round;stroke-miterlimit:1.8;paint-order:fill markers stroke;stop-color:#000000"
       d="m 22.5,11.000014 c -1.40847,0 -2.61768,0.823702 -3.17383,2.017578 -0.10737,-0.01134 -0.21564,-0.01953 -0.32617,-0.01953 -1.662,0 -3,1.33803 -3,3 0,0.110362 0.006,0.218833 0.0176,0.326172 C 14.82365,16.881713 14,18.091499 14,19.500014 c 0,1.938971 1.561,3.5 3.5,3.5 h 8 c 2.493,0 4.5,-2.006988 4.5,-4.5 C 30,16.165516 28.23966,14.25661 25.96875,14.023451 25.73784,12.31129 24.27744,11.000014 22.5,11.000014 Z m -0.0644,1 c 0.0214,-5.29e-4 0.0427,0 0.0644,0 1.385,0 2.5,1.114994 2.5,2.5 0,0.187011 -0.022,0.369552 -0.0606,0.544922 0.18234,-0.02986 0.36987,-0.04492 0.5606,-0.04492 1.93899,0 3.5,1.561029 3.5,3.5 0,1.905409 -1.50819,3.445134 -3.40039,3.498047 v 0.002 h -0.0996 -8 c -1.385,0 -2.5,-1.115031 -2.5,-2.5 0,-1.233523 0.88477,-2.252685 2.05664,-2.460938 h 0.002 C 17.02079,16.865521 17,16.684833 17,16.500014 c 0,-1.385006 1.115,-2.5 2.5,-2.5 0.18502,0 0.3657,0.0208 0.53906,0.05859 0.20458,-1.151356 1.19218,-2.028358 2.39649,-2.058594 z" />
    <path
       style="color:#27ae60;fill:#00804b;fill-opacity:1;stroke:none"
       class="ColorScheme-PositiveText"
       d="m 21.999998,16.000007 v 4 a 4,3.9999852 0 0 0 4,4 4,3.9999852 0 0 0 4.000002,-4 v -4 h -4.000002 z"
       id="path2-2-0-3" />
    <path
       id="rect49-4"
       style="fill:url(#linearGradient53);fill-opacity:1;stroke:none;stroke-width:2;stroke-linecap:round;stroke-linejoin:round;stroke-dasharray:none;stroke-opacity:1;paint-order:stroke fill markers"
       d="m 23,17.000007 v 2.953125 0.04687 0.04687 c 0,1.635985 1.31714,2.953125 2.953125,2.953125 h 0.09375 C 27.68286,22.999997 29,21.682857 29,20.046872 v -0.04687 -0.04687 -2.953125 h -2.953125 -0.09375 z" />
    <path
       id="path50-6-4"
       style="fill:#00804b;fill-opacity:1;stroke:none;stroke-width:2;stroke-linecap:round;stroke-linejoin:round;stroke-dasharray:none;stroke-opacity:1;paint-order:stroke fill markers"
       d="m 25,19.000007 v 2 h -1 l 2,2.005859 2,-2.005859 h -1 v -2 z" />
    <path
       id="path50-3"
       style="fill:#ffffff;fill-opacity:1;stroke:none;stroke-width:2;stroke-linecap:round;stroke-linejoin:round;stroke-dasharray:none;stroke-opacity:1;paint-order:stroke fill markers"
       d="m 25,18.000007 v 2 h -1 l 2,2.005859 2,-2.005859 h -1 v -2 z" />
  </g>
</svg>
