<?xml version="1.0" encoding="UTF-8" standalone="no"?>
<svg
   viewBox="0 0 16 16"
   version="1.1"
   id="svg2"
   sodipodi:docname="temperature-cold.svg"
   inkscape:version="1.3.2 (091e20ef0f, 2023-11-25, custom)"
   xmlns:inkscape="http://www.inkscape.org/namespaces/inkscape"
   xmlns:sodipodi="http://sodipodi.sourceforge.net/DTD/sodipodi-0.dtd"
   xmlns:xlink="http://www.w3.org/1999/xlink"
   xmlns="http://www.w3.org/2000/svg"
   xmlns:svg="http://www.w3.org/2000/svg">
  <defs
     id="defs2">
    <linearGradient
       inkscape:collect="always"
       xlink:href="#linearGradient10"
       id="linearGradient11"
       x1="8"
       y1="13"
       x2="8"
       y2="4"
       gradientUnits="userSpaceOnUse"
       gradientTransform="translate(-3,3)" />
    <linearGradient
       id="linearGradient10"
       inkscape:collect="always">
      <stop
         style="stop-color:#1983f0;stop-opacity:1;"
         offset="0"
         id="stop10" />
      <stop
         style="stop-color:#33aefa;stop-opacity:1;"
         offset="1"
         id="stop11" />
    </linearGradient>
  </defs>
  <sodipodi:namedview
     id="namedview2"
     pagecolor="#ffffff"
     bordercolor="#000000"
     borderopacity="0.25"
     inkscape:showpageshadow="2"
     inkscape:pageopacity="0.0"
     inkscape:pagecheckerboard="0"
     inkscape:deskcolor="#d1d1d1"
     showgrid="true"
     inkscape:zoom="72"
     inkscape:cx="9.3263889"
     inkscape:cy="13.111111"
     inkscape:window-width="2560"
     inkscape:window-height="1356"
     inkscape:window-x="0"
     inkscape:window-y="0"
     inkscape:window-maximized="1"
     inkscape:current-layer="svg2">
    <inkscape:grid
       id="grid2"
       units="px"
       originx="0"
       originy="0"
       spacingx="1"
       spacingy="1"
       empcolor="#0099e5"
       empopacity="0.30196078"
       color="#0099e5"
       opacity="0.14901961"
       empspacing="5"
       dotted="false"
       gridanglex="30"
       gridanglez="30"
       visible="true" />
  </sodipodi:namedview>
  <style
     id="current-color-scheme"
     type="text/css">
        .ColorScheme-Text {
            color:#232629;
        }
    </style>
  <g
     id="g2"
     transform="translate(3,-3)">
    <path
       id="rect11"
       style="fill:#e4edff;stroke-width:2;stroke-linecap:round;stroke-linejoin:round;paint-order:stroke fill markers"
       d="m 4,5 h 2 v 6 H 4 Z" />
    <path
       id="rect6"
       style="fill:url(#linearGradient11);stroke-width:2;stroke-linecap:round;stroke-linejoin:round;paint-order:stroke fill markers"
       d="m 5,11 c -0.5539994,0 -1,0 -1,0 v 2.265625 C 3.4011427,13.610399 3,14.256641 3,15 3,16.107999 3.8920011,17 5,17 6.1079989,17 7,16.107999 7,15 7,14.256641 6.5988573,13.610399 6,13.265625 V 11 c 0,0 -0.4460006,0 -1,0 z"
       sodipodi:nodetypes="sccsssccs" />
    <path
       id="rect2"
       style="fill:#0a5dbf;fill-opacity:1;stroke-width:2;stroke-linecap:round;stroke-linejoin:round;paint-order:stroke fill markers"
       d="M 5,4 C 3.8920044,4 3,4.8920044 3,6 v 6.78125 C 2.3863352,13.327396 2,14.123767 2,15.013672 2,16.66797 3.3320293,18 4.9863281,18 h 0.027344 C 6.6679705,18 8,16.66797 8,15.013672 8,14.123767 7.613664,13.327396 7,12.78125 V 12.013672 11 10 9 8 7 6 C 7,4.8920044 6.1079956,4 5,4 Z M 5,5 C 5.5539976,5 6,5.4460024 6,6 V 7 H 5 V 8 H 6 V 9 H 5 v 1 h 1 v 1 H 5 v 1.013672 h 1 v 1.251953 C 6.5988555,13.610399 7,14.256644 7,15 7,16.107996 6.1079956,17 5,17 3.8920044,17 3,16.107996 3,15 3,14.256644 3.4011445,13.610399 4,13.265625 V 6 C 4,5.4460024 4.4460024,5 5,5 Z m 0,9 c -0.5539994,0 -1,0.446001 -1,1 0,0.553999 0.4460006,1 1,1 0.5539994,0 1,-0.446001 1,-1 0,-0.553999 -0.4460006,-1 -1,-1 z" />
  </g>
</svg>
