<?xml version="1.0" encoding="UTF-8" standalone="no"?>
<svg
   viewBox="0 0 16 16"
   version="1.1"
   id="svg2"
   sodipodi:docname="temperature-normal.svg"
   inkscape:version="1.3.2 (091e20ef0f, 2023-11-25, custom)"
   xmlns:inkscape="http://www.inkscape.org/namespaces/inkscape"
   xmlns:sodipodi="http://sodipodi.sourceforge.net/DTD/sodipodi-0.dtd"
   xmlns:xlink="http://www.w3.org/1999/xlink"
   xmlns="http://www.w3.org/2000/svg"
   xmlns:svg="http://www.w3.org/2000/svg">
  <defs
     id="defs2">
    <linearGradient
       inkscape:collect="always"
       xlink:href="#linearGradient12"
       id="linearGradient13"
       x1="1.3503066"
       y1="12"
       x2="1.4614179"
       y2="3"
       gradientUnits="userSpaceOnUse"
       gradientTransform="translate(6.788582)" />
    <linearGradient
       id="linearGradient12"
       inkscape:collect="always">
      <stop
         style="stop-color:#b7d6ff;stop-opacity:1;"
         offset="0"
         id="stop12" />
      <stop
         style="stop-color:#e3edff;stop-opacity:1;"
         offset="1"
         id="stop13" />
    </linearGradient>
    <linearGradient
       inkscape:collect="always"
       xlink:href="#linearGradient14"
       id="linearGradient15"
       x1="1"
       y1="14"
       x2="1"
       y2="1"
       gradientUnits="userSpaceOnUse"
       gradientTransform="translate(6.7885821)" />
    <linearGradient
       id="linearGradient14"
       inkscape:collect="always">
      <stop
         style="stop-color:#9ab5d9;stop-opacity:1;"
         offset="0"
         id="stop14" />
      <stop
         style="stop-color:#c6ccd9;stop-opacity:1;"
         offset="1"
         id="stop15" />
    </linearGradient>
  </defs>
  <sodipodi:namedview
     id="namedview2"
     pagecolor="#ffffff"
     bordercolor="#000000"
     borderopacity="0.25"
     inkscape:showpageshadow="2"
     inkscape:pageopacity="0.0"
     inkscape:pagecheckerboard="0"
     inkscape:deskcolor="#d1d1d1"
     inkscape:zoom="36"
     inkscape:cx="14.236111"
     inkscape:cy="6.6388889"
     inkscape:window-width="2560"
     inkscape:window-height="1356"
     inkscape:window-x="0"
     inkscape:window-y="0"
     inkscape:window-maximized="1"
     inkscape:current-layer="svg2" />
  <style
     id="current-color-scheme"
     type="text/css">
        .ColorScheme-Text {
            color:#232629;
        }
    </style>
  <path
     id="rect6-7"
     style="fill:url(#linearGradient13);fill-opacity:1;stroke-width:2;stroke-linecap:round;stroke-linejoin:round;paint-order:stroke fill markers"
     d="M 8,2 C 7.446001,2 7,2.446001 7,3 v 7.265625 C 6.401143,10.610399 6,11.256641 6,12 c 0,1.107999 0.892001,2 2,2 1.107999,0 2,-0.892001 2,-2 0,-0.743359 -0.401143,-1.389601 -1,-1.734375 V 3 C 9,2.446001 8.553999,2 8,2 Z" />
  <path
     id="rect2-5"
     style="fill:url(#linearGradient15);fill-opacity:1;stroke-width:2;stroke-linecap:round;stroke-linejoin:round;paint-order:stroke fill markers"
     d="m 8.0000001,1 c -1.107996,0 -2,0.892004 -2,2 V 9.78125 C 5.3863351,10.327396 4.9999999,11.123767 4.9999999,12.013672 4.9999999,13.66797 6.3320291,15 7.9863281,15 h 0.02734 C 9.6679701,15 11,13.66797 11,12.013672 11,11.123767 10.613664,10.327396 10,9.78125 V 9.013672 8 7 6 5 4 3 C 10,1.892004 9.1079961,1 8.0000001,1 Z m 0,1 c 0.553998,0 1,0.446002 1,1 v 1 h -1 v 1 h 1 v 1 h -1 v 1 h 1 v 1 h -1 v 1.013672 h 1 v 1.251953 C 9.5988551,10.610399 10,11.256644 10,12 c 0,1.107996 -0.8920039,2 -1.9999999,2 -1.107996,0 -2,-0.892004 -2,-2 0,-0.743356 0.401145,-1.389601 1,-1.734375 V 3 c 0,-0.553998 0.446002,-1 1,-1 z m 0,9 c -0.553999,0 -1,0.446001 -1,1 0,0.553999 0.446001,1 1,1 0.553999,0 1,-0.446001 1,-1 0,-0.553999 -0.446001,-1 -1,-1 z" />
</svg>
