<?xml version="1.0" encoding="UTF-8" standalone="no"?>
<svg
   viewBox="0 0 16 16"
   version="1.1"
   id="svg2"
   sodipodi:docname="user-idle.svg"
   xml:space="preserve"
   inkscape:version="1.3.2 (091e20ef0f, 2023-11-25, custom)"
   xmlns:inkscape="http://www.inkscape.org/namespaces/inkscape"
   xmlns:sodipodi="http://sodipodi.sourceforge.net/DTD/sodipodi-0.dtd"
   xmlns:xlink="http://www.w3.org/1999/xlink"
   xmlns="http://www.w3.org/2000/svg"
   xmlns:svg="http://www.w3.org/2000/svg"><defs
     id="defs2"><linearGradient
       id="linearGradient6"
       inkscape:collect="always"><stop
         style="stop-color:#5563b2;stop-opacity:1;"
         offset="0"
         id="stop6" /><stop
         style="stop-color:#7885ca;stop-opacity:1;"
         offset="1"
         id="stop7" /></linearGradient><style
       type="text/css"
       id="current-color-scheme">
      .ColorScheme-Text {
        color:#36404d;
      }
      </style><style
       type="text/css"
       id="current-color-scheme-67">
      .ColorScheme-Text {
        color:#122036;
      }
      </style><style
       type="text/css"
       id="current-color-scheme-7">
      .ColorScheme-Text {
        color:#122036;
      }
      </style><style
       type="text/css"
       id="current-color-scheme-5">
      .ColorScheme-Text {
        color:#122036;
      }
      </style><style
       type="text/css"
       id="current-color-scheme-6">
      .ColorScheme-Text {
        color:#122036;
      }
      </style><style
       type="text/css"
       id="current-color-scheme-1">
      .ColorScheme-Text {
        color:#122036;
      }
      </style><style
       id="current-color-scheme-10"
       type="text/css">
      .ColorScheme-Text {
        color:#122036;
      }
      </style><style
       id="current-color-scheme-5-7"
       type="text/css">
      .ColorScheme-Text {
        color:#122036;
      }
      </style><style
       id="current-color-scheme-1-2"
       type="text/css">
      .ColorScheme-Text {
        color:#122036;
      }
      </style><style
       type="text/css"
       id="current-color-scheme-10-9">
      .ColorScheme-Text {
        color:#122036;
      }
      </style><style
       type="text/css"
       id="current-color-scheme-3">
      .ColorScheme-Text {
        color:#36404d;
      }
      </style><style
       type="text/css"
       id="current-color-scheme-67-5">
      .ColorScheme-Text {
        color:#122036;
      }
      </style><style
       type="text/css"
       id="current-color-scheme-7-6">
      .ColorScheme-Text {
        color:#122036;
      }
      </style><style
       type="text/css"
       id="current-color-scheme-5-2">
      .ColorScheme-Text {
        color:#122036;
      }
      </style><style
       type="text/css"
       id="current-color-scheme-6-9">
      .ColorScheme-Text {
        color:#122036;
      }
      </style><style
       type="text/css"
       id="current-color-scheme-1-1">
      .ColorScheme-Text {
        color:#122036;
      }
      </style><style
       id="current-color-scheme-10-2"
       type="text/css">
      .ColorScheme-Text {
        color:#122036;
      }
      </style><style
       id="current-color-scheme-5-7-7"
       type="text/css">
      .ColorScheme-Text {
        color:#122036;
      }
      </style><style
       id="current-color-scheme-1-2-0"
       type="text/css">
      .ColorScheme-Text {
        color:#122036;
      }
      </style><style
       type="text/css"
       id="current-color-scheme-10-9-9">
      .ColorScheme-Text {
        color:#122036;
      }
      </style><linearGradient
       inkscape:collect="always"
       xlink:href="#linearGradient6"
       id="linearGradient7"
       x1="7.9589844"
       y1="13"
       x2="8.0410156"
       y2="3.0839844"
       gradientUnits="userSpaceOnUse" /></defs><sodipodi:namedview
     id="namedview2"
     pagecolor="#ffffff"
     bordercolor="#000000"
     borderopacity="0.25"
     inkscape:showpageshadow="2"
     inkscape:pageopacity="0.0"
     inkscape:pagecheckerboard="0"
     inkscape:deskcolor="#d1d1d1"
     showgrid="true"
     inkscape:zoom="36"
     inkscape:cx="4.875"
     inkscape:cy="9.1111111"
     inkscape:window-width="2560"
     inkscape:window-height="1356"
     inkscape:window-x="0"
     inkscape:window-y="0"
     inkscape:window-maximized="1"
     inkscape:current-layer="svg2"><inkscape:grid
       id="grid2"
       units="px"
       originx="0"
       originy="0"
       spacingx="1"
       spacingy="1"
       empcolor="#0099e5"
       empopacity="0.30196078"
       color="#0099e5"
       opacity="0.14901961"
       empspacing="5"
       dotted="false"
       gridanglex="30"
       gridanglez="30"
       visible="true" /></sodipodi:namedview><g
     id="g2"
     transform="matrix(3.7795276,0,0,3.7795276,-4.0069441,-3.9999996)"><path
       id="rect2"
       style="fill:#4a5599;stroke-width:0.529167;stroke-linecap:round;stroke-linejoin:round;paint-order:stroke fill markers;fill-opacity:1"
       d="M 3.1768373 1.5874999 C 2.2973632 1.5874999 1.5893373 2.2955258 1.5893373 3.1749999 C 1.5893373 4.054474 2.2973632 4.7624998 3.1768373 4.7624998 L 4.223285 4.7624998 C 4.458234 4.7624136 4.5765455 4.4789851 4.4113872 4.3118814 L 4.348342 4.2483193 C 4.6068574 3.9661312 4.7643372 3.5896309 4.7643372 3.1749999 C 4.7643372 2.2955258 4.0563114 1.5874999 3.1768373 1.5874999 z " /></g><path
     id="rect3"
     style="fill:url(#linearGradient7);fill-opacity:1;stroke-width:2;stroke-linecap:round;stroke-linejoin:round;paint-order:stroke fill markers"
     d="M 7.9589844 3.0839844 C 5.2120704 3.0839844 3 5.2941016 3 8.0410156 C 3 10.78793 5.2120704 13 7.9589844 13 L 8 13 L 8.0410156 13 L 11.955078 13 L 10.996094 12.029297 C 12.213444 11.127478 13 9.6790403 13 8.0410156 C 13 5.2941016 10.78793 3.0839844 8.0410156 3.0839844 L 7.9589844 3.0839844 z " /><g
     id="path4" /><path
     id="rect6-6"
     style="fill:#4a5599;fill-opacity:1;stroke:none;stroke-width:2.05798;stroke-linecap:round;stroke-linejoin:round;stroke-opacity:1;paint-order:stroke fill markers"
     d="M 5,8 C 4.4460006,8 4,8.4460006 4,9 4,9.5539994 4.4460006,10 5,10 5.5539994,10 6,9.5539994 6,9 6,8.4460006 5.5539994,8 5,8 Z M 8,8 C 7.4460006,8 7,8.4460006 7,9 7,9.5539994 7.4460006,10 8,10 8.5539994,10 9,9.5539994 9,9 9,8.4460006 8.5539994,8 8,8 Z m 3,0 c -0.553999,0 -1,0.4460006 -1,1 0,0.5539994 0.446001,1 1,1 0.553999,0 1,-0.4460006 1,-1 0,-0.5539994 -0.446001,-1 -1,-1 z" /><path
     id="rect6"
     style="fill:#e7e8f1;fill-opacity:1;stroke:none;stroke-width:2.05798;stroke-linecap:round;stroke-linejoin:round;stroke-opacity:1;paint-order:stroke fill markers"
     d="M 5 7 C 4.4460006 7 4 7.4460006 4 8 C 4 8.5539994 4.4460006 9 5 9 C 5.5539994 9 6 8.5539994 6 8 C 6 7.4460006 5.5539994 7 5 7 z M 8 7 C 7.4460006 7 7 7.4460006 7 8 C 7 8.5539994 7.4460006 9 8 9 C 8.5539994 9 9 8.5539994 9 8 C 9 7.4460006 8.5539994 7 8 7 z M 11 7 C 10.446001 7 10 7.4460006 10 8 C 10 8.5539994 10.446001 9 11 9 C 11.553999 9 12 8.5539994 12 8 C 12 7.4460006 11.553999 7 11 7 z " /></svg>
