<?xml version="1.0" encoding="UTF-8"?>
<svg id="d" width="16" height="16" version="1.1" xmlns="http://www.w3.org/2000/svg" xmlns:cc="http://creativecommons.org/ns#" xmlns:dc="http://purl.org/dc/elements/1.1/" xmlns:rdf="http://www.w3.org/1999/02/22-rdf-syntax-ns#">
	<metadata id="a">
		<rdf:RDF>
			<cc:Work rdf:about="">
				<dc:format>image/svg+xml</dc:format>
				<dc:type rdf:resource="http://purl.org/dc/dcmitype/StillImage"/>
			</cc:Work>
		</rdf:RDF>
	</metadata>
	<defs>
		<style id="current-color-scheme" type="text/css">.ColorScheme-Text{color:#090d11;}.ColorScheme-Background{color:#ffffff;}</style>
	</defs>
	<path id="b" class="ColorScheme-Background" d="m7.8789 0c-0.1192 0.0018527-0.23888 0.0064794-0.35742 0.013672-2.845 0.17262-5.4804 1.8655-6.7578 4.5742-1.7032 3.6116-0.47662 7.9356 2.8691 10.115 0.2314 0.15033 0.54085 0.08477 0.69141-0.14648 0.1507-0.2309 0.086044-0.54021-0.14453-0.69141-2.9335-1.9111-4.0051-5.685-2.5117-8.8516 1.4934-3.1666 5.0871-4.7412 8.4277-3.6934 3.3406 1.0478 5.3893 4.3915 4.8066 7.8438-0.58266 3.4522-3.6158 5.9387-7.1152 5.832-0.27619-0.0088-0.50713 0.20817-0.51562 0.48438-0.00877 0.27619 0.20817 0.50713 0.48438 0.51562 3.9913 0.12165 7.4683-2.7266 8.1328-6.6641 0.66455-3.9374-1.6841-7.7698-5.4941-8.9648-0.83346-0.26142-1.6812-0.38016-2.5156-0.36719zm-1.8789 5c-0.554 0-1 0.446-1 1s0.446 1 1 1 1-0.446 1-1-0.446-1-1-1zm0.5 4c-0.277 0-0.5 0.223-0.5 0.5v6c0 0.277 0.223 0.5 0.5 0.5s0.5-0.223 0.5-0.5v-6c0-0.277-0.223-0.5-0.5-0.5z" style="fill-opacity:.5;fill:currentColor"/>
	<path id="c" class="ColorScheme-Text" d="m8.07 1c-0.20854 0-0.41671 0.01-0.62305 0.024-2.476 0.2014-4.7445 1.719-5.8164 4.0976-1.4292 3.1715-0.3043 6.9203 2.6348 8.7813a0.50005 0.50005 0 1 0 0.53516-0.8438c-2.5247-1.5985-3.4855-4.8011-2.2578-7.5254 1.2276-2.7242 4.2647-4.1271 7.1348-3.2949s4.684 3.6413 4.2637 6.5996c-0.37269 2.6233-2.4014 4.6384-4.9394 5.0625v-3.9082a1.0001 1.0001 0 0 0-1.0156-1.0137 1.0001 1.0001 0 0 0-0.98437 1.0137v4a1.0001 1.0001 0 0 0 1.2324 0.9844c3.3792-0.1092 6.2187-2.6296 6.6973-5.9981 0.48929-3.444-1.6355-6.7323-4.9766-7.7011-0.62645-0.1817-1.2591-0.2722-1.8848-0.2774zm-0.0684 3.9922a1.0001 1.0001 0 0 0-1 1 1.0001 1.0001 0 0 0 1 1 1.0001 1.0001 0 0 0 1-1 1.0001 1.0001 0 0 0-1-1z" style="fill-opacity:.75;fill:currentColor"/>
</svg>
