<svg height="32" viewBox="0 0 32 32" width="32" xmlns="http://www.w3.org/2000/svg" xmlns:xlink="http://www.w3.org/1999/xlink"><defs id="antufoldercolor">
    <style type="text/css" id="current-color-scheme">
      .ColorScheme-Highlight {
        color:#45aaf5;
      }
      </style>
  </defs><linearGradient id="a" gradientUnits="userSpaceOnUse" x1="-2.30581551245" x2="-2.30581551245" y1="300.5974740281" y2="296.3641409081"><stop offset="0" stop-color="#fff" stop-opacity=".7"/><stop offset="1" stop-color="#fff" stop-opacity=".85"/></linearGradient><linearGradient id="b" gradientUnits="userSpaceOnUse" x1="7.936164" x2="8" y1="300.64395" y2="288.64999"><stop offset="0" stop-color="#fff" stop-opacity=".2"/><stop offset="1" stop-color="#fff" stop-opacity="0"/></linearGradient><linearGradient id="c" gradientUnits="userSpaceOnUse" x1="43.127081" x2="43.127081" y1="32.54375" y2="25.664585"><stop offset="0" stop-color="#fff" stop-opacity="0"/><stop offset="1" stop-color="#fff" stop-opacity=".2"/></linearGradient><g transform="matrix(3.7795276 0 0 3.7795276 -132.999998 -92.000009)"><path d="m1.999999 247.64999c-1.090678 0-2 .90931-2 2v26c0 1.09069.90931 2 2 2h27.999999c1.09069 0 2-.90931 2-2v-22c0-1.09069-.909322-2-2-2h-13.999999c-.166667 0-.219368-.025-.419922-.26563-.200555-.24067-.435547-.68163-.685547-1.18164-.25-.5-.515009-1.05903-.939453-1.56836-.424445-.50934-1.121746-.98437-1.955078-.98437z" style="fill:currentColor"
class="ColorScheme-Highlight" transform="matrix(.26458333 0 0 .26458333 35.189583 -40.917808)"/><path d="m-36.085507 285.06364c-1.090678 0-2 .90931-2 2v26c0 1.09068.90931 2 2 2h27.9999997c1.0906899 0 1.9999999-.90932 1.9999999-2v-22c0-1.09069-.909322-2-1.9999999-2h-13.9999997c-.166667 0-.219367-.025-.419922-.26563-.200555-.24067-.435547-.68163-.685547-1.18164-.25-.5-.515009-1.05903-.939453-1.56836-.424445-.50934-1.121746-.98437-1.955078-.98437zm0 1h10c1.999998 0 2.000002 4 4 4h13.9999997c.5540074 0 1 .44599 1 1v22c0 .554-.4459916 1-1 1h-27.9999997c-.554009 0-1-.446-1-1v-26c0-.55401.445991-1 1-1z" fill-opacity=".2" transform="matrix(.26458333 0 0 .26458333 45.266373 -50.816835)"/><path d="m1.9999999 288.65c-.5540096 0-.9999999.44598-.9999999.99999v26.00001c0 .554.4459903.99999.9999999.99999h28.0000011c.554009 0 .999999-.44599.999999-.99999v-22.00001c0-.55401-.445991-.99999-.999999-.99999l-14.000001-.00001c-2 0-2-4-4-4z" fill-opacity=".1" stroke-width="2" transform="matrix(.26458333 0 0 .26458333 35.200952 -51.501141)"/><path d="m1.9999999 288.65c-.5540096 0-.9999999.44598-.9999999.99999v26.00001c0 .554.4459903.99999.9999999.99999h28.0000011c.554009 0 .999999-.44599.999999-.99999v-22.00001c0-.55401-.445991-.99999-.999999-.99999l-14.000001-.00001c-2 0-2-4-4-4z" fill="url(#b)" stroke-width="2" transform="matrix(.26458333 0 0 .26458333 35.200952 -51.501141)"/><path d="m-12.000002-19.000003c-.833332 0-1.55429.549361-1.894531 1.09375-.340243.54439-.491342 1.088887-.666016 1.554688-.174673.465788-.360335.834396-.552734 1.035156-.1924.20077-.358941.316406-.886719.316406h-10c-1.090678 0-2 .909311-2 2v18c0 1.0906889.90931 2 2 2h28c1.0906899 0 1.9999999-.9093111 1.9999999-2v-22c0-1.090689-.909322-2-1.9999999-2z" style="fill:currentColor"
class="ColorScheme-Highlight" transform="matrix(.26458333 0 0 .26458333 42.597916 30.691667)"/><path d="m39.422915 25.664581c-.220485 0-.411239.145351-.501261.289388-.09002.144035-.130001.288101-.176217.411344-.04622.12324-.09534.220768-.146244.273885-.05091.05312-.09497.08372-.234611.08372h-2.645833c-.288575 0-.529167.240588-.529167.529166v4.7625c0 .288578.240589.529167.529167.529167h7.408333c.288578 0 .529167-.240589.529167-.529167v-5.820833c0-.288578-.240592-.529166-.529167-.529166z" fill="url(#c)"/><path d="m39.422915 25.664583c-.220485 0-.411239.145351-.501261.289388-.09002.144035-.130001.288101-.176217.411344-.04622.12324-.09534.220768-.146244.273885-.05091.05312-.09497.08372-.234611.08372h-2.645833c-.288575 0-.529167.240588-.529167.529166v4.7625c0 .288578.240589.529167.529167.529167h7.408333c.288578 0 .529167-.240589.529167-.529167v-5.820833c0-.288578-.240592-.529166-.529167-.529166zm0 .264583h3.704167c.146582 0 .264583.118001.264583.264583v5.820833c0 .146579-.118001.264584-.264583.264584h-7.408333c-.146582 0-.264584-.118005-.264584-.264584v-4.7625c0-.146581.118002-.264583.264584-.264583h2.645833c.793749 0 .529167-1.058333 1.058333-1.058333z" fill-opacity=".2"/><g transform="translate(43.328058 -268.85936)"><path d="m-3.0840607 296.6143a2.1166666 2.1306906 0 0 0 -1.5275554.62425 2.1166666 2.1306906 0 0 0 -.4588867 2.32183 2.1166666 2.1306906 0 0 0 1.9554361 1.31516v-.002h3.17499986v-.26458h-3.17499986a1.8520833 1.8643543 0 0 1 -.1850017-.009 1.8520833 1.8643543 0 0 1 -.1829345-.0279 1.8520833 1.8643543 0 0 1 -.1793171-.046 1.8520833 1.8643543 0 0 1 -.1741495-.0641 1.8520833 1.8643543 0 0 1 -.1663983-.0811 1.8520833 1.8643543 0 0 1 -.1581298-.0971 1.8520833 1.8643543 0 0 1 -.147278-.11317 1.8520833 1.8643543 0 0 1 -.135392-.12661 1.8520833 1.8643543 0 0 1 -.1219565-.14004 1.8520833 1.8643543 0 0 1 -.1080037-.15193 1.8520833 1.8643543 0 0 1 -.091984-.16175 1.8520833 1.8643543 0 0 1 -.060462-.13177 1.8520833 1.8643543 0 0 1 -.062528-.1757 1.8520833 1.8643543 0 0 1 -.044442-.18087 1.8520833 1.8643543 0 0 1 -.026355-.18448 1.8520833 1.8643543 0 0 1 -.00775-.18604 1.8520833 1.8643543 0 0 1 .010853-.18603 1.8520833 1.8643543 0 0 1 .028939-.18449 1.8520833 1.8643543 0 0 1 .047026-.17983 1.8520833 1.8643543 0 0 1 .064596-.17467 1.8520833 1.8643543 0 0 1 .081649-.16743 1.8520833 1.8643543 0 0 1 .098185-.15813 1.8520833 1.8643543 0 0 1 .1131716-.14728 1.8520833 1.8643543 0 0 1 .098185-.10697 1.8520833 1.8643543 0 0 1 .1369425-.12505 1.8520833 1.8643543 0 0 1 .1493449-.11059 1.8520833 1.8643543 0 0 1 .1591635-.0951 1.8520833 1.8643543 0 0 1 .1679485-.0786 1.8520833 1.8643543 0 0 1 .1746663-.0615 1.8520833 1.8643543 0 0 1 .1798338-.0434 1.8520833 1.8643543 0 0 1 .1834515-.0253 1.8520833 1.8643543 0 0 1 .1850014-.006 1.8520833 1.8643543 0 0 1 .1850017.0119 1.8520833 1.8643543 0 0 1 .1824178.0305 1.8520833 1.8643543 0 0 1 .1788006.0486 1.8520833 1.8643543 0 0 1 .1359091.0506 1.8520833 1.8643543 0 0 1 .1669147.0796 1.8520833 1.8643543 0 0 1 .1586466.0966 1.8520833 1.8643543 0 0 1 .1483114.11161 1.8520833 1.8643543 0 0 1 .1364257.12609 1.8520833 1.8643543 0 0 1 .12299.13901 1.8520833 1.8643543 0 0 1 .1090372.1509 1.8520833 1.8643543 0 0 1 .093018.16071 1.8520833 1.8643543 0 0 1 .076998.1695 1.8520833 1.8643543 0 0 1 .059428.17674 1.8520833 1.8643543 0 0 1 .041858.18138 1.8520833 1.8643543 0 0 1 .02377.185 1.8520833 1.8643543 0 0 1 .00569.14521h.26458326a2.1166666 2.1306906 0 0 0 -1.30689736-1.96835 2.1166666 2.1306906 0 0 0 -.7787637-.16227zm-.00775.5364a1.5874999 1.5980179 0 0 0 -1.1456659.46767 1.5874999 1.5980179 0 0 0 -.3441649 1.7415 1.5874999 1.5980179 0 0 0 1.4665771.9865v-.002h3.17499756v-.26459h-3.17499986a1.3229166 1.3316815 0 0 1 -.1322916-.007 1.3229166 1.3316815 0 0 1 -.1307415-.0196 1.3229166 1.3316815 0 0 1 -.1281576-.0331 1.3229166 1.3316815 0 0 1 -.1240234-.0455 1.3229166 1.3316815 0 0 1 -.1188556-.0584 1.3229166 1.3316815 0 0 1 -.1126548-.0693 1.3229166 1.3316815 0 0 1 -.1054198-.0806 1.3229166 1.3316815 0 0 1 -.096635-.091 1.3229166 1.3316815 0 0 1 -.087333-.0997 1.3229166 1.3316815 0 0 1 -.076998-.10852 1.3229166 1.3316815 0 0 1 -.065629-.11524 1.3229166 1.3316815 0 0 1 -.043408-.0946 1.3229166 1.3316815 0 0 1 -.044442-.12505 1.3229166 1.3316815 0 0 1 -.032039-.12919 1.3229166 1.3316815 0 0 1 -.018603-.13178 1.3229166 1.3316815 0 0 1 -.00568-.13332 1.3229166 1.3316815 0 0 1 .00775-.13281 1.3229166 1.3316815 0 0 1 .020672-.13126 1.3229166 1.3316815 0 0 1 .03359-.12868 1.3229166 1.3316815 0 0 1 .045992-.12505 1.3229166 1.3316815 0 0 1 .058394-.11938 1.3229166 1.3316815 0 0 1 .07028-.11317 1.3229166 1.3316815 0 0 1 .080615-.1049 1.3229166 1.3316815 0 0 1 .07028-.0765 1.3229166 1.3316815 0 0 1 .098185-.0894 1.3229166 1.3316815 0 0 1 .1064533-.0791 1.3229166 1.3316815 0 0 1 .1136883-.0677 1.3229166 1.3316815 0 0 1 .1198893-.0563 1.3229166 1.3316815 0 0 1 .1245402-.0439 1.3229166 1.3316815 0 0 1 .1286742-.031 1.3229166 1.3316815 0 0 1 .1312582-.0181 1.3229166 1.3316815 0 0 1 .131775-.005 1.3229166 1.3316815 0 0 1 .1322916.009 1.3229166 1.3316815 0 0 1 .1302245.0217 1.3229166 1.3316815 0 0 1 .1276408.0351 1.3229166 1.3316815 0 0 1 .097152.0357 1.3229166 1.3316815 0 0 1 .1193726.0574 1.3229166 1.3316815 0 0 1 .1131715.0687 1.3229166 1.3316815 0 0 1 .1059365.0796 1.3229166 1.3316815 0 0 1 .097152.0899 1.3229166 1.3316815 0 0 1 .088367.0992 1.3229166 1.3316815 0 0 1 .077515.108 1.3229166 1.3316815 0 0 1 .066663.11473 1.3229166 1.3316815 0 0 1 .054777.12144 1.3229166 1.3316815 0 0 1 .042892.12609 1.3229166 1.3316815 0 0 1 .029972.12919 1.3229166 1.3316815 0 0 1 .016536.13229 1.3229166 1.3316815 0 0 1 .00413.10387h.2645833a1.5874999 1.5980179 0 0 0 -.9797859-1.47638 1.5874999 1.5980179 0 0 0 -.5844603-.12144zm-.00775.53641a1.0583333 1.0653453 0 0 0 -.7637761.3116 1.0583333 1.0653453 0 0 0 -.2294432 1.16117 1.0583333 1.0653453 0 0 0 .9777179.65784v-.002h3.17499526v-.26459h-3.17499986a.79374997.79900896 0 0 1 -.079065-.004.79374997.79900896 0 0 1 -.078548-.0119.79374997.79900896 0 0 1 -.076998-.0196.79374997.79900896 0 0 1 -.074414-.0274.79374997.79900896 0 0 1 -.071313-.0346.79374997.79900896 0 0 1 -.067696-.0419.79374997.79900896 0 0 1 -.063562-.0481.79374997.79900896 0 0 1 -.057878-.0548.79374997.79900896 0 0 1 -.052193-.06.79374997.79900896 0 0 1 -.045992-.0651.79374997.79900896 0 0 1 -.039791-.0692.79374997.79900896 0 0 1 -.025839-.0563.79374997.79900896 0 0 1 -.026872-.0754.79374997.79900896 0 0 1 -.019119-.0775.79374997.79900896 0 0 1 -.010853-.0791.79374997.79900896 0 0 1 -.00362-.0796.79374997.79900896 0 0 1 .00465-.0801.79374997.79900896 0 0 1 .012401-.0786.79374997.79900896 0 0 1 .020153-.0775.79374997.79900896 0 0 1 .027905-.0744.79374997.79900896 0 0 1 .034623-.0718.79374997.79900896 0 0 1 .042375-.0677.79374997.79900896 0 0 1 .048059-.0636.79374997.79900896 0 0 1 .042375-.0455.79374997.79900896 0 0 1 .058911-.0537.79374997.79900896 0 0 1 .063562-.0476.79374997.79900896 0 0 1 .068213-.0408.79374997.79900896 0 0 1 .072347-.0336.79374997.79900896 0 0 1 .074931-.0264.79374997.79900896 0 0 1 .076998-.0186.79374997.79900896 0 0 1 .078548-.0109.79374997.79900896 0 0 1 .079065-.003.79374997.79900896 0 0 1 .079582.005.79374997.79900896 0 0 1 .078031.0129.79374997.79900896 0 0 1 .076481.0212.79374997.79900896 0 0 1 .058395.0217.79374997.79900896 0 0 1 .07183.0341.79374997.79900896 0 0 1 .067696.0413.79374997.79900896 0 0 1 .063562.0476.79374997.79900896 0 0 1 .058394.0543.79374997.79900896 0 0 1 .05271.0594.79374997.79900896 0 0 1 .046509.0646.79374997.79900896 0 0 1 .040307.0693.79374997.79900896 0 0 1 .033073.0723.79374997.79900896 0 0 1 .025321.076.79374997.79900896 0 0 1 .018087.0775.79374997.79900896 0 0 1 .00982.0791.79374997.79900896 0 0 1 .00259.0625h.2645833a1.0583333 1.0653453 0 0 0 -.6531972-.98443 1.0583333 1.0653453 0 0 0 -.3896402-.0806z" fill-opacity=".15"/><path d="m-3.0840607 296.34967a2.1166666 2.1306906 0 0 0 -1.5275554.62425 2.1166666 2.1306906 0 0 0 -.4588867 2.32182 2.1166666 2.1306906 0 0 0 1.9554361 1.31517v-.002h3.17499986v-.26459h-3.17499986a1.8520833 1.8643543 0 0 1 -.1850017-.009 1.8520833 1.8643543 0 0 1 -.1829345-.0279 1.8520833 1.8643543 0 0 1 -.1793171-.046 1.8520833 1.8643543 0 0 1 -.1741495-.0641 1.8520833 1.8643543 0 0 1 -.1663983-.0811 1.8520833 1.8643543 0 0 1 -.1581298-.0971 1.8520833 1.8643543 0 0 1 -.147278-.11317 1.8520833 1.8643543 0 0 1 -.135392-.12661 1.8520833 1.8643543 0 0 1 -.1219565-.14004 1.8520833 1.8643543 0 0 1 -.1080037-.15193 1.8520833 1.8643543 0 0 1 -.091984-.16175 1.8520833 1.8643543 0 0 1 -.060462-.13177 1.8520833 1.8643543 0 0 1 -.062528-.1757 1.8520833 1.8643543 0 0 1 -.044442-.18087 1.8520833 1.8643543 0 0 1 -.026355-.18449 1.8520833 1.8643543 0 0 1 -.00775-.18602 1.8520833 1.8643543 0 0 1 .010853-.18603 1.8520833 1.8643543 0 0 1 .028939-.18449 1.8520833 1.8643543 0 0 1 .047025-.17983 1.8520833 1.8643543 0 0 1 .064596-.17467 1.8520833 1.8643543 0 0 1 .081649-.16743 1.8520833 1.8643543 0 0 1 .098185-.15813 1.8520833 1.8643543 0 0 1 .1131716-.14728 1.8520833 1.8643543 0 0 1 .098185-.10697 1.8520833 1.8643543 0 0 1 .1369425-.12506 1.8520833 1.8643543 0 0 1 .1493448-.11058 1.8520833 1.8643543 0 0 1 .1591636-.0951 1.8520833 1.8643543 0 0 1 .1679485-.0786 1.8520833 1.8643543 0 0 1 .1746662-.0615 1.8520833 1.8643543 0 0 1 .1798339-.0434 1.8520833 1.8643543 0 0 1 .1834515-.0253 1.8520833 1.8643543 0 0 1 .1850014-.006 1.8520833 1.8643543 0 0 1 .1850017.0119 1.8520833 1.8643543 0 0 1 .1824177.0305 1.8520833 1.8643543 0 0 1 .1788007.0486 1.8520833 1.8643543 0 0 1 .135909.0506 1.8520833 1.8643543 0 0 1 .1669148.0796 1.8520833 1.8643543 0 0 1 .1586465.0966 1.8520833 1.8643543 0 0 1 .1483114.11162 1.8520833 1.8643543 0 0 1 .1364258.12609 1.8520833 1.8643543 0 0 1 .12299.13901 1.8520833 1.8643543 0 0 1 .1090371.15089 1.8520833 1.8643543 0 0 1 .093018.16072 1.8520833 1.8643543 0 0 1 .076998.1695 1.8520833 1.8643543 0 0 1 .059428.17673 1.8520833 1.8643543 0 0 1 .041858.18138 1.8520833 1.8643543 0 0 1 .02377.18501 1.8520833 1.8643543 0 0 1 .00568.14521h.26458326a2.1166666 2.1306906 0 0 0 -1.30689686-1.96836 2.1166666 2.1306906 0 0 0 -.7787637-.16226zm-.00775.5364a1.5874999 1.5980179 0 0 0 -1.1456659.46767 1.5874999 1.5980179 0 0 0 -.3441649 1.7415 1.5874999 1.5980179 0 0 0 1.4665771.9865v-.002h3.17499756v-.26458h-3.17499986a1.3229166 1.3316815 0 0 1 -.1322916-.007 1.3229166 1.3316815 0 0 1 -.1307415-.0196 1.3229166 1.3316815 0 0 1 -.1281576-.0331 1.3229166 1.3316815 0 0 1 -.1240234-.0455 1.3229166 1.3316815 0 0 1 -.1188556-.0584 1.3229166 1.3316815 0 0 1 -.1126548-.0693 1.3229166 1.3316815 0 0 1 -.1054198-.0806 1.3229166 1.3316815 0 0 1 -.096635-.091 1.3229166 1.3316815 0 0 1 -.087333-.0997 1.3229166 1.3316815 0 0 1 -.076998-.10852 1.3229166 1.3316815 0 0 1 -.065629-.11524 1.3229166 1.3316815 0 0 1 -.043408-.0946 1.3229166 1.3316815 0 0 1 -.044442-.12505 1.3229166 1.3316815 0 0 1 -.032039-.12919 1.3229166 1.3316815 0 0 1 -.018604-.13178 1.3229166 1.3316815 0 0 1 -.00568-.13332 1.3229166 1.3316815 0 0 1 .00775-.13281 1.3229166 1.3316815 0 0 1 .020672-.13126 1.3229166 1.3316815 0 0 1 .03359-.12867 1.3229166 1.3316815 0 0 1 .045992-.12506 1.3229166 1.3316815 0 0 1 .058394-.11937 1.3229166 1.3316815 0 0 1 .07028-.11318 1.3229166 1.3316815 0 0 1 .080615-.1049 1.3229166 1.3316815 0 0 1 .07028-.0765 1.3229166 1.3316815 0 0 1 .098185-.0894 1.3229166 1.3316815 0 0 1 .1064532-.0791 1.3229166 1.3316815 0 0 1 .1136883-.0677 1.3229166 1.3316815 0 0 1 .1198893-.0563 1.3229166 1.3316815 0 0 1 .1245402-.0439 1.3229166 1.3316815 0 0 1 .1286743-.031 1.3229166 1.3316815 0 0 1 .1312582-.0181 1.3229166 1.3316815 0 0 1 .1317749-.005 1.3229166 1.3316815 0 0 1 .1322917.009 1.3229166 1.3316815 0 0 1 .1302244.0217 1.3229166 1.3316815 0 0 1 .1276409.0351 1.3229166 1.3316815 0 0 1 .097151.0357 1.3229166 1.3316815 0 0 1 .1193726.0574 1.3229166 1.3316815 0 0 1 .1131715.0687 1.3229166 1.3316815 0 0 1 .1059366.0796 1.3229166 1.3316815 0 0 1 .097152.0899 1.3229166 1.3316815 0 0 1 .088367.0992 1.3229166 1.3316815 0 0 1 .077515.108 1.3229166 1.3316815 0 0 1 .066663.11472 1.3229166 1.3316815 0 0 1 .054777.12144 1.3229166 1.3316815 0 0 1 .042892.12609 1.3229166 1.3316815 0 0 1 .029972.12919 1.3229166 1.3316815 0 0 1 .016536.13229 1.3229166 1.3316815 0 0 1 .00413.10387h.2645831a1.5874999 1.5980179 0 0 0 -.9797851-1.47639 1.5874999 1.5980179 0 0 0 -.5844603-.12144zm-.00775.5364a1.0583333 1.0653453 0 0 0 -.7637761.31161 1.0583333 1.0653453 0 0 0 -.2294432 1.16117 1.0583333 1.0653453 0 0 0 .9777179.65784v-.002h3.17499526v-.26465h-3.17499986a.79374997.79900896 0 0 1 -.079065-.004.79374997.79900896 0 0 1 -.078548-.0119.79374997.79900896 0 0 1 -.076998-.0196.79374997.79900896 0 0 1 -.074414-.0274.79374997.79900896 0 0 1 -.071313-.0346.79374997.79900896 0 0 1 -.067696-.0419.79374997.79900896 0 0 1 -.063562-.0481.79374997.79900896 0 0 1 -.057878-.0548.79374997.79900896 0 0 1 -.052193-.0599.79374997.79900896 0 0 1 -.045992-.0651.79374997.79900896 0 0 1 -.039791-.0692.79374997.79900896 0 0 1 -.025839-.0563.79374997.79900896 0 0 1 -.026872-.0755.79374997.79900896 0 0 1 -.019119-.0775.79374997.79900896 0 0 1 -.010853-.0791.79374997.79900896 0 0 1 -.00362-.0796.79374997.79900896 0 0 1 .00465-.0801.79374997.79900896 0 0 1 .012401-.0786.79374997.79900896 0 0 1 .020153-.0775.79374997.79900896 0 0 1 .027905-.0744.79374997.79900896 0 0 1 .034623-.0718.79374997.79900896 0 0 1 .042375-.0677.79374997.79900896 0 0 1 .048059-.0636.79374997.79900896 0 0 1 .042375-.0455.79374997.79900896 0 0 1 .058911-.0537.79374997.79900896 0 0 1 .063562-.0476.79374997.79900896 0 0 1 .068213-.0408.79374997.79900896 0 0 1 .072347-.0336.79374997.79900896 0 0 1 .074931-.0264.79374997.79900896 0 0 1 .076998-.0186.79374997.79900896 0 0 1 .078548-.0108.79374997.79900896 0 0 1 .079065-.003.79374997.79900896 0 0 1 .079582.005.79374997.79900896 0 0 1 .078031.0129.79374997.79900896 0 0 1 .076481.0212.79374997.79900896 0 0 1 .058395.0217.79374997.79900896 0 0 1 .07183.0341.79374997.79900896 0 0 1 .067696.0413.79374997.79900896 0 0 1 .063562.0475.79374997.79900896 0 0 1 .058394.0543.79374997.79900896 0 0 1 .05271.0594.79374997.79900896 0 0 1 .046509.0646.79374997.79900896 0 0 1 .040307.0692.79374997.79900896 0 0 1 .033073.0723.79374997.79900896 0 0 1 .025321.076.79374997.79900896 0 0 1 .018087.0775.79374997.79900896 0 0 1 .00982.0791.79374997.79900896 0 0 1 .00259.0625h.2645833a1.0583333 1.0653453 0 0 0 -.6531901-.98443 1.0583333 1.0653453 0 0 0 -.3896402-.0806z" fill="url(#a)"/></g></g></svg>
