<svg height="32" viewBox="0 0 32 32" width="32" xmlns="http://www.w3.org/2000/svg" xmlns:xlink="http://www.w3.org/1999/xlink"><defs id="antufoldercolor">
    <style type="text/css" id="current-color-scheme">
      .ColorScheme-Highlight {
        color:#45aaf5;
      }
      </style>
  </defs><linearGradient id="a" gradientUnits="userSpaceOnUse" x1="20.372917" x2="20.372917" y1="295.67706" y2="292.50208"><stop offset="0" stop-color="#fff" stop-opacity=".7"/><stop offset="1" stop-color="#fff" stop-opacity=".85"/></linearGradient><linearGradient id="b" gradientUnits="userSpaceOnUse" x1="7.936164" x2="8" y1="300.64395" y2="288.64999"><stop offset="0" stop-color="#fff" stop-opacity=".2"/><stop offset="1" stop-color="#fff" stop-opacity="0"/></linearGradient><linearGradient id="c" gradientUnits="userSpaceOnUse" x1="43.127081" x2="43.127081" y1="32.54375" y2="25.664585"><stop offset="0" stop-color="#fff" stop-opacity="0"/><stop offset="1" stop-color="#fff" stop-opacity=".2"/></linearGradient><g transform="matrix(3.7795276 0 0 3.7795276 -132.999998 -92.000009)"><path d="m1.999999 247.64999c-1.090678 0-2 .90931-2 2v26c0 1.09069.90931 2 2 2h27.999999c1.09069 0 2-.90931 2-2v-22c0-1.09069-.909322-2-2-2h-13.999999c-.166667 0-.219368-.025-.419922-.26563-.200555-.24067-.435547-.68163-.685547-1.18164-.25-.5-.515009-1.05903-.939453-1.56836-.424445-.50934-1.121746-.98437-1.955078-.98437z" style="fill:currentColor"
class="ColorScheme-Highlight" transform="matrix(.26458333 0 0 .26458333 35.189583 -40.917808)"/><path d="m-36.085507 285.06364c-1.090678 0-2 .90931-2 2v26c0 1.09068.90931 2 2 2h27.9999997c1.0906899 0 1.9999999-.90932 1.9999999-2v-22c0-1.09069-.909322-2-1.9999999-2h-13.9999997c-.166667 0-.219367-.025-.419922-.26563-.200555-.24067-.435547-.68163-.685547-1.18164-.25-.5-.515009-1.05903-.939453-1.56836-.424445-.50934-1.121746-.98437-1.955078-.98437zm0 1h10c1.999998 0 2.000002 4 4 4h13.9999997c.5540074 0 1 .44599 1 1v22c0 .554-.4459916 1-1 1h-27.9999997c-.554009 0-1-.446-1-1v-26c0-.55401.445991-1 1-1z" fill-opacity=".2" transform="matrix(.26458333 0 0 .26458333 45.266373 -50.816835)"/><path d="m1.9999999 288.65c-.5540096 0-.9999999.44598-.9999999.99999v26.00001c0 .554.4459903.99999.9999999.99999h28.0000011c.554009 0 .999999-.44599.999999-.99999v-22.00001c0-.55401-.445991-.99999-.999999-.99999l-14.000001-.00001c-2 0-2-4-4-4z" fill-opacity=".1" stroke-width="2" transform="matrix(.26458333 0 0 .26458333 35.200952 -51.501141)"/><path d="m1.9999999 288.65c-.5540096 0-.9999999.44598-.9999999.99999v26.00001c0 .554.4459903.99999.9999999.99999h28.0000011c.554009 0 .999999-.44599.999999-.99999v-22.00001c0-.55401-.445991-.99999-.999999-.99999l-14.000001-.00001c-2 0-2-4-4-4z" fill="url(#b)" stroke-width="2" transform="matrix(.26458333 0 0 .26458333 35.200952 -51.501141)"/><path d="m-12.000002-19.000003c-.833332 0-1.55429.549361-1.894531 1.09375-.340243.54439-.491342 1.088887-.666016 1.554688-.174673.465788-.360335.834396-.552734 1.035156-.1924.20077-.358941.316406-.886719.316406h-10c-1.090678 0-2 .909311-2 2v18c0 1.0906889.90931 2 2 2h28c1.0906899 0 1.9999999-.9093111 1.9999999-2v-22c0-1.090689-.909322-2-1.9999999-2z" style="fill:currentColor"
class="ColorScheme-Highlight" transform="matrix(.26458333 0 0 .26458333 42.597916 30.691667)"/><path d="m39.422915 25.664581c-.220485 0-.411239.145351-.501261.289388-.09002.144035-.130001.288101-.176217.411344-.04622.12324-.09534.220768-.146244.273885-.05091.05312-.09497.08372-.234611.08372h-2.645833c-.288575 0-.529167.240588-.529167.529166v4.7625c0 .288578.240589.529167.529167.529167h7.408333c.288578 0 .529167-.240589.529167-.529167v-5.820833c0-.288578-.240592-.529166-.529167-.529166z" fill="url(#c)"/><path d="m39.422915 25.664583c-.220485 0-.411239.145351-.501261.289388-.09002.144035-.130001.288101-.176217.411344-.04622.12324-.09534.220768-.146244.273885-.05091.05312-.09497.08372-.234611.08372h-2.645833c-.288575 0-.529167.240588-.529167.529166v4.7625c0 .288578.240589.529167.529167.529167h7.408333c.288578 0 .529167-.240589.529167-.529167v-5.820833c0-.288578-.240592-.529166-.529167-.529166zm0 .264583h3.704167c.146582 0 .264583.118001.264583.264583v5.820833c0 .146579-.118001.264584-.264583.264584h-7.408333c-.146582 0-.264584-.118005-.264584-.264584v-4.7625c0-.146581.118002-.264583.264584-.264583h2.645833c.793749 0 .529167-1.058333 1.058333-1.058333z" fill-opacity=".2"/><g transform="matrix(.99999997178 0 0 .99999997178 19.04635696922 -264.45621930377)"><path d="m18.785417 292.23748c-.146576 0-.264583.11801-.264583.26459.0092 0 .01796.00065.02687.002.0089.0009.01773.002.02635.004.0086.002.01754.004.02584.007s.01637.005.02429.009c.0079.003.01524.007.02274.0114.0075.004.01518.008.02222.0129.007.005.01363.0101.02015.0155.0065.005.01263.0111.0186.0171.006.006.01167.0121.01705.0186.0054.007.01076.0131.0155.0202.0047.007.0089.0147.01292.0222.0041.007.008.0148.01137.0227.0033.008.0062.016.0088.0243.0026.008.005.0172.0067.0258.0018.009.0027.0174.0036.0264s.0016.0177.0016.0269c0 .009-.00065.018-.0016.0269-.0009.009-.0019.0177-.0036.0264-.0018.009-.0042.0175-.0067.0258-.0026.008-.0054.0164-.0088.0243-.0033.008-.0073.0152-.01137.0227-.0041.007-.0082.0152-.01292.0222-.0048.007-.01012.0136-.0155.0202-.0054.007-.01108.0126-.01705.0186-.006.006-.01207.0117-.0186.0171-.0065.005-.01312.0108-.02015.0155-.007.005-.01472.009-.02222.0129-.0075.004-.01482.008-.02274.0114-.0079.003-.01599.006-.02429.009s-.01721.005-.02584.007c-.0086.002-.01744.003-.02635.004-.0089.0009-.01771.002-.02687.002v.52917c.0092 0 .01796.00065.02687.002.0089.0009.01773.002.02635.004.0086.002.01754.004.02584.007s.01637.005.02429.009c.0079.003.01524.007.02274.0114.0075.004.01518.008.02222.0129.007.005.01363.0101.02015.0155.0065.005.01263.0111.0186.017.006.006.01167.0121.01705.0186.0054.007.01076.0131.0155.0202.0047.007.0089.0147.01292.0222.0041.007.008.0148.01137.0227.0033.008.0062.016.0088.0243.0026.008.005.0172.0067.0258.0018.009.0027.0169.0036.0258.0009.009.0016.0182.0016.0274 0 .009-.00065.018-.0016.0269-.0009.009-.0019.0177-.0036.0264-.0018.009-.0042.0175-.0067.0258-.0026.008-.0054.0164-.0088.0243-.0033.008-.0073.0152-.01137.0227-.0041.007-.0082.0152-.01292.0222-.0048.007-.01012.0136-.0155.0202-.0054.007-.01108.0126-.01705.0186-.006.006-.01207.0117-.0186.0171-.0065.005-.01312.0107-.02015.0155-.007.005-.01472.009-.02222.0129-.0075.004-.01482.008-.02274.0114-.0079.003-.01599.006-.02429.009s-.01721.005-.02584.007c-.0086.002-.01744.003-.02635.004-.0089.0009-.01771.002-.02687.002v.52916c.0092 0 .01796.00065.02687.002.0089.0009.01773.002.02635.004.0086.002.01754.004.02584.007s.01637.005.02429.009c.0079.003.01524.007.02274.0114.0075.004.01518.008.02222.0129.007.005.01363.0101.02015.0155.0065.005.01262.0111.0186.0171.006.006.01167.0121.01705.0186.0054.007.01076.0131.0155.0202.0047.007.0089.0147.01292.0222.0041.007.008.0148.01137.0227.0033.008.0062.016.0088.0243.0026.008.005.0172.0067.0258.0018.009.0027.0174.0036.0264s.0016.0177.0016.0269c0 .009-.00065.0179-.0016.0269-.0009.009-.0019.0177-.0036.0263-.0018.009-.0042.0176-.0067.0258-.0026.008-.0054.0164-.0088.0243-.0033.008-.0073.0152-.01137.0227-.0041.007-.0082.0152-.01292.0222-.0048.007-.01012.0136-.0155.0202-.0054.007-.01108.0126-.01705.0186-.006.006-.01207.0117-.0186.0171-.0065.005-.01312.0108-.02015.0155-.007.005-.01472.009-.02222.0129-.0075.004-.01482.008-.02274.0114-.0079.003-.01599.006-.02429.009s-.01721.005-.02584.007c-.0086.002-.01744.003-.02635.004-.0089.0009-.01771.002-.02687.002v.52917c.0092 0 .01796.00065.02687.002.0089.0009.01773.002.02635.004.0086.002.01754.004.02584.007s.01637.005.02429.009c.0079.003.01524.007.02274.0114.0075.004.01518.008.02222.0129.007.005.01363.0101.02015.0155.0065.005.01262.0111.0186.017.006.006.01167.0121.01705.0186.0054.007.01076.0131.0155.0202.0047.007.0089.0147.01292.0222.0041.007.008.0148.01137.0227.0033.008.0062.016.0088.0243.0026.008.005.0172.0067.0258.0018.009.0027.0174.0036.0264s.0016.0177.0016.0269c0 .009-.00065.018-.0016.0269-.0009.009-.0019.0177-.0036.0264-.0018.009-.0042.0175-.0067.0258-.0026.008-.0054.0164-.0088.0243-.0033.008-.0073.0152-.01137.0227-.0041.007-.0082.0152-.01292.0222-.0048.007-.01012.0136-.0155.0202-.0054.007-.01108.0126-.01705.0186-.006.006-.01207.0117-.0186.0171-.0065.005-.01312.0108-.02015.0155-.007.005-.01472.009-.02222.0129-.0075.004-.01482.008-.02274.0114-.0079.003-.01599.006-.02429.009s-.01721.005-.02584.007c-.0086.002-.01744.003-.02635.004-.0089.0009-.01771.002-.02687.002 0 .14658.118007.26459.264583.26459h.264584c0-.009.000676-.0181.0016-.0269.000873-.009.0019-.0173.0036-.0258.0017-.009.0037-.0166.0062-.0248.0025-.008.0055-.0165.0088-.0243.0032-.008.0069-.0153.01085-.0227.0039-.007.0083-.0147.01292-.0217.0046-.007.0092-.0137.01447-.0202.0052-.006.01072-.0127.01654-.0186.0058-.006.01225-.0117.0186-.0171.0064-.005.01278-.0107.01964-.0155.0069-.005.01388-.009.02119-.0129.0073-.004.01501-.008.02274-.0114.0077-.003.01568-.007.02377-.009.0081-.003.01638-.005.02481-.007.0084-.002.01712-.004.02584-.005.0087-.001.01739-.002.02635-.002.0023-.00005.0044 0 .0067 0 .0092 0 .01796.00065.02687.002.0089.0009.01773.002.02635.004.0086.002.01754.004.02584.007s.01637.005.02429.009c.0079.003.01524.007.02274.0114.0075.004.01519.008.02222.0129.007.005.01363.0101.02015.0155.0065.005.01263.0111.0186.0171.006.006.01167.0121.01705.0186.0054.007.01076.0131.0155.0202.0048.007.0089.0147.01292.0222.0041.007.008.0148.01137.0227.0033.008.0062.016.0088.0243.0026.008.005.0172.0067.0258.0018.009.0027.0174.0036.0263.0009.009.0016.0177.0016.0269h.529166c0-.009.000677-.0181.0015-.0269.000874-.009.0019-.0173.0036-.0258.0017-.009.0037-.0166.0062-.0248.0025-.008.0055-.0165.0088-.0243.0032-.008.0069-.0153.01085-.0227.004-.007.0083-.0147.01292-.0217.0046-.007.0092-.0137.01447-.0202.0052-.006.01072-.0127.01654-.0186.0058-.006.01225-.0117.0186-.0171.0064-.005.01278-.0107.01964-.0155.0068-.005.01388-.009.02119-.0129.0073-.004.01501-.008.02274-.0114.0077-.003.01568-.007.02377-.009.0081-.003.01638-.005.02481-.007.0084-.002.01712-.004.02584-.005.0087-.001.01739-.002.02635-.002.0023-.00005.0044 0 .0067 0 .0092 0 .01796.00065.02687.002.0089.0009.01773.002.02635.004.0086.002.01754.004.02584.007s.01637.005.02429.009c.0079.003.01524.007.02274.0114.0075.004.01518.008.02222.0129.007.005.01362.0101.02015.0155.0065.005.01263.0111.0186.0171.006.006.01167.0121.01705.0186.0054.007.01076.0131.0155.0202.0048.007.0089.0147.01292.0222.0041.007.008.0148.01137.0227.0033.008.0062.016.0088.0243.0026.008.005.0172.0067.0258.0018.009.0027.0174.0036.0263.0009.009.0015.0177.0015.0269h.529167c0-.009.000677-.0181.0015-.0269.000873-.009.0019-.0173.0036-.0258.0017-.009.0037-.0166.0062-.0248.0025-.008.0055-.0165.0088-.0243.0032-.008.0069-.0153.01085-.0227.0039-.007.0083-.0147.01292-.0217.0046-.007.0092-.0137.01447-.0202.0052-.006.01072-.0127.01654-.0186.0058-.006.01225-.0117.0186-.0171.0064-.005.01278-.0107.01964-.0155.0069-.005.01388-.009.02119-.0129.0073-.004.01501-.008.02274-.0114.0077-.003.01568-.007.02377-.009.0081-.003.01638-.005.02481-.007.0084-.002.01712-.004.02584-.005.0087-.001.01739-.002.02635-.002.0023-.00005.0044 0 .0067 0 .0092 0 .01796.00065.02687.002.0089.0009.01773.002.02635.004.0086.002.01754.004.02584.007s.01637.005.02429.009c.0079.003.01524.007.02274.0114.0075.004.01519.008.02222.0129.007.005.01362.0101.02015.0155.0065.005.01263.0111.0186.0171.006.006.01167.0121.01705.0186.0054.007.01076.0131.0155.0202.0047.007.0089.0147.01292.0222.0041.007.008.0148.01137.0227.0033.008.0062.016.0088.0243.0026.008.005.0172.0067.0258.0018.009.0027.0174.0036.0263.0009.009.0016.0177.0016.0269h.264583c.146576 0 .264584-.11801.264584-.26459-.0092 0-.01796-.00065-.02687-.002-.0089-.0009-.01773-.002-.02636-.004-.0086-.002-.01754-.004-.02584-.007s-.01637-.005-.02429-.009c-.0079-.003-.01524-.007-.02274-.0114-.0075-.004-.01518-.008-.02222-.0129-.007-.005-.01362-.0101-.02015-.0155-.0065-.005-.01262-.0111-.0186-.0171-.006-.006-.01167-.0121-.01705-.0186-.0054-.007-.01076-.0131-.0155-.0202-.0047-.007-.0089-.0147-.01292-.0222-.0041-.007-.008-.0148-.01137-.0227-.0033-.008-.0062-.016-.0088-.0243-.0026-.008-.005-.0172-.0067-.0258-.0018-.009-.0027-.0174-.0036-.0264s-.0015-.0177-.0015-.0269c0-.009.000676-.0181.0015-.0269.000873-.009.0019-.0173.0036-.0258.0017-.008.0037-.0166.0062-.0248.0025-.008.0055-.0165.0088-.0243.0032-.008.0069-.0153.01085-.0227.0039-.007.0083-.0147.01292-.0217.0046-.007.0092-.0137.01447-.0202.0052-.006.01072-.0126.01654-.0186.0058-.006.01225-.0117.0186-.017.0064-.005.01278-.0107.01964-.0155.0069-.005.01388-.009.02119-.0129.0073-.004.01501-.008.02274-.0114.0077-.003.01568-.007.02377-.009.0081-.003.01638-.005.02481-.007.0084-.002.01712-.004.02584-.005.0087-.001.01739-.002.02635-.002.0023-.00006.0044 0 .0067 0v-.52917c-.0092 0-.01796-.00065-.02687-.002-.0089-.0009-.01773-.002-.02635-.004-.0086-.002-.01754-.004-.02584-.007s-.01637-.005-.02429-.009c-.0079-.003-.01524-.007-.02274-.0114-.0075-.004-.01519-.008-.02222-.0129-.007-.005-.01363-.0101-.02015-.0155-.0065-.005-.01262-.0111-.0186-.0171-.006-.006-.01167-.0121-.01705-.0186-.0054-.007-.01076-.0131-.0155-.0202-.0048-.007-.0089-.0147-.01292-.0222-.0041-.007-.008-.0148-.01137-.0227-.0033-.008-.0062-.016-.0088-.0243-.0026-.008-.005-.0172-.0067-.0258-.0018-.009-.0027-.0174-.0036-.0263-.0009-.009-.0016-.0177-.0016-.0269 0-.009.000676-.0181.0016-.0269.000873-.009.0019-.0173.0036-.0258.0017-.009.0037-.0166.0062-.0248.0025-.008.0055-.0165.0088-.0243.0032-.008.0069-.0153.01085-.0227.0039-.007.0083-.0147.01292-.0217.0046-.007.0092-.0137.01447-.0202.0052-.006.01072-.0127.01654-.0186.0058-.006.01225-.0117.0186-.0171.0064-.005.01278-.0107.01964-.0155.0069-.005.01388-.009.02119-.0129.0073-.004.01501-.008.02274-.0114.0077-.003.01567-.007.02377-.009.0081-.003.01638-.005.02481-.007.0084-.002.01712-.004.02584-.005.0087-.001.01739-.002.02636-.002.0023-.00005.0044 0 .0067 0v-.52916c-.0092 0-.01796-.00065-.02687-.002-.0089-.0009-.01773-.002-.02636-.004-.0086-.002-.01754-.004-.02584-.007s-.01637-.005-.02429-.009c-.0079-.003-.01524-.007-.02274-.0114-.0075-.004-.01518-.008-.02222-.0129-.007-.005-.01363-.0101-.02015-.0155-.0065-.005-.01263-.0111-.0186-.0171-.006-.006-.01167-.0121-.01705-.0186-.0054-.007-.01076-.0131-.0155-.0202-.0048-.007-.0089-.0147-.01292-.0222-.0041-.007-.008-.0148-.01137-.0227-.0033-.008-.0062-.016-.0088-.0243-.0026-.008-.005-.0172-.0067-.0258-.0018-.009-.0027-.0174-.0036-.0264s-.0015-.0177-.0015-.0269c0-.009.000677-.0181.0015-.0269.000873-.009.0019-.0173.0036-.0258.0017-.008.0037-.0166.0062-.0248.0025-.008.0055-.0165.0088-.0243.0032-.008.0069-.0153.01085-.0227.0039-.007.0083-.0147.01292-.0217.0046-.007.0092-.0137.01447-.0202.0052-.006.01072-.0127.01654-.0186.0058-.006.01225-.0117.0186-.017.0064-.005.01278-.0107.01964-.0155.0069-.005.01388-.009.02119-.0129.0073-.004.01501-.008.02274-.0114.0077-.003.01568-.007.02377-.009.0081-.003.01638-.005.02481-.007.0084-.002.01712-.004.02584-.005.0087-.001.01739-.002.02635-.002.0023-.00006.0044 0 .0067 0v-.52917c-.0092 0-.01796-.00065-.02687-.002-.0089-.0009-.01773-.002-.02635-.004-.0086-.002-.01754-.004-.02584-.007s-.01637-.005-.02429-.009c-.0079-.003-.01524-.007-.02274-.0114-.0075-.004-.01519-.008-.02222-.0129-.007-.005-.01362-.0101-.02015-.0155-.0065-.005-.01263-.0111-.0186-.0171-.006-.006-.01167-.0121-.01705-.0186-.0054-.007-.01076-.0131-.0155-.0202-.0047-.007-.0089-.0147-.01292-.0222-.0041-.007-.008-.0148-.01137-.0227-.0033-.008-.0062-.016-.0088-.0243-.0026-.008-.005-.0172-.0067-.0258-.0018-.009-.0027-.0174-.0036-.0264s-.0016-.0177-.0016-.0269c0-.009.000676-.0181.0016-.0269.000873-.009.0019-.0173.0036-.0258.0017-.008.0037-.0166.0062-.0248.0025-.008.0055-.0165.0088-.0243.0032-.008.0069-.0153.01085-.0227.0039-.007.0083-.0147.01292-.0217.0046-.007.0092-.0137.01447-.0202.0052-.006.01072-.0126.01654-.0186.0058-.006.01225-.0117.0186-.0171.0064-.005.01278-.0107.01964-.0155.0069-.005.01388-.009.02119-.0129.0073-.004.01501-.008.02274-.0114.0077-.003.01567-.007.02377-.009.0081-.003.01638-.005.02481-.007.0084-.002.01712-.004.02584-.005.0087-.001.01739-.002.02635-.002.0023-.00006.0044 0 .0067 0 0-.14658-.118008-.26459-.264584-.26459h-.264583c0 .009-.00065.018-.0016.0269-.0009.009-.0019.0177-.0036.0263-.0018.009-.0041.0175-.0067.0258-.0026.008-.0054.0164-.0088.0243-.0033.008-.0073.0152-.01137.0227-.0041.007-.0082.0152-.01292.0222-.0048.007-.01012.0136-.0155.0202-.0054.007-.01108.0126-.01705.0186-.006.006-.01207.0117-.0186.0171-.0065.005-.01312.0107-.02015.0155-.007.005-.01472.009-.02222.0129-.0075.004-.01482.008-.02274.0114-.0079.003-.01599.006-.02429.009s-.01721.005-.02584.007c-.0086.002-.01744.003-.02635.004-.0089.0009-.01771.002-.02687.002-.0092 0-.01796-.00065-.02687-.002-.0089-.0009-.01773-.002-.02636-.004-.0086-.002-.01754-.004-.02584-.007s-.01637-.005-.02429-.009c-.0079-.003-.01524-.007-.02274-.0114-.0075-.004-.01518-.008-.02222-.0129-.007-.005-.01362-.0101-.02015-.0155-.0065-.005-.01263-.0111-.0186-.0171-.006-.006-.01167-.0121-.01705-.0186-.0054-.007-.01076-.0131-.0155-.0202-.0048-.007-.0089-.0147-.01292-.0222-.0041-.007-.008-.0148-.01137-.0227-.0033-.008-.0062-.016-.0088-.0243-.0026-.008-.005-.0172-.0067-.0258-.0018-.009-.0027-.0174-.0036-.0263-.0009-.009-.0015-.0177-.0015-.0269h-.529167c0 .009-.00065.018-.0015.0269-.0009.009-.0019.0177-.0036.0263-.0018.009-.0041.0175-.0067.0258-.0026.008-.0055.0164-.0088.0243-.0033.008-.0073.0152-.01137.0227-.0041.007-.0082.0152-.01292.0222-.0047.007-.01012.0136-.0155.0202-.0054.007-.01107.0126-.01705.0186-.006.006-.01207.0117-.0186.0171-.0065.005-.01312.0107-.02015.0155-.007.005-.01472.009-.02222.0129-.0075.004-.01482.008-.02274.0114-.0079.003-.01599.006-.02429.009s-.01721.005-.02584.007c-.0086.002-.01744.003-.02635.004-.0089.0009-.01771.002-.02687.002-.0092 0-.01796-.00065-.02687-.002-.0089-.0009-.01773-.002-.02635-.004-.0086-.002-.01754-.004-.02584-.007s-.01637-.005-.02429-.009c-.0079-.003-.01524-.007-.02274-.0114-.0075-.004-.01519-.008-.02222-.0129-.007-.005-.01363-.0101-.02015-.0155-.0065-.005-.01263-.0111-.0186-.0171-.006-.006-.01167-.0121-.01705-.0186-.0054-.007-.01076-.0131-.0155-.0202-.0047-.007-.0089-.0147-.01292-.0222-.0041-.007-.008-.0148-.01137-.0227-.0033-.008-.0062-.016-.0088-.0243-.0026-.008-.005-.0172-.0067-.0258-.0018-.009-.0027-.0174-.0036-.0263-.0009-.009-.0015-.0177-.0015-.0269h-.529336c0 .009-.000651.018-.0016.0269-.0009.009-.0019.0177-.0036.0263-.0018.009-.0042.0175-.0067.0258-.0026.008-.0054.0164-.0088.0243-.0033.008-.0073.0152-.01137.0227-.0041.007-.0082.0152-.01292.0222-.0048.007-.01012.0136-.0155.0202-.0054.007-.01108.0126-.01705.0186-.006.006-.01207.0117-.0186.0171-.0065.005-.01312.0107-.02015.0155-.007.005-.01472.009-.02222.0129-.0075.004-.01482.008-.02274.0114-.0079.003-.01599.006-.02429.009s-.01721.005-.02584.007c-.0086.002-.01744.003-.02635.004-.0089.0009-.01771.002-.02687.002-.0092 0-.01796-.00065-.02687-.002-.0089-.0009-.01773-.002-.02635-.004-.0086-.002-.01754-.004-.02584-.007s-.01637-.005-.02429-.009c-.0079-.003-.01524-.007-.02274-.0114-.0075-.004-.01519-.008-.02222-.0129-.007-.005-.01362-.0101-.02015-.0155-.0065-.005-.01263-.0111-.0186-.0171-.006-.006-.01167-.0121-.01705-.0186-.0054-.007-.01076-.0131-.0155-.0202-.0047-.007-.0089-.0147-.01292-.0222-.0041-.007-.008-.0148-.01137-.0227-.0033-.008-.0062-.016-.0088-.0243-.0026-.008-.005-.0172-.0067-.0258-.0018-.009-.0027-.0174-.0036-.0263-.0009-.009-.0016-.0177-.0016-.0269zm.529167.79375h2.116667v2.64584h-2.116667z" fill-opacity=".15"/><path d="m18.785421 291.9729c-.146576 0-.264583.11801-.264583.26459.0092 0 .01796.00065.02687.002.0089.0009.01773.002.02635.004.0086.002.01754.004.02584.007s.01637.005.02429.009c.0079.003.01524.007.02274.0114.0075.004.01518.008.02222.0129.007.005.01363.0101.02015.0155.0065.005.01263.0111.0186.0171.006.006.01167.0121.01705.0186.0054.007.01076.0131.0155.0202.0047.007.0089.0147.01292.0222.0041.007.008.0148.01137.0227.0033.008.0062.016.0088.0243.0026.008.005.0172.0067.0258.0018.009.0027.0174.0036.0264s.0016.0177.0016.0269c0 .009-.00065.018-.0016.0269-.0009.009-.0019.0177-.0036.0264-.0018.009-.0042.0175-.0067.0258-.0026.008-.0054.0164-.0088.0243-.0033.008-.0073.0152-.01137.0227-.0041.007-.0082.0152-.01292.0222-.0048.007-.01012.0136-.0155.0202-.0054.007-.01108.0126-.01705.0186-.006.006-.01207.0117-.0186.0171-.0065.005-.01312.0108-.02015.0155-.007.005-.01472.009-.02222.0129-.0075.004-.01482.008-.02274.0114-.0079.003-.01599.006-.02429.009s-.01721.005-.02584.007c-.0086.002-.01744.003-.02635.004-.0089.0009-.01771.002-.02687.002v.52917c.0092 0 .01796.00065.02687.002.0089.0009.01773.002.02635.004.0086.002.01754.004.02584.007s.01637.005.02429.009c.0079.003.01524.007.02274.0114.0075.004.01518.008.02222.0129.007.005.01363.0101.02015.0155.0065.005.01263.0111.0186.017.006.006.01167.0121.01705.0186.0054.007.01076.0131.0155.0202.0047.007.0089.0147.01292.0222.0041.007.008.0148.01137.0227.0033.008.0062.016.0088.0243.0026.008.005.0172.0067.0258.0018.009.0027.0169.0036.0258.0009.009.0016.0182.0016.0274 0 .009-.00065.018-.0016.0269-.0009.009-.0019.0177-.0036.0264-.0018.009-.0042.0175-.0067.0258-.0026.008-.0054.0164-.0088.0243-.0033.008-.0073.0152-.01137.0227-.0041.007-.0082.0152-.01292.0222-.0048.007-.01012.0136-.0155.0202-.0054.007-.01108.0126-.01705.0186-.006.006-.01207.0117-.0186.0171-.0065.005-.01312.0107-.02015.0155-.007.005-.01472.009-.02222.0129-.0075.004-.01482.008-.02274.0114-.0079.003-.01599.006-.02429.009s-.01721.005-.02584.007c-.0086.002-.01744.003-.02635.004-.0089.0009-.01771.002-.02687.002v.52916c.0092 0 .01796.00065.02687.002.0089.0009.01773.002.02635.004.0086.002.01754.004.02584.007s.01637.005.02429.009c.0079.003.01524.007.02274.0114.0075.004.01518.008.02222.0129.007.005.01363.0101.02015.0155.0065.005.01262.0111.0186.0171.006.006.01167.0121.01705.0186.0054.007.01076.0131.0155.0202.0047.007.0089.0147.01292.0222.0041.007.008.0148.01137.0227.0033.008.0062.016.0088.0243.0026.008.005.0172.0067.0258.0018.009.0027.0174.0036.0264s.0016.0177.0016.0269c0 .009-.00065.0179-.0016.0269-.0009.009-.0019.0177-.0036.0263-.0018.009-.0042.0176-.0067.0258-.0026.008-.0054.0164-.0088.0243-.0033.008-.0073.0152-.01137.0227-.0041.007-.0082.0152-.01292.0222-.0048.007-.01012.0136-.0155.0202-.0054.007-.01108.0126-.01705.0186-.006.006-.01207.0117-.0186.0171-.0065.005-.01312.0108-.02015.0155-.007.005-.01472.009-.02222.0129-.0075.004-.01482.008-.02274.0114-.0079.003-.01599.006-.02429.009s-.01721.005-.02584.007c-.0086.002-.01744.003-.02635.004-.0089.0009-.01771.002-.02687.002v.52917c.0092 0 .01796.00065.02687.002.0089.0009.01773.002.02635.004.0086.002.01754.004.02584.007s.01637.005.02429.009c.0079.003.01524.007.02274.0114.0075.004.01518.008.02222.0129.007.005.01363.0101.02015.0155.0065.005.01262.0111.0186.017.006.006.01167.0121.01705.0186.0054.007.01076.0131.0155.0202.0047.007.0089.0147.01292.0222.0041.007.008.0148.01137.0227.0033.008.0062.016.0088.0243.0026.008.005.0172.0067.0258.0018.009.0027.0174.0036.0264s.0016.0177.0016.0269c0 .009-.00065.018-.0016.0269-.0009.009-.0019.0177-.0036.0264-.0018.009-.0042.0175-.0067.0258-.0026.008-.0054.0164-.0088.0243-.0033.008-.0073.0152-.01137.0227-.0041.007-.0082.0152-.01292.0222-.0048.007-.01012.0136-.0155.0202-.0054.007-.01108.0126-.01705.0186-.006.006-.01207.0117-.0186.0171-.0065.005-.01312.0108-.02015.0155-.007.005-.01472.009-.02222.0129-.0075.004-.01482.008-.02274.0114-.0079.003-.01599.006-.02429.009s-.01721.005-.02584.007c-.0086.002-.01744.003-.02635.004-.0089.0009-.01771.002-.02687.002 0 .14658.118007.26459.264583.26459h.264584c0-.009.000676-.0181.0016-.0269.000873-.009.0019-.0173.0036-.0258.0017-.009.0037-.0166.0062-.0248.0025-.008.0055-.0165.0088-.0243.0032-.008.0069-.0153.01085-.0227.0039-.007.0083-.0147.01292-.0217.0046-.007.0092-.0137.01447-.0202.0052-.006.01072-.0127.01654-.0186.0058-.006.01225-.0117.0186-.0171.0064-.005.01278-.0107.01964-.0155.0069-.005.01388-.009.02119-.0129.0073-.004.01501-.008.02274-.0114.0077-.003.01568-.007.02377-.009.0081-.003.01638-.005.02481-.007.0084-.002.01712-.004.02584-.005.0087-.001.01739-.002.02635-.002.0023-.00005.0044 0 .0067 0 .0092 0 .01796.00065.02687.002.0089.0009.01773.002.02635.004.0086.002.01754.004.02584.007s.01637.005.02429.009c.0079.003.01524.007.02274.0114.0075.004.01519.008.02222.0129.007.005.01363.0101.02015.0155.0065.005.01263.0111.0186.0171.006.006.01167.0121.01705.0186.0054.007.01076.0131.0155.0202.0048.007.0089.0147.01292.0222.0041.007.008.0148.01137.0227.0033.008.0062.016.0088.0243.0026.008.005.0172.0067.0258.0018.009.0027.0174.0036.0263.0009.009.0016.0177.0016.0269h.529166c0-.009.000677-.0181.0015-.0269.000874-.009.0019-.0173.0036-.0258.0017-.009.0037-.0166.0062-.0248.0025-.008.0055-.0165.0088-.0243.0032-.008.0069-.0153.01085-.0227.004-.007.0083-.0147.01292-.0217.0046-.007.0092-.0137.01447-.0202.0052-.006.01072-.0127.01654-.0186.0058-.006.01225-.0117.0186-.0171.0064-.005.01278-.0107.01964-.0155.0068-.005.01388-.009.02119-.0129.0073-.004.01501-.008.02274-.0114.0077-.003.01568-.007.02377-.009.0081-.003.01638-.005.02481-.007.0084-.002.01712-.004.02584-.005.0087-.001.01739-.002.02635-.002.0023-.00005.0044 0 .0067 0 .0092 0 .01796.00065.02687.002.0089.0009.01773.002.02635.004.0086.002.01754.004.02584.007s.01637.005.02429.009c.0079.003.01524.007.02274.0114.0075.004.01518.008.02222.0129.007.005.01362.0101.02015.0155.0065.005.01263.0111.0186.0171.006.006.01167.0121.01705.0186.0054.007.01076.0131.0155.0202.0048.007.0089.0147.01292.0222.0041.007.008.0148.01137.0227.0033.008.0062.016.0088.0243.0026.008.005.0172.0067.0258.0018.009.0027.0174.0036.0263.0009.009.0015.0177.0015.0269h.529167c0-.009.000677-.0181.0015-.0269.000873-.009.0019-.0173.0036-.0258.0017-.009.0037-.0166.0062-.0248.0025-.008.0055-.0165.0088-.0243.0032-.008.0069-.0153.01085-.0227.0039-.007.0083-.0147.01292-.0217.0046-.007.0092-.0137.01447-.0202.0052-.006.01072-.0127.01654-.0186.0058-.006.01225-.0117.0186-.0171.0064-.005.01278-.0107.01964-.0155.0069-.005.01388-.009.02119-.0129.0073-.004.01501-.008.02274-.0114.0077-.003.01568-.007.02377-.009.0081-.003.01638-.005.02481-.007.0084-.002.01712-.004.02584-.005.0087-.001.01739-.002.02635-.002.0023-.00005.0044 0 .0067 0 .0092 0 .01796.00065.02687.002.0089.0009.01773.002.02635.004.0086.002.01754.004.02584.007s.01637.005.02429.009c.0079.003.01524.007.02274.0114.0075.004.01519.008.02222.0129.007.005.01362.0101.02015.0155.0065.005.01263.0111.0186.0171.006.006.01167.0121.01705.0186.0054.007.01076.0131.0155.0202.0047.007.0089.0147.01292.0222.0041.007.008.0148.01137.0227.0033.008.0062.016.0088.0243.0026.008.005.0172.0067.0258.0018.009.0027.0174.0036.0263.0009.009.0016.0177.0016.0269h.264583c.146576 0 .264584-.11801.264584-.26459-.0092 0-.01796-.00065-.02687-.002-.0089-.0009-.01773-.002-.02636-.004-.0086-.002-.01754-.004-.02584-.007s-.01637-.005-.02429-.009c-.0079-.003-.01524-.007-.02274-.0114-.0075-.004-.01518-.008-.02222-.0129-.007-.005-.01362-.0101-.02015-.0155-.0065-.005-.01262-.0111-.0186-.0171-.006-.006-.01167-.0121-.01705-.0186-.0054-.007-.01076-.0131-.0155-.0202-.0047-.007-.0089-.0147-.01292-.0222-.0041-.007-.008-.0148-.01137-.0227-.0033-.008-.0062-.016-.0088-.0243-.0026-.008-.005-.0172-.0067-.0258-.0018-.009-.0027-.0174-.0036-.0264s-.0015-.0177-.0015-.0269c0-.009.000676-.0181.0015-.0269.000873-.009.0019-.0173.0036-.0258.0017-.008.0037-.0166.0062-.0248.0025-.008.0055-.0165.0088-.0243.0032-.008.0069-.0153.01085-.0227.0039-.007.0083-.0147.01292-.0217.0046-.007.0092-.0137.01447-.0202.0052-.006.01072-.0126.01654-.0186.0058-.006.01225-.0117.0186-.017.0064-.005.01278-.0107.01964-.0155.0069-.005.01388-.009.02119-.0129.0073-.004.01501-.008.02274-.0114.0077-.003.01568-.007.02377-.009.0081-.003.01638-.005.02481-.007.0084-.002.01712-.004.02584-.005.0087-.001.01739-.002.02635-.002.0023-.00006.0044 0 .0067 0v-.52917c-.0092 0-.01796-.00065-.02687-.002-.0089-.0009-.01773-.002-.02635-.004-.0086-.002-.01754-.004-.02584-.007s-.01637-.005-.02429-.009c-.0079-.003-.01524-.007-.02274-.0114-.0075-.004-.01519-.008-.02222-.0129-.007-.005-.01363-.0101-.02015-.0155-.0065-.005-.01262-.0111-.0186-.0171-.006-.006-.01167-.0121-.01705-.0186-.0054-.007-.01076-.0131-.0155-.0202-.0048-.007-.0089-.0147-.01292-.0222-.0041-.007-.008-.0148-.01137-.0227-.0033-.008-.0062-.016-.0088-.0243-.0026-.008-.005-.0172-.0067-.0258-.0018-.009-.0027-.0174-.0036-.0263-.0009-.009-.0016-.0177-.0016-.0269 0-.009.000676-.0181.0016-.0269.000873-.009.0019-.0173.0036-.0258.0017-.009.0037-.0166.0062-.0248.0025-.008.0055-.0165.0088-.0243.0032-.008.0069-.0153.01085-.0227.0039-.007.0083-.0147.01292-.0217.0046-.007.0092-.0137.01447-.0202.0052-.006.01072-.0127.01654-.0186.0058-.006.01225-.0117.0186-.0171.0064-.005.01278-.0107.01964-.0155.0069-.005.01388-.009.02119-.0129.0073-.004.01501-.008.02274-.0114.0077-.003.01567-.007.02377-.009.0081-.003.01638-.005.02481-.007.0084-.002.01712-.004.02584-.005.0087-.001.01739-.002.02636-.002.0023-.00005.0044 0 .0067 0v-.52916c-.0092 0-.01796-.00065-.02687-.002-.0089-.0009-.01773-.002-.02636-.004-.0086-.002-.01754-.004-.02584-.007s-.01637-.005-.02429-.009c-.0079-.003-.01524-.007-.02274-.0114-.0075-.004-.01518-.008-.02222-.0129-.007-.005-.01363-.0101-.02015-.0155-.0065-.005-.01263-.0111-.0186-.0171-.006-.006-.01167-.0121-.01705-.0186-.0054-.007-.01076-.0131-.0155-.0202-.0048-.007-.0089-.0147-.01292-.0222-.0041-.007-.008-.0148-.01137-.0227-.0033-.008-.0062-.016-.0088-.0243-.0026-.008-.005-.0172-.0067-.0258-.0018-.009-.0027-.0174-.0036-.0264s-.0015-.0177-.0015-.0269c0-.009.000677-.0181.0015-.0269.000873-.009.0019-.0173.0036-.0258.0017-.008.0037-.0166.0062-.0248.0025-.008.0055-.0165.0088-.0243.0032-.008.0069-.0153.01085-.0227.0039-.007.0083-.0147.01292-.0217.0046-.007.0092-.0137.01447-.0202.0052-.006.01072-.0127.01654-.0186.0058-.006.01225-.0117.0186-.017.0064-.005.01278-.0107.01964-.0155.0069-.005.01388-.009.02119-.0129.0073-.004.01501-.008.02274-.0114.0077-.003.01568-.007.02377-.009.0081-.003.01638-.005.02481-.007.0084-.002.01712-.004.02584-.005.0087-.001.01739-.002.02635-.002.0023-.00006.0044 0 .0067 0v-.52917c-.0092 0-.01796-.00065-.02687-.002-.0089-.0009-.01773-.002-.02635-.004-.0086-.002-.01754-.004-.02584-.007s-.01637-.005-.02429-.009c-.0079-.003-.01524-.007-.02274-.0114-.0075-.004-.01519-.008-.02222-.0129-.007-.005-.01362-.0101-.02015-.0155-.0065-.005-.01263-.0111-.0186-.0171-.006-.006-.01167-.0121-.01705-.0186-.0054-.007-.01076-.0131-.0155-.0202-.0047-.007-.0089-.0147-.01292-.0222-.0041-.007-.008-.0148-.01137-.0227-.0033-.008-.0062-.016-.0088-.0243-.0026-.008-.005-.0172-.0067-.0258-.0018-.009-.0027-.0174-.0036-.0264s-.0016-.0177-.0016-.0269c0-.009.000676-.0181.0016-.0269.000873-.009.0019-.0173.0036-.0258.0017-.008.0037-.0166.0062-.0248.0025-.008.0055-.0165.0088-.0243.0032-.008.0069-.0153.01085-.0227.0039-.007.0083-.0147.01292-.0217.0046-.007.0092-.0137.01447-.0202.0052-.006.01072-.0126.01654-.0186.0058-.006.01225-.0117.0186-.0171.0064-.005.01278-.0107.01964-.0155.0069-.005.01388-.009.02119-.0129.0073-.004.01501-.008.02274-.0114.0077-.003.01567-.007.02377-.009.0081-.003.01638-.005.02481-.007.0084-.002.01712-.004.02584-.005.0087-.001.01739-.002.02635-.002.0023-.00006.0044 0 .0067 0 0-.14658-.118008-.26459-.264584-.26459h-.264583c0 .009-.00065.018-.0016.0269-.0009.009-.0019.0177-.0036.0263-.0018.009-.0041.0175-.0067.0258-.0026.008-.0054.0164-.0088.0243-.0033.008-.0073.0152-.01137.0227-.0041.007-.0082.0152-.01292.0222-.0048.007-.01012.0136-.0155.0202-.0054.007-.01108.0126-.01705.0186-.006.006-.01207.0117-.0186.0171-.0065.005-.01312.0107-.02015.0155-.007.005-.01472.009-.02222.0129-.0075.004-.01482.008-.02274.0114-.0079.003-.01599.006-.02429.009s-.01721.005-.02584.007c-.0086.002-.01744.003-.02635.004-.0089.0009-.01771.002-.02687.002-.0092 0-.01796-.00065-.02687-.002-.0089-.0009-.01773-.002-.02636-.004-.0086-.002-.01754-.004-.02584-.007s-.01637-.005-.02429-.009c-.0079-.003-.01524-.007-.02274-.0114-.0075-.004-.01518-.008-.02222-.0129-.007-.005-.01362-.0101-.02015-.0155-.0065-.005-.01263-.0111-.0186-.0171-.006-.006-.01167-.0121-.01705-.0186-.0054-.007-.01076-.0131-.0155-.0202-.0048-.007-.0089-.0147-.01292-.0222-.0041-.007-.008-.0148-.01137-.0227-.0033-.008-.0062-.016-.0088-.0243-.0026-.008-.005-.0172-.0067-.0258-.0018-.009-.0027-.0174-.0036-.0263-.0009-.009-.0015-.0177-.0015-.0269h-.529167c0 .009-.00065.018-.0015.0269-.0009.009-.0019.0177-.0036.0263-.0018.009-.0041.0175-.0067.0258-.0026.008-.0055.0164-.0088.0243-.0033.008-.0073.0152-.01137.0227-.0041.007-.0082.0152-.01292.0222-.0047.007-.01012.0136-.0155.0202-.0054.007-.01107.0126-.01705.0186-.006.006-.01207.0117-.0186.0171-.0065.005-.01312.0107-.02015.0155-.007.005-.01472.009-.02222.0129-.0075.004-.01482.008-.02274.0114-.0079.003-.01599.006-.02429.009s-.01721.005-.02584.007c-.0086.002-.01744.003-.02635.004-.0089.0009-.01771.002-.02687.002-.0092 0-.01796-.00065-.02687-.002-.0089-.0009-.01773-.002-.02635-.004-.0086-.002-.01754-.004-.02584-.007s-.01637-.005-.02429-.009c-.0079-.003-.01524-.007-.02274-.0114-.0075-.004-.01519-.008-.02222-.0129-.007-.005-.01363-.0101-.02015-.0155-.0065-.005-.01263-.0111-.0186-.0171-.006-.006-.01167-.0121-.01705-.0186-.0054-.007-.01076-.0131-.0155-.0202-.0047-.007-.0089-.0147-.01292-.0222-.0041-.007-.008-.0148-.01137-.0227-.0033-.008-.0062-.016-.0088-.0243-.0026-.008-.005-.0172-.0067-.0258-.0018-.009-.0027-.0174-.0036-.0263-.0009-.009-.0015-.0177-.0015-.0269h-.529336c0 .009-.000651.018-.0016.0269-.0009.009-.0019.0177-.0036.0263-.0018.009-.0042.0175-.0067.0258-.0026.008-.0054.0164-.0088.0243-.0033.008-.0073.0152-.01137.0227-.0041.007-.0082.0152-.01292.0222-.0048.007-.01012.0136-.0155.0202-.0054.007-.01108.0126-.01705.0186-.006.006-.01207.0117-.0186.0171-.0065.005-.01312.0107-.02015.0155-.007.005-.01472.009-.02222.0129-.0075.004-.01482.008-.02274.0114-.0079.003-.01599.006-.02429.009s-.01721.005-.02584.007c-.0086.002-.01744.003-.02635.004-.0089.0009-.01771.002-.02687.002-.0092 0-.01796-.00065-.02687-.002-.0089-.0009-.01773-.002-.02635-.004-.0086-.002-.01754-.004-.02584-.007s-.01637-.005-.02429-.009c-.0079-.003-.01524-.007-.02274-.0114-.0075-.004-.01519-.008-.02222-.0129-.007-.005-.01362-.0101-.02015-.0155-.0065-.005-.01263-.0111-.0186-.0171-.006-.006-.01167-.0121-.01705-.0186-.0054-.007-.01076-.0131-.0155-.0202-.0047-.007-.0089-.0147-.01292-.0222-.0041-.007-.008-.0148-.01137-.0227-.0033-.008-.0062-.016-.0088-.0243-.0026-.008-.005-.0172-.0067-.0258-.0018-.009-.0027-.0174-.0036-.0263-.0009-.009-.0016-.0177-.0016-.0269zm.529167.79375h2.116667v2.64584h-2.116667z" fill="url(#a)"/></g></g></svg>
