<svg height="32" viewBox="0 0 32 32" width="32" xmlns="http://www.w3.org/2000/svg" xmlns:xlink="http://www.w3.org/1999/xlink"><defs id="antufoldercolor">
    <style type="text/css" id="current-color-scheme">
      .ColorScheme-Highlight {
        color:#45aaf5;
      }
      </style>
  </defs><linearGradient id="a" gradientUnits="userSpaceOnUse" x1="8.000001" x2="8.000001" y1="292.649873" y2="277.649873"><stop offset="0" stop-color="#212121"/><stop offset="1" stop-color="#2c2c2c"/></linearGradient><linearGradient id="b" gradientUnits="userSpaceOnUse" x1="7.936164" x2="8" y1="300.64395" y2="288.64999"><stop offset="0" stop-color="#fff" stop-opacity=".2"/><stop offset="1" stop-color="#fff" stop-opacity="0"/></linearGradient><linearGradient id="c" gradientUnits="userSpaceOnUse" x1="43.127081" x2="43.127081" y1="32.54375" y2="25.664585"><stop offset="0" stop-color="#fff" stop-opacity="0"/><stop offset="1" stop-color="#fff" stop-opacity=".2"/></linearGradient><g transform="matrix(3.7795276 0 0 3.7795276 -132.999998 -92.000009)"><path d="m1.999999 247.64999c-1.090678 0-2 .90931-2 2v26c0 1.09069.90931 2 2 2h27.999999c1.09069 0 2-.90931 2-2v-22c0-1.09069-.909322-2-2-2h-13.999999c-.166667 0-.219368-.025-.419922-.26563-.200555-.24067-.435547-.68163-.685547-1.18164-.25-.5-.515009-1.05903-.939453-1.56836-.424445-.50934-1.121746-.98437-1.955078-.98437z" style="fill:currentColor"
class="ColorScheme-Highlight" transform="matrix(.26458333 0 0 .26458333 35.189583 -40.917808)"/><path d="m-36.085507 285.06364c-1.090678 0-2 .90931-2 2v26c0 1.09068.90931 2 2 2h27.9999997c1.0906899 0 1.9999999-.90932 1.9999999-2v-22c0-1.09069-.909322-2-1.9999999-2h-13.9999997c-.166667 0-.219367-.025-.419922-.26563-.200555-.24067-.435547-.68163-.685547-1.18164-.25-.5-.515009-1.05903-.939453-1.56836-.424445-.50934-1.121746-.98437-1.955078-.98437zm0 1h10c1.999998 0 2.000002 4 4 4h13.9999997c.5540074 0 1 .44599 1 1v22c0 .554-.4459916 1-1 1h-27.9999997c-.554009 0-1-.446-1-1v-26c0-.55401.445991-1 1-1z" fill-opacity=".2" transform="matrix(.26458333 0 0 .26458333 45.266373 -50.816835)"/><path d="m1.9999999 288.65c-.5540096 0-.9999999.44598-.9999999.99999v26.00001c0 .554.4459903.99999.9999999.99999h28.0000011c.554009 0 .999999-.44599.999999-.99999v-22.00001c0-.55401-.445991-.99999-.999999-.99999l-14.000001-.00001c-2 0-2-4-4-4z" fill-opacity=".1" stroke-width="2" transform="matrix(.26458333 0 0 .26458333 35.200952 -51.501141)"/><path d="m1.9999999 288.65c-.5540096 0-.9999999.44598-.9999999.99999v26.00001c0 .554.4459903.99999.9999999.99999h28.0000011c.554009 0 .999999-.44599.999999-.99999v-22.00001c0-.55401-.445991-.99999-.999999-.99999l-14.000001-.00001c-2 0-2-4-4-4z" fill="url(#b)" stroke-width="2" transform="matrix(.26458333 0 0 .26458333 35.200952 -51.501141)"/><path d="m-12.000002-19.000003c-.833332 0-1.55429.549361-1.894531 1.09375-.340243.54439-.491342 1.088887-.666016 1.554688-.174673.465788-.360335.834396-.552734 1.035156-.1924.20077-.358941.316406-.886719.316406h-10c-1.090678 0-2 .909311-2 2v18c0 1.0906889.90931 2 2 2h28c1.0906899 0 1.9999999-.9093111 1.9999999-2v-22c0-1.090689-.909322-2-1.9999999-2z" style="fill:currentColor"
class="ColorScheme-Highlight" transform="matrix(.26458333 0 0 .26458333 42.597916 30.691667)"/><path d="m39.422915 25.664581c-.220485 0-.411239.145351-.501261.289388-.09002.144035-.130001.288101-.176217.411344-.04622.12324-.09534.220768-.146244.273885-.05091.05312-.09497.08372-.234611.08372h-2.645833c-.288575 0-.529167.240588-.529167.529166v4.7625c0 .288578.240589.529167.529167.529167h7.408333c.288578 0 .529167-.240589.529167-.529167v-5.820833c0-.288578-.240592-.529166-.529167-.529166z" fill="url(#c)"/><path d="m39.422915 25.664583c-.220485 0-.411239.145351-.501261.289388-.09002.144035-.130001.288101-.176217.411344-.04622.12324-.09534.220768-.146244.273885-.05091.05312-.09497.08372-.234611.08372h-2.645833c-.288575 0-.529167.240588-.529167.529166v4.7625c0 .288578.240589.529167.529167.529167h7.408333c.288578 0 .529167-.240589.529167-.529167v-5.820833c0-.288578-.240592-.529166-.529167-.529166zm0 .264583h3.704167c.146582 0 .264583.118001.264583.264583v5.820833c0 .146579-.118001.264584-.264583.264584h-7.408333c-.146582 0-.264584-.118005-.264584-.264584v-4.7625c0-.146581.118002-.264583.264584-.264583h2.645833c.793749 0 .529167-1.058333 1.058333-1.058333z" fill-opacity=".2"/><g transform="matrix(.26458333 0 0 .26458333 39.68382434542 -48.59072369)"><path d="m22 5v1 5 1 7c0 1.66202 1.338 3 3 3s3-1.33798 3-3v-7-1-5-1z" fill="#010102" transform="translate(-16.999999 275.64999)"/><path d="m6.000001 281.64991v2.99997l-.0000004 10.00008c0 1.108.892 2.00002 2 2.00002s2.0000004-.89202 2.0000004-2.00002v-10.00008-2.99997h-2z" fill="url(#a)"/><path d="m8.0000006 281.64999h1c.0000004-.00008-1 0-1 0zm0 0h-1v1h1zm0 1v1h1v-1zm0 1h-1v1h1zm0 1v1h1v-1zm0 1h-1v1h1zm0 1v1h1v-1zm0 1h-1v1h1zm0 1v1h1v-1zm0 1h-1v1h1zm0 1v1h1v-1zm0 1h-1v1h1zm0 1v1h1v-1zm0 1h-1v1h1zm0 1v1h1v-1z" fill="#fefefe"/></g></g></svg>
