<?xml version="1.0" encoding="UTF-8" standalone="no"?>
<svg
   height="22"
   width="22"
   version="1.1"
   id="svg1"
   sodipodi:docname="battery-090.svg"
   inkscape:version="1.3.2 (091e20ef0f, 2023-11-25, custom)"
   xmlns:inkscape="http://www.inkscape.org/namespaces/inkscape"
   xmlns:sodipodi="http://sodipodi.sourceforge.net/DTD/sodipodi-0.dtd"
   xmlns:xlink="http://www.w3.org/1999/xlink"
   xmlns="http://www.w3.org/2000/svg"
   xmlns:svg="http://www.w3.org/2000/svg">
  <sodipodi:namedview
     id="namedview1"
     pagecolor="#ffffff"
     bordercolor="#000000"
     borderopacity="0.25"
     inkscape:showpageshadow="2"
     inkscape:pageopacity="0.0"
     inkscape:pagecheckerboard="0"
     inkscape:deskcolor="#d1d1d1"
     inkscape:zoom="26.772727"
     inkscape:cx="8.0865874"
     inkscape:cy="10.943973"
     inkscape:window-width="2560"
     inkscape:window-height="1364"
     inkscape:window-x="0"
     inkscape:window-y="0"
     inkscape:window-maximized="1"
     inkscape:current-layer="svg1" />
  <defs
     id="defs1">
    <style
       type="text/css"
       id="current-color-scheme">
            .ColorScheme-Text {
                color:#232629;
            }
        </style>
    <linearGradient
       inkscape:collect="always"
       xlink:href="#linearGradient8"
       id="linearGradient24"
       gradientUnits="userSpaceOnUse"
       gradientTransform="translate(42,-0.990243)"
       x1="-14"
       y1="32"
       x2="-14"
       y2="20" />
    <linearGradient
       id="linearGradient8"
       inkscape:collect="always">
      <stop
         style="stop-color:#252a34;stop-opacity:1;"
         offset="0"
         id="stop8" />
      <stop
         style="stop-color:#353d4b;stop-opacity:1;"
         offset="1"
         id="stop9" />
    </linearGradient>
    <linearGradient
       inkscape:collect="always"
       xlink:href="#linearGradient10"
       id="linearGradient27"
       gradientUnits="userSpaceOnUse"
       gradientTransform="translate(42,-0.990243)"
       x1="-14"
       y1="31"
       x2="-14"
       y2="22" />
    <linearGradient
       id="linearGradient10"
       inkscape:collect="always">
      <stop
         style="stop-color:#454545;stop-opacity:1;"
         offset="0"
         id="stop10" />
      <stop
         style="stop-color:#212121;stop-opacity:1;"
         offset="1"
         id="stop11" />
    </linearGradient>
    <linearGradient
       inkscape:collect="always"
       xlink:href="#linearGradient32"
       id="linearGradient28"
       gradientUnits="userSpaceOnUse"
       gradientTransform="translate(42,-0.982927)"
       x1="-14"
       y1="31"
       x2="-14"
       y2="22" />
    <linearGradient
       id="linearGradient32"
       inkscape:collect="always">
      <stop
         style="stop-color:#2bd065;stop-opacity:1;"
         offset="0"
         id="stop31" />
      <stop
         style="stop-color:#69d779;stop-opacity:1;"
         offset="1"
         id="stop32" />
    </linearGradient>
  </defs>
  <g
     id="g1"
     transform="translate(-18,-14.000002)">
    <path
       id="rect7-9-4"
       style="fill:#15151a;fill-opacity:1;stroke-width:1.99878;stroke-linecap:round;stroke-linejoin:round;paint-order:stroke fill markers"
       d="m 20,17.000002 c -1.107997,-0.0014 -2,0.890914 -2,1.997561 V 30.98293 c 0,1.106648 0.892003,1.99612 2,1.997563 l 15,0.01951 c 1.107997,0.0014 2,-0.890915 2,-1.99756 v -1.010489 h 1.03125 c 1.090701,0 1.96875,-0.87698 1.96875,-1.966348 v -0.05852 -6.002438 c 0,-6.52e-4 10e-7,-0.0013 0,-0.002 0,-1.089371 -0.878049,-1.966349 -1.96875,-1.966349 H 37.216797 C 37.142077,19.989597 37.06925,19.986497 37,19.986497 v -0.96952 c 0,-1.106647 -0.892003,-1.99612 -2,-1.997561 z" />
    <path
       id="rect4-2-3"
       style="fill:url(#linearGradient24);stroke-width:1.99878;stroke-linecap:round;stroke-linejoin:round;paint-order:stroke fill markers"
       d="m 20,18.008538 c -0.553999,0 -1,0.445457 -1,0.99878 v 11.985367 c 0,0.553325 0.446001,0.998781 1,0.998781 h 15 c 0.553999,0 1,-0.445456 1,-0.998781 v -1.997559 h 2 c 0.553999,0 1,-0.445457 1,-0.99878 V 22.00366 c 0,-0.553323 -0.446001,-0.99878 -1,-0.99878 h -2 v -1.997562 c 0,-0.553323 -0.446001,-0.99878 -1,-0.99878 z"
       sodipodi:nodetypes="sssssscsssscsss" />
    <path
       id="rect1-2-1"
       style="fill:url(#linearGradient27);stroke-width:1.99878;stroke-linecap:round;stroke-linejoin:round;paint-order:stroke fill markers"
       d="m 20,19.007319 v 11.985366 h 15 v -2.996339 h 3 v -5.992685 h -3 v -2.996342 z"
       sodipodi:nodetypes="ccccccccc" />
    <path
       id="rect1-6-8-4"
       style="fill:url(#linearGradient28);stroke-width:1.99878;stroke-linecap:round;stroke-linejoin:round;paint-order:stroke fill markers"
       d="m 27,19.998048 v 0.0039 h -2 -2 l -2,-0.0019 v 10 l 2,0.002 h 2 2 v -0.0039 l 2,0.0019 h 1 3 1 v -3 h 2 v -4 h -2 v -3 h -1 -3 -1 z" />
  </g>
  <g
     id="g4"
     transform="translate(-18,-14.000002)">
    <path
       id="path1"
       style="fill:#15151a;fill-opacity:1;stroke-width:1.99878;stroke-linecap:round;stroke-linejoin:round;paint-order:stroke fill markers"
       d="m 20,17.000002 c -1.107997,-0.0014 -2,0.890914 -2,1.997561 V 30.98293 c 0,1.106648 0.892003,1.99612 2,1.997563 l 15,0.01951 c 1.107997,0.0014 2,-0.890915 2,-1.99756 v -1.010489 h 1.03125 c 1.090701,0 1.96875,-0.87698 1.96875,-1.966348 v -0.05852 -6.002438 c 0,-6.52e-4 10e-7,-0.0013 0,-0.002 0,-1.089371 -0.878049,-1.966349 -1.96875,-1.966349 H 37.216797 C 37.142077,19.989597 37.06925,19.986497 37,19.986497 v -0.96952 c 0,-1.106647 -0.892003,-1.99612 -2,-1.997561 z" />
    <path
       id="path2"
       style="fill:url(#linearGradient24);stroke-width:1.99878;stroke-linecap:round;stroke-linejoin:round;paint-order:stroke fill markers"
       d="m 20,18.008538 c -0.553999,0 -1,0.445457 -1,0.99878 v 11.985367 c 0,0.553325 0.446001,0.998781 1,0.998781 h 15 c 0.553999,0 1,-0.445456 1,-0.998781 v -1.997559 h 2 c 0.553999,0 1,-0.445457 1,-0.99878 V 22.00366 c 0,-0.553323 -0.446001,-0.99878 -1,-0.99878 h -2 v -1.997562 c 0,-0.553323 -0.446001,-0.99878 -1,-0.99878 z"
       sodipodi:nodetypes="sssssscsssscsss" />
    <path
       id="path3"
       style="fill:url(#linearGradient27);stroke-width:1.99878;stroke-linecap:round;stroke-linejoin:round;paint-order:stroke fill markers"
       d="m 20,19.007319 v 11.985366 h 15 v -2.996339 h 3 v -5.992685 h -3 v -2.996342 z"
       sodipodi:nodetypes="ccccccccc" />
    <path
       id="path4"
       style="fill:url(#linearGradient28);stroke-width:1.99878;stroke-linecap:round;stroke-linejoin:round;paint-order:stroke fill markers"
       d="m 27,19.998048 v 0.0039 h -2 -2 l -2,-0.0019 v 10 l 2,0.002 h 2 2 v -0.0039 l 2,0.0019 h 1 3 1 v -3 h 2 v -4 h -2 v -3 h -1 -3 -1 z" />
  </g>
</svg>
