<?xml version="1.0" encoding="UTF-8" standalone="no"?>
<svg
   height="22"
   width="22"
   version="1.1"
   id="svg1"
   sodipodi:docname="battery-000.svg"
   inkscape:version="1.3.2 (091e20ef0f, 2023-11-25, custom)"
   xmlns:inkscape="http://www.inkscape.org/namespaces/inkscape"
   xmlns:sodipodi="http://sodipodi.sourceforge.net/DTD/sodipodi-0.dtd"
   xmlns:xlink="http://www.w3.org/1999/xlink"
   xmlns="http://www.w3.org/2000/svg"
   xmlns:svg="http://www.w3.org/2000/svg">
  <sodipodi:namedview
     id="namedview1"
     pagecolor="#ffffff"
     bordercolor="#000000"
     borderopacity="0.25"
     inkscape:showpageshadow="2"
     inkscape:pageopacity="0.0"
     inkscape:pagecheckerboard="0"
     inkscape:deskcolor="#d1d1d1"
     showgrid="true"
     inkscape:zoom="16"
     inkscape:cx="-9.09375"
     inkscape:cy="7.3125"
     inkscape:window-width="2560"
     inkscape:window-height="1364"
     inkscape:window-x="0"
     inkscape:window-y="0"
     inkscape:window-maximized="1"
     inkscape:current-layer="svg1">
    <inkscape:grid
       id="grid1"
       units="px"
       originx="0"
       originy="0"
       spacingx="1"
       spacingy="1"
       empcolor="#0099e5"
       empopacity="0.30196078"
       color="#0099e5"
       opacity="0.14901961"
       empspacing="5"
       dotted="false"
       gridanglex="30"
       gridanglez="30"
       visible="true" />
  </sodipodi:namedview>
  <defs
     id="defs1">
    <linearGradient
       id="linearGradient10"
       inkscape:collect="always">
      <stop
         style="stop-color:#454545;stop-opacity:1;"
         offset="0"
         id="stop10" />
      <stop
         style="stop-color:#212121;stop-opacity:1;"
         offset="1"
         id="stop11" />
    </linearGradient>
    <linearGradient
       id="linearGradient8"
       inkscape:collect="always">
      <stop
         style="stop-color:#252a34;stop-opacity:1;"
         offset="0"
         id="stop8" />
      <stop
         style="stop-color:#353d4b;stop-opacity:1;"
         offset="1"
         id="stop9" />
    </linearGradient>
    <style
       type="text/css"
       id="current-color-scheme">
            .ColorScheme-NegativeText {
                color:#da4453;
            }
        </style>
    <linearGradient
       inkscape:collect="always"
       xlink:href="#linearGradient8"
       id="linearGradient9"
       x1="-14"
       y1="32"
       x2="-14"
       y2="20"
       gradientUnits="userSpaceOnUse"
       gradientTransform="translate(24,-14.990245)" />
    <linearGradient
       inkscape:collect="always"
       xlink:href="#linearGradient10"
       id="linearGradient11"
       x1="-14"
       y1="31"
       x2="-14"
       y2="22"
       gradientUnits="userSpaceOnUse"
       gradientTransform="translate(24,-14.990245)" />
  </defs>
  <path
     id="rect7"
     style="fill:#15151a;fill-opacity:1;stroke-width:1.99878;stroke-linecap:round;stroke-linejoin:round;paint-order:stroke fill markers"
     d="M 1.9999997,3 C 0.89200271,2.9986 -2.8888889e-7,3.890914 -2.8888889e-7,4.997561 v 11.985367 c 0,1.106647 0.89200299888889,1.99612 1.99999998888889,1.997562 L 17,19 c 1.107997,0.0014 2,-0.890915 2,-1.997561 V 15.99195 h 1.03125 C 21.121951,15.99195 22,15.114972 22,14.025601 v -0.05852 -6.002437 c 0,-6.52e-4 1e-6,-0.0013 0,-0.002 C 22,6.873273 21.121951,5.996295 20.03125,5.996295 H 19.216797 C 19.142075,5.989595 19.06925,5.986495 19,5.986495 V 5.016975 C 19,3.910328 18.107997,3.020855 17,3.019414 Z" />
  <path
     id="rect4"
     style="fill:url(#linearGradient9);stroke-width:1.99878;stroke-linecap:round;stroke-linejoin:round;paint-order:stroke fill markers"
     d="m 2,4.008536 c -0.553999,0 -1,0.445457 -1,0.99878 v 11.985367 c 0,0.553324 0.446001,0.998781 1,0.998781 h 15 c 0.553999,0 1,-0.445457 1,-0.998781 v -1.997561 h 2 c 0.553999,0 1,-0.445457 1,-0.99878 V 8.003658 C 21,7.450335 20.553999,7.004877 20,7.004877 H 18 V 5.007316 c 0,-0.553323 -0.446001,-0.99878 -1,-0.99878 z"
     sodipodi:nodetypes="sssssscsssscsss" />
  <path
     id="rect1"
     style="fill:url(#linearGradient11);stroke-width:1.99878;stroke-linecap:round;stroke-linejoin:round;paint-order:stroke fill markers"
     d="M 2,5.0073165 V 16.992683 h 15 v -2.996341 h 3 V 8.0036585 h -3 v -2.996342 z"
     sodipodi:nodetypes="ccccccccc" />
</svg>
