<?xml version="1.0" encoding="UTF-8" standalone="no"?>
<svg
   height="22"
   width="22"
   version="1.1"
   id="svg1"
   sodipodi:docname="battery-100-charging.svg"
   inkscape:version="1.3.2 (091e20ef0f, 2023-11-25, custom)"
   xmlns:inkscape="http://www.inkscape.org/namespaces/inkscape"
   xmlns:sodipodi="http://sodipodi.sourceforge.net/DTD/sodipodi-0.dtd"
   xmlns:xlink="http://www.w3.org/1999/xlink"
   xmlns="http://www.w3.org/2000/svg"
   xmlns:svg="http://www.w3.org/2000/svg">
  <sodipodi:namedview
     id="namedview1"
     pagecolor="#ffffff"
     bordercolor="#000000"
     borderopacity="0.25"
     inkscape:showpageshadow="2"
     inkscape:pageopacity="0.0"
     inkscape:pagecheckerboard="0"
     inkscape:deskcolor="#d1d1d1"
     inkscape:zoom="18.931178"
     inkscape:cx="15.76764"
     inkscape:cy="16.005344"
     inkscape:window-width="1279"
     inkscape:window-height="1364"
     inkscape:window-x="1280"
     inkscape:window-y="0"
     inkscape:window-maximized="0"
     inkscape:current-layer="svg1" />
  <defs
     id="defs1">
    <style
       type="text/css"
       id="current-color-scheme">
            .ColorScheme-Text {
                color:#232629;
            }
        </style>
    <linearGradient
       inkscape:collect="always"
       xlink:href="#linearGradient8"
       id="linearGradient9"
       x1="-14"
       y1="32"
       x2="-14"
       y2="20"
       gradientUnits="userSpaceOnUse"
       gradientTransform="translate(53,8.009757)" />
    <linearGradient
       id="linearGradient8"
       inkscape:collect="always">
      <stop
         style="stop-color:#252a34;stop-opacity:1;"
         offset="0"
         id="stop8" />
      <stop
         style="stop-color:#353d4b;stop-opacity:1;"
         offset="1"
         id="stop9" />
    </linearGradient>
    <linearGradient
       inkscape:collect="always"
       xlink:href="#linearGradient10"
       id="linearGradient11"
       x1="-14"
       y1="31"
       x2="-14"
       y2="22"
       gradientUnits="userSpaceOnUse"
       gradientTransform="translate(53,8.009757)" />
    <linearGradient
       id="linearGradient10"
       inkscape:collect="always">
      <stop
         style="stop-color:#454545;stop-opacity:1;"
         offset="0"
         id="stop10" />
      <stop
         style="stop-color:#212121;stop-opacity:1;"
         offset="1"
         id="stop11" />
    </linearGradient>
    <linearGradient
       inkscape:collect="always"
       xlink:href="#linearGradient6"
       id="linearGradient4"
       gradientUnits="userSpaceOnUse"
       gradientTransform="translate(53,8.013415)"
       x1="-14"
       y1="31"
       x2="-14"
       y2="22" />
    <linearGradient
       id="linearGradient6"
       inkscape:collect="always">
      <stop
         style="stop-color:#26cf63;stop-opacity:1;"
         offset="0"
         id="stop5" />
      <stop
         style="stop-color:#69d779;stop-opacity:1;"
         offset="1"
         id="stop6" />
    </linearGradient>
  </defs>
  <g
     id="g1"
     transform="translate(-29,-23.000002)">
    <path
       id="rect7"
       style="fill:#15151a;fill-opacity:1;stroke-width:1.99878;stroke-linecap:round;stroke-linejoin:round;paint-order:stroke fill markers"
       d="m 31,26.000002 c -1.107997,-0.0014 -2,0.890914 -2,1.997561 V 39.98293 c 0,1.106647 0.892003,1.99612 2,1.997562 l 15,0.01951 c 1.107997,0.0014 2,-0.890915 2,-1.997561 v -1.010489 h 1.03125 C 50.121951,38.991952 51,38.114974 51,37.025603 v -0.05852 -6.002437 c 0,-6.52e-4 10e-7,-0.0013 0,-0.002 0,-1.089371 -0.878049,-1.966349 -1.96875,-1.966349 H 48.216797 C 48.142075,28.989597 48.06925,28.986497 48,28.986497 v -0.96952 c 0,-1.106647 -0.892003,-1.99612 -2,-1.997561 z" />
    <path
       id="rect4"
       style="fill:url(#linearGradient9);stroke-width:1.99878;stroke-linecap:round;stroke-linejoin:round;paint-order:stroke fill markers"
       d="m 31,27.008538 c -0.553999,0 -1,0.445457 -1,0.99878 v 11.985367 c 0,0.553324 0.446001,0.998781 1,0.998781 h 15 c 0.553999,0 1,-0.445457 1,-0.998781 v -1.997561 h 2 c 0.553999,0 1,-0.445457 1,-0.99878 V 31.00366 c 0,-0.553323 -0.446001,-0.998781 -1,-0.998781 h -2 v -1.997561 c 0,-0.553323 -0.446001,-0.99878 -1,-0.99878 z"
       sodipodi:nodetypes="sssssscsssscsss" />
    <path
       id="rect1"
       style="fill:url(#linearGradient11);stroke-width:1.99878;stroke-linecap:round;stroke-linejoin:round;paint-order:stroke fill markers"
       d="m 31,28.007318 v 11.985367 h 15 v -2.996341 h 3 V 31.00366 h -3 v -2.996342 z"
       sodipodi:nodetypes="ccccccccc" />
    <path
       id="rect1-6"
       style="fill:url(#linearGradient4);stroke-width:1.99878;stroke-linecap:round;stroke-linejoin:round;paint-order:stroke fill markers"
       d="m 32,29.000002 v 10 h 13 v -3 h 3 v -4 h -3 v -3 z"
       sodipodi:nodetypes="ccccccccc" />
  </g>
  <g
     id="g4"
     transform="translate(-29,-23.000002)">
    <path
       id="path1"
       style="fill:#15151a;fill-opacity:1;stroke-width:1.99878;stroke-linecap:round;stroke-linejoin:round;paint-order:stroke fill markers"
       d="m 31,26.000002 c -1.107997,-0.0014 -2,0.890914 -2,1.997561 V 39.98293 c 0,1.106647 0.892003,1.99612 2,1.997562 l 15,0.01951 c 1.107997,0.0014 2,-0.890915 2,-1.997561 v -1.010489 h 1.03125 C 50.121951,38.991952 51,38.114974 51,37.025603 v -0.05852 -6.002437 c 0,-6.52e-4 10e-7,-0.0013 0,-0.002 0,-1.089371 -0.878049,-1.966349 -1.96875,-1.966349 H 48.216797 C 48.142075,28.989597 48.06925,28.986497 48,28.986497 v -0.96952 c 0,-1.106647 -0.892003,-1.99612 -2,-1.997561 z" />
    <path
       id="path2"
       style="fill:url(#linearGradient9);stroke-width:1.99878;stroke-linecap:round;stroke-linejoin:round;paint-order:stroke fill markers"
       d="m 31,27.008538 c -0.553999,0 -1,0.445457 -1,0.99878 v 11.985367 c 0,0.553324 0.446001,0.998781 1,0.998781 h 15 c 0.553999,0 1,-0.445457 1,-0.998781 v -1.997561 h 2 c 0.553999,0 1,-0.445457 1,-0.99878 V 31.00366 c 0,-0.553323 -0.446001,-0.998781 -1,-0.998781 h -2 v -1.997561 c 0,-0.553323 -0.446001,-0.99878 -1,-0.99878 z"
       sodipodi:nodetypes="sssssscsssscsss" />
    <path
       id="path3"
       style="fill:url(#linearGradient11);stroke-width:1.99878;stroke-linecap:round;stroke-linejoin:round;paint-order:stroke fill markers"
       d="m 31,28.007318 v 11.985367 h 15 v -2.996341 h 3 V 31.00366 h -3 v -2.996342 z"
       sodipodi:nodetypes="ccccccccc" />
    <path
       id="path6"
       style="fill:url(#linearGradient4);stroke-width:1.99878;stroke-linecap:round;stroke-linejoin:round;paint-order:stroke fill markers"
       d="M 39.03125 39.000002 C 38.821556 39.006422 38.608111 38.947358 38.421875 38.814455 L 32 34.226564 L 32 39.000002 L 39.03125 39.000002 z " />
    <path
       id="path5"
       style="fill:url(#linearGradient4);stroke-width:1.99878;stroke-linecap:round;stroke-linejoin:round;paint-order:stroke fill markers"
       d="M 32 29.000002 L 32 32.000002 C 32.001343 31.999999 32.002561 32 32.003906 32.000002 L 36.46875 32.000002 L 38.171875 29.445314 C 38.463156 29.007761 39.043446 28.870369 39.5 29.130861 L 46.5 33.130861 C 47.392363 33.639085 47.030844 35.001202 46.003906 35.000002 L 41.671875 35.000002 L 39.892578 38.457033 C 39.718465 38.796287 39.380739 38.989301 39.03125 39.000002 L 45 39.000002 L 45 36.000002 L 48 36.000002 L 48 32.000002 L 45 32.000002 L 45 29.000002 L 32 29.000002 z " />
  </g>
  <g
     id="g1-7">
    <g
       id="g2"
       style="stroke:none">
      <path
         style="fill:#ffffff;fill-opacity:1;stroke:none;stroke-width:2.2336;stroke-linecap:round;stroke-linejoin:round;stroke-miterlimit:4;stroke-dasharray:none;stroke-opacity:1"
         d="m 17,11 -4.94255,-4e-5 L 10,15 3,10 h 5 l 2,-3 z"
         id="rect843-3-3-7-8"
         sodipodi:nodetypes="ccccccc" />
    </g>
  </g>
</svg>
