<?xml version="1.0" encoding="UTF-8" standalone="no"?>
<svg
   height="22"
   viewBox="0 0 22 22"
   width="22"
   id="svg2"
   version="1.1"
   inkscape:version="1.3.2 (091e20ef0f, 2023-11-25, custom)"
   sodipodi:docname="dialog-question.svg"
   xml:space="preserve"
   xmlns:inkscape="http://www.inkscape.org/namespaces/inkscape"
   xmlns:sodipodi="http://sodipodi.sourceforge.net/DTD/sodipodi-0.dtd"
   xmlns:xlink="http://www.w3.org/1999/xlink"
   xmlns="http://www.w3.org/2000/svg"
   xmlns:svg="http://www.w3.org/2000/svg"
   xmlns:rdf="http://www.w3.org/1999/02/22-rdf-syntax-ns#"
   xmlns:cc="http://creativecommons.org/ns#"
   xmlns:dc="http://purl.org/dc/elements/1.1/"><metadata
     id="metadata10"><rdf:RDF><cc:Work
         rdf:about=""><dc:format>image/svg+xml</dc:format><dc:type
           rdf:resource="http://purl.org/dc/dcmitype/StillImage" /></cc:Work></rdf:RDF></metadata><sodipodi:namedview
     pagecolor="#ffffff"
     bordercolor="#666666"
     borderopacity="1"
     objecttolerance="10"
     gridtolerance="10"
     guidetolerance="10"
     inkscape:pageopacity="0"
     inkscape:pageshadow="2"
     inkscape:window-width="2560"
     inkscape:window-height="1364"
     id="namedview8"
     showgrid="true"
     inkscape:showpageshadow="false"
     inkscape:snap-bbox="true"
     inkscape:bbox-paths="true"
     inkscape:bbox-nodes="true"
     inkscape:snap-bbox-edge-midpoints="true"
     inkscape:snap-bbox-midpoints="true"
     inkscape:object-paths="true"
     inkscape:snap-intersection-paths="true"
     inkscape:object-nodes="true"
     inkscape:snap-smooth-nodes="false"
     inkscape:snap-midpoints="false"
     inkscape:zoom="4.0000001"
     inkscape:cx="154.125"
     inkscape:cy="-9.4999998"
     inkscape:window-x="0"
     inkscape:window-y="0"
     inkscape:window-maximized="1"
     inkscape:current-layer="g2289"
     inkscape:pagecheckerboard="0"
     inkscape:deskcolor="#d1d1d1"><inkscape:grid
       type="xygrid"
       id="grid5653"
       originx="0"
       originy="0"
       spacingy="1"
       spacingx="1"
       units="px"
       visible="true" /></sodipodi:namedview><defs
     id="defs2"><style
       type="text/css"
       id="current-color-scheme">
      .ColorScheme-Text {
        color:#122036;
      }
      </style><linearGradient
       inkscape:collect="always"
       xlink:href="#linearGradient4902"
       id="linearGradient5790"
       x1="29.333334"
       y1="308.64999"
       x2="29.333334"
       y2="278.64999"
       gradientUnits="userSpaceOnUse" /><style
       type="text/css"
       id="current-color-scheme-1">
      .ColorScheme-Text {
        color:#122036;
      }
      </style><style
       id="current-color-scheme-10"
       type="text/css">
      .ColorScheme-Text {
        color:#122036;
      }
      </style><linearGradient
       id="linearGradient4902"
       inkscape:collect="always"><stop
         id="stop4898"
         offset="0"
         style="stop-color:#5563b2;stop-opacity:1;" /><stop
         id="stop4900"
         offset="1"
         style="stop-color:#7885cb;stop-opacity:1;" /></linearGradient><style
       id="current-color-scheme-5"
       type="text/css">
      .ColorScheme-Text {
        color:#122036;
      }
      </style><style
       id="current-color-scheme-1-2"
       type="text/css">
      .ColorScheme-Text {
        color:#122036;
      }
      </style><style
       type="text/css"
       id="current-color-scheme-10-9">
      .ColorScheme-Text {
        color:#122036;
      }
      </style><style
       type="text/css"
       id="current-color-scheme-6">
      .ColorScheme-Text {
        color:#122036;
      }
      </style><style
       type="text/css"
       id="current-color-scheme-1-9">
      .ColorScheme-Text {
        color:#122036;
      }
      </style><style
       id="current-color-scheme-10-1"
       type="text/css">
      .ColorScheme-Text {
        color:#122036;
      }
      </style><style
       type="text/css"
       id="current-color-scheme-53">
      .ColorScheme-Text {
        color:#36404d;
      }
      </style></defs><g
     transform="translate(-18,-287.64999)"
     id="layer1-60"
     inkscape:label="Capa 1"><g
       transform="matrix(0.6,0,0,0.6,9.4,122.46)"
       id="g2289"><path
         style="opacity:1;fill:#4a5599;fill-opacity:1;stroke:none;stroke-width:2;stroke-linecap:round;stroke-linejoin:round;stroke-miterlimit:4;stroke-dasharray:none;stroke-opacity:1"
         d="m 32.666666,276.98331 c 9.233333,0 16.666666,7.43333 16.666666,16.66666 0,9.23334 -7.433333,16.66667 -16.666666,16.66667 C 23.433333,310.31664 16,302.88331 16,293.64997 c 0,-9.23333 7.433333,-16.66666 16.666666,-16.66666 z"
         id="rect5699-5" /><path
         style="opacity:1;fill:url(#linearGradient5790);fill-opacity:1;stroke:none;stroke-width:2;stroke-linecap:round;stroke-linejoin:round;stroke-miterlimit:4;stroke-dasharray:none;stroke-opacity:1"
         d="m 32.666666,278.64999 c 8.31,0 15,6.69 15,15 0,8.31 -6.69,15 -15,15 -8.31,0 -15,-6.69 -15,-15 0,-8.31 6.69,-15 15,-15 z"
         id="rect5699" /><g
         inkscape:label="Capa 1"
         id="layer1-60-1"
         transform="matrix(1.6666667,0,0,1.6666667,-15.666667,-204.10001)" /><path
         id="path2-0"
         style="fill:#4a5599;fill-opacity:1;stroke:none;stroke-width:2.48776;stroke-linecap:round;stroke-linejoin:round;stroke-dasharray:none;stroke-opacity:1;paint-order:stroke fill markers"
         d="m 32.666666,283.64999 c -3.681896,0 -6.666663,2.98476 -6.666667,6.66666 h 3.333334 c 2e-6,-1.84095 1.492385,-3.33333 3.333333,-3.33333 1.840948,0 3.333331,1.49238 3.333333,3.33333 4e-6,1.84095 -1.492381,3.33334 -3.333333,3.33334 -0.923331,0 -1.666667,0.74333 -1.666667,1.66666 v 3.33333 c 0,0.92334 0.743336,1.66667 1.666667,1.66667 0.923331,0 1.666667,-0.74333 1.666667,-1.66667 v -1.8815 c 2.942324,-0.7597 4.998568,-3.41301 5,-6.45183 -5.61e-4,-0.29068 -0.02013,-0.58101 -0.05859,-0.86914 -0.03767,-0.28876 -0.09421,-0.57475 -0.169271,-0.85612 -0.07515,-0.28143 -0.168669,-0.55763 -0.279948,-0.82682 -0.11088,-0.26851 -0.239191,-0.52948 -0.384114,-0.78125 -0.145641,-0.25231 -0.307664,-0.4948 -0.485026,-0.72591 -0.177575,-0.23044 -0.370044,-0.44901 -0.576172,-0.6543 -0.205294,-0.20613 -0.42386,-0.3986 -0.654297,-0.57617 -0.231113,-0.17736 -0.473604,-0.33939 -0.725912,-0.48503 -0.25177,-0.14492 -0.512743,-0.27323 -0.78125,-0.38411 -0.269196,-0.11128 -0.545395,-0.2048 -0.826823,-0.27995 -0.28137,-0.0751 -0.567355,-0.13161 -0.856119,-0.16927 -0.288128,-0.0385 -0.578462,-0.058 -0.869145,-0.0586 z m 0,20 c -0.923332,0 -1.666667,0.74333 -1.666667,1.66666 0,0.92334 0.743335,1.66667 1.666667,1.66667 0.923332,0 1.666667,-0.74333 1.666667,-1.66667 0,-0.92333 -0.743335,-1.66666 -1.666667,-1.66666 z"
         sodipodi:nodetypes="cccssssssscccccccccccccccsssss" /><path
         id="path2"
         style="fill:#eff0f6;fill-opacity:1;stroke:none;stroke-width:2.48776;stroke-linecap:round;stroke-linejoin:round;stroke-dasharray:none;stroke-opacity:1;paint-order:stroke fill markers"
         d="m 32.666666,281.98332 c -3.681896,0 -6.666663,2.98476 -6.666667,6.66666 h 3.333334 c 2e-6,-1.84095 1.492385,-3.33333 3.333333,-3.33333 1.840948,0 3.333331,1.49238 3.333333,3.33333 4e-6,1.84095 -1.492381,3.33334 -3.333333,3.33334 -0.923331,0 -1.666667,0.74333 -1.666667,1.66666 v 3.33333 c 0,0.92334 0.743336,1.66667 1.666667,1.66667 0.923331,0 1.666667,-0.74333 1.666667,-1.66667 v -1.8815 c 2.942324,-0.7597 4.998568,-3.41301 5,-6.45183 -5.61e-4,-0.29068 -0.02013,-0.58101 -0.05859,-0.86914 -0.03767,-0.28876 -0.09421,-0.57475 -0.169271,-0.85612 -0.07515,-0.28143 -0.168669,-0.55763 -0.279948,-0.82682 -0.11088,-0.26851 -0.239191,-0.52948 -0.384114,-0.78125 -0.145641,-0.25231 -0.307664,-0.4948 -0.485026,-0.72591 -0.177575,-0.23044 -0.370044,-0.44901 -0.576172,-0.6543 -0.205294,-0.20613 -0.42386,-0.3986 -0.654297,-0.57617 -0.231113,-0.17736 -0.473604,-0.33939 -0.725912,-0.48503 -0.25177,-0.14492 -0.512743,-0.27323 -0.78125,-0.38411 -0.269196,-0.11128 -0.545395,-0.2048 -0.826823,-0.27995 -0.28137,-0.0751 -0.567355,-0.13161 -0.856119,-0.16927 -0.288128,-0.0385 -0.578462,-0.058 -0.869145,-0.0586 z m 0,20 c -0.923332,0 -1.666667,0.74333 -1.666667,1.66666 0,0.92334 0.743335,1.66667 1.666667,1.66667 0.923332,0 1.666667,-0.74333 1.666667,-1.66667 0,-0.92333 -0.743335,-1.66666 -1.666667,-1.66666 z"
         sodipodi:nodetypes="cccssssssscccccccccccccccsssss" /></g></g></svg>
