<?xml version="1.0" encoding="UTF-8" standalone="no"?>
<svg
   height="22"
   width="22"
   version="1.1"
   id="svg1"
   sodipodi:docname="network-flightmode-on.svg"
   inkscape:version="1.3.2 (091e20ef0f, 2023-11-25, custom)"
   xmlns:inkscape="http://www.inkscape.org/namespaces/inkscape"
   xmlns:sodipodi="http://sodipodi.sourceforge.net/DTD/sodipodi-0.dtd"
   xmlns:xlink="http://www.w3.org/1999/xlink"
   xmlns="http://www.w3.org/2000/svg"
   xmlns:svg="http://www.w3.org/2000/svg">
  <sodipodi:namedview
     id="namedview1"
     pagecolor="#ffffff"
     bordercolor="#000000"
     borderopacity="0.25"
     inkscape:showpageshadow="2"
     inkscape:pageopacity="0.0"
     inkscape:pagecheckerboard="0"
     inkscape:deskcolor="#d1d1d1"
     showgrid="true"
     inkscape:zoom="26.181818"
     inkscape:cx="1.6996528"
     inkscape:cy="9.6631945"
     inkscape:window-width="2560"
     inkscape:window-height="1364"
     inkscape:window-x="0"
     inkscape:window-y="0"
     inkscape:window-maximized="1"
     inkscape:current-layer="path1">
    <inkscape:grid
       id="grid1"
       units="px"
       originx="0"
       originy="0"
       spacingx="1"
       spacingy="1"
       empcolor="#0099e5"
       empopacity="0.30196078"
       color="#0099e5"
       opacity="0.14902"
       empspacing="5"
       dotted="false"
       gridanglex="30"
       gridanglez="30"
       visible="true" />
  </sodipodi:namedview>
  <defs
     id="defs4157">
    <style
       id="current-color-scheme"
       type="text/css">
      .ColorScheme-Text {
        color:#31363b;
      }
    </style>
    <linearGradient
       inkscape:collect="always"
       xlink:href="#linearGradient25"
       id="linearGradient26"
       x1="46"
       y1="5"
       x2="46"
       y2="0"
       gradientUnits="userSpaceOnUse" />
    <linearGradient
       id="linearGradient25"
       inkscape:collect="always">
      <stop
         style="stop-color:#dfe6e7;stop-opacity:1;"
         offset="0"
         id="stop25" />
      <stop
         style="stop-color:#eff5f8;stop-opacity:1;"
         offset="1"
         id="stop26" />
    </linearGradient>
    <linearGradient
       inkscape:collect="always"
       xlink:href="#linearGradient22"
       id="linearGradient23"
       x1="46"
       y1="13"
       x2="46"
       y2="-4"
       gradientUnits="userSpaceOnUse" />
    <linearGradient
       id="linearGradient22"
       inkscape:collect="always">
      <stop
         style="stop-color:#dde5e5;stop-opacity:1;"
         offset="0"
         id="stop22" />
      <stop
         style="stop-color:#eff5f8;stop-opacity:1;"
         offset="1"
         id="stop23" />
    </linearGradient>
  </defs>
  <g
     id="path1"
     transform="translate(-35,7)">
    <g
       id="g1"
       transform="translate(-17,-13.955184)">
      <g
         id="rect8"
         transform="translate(17,13.999496)">
        <path
           id="path13"
           style="color:#000000;fill:#90a4ae;fill-opacity:1;stroke-linecap:round;stroke-linejoin:round;-inkscape-stroke:none;paint-order:stroke fill markers"
           d="M 39.5,0 C 38.686299,0 38,0.6862988 38,1.5 v 3.6992188 c 0,0.8137011 0.686299,1.5 1.5,1.5 0.813701,0 1.5,-0.6862989 1.5,-1.5 V 1.5 C 41,0.6862988 40.313701,0 39.5,0 Z"
           sodipodi:nodetypes="sssssss" />
        <path
           style="color:#000000;fill:#e5ebed;fill-opacity:1;stroke-linecap:round;stroke-linejoin:round;-inkscape-stroke:none;paint-order:stroke fill markers"
           d="M 39.5,1 C 39.777,1 40,1.223 40,1.5 v 3.7001939 c 0,0.277 -0.223,0.5 -0.5,0.5 -0.277,0 -0.5,-0.223 -0.5,-0.5 V 1.5 C 39,1.223 39.223,1 39.5,1 Z"
           id="path14" />
        <path
           id="path13-7"
           style="color:#000000;fill:#90a4ae;fill-opacity:1;stroke-linecap:round;stroke-linejoin:round;-inkscape-stroke:none;paint-order:stroke fill markers"
           d="M 52.5,0 C 51.686299,0 51,0.6862988 51,1.5 v 3.6992188 c 0,0.8137011 0.686299,1.5 1.5,1.5 0.813701,0 1.5,-0.6862989 1.5,-1.5 V 1.5 C 54,0.6862988 53.313701,0 52.5,0 Z"
           sodipodi:nodetypes="sssssss" />
        <path
           style="color:#000000;fill:#e5ebed;fill-opacity:1;stroke-linecap:round;stroke-linejoin:round;-inkscape-stroke:none;paint-order:stroke fill markers"
           d="M 52.5,1 C 52.777,1 53,1.223 53,1.5 v 3.7001939 c 0,0.277 -0.223,0.5 -0.5,0.5 -0.277,0 -0.5,-0.223 -0.5,-0.5 V 1.5 C 52,1.223 52.223,1 52.5,1 Z"
           id="path14-5" />
      </g>
      <g
         id="path8"
         transform="translate(17,13.999496)">
        <path
           id="path21"
           style="color:#000000;fill:#90a4ae;fill-opacity:1;stroke-linecap:round;stroke-linejoin:round;-inkscape-stroke:none;paint-order:stroke fill markers"
           d="m 46.072266,8.0019531 a 1.0001,1.0001 0 0 0 -0.611328,0.15625 l -3,1.9199219 A 1.0001,1.0001 0 0 0 42,10.919922 v 1.029297 a 1.0001,1.0001 0 0 0 1.544922,0.839843 l 2.416016,-1.572265 2.49414,1.621094 A 1.0001,1.0001 0 0 0 50,12 V 10.970703 A 1.0001,1.0001 0 0 0 49.539062,10.128906 L 46.740234,8.3359375 A 1.0001,1.0001 0 0 0 46.480469,8.1230469 1.0001,1.0001 0 0 0 46.072266,8.0019531 Z" />
        <path
           id="path22"
           style="color:#000000;fill:#dfe7e8;fill-opacity:1;stroke-linecap:round;stroke-linejoin:round;-inkscape-stroke:none;paint-order:stroke fill markers"
           d="m 46,9 -3,1.919922 v 1.029297 L 46,10 v 0.05078 L 49,12 V 10.970703 L 46,9.0507812 Z" />
      </g>
      <g
         id="path7"
         transform="translate(17,13.999496)">
        <g
           id="path23">
          <path
             style="color:#000000;fill:#90a4ae;stroke-linecap:round;stroke-linejoin:round;-inkscape-stroke:none;paint-order:stroke fill markers"
             d="m 45.445312,-1.8320312 -9,5.9999999 C 36.167128,4.3534403 36.000027,4.6656557 36,5 v 3 c -1.06e-4,0.7237803 0.744842,1.2079965 1.40625,0.9140625 L 46,5.09375 54.59375,8.9140625 C 55.255158,9.2079965 56.000106,8.7237803 56,8 V 5 C 55.999973,4.6656555 55.832871,4.3534401 55.554687,4.1679687 l -9,-5.9999999 c -0.335902,-0.2238947 -0.773473,-0.2238947 -1.109375,0 z"
             id="path24"
             sodipodi:nodetypes="cccccccccccc" />
          <path
             style="color:#000000;fill:url(#linearGradient26);stroke-linecap:round;stroke-linejoin:round;-inkscape-stroke:none;paint-order:stroke fill markers"
             d="m 46,-1 -9,6 v 3 l 9,-4 9,4 V 5 Z"
             id="path25" />
        </g>
      </g>
      <g
         id="path6"
         transform="translate(17,13.999496)">
        <path
           style="color:#000000;fill:#90a4ae;fill-opacity:1;stroke-linecap:round;stroke-linejoin:round;-inkscape-stroke:none;paint-order:stroke fill markers"
           d="m 45.791016,-6.9824219 c -0.487705,0.07928 -0.834153,0.363187 -1.089844,0.65625 -0.255691,0.293063 -0.451402,0.628236 -0.638672,1.0195313 -0.37454,0.7825906 -0.70199,1.7974717 -1.029297,3.0546875 -0.02986,0.1146432 -0.03912,0.2336807 -0.02734,0.3515625 l 1,10 c 0.0019,0.022216 0.0045,0.044364 0.0078,0.066406 l 1,5.9101566 c 0.186631,1.112933 1.786025,1.112933 1.972656,0 l 1,-5.9101566 c 0.0033,-0.022042 0.0059,-0.04419 0.0078,-0.066406 l 1,-10 c 0.01123,-0.1124991 0.0033,-0.2260882 -0.02344,-0.3359375 -0.360724,-1.4803593 -0.7108,-2.5577769 -1.123047,-3.3457031 -0.206123,-0.3939632 -0.422541,-0.7238605 -0.742187,-0.9980469 -0.319647,-0.2741864 -0.826749,-0.4816234 -1.314453,-0.4023438 z"
           id="path9"
           sodipodi:nodetypes="cssccccccccccsscc" />
        <path
           style="color:#000000;fill:url(#linearGradient23);stroke-linecap:round;stroke-linejoin:round;-inkscape-stroke:none;paint-order:stroke fill markers"
           d="M 46,13.909438 45,8 44,-2 c 1.273948,-4.8933451 2.596781,-5.7586077 4,0 L 47,8 Z"
           id="path10" />
      </g>
    </g>
  </g>
</svg>
