<?xml version="1.0" encoding="UTF-8" standalone="no"?>
<svg
   id="svg7"
   version="1.1"
   viewBox="0 0 22 22"
   sodipodi:docname="software-updates-inactive.svg"
   inkscape:version="1.3.2 (091e20ef0f, 2023-11-25, custom)"
   xmlns:inkscape="http://www.inkscape.org/namespaces/inkscape"
   xmlns:sodipodi="http://sodipodi.sourceforge.net/DTD/sodipodi-0.dtd"
   xmlns:xlink="http://www.w3.org/1999/xlink"
   xmlns="http://www.w3.org/2000/svg"
   xmlns:svg="http://www.w3.org/2000/svg">
  <sodipodi:namedview
     id="namedview1"
     pagecolor="#ffffff"
     bordercolor="#000000"
     borderopacity="0.25"
     inkscape:showpageshadow="2"
     inkscape:pageopacity="0.0"
     inkscape:pagecheckerboard="0"
     inkscape:deskcolor="#d1d1d1"
     inkscape:zoom="37.862354"
     inkscape:cx="8.5441069"
     inkscape:cy="22.951558"
     inkscape:window-width="2560"
     inkscape:window-height="1364"
     inkscape:window-x="0"
     inkscape:window-y="0"
     inkscape:window-maximized="1"
     inkscape:current-layer="g1"
     showgrid="true">
    <inkscape:grid
       id="grid1"
       units="px"
       originx="0"
       originy="0"
       spacingx="1"
       spacingy="1"
       empcolor="#0099e5"
       empopacity="0.30196078"
       color="#0099e5"
       opacity="0.14902"
       empspacing="5"
       dotted="false"
       gridanglex="30"
       gridanglez="30"
       visible="true" />
  </sodipodi:namedview>
  <defs
     id="defs3">
    <style
       type="text/css"
       id="current-color-scheme">
        .ColorScheme-Text {            color:#232629;        }
    </style>
    <linearGradient
       inkscape:collect="always"
       xlink:href="#linearGradient4111"
       id="linearGradient4113"
       x1="3.7041664"
       y1="1.0583333"
       x2="3.7041664"
       y2="5.2916665"
       gradientUnits="userSpaceOnUse" />
    <linearGradient
       inkscape:collect="always"
       id="linearGradient4111">
      <stop
         style="stop-color:#cfa679;stop-opacity:1;"
         offset="0"
         id="stop4107" />
      <stop
         style="stop-color:#d9b389;stop-opacity:1;"
         offset="1"
         id="stop4109" />
    </linearGradient>
  </defs>
  <g
     id="g1"
     transform="translate(0.99999998,2)">
    <g
       id="g2"
       transform="matrix(1,0,0,-1,-1.9999999,21)">
      <g
         inkscape:label="Capa 1"
         id="layer1"
         transform="scale(3.7795276)">
        <path
           id="rect1728"
           style="opacity:1;fill:#806956;fill-opacity:1;stroke-width:0.529167;stroke-linecap:round;stroke-linejoin:round;stroke-miterlimit:1.8;paint-order:fill markers stroke;stop-color:#000000"
           d="m 1.0583333,0.52916664 h 4.2333332 c 0.2931583,0 0.5291666,0.23600832 0.5291666,0.52916666 v 4.2333332 c 0,0.2931583 -0.2360083,0.5291666 -0.5291666,0.5291666 H 1.0583333 c -0.29315834,0 -0.52916666,-0.2360083 -0.52916666,-0.5291666 V 1.0583333 c 0,-0.29315834 0.23600832,-0.52916666 0.52916666,-0.52916666 z" />
        <path
           id="rect1728-7"
           style="fill:url(#linearGradient4113);stroke-width:0.529167;stroke-linecap:round;stroke-linejoin:round;stroke-miterlimit:1.8;paint-order:fill markers stroke;stop-color:#000000"
           d="m 1.0583333,0.79374999 h 4.2333341 c 0.1465792,0 0.2645834,0.11800416 0.2645834,0.26458331 v 4.2333332 c 0,0.1465791 -0.1180042,0.2645833 -0.2645834,0.2645833 H 1.0583333 c -0.14657915,0 -0.26458331,-0.1180042 -0.26458331,-0.2645833 V 1.0583333 c 0,-0.14657915 0.11800416,-0.26458331 0.26458331,-0.26458331 z" />
      </g>
    </g>
    <path
       d="m 7.0093376,-1 v 1 1 1 7 c 0,1.66202 1.338,3 3.0000004,3 1.662,0 3,-1.33798 3,-3 V 2 1 0 -1 Z"
       fill="#010102"
       id="path13"
       sodipodi:nodetypes="ccccsssccccc" />
    <path
       d="m 8.0093377,-8e-5 v 2.99997 l -4e-7,6.00008 c -1e-7,1.108 0.892,2.00002 2.0000007,2.00002 1.108,0 2,-0.89202 2,-2.00002 V 2.99989 -8e-5 h -2 z"
       fill="url(#a)"
       id="path14"
       style="fill:#262626;fill-opacity:1"
       sodipodi:nodetypes="ccssscccc" />
    <path
       d="m 10.009338,0 h 1 z m 0,0 H 9.0093376 v 1 h 1.0000004 z m 0,1 v 1 h 1 V 1 Z m 0,1 H 9.0093376 v 1 h 1.0000004 z m 0,1 v 1.0000004 h 1 V 3 Z m 0,1.0000004 H 9.0093376 v 1 h 1.0000004 z m 0,1 v 1 h 1 v -1 z m 0,1 H 9.0093376 V 7 h 1.0000004 z m 0,0.9999996 v 1 h 1 V 7 Z m 0,1 H 9.0093376 v 1 h 1.0000004 z m 0,1 v 1 h 1 V 9 Z"
       fill="#fefefe"
       id="path15"
       sodipodi:nodetypes="ccccccccccccccccccccccccccccccccccccccccccccccccccccc" />
  </g>
</svg>
