<?xml version="1.0" encoding="UTF-8" standalone="no"?>
<svg
   width="22"
   height="22"
   version="1.1"
   id="svg4"
   sodipodi:docname="media-playback-paused.svg"
   inkscape:version="1.3.2 (091e20ef0f, 2023-11-25, custom)"
   xmlns:inkscape="http://www.inkscape.org/namespaces/inkscape"
   xmlns:sodipodi="http://sodipodi.sourceforge.net/DTD/sodipodi-0.dtd"
   xmlns:xlink="http://www.w3.org/1999/xlink"
   xmlns="http://www.w3.org/2000/svg"
   xmlns:svg="http://www.w3.org/2000/svg">
  <defs
     id="defs4">
    <linearGradient
       inkscape:collect="always"
       xlink:href="#linearGradient10"
       id="linearGradient3"
       gradientUnits="userSpaceOnUse"
       gradientTransform="matrix(3.7795276,0,0,3.7795276,9.0000005,-8.999999)"
       x1="-0.79374999"
       y1="5.8208332"
       x2="-0.79374999"
       y2="1.5875" />
    <linearGradient
       inkscape:collect="always"
       id="linearGradient10">
      <stop
         style="stop-color:#636b85;stop-opacity:1;"
         offset="0"
         id="stop9" />
      <stop
         style="stop-color:#6e7692;stop-opacity:1;"
         offset="1"
         id="stop10" />
    </linearGradient>
  </defs>
  <sodipodi:namedview
     id="namedview4"
     pagecolor="#ffffff"
     bordercolor="#000000"
     borderopacity="0.25"
     inkscape:showpageshadow="2"
     inkscape:pageopacity="0.0"
     inkscape:pagecheckerboard="0"
     inkscape:deskcolor="#d1d1d1"
     inkscape:zoom="26.363636"
     inkscape:cx="20.122414"
     inkscape:cy="18.7"
     inkscape:window-width="2560"
     inkscape:window-height="1364"
     inkscape:window-x="0"
     inkscape:window-y="0"
     inkscape:window-maximized="1"
     inkscape:current-layer="svg4" />
  <style
     type="text/css"
     id="current-color-scheme">
        .ColorScheme-Text {
            color:#232629;
        }
    </style>
  <g
     id="g4"
     transform="translate(5.0000005,6)">
    <path
       id="rect15701-6-5"
       style="fill:#363c4d;fill-opacity:1;stroke-width:2;stroke-linecap:round;stroke-linejoin:round;stroke-miterlimit:1.8;paint-order:fill markers stroke;stop-color:#000000"
       d="m 6.0000001,-5 c 5.5400009,0 9.9999989,4.46000017 9.9999989,10 0,5.54 -4.459998,10 -9.9999989,10 -5.5399998,0 -10,-4.46 -10,-10 0,-5.53999983 4.4600002,-10 10,-10 z" />
    <path
       id="rect15701-2-5-2"
       style="fill:url(#linearGradient3);stroke-width:1.8;stroke-linecap:round;stroke-linejoin:round;stroke-miterlimit:1.8;paint-order:fill markers stroke;stop-color:#000000"
       d="M 6.0000005,-3.9999997 C 10.986002,-3.9999997 15,0.01399992 15,5 c 0,4.9859997 -4.013998,9 -8.9999995,9 -4.9860001,0 -9.0000001,-4.0140003 -9.0000001,-9 0,-4.98600008 4.014,-8.9999997 9.0000001,-8.9999997 z" />
    <path
       id="rect10-9-3"
       style="fill:#363c4d;stroke-width:1.93924;stroke-linecap:round;stroke-linejoin:round;paint-order:stroke markers fill"
       d="m 2.0000002,1.0000004 h 1.9999986 c 0.5540032,0 1.0000026,0.4459998 1.0000026,0.9999999 V 10 c 0,0.554 -0.4459994,1 -1.0000026,1 H 2.0000002 C 1.4460004,11 1.0000003,10.554 1.0000003,10 V 2.0000003 c 0,-0.5540001 0.4460001,-0.9999999 0.9999999,-0.9999999 z"
       sodipodi:nodetypes="sssssssss" />
    <path
       id="rect10-90"
       style="fill:#f8f9fa;fill-opacity:1;stroke-width:1.93924;stroke-linecap:round;stroke-linejoin:round;paint-order:stroke markers fill"
       d="M 2.0000002,5.4984908e-7 H 3.9999988 C 4.554002,5.4984908e-7 5.0000014,0.44600068 5.0000014,1.0000004 v 8.0000002 c 0,0.5539998 -0.4459994,1.0000004 -1.0000026,1.0000004 H 2.0000002 c -0.5539998,0 -0.9999999,-0.4460006 -0.9999999,-1.0000004 V 1.0000004 C 1.0000003,0.44600068 1.4460004,5.4984908e-7 2.0000002,5.4984908e-7 Z"
       sodipodi:nodetypes="sssssssss" />
    <path
       id="rect10-9-3-8"
       style="fill:#363c4d;stroke-width:1.93924;stroke-linecap:round;stroke-linejoin:round;paint-order:stroke markers fill"
       d="m 7.9999995,1.0000001 h 1.9999956 c 0.5540029,0 1.0000029,0.4459997 1.0000029,1.0000002 V 9.9999998 C 10.999998,10.554 10.553998,11 9.9999951,11 H 7.9999995 C 7.4460001,11 7.0000007,10.554 7.0000007,9.9999998 V 2.0000003 c 0,-0.5540005 0.4459994,-1.0000002 0.9999988,-1.0000002 z"
       sodipodi:nodetypes="sssssssss" />
    <path
       id="rect10-90-8"
       style="fill:#f8f9fa;fill-opacity:1;stroke-width:1.93924;stroke-linecap:round;stroke-linejoin:round;paint-order:stroke markers fill"
       d="M 7.9999995,5.4984908e-7 H 9.9999951 C 10.553998,5.4984908e-7 10.999998,0.4460003 10.999998,1.0000004 V 9.0000006 C 10.999998,9.5540004 10.553998,10 9.9999951,10 H 7.9999995 C 7.4460001,10 7.0000007,9.5540004 7.0000007,9.0000006 V 1.0000001 C 7.0000007,0.4460003 7.4460001,1.7189632e-7 7.9999995,5.4984908e-7 Z"
       sodipodi:nodetypes="sssssssss" />
  </g>
</svg>
