<?xml version="1.0" encoding="UTF-8" standalone="no"?>
<svg
   height="22"
   viewBox="0 0 22 22"
   width="22"
   id="svg2"
   version="1.1"
   inkscape:version="1.3.2 (091e20ef0f, 2023-11-25, custom)"
   sodipodi:docname="network-mobile-60-5g-locked.svg"
   xml:space="preserve"
   xmlns:inkscape="http://www.inkscape.org/namespaces/inkscape"
   xmlns:sodipodi="http://sodipodi.sourceforge.net/DTD/sodipodi-0.dtd"
   xmlns:xlink="http://www.w3.org/1999/xlink"
   xmlns="http://www.w3.org/2000/svg"
   xmlns:svg="http://www.w3.org/2000/svg"
   xmlns:rdf="http://www.w3.org/1999/02/22-rdf-syntax-ns#"
   xmlns:cc="http://creativecommons.org/ns#"
   xmlns:dc="http://purl.org/dc/elements/1.1/"><metadata
     id="metadata10"><rdf:RDF><cc:Work
         rdf:about=""><dc:format>image/svg+xml</dc:format><dc:type
           rdf:resource="http://purl.org/dc/dcmitype/StillImage" /></cc:Work></rdf:RDF></metadata><sodipodi:namedview
     pagecolor="#ffffff"
     bordercolor="#666666"
     borderopacity="1"
     objecttolerance="10"
     gridtolerance="10"
     guidetolerance="10"
     inkscape:pageopacity="0"
     inkscape:pageshadow="2"
     inkscape:window-width="2560"
     inkscape:window-height="1364"
     id="namedview8"
     showgrid="true"
     inkscape:zoom="32"
     inkscape:cx="12.421875"
     inkscape:cy="11.5625"
     inkscape:window-x="0"
     inkscape:window-y="0"
     inkscape:window-maximized="1"
     inkscape:current-layer="svg2"
     inkscape:snap-bbox="true"
     inkscape:bbox-paths="true"
     inkscape:bbox-nodes="true"
     inkscape:snap-bbox-edge-midpoints="true"
     inkscape:snap-bbox-midpoints="true"
     inkscape:object-paths="true"
     inkscape:snap-intersection-paths="true"
     inkscape:snap-smooth-nodes="true"
     inkscape:showpageshadow="2"
     inkscape:pagecheckerboard="0"
     inkscape:deskcolor="#d1d1d1"><inkscape:grid
       type="xygrid"
       id="grid816"
       originx="0"
       originy="0"
       spacingy="1"
       spacingx="1"
       units="px"
       visible="true" /></sodipodi:namedview><defs
     id="defs2"><style
       type="text/css"
       id="current-color-scheme">
      .ColorScheme-Text {
        color:#122036;
      }
      </style><style
       id="current-color-scheme-67"
       type="text/css">
      .ColorScheme-Text {
        color:#122036;
      }
      </style><style
       type="text/css"
       id="current-color-scheme-1">
      .ColorScheme-Text {
        color:#122036;
      }
      </style><style
       type="text/css"
       id="current-color-scheme-5">
      .ColorScheme-Text {
        color:#122036;
      }
      </style><style
       id="current-color-scheme-1-3"
       type="text/css">
      .ColorScheme-Text {
        color:#122036;
      }
      </style><style
       type="text/css"
       id="current-color-scheme-6">
      .ColorScheme-Text {
        color:#122036;
      }
      </style><style
       id="current-color-scheme-5-06"
       type="text/css">
      .ColorScheme-Text {
        color:#122036;
      }
      </style><style
       id="current-color-scheme-2"
       type="text/css">
      .ColorScheme-Text {
        color:#122036;
      }
      </style><style
       id="current-color-scheme-1-2"
       type="text/css">
      .ColorScheme-Text {
        color:#122036;
      }
      </style><style
       type="text/css"
       id="current-color-scheme-10">
      .ColorScheme-Text {
        color:#122036;
      }
      </style><style
       id="current-color-scheme-0"
       type="text/css">
      .ColorScheme-Text {
        color:#122036;
      }
      </style><style
       id="current-color-scheme-53"
       type="text/css">
      .ColorScheme-Text {
        color:#122036;
      }
      </style><style
       type="text/css"
       id="current-color-scheme-1-5">
      .ColorScheme-Text {
        color:#122036;
      }
      </style><style
       type="text/css"
       id="current-color-scheme-912">
      .ColorScheme-Text {
        color:#36404d;
      }
      </style><style
       type="text/css"
       id="current-color-scheme-0-7">
      .ColorScheme-Text {
        color:#122036;
      }
      </style><style
       id="current-color-scheme-1-0"
       type="text/css">
      .ColorScheme-Text {
        color:#122036;
      }
      </style><style
       id="current-color-scheme-3"
       type="text/css">
      .ColorScheme-Text {
        color:#122036;
      }
      </style><style
       type="text/css"
       id="current-color-scheme-1-7">
      .ColorScheme-Text {
        color:#122036;
      }
      </style><style
       type="text/css"
       id="current-color-scheme-06">
      .ColorScheme-Text {
        color:#122036;
      }
      </style><style
       id="current-color-scheme-1-1"
       type="text/css">
      .ColorScheme-Text {
        color:#122036;
      }
      </style><style
       id="current-color-scheme-5-9"
       type="text/css">
      .ColorScheme-Text {
        color:#36404d;
      }
      </style><style
       type="text/css"
       id="current-color-scheme-3-6">
      .ColorScheme-Text {
        color:#36404d;
      }
      </style><style
       id="current-color-scheme-9"
       type="text/css">
      .ColorScheme-Text {
        color:#36404d;
      }
      </style><style
       type="text/css"
       id="current-color-scheme-4">
      .ColorScheme-Text {
        color:#122036;
      }
      </style><style
       id="current-color-scheme-7"
       type="text/css">
      .ColorScheme-Text {
        color:#36404d;
      }
      </style><style
       type="text/css"
       id="current-color-scheme-91">
      .ColorScheme-Text {
        color:#122036;
      }
      </style><style
       type="text/css"
       id="current-color-scheme-7-27">
      .ColorScheme-Text {
        color:#122036;
      }
      </style><style
       type="text/css"
       id="current-color-scheme-5-09">
      .ColorScheme-Text {
        color:#122036;
      }
      </style><style
       type="text/css"
       id="current-color-scheme-0-3">
      .ColorScheme-Text {
        color:#122036;
      }
      </style><style
       type="text/css"
       id="current-color-scheme-7-9">
      .ColorScheme-Text {
        color:#122036;
      }
      </style><style
       type="text/css"
       id="current-color-scheme-5-3">
      .ColorScheme-Text {
        color:#122036;
      }
      </style><style
       type="text/css"
       id="current-color-scheme-79">
      .ColorScheme-Text {
        color:#122036;
      }
      </style><style
       type="text/css"
       id="current-color-scheme-7-2">
      .ColorScheme-Text {
        color:#122036;
      }
      </style><style
       type="text/css"
       id="current-color-scheme-5-0">
      .ColorScheme-Text {
        color:#122036;
      }
      </style><style
       type="text/css"
       id="current-color-scheme-062">
      .ColorScheme-Text {
        color:#122036;
      }
      </style><style
       id="current-color-scheme-1-6"
       type="text/css">
      .ColorScheme-Text {
        color:#122036;
      }
      </style><style
       type="text/css"
       id="current-color-scheme-37">
      .ColorScheme-Text {
        color:#122036;
      }
      </style><style
       id="current-color-scheme-1-5-3"
       type="text/css">
      .ColorScheme-Text {
        color:#122036;
      }
      </style><style
       type="text/css"
       id="current-color-scheme-19">
      .ColorScheme-Text {
        color:#122036;
      }
      </style><style
       id="current-color-scheme-5-4"
       type="text/css">
      .ColorScheme-Text {
        color:#122036;
      }
      </style><style
       id="current-color-scheme-2-6"
       type="text/css">
      .ColorScheme-Text {
        color:#122036;
      }
      </style><style
       id="current-color-scheme-1-78"
       type="text/css">
      .ColorScheme-Text {
        color:#122036;
      }
      </style><style
       type="text/css"
       id="current-color-scheme-10-0">
      .ColorScheme-Text {
        color:#122036;
      }
      </style><style
       id="current-color-scheme-0-4"
       type="text/css">
      .ColorScheme-Text {
        color:#122036;
      }
      </style><style
       id="current-color-scheme-35"
       type="text/css">
      .ColorScheme-Text {
        color:#36404d;
      }
      </style><style
       type="text/css"
       id="current-color-scheme-9127">
      .ColorScheme-Text {
        color:#122036;
      }
      </style><style
       type="text/css"
       id="current-color-scheme-75">
      .ColorScheme-Text {
        color:#36404d;
      }
      </style><style
       type="text/css"
       id="current-color-scheme-67-3">
      .ColorScheme-Text {
        color:#122036;
      }
      </style><style
       type="text/css"
       id="current-color-scheme-7-5">
      .ColorScheme-Text {
        color:#122036;
      }
      </style><style
       type="text/css"
       id="current-color-scheme-5-6">
      .ColorScheme-Text {
        color:#122036;
      }
      </style><style
       type="text/css"
       id="current-color-scheme-6-2">
      .ColorScheme-Text {
        color:#122036;
      }
      </style><style
       type="text/css"
       id="current-color-scheme-1-9">
      .ColorScheme-Text {
        color:#122036;
      }
      </style><style
       id="current-color-scheme-10-1"
       type="text/css">
      .ColorScheme-Text {
        color:#122036;
      }
      </style><style
       id="current-color-scheme-5-7"
       type="text/css">
      .ColorScheme-Text {
        color:#122036;
      }
      </style><style
       id="current-color-scheme-1-2-2"
       type="text/css">
      .ColorScheme-Text {
        color:#122036;
      }
      </style><style
       type="text/css"
       id="current-color-scheme-10-9">
      .ColorScheme-Text {
        color:#122036;
      }
      </style><style
       type="text/css"
       id="current-color-scheme-68">
      .ColorScheme-Text {
        color:#122036;
      }
      </style><style
       id="current-color-scheme-67-9"
       type="text/css">
      .ColorScheme-Text {
        color:#122036;
      }
      </style><style
       type="text/css"
       id="current-color-scheme-1-26">
      .ColorScheme-Text {
        color:#122036;
      }
      </style><style
       type="text/css"
       id="current-color-scheme-5-64">
      .ColorScheme-Text {
        color:#122036;
      }
      </style><style
       id="current-color-scheme-1-3-9"
       type="text/css">
      .ColorScheme-Text {
        color:#122036;
      }
      </style><style
       type="text/css"
       id="current-color-scheme-6-5">
      .ColorScheme-Text {
        color:#122036;
      }
      </style><style
       id="current-color-scheme-5-06-0"
       type="text/css">
      .ColorScheme-Text {
        color:#122036;
      }
      </style><style
       id="current-color-scheme-2-4"
       type="text/css">
      .ColorScheme-Text {
        color:#122036;
      }
      </style><style
       id="current-color-scheme-1-2-8"
       type="text/css">
      .ColorScheme-Text {
        color:#122036;
      }
      </style><style
       type="text/css"
       id="current-color-scheme-10-7">
      .ColorScheme-Text {
        color:#122036;
      }
      </style><style
       id="current-color-scheme-0-17"
       type="text/css">
      .ColorScheme-Text {
        color:#122036;
      }
      </style><style
       id="current-color-scheme-53-27"
       type="text/css">
      .ColorScheme-Text {
        color:#122036;
      }
      </style><style
       type="text/css"
       id="current-color-scheme-1-5-2">
      .ColorScheme-Text {
        color:#122036;
      }
      </style><style
       type="text/css"
       id="current-color-scheme-912-2">
      .ColorScheme-Text {
        color:#36404d;
      }
      </style><style
       type="text/css"
       id="current-color-scheme-0-7-6">
      .ColorScheme-Text {
        color:#122036;
      }
      </style><style
       id="current-color-scheme-1-0-1"
       type="text/css">
      .ColorScheme-Text {
        color:#122036;
      }
      </style><style
       id="current-color-scheme-3-0"
       type="text/css">
      .ColorScheme-Text {
        color:#122036;
      }
      </style><style
       type="text/css"
       id="current-color-scheme-1-7-6">
      .ColorScheme-Text {
        color:#122036;
      }
      </style><style
       type="text/css"
       id="current-color-scheme-06-1">
      .ColorScheme-Text {
        color:#122036;
      }
      </style><style
       id="current-color-scheme-1-1-5"
       type="text/css">
      .ColorScheme-Text {
        color:#122036;
      }
      </style><style
       id="current-color-scheme-5-9-9"
       type="text/css">
      .ColorScheme-Text {
        color:#36404d;
      }
      </style><style
       type="text/css"
       id="current-color-scheme-3-6-4">
      .ColorScheme-Text {
        color:#36404d;
      }
      </style><style
       id="current-color-scheme-9-9"
       type="text/css">
      .ColorScheme-Text {
        color:#36404d;
      }
      </style><style
       type="text/css"
       id="current-color-scheme-4-0">
      .ColorScheme-Text {
        color:#122036;
      }
      </style><style
       id="current-color-scheme-7-91"
       type="text/css">
      .ColorScheme-Text {
        color:#36404d;
      }
      </style><style
       type="text/css"
       id="current-color-scheme-91-7">
      .ColorScheme-Text {
        color:#122036;
      }
      </style><style
       type="text/css"
       id="current-color-scheme-7-27-7">
      .ColorScheme-Text {
        color:#122036;
      }
      </style><style
       type="text/css"
       id="current-color-scheme-5-09-1">
      .ColorScheme-Text {
        color:#122036;
      }
      </style><style
       type="text/css"
       id="current-color-scheme-0-3-1">
      .ColorScheme-Text {
        color:#122036;
      }
      </style><style
       type="text/css"
       id="current-color-scheme-7-9-5">
      .ColorScheme-Text {
        color:#122036;
      }
      </style><style
       type="text/css"
       id="current-color-scheme-5-3-9">
      .ColorScheme-Text {
        color:#122036;
      }
      </style><style
       type="text/css"
       id="current-color-scheme-79-7">
      .ColorScheme-Text {
        color:#122036;
      }
      </style><style
       type="text/css"
       id="current-color-scheme-7-2-7">
      .ColorScheme-Text {
        color:#122036;
      }
      </style><style
       type="text/css"
       id="current-color-scheme-5-0-6">
      .ColorScheme-Text {
        color:#122036;
      }
      </style><style
       type="text/css"
       id="current-color-scheme-062-7">
      .ColorScheme-Text {
        color:#122036;
      }
      </style><style
       id="current-color-scheme-1-6-3"
       type="text/css">
      .ColorScheme-Text {
        color:#122036;
      }
      </style><style
       type="text/css"
       id="current-color-scheme-37-65">
      .ColorScheme-Text {
        color:#122036;
      }
      </style><style
       id="current-color-scheme-1-5-3-6"
       type="text/css">
      .ColorScheme-Text {
        color:#122036;
      }
      </style><style
       type="text/css"
       id="current-color-scheme-19-3">
      .ColorScheme-Text {
        color:#122036;
      }
      </style><style
       id="current-color-scheme-5-4-94"
       type="text/css">
      .ColorScheme-Text {
        color:#122036;
      }
      </style><style
       id="current-color-scheme-2-6-8"
       type="text/css">
      .ColorScheme-Text {
        color:#122036;
      }
      </style><style
       id="current-color-scheme-1-78-1"
       type="text/css">
      .ColorScheme-Text {
        color:#122036;
      }
      </style><style
       type="text/css"
       id="current-color-scheme-10-0-2">
      .ColorScheme-Text {
        color:#122036;
      }
      </style><style
       id="current-color-scheme-0-4-9"
       type="text/css">
      .ColorScheme-Text {
        color:#122036;
      }
      </style><style
       id="current-color-scheme-35-3"
       type="text/css">
      .ColorScheme-Text {
        color:#36404d;
      }
      </style><style
       type="text/css"
       id="current-color-scheme-9127-9">
      .ColorScheme-Text {
        color:#122036;
      }
      </style><style
       type="text/css"
       id="current-color-scheme-75-0">
      .ColorScheme-Text {
        color:#36404d;
      }
      </style><style
       type="text/css"
       id="current-color-scheme-67-3-8">
      .ColorScheme-Text {
        color:#122036;
      }
      </style><style
       type="text/css"
       id="current-color-scheme-7-5-8">
      .ColorScheme-Text {
        color:#122036;
      }
      </style><style
       type="text/css"
       id="current-color-scheme-5-6-5">
      .ColorScheme-Text {
        color:#122036;
      }
      </style><style
       type="text/css"
       id="current-color-scheme-6-2-0">
      .ColorScheme-Text {
        color:#122036;
      }
      </style><style
       type="text/css"
       id="current-color-scheme-1-9-9">
      .ColorScheme-Text {
        color:#122036;
      }
      </style><style
       id="current-color-scheme-10-1-6"
       type="text/css">
      .ColorScheme-Text {
        color:#122036;
      }
      </style><style
       id="current-color-scheme-5-7-3"
       type="text/css">
      .ColorScheme-Text {
        color:#122036;
      }
      </style><style
       id="current-color-scheme-1-2-2-8"
       type="text/css">
      .ColorScheme-Text {
        color:#122036;
      }
      </style><style
       type="text/css"
       id="current-color-scheme-10-9-5">
      .ColorScheme-Text {
        color:#122036;
      }
      </style><style
       type="text/css"
       id="current-color-scheme-02">
      .ColorScheme-Text {
        color:#122036;
      }
      </style><style
       id="current-color-scheme-67-37"
       type="text/css">
      .ColorScheme-Text {
        color:#122036;
      }
      </style><style
       type="text/css"
       id="current-color-scheme-1-59">
      .ColorScheme-Text {
        color:#122036;
      }
      </style><style
       type="text/css"
       id="current-color-scheme-5-2">
      .ColorScheme-Text {
        color:#122036;
      }
      </style><style
       id="current-color-scheme-1-3-2"
       type="text/css">
      .ColorScheme-Text {
        color:#122036;
      }
      </style><style
       type="text/css"
       id="current-color-scheme-6-8">
      .ColorScheme-Text {
        color:#122036;
      }
      </style><style
       id="current-color-scheme-5-06-9"
       type="text/css">
      .ColorScheme-Text {
        color:#122036;
      }
      </style><style
       id="current-color-scheme-2-7"
       type="text/css">
      .ColorScheme-Text {
        color:#122036;
      }
      </style><style
       id="current-color-scheme-1-2-3"
       type="text/css">
      .ColorScheme-Text {
        color:#122036;
      }
      </style><style
       type="text/css"
       id="current-color-scheme-10-6">
      .ColorScheme-Text {
        color:#122036;
      }
      </style><style
       id="current-color-scheme-0-1"
       type="text/css">
      .ColorScheme-Text {
        color:#122036;
      }
      </style><style
       id="current-color-scheme-53-2"
       type="text/css">
      .ColorScheme-Text {
        color:#122036;
      }
      </style><style
       type="text/css"
       id="current-color-scheme-1-5-9">
      .ColorScheme-Text {
        color:#122036;
      }
      </style><style
       type="text/css"
       id="current-color-scheme-912-3">
      .ColorScheme-Text {
        color:#36404d;
      }
      </style><style
       type="text/css"
       id="current-color-scheme-0-7-1">
      .ColorScheme-Text {
        color:#122036;
      }
      </style><style
       id="current-color-scheme-1-0-9"
       type="text/css">
      .ColorScheme-Text {
        color:#122036;
      }
      </style><style
       id="current-color-scheme-3-4"
       type="text/css">
      .ColorScheme-Text {
        color:#122036;
      }
      </style><style
       type="text/css"
       id="current-color-scheme-1-7-7">
      .ColorScheme-Text {
        color:#122036;
      }
      </style><style
       type="text/css"
       id="current-color-scheme-06-8">
      .ColorScheme-Text {
        color:#122036;
      }
      </style><style
       id="current-color-scheme-1-1-4"
       type="text/css">
      .ColorScheme-Text {
        color:#122036;
      }
      </style><style
       id="current-color-scheme-5-9-5"
       type="text/css">
      .ColorScheme-Text {
        color:#36404d;
      }
      </style><style
       type="text/css"
       id="current-color-scheme-3-6-0">
      .ColorScheme-Text {
        color:#36404d;
      }
      </style><style
       id="current-color-scheme-9-3"
       type="text/css">
      .ColorScheme-Text {
        color:#36404d;
      }
      </style><style
       type="text/css"
       id="current-color-scheme-4-6">
      .ColorScheme-Text {
        color:#122036;
      }
      </style><style
       id="current-color-scheme-7-1"
       type="text/css">
      .ColorScheme-Text {
        color:#36404d;
      }
      </style><style
       type="text/css"
       id="current-color-scheme-91-0">
      .ColorScheme-Text {
        color:#122036;
      }
      </style><style
       type="text/css"
       id="current-color-scheme-7-27-6">
      .ColorScheme-Text {
        color:#122036;
      }
      </style><style
       type="text/css"
       id="current-color-scheme-5-09-3">
      .ColorScheme-Text {
        color:#122036;
      }
      </style><style
       type="text/css"
       id="current-color-scheme-0-3-2">
      .ColorScheme-Text {
        color:#122036;
      }
      </style><style
       type="text/css"
       id="current-color-scheme-7-9-0">
      .ColorScheme-Text {
        color:#122036;
      }
      </style><style
       type="text/css"
       id="current-color-scheme-5-3-6">
      .ColorScheme-Text {
        color:#122036;
      }
      </style><style
       type="text/css"
       id="current-color-scheme-79-1">
      .ColorScheme-Text {
        color:#122036;
      }
      </style><style
       type="text/css"
       id="current-color-scheme-7-2-5">
      .ColorScheme-Text {
        color:#122036;
      }
      </style><style
       type="text/css"
       id="current-color-scheme-5-0-5">
      .ColorScheme-Text {
        color:#122036;
      }
      </style><style
       type="text/css"
       id="current-color-scheme-062-4">
      .ColorScheme-Text {
        color:#122036;
      }
      </style><style
       id="current-color-scheme-1-6-7"
       type="text/css">
      .ColorScheme-Text {
        color:#122036;
      }
      </style><style
       type="text/css"
       id="current-color-scheme-37-6">
      .ColorScheme-Text {
        color:#122036;
      }
      </style><style
       id="current-color-scheme-1-5-3-5"
       type="text/css">
      .ColorScheme-Text {
        color:#122036;
      }
      </style><style
       type="text/css"
       id="current-color-scheme-19-6">
      .ColorScheme-Text {
        color:#122036;
      }
      </style><style
       id="current-color-scheme-5-4-9"
       type="text/css">
      .ColorScheme-Text {
        color:#122036;
      }
      </style><style
       id="current-color-scheme-2-6-3"
       type="text/css">
      .ColorScheme-Text {
        color:#122036;
      }
      </style><style
       id="current-color-scheme-1-78-7"
       type="text/css">
      .ColorScheme-Text {
        color:#122036;
      }
      </style><style
       type="text/css"
       id="current-color-scheme-10-0-4">
      .ColorScheme-Text {
        color:#122036;
      }
      </style><style
       id="current-color-scheme-0-4-5"
       type="text/css">
      .ColorScheme-Text {
        color:#122036;
      }
      </style><style
       id="current-color-scheme-35-2"
       type="text/css">
      .ColorScheme-Text {
        color:#36404d;
      }
      </style><style
       type="text/css"
       id="current-color-scheme-9127-5">
      .ColorScheme-Text {
        color:#122036;
      }
      </style><style
       type="text/css"
       id="current-color-scheme-75-4">
      .ColorScheme-Text {
        color:#36404d;
      }
      </style><style
       type="text/css"
       id="current-color-scheme-67-3-7">
      .ColorScheme-Text {
        color:#122036;
      }
      </style><style
       type="text/css"
       id="current-color-scheme-7-5-4">
      .ColorScheme-Text {
        color:#122036;
      }
      </style><style
       type="text/css"
       id="current-color-scheme-5-6-4">
      .ColorScheme-Text {
        color:#122036;
      }
      </style><style
       type="text/css"
       id="current-color-scheme-6-2-3">
      .ColorScheme-Text {
        color:#122036;
      }
      </style><style
       type="text/css"
       id="current-color-scheme-1-9-0">
      .ColorScheme-Text {
        color:#122036;
      }
      </style><style
       id="current-color-scheme-10-1-7"
       type="text/css">
      .ColorScheme-Text {
        color:#122036;
      }
      </style><style
       id="current-color-scheme-5-7-8"
       type="text/css">
      .ColorScheme-Text {
        color:#122036;
      }
      </style><style
       id="current-color-scheme-1-2-2-6"
       type="text/css">
      .ColorScheme-Text {
        color:#122036;
      }
      </style><style
       type="text/css"
       id="current-color-scheme-10-9-8">
      .ColorScheme-Text {
        color:#122036;
      }
      </style><linearGradient
       inkscape:collect="always"
       xlink:href="#linearGradient3-9"
       id="linearGradient4-0"
       x1="11"
       y1="19.95339"
       x2="11"
       y2="3"
       gradientUnits="userSpaceOnUse" /><linearGradient
       id="linearGradient3-9"
       inkscape:collect="always"><stop
         style="stop-color:#4a9ef1;stop-opacity:1;"
         offset="0"
         id="stop3-2" /><stop
         style="stop-color:#a2cff9;stop-opacity:1;"
         offset="1"
         id="stop4-0" /></linearGradient><linearGradient
       inkscape:collect="always"
       xlink:href="#linearGradient27"
       id="linearGradient26"
       gradientUnits="userSpaceOnUse"
       x1="18.683697"
       y1="20.730484"
       x2="17.999435"
       y2="2"
       gradientTransform="translate(5.64e-4)" /><linearGradient
       id="linearGradient27"
       inkscape:collect="always"><stop
         style="stop-color:#e5efef;stop-opacity:1;"
         offset="0"
         id="stop26" /><stop
         style="stop-color:#f2f6f6;stop-opacity:1;"
         offset="1"
         id="stop27" /></linearGradient><linearGradient
       id="b"
       gradientUnits="userSpaceOnUse"
       x1="17"
       x2="17"
       y1="15"
       y2="10"><stop
         offset="0"
         stop-color="#d1e4e4"
         id="stop3" /><stop
         offset="1"
         stop-color="#fafafa"
         id="stop4" /></linearGradient><linearGradient
       id="c"
       gradientUnits="userSpaceOnUse"
       x1="17"
       x2="17"
       y1="21"
       y2="16"><stop
         offset="0"
         stop-color="#dca34a"
         id="stop5" /><stop
         offset="1"
         stop-color="#e3bd85"
         id="stop6" /></linearGradient></defs><g
     id="g19"
     transform="translate(0.0126953)"><path
       id="path1"
       style="fill:#3172ca;fill-opacity:1;stroke-width:2;stroke-linecap:round;stroke-linejoin:round;paint-order:stroke fill markers"
       d="M 7,2 C 5.8920088,2 5,2.8920088 5,4 V 4.4003906 4.5 4.5996094 5 C 5,6.1079912 5.8920088,7 7,7 H 7.4746094 C 7.4831594,7.0004304 7.491343,7 7.5,7 h 1 C 8.7769989,7 9,6.7769988 9,6.5 V 4.5253906 c 4.3e-4,-0.00855 0,-0.016734 0,-0.025391 0,-0.00864 4.29e-4,-0.016858 0,-0.025391 C 8.9995696,4.4660586 8.9989,4.4576426 8.99805,4.4492176 8.9971995,4.4407976 8.9954,4.4321206 8.99414,4.4238266 8.99288,4.4155366 8.99189,4.4065876 8.99023,4.3984356 8.9885747,4.3902857 8.9864238,4.383 8.984375,4.375 8.982325,4.367 8.980945,4.3594 8.978515,4.351563 8.976125,4.343833 8.973455,4.335688 8.970705,4.328126 8.967905,4.320456 8.964095,4.312171 8.960935,4.304689 8.957835,4.297339 8.954605,4.290365 8.951165,4.283205 8.947665,4.275915 8.943285,4.268807 8.939446,4.261721 8.935556,4.254541 8.931956,4.247196 8.927727,4.240237 8.923557,4.233367 8.918537,4.227354 8.914055,4.220706 8.909575,4.214056 8.905175,4.207588 8.900383,4.201175 8.895593,4.194765 8.891793,4.187812 8.886711,4.181644 8.881761,4.175644 8.876302,4.169823 8.871086,4.164066 8.865716,4.158156 8.859156,4.152136 8.853508,4.146488 8.847698,4.140678 8.842015,4.134424 8.83593,4.12891 8.83002,4.12354 8.824521,4.118372 8.818352,4.113285 8.812182,4.108195 8.805234,4.104405 8.798821,4.099613 8.792411,4.094823 8.785938,4.090423 8.77929,4.085941 8.77273,4.081511 8.766538,4.076381 8.759759,4.072269 8.752889,4.068099 8.74536,4.064389 8.738275,4.06055 8.731065,4.05664 8.724216,4.05239 8.716791,4.048831 8.709501,4.045331 8.702789,4.042221 8.695307,4.039061 8.687727,4.035861 8.679642,4.032121 8.67187,4.029291 8.6642,4.026491 8.65627,4.023911 8.648433,4.021481 8.6405997,4.0190568 8.633,4.0176738 8.625,4.015625 8.617,4.013575 8.609714,4.011425 8.601563,4.009765 8.593413,4.008105 8.584466,4.007115 8.576172,4.005855 8.567882,4.004595 8.559206,4.002795 8.550781,4.001945 8.5423441,4.0011014 8.533949,4.0004304 8.5253906,4 8.516845,3.9995696 8.5086562,4 8.5,4 h -1 C 7.2230003,4 7,4.2230003 7,4.5 7,4.7769997 7.2230003,5 7.5,5 H 8 V 6 H 7.5 C 7.49134,6 7.4831554,5.9995696 7.4746094,6 H 7 C 6.4460048,6 6,5.5539952 6,5 V 4 C 6,3.4460048 6.4460048,3 7,3 H 7.4746094 C 7.4831594,3.0004304 7.49134,3 7.5,3 h 1 C 8.7769989,3 9,2.7769988 9,2.5 9,2.2230012 8.7769989,2 8.5,2 h -1 C 7.49134,2 7.4831594,1.9995696 7.4746094,2 Z" /><g
       id="g2"><path
         id="rect1-6"
         style="fill:#90a4ae;fill-opacity:1;stroke-width:2;stroke-linecap:round;stroke-linejoin:round;paint-order:stroke fill markers"
         d="m 18,1 c 1.108,0 2,0.892 2,2 v 8 c 0,1.108 -0.892,2 -2,2 -1.108,0 -2,-0.892 -2,-2 V 3 c 0,-1.108 0.892,-2 2,-2 z"
         sodipodi:nodetypes="sssssss" /><path
         id="rect1-1-1"
         style="fill:#3172ca;fill-opacity:1;stroke-width:1.73205;stroke-linecap:round;stroke-linejoin:round;paint-order:stroke fill markers"
         d="m 13,5 c 1.108,0 2,0.892 2,2 v 8 c 0,1.108 -0.892,2 -2,2 -1.108,0 -2,-0.892 -2,-2 V 7 c 0,-1.108 0.892,-2 2,-2 z" /><path
         id="rect1-2-1"
         style="fill:#3172ca;fill-opacity:1;stroke-width:1.41421;stroke-linecap:round;stroke-linejoin:round;paint-order:stroke fill markers"
         d="m 8,9 c 1.108,0 2,0.892 2,2 v 4 C 10,16.108 9.108,17 8,17 6.892,17 6,16.108 6,15 V 11 C 6,9.892 6.892,9 8,9 Z" /><path
         id="rect1-1-7-5"
         style="fill:#3172ca;fill-opacity:1;stroke-linecap:round;stroke-linejoin:round;paint-order:stroke fill markers"
         d="m 3,13 c 1.108,0 2,0.892 2,2 0,1.108 -0.892,2 -2,2 -1.108,0 -2,-0.892 -2,-2 0,-1.108 0.892,-2 2,-2 z" /><path
         id="rect2-9"
         style="fill:#90a4ae;fill-opacity:1;stroke-width:2;stroke-linecap:round;stroke-linejoin:round;paint-order:stroke fill markers"
         d="m 17.95339,18 h 0.09322 C 19.128788,18 20,18.871212 20,19.95339 v 0.09322 C 20,21.128788 19.128788,22 18.04661,22 H 17.95339 C 16.871212,22 16,21.128788 16,20.04661 V 19.95339 C 16,18.871212 16.871212,18 17.95339,18 Z" /><path
         id="rect2-6-8"
         style="fill:#3172ca;fill-opacity:1;stroke-width:2;stroke-linecap:round;stroke-linejoin:round;paint-order:stroke fill markers"
         d="m 12.95339,18 h 0.09322 C 14.128788,18 15,18.871212 15,19.95339 v 0.09322 C 15,21.128788 14.128788,22 13.04661,22 H 12.95339 C 11.871212,22 11,21.128788 11,20.04661 V 19.95339 C 11,18.871212 11.871212,18 12.95339,18 Z" /><path
         id="rect2-6-2-4"
         style="fill:#3172ca;fill-opacity:1;stroke-width:2;stroke-linecap:round;stroke-linejoin:round;paint-order:stroke fill markers"
         d="m 7.9533899,18 h 0.09322 C 9.1287881,18 10,18.871212 10,19.95339 v 0.09322 C 10,21.128788 9.1287881,22 8.0466101,22 h -0.09322 C 6.8712119,22 6,21.128788 6,20.04661 V 19.95339 C 6,18.871212 6.8712119,18 7.9533899,18 Z" /><path
         id="rect2-6-2-9-8"
         style="fill:#3172ca;fill-opacity:1;stroke-width:2;stroke-linecap:round;stroke-linejoin:round;paint-order:stroke fill markers"
         d="m 2.9533899,18 h 0.09322 C 4.1287881,18 5,18.871212 5,19.95339 v 0.09322 C 5,21.128788 4.1287881,22 3.0466101,22 h -0.09322 C 1.8712119,22 1,21.128788 1,20.04661 V 19.95339 C 1,18.871212 1.8712119,18 2.9533899,18 Z" /><path
         style="fill:url(#linearGradient4-0);fill-opacity:1;stroke-width:0.5;stroke-linecap:round;stroke-linejoin:round;paint-order:stroke fill markers"
         d="m 13,19 c -0.553999,0 -1,0.446001 -1,1 0,0.553999 0.446001,1 1,1 0.553999,0 1,-0.446001 1,-1 0,-0.553999 -0.446001,-1 -1,-1 z"
         id="path7" /><path
         style="fill:url(#linearGradient4-0);fill-opacity:1;stroke-width:0.5;stroke-linecap:round;stroke-linejoin:round;paint-order:stroke fill markers"
         d="m 8,19 c -0.5539994,0 -1,0.446001 -1,1 0,0.553999 0.4460006,1 1,1 0.5539994,0 1,-0.446001 1,-1 0,-0.553999 -0.4460006,-1 -1,-1 z"
         id="path6" /><path
         style="fill:url(#linearGradient4-0);fill-opacity:1;stroke-width:0.5;stroke-linecap:round;stroke-linejoin:round;paint-order:stroke fill markers"
         d="m 3,19 c -0.5539994,0 -1,0.446001 -1,1 0,0.553999 0.4460006,1 1,1 0.5539994,0 1,-0.446001 1,-1 0,-0.553999 -0.4460006,-1 -1,-1 z"
         id="path5" /><path
         style="fill:url(#linearGradient4-0);fill-opacity:1;stroke-width:0.5;stroke-linecap:round;stroke-linejoin:round;paint-order:stroke fill markers"
         d="m 3,14 c -0.5539994,0 -1,0.446001 -1,1 0,0.553999 0.4460006,1 1,1 0.5539994,0 1,-0.446001 1,-1 0,-0.553999 -0.4460006,-1 -1,-1 z"
         id="path4" /><path
         style="fill:url(#linearGradient4-0);fill-opacity:1;stroke-width:0.5;stroke-linecap:round;stroke-linejoin:round;paint-order:stroke fill markers"
         d="m 8,10 c -0.5539994,0 -1,0.446001 -1,1 v 4 c 0,0.553999 0.4460006,1 1,1 0.5539994,0 1,-0.446001 1,-1 V 11 C 9,10.446001 8.5539994,10 8,10 Z"
         id="path3" /><path
         style="fill:url(#linearGradient4-0);fill-opacity:1;stroke-width:0.5;stroke-linecap:round;stroke-linejoin:round;paint-order:stroke fill markers"
         d="m 13,6 c -0.553999,0 -1,0.4460006 -1,1 v 8 c 0,0.553999 0.446001,1 1,1 0.553999,0 1,-0.446001 1,-1 V 7 C 14,6.4460006 13.553999,6 13,6 Z"
         id="path2" /></g><path
       id="path14-6"
       style="fill:#3172ca;fill-opacity:1;stroke-width:2;stroke-linecap:round;stroke-linejoin:round;paint-order:stroke fill markers"
       d="m 2.4873047,2 c -0.8309944,0 -1.5,0.6690056 -1.5,1.5 0,0.8309944 0.6690056,1.5 1.5,1.5 h 0.1992188 0.3007812 0.1992188 0.3007812 c 0.2769991,0 0.5,0.2230009 0.5,0.5 0,0.2769991 -0.2230009,0.5 -0.5,0.5 h -0.5 H 2.4619141 1.9873047 1.4619141 C 1.1970008,6.013342 0.9873047,6.2316577 0.9873047,6.5 c 0,0.2769985 0.2230015,0.5 0.5,0.5 h 1 c 0.00864,0 0.016858,4.291e-4 0.025391,0 h 0.4746094 0.5 c 0.8309944,0 1.5,-0.6690056 1.5,-1.5 0,-0.8309944 -0.6690056,-1.5 -1.5,-1.5 H 3.2119141 2.6865235 2.6611328 2.4873047 c -0.2769991,0 -0.5,-0.2230009 -0.5,-0.5 0,-0.2769991 0.2230009,-0.5 0.5,-0.5 h 0.5 H 3.5126953 2.987 3.487 C 3.7639982,3 3.987,2.7769982 3.987,2.5 3.987,2.231658 3.7773037,2.0133421 3.5123906,2 h -0.025086 -0.5 z"
       sodipodi:nodetypes="ssscccsssccccsssccssscccssscccsscccs" /></g><path
     id="path26"
     style="fill:url(#linearGradient26);fill-opacity:1;stroke-width:0.5;stroke-linecap:round;stroke-linejoin:round;paint-order:stroke fill markers"
     d="m 18,2 c -0.553998,0 -1,0.4460012 -1,1 v 8 c 0,0.553998 0.446002,1 1,1 0.553999,0 1,-0.446002 1,-1 V 3 C 19,2.4460012 18.553999,2 18,2 Z m 0,17 c -0.553998,0 -1,0.446002 -1,1 0,0.553998 0.446002,1 1,1 0.553999,0 1,-0.446002 1,-1 0,-0.553998 -0.446001,-1 -1,-1 z"
     sodipodi:nodetypes="ssssssssssss" /><g
     id="g18"><path
       d="m 17,10 c -2.216,0 -4,1.784 -4,4 v 1 h 3 v -1 c 0,-0.554 0.446,-1 1,-1 0.554,0 1,0.446 1,1 v 1 h 3 v -1 c 0,-2.216 -1.784,-4 -4,-4 z"
       fill="#90a4ae"
       id="path15" /><path
       d="m 17,11 c -1.662,0 -3,1.338 -3,3 v 1 h 1 v -1 c 0,-1.108 0.892,-2 2,-2 1.108,0 2,0.892 2,2 v 1 h 1 v -1 c 0,-1.662 -1.338,-3 -3,-3 z"
       fill="url(#b)"
       id="path16"
       style="fill:url(#b)" /><path
       d="m 13,15 c -0.554,0 -1,0.446 -1,1 v 5 c 0,0.554 0.446,1 1,1 h 4 4 c 0.554,0 1,-0.446 1,-1 v -5 c 0,-0.554 -0.446,-1 -1,-1 h -3 -2 z"
       fill="#a9906c"
       id="path17" /><path
       d="m 20,16 h -1 -4 -1 -1 v 5 h 4 4 v -5 z"
       fill="url(#c)"
       id="path18"
       style="fill:url(#c)" /></g></svg>
