<?xml version="1.0" encoding="UTF-8" standalone="no"?>
<svg
   height="22"
   viewBox="0 0 22 22"
   width="22"
   version="1.1"
   id="svg19"
   sodipodi:docname="network-mobile-80-umts-locked.svg"
   inkscape:version="1.3.2 (091e20ef0f, 2023-11-25, custom)"
   xmlns:inkscape="http://www.inkscape.org/namespaces/inkscape"
   xmlns:sodipodi="http://sodipodi.sourceforge.net/DTD/sodipodi-0.dtd"
   xmlns="http://www.w3.org/2000/svg"
   xmlns:svg="http://www.w3.org/2000/svg">
  <defs
     id="defs19" />
  <sodipodi:namedview
     id="namedview19"
     pagecolor="#ffffff"
     bordercolor="#000000"
     borderopacity="0.25"
     inkscape:showpageshadow="2"
     inkscape:pageopacity="0.0"
     inkscape:pagecheckerboard="0"
     inkscape:deskcolor="#d1d1d1"
     inkscape:zoom="52.727273"
     inkscape:cx="10.990517"
     inkscape:cy="11"
     inkscape:window-width="2560"
     inkscape:window-height="1364"
     inkscape:window-x="0"
     inkscape:window-y="0"
     inkscape:window-maximized="1"
     inkscape:current-layer="svg19" />
  <linearGradient
     id="a"
     gradientUnits="userSpaceOnUse"
     x1="11"
     x2="11"
     y1="19.95339"
     y2="3">
    <stop
       offset="0"
       stop-color="#4a9ef1"
       id="stop1" />
    <stop
       offset="1"
       stop-color="#a2cff9"
       id="stop2" />
  </linearGradient>
  <linearGradient
     id="b"
     gradientUnits="userSpaceOnUse"
     x1="17"
     x2="17"
     y1="15"
     y2="10">
    <stop
       offset="0"
       stop-color="#d1e4e4"
       id="stop3" />
    <stop
       offset="1"
       stop-color="#fafafa"
       id="stop4" />
  </linearGradient>
  <linearGradient
     id="c"
     gradientUnits="userSpaceOnUse"
     x1="17"
     x2="17"
     y1="21"
     y2="16">
    <stop
       offset="0"
       stop-color="#dca34a"
       id="stop5" />
    <stop
       offset="1"
       stop-color="#e3bd85"
       id="stop6" />
  </linearGradient>
  <g
     stroke-linecap="round"
     stroke-linejoin="round"
     id="g15">
    <path
       d="m1.5 2c-.2769997 0-.5.2230003-.5.5v1 1 .5c0 1.1079967.8920033 2 2 2h1c1.1079967 0 2-.8920033 2-2v-.5-1-1c0-.2769997-.2230003-.5-.5-.5s-.5.2230003-.5.5v1 1 .5c0 .5539982-.4460018 1-1 1h-1c-.5539982 0-1-.4460018-1-1v-.5-1-1c0-.2769997-.2230003-.5-.5-.5z"
       fill="#3172ca"
       stroke-width="2"
       id="path6" />
    <path
       d="m 18,1 c 1.108,0 2,0.892 2,2 v 8 c 0,1.108 -0.892,2 -2,2 -1.108,0 -2,-0.892 -2,-2 V 3 c 0,-1.108 0.892,-2 2,-2 z"
       fill="#3172ca"
       stroke-width="2"
       id="path7"
       sodipodi:nodetypes="sssssss" />
    <path
       d="m13 5c1.108 0 2 .892 2 2v8c0 1.108-.892 2-2 2s-2-.892-2-2v-8c0-1.108.892-2 2-2z"
       fill="#3172ca"
       stroke-width="1.73205"
       id="path8" />
    <path
       d="m8 9c1.108 0 2 .892 2 2v4c0 1.108-.892 2-2 2s-2-.892-2-2v-4c0-1.108.892-2 2-2z"
       fill="#3172ca"
       stroke-width="1.41421"
       id="path9" />
    <path
       d="m3 13c1.108 0 2 .892 2 2s-.892 2-2 2-2-.892-2-2 .892-2 2-2z"
       fill="#3172ca"
       id="path10" />
    <path
       d="m17.95339 18h.09322c1.082178 0 1.95339.871212 1.95339 1.95339v.09322c0 1.082178-.871212 1.95339-1.95339 1.95339h-.09322c-1.082178 0-1.95339-.871212-1.95339-1.95339v-.09322c0-1.082178.871212-1.95339 1.95339-1.95339z"
       fill="#3172ca"
       stroke-width="2"
       id="path11" />
    <path
       d="m12.95339 18h.09322c1.082178 0 1.95339.871212 1.95339 1.95339v.09322c0 1.082178-.871212 1.95339-1.95339 1.95339h-.09322c-1.082178 0-1.95339-.871212-1.95339-1.95339v-.09322c0-1.082178.871212-1.95339 1.95339-1.95339z"
       fill="#3172ca"
       stroke-width="2"
       id="path12" />
    <path
       d="m7.9533899 18h.09322c1.0821782 0 1.9533901.871212 1.9533901 1.95339v.09322c0 1.082178-.8712119 1.95339-1.9533899 1.95339h-.09322c-1.0821782 0-1.9533901-.871212-1.9533901-1.95339v-.09322c0-1.082178.8712119-1.95339 1.9533899-1.95339z"
       fill="#3172ca"
       stroke-width="2"
       id="path13" />
    <path
       d="m2.9533899 18h.09322c1.0821782 0 1.9533901.871212 1.9533901 1.95339v.09322c0 1.082178-.8712119 1.95339-1.9533899 1.95339h-.09322c-1.0821782 0-1.9533901-.871212-1.9533901-1.95339v-.09322c0-1.082178.8712119-1.95339 1.9533899-1.95339z"
       fill="#3172ca"
       stroke-width="2"
       id="path14" />
    <path
       d="m 18,2 c -0.553999,0 -1,0.4460006 -1,1 v 8 c 0,0.553999 0.446001,1 1,1 0.553999,0 1,-0.446001 1,-1 V 3 C 19,2.4460006 18.553999,2 18,2 Z m -5,4 c -0.553999,0 -1,0.4460006 -1,1 v 8 c 0,0.553999 0.446001,1 1,1 0.553999,0 1,-0.446001 1,-1 V 7 C 14,6.4460006 13.553999,6 13,6 Z m -5,4 c -0.5539994,0 -1,0.446001 -1,1 v 4 c 0,0.553999 0.4460006,1 1,1 0.5539994,0 1,-0.446001 1,-1 V 11 C 9,10.446001 8.5539994,10 8,10 Z m -5,4 c -0.5539994,0 -1,0.446001 -1,1 0,0.553999 0.4460006,1 1,1 0.5539994,0 1,-0.446001 1,-1 0,-0.553999 -0.4460006,-1 -1,-1 z m 0,5 c -0.5539994,0 -1,0.446001 -1,1 0,0.553999 0.4460006,1 1,1 0.5539994,0 1,-0.446001 1,-1 0,-0.553999 -0.4460006,-1 -1,-1 z m 5,0 c -0.5539994,0 -1,0.446001 -1,1 0,0.553999 0.4460006,1 1,1 0.5539994,0 1,-0.446001 1,-1 0,-0.553999 -0.4460006,-1 -1,-1 z m 5,0 c -0.553999,0 -1,0.446001 -1,1 0,0.553999 0.446001,1 1,1 0.553999,0 1,-0.446001 1,-1 0,-0.553999 -0.446001,-1 -1,-1 z m 5,0 c -0.553999,0 -1,0.446001 -1,1 0,0.553999 0.446001,1 1,1 0.553999,0 1,-0.446001 1,-1 0,-0.553999 -0.446001,-1 -1,-1 z"
       fill="url(#a)"
       stroke-width="0.5"
       id="path15"
       sodipodi:nodetypes="ssssssssssssssssssssssssssssssssssssssssssssss" />
  </g>
  <path
     d="m17 10c-2.216 0-4 1.784-4 4v1h3v-1c0-.554.446-1 1-1s1 .446 1 1v1h3v-1c0-2.216-1.784-4-4-4z"
     fill="#90a4ae"
     id="path16" />
  <path
     d="m17 11c-1.662 0-3 1.338-3 3v1h1v-1c0-1.108.892-2 2-2s2 .892 2 2v1h1v-1c0-1.662-1.338-3-3-3z"
     fill="url(#b)"
     id="path17" />
  <path
     d="m13 15c-.554 0-1 .446-1 1v5c0 .554.446 1 1 1h4 4c.554 0 1-.446 1-1v-5c0-.554-.446-1-1-1h-3-2z"
     fill="#a9906c"
     id="path18" />
  <path
     d="m20 16h-1-4-1-1v5h4 4v-5z"
     fill="url(#c)"
     id="path19" />
</svg>
