<svg height="22" viewBox="0 0 22 22" width="22" xmlns="http://www.w3.org/2000/svg" xmlns:xlink="http://www.w3.org/1999/xlink"><linearGradient id="a" gradientUnits="userSpaceOnUse" x1="11" x2="11" y1="19.95339" y2="3"><stop offset="0" stop-color="#4a9ef1"/><stop offset="1" stop-color="#a2cff9"/></linearGradient><g stroke-linecap="round" stroke-linejoin="round"><g fill="#3172ca"><path d="m18 1c1.108 0 2 .892 2 2v12c0 1.108-.892 2-2 2s-2-.892-2-2v-12c0-1.108.892-2 2-2z" stroke-width="2"/><path d="m13 5c1.108 0 2 .892 2 2v8c0 1.108-.892 2-2 2s-2-.892-2-2v-8c0-1.108.892-2 2-2z" stroke-width="1.73205"/><path d="m8 9c1.108 0 2 .892 2 2v4c0 1.108-.892 2-2 2s-2-.892-2-2v-4c0-1.108.892-2 2-2z" stroke-width="1.41421"/><path d="m3 13c1.108 0 2 .892 2 2s-.892 2-2 2-2-.892-2-2 .892-2 2-2z"/><path d="m17.95339 18h.09322c1.082178 0 1.95339.871212 1.95339 1.95339v.09322c0 1.082178-.871212 1.95339-1.95339 1.95339h-.09322c-1.082178 0-1.95339-.871212-1.95339-1.95339v-.09322c0-1.082178.871212-1.95339 1.95339-1.95339z" stroke-width="2"/><path d="m12.95339 18h.09322c1.082178 0 1.95339.871212 1.95339 1.95339v.09322c0 1.082178-.871212 1.95339-1.95339 1.95339h-.09322c-1.082178 0-1.95339-.871212-1.95339-1.95339v-.09322c0-1.082178.871212-1.95339 1.95339-1.95339z" stroke-width="2"/><path d="m7.9533899 18h.09322c1.0821782 0 1.9533901.871212 1.9533901 1.95339v.09322c0 1.082178-.8712119 1.95339-1.9533899 1.95339h-.09322c-1.0821782 0-1.9533901-.871212-1.9533901-1.95339v-.09322c0-1.082178.8712119-1.95339 1.9533899-1.95339z" stroke-width="2"/><path d="m2.9533899 18h.09322c1.0821782 0 1.9533901.871212 1.9533901 1.95339v.09322c0 1.082178-.8712119 1.95339-1.9533899 1.95339h-.09322c-1.0821782 0-1.9533901-.871212-1.9533901-1.95339v-.09322c0-1.082178.8712119-1.95339 1.9533899-1.95339z" stroke-width="2"/></g><path d="m18 2c-.553999 0-1 .4460006-1 1v12c0 .553999.446001 1 1 1s1-.446001 1-1v-12c0-.5539994-.446001-1-1-1zm-5 4c-.553999 0-1 .4460006-1 1v8c0 .553999.446001 1 1 1s1-.446001 1-1v-8c0-.5539994-.446001-1-1-1zm-5 4c-.5539994 0-1 .446001-1 1v4c0 .553999.4460006 1 1 1s1-.446001 1-1v-4c0-.553999-.4460006-1-1-1zm-5 4c-.5539994 0-1 .446001-1 1s.4460006 1 1 1 1-.446001 1-1-.4460006-1-1-1zm0 5c-.5539994 0-1 .446001-1 1s.4460006 1 1 1 1-.446001 1-1-.4460006-1-1-1zm5 0c-.5539994 0-1 .446001-1 1s.4460006 1 1 1 1-.446001 1-1-.4460006-1-1-1zm5 0c-.553999 0-1 .446001-1 1s.446001 1 1 1 1-.446001 1-1-.446001-1-1-1zm5 0c-.553999 0-1 .446001-1 1s.446001 1 1 1 1-.446001 1-1-.446001-1-1-1z" fill="url(#a)" stroke-width=".5"/></g></svg>