<?xml version="1.0" encoding="UTF-8" standalone="no"?>
<svg
   width="22"
   height="22"
   version="1.1"
   id="svg1"
   sodipodi:docname="network-wireless-40-limited.svg"
   inkscape:version="1.3.2 (091e20ef0f, 2023-11-25, custom)"
   xml:space="preserve"
   xmlns:inkscape="http://www.inkscape.org/namespaces/inkscape"
   xmlns:sodipodi="http://sodipodi.sourceforge.net/DTD/sodipodi-0.dtd"
   xmlns:xlink="http://www.w3.org/1999/xlink"
   xmlns="http://www.w3.org/2000/svg"
   xmlns:svg="http://www.w3.org/2000/svg"><defs
     id="defs1"><linearGradient
       inkscape:collect="always"
       xlink:href="#linearGradient33372"
       id="linearGradient80605"
       gradientUnits="userSpaceOnUse"
       gradientTransform="translate(-49.401553,-430.50668)"
       x1="63.535721"
       y1="451.50504"
       x2="64.40155"
       y2="441.50668" /><linearGradient
       inkscape:collect="always"
       id="linearGradient33372"><stop
         style="stop-color:#ffcb00;stop-opacity:1;"
         offset="0"
         id="stop33368" /><stop
         style="stop-color:#ffe000;stop-opacity:1;"
         offset="1"
         id="stop33370" /></linearGradient><linearGradient
       inkscape:collect="always"
       xlink:href="#linearGradient2"
       id="linearGradient3"
       x1="310.7283"
       y1="210.28976"
       x2="310.75549"
       y2="197.8998"
       gradientUnits="userSpaceOnUse" /><linearGradient
       id="linearGradient2"
       inkscape:collect="always"><stop
         style="stop-color:#f3ab4b;stop-opacity:1;"
         offset="0"
         id="stop2-3" /><stop
         style="stop-color:#f8c57c;stop-opacity:1;"
         offset="1"
         id="stop3" /></linearGradient><linearGradient
       inkscape:collect="always"
       xlink:href="#linearGradient19"
       id="linearGradient16"
       gradientUnits="userSpaceOnUse"
       x1="310.82904"
       y1="193.7719"
       x2="310.77133"
       y2="189.64151" /><linearGradient
       id="linearGradient19"
       inkscape:collect="always"><stop
         style="stop-color:#e8f1f1;stop-opacity:1;"
         offset="0"
         id="stop18" /><stop
         style="stop-color:#fdfefe;stop-opacity:1;"
         offset="1"
         id="stop19" /></linearGradient></defs><sodipodi:namedview
     id="namedview1"
     pagecolor="#ffffff"
     bordercolor="#000000"
     borderopacity="0.25"
     inkscape:showpageshadow="2"
     inkscape:pageopacity="0.0"
     inkscape:pagecheckerboard="0"
     inkscape:deskcolor="#d1d1d1"
     showgrid="true"
     inkscape:zoom="26.363636"
     inkscape:cx="14.887931"
     inkscape:cy="19.42069"
     inkscape:window-width="2560"
     inkscape:window-height="1364"
     inkscape:window-x="0"
     inkscape:window-y="0"
     inkscape:window-maximized="1"
     inkscape:current-layer="svg1"><inkscape:grid
       id="grid1"
       units="px"
       originx="0"
       originy="0"
       spacingx="1"
       spacingy="1"
       empcolor="#0099e5"
       empopacity="0.30196078"
       color="#0099e5"
       opacity="0.14902"
       empspacing="5"
       dotted="false"
       gridanglex="30"
       gridanglez="30"
       visible="true" /></sodipodi:namedview><style
     type="text/css"
     id="current-color-scheme">
      .ColorScheme-Text {
        color:#31363b;
      }
      .ColorScheme-Background {
        color:#eff0f1;
      }
      .ColorScheme-Highlight {
        color:#3498db;
      }
      .ColorScheme-ViewText {
        color:#31363b;
      }
      .ColorScheme-ViewBackground {
        color:#fcfcfc;
      }
      .ColorScheme-ViewHover {
        color:#93cee9;
      }
      .ColorScheme-ViewFocus{
        color:#3daee9;
      }
      .ColorScheme-ButtonText {
        color:#31363b;
      }
      .ColorScheme-ButtonBackground {
        color:#eff0f1;
      }
      .ColorScheme-ButtonHover {
        color:#93cee9;
      }
      .ColorScheme-ButtonFocus{
        color:#3daee9;
      }
      .ColorScheme-NegativeText{
        color:#e74c3c;
      }
      </style><g
     id="path5-6"
     transform="matrix(0.7264534,0,0,0.7264534,-214.69274,-133.76616)"><path
       style="color:#000000;fill:#e58700;fill-opacity:1;stroke:none;stroke-linecap:round;stroke-linejoin:round;-inkscape-stroke:none;paint-order:stroke fill markers"
       d="m 311.01121,204.79102 c -1.45667,-0.0747 -2.88527,0.4317 -3.96875,1.4082 -0.56434,0.50877 -0.60979,1.37854 -0.10156,1.94336 l 2.76367,3.06836 c 0.54981,0.61156 1.50966,0.60782 2.05469,-0.008 l 2.73632,-3.09375 c 0.50245,-0.56926 0.44915,-1.43785 -0.11914,-1.9414 -0.93356,-0.82667 -2.11993,-1.31259 -3.36523,-1.37695 z"
       id="path13" /><path
       style="color:#000000;fill:#e58700;fill-opacity:1;stroke:none;stroke-linecap:round;stroke-linejoin:round;-inkscape-stroke:none;paint-order:stroke fill markers"
       d="m 310.75744,196.52344 c -3.40315,-0.007 -6.6997,1.24882 -9.24023,3.53711 -0.56633,0.50969 -0.61097,1.38244 -0.0996,1.94726 l 2.77539,3.06641 c 0.50914,0.56248 1.37738,0.60702 1.94141,0.0996 2.60722,-2.34785 6.53203,-2.36713 9.1621,-0.0449 0.56926,0.50246 1.43786,0.44916 1.94141,-0.11914 l 2.73047,-3.08594 c 0.50378,-0.56953 0.45043,-1.43963 -0.11914,-1.94336 -2.33301,-2.06459 -5.29897,-3.27607 -8.41016,-3.4375 -0.22866,-0.0118 -0.45591,-0.0191 -0.68164,-0.0195 z"
       id="path12" /><path
       style="color:#000000;fill:#90a4ae;fill-opacity:1;stroke:none;stroke-linecap:round;stroke-linejoin:round;-inkscape-stroke:none;paint-order:stroke fill markers"
       d="m 310.77344,188.26562 c -5.44593,-0.0115 -10.71762,1.99668 -14.78321,5.65821 -0.56504,0.50951 -0.60965,1.38076 -0.0996,1.94531 l 2.77735,3.06836 c 0.50914,0.56247 1.37737,0.60702 1.9414,0.0996 5.72751,-5.15631 14.38303,-5.19663 20.15821,-0.0937 0.56926,0.50245 1.43785,0.44915 1.9414,-0.11914 l 2.73243,-3.08594 c 0.50378,-0.56953 0.45043,-1.43963 -0.11914,-1.94336 -3.73332,-3.30329 -8.47682,-5.24413 -13.45508,-5.50195 -0.36615,-0.0189 -0.73238,-0.0266 -1.09375,-0.0273 z"
       id="path3-7" /><path
       id="path15"
       style="color:#000000;fill:url(#linearGradient3);stroke-linecap:round;stroke-linejoin:round;-inkscape-stroke:none;paint-order:stroke fill markers"
       d="m 310.75549,197.8998 c -3.06298,-0.006 -6.0291,1.12364 -8.31577,3.18327 l 2.77461,3.06767 c 3.11865,-2.80839 7.84762,-2.83146 10.99359,-0.0538 l 2.7289,-3.08648 c -2.09987,-1.85828 -4.76805,-2.94925 -7.56834,-3.09455 -0.20489,-0.0106 -0.40879,-0.0157 -0.61299,-0.0161 z m 0.18551,8.26468 a 4.1296525,4.1296525 0 0 0 -2.97625,1.05661 l 2.76385,3.06766 2.73697,-3.09186 a 4.1296525,4.1296525 0 0 0 -2.52457,-1.03241 z" /><path
       style="color:#000000;fill:url(#linearGradient16);stroke-linecap:round;stroke-linejoin:round;-inkscape-stroke:none;paint-order:stroke fill markers"
       d="m 310.77132,189.64151 c -5.10574,-0.0108 -10.04772,1.87152 -13.85961,5.30456 l 2.7773,3.06767 c 6.23907,-5.61686 15.69886,-5.66082 21.98986,-0.10217 l 2.73159,-3.08649 c -3.50016,-3.09699 -7.94745,-4.91496 -12.6148,-5.15668 -0.34154,-0.0177 -0.68396,-0.0262 -1.02434,-0.0269 z"
       id="path4-5" /></g><g
     id="g2"><path
       style="color:#000000;fill:#fe9500;fill-opacity:1;stroke-linecap:round;stroke-linejoin:round;stroke-miterlimit:1.8;paint-order:fill markers stroke"
       d="m 15.002207,10 c -0.34696,-2.2e-4 -0.66925,0.1794 -0.85156,0.47461 l -6,10 c -0.41138,0.6665 0.0683,1.5258 0.85156,1.52539 h 12 c 0.78323,4.1e-4 1.26294,-0.85889 0.85156,-1.52539 l -6,-10 C 15.671457,10.1794 15.349167,9.99978 15.002207,10 Z"
       id="path68074-0-5"
       sodipodi:nodetypes="cccccccc" /><path
       style="color:#000000;fill:url(#linearGradient80605);stroke-width:2;stroke-linecap:round;stroke-linejoin:round;stroke-miterlimit:1.8;paint-order:fill markers stroke"
       d="m 9.002747,20.99918 h 12 l -6,-10 z"
       id="path68072-4-1"
       sodipodi:nodetypes="cccc" /><path
       id="rect34256-9-0-7-5"
       style="fill:#fe9500;fill-opacity:1;stroke-width:2;stroke-linecap:round;stroke-linejoin:round;stroke-miterlimit:1.8;paint-order:fill markers stroke;stop-color:#000000"
       d="m 14.951172,15 c -0.529828,0.02668 -0.949219,0.463323 -0.949219,1 v 1 c 0,0.553999 0.446001,1 1,1 0.554,0 1,-0.446001 1,-1 v -1 c 0,-0.553989 -0.446,-1 -1,-1 -0.01731,0 -0.03369,-8.61e-4 -0.05078,0 z m 0,4 c -0.529828,0.02668 -0.949219,0.463313 -0.949219,1 0,0.553999 0.446001,1 1,1 0.554,0 1,-0.446001 1,-1 0,-0.553999 -0.446,-1 -1,-1 -0.01731,0 -0.03369,-8.61e-4 -0.05078,0 z" /><path
       id="rect34256-9-0-7"
       style="fill:#714300;fill-opacity:1;stroke-width:2;stroke-linecap:round;stroke-linejoin:round;stroke-miterlimit:1.8;paint-order:fill markers stroke;stop-color:#000000"
       d="m 14.951172,14 c -0.529828,0.02668 -0.949219,0.463323 -0.949219,1 v 1 c 0,0.553999 0.446001,1 1,1 0.554,0 1,-0.446001 1,-1 v -1 c 0,-0.553989 -0.446,-1 -1,-1 -0.01731,0 -0.03369,-8.61e-4 -0.05078,0 z m 0,4 c -0.529828,0.02668 -0.949219,0.463313 -0.949219,1 0,0.553999 0.446001,1 1,1 0.554,0 1,-0.446001 1,-1 0,-0.553999 -0.446,-1 -1,-1 -0.01731,0 -0.03369,-8.61e-4 -0.05078,0 z" /></g><style
     type="text/css"
     id="current-color-scheme-3">
      .ColorScheme-Text {
        color:#31363b;
      }
      .ColorScheme-Background {
        color:#eff0f1;
      }
      .ColorScheme-Highlight {
        color:#3498db;
      }
      .ColorScheme-ViewText {
        color:#31363b;
      }
      .ColorScheme-ViewBackground {
        color:#fcfcfc;
      }
      .ColorScheme-ViewHover {
        color:#93cee9;
      }
      .ColorScheme-ViewFocus{
        color:#3daee9;
      }
      .ColorScheme-ButtonText {
        color:#31363b;
      }
      .ColorScheme-ButtonBackground {
        color:#eff0f1;
      }
      .ColorScheme-ButtonHover {
        color:#93cee9;
      }
      .ColorScheme-ButtonFocus{
        color:#3daee9;
      }
      .ColorScheme-NegativeText{
        color:#e74c3c;
      }
      </style></svg>
