<svg height="22" viewBox="0 0 22 22" width="22" xmlns="http://www.w3.org/2000/svg" xmlns:xlink="http://www.w3.org/1999/xlink"><linearGradient id="a" gradientUnits="userSpaceOnUse" x1="11" x2="11" y1="19.95339" y2="3"><stop offset="0" stop-color="#4a9ef1"/><stop offset="1" stop-color="#a2cff9"/></linearGradient><g stroke-linecap="round" stroke-linejoin="round"><g fill="#3172ca"><path d="m1.5 2c-.2769994 0-.5.2230006-.5.5v2 2c0 .2769994.2230006.5.5.5.1384998 0 .2631474-.056109.3535156-.1464844.005645-.005648.010245-.0116681.015625-.0175781.00553-.00607.0123482-.0112381.0175782-.0175781.0152749-.018492.0284856-.0380068.0410156-.0585938.004229-.006959.0078287-.0143044.0117187-.0214844.003849-.0070749.0082088-.0142043.0117188-.0214843.00344-.00716.0066656-.0141344.0097656-.0214844.00316-.007471.0050025-.0157875.0078125-.0234375.008441-.023093.0164844-.0457455.0214844-.0703125.00167-.008144.0026362-.0171006.0039062-.0253906.00126-.008294.0030558-.0169707.0039063-.0253907.00085-.0084199.0015201-.0168506.0019531-.0253906.0004291-.008534 0-.0167506 0-.0253906v-.5c0-.5539976.4460024-1 1-1s1 .4460024 1 1v.5c0 .0345584.0030759.069009.0097656.1015625.00166.008151.0038094.0154375.0058594.0234375.004126.01611.009985.031444.015625.046875.00276.007557.0047025.0160575.0078125.0234375.012675.029893.028915.0573994.046875.0839844.004482.006648.0088819.0131212.0136719.0195312.009714.013005.02034.0251324.03125.0371094.005231.005743.010135.0120881.015625.0175781.0903748.0903748.2150158.1464844.3535156.1464844.2769994 0 .5-.2230006.5-.5v-1-1-1-1c0-.2769994-.2230006-.5-.5-.5-.1384998 0-.2631408.0561096-.3535156.1464844-.0054918.0054918-.0103937.0118353-.015625.0175781-.0109103.0119769-.0215362.0241044-.03125.0371094-.0047905.0064135-.009188.0128833-.0136719.0195312-.0179599.0265848-.0342004.0540909-.046875.0839844-.0031111.0073799-.0050498.0158797-.0078125.0234375-.0056405.0154306-.0114993.0307655-.015625.046875-.0020488.008-.0041997.0152857-.0058594.0234375-.0066879.0325514-.0097656.0670041-.0097656.1015625v.5c0 .5539976-.4460024 1-1 1s-1-.4460024-1-1v-.5c0-.0086435.0004291-.0168575 0-.0253906-.000433-.008543-.0010977-.016971-.0019531-.0253906-.0008505-.0084247-.0026461-.0170973-.0039063-.0253907-.001267-.0082865-.0022381-.0172472-.0039062-.0253906-.0050018-.0245672-.0130428-.0472191-.0214844-.0703125-.0028072-.0076542-.004647-.0159663-.0078125-.0234375-.0030969-.0073464-.0063333-.0143241-.0097656-.0214844-.0035132-.0072782-.0078685-.0144092-.0117188-.0214843-.00389-.0071788-.0074928-.0145252-.0117187-.0214844-.0125299-.0205872-.0257406-.0401021-.0410156-.0585938-.0052279-.0063399-.0120484-.0115077-.0175782-.0175781-.0053754-.0059111-.0099765-.0119297-.015625-.0175781-.0903748-.0903748-.2150158-.1464844-.3535156-.1464844z" stroke-width="2"/><path d="m18 1c1.108 0 2 .892 2 2v12c0 1.108-.892 2-2 2s-2-.892-2-2v-12c0-1.108.892-2 2-2z" stroke-width="2"/><path d="m13 5c1.108 0 2 .892 2 2v8c0 1.108-.892 2-2 2s-2-.892-2-2v-8c0-1.108.892-2 2-2z" stroke-width="1.73205"/><path d="m8 9c1.108 0 2 .892 2 2v4c0 1.108-.892 2-2 2s-2-.892-2-2v-4c0-1.108.892-2 2-2z" stroke-width="1.41421"/><path d="m3 13c1.108 0 2 .892 2 2s-.892 2-2 2-2-.892-2-2 .892-2 2-2z"/><path d="m17.95339 18h.09322c1.082178 0 1.95339.871212 1.95339 1.95339v.09322c0 1.082178-.871212 1.95339-1.95339 1.95339h-.09322c-1.082178 0-1.95339-.871212-1.95339-1.95339v-.09322c0-1.082178.871212-1.95339 1.95339-1.95339z" stroke-width="2"/><path d="m12.95339 18h.09322c1.082178 0 1.95339.871212 1.95339 1.95339v.09322c0 1.082178-.871212 1.95339-1.95339 1.95339h-.09322c-1.082178 0-1.95339-.871212-1.95339-1.95339v-.09322c0-1.082178.871212-1.95339 1.95339-1.95339z" stroke-width="2"/><path d="m7.9533899 18h.09322c1.0821782 0 1.9533901.871212 1.9533901 1.95339v.09322c0 1.082178-.8712119 1.95339-1.9533899 1.95339h-.09322c-1.0821782 0-1.9533901-.871212-1.9533901-1.95339v-.09322c0-1.082178.8712119-1.95339 1.9533899-1.95339z" stroke-width="2"/><path d="m2.9533899 18h.09322c1.0821782 0 1.9533901.871212 1.9533901 1.95339v.09322c0 1.082178-.8712119 1.95339-1.9533899 1.95339h-.09322c-1.0821782 0-1.9533901-.871212-1.9533901-1.95339v-.09322c0-1.082178.8712119-1.95339 1.9533899-1.95339z" stroke-width="2"/></g><path d="m18 2c-.553999 0-1 .4460006-1 1v12c0 .553999.446001 1 1 1s1-.446001 1-1v-12c0-.5539994-.446001-1-1-1zm-5 4c-.553999 0-1 .4460006-1 1v8c0 .553999.446001 1 1 1s1-.446001 1-1v-8c0-.5539994-.446001-1-1-1zm-5 4c-.5539994 0-1 .446001-1 1v4c0 .553999.4460006 1 1 1s1-.446001 1-1v-4c0-.553999-.4460006-1-1-1zm-5 4c-.5539994 0-1 .446001-1 1s.4460006 1 1 1 1-.446001 1-1-.4460006-1-1-1zm0 5c-.5539994 0-1 .446001-1 1s.4460006 1 1 1 1-.446001 1-1-.4460006-1-1-1zm5 0c-.5539994 0-1 .446001-1 1s.4460006 1 1 1 1-.446001 1-1-.4460006-1-1-1zm5 0c-.553999 0-1 .446001-1 1s.446001 1 1 1 1-.446001 1-1-.446001-1-1-1zm5 0c-.553999 0-1 .446001-1 1s.446001 1 1 1 1-.446001 1-1-.446001-1-1-1z" fill="url(#a)" stroke-width=".5"/></g></svg>