<?xml version="1.0" encoding="UTF-8" standalone="no"?>
<svg
   width="22"
   height="22"
   version="1.1"
   id="svg1"
   sodipodi:docname="network-wireless-bluetooth-symbolic.svg"
   inkscape:version="1.3.2 (091e20ef0f, 2023-11-25, custom)"
   xml:space="preserve"
   xmlns:inkscape="http://www.inkscape.org/namespaces/inkscape"
   xmlns:sodipodi="http://sodipodi.sourceforge.net/DTD/sodipodi-0.dtd"
   xmlns:xlink="http://www.w3.org/1999/xlink"
   xmlns="http://www.w3.org/2000/svg"
   xmlns:svg="http://www.w3.org/2000/svg"><defs
     id="defs1"><linearGradient
       id="linearGradient12"
       inkscape:collect="always"><stop
         style="stop-color:#1486f3;stop-opacity:1;"
         offset="0"
         id="stop12" /><stop
         style="stop-color:#02b2fe;stop-opacity:1;"
         offset="1"
         id="stop13" /></linearGradient><style
       type="text/css"
       id="current-color-scheme-3">
      .ColorScheme-Text {
        color:#36404d;
      }
      </style><style
       type="text/css"
       id="current-color-scheme-67">
      .ColorScheme-Text {
        color:#122036;
      }
      </style><style
       type="text/css"
       id="current-color-scheme-7">
      .ColorScheme-Text {
        color:#122036;
      }
      </style><style
       type="text/css"
       id="current-color-scheme-5">
      .ColorScheme-Text {
        color:#122036;
      }
      </style><style
       type="text/css"
       id="current-color-scheme-6">
      .ColorScheme-Text {
        color:#122036;
      }
      </style><style
       type="text/css"
       id="current-color-scheme-1">
      .ColorScheme-Text {
        color:#122036;
      }
      </style><style
       id="current-color-scheme-10"
       type="text/css">
      .ColorScheme-Text {
        color:#122036;
      }
      </style><style
       id="current-color-scheme-5-7"
       type="text/css">
      .ColorScheme-Text {
        color:#122036;
      }
      </style><style
       id="current-color-scheme-1-2"
       type="text/css">
      .ColorScheme-Text {
        color:#122036;
      }
      </style><style
       type="text/css"
       id="current-color-scheme-10-9">
      .ColorScheme-Text {
        color:#122036;
      }
      </style><linearGradient
       inkscape:collect="always"
       xlink:href="#linearGradient12"
       id="linearGradient13"
       x1="-2.5910559"
       y1="6.5592899"
       x2="-2.5910561"
       y2="0.20928961"
       gradientUnits="userSpaceOnUse" /><linearGradient
       id="linearGradient2"
       inkscape:collect="always"><stop
         style="stop-color:#4b9ef1;stop-opacity:1;"
         offset="0"
         id="stop2" /><stop
         style="stop-color:#a2cff9;stop-opacity:1;"
         offset="1"
         id="stop3" /></linearGradient><linearGradient
       inkscape:collect="always"
       xlink:href="#linearGradient2"
       id="linearGradient3"
       x1="310.7283"
       y1="210.28976"
       x2="310.77133"
       y2="189.64151"
       gradientUnits="userSpaceOnUse" /></defs><sodipodi:namedview
     id="namedview1"
     pagecolor="#ffffff"
     bordercolor="#000000"
     borderopacity="0.25"
     inkscape:showpageshadow="2"
     inkscape:pageopacity="0.0"
     inkscape:pagecheckerboard="0"
     inkscape:deskcolor="#d1d1d1"
     showgrid="true"
     inkscape:zoom="45.254834"
     inkscape:cx="12.716874"
     inkscape:cy="17.412504"
     inkscape:window-width="2560"
     inkscape:window-height="1364"
     inkscape:window-x="0"
     inkscape:window-y="0"
     inkscape:window-maximized="1"
     inkscape:current-layer="svg1"><inkscape:grid
       id="grid1"
       units="px"
       originx="0"
       originy="0"
       spacingx="1"
       spacingy="1"
       empcolor="#0099e5"
       empopacity="0.30196078"
       color="#0099e5"
       opacity="0.14902"
       empspacing="5"
       dotted="false"
       gridanglex="30"
       gridanglez="30"
       visible="true" /></sodipodi:namedview><style
     type="text/css"
     id="current-color-scheme">
      .ColorScheme-Text {
        color:#31363b;
      }
      .ColorScheme-Background {
        color:#eff0f1;
      }
      .ColorScheme-Highlight {
        color:#3498db;
      }
      .ColorScheme-ViewText {
        color:#31363b;
      }
      .ColorScheme-ViewBackground {
        color:#fcfcfc;
      }
      .ColorScheme-ViewHover {
        color:#93cee9;
      }
      .ColorScheme-ViewFocus{
        color:#3daee9;
      }
      .ColorScheme-ButtonText {
        color:#31363b;
      }
      .ColorScheme-ButtonBackground {
        color:#eff0f1;
      }
      .ColorScheme-ButtonHover {
        color:#93cee9;
      }
      .ColorScheme-ButtonFocus{
        color:#3daee9;
      }
      .ColorScheme-NegativeText{
        color:#e74c3c;
      }
      </style><g
     id="path5"
     transform="matrix(0.7264534,0,0,0.7264534,-214.69274,-133.76616)"><path
       style="color:#000000;fill:#3172ca;stroke-linecap:round;stroke-linejoin:round;-inkscape-stroke:none;paint-order:stroke fill markers"
       d="m 310.77344,188.26562 c -5.44593,-0.0115 -10.71762,1.99668 -14.78321,5.65821 -0.56504,0.50951 -0.60965,1.38076 -0.0996,1.94531 l 2.77735,3.06836 c 0.50914,0.56247 1.37737,0.60702 1.9414,0.0996 5.72751,-5.15631 14.38303,-5.19663 20.15821,-0.0937 0.56926,0.50245 1.43785,0.44915 1.9414,-0.11914 l 2.73243,-3.08594 c 0.50378,-0.56953 0.45043,-1.43963 -0.11914,-1.94336 -3.73332,-3.30329 -8.47682,-5.24413 -13.45508,-5.50195 -0.36615,-0.0189 -0.73238,-0.0266 -1.09375,-0.0273 z m -0.016,8.25782 c -3.40315,-0.007 -6.6997,1.24882 -9.24023,3.53711 -0.56633,0.50969 -0.61097,1.38244 -0.0996,1.94726 l 2.77539,3.06641 c 0.50914,0.56248 1.37738,0.60702 1.94141,0.0996 2.60722,-2.34785 6.53203,-2.36713 9.1621,-0.0449 0.56926,0.50246 1.43786,0.44916 1.94141,-0.11914 l 2.73047,-3.08594 c 0.50378,-0.56953 0.45043,-1.43963 -0.11914,-1.94336 -2.33301,-2.06459 -5.29897,-3.27607 -8.41016,-3.4375 -0.22866,-0.0118 -0.45591,-0.0191 -0.68164,-0.0195 z m 0.25377,8.26758 c -1.45667,-0.0747 -2.88527,0.4317 -3.96875,1.4082 -0.56434,0.50877 -0.60979,1.37854 -0.10156,1.94336 l 2.76367,3.06836 c 0.54981,0.61156 1.50966,0.60782 2.05469,-0.008 l 2.73632,-3.09375 c 0.50245,-0.56926 0.44915,-1.43785 -0.11914,-1.9414 -0.93356,-0.82667 -2.11993,-1.31259 -3.36523,-1.37695 z"
       id="path3"
       sodipodi:nodetypes="ccccccccccccccccccccccccccccccccc" /><path
       style="color:#000000;fill:url(#linearGradient3);stroke-linecap:round;stroke-linejoin:round;-inkscape-stroke:none;paint-order:stroke fill markers"
       d="m 310.77132,189.64151 c -5.10574,-0.0108 -10.04772,1.87152 -13.85961,5.30456 l 2.7773,3.06767 c 6.23907,-5.61686 15.69886,-5.66082 21.98986,-0.10217 l 2.73159,-3.08649 c -3.50016,-3.09699 -7.94745,-4.91496 -12.6148,-5.15668 -0.34154,-0.0177 -0.68396,-0.0262 -1.02434,-0.0269 z m -0.0161,8.25931 c -3.06298,-0.006 -6.02909,1.12364 -8.31576,3.18327 l 2.77461,3.06766 c 3.11865,-2.80839 7.84762,-2.83149 10.99359,-0.0538 l 2.7289,-3.08648 c -2.09988,-1.85828 -4.76805,-2.94925 -7.56834,-3.09455 -0.20489,-0.0106 -0.4088,-0.0157 -0.613,-0.0161 z m 0.18552,8.26468 a 4.1296525,4.1296525 0 0 0 -2.97626,1.05661 l 2.76386,3.06766 2.73697,-3.09186 a 4.1296525,4.1296525 0 0 0 -2.52457,-1.03241 z"
       id="path4" /></g><g
     inkscape:label="Capa 1"
     id="layer1"
     transform="matrix(0.50000001,0,0,0.50000001,23.610424,9.8212868)"><g
       id="path3904-7-5" /><g
       id="g2"
       transform="matrix(3.7795276,0,0,3.7795276,-3.4278795,-2.4335894)"><g
         id="path4082-5"><path
           style="color:#000000;fill:#1463bf;stroke-width:0.529167;stroke-linecap:round;stroke-linejoin:round;stroke-miterlimit:1.8;paint-order:fill markers stroke"
           d="M 3.175,3.175 2.38125,3.96875"
           id="path4156" /></g><rect
         style="fill:#1463bf;fill-opacity:1;stroke:none;stroke-width:0.529167;stroke-linecap:round;stroke-linejoin:round;stroke-dasharray:none;stroke-opacity:1;paint-order:stroke fill markers"
         id="rect11"
         width="5.2916665"
         height="7.4083333"
         x="-5.2368894"
         y="-0.31987706"
         ry="2.6458333" /><rect
         style="fill:url(#linearGradient13);fill-opacity:0.95581;stroke:none;stroke-width:0.529167;stroke-linecap:round;stroke-linejoin:round;stroke-dasharray:none;stroke-opacity:1;paint-order:stroke fill markers"
         id="rect12"
         width="4.2333336"
         height="6.3500004"
         x="-4.7077227"
         y="0.20928961"
         ry="2.1166668" /><g
         id="path13" /><g
         id="path13-7"
         transform="matrix(1,0,0,-1,0,7.828125)" /><path
         id="path15-0"
         style="color:#000000;fill:#1463bf;fill-opacity:1;stroke-linecap:round;stroke-linejoin:round;-inkscape-stroke:none;paint-order:stroke fill markers"
         d="m -2.5507486,1.2696899 a 0.52921795,0.52921795 0 0 0 -0.2439127,0.039274 0.52921795,0.52921795 0 0 0 -0.3255615,0.4878257 V 2.6380818 C -3.1638513,2.5941038 -3.2642721,2.4931407 -3.2669839,2.4902873 a 0.52916503,0.52916503 0 0 0 -0.3689697,-0.1643311 0.52916503,0.52916503 0 0 0 -0.379305,0.1446939 0.52916503,0.52916503 0 0 0 -0.019637,0.7482748 c 0.079554,0.083711 0.3639112,0.3683087 0.6903971,0.6945312 -0.3264859,0.3262225 -0.6108433,0.6097871 -0.6903971,0.6934977 a 0.52916503,0.52916503 0 0 0 0.019637,0.7482747 0.52916503,0.52916503 0 0 0 0.7482747,-0.019637 c 0.00178,-0.00188 0.1265283,-0.1263956 0.1467611,-0.146761 v 0.8423258 a 0.52921795,0.52921795 0 0 0 0.3255615,0.488859 0.52921795,0.52921795 0 0 0 0.576709,-0.1136881 L -1.159619,5.3479939 a 0.52921795,0.52921795 0 0 0 0.080615,-0.10542 0.52921795,0.52921795 0 0 0 0.020671,-0.038241 0.52921795,0.52921795 0 0 0 0.01757,-0.040308 0.52921795,0.52921795 0 0 0 0.014469,-0.041341 0.52916503,0.52916503 0 0 0 0.00723,-0.027905 0.52921795,0.52921795 0 0 0 0.0031,-0.014469 0.52916503,0.52916503 0 0 0 0.00103,-0.0062 0.52921795,0.52921795 0 0 0 0.0062,-0.036174 0.52921795,0.52921795 0 0 0 0,-0.00103 0.52916503,0.52916503 0 0 0 0,-0.00103 0.52921795,0.52921795 0 0 0 0.0031,-0.042375 0.52921795,0.52921795 0 0 0 0,-0.043408 0.52921795,0.52921795 0 0 0 -0.00207,-0.034107 0.52921795,0.52921795 0 0 0 -0.00103,-0.0093 0.52916503,0.52916503 0 0 0 -0.0031,-0.020671 0.52921795,0.52921795 0 0 0 -0.00413,-0.022738 0.52916503,0.52916503 0 0 0 -0.00413,-0.018604 0.52921795,0.52921795 0 0 0 -0.00207,-0.0062 0.52916503,0.52916503 0 0 0 -0.010335,-0.034107 0.52916503,0.52916503 0 0 0 -0.013436,-0.037207 0.52916503,0.52916503 0 0 0 -0.00103,-0.00207 0.52921795,0.52921795 0 0 0 -0.00103,-0.00207 0.52916503,0.52916503 0 0 0 -0.062012,-0.1064535 0.52916503,0.52916503 0 0 0 -0.049609,-0.058911 c 0,0 -0.378323,-0.3774258 -0.686263,-0.6841959 0.3075904,-0.306421 0.686263,-0.6831625 0.686263,-0.6831625 a 0.52916503,0.52916503 0 0 0 0.1126546,-0.1674316 0.52921795,0.52921795 0 0 0 0.00103,-0.00207 0.52916503,0.52916503 0 0 0 0.025838,-0.077515 0.52921795,0.52921795 0 0 0 0.00413,-0.018603 0.52916503,0.52916503 0 0 0 0.00413,-0.022738 0.52921795,0.52921795 0 0 0 0.00103,-0.00517 0.52916503,0.52916503 0 0 0 0.00413,-0.036174 0.52921795,0.52921795 0 0 0 -0.00207,-0.109554 0.52916503,0.52916503 0 0 0 -0.00207,-0.015503 0.52921795,0.52921795 0 0 0 -0.00517,-0.027905 0.52916503,0.52916503 0 0 0 -0.0031,-0.013436 0.52921795,0.52921795 0 0 0 -0.00723,-0.028939 0.52916503,0.52916503 0 0 0 -0.00103,-0.00207 0.52921795,0.52921795 0 0 0 -0.1322756,-0.222202 L -2.2179523,1.4216186 A 0.52921795,0.52921795 0 0 0 -2.5507486,1.2696899 Z" /><path
         id="path15"
         style="color:#000000;fill:#f7fefe;fill-opacity:1;stroke-linecap:round;stroke-linejoin:round;-inkscape-stroke:none;paint-order:stroke fill markers"
         d="m -2.5507486,0.74052326 a 0.52921795,0.52921795 0 0 0 -0.2439127,0.039274 0.52921795,0.52921795 0 0 0 -0.3255615,0.48782564 V 2.1089151 C -3.1638513,2.0649371 -3.2642721,1.963974 -3.2669839,1.9611206 a 0.52916503,0.52916503 0 0 0 -0.3689697,-0.1643311 0.52916503,0.52916503 0 0 0 -0.379305,0.144694 0.52916503,0.52916503 0 0 0 -0.019637,0.7482747 c 0.079554,0.083711 0.3639112,0.3683088 0.6903971,0.6945313 -0.3264859,0.3262224 -0.6108433,0.6097871 -0.6903971,0.6934977 a 0.52916503,0.52916503 0 0 0 0.019637,0.7482747 0.52916503,0.52916503 0 0 0 0.7482747,-0.019637 c 0.00178,-0.00188 0.1265283,-0.1263956 0.1467611,-0.146761 v 0.8423258 a 0.52921795,0.52921795 0 0 0 0.3255615,0.488859 0.52921795,0.52921795 0 0 0 0.576709,-0.1136881 L -1.159619,4.8188272 a 0.52921795,0.52921795 0 0 0 0.080615,-0.1054199 0.52921795,0.52921795 0 0 0 0.020671,-0.038241 0.52921795,0.52921795 0 0 0 0.01757,-0.040308 0.52921795,0.52921795 0 0 0 0.014469,-0.041341 0.52916503,0.52916503 0 0 0 0.00723,-0.027905 0.52921795,0.52921795 0 0 0 0.0031,-0.014469 0.52916503,0.52916503 0 0 0 0.00103,-0.0062 0.52921795,0.52921795 0 0 0 0.0062,-0.036174 0.52921795,0.52921795 0 0 0 0,-0.00103 0.52916503,0.52916503 0 0 0 0,-0.00103 0.52921795,0.52921795 0 0 0 0.0031,-0.042375 0.52921795,0.52921795 0 0 0 0,-0.043408 0.52921795,0.52921795 0 0 0 -0.00207,-0.034107 0.52921795,0.52921795 0 0 0 -0.00103,-0.0093 0.52916503,0.52916503 0 0 0 -0.0031,-0.020671 0.52921795,0.52921795 0 0 0 -0.00413,-0.022738 0.52916503,0.52916503 0 0 0 -0.00413,-0.018604 0.52921795,0.52921795 0 0 0 -0.00207,-0.0062 0.52916503,0.52916503 0 0 0 -0.010335,-0.034107 0.52916503,0.52916503 0 0 0 -0.013436,-0.037207 0.52916503,0.52916503 0 0 0 -0.00103,-0.00207 0.52921795,0.52921795 0 0 0 -0.00103,-0.00207 0.52916503,0.52916503 0 0 0 -0.062012,-0.1064535 0.52916503,0.52916503 0 0 0 -0.049609,-0.058911 c 0,0 -0.378323,-0.3774258 -0.686263,-0.6841959 0.3075904,-0.306421 0.686263,-0.6831625 0.686263,-0.6831625 a 0.52916503,0.52916503 0 0 0 0.1126546,-0.1674316 0.52921795,0.52921795 0 0 0 0.00103,-0.00207 0.52916503,0.52916503 0 0 0 0.025838,-0.077515 0.52921795,0.52921795 0 0 0 0.00413,-0.018603 0.52916503,0.52916503 0 0 0 0.00413,-0.022738 0.52921795,0.52921795 0 0 0 0.00103,-0.00517 0.52916503,0.52916503 0 0 0 0.00413,-0.036174 0.52921795,0.52921795 0 0 0 -0.00207,-0.109554 0.52916503,0.52916503 0 0 0 -0.00207,-0.015503 0.52921795,0.52921795 0 0 0 -0.00517,-0.027905 0.52916503,0.52916503 0 0 0 -0.0031,-0.013436 0.52921795,0.52921795 0 0 0 -0.00723,-0.028939 0.52916503,0.52916503 0 0 0 -0.00103,-0.00207 0.52921795,0.52921795 0 0 0 -0.1322756,-0.222202 L -2.2179523,0.89245196 a 0.52921795,0.52921795 0 0 0 -0.3327963,-0.1519287 z" /></g></g><style
     type="text/css"
     id="current-color-scheme-9">
      .ColorScheme-Text {
        color:#31363b;
      }
      .ColorScheme-Background {
        color:#eff0f1;
      }
      .ColorScheme-Highlight {
        color:#3498db;
      }
      .ColorScheme-ViewText {
        color:#31363b;
      }
      .ColorScheme-ViewBackground {
        color:#fcfcfc;
      }
      .ColorScheme-ViewHover {
        color:#93cee9;
      }
      .ColorScheme-ViewFocus{
        color:#3daee9;
      }
      .ColorScheme-ButtonText {
        color:#31363b;
      }
      .ColorScheme-ButtonBackground {
        color:#eff0f1;
      }
      .ColorScheme-ButtonHover {
        color:#93cee9;
      }
      .ColorScheme-ButtonFocus{
        color:#3daee9;
      }
      .ColorScheme-NegativeText{
        color:#e74c3c;
      }
      </style></svg>
