<?xml version="1.0" encoding="UTF-8" standalone="no"?>
<svg
   height="22"
   viewBox="0 0 22 22"
   width="22"
   id="svg2"
   version="1.1"
   inkscape:version="1.3.2 (091e20ef0f, 2023-11-25, custom)"
   sodipodi:docname="emblem-info.svg"
   xmlns:inkscape="http://www.inkscape.org/namespaces/inkscape"
   xmlns:sodipodi="http://sodipodi.sourceforge.net/DTD/sodipodi-0.dtd"
   xmlns:xlink="http://www.w3.org/1999/xlink"
   xmlns="http://www.w3.org/2000/svg"
   xmlns:svg="http://www.w3.org/2000/svg"
   xmlns:rdf="http://www.w3.org/1999/02/22-rdf-syntax-ns#"
   xmlns:cc="http://creativecommons.org/ns#"
   xmlns:dc="http://purl.org/dc/elements/1.1/">
  <metadata
     id="metadata10">
    <rdf:RDF>
      <cc:Work
         rdf:about="">
        <dc:format>image/svg+xml</dc:format>
        <dc:type
           rdf:resource="http://purl.org/dc/dcmitype/StillImage" />
        <dc:title />
      </cc:Work>
    </rdf:RDF>
  </metadata>
  <sodipodi:namedview
     pagecolor="#ffffff"
     bordercolor="#666666"
     borderopacity="1"
     objecttolerance="10"
     gridtolerance="10"
     guidetolerance="10"
     inkscape:pageopacity="0"
     inkscape:pageshadow="2"
     inkscape:window-width="2560"
     inkscape:window-height="1364"
     id="namedview8"
     showgrid="true"
     inkscape:showpageshadow="false"
     inkscape:snap-bbox="true"
     inkscape:bbox-paths="true"
     inkscape:bbox-nodes="true"
     inkscape:snap-bbox-edge-midpoints="true"
     inkscape:snap-bbox-midpoints="true"
     inkscape:object-paths="true"
     inkscape:snap-intersection-paths="true"
     inkscape:object-nodes="true"
     inkscape:snap-smooth-nodes="false"
     inkscape:snap-midpoints="false"
     inkscape:zoom="45.254835"
     inkscape:cx="13.04833"
     inkscape:cy="8.7062521"
     inkscape:window-x="0"
     inkscape:window-y="0"
     inkscape:window-maximized="1"
     inkscape:current-layer="g2289"
     inkscape:pagecheckerboard="0"
     inkscape:deskcolor="#d1d1d1">
    <inkscape:grid
       type="xygrid"
       id="grid5653"
       originx="0"
       originy="0"
       spacingy="1"
       spacingx="1"
       units="px"
       visible="true" />
  </sodipodi:namedview>
  <defs
     id="defs2">
    <style
       type="text/css"
       id="current-color-scheme">
      .ColorScheme-Text {
        color:#122036;
      }
      </style>
    <linearGradient
       inkscape:collect="always"
       xlink:href="#linearGradient4902"
       id="linearGradient5790"
       x1="29.333334"
       y1="308.64999"
       x2="29.333334"
       y2="278.64999"
       gradientUnits="userSpaceOnUse" />
    <style
       type="text/css"
       id="current-color-scheme-1">
      .ColorScheme-Text {
        color:#122036;
      }
      </style>
    <style
       id="current-color-scheme-10"
       type="text/css">
      .ColorScheme-Text {
        color:#122036;
      }
      </style>
    <linearGradient
       id="linearGradient4902"
       inkscape:collect="always">
      <stop
         id="stop4898"
         offset="0"
         style="stop-color:#0d72ec;stop-opacity:1" />
      <stop
         id="stop4900"
         offset="1"
         style="stop-color:#36b2fb;stop-opacity:1" />
    </linearGradient>
    <style
       id="current-color-scheme-5"
       type="text/css">
      .ColorScheme-Text {
        color:#122036;
      }
      </style>
    <style
       id="current-color-scheme-1-2"
       type="text/css">
      .ColorScheme-Text {
        color:#122036;
      }
      </style>
    <style
       type="text/css"
       id="current-color-scheme-10-9">
      .ColorScheme-Text {
        color:#122036;
      }
      </style>
    <style
       type="text/css"
       id="current-color-scheme-6">
      .ColorScheme-Text {
        color:#122036;
      }
      </style>
    <style
       type="text/css"
       id="current-color-scheme-1-9">
      .ColorScheme-Text {
        color:#122036;
      }
      </style>
    <style
       id="current-color-scheme-10-1"
       type="text/css">
      .ColorScheme-Text {
        color:#122036;
      }
      </style>
  </defs>
  <g
     transform="translate(-18,-287.64999)"
     id="layer1-60"
     inkscape:label="Capa 1">
    <g
       transform="matrix(0.6,0,0,0.6,9.4,122.46)"
       id="g2289">
      <path
         style="opacity:1;fill:#0e44b2;fill-opacity:1;stroke:none;stroke-width:2;stroke-linecap:round;stroke-linejoin:round;stroke-miterlimit:4;stroke-dasharray:none;stroke-opacity:1"
         d="m 32.666666,276.98331 c 9.233333,0 16.666666,7.43333 16.666666,16.66666 0,9.23334 -7.433333,16.66667 -16.666666,16.66667 C 23.433333,310.31664 16,302.88331 16,293.64997 c 0,-9.23333 7.433333,-16.66666 16.666666,-16.66666 z"
         id="rect5699-5" />
      <path
         style="opacity:1;fill:url(#linearGradient5790);fill-opacity:1;stroke:none;stroke-width:2;stroke-linecap:round;stroke-linejoin:round;stroke-miterlimit:4;stroke-dasharray:none;stroke-opacity:1"
         d="m 32.666666,278.64999 c 8.31,0 15,6.69 15,15 0,8.31 -6.69,15 -15,15 -8.31,0 -15,-6.69 -15,-15 0,-8.31 6.69,-15 15,-15 z"
         id="rect5699" />
      <g
         inkscape:label="Capa 1"
         id="layer1-60-1"
         transform="matrix(1.6666667,0,0,1.6666667,-15.666667,-204.10001)" />
      <path
         id="rect1-3"
         style="fill:#0e44b2;fill-opacity:1;stroke-width:3.33333;stroke-linecap:round;stroke-linejoin:round;paint-order:stroke fill markers"
         d="m 32.666667,285.31664 c -0.923333,0 -1.666667,0.74334 -1.666667,1.66667 0,0.92333 0.743334,1.66667 1.666667,1.66667 0.923332,0 1.666666,-0.74334 1.666666,-1.66667 0,-0.92333 -0.743334,-1.66667 -1.666666,-1.66667 z m 0,6.66667 C 31.743335,291.98331 31,292.72664 31,293.64998 v 8.33333 c 0,0.92334 0.743335,1.66667 1.666667,1.66667 0.923332,0 1.666666,-0.74333 1.666666,-1.66667 v -8.33333 c 0,-0.92334 -0.743334,-1.66667 -1.666666,-1.66667 z"
         sodipodi:nodetypes="ssssssssssss" />
      <path
         id="rect1"
         style="fill:#dceefd;fill-opacity:1;stroke-width:3.33333;stroke-linecap:round;stroke-linejoin:round;paint-order:stroke fill markers"
         d="m 32.666667,283.64998 c -0.923333,0 -1.666667,0.74334 -1.666667,1.66667 0,0.92333 0.743334,1.66667 1.666667,1.66667 0.923332,0 1.666666,-0.74334 1.666666,-1.66667 0,-0.92333 -0.743334,-1.66667 -1.666666,-1.66667 z m 0,6.66667 C 31.743335,290.31665 31,291.05998 31,291.98332 v 8.33333 c 0,0.92334 0.743335,1.66667 1.666667,1.66667 0.923332,0 1.666666,-0.74333 1.666666,-1.66667 v -8.33333 c 0,-0.92334 -0.743334,-1.66667 -1.666666,-1.66667 z"
         sodipodi:nodetypes="ssssssssssss" />
    </g>
  </g>
</svg>
