<?xml version="1.0" encoding="UTF-8" standalone="no"?>
<svg
   id="svg7"
   version="1.1"
   viewBox="0 0 22 22"
   sodipodi:docname="software-updates-security.svg"
   inkscape:version="1.3.2 (091e20ef0f, 2023-11-25, custom)"
   xmlns:inkscape="http://www.inkscape.org/namespaces/inkscape"
   xmlns:sodipodi="http://sodipodi.sourceforge.net/DTD/sodipodi-0.dtd"
   xmlns:xlink="http://www.w3.org/1999/xlink"
   xmlns="http://www.w3.org/2000/svg"
   xmlns:svg="http://www.w3.org/2000/svg">
  <sodipodi:namedview
     id="namedview1"
     pagecolor="#ffffff"
     bordercolor="#000000"
     borderopacity="0.25"
     inkscape:showpageshadow="2"
     inkscape:pageopacity="0.0"
     inkscape:pagecheckerboard="0"
     inkscape:deskcolor="#d1d1d1"
     inkscape:zoom="13.386364"
     inkscape:cx="14.006791"
     inkscape:cy="13.670628"
     inkscape:window-width="2560"
     inkscape:window-height="1364"
     inkscape:window-x="0"
     inkscape:window-y="0"
     inkscape:window-maximized="1"
     inkscape:current-layer="g1"
     showgrid="true">
    <inkscape:grid
       id="grid1"
       units="px"
       originx="0"
       originy="0"
       spacingx="1"
       spacingy="1"
       empcolor="#0099e5"
       empopacity="0.30196078"
       color="#0099e5"
       opacity="0.14902"
       empspacing="5"
       dotted="false"
       gridanglex="30"
       gridanglez="30"
       visible="true" />
  </sodipodi:namedview>
  <defs
     id="defs3">
    <style
       type="text/css"
       id="current-color-scheme">
        .ColorScheme-Text {            color:#232629;        }
    </style>
    <linearGradient
       inkscape:collect="always"
       xlink:href="#linearGradient4111"
       id="linearGradient4113"
       x1="3.7041664"
       y1="1.0583333"
       x2="3.7041664"
       y2="5.2916665"
       gradientUnits="userSpaceOnUse" />
    <linearGradient
       inkscape:collect="always"
       id="linearGradient4111">
      <stop
         style="stop-color:#cfa679;stop-opacity:1;"
         offset="0"
         id="stop4107" />
      <stop
         style="stop-color:#d9b389;stop-opacity:1;"
         offset="1"
         id="stop4109" />
    </linearGradient>
    <linearGradient
       inkscape:collect="always"
       xlink:href="#linearGradient961"
       id="linearGradient5"
       gradientUnits="userSpaceOnUse"
       gradientTransform="matrix(0.83333333,0,0,0.83333333,-32.342672,-240.37498)"
       x1="58"
       y1="312.64999"
       x2="58"
       y2="302.64999" />
    <linearGradient
       id="linearGradient961"
       inkscape:collect="always">
      <stop
         id="stop957"
         offset="0"
         style="stop-color:#0f75ed;stop-opacity:1;" />
      <stop
         id="stop959"
         offset="1"
         style="stop-color:#35b0fb;stop-opacity:1;" />
    </linearGradient>
  </defs>
  <g
     id="g1"
     transform="translate(0.99999998,2)">
    <g
       id="g3"
       transform="translate(-33,-29)">
      <g
         id="g5"
         transform="translate(32.009338,27)">
        <g
           id="g8">
          <g
             id="g2"
             transform="matrix(1,0,0,-1,-1.0093375,23)">
            <g
               inkscape:label="Capa 1"
               id="layer1"
               transform="scale(3.7795276)">
              <path
                 id="rect1728"
                 style="opacity:1;fill:#806956;fill-opacity:1;stroke-width:0.529167;stroke-linecap:round;stroke-linejoin:round;stroke-miterlimit:1.8;paint-order:fill markers stroke;stop-color:#000000"
                 d="m 1.0583333,0.52916664 h 4.2333332 c 0.2931583,0 0.5291666,0.23600832 0.5291666,0.52916666 v 4.2333332 c 0,0.2931583 -0.2360083,0.5291666 -0.5291666,0.5291666 H 1.0583333 c -0.29315834,0 -0.52916666,-0.2360083 -0.52916666,-0.5291666 V 1.0583333 c 0,-0.29315834 0.23600832,-0.52916666 0.52916666,-0.52916666 z" />
              <path
                 id="rect1728-7"
                 style="fill:url(#linearGradient4113);stroke-width:0.529167;stroke-linecap:round;stroke-linejoin:round;stroke-miterlimit:1.8;paint-order:fill markers stroke;stop-color:#000000"
                 d="m 1.0583333,0.79374999 h 4.2333341 c 0.1465792,0 0.2645834,0.11800416 0.2645834,0.26458331 v 4.2333332 c 0,0.1465791 -0.1180042,0.2645833 -0.2645834,0.2645833 H 1.0583333 c -0.14657915,0 -0.26458331,-0.1180042 -0.26458331,-0.2645833 V 1.0583333 c 0,-0.14657915 0.11800416,-0.26458331 0.26458331,-0.26458331 z" />
            </g>
          </g>
          <path
             d="m 8,1 v 1 1 1 7 c 0,1.66202 1.338,3 3,3 1.662,0 3,-1.33798 3,-3 V 4 3 2 1 Z"
             fill="#010102"
             id="path13"
             sodipodi:nodetypes="ccccsssccccc" />
          <path
             d="m 9.0000001,1.99992 v 2.99997 l -4e-7,6.00008 c -10e-8,1.108 0.892,2.00002 2.0000003,2.00002 1.108,0 2,-0.89202 2,-2.00002 V 4.99989 1.99992 h -2 z"
             fill="url(#a)"
             id="path14"
             style="fill:#262626;fill-opacity:1"
             sodipodi:nodetypes="ccssscccc" />
          <path
             d="m 11,2 h 1 z m 0,0 h -1 v 1 h 1 z m 0,1 v 1 h 1 V 3 Z m 0,1 h -1 v 1 h 1 z m 0,1 v 1.0000004 h 1 V 5 Z m 0,1.0000004 h -1 v 1 h 1 z m 0,1 v 1 h 1 v -1 z m 0,1 H 10 V 9 h 1 z M 11,9 v 1 h 1 V 9 Z m 0,1 h -1 v 1 h 1 z m 0,1 v 1 h 1 v -1 z"
             fill="#fefefe"
             id="path15"
             sodipodi:nodetypes="ccccccccccccccccccccccccccccccccccccccccccccccccccccc" />
          <path
             id="rect5699-5-3-7"
             style="fill:#0e44b2;fill-opacity:1;stroke:none;stroke-width:0.72;stroke-linecap:round;stroke-linejoin:round;stroke-miterlimit:4;stroke-dasharray:none;stroke-opacity:1"
             d="m 10.990662,10 c -0.553998,0 -0.9999996,0.446002 -0.9999996,1 V 13.001953 15 15.998047 16 c 0,0.146494 0.00736,0.291743 0.017579,0.435547 h -0.015626 v 0.002 h 0.015626 C 10.230889,19.555707 12.813825,22 15.990662,22 c 3.323994,0 6,-2.676002 6,-6 V 15.998 15 13.001953 11 c 0,-0.553998 -0.446,-1 -1,-1 h -5 z" />
          <path
             id="path1031-4-8"
             style="color:#122036;fill:url(#linearGradient5);fill-opacity:1;stroke:none;stroke-width:0.714287"
             d="m 11.000428,11 v 0.002 4.689453 c -0.0062,0.102267 -0.0098,0.20472 -0.0098,0.308594 0,2.770013 2.230003,5 5,5 2.769998,0 5,-2.229987 5,-5 v -0.002 -4.996094 L 20.988709,11 h -4.998047 z" />
        </g>
      </g>
      <path
         id="rect11493-6-3"
         style="fill:#0e44b2;fill-opacity:1;stroke:none;stroke-width:1;stroke-linecap:round;stroke-linejoin:round;stroke-miterlimit:1.8;stroke-dasharray:none;stroke-opacity:1;paint-order:fill markers stroke;stop-color:#000000"
         d="m 48,40 c -1.108,0 -2,0.892 -2,2 v 0.94727 c -0.554,0 -1,0.446 -1,1 V 47 c 0,0.554 0.446,1 1,1 h 4 c 0.554,0 1,-0.446 1,-1 v -3.05273 c 0,-0.554 -0.446,-1 -1,-1 V 42 c 0,-1.108 -0.892,-2 -2,-2 z m 0,1 c 0.554,0 1,0.446 1,1 v 0.94727 H 47 V 42 c 0,-0.554 0.446,-1 1,-1 z" />
      <path
         id="rect11493-6"
         style="fill:#e3f0fc;fill-opacity:1;stroke:none;stroke-width:1;stroke-linecap:round;stroke-linejoin:round;stroke-miterlimit:1.8;stroke-dasharray:none;stroke-opacity:1;paint-order:fill markers stroke;stop-color:#000000"
         d="m 48,39 c -1.108,0 -2,0.892 -2,2 v 0.94727 c -0.554,0 -1,0.446 -1,1 V 46 c 0,0.554 0.446,1 1,1 h 4 c 0.554,0 1,-0.446 1,-1 v -3.05273 c 0,-0.554 -0.446,-1 -1,-1 V 41 c 0,-1.108 -0.892,-2 -2,-2 z m 0,1 c 0.554,0 1,0.446 1,1 v 0.94727 H 47 V 41 c 0,-0.554 0.446,-1 1,-1 z" />
    </g>
  </g>
</svg>
