<?xml version="1.0" encoding="UTF-8" standalone="no"?>
<svg
   viewBox="0 0 22 22"
   version="1.1"
   id="svg2"
   sodipodi:docname="state-download.svg"
   inkscape:version="1.3.2 (091e20ef0f, 2023-11-25, custom)"
   xmlns:inkscape="http://www.inkscape.org/namespaces/inkscape"
   xmlns:sodipodi="http://sodipodi.sourceforge.net/DTD/sodipodi-0.dtd"
   xmlns:xlink="http://www.w3.org/1999/xlink"
   xmlns="http://www.w3.org/2000/svg"
   xmlns:svg="http://www.w3.org/2000/svg">
  <sodipodi:namedview
     id="namedview2"
     pagecolor="#ffffff"
     bordercolor="#000000"
     borderopacity="0.25"
     inkscape:showpageshadow="2"
     inkscape:pageopacity="0.0"
     inkscape:pagecheckerboard="0"
     inkscape:deskcolor="#d1d1d1"
     inkscape:zoom="52.727272"
     inkscape:cx="17.002586"
     inkscape:cy="12.801724"
     inkscape:window-width="2560"
     inkscape:window-height="1364"
     inkscape:window-x="0"
     inkscape:window-y="0"
     inkscape:window-maximized="1"
     inkscape:current-layer="g3" />
  <defs
     id="defs3051">
    <style
       type="text/css"
       id="current-color-scheme">
      .ColorScheme-Text {
        color:#232629;
      }
      .ColorScheme-PositiveText {
        color:#27ae60;
      }
      </style>
    <linearGradient
       inkscape:collect="always"
       xlink:href="#linearGradient51"
       id="linearGradient53"
       gradientUnits="userSpaceOnUse"
       x1="97.875"
       y1="33.25"
       x2="97.875"
       y2="27.25"
       gradientTransform="translate(-59.323855,-8.749993)" />
    <linearGradient
       id="linearGradient51"
       inkscape:collect="always">
      <stop
         style="stop-color:#209f6e;stop-opacity:1;"
         offset="0"
         id="stop51" />
      <stop
         style="stop-color:#24b27b;stop-opacity:1;"
         offset="1"
         id="stop52" />
    </linearGradient>
    <linearGradient
       inkscape:collect="always"
       xlink:href="#linearGradient3"
       id="linearGradient4"
       x1="15"
       y1="312.58844"
       x2="15"
       y2="299.17917"
       gradientUnits="userSpaceOnUse"
       gradientTransform="translate(-3,-2)" />
    <linearGradient
       id="linearGradient3"
       inkscape:collect="always">
      <stop
         style="stop-color:#bad8ff;stop-opacity:1;"
         offset="0"
         id="stop3" />
      <stop
         style="stop-color:#e5eeff;stop-opacity:1;"
         offset="1"
         id="stop4" />
    </linearGradient>
  </defs>
  <g
     id="g2"
     transform="translate(-18,-12.000017)">
    <g
       inkscape:label="Capa 1"
       id="layer1"
       transform="translate(18,-279.17914)">
      <path
         id="rect1"
         style="fill:#a5bbd9;fill-opacity:1;stroke:#a5bad9;stroke-width:2;stroke-linecap:round;stroke-linejoin:round;stroke-dasharray:none;stroke-opacity:1;paint-order:markers stroke fill"
         d="m 13,295.17916 c -2.169948,0 -4.0083969,1.36842 -4.703125,3.29297 C 7.9046468,298.28467 7.4652517,298.17916 7,298.17916 c -1.6619983,0 -3,1.338 -3,3 0,0.0414 0.00226,0.082 0.00391,0.12305 C 2.2728811,301.74268 1,303.30727 1,305.17916 c 0,2.216 1.7840022,4 4,4 h 12 c 2.215998,0 4,-1.784 4,-4 0,-1.91387 -1.330662,-3.50587 -3.121094,-3.9043 C 17.95725,300.92215 18,300.55614 18,300.17916 c 0,-2.77 -2.230003,-5 -5,-5 z" />
      <path
         id="rect1-3"
         style="fill:url(#linearGradient4);stroke:none;stroke-width:2;stroke-linecap:round;stroke-linejoin:round;stroke-dasharray:none;stroke-opacity:1;paint-order:markers stroke fill"
         d="m 13,295.17916 c -2.169948,0 -4.008397,1.36842 -4.703125,3.29297 C 7.904647,298.28467 7.465252,298.17916 7,298.17916 c -1.6619983,0 -3,1.338 -3,3 0,0.0414 0.00226,0.082 0.00391,0.12305 C 2.2728811,301.74268 1,303.30727 1,305.17916 c 0,2.216 1.7840022,4 4,4 h 12 c 2.215998,0 4,-1.784 4,-4 0,-1.91387 -1.330662,-3.50587 -3.121094,-3.9043 C 17.95725,300.92215 18,300.55614 18,300.17916 c 0,-2.77 -2.230003,-5 -5,-5 z" />
    </g>
    <g
       id="g3"
       transform="translate(-2.551142,5.499976)">
      <path
         style="color:#27ae60;fill:#00804b;fill-opacity:1;stroke:none"
         class="ColorScheme-PositiveText"
         d="m 34.551143,16.500007 v 5 c -8e-6,2.209137 1.790855,4 4,4 2.209146,1e-6 4.00001,-1.790863 4.000002,-4 v -5 h -4.000002 z"
         id="path2-2-0-3"
         sodipodi:nodetypes="ccscccc" />
      <path
         id="rect49-4"
         style="fill:url(#linearGradient53);fill-opacity:1;stroke:none;stroke-width:2;stroke-linecap:round;stroke-linejoin:round;stroke-dasharray:none;stroke-opacity:1;paint-order:stroke fill markers"
         d="m 35.551145,17.500007 v 3.953125 0.04687 0.04687 c 0,1.635985 1.31714,2.953125 2.953125,2.953125 h 0.09375 c 1.635985,0 2.953125,-1.31714 2.953125,-2.953125 v -0.04687 -0.04687 -3.953125 H 38.59802 38.50427 Z"
         sodipodi:nodetypes="cccsssscccccc" />
      <path
         id="path50-6-4"
         style="fill:#00804b;fill-opacity:1;stroke:none;stroke-width:2;stroke-linecap:round;stroke-linejoin:round;stroke-dasharray:none;stroke-opacity:1;paint-order:stroke fill markers"
         d="m 37.551143,19.500007 2e-6,3 h -1 l 2,2.005859 2,-2.005859 h -1 l -2e-6,-3 z"
         sodipodi:nodetypes="cccccccc" />
      <path
         id="path50-3"
         style="fill:#ffffff;fill-opacity:1;stroke:none;stroke-width:2;stroke-linecap:round;stroke-linejoin:round;stroke-dasharray:none;stroke-opacity:1;paint-order:stroke fill markers"
         d="m 37.551143,18.500007 2e-6,3 h -1 l 2,2.005859 2,-2.005859 h -1 l -2e-6,-3 z"
         sodipodi:nodetypes="cccccccc" />
    </g>
  </g>
</svg>
