<?xml version="1.0" encoding="UTF-8" standalone="no"?>
<svg
   viewBox="0 0 22 22"
   version="1.1"
   id="svg1"
   sodipodi:docname="state-warning.svg"
   inkscape:version="1.3.2 (091e20ef0f, 2023-11-25, custom)"
   xml:space="preserve"
   xmlns:inkscape="http://www.inkscape.org/namespaces/inkscape"
   xmlns:sodipodi="http://sodipodi.sourceforge.net/DTD/sodipodi-0.dtd"
   xmlns:xlink="http://www.w3.org/1999/xlink"
   xmlns="http://www.w3.org/2000/svg"
   xmlns:svg="http://www.w3.org/2000/svg"><sodipodi:namedview
     id="namedview1"
     pagecolor="#ffffff"
     bordercolor="#000000"
     borderopacity="0.25"
     inkscape:showpageshadow="2"
     inkscape:pageopacity="0.0"
     inkscape:pagecheckerboard="0"
     inkscape:deskcolor="#d1d1d1"
     showgrid="true"
     inkscape:zoom="26.363636"
     inkscape:cx="18.339655"
     inkscape:cy="15.362069"
     inkscape:window-width="2560"
     inkscape:window-height="1364"
     inkscape:window-x="0"
     inkscape:window-y="0"
     inkscape:window-maximized="1"
     inkscape:current-layer="svg1"><inkscape:grid
       id="grid1"
       units="px"
       originx="0"
       originy="0"
       spacingx="1"
       spacingy="1"
       empcolor="#0099e5"
       empopacity="0.30196078"
       color="#0099e5"
       opacity="0.14902"
       empspacing="5"
       dotted="false"
       gridanglex="30"
       gridanglez="30"
       visible="true" /></sodipodi:namedview><defs
     id="defs3051"><style
       type="text/css"
       id="current-color-scheme">
      .ColorScheme-Text {
        color:#232629;
      }
      .ColorScheme-NeutralText {
        color:#f67400;
      }
      </style><linearGradient
       inkscape:collect="always"
       xlink:href="#linearGradient23"
       id="linearGradient24"
       x1="16"
       y1="18"
       x2="16"
       y2="10"
       gradientUnits="userSpaceOnUse" /><linearGradient
       id="linearGradient23"
       inkscape:collect="always"><stop
         style="stop-color:#ffcc00;stop-opacity:1;"
         offset="0"
         id="stop23" /><stop
         style="stop-color:#ffdf00;stop-opacity:1;"
         offset="1"
         id="stop24" /></linearGradient><linearGradient
       id="linearGradient3"
       inkscape:collect="always"><stop
         style="stop-color:#bad8ff;stop-opacity:1;"
         offset="0"
         id="stop3" /><stop
         style="stop-color:#e5eeff;stop-opacity:1;"
         offset="1"
         id="stop4" /></linearGradient><style
       type="text/css"
       id="current-color-scheme-9">
      .ColorScheme-Highlight {
        color:#03b2fe;
      }
      </style><linearGradient
       inkscape:collect="always"
       xlink:href="#linearGradient3"
       id="linearGradient4"
       x1="15"
       y1="312.58844"
       x2="15"
       y2="299.17917"
       gradientUnits="userSpaceOnUse"
       gradientTransform="translate(-3,-2)" /><style
       type="text/css"
       id="current-color-scheme-62">
      .ColorScheme-Text {
        color:#36404d;
      }
      </style><style
       type="text/css"
       id="current-color-scheme-67">
      .ColorScheme-Text {
        color:#122036;
      }
      </style><style
       type="text/css"
       id="current-color-scheme-7">
      .ColorScheme-Text {
        color:#122036;
      }
      </style><style
       type="text/css"
       id="current-color-scheme-5">
      .ColorScheme-Text {
        color:#122036;
      }
      </style><style
       type="text/css"
       id="current-color-scheme-6">
      .ColorScheme-Text {
        color:#122036;
      }
      </style><style
       type="text/css"
       id="current-color-scheme-1">
      .ColorScheme-Text {
        color:#122036;
      }
      </style><style
       id="current-color-scheme-10"
       type="text/css">
      .ColorScheme-Text {
        color:#122036;
      }
      </style><style
       id="current-color-scheme-5-7"
       type="text/css">
      .ColorScheme-Text {
        color:#122036;
      }
      </style><style
       id="current-color-scheme-1-2"
       type="text/css">
      .ColorScheme-Text {
        color:#122036;
      }
      </style><style
       type="text/css"
       id="current-color-scheme-10-9">
      .ColorScheme-Text {
        color:#122036;
      }
      </style></defs><g
     inkscape:label="Capa 1"
     id="layer1"
     transform="translate(0,-291.17916)"><path
       id="rect1"
       style="fill:#a5bbd9;fill-opacity:1;stroke:#a5bad9;stroke-width:2;stroke-linecap:round;stroke-linejoin:round;stroke-dasharray:none;stroke-opacity:1;paint-order:markers stroke fill"
       d="m 13,295.17916 c -2.169948,0 -4.0083969,1.36842 -4.703125,3.29297 C 7.9046468,298.28467 7.4652517,298.17916 7,298.17916 c -1.6619983,0 -3,1.338 -3,3 0,0.0414 0.00226,0.082 0.00391,0.12305 C 2.2728811,301.74268 1,303.30727 1,305.17916 c 0,2.216 1.7840022,4 4,4 h 12 c 2.215998,0 4,-1.784 4,-4 0,-1.91387 -1.330662,-3.50587 -3.121094,-3.9043 C 17.95725,300.92215 18,300.55614 18,300.17916 c 0,-2.77 -2.230003,-5 -5,-5 z" /><path
       id="rect1-3"
       style="fill:url(#linearGradient4);stroke:none;stroke-width:2;stroke-linecap:round;stroke-linejoin:round;stroke-dasharray:none;stroke-opacity:1;paint-order:markers stroke fill"
       d="m 13,295.17916 c -2.169948,0 -4.008397,1.36842 -4.703125,3.29297 C 7.904647,298.28467 7.465252,298.17916 7,298.17916 c -1.6619983,0 -3,1.338 -3,3 0,0.0414 0.00226,0.082 0.00391,0.12305 C 2.2728811,301.74268 1,303.30727 1,305.17916 c 0,2.216 1.7840022,4 4,4 h 12 c 2.215998,0 4,-1.784 4,-4 0,-1.91387 -1.330662,-3.50587 -3.121094,-3.9043 C 17.95725,300.92215 18,300.55614 18,300.17916 c 0,-2.77 -2.230003,-5 -5,-5 z" /></g><g
     id="g1"
     transform="translate(-19,-12.000017)"><g
       id="path21"
       transform="translate(19.000001,11.999983)"><path
         style="color:#000000;fill:#fe9500;fill-opacity:1;stroke-linecap:round;stroke-linejoin:round;-inkscape-stroke:none;paint-order:stroke fill markers"
         d="m 16,9 c -0.344802,2.884e-4 -0.665137,0.1781706 -0.847656,0.4707031 l -5,7.9999999 C 9.7371609,18.136487 10.21537,18.999246 11,19 h 10 c 0.78463,-7.54e-4 1.262839,-0.863513 0.847656,-1.529297 l -5,-7.9999999 C 16.665137,9.1781706 16.344802,9.0002884 16,9 Z"
         id="path22"
         sodipodi:nodetypes="cccccccc" /><path
         style="color:#000000;fill:url(#linearGradient24);stroke-linecap:round;stroke-linejoin:round;-inkscape-stroke:none;paint-order:stroke fill markers"
         d="m 16,10 -5,8 h 10 z"
         id="path23" /></g><path
       id="rect34256-9-0-7-5-5-4"
       style="fill:#fe9500;fill-opacity:1;stroke-width:2;stroke-linecap:round;stroke-linejoin:round;stroke-miterlimit:1.8;paint-order:fill markers stroke;stop-color:#000000"
       d="m 34.94922,24.999983 c -0.529828,0.02668 -0.949219,0.463323 -0.949219,1 v 1 c 0,0.553999 0.446001,1 1,1 0.554,0 1,-0.446001 1,-1 v -1 c 0,-0.553989 -0.446,-1 -1,-1 -0.01731,0 -0.03369,-8.61e-4 -0.05078,0 z m 0,4 c -0.529828,0.02668 -0.949219,0.463313 -0.949219,1 0,0.553999 0.446001,1 1,1 0.554,0 1,-0.446001 1,-1 0,-0.553999 -0.446,-1 -1,-1 -0.01731,0 -0.03369,-8.61e-4 -0.05078,0 z" /><path
       id="rect34256-9-0-7-9-9"
       style="fill:#714300;fill-opacity:1;stroke-width:2;stroke-linecap:round;stroke-linejoin:round;stroke-miterlimit:1.8;paint-order:fill markers stroke;stop-color:#000000"
       d="m 34.94922,23.999983 c -0.529828,0.02668 -0.949219,0.463323 -0.949219,1 v 1 c 0,0.553999 0.446001,1 1,1 0.554,0 1,-0.446001 1,-1 v -1 c 0,-0.553989 -0.446,-1 -1,-1 -0.01731,0 -0.03369,-8.61e-4 -0.05078,0 z m 0,4 c -0.529828,0.02668 -0.949219,0.463313 -0.949219,1 0,0.553999 0.446001,1 1,1 0.554,0 1,-0.446001 1,-1 0,-0.553999 -0.446,-1 -1,-1 -0.01731,0 -0.03369,-8.61e-4 -0.05078,0 z" /></g></svg>
