<?xml version="1.0" encoding="UTF-8" standalone="no"?>
<svg
   height="22"
   viewBox="0 0 22 22"
   width="22"
   id="svg2"
   version="1.1"
   inkscape:version="1.3.2 (091e20ef0f, 2023-11-25, custom)"
   sodipodi:docname="emblem-symbolic-link.svg"
   xmlns:inkscape="http://www.inkscape.org/namespaces/inkscape"
   xmlns:sodipodi="http://sodipodi.sourceforge.net/DTD/sodipodi-0.dtd"
   xmlns:xlink="http://www.w3.org/1999/xlink"
   xmlns="http://www.w3.org/2000/svg"
   xmlns:svg="http://www.w3.org/2000/svg"
   xmlns:rdf="http://www.w3.org/1999/02/22-rdf-syntax-ns#"
   xmlns:cc="http://creativecommons.org/ns#"
   xmlns:dc="http://purl.org/dc/elements/1.1/">
  <metadata
     id="metadata10">
    <rdf:RDF>
      <cc:Work
         rdf:about="">
        <dc:format>image/svg+xml</dc:format>
        <dc:type
           rdf:resource="http://purl.org/dc/dcmitype/StillImage" />
        <dc:title />
      </cc:Work>
    </rdf:RDF>
  </metadata>
  <sodipodi:namedview
     pagecolor="#ffffff"
     bordercolor="#666666"
     borderopacity="1"
     objecttolerance="10"
     gridtolerance="10"
     guidetolerance="10"
     inkscape:pageopacity="0"
     inkscape:pageshadow="2"
     inkscape:window-width="2560"
     inkscape:window-height="1356"
     id="namedview8"
     showgrid="true"
     inkscape:showpageshadow="false"
     inkscape:snap-bbox="true"
     inkscape:bbox-paths="true"
     inkscape:bbox-nodes="true"
     inkscape:snap-bbox-edge-midpoints="true"
     inkscape:snap-bbox-midpoints="true"
     inkscape:object-paths="true"
     inkscape:snap-intersection-paths="true"
     inkscape:object-nodes="true"
     inkscape:snap-smooth-nodes="false"
     inkscape:snap-midpoints="false"
     inkscape:zoom="32"
     inkscape:cx="-1.75"
     inkscape:cy="8.8125"
     inkscape:window-x="0"
     inkscape:window-y="0"
     inkscape:window-maximized="1"
     inkscape:current-layer="g2289"
     inkscape:pagecheckerboard="0"
     inkscape:deskcolor="#d1d1d1">
    <inkscape:grid
       type="xygrid"
       id="grid5653"
       originx="0"
       originy="0"
       spacingy="1"
       spacingx="1"
       units="px"
       visible="true" />
  </sodipodi:namedview>
  <defs
     id="defs2">
    <linearGradient
       id="linearGradient1"
       inkscape:collect="always">
      <stop
         style="stop-color:#e4efef;stop-opacity:1;"
         offset="0"
         id="stop1" />
      <stop
         style="stop-color:#fbfcfc;stop-opacity:1;"
         offset="1"
         id="stop6" />
    </linearGradient>
    <style
       type="text/css"
       id="current-color-scheme">
      .ColorScheme-Text {
        color:#122036;
      }
      </style>
    <linearGradient
       inkscape:collect="always"
       xlink:href="#linearGradient3"
       id="linearGradient2"
       gradientUnits="userSpaceOnUse"
       x1="69.333336"
       y1="308.64999"
       x2="69.333336"
       y2="278.64999"
       gradientTransform="matrix(0.89999993,0,0,0.89999993,53.600003,49.365027)" />
    <linearGradient
       inkscape:collect="always"
       id="linearGradient3">
      <stop
         style="stop-color:#262b35;stop-opacity:1;"
         offset="0"
         id="stop2" />
      <stop
         style="stop-color:#353c4a;stop-opacity:1;"
         offset="1"
         id="stop3" />
    </linearGradient>
    <linearGradient
       inkscape:collect="always"
       xlink:href="#linearGradient1"
       id="linearGradient6"
       x1="36"
       y1="308.64999"
       x2="36"
       y2="291.98331"
       gradientUnits="userSpaceOnUse"
       gradientTransform="translate(-4.9902356,-5.0000017)" />
  </defs>
  <g
     transform="translate(-18,-287.64999)"
     id="layer1-60"
     inkscape:label="Capa 1">
    <g
       transform="matrix(0.6,0,0,0.6,9.4,122.46)"
       id="g2289">
      <g
         id="g1"
         transform="translate(-83.333335,-19.999992)">
        <path
           id="rect23534-0"
           style="fill:#1f1f26;stroke-width:6.29922;paint-order:stroke fill markers;stop-color:#000000"
           d="m 116,296.98331 c 9.23334,0 16.66667,7.43333 16.66667,16.66666 0,9.23334 -7.43333,16.66667 -16.66667,16.66667 -9.23333,0 -16.666667,-7.43333 -16.666667,-16.66667 0,-9.23333 7.433337,-16.66666 16.666667,-16.66666 z" />
        <path
           id="rect23534-0-3"
           style="fill:url(#linearGradient2);stroke-width:5.6693;paint-order:stroke fill markers;stop-color:#000000"
           d="m 116,298.64996 c 8.31,0 15,6.69 15,15 0,8.31 -6.69,15 -15,15 -8.31,0 -15,-6.69 -15,-15 0,-8.31 6.69,-15 15,-15 z" />
      </g>
      <path
         id="path5"
         style="color:#000000;fill:#1f1f26;fill-opacity:1;stroke-linecap:round;stroke-linejoin:round;-inkscape-stroke:none"
         d="m 34.333333,286.98328 c -0.52516,-2.3e-4 -1.019721,0.24706 -1.334635,0.66732 l -5,6.66667 c -0.823194,1.09916 -0.03861,2.66641 1.334635,2.66601 H 31 v 1.66667 0 c 0,2.76998 -2.230006,5 -5,5 -2.667903,0 -4.834124,-2.06991 -4.990235,-4.69727 0.15753,4.47512 3.808671,8.0306 8.323568,8.0306 4.615756,0 8.333333,-3.71758 8.333333,-8.33333 v 0 -0.0553 -1.61133 h 1.666667 c 1.371744,-0.002 2.153677,-1.56805 1.33138,-2.66601 l -5,-6.66667 c -0.314226,-0.41935 -0.807366,-0.66653 -1.33138,-0.66732 z"
         sodipodi:nodetypes="ccccccsscssccccccc" />
      <path
         id="path5-8"
         style="color:#000000;fill:url(#linearGradient6);stroke-linecap:round;stroke-linejoin:round;-inkscape-stroke:none"
         d="m 34.333333,285.31665 c -0.52516,-2.3e-4 -1.019721,0.24706 -1.334635,0.66732 l -5,6.66667 c -0.823194,1.09916 -0.03861,2.66641 1.334635,2.66601 H 31 v 1.66667 0 c 0,2.76998 -2.230006,5 -5,5 -2.667903,0 -4.834124,-2.06991 -4.990235,-4.69727 0.15753,4.47512 3.808671,8.0306 8.323568,8.0306 4.615756,0 8.333333,-3.71758 8.333333,-8.33333 v 0 -0.0553 -1.61133 h 1.666667 c 1.371744,-0.002 2.153677,-1.56805 1.33138,-2.66601 l -5,-6.66667 c -0.314226,-0.41935 -0.807366,-0.66653 -1.33138,-0.66732 z"
         sodipodi:nodetypes="ccccccsscssccccccc" />
    </g>
  </g>
</svg>
