<?xml version="1.0" encoding="UTF-8" standalone="no"?>
<svg
   height="32"
   width="32"
   version="1.1"
   id="svg2"
   sodipodi:docname="battery-050-charging.svg"
   inkscape:version="1.3.2 (091e20ef0f, 2023-11-25, custom)"
   xmlns:inkscape="http://www.inkscape.org/namespaces/inkscape"
   xmlns:sodipodi="http://sodipodi.sourceforge.net/DTD/sodipodi-0.dtd"
   xmlns:xlink="http://www.w3.org/1999/xlink"
   xmlns="http://www.w3.org/2000/svg"
   xmlns:svg="http://www.w3.org/2000/svg">
  <defs
     id="defs2">
    <linearGradient
       inkscape:collect="always"
       xlink:href="#linearGradient1"
       id="linearGradient29"
       gradientUnits="userSpaceOnUse"
       gradientTransform="translate(2,32.5)"
       x1="52"
       y1="29"
       x2="51"
       y2="14" />
    <linearGradient
       id="linearGradient1"
       inkscape:collect="always">
      <stop
         style="stop-color:#252a34;stop-opacity:1;"
         offset="0"
         id="stop1" />
      <stop
         style="stop-color:#353d4b;stop-opacity:1;"
         offset="1"
         id="stop2" />
    </linearGradient>
    <linearGradient
       inkscape:collect="always"
       xlink:href="#linearGradient3"
       id="linearGradient30"
       gradientUnits="userSpaceOnUse"
       gradientTransform="translate(2,32.5)"
       x1="51"
       y1="27"
       x2="51"
       y2="15" />
    <linearGradient
       id="linearGradient3"
       inkscape:collect="always">
      <stop
         style="stop-color:#454545;stop-opacity:1;"
         offset="0"
         id="stop3" />
      <stop
         style="stop-color:#202020;stop-opacity:1;"
         offset="1"
         id="stop4" />
    </linearGradient>
    <linearGradient
       inkscape:collect="always"
       xlink:href="#linearGradient31"
       id="linearGradient32"
       x1="72"
       y1="27"
       x2="72"
       y2="16"
       gradientUnits="userSpaceOnUse" />
    <linearGradient
       id="linearGradient31"
       inkscape:collect="always">
      <stop
         style="stop-color:#07cb58;stop-opacity:1;"
         offset="0"
         id="stop31" />
      <stop
         style="stop-color:#6fd87b;stop-opacity:1;"
         offset="1"
         id="stop32" />
    </linearGradient>
  </defs>
  <sodipodi:namedview
     id="namedview2"
     pagecolor="#ffffff"
     bordercolor="#000000"
     borderopacity="0.25"
     inkscape:showpageshadow="2"
     inkscape:pageopacity="0.0"
     inkscape:pagecheckerboard="0"
     inkscape:deskcolor="#d1d1d1"
     inkscape:zoom="36"
     inkscape:cx="11.680556"
     inkscape:cy="19.388889"
     inkscape:window-width="2560"
     inkscape:window-height="1356"
     inkscape:window-x="0"
     inkscape:window-y="0"
     inkscape:window-maximized="1"
     inkscape:current-layer="svg2" />
  <style
     type="text/css"
     id="current-color-scheme">
        .ColorScheme-PositiveText {
            color:#27ae60;
        }
        .ColorScheme-NegativeText {
            color:#da4453;
        }
    </style>
  <g
     id="g1"
     transform="translate(-7,1)">
    <g
       id="g67"
       transform="translate(-54,-6)">
      <g
         id="g20-6-2"
         transform="translate(27,-33)">
        <path
           id="rect861-8-27-3-9-6-7-0-5-2-3-6-8-9-8"
           style="fill:#15151a;fill-opacity:1;stroke:none;stroke-width:2;stroke-linecap:round;stroke-linejoin:round;stroke-miterlimit:4;stroke-dasharray:none;stroke-opacity:1;paint-order:fill markers stroke"
           d="m 39,45 c -1.107999,0 -2,0.892 -2,2 v 14 c 0,1.108 0.892001,2 2,2 h 19 c 1.107999,0 2,-0.892 2,-2 v -2 h 1 c 1.107999,0 2,-0.892 2,-2 v -6 c 0,-1.108 -0.892001,-2 -2,-2 h -1 v -2 c 0,-1.108 -0.892001,-2 -2,-2 z"
           sodipodi:nodetypes="sssssscsssscsss" />
        <path
           id="rect2-5-4-8-2-9"
           style="fill:url(#linearGradient29);fill-opacity:1;stroke-width:2;stroke-linecap:round;stroke-linejoin:round;paint-order:stroke fill markers"
           d="m 39,46 c -0.553999,0 -1,0.446 -1,1 v 14 c 0,0.554 0.446001,1 1,1 h 19 c 0.553999,0 1,-0.446 1,-1 v -3 h 1.998047 C 61.553007,58 62,57.55301 62,56.99805 v -5.9961 C 62,50.44699 61.553007,50 60.998047,50 H 59 v -3 c 0,-0.554 -0.446001,-1 -1,-1 z"
           sodipodi:nodetypes="sssssscsssscsss" />
        <path
           id="rect3-62-3-9-24-3"
           style="fill:url(#linearGradient30);stroke-width:2;stroke-linecap:round;stroke-linejoin:round;paint-order:stroke fill markers"
           d="m 39,47 v 14 h 19 v -4 h 3 v -6 h -3 v -4 z"
           sodipodi:nodetypes="ccccccccc" />
      </g>
      <path
         id="rect13-8-6-7-9"
         style="fill:url(#linearGradient32);fill-opacity:1;stroke-width:2;stroke-linecap:round;stroke-linejoin:round;paint-order:stroke fill markers"
         d="M 77 18.724609 L 76.314453 18.332031 L 74.832031 20.554688 A 1.0001 1.0001 0 0 1 74 21 L 72.123047 21 L 75.640625 23.513672 L 77 20.869141 L 77 18.724609 z " />
      <path
         id="path3"
         style="fill:url(#linearGradient32);fill-opacity:1;stroke-width:2;stroke-linecap:round;stroke-linejoin:round;paint-order:stroke fill markers"
         d="M 67 15 L 67 27 L 69 27 L 71 27 L 73 27 L 75 27 L 77 27 L 77 25.240234 L 76.888672 25.457031 A 1.0001 1.0001 0 0 1 75.417969 25.814453 L 68.417969 20.814453 A 1.0001 1.0001 0 0 1 69 19 L 73.464844 19 L 75.167969 16.445312 A 1.0001 1.0001 0 0 1 76.496094 16.130859 L 77 16.417969 L 77 15 L 75 15 L 73 15 L 71 15 L 69 15 L 67 15 z " />
    </g>
  </g>
  <g
     id="rect843-3-3-7-8">
    <path
       style="color:#000000;fill:#ffffff;stroke-linecap:round;stroke-linejoin:round;-inkscape-stroke:none"
       d="m 22,16 -4.94255,-4e-5 L 15,20 8,15 h 5 l 2,-3 z"
       id="path2" />
  </g>
</svg>
