<?xml version="1.0" encoding="UTF-8" standalone="no"?>
<svg
   width="32"
   height="32"
   version="1.1"
   id="svg6"
   sodipodi:docname="battery-ups.svg"
   inkscape:version="1.3.2 (091e20ef0f, 2023-11-25, custom)"
   xmlns:inkscape="http://www.inkscape.org/namespaces/inkscape"
   xmlns:sodipodi="http://sodipodi.sourceforge.net/DTD/sodipodi-0.dtd"
   xmlns:xlink="http://www.w3.org/1999/xlink"
   xmlns="http://www.w3.org/2000/svg"
   xmlns:svg="http://www.w3.org/2000/svg">
  <defs
     id="defs10">
    <linearGradient
       id="linearGradient2"
       inkscape:collect="always">
      <stop
         style="stop-color:#2da6f9;stop-opacity:1;"
         offset="0"
         id="stop5" />
      <stop
         style="stop-color:#1680ef;stop-opacity:1;"
         offset="1"
         id="stop6" />
    </linearGradient>
    <linearGradient
       inkscape:collect="always"
       xlink:href="#linearGradient1"
       id="linearGradient70"
       gradientUnits="userSpaceOnUse"
       gradientTransform="translate(2,32.5)"
       x1="52"
       y1="29"
       x2="51"
       y2="14" />
    <linearGradient
       id="linearGradient1"
       inkscape:collect="always">
      <stop
         style="stop-color:#252a34;stop-opacity:1;"
         offset="0"
         id="stop1" />
      <stop
         style="stop-color:#353d4b;stop-opacity:1;"
         offset="1"
         id="stop2" />
    </linearGradient>
    <linearGradient
       inkscape:collect="always"
       xlink:href="#linearGradient3"
       id="linearGradient71"
       gradientUnits="userSpaceOnUse"
       gradientTransform="translate(2,32.5)"
       x1="51"
       y1="27"
       x2="51"
       y2="15" />
    <linearGradient
       id="linearGradient3"
       inkscape:collect="always">
      <stop
         style="stop-color:#454545;stop-opacity:1;"
         offset="0"
         id="stop3" />
      <stop
         style="stop-color:#202020;stop-opacity:1;"
         offset="1"
         id="stop4" />
    </linearGradient>
    <linearGradient
       inkscape:collect="always"
       xlink:href="#linearGradient47"
       id="linearGradient72"
       gradientUnits="userSpaceOnUse"
       gradientTransform="translate(-65.000001,-84.43934)"
       x1="104"
       y1="103.5"
       x2="104"
       y2="91.5" />
    <linearGradient
       id="linearGradient47"
       inkscape:collect="always">
      <stop
         style="stop-color:#0dcc5a;stop-opacity:1;"
         offset="0"
         id="stop46" />
      <stop
         style="stop-color:#6fd87b;stop-opacity:1;"
         offset="1"
         id="stop47" />
    </linearGradient>
    <linearGradient
       inkscape:collect="always"
       xlink:href="#linearGradient73"
       id="linearGradient46-8"
       x1="104"
       y1="103.5"
       x2="104"
       y2="91.5"
       gradientUnits="userSpaceOnUse"
       gradientTransform="translate(-65.000001,-84.43934)" />
    <linearGradient
       id="linearGradient73"
       inkscape:collect="always">
      <stop
         style="stop-color:#2ea7f9;stop-opacity:1;"
         offset="0"
         id="stop72" />
      <stop
         style="stop-color:#157fef;stop-opacity:1;"
         offset="1"
         id="stop73" />
    </linearGradient>
    <linearGradient
       inkscape:collect="always"
       xlink:href="#linearGradient2"
       id="linearGradient6"
       x1="38.507809"
       y1="27"
       x2="38.507812"
       y2="24"
       gradientUnits="userSpaceOnUse" />
  </defs>
  <sodipodi:namedview
     id="namedview8"
     pagecolor="#ffffff"
     bordercolor="#000000"
     borderopacity="0.25"
     inkscape:showpageshadow="2"
     inkscape:pageopacity="0.0"
     inkscape:pagecheckerboard="0"
     inkscape:deskcolor="#d1d1d1"
     showgrid="true"
     inkscape:zoom="64"
     inkscape:cx="14.773438"
     inkscape:cy="25.0625"
     inkscape:window-width="2560"
     inkscape:window-height="1356"
     inkscape:window-x="0"
     inkscape:window-y="0"
     inkscape:window-maximized="1"
     inkscape:current-layer="svg6">
    <inkscape:grid
       id="grid1"
       units="px"
       originx="0"
       originy="0"
       spacingx="1"
       spacingy="1"
       empcolor="#0099e5"
       empopacity="0.30196078"
       color="#0099e5"
       opacity="0.14902"
       empspacing="5"
       dotted="false"
       gridanglex="30"
       gridanglez="30"
       visible="true" />
  </sodipodi:namedview>
  <style
     type="text/css"
     id="current-color-scheme">
      .ColorScheme-Text {
        color:#31363b;
      }
      .ColorScheme-Background{
        color:#eff0f1;
      }
      .ColorScheme-ViewText {
        color:#31363b;
      }
      .ColorScheme-ViewBackground{
        color:#ffffff;
      }
      .ColorScheme-ViewHover {
        color:#000000;
      }
      .ColorScheme-ViewFocus{
        color:#5a5a5a;
      }
      .ColorScheme-ButtonText {
        color:#31363b;
      }
      .ColorScheme-ButtonBackground{
        color:#E9E8E8;
      }
      .ColorScheme-ButtonHover {
        color:#1489ff;
      }
      .ColorScheme-ButtonFocus{
        color:#2B74C7;
      }
</style>
  <g
     id="g4"
     transform="translate(-23.999999)">
    <g
       id="g20-6-2-8-9-0"
       transform="translate(-10.000001,-40.93934)">
      <path
         id="rect861-8-27-3-9-6-7-0-5-2-3-6-8-9-8-1-1-2"
         style="fill:#15151a;fill-opacity:1;stroke:none;stroke-width:2;stroke-linecap:round;stroke-linejoin:round;stroke-miterlimit:4;stroke-dasharray:none;stroke-opacity:1;paint-order:fill markers stroke"
         d="m 39,45 c -1.107999,0 -2,0.892 -2,2 v 14 c 0,1.108 0.892001,2 2,2 H 47.937501 58 c 1.107999,0 2,-0.892 2,-2 v -2 h 1 c 1.107999,0 2,-0.892 2,-2 v -6 c 0,-1.108 -0.892001,-2 -2,-2 h -1 v -2 c 0,-1.108 -0.892001,-2 -2,-2 z"
         sodipodi:nodetypes="sssscsscsssscsss" />
      <path
         id="rect2-5-4-8-2-9-3-9-7"
         style="fill:url(#linearGradient70);fill-opacity:1;stroke-width:2;stroke-linecap:round;stroke-linejoin:round;paint-order:stroke fill markers"
         d="m 39,46 c -0.553999,0 -1,0.446 -1,1 v 14 c 0,0.554 0.446001,1 1,1 h 19 c 0.553999,0 1,-0.446 1,-1 v -3 h 1.998047 C 61.553007,58 62,57.55301 62,56.99805 v -5.9961 C 62,50.44699 61.553007,50 60.998047,50 H 59 v -3 c 0,-0.554 -0.446001,-1 -1,-1 z"
         sodipodi:nodetypes="sssssscsssscsss" />
      <path
         id="rect3-62-3-9-24-3-11-6-6"
         style="fill:url(#linearGradient71);stroke-width:2;stroke-linecap:round;stroke-linejoin:round;paint-order:stroke fill markers"
         d="m 39,47 v 14 h 19 v -4 h 3 v -6 h -3 v -4 z"
         sodipodi:nodetypes="ccccccccc" />
    </g>
    <path
       id="rect13-8-6-7-6-4-1-3-8-8-1"
       style="fill:url(#linearGradient72);stroke-width:2;stroke-linecap:round;stroke-linejoin:round;paint-order:stroke fill markers"
       d="m 39.314452,10.392691 -1.482422,2.222657 a 1.0001,1.0001 0 0 1 -0.832031,0.445312 h -1.876953 l 3.517578,2.513672 1.527344,-2.970703 A 1.0001,1.0001 0 0 1 41.05664,12.06066 h 1.175781 z" />
    <path
       id="path3"
       style="fill:url(#linearGradient46-8);stroke-width:2;stroke-linecap:round;stroke-linejoin:round;paint-order:stroke fill markers"
       d="M 29.999999,7.0606602 V 19.06066 h 2 2 2 2 2 2 2 2 1 v -4 h 3 v -4 h -3 V 7.0606602 h -1 -2 -2 -2 -2 -2 -2 -2 z m 9.142578,1.009766 a 1.0001,1.0001 0 0 1 0.353516,0.121093 l 7,3.9999998 a 1.0001,1.0001 0 0 1 -0.496094,1.869141 h -4.332031 l -1.779297,3.457031 a 1.0001,1.0001 0 0 1 -1.470703,0.357422 l -7,-5 a 1.0001,1.0001 0 0 1 0.582031,-1.814453 h 4.464844 l 1.703125,-2.5546878 a 1.0001,1.0001 0 0 1 0.974609,-0.435546 z" />
    <g
       id="rect843-3-3-7-8-3"
       transform="translate(23.999999,-2.9393398)">
      <path
         style="color:#000000;fill:#ffffff;stroke-linecap:round;stroke-linejoin:round;-inkscape-stroke:none"
         d="m 22,16 -4.94255,-4e-5 L 15,20 8,15 h 5 l 2,-3 z"
         id="path2" />
    </g>
    <path
       id="rect3"
       style="fill:#15151a;fill-opacity:1;stroke:none;stroke-width:2;stroke-linecap:round;stroke-linejoin:round;paint-order:stroke fill markers"
       d="M 31.5,23 C 30.115001,23 29,24.115001 29,25.5 29,26.884999 30.115001,28 31.5,28 32.884999,28 34,26.884999 34,25.5 34,24.115001 32.884999,23 31.5,23 Z m 7,0 C 37.115001,23 36,24.115001 36,25.5 36,26.884999 37.115001,28 38.5,28 39.884999,28 41,26.884999 41,25.5 41,24.115001 39.884999,23 38.5,23 Z m 7,0 C 44.115001,23 43,24.115001 43,25.5 43,26.884999 44.115001,28 45.5,28 46.884999,28 48,26.884999 48,25.5 48,24.115001 46.884999,23 45.5,23 Z" />
    <path
       id="rect4"
       style="fill:url(#linearGradient6);fill-opacity:1;stroke:none;stroke-width:2.00523;stroke-linecap:round;stroke-linejoin:round;paint-order:stroke fill markers"
       d="M 31.492188,24 C 30.665516,24 30,24.665516 30,25.492188 v 0.01562 C 30,26.334484 30.665516,27 31.492188,27 h 0.01562 C 32.334484,27 33,26.334484 33,25.507812 v -0.01562 C 33,24.665516 32.334484,24 31.507812,24 Z m 7,0 C 37.665516,24 37,24.665516 37,25.492188 v 0.01562 C 37,26.334484 37.665516,27 38.492188,27 h 0.01562 C 39.334484,27 40,26.334484 40,25.507812 v -0.01562 C 40,24.665516 39.334484,24 38.507812,24 Z m 7,0 C 44.665516,24 44,24.665516 44,25.492188 v 0.01562 C 44,26.334484 44.665516,27 45.492188,27 h 0.01562 C 46.334484,27 47,26.334484 47,25.507812 v -0.01562 C 47,24.665516 46.334484,24 45.507812,24 Z" />
  </g>
</svg>
