<?xml version="1.0" encoding="UTF-8" standalone="no"?>
<svg
   height="32"
   width="32"
   version="1.1"
   id="svg2"
   sodipodi:docname="battery-090-charging.svg"
   inkscape:version="1.3.2 (091e20ef0f, 2023-11-25, custom)"
   xmlns:inkscape="http://www.inkscape.org/namespaces/inkscape"
   xmlns:sodipodi="http://sodipodi.sourceforge.net/DTD/sodipodi-0.dtd"
   xmlns:xlink="http://www.w3.org/1999/xlink"
   xmlns="http://www.w3.org/2000/svg"
   xmlns:svg="http://www.w3.org/2000/svg">
  <defs
     id="defs2">
    <linearGradient
       inkscape:collect="always"
       xlink:href="#linearGradient1"
       id="linearGradient60"
       gradientUnits="userSpaceOnUse"
       gradientTransform="translate(2,32.5)"
       x1="52"
       y1="29"
       x2="51"
       y2="14" />
    <linearGradient
       id="linearGradient1"
       inkscape:collect="always">
      <stop
         style="stop-color:#252a34;stop-opacity:1;"
         offset="0"
         id="stop1" />
      <stop
         style="stop-color:#353d4b;stop-opacity:1;"
         offset="1"
         id="stop2" />
    </linearGradient>
    <linearGradient
       inkscape:collect="always"
       xlink:href="#linearGradient3"
       id="linearGradient61"
       gradientUnits="userSpaceOnUse"
       gradientTransform="translate(2,32.5)"
       x1="51"
       y1="27"
       x2="51"
       y2="15" />
    <linearGradient
       id="linearGradient3"
       inkscape:collect="always">
      <stop
         style="stop-color:#454545;stop-opacity:1;"
         offset="0"
         id="stop3" />
      <stop
         style="stop-color:#202020;stop-opacity:1;"
         offset="1"
         id="stop4" />
    </linearGradient>
    <linearGradient
       inkscape:collect="always"
       xlink:href="#linearGradient41"
       id="linearGradient45"
       x1="75"
       y1="103.5"
       x2="75"
       y2="91.5"
       gradientUnits="userSpaceOnUse"
       gradientTransform="translate(-29,-52.5)" />
    <linearGradient
       id="linearGradient41"
       inkscape:collect="always">
      <stop
         style="stop-color:#18cd5e;stop-opacity:1;"
         offset="0"
         id="stop41" />
      <stop
         style="stop-color:#6fd87b;stop-opacity:1;"
         offset="1"
         id="stop42" />
    </linearGradient>
  </defs>
  <sodipodi:namedview
     id="namedview2"
     pagecolor="#ffffff"
     bordercolor="#000000"
     borderopacity="0.25"
     inkscape:showpageshadow="2"
     inkscape:pageopacity="0.0"
     inkscape:pagecheckerboard="0"
     inkscape:deskcolor="#d1d1d1"
     inkscape:zoom="25.455844"
     inkscape:cx="14.633182"
     inkscape:cy="15.399214"
     inkscape:window-width="2560"
     inkscape:window-height="1356"
     inkscape:window-x="0"
     inkscape:window-y="0"
     inkscape:window-maximized="1"
     inkscape:current-layer="svg2" />
  <style
     type="text/css"
     id="current-color-scheme">
        .ColorScheme-PositiveText {
            color:#27ae60;
        }
        .ColorScheme-NegativeText {
            color:#da4453;
        }
    </style>
  <g
     id="g1"
     transform="translate(-32,-29)">
    <g
       id="g20-6-2-8"
       transform="translate(-2,-9)">
      <path
         id="rect861-8-27-3-9-6-7-0-5-2-3-6-8-9-8-1"
         style="fill:#15151a;fill-opacity:1;stroke:none;stroke-width:2;stroke-linecap:round;stroke-linejoin:round;stroke-miterlimit:4;stroke-dasharray:none;stroke-opacity:1;paint-order:fill markers stroke"
         d="m 39,45 c -1.107999,0 -2,0.892 -2,2 v 14 c 0,1.108 0.892001,2 2,2 h 19 c 1.107999,0 2,-0.892 2,-2 v -2 h 1 c 1.107999,0 2,-0.892 2,-2 v -6 c 0,-1.108 -0.892001,-2 -2,-2 h -1 v -2 c 0,-1.108 -0.892001,-2 -2,-2 z"
         sodipodi:nodetypes="sssssscsssscsss" />
      <path
         id="rect2-5-4-8-2-9-3"
         style="fill:url(#linearGradient60);fill-opacity:1;stroke-width:2;stroke-linecap:round;stroke-linejoin:round;paint-order:stroke fill markers"
         d="m 39,46 c -0.553999,0 -1,0.446 -1,1 v 14 c 0,0.554 0.446001,1 1,1 h 19 c 0.553999,0 1,-0.446 1,-1 v -3 h 1.998047 C 61.553007,58 62,57.55301 62,56.99805 v -5.9961 C 62,50.44699 61.553007,50 60.998047,50 H 59 v -3 c 0,-0.554 -0.446001,-1 -1,-1 z"
         sodipodi:nodetypes="sssssscsssscsss" />
      <path
         id="rect3-62-3-9-24-3-11"
         style="fill:url(#linearGradient61);stroke-width:2;stroke-linecap:round;stroke-linejoin:round;paint-order:stroke fill markers"
         d="m 39,47 v 14 h 19 v -4 h 3 v -6 h -3 v -4 z"
         sodipodi:nodetypes="ccccccccc" />
    </g>
    <path
       id="rect13-8-6-7-6-4-1-3-43"
       style="fill:url(#linearGradient45);stroke-width:2;stroke-linecap:round;stroke-linejoin:round;paint-order:stroke fill markers"
       d="M 47.314453 42.332031 L 45.832031 44.554688 A 1.0001 1.0001 0 0 1 45 45 L 43.123047 45 L 46.640625 47.513672 L 48.167969 44.542969 A 1.0001 1.0001 0 0 1 49.056641 44 L 50.232422 44 L 47.314453 42.332031 z " />
    <path
       id="path3"
       style="fill:url(#linearGradient45);stroke-width:2;stroke-linecap:round;stroke-linejoin:round;paint-order:stroke fill markers"
       d="M 38 39 L 38 51 L 40 51 L 42 51 L 44 51 L 46 51 L 48 51 L 50 51 L 52 51 L 54 51 L 55 51 L 55 47 L 56 47 L 56 43 L 55 43 L 55 39 L 54 39 L 52 39 L 50 39 L 48 39 L 46 39 L 44 39 L 42 39 L 40 39 L 38 39 z M 47.142578 40.009766 A 1.0001 1.0001 0 0 1 47.496094 40.130859 L 54.496094 44.130859 A 1.0001 1.0001 0 0 1 54 46 L 49.667969 46 L 47.888672 49.457031 A 1.0001 1.0001 0 0 1 46.417969 49.814453 L 39.417969 44.814453 A 1.0001 1.0001 0 0 1 40 43 L 44.464844 43 L 46.167969 40.445312 A 1.0001 1.0001 0 0 1 47.142578 40.009766 z " />
  </g>
  <g
     id="rect843-3-3-7-8">
    <path
       style="color:#000000;fill:#ffffff;stroke-linecap:round;stroke-linejoin:round;-inkscape-stroke:none"
       d="m 22,16 -4.94255,-4e-5 L 15,20 8,15 h 5 l 2,-3 z"
       id="path2" />
  </g>
</svg>
