<?xml version="1.0" encoding="UTF-8" standalone="no"?>
<!-- Created with Inkscape (http://www.inkscape.org/) -->

<svg
   width="32"
   height="32"
   viewBox="0 0 32 32"
   version="1.1"
   id="svg8"
   inkscape:version="1.3.2 (091e20ef0f, 2023-11-25, custom)"
   sodipodi:docname="rotation-locked-landscape.svg"
   xml:space="preserve"
   xmlns:inkscape="http://www.inkscape.org/namespaces/inkscape"
   xmlns:sodipodi="http://sodipodi.sourceforge.net/DTD/sodipodi-0.dtd"
   xmlns:xlink="http://www.w3.org/1999/xlink"
   xmlns="http://www.w3.org/2000/svg"
   xmlns:svg="http://www.w3.org/2000/svg"
   xmlns:rdf="http://www.w3.org/1999/02/22-rdf-syntax-ns#"
   xmlns:cc="http://creativecommons.org/ns#"
   xmlns:dc="http://purl.org/dc/elements/1.1/"><title
     id="title7895">Antu icon Theme</title><defs
     id="defs2"><style
       id="current-color-scheme"
       type="text/css">
      .ColorScheme-Text {
        color:#122036;
      }
      </style><style
       id="current-color-scheme-1"
       type="text/css">
      .ColorScheme-Text {
        color:#122036;
      }
      </style><style
       type="text/css"
       id="current-color-scheme-10">
      .ColorScheme-Text {
        color:#122036;
      }
      </style><style
       id="current-color-scheme-3"
       type="text/css">
      .ColorScheme-Text {
        color:#122036;
      }
      </style><style
       id="current-color-scheme-1-6"
       type="text/css">
      .ColorScheme-Text {
        color:#122036;
      }
      </style><style
       type="text/css"
       id="current-color-scheme-10-7">
      .ColorScheme-Text {
        color:#122036;
      }
      </style><style
       id="current-color-scheme-6"
       type="text/css">
      .ColorScheme-Text {
        color:#122036;
      }
      </style><linearGradient
       id="linearGradient4506"
       inkscape:collect="always"><stop
         id="stop4502"
         offset="0"
         style="stop-color:#252a34;stop-opacity:1" /><stop
         id="stop4504"
         offset="1"
         style="stop-color:#353d4b;stop-opacity:1" /></linearGradient><style
       id="current-color-scheme-2"
       type="text/css">
      .ColorScheme-Text {
        color:#122036;
      }
      </style><linearGradient
       id="linearGradient4622"
       inkscape:collect="always"><stop
         id="stop4618"
         offset="0"
         style="stop-color:#33acfa;stop-opacity:1;" /><stop
         id="stop4620"
         offset="1"
         style="stop-color:#0d72ec;stop-opacity:1;" /></linearGradient><style
       id="current-color-scheme-0"
       type="text/css">
      .ColorScheme-Text {
        color:#122036;
      }
      </style><linearGradient
       inkscape:collect="always"
       xlink:href="#linearGradient4622"
       id="linearGradient934"
       x1="-60"
       y1="305.64999"
       x2="-42"
       y2="305.64999"
       gradientUnits="userSpaceOnUse"
       gradientTransform="rotate(-90,-51,306.64999)" /><linearGradient
       inkscape:collect="always"
       xlink:href="#linearGradient4506"
       id="linearGradient947"
       x1="-63.472221"
       y1="305.64999"
       x2="-39.666668"
       y2="305.64999"
       gradientUnits="userSpaceOnUse"
       gradientTransform="rotate(-90,-51,306.64999)" /><style
       type="text/css"
       id="current-color-scheme-70">
      .ColorScheme-Text {
        color:#122036;
      }
      </style><style
       type="text/css"
       id="current-color-scheme-1-67">
      .ColorScheme-Text {
        color:#122036;
      }
      </style><style
       id="current-color-scheme-10-5"
       type="text/css">
      .ColorScheme-Text {
        color:#122036;
      }
      </style><style
       type="text/css"
       id="current-color-scheme-6-9">
      .ColorScheme-Text {
        color:#122036;
      }
      </style><style
       type="text/css"
       id="current-color-scheme-7">
      .ColorScheme-Text {
        color:#122036;
      }
      </style><style
       type="text/css"
       id="current-color-scheme-5">
      .ColorScheme-Text {
        color:#122036;
      }
      </style><style
       type="text/css"
       id="current-color-scheme-06">
      .ColorScheme-Text {
        color:#122036;
      }
      </style><style
       type="text/css"
       id="current-color-scheme-61">
      .ColorScheme-Text {
        color:#122036;
      }
      </style><linearGradient
       inkscape:collect="always"
       xlink:href="#linearGradient825"
       id="linearGradient866"
       x1="26.508476"
       y1="16.254236"
       x2="26"
       y2="2.762711"
       gradientUnits="userSpaceOnUse"
       gradientTransform="matrix(0.85714286,0,0,0.85714286,-13.503633,0.64648942)" /><style
       id="current-color-scheme-5-8"
       type="text/css">
      .ColorScheme-Text {
        color:#122036;
      }
      </style><linearGradient
       id="linearGradient825"
       inkscape:collect="always"><stop
         id="stop821"
         offset="0"
         style="stop-color:#868989;stop-opacity:1;" /><stop
         id="stop823"
         offset="1"
         style="stop-color:#a0a9ac;stop-opacity:1;" /></linearGradient><style
       id="current-color-scheme-2-7"
       type="text/css">
      .ColorScheme-Text {
        color:#122036;
      }
      </style><style
       id="current-color-scheme-1-9"
       type="text/css">
      .ColorScheme-Text {
        color:#122036;
      }
      </style><style
       type="text/css"
       id="current-color-scheme-10-2">
      .ColorScheme-Text {
        color:#122036;
      }
      </style><style
       type="text/css"
       id="current-color-scheme-23">
      .ColorScheme-Text {
        color:#122036;
      }
      </style><style
       id="current-color-scheme-9"
       type="text/css">
      .ColorScheme-Text {
        color:#122036;
      }
      </style><style
       id="current-color-scheme-7-7"
       type="text/css">
      .ColorScheme-Text {
        color:#122036;
      }
      </style><style
       id="current-color-scheme-5-5"
       type="text/css">
      .ColorScheme-Text {
        color:#122036;
      }
      </style></defs><sodipodi:namedview
     id="base"
     pagecolor="#ffffff"
     bordercolor="#666666"
     borderopacity="1.0"
     inkscape:pageopacity="0.0"
     inkscape:pageshadow="2"
     inkscape:zoom="22.627418"
     inkscape:cx="8.3747956"
     inkscape:cy="18.694135"
     inkscape:document-units="px"
     inkscape:current-layer="g6468"
     showgrid="true"
     units="px"
     inkscape:window-width="2560"
     inkscape:window-height="1356"
     inkscape:window-x="0"
     inkscape:window-y="0"
     inkscape:window-maximized="1"
     objecttolerance="10"
     gridtolerance="10"
     guidetolerance="10"
     inkscape:snap-bbox="true"
     inkscape:bbox-nodes="true"
     inkscape:showpageshadow="false"
     inkscape:bbox-paths="true"
     inkscape:snap-bbox-edge-midpoints="true"
     inkscape:snap-bbox-midpoints="true"
     inkscape:object-paths="true"
     inkscape:snap-intersection-paths="true"
     inkscape:object-nodes="true"
     inkscape:snap-smooth-nodes="false"
     inkscape:snap-midpoints="false"
     showborder="false"
     inkscape:pagecheckerboard="0"
     inkscape:deskcolor="#d1d1d1"><inkscape:grid
       type="xygrid"
       id="grid7897"
       empspacing="4"
       originx="0"
       originy="0"
       spacingy="1"
       spacingx="1"
       units="px"
       visible="true" /></sodipodi:namedview><metadata
     id="metadata5"><rdf:RDF><cc:Work
         rdf:about=""><dc:format>image/svg+xml</dc:format><dc:type
           rdf:resource="http://purl.org/dc/dcmitype/StillImage" /><dc:title>Antu icon Theme</dc:title></cc:Work></rdf:RDF></metadata><g
     inkscape:label="Capa 1"
     inkscape:groupmode="layer"
     id="layer1"
     transform="translate(0,-282.64999)"><g
       id="g6468"
       transform="translate(22,-8)"><g
         id="g1"
         transform="translate(-22,290.64999)"><g
           transform="translate(67,-290.64999)"
           id="g1196"><path
             style="opacity:1;vector-effect:none;fill:#15151a;fill-opacity:1;stroke:none;stroke-width:2;stroke-linecap:round;stroke-linejoin:round;stroke-miterlimit:4;stroke-dasharray:none;stroke-dashoffset:0;stroke-opacity:1;paint-order:normal"
             d="m -66,316.64999 v -20 c 0,-1.662 1.338,-3 3,-3 h 24 c 1.662,0 3,1.338 3,3 v 20 c 0,1.662 -1.338,3 -3,3 h -24 c -1.662,0 -3,-1.338 -3,-3 z"
             id="rect831"
             inkscape:connector-curvature="0"
             sodipodi:nodetypes="sssssssss" /><path
             style="opacity:1;vector-effect:none;fill:url(#linearGradient947);fill-opacity:1;stroke:none;stroke-width:2;stroke-linecap:round;stroke-linejoin:round;stroke-miterlimit:4;stroke-dasharray:none;stroke-dashoffset:0;stroke-opacity:1;paint-order:normal"
             d="m -65,316.64999 v -20 c 0,-1.108 0.892,-2 2,-2 h 24 c 1.108,0 2,0.892 2,2 v 20 c 0,1.108 -0.892,2 -2,2 h -24 c -1.108,0 -2,-0.892 -2,-2 z"
             id="rect842"
             inkscape:connector-curvature="0"
             sodipodi:nodetypes="sssssssss" /><path
             style="opacity:1;vector-effect:none;fill:#15151a;fill-opacity:1;stroke:none;stroke-width:2;stroke-linecap:round;stroke-linejoin:round;stroke-miterlimit:4;stroke-dasharray:none;stroke-dashoffset:0;stroke-opacity:1;paint-order:normal"
             d="m -64,316.64999 v -20 c 0,-0.554 0.446,-1 1,-1 h 24 c 0.554,0 1,0.446 1,1 v 20 c 0,0.554 -0.446,1 -1,1 h -24 c -0.554,0 -1,-0.446 -1,-1 z"
             id="rect844"
             inkscape:connector-curvature="0"
             sodipodi:nodetypes="sssssssss" /><path
             style="opacity:1;vector-effect:none;fill:url(#linearGradient934);fill-opacity:1;stroke:none;stroke-width:2;stroke-linecap:round;stroke-linejoin:round;stroke-miterlimit:4;stroke-dasharray:none;stroke-dashoffset:0;stroke-opacity:1;paint-order:normal"
             d="m -63,316.64999 v -20 h 24 v 20 z"
             id="rect846"
             inkscape:connector-curvature="0"
             sodipodi:nodetypes="ccccc" /><rect
             style="opacity:1;vector-effect:none;fill:#15151a;fill-opacity:1;stroke:none;stroke-width:2;stroke-linecap:round;stroke-linejoin:round;stroke-miterlimit:4;stroke-dasharray:none;stroke-dashoffset:0;stroke-opacity:1;paint-order:normal"
             id="rect848"
             width="10"
             height="1.0000039"
             x="-56"
             y="316.64999"
             ry="0.50000197" /></g><path
           id="rect2-9"
           style="fill:#0f74ed;fill-opacity:1;stroke-width:4;stroke-linecap:round;stroke-linejoin:round;paint-order:stroke fill markers"
           d="M 8,9 C 7.446102,9 7,9.446102 7,10 v 6 c 0,0.553898 0.446102,1 1,1 h 6 c 0.553898,0 1,-0.446102 1,-1 V 10 C 15,9.446102 14.553898,9 14,9 Z m 8.992188,0 v 3 H 20 V 9 Z M 22,9 v 3 h 3.007812 V 9 Z m -5,5 v 3 h 3 v -3 z m 5.007812,0 v 3 h 3 V 14 Z M 7,19 v 3 h 3 v -3 z m 5.007812,0 v 3 h 3 v -3 z m 4.984376,0 v 3 h 3 V 19 Z M 22,19 v 3 h 3 v -3 z" /><path
           id="rect2"
           style="fill:#ddf1fe;fill-opacity:1;stroke-width:4;stroke-linecap:round;stroke-linejoin:round;paint-order:stroke fill markers"
           d="M 8,8 C 7.4461016,8 7,8.4461016 7,9 v 6 c 0,0.553898 0.4461016,1 1,1 h 6 c 0.553898,0 1,-0.446102 1,-1 V 9 C 15,8.4461016 14.553898,8 14,8 Z m 8.992188,0 v 3 H 20 V 8 Z M 22,8 v 3 h 3.007812 V 8 Z m -5,5 v 3 h 3 v -3 z m 5.007812,0 v 3 h 3 V 13 Z M 7,18 v 3 h 3 v -3 z m 5.007812,0 v 3 h 3 v -3 z m 4.984376,0 v 3 h 3 V 18 Z M 22,18 v 3 h 3 v -3 z" /><rect
           style="vector-effect:none;fill:#15151a;fill-opacity:1;stroke:none;stroke-width:2;stroke-linecap:round;stroke-linejoin:round;stroke-miterlimit:4;stroke-dasharray:none;stroke-dashoffset:0;stroke-opacity:1;paint-order:normal"
           id="rect848-7"
           width="10"
           height="1.0000039"
           x="11"
           y="24"
           ry="0.50000197" /><g
           id="g4"
           transform="translate(16,16)"><path
             style="opacity:1;vector-effect:none;fill:#717373;fill-opacity:1;stroke:none;stroke-width:1.73923;stroke-linecap:round;stroke-linejoin:round;stroke-miterlimit:4;stroke-dasharray:none;stroke-dashoffset:0;stroke-opacity:1"
             d="m 9,2 c 3.878,0 7,3.122 7,7 0,3.878 -3.122,7 -7,7 C 5.122,16 2,12.878 2,9 2,5.122 5.122,2 9,2 Z"
             id="rect843" /><path
             style="opacity:1;vector-effect:none;fill:url(#linearGradient866);fill-opacity:1;stroke:none;stroke-width:1.49077;stroke-linecap:round;stroke-linejoin:round;stroke-miterlimit:4;stroke-dasharray:none;stroke-dashoffset:0;stroke-opacity:1"
             d="m 9,3 c 3.324,0 6,2.676 6,6 0,3.324 -2.676,6 -6,6 C 5.676,15 3,12.324 3,9 3,5.676 5.676,3 9,3 Z"
             id="rect843-6" /></g><g
           id="g5"
           transform="translate(37.451253,13.134636)"><path
             id="rect11493-6-3"
             style="fill:#717373;fill-opacity:1;stroke:none;stroke-width:1;stroke-linecap:round;stroke-linejoin:round;stroke-miterlimit:1.8;stroke-dasharray:none;stroke-opacity:1;paint-order:fill markers stroke;stop-color:#000000"
             d="m -12.451253,8.8653678 c -1.108,0 -2,0.892 -2,2.0000002 v 0.94727 c -0.554,0 -1,0.446 -1,1 v 3.05273 c 0,0.554 0.446,1 1,1 h 4 c 0.554,0 1,-0.446 1,-1 v -3.05273 c 0,-0.554 -0.446,-1 -1,-1 v -0.94727 c 0,-1.1080002 -0.892,-2.0000002 -2,-2.0000002 z m 0,1 c 0.554,0 1,0.4460002 1,1.0000002 v 0.94727 h -2 v -0.94727 c 0,-0.554 0.446,-1.0000002 1,-1.0000002 z" /><path
             id="rect11493-6"
             style="fill:#f6f6f6;fill-opacity:1;stroke:none;stroke-width:1;stroke-linecap:round;stroke-linejoin:round;stroke-miterlimit:1.8;stroke-dasharray:none;stroke-opacity:1;paint-order:fill markers stroke;stop-color:#000000"
             d="m -12.451253,7.865364 c -1.108,0 -2,0.892 -2,2 v 0.94727 c -0.554,0 -1,0.446 -1,1 v 3.05273 c 0,0.554 0.446,1 1,1 h 4 c 0.554,0 1,-0.446 1,-1 v -3.05273 c 0,-0.554 -0.446,-1 -1,-1 v -0.94727 c 0,-1.108 -0.892,-2 -2,-2 z m 0,1 c 0.554,0 1,0.446 1,1 v 0.94727 h -2 v -0.94727 c 0,-0.554 0.446,-1 1,-1 z" /></g></g></g></g><style
     type="text/css"
     id="current-color-scheme-35">
        .ColorScheme-Text {
            color:#232629;
        }
    </style><style
     id="current-color-scheme-3-6"
     type="text/css">.ColorScheme-Highlight {
    color:#3daee9;
}
.ColorScheme-Text {
    color:#232629;
}</style></svg>
