<?xml version="1.0" encoding="UTF-8" standalone="no"?>
<svg
   version="1.1"
   viewBox="0 0 32 32"
   id="svg1"
   sodipodi:docname="smartphonetrusted.svg"
   xml:space="preserve"
   inkscape:version="1.3.2 (091e20ef0f, 2023-11-25, custom)"
   xmlns:inkscape="http://www.inkscape.org/namespaces/inkscape"
   xmlns:sodipodi="http://sodipodi.sourceforge.net/DTD/sodipodi-0.dtd"
   xmlns:xlink="http://www.w3.org/1999/xlink"
   xmlns="http://www.w3.org/2000/svg"
   xmlns:svg="http://www.w3.org/2000/svg"><defs
     id="defs1"><linearGradient
       inkscape:collect="always"
       xlink:href="#linearGradient4506"
       id="linearGradient1186"
       x1="-51"
       y1="320.64999"
       x2="-51"
       y2="291.64999"
       gradientUnits="userSpaceOnUse" /><linearGradient
       inkscape:collect="always"
       id="linearGradient4506"><stop
         style="stop-color:#252a34;stop-opacity:1"
         offset="0"
         id="stop4502" /><stop
         style="stop-color:#353d4b;stop-opacity:1"
         offset="1"
         id="stop4504" /></linearGradient><linearGradient
       id="linearGradient1962"
       inkscape:collect="always"><stop
         id="stop1958"
         offset="0"
         style="stop-color:#33acfa;stop-opacity:1" /><stop
         id="stop1960"
         offset="1"
         style="stop-color:#0d72ec;stop-opacity:1" /></linearGradient><linearGradient
       inkscape:collect="always"
       xlink:href="#linearGradient1962"
       id="linearGradient893"
       x1="-51"
       y1="318.64999"
       x2="-51"
       y2="294.64999"
       gradientUnits="userSpaceOnUse" /><style
       id="current-color-scheme-9"
       type="text/css">
      .ColorScheme-Text {
        color:#122036;
      }
      </style><style
       id="current-color-scheme-7"
       type="text/css">
      .ColorScheme-Text {
        color:#122036;
      }
      </style><style
       id="current-color-scheme-5"
       type="text/css">
      .ColorScheme-Text {
        color:#122036;
      }
      </style></defs><sodipodi:namedview
     id="namedview1"
     pagecolor="#ffffff"
     bordercolor="#000000"
     borderopacity="0.25"
     inkscape:showpageshadow="2"
     inkscape:pageopacity="0.0"
     inkscape:pagecheckerboard="0"
     inkscape:deskcolor="#d1d1d1"
     showgrid="true"
     inkscape:zoom="2.25"
     inkscape:cx="-98"
     inkscape:cy="-63.111111"
     inkscape:window-width="2560"
     inkscape:window-height="1356"
     inkscape:window-x="0"
     inkscape:window-y="0"
     inkscape:window-maximized="1"
     inkscape:current-layer="g1196"><inkscape:grid
       id="grid1"
       units="px"
       originx="0"
       originy="0"
       spacingx="1"
       spacingy="1"
       empcolor="#0099e5"
       empopacity="0.30196078"
       color="#0099e5"
       opacity="0.14901961"
       empspacing="5"
       dotted="false"
       gridanglex="30"
       gridanglez="30"
       visible="true" /></sodipodi:namedview><style
     id="current-color-scheme"
     type="text/css">.ColorScheme-Highlight {
    color:#3daee9;
}
.ColorScheme-Text {
    color:#232629;
}</style><g
     transform="translate(67,-290.64999)"
     id="g1196"><rect
       style="fill:url(#linearGradient1186);fill-opacity:1;stroke:none;stroke-width:0.8;stroke-linecap:round;stroke-linejoin:round;stroke-miterlimit:4;stroke-dasharray:none;stroke-opacity:1"
       id="rect837-3-6"
       width="20"
       height="29.999996"
       x="-61"
       y="291.64999"
       ry="2.9999962" /><path
       style="opacity:1;vector-effect:none;fill:url(#linearGradient893);fill-opacity:1;stroke:none;stroke-width:2;stroke-linecap:round;stroke-linejoin:round;stroke-miterlimit:4;stroke-dasharray:none;stroke-dashoffset:0;stroke-opacity:1"
       d="m -58,293.64999 h 14 c 0.554,0 1,0.446 1,1 v 24 c 0,0.554 -0.446,1 -1,1 h -14 c -0.554,0 -1,-0.446 -1,-1 v -24 c 0,-0.554 0.446,-1 1,-1 z"
       id="rect834" /><path
       style="fill:#15151a;fill-opacity:1;stroke:none;stroke-width:0.8;stroke-linecap:round;stroke-linejoin:round;stroke-miterlimit:4;stroke-dasharray:none;stroke-opacity:0"
       d="M 9,1 C 7.338002,1 6,2.338 6,4 v 24 c 0,1.662 1.338002,3 3,3 h 14 c 1.661998,0 3,-1.338 3,-3 V 4 C 26,2.338 24.661998,1 23,1 h -1.96875 -10.0625 z m 0,1 h 1 12 1 c 1.107998,0 2,0.892 2,2 v 24 c 0,1.108 -0.892002,2 -2,2 H 9 C 7.892002,30 7,29.108 7,28 V 4 C 7,2.892 7.897501,1.88975 9,2 Z"
       transform="translate(-67,290.64999)"
       id="rect835-7"
       inkscape:connector-curvature="0"
       sodipodi:nodetypes="ssssssssccscccsssssssc" /><path
       id="rect995-3"
       d="m -54.500002,317.64987 h 7.000004 c 0.276999,0 0.499998,0.223 0.499998,0.5 0,0.277 -0.222999,0.5 -0.499998,0.5 h -7.000004 c -0.276999,0 -0.499998,-0.223 -0.499998,-0.5 0,-0.277 0.222999,-0.5 0.499998,-0.5 z"
       style="fill:#15151a;fill-opacity:1;stroke:none;stroke-width:0.8;stroke-linecap:round;stroke-linejoin:round;stroke-miterlimit:4;stroke-dasharray:none;stroke-opacity:1"
       inkscape:connector-curvature="0" /><path
       id="rect1"
       style="fill:#15151a;fill-opacity:1;stroke:none;stroke-width:4;stroke-linecap:round;stroke-linejoin:round;paint-order:stroke fill markers"
       d="m -54,294.64999 c -0.553999,0 -1,0.446 -1,1 0,0.554 0.446001,1 1,1 0.553999,0 1,-0.446 1,-1 0,-0.554 -0.446001,-1 -1,-1 z m 3,0 c -0.553999,0 -1,0.446 -1,1 0,0.554 0.446001,1 1,1 h 3 c 0.553999,0 1,-0.446 1,-1 0,-0.554 -0.446001,-1 -1,-1 z"
       sodipodi:nodetypes="ssssssssssss" /><path
       id="rect2-9"
       style="fill:#0f74ed;fill-opacity:1;stroke:none;stroke-width:2.66667;stroke-linecap:round;stroke-linejoin:round;stroke-opacity:1;paint-order:stroke fill markers"
       d="m -51,300.64999 c -2.215998,0 -4,1.784 -4,4 v 1 c -0.553999,0 -1,0.446 -1,1 v 6 c 0,0.554 0.446001,1 1,1 h 8 c 0.553999,0 1,-0.446 1,-1 v -6 c 0,-0.554 -0.446001,-1 -1,-1 v -1 c 0,-2.216 -1.784002,-4 -4,-4 z m 0,2 c 1.107999,0 2,0.892 2,2 v 1 h -4 v -1 c 0,-1.108 0.892001,-2 2,-2 z m 0,4 c 1.107999,0 2,0.892 2,2 0,0.74107 -0.404201,1.37905 -1,1.72461 v 2.27539 h -2 v -2.27539 c -0.595799,-0.34556 -1,-0.98354 -1,-1.72461 0,-1.108 0.892001,-2 2,-2 z m -7,9 v 2 h 2 v -2 z m 3,0 v 2 h 2 v -2 z m 3,0 v 2 h 2 v -2 z m 3,0 v 2 h 2 v -2 z m 3,0 v 2 h 2 v -2 z" /><path
       id="rect2"
       style="fill:#ddf1fe;fill-opacity:1;stroke:none;stroke-width:2.66667;stroke-linecap:round;stroke-linejoin:round;stroke-opacity:1;paint-order:stroke fill markers"
       d="M -51 299.64999 C -53.215998 299.64999 -55 301.43399 -55 303.64999 L -55 304.64999 C -55.553999 304.64999 -56 305.09599 -56 305.64999 L -56 311.64999 C -56 312.20399 -55.553999 312.64999 -55 312.64999 L -47 312.64999 C -46.446001 312.64999 -46 312.20399 -46 311.64999 L -46 305.64999 C -46 305.09599 -46.446001 304.64999 -47 304.64999 L -47 303.64999 C -47 301.43399 -48.784002 299.64999 -51 299.64999 z M -51 301.64999 C -49.892001 301.64999 -49 302.54199 -49 303.64999 L -49 304.64999 L -53 304.64999 L -53 303.64999 C -53 302.54199 -52.107999 301.64999 -51 301.64999 z M -51 305.64999 C -49.892001 305.64999 -49 306.54199 -49 307.64999 C -49 308.39106 -49.404201 309.02904 -50 309.3746 L -50 311.64999 L -52 311.64999 L -52 309.3746 C -52.595799 309.02904 -53 308.39106 -53 307.64999 C -53 306.54199 -52.107999 305.64999 -51 305.64999 z M -58 314.64999 L -58 316.64999 L -56 316.64999 L -56 314.64999 L -58 314.64999 z M -55 314.64999 L -55 316.64999 L -53 316.64999 L -53 314.64999 L -55 314.64999 z M -52 314.64999 L -52 316.64999 L -50 316.64999 L -50 314.64999 L -52 314.64999 z M -49 314.64999 L -49 316.64999 L -47 316.64999 L -47 314.64999 L -49 314.64999 z M -46 314.64999 L -46 316.64999 L -44 316.64999 L -44 314.64999 L -46 314.64999 z " /><g
       id="g949"
       transform="translate(96,-59)" /></g></svg>
