<?xml version="1.0" encoding="UTF-8" standalone="no"?>
<svg
   version="1.1"
   viewBox="0 0 32 32"
   id="svg1"
   sodipodi:docname="smartphonedisconnected.svg"
   xml:space="preserve"
   inkscape:version="1.3.2 (091e20ef0f, 2023-11-25, custom)"
   xmlns:inkscape="http://www.inkscape.org/namespaces/inkscape"
   xmlns:sodipodi="http://sodipodi.sourceforge.net/DTD/sodipodi-0.dtd"
   xmlns:xlink="http://www.w3.org/1999/xlink"
   xmlns="http://www.w3.org/2000/svg"
   xmlns:svg="http://www.w3.org/2000/svg"><defs
     id="defs1"><linearGradient
       inkscape:collect="always"
       xlink:href="#linearGradient4506"
       id="linearGradient1186"
       x1="-51"
       y1="320.64999"
       x2="-51"
       y2="291.64999"
       gradientUnits="userSpaceOnUse" /><linearGradient
       inkscape:collect="always"
       id="linearGradient4506"><stop
         style="stop-color:#252a34;stop-opacity:1"
         offset="0"
         id="stop4502" /><stop
         style="stop-color:#353d4b;stop-opacity:1"
         offset="1"
         id="stop4504" /></linearGradient><linearGradient
       id="linearGradient1962"
       inkscape:collect="always"><stop
         id="stop1958"
         offset="0"
         style="stop-color:#f7687d;stop-opacity:1;" /><stop
         id="stop1960"
         offset="1"
         style="stop-color:#fb3753;stop-opacity:1;" /></linearGradient><linearGradient
       inkscape:collect="always"
       xlink:href="#linearGradient1962"
       id="linearGradient893"
       x1="-51"
       y1="318.64999"
       x2="-51"
       y2="294.64999"
       gradientUnits="userSpaceOnUse" /><style
       id="current-color-scheme-9"
       type="text/css">
      .ColorScheme-Text {
        color:#122036;
      }
      </style><style
       id="current-color-scheme-7"
       type="text/css">
      .ColorScheme-Text {
        color:#122036;
      }
      </style><style
       id="current-color-scheme-5"
       type="text/css">
      .ColorScheme-Text {
        color:#122036;
      }
      </style><style
       id="current-color-scheme-3"
       type="text/css">
      .ColorScheme-Text {
        color:#122036;
      }
      </style><style
       id="current-color-scheme-6"
       type="text/css">
      .ColorScheme-Text {
        color:#122036;
      }
      </style><style
       type="text/css"
       id="current-color-scheme-67">
      .ColorScheme-Text {
        color:#36404d;
      }
      </style><style
       id="current-color-scheme-0"
       type="text/css">
      .ColorScheme-Text {
        color:#122036;
      }
      </style><style
       id="current-color-scheme-6-2"
       type="text/css">
      .ColorScheme-Text {
        color:#122036;
      }
      </style><style
       type="text/css"
       id="current-color-scheme-67-3">
      .ColorScheme-Text {
        color:#36404d;
      }
      </style><style
       id="current-color-scheme-675"
       type="text/css">
      .ColorScheme-Text {
        color:#122036;
      }
      </style><style
       id="current-color-scheme-1"
       type="text/css">
      .ColorScheme-Text {
        color:#122036;
      }
      </style><style
       type="text/css"
       id="current-color-scheme-10">
      .ColorScheme-Text {
        color:#122036;
      }
      </style><style
       type="text/css"
       id="current-color-scheme-6-3">
      .ColorScheme-Text {
        color:#122036;
      }
      </style><style
       type="text/css"
       id="current-color-scheme-1-9">
      .ColorScheme-Text {
        color:#122036;
      }
      </style><style
       id="current-color-scheme-10-1"
       type="text/css">
      .ColorScheme-Text {
        color:#122036;
      }
      </style><style
       type="text/css"
       id="current-color-scheme-56">
      .ColorScheme-Text {
        color:#122036;
      }
      </style><style
       type="text/css"
       id="current-color-scheme-1-91">
      .ColorScheme-Text {
        color:#122036;
      }
      </style><style
       id="current-color-scheme-10-2"
       type="text/css">
      .ColorScheme-Text {
        color:#122036;
      }
      </style><style
       id="current-color-scheme-5-7"
       type="text/css">
      .ColorScheme-Text {
        color:#122036;
      }
      </style><style
       id="current-color-scheme-1-2"
       type="text/css">
      .ColorScheme-Text {
        color:#122036;
      }
      </style><style
       type="text/css"
       id="current-color-scheme-10-9">
      .ColorScheme-Text {
        color:#122036;
      }
      </style><style
       type="text/css"
       id="current-color-scheme-6-7">
      .ColorScheme-Text {
        color:#122036;
      }
      </style><style
       type="text/css"
       id="current-color-scheme-1-9-0">
      .ColorScheme-Text {
        color:#122036;
      }
      </style><style
       id="current-color-scheme-10-1-9"
       type="text/css">
      .ColorScheme-Text {
        color:#122036;
      }
      </style></defs><sodipodi:namedview
     id="namedview1"
     pagecolor="#ffffff"
     bordercolor="#000000"
     borderopacity="0.25"
     inkscape:showpageshadow="2"
     inkscape:pageopacity="0.0"
     inkscape:pagecheckerboard="0"
     inkscape:deskcolor="#d1d1d1"
     showgrid="true"
     inkscape:zoom="32"
     inkscape:cx="20.578125"
     inkscape:cy="17.8125"
     inkscape:window-width="2560"
     inkscape:window-height="1356"
     inkscape:window-x="0"
     inkscape:window-y="0"
     inkscape:window-maximized="1"
     inkscape:current-layer="g1196"><inkscape:grid
       id="grid1"
       units="px"
       originx="0"
       originy="0"
       spacingx="1"
       spacingy="1"
       empcolor="#0099e5"
       empopacity="0.30196078"
       color="#0099e5"
       opacity="0.14902"
       empspacing="5"
       dotted="false"
       gridanglex="30"
       gridanglez="30"
       visible="true" /></sodipodi:namedview><style
     id="current-color-scheme"
     type="text/css">.ColorScheme-Highlight {
    color:#3daee9;
}
.ColorScheme-Text {
    color:#232629;
}</style><g
     transform="translate(67,-290.64999)"
     id="g1196"><rect
       style="fill:url(#linearGradient1186);fill-opacity:1;stroke:none;stroke-width:0.8;stroke-linecap:round;stroke-linejoin:round;stroke-miterlimit:4;stroke-dasharray:none;stroke-opacity:1"
       id="rect837-3-6"
       width="20"
       height="29.999996"
       x="-61"
       y="291.64999"
       ry="2.9999962" /><path
       style="opacity:1;vector-effect:none;fill:url(#linearGradient893);fill-opacity:1;stroke:none;stroke-width:2;stroke-linecap:round;stroke-linejoin:round;stroke-miterlimit:4;stroke-dasharray:none;stroke-dashoffset:0;stroke-opacity:1"
       d="m -58,293.64999 h 14 c 0.554,0 1,0.446 1,1 v 24 c 0,0.554 -0.446,1 -1,1 h -14 c -0.554,0 -1,-0.446 -1,-1 v -24 c 0,-0.554 0.446,-1 1,-1 z"
       id="rect834" /><path
       style="fill:#15151a;fill-opacity:1;stroke:none;stroke-width:0.8;stroke-linecap:round;stroke-linejoin:round;stroke-miterlimit:4;stroke-dasharray:none;stroke-opacity:0"
       d="M 9,1 C 7.338002,1 6,2.338 6,4 v 24 c 0,1.662 1.338002,3 3,3 h 14 c 1.661998,0 3,-1.338 3,-3 V 4 C 26,2.338 24.661998,1 23,1 h -1.96875 -10.0625 z m 0,1 h 1 12 1 c 1.107998,0 2,0.892 2,2 v 24 c 0,1.108 -0.892002,2 -2,2 H 9 C 7.892002,30 7,29.108 7,28 V 4 C 7,2.892 7.897501,1.88975 9,2 Z"
       transform="translate(-67,290.64999)"
       id="rect835-7"
       inkscape:connector-curvature="0"
       sodipodi:nodetypes="ssssssssccscccsssssssc" /><path
       id="rect995-3"
       d="m -54.500002,317.64987 h 7.000004 c 0.276999,0 0.499998,0.223 0.499998,0.5 0,0.277 -0.222999,0.5 -0.499998,0.5 h -7.000004 c -0.276999,0 -0.499998,-0.223 -0.499998,-0.5 0,-0.277 0.222999,-0.5 0.499998,-0.5 z"
       style="fill:#15151a;fill-opacity:1;stroke:none;stroke-width:0.8;stroke-linecap:round;stroke-linejoin:round;stroke-miterlimit:4;stroke-dasharray:none;stroke-opacity:1"
       inkscape:connector-curvature="0" /><path
       id="rect1"
       style="fill:#15151a;fill-opacity:1;stroke:none;stroke-width:4;stroke-linecap:round;stroke-linejoin:round;paint-order:stroke fill markers"
       d="m -54,294.64999 c -0.553999,0 -1,0.446 -1,1 0,0.554 0.446001,1 1,1 0.553999,0 1,-0.446 1,-1 0,-0.554 -0.446001,-1 -1,-1 z m 3,0 c -0.553999,0 -1,0.446 -1,1 0,0.554 0.446001,1 1,1 h 3 c 0.553999,0 1,-0.446 1,-1 0,-0.554 -0.446001,-1 -1,-1 z"
       sodipodi:nodetypes="ssssssssssss" /><path
       id="rect2-8"
       style="fill:#eb0524;fill-opacity:1;stroke:none;stroke-width:2.66667;stroke-linecap:round;stroke-linejoin:round;stroke-opacity:1;paint-order:stroke fill markers"
       d="m -51.000001,300.64999 -7,12 h 14 z m -0.05078,4 c 0.01701,-8.3e-4 0.03324,0 0.05078,0 0.553999,0 1,0.446 1,1 v 2 c 0,0.554 -0.446001,1 -1,1 -0.553999,0 -1,-0.446 -1,-1 v -2 c 0,-0.53669 0.41939,-0.97354 0.94922,-1 z m 0,5 c 0.01701,-8.7e-4 0.03324,0 0.05078,0 0.553999,0 1,0.446 1,1 0,0.554 -0.446001,1 -1,1 -0.553999,0 -1,-0.446 -1,-1 0,-0.53665 0.41939,-0.97354 0.94922,-1 z m -6.949219,6 v 2 h 2 v -2 z m 3,0 v 2 h 2 v -2 z m 3,0 v 2 h 2 v -2 z m 3,0 v 2 h 2 v -2 z m 3,0 v 2 h 2 v -2 z" /><path
       id="rect2"
       style="fill:#fddde2;fill-opacity:1;stroke:none;stroke-width:2.66667;stroke-linecap:round;stroke-linejoin:round;stroke-opacity:1;paint-order:stroke fill markers"
       d="M -51 299.64999 L -58 311.64999 L -44 311.64999 L -51 299.64999 z M -51.050781 303.64999 C -51.033773 303.64916 -51.017537 303.64999 -51 303.64999 C -50.446001 303.64999 -50 304.09599 -50 304.64999 L -50 306.64999 C -50 307.20399 -50.446001 307.64999 -51 307.64999 C -51.553999 307.64999 -52 307.20399 -52 306.64999 L -52 304.64999 C -52 304.1133 -51.58061 303.67645 -51.050781 303.64999 z M -51.050781 308.64999 C -51.033773 308.64912 -51.017537 308.64999 -51 308.64999 C -50.446001 308.64999 -50 309.09599 -50 309.64999 C -50 310.20399 -50.446001 310.64999 -51 310.64999 C -51.553999 310.64999 -52 310.20399 -52 309.64999 C -52 309.11334 -51.58061 308.67645 -51.050781 308.64999 z M -58 314.64999 L -58 316.64999 L -56 316.64999 L -56 314.64999 L -58 314.64999 z M -55 314.64999 L -55 316.64999 L -53 316.64999 L -53 314.64999 L -55 314.64999 z M -52 314.64999 L -52 316.64999 L -50 316.64999 L -50 314.64999 L -52 314.64999 z M -49 314.64999 L -49 316.64999 L -47 316.64999 L -47 314.64999 L -49 314.64999 z M -46 314.64999 L -46 316.64999 L -44 316.64999 L -44 314.64999 L -46 314.64999 z " /><g
       id="g949"
       transform="translate(96,-59)" /><g
       id="g4"
       transform="matrix(3.7795276,0,0,3.7795276,-121.36799,-819.95475)" /></g></svg>
