<?xml version="1.0" encoding="UTF-8" standalone="no"?>
<svg
   version="1.1"
   viewBox="0 0 32 32"
   id="svg1"
   sodipodi:docname="smartphoneconnected.svg"
   inkscape:version="1.3.2 (091e20ef0f, 2023-11-25, custom)"
   xmlns:inkscape="http://www.inkscape.org/namespaces/inkscape"
   xmlns:sodipodi="http://sodipodi.sourceforge.net/DTD/sodipodi-0.dtd"
   xmlns:xlink="http://www.w3.org/1999/xlink"
   xmlns="http://www.w3.org/2000/svg"
   xmlns:svg="http://www.w3.org/2000/svg">
  <defs
     id="defs1">
    <linearGradient
       inkscape:collect="always"
       xlink:href="#linearGradient4506"
       id="linearGradient1186"
       x1="-51"
       y1="320.64999"
       x2="-51"
       y2="291.64999"
       gradientUnits="userSpaceOnUse"
       gradientTransform="translate(86,-279.64999)" />
    <linearGradient
       inkscape:collect="always"
       id="linearGradient4506">
      <stop
         style="stop-color:#252a34;stop-opacity:1"
         offset="0"
         id="stop4502" />
      <stop
         style="stop-color:#353d4b;stop-opacity:1"
         offset="1"
         id="stop4504" />
    </linearGradient>
    <linearGradient
       inkscape:collect="always"
       xlink:href="#linearGradient1962"
       id="linearGradient893"
       x1="-51"
       y1="318.64999"
       x2="-51"
       y2="294.64999"
       gradientUnits="userSpaceOnUse"
       gradientTransform="translate(86,-279.64999)" />
    <linearGradient
       id="linearGradient1962"
       inkscape:collect="always">
      <stop
         id="stop1958"
         offset="0"
         style="stop-color:#2ad291;stop-opacity:1;" />
      <stop
         id="stop1960"
         offset="1"
         style="stop-color:#1f9c6c;stop-opacity:1;" />
    </linearGradient>
  </defs>
  <sodipodi:namedview
     id="namedview1"
     pagecolor="#ffffff"
     bordercolor="#000000"
     borderopacity="0.25"
     inkscape:showpageshadow="2"
     inkscape:pageopacity="0.0"
     inkscape:pagecheckerboard="0"
     inkscape:deskcolor="#d1d1d1"
     inkscape:zoom="9"
     inkscape:cx="45.611111"
     inkscape:cy="35.777778"
     inkscape:window-width="2560"
     inkscape:window-height="1356"
     inkscape:window-x="0"
     inkscape:window-y="0"
     inkscape:window-maximized="1"
     inkscape:current-layer="svg1" />
  <style
     id="current-color-scheme"
     type="text/css">.ColorScheme-PositiveText {
    color:#27ae60;
}
.ColorScheme-Text {
    color:#232629;
}</style>
  <g
     id="g1"
     transform="translate(-19,-11.000002)">
    <rect
       style="fill:url(#linearGradient1186);fill-opacity:1;stroke:none;stroke-width:0.8;stroke-linecap:round;stroke-linejoin:round;stroke-miterlimit:4;stroke-dasharray:none;stroke-opacity:1"
       id="rect837-3-6"
       width="20"
       height="29.999996"
       x="25"
       y="12.000008"
       ry="2.9999962" />
    <path
       style="vector-effect:none;fill:url(#linearGradient893);fill-opacity:1;stroke:none;stroke-width:2;stroke-linecap:round;stroke-linejoin:round;stroke-miterlimit:4;stroke-dasharray:none;stroke-dashoffset:0;stroke-opacity:1"
       d="m 28,14 h 14 c 0.554,0 1,0.446 1,1 v 24 c 0,0.554 -0.446,1 -1,1 H 28 c -0.554,0 -1,-0.446 -1,-1 V 15 c 0,-0.554 0.446,-1 1,-1 z"
       id="rect834" />
    <path
       style="fill:#15151a;fill-opacity:1;stroke:none;stroke-width:0.8;stroke-linecap:round;stroke-linejoin:round;stroke-miterlimit:4;stroke-dasharray:none;stroke-opacity:0"
       d="m 28,12 c -1.661998,0 -3,1.338 -3,3 v 24 c 0,1.662 1.338002,3 3,3 h 14 c 1.661998,0 3,-1.338 3,-3 V 15 c 0,-1.662 -1.338002,-3 -3,-3 h -1.96875 -10.0625 z m 0,1 h 1 12 1 c 1.107998,0 2,0.892 2,2 v 24 c 0,1.108 -0.892002,2 -2,2 H 28 c -1.107998,0 -2,-0.892 -2,-2 V 15 c 0,-1.108 0.897501,-2.11025 2,-2 z"
       id="rect835-7"
       inkscape:connector-curvature="0"
       sodipodi:nodetypes="ssssssssccscccsssssssc" />
    <path
       id="rect995-3"
       d="m 31.499998,37.99988 h 7.000004 c 0.276999,0 0.499998,0.223 0.499998,0.5 0,0.277 -0.222999,0.5 -0.499998,0.5 h -7.000004 c -0.276999,0 -0.499998,-0.223 -0.499998,-0.5 0,-0.277 0.222999,-0.5 0.499998,-0.5 z"
       style="fill:#15151a;fill-opacity:1;stroke:none;stroke-width:0.8;stroke-linecap:round;stroke-linejoin:round;stroke-miterlimit:4;stroke-dasharray:none;stroke-opacity:1"
       inkscape:connector-curvature="0" />
    <path
       id="rect1"
       style="fill:#15151a;fill-opacity:1;stroke:none;stroke-width:4;stroke-linecap:round;stroke-linejoin:round;paint-order:stroke fill markers"
       d="m 32,15 c -0.553999,0 -1,0.446 -1,1 0,0.554 0.446001,1 1,1 0.553999,0 1,-0.446 1,-1 0,-0.554 -0.446001,-1 -1,-1 z m 3,0 c -0.553999,0 -1,0.446 -1,1 0,0.554 0.446001,1 1,1 h 3 c 0.553999,0 1,-0.446 1,-1 0,-0.554 -0.446001,-1 -1,-1 z"
       sodipodi:nodetypes="ssssssssssss" />
    <path
       id="rect2-3"
       style="fill:#209e6d;fill-opacity:1;stroke:none;stroke-width:2.66667;stroke-linecap:round;stroke-linejoin:round;stroke-opacity:1;paint-order:stroke fill markers"
       d="m 39.849609,23.01172 a 1,1 0 0 0 -0.552734,0.27539 v 0.002 l -6.367187,6.29102 -2.212891,-2.27539 a 1,1 0 0 0 -1.414063,-0.0215 1,1 0 0 0 -0.01953,1.41407 l 2.916016,3 a 1.0001,1.0001 0 0 0 1.419922,0.0156 l 7.083984,-7 a 1,1 0 0 0 0.0078,-1.41406 1,1 0 0 0 -0.861329,-0.28711 z M 28,36 v 2 h 2 v -2 z m 3,0 v 2 h 2 v -2 z m 3,0 v 2 h 2 v -2 z m 3,0 v 2 h 2 v -2 z m 3,0 v 2 h 2 v -2 z" />
    <path
       id="rect2"
       style="fill:#f3fcf5;fill-opacity:1;stroke:none;stroke-width:2.66667;stroke-linecap:round;stroke-linejoin:round;stroke-opacity:1;paint-order:stroke fill markers"
       d="m 39.849609,22.01172 a 1,1 0 0 0 -0.552734,0.27539 v 0.002 l -6.367187,6.29102 -2.212891,-2.27539 a 1,1 0 0 0 -1.414063,-0.0215 1,1 0 0 0 -0.01953,1.41407 l 2.916016,3 a 1.0001,1.0001 0 0 0 1.419922,0.0156 l 7.083984,-7 a 1,1 0 0 0 0.0078,-1.41406 1,1 0 0 0 -0.861329,-0.28711 z M 28,35 v 2 h 2 v -2 z m 3,0 v 2 h 2 v -2 z m 3,0 v 2 h 2 v -2 z m 3,0 v 2 h 2 v -2 z m 3,0 v 2 h 2 v -2 z" />
  </g>
</svg>
