<?xml version="1.0" encoding="UTF-8" standalone="no"?>
<!-- Created with Inkscape (http://www.inkscape.org/) -->

<svg
   width="32"
   height="32"
   viewBox="0 0 32 32"
   version="1.1"
   id="svg8"
   inkscape:version="1.3.2 (091e20ef0f, 2023-11-25, custom)"
   sodipodi:docname="software-updates-important.svg"
   xml:space="preserve"
   xmlns:inkscape="http://www.inkscape.org/namespaces/inkscape"
   xmlns:sodipodi="http://sodipodi.sourceforge.net/DTD/sodipodi-0.dtd"
   xmlns:xlink="http://www.w3.org/1999/xlink"
   xmlns="http://www.w3.org/2000/svg"
   xmlns:svg="http://www.w3.org/2000/svg"
   xmlns:rdf="http://www.w3.org/1999/02/22-rdf-syntax-ns#"
   xmlns:cc="http://creativecommons.org/ns#"
   xmlns:dc="http://purl.org/dc/elements/1.1/"><defs
     id="defs2"><style
       id="current-color-scheme"
       type="text/css">
      .ColorScheme-Text {
        color:#122036;
      }
      </style><style
       id="current-color-scheme-6"
       type="text/css">
      .ColorScheme-Text {
        color:#122036;
      }
      </style><style
       type="text/css"
       id="current-color-scheme-67">
      .ColorScheme-Text {
        color:#36404d;
      }
      </style><style
       id="current-color-scheme-0"
       type="text/css">
      .ColorScheme-Text {
        color:#122036;
      }
      </style><style
       id="current-color-scheme-6-2"
       type="text/css">
      .ColorScheme-Text {
        color:#122036;
      }
      </style><style
       type="text/css"
       id="current-color-scheme-67-3">
      .ColorScheme-Text {
        color:#36404d;
      }
      </style><style
       id="current-color-scheme-675"
       type="text/css">
      .ColorScheme-Text {
        color:#122036;
      }
      </style><style
       id="current-color-scheme-1"
       type="text/css">
      .ColorScheme-Text {
        color:#122036;
      }
      </style><style
       type="text/css"
       id="current-color-scheme-10">
      .ColorScheme-Text {
        color:#122036;
      }
      </style><style
       type="text/css"
       id="current-color-scheme-6-3">
      .ColorScheme-Text {
        color:#122036;
      }
      </style><style
       type="text/css"
       id="current-color-scheme-1-9">
      .ColorScheme-Text {
        color:#122036;
      }
      </style><style
       id="current-color-scheme-10-1"
       type="text/css">
      .ColorScheme-Text {
        color:#122036;
      }
      </style><style
       type="text/css"
       id="current-color-scheme-56">
      .ColorScheme-Text {
        color:#122036;
      }
      </style><style
       type="text/css"
       id="current-color-scheme-1-91">
      .ColorScheme-Text {
        color:#122036;
      }
      </style><style
       id="current-color-scheme-10-2"
       type="text/css">
      .ColorScheme-Text {
        color:#122036;
      }
      </style><style
       id="current-color-scheme-5"
       type="text/css">
      .ColorScheme-Text {
        color:#122036;
      }
      </style><style
       id="current-color-scheme-1-2"
       type="text/css">
      .ColorScheme-Text {
        color:#122036;
      }
      </style><style
       type="text/css"
       id="current-color-scheme-10-9">
      .ColorScheme-Text {
        color:#122036;
      }
      </style><style
       type="text/css"
       id="current-color-scheme-6-7">
      .ColorScheme-Text {
        color:#122036;
      }
      </style><style
       type="text/css"
       id="current-color-scheme-1-9-0">
      .ColorScheme-Text {
        color:#122036;
      }
      </style><style
       id="current-color-scheme-10-1-9"
       type="text/css">
      .ColorScheme-Text {
        color:#122036;
      }
      </style><linearGradient
       inkscape:collect="always"
       xlink:href="#linearGradient6408"
       id="linearGradient1360"
       gradientUnits="userSpaceOnUse"
       gradientTransform="matrix(-3.7795275,0,0,3.7795275,36.928569,-796.5841)"
       x1="8.4477682"
       y1="295.60147"
       x2="8.4477682"
       y2="288.98691" /><linearGradient
       inkscape:collect="always"
       id="linearGradient6408"><stop
         style="stop-color:#cfa578;stop-opacity:1"
         offset="0"
         id="stop6404" /><stop
         style="stop-color:#d9b389;stop-opacity:1"
         offset="1"
         id="stop6406" /></linearGradient><linearGradient
       inkscape:collect="always"
       xlink:href="#linearGradient4926"
       id="linearGradient1362"
       gradientUnits="userSpaceOnUse"
       gradientTransform="translate(-7.9999994,274.64986)"
       x1="16"
       y1="18.000013"
       x2="16"
       y2="3.0000134" /><linearGradient
       id="linearGradient4926"
       inkscape:collect="always"><stop
         id="stop4922"
         offset="0"
         style="stop-color:#212121;stop-opacity:1" /><stop
         id="stop4924"
         offset="1"
         style="stop-color:#2c2c2c;stop-opacity:1" /></linearGradient><linearGradient
       inkscape:collect="always"
       xlink:href="#linearGradient3"
       id="linearGradient4"
       x1="63.571701"
       y1="438.952"
       x2="62.388687"
       y2="451.60464"
       gradientUnits="userSpaceOnUse"
       gradientTransform="matrix(0.26458333,0,0,0.26458333,-7.3276538,181.80425)" /><linearGradient
       id="linearGradient3"
       inkscape:collect="always"><stop
         style="stop-color:#ffe200;stop-opacity:1;"
         offset="0"
         id="stop3" /><stop
         style="stop-color:#ffc900;stop-opacity:1;"
         offset="1"
         id="stop4" /></linearGradient></defs><sodipodi:namedview
     id="base"
     pagecolor="#ffffff"
     bordercolor="#666666"
     borderopacity="1.0"
     inkscape:pageopacity="0.0"
     inkscape:pageshadow="2"
     inkscape:zoom="89.6"
     inkscape:cx="22.516741"
     inkscape:cy="25.915178"
     inkscape:document-units="px"
     inkscape:current-layer="g4"
     showgrid="true"
     units="px"
     inkscape:showpageshadow="false"
     inkscape:snap-bbox="true"
     inkscape:bbox-paths="true"
     inkscape:bbox-nodes="true"
     inkscape:snap-bbox-edge-midpoints="true"
     inkscape:snap-bbox-midpoints="true"
     inkscape:object-paths="true"
     inkscape:snap-intersection-paths="true"
     inkscape:window-width="2560"
     inkscape:window-height="1356"
     inkscape:window-x="0"
     inkscape:window-y="0"
     inkscape:window-maximized="1"
     inkscape:pagecheckerboard="0"
     inkscape:deskcolor="#d1d1d1"><inkscape:grid
       type="xygrid"
       id="grid815"
       originx="0"
       originy="0"
       spacingy="1"
       spacingx="1"
       units="px"
       visible="true" /></sodipodi:namedview><metadata
     id="metadata5"><rdf:RDF><cc:Work
         rdf:about=""><dc:format>image/svg+xml</dc:format><dc:type
           rdf:resource="http://purl.org/dc/dcmitype/StillImage" /></cc:Work></rdf:RDF></metadata><g
     inkscape:label="Capa 1"
     inkscape:groupmode="layer"
     id="layer1"
     transform="translate(0,-288.53333)"><g
       id="g3657"
       transform="matrix(-3.7795275,0,0,3.7795275,14,-799.98628)"><g
         inkscape:label="Capa 1"
         id="layer1-9-0"
         transform="matrix(0.26458333,0,0,0.26458333,-4.7625,213.21969)"><g
           id="g1853-7"
           transform="translate(11,-8)"><path
             id="rect843-8"
             style="opacity:1;fill:#806956;fill-opacity:1;stroke:none;stroke-width:2.39314;stroke-linecap:round;stroke-linejoin:round;stroke-miterlimit:4;stroke-dasharray:none;stroke-opacity:1"
             d="M 18.000001 291.64994 C 19.107999 291.64994 20.000001 292.54194 20.000001 293.64994 L 20.000001 315.64994 L 20.000001 319.64994 C 20.000001 320.75794 19.107999 321.64994 18.000001 321.64994 L 14 321.64994 L -4.0000001 321.64994 L -8.0000002 321.64994 C -9.1079991 321.64994 -10 320.75794 -10 319.64994 L -10 315.64994 L -10 293.64994 C -10 292.54194 -9.1079991 291.64994 -8.0000002 291.64994 L 18.000001 291.64994 z " /><path
             id="rect843-3-6"
             style="opacity:1;fill:url(#linearGradient1360);fill-opacity:1;stroke:none;stroke-width:2.2336;stroke-linecap:round;stroke-linejoin:round;stroke-miterlimit:4;stroke-dasharray:none;stroke-opacity:1"
             d="M 18.000001 292.64994 C 18.4155 292.64994 18.770469 292.90016 18.921876 293.25931 C 18.94711 293.31917 18.967192 293.3816 18.980469 293.44681 C 18.993991 293.51259 19.000001 293.58003 19.000001 293.64994 L 19.000001 301.64994 L 19.000001 302.64994 L 19.000001 310.64994 L 19.000001 313.64994 L 19.000001 315.64994 L 19.000001 319.64994 C 19.000001 320.20394 18.554 320.64994 18.000001 320.64994 L 14 320.64994 L -4.0000001 320.64994 L -8.0000002 320.64994 C -8.5539996 320.64994 -9.0000002 320.20394 -9.0000002 319.64994 L -9.0000002 315.64994 L -9.0000002 313.64994 L -9.0000002 310.64994 L -9.0000002 302.64994 L -9.0000002 301.64994 L -9.0000002 293.64994 C -9.0000002 293.09594 -8.5539996 292.64994 -8.0000002 292.64994 L 18.000001 292.64994 z " /></g></g><g
         inkscape:label="Capa 1"
         id="layer1-9-0-3"
         transform="matrix(-0.26458333,0,0,0.26458333,3.7041666,213.21973)"><g
           id="g1853-7-5"
           transform="translate(11,-8)" /></g><path
         id="path1019-9"
         d="m -2.9104167,293.56037 c -0.1465789,0 -0.2645834,0.11801 -0.2645834,0.26458 v 0.79375 h -0.2645833 a 0.26460979,0.26460979 0 0 0 -0.1870686,0.45166 l 0.5291667,0.52916 a 0.26460979,0.26460979 0 0 0 0.3741372,0 l 0.5291667,-0.52916 a 0.26460979,0.26460979 0 0 0 -0.1870687,-0.45166 h -0.2645833 v -0.79375 c 0,-0.14657 -0.1180044,-0.26459 -0.2645833,-0.26458 z"
         style="color:#122036;fill:#714500;fill-opacity:1;stroke:none;stroke-width:0.264583"
         inkscape:connector-curvature="0" /><g
         id="g2377-2"
         transform="matrix(0.26458333,0,0,0.26458333,-2.6458336,214.5426)"><path
           sodipodi:nodetypes="cccsssccccccc"
           inkscape:connector-curvature="0"
           style="fill:#010102;fill-opacity:1;stroke:none;stroke-width:1.00157;stroke-linecap:round;stroke-linejoin:round;stroke-miterlimit:4;stroke-dasharray:none;stroke-opacity:1"
           d="m 5.0000003,278.64996 v 5 1 l 3e-7,10.00006 c 0,1.66202 1.338,3 3,3 1.662,0 3.0000004,-1.33798 3.0000004,-3 v -10.00006 -1 -5 h -1 -2.0000007 -2 z"
           id="rect4856-3-0" /><path
           style="fill:url(#linearGradient1362);fill-opacity:1;stroke:none;stroke-width:1.00157;stroke-linecap:round;stroke-linejoin:round;stroke-miterlimit:4;stroke-dasharray:none;stroke-opacity:1"
           d="m 6.0000003,279.64993 v 2.99997 l 3e-7,12.00006 c 0,1.108 0.892,2.00002 2,2.00002 1.108,0 2.0000004,-0.89202 2.0000004,-2.00002 V 282.6499 279.64993 H 8.0000003 Z"
           id="rect4917-6-6"
           inkscape:connector-curvature="0"
           sodipodi:nodetypes="ccssscccc" /><path
           inkscape:connector-curvature="0"
           id="path1122-8"
           d="m 8.0000006,279.64999 h -1 v 1 h 1 z"
           style="fill:#fefefe;fill-opacity:1;stroke:none;stroke-width:1.00157;stroke-linecap:round;stroke-linejoin:round;stroke-miterlimit:4;stroke-dasharray:none;stroke-opacity:1" /><path
           inkscape:connector-curvature="0"
           id="path1120-9"
           d="m 8.0000006,280.64999 v 1 h 1 v -1 z"
           style="fill:#fefefe;fill-opacity:1;stroke:none;stroke-width:1.00157;stroke-linecap:round;stroke-linejoin:round;stroke-miterlimit:4;stroke-dasharray:none;stroke-opacity:1" /><path
           inkscape:connector-curvature="0"
           id="path1118-2"
           d="m 8.0000006,281.64999 h -1 v 1 h 1 z"
           style="fill:#fefefe;fill-opacity:1;stroke:none;stroke-width:1.00157;stroke-linecap:round;stroke-linejoin:round;stroke-miterlimit:4;stroke-dasharray:none;stroke-opacity:1" /><path
           inkscape:connector-curvature="0"
           id="path1116-6"
           d="m 8.0000006,282.64999 v 1 h 1 v -1 z"
           style="fill:#fefefe;fill-opacity:1;stroke:none;stroke-width:1.00157;stroke-linecap:round;stroke-linejoin:round;stroke-miterlimit:4;stroke-dasharray:none;stroke-opacity:1" /><path
           inkscape:connector-curvature="0"
           id="path1114-6"
           d="m 8.0000006,283.64999 h -1 v 1 h 1 z"
           style="fill:#fefefe;fill-opacity:1;stroke:none;stroke-width:1.00157;stroke-linecap:round;stroke-linejoin:round;stroke-miterlimit:4;stroke-dasharray:none;stroke-opacity:1" /><path
           inkscape:connector-curvature="0"
           id="path1112-4"
           d="m 8.0000006,284.64999 v 1 h 1 v -1 z"
           style="fill:#fefefe;fill-opacity:1;stroke:none;stroke-width:1.00157;stroke-linecap:round;stroke-linejoin:round;stroke-miterlimit:4;stroke-dasharray:none;stroke-opacity:1" /><path
           inkscape:connector-curvature="0"
           id="path1110-9"
           d="m 8.0000006,285.64999 h -1 v 1 h 1 z"
           style="fill:#fefefe;fill-opacity:1;stroke:none;stroke-width:1.00157;stroke-linecap:round;stroke-linejoin:round;stroke-miterlimit:4;stroke-dasharray:none;stroke-opacity:1" /><path
           inkscape:connector-curvature="0"
           id="path1108-5"
           d="m 8.0000006,286.64999 v 1 h 1 v -1 z"
           style="fill:#fefefe;fill-opacity:1;stroke:none;stroke-width:1.00157;stroke-linecap:round;stroke-linejoin:round;stroke-miterlimit:4;stroke-dasharray:none;stroke-opacity:1" /><path
           inkscape:connector-curvature="0"
           id="path1106-0"
           d="m 8.0000006,287.64999 h -1 v 1 h 1 z"
           style="fill:#fefefe;fill-opacity:1;stroke:none;stroke-width:1.00157;stroke-linecap:round;stroke-linejoin:round;stroke-miterlimit:4;stroke-dasharray:none;stroke-opacity:1" /><path
           inkscape:connector-curvature="0"
           id="path1104-4"
           d="m 8.0000006,288.64999 v 1 h 1 v -1 z"
           style="fill:#fefefe;fill-opacity:1;stroke:none;stroke-width:1.00157;stroke-linecap:round;stroke-linejoin:round;stroke-miterlimit:4;stroke-dasharray:none;stroke-opacity:1" /><path
           inkscape:connector-curvature="0"
           id="path1102-8"
           d="m 8.0000006,289.64999 h -1 v 1 h 1 z"
           style="fill:#fefefe;fill-opacity:1;stroke:none;stroke-width:1.00157;stroke-linecap:round;stroke-linejoin:round;stroke-miterlimit:4;stroke-dasharray:none;stroke-opacity:1" /><path
           inkscape:connector-curvature="0"
           id="path1100-7"
           d="m 8.0000006,290.64999 v 1 h 1 v -1 z"
           style="fill:#fefefe;fill-opacity:1;stroke:none;stroke-width:1.00157;stroke-linecap:round;stroke-linejoin:round;stroke-miterlimit:4;stroke-dasharray:none;stroke-opacity:1" /><path
           inkscape:connector-curvature="0"
           id="path1098-1"
           d="m 8.0000006,291.64999 h -1 v 1 h 1 z"
           style="fill:#fefefe;fill-opacity:1;stroke:none;stroke-width:1.00157;stroke-linecap:round;stroke-linejoin:round;stroke-miterlimit:4;stroke-dasharray:none;stroke-opacity:1" /><path
           inkscape:connector-curvature="0"
           id="path1096-7"
           d="m 8.0000006,292.64999 v 1 h 1 v -1 z"
           style="fill:#fefefe;fill-opacity:1;stroke:none;stroke-width:1.00157;stroke-linecap:round;stroke-linejoin:round;stroke-miterlimit:4;stroke-dasharray:none;stroke-opacity:1" /><path
           inkscape:connector-curvature="0"
           id="path1094-2"
           d="m 8.0000006,293.64999 h -1 v 1 h 1 z"
           style="fill:#fefefe;fill-opacity:1;stroke:none;stroke-width:1.00157;stroke-linecap:round;stroke-linejoin:round;stroke-miterlimit:4;stroke-dasharray:none;stroke-opacity:1" /><path
           inkscape:connector-curvature="0"
           id="path904-7"
           d="m 8.0000006,294.64999 v 1 h 1 v -1 z"
           style="fill:#fefefe;fill-opacity:1;stroke:none;stroke-width:1.00157;stroke-linecap:round;stroke-linejoin:round;stroke-miterlimit:4;stroke-dasharray:none;stroke-opacity:1" /></g></g><g
       id="g4"
       transform="matrix(3.7795275,0,0,3.7795275,-12.838491,-819.10765)"><path
         style="color:#000000;fill:#fe9500;fill-opacity:1;stroke-width:0.264583;stroke-linecap:round;stroke-linejoin:round;stroke-miterlimit:1.8;paint-order:fill markers stroke"
         d="m 9.7125002,297.82581 c -0.08846,1e-5 -0.171069,0.0442 -0.220141,0.11782 l -1.817311,3.17478 c -0.11717,0.17583 0.0088,0.4113 0.220141,0.41135 l 3.6693948,2.1e-4 c 0.211294,-4e-5 0.337311,-0.23551 0.220142,-0.41134 l -1.8520838,-3.175 c -0.04907,-0.0736 -0.13168,-0.11781 -0.220142,-0.11782 z m -0.229811,1.53509 1.5873518,1.63991 -2.6803078,-2.2e-4 z"
         id="path33228"
         sodipodi:nodetypes="cccccccccccc" /><path
         style="color:#000000;fill:url(#linearGradient4);stroke-width:0.529167;stroke-linecap:round;stroke-linejoin:round;stroke-miterlimit:1.8;paint-order:fill markers stroke"
         d="m 7.8953382,301.26496 3.6693958,2.1e-4 -1.8520848,-3.175 z"
         id="path33226"
         sodipodi:nodetypes="cccc" /><path
         id="rect34256-3"
         style="fill:#fe9500;fill-opacity:1;stroke-width:0.529167;stroke-linecap:round;stroke-linejoin:round;stroke-miterlimit:1.8;paint-order:fill markers stroke;stop-color:#000000"
         d="m 9.7334155,299.41343 c -0.140184,0.007 -0.251148,0.12259 -0.251148,0.26459 v 0.52916 c 0,0.14658 0.118005,0.26459 0.264584,0.26459 0.146579,0 0.2645825,-0.11801 0.2645825,-0.26459 v -0.52916 c 0,-0.14658 -0.1180035,-0.26459 -0.2645825,-0.26459 -0.0046,0 -0.0089,-2.2e-4 -0.01344,0 z m 0,1.32292 c -0.140184,0.007 -0.251148,0.12259 -0.251148,0.26458 0,0.14658 0.118005,0.26459 0.264584,0.26459 0.146579,0 0.2645825,-0.11801 0.2645825,-0.26459 0,-0.14658 -0.1180035,-0.26458 -0.2645825,-0.26458 -0.0046,0 -0.0089,-2.3e-4 -0.01344,0 z" /><path
         id="rect34256"
         style="fill:#714300;fill-opacity:1;stroke-width:0.529167;stroke-linecap:round;stroke-linejoin:round;stroke-miterlimit:1.8;paint-order:fill markers stroke;stop-color:#000000"
         d="m 9.7334154,299.14876 c -0.140184,0.007 -0.251148,0.12259 -0.251148,0.26459 v 0.52916 c 0,0.14658 0.118005,0.26459 0.264584,0.26459 0.146579,0 0.2645826,-0.11801 0.2645826,-0.26459 v -0.52916 c 0,-0.14658 -0.1180036,-0.26459 -0.2645826,-0.26459 -0.0046,0 -0.0089,-2.2e-4 -0.01344,0 z m 0,1.32292 c -0.140184,0.007 -0.251148,0.12259 -0.251148,0.26458 0,0.14658 0.118005,0.26459 0.264584,0.26459 0.146579,0 0.2645826,-0.11801 0.2645826,-0.26459 0,-0.14658 -0.1180036,-0.26458 -0.2645826,-0.26458 -0.0046,0 -0.0089,-2.3e-4 -0.01344,0 z" /></g></g></svg>
