<?xml version="1.0" encoding="UTF-8" standalone="no"?>
<!-- Created with Inkscape (http://www.inkscape.org/) -->

<svg
   width="32"
   height="32"
   viewBox="0 0 32 32"
   version="1.1"
   id="svg8"
   inkscape:version="1.3.2 (091e20ef0f, 2023-11-25, custom)"
   sodipodi:docname="software-updates-security.svg"
   xml:space="preserve"
   xmlns:inkscape="http://www.inkscape.org/namespaces/inkscape"
   xmlns:sodipodi="http://sodipodi.sourceforge.net/DTD/sodipodi-0.dtd"
   xmlns:xlink="http://www.w3.org/1999/xlink"
   xmlns="http://www.w3.org/2000/svg"
   xmlns:svg="http://www.w3.org/2000/svg"
   xmlns:rdf="http://www.w3.org/1999/02/22-rdf-syntax-ns#"
   xmlns:cc="http://creativecommons.org/ns#"
   xmlns:dc="http://purl.org/dc/elements/1.1/"><defs
     id="defs2"><linearGradient
       inkscape:collect="always"
       xlink:href="#linearGradient6408"
       id="linearGradient1360"
       gradientUnits="userSpaceOnUse"
       gradientTransform="matrix(3.7795274,0,0,3.7795274,-15.928568,-798.70053)"
       x1="8.4477682"
       y1="295.60147"
       x2="8.4477682"
       y2="288.98691" /><linearGradient
       inkscape:collect="always"
       id="linearGradient6408"><stop
         style="stop-color:#cfa578;stop-opacity:1"
         offset="0"
         id="stop6404" /><stop
         style="stop-color:#d9b389;stop-opacity:1"
         offset="1"
         id="stop6406" /></linearGradient><linearGradient
       inkscape:collect="always"
       xlink:href="#linearGradient4926"
       id="linearGradient1362"
       gradientUnits="userSpaceOnUse"
       gradientTransform="matrix(-0.99999997,0,0,0.99999997,32,285.53337)"
       x1="16"
       y1="18.000013"
       x2="16"
       y2="3.0000134" /><linearGradient
       id="linearGradient4926"
       inkscape:collect="always"><stop
         id="stop4922"
         offset="0"
         style="stop-color:#212121;stop-opacity:1" /><stop
         id="stop4924"
         offset="1"
         style="stop-color:#2c2c2c;stop-opacity:1" /></linearGradient><style
       type="text/css"
       id="current-color-scheme">
      .ColorScheme-Text {
        color:#36404d;
      }
      </style><style
       type="text/css"
       id="current-color-scheme-67">
      .ColorScheme-Text {
        color:#122036;
      }
      </style><style
       type="text/css"
       id="current-color-scheme-7">
      .ColorScheme-Text {
        color:#122036;
      }
      </style><style
       type="text/css"
       id="current-color-scheme-5">
      .ColorScheme-Text {
        color:#122036;
      }
      </style><style
       type="text/css"
       id="current-color-scheme-6">
      .ColorScheme-Text {
        color:#122036;
      }
      </style><style
       type="text/css"
       id="current-color-scheme-1">
      .ColorScheme-Text {
        color:#122036;
      }
      </style><style
       id="current-color-scheme-10"
       type="text/css">
      .ColorScheme-Text {
        color:#122036;
      }
      </style><style
       id="current-color-scheme-5-7"
       type="text/css">
      .ColorScheme-Text {
        color:#122036;
      }
      </style><style
       id="current-color-scheme-1-2"
       type="text/css">
      .ColorScheme-Text {
        color:#122036;
      }
      </style><style
       type="text/css"
       id="current-color-scheme-10-9">
      .ColorScheme-Text {
        color:#122036;
      }
      </style><linearGradient
       inkscape:collect="always"
       id="linearGradient4627"><stop
         style="stop-color:#1076ed;stop-opacity:1;"
         offset="0"
         id="stop4623" /><stop
         style="stop-color:#34b0fa;stop-opacity:1;"
         offset="1"
         id="stop4625" /></linearGradient><linearGradient
       inkscape:collect="always"
       xlink:href="#linearGradient4627"
       id="linearGradient3"
       gradientUnits="userSpaceOnUse"
       gradientTransform="matrix(-0.99999997,0,0,0.99999997,83.000001,5.8833429)"
       x1="58"
       y1="312.64999"
       x2="58"
       y2="302.64999" /></defs><sodipodi:namedview
     id="base"
     pagecolor="#ffffff"
     bordercolor="#666666"
     borderopacity="1.0"
     inkscape:pageopacity="0.0"
     inkscape:pageshadow="2"
     inkscape:zoom="44.8"
     inkscape:cx="24.319196"
     inkscape:cy="23.705357"
     inkscape:document-units="px"
     inkscape:current-layer="layer1"
     showgrid="true"
     units="px"
     inkscape:showpageshadow="false"
     inkscape:snap-bbox="true"
     inkscape:bbox-paths="true"
     inkscape:bbox-nodes="true"
     inkscape:snap-bbox-edge-midpoints="true"
     inkscape:snap-bbox-midpoints="true"
     inkscape:object-paths="true"
     inkscape:snap-intersection-paths="true"
     inkscape:window-width="2560"
     inkscape:window-height="1356"
     inkscape:window-x="0"
     inkscape:window-y="0"
     inkscape:window-maximized="1"
     inkscape:pagecheckerboard="0"
     inkscape:deskcolor="#d1d1d1"><inkscape:grid
       type="xygrid"
       id="grid815"
       originx="0"
       originy="0"
       spacingy="1"
       spacingx="1"
       units="px"
       visible="true" /></sodipodi:namedview><metadata
     id="metadata5"><rdf:RDF><cc:Work
         rdf:about=""><dc:format>image/svg+xml</dc:format><dc:type
           rdf:resource="http://purl.org/dc/dcmitype/StillImage" /></cc:Work></rdf:RDF></metadata><g
     inkscape:label="Capa 1"
     inkscape:groupmode="layer"
     id="layer1"
     transform="translate(0,-288.53333)"><path
       sodipodi:nodetypes="sssccssss"
       id="rect843-8"
       d="M 3.0000005,289.53333 H 29 c 1.108,0 2,0.892 2,2 v 22 l -6,6 H 3.0000005 c -1.1079999,0 -1.9999999,-0.892 -1.9999999,-2 v -26 c 0,-1.108 0.892,-2 1.9999999,-2 z"
       style="fill:#806956;fill-opacity:1;stroke:none;stroke-width:2.39314;stroke-linecap:round;stroke-linejoin:round;stroke-miterlimit:4;stroke-dasharray:none;stroke-opacity:1"
       inkscape:connector-curvature="0" /><path
       sodipodi:nodetypes="ssccccssccccccsss"
       inkscape:connector-curvature="0"
       id="rect843-3-6"
       d="m 3.0000005,290.53333 c -0.5539999,0 -0.9999999,0.446 -0.9999999,1 v 8 1 8 3 6 c 0,0.554 0.446,1 0.9999999,1 H 25 l 5,-5 v -2 -3 -8 -1 -8 c 0,-0.554 -0.446,-1 -1,-1 z"
       style="fill:url(#linearGradient1360);fill-opacity:1;stroke:none;stroke-width:2.2336;stroke-linecap:round;stroke-linejoin:round;stroke-miterlimit:4;stroke-dasharray:none;stroke-opacity:1" /><path
       sodipodi:nodetypes="cccsssccccccc"
       inkscape:connector-curvature="0"
       style="fill:#010102;fill-opacity:1;stroke:none;stroke-width:1.00157;stroke-linecap:round;stroke-linejoin:round;stroke-miterlimit:4;stroke-dasharray:none;stroke-opacity:1"
       d="m 19.000001,289.53347 v 5 1 l 0,10.00006 c 0,1.66202 -1.338,3 -3,3 -1.662,0 -3.000001,-1.33798 -3.000001,-3 v -10.00006 -1 -5 h 1 2.000001 2 z"
       id="rect4856-3-0" /><path
       id="rect5699-5-3-6"
       style="fill:#0e44b2;fill-opacity:1;stroke:none;stroke-width:0.84;stroke-linecap:round;stroke-linejoin:round;stroke-miterlimit:4;stroke-dasharray:none;stroke-opacity:1"
       d="m 20,305.53335 c -1.108053,0 -2,0.89195 -2,2 v 6 c 0,3.878 3.122004,7 7,7 3.877997,0 7,-3.122 7,-7 v -6 c 0,-1.10805 -0.891947,-2 -2,-2 z" /><path
       style="fill:url(#linearGradient1362);fill-opacity:1;stroke:none;stroke-width:1.00157;stroke-linecap:round;stroke-linejoin:round;stroke-miterlimit:4;stroke-dasharray:none;stroke-opacity:1"
       d="m 18.000001,290.53344 v 2.99997 l 0,12.00006 c 0,1.108 -0.892,2.00002 -2,2.00002 -1.108,0 -2.000001,-0.89202 -2.000001,-2.00002 v -12.00006 -2.99997 h 2.000001 z"
       id="rect4917-6-6"
       inkscape:connector-curvature="0"
       sodipodi:nodetypes="ccssscccc" /><path
       inkscape:connector-curvature="0"
       id="path1122-8"
       d="m 16.000001,290.5335 h 1 v 1 h -1 z"
       style="fill:#fefefe;fill-opacity:1;stroke:none;stroke-width:1.00157;stroke-linecap:round;stroke-linejoin:round;stroke-miterlimit:4;stroke-dasharray:none;stroke-opacity:1" /><path
       inkscape:connector-curvature="0"
       id="path1120-9"
       d="m 16.000001,291.5335 v 1 h -1 v -1 z"
       style="fill:#fefefe;fill-opacity:1;stroke:none;stroke-width:1.00157;stroke-linecap:round;stroke-linejoin:round;stroke-miterlimit:4;stroke-dasharray:none;stroke-opacity:1" /><path
       inkscape:connector-curvature="0"
       id="path1118-2"
       d="m 16.000001,292.5335 h 1 v 1 h -1 z"
       style="fill:#fefefe;fill-opacity:1;stroke:none;stroke-width:1.00157;stroke-linecap:round;stroke-linejoin:round;stroke-miterlimit:4;stroke-dasharray:none;stroke-opacity:1" /><path
       inkscape:connector-curvature="0"
       id="path1116-6"
       d="m 16.000001,293.5335 v 1 h -1 v -1 z"
       style="fill:#fefefe;fill-opacity:1;stroke:none;stroke-width:1.00157;stroke-linecap:round;stroke-linejoin:round;stroke-miterlimit:4;stroke-dasharray:none;stroke-opacity:1" /><path
       inkscape:connector-curvature="0"
       id="path1114-6"
       d="m 16.000001,294.5335 h 1 v 1 h -1 z"
       style="fill:#fefefe;fill-opacity:1;stroke:none;stroke-width:1.00157;stroke-linecap:round;stroke-linejoin:round;stroke-miterlimit:4;stroke-dasharray:none;stroke-opacity:1" /><path
       inkscape:connector-curvature="0"
       id="path1112-4"
       d="m 16.000001,295.5335 v 1 h -1 v -1 z"
       style="fill:#fefefe;fill-opacity:1;stroke:none;stroke-width:1.00157;stroke-linecap:round;stroke-linejoin:round;stroke-miterlimit:4;stroke-dasharray:none;stroke-opacity:1" /><path
       inkscape:connector-curvature="0"
       id="path1110-9"
       d="m 16.000001,296.5335 h 1 v 1 h -1 z"
       style="fill:#fefefe;fill-opacity:1;stroke:none;stroke-width:1.00157;stroke-linecap:round;stroke-linejoin:round;stroke-miterlimit:4;stroke-dasharray:none;stroke-opacity:1" /><path
       inkscape:connector-curvature="0"
       id="path1108-5"
       d="m 16.000001,297.5335 v 1 h -1 v -1 z"
       style="fill:#fefefe;fill-opacity:1;stroke:none;stroke-width:1.00157;stroke-linecap:round;stroke-linejoin:round;stroke-miterlimit:4;stroke-dasharray:none;stroke-opacity:1" /><path
       inkscape:connector-curvature="0"
       id="path1106-0"
       d="m 16.000001,298.5335 h 1 v 1 h -1 z"
       style="fill:#fefefe;fill-opacity:1;stroke:none;stroke-width:1.00157;stroke-linecap:round;stroke-linejoin:round;stroke-miterlimit:4;stroke-dasharray:none;stroke-opacity:1" /><path
       inkscape:connector-curvature="0"
       id="path1104-4"
       d="m 16.000001,299.5335 v 1 h -1 v -1 z"
       style="fill:#fefefe;fill-opacity:1;stroke:none;stroke-width:1.00157;stroke-linecap:round;stroke-linejoin:round;stroke-miterlimit:4;stroke-dasharray:none;stroke-opacity:1" /><path
       inkscape:connector-curvature="0"
       id="path1102-8"
       d="m 16.000001,300.5335 h 1 v 1 h -1 z"
       style="fill:#fefefe;fill-opacity:1;stroke:none;stroke-width:1.00157;stroke-linecap:round;stroke-linejoin:round;stroke-miterlimit:4;stroke-dasharray:none;stroke-opacity:1" /><path
       inkscape:connector-curvature="0"
       id="path1100-7"
       d="m 16.000001,301.5335 v 1 h -1 v -1 z"
       style="fill:#fefefe;fill-opacity:1;stroke:none;stroke-width:1.00157;stroke-linecap:round;stroke-linejoin:round;stroke-miterlimit:4;stroke-dasharray:none;stroke-opacity:1" /><path
       inkscape:connector-curvature="0"
       id="path1098-1"
       d="m 16.000001,302.5335 h 1 v 1 h -1 z"
       style="fill:#fefefe;fill-opacity:1;stroke:none;stroke-width:1.00157;stroke-linecap:round;stroke-linejoin:round;stroke-miterlimit:4;stroke-dasharray:none;stroke-opacity:1" /><path
       inkscape:connector-curvature="0"
       id="path1096-7"
       d="m 16.000001,303.5335 v 1 h -1 v -1 z"
       style="fill:#fefefe;fill-opacity:1;stroke:none;stroke-width:1.00157;stroke-linecap:round;stroke-linejoin:round;stroke-miterlimit:4;stroke-dasharray:none;stroke-opacity:1" /><path
       inkscape:connector-curvature="0"
       id="path1094-2"
       d="m 16.000001,304.5335 h 1 v 1 h -1 z"
       style="fill:#fefefe;fill-opacity:1;stroke:none;stroke-width:1.00157;stroke-linecap:round;stroke-linejoin:round;stroke-miterlimit:4;stroke-dasharray:none;stroke-opacity:1" /><path
       inkscape:connector-curvature="0"
       id="path904-7"
       d="m 16.000001,305.5335 v 1 h -1 v -1 z"
       style="fill:#fefefe;fill-opacity:1;stroke:none;stroke-width:1.00157;stroke-linecap:round;stroke-linejoin:round;stroke-miterlimit:4;stroke-dasharray:none;stroke-opacity:1" /><path
       id="path1031-4-1"
       style="color:#122036;fill:url(#linearGradient3);fill-opacity:1;stroke:none;stroke-width:0.857144"
       d="m 20,306.53334 c -0.553898,0 -1,0.4461 -1,0.99999 v 6 c 0,3.32402 2.676003,6 6,6 3.323997,0 6,-2.67598 6,-6 v -6 c 0,-0.55389 -0.446101,-0.99999 -1,-0.99999 z" /><path
       id="rect11493-6-3"
       style="fill:#0e44b2;fill-opacity:1;stroke:none;stroke-width:1;stroke-linecap:round;stroke-linejoin:round;stroke-miterlimit:1.8;stroke-dasharray:none;stroke-opacity:1;paint-order:fill markers stroke;stop-color:#000000"
       d="m 25,309.53333 c -1.108,0 -2,0.892 -2,2 v 0.94727 c -0.554,0 -1,0.446 -1,1 v 3.05273 c 0,0.554 0.446,1 1,1 h 4 c 0.554,0 1,-0.446 1,-1 v -3.05273 c 0,-0.554 -0.446,-1 -1,-1 v -0.94727 c 0,-1.108 -0.892,-2 -2,-2 z m 0,1 c 0.554,0 1,0.446 1,1 v 0.94727 h -2 v -0.94727 c 0,-0.554 0.446,-1 1,-1 z" /><path
       id="rect11493-6"
       style="fill:#e3f0fc;fill-opacity:1;stroke:none;stroke-width:1;stroke-linecap:round;stroke-linejoin:round;stroke-miterlimit:1.8;stroke-dasharray:none;stroke-opacity:1;paint-order:fill markers stroke;stop-color:#000000"
       d="m 25,308.53333 c -1.108,0 -2,0.892 -2,2 v 0.94727 c -0.554,0 -1,0.446 -1,1 v 3.05273 c 0,0.554 0.446,1 1,1 h 4 c 0.554,0 1,-0.446 1,-1 v -3.05273 c 0,-0.554 -0.446,-1 -1,-1 v -0.94727 c 0,-1.108 -0.892,-2 -2,-2 z m 0,1 c 0.554,0 1,0.446 1,1 v 0.94727 h -2 v -0.94727 c 0,-0.554 0.446,-1 1,-1 z" /></g></svg>
