<?xml version="1.0" encoding="UTF-8" standalone="no"?>
<svg
   height="64"
   viewBox="0 0 16.933333 16.933333"
   width="64"
   version="1.1"
   id="svg6"
   sodipodi:docname="dialog-positive.svg"
   inkscape:version="1.2.2 (b0a8486541, 2022-12-01)"
   xmlns:inkscape="http://www.inkscape.org/namespaces/inkscape"
   xmlns:sodipodi="http://sodipodi.sourceforge.net/DTD/sodipodi-0.dtd"
   xmlns:xlink="http://www.w3.org/1999/xlink"
   xmlns="http://www.w3.org/2000/svg"
   xmlns:svg="http://www.w3.org/2000/svg"
   xmlns:rdf="http://www.w3.org/1999/02/22-rdf-syntax-ns#"
   xmlns:cc="http://creativecommons.org/ns#"
   xmlns:dc="http://purl.org/dc/elements/1.1/">
  <metadata
     id="metadata10">
    <rdf:RDF>
      <cc:Work
         rdf:about="">
        <dc:format>image/svg+xml</dc:format>
        <dc:type
           rdf:resource="http://purl.org/dc/dcmitype/StillImage" />
        <dc:title />
      </cc:Work>
    </rdf:RDF>
  </metadata>
  <sodipodi:namedview
     pagecolor="#ffffff"
     bordercolor="#666666"
     borderopacity="1"
     objecttolerance="10"
     gridtolerance="10"
     guidetolerance="10"
     inkscape:pageopacity="0"
     inkscape:pageshadow="2"
     inkscape:window-width="2560"
     inkscape:window-height="1363"
     id="namedview8"
     showgrid="false"
     inkscape:zoom="10.429825"
     inkscape:cx="8.7249786"
     inkscape:cy="27.51724"
     inkscape:window-x="0"
     inkscape:window-y="0"
     inkscape:window-maximized="1"
     inkscape:current-layer="g9278"
     inkscape:snap-bbox="true"
     inkscape:bbox-nodes="true"
     inkscape:bbox-paths="true"
     inkscape:snap-bbox-edge-midpoints="true"
     inkscape:snap-bbox-midpoints="true"
     inkscape:showpageshadow="2"
     inkscape:pagecheckerboard="0"
     inkscape:deskcolor="#d1d1d1" />
  <defs
     id="defs2">
    <style
       type="text/css"
       id="current-color-scheme">
      .ColorScheme-Text {
        color:#36404d;
      }
      </style>
    <linearGradient
       inkscape:collect="always"
       xlink:href="#linearGradient825"
       id="linearGradient8653"
       x1="-4.7582717"
       y1="14.509803"
       x2="-4.7582717"
       y2="-0.83603042"
       gradientUnits="userSpaceOnUse"
       gradientTransform="translate(6.4434607,3.1456264)" />
    <linearGradient
       inkscape:collect="always"
       id="linearGradient825">
      <stop
         style="stop-color:#1f996a;stop-opacity:1"
         offset="0"
         id="stop821" />
      <stop
         style="stop-color:#24b27b;stop-opacity:1"
         offset="1"
         id="stop823" />
    </linearGradient>
  </defs>
  <g
     id="g9278"
     transform="translate(7.046061,-1.5158469)">
    <path
       inkscape:connector-curvature="0"
       style="fill:#00804b;fill-opacity:1;stroke:none;stroke-width:0.119063;stroke-miterlimit:4;stroke-dasharray:none;stroke-opacity:1"
       d="m 1.4206058,2.0450134 c 4.3973744,0 7.9374994,3.5401196 7.9374994,7.9374998 0,4.3973688 -3.540125,7.9374998 -7.9374994,7.9374998 -4.3973747,0 -7.9375001,-3.540131 -7.9375001,-7.9374998 0,-4.3973802 3.5401254,-7.9374998 7.9375001,-7.9374998 z"
       id="rect4593" />
    <path
       inkscape:connector-curvature="0"
       style="fill:url(#linearGradient8653);fill-opacity:1;stroke:none;stroke-width:0.115094;stroke-miterlimit:4;stroke-dasharray:none;stroke-opacity:1"
       d="m 1.4206058,2.3095941 c 4.2507954,0 7.6729164,3.4221181 7.6729164,7.6729191 0,4.2507978 -3.422121,7.6729188 -7.6729164,7.6729188 -4.2507958,0 -7.6729161,-3.422121 -7.6729161,-7.6729188 0,-4.250801 3.4221203,-7.6729191 7.6729161,-7.6729191 z"
       id="rect4593-5" />
    <path
       inkscape:connector-curvature="0"
       style="color:#000000;font-style:normal;font-variant:normal;font-weight:normal;font-stretch:normal;font-size:medium;line-height:normal;font-family:sans-serif;font-variant-ligatures:normal;font-variant-position:normal;font-variant-caps:normal;font-variant-numeric:normal;font-variant-alternates:normal;font-feature-settings:normal;text-indent:0;text-align:start;text-decoration:none;text-decoration-line:none;text-decoration-style:solid;text-decoration-color:#000000;letter-spacing:normal;word-spacing:normal;text-transform:none;writing-mode:lr-tb;direction:ltr;text-orientation:mixed;dominant-baseline:auto;baseline-shift:baseline;text-anchor:start;white-space:normal;shape-padding:0;clip-rule:nonzero;display:inline;overflow:visible;visibility:visible;isolation:auto;mix-blend-mode:normal;color-interpolation:sRGB;color-interpolation-filters:linearRGB;solid-color:#000000;solid-opacity:1;vector-effect:none;fill:#00804b;fill-opacity:1;fill-rule:nonzero;stroke:none;stroke-width:0.529167;stroke-linecap:round;stroke-linejoin:round;stroke-miterlimit:4;stroke-dasharray:none;stroke-dashoffset:0;stroke-opacity:1;color-rendering:auto;image-rendering:auto;shape-rendering:auto;text-rendering:auto;enable-background:accumulate"
       d="M 5.1671989,6.5430383 C 4.85586,6.5367995 4.5585025,6.6684194 4.3527784,6.9021896 L 0.07345305,11.629033 -1.5202482,10.035331 C -1.754051,9.8012873 -2.0474694,9.6970243 -2.3191658,9.7128707 c -0.2716964,0.015846 -0.5172194,0.1405816 -0.6991821,0.3224603 -0.1819629,0.181879 -0.3059033,0.425415 -0.3219442,0.697116 -0.016039,0.2717 0.088142,0.564873 0.3219442,0.798917 a 0.26460979,0.26460979 0 0 0 0,0.0021 l 2.38124998,2.380733 c 0.42555186,0.425674 1.13118131,0.407258 1.53478995,-0.03927 L 5.921158,8.3222578 v -0.00206 C 6.2243652,7.9928359 6.2712366,7.5429027 6.1206292,7.1874467 5.9697696,6.8313961 5.6143445,6.5520278 5.1671989,6.5430415 Z"
       id="path821" />
    <path
       inkscape:connector-curvature="0"
       style="color:#000000;font-style:normal;font-variant:normal;font-weight:normal;font-stretch:normal;font-size:medium;line-height:normal;font-family:sans-serif;font-variant-ligatures:normal;font-variant-position:normal;font-variant-caps:normal;font-variant-numeric:normal;font-variant-alternates:normal;font-feature-settings:normal;text-indent:0;text-align:start;text-decoration:none;text-decoration-line:none;text-decoration-style:solid;text-decoration-color:#000000;letter-spacing:normal;word-spacing:normal;text-transform:none;writing-mode:lr-tb;direction:ltr;text-orientation:mixed;dominant-baseline:auto;baseline-shift:baseline;text-anchor:start;white-space:normal;shape-padding:0;clip-rule:nonzero;display:inline;overflow:visible;visibility:visible;opacity:1;isolation:auto;mix-blend-mode:normal;color-interpolation:sRGB;color-interpolation-filters:linearRGB;solid-color:#000000;solid-opacity:1;vector-effect:none;fill:#f3fcf5;fill-opacity:1;fill-rule:nonzero;stroke:none;stroke-width:0.529167;stroke-linecap:round;stroke-linejoin:round;stroke-miterlimit:4;stroke-dasharray:none;stroke-dashoffset:0;stroke-opacity:1;color-rendering:auto;image-rendering:auto;shape-rendering:auto;text-rendering:auto;enable-background:accumulate"
       d="M 5.167199,6.2785591 C 4.85586,6.2723191 4.558502,6.4039398 4.352778,6.6377098 L 0.07345287,11.364554 -1.5202484,9.7708523 C -1.7540512,9.5368075 -2.0474696,9.4325458 -2.319166,9.4483917 c -0.2716964,0.015849 -0.5172194,0.1405811 -0.6991821,0.3224606 -0.1819629,0.18188 -0.3059033,0.4254157 -0.3219442,0.6971167 -0.016039,0.271701 0.088141,0.564872 0.3219442,0.798917 a 0.26460979,0.26460979 0 0 0 0,0.0021 l 2.38124997,2.380731 c 0.4255518,0.425675 1.1311813,0.40726 1.5347899,-0.03927 L 5.921158,8.0577788 v -0.00212 C 6.224365,7.7283037 6.271236,7.2783718 6.120629,6.9229147 5.969769,6.5668649 5.614344,6.2874967 5.167199,6.2785088 Z"
       id="path821-8" />
  </g>
</svg>
