<?xml version="1.0" encoding="UTF-8" standalone="no"?>
<svg
   height="64"
   viewBox="0 0 16.933333 16.933333"
   width="64"
   version="1.1"
   id="svg6"
   sodipodi:docname="security-high.svg"
   inkscape:version="1.2.2 (b0a8486541, 2022-12-01)"
   xml:space="preserve"
   xmlns:inkscape="http://www.inkscape.org/namespaces/inkscape"
   xmlns:sodipodi="http://sodipodi.sourceforge.net/DTD/sodipodi-0.dtd"
   xmlns:xlink="http://www.w3.org/1999/xlink"
   xmlns="http://www.w3.org/2000/svg"
   xmlns:svg="http://www.w3.org/2000/svg"
   xmlns:rdf="http://www.w3.org/1999/02/22-rdf-syntax-ns#"
   xmlns:cc="http://creativecommons.org/ns#"
   xmlns:dc="http://purl.org/dc/elements/1.1/"><metadata
     id="metadata10"><rdf:RDF><cc:Work
         rdf:about=""><dc:format>image/svg+xml</dc:format><dc:type
           rdf:resource="http://purl.org/dc/dcmitype/StillImage" /><dc:title /></cc:Work></rdf:RDF></metadata><sodipodi:namedview
     pagecolor="#ffffff"
     bordercolor="#666666"
     borderopacity="1"
     objecttolerance="10"
     gridtolerance="10"
     guidetolerance="10"
     inkscape:pageopacity="0"
     inkscape:pageshadow="2"
     inkscape:window-width="2560"
     inkscape:window-height="1363"
     id="namedview8"
     showgrid="false"
     inkscape:zoom="10.429825"
     inkscape:cx="7.2867953"
     inkscape:cy="27.51724"
     inkscape:window-x="0"
     inkscape:window-y="0"
     inkscape:window-maximized="1"
     inkscape:current-layer="svg6"
     inkscape:snap-bbox="true"
     inkscape:bbox-nodes="true"
     inkscape:bbox-paths="true"
     inkscape:snap-bbox-edge-midpoints="true"
     inkscape:snap-bbox-midpoints="true"
     inkscape:showpageshadow="2"
     inkscape:pagecheckerboard="0"
     inkscape:deskcolor="#d1d1d1" /><defs
     id="defs2"><style
       type="text/css"
       id="current-color-scheme">
      .ColorScheme-Text {
        color:#36404d;
      }
      </style><linearGradient
       inkscape:collect="always"
       xlink:href="#linearGradient66168"
       id="linearGradient41040"
       x1="6.6145844"
       y1="11.268814"
       x2="6.6145844"
       y2="-3.2832689"
       gradientUnits="userSpaceOnUse"
       gradientTransform="translate(-5.396921,-1.0514351)" /><linearGradient
       inkscape:collect="always"
       id="linearGradient66168"><stop
         style="stop-color:#465057;stop-opacity:1;"
         offset="0"
         id="stop66164" /><stop
         style="stop-color:#5c6972;stop-opacity:1;"
         offset="1"
         id="stop66166" /></linearGradient><linearGradient
       inkscape:collect="always"
       xlink:href="#linearGradient41805"
       id="linearGradient41807"
       x1="6.6145835"
       y1="10.318749"
       x2="6.8791666"
       y2="-2.3812499"
       gradientUnits="userSpaceOnUse"
       gradientTransform="translate(-5.396921,-1.0514351)" /><linearGradient
       inkscape:collect="always"
       id="linearGradient41805"><stop
         style="stop-color:#0d72ec;stop-opacity:1;"
         offset="0"
         id="stop41801" /><stop
         style="stop-color:#36b2fb;stop-opacity:1;"
         offset="1"
         id="stop41803" /></linearGradient></defs><g
     id="g66987"
     transform="translate(5.8791348,6.3103904)"><g
       id="g46452"
       transform="translate(1.3698697,-0.7610386)"><path
         inkscape:connector-curvature="0"
         id="rect1160"
         d="m -5.132338,-5.0201856 c -0.586316,0 -1.058333,0.4720166 -1.058333,1.0583333 v 6.3499999 0.5291666 0.5291667 c 0,4.1042173 3.304117,7.4083341 7.408333,7.4083341 4.104217,0 7.408333,-3.3041168 7.408333,-7.4083341 V 2.9173142 2.3881476 -3.9618523 c 0,-0.5863167 -0.472016,-1.0583333 -1.058333,-1.0583333 h -6.35 z"
         style="fill:#343b40;fill-opacity:1;stroke:none;stroke-width:0.529167;stroke-linecap:round;stroke-linejoin:round;stroke-miterlimit:4;stroke-dasharray:none;stroke-opacity:1" /><path
         id="rect366"
         style="fill:url(#linearGradient41040);fill-opacity:1;stroke-width:1.05833;stroke-linecap:round;stroke-linejoin:round"
         d="m -5.132338,-4.7556017 c -0.439737,0 -0.79375,0.3540129 -0.79375,0.79375 v 6.3499998 0.79375 0.2645834 c 0,3.9576337 3.186117,7.1437495 7.14375,7.1437495 3.957634,0 7.14375,-3.1861158 7.14375,-7.1437495 v -0.2645834 -0.79375 -6.3499998 c 0,-0.4397371 -0.354013,-0.79375 -0.79375,-0.79375 h -6.35 z" /><path
         id="rect1107"
         style="fill:#343b40;fill-opacity:1;stroke-width:1.05833;stroke-linecap:round;stroke-linejoin:round"
         d="m -4.603171,-4.2264351 c -0.439737,0 -0.79375,0.354013 -0.79375,0.79375 v 5.6885416 0.396875 0.9260417 c 0,3.591186 2.891105,6.4822908 6.482291,6.4822908 h 0.264584 c 3.591186,0 6.482291,-2.8911048 6.482291,-6.4822908 V 2.6527315 2.2558565 -3.4326851 c 0,-0.439737 -0.354013,-0.79375 -0.79375,-0.79375 H 1.349954 1.08537 Z" /><path
         id="rect2639"
         style="fill:url(#linearGradient41807);fill-opacity:1;stroke-width:1.05833;stroke-linecap:round;stroke-linejoin:round"
         d="m -4.603171,-3.961852 c -0.293158,0 -0.529167,0.2360086 -0.529167,0.5291667 v 5.8208332 1.0583333 c 0,3.517897 2.832104,6.349999 6.35,6.349999 3.517896,0 6.35,-2.832102 6.35,-6.349999 V 2.3881479 -3.4326853 c 0,-0.2931581 -0.236008,-0.5291667 -0.529167,-0.5291667 H 1.217662 Z" /><path
         id="rect1024-06"
         d="m 1.217662,-1.8451853 c -1.319213,0 -2.38125,1.06203758 -2.38125,2.38125009 V 1.3298148 c -0.439737,0 -0.79375,0.3540133 -0.79375,0.79375 v 3.9687501 c 0,0.4397368 0.354013,0.7937501 0.79375,0.7937501 h 4.7625 c 0.439737,0 0.79375,-0.3540133 0.79375,-0.7937501 V 2.1235648 c 0,-0.4397367 -0.354013,-0.79375 -0.79375,-0.79375 V 0.53606479 c 0,-1.31921251 -1.062038,-2.38125009 -2.38125,-2.38125009 z m 0,1.05833341 c 0.732896,0 1.322917,0.59002085 1.322917,1.32291668 V 1.3298148 H -0.105255 V 0.53606479 c 0,-0.73289583 0.590021,-1.32291668 1.322917,-1.32291668 z m 0,3.70416679 c 0.439737,0 0.79375,0.3540125 0.79375,0.79375 0,0.3463607 -0.221009,0.6367989 -0.529167,0.7456908 v 0.8418092 c 0,0.1465792 -0.118004,0.2645834 -0.264583,0.2645834 -0.146579,0 -0.264583,-0.1180042 -0.264583,-0.2645834 V 4.4567557 C 0.644921,4.3478638 0.423912,4.0574256 0.423912,3.7110649 c 0,-0.4397375 0.354012,-0.79375 0.79375,-0.79375 z"
         style="fill:#0e44b2;fill-opacity:1;stroke-width:0.264583"
         sodipodi:nodetypes="sscsssssscssssccsssscssscss" /><path
         id="rect1024"
         d="m 1.217573,-2.1097782 c -1.319213,0 -2.38125,1.0620376 -2.38125,2.38125009 V 1.0652219 c -0.439737,0 -0.79375,0.3540133 -0.79375,0.79375 V 5.827722 c 0,0.4397368 0.354013,0.7937501 0.79375,0.7937501 h 4.7625 c 0.439737,0 0.79375,-0.3540133 0.79375,-0.7937501 V 1.8589719 c 0,-0.4397367 -0.354013,-0.79375 -0.79375,-0.79375 V 0.27147189 c 0,-1.31921249 -1.062038,-2.38125009 -2.38125,-2.38125009 z m 0,1.0583334 c 0.732896,0 1.322917,0.59002084 1.322917,1.32291669 V 1.0652219 H -0.105344 V 0.27147189 c 0,-0.73289585 0.590021,-1.32291669 1.322917,-1.32291669 z m 0,3.7041668 c 0.439737,0 0.79375,0.3540125 0.79375,0.79375 0,0.3463607 -0.221009,0.6367989 -0.529167,0.7456908 V 5.033972 c 0,0.1465792 -0.118004,0.2645834 -0.264583,0.2645834 -0.146579,0 -0.264583,-0.1180042 -0.264583,-0.2645834 V 4.1921628 C 0.644832,4.0832709 0.423823,3.7928327 0.423823,3.446472 c 0,-0.4397375 0.354012,-0.79375 0.79375,-0.79375 z"
         style="fill:#ffffff;fill-opacity:1;stroke-width:0.264583"
         sodipodi:nodetypes="sscsssssscssssccsssscssscss" /></g></g></svg>
