<svg height="64" viewBox="0 0 64 64" width="64" xmlns="http://www.w3.org/2000/svg" xmlns:xlink="http://www.w3.org/1999/xlink"><linearGradient id="a" gradientUnits="userSpaceOnUse" x1="-6" x2="-6" y1="317.64999" y2="260.64999"><stop offset="0" stop-color="#252b35"/><stop offset="1" stop-color="#343c4a"/></linearGradient><linearGradient id="b" gradientUnits="userSpaceOnUse" x1="31" x2="31" y1="311.64999" y2="254.64999"><stop offset="0" stop-color="#2ad392"/><stop offset="1" stop-color="#1f9b6b"/></linearGradient><g transform="matrix(.99999999606 0 0 .99999999606 .00000123879 -250.64999588171)"><g transform="translate(38 -6)"><path d="m-21 257.64999h30c2.216 0 4 1.784 4 4v54c0 2.216-1.784 4-4 4h-30c-2.216 0-4-1.784-4-4v-54c0-2.216 1.784-4 4-4z" fill="#15151a"/><path d="m-21 258.64999h30c1.662 0 3 1.338 3 3v54c0 1.662-1.338 3-3 3h-30c-1.662 0-3-1.338-3-3v-54c0-1.662 1.338-3 3-3z" fill="url(#a)"/></g><g stroke-linecap="round" stroke-linejoin="round"><path d="m17 253.64999h30c1.108 0 2 .892 2 2v54.00001c0 1.108-.892 2-2 2h-30c-1.108 0-2-.892-2-2v-54.00001c0-1.108.892-2 2-2z" fill="url(#b)" stroke-width="2"/><rect fill="#2e3642" height="2.000003" ry=".983427" stroke-width="2" width="19" x="22.5" y="307.64999"/><path d="m28.5 255.65c-.813687 0-1.46875.65506-1.46875 1.46875v.0625c0 .81368.655063 1.46875 1.46875 1.46875s1.46875-.65507 1.46875-1.46875v-.0625c0-.81369-.655063-1.46875-1.46875-1.46875zm3.9375 0c-.813687 0-1.46875.65506-1.46875 1.46875v.0625c0 .81368.655063 1.46875 1.46875 1.46875h3.0625c.813687 0 1.46875-.65507 1.46875-1.46875v-.0625c0-.81369-.655063-1.46875-1.46875-1.46875z" fill="#2e3642" stroke-width="2"/><path d="m41.09375 273.66953a2 2 0 0 0 -1.109375.54492l-10.962891 10.62891-4.607422-4.60743a2 2 0 0 0 -2.828125 0 2 2 0 0 0 0 2.82813l6 6a2.0002 2.0002 0 0 0 2.806641.0215l12.375-12a2 2 0 0 0 .04492-2.82812 2 2 0 0 0 -1.71875-.58789zm-22.414063 26.98047c-.376733 0-.679687.30295-.679687.67968v2.64063c0 .37673.302954.67969.679687.67969h2.640625c.376734 0 .679688-.30296.679688-.67969v-2.64063c0-.37673-.302954-.67968-.679688-.67968zm6 0c-.376733 0-.679687.30295-.679687.67968v2.64063c0 .37673.302954.67969.679687.67969h2.640625c.376734 0 .679688-.30296.679688-.67969v-2.64063c0-.37673-.302954-.67968-.679688-.67968zm6 0c-.376733 0-.679687.30295-.679687.67968v2.64063c0 .37673.302954.67969.679687.67969h2.640626c.376733 0 .679687-.30296.679687-.67969v-2.64063c0-.37673-.302954-.67968-.679687-.67968zm6.000001 0c-.376734 0-.679688.30295-.679688.67968v2.64063c0 .37673.302954.67969.679688.67969h2.640625c.376733 0 .679687-.30296.679687-.67969v-2.64063c0-.37673-.302954-.67968-.679687-.67968zm6 0c-.376734 0-.679688.30295-.679688.67968v2.64063c0 .37673.302954.67969.679688.67969h2.640625c.376733 0 .679687-.30296.679687-.67969v-2.64063c0-.37673-.302954-.67968-.679687-.67968z" fill="#209e6d" stroke-width="1.6"/><path d="m41.09375 272.66953a2 2 0 0 0 -1.109375.54492l-10.962891 10.62891-4.607422-4.60743a2 2 0 0 0 -2.828125 0 2 2 0 0 0 0 2.82813l6 6a2.0002 2.0002 0 0 0 2.806641.02148l12.375-12a2 2 0 0 0 .044922-2.82812 2 2 0 0 0 -1.71875-.58789zm-22.414063 26.98047c-.376733 0-.679687.30295-.679687.67968v2.64063c0 .37673.302954.67969.679687.67969h2.640625c.376734 0 .679688-.30296.679688-.67969v-2.64063c0-.37673-.302954-.67968-.679688-.67968zm6 0c-.376733 0-.679687.30295-.679687.67968v2.64063c0 .37673.302954.67969.679687.67969h2.640625c.376734 0 .679688-.30296.679688-.67969v-2.64063c0-.37673-.302954-.67968-.679688-.67968zm6 0c-.376733 0-.679687.30295-.679687.67968v2.64063c0 .37673.302954.67969.679687.67969h2.640626c.376733 0 .679687-.30296.679687-.67969v-2.64063c0-.37673-.302954-.67968-.679687-.67968zm6.000001 0c-.376734 0-.679688.30295-.679688.67968v2.64063c0 .37673.302954.67969.679688.67969h2.640625c.376733 0 .679687-.30296.679687-.67969v-2.64063c0-.37673-.302954-.67968-.679687-.67968zm6 0c-.376734 0-.679688.30295-.679688.67968v2.64063c0 .37673.302954.67969.679688.67969h2.640625c.376733 0 .679687-.30296.679687-.67969v-2.64063c0-.37673-.302954-.67968-.679687-.67968z" fill="#f3fcf5" stroke-width="1.6"/></g></g></svg>