<?xml version="1.0" encoding="UTF-8" standalone="no"?>
<!-- Created with Inkscape (http://www.inkscape.org/) -->

<svg
   xmlns:dc="http://purl.org/dc/elements/1.1/"
   xmlns:cc="http://creativecommons.org/ns#"
   xmlns:rdf="http://www.w3.org/1999/02/22-rdf-syntax-ns#"
   xmlns:svg="http://www.w3.org/2000/svg"
   xmlns="http://www.w3.org/2000/svg"
   xmlns:sodipodi="http://sodipodi.sourceforge.net/DTD/sodipodi-0.dtd"
   xmlns:inkscape="http://www.inkscape.org/namespaces/inkscape"
   width="64"
   height="64"
   viewBox="0 0 16.933333 16.933334"
   version="1.1"
   id="svg1197"
   inkscape:version="0.92.4 5da689c313, 2019-01-14"
   sodipodi:docname="b.svg">
  <defs
     id="defs1191" />
  <sodipodi:namedview
     id="base"
     pagecolor="#ffffff"
     bordercolor="#666666"
     borderopacity="1.0"
     inkscape:pageopacity="0.0"
     inkscape:pageshadow="2"
     inkscape:zoom="3.959798"
     inkscape:cx="26.02667"
     inkscape:cy="36.637124"
     inkscape:document-units="px"
     inkscape:current-layer="layer1"
     showgrid="false"
     units="px"
     inkscape:window-width="1366"
     inkscape:window-height="665"
     inkscape:window-x="0"
     inkscape:window-y="24"
     inkscape:window-maximized="1" />
  <metadata
     id="metadata1194">
    <rdf:RDF>
      <cc:Work
         rdf:about="">
        <dc:format>image/svg+xml</dc:format>
        <dc:type
           rdf:resource="http://purl.org/dc/dcmitype/StillImage" />
        <dc:title></dc:title>
      </cc:Work>
    </rdf:RDF>
  </metadata>
  <g
     inkscape:label="Layer 1"
     inkscape:groupmode="layer"
     id="layer1"
     transform="translate(0,-280.06665)">
    <rect
       ry="7.9375"
       y="280.33124"
       x="0.5291667"
       height="16.404167"
       width="15.875"
       id="rect1748"
       style="display:inline;vector-effect:none;fill:#7b736e;fill-opacity:1;stroke-width:1.0583334;stroke-linecap:square;enable-background:new" />
    <path
       id="path1750"
       d="m 8.4666667,280.33123 c -4.3973751,0 -7.93750003,3.54013 -7.93750003,7.9375 v 0.52917 c 0,4.39737 3.54012493,7.9375 7.93750003,7.9375 4.3973743,0 7.9374993,-3.54013 7.9374993,-7.9375 v -0.52917 c 0,-4.39737 -3.540125,-7.9375 -7.9374993,-7.9375 z m 0,0.26458 c 4.2507953,0 7.6729163,3.42212 7.6729163,7.67292 0,4.2508 -3.422121,7.67292 -7.6729163,7.67292 -4.2507959,0 -7.67291669,-3.42212 -7.67291669,-7.67292 0,-4.2508 3.42212079,-7.67292 7.67291669,-7.67292 z"
       style="display:inline;vector-effect:none;fill:#ffffff;fill-opacity:0.50196078;stroke-width:1.0583334;stroke-linecap:square;enable-background:new"
       inkscape:connector-curvature="0" />
    <path
       sodipodi:nodetypes="cccccccc"
       inkscape:connector-curvature="0"
       id="path2459"
       d="m 12.170833,285.88748 3.175,2.38125 -3.175,2.38125 v -1.5875 H 8.9958333 v -1.5875 h 3.1749997 z"
       style="color:#bebebe;display:inline;overflow:visible;visibility:visible;fill:#ffffff;fill-opacity:1;fill-rule:nonzero;stroke:none;stroke-width:0.79374999;marker:none;enable-background:accumulate" />
    <path
       inkscape:connector-curvature="0"
       style="color:#000000;font-style:normal;font-variant:normal;font-weight:normal;font-stretch:normal;font-size:medium;line-height:normal;font-family:sans-serif;text-indent:0;text-align:start;text-decoration:none;text-decoration-line:none;text-decoration-style:solid;text-decoration-color:#000000;letter-spacing:normal;word-spacing:normal;text-transform:none;writing-mode:lr-tb;direction:ltr;baseline-shift:baseline;text-anchor:start;white-space:normal;clip-rule:nonzero;display:inline;overflow:visible;visibility:visible;opacity:1;isolation:auto;mix-blend-mode:normal;color-interpolation:sRGB;color-interpolation-filters:linearRGB;solid-color:#000000;solid-opacity:1;fill:#ffffff;fill-opacity:1;fill-rule:nonzero;stroke:none;stroke-width:1.58749998;stroke-linecap:butt;stroke-linejoin:round;stroke-miterlimit:4;stroke-dasharray:none;stroke-dashoffset:0;stroke-opacity:1;color-rendering:auto;image-rendering:auto;shape-rendering:auto;text-rendering:auto;enable-background:accumulate"
       d="m 11.530737,285.22788 a 0.79375001,0.79375001 0 0 0 -0.28371,-0.60772 0.79375001,0.79375001 0 0 0 -0.09146,-0.0667 c -1.1670183,-0.92399 -2.7285865,-1.28084 -4.2245512,-0.86662 -2.0676394,0.57252 -3.5014774,2.46671 -3.4912539,4.61213 0.010239,2.14541 1.4616589,4.0252 3.5346641,4.57801 1.4884003,0.39689 3.034816,0.0327 4.190444,-0.88677 a 0.79375001,0.79375001 0 0 0 0.365871,-0.66663 0.79375001,0.79375001 0 0 0 -0.79375,-0.79375 0.79375001,0.79375001 0 0 0 -0.520898,0.19379 c -0.7731363,0.6374 -1.8187273,0.89043 -2.8323857,0.62012 -1.3881021,-0.37015 -2.3496032,-1.61594 -2.3564454,-3.05253 -0.00714,-1.43658 0.942475,-2.69242 2.3269893,-3.07578 1.0226755,-0.28317 2.084705,-0.034 2.8664928,0.61237 0.0024,0.002 0.004,0.004 0.0063,0.006 a 0.79375001,0.79375001 0 0 0 0.0016,0 0.79375001,0.79375001 0 0 0 0.5085,0.18759 0.79375001,0.79375001 0 0 0 0.79375,-0.79375 z"
       id="path2461" />
  </g>
</svg>
