<?xml version="1.0" encoding="UTF-8" standalone="no"?>
<!-- Created with Inkscape (http://www.inkscape.org/) -->

<svg
   xmlns:dc="http://purl.org/dc/elements/1.1/"
   xmlns:cc="http://creativecommons.org/ns#"
   xmlns:rdf="http://www.w3.org/1999/02/22-rdf-syntax-ns#"
   xmlns:svg="http://www.w3.org/2000/svg"
   xmlns="http://www.w3.org/2000/svg"
   xmlns:sodipodi="http://sodipodi.sourceforge.net/DTD/sodipodi-0.dtd"
   xmlns:inkscape="http://www.inkscape.org/namespaces/inkscape"
   width="64"
   height="64"
   viewBox="0 0 16.933333 16.933334"
   version="1.1"
   id="svg1197"
   inkscape:version="0.92.4 5da689c313, 2019-01-14"
   sodipodi:docname="e.svg">
  <defs
     id="defs1191" />
  <sodipodi:namedview
     id="base"
     pagecolor="#ffffff"
     bordercolor="#666666"
     borderopacity="1.0"
     inkscape:pageopacity="0.0"
     inkscape:pageshadow="2"
     inkscape:zoom="2.8"
     inkscape:cx="-31.825963"
     inkscape:cy="27.429833"
     inkscape:document-units="px"
     inkscape:current-layer="layer1"
     showgrid="false"
     units="px"
     inkscape:window-width="1366"
     inkscape:window-height="665"
     inkscape:window-x="0"
     inkscape:window-y="24"
     inkscape:window-maximized="1" />
  <metadata
     id="metadata1194">
    <rdf:RDF>
      <cc:Work
         rdf:about="">
        <dc:format>image/svg+xml</dc:format>
        <dc:type
           rdf:resource="http://purl.org/dc/dcmitype/StillImage" />
        <dc:title />
      </cc:Work>
    </rdf:RDF>
  </metadata>
  <g
     inkscape:label="Layer 1"
     inkscape:groupmode="layer"
     id="layer1"
     transform="translate(0,-280.06665)">
    <g
       style="display:inline;enable-background:new"
       id="g969"
       transform="matrix(0.26458334,0,0,0.26458334,-59.332273,221.85831)">
      <circle
         cx="256.24796"
         cy="252"
         r="30.000002"
         style="fill:#48b9c7;stroke-width:0.24000002"
         id="circle4" />
      <g
         id="g908"
         style="stroke-width:3.78399992"
         transform="matrix(0.06342495,0,0,0.06342495,226.24793,221.93657)">
        <rect
           ry="39.416668"
           id="rect6"
           style="fill:#ffffff;stroke-width:3.78399992"
           rx="39.416668"
           height="78.833305"
           width="488.76666"
           y="710.50012"
           x="236.50003" />
        <g
           id="g900">
          <path
             inkscape:connector-curvature="0"
             id="path10"
             style="fill:#ffffff;stroke-width:14.31865597"
             d="m 536,357 c -24,51 -64,92 -120,112 l 48,125 c 9,23 17,47 10,69 -7,22 -39,29 -62,5 -44,-47 -192,-343 -203,-365 -11,-22 -23,-40 -23,-62 1,-33 52,-67 77,-84 25,-17 74,-40 117,-41 43,-1 61,9 86,25 38,25 65,64 75,109 10,45 7,80 -5,105 M 423,301 c -9,-31 -28,-61 -53,-81 -5,-4 -11,-9 -18,-11 -46,-15 -26,62 -19,82 7,20 26,62 47,83 5,5 10,9 16,10 6,1 18,-5 23,-13 5,-8 6,-14 6,-22 a 128,128 0 0 0 -2,-48 z" />
          <g
             id="g894">
            <path
               inkscape:connector-curvature="0"
               id="path12"
               style="fill:#ffffff;stroke-width:3.78399992"
               d="m 625,664 c -2,9 -7,17 -15,22 -8,5 -27,5 -38,-4 -11,-9 -13,-24 -10,-36 3,-12 13,-25 27,-29 29,-9 42,23 36,47 z" />
            <path
               inkscape:connector-curvature="0"
               id="path14"
               style="fill:#ffffff;stroke-width:3.78399992"
               d="m 607,573 c -18,-7 -12,-103 5,-220 5,-32 13,-48 22,-56 9,-8 36,-12 52,-9 a 90,90 0 0 1 49,24 c 12,11 13,23 9,38 -4,15 -18,47 -29,70 l -28,53 c -54,96 -65,106 -80,100 z" />
          </g>
        </g>
      </g>
    </g>
  </g>
</svg>
