<?xml version="1.0" encoding="UTF-8" standalone="no"?>
<!-- Created with Inkscape (http://www.inkscape.org/) -->

<svg
   xmlns:dc="http://purl.org/dc/elements/1.1/"
   xmlns:cc="http://creativecommons.org/ns#"
   xmlns:rdf="http://www.w3.org/1999/02/22-rdf-syntax-ns#"
   xmlns:svg="http://www.w3.org/2000/svg"
   xmlns="http://www.w3.org/2000/svg"
   xmlns:sodipodi="http://sodipodi.sourceforge.net/DTD/sodipodi-0.dtd"
   xmlns:inkscape="http://www.inkscape.org/namespaces/inkscape"
   width="64"
   height="64"
   viewBox="0 0 16.933333 16.933334"
   version="1.1"
   id="svg1197"
   inkscape:version="0.92.4 5da689c313, 2019-01-14"
   sodipodi:docname="a.svg">
  <defs
     id="defs1191" />
  <sodipodi:namedview
     id="base"
     pagecolor="#ffffff"
     bordercolor="#666666"
     borderopacity="1.0"
     inkscape:pageopacity="0.0"
     inkscape:pageshadow="2"
     inkscape:zoom="3.959798"
     inkscape:cx="26.02667"
     inkscape:cy="36.637124"
     inkscape:document-units="px"
     inkscape:current-layer="layer1"
     showgrid="false"
     units="px"
     inkscape:window-width="1366"
     inkscape:window-height="665"
     inkscape:window-x="0"
     inkscape:window-y="24"
     inkscape:window-maximized="1" />
  <metadata
     id="metadata1194">
    <rdf:RDF>
      <cc:Work
         rdf:about="">
        <dc:format>image/svg+xml</dc:format>
        <dc:type
           rdf:resource="http://purl.org/dc/dcmitype/StillImage" />
        <dc:title></dc:title>
      </cc:Work>
    </rdf:RDF>
  </metadata>
  <g
     inkscape:label="Layer 1"
     inkscape:groupmode="layer"
     id="layer1"
     transform="translate(0,-280.06665)">
    <rect
       style="display:inline;vector-effect:none;fill:#7b736e;fill-opacity:1;stroke-width:1.0583334;stroke-linecap:square;enable-background:new"
       id="rect1629"
       width="15.875"
       height="16.404167"
       x="0.5291667"
       y="280.33121"
       ry="7.9375" />
    <path
       inkscape:connector-curvature="0"
       style="display:inline;vector-effect:none;fill:#ffffff;fill-opacity:0.50196078;stroke-width:1.0583334;stroke-linecap:square;enable-background:new"
       d="m 8.4666668,280.33123 c -4.3973751,0 -7.93750013,3.54013 -7.93750013,7.9375 v 0.52917 c 0,4.39737 3.54012503,7.9375 7.93750013,7.9375 4.3973742,0 7.9374992,-3.54013 7.9374992,-7.9375 v -0.52917 c 0,-4.39737 -3.540125,-7.9375 -7.9374992,-7.9375 z m 0,0.26458 c 4.2507952,0 7.6729162,3.42212 7.6729162,7.67292 0,4.2508 -3.422121,7.67292 -7.6729162,7.67292 -4.2507959,0 -7.67291678,-3.42212 -7.67291678,-7.67292 0,-4.2508 3.42212088,-7.67292 7.67291678,-7.67292 z"
       id="rect1635" />
    <path
       style="display:inline;fill:#ffffff;fill-opacity:0.90196078;stroke:none;stroke-width:0.79374999;enable-background:new"
       d="m 8.4666668,283.50623 a 0.79375002,0.79375001 0 0 0 -0.79375,0.79375 0.79375002,0.79375001 0 0 0 0.79375,0.79375 3.175,3.175 0 0 1 3.1749992,3.175 h -1.587499 l 2.381249,3.175 2.38125,-3.175 h -1.5875 a 4.7625,4.7625 0 0 0 -4.7624992,-4.7625 z m -3.9687501,1.5875 -2.3812501,3.175 h 1.5875001 a 4.7625,4.7625 0 0 0 4.7625001,4.7625 0.79375002,0.79375001 0 0 0 0.79375,-0.79375 0.79375002,0.79375001 0 0 0 -0.79375,-0.79375 3.175,3.175 0 0 1 -3.1750001,-3.175 h 1.5875001 z"
       id="path2421"
       inkscape:connector-curvature="0" />
  </g>
</svg>
