<?xml version="1.0" encoding="UTF-8" standalone="no"?>
<!-- Created with Inkscape (http://www.inkscape.org/) -->

<svg
   xmlns:dc="http://purl.org/dc/elements/1.1/"
   xmlns:cc="http://creativecommons.org/ns#"
   xmlns:rdf="http://www.w3.org/1999/02/22-rdf-syntax-ns#"
   xmlns:svg="http://www.w3.org/2000/svg"
   xmlns="http://www.w3.org/2000/svg"
   xmlns:sodipodi="http://sodipodi.sourceforge.net/DTD/sodipodi-0.dtd"
   xmlns:inkscape="http://www.inkscape.org/namespaces/inkscape"
   width="64"
   height="64"
   viewBox="0 0 16.933333 16.933334"
   version="1.1"
   id="svg1197"
   inkscape:version="0.92.4 5da689c313, 2019-01-14"
   sodipodi:docname="c.svg">
  <defs
     id="defs1191" />
  <sodipodi:namedview
     id="base"
     pagecolor="#ffffff"
     bordercolor="#666666"
     borderopacity="1.0"
     inkscape:pageopacity="0.0"
     inkscape:pageshadow="2"
     inkscape:zoom="3.959798"
     inkscape:cx="26.02667"
     inkscape:cy="36.637124"
     inkscape:document-units="px"
     inkscape:current-layer="layer1"
     showgrid="false"
     units="px"
     inkscape:window-width="1366"
     inkscape:window-height="665"
     inkscape:window-x="0"
     inkscape:window-y="24"
     inkscape:window-maximized="1" />
  <metadata
     id="metadata1194">
    <rdf:RDF>
      <cc:Work
         rdf:about="">
        <dc:format>image/svg+xml</dc:format>
        <dc:type
           rdf:resource="http://purl.org/dc/dcmitype/StillImage" />
        <dc:title></dc:title>
      </cc:Work>
    </rdf:RDF>
  </metadata>
  <g
     inkscape:label="Layer 1"
     inkscape:groupmode="layer"
     id="layer1"
     transform="translate(0,-280.06665)">
    <rect
       style="display:inline;vector-effect:none;fill:#7b736e;fill-opacity:1;stroke-width:1.0583334;stroke-linecap:square;enable-background:new"
       id="rect1854"
       width="15.875"
       height="16.404167"
       x="0.5291667"
       y="280.33124"
       ry="7.9375" />
    <path
       inkscape:connector-curvature="0"
       style="display:inline;vector-effect:none;fill:#ffffff;fill-opacity:0.50196078;stroke-width:1.0583334;stroke-linecap:square;enable-background:new"
       d="m 8.466667,280.33122 c -4.3973751,0 -7.93750009,3.54013 -7.93750009,7.9375 v 0.52917 c 0,4.39737 3.54012499,7.9375 7.93750009,7.9375 4.397375,0 7.9375,-3.54013 7.9375,-7.9375 v -0.52917 c 0,-4.39737 -3.540125,-7.9375 -7.9375,-7.9375 z m 0,0.26458 c 4.250796,0 7.672917,3.42212 7.672917,7.67292 0,4.2508 -3.422121,7.67292 -7.672917,7.67292 -4.2507959,0 -7.67291679,-3.42212 -7.67291679,-7.67292 0,-4.2508 3.42212089,-7.67292 7.67291679,-7.67292 z"
       id="path1856" />
    <path
       inkscape:connector-curvature="0"
       style="color:#bebebe;display:inline;fill:#ffffff;fill-opacity:1;stroke:none;stroke-width:0.79374999;enable-background:new"
       d="m 8.466667,282.97705 a 0.79375001,0.79375001 0 0 0 -0.79375,0.79375 0.79375001,0.79375001 0 0 0 0,0.003 v 3.96254 a 0.79375001,0.79375001 0 0 0 0,0.003 0.79375001,0.79375001 0 0 0 0.79375,0.79375 0.79375001,0.79375001 0 0 0 0.79375,-0.79375 0.79375001,0.79375001 0 0 0 0,-0.003 v -3.96254 a 0.79375001,0.79375001 0 0 0 0,-0.003 0.79375001,0.79375001 0 0 0 -0.79375,-0.79375 z"
       id="path2507" />
    <path
       inkscape:connector-curvature="0"
       style="color:#000000;font-style:normal;font-variant:normal;font-weight:normal;font-stretch:normal;font-size:medium;line-height:normal;font-family:sans-serif;text-indent:0;text-align:start;text-decoration:none;text-decoration-line:none;text-decoration-style:solid;text-decoration-color:#000000;letter-spacing:normal;word-spacing:normal;text-transform:none;writing-mode:lr-tb;direction:ltr;baseline-shift:baseline;text-anchor:start;white-space:normal;clip-rule:nonzero;display:inline;overflow:visible;visibility:visible;opacity:1;isolation:auto;mix-blend-mode:normal;color-interpolation:sRGB;color-interpolation-filters:linearRGB;solid-color:#000000;solid-opacity:1;fill:#ffffff;fill-opacity:1;fill-rule:nonzero;stroke:none;stroke-width:1.58749998;stroke-linecap:butt;stroke-linejoin:round;stroke-miterlimit:4;stroke-dasharray:none;stroke-dashoffset:0;stroke-opacity:1;color-rendering:auto;image-rendering:auto;shape-rendering:auto;text-rendering:auto;enable-background:accumulate"
       d="m 5.4187939,285.18157 a 0.79375001,0.79375001 0 0 0 -0.6077188,0.28371 0.79375001,0.79375001 0 0 0 -0.066675,0.0915 c -0.9239885,1.16702 -1.2808426,2.72859 -0.8666162,4.22455 0.572516,2.06764 2.4667051,3.50148 4.6121241,3.49126 2.145419,-0.0102 4.02521,-1.46166 4.578017,-3.53467 0.396891,-1.4884 0.0327,-3.03481 -0.88677,-4.19044 a 0.79375001,0.79375001 0 0 0 -0.666631,-0.36587 0.79375001,0.79375001 0 0 0 -0.79375,0.79375 0.79375001,0.79375001 0 0 0 0.193786,0.5209 c 0.637405,0.77313 0.890437,1.81872 0.620118,2.83238 -0.37015,1.3881 -1.6159406,2.3496 -3.052525,2.35645 -1.4365843,0.007 -2.6924238,-0.94248 -3.0757812,-2.32699 -0.2831704,-1.02268 -0.033972,-2.08471 0.6123702,-2.8665 0.00159,-0.002 0.00397,-0.004 0.00635,-0.006 a 0.79375001,0.79375001 0 0 0 0,-0.002 0.79375001,0.79375001 0 0 0 0.1875869,-0.5085 0.79375001,0.79375001 0 0 0 -0.79375,-0.79375 z"
       id="path2509" />
  </g>
</svg>
