<?xml version="1.0" encoding="UTF-8" standalone="no"?>
<!-- Created with Inkscape (http://www.inkscape.org/) -->

<svg
   xmlns:dc="http://purl.org/dc/elements/1.1/"
   xmlns:cc="http://creativecommons.org/ns#"
   xmlns:rdf="http://www.w3.org/1999/02/22-rdf-syntax-ns#"
   xmlns:svg="http://www.w3.org/2000/svg"
   xmlns="http://www.w3.org/2000/svg"
   xmlns:sodipodi="http://sodipodi.sourceforge.net/DTD/sodipodi-0.dtd"
   xmlns:inkscape="http://www.inkscape.org/namespaces/inkscape"
   width="64"
   height="64"
   viewBox="0 0 16.933333 16.933334"
   version="1.1"
   id="svg1197"
   inkscape:version="0.92.4 5da689c313, 2019-01-14"
   sodipodi:docname="d.svg">
  <defs
     id="defs1191" />
  <sodipodi:namedview
     id="base"
     pagecolor="#ffffff"
     bordercolor="#666666"
     borderopacity="1.0"
     inkscape:pageopacity="0.0"
     inkscape:pageshadow="2"
     inkscape:zoom="3.959798"
     inkscape:cx="26.02667"
     inkscape:cy="36.637124"
     inkscape:document-units="px"
     inkscape:current-layer="layer1"
     showgrid="false"
     units="px"
     inkscape:window-width="1366"
     inkscape:window-height="665"
     inkscape:window-x="0"
     inkscape:window-y="24"
     inkscape:window-maximized="1" />
  <metadata
     id="metadata1194">
    <rdf:RDF>
      <cc:Work
         rdf:about="">
        <dc:format>image/svg+xml</dc:format>
        <dc:type
           rdf:resource="http://purl.org/dc/dcmitype/StillImage" />
        <dc:title></dc:title>
      </cc:Work>
    </rdf:RDF>
  </metadata>
  <g
     inkscape:label="Layer 1"
     inkscape:groupmode="layer"
     id="layer1"
     transform="translate(0,-280.06665)">
    <rect
       style="display:inline;vector-effect:none;fill:#7b736e;fill-opacity:1;stroke-width:1.0583334;stroke-linecap:square;enable-background:new"
       id="rect1824"
       width="15.875"
       height="16.404167"
       x="0.5291667"
       y="280.33121"
       ry="7.9375" />
    <path
       inkscape:connector-curvature="0"
       style="display:inline;vector-effect:none;fill:#ffffff;fill-opacity:0.50196078;stroke-width:1.0583334;stroke-linecap:square;enable-background:new"
       d="m 8.4666668,280.33123 c -4.3973751,0 -7.93750013,3.54013 -7.93750013,7.9375 v 0.52917 c 0,4.39737 3.54012503,7.9375 7.93750013,7.9375 4.3973752,0 7.9375002,-3.54013 7.9375002,-7.9375 v -0.52917 c 0,-4.39737 -3.540125,-7.9375 -7.9375002,-7.9375 z m 0,0.26458 c 4.2507962,0 7.6729172,3.42212 7.6729172,7.67292 0,4.2508 -3.422121,7.67292 -7.6729172,7.67292 -4.2507959,0 -7.67291679,-3.42212 -7.67291679,-7.67292 0,-4.2508 3.42212089,-7.67292 7.67291679,-7.67292 z"
       id="path1826" />
    <path
       id="path2537"
       d="m 8.8543369,284.10678 c -1.6447161,0.0604 -3.1603341,1.07429 -3.7579088,2.71612 -0.7871513,2.16267 0.3115865,4.57066 2.4742695,5.35781 1.6418164,0.59757 3.4171894,0.0863 4.5206524,-1.13481 -0.790445,0.25515 -1.670508,0.26887 -2.5114726,-0.0372 -2.0082034,-0.73092 -3.0377607,-2.95894 -2.306836,-4.96714 0.3060859,-0.84097 0.8777526,-1.49326 1.5812955,-1.93476 z"
       style="color:#bebebe;display:inline;overflow:visible;visibility:visible;fill:#ffffff;fill-opacity:1;fill-rule:nonzero;stroke:none;stroke-width:0.59531248;marker:none;enable-background:accumulate"
       inkscape:connector-curvature="0"
       sodipodi:nodetypes="csscssc" />
  </g>
</svg>
