<?xml version="1.0" encoding="UTF-8"?>
<!-- Created with Inkscape (http://www.inkscape.org/) -->
<svg width="24" height="24" version="1.1" xmlns="http://www.w3.org/2000/svg" xmlns:cc="http://creativecommons.org/ns#" xmlns:dc="http://purl.org/dc/elements/1.1/" xmlns:rdf="http://www.w3.org/1999/02/22-rdf-syntax-ns#">
	<defs>
		<style id="current-color-scheme" type="text/css">.ColorScheme-Text {color:#090d11;}.ColorScheme-Background{color:#ffffff;}</style>
	</defs>
	<metadata>
		<rdf:RDF>
			<cc:Work rdf:about="">
				<dc:format>image/svg+xml</dc:format>
				<dc:type rdf:resource="http://purl.org/dc/dcmitype/StillImage"/>
			</cc:Work>
		</rdf:RDF>
	</metadata>
	<path class="ColorScheme-Text" d="m6.9983 3.9919v2h11v11h2v-13zm-2.9999 2.9999v13h13v-2h-11v-11zm2.9999 0v9.9998h9.9998v-9.9998zm2 2h5.9999v0.99998h-5.9999zm0 2h5.9999v0.99998h-5.9999zm0 2h5.9999v0.99998h-5.9999z" style="fill-opacity:.75;fill:currentColor;stroke-width:.99998"/>
	<path class="ColorScheme-Background" d="m5.9983 2.9919v2.9999h-2.9999v15h15v-2.9999h2.9999v-15h-14zm0.99998 0.99998h13v13h-2v-11h-11zm-2.9999 2.9999h2v11h11v2h-13zm2.9999 0h9.9998v9.9998h-9.9998zm2 2v0.99998h5.9999v-0.99998zm0 2v0.99998h5.9999v-0.99998zm0 2v0.99998h5.9999v-0.99998z" style="fill-opacity:.5;fill:currentColor;stroke-width:.99998"/>
</svg>
