<svg height="64" viewBox="0 0 64 64" width="64" xmlns="http://www.w3.org/2000/svg" xmlns:xlink="http://www.w3.org/1999/xlink"><defs id="antufoldercolor">
    <style type="text/css" id="current-color-scheme">
      .ColorScheme-Highlight {
        color:#45aaf5;
      }
      </style>
  </defs><linearGradient id="a" gradientUnits="userSpaceOnUse" x1="80.99999882698" x2="80.99999882698" y1="346.64995147945" y2="306.65003923509"><stop offset="0" stop-color="#2f435a"/><stop offset="1" stop-color="#374c62"/></linearGradient><linearGradient id="b" gradientUnits="userSpaceOnUse" x1="82.0000013575" x2="82.0000013575" y1="348.65000189482" y2="304.64998881972"><stop offset="0" stop-color="#fff" stop-opacity="0"/><stop offset="1" stop-color="#fff" stop-opacity=".2"/></linearGradient><linearGradient id="c" gradientUnits="userSpaceOnUse" x1="77.99999879448" x2="77.00000004349" y1="345.64992627176" y2="311.65001409241"><stop offset="0" stop-color="#fff" stop-opacity=".7"/><stop offset="1" stop-color="#fff" stop-opacity=".85"/></linearGradient><g stroke-linecap="round" stroke-linejoin="round" stroke-miterlimit="1.8" stroke-width="3.99999" transform="translate(-49.000002 -294.649994)"><rect fill="#223240" height="60" ry="5" width="63.999996" x="49.000004" y="296.64999"/><rect fill="url(#a)" height="57.999973" ry="4" width="61.999996" x="50.000004" y="297.64999"/><rect fill="#223240" height="51.999943" ry="3" width="56" x="53.000008" y="300.65005"/><path d="m56 301.64995h50c1.108 0 2 .892 2 2.00001v45.99999c0 1.10801-.892 2.00001-2 2.00001h-50c-1.107999 0-1.999998-.892-1.999998-2.00001v-45.99999c0-1.10801.891999-2.00001 1.999998-2.00001z" style="fill:currentColor"
class="ColorScheme-Highlight"/><path d="m56 301.64995h50c1.108 0 2 .892 2 2.00001v45.99999c0 1.10801-.892 2.00001-2 2.00001h-50c-1.107999 0-1.999998-.892-1.999998-2.00001v-45.99999c0-1.10801.891999-2.00001 1.999998-2.00001z" fill="url(#b)"/><path d="m62.999998 308.65001c-.553999 0-.999998.44599-.999998.99999v17.00001c0 .55401.445999.99999.999998.99999h21.000001c.553999 0 .999998-.44598.999998-.99999v-17.00001c0-.554-.445999-.99999-.999998-.99999zm24.000001 8.00001v9.99999s-.000004 3-3 3h-6.999999v5.00001c0 .55401.445999.99999.999998.99999h21.000001c.553999 0 .999998-.44598.999998-.99999v-17.00001c0-.554-.445999-.99999-.999998-.99999zm-29.000002 24c-.553999 0-.999999.44599-.999999.99999v6.99999c0 .554.446 1.00002.999999 1.00002h46.000003c.554 0 1-.44602 1-1.00002v-6.99999c0-.554-.446-.99999-1-.99999z" fill-opacity=".15"/><path d="m63.000002 307.64999c-.554003 0-1.000002.44602-1.000002 1.00002v16.99998c0 .554.445999 1.00002 1.000002 1.00002h21c.554 0 .999999-.44602.999999-1.00002v-16.99998c0-.554-.445999-1.00002-.999999-1.00002zm23.999997 8.00001v9.99999s0 3-3 3h-6.999999v5.00001c0 .554.446003.99999 1.000002.99999h20.999997c.553999 0 1.000001-.44599 1.000001-.99999v-17.00001c0-.55401-.446002-.99999-1.000001-.99999zm-28.999998 24c-.554 0-.999999.44598-.999999.99999v7.00002c0 .55401.445999.99999.999999.99999h45.999999c.554 0 1-.44598 1-.99999v-7.00002c0-.55401-.446-.99999-1-.99999z" fill="url(#c)"/></g></svg>
