<svg height="64" viewBox="0 0 64 64" width="64" xmlns="http://www.w3.org/2000/svg" xmlns:xlink="http://www.w3.org/1999/xlink"><defs id="antufoldercolor">
    <style type="text/css" id="current-color-scheme">
      .ColorScheme-Highlight {
        color:#45aaf5;
      }
      </style>
  </defs><linearGradient id="a" gradientUnits="userSpaceOnUse" x1="5.130224" x2="5.130224" y1="7.684609" y2="1.070025"><stop offset="0" stop-color="#fff" stop-opacity=".7"/><stop offset="1" stop-color="#fff" stop-opacity=".85"/></linearGradient><linearGradient id="b" gradientUnits="userSpaceOnUse" x1="57.461354" x2="57.414582" y1="19.239911" y2="13.493815"><stop offset="0" stop-color="#fff" stop-opacity=".2"/><stop offset="1" stop-color="#fff" stop-opacity="0"/></linearGradient><linearGradient id="c" gradientUnits="userSpaceOnUse" x1="62.706249" x2="62.706249" y1="28.839648" y2="15.610481"><stop offset="0" stop-color="#fff" stop-opacity="0"/><stop offset="1" stop-color="#fff" stop-opacity=".2"/></linearGradient><g transform="matrix(3.7795276 0 0 3.7795276 -205 -48.00025)"><path d="m55.827082 13.229234c-1.058333 0-1.5875.79375-1.5875 1.5875v12.964583c0 .728316.594597 1.322917 1.322917 1.322917h14.287499c.72832 0 1.322917-.594601 1.322917-1.322917v-11.1125c0-.728321-.594597-1.322916-1.322917-1.322916h-7.143749c-.08084 0-.177145-.05802-.313676-.230476-.136532-.172461-.284153-.432528-.45372-.703834-.169566-.271307-.362414-.555837-.6196-.784447-.257185-.228611-.59297-.39791-.994254-.39791z" style="fill:currentColor"
class="ColorScheme-Highlight"/><path d="m55.827083 13.493817h4.497916c1.322917 0 1.5875 2.116667 2.38125 2.116667h7.14375c.586317 0 1.058334.472017 1.058334 1.058333v11.1125c0 .586317-.472017 1.058334-1.058334 1.058334h-14.287499c-.586317 0-1.058334-.472017-1.058334-1.058334v-12.95913c0-.7992.529167-1.32837 1.322917-1.32837z" fill-opacity=".1"/><path d="m55.827082 13.493815h4.497916c1.322917 0 1.587501 2.116666 2.381251 2.116666h7.143749c.586317 0 1.058334.472017 1.058334 1.058334v11.1125c0 .586316-.472017 1.058333-1.058334 1.058333h-14.287499c-.586317 0-1.058334-.472017-1.058334-1.058333v-12.959131c0-.7992.529167-1.328369 1.322917-1.328369z" fill="url(#b)"/><path d="m55.827082 13.229232c-1.058331 0-1.5875.793753-1.5875 1.5875v12.964583c0 .728316.594598 1.322917 1.322917 1.322917h14.287499c.728319 0 1.322917-.594601 1.322917-1.322917v-11.1125c0-.728318-.594598-1.322916-1.322917-1.322916h-7.14375c-.08084 0-.177143-.05801-.313676-.230476-.136531-.172461-.284152-.432528-.453718-.703834-.169567-.271307-.362416-.555837-.619602-.784447-.257183-.228611-.592968-.39791-.994254-.39791zm0 .264583h4.497916c1.322917 0 1.5875 2.116667 2.38125 2.116667h7.14375c.586316 0 1.058334.472017 1.058334 1.058333v11.1125c0 .586317-.472018 1.058334-1.058334 1.058334h-14.287499c-.586317 0-1.058334-.472017-1.058334-1.058334v-12.958897c0-.7992.529167-1.328603 1.322917-1.328603z" fill-opacity=".15"/><path d="m62.706249 15.345901c-.31603 0-.55046.206568-.728121.430982-.177662.224414-.327696.493514-.488859.751374-.161163.257861-.332117.502497-.521415.670761-.189299.168265-.382682.263549-.642855.263549h-4.7625c-.72832 0-1.322917.594596-1.322917 1.322917v8.995833c0 .728316.594597 1.322917 1.322917 1.322917h14.287499c.72832 0 1.322917-.594601 1.322917-1.322917v-11.1125c0-.728321-.594597-1.322916-1.322917-1.322916z" style="fill:currentColor"
class="ColorScheme-Highlight"/><path d="m55.562499 17.727148h4.762499c1.322917 0 1.587501-2.116667 2.381251-2.116667h7.143749c.586317 0 1.058334.472017 1.058334 1.058334v11.1125c0 .586316-.472017 1.058333-1.058334 1.058333h-14.287499c-.586317 0-1.058334-.472017-1.058334-1.058333v-8.995834c0-.586316.472017-1.058333 1.058334-1.058333z" fill="url(#c)"/><path d="m62.706248 15.345898c-.31603 0-.55046.206568-.728121.430982s-.327697.493514-.488859.751374c-.161163.257861-.332117.502497-.521415.670761-.189299.168265-.382682.263549-.642855.263549h-4.7625c-.728319 0-1.322917.594596-1.322917 1.322917v8.995833c0 .728316.594598 1.322917 1.322917 1.322917h14.287499c.728319 0 1.322919-.594601 1.322919-1.322917v-11.1125c0-.728321-.5946-1.322916-1.322919-1.322916zm0 .264583h7.143749c.586317 0 1.058334.472017 1.058334 1.058333v11.1125c0 .586317-.472017 1.058333-1.058334 1.058333h-14.287499c-.586316 0-1.058334-.472016-1.058334-1.058333v-8.995833c0-.586317.472018-1.058333 1.058334-1.058333h4.7625c1.322915 0 1.5875-2.116667 2.38125-2.116667z" fill-opacity=".15"/></g><path d="m2.9148553.79355635c-.0594217-.0004339-.1187044.00581057-.1767334.01860351-.2059484.04577788-.3852006.17166355-.4981608.34984944-.235004.3700253-.1255727.8604998.2444295 1.0955404l.6108155.3886067h-1.7730184c-.43797123.000285-.79294826.355262-.79323323.7932333.00056987.4377691.3554636.7924318.79323323.7927164h1.100708l-1.3022461.947229c-.35387304.257565-.43247338.7529784-.17569986 1.1074259.25768506.3551792.75467576.4338829 1.10949296.1756999l.6785116-.4935099c.2978811 1.1353425 1.3271534 1.9683553 2.5585001 1.9683553 1.4657857 0 2.6458333-1.1800476 2.6458333-2.6458333 0-1.3229128-.8397749-2.0714084-1.6913696-2.5223267l-2.9104166-1.85156651c-.1257856-.08002386-.2715663-.12300594-.4206462-.12402344zm2.3765991 2.64583335c1.0260518 0 1.8520833.8260321 1.8520833 1.8520833 0 1.0260509-.8260315 1.8520833-1.8520833 1.8520833-1.026051 0-1.8520833-.8260324-1.8520833-1.8520833 0-1.0260512.8260323-1.8520833 1.8520833-1.8520833zm0 .7937499c-.5863155 0-1.0583333.4720179-1.0583333 1.0583334 0 .5863154.4720178 1.0583333 1.0583333 1.0583333.5863154 0 1.0583333-.4720179 1.0583333-1.0583333 0-.5863155-.4720179-1.0583334-1.0583333-1.0583334z" fill-opacity=".15" transform="matrix(3.7795276 0 0 3.7795276 15.002755 23.998862)"/><path d="m2.9148553.79355635c-.0594217-.0004339-.1187044.00581057-.1767334.01860351-.2059484.04577788-.3852006.17166355-.4981608.34984944-.235004.3700253-.1255727.8604998.2444295 1.0955404l.6108155.3886067h-1.7730184c-.43797123.000285-.79294826.355262-.79323323.7932333.00056987.4377691.3554636.7924318.79323323.7927164h1.100708l-1.3022461.947229c-.35387304.257565-.43247338.7529784-.17569986 1.1074259.25768506.3551792.75467576.4338829 1.10949296.1756999l.6785116-.4935099c.2978811 1.1353425 1.3271534 1.9683553 2.5585001 1.9683553 1.4657857 0 2.6458333-1.1800476 2.6458333-2.6458333 0-1.3229128-.8397749-2.0714084-1.6913696-2.5223267l-2.9104166-1.85156651c-.1257856-.08002386-.2715663-.12300594-.4206462-.12402344zm2.3765991 2.64583335c1.0260518 0 1.8520833.8260321 1.8520833 1.8520833 0 1.0260509-.8260315 1.8520833-1.8520833 1.8520833-1.026051 0-1.8520833-.8260324-1.8520833-1.8520833 0-1.0260512.8260323-1.8520833 1.8520833-1.8520833zm0 .7937499c-.5863155 0-1.0583333.4720179-1.0583333 1.0583334 0 .5863154.4720178 1.0583333 1.0583333 1.0583333.5863154 0 1.0583333-.4720179 1.0583333-1.0583333 0-.5863155-.4720179-1.0583334-1.0583333-1.0583334z" fill="url(#a)" transform="matrix(3.7795276 0 0 3.7795276 15.000802 23.000812)"/></svg>
