<svg height="64" viewBox="0 0 64 64" width="64" xmlns="http://www.w3.org/2000/svg" xmlns:xlink="http://www.w3.org/1999/xlink"><defs id="antufoldercolor">
    <style type="text/css" id="current-color-scheme">
      .ColorScheme-Highlight {
        color:#45aaf5;
      }
      </style>
  </defs><linearGradient id="a" gradientUnits="userSpaceOnUse" x1="1.00000212906" x2="1.00000212906" y1="304.21916404982" y2="290.21918946542"><stop offset="0" stop-color="#fff" stop-opacity=".7"/><stop offset="1" stop-color="#fff" stop-opacity=".85"/></linearGradient><linearGradient id="b" gradientUnits="userSpaceOnUse" x1="57.461354" x2="57.414582" y1="19.239911" y2="13.493815"><stop offset="0" stop-color="#fff" stop-opacity=".2"/><stop offset="1" stop-color="#fff" stop-opacity="0"/></linearGradient><linearGradient id="c" gradientUnits="userSpaceOnUse" x1="62.706249" x2="62.706249" y1="28.839648" y2="15.610481"><stop offset="0" stop-color="#fff" stop-opacity="0"/><stop offset="1" stop-color="#fff" stop-opacity=".2"/></linearGradient><g transform="matrix(3.7795276 0 0 3.7795276 -205 -48.00025)"><path d="m55.827082 13.229234c-1.058333 0-1.5875.79375-1.5875 1.5875v12.964583c0 .728316.594597 1.322917 1.322917 1.322917h14.287499c.72832 0 1.322917-.594601 1.322917-1.322917v-11.1125c0-.728321-.594597-1.322916-1.322917-1.322916h-7.143749c-.08084 0-.177145-.05802-.313676-.230476-.136532-.172461-.284153-.432528-.45372-.703834-.169566-.271307-.362414-.555837-.6196-.784447-.257185-.228611-.59297-.39791-.994254-.39791z" style="fill:currentColor"
class="ColorScheme-Highlight"/><path d="m55.827083 13.493817h4.497916c1.322917 0 1.5875 2.116667 2.38125 2.116667h7.14375c.586317 0 1.058334.472017 1.058334 1.058333v11.1125c0 .586317-.472017 1.058334-1.058334 1.058334h-14.287499c-.586317 0-1.058334-.472017-1.058334-1.058334v-12.95913c0-.7992.529167-1.32837 1.322917-1.32837z" fill-opacity=".1"/><path d="m55.827082 13.493815h4.497916c1.322917 0 1.587501 2.116666 2.381251 2.116666h7.143749c.586317 0 1.058334.472017 1.058334 1.058334v11.1125c0 .586316-.472017 1.058333-1.058334 1.058333h-14.287499c-.586317 0-1.058334-.472017-1.058334-1.058333v-12.959131c0-.7992.529167-1.328369 1.322917-1.328369z" fill="url(#b)"/><path d="m55.827082 13.229232c-1.058331 0-1.5875.793753-1.5875 1.5875v12.964583c0 .728316.594598 1.322917 1.322917 1.322917h14.287499c.728319 0 1.322917-.594601 1.322917-1.322917v-11.1125c0-.728318-.594598-1.322916-1.322917-1.322916h-7.14375c-.08084 0-.177143-.05801-.313676-.230476-.136531-.172461-.284152-.432528-.453718-.703834-.169567-.271307-.362416-.555837-.619602-.784447-.257183-.228611-.592968-.39791-.994254-.39791zm0 .264583h4.497916c1.322917 0 1.5875 2.116667 2.38125 2.116667h7.14375c.586316 0 1.058334.472017 1.058334 1.058333v11.1125c0 .586317-.472018 1.058334-1.058334 1.058334h-14.287499c-.586317 0-1.058334-.472017-1.058334-1.058334v-12.958897c0-.7992.529167-1.328603 1.322917-1.328603z" fill-opacity=".15"/><path d="m62.706249 15.345901c-.31603 0-.55046.206568-.728121.430982-.177662.224414-.327696.493514-.488859.751374-.161163.257861-.332117.502497-.521415.670761-.189299.168265-.382682.263549-.642855.263549h-4.7625c-.72832 0-1.322917.594596-1.322917 1.322917v8.995833c0 .728316.594597 1.322917 1.322917 1.322917h14.287499c.72832 0 1.322917-.594601 1.322917-1.322917v-11.1125c0-.728321-.594597-1.322916-1.322917-1.322916z" style="fill:currentColor"
class="ColorScheme-Highlight"/><path d="m55.562499 17.727148h4.762499c1.322917 0 1.587501-2.116667 2.381251-2.116667h7.143749c.586317 0 1.058334.472017 1.058334 1.058334v11.1125c0 .586316-.472017 1.058333-1.058334 1.058333h-14.287499c-.586317 0-1.058334-.472017-1.058334-1.058333v-8.995834c0-.586316.472017-1.058333 1.058334-1.058333z" fill="url(#c)"/><path d="m62.706248 15.345898c-.31603 0-.55046.206568-.728121.430982s-.327697.493514-.488859.751374c-.161163.257861-.332117.502497-.521415.670761-.189299.168265-.382682.263549-.642855.263549h-4.7625c-.728319 0-1.322917.594596-1.322917 1.322917v8.995833c0 .728316.594598 1.322917 1.322917 1.322917h14.287499c.728319 0 1.322919-.594601 1.322919-1.322917v-11.1125c0-.728321-.5946-1.322916-1.322919-1.322916zm0 .264583h7.143749c.586317 0 1.058334.472017 1.058334 1.058333v11.1125c0 .586317-.472017 1.058333-1.058334 1.058333h-14.287499c-.586316 0-1.058334-.472016-1.058334-1.058333v-8.995833c0-.586317.472018-1.058333 1.058334-1.058333h4.7625c1.322915 0 1.5875-2.116667 2.38125-2.116667z" fill-opacity=".15"/></g><g transform="translate(23.999999 -252.219145)"><path d="m4.0000003 277.21923-5.00000004 2.00002v2.00001 1.99997 2.34573c-.45556196-.21619-.96038596-.34583-1.49999996-.34583-1.939 0-3.500001 1.56098-3.500001 3.5 0 1.93901 1.561001 3.49999 3.500001 3.49999 1.93900296 0 3.621779-1.5648 3.5-3.49999v-6.30078l3-1.19921zm8.9999987 2.99989-6.9999997 3v11.02344c-1.009822-.64493-2.207938-1.02342-3.5-1.02342-3.600998 0-6.5 2.89898-6.5 6.5 0 3.60098 2.899002 6.49999 6.5 6.49999 3.601002 0 6.5-2.89901 6.5-6.49999 0-.034-.0047-.0688-.0059-.10356l.0059.004v-9.40037-2.00001l4.0000017-2.00005zm8 8.0002-5.000001 2.00001v1.99998 2.00001 2.34569c-.455562-.21619-.960386-.34583-1.5-.34583-1.938997 0-3.499997 1.56099-3.499997 3.5s1.561 3.49999 3.499997 3.49999c1.939003 0 3.558845-1.56189 3.500001-3.49999v-6.30078l3-1.19924z" fill="#010101" fill-opacity=".15"/><path d="m4.0000003 276.21928-5.00000004 2.00002v2.00001 1.99997 2.34573c-.45556196-.21619-.96038596-.34583-1.49999996-.34583-1.939 0-3.5 1.56099-3.5 3.5s1.561 3.49999 3.5 3.49999c1.93900296 0 3.5-1.56098 3.5-3.49999v-6.30078l3-1.1992zm8.9999997 2.99974-7.0000007 3v11.02344c-1.009822-.64493-2.207938-1.02341-3.5-1.02341-3.600998 0-6.5 2.89897-6.5 6.49999 0 3.60098 2.899002 6.49999 6.5 6.49999 3.601003 0 6.5-2.89901 6.5-6.49999 0-.034-.0047-.0688-.0059-.10356l.0059.004v-9.40037-2.00001l4.0000007-2.00001zm7.999999 8.00016-5.000001 2.00002v1.99997 2.00001 2.34569c-.455562-.21619-.960386-.34582-1.5-.34582-1.938997 0-3.499997 1.56098-3.499997 3.49999s1.561 3.49999 3.499997 3.49999c1.939003 0 3.540049-1.5614 3.500001-3.49999v-6.30078l3-1.19924z" fill="url(#a)"/></g></svg>
