<svg height="64" viewBox="0 0 64 64" width="64" xmlns="http://www.w3.org/2000/svg" xmlns:xlink="http://www.w3.org/1999/xlink"><defs id="antufoldercolor">
    <style type="text/css" id="current-color-scheme">
      .ColorScheme-Highlight {
        color:#45aaf5;
      }
      </style>
  </defs><linearGradient id="a" gradientUnits="userSpaceOnUse" x1="2.116666" x2="2.116666" y1="298.05832" y2="291.17917"><stop offset="0" stop-color="#fff" stop-opacity=".7"/><stop offset="1" stop-color="#fff" stop-opacity=".85"/></linearGradient><linearGradient id="b" gradientUnits="userSpaceOnUse" x1="57.461354" x2="57.414582" y1="19.239911" y2="13.493815"><stop offset="0" stop-color="#fff" stop-opacity=".2"/><stop offset="1" stop-color="#fff" stop-opacity="0"/></linearGradient><linearGradient id="c" gradientUnits="userSpaceOnUse" x1="62.706249" x2="62.706249" y1="28.839648" y2="15.610481"><stop offset="0" stop-color="#fff" stop-opacity="0"/><stop offset="1" stop-color="#fff" stop-opacity=".2"/></linearGradient><g transform="matrix(3.7795276 0 0 3.7795276 -205 -48.00025)"><path d="m55.827082 13.229234c-1.058333 0-1.5875.79375-1.5875 1.5875v12.964583c0 .728316.594597 1.322917 1.322917 1.322917h14.287499c.72832 0 1.322917-.594601 1.322917-1.322917v-11.1125c0-.728321-.594597-1.322916-1.322917-1.322916h-7.143749c-.08084 0-.177145-.05802-.313676-.230476-.136532-.172461-.284153-.432528-.45372-.703834-.169566-.271307-.362414-.555837-.6196-.784447-.257185-.228611-.59297-.39791-.994254-.39791z" style="fill:currentColor"
class="ColorScheme-Highlight"/><path d="m55.827083 13.493817h4.497916c1.322917 0 1.5875 2.116667 2.38125 2.116667h7.14375c.586317 0 1.058334.472017 1.058334 1.058333v11.1125c0 .586317-.472017 1.058334-1.058334 1.058334h-14.287499c-.586317 0-1.058334-.472017-1.058334-1.058334v-12.95913c0-.7992.529167-1.32837 1.322917-1.32837z" fill-opacity=".1"/><path d="m55.827082 13.493815h4.497916c1.322917 0 1.587501 2.116666 2.381251 2.116666h7.143749c.586317 0 1.058334.472017 1.058334 1.058334v11.1125c0 .586316-.472017 1.058333-1.058334 1.058333h-14.287499c-.586317 0-1.058334-.472017-1.058334-1.058333v-12.959131c0-.7992.529167-1.328369 1.322917-1.328369z" fill="url(#b)"/><path d="m55.827082 13.229232c-1.058331 0-1.5875.793753-1.5875 1.5875v12.964583c0 .728316.594598 1.322917 1.322917 1.322917h14.287499c.728319 0 1.322917-.594601 1.322917-1.322917v-11.1125c0-.728318-.594598-1.322916-1.322917-1.322916h-7.14375c-.08084 0-.177143-.05801-.313676-.230476-.136531-.172461-.284152-.432528-.453718-.703834-.169567-.271307-.362416-.555837-.619602-.784447-.257183-.228611-.592968-.39791-.994254-.39791zm0 .264583h4.497916c1.322917 0 1.5875 2.116667 2.38125 2.116667h7.14375c.586316 0 1.058334.472017 1.058334 1.058333v11.1125c0 .586317-.472018 1.058334-1.058334 1.058334h-14.287499c-.586317 0-1.058334-.472017-1.058334-1.058334v-12.958897c0-.7992.529167-1.328603 1.322917-1.328603z" fill-opacity=".15"/><path d="m62.706249 15.345901c-.31603 0-.55046.206568-.728121.430982-.177662.224414-.327696.493514-.488859.751374-.161163.257861-.332117.502497-.521415.670761-.189299.168265-.382682.263549-.642855.263549h-4.7625c-.72832 0-1.322917.594596-1.322917 1.322917v8.995833c0 .728316.594597 1.322917 1.322917 1.322917h14.287499c.72832 0 1.322917-.594601 1.322917-1.322917v-11.1125c0-.728321-.594597-1.322916-1.322917-1.322916z" style="fill:currentColor"
class="ColorScheme-Highlight"/><path d="m55.562499 17.727148h4.762499c1.322917 0 1.587501-2.116667 2.381251-2.116667h7.143749c.586317 0 1.058334.472017 1.058334 1.058334v11.1125c0 .586316-.472017 1.058333-1.058334 1.058333h-14.287499c-.586317 0-1.058334-.472017-1.058334-1.058333v-8.995834c0-.586316.472017-1.058333 1.058334-1.058333z" fill="url(#c)"/><path d="m62.706248 15.345898c-.31603 0-.55046.206568-.728121.430982s-.327697.493514-.488859.751374c-.161163.257861-.332117.502497-.521415.670761-.189299.168265-.382682.263549-.642855.263549h-4.7625c-.728319 0-1.322917.594596-1.322917 1.322917v8.995833c0 .728316.594598 1.322917 1.322917 1.322917h14.287499c.728319 0 1.322919-.594601 1.322919-1.322917v-11.1125c0-.728321-.5946-1.322916-1.322919-1.322916zm0 .264583h7.143749c.586317 0 1.058334.472017 1.058334 1.058333v11.1125c0 .586317-.472017 1.058333-1.058334 1.058333h-14.287499c-.586316 0-1.058334-.472016-1.058334-1.058333v-8.995833c0-.586317.472018-1.058333 1.058334-1.058333h4.7625c1.322915 0 1.5875-2.116667 2.38125-2.116667z" fill-opacity=".15"/></g><g stroke-linecap="round" stroke-linejoin="round" stroke-miterlimit="1.8" stroke-width=".529167"><path d="m-.79375021 290.91458c-.28858079 0-.52916669.24058-.52916669.52916v.28887a.2646098.2646098 0 0 0 .1741496.24857c.011475.004.01282.005.018603.007.00475.002.00957.004.013953.007.00924.006.015536.0119.019637.016.00413.004.00978.0104.01602.0196h-.0005168c.00475.007.00929.0153.012402.0227.0027.006.00511.0139.00723.0243.00206.0102.0031.0192.0031.0274 0 .008-.00103.0172-.0031.0274-.00212.0104-.00456.0179-.00723.0243-.00312.007-.00715.0157-.011886.0227a.2646098.2646098 0 0 0 -.0005168 0c-.00623.009-.011399.0155-.015503.0196-.00405.004-.010337.009-.019637.0155-.00414.003-.00885.005-.013436.007-.00545.002-.00658.002-.01757.006a.2646098.2646098 0 0 0 -.1756999.2496v.57774a.2646098.2646098 0 0 0 .1741496.24856c.011475.004.01282.005.018603.007.00475.002.00957.004.013953.007.00924.006.015536.0119.019637.016.00413.004.00978.0104.01602.0196h-.0005168c.00475.007.00929.0154.012402.0227.0027.006.00511.0139.00723.0243.00206.0102.0031.0191.0031.0274 0 .008-.00103.0172-.0031.0274-.00212.0104-.00456.0179-.00723.0243-.00312.007-.00715.0157-.011886.0227a.2646098.2646098 0 0 0 -.0005168 0c-.00623.009-.011399.0155-.015503.0196-.00405.004-.010337.009-.019637.0155-.00414.003-.00885.005-.013436.007-.00545.002-.00658.002-.01757.006a.2646098.2646098 0 0 0 -.1756999.24959v.57775a.2646098.2646098 0 0 0 .1741496.24856c.011475.004.01282.005.018603.007.00475.002.00957.004.013953.007.00924.006.015536.012.019637.016.00413.004.00978.0104.01602.0196h-.0005168c.00475.007.00929.0154.012402.0227.0027.006.00511.0139.00723.0243.00206.0102.0031.0192.0031.0274 0 .008-.00103.0172-.0031.0274-.00212.0104-.00456.0179-.00723.0243-.00312.007-.00715.0157-.011886.0227a.2646098.2646098 0 0 0 -.0005168 0c-.00623.009-.011399.0155-.015503.0196-.00405.004-.010337.009-.019637.0155-.00414.003-.00885.005-.013436.007-.00545.002-.00658.002-.01757.006a.2646098.2646098 0 0 0 -.1756999.2496v.57774a.2646098.2646098 0 0 0 .1741496.24857c.011475.004.01282.005.018603.007.00475.002.00957.004.013953.007.00924.006.015536.0119.019637.016.00413.004.00978.0104.01602.0196h-.0005168c.00475.007.00929.0153.012402.0227.0027.006.00511.0139.00723.0243.00206.0102.0031.0192.0031.0274 0 .008-.00103.0172-.0031.0274-.00212.0104-.00456.0179-.00723.0243-.00312.007-.00715.0157-.011886.0227a.2646098.2646098 0 0 0 -.0005168 0c-.00623.009-.011399.0155-.015503.0196-.00405.004-.010337.009-.019637.0155-.00414.003-.00885.005-.013436.007-.00545.002-.00658.002-.01757.006a.2646098.2646098 0 0 0 -.1756999.2496v.57774a.2646098.2646098 0 0 0 .1741496.24856c.011475.004.01282.005.018603.007.00475.002.00957.004.013953.007.00924.006.015536.0119.019637.016.00413.004.00978.0104.01602.0196h-.0005168c.00475.007.00929.0154.012402.0227.0027.006.00511.0139.00723.0243.00206.0102.0031.0191.0031.0274 0 .008-.00103.0172-.0031.0274-.00212.0104-.00456.0179-.00723.0243-.00312.007-.00715.0157-.011886.0227a.2646098.2646098 0 0 0 -.0005168 0c-.00623.009-.011399.0155-.015503.0196-.00405.004-.010337.009-.019637.0155-.00414.003-.00885.005-.013436.007-.00545.002-.00658.002-.01757.006a.2646098.2646098 0 0 0 -.1756999.24959v.28888c0 .28858.2405859.52916.52916669.52916h.5534546a.2646098.2646098 0 0 0 .24908041-.17621c.0037174-.0105.00422209-.0112.00620118-.0165.0023283-.005.0043349-.01.0072347-.014a.2646098.2646098 0 0 0 .00051676 0c.0062336-.009.01139925-.0155.01550293-.0196.0040534-.004.01033695-.01.01963704-.016.0070326-.005.01534254-.009.02273764-.0119.0065008-.003.01393214-.005.02428792-.007.0101785-.002.0190922-.003.0273885-.003.008295 0 .0172084.001.0273885.003.0103558.002.0177898.005.0242879.007.007191.003.015578.007.0227376.0119.009252.006.015544.0119.0196371.016.00413.004.009783.0104.0160197.0196h-.00051676c.003143.005.005665.01.008268.015.001905.005.001747.006.005168.0155a.2646098.2646098 0 0 0 .24959717.17621h.57774692a.2646098.2646098 0 0 0 .2490804-.17621c.00372-.0105.00422-.0112.0062-.0165.00233-.005.00433-.01.00723-.014a.2646098.2646098 0 0 0 .0005167 0c.00623-.009.011399-.0155.015503-.0196.00405-.004.010337-.01.019637-.016.00703-.005.015343-.009.022738-.0119.0065-.003.013932-.005.024288-.007.010179-.002.019092-.003.027389-.003.00829 0 .017208.001.027389.003.010356.002.01779.005.024288.007.00719.003.015578.007.022738.0119.00925.006.015544.0119.019637.016.00413.004.00978.0104.01602.0196h-.0005168c.00314.005.00566.01.00827.015.00191.005.00175.006.00517.0155a.2646098.2646098 0 0 0 .2495972.17621h.5777425a.2646098.2646098 0 0 0 .2490804-.17621c.00372-.0105.00422-.0112.0062-.0165.00233-.005.00433-.01.00723-.014a.2646098.2646098 0 0 0 .00103 0c.00623-.009.011399-.0155.015503-.0196.00405-.004.010337-.01.019637-.016.00703-.005.015343-.009.022738-.0119.0065-.003.013932-.005.024288-.007.010178-.002.019092-.003.027388-.003.00829 0 .017208.001.027389.003.010356.002.01779.005.024288.007.00719.003.015578.007.022738.0119.00925.006.015544.0119.019637.016.00413.004.00978.0104.01602.0196h-.00103c.00314.005.00566.01.00827.015.00191.005.00175.006.00517.0155a.2646098.2646098 0 0 0 .2495972.17621h.5777425a.2646098.2646098 0 0 0 .2490804-.17621c.00289-.008.0028-.008.00465-.0129.00273-.006.00563-.0122.0093-.0176a.2646098.2646098 0 0 0 .0005168 0c.00623-.009.011399-.0155.015503-.0196.00405-.004.010337-.01.019637-.016.00703-.005.015343-.009.022738-.0119.0065-.003.013932-.005.024288-.007.010179-.002.019092-.003.027388-.003.00829 0 .017208.001.027388.003.010356.002.01779.005.024288.007.00719.003.015578.007.022738.0119.00925.006.015544.0119.019637.016.00413.004.00978.0104.01602.0196h-.0005167c.00288.004.00478.009.00723.014.0019.005.00251.006.0062.0165a.2646098.2646098 0 0 0 .2495972.17621h.5529378c.2885808 0 .5291667-.24058.5291667-.52916v-.28888a.2646098.2646098 0 0 0 -.1741496-.24856c-.011329-.004-.012308-.005-.018087-.007-.00491-.003-.00993-.005-.014469-.008-.00925-.006-.015544-.0114-.019637-.0155-.00413-.004-.00978-.0104-.01602-.0196h.0005167c-.00475-.007-.00929-.0153-.012402-.0227-.0027-.006-.00511-.0139-.00723-.0243-.00209-.0102-.0031-.0192-.0031-.0274 0-.008.00103-.0172.0031-.0274.00212-.0104.00456-.0179.00723-.0243.00312-.007.00715-.0157.011886-.0227a.2646098.2646098 0 0 0 .0005167 0c.00623-.009.011399-.0155.015503-.0196.00405-.004.010337-.01.019637-.016.00418-.003.00881-.005.013436-.007.00545-.002.00664-.002.01757-.006a.2646098.2646098 0 0 0 .1756998-.24908v-.57774a.2646098.2646098 0 0 0 -.1741496-.24908c-.012965-.005-.014974-.006-.020671-.008-.00403-.002-.00818-.004-.011886-.006-.00925-.006-.015544-.0114-.019637-.0155-.00401-.004-.00949-.0108-.015503-.0196l-.0005167-.00051c-.00461-.007-.00885-.015-.011886-.0222-.0027-.006-.00511-.0139-.00723-.0243-.00206-.0101-.0031-.0192-.0031-.0274 0-.008.00103-.0172.0031-.0274.00212-.0104.00456-.0179.00723-.0243.00312-.007.00715-.0157.011886-.0227a.2646098.2646098 0 0 0 .0005167 0c.00623-.009.011399-.0155.015503-.0196.00405-.004.010337-.01.019637-.016.00418-.003.00881-.005.013436-.007.00545-.002.00664-.002.01757-.006a.2646098.2646098 0 0 0 .1756998-.24908v-.57774a.2646098.2646098 0 0 0 -.1741496-.24908c-.012965-.005-.014974-.006-.020671-.008-.00403-.002-.00818-.004-.011886-.006-.00925-.006-.015544-.0114-.019637-.0155-.00401-.004-.00949-.0108-.015503-.0196l-.0005167-.00052c-.00461-.007-.00885-.015-.011886-.0222-.0027-.006-.00511-.0139-.00723-.0243-.00206-.0101-.0031-.0192-.0031-.0274 0-.008.00103-.0172.0031-.0274.00212-.0104.00456-.0179.00723-.0243.00312-.007.00715-.0157.011886-.0227a.2646098.2646098 0 0 0 .0005167 0c.00623-.009.011399-.0155.015503-.0196.00405-.004.010337-.01.019637-.016.00418-.003.00881-.005.013436-.007.00545-.002.00664-.002.01757-.006a.2646098.2646098 0 0 0 .1756998-.24908v-.57775a.2646098.2646098 0 0 0 -.1741496-.24908c-.012965-.005-.014974-.006-.020671-.008-.00403-.002-.00818-.004-.011886-.006-.00925-.006-.015544-.0114-.019637-.0155-.00401-.004-.00949-.0108-.015503-.0196l-.0005167-.00052c-.00461-.007-.00885-.015-.011886-.0222-.0027-.006-.00511-.0139-.00723-.0243-.00206-.0101-.0031-.0192-.0031-.0274 0-.008.00103-.0172.0031-.0274.00212-.0104.00456-.0179.00723-.0243.00312-.007.00715-.0157.011886-.0227a.2646098.2646098 0 0 0 .0005167 0c.00623-.009.011399-.0155.015503-.0196.00405-.004.010337-.01.019637-.016.00418-.003.00881-.005.013436-.007.00545-.002.00664-.002.01757-.006a.2646098.2646098 0 0 0 .1756998-.24908v-.57774a.2646098.2646098 0 0 0 -.1741496-.24908c-.012965-.005-.014974-.006-.020671-.008-.00403-.002-.00818-.004-.011886-.006-.00925-.006-.015544-.0114-.019637-.0155-.00401-.004-.00949-.0108-.015503-.0196l-.0005167-.00051c-.00461-.007-.00885-.015-.011886-.0222-.0027-.006-.00511-.0139-.00723-.0243-.00206-.0101-.0031-.0192-.0031-.0274 0-.008.00103-.0172.0031-.0274.00212-.0104.00456-.0179.00723-.0243.00312-.007.00715-.0157.011886-.0227a.2646098.2646098 0 0 0 .0005167 0c.00623-.009.011399-.0155.015503-.0196.00405-.004.010337-.01.019637-.016.00418-.003.00881-.005.013436-.007.00545-.002.00664-.002.01757-.006a.2646098.2646098 0 0 0 .1756998-.24908v-.28887c0-.28858-.2405859-.52916-.5291667-.52916h-.5534435a.2646098.2646098 0 0 0 -.2490804.17569c-.00355.01-.00372.0106-.00568.016-.00243.005-.00464.0104-.00775.015a.2646098.2646098 0 0 0 -.0005168 0c-.00623.009-.011399.0155-.015503.0196-.00405.004-.010337.009-.019637.0155-.00703.005-.015343.009-.022738.0124-.0065.003-.013932.005-.024288.007-.010179.002-.019093.003-.027388.003-.00829 0-.017208-.001-.027389-.003-.010356-.002-.01779-.005-.024288-.007-.00719-.003-.015578-.008-.022738-.0124-.00925-.006-.015544-.0114-.019637-.0155-.00413-.004-.00978-.0104-.01602-.0196h.0005167c-.00288-.004-.00478-.009-.00723-.014-.00191-.005-.00251-.006-.0062-.0165a.2646098.2646098 0 0 0 -.2496076-.17565h-.5777425a.2646098.2646098 0 0 0 -.2490805.17569c-.00355.01-.00372.0106-.00568.016-.00243.005-.00464.0104-.00775.015a.2646098.2646098 0 0 0 -.0005168 0c-.00623.009-.011399.0155-.015503.0196-.00405.004-.010337.009-.019637.0155-.00703.005-.015343.009-.022738.0124-.0065.003-.013932.005-.024288.007-.010179.002-.019092.003-.027389.003-.00829 0-.017208-.001-.027388-.003-.010356-.002-.01779-.005-.024288-.007-.00719-.003-.015578-.008-.022738-.0124-.00925-.006-.015544-.0114-.019637-.0155-.00413-.004-.00978-.0104-.01602-.0196h.0005167c-.00288-.004-.00478-.009-.00723-.014-.00191-.005-.00251-.006-.0062-.0165a.2646098.2646098 0 0 0 -.2496076-.17619h-.5777425a.2646098.2646098 0 0 0 -.2490805.17569c-.00355.01-.00372.0106-.00568.016-.00243.005-.00464.0104-.00775.015a.2646098.2646098 0 0 0 -.0005168 0c-.00623.009-.011399.0155-.015503.0196-.00405.004-.010337.009-.019637.0155-.00703.005-.015343.009-.022738.0124-.0065.003-.013932.005-.024288.007-.010179.002-.019092.003-.027389.003-.00829 0-.017208-.001-.027389-.003-.010356-.002-.01779-.005-.024288-.007-.00719-.003-.015578-.008-.022738-.0124-.00925-.006-.015544-.0114-.019637-.0155-.00413-.004-.00978-.0104-.01602-.0196h.0005167c-.00288-.004-.00478-.009-.00723-.014-.00191-.005-.00251-.006-.0062-.0165a.2646098.2646098 0 0 0 -.2496066-.17619h-.57774254a.2646098.2646098 0 0 0 -.2490804.17569c-.003545.01-.003719.0106-.005684.016-.002434.005-.004637.0104-.007751.015a.2646098.2646098 0 0 0 -.00051676 0c-.006234.009-.0113992.0155-.0155029.0196-.004053.004-.010337.009-.0196371.0155-.007033.005-.0153425.009-.0227376.0124-.006501.003-.0139321.005-.0242879.007-.0101785.002-.0190922.003-.0273885.003-.008295 0-.0172084-.001-.0273885-.003-.01035578-.002-.01778976-.005-.02428792-.007-.0071887-.003-.01557802-.008-.02273764-.0124-.0092392-.006-.015536-.0114-.01963704-.0155-.0041301-.004-.0097835-.0104-.01601969-.0196h.00051676c-.0028839-.004-.004782-.009-.0072347-.014-.001905-.005-.0025129-.006-.00620117-.0165a.2646098.2646098 0 0 0 -.24959718-.17621zm.52916668 1.05833h4.76250013v5.55625h-4.76250013zm2.49648853 1.5875c-.3186401.008-.5799434.24004-.6340699.54467-.04587-.01-.093675-.0155-.1426269-.0155-.3664472 0-.66145837.295-.66145837.66145 0 .0489.005507.0967.0155029.14263h-.00051677c-.31006725.0551-.54415284.32475-.54415284.65112 0 .36644.29501117.66146.66145835.66146h2.11666673.026355v-.00051c.5006405-.014.8996867-.42139.8996867-.92553 0-.51302-.4130171-.92604-.9260417-.92604-.050463 0-.100082.004-.1483114.0119.010223-.0464.01602-.0947.01602-.14417 0-.36645-.2950111-.66146-.6614583-.66146-.00573 0-.011363-.00014-.017053 0z" fill-opacity=".15" transform="matrix(3.77952744571 0 0 3.77952744571 24.0000187858 -1073.51762845972)"/><path d="m-.79375021 290.91458c-.28858079 0-.52916669.24058-.52916669.52916v.28887a.2646098.2646098 0 0 0 .1741496.24857c.011475.004.01282.005.018603.007.00475.002.00957.004.013953.007.00924.006.015536.0119.019637.016.00413.004.00978.0104.01602.0196h-.0005168c.00475.007.00929.0153.012402.0227.0027.006.00511.0139.00723.0243.00206.0102.0031.0192.0031.0274 0 .008-.00103.0172-.0031.0274-.00212.0104-.00456.0179-.00723.0243-.00312.007-.00715.0157-.011886.0227a.2646098.2646098 0 0 0 -.0005168 0c-.00623.009-.011399.0155-.015503.0196-.00405.004-.010337.009-.019637.0155-.00414.003-.00885.005-.013436.007-.00545.002-.00658.002-.01757.006a.2646098.2646098 0 0 0 -.1756999.2496v.57774a.2646098.2646098 0 0 0 .1741496.24856c.011475.004.01282.005.018603.007.00475.002.00957.004.013953.007.00924.006.015536.0119.019637.016.00413.004.00978.0104.01602.0196h-.0005168c.00475.007.00929.0154.012402.0227.0027.006.00511.0139.00723.0243.00206.0102.0031.0191.0031.0274 0 .008-.00103.0172-.0031.0274-.00212.0104-.00456.0179-.00723.0243-.00312.007-.00715.0157-.011886.0227a.2646098.2646098 0 0 0 -.0005168 0c-.00623.009-.011399.0155-.015503.0196-.00405.004-.010337.009-.019637.0155-.00414.003-.00885.005-.013436.007-.00545.002-.00658.002-.01757.006a.2646098.2646098 0 0 0 -.1756999.24959v.57775a.2646098.2646098 0 0 0 .1741496.24856c.011475.004.01282.005.018603.007.00475.002.00957.004.013953.007.00924.006.015536.012.019637.016.00413.004.00978.0104.01602.0196h-.0005168c.00475.007.00929.0154.012402.0227.0027.006.00511.0139.00723.0243.00206.0102.0031.0192.0031.0274 0 .008-.00103.0172-.0031.0274-.00212.0104-.00456.0179-.00723.0243-.00312.007-.00715.0157-.011886.0227a.2646098.2646098 0 0 0 -.0005168 0c-.00623.009-.011399.0155-.015503.0196-.00405.004-.010337.009-.019637.0155-.00414.003-.00885.005-.013436.007-.00545.002-.00658.002-.01757.006a.2646098.2646098 0 0 0 -.1756999.2496v.57774a.2646098.2646098 0 0 0 .1741496.24857c.011475.004.01282.005.018603.007.00475.002.00957.004.013953.007.00924.006.015536.0119.019637.016.00413.004.00978.0104.01602.0196h-.0005168c.00475.007.00929.0153.012402.0227.0027.006.00511.0139.00723.0243.00206.0102.0031.0192.0031.0274 0 .008-.00103.0172-.0031.0274-.00212.0104-.00456.0179-.00723.0243-.00312.007-.00715.0157-.011886.0227a.2646098.2646098 0 0 0 -.0005168 0c-.00623.009-.011399.0155-.015503.0196-.00405.004-.010337.009-.019637.0155-.00414.003-.00885.005-.013436.007-.00545.002-.00658.002-.01757.006a.2646098.2646098 0 0 0 -.1756999.2496v.57774a.2646098.2646098 0 0 0 .1741496.24856c.011475.004.01282.005.018603.007.00475.002.00957.004.013953.007.00924.006.015536.0119.019637.016.00413.004.00978.0104.01602.0196h-.0005168c.00475.007.00929.0154.012402.0227.0027.006.00511.0139.00723.0243.00206.0102.0031.0191.0031.0274 0 .008-.00103.0172-.0031.0274-.00212.0104-.00456.0179-.00723.0243-.00312.007-.00715.0157-.011886.0227a.2646098.2646098 0 0 0 -.0005168 0c-.00623.009-.011399.0155-.015503.0196-.00405.004-.010337.009-.019637.0155-.00414.003-.00885.005-.013436.007-.00545.002-.00658.002-.01757.006a.2646098.2646098 0 0 0 -.1756999.24959v.28888c0 .28858.2405859.52916.52916669.52916h.5534546a.2646098.2646098 0 0 0 .24908041-.17621c.0037174-.0105.00422209-.0112.00620118-.0165.0023283-.005.0043349-.01.0072347-.014a.2646098.2646098 0 0 0 .00051676 0c.0062336-.009.01139925-.0155.01550293-.0196.0040534-.004.01033695-.01.01963704-.016.0070326-.005.01534254-.009.02273764-.0119.0065008-.003.01393214-.005.02428792-.007.0101785-.002.0190922-.003.0273885-.003.008295 0 .0172084.001.0273885.003.0103558.002.0177898.005.0242879.007.007191.003.015578.007.0227376.0119.009252.006.015544.0119.0196371.016.00413.004.009783.0104.0160197.0196h-.00051676c.003143.005.005665.01.008268.015.001905.005.001747.006.005168.0155a.2646098.2646098 0 0 0 .24959717.17621h.57774692a.2646098.2646098 0 0 0 .2490804-.17621c.00372-.0105.00422-.0112.0062-.0165.00233-.005.00433-.01.00723-.014a.2646098.2646098 0 0 0 .0005167 0c.00623-.009.011399-.0155.015503-.0196.00405-.004.010337-.01.019637-.016.00703-.005.015343-.009.022738-.0119.0065-.003.013932-.005.024288-.007.010179-.002.019092-.003.027389-.003.00829 0 .017208.001.027389.003.010356.002.01779.005.024288.007.00719.003.015578.007.022738.0119.00925.006.015544.0119.019637.016.00413.004.00978.0104.01602.0196h-.0005168c.00314.005.00566.01.00827.015.00191.005.00175.006.00517.0155a.2646098.2646098 0 0 0 .2495972.17621h.5777425a.2646098.2646098 0 0 0 .2490804-.17621c.00372-.0105.00422-.0112.0062-.0165.00233-.005.00433-.01.00723-.014a.2646098.2646098 0 0 0 .00103 0c.00623-.009.011399-.0155.015503-.0196.00405-.004.010337-.01.019637-.016.00703-.005.015343-.009.022738-.0119.0065-.003.013932-.005.024288-.007.010178-.002.019092-.003.027388-.003.00829 0 .017208.001.027389.003.010356.002.01779.005.024288.007.00719.003.015578.007.022738.0119.00925.006.015544.0119.019637.016.00413.004.00978.0104.01602.0196h-.00103c.00314.005.00566.01.00827.015.00191.005.00175.006.00517.0155a.2646098.2646098 0 0 0 .2495972.17621h.5777425a.2646098.2646098 0 0 0 .2490804-.17621c.00289-.008.0028-.008.00465-.0129.00273-.006.00563-.0122.0093-.0176a.2646098.2646098 0 0 0 .0005168 0c.00623-.009.011399-.0155.015503-.0196.00405-.004.010337-.01.019637-.016.00703-.005.015343-.009.022738-.0119.0065-.003.013932-.005.024288-.007.010179-.002.019092-.003.027388-.003.00829 0 .017208.001.027388.003.010356.002.01779.005.024288.007.00719.003.015578.007.022738.0119.00925.006.015544.0119.019637.016.00413.004.00978.0104.01602.0196h-.0005167c.00288.004.00478.009.00723.014.0019.005.00251.006.0062.0165a.2646098.2646098 0 0 0 .2495972.17621h.5529378c.2885808 0 .5291667-.24058.5291667-.52916v-.28888a.2646098.2646098 0 0 0 -.1741496-.24856c-.011329-.004-.012308-.005-.018087-.007-.00491-.003-.00993-.005-.014469-.008-.00925-.006-.015544-.0114-.019637-.0155-.00413-.004-.00978-.0104-.01602-.0196h.0005167c-.00475-.007-.00929-.0153-.012402-.0227-.0027-.006-.00511-.0139-.00723-.0243-.00209-.0102-.0031-.0192-.0031-.0274 0-.008.00103-.0172.0031-.0274.00212-.0104.00456-.0179.00723-.0243.00312-.007.00715-.0157.011886-.0227a.2646098.2646098 0 0 0 .0005167 0c.00623-.009.011399-.0155.015503-.0196.00405-.004.010337-.01.019637-.016.00418-.003.00881-.005.013436-.007.00545-.002.00664-.002.01757-.006a.2646098.2646098 0 0 0 .1756998-.24908v-.57774a.2646098.2646098 0 0 0 -.1741496-.24908c-.012965-.005-.014974-.006-.020671-.008-.00403-.002-.00818-.004-.011886-.006-.00925-.006-.015544-.0114-.019637-.0155-.00401-.004-.00949-.0108-.015503-.0196l-.0005167-.00051c-.00461-.007-.00885-.015-.011886-.0222-.0027-.006-.00511-.0139-.00723-.0243-.00206-.0101-.0031-.0192-.0031-.0274 0-.008.00103-.0172.0031-.0274.00212-.0104.00456-.0179.00723-.0243.00312-.007.00715-.0157.011886-.0227a.2646098.2646098 0 0 0 .0005167 0c.00623-.009.011399-.0155.015503-.0196.00405-.004.010337-.01.019637-.016.00418-.003.00881-.005.013436-.007.00545-.002.00664-.002.01757-.006a.2646098.2646098 0 0 0 .1756998-.24908v-.57774a.2646098.2646098 0 0 0 -.1741496-.24908c-.012965-.005-.014974-.006-.020671-.008-.00403-.002-.00818-.004-.011886-.006-.00925-.006-.015544-.0114-.019637-.0155-.00401-.004-.00949-.0108-.015503-.0196l-.0005167-.00052c-.00461-.007-.00885-.015-.011886-.0222-.0027-.006-.00511-.0139-.00723-.0243-.00206-.0101-.0031-.0192-.0031-.0274 0-.008.00103-.0172.0031-.0274.00212-.0104.00456-.0179.00723-.0243.00312-.007.00715-.0157.011886-.0227a.2646098.2646098 0 0 0 .0005167 0c.00623-.009.011399-.0155.015503-.0196.00405-.004.010337-.01.019637-.016.00418-.003.00881-.005.013436-.007.00545-.002.00664-.002.01757-.006a.2646098.2646098 0 0 0 .1756998-.24908v-.57775a.2646098.2646098 0 0 0 -.1741496-.24908c-.012965-.005-.014974-.006-.020671-.008-.00403-.002-.00818-.004-.011886-.006-.00925-.006-.015544-.0114-.019637-.0155-.00401-.004-.00949-.0108-.015503-.0196l-.0005167-.00052c-.00461-.007-.00885-.015-.011886-.0222-.0027-.006-.00511-.0139-.00723-.0243-.00206-.0101-.0031-.0192-.0031-.0274 0-.008.00103-.0172.0031-.0274.00212-.0104.00456-.0179.00723-.0243.00312-.007.00715-.0157.011886-.0227a.2646098.2646098 0 0 0 .0005167 0c.00623-.009.011399-.0155.015503-.0196.00405-.004.010337-.01.019637-.016.00418-.003.00881-.005.013436-.007.00545-.002.00664-.002.01757-.006a.2646098.2646098 0 0 0 .1756998-.24908v-.57774a.2646098.2646098 0 0 0 -.1741496-.24908c-.012965-.005-.014974-.006-.020671-.008-.00403-.002-.00818-.004-.011886-.006-.00925-.006-.015544-.0114-.019637-.0155-.00401-.004-.00949-.0108-.015503-.0196l-.0005167-.00051c-.00461-.007-.00885-.015-.011886-.0222-.0027-.006-.00511-.0139-.00723-.0243-.00206-.0101-.0031-.0192-.0031-.0274 0-.008.00103-.0172.0031-.0274.00212-.0104.00456-.0179.00723-.0243.00312-.007.00715-.0157.011886-.0227a.2646098.2646098 0 0 0 .0005167 0c.00623-.009.011399-.0155.015503-.0196.00405-.004.010337-.01.019637-.016.00418-.003.00881-.005.013436-.007.00545-.002.00664-.002.01757-.006a.2646098.2646098 0 0 0 .1756998-.24908v-.28887c0-.28858-.2405859-.52916-.5291667-.52916h-.5534435a.2646098.2646098 0 0 0 -.2490804.17569c-.00355.01-.00372.0106-.00568.016-.00243.005-.00464.0104-.00775.015a.2646098.2646098 0 0 0 -.0005168 0c-.00623.009-.011399.0155-.015503.0196-.00405.004-.010337.009-.019637.0155-.00703.005-.015343.009-.022738.0124-.0065.003-.013932.005-.024288.007-.010179.002-.019093.003-.027388.003-.00829 0-.017208-.001-.027389-.003-.010356-.002-.01779-.005-.024288-.007-.00719-.003-.015578-.008-.022738-.0124-.00925-.006-.015544-.0114-.019637-.0155-.00413-.004-.00978-.0104-.01602-.0196h.0005167c-.00288-.004-.00478-.009-.00723-.014-.00191-.005-.00251-.006-.0062-.0165a.2646098.2646098 0 0 0 -.2496076-.17565h-.5777425a.2646098.2646098 0 0 0 -.2490805.17569c-.00355.01-.00372.0106-.00568.016-.00243.005-.00464.0104-.00775.015a.2646098.2646098 0 0 0 -.0005168 0c-.00623.009-.011399.0155-.015503.0196-.00405.004-.010337.009-.019637.0155-.00703.005-.015343.009-.022738.0124-.0065.003-.013932.005-.024288.007-.010179.002-.019092.003-.027389.003-.00829 0-.017208-.001-.027388-.003-.010356-.002-.01779-.005-.024288-.007-.00719-.003-.015578-.008-.022738-.0124-.00925-.006-.015544-.0114-.019637-.0155-.00413-.004-.00978-.0104-.01602-.0196h.0005167c-.00288-.004-.00478-.009-.00723-.014-.00191-.005-.00251-.006-.0062-.0165a.2646098.2646098 0 0 0 -.2496076-.17619h-.5777425a.2646098.2646098 0 0 0 -.2490805.17569c-.00355.01-.00372.0106-.00568.016-.00243.005-.00464.0104-.00775.015a.2646098.2646098 0 0 0 -.0005168 0c-.00623.009-.011399.0155-.015503.0196-.00405.004-.010337.009-.019637.0155-.00703.005-.015343.009-.022738.0124-.0065.003-.013932.005-.024288.007-.010179.002-.019092.003-.027389.003-.00829 0-.017208-.001-.027389-.003-.010356-.002-.01779-.005-.024288-.007-.00719-.003-.015578-.008-.022738-.0124-.00925-.006-.015544-.0114-.019637-.0155-.00413-.004-.00978-.0104-.01602-.0196h.0005167c-.00288-.004-.00478-.009-.00723-.014-.00191-.005-.00251-.006-.0062-.0165a.2646098.2646098 0 0 0 -.2496066-.17619h-.57774254a.2646098.2646098 0 0 0 -.2490804.17569c-.003545.01-.003719.0106-.005684.016-.002434.005-.004637.0104-.007751.015a.2646098.2646098 0 0 0 -.00051676 0c-.006234.009-.0113992.0155-.0155029.0196-.004053.004-.010337.009-.0196371.0155-.007033.005-.0153425.009-.0227376.0124-.006501.003-.0139321.005-.0242879.007-.0101785.002-.0190922.003-.0273885.003-.008295 0-.0172084-.001-.0273885-.003-.01035578-.002-.01778976-.005-.02428792-.007-.0071887-.003-.01557802-.008-.02273764-.0124-.0092392-.006-.015536-.0114-.01963704-.0155-.0041301-.004-.0097835-.0104-.01601969-.0196h.00051676c-.0028839-.004-.004782-.009-.0072347-.014-.001905-.005-.0025129-.006-.00620117-.0165a.2646098.2646098 0 0 0 -.24959718-.17621zm.52916668 1.05833h4.76250013v5.55625h-4.76250013zm2.49648853 1.5875c-.3186401.008-.5799434.24004-.6340699.54467-.04587-.01-.093675-.0155-.1426269-.0155-.3664472 0-.66145837.295-.66145837.66145 0 .0489.005507.0967.0155029.14263h-.00051677c-.31006725.0551-.54415284.32475-.54415284.65112 0 .36644.29501117.66146.66145835.66146h2.11666673.026355v-.00051c.5006405-.014.8996867-.42139.8996867-.92553 0-.51302-.4130171-.92604-.9260417-.92604-.050463 0-.100082.004-.1483114.0119.010223-.0464.01602-.0947.01602-.14417 0-.36645-.2950111-.66146-.6614583-.66146-.00573 0-.011363-.00014-.017053 0z" fill="url(#a)" transform="matrix(3.77952744571 0 0 3.77952744571 24.0000197858 -1074.51759845972)"/></g></svg>
