<svg height="64" viewBox="0 0 64 64" width="64" xmlns="http://www.w3.org/2000/svg" xmlns:xlink="http://www.w3.org/1999/xlink"><defs id="antufoldercolor">
    <style type="text/css" id="current-color-scheme">
      .ColorScheme-Highlight {
        color:#45aaf5;
      }
      </style>
  </defs><linearGradient id="a" gradientUnits="userSpaceOnUse" x1="28.002909" x2="28.002909" y1="48.00196" y2="28.00196"><stop offset="0" stop-color="#fff" stop-opacity=".7"/><stop offset="1" stop-color="#fff" stop-opacity=".85"/></linearGradient><linearGradient id="b" gradientUnits="userSpaceOnUse" x1="57.461354" x2="57.414582" y1="19.239911" y2="13.493815"><stop offset="0" stop-color="#fff" stop-opacity=".2"/><stop offset="1" stop-color="#fff" stop-opacity="0"/></linearGradient><linearGradient id="c" gradientUnits="userSpaceOnUse" x1="62.706249" x2="62.706249" y1="28.839648" y2="15.610481"><stop offset="0" stop-color="#fff" stop-opacity="0"/><stop offset="1" stop-color="#fff" stop-opacity=".2"/></linearGradient><g transform="matrix(3.7795276 0 0 3.7795276 -205 -48.00025)"><path d="m55.827082 13.229234c-1.058333 0-1.5875.79375-1.5875 1.5875v12.964583c0 .728316.594597 1.322917 1.322917 1.322917h14.287499c.72832 0 1.322917-.594601 1.322917-1.322917v-11.1125c0-.728321-.594597-1.322916-1.322917-1.322916h-7.143749c-.08084 0-.177145-.05802-.313676-.230476-.136532-.172461-.284153-.432528-.45372-.703834-.169566-.271307-.362414-.555837-.6196-.784447-.257185-.228611-.59297-.39791-.994254-.39791z" style="fill:currentColor"
class="ColorScheme-Highlight"/><path d="m55.827083 13.493817h4.497916c1.322917 0 1.5875 2.116667 2.38125 2.116667h7.14375c.586317 0 1.058334.472017 1.058334 1.058333v11.1125c0 .586317-.472017 1.058334-1.058334 1.058334h-14.287499c-.586317 0-1.058334-.472017-1.058334-1.058334v-12.95913c0-.7992.529167-1.32837 1.322917-1.32837z" fill-opacity=".1"/><path d="m55.827082 13.493815h4.497916c1.322917 0 1.587501 2.116666 2.381251 2.116666h7.143749c.586317 0 1.058334.472017 1.058334 1.058334v11.1125c0 .586316-.472017 1.058333-1.058334 1.058333h-14.287499c-.586317 0-1.058334-.472017-1.058334-1.058333v-12.959131c0-.7992.529167-1.328369 1.322917-1.328369z" fill="url(#b)"/><path d="m55.827082 13.229232c-1.058331 0-1.5875.793753-1.5875 1.5875v12.964583c0 .728316.594598 1.322917 1.322917 1.322917h14.287499c.728319 0 1.322917-.594601 1.322917-1.322917v-11.1125c0-.728318-.594598-1.322916-1.322917-1.322916h-7.14375c-.08084 0-.177143-.05801-.313676-.230476-.136531-.172461-.284152-.432528-.453718-.703834-.169567-.271307-.362416-.555837-.619602-.784447-.257183-.228611-.592968-.39791-.994254-.39791zm0 .264583h4.497916c1.322917 0 1.5875 2.116667 2.38125 2.116667h7.14375c.586316 0 1.058334.472017 1.058334 1.058333v11.1125c0 .586317-.472018 1.058334-1.058334 1.058334h-14.287499c-.586317 0-1.058334-.472017-1.058334-1.058334v-12.958897c0-.7992.529167-1.328603 1.322917-1.328603z" fill-opacity=".15"/><path d="m62.706249 15.345901c-.31603 0-.55046.206568-.728121.430982-.177662.224414-.327696.493514-.488859.751374-.161163.257861-.332117.502497-.521415.670761-.189299.168265-.382682.263549-.642855.263549h-4.7625c-.72832 0-1.322917.594596-1.322917 1.322917v8.995833c0 .728316.594597 1.322917 1.322917 1.322917h14.287499c.72832 0 1.322917-.594601 1.322917-1.322917v-11.1125c0-.728321-.594597-1.322916-1.322917-1.322916z" style="fill:currentColor"
class="ColorScheme-Highlight"/><path d="m55.562499 17.727148h4.762499c1.322917 0 1.587501-2.116667 2.381251-2.116667h7.143749c.586317 0 1.058334.472017 1.058334 1.058334v11.1125c0 .586316-.472017 1.058333-1.058334 1.058333h-14.287499c-.586317 0-1.058334-.472017-1.058334-1.058333v-8.995834c0-.586316.472017-1.058333 1.058334-1.058333z" fill="url(#c)"/><path d="m62.706248 15.345898c-.31603 0-.55046.206568-.728121.430982s-.327697.493514-.488859.751374c-.161163.257861-.332117.502497-.521415.670761-.189299.168265-.382682.263549-.642855.263549h-4.7625c-.728319 0-1.322917.594596-1.322917 1.322917v8.995833c0 .728316.594598 1.322917 1.322917 1.322917h14.287499c.728319 0 1.322919-.594601 1.322919-1.322917v-11.1125c0-.728321-.5946-1.322916-1.322919-1.322916zm0 .264583h7.143749c.586317 0 1.058334.472017 1.058334 1.058333v11.1125c0 .586317-.472017 1.058333-1.058334 1.058333h-14.287499c-.586316 0-1.058334-.472016-1.058334-1.058333v-8.995833c0-.586317.472018-1.058333 1.058334-1.058333h4.7625c1.322915 0 1.5875-2.116667 2.38125-2.116667z" fill-opacity=".15"/></g><path d="m15.063019 30.000214c-2.357653-.0145-4.644595.80459-6.4570313 2.3125-3.567251 2.967-4.625057 7.99805-2.554688 12.15039 2.070499 4.15264 6.7256193 6.33544 11.2421883 5.27149 4.516207-1.0639 7.707407-5.09455 7.707031-9.73438h-10l6.017578-7.98632c-1.716954-1.29392-3.8052-2.00005-5.955078-2.01368zm35.93989.0019c-4.432003 0-8 3.568-8 8v2 9l2-2 2 1.99986 2-1.99986 2 1.99986 2-1.99986 2 2 2-2 2 2v-9-2c0-4.432-3.567997-8-8-8zm-40.00239 4.99808c1.108 0 2 .892 2 2 0 1.10801-.892 2-2 2-1.1080003 0-2.0000003-.89199-2.0000003-2 0-1.108.892-2 2.0000003-2zm36.50239.002c.830999 0 1.5.669 1.5 1.5s-.669001 1.5-1.5 1.5c-.831005 0-1.5-.669-1.5-1.5s.668995-1.5 1.5-1.5zm7 0c.830999 0 1.5.66899 1.5 1.5 0 .831-.669001 1.5-1.5 1.5-.831006 0-1.5-.669-1.5-1.5 0-.83101.668994-1.5 1.5-1.5zm-24.501999 2.998c-1.108 0-2 .892-2 2s.892 2 2 2 2-.892 2-2-.892-2-2-2zm8 0c-1.108 0-2 .892-2 2s.892 2 2 2 2-.892 2-2-.892-2-2-2z" fill-opacity=".15"/><path d="m15.063019 29.000189c-2.357653-.0145-4.644595.80459-6.4570313 2.3125-3.567251 2.967-4.625057 7.99805-2.554688 12.15039 2.070499 4.15264 6.7256193 6.33544 11.2421883 5.27149 4.516207-1.0639 7.707407-5.09455 7.707031-9.73438h-10l6.017578-7.98632c-1.716954-1.29392-3.8052-2.00005-5.955078-2.01368zm35.93989.0019c-4.432003 0-8 3.568-8 8v2 9l2-2 2 1.99986 2-1.99986 2 1.99986 2-1.99986 2 2 2-2 2 2v-9-2c0-4.432-3.567997-8-8-8zm-40.00239 4.99808c1.108 0 2 .892 2 2 0 1.10801-.892 2-2 2-1.1080003 0-2.0000003-.89199-2.0000003-2 0-1.108.892-2 2.0000003-2zm36.50239.002c.830999 0 1.5.669 1.5 1.5s-.669001 1.5-1.5 1.5c-.831005 0-1.5-.669-1.5-1.5s.668995-1.5 1.5-1.5zm7 0c.830999 0 1.5.66899 1.5 1.5 0 .831-.669001 1.5-1.5 1.5-.831006 0-1.5-.669-1.5-1.5 0-.83101.668994-1.5 1.5-1.5zm-24.501999 2.998c-1.108 0-2 .892-2 2s.892 2 2 2 2-.892 2-2-.892-2-2-2zm8 0c-1.108 0-2 .892-2 2s.892 2 2 2 2-.892 2-2-.892-2-2-2z" fill="url(#a)"/></svg>
