<svg height="64" viewBox="0 0 64 64" width="64" xmlns="http://www.w3.org/2000/svg" xmlns:xlink="http://www.w3.org/1999/xlink"><defs id="antufoldercolor">
    <style type="text/css" id="current-color-scheme">
      .ColorScheme-Highlight {
        color:#45aaf5;
      }
      </style>
  </defs><linearGradient id="a" gradientUnits="userSpaceOnUse" x1="53.000002" x2="53.000002" y1="293.650595" y2="283.650683"><stop offset="0" stop-color="#fff" stop-opacity=".7"/><stop offset="1" stop-color="#fff" stop-opacity=".85"/></linearGradient><linearGradient id="b" gradientUnits="userSpaceOnUse" x1="57.461354" x2="57.414582" y1="19.239911" y2="13.493815"><stop offset="0" stop-color="#fff" stop-opacity=".2"/><stop offset="1" stop-color="#fff" stop-opacity="0"/></linearGradient><linearGradient id="c" gradientUnits="userSpaceOnUse" x1="62.706249" x2="62.706249" y1="28.839648" y2="15.610481"><stop offset="0" stop-color="#fff" stop-opacity="0"/><stop offset="1" stop-color="#fff" stop-opacity=".2"/></linearGradient><g transform="matrix(3.7795276 0 0 3.7795276 -205 -48.00025)"><path d="m55.827082 13.229234c-1.058333 0-1.5875.79375-1.5875 1.5875v12.964583c0 .728316.594597 1.322917 1.322917 1.322917h14.287499c.72832 0 1.322917-.594601 1.322917-1.322917v-11.1125c0-.728321-.594597-1.322916-1.322917-1.322916h-7.143749c-.08084 0-.177145-.05802-.313676-.230476-.136532-.172461-.284153-.432528-.45372-.703834-.169566-.271307-.362414-.555837-.6196-.784447-.257185-.228611-.59297-.39791-.994254-.39791z" style="fill:currentColor"
class="ColorScheme-Highlight"/><path d="m55.827083 13.493817h4.497916c1.322917 0 1.5875 2.116667 2.38125 2.116667h7.14375c.586317 0 1.058334.472017 1.058334 1.058333v11.1125c0 .586317-.472017 1.058334-1.058334 1.058334h-14.287499c-.586317 0-1.058334-.472017-1.058334-1.058334v-12.95913c0-.7992.529167-1.32837 1.322917-1.32837z" fill-opacity=".1"/><path d="m55.827082 13.493815h4.497916c1.322917 0 1.587501 2.116666 2.381251 2.116666h7.143749c.586317 0 1.058334.472017 1.058334 1.058334v11.1125c0 .586316-.472017 1.058333-1.058334 1.058333h-14.287499c-.586317 0-1.058334-.472017-1.058334-1.058333v-12.959131c0-.7992.529167-1.328369 1.322917-1.328369z" fill="url(#b)"/><path d="m55.827082 13.229232c-1.058331 0-1.5875.793753-1.5875 1.5875v12.964583c0 .728316.594598 1.322917 1.322917 1.322917h14.287499c.728319 0 1.322917-.594601 1.322917-1.322917v-11.1125c0-.728318-.594598-1.322916-1.322917-1.322916h-7.14375c-.08084 0-.177143-.05801-.313676-.230476-.136531-.172461-.284152-.432528-.453718-.703834-.169567-.271307-.362416-.555837-.619602-.784447-.257183-.228611-.592968-.39791-.994254-.39791zm0 .264583h4.497916c1.322917 0 1.5875 2.116667 2.38125 2.116667h7.14375c.586316 0 1.058334.472017 1.058334 1.058333v11.1125c0 .586317-.472018 1.058334-1.058334 1.058334h-14.287499c-.586317 0-1.058334-.472017-1.058334-1.058334v-12.958897c0-.7992.529167-1.328603 1.322917-1.328603z" fill-opacity=".15"/><path d="m62.706249 15.345901c-.31603 0-.55046.206568-.728121.430982-.177662.224414-.327696.493514-.488859.751374-.161163.257861-.332117.502497-.521415.670761-.189299.168265-.382682.263549-.642855.263549h-4.7625c-.72832 0-1.322917.594596-1.322917 1.322917v8.995833c0 .728316.594597 1.322917 1.322917 1.322917h14.287499c.72832 0 1.322917-.594601 1.322917-1.322917v-11.1125c0-.728321-.594597-1.322916-1.322917-1.322916z" style="fill:currentColor"
class="ColorScheme-Highlight"/><path d="m55.562499 17.727148h4.762499c1.322917 0 1.587501-2.116667 2.381251-2.116667h7.143749c.586317 0 1.058334.472017 1.058334 1.058334v11.1125c0 .586316-.472017 1.058333-1.058334 1.058333h-14.287499c-.586317 0-1.058334-.472017-1.058334-1.058333v-8.995834c0-.586316.472017-1.058333 1.058334-1.058333z" fill="url(#c)"/><path d="m62.706248 15.345898c-.31603 0-.55046.206568-.728121.430982s-.327697.493514-.488859.751374c-.161163.257861-.332117.502497-.521415.670761-.189299.168265-.382682.263549-.642855.263549h-4.7625c-.728319 0-1.322917.594596-1.322917 1.322917v8.995833c0 .728316.594598 1.322917 1.322917 1.322917h14.287499c.728319 0 1.322919-.594601 1.322919-1.322917v-11.1125c0-.728321-.5946-1.322916-1.322919-1.322916zm0 .264583h7.143749c.586317 0 1.058334.472017 1.058334 1.058333v11.1125c0 .586317-.472017 1.058333-1.058334 1.058333h-14.287499c-.586316 0-1.058334-.472016-1.058334-1.058333v-8.995833c0-.586317.472018-1.058333 1.058334-1.058333h4.7625c1.322915 0 1.5875-2.116667 2.38125-2.116667z" fill-opacity=".15"/></g><g transform="translate(-20 -245.64977)"><path d="m55 275.65073c-3.65034 0-6.708468 2.4219-7.675781 5.75196-.655271-.46875-1.453597-.75193-2.324219-.75193-2.216 0-4 1.78397-4 3.99997 0 .008.0019.0151.002.0227-2.811786.25021-5.002 2.5976-5.002 5.47658 0 3.04699 2.453 5.5 5.5 5.5.168681 0 .335278-.008.5-.0227v.0227h19.999999c3.324 0 6-2.67601 6-6 0-2.9839-2.15811-5.43961-5.003906-5.91212.000322-.0302.0038-.0582.0038-.0881-.00002-4.43203-3.568019-8.00002-8.00002-8.00002z" fill-opacity=".15"/><path d="m55 274.65073c-3.650339 0-6.708467 2.42187-7.67578 5.75195-.655271-.46874-1.453598-.75194-2.32422-.75194-2.215999 0-3.999999 1.78398-3.999999 3.99999 0 .008.0019.0151.002.0227-2.811787.2502-5.002 2.59759-5.002 5.47657 0 3.04698 2.452999 5.50001 5.5 5.50001.16868 0 .335278-.008.499999-.0227v.0227h19.999999c3.324 0 6-2.67602 6-6 0-2.9839-2.15811-5.43962-5.003905-5.91213.000321-.0302.0038-.0582.0038-.0881 0-4.43203-3.567998-8.00001-8-8.00001z" fill="url(#a)"/></g></svg>
