<svg height="64" viewBox="0 0 64 64" width="64" xmlns="http://www.w3.org/2000/svg" xmlns:xlink="http://www.w3.org/1999/xlink"><defs id="antufoldercolor">
    <style type="text/css" id="current-color-scheme">
      .ColorScheme-Highlight {
        color:#45aaf5;
      }
      </style>
  </defs><linearGradient id="a" gradientUnits="userSpaceOnUse" x1="40.00043467612" x2="39.00043372793" y1="54.53595702258" y2="30.53596871053"><stop offset="0" stop-color="#fff" stop-opacity=".7"/><stop offset="1" stop-color="#fff" stop-opacity=".85"/></linearGradient><linearGradient id="b" gradientUnits="userSpaceOnUse" x1="57.461354" x2="57.414582" y1="19.239911" y2="13.493815"><stop offset="0" stop-color="#fff" stop-opacity=".2"/><stop offset="1" stop-color="#fff" stop-opacity="0"/></linearGradient><linearGradient id="c" gradientUnits="userSpaceOnUse" x1="62.706249" x2="62.706249" y1="28.839648" y2="15.610481"><stop offset="0" stop-color="#fff" stop-opacity="0"/><stop offset="1" stop-color="#fff" stop-opacity=".2"/></linearGradient><g transform="matrix(3.7795276 0 0 3.7795276 -205 -48.00025)"><path d="m55.827082 13.229234c-1.058333 0-1.5875.79375-1.5875 1.5875v12.964583c0 .728316.594597 1.322917 1.322917 1.322917h14.287499c.72832 0 1.322917-.594601 1.322917-1.322917v-11.1125c0-.728321-.594597-1.322916-1.322917-1.322916h-7.143749c-.08084 0-.177145-.05802-.313676-.230476-.136532-.172461-.284153-.432528-.45372-.703834-.169566-.271307-.362414-.555837-.6196-.784447-.257185-.228611-.59297-.39791-.994254-.39791z" style="fill:currentColor"
class="ColorScheme-Highlight"/><path d="m55.827083 13.493817h4.497916c1.322917 0 1.5875 2.116667 2.38125 2.116667h7.14375c.586317 0 1.058334.472017 1.058334 1.058333v11.1125c0 .586317-.472017 1.058334-1.058334 1.058334h-14.287499c-.586317 0-1.058334-.472017-1.058334-1.058334v-12.95913c0-.7992.529167-1.32837 1.322917-1.32837z" fill-opacity=".1"/><path d="m55.827082 13.493815h4.497916c1.322917 0 1.587501 2.116666 2.381251 2.116666h7.143749c.586317 0 1.058334.472017 1.058334 1.058334v11.1125c0 .586316-.472017 1.058333-1.058334 1.058333h-14.287499c-.586317 0-1.058334-.472017-1.058334-1.058333v-12.959131c0-.7992.529167-1.328369 1.322917-1.328369z" fill="url(#b)"/><path d="m55.827082 13.229232c-1.058331 0-1.5875.793753-1.5875 1.5875v12.964583c0 .728316.594598 1.322917 1.322917 1.322917h14.287499c.728319 0 1.322917-.594601 1.322917-1.322917v-11.1125c0-.728318-.594598-1.322916-1.322917-1.322916h-7.14375c-.08084 0-.177143-.05801-.313676-.230476-.136531-.172461-.284152-.432528-.453718-.703834-.169567-.271307-.362416-.555837-.619602-.784447-.257183-.228611-.592968-.39791-.994254-.39791zm0 .264583h4.497916c1.322917 0 1.5875 2.116667 2.38125 2.116667h7.14375c.586316 0 1.058334.472017 1.058334 1.058333v11.1125c0 .586317-.472018 1.058334-1.058334 1.058334h-14.287499c-.586317 0-1.058334-.472017-1.058334-1.058334v-12.958897c0-.7992.529167-1.328603 1.322917-1.328603z" fill-opacity=".15"/><path d="m62.706249 15.345901c-.31603 0-.55046.206568-.728121.430982-.177662.224414-.327696.493514-.488859.751374-.161163.257861-.332117.502497-.521415.670761-.189299.168265-.382682.263549-.642855.263549h-4.7625c-.72832 0-1.322917.594596-1.322917 1.322917v8.995833c0 .728316.594597 1.322917 1.322917 1.322917h14.287499c.72832 0 1.322917-.594601 1.322917-1.322917v-11.1125c0-.728321-.594597-1.322916-1.322917-1.322916z" style="fill:currentColor"
class="ColorScheme-Highlight"/><path d="m55.562499 17.727148h4.762499c1.322917 0 1.587501-2.116667 2.381251-2.116667h7.143749c.586317 0 1.058334.472017 1.058334 1.058334v11.1125c0 .586316-.472017 1.058333-1.058334 1.058333h-14.287499c-.586317 0-1.058334-.472017-1.058334-1.058333v-8.995834c0-.586316.472017-1.058333 1.058334-1.058333z" fill="url(#c)"/><path d="m62.706248 15.345898c-.31603 0-.55046.206568-.728121.430982s-.327697.493514-.488859.751374c-.161163.257861-.332117.502497-.521415.670761-.189299.168265-.382682.263549-.642855.263549h-4.7625c-.728319 0-1.322917.594596-1.322917 1.322917v8.995833c0 .728316.594598 1.322917 1.322917 1.322917h14.287499c.728319 0 1.322919-.594601 1.322919-1.322917v-11.1125c0-.728321-.5946-1.322916-1.322919-1.322916zm0 .264583h7.143749c.586317 0 1.058334.472017 1.058334 1.058333v11.1125c0 .586317-.472017 1.058333-1.058334 1.058333h-14.287499c-.586316 0-1.058334-.472016-1.058334-1.058333v-8.995833c0-.586317.472018-1.058333 1.058334-1.058333h4.7625c1.322915 0 1.5875-2.116667 2.38125-2.116667z" fill-opacity=".15"/></g><g stroke-width=".492063"><path d="m35.189852 30.001956c-3.51325-.05188-6.897889 1.320575-9.382814 3.804684-3.717702 3.718475-4.829289 9.310333-2.816409 14.167969 2.011973 4.857651 6.751932 8.025078 12.009769 8.025393h28.000041v-2.000001h-28.000041c-.366568.000073-.732909-.01816-1.097656-.05469-.365141-.03651-.728225-.09126-1.087894-.164064-.359152-.07335-.714412-.16461-1.064451-.273435-.350472-.108347-.695305-.234153-1.033205-.376955-.337812-.142256-.668301-.301305-.990234-.476559-.321918-.176296-.634806-.368595-.937499-.576172-.302545-.206647-.594575-.428277-.875002-.664064-.28057-.236426-.549133-.486739-.804686-.750003-.255819-.263096-.498308-.538834-.726566-.82617-.227663-.28735-.44082-.5859-.638669-.894532-.198056-.308396-.380577-.6265-.546875-.953122-.129929-.255632-.249811-.516253-.359373-.781254-.140219-.338687-.263417-.68417-.369141-1.035154-.106257-.350821-.194907-.706731-.265626-1.066405-.07024-.360446-.122391-.724184-.15625-1.089847-.0339-.364875-.04956-.731216-.04689-1.097655.0025-.366701.02337-.733042.0625-1.097656.03981-.364649.09781-.727083.173827-1.085935.07528-.359256.168497-.714521.2793-1.064457.111029-.349291.239443-.69282.384764-1.029293.144927-.33664.306585-.665831.484377-.986332.178314-.320712.372566-.632296.582028-.933592.209289-.301388.433532-.592119.671878-.871095.186404-.217152.381212-.426948.583981-.628906.259012-.259514.530833-.505915.814454-.738282.283866-.232057.579158-.449776.884769-.652344.305567-.202484.621068-.389561.945313-.560544.324713-.171508.65781-.326651.998043-.464842.339469-.137635.685607-.25823 1.037112-.361332.352278-.103092.709497-.188485 1.070312-.255858.360579-.06762.724317-.117161 1.089847-.148436.365008-.0313.731349-.04434 1.097656-.03907.366828.0051.733169.02859 1.097656.07032.364097.04178.725877.101768 1.083986.179687.358739.07791.713349.173737 1.062503.287109.272012.0891.540448.188785.804686.298825.339022.140223.67082.29732.994145.470703.323084.173639.637277.36333.941406.568363.304411.204575.598399.424252.880863.658199.28176.234419.551628.482778.808593.744143.257664.261054.502112.534833.732422.820314.230222.285903.445982.583149.646483.890625.199935.307003.38441.623803.552735.949215.16892.325505.321455.659257.457033 1.000001.135775.340862.254412.688303.355467 1.041019.100459.352416.183244.709634.248049 1.070312.06507.361357.112003.725744.140627 1.091795.02224.285264.03331.571291.03321.857421h2.000002c-.00032-5.257836-3.167747-9.99779-8.025398-12.009764-1.518252-.628916-3.141983-.964267-4.785165-.98828zm-.04296 2.999998c-2.702398-.03941-5.30568 1.016682-7.2168 2.927733-2.859465 2.859662-3.715085 7.160085-2.167973 10.896485 1.547535 3.736834 5.193691 6.173513 9.23829 6.173828h28.00004v-1.999997h-28.000037c-.266762.000305-.533372-.01275-.79883-.03907-.265528-.02716-.529529-.06756-.791017-.121092-.260936-.05285-.519068-.118686-.77344-.197268-.255056-.07854-.506023-.169807-.751957-.273435-.245884-.103791-.486414-.219825-.720701-.347658-.23404-.127872-.461535-.267372-.68164-.417968-.220184-.150739-.432691-.312397-.636721-.484373-.203611-.171804-.398517-.353675-.583981-.544926-.186369-.191555-.363024-.392327-.529298-.601562-.165687-.208916-.32083-.425984-.464842-.65039-.143624-.224371-.275949-.455779-.396485-.693357-.09462-.18597-.181926-.375567-.261719-.568363-.10231-.246007-.192264-.496969-.269533-.751951-.07674-.255755-.140617-.515196-.191407-.777343-.05091-.26162-.08872-.525622-.113278-.791016-.025-.265523-.03676-.532132-.03513-.798831.0025-.26689.01796-.5335.04689-.798826.02849-.264936.07022-.528289.124999-.789063.05477-.261035.122568-.519171.203129-.773435.08053-.254505.173742-.504818.279295-.750003.105823-.244674.223805-.4839.353513-.716794.12926-.23279.270059-.458982.421876-.677734.152697-.219652.316313-.431505.490238-.634767.135283-.15779.276667-.310251.423824-.457033.188194-.188785.385709-.368044.591799-.537107.20679-.168857.421901-.327262.64453-.47461.222221-.147442.451675-.28368.687501-.408206.235753-.124635.477597-.237406.724613-.33789.247429-.09979.4997-.187137.755859-.261719.255828-.07542.515269-.137994.777347-.187496.262368-.04901.527019-.08487.79297-.107422.265621-.02308.53223-.03282.798826-.02928.266339.0044.532294.0219.796877.05273.26504.03041.528387.07411.789063.13086.260484.05676.517966.126509.771482.208984.198065.06461.393527.136927.585944.216793.24643.101818.487615.215893.722654.341798.235285.126489.46409.264685.685548.414066.221384.148726.435196.30843.640627.478512.204851.170436.401057.350999.587888.541019.187604.190192.365559.38966.533205.597655.166913.207558.32336.423323.46875.646483.146167.222939.281106.453043.404299.689455.122765.237145.233582.480288.332029.728515.09853.248142.184573.501063.257812.757812.07279.255966.132759.515402.179692.777342.04768.262432.08225.527089.10351.79297.01594.207946.02377.416439.02342.625h2.000001c-.000319-4.0446-2.436998-7.690751-6.173832-9.238281-1.167538-.483477-2.41614-.741284-3.67969-.759765zm-.04493 2.998049c-1.891541-.02696-3.713465.712789-5.050785 2.050778-2.002202 2.002019-2.601171 5.013049-1.517578 7.628908 1.083701 2.615249 3.635916 4.320322 6.466801 4.320313h28.000044v-2.000002h-28.000037c-.166986-.000109-.33386-.0086-.5-.02539-.165845-.01648-.330765-.04124-.49414-.07422-.163409-.03292-.325072-.07398-.484378-.123045-.159015-.04945-.315456-.106817-.468749-.171878-.153253-.06475-.30318-.137099-.44922-.216793-.146201-.08009-.288304-.167435-.425782-.261719-.137783-.0942-.270763-.195236-.398439-.302737-.127321-.107132-.24922-.220558-.365234-.339844-.116255-.120053-.226418-.245864-.330076-.37695-.103717-.13048-.200841-.266068-.291016-.406252-.08986-.140307-.172641-.285018-.248044-.433592-.05926-.115664-.113992-.233592-.164064-.353518-.0638-.154001-.119862-.311102-.167971-.470703-.04847-.159985-.08888-.322297-.121092-.486326-.03164-.163439-.05512-.328359-.07032-.49414-.0155-.166204-.02268-.333078-.0215-.500001.0015-.166401.01122-.33262.02928-.498047.01776-.165914.04384-.330838.07813-.494144.03425-.162819.07663-.323827.126952-.48242.05009-.159049.108106-.315496.173831-.468749.06602-.153332.139682-.303259.220701-.44922.08142-.145621.170067-.287074.265625-.423829.09494-.136493.196629-.268169.304691-.394531.08476-.09913.173369-.194907.265621-.287109.118011-.118105.241864-.230222.371094-.335937.129079-.105607.263363-.204689.402346-.296877.138914-.09173.282321-.176473.429689-.253904.147428-.07782.298658-.148225.453122-.210938.154075-.06248.311171-.117234.470703-.164064.160054-.04714.322366-.08626.486331-.117185.164118-.03105.329692-.05388.496094-.06836.165618-.01412.331842-.01998.498047-.01757.167119.0025.333993.01378.5.03321.165328.01914.329594.0465.492191.08203.162888.03553.323896.07922.482419.13086.124109.0401.246598.08507.367188.134766.153839.06341.30442.134461.451173.212886.146827.0794.289584.166096.427736.25977.138359.09287.271993.192609.400392.298826.127942.106448.25049.219219.367188.33789.11749.118695.228957.243197.333983.373048.104327.129801.202105.26474.29297.404299.09112.139588.175214.28365.251951.431638.07655.148146.145651.300031.207031.45508.06188.154754.115984.3125.16211.472656.04581.160123.08365.32243.113283.486327.02908.164216.04995.32979.0625.496093.01028.129954.01555.260262.01565.390625h2.000002c.000005-2.830886-1.705069-5.383101-4.320317-6.466797-.817918-.339194-1.692763-.520126-2.578127-.5332z" fill-opacity=".15"/><path d="m35.189852 29.001956c-3.51325-.05188-6.897889 1.320575-9.382814 3.804684-3.717702 3.718475-4.829289 9.310333-2.816409 14.167969 2.011973 4.857651 6.751932 8.025078 12.009769 8.025393h28.000041v-2.000001h-28.000041c-.366568.000073-.732909-.01816-1.097656-.05469-.365141-.03651-.728225-.09126-1.087894-.164064-.359152-.07335-.714412-.16461-1.064451-.273435-.350472-.108347-.695305-.234153-1.033205-.376955-.337812-.142256-.668301-.301305-.990234-.476559-.321918-.176296-.634806-.368595-.937499-.576172-.302545-.206647-.594575-.428277-.875002-.664064-.28057-.236426-.549133-.486739-.804686-.750003-.255819-.263096-.498308-.538834-.726566-.82617-.227663-.28735-.44082-.5859-.638669-.894532-.198056-.308396-.380577-.6265-.546875-.953122-.129929-.255632-.249811-.516253-.359373-.781254-.140219-.338687-.263417-.68417-.369141-1.035154-.106257-.350821-.194907-.706731-.265626-1.066405-.07024-.360446-.122391-.724184-.15625-1.089847-.0339-.364875-.04956-.731216-.04689-1.097655.0025-.366701.02337-.733042.0625-1.097656.03981-.364649.09781-.727083.173827-1.085935.07528-.359256.168497-.714521.2793-1.064457.111029-.349291.239443-.69282.384764-1.029293.144927-.33664.306585-.665831.484377-.986332.178314-.320712.372566-.632296.582028-.933592.209289-.301388.433532-.592119.671878-.871095.186404-.217152.381212-.426948.583981-.628906.259012-.259514.530833-.505915.814454-.738282.283866-.232057.579158-.449776.884769-.652344.305567-.202484.621068-.389561.945313-.560544.324713-.171508.65781-.326651.998043-.464842.339469-.137635.685607-.25823 1.037112-.361332.352278-.103092.709497-.188485 1.070312-.255858.360579-.06762.724317-.117161 1.089847-.148436.365008-.0313.731349-.04434 1.097656-.03907.366828.0051.733169.02859 1.097656.07032.364097.04178.725877.101768 1.083986.179687.358739.07791.713349.173737 1.062503.287109.272012.0891.540448.188785.804686.298825.339022.140223.67082.29732.994145.470703.323084.173639.637277.36333.941406.568363.304411.204575.598399.424252.880863.658199.28176.234419.551628.482778.808593.744143.257664.261054.502112.534833.732422.820314.230222.285903.445982.583149.646483.890625.199935.307003.38441.623803.552735.949215.16892.325505.321455.659257.457033 1.000001.135775.340862.254412.688303.355467 1.041019.100459.352416.183244.709634.248049 1.070312.06507.361357.112003.725744.140627 1.091795.02224.285264.03331.571291.03321.857421h2.000002c-.00032-5.257836-3.167747-9.99779-8.025398-12.009764-1.518252-.628916-3.141983-.964267-4.785165-.98828zm-.04296 2.999998c-2.702398-.03941-5.30568 1.016682-7.2168 2.927733-2.859465 2.859662-3.715085 7.160085-2.167973 10.896485 1.547535 3.736834 5.193691 6.173513 9.23829 6.173828h28.00004v-1.999997h-28.000037c-.266762.000305-.533372-.01275-.79883-.03907-.265528-.02716-.529529-.06756-.791017-.121092-.260936-.05285-.519068-.118686-.77344-.197268-.255056-.07854-.506023-.169807-.751957-.273435-.245884-.103791-.486414-.219825-.720701-.347658-.23404-.127872-.461535-.267372-.68164-.417968-.220184-.150739-.432691-.312397-.636721-.484373-.203611-.171804-.398517-.353675-.583981-.544926-.186369-.191555-.363024-.392327-.529298-.601562-.165687-.208916-.32083-.425984-.464842-.65039-.143624-.224371-.275949-.455779-.396485-.693357-.09462-.18597-.181926-.375567-.261719-.568363-.10231-.246007-.192264-.496969-.269533-.751951-.07674-.255755-.140617-.515196-.191407-.777343-.05091-.26162-.08872-.525622-.113278-.791016-.025-.265523-.03676-.532132-.03513-.798831.0025-.26689.01796-.5335.04689-.798826.02849-.264936.07022-.528289.124999-.789063.05477-.261035.122568-.519171.203129-.773435.08053-.254505.173742-.504818.279295-.750003.105823-.244674.223805-.4839.353513-.716794.12926-.23279.270059-.458982.421876-.677734.152697-.219652.316313-.431505.490238-.634767.135283-.15779.276667-.310251.423824-.457033.188194-.188785.385709-.368044.591799-.537107.20679-.168857.421901-.327262.64453-.47461.222221-.147442.451675-.28368.687501-.408206.235753-.124635.477597-.237406.724613-.33789.247429-.09979.4997-.187137.755859-.261719.255828-.07542.515269-.137994.777347-.187496.262368-.04901.527019-.08487.79297-.107422.265621-.02308.53223-.03282.798826-.02928.266339.0044.532294.0219.796877.05273.26504.03041.528387.07411.789063.13086.260484.05676.517966.126509.771482.208984.198065.06461.393527.136927.585944.216793.24643.101818.487615.215893.722654.341798.235285.126489.46409.264685.685548.414066.221384.148726.435196.30843.640627.478512.204851.170436.401057.350999.587888.541019.187604.190192.365559.38966.533205.597655.166913.207558.32336.423323.46875.646483.146167.222939.281106.453043.404299.689455.122765.237145.233582.480288.332029.728515.09853.248142.184573.501063.257812.757812.07279.255966.132759.515402.179692.777342.04768.262432.08225.527089.10351.79297.01594.207946.02377.416439.02342.625h2.000001c-.000319-4.0446-2.436998-7.690751-6.173832-9.238281-1.167538-.483477-2.41614-.741284-3.67969-.759765zm-.04493 2.998049c-1.891541-.02696-3.713465.712789-5.050785 2.050778-2.002202 2.002019-2.601171 5.013049-1.517578 7.628908 1.083701 2.615249 3.635916 4.320322 6.466801 4.320313h28.000044v-2.000002h-28.000037c-.166986-.000109-.33386-.0086-.5-.02539-.165845-.01648-.330765-.04124-.49414-.07422-.163409-.03292-.325072-.07398-.484378-.123045-.159015-.04945-.315456-.106817-.468749-.171878-.153253-.06475-.30318-.137099-.44922-.216793-.146201-.08009-.288304-.167435-.425782-.261719-.137783-.0942-.270763-.195236-.398439-.302737-.127321-.107132-.24922-.220558-.365234-.339844-.116255-.120053-.226418-.245864-.330076-.37695-.103717-.13048-.200841-.266068-.291016-.406252-.08986-.140307-.172641-.285018-.248044-.433592-.05926-.115664-.113992-.233592-.164064-.353518-.0638-.154001-.119862-.311102-.167971-.470703-.04847-.159985-.08888-.322297-.121092-.486326-.03164-.163439-.05512-.328359-.07032-.49414-.0155-.166204-.02268-.333078-.0215-.500001.0015-.166401.01122-.33262.02928-.498047.01776-.165914.04384-.330838.07813-.494144.03425-.162819.07663-.323827.126952-.48242.05009-.159049.108106-.315496.173831-.468749.06602-.153332.139682-.303259.220701-.44922.08142-.145621.170067-.287074.265625-.423829.09494-.136493.196629-.268169.304691-.394531.08476-.09913.173369-.194907.265621-.287109.118011-.118105.241864-.230222.371094-.335937.129079-.105607.263363-.204689.402346-.296877.138914-.09173.282321-.176473.429689-.253904.147428-.07782.298658-.148225.453122-.210938.154075-.06248.311171-.117234.470703-.164064.160054-.04714.322366-.08626.486331-.117185.164118-.03105.329692-.05388.496094-.06836.165618-.01412.331842-.01998.498047-.01757.167119.0025.333993.01378.5.03321.165328.01914.329594.0465.492191.08203.162888.03553.323896.07922.482419.13086.124109.0401.246598.08507.367188.134766.153839.06341.30442.134461.451173.212886.146827.0794.289584.166096.427736.25977.138359.09287.271993.192609.400392.298826.127942.106448.25049.219219.367188.33789.11749.118695.228957.243197.333983.373048.104327.129801.202105.26474.29297.404299.09112.139588.175214.28365.251951.431638.07655.148146.145651.300031.207031.45508.06188.154754.115984.3125.16211.472656.04581.160123.08365.32243.113283.486327.02908.164216.04995.32979.0625.496093.01028.129954.01555.260262.01565.390625h2.000002c.000005-2.830886-1.705069-5.383101-4.320317-6.466797-.817918-.339194-1.692763-.520126-2.578127-.5332z" fill="url(#a)"/></g></svg>
