<svg height="64" viewBox="0 0 64 64" width="64" xmlns="http://www.w3.org/2000/svg" xmlns:xlink="http://www.w3.org/1999/xlink"><defs id="antufoldercolor">
    <style type="text/css" id="current-color-scheme">
      .ColorScheme-Highlight {
        color:#45aaf5;
      }
      </style>
  </defs><linearGradient id="a" gradientUnits="userSpaceOnUse" x1="46.593285" x2="46.593285" y1="304.64999" y2="285.64999"><stop offset="0" stop-color="#fff" stop-opacity=".7"/><stop offset="1" stop-color="#fff" stop-opacity=".85"/></linearGradient><linearGradient id="b" gradientUnits="userSpaceOnUse" x1="57.461354" x2="57.414582" y1="19.239911" y2="13.493815"><stop offset="0" stop-color="#fff" stop-opacity=".2"/><stop offset="1" stop-color="#fff" stop-opacity="0"/></linearGradient><linearGradient id="c" gradientUnits="userSpaceOnUse" x1="62.706249" x2="62.706249" y1="28.839648" y2="15.610481"><stop offset="0" stop-color="#fff" stop-opacity="0"/><stop offset="1" stop-color="#fff" stop-opacity=".2"/></linearGradient><g transform="matrix(3.7795276 0 0 3.7795276 -205 -48.00025)"><path d="m55.827082 13.229234c-1.058333 0-1.5875.79375-1.5875 1.5875v12.964583c0 .728316.594597 1.322917 1.322917 1.322917h14.287499c.72832 0 1.322917-.594601 1.322917-1.322917v-11.1125c0-.728321-.594597-1.322916-1.322917-1.322916h-7.143749c-.08084 0-.177145-.05802-.313676-.230476-.136532-.172461-.284153-.432528-.45372-.703834-.169566-.271307-.362414-.555837-.6196-.784447-.257185-.228611-.59297-.39791-.994254-.39791z" style="fill:currentColor"
class="ColorScheme-Highlight"/><path d="m55.827083 13.493817h4.497916c1.322917 0 1.5875 2.116667 2.38125 2.116667h7.14375c.586317 0 1.058334.472017 1.058334 1.058333v11.1125c0 .586317-.472017 1.058334-1.058334 1.058334h-14.287499c-.586317 0-1.058334-.472017-1.058334-1.058334v-12.95913c0-.7992.529167-1.32837 1.322917-1.32837z" fill-opacity=".1"/><path d="m55.827082 13.493815h4.497916c1.322917 0 1.587501 2.116666 2.381251 2.116666h7.143749c.586317 0 1.058334.472017 1.058334 1.058334v11.1125c0 .586316-.472017 1.058333-1.058334 1.058333h-14.287499c-.586317 0-1.058334-.472017-1.058334-1.058333v-12.959131c0-.7992.529167-1.328369 1.322917-1.328369z" fill="url(#b)"/><path d="m55.827082 13.229232c-1.058331 0-1.5875.793753-1.5875 1.5875v12.964583c0 .728316.594598 1.322917 1.322917 1.322917h14.287499c.728319 0 1.322917-.594601 1.322917-1.322917v-11.1125c0-.728318-.594598-1.322916-1.322917-1.322916h-7.14375c-.08084 0-.177143-.05801-.313676-.230476-.136531-.172461-.284152-.432528-.453718-.703834-.169567-.271307-.362416-.555837-.619602-.784447-.257183-.228611-.592968-.39791-.994254-.39791zm0 .264583h4.497916c1.322917 0 1.5875 2.116667 2.38125 2.116667h7.14375c.586316 0 1.058334.472017 1.058334 1.058333v11.1125c0 .586317-.472018 1.058334-1.058334 1.058334h-14.287499c-.586317 0-1.058334-.472017-1.058334-1.058334v-12.958897c0-.7992.529167-1.328603 1.322917-1.328603z" fill-opacity=".15"/><path d="m62.706249 15.345901c-.31603 0-.55046.206568-.728121.430982-.177662.224414-.327696.493514-.488859.751374-.161163.257861-.332117.502497-.521415.670761-.189299.168265-.382682.263549-.642855.263549h-4.7625c-.72832 0-1.322917.594596-1.322917 1.322917v8.995833c0 .728316.594597 1.322917 1.322917 1.322917h14.287499c.72832 0 1.322917-.594601 1.322917-1.322917v-11.1125c0-.728321-.594597-1.322916-1.322917-1.322916z" style="fill:currentColor"
class="ColorScheme-Highlight"/><path d="m55.562499 17.727148h4.762499c1.322917 0 1.587501-2.116667 2.381251-2.116667h7.143749c.586317 0 1.058334.472017 1.058334 1.058334v11.1125c0 .586316-.472017 1.058333-1.058334 1.058333h-14.287499c-.586317 0-1.058334-.472017-1.058334-1.058333v-8.995834c0-.586316.472017-1.058333 1.058334-1.058333z" fill="url(#c)"/><path d="m62.706248 15.345898c-.31603 0-.55046.206568-.728121.430982s-.327697.493514-.488859.751374c-.161163.257861-.332117.502497-.521415.670761-.189299.168265-.382682.263549-.642855.263549h-4.7625c-.728319 0-1.322917.594596-1.322917 1.322917v8.995833c0 .728316.594598 1.322917 1.322917 1.322917h14.287499c.728319 0 1.322919-.594601 1.322919-1.322917v-11.1125c0-.728321-.5946-1.322916-1.322919-1.322916zm0 .264583h7.143749c.586317 0 1.058334.472017 1.058334 1.058333v11.1125c0 .586317-.472017 1.058333-1.058334 1.058333h-14.287499c-.586316 0-1.058334-.472016-1.058334-1.058333v-8.995833c0-.586317.472018-1.058333 1.058334-1.058333h4.7625c1.322915 0 1.5875-2.116667 2.38125-2.116667z" fill-opacity=".15"/></g><g stroke-linecap="round" stroke-linejoin="round" stroke-miterlimit="1.8" stroke-width="3.99999" transform="translate(-14.593286 -254.64998)"><path d="m35.593286 284.64999c-1.107998 0-2 .89201-2 1.99997v18c0 1.10801.892002 2.00001 2 2.00001h21c1.107999 0 2.000002-.892 2.000002-2.00001v-18c0-1.10797-.892003-1.99997-2.000002-1.99997zm3 3h15c.554 0 .999999.44598.999999.99999v2.00001c.554 0 1.000003.44598 1.000003.99999v.99999c0 .554-.446003 1.00002-1.000003 1.00002v1.99998c.554 0 1.000003.44602 1.000003 1.00002v.99999c0 .554-.446003.99999-1.000003.99999v2.00001c0 .554-.445999.99999-.999999.99999h-3v1.00002c0 .55401-.446002.99999-1 .99999h-7c-.553998 0-1-.44598-1-.99999v-1.00003h-3c-.553998 0-1-.44598-1-.99999v-2.00001c-.553999 0-1-.44598-1-.99999v-.99998c0-.554.446001-1.00003 1-1.00003v-1.99997c-.553999 0-1-.44602-1-1.00003v-.99999c0-.554.446001-.99999 1-.99999v-2.00001c0-.554.446002-.99999 1-.99998zm1 1.99997v6h3v-6zm5 0v6h3v-6zm5 0v6h3.000002v-6z" fill-opacity=".15"/><path d="m35.593286 283.65c-1.107998 0-2 .89201-2 1.99998v18c0 1.10801.892002 2.00001 2 2.00001h21c1.107999 0 2.000002-.892 2.000002-2.00001v-18c0-1.10797-.892003-1.99998-2.000002-1.99998zm3 3h15c.554 0 .999999.44599.999999.99999v2.00001c.554 0 1.000003.44599 1.000003.99999v.99999c0 .554-.446003 1.00002-1.000003 1.00002v1.99998c.554 0 1.000003.44602 1.000003 1.00002v.99999c0 .554-.446003.99999-1.000003.99999v2.00001c0 .554-.445999.99999-.999999.99999h-3v1.00002c0 .55401-.446002.99999-1 .99999h-7c-.553998 0-1-.44598-1-.99999v-1.00002h-3c-.553998 0-1-.44599-1-.99999v-2.00001c-.553999 0-1-.44599-1-.99999v-.99999c0-.554.446001-1.00002 1-1.00002v-1.99998c-.553999 0-1-.44602-1-1.00002v-.99999c0-.554.446001-.99999 1-.99999v-2.00001c0-.554.446002-.99999 1-.99999zm1 1.99998v6h3v-6zm5 0v6h3v-6zm5 0v6h3.000002v-6z" fill="url(#a)"/></g></svg>
