<?xml version="1.0" encoding="UTF-8" standalone="no"?>
<svg
   height="64"
   viewBox="0 0 64 64"
   width="64"
   version="1.1"
   id="svg14"
   sodipodi:docname="folder-mega.svg"
   xml:space="preserve"
   inkscape:version="1.3.2 (091e20ef0f, 2023-11-25, custom)"
   xmlns:inkscape="http://www.inkscape.org/namespaces/inkscape"
   xmlns:sodipodi="http://sodipodi.sourceforge.net/DTD/sodipodi-0.dtd"
   xmlns:xlink="http://www.w3.org/1999/xlink"
   xmlns="http://www.w3.org/2000/svg"
   xmlns:svg="http://www.w3.org/2000/svg"><sodipodi:namedview
     id="namedview14"
     pagecolor="#ffffff"
     bordercolor="#000000"
     borderopacity="0.25"
     inkscape:showpageshadow="2"
     inkscape:pageopacity="0.0"
     inkscape:pagecheckerboard="0"
     inkscape:deskcolor="#d1d1d1"
     inkscape:zoom="18"
     inkscape:cx="31.972222"
     inkscape:cy="32"
     inkscape:window-width="2560"
     inkscape:window-height="1356"
     inkscape:window-x="0"
     inkscape:window-y="0"
     inkscape:window-maximized="1"
     inkscape:current-layer="g6054-7-7-5" /><defs
     id="antufoldercolor"><style
       type="text/css"
       id="current-color-scheme">
      .ColorScheme-Highlight {
        color:#45aaf5;
      }
      </style><linearGradient
       inkscape:collect="always"
       xlink:href="#linearGradient4631-59"
       id="linearGradient6790"
       gradientUnits="userSpaceOnUse"
       gradientTransform="matrix(0.5,0,0,0.5,26,161.325)"
       x1="-12"
       y1="291.64999"
       x2="-12"
       y2="243.64998" /><linearGradient
       id="linearGradient4631-59"
       inkscape:collect="always"><stop
         id="stop4627-49"
         offset="0"
         style="stop-color:#ffffff;stop-opacity:0.69999999;" /><stop
         id="stop4629-0"
         offset="1"
         style="stop-color:#ffffff;stop-opacity:0.85000002;" /></linearGradient></defs><linearGradient
     id="a"
     gradientUnits="userSpaceOnUse"
     x1="1"
     x2=".944443"
     y1="310.30037"
     y2="288.849973"><stop
       offset="0"
       stop-color="#fff"
       stop-opacity=".7"
       id="stop1" /><stop
       offset="1"
       stop-color="#fff"
       stop-opacity=".85"
       id="stop2" /></linearGradient><linearGradient
     id="b"
     gradientUnits="userSpaceOnUse"
     x1="57.461354"
     x2="57.414582"
     y1="19.239911"
     y2="13.493815"><stop
       offset="0"
       stop-color="#fff"
       stop-opacity=".2"
       id="stop3" /><stop
       offset="1"
       stop-color="#fff"
       stop-opacity="0"
       id="stop4" /></linearGradient><linearGradient
     id="c"
     gradientUnits="userSpaceOnUse"
     x1="62.706249"
     x2="62.706249"
     y1="28.839648"
     y2="15.610481"><stop
       offset="0"
       stop-color="#fff"
       stop-opacity="0"
       id="stop5" /><stop
       offset="1"
       stop-color="#fff"
       stop-opacity=".2"
       id="stop6" /></linearGradient><g
     transform="matrix(3.7795276 0 0 3.7795276 -205 -48.00025)"
     id="g12"><path
       d="m55.827082 13.229234c-1.058333 0-1.5875.79375-1.5875 1.5875v12.964583c0 .728316.594597 1.322917 1.322917 1.322917h14.287499c.72832 0 1.322917-.594601 1.322917-1.322917v-11.1125c0-.728321-.594597-1.322916-1.322917-1.322916h-7.143749c-.08084 0-.177145-.05802-.313676-.230476-.136532-.172461-.284153-.432528-.45372-.703834-.169566-.271307-.362414-.555837-.6196-.784447-.257185-.228611-.59297-.39791-.994254-.39791z"
       style="fill:currentColor"
       class="ColorScheme-Highlight"
       id="path6" /><path
       d="m55.827083 13.493817h4.497916c1.322917 0 1.5875 2.116667 2.38125 2.116667h7.14375c.586317 0 1.058334.472017 1.058334 1.058333v11.1125c0 .586317-.472017 1.058334-1.058334 1.058334h-14.287499c-.586317 0-1.058334-.472017-1.058334-1.058334v-12.95913c0-.7992.529167-1.32837 1.322917-1.32837z"
       fill-opacity=".1"
       id="path7" /><path
       d="m55.827082 13.493815h4.497916c1.322917 0 1.587501 2.116666 2.381251 2.116666h7.143749c.586317 0 1.058334.472017 1.058334 1.058334v11.1125c0 .586316-.472017 1.058333-1.058334 1.058333h-14.287499c-.586317 0-1.058334-.472017-1.058334-1.058333v-12.959131c0-.7992.529167-1.328369 1.322917-1.328369z"
       fill="url(#b)"
       id="path8" /><path
       d="m55.827082 13.229232c-1.058331 0-1.5875.793753-1.5875 1.5875v12.964583c0 .728316.594598 1.322917 1.322917 1.322917h14.287499c.728319 0 1.322917-.594601 1.322917-1.322917v-11.1125c0-.728318-.594598-1.322916-1.322917-1.322916h-7.14375c-.08084 0-.177143-.05801-.313676-.230476-.136531-.172461-.284152-.432528-.453718-.703834-.169567-.271307-.362416-.555837-.619602-.784447-.257183-.228611-.592968-.39791-.994254-.39791zm0 .264583h4.497916c1.322917 0 1.5875 2.116667 2.38125 2.116667h7.14375c.586316 0 1.058334.472017 1.058334 1.058333v11.1125c0 .586317-.472018 1.058334-1.058334 1.058334h-14.287499c-.586317 0-1.058334-.472017-1.058334-1.058334v-12.958897c0-.7992.529167-1.328603 1.322917-1.328603z"
       fill-opacity=".15"
       id="path9" /><path
       d="m62.706249 15.345901c-.31603 0-.55046.206568-.728121.430982-.177662.224414-.327696.493514-.488859.751374-.161163.257861-.332117.502497-.521415.670761-.189299.168265-.382682.263549-.642855.263549h-4.7625c-.72832 0-1.322917.594596-1.322917 1.322917v8.995833c0 .728316.594597 1.322917 1.322917 1.322917h14.287499c.72832 0 1.322917-.594601 1.322917-1.322917v-11.1125c0-.728321-.594597-1.322916-1.322917-1.322916z"
       style="fill:currentColor"
       class="ColorScheme-Highlight"
       id="path10" /><path
       d="m55.562499 17.727148h4.762499c1.322917 0 1.587501-2.116667 2.381251-2.116667h7.143749c.586317 0 1.058334.472017 1.058334 1.058334v11.1125c0 .586316-.472017 1.058333-1.058334 1.058333h-14.287499c-.586317 0-1.058334-.472017-1.058334-1.058333v-8.995834c0-.586316.472017-1.058333 1.058334-1.058333z"
       fill="url(#c)"
       id="path11" /><path
       d="m62.706248 15.345898c-.31603 0-.55046.206568-.728121.430982s-.327697.493514-.488859.751374c-.161163.257861-.332117.502497-.521415.670761-.189299.168265-.382682.263549-.642855.263549h-4.7625c-.728319 0-1.322917.594596-1.322917 1.322917v8.995833c0 .728316.594598 1.322917 1.322917 1.322917h14.287499c.728319 0 1.322919-.594601 1.322919-1.322917v-11.1125c0-.728321-.5946-1.322916-1.322919-1.322916zm0 .264583h7.143749c.586317 0 1.058334.472017 1.058334 1.058333v11.1125c0 .586317-.472017 1.058333-1.058334 1.058333h-14.287499c-.586316 0-1.058334-.472016-1.058334-1.058333v-8.995833c0-.586317.472018-1.058333 1.058334-1.058333h4.7625c1.322915 0 1.5875-2.116667 2.38125-2.116667z"
       fill-opacity=".15"
       id="path12" /></g><g
     id="g8159"
     transform="translate(48.972232,-264.64999)"><g
       transform="translate(-37.00001,10)"
       id="g6054-7-7-5"><g
         id="g1529-2-8-3"
         transform="translate(-17.999999,-89.000015)" /><path
         sodipodi:nodetypes="sssssccccccccccccccc"
         id="rect4505-0-9-6-1-8"
         d="m 20.000001,283.64995 c -6.648,0 -12,5.352 -12,12 0,6.64799 5.352,12 12,12 6.648,0 12,-5.35201 12,-12 0,-6.648 -5.352,-12 -12,-12 z m -7,7.00001 h 3 l 4,4.00005 4,-4.00005 h 3 v 10 h -3 v -5.99995 l -3,3 h -1 -1 l -3,-3 v 5.99995 h -3 z"
         style="opacity:1;fill:#000000;fill-opacity:0.15000001;stroke:none;stroke-width:0.92582;stroke-linecap:round;stroke-linejoin:round;stroke-miterlimit:4;stroke-dasharray:none;stroke-opacity:1"
         inkscape:connector-curvature="0" /><path
         sodipodi:nodetypes="sssssccccccccccccccc"
         id="rect4505-0-9-6-8"
         d="m 20,282.64999 c -6.648,0 -12,5.352 -12,12 0,6.64799 5.352,12 12,12 6.648,0 12,-5.35201 12,-12 0,-6.648 -5.352,-12 -12,-12 z m -6.999999,7.00002 h 3 L 20,293.65005 l 4.000001,-4.00004 h 3 v 10 h -3 l -1e-6,-5.99996 -3,3 h -1 -1 l -3,-3 1e-6,5.99996 h -3 z"
         style="opacity:1;fill:url(#linearGradient6790);fill-opacity:1;stroke:none;stroke-width:0.92582;stroke-linecap:round;stroke-linejoin:round;stroke-miterlimit:4;stroke-dasharray:none;stroke-opacity:1"
         inkscape:connector-curvature="0" /></g></g></svg>
