<?xml version="1.0" encoding="UTF-8" standalone="no"?>
<!-- Created with Inkscape (http://www.inkscape.org/) -->

<svg
   width="32"
   height="32"
   viewBox="0 0 32 32"
   version="1.1"
   id="svg8"
   inkscape:version="1.2.2 (b0a8486541, 2022-12-01)"
   sodipodi:docname="application-exit.svg"
   xmlns:inkscape="http://www.inkscape.org/namespaces/inkscape"
   xmlns:sodipodi="http://sodipodi.sourceforge.net/DTD/sodipodi-0.dtd"
   xmlns:xlink="http://www.w3.org/1999/xlink"
   xmlns="http://www.w3.org/2000/svg"
   xmlns:svg="http://www.w3.org/2000/svg"
   xmlns:rdf="http://www.w3.org/1999/02/22-rdf-syntax-ns#"
   xmlns:cc="http://creativecommons.org/ns#"
   xmlns:dc="http://purl.org/dc/elements/1.1/">
  <title
     id="title7895">Antu icon Theme</title>
  <defs
     id="defs2">
    <linearGradient
       inkscape:collect="always"
       xlink:href="#linearGradient19834"
       id="linearGradient19534"
       gradientUnits="userSpaceOnUse"
       gradientTransform="translate(87,49.000003)"
       x1="-10"
       y1="315.64999"
       x2="-10"
       y2="297.64999" />
    <linearGradient
       inkscape:collect="always"
       id="linearGradient19834">
      <stop
         style="stop-color:#fc413b;stop-opacity:1;"
         offset="0"
         id="stop19830" />
      <stop
         style="stop-color:#fd5138;stop-opacity:1;"
         offset="1"
         id="stop19832" />
    </linearGradient>
    <linearGradient
       inkscape:collect="always"
       xlink:href="#linearGradient4582-3"
       id="linearGradient19538"
       gradientUnits="userSpaceOnUse"
       gradientTransform="translate(79,47.000003)"
       x1="-2"
       y1="302.64999"
       x2="-2"
       y2="292.64999" />
    <linearGradient
       id="linearGradient4582-3"
       inkscape:collect="always">
      <stop
         id="stop4578-5"
         offset="0"
         style="stop-color:#272d37;stop-opacity:1;" />
      <stop
         id="stop4580-6"
         offset="1"
         style="stop-color:#343b49;stop-opacity:1;" />
    </linearGradient>
  </defs>
  <sodipodi:namedview
     id="base"
     pagecolor="#ffffff"
     bordercolor="#666666"
     borderopacity="1.0"
     inkscape:pageopacity="0.0"
     inkscape:pageshadow="2"
     inkscape:zoom="5.6"
     inkscape:cx="-39.910714"
     inkscape:cy="15.892857"
     inkscape:document-units="px"
     inkscape:current-layer="layer1"
     showgrid="true"
     units="px"
     inkscape:window-width="2560"
     inkscape:window-height="1353"
     inkscape:window-x="0"
     inkscape:window-y="0"
     inkscape:window-maximized="1"
     objecttolerance="10"
     gridtolerance="10"
     guidetolerance="10"
     inkscape:snap-bbox="true"
     inkscape:bbox-paths="true"
     inkscape:bbox-nodes="true"
     inkscape:snap-bbox-edge-midpoints="true"
     inkscape:snap-bbox-midpoints="true"
     inkscape:object-paths="true"
     inkscape:snap-intersection-paths="true"
     inkscape:showpageshadow="2"
     inkscape:pagecheckerboard="0"
     inkscape:deskcolor="#d1d1d1">
    <inkscape:grid
       type="xygrid"
       id="grid7897"
       empspacing="4" />
  </sodipodi:namedview>
  <metadata
     id="metadata5">
    <rdf:RDF>
      <cc:Work
         rdf:about="">
        <dc:format>image/svg+xml</dc:format>
        <dc:type
           rdf:resource="http://purl.org/dc/dcmitype/StillImage" />
        <dc:title>Antu icon Theme</dc:title>
      </cc:Work>
    </rdf:RDF>
  </metadata>
  <g
     inkscape:label="Capa 1"
     inkscape:groupmode="layer"
     id="layer1"
     transform="translate(0,-282.64999)">
    <g
       id="g23060"
       transform="translate(-61,-54)">
      <path
         inkscape:connector-curvature="0"
         style="fill:#b3272d;fill-opacity:1;stroke:none;stroke-width:0.808;stroke-linecap:round;stroke-linejoin:round;stroke-miterlimit:4;stroke-dasharray:none;stroke-opacity:1;paint-order:stroke markers fill"
         d="m 62.999996,338.64999 h 28.000008 c 1.107998,0 1.999996,0.892 1.999996,2 V 364.65 c 0,1.108 -0.891998,1.99999 -1.999996,1.99999 H 62.999996 C 61.891998,366.64999 61,365.758 61,364.65 v -24.00001 c 0,-1.108 0.891998,-2 1.999996,-2 z"
         id="rect941-4-9" />
      <path
         inkscape:connector-curvature="0"
         style="fill:url(#linearGradient19534);fill-opacity:1;stroke:none;stroke-width:0.808;stroke-linecap:round;stroke-linejoin:round;stroke-miterlimit:4;stroke-dasharray:none;stroke-opacity:1;paint-order:stroke markers fill"
         d="m 63,339.64999 h 28 c 0.554,0 1,0.446 1,1 v 24 c 0,0.554 -0.446,1 -1,1 H 63 c -0.554,0 -1,-0.446 -1,-1 v -24 c 0,-0.554 0.446,-1 1,-1 z"
         id="rect943-3-2" />
      <path
         sodipodi:nodetypes="ssccccccccsss"
         inkscape:connector-curvature="0"
         id="rect866-8-0"
         d="m 63,338.64999 c -1.107998,0 -2,0.892 -2,2 v 2 1 2 h 2 28 2 v -2 -1 -2 c 0,-1.108 -0.892002,-2 -2,-2 z"
         style="fill:#1f1f26;fill-opacity:1;stroke:none;stroke-width:0.808;stroke-linecap:round;stroke-linejoin:round;stroke-miterlimit:4;stroke-dasharray:none;stroke-opacity:1;paint-order:stroke markers fill" />
      <path
         sodipodi:nodetypes="ssccccccccsss"
         inkscape:connector-curvature="0"
         id="rect868-6-5"
         d="m 63,339.64999 c -0.553998,0 -1,0.446 -1,1 v 2 1 1 h 1 28 1 v -1 -1 -2 c 0,-0.554 -0.446002,-1 -1,-1 z"
         style="fill:url(#linearGradient19538);fill-opacity:1;stroke:none;stroke-width:0.808;stroke-linecap:round;stroke-linejoin:round;stroke-miterlimit:4;stroke-dasharray:none;stroke-opacity:1;paint-order:stroke markers fill" />
      <path
         id="rect4496-3-6-5-4"
         style="fill:#b2262c;fill-opacity:0.992157;stroke:none;stroke-width:0.685841;stroke-linecap:round;stroke-linejoin:round;stroke-miterlimit:4;stroke-dasharray:none;stroke-opacity:1"
         d="m 77,349.64999 c -3.877992,0 -7,3.12197 -7,7 0,3.87798 3.122008,7 7,7 3.877992,0 7,-3.12202 7,-7 0,-3.87803 -3.122008,-7 -7,-7 z m -4,6 h 8 v 2 h -8 z" />
      <path
         id="rect4496-3-6-5"
         style="fill:#f0f5f5;fill-opacity:1;stroke:none;stroke-width:0.685841;stroke-linecap:round;stroke-linejoin:round;stroke-miterlimit:4;stroke-dasharray:none;stroke-opacity:1"
         d="m 77,348.64999 c -3.877992,0 -7,3.12197 -7,7 0,3.87798 3.122008,7 7,7 3.877992,0 7,-3.12202 7,-7 0,-3.87803 -3.122008,-7 -7,-7 z m -4,6 h 8 v 2 h -8 z" />
    </g>
  </g>
</svg>
