<?xml version="1.0" encoding="UTF-8" standalone="no"?>
<!-- Created with Inkscape (http://www.inkscape.org/) -->

<svg
   width="32"
   height="32"
   viewBox="0 0 8.4666665 8.4666669"
   version="1.1"
   id="svg8"
   inkscape:version="1.2.2 (b0a8486541, 2022-12-01)"
   sodipodi:docname="go-home.svg"
   xml:space="preserve"
   xmlns:inkscape="http://www.inkscape.org/namespaces/inkscape"
   xmlns:sodipodi="http://sodipodi.sourceforge.net/DTD/sodipodi-0.dtd"
   xmlns:xlink="http://www.w3.org/1999/xlink"
   xmlns="http://www.w3.org/2000/svg"
   xmlns:svg="http://www.w3.org/2000/svg"
   xmlns:rdf="http://www.w3.org/1999/02/22-rdf-syntax-ns#"
   xmlns:cc="http://creativecommons.org/ns#"
   xmlns:dc="http://purl.org/dc/elements/1.1/"><defs
     id="defs2"><linearGradient
       inkscape:collect="always"
       id="linearGradient11816"><stop
         style="stop-color:#5b637c;stop-opacity:1;"
         offset="0"
         id="stop11812" /><stop
         style="stop-color:#727b97;stop-opacity:1;"
         offset="1"
         id="stop11814" /></linearGradient><linearGradient
       inkscape:collect="always"
       id="linearGradient8218"><stop
         style="stop-color:#a26a41;stop-opacity:1;"
         offset="0"
         id="stop8214" /><stop
         style="stop-color:#bb8153;stop-opacity:1;"
         offset="1"
         id="stop8216" /></linearGradient><linearGradient
       inkscape:collect="always"
       id="linearGradient8140"><stop
         style="stop-color:#f2ddc1;stop-opacity:1;"
         offset="0"
         id="stop8136" /><stop
         style="stop-color:#f5e6d1;stop-opacity:1;"
         offset="1"
         id="stop8138" /></linearGradient><linearGradient
       inkscape:collect="always"
       id="linearGradient6871"><stop
         style="stop-color:#7c2020;stop-opacity:1;"
         offset="0"
         id="stop6867" /><stop
         style="stop-color:#a12b2b;stop-opacity:1;"
         offset="1"
         id="stop6869" /></linearGradient><linearGradient
       inkscape:collect="always"
       id="linearGradient4034"><stop
         style="stop-color:#832222;stop-opacity:1;"
         offset="0"
         id="stop4030" /><stop
         style="stop-color:#a12b2b;stop-opacity:1;"
         offset="1"
         id="stop4032" /></linearGradient><style
       type="text/css"
       id="current-color-scheme">
      .ColorScheme-Text {
        color:#122036;
      }
      </style><style
       type="text/css"
       id="current-color-scheme-7">
      .ColorScheme-Text {
        color:#122036;
      }
      </style><linearGradient
       id="linearGradient1004"
       inkscape:collect="always"><stop
         id="stop1000"
         offset="0"
         style="stop-color:#1899ff;stop-opacity:1" /><stop
         id="stop1002"
         offset="1"
         style="stop-color:#02b3fe;stop-opacity:1" /></linearGradient><linearGradient
       inkscape:collect="always"
       xlink:href="#linearGradient4034"
       id="linearGradient4036"
       x1="6.6145835"
       y1="291.17917"
       x2="6.6145835"
       y2="289.85623"
       gradientUnits="userSpaceOnUse" /><linearGradient
       inkscape:collect="always"
       xlink:href="#linearGradient6871"
       id="linearGradient6873"
       x1="4.2333336"
       y1="291.70834"
       x2="4.2333336"
       y2="289.59167"
       gradientUnits="userSpaceOnUse" /><linearGradient
       inkscape:collect="always"
       xlink:href="#linearGradient1004"
       id="linearGradient8033"
       gradientUnits="userSpaceOnUse"
       gradientTransform="matrix(0.26458333,0,0,0.26458333,0.26458354,213.48426)"
       x1="21"
       y1="307.64999"
       x2="21"
       y2="302.64999" /><linearGradient
       inkscape:collect="always"
       xlink:href="#linearGradient11816"
       id="linearGradient8108"
       gradientUnits="userSpaceOnUse"
       gradientTransform="matrix(0.26458333,0,0,0.26458333,22.225,211.63218)"
       x1="-74"
       y1="320.64999"
       x2="-74"
       y2="319.64999" /><linearGradient
       inkscape:collect="always"
       xlink:href="#linearGradient8140"
       id="linearGradient8142"
       x1="4.2333336"
       y1="296.20624"
       x2="4.2333336"
       y2="290.64999"
       gradientUnits="userSpaceOnUse" /><linearGradient
       inkscape:collect="always"
       xlink:href="#linearGradient8218"
       id="linearGradient8222"
       x1="3.175"
       y1="295.94165"
       x2="3.175"
       y2="293.56042"
       gradientUnits="userSpaceOnUse" /></defs><sodipodi:namedview
     id="base"
     pagecolor="#ffffff"
     bordercolor="#666666"
     borderopacity="1.0"
     inkscape:pageopacity="0.0"
     inkscape:pageshadow="2"
     inkscape:zoom="15.839192"
     inkscape:cx="34.029514"
     inkscape:cy="7.3867405"
     inkscape:document-units="px"
     inkscape:current-layer="layer1"
     showgrid="true"
     units="px"
     inkscape:showpageshadow="false"
     inkscape:snap-bbox="true"
     inkscape:bbox-paths="true"
     inkscape:bbox-nodes="true"
     inkscape:snap-bbox-edge-midpoints="true"
     inkscape:snap-bbox-midpoints="true"
     inkscape:object-paths="true"
     inkscape:snap-intersection-paths="true"
     inkscape:window-width="2560"
     inkscape:window-height="1353"
     inkscape:window-x="0"
     inkscape:window-y="0"
     inkscape:window-maximized="1"
     inkscape:pagecheckerboard="0"
     inkscape:deskcolor="#d1d1d1"><inkscape:grid
       type="xygrid"
       id="grid815" /></sodipodi:namedview><metadata
     id="metadata5"><rdf:RDF><cc:Work
         rdf:about=""><dc:format>image/svg+xml</dc:format><dc:type
           rdf:resource="http://purl.org/dc/dcmitype/StillImage" /></cc:Work></rdf:RDF></metadata><g
     inkscape:label="Capa 1"
     inkscape:groupmode="layer"
     id="layer1"
     transform="translate(0,-288.53333)"><path
       style="fill:#d6c3aa;fill-opacity:1;stroke:none;stroke-width:0.529167;stroke-linecap:round;stroke-linejoin:round;stroke-miterlimit:4;stroke-dasharray:none;stroke-dashoffset:0;stroke-opacity:1"
       d="m 4.2333333,290.12083 v 0 l 0,0 c 0,0 3.1750001,2.11667 3.175,2.11666 v 3.96876 c 0,0.29316 -0.2360078,0.52917 -0.5291656,0.52917 H 1.587499 c -0.2931577,0 -0.5291656,-0.23601 -0.5291656,-0.52917 v -3.96876 z"
       id="rect1076"
       inkscape:connector-curvature="0"
       sodipodi:nodetypes="ccccsssscc" /><path
       style="fill:url(#linearGradient8142);fill-opacity:1;stroke:none;stroke-width:0.529167;stroke-linecap:round;stroke-linejoin:round;stroke-miterlimit:4;stroke-dasharray:none;stroke-dashoffset:0;stroke-opacity:1"
       d="m 1.3229167,292.2375 2.9104166,-2.11667 2.9104167,2.11667 v -1e-5 3.96876 c 0,0.14658 -0.1180037,0.26459 -0.2645823,0.26459 H 1.587499 c -0.1465786,0 -0.2645823,-0.11801 -0.2645823,-0.26459 v -3.96876 z"
       id="rect1078"
       inkscape:connector-curvature="0"
       sodipodi:nodetypes="ccccsssscc" /><path
       id="rect398"
       style="fill:#874720;stroke:none;stroke-width:0.529167;stroke-linecap:round;stroke-linejoin:round"
       d="m 3.175,293.03125 c -0.586316,0 -1.0583333,0.47201 -1.0583333,1.05833 v 0.79375 0.52917 1.05833 H 3.175 4.2333333 v -1.05833 -0.52917 -0.79375 c 0,-0.58632 -0.4720172,-1.05833 -1.0583333,-1.05833 z" /><path
       id="rect1023"
       style="fill:url(#linearGradient8222);stroke-width:0.529167;stroke-linecap:round;stroke-linejoin:round;fill-opacity:1"
       d="m 3.1749999,293.29584 h 10e-8 c 0.4397375,0 0.79375,0.35401 0.79375,0.79375 v 1.85207 c 0,0.43974 -0.3540125,0.79375 -0.79375,0.79375 h -10e-8 c -0.4397375,0 -0.79375,-0.35401 -0.79375,-0.79375 v -1.85207 c 0,-0.43974 0.3540125,-0.79375 0.79375,-0.79375 z" /><rect
       style="fill:none;fill-opacity:1;stroke:none;stroke-width:1.05833;stroke-linecap:round;stroke-linejoin:round;stroke-dasharray:none;stroke-opacity:1"
       id="rect1949"
       width="1.0583333"
       height="2.3812499"
       x="5.8208332"
       y="289.32709"
       ry="0.52916664" /><rect
       style="fill:none;fill-opacity:1;stroke:none;stroke-width:1.05833;stroke-linecap:round;stroke-linejoin:round;stroke-dasharray:none;stroke-opacity:1"
       id="rect2003"
       width="1.3229166"
       height="2.6458333"
       x="5.8208332"
       y="289.32709"
       ry="0.52916664" /><rect
       style="fill:none;fill-opacity:1;stroke:none;stroke-width:1.05833;stroke-linecap:round;stroke-linejoin:round;stroke-dasharray:none;stroke-opacity:1"
       id="rect2019"
       width="1.3229166"
       height="2.6458333"
       x="5.8208332"
       y="289.32709"
       ry="0.52916664" /><path
       id="rect2073"
       style="fill:#6e1c1c;fill-opacity:1;stroke:none;stroke-width:1.05833;stroke-linecap:round;stroke-linejoin:round;stroke-dasharray:none;stroke-opacity:1"
       d="M 6.4652385 289.32708 C 6.1067679 289.3361 5.8208334 289.62782 5.8208334 289.98854 L 5.8208334 291.31146 C 5.8208334 291.6779 6.1158441 291.97291 6.4822917 291.97291 C 6.6996072 291.97291 6.8915359 291.8692 7.0119751 291.70833 L 7.14375 291.70833 L 7.14375 291.32851 C 7.1438932 291.32282 7.14375 291.31718 7.14375 291.31146 L 7.14375 290.38541 L 7.14375 289.98854 C 7.14375 289.62209 6.8487393 289.32708 6.4822917 289.32708 C 6.4765659 289.32708 6.4709285 289.32694 6.4652385 289.32708 z " /><rect
       style="fill:url(#linearGradient4036);fill-opacity:1;stroke:none;stroke-width:0.529167;stroke-linecap:round;stroke-linejoin:round;stroke-dasharray:none;stroke-opacity:1"
       id="rect3507"
       width="0.79374999"
       height="2.1166666"
       x="6.0854168"
       y="289.59167"
       ry="0.39687499" /><path
       style="color:#000000;fill:#6e1c1c;stroke-linecap:round;stroke-linejoin:round;-inkscape-stroke:none;fill-opacity:1"
       d="m 3.875,289.20312 -3.43945312,3.17383 a 0.5291667,0.5291667 0 0 0 -0.03125,0.74805 0.5291667,0.5291667 0 0 0 0.74804682,0.0312 l 3.0800782,-2.84375 3.0820312,2.84375 A 0.5291667,0.5291667 0 0 0 8.0625,293.125 0.5291667,0.5291667 0 0 0 8.03125,292.37695 l -3.4394531,-3.17383 a 0.52921962,0.52921962 0 0 0 -0.7167969,0 z"
       id="path1787" /><path
       style="color:#000000;fill:url(#linearGradient6873);stroke-linecap:round;stroke-linejoin:round;-inkscape-stroke:none;fill-opacity:1"
       d="m 4.0546875,289.39648 -3.43945313,3.17579 a 0.26458335,0.26458335 0 0 0 -0.015625,0.37304 0.26458335,0.26458335 0 0 0 0.37304688,0.0156 l 3.25976565,-3.00977 3.2617187,3.00977 a 0.26458335,0.26458335 0 0 0 0.3730469,-0.0156 0.26458335,0.26458335 0 0 0 -0.015625,-0.37304 l -3.4394531,-3.17579 a 0.26460981,0.26460981 0 0 0 -0.3574219,0 z"
       id="path466" /><path
       style="fill:#1670d9;fill-opacity:0.980392;stroke:none;stroke-width:0.529167;stroke-linecap:round;stroke-linejoin:round;stroke-miterlimit:4;stroke-dasharray:none;stroke-dashoffset:0;stroke-opacity:1"
       d="m 5.0270824,293.29582 1.3229189,1e-5 c 0.1465786,0 0.2645822,0.118 0.2645822,0.26458 v 1.32292 c 0,0.14658 -0.1180036,0.26458 -0.2645822,0.26458 H 5.0270824 c -0.1465787,0 -0.2645823,-0.11801 -0.2645823,-0.26459 v -1.32291 c 0,-0.14658 0.1180036,-0.26459 0.2645823,-0.26459 z"
       id="rect1372-1-6"
       inkscape:connector-curvature="0"
       sodipodi:nodetypes="sssssssss" /><path
       style="fill:url(#linearGradient8033);fill-opacity:1;stroke:none;stroke-width:0.529167;stroke-linecap:round;stroke-linejoin:round;stroke-miterlimit:4;stroke-dasharray:none;stroke-dashoffset:0;stroke-opacity:1"
       d="m 5.0270834,293.56041 h 1.3229167 v 1.32292 l -1.3229167,-10e-6 z"
       id="rect1389-2-2"
       inkscape:connector-curvature="0"
       sodipodi:nodetypes="ccccc" /><path
       style="fill:#363c4d;fill-opacity:1;stroke:none;stroke-width:0.213783;stroke-linecap:round;stroke-linejoin:round;stroke-miterlimit:4;stroke-dasharray:none;stroke-opacity:1;paint-order:stroke markers fill"
       d="m 2.1166669,295.94166 c -0.1465791,0 -0.2645833,0.118 -0.2645833,0.26458 v 0.26458 0.26459 h 0.2645833 2.1166666 0.2645833 v -0.26459 -0.26458 c 0,-0.14658 -0.1180039,-0.26458 -0.2645833,-0.26458 z"
       id="rect938-2-2-8"
       inkscape:connector-curvature="0"
       sodipodi:nodetypes="ssccccccsss" /><path
       inkscape:connector-curvature="0"
       style="fill:url(#linearGradient8108);fill-opacity:1;stroke:none;stroke-width:0.213783;stroke-linecap:round;stroke-linejoin:round;stroke-miterlimit:4;stroke-dasharray:none;stroke-opacity:1;paint-order:stroke markers fill"
       d="m 2.1166669,296.20624 h 2.1166666 v 0.26458 H 2.1166669 Z"
       id="rect945-0-9-7"
       sodipodi:nodetypes="ccccc" /></g></svg>
