<?xml version="1.0" encoding="UTF-8" standalone="no"?>
<!-- Created with Inkscape (http://www.inkscape.org/) -->

<svg
   width="32"
   height="32"
   viewBox="0 0 32 32"
   version="1.1"
   id="svg8"
   inkscape:version="1.2.2 (b0a8486541, 2022-12-01)"
   sodipodi:docname="view-list-tree.svg"
   xmlns:inkscape="http://www.inkscape.org/namespaces/inkscape"
   xmlns:sodipodi="http://sodipodi.sourceforge.net/DTD/sodipodi-0.dtd"
   xmlns:xlink="http://www.w3.org/1999/xlink"
   xmlns="http://www.w3.org/2000/svg"
   xmlns:svg="http://www.w3.org/2000/svg"
   xmlns:rdf="http://www.w3.org/1999/02/22-rdf-syntax-ns#"
   xmlns:cc="http://creativecommons.org/ns#"
   xmlns:dc="http://purl.org/dc/elements/1.1/">
  <title
     id="title7895">Antu icon Theme</title>
  <defs
     id="defs2">
    <linearGradient
       inkscape:collect="always"
       xlink:href="#linearGradient1116"
       id="linearGradient29630-9"
       gradientUnits="userSpaceOnUse"
       gradientTransform="translate(167,-3)"
       x1="-10"
       y1="315.64999"
       x2="-10"
       y2="299.64999" />
    <linearGradient
       inkscape:collect="always"
       id="linearGradient1116">
      <stop
         style="stop-color:#dadada;stop-opacity:1"
         offset="0"
         id="stop1111" />
      <stop
         style="stop-color:#fcfcfc;stop-opacity:1"
         offset="1"
         id="stop1113" />
    </linearGradient>
    <linearGradient
       inkscape:collect="always"
       xlink:href="#linearGradient4582-3"
       id="linearGradient29634-8"
       gradientUnits="userSpaceOnUse"
       gradientTransform="translate(159,-5)"
       x1="-2"
       y1="302.64999"
       x2="-2"
       y2="292.64999" />
    <linearGradient
       id="linearGradient4582-3"
       inkscape:collect="always">
      <stop
         id="stop4578-5"
         offset="0"
         style="stop-color:#272d37;stop-opacity:1;" />
      <stop
         id="stop4580-6"
         offset="1"
         style="stop-color:#343b49;stop-opacity:1;" />
    </linearGradient>
  </defs>
  <sodipodi:namedview
     id="base"
     pagecolor="#ffffff"
     bordercolor="#666666"
     borderopacity="1.0"
     inkscape:pageopacity="0.0"
     inkscape:pageshadow="2"
     inkscape:zoom="1"
     inkscape:cx="-148.5"
     inkscape:cy="148"
     inkscape:document-units="px"
     inkscape:current-layer="layer1"
     showgrid="true"
     units="px"
     inkscape:window-width="2560"
     inkscape:window-height="1353"
     inkscape:window-x="0"
     inkscape:window-y="0"
     inkscape:window-maximized="1"
     objecttolerance="10"
     gridtolerance="10"
     guidetolerance="10"
     inkscape:snap-bbox="true"
     inkscape:bbox-paths="true"
     inkscape:bbox-nodes="true"
     inkscape:snap-bbox-edge-midpoints="true"
     inkscape:snap-bbox-midpoints="true"
     inkscape:object-paths="true"
     inkscape:snap-intersection-paths="true"
     inkscape:showpageshadow="2"
     inkscape:pagecheckerboard="0"
     inkscape:deskcolor="#d1d1d1">
    <inkscape:grid
       type="xygrid"
       id="grid7897"
       empspacing="4" />
  </sodipodi:namedview>
  <metadata
     id="metadata5">
    <rdf:RDF>
      <cc:Work
         rdf:about="">
        <dc:format>image/svg+xml</dc:format>
        <dc:type
           rdf:resource="http://purl.org/dc/dcmitype/StillImage" />
        <dc:title>Antu icon Theme</dc:title>
      </cc:Work>
    </rdf:RDF>
  </metadata>
  <g
     inkscape:label="Capa 1"
     inkscape:groupmode="layer"
     id="layer1"
     transform="translate(0,-282.64999)">
    <g
       id="g41438"
       transform="translate(-285,-218)">
      <g
         id="g40777"
         transform="translate(144,216)">
        <path
           inkscape:connector-curvature="0"
           style="fill:#90a4ae;fill-opacity:1;stroke:none;stroke-width:0.808;stroke-linecap:round;stroke-linejoin:round;stroke-miterlimit:4;stroke-dasharray:none;stroke-opacity:1;paint-order:stroke markers fill"
           d="m 143,286.64999 h 28 c 1.108,0 2,0.892 2,2 V 312.65 c 0,1.108 -0.892,1.99999 -2,1.99999 h -28 c -1.108,0 -2,-0.89199 -2,-1.99999 v -24.00001 c 0,-1.108 0.892,-2 2,-2 z"
           id="rect941-0-8" />
        <path
           inkscape:connector-curvature="0"
           style="fill:url(#linearGradient29630-9);fill-opacity:1;stroke:none;stroke-width:0.808;stroke-linecap:round;stroke-linejoin:round;stroke-miterlimit:4;stroke-dasharray:none;stroke-opacity:1;paint-order:stroke markers fill"
           d="m 143,287.64999 h 28 c 0.554,0 1,0.446 1,1 v 24 c 0,0.554 -0.446,1 -1,1 h -28 c -0.554,0 -1,-0.446 -1,-1 v -24 c 0,-0.554 0.446,-1 1,-1 z"
           id="rect943-39-3" />
        <path
           sodipodi:nodetypes="ssccccccccsss"
           inkscape:connector-curvature="0"
           id="rect866-6-8"
           d="m 143,286.64999 c -1.108,0 -2,0.892 -2,2 v 2 1 2 h 2 28 2 v -2 -1 -2 c 0,-1.108 -0.892,-2 -2,-2 z"
           style="fill:#1f1f26;fill-opacity:1;stroke:none;stroke-width:0.808;stroke-linecap:round;stroke-linejoin:round;stroke-miterlimit:4;stroke-dasharray:none;stroke-opacity:1;paint-order:stroke markers fill" />
        <path
           sodipodi:nodetypes="ssccccccccsss"
           inkscape:connector-curvature="0"
           id="rect868-9-3"
           d="m 143,287.64999 c -0.554,0 -1,0.446 -1,1 v 2 1 1 h 1 28 1 v -1 -1 -2 c 0,-0.554 -0.446,-1 -1,-1 z"
           style="fill:url(#linearGradient29634-8);fill-opacity:1;stroke:none;stroke-width:0.808;stroke-linecap:round;stroke-linejoin:round;stroke-miterlimit:4;stroke-dasharray:none;stroke-opacity:1;paint-order:stroke markers fill" />
        <path
           id="rect892-6-9"
           style="fill:#90a4ae;fill-opacity:1;stroke:none;stroke-width:2;stroke-linecap:round;stroke-linejoin:round;stroke-miterlimit:4;stroke-dasharray:none;stroke-dashoffset:0;stroke-opacity:1"
           d="m 148,295.64999 c -0.554,0 -1,0.446 -1,1 v 5 c 0,0.554 0.446,1 1,1 h 3 v 1 1 h 1 3 v 5 1 h 4 v 2 c 0,0.554 0.446,1 1,1 h 6 c 0.554,0 1,-0.446 1,-1 v -4 c 0,-0.554 -0.446,-1 -1,-1 h -3 l -1,-1 h -2 c -0.554,0 -1,0.446 -1,1 v 2 h -3 v -5 h 3 c 0,0.554 0.446,1 1,1 h 6 c 0.554,0 1,-0.446 1,-1 v -4 c 0,-0.554 -0.446,-1 -1,-1 h -3 l -1,-1 h -2 c -0.554,0 -1,0.446 -1,1 v 4 h -7 v -1 h 2 c 0.554,0 1,-0.446 1,-1 v -4 c 0,-0.554 -0.446,-1 -1,-1 h -3 l -1,-1 z" />
        <path
           style="fill:#223240;fill-opacity:1;stroke:none;stroke-width:2;stroke-linecap:round;stroke-linejoin:round;stroke-miterlimit:4;stroke-dasharray:none;stroke-dashoffset:0;stroke-opacity:1"
           d="m 151,300.64999 v 2 1 h 1 3 v 5 1 h 5 v -1 h -4 v -5 h 7 v -1 h -11 v -2 z"
           id="rect892-6"
           inkscape:connector-curvature="0" />
        <path
           sodipodi:nodetypes="sccssssssss"
           inkscape:connector-curvature="0"
           id="rect1104-8-6-5"
           d="m 148,294.64999 h 2 l 1,1 h 3 c 0.554,0 1,0.446 1,1 V 300.65 c 0,0.554 -0.446,0.99999 -1,0.99999 h -6 c -0.554,0 -1,-0.44599 -1,-0.99999 v -5.00001 c 0,-0.554 0.446,-1 1,-1 z"
           style="fill:#223240;fill-opacity:1;stroke:none;stroke-width:2;stroke-linecap:round;stroke-linejoin:round;stroke-miterlimit:4;stroke-dasharray:none;stroke-dashoffset:0;stroke-opacity:1" />
        <path
           sodipodi:nodetypes="ccccccc"
           inkscape:connector-curvature="0"
           id="rect1122-1-2"
           d="m 148,297.64999 h 2 l 1,-1 h 3 v 4 h -6 z"
           style="fill:#637d8a;fill-opacity:1;stroke:none;stroke-width:2;stroke-linecap:round;stroke-linejoin:round;stroke-miterlimit:4;stroke-dasharray:none;stroke-dashoffset:0;stroke-opacity:1" />
        <path
           sodipodi:nodetypes="sccssssssss"
           inkscape:connector-curvature="0"
           id="rect1104-6"
           d="m 160,297.64999 h 2 l 1,1 h 3 c 0.554,0 1,0.446 1,1 V 303.65 c 0,0.554 -0.446,0.99999 -1,0.99999 h -6 c -0.554,0 -1,-0.44599 -1,-0.99999 v -5.00001 c 0,-0.554 0.446,-1 1,-1 z"
           style="fill:#0c63cc;fill-opacity:1;stroke:none;stroke-width:2;stroke-linecap:round;stroke-linejoin:round;stroke-miterlimit:4;stroke-dasharray:none;stroke-dashoffset:0;stroke-opacity:1" />
        <path
           sodipodi:nodetypes="ccccccc"
           inkscape:connector-curvature="0"
           id="rect1122-9-5"
           d="m 160,300.64999 h 2 l 1,-1 h 3 v 4 h -6 z"
           style="fill:#33acfa;fill-opacity:1;stroke:none;stroke-width:2;stroke-linecap:round;stroke-linejoin:round;stroke-miterlimit:4;stroke-dasharray:none;stroke-dashoffset:0;stroke-opacity:1" />
        <path
           sodipodi:nodetypes="sccssssssss"
           inkscape:connector-curvature="0"
           id="rect1104-8-2-0-8"
           d="m 160,305.64999 h 2 l 1,1 h 3 c 0.554,0 1,0.446 1,1 V 311.65 c 0,0.554 -0.446,0.99999 -1,0.99999 h -6 c -0.554,0 -1,-0.44599 -1,-0.99999 v -5.00001 c 0,-0.554 0.446,-1 1,-1 z"
           style="fill:#0c63cc;fill-opacity:1;stroke:none;stroke-width:2;stroke-linecap:round;stroke-linejoin:round;stroke-miterlimit:4;stroke-dasharray:none;stroke-dashoffset:0;stroke-opacity:1" />
        <path
           sodipodi:nodetypes="ccccccc"
           inkscape:connector-curvature="0"
           id="rect1122-7-6-7"
           d="m 160,308.64999 h 2 l 1,-1 h 3 v 4 h -6 z"
           style="fill:#33acfa;fill-opacity:1;stroke:none;stroke-width:2;stroke-linecap:round;stroke-linejoin:round;stroke-miterlimit:4;stroke-dasharray:none;stroke-dashoffset:0;stroke-opacity:1" />
      </g>
    </g>
    <g
       id="g41466"
       transform="translate(-285,-218)">
      <g
         id="g41464"
         transform="translate(144,216)">
        <path
           inkscape:connector-curvature="0"
           style="fill:#90a4ae;fill-opacity:1;stroke:none;stroke-width:0.808;stroke-linecap:round;stroke-linejoin:round;stroke-miterlimit:4;stroke-dasharray:none;stroke-opacity:1;paint-order:stroke markers fill"
           d="m 143,286.64999 h 28 c 1.108,0 2,0.892 2,2 V 312.65 c 0,1.108 -0.892,1.99999 -2,1.99999 h -28 c -1.108,0 -2,-0.89199 -2,-1.99999 v -24.00001 c 0,-1.108 0.892,-2 2,-2 z"
           id="path41440" />
        <path
           inkscape:connector-curvature="0"
           style="fill:url(#linearGradient29630-9);fill-opacity:1;stroke:none;stroke-width:0.808;stroke-linecap:round;stroke-linejoin:round;stroke-miterlimit:4;stroke-dasharray:none;stroke-opacity:1;paint-order:stroke markers fill"
           d="m 143,287.64999 h 28 c 0.554,0 1,0.446 1,1 v 24 c 0,0.554 -0.446,1 -1,1 h -28 c -0.554,0 -1,-0.446 -1,-1 v -24 c 0,-0.554 0.446,-1 1,-1 z"
           id="path41442" />
        <path
           sodipodi:nodetypes="ssccccccccsss"
           inkscape:connector-curvature="0"
           id="path41444"
           d="m 143,286.64999 c -1.108,0 -2,0.892 -2,2 v 2 1 2 h 2 28 2 v -2 -1 -2 c 0,-1.108 -0.892,-2 -2,-2 z"
           style="fill:#1f1f26;fill-opacity:1;stroke:none;stroke-width:0.808;stroke-linecap:round;stroke-linejoin:round;stroke-miterlimit:4;stroke-dasharray:none;stroke-opacity:1;paint-order:stroke markers fill" />
        <path
           sodipodi:nodetypes="ssccccccccsss"
           inkscape:connector-curvature="0"
           id="path41446"
           d="m 143,287.64999 c -0.554,0 -1,0.446 -1,1 v 2 1 1 h 1 28 1 v -1 -1 -2 c 0,-0.554 -0.446,-1 -1,-1 z"
           style="fill:url(#linearGradient29634-8);fill-opacity:1;stroke:none;stroke-width:0.808;stroke-linecap:round;stroke-linejoin:round;stroke-miterlimit:4;stroke-dasharray:none;stroke-opacity:1;paint-order:stroke markers fill" />
        <path
           id="path41448"
           style="fill:#90a4ae;fill-opacity:1;stroke:none;stroke-width:2;stroke-linecap:round;stroke-linejoin:round;stroke-miterlimit:4;stroke-dasharray:none;stroke-dashoffset:0;stroke-opacity:1"
           d="m 148,295.64999 c -0.554,0 -1,0.446 -1,1 v 5 c 0,0.554 0.446,1 1,1 h 3 v 1 1 h 1 3 v 5 1 h 4 v 2 c 0,0.554 0.446,1 1,1 h 6 c 0.554,0 1,-0.446 1,-1 v -4 c 0,-0.554 -0.446,-1 -1,-1 h -3 l -1,-1 h -2 c -0.554,0 -1,0.446 -1,1 v 2 h -3 v -5 h 3 c 0,0.554 0.446,1 1,1 h 6 c 0.554,0 1,-0.446 1,-1 v -4 c 0,-0.554 -0.446,-1 -1,-1 h -3 l -1,-1 h -2 c -0.554,0 -1,0.446 -1,1 v 4 h -7 v -1 h 2 c 0.554,0 1,-0.446 1,-1 v -4 c 0,-0.554 -0.446,-1 -1,-1 h -3 l -1,-1 z" />
        <path
           style="fill:#223240;fill-opacity:1;stroke:none;stroke-width:2;stroke-linecap:round;stroke-linejoin:round;stroke-miterlimit:4;stroke-dasharray:none;stroke-dashoffset:0;stroke-opacity:1"
           d="m 151,300.64999 v 2 1 h 1 3 v 5 1 h 5 v -1 h -4 v -5 h 7 v -1 h -11 v -2 z"
           id="path41450"
           inkscape:connector-curvature="0" />
        <path
           sodipodi:nodetypes="sccssssssss"
           inkscape:connector-curvature="0"
           id="path41452"
           d="m 148,294.64999 h 2 l 1,1 h 3 c 0.554,0 1,0.446 1,1 V 300.65 c 0,0.554 -0.446,0.99999 -1,0.99999 h -6 c -0.554,0 -1,-0.44599 -1,-0.99999 v -5.00001 c 0,-0.554 0.446,-1 1,-1 z"
           style="fill:#223240;fill-opacity:1;stroke:none;stroke-width:2;stroke-linecap:round;stroke-linejoin:round;stroke-miterlimit:4;stroke-dasharray:none;stroke-dashoffset:0;stroke-opacity:1" />
        <path
           sodipodi:nodetypes="ccccccc"
           inkscape:connector-curvature="0"
           id="path41454"
           d="m 148,297.64999 h 2 l 1,-1 h 3 v 4 h -6 z"
           style="fill:#637d8a;fill-opacity:1;stroke:none;stroke-width:2;stroke-linecap:round;stroke-linejoin:round;stroke-miterlimit:4;stroke-dasharray:none;stroke-dashoffset:0;stroke-opacity:1" />
        <path
           sodipodi:nodetypes="sccssssssss"
           inkscape:connector-curvature="0"
           id="path41456"
           d="m 160,297.64999 h 2 l 1,1 h 3 c 0.554,0 1,0.446 1,1 V 303.65 c 0,0.554 -0.446,0.99999 -1,0.99999 h -6 c -0.554,0 -1,-0.44599 -1,-0.99999 v -5.00001 c 0,-0.554 0.446,-1 1,-1 z"
           style="fill:#0c63cc;fill-opacity:1;stroke:none;stroke-width:2;stroke-linecap:round;stroke-linejoin:round;stroke-miterlimit:4;stroke-dasharray:none;stroke-dashoffset:0;stroke-opacity:1" />
        <path
           sodipodi:nodetypes="ccccccc"
           inkscape:connector-curvature="0"
           id="path41458"
           d="m 160,300.64999 h 2 l 1,-1 h 3 v 4 h -6 z"
           style="fill:#33acfa;fill-opacity:1;stroke:none;stroke-width:2;stroke-linecap:round;stroke-linejoin:round;stroke-miterlimit:4;stroke-dasharray:none;stroke-dashoffset:0;stroke-opacity:1" />
        <path
           sodipodi:nodetypes="sccssssssss"
           inkscape:connector-curvature="0"
           id="path41460"
           d="m 160,305.64999 h 2 l 1,1 h 3 c 0.554,0 1,0.446 1,1 V 311.65 c 0,0.554 -0.446,0.99999 -1,0.99999 h -6 c -0.554,0 -1,-0.44599 -1,-0.99999 v -5.00001 c 0,-0.554 0.446,-1 1,-1 z"
           style="fill:#0c63cc;fill-opacity:1;stroke:none;stroke-width:2;stroke-linecap:round;stroke-linejoin:round;stroke-miterlimit:4;stroke-dasharray:none;stroke-dashoffset:0;stroke-opacity:1" />
        <path
           sodipodi:nodetypes="ccccccc"
           inkscape:connector-curvature="0"
           id="path41462"
           d="m 160,308.64999 h 2 l 1,-1 h 3 v 4 h -6 z"
           style="fill:#33acfa;fill-opacity:1;stroke:none;stroke-width:2;stroke-linecap:round;stroke-linejoin:round;stroke-miterlimit:4;stroke-dasharray:none;stroke-dashoffset:0;stroke-opacity:1" />
      </g>
    </g>
  </g>
</svg>
