<?xml version="1.0" encoding="UTF-8" standalone="no"?>
<!-- Created with Inkscape (http://www.inkscape.org/) -->

<svg
   width="32"
   height="32"
   viewBox="0 0 32 32"
   version="1.1"
   id="svg8"
   inkscape:version="1.2.2 (b0a8486541, 2022-12-01)"
   sodipodi:docname="view-right-close.svg"
   xmlns:inkscape="http://www.inkscape.org/namespaces/inkscape"
   xmlns:sodipodi="http://sodipodi.sourceforge.net/DTD/sodipodi-0.dtd"
   xmlns:xlink="http://www.w3.org/1999/xlink"
   xmlns="http://www.w3.org/2000/svg"
   xmlns:svg="http://www.w3.org/2000/svg"
   xmlns:rdf="http://www.w3.org/1999/02/22-rdf-syntax-ns#"
   xmlns:cc="http://creativecommons.org/ns#"
   xmlns:dc="http://purl.org/dc/elements/1.1/">
  <title
     id="title7895">Antu icon Theme</title>
  <defs
     id="defs2">
    <linearGradient
       inkscape:collect="always"
       xlink:href="#linearGradient1116"
       id="linearGradient14507"
       gradientUnits="userSpaceOnUse"
       gradientTransform="translate(107,54)"
       x1="-10"
       y1="315.64999"
       x2="-10"
       y2="299.64999" />
    <linearGradient
       inkscape:collect="always"
       id="linearGradient1116">
      <stop
         style="stop-color:#dadada;stop-opacity:1"
         offset="0"
         id="stop1111" />
      <stop
         style="stop-color:#fcfcfc;stop-opacity:1"
         offset="1"
         id="stop1113" />
    </linearGradient>
    <linearGradient
       inkscape:collect="always"
       xlink:href="#linearGradient14738"
       id="linearGradient14509"
       gradientUnits="userSpaceOnUse"
       gradientTransform="translate(107,54)"
       x1="-10"
       y1="315.64999"
       x2="-10"
       y2="299.64999" />
    <linearGradient
       inkscape:collect="always"
       id="linearGradient14738">
      <stop
         style="stop-color:#fc413b;stop-opacity:1;"
         offset="0"
         id="stop14734" />
      <stop
         style="stop-color:#fc413b;stop-opacity:1;"
         offset="1"
         id="stop14736" />
    </linearGradient>
    <linearGradient
       inkscape:collect="always"
       xlink:href="#linearGradient4582-3"
       id="linearGradient14511"
       gradientUnits="userSpaceOnUse"
       gradientTransform="translate(99,52)"
       x1="-2"
       y1="302.64999"
       x2="-2"
       y2="292.64999" />
    <linearGradient
       id="linearGradient4582-3"
       inkscape:collect="always">
      <stop
         id="stop4578-5"
         offset="0"
         style="stop-color:#272d37;stop-opacity:1;" />
      <stop
         id="stop4580-6"
         offset="1"
         style="stop-color:#343b49;stop-opacity:1;" />
    </linearGradient>
  </defs>
  <sodipodi:namedview
     id="base"
     pagecolor="#ffffff"
     bordercolor="#666666"
     borderopacity="1.0"
     inkscape:pageopacity="0.0"
     inkscape:pageshadow="2"
     inkscape:zoom="22.4"
     inkscape:cx="29.464286"
     inkscape:cy="14.375"
     inkscape:document-units="px"
     inkscape:current-layer="g18241"
     showgrid="true"
     units="px"
     inkscape:window-width="2560"
     inkscape:window-height="1353"
     inkscape:window-x="0"
     inkscape:window-y="0"
     inkscape:window-maximized="1"
     objecttolerance="10"
     gridtolerance="10"
     guidetolerance="10"
     inkscape:snap-bbox="true"
     inkscape:bbox-paths="true"
     inkscape:bbox-nodes="true"
     inkscape:snap-bbox-edge-midpoints="true"
     inkscape:snap-bbox-midpoints="true"
     inkscape:object-paths="true"
     inkscape:snap-intersection-paths="true"
     inkscape:showpageshadow="2"
     inkscape:pagecheckerboard="0"
     inkscape:deskcolor="#d1d1d1">
    <inkscape:grid
       type="xygrid"
       id="grid7897"
       empspacing="4" />
  </sodipodi:namedview>
  <metadata
     id="metadata5">
    <rdf:RDF>
      <cc:Work
         rdf:about="">
        <dc:format>image/svg+xml</dc:format>
        <dc:type
           rdf:resource="http://purl.org/dc/dcmitype/StillImage" />
        <dc:title>Antu icon Theme</dc:title>
      </cc:Work>
    </rdf:RDF>
  </metadata>
  <g
     inkscape:label="Capa 1"
     inkscape:groupmode="layer"
     id="layer1"
     transform="translate(0,-282.64999)">
    <g
       id="g18241"
       transform="translate(-81,-59)">
      <path
         inkscape:connector-curvature="0"
         style="fill:#90a4ae;fill-opacity:1;stroke:none;stroke-width:0.808;stroke-linecap:round;stroke-linejoin:round;stroke-miterlimit:4;stroke-dasharray:none;stroke-opacity:1;paint-order:stroke markers fill"
         d="M 82.999996,343.64999 H 111 c 1.108,0 2,0.892 2,2 V 369.65 c 0,1.108 -0.892,1.99999 -2,1.99999 H 82.999996 C 81.891998,371.64999 81,370.758 81,369.65 v -24.00001 c 0,-1.108 0.891998,-2 1.999996,-2 z"
         id="rect941-4" />
      <path
         inkscape:connector-curvature="0"
         style="fill:url(#linearGradient14507);fill-opacity:1;stroke:none;stroke-width:0.808;stroke-linecap:round;stroke-linejoin:round;stroke-miterlimit:4;stroke-dasharray:none;stroke-opacity:1;paint-order:stroke markers fill"
         d="m 83,344.64999 h 28 c 0.554,0 1,0.446 1,1 v 24 c 0,0.554 -0.446,1 -1,1 H 83 c -0.554,0 -1,-0.446 -1,-1 v -24 c 0,-0.554 0.446,-1 1,-1 z"
         id="rect943-3" />
      <path
         id="rect941-5-3"
         style="fill:#b3272d;fill-opacity:1;stroke:none;stroke-width:0.808;stroke-linecap:round;stroke-linejoin:round;stroke-miterlimit:4;stroke-dasharray:none;stroke-opacity:1;paint-order:stroke markers fill"
         d="m 98,343.64999 c -1.107997,0 -2,0.892 -2,2 v 24 2 h 2 13 c 1.108,0 2,-0.892 2,-2 v -24 c 0,-1.108 -0.892,-2 -2,-2 z"
         sodipodi:nodetypes="sscccsssss" />
      <path
         id="rect943-7-3"
         style="fill:url(#linearGradient14509);fill-opacity:1;stroke:none;stroke-width:0.808;stroke-linecap:round;stroke-linejoin:round;stroke-miterlimit:4;stroke-dasharray:none;stroke-opacity:1;paint-order:stroke markers fill"
         d="m 98,344.64999 c -0.553999,0 -1,0.446 -1,1 v 23 1 1 h 1 1 12 c 0.554,0 1,-0.446 1,-1 v -24 c 0,-0.554 -0.446,-1 -1,-1 z"
         sodipodi:nodetypes="sscccccsssss" />
      <path
         sodipodi:nodetypes="ssccccccccsss"
         inkscape:connector-curvature="0"
         id="rect866-8"
         d="m 83,343.64999 c -1.107998,0 -2,0.892 -2,2 v 2 1 2 h 2 28 2 v -2 -1 -2 c 0,-1.108 -0.892,-2 -2,-2 z"
         style="fill:#1f1f26;fill-opacity:1;stroke:none;stroke-width:0.808;stroke-linecap:round;stroke-linejoin:round;stroke-miterlimit:4;stroke-dasharray:none;stroke-opacity:1;paint-order:stroke markers fill" />
      <path
         sodipodi:nodetypes="ssccccccccsss"
         inkscape:connector-curvature="0"
         id="rect868-6"
         d="m 83,344.64999 c -0.553998,0 -1,0.446 -1,1 v 2 1 1 h 1 28 1 v -1 -1 -2 c 0,-0.554 -0.446,-1 -1,-1 z"
         style="fill:url(#linearGradient14511);fill-opacity:1;stroke:none;stroke-width:0.808;stroke-linecap:round;stroke-linejoin:round;stroke-miterlimit:4;stroke-dasharray:none;stroke-opacity:1;paint-order:stroke markers fill" />
      <path
         style="fill:#90a4ae;fill-opacity:1;stroke:none;stroke-width:2;stroke-linecap:round;stroke-linejoin:round;stroke-miterlimit:4;stroke-dasharray:none;stroke-dashoffset:0;stroke-opacity:1"
         d="M 85.999996,353.64998 H 88 l 1,1 h 3.000004 c 0.553998,0 0.999996,0.446 0.999996,1 v 4.00001 c 0,0.554 -0.445998,0.99999 -0.999996,0.99999 H 85.999996 C 85.445998,360.64998 85,360.20399 85,359.64999 v -5.00001 c 0,-0.554 0.445998,-1 0.999996,-1 z"
         id="rect1104-8-41-3-0"
         inkscape:connector-curvature="0"
         sodipodi:nodetypes="sccssssssss" />
      <path
         style="fill:#90a4ae;fill-opacity:1;stroke:none;stroke-width:2;stroke-linecap:round;stroke-linejoin:round;stroke-miterlimit:4;stroke-dasharray:none;stroke-dashoffset:0;stroke-opacity:1"
         d="M 85.999996,362.64999 H 88 l 1,1 h 3.000004 c 0.553998,0 0.999996,0.446 0.999996,1 V 368.65 c 0,0.554 -0.445998,0.99999 -0.999996,0.99999 H 85.999996 C 85.445998,369.64999 85,369.204 85,368.65 v -5.00001 c 0,-0.554 0.445998,-1 0.999996,-1 z"
         id="rect1104-8-41-3-8-4"
         inkscape:connector-curvature="0"
         sodipodi:nodetypes="sccssssssss" />
      <path
         style="fill:#223240;fill-opacity:1;stroke:none;stroke-width:2;stroke-linecap:round;stroke-linejoin:round;stroke-miterlimit:4;stroke-dasharray:none;stroke-dashoffset:0;stroke-opacity:1"
         d="m 85.999992,352.64999 h 2.000004 l 1,1 H 92 c 0.553998,0 0.999996,0.446 0.999996,1 V 358.65 c 0,0.554 -0.445998,0.99999 -0.999996,0.99999 h -6.000008 c -0.553998,0 -0.999996,-0.44599 -0.999996,-0.99999 v -5.00001 c 0,-0.554 0.445998,-1 0.999996,-1 z"
         id="rect1104-8-41-8"
         inkscape:connector-curvature="0"
         sodipodi:nodetypes="sccssssssss" />
      <path
         style="fill:#637d8a;fill-opacity:1;stroke:none;stroke-width:2;stroke-linecap:round;stroke-linejoin:round;stroke-miterlimit:4;stroke-dasharray:none;stroke-dashoffset:0;stroke-opacity:1"
         d="m 85.999996,355.64999 h 2 l 1,-1 h 3 v 4 h -6 z"
         id="rect1122-8-8"
         inkscape:connector-curvature="0"
         sodipodi:nodetypes="ccccccc" />
      <path
         style="fill:#223240;fill-opacity:1;stroke:none;stroke-width:2;stroke-linecap:round;stroke-linejoin:round;stroke-miterlimit:4;stroke-dasharray:none;stroke-dashoffset:0;stroke-opacity:1"
         d="M 85.999996,361.64999 H 88 l 1,1 h 3.000004 c 0.553998,0 0.999996,0.446 0.999996,1 V 367.65 c 0,0.554 -0.445998,0.99999 -0.999996,0.99999 H 85.999996 C 85.445998,368.64999 85,368.204 85,367.65 v -5.00001 c 0,-0.554 0.445998,-1 0.999996,-1 z"
         id="rect1104-8-2-5-8"
         inkscape:connector-curvature="0"
         sodipodi:nodetypes="sccssssssss" />
      <path
         style="fill:#637d8a;fill-opacity:1;stroke:none;stroke-width:2;stroke-linecap:round;stroke-linejoin:round;stroke-miterlimit:4;stroke-dasharray:none;stroke-dashoffset:0;stroke-opacity:1"
         d="m 86,364.64999 h 2 l 1,-1 h 3 v 4 h -6 z"
         id="rect1122-7-9-9"
         inkscape:connector-curvature="0"
         sodipodi:nodetypes="ccccccc" />
      <path
         inkscape:connector-curvature="0"
         id="rect1155-7-5-7"
         d="m 103,359.64999 v 0 h -3 v 3 h 3 v 0 h 3 v 0 h 3 v -3 h -3 v 0 z"
         style="fill:#b3272d;fill-opacity:1;stroke:none;stroke-width:2;stroke-linecap:round;stroke-linejoin:round;stroke-miterlimit:4;stroke-dasharray:none;stroke-dashoffset:0;stroke-opacity:1"
         sodipodi:nodetypes="ccccccccccccc" />
      <path
         inkscape:connector-curvature="0"
         id="rect1155-7-7"
         d="m 103,358.64999 v 0 h -3 v 3 h 3 v 0 h 3 v 0 h 3 v -3 h -3 v 0 z"
         style="fill:#fff4f3;fill-opacity:1;stroke:none;stroke-width:2;stroke-linecap:round;stroke-linejoin:round;stroke-miterlimit:4;stroke-dasharray:none;stroke-dashoffset:0;stroke-opacity:1"
         sodipodi:nodetypes="ccccccccccccc" />
    </g>
  </g>
</svg>
