<?xml version="1.0" encoding="UTF-8"?>
<svg id="d" width="24" height="24" version="1.1" xmlns="http://www.w3.org/2000/svg" xmlns:cc="http://creativecommons.org/ns#" xmlns:dc="http://purl.org/dc/elements/1.1/" xmlns:rdf="http://www.w3.org/1999/02/22-rdf-syntax-ns#">
	<metadata id="a">
		<rdf:RDF>
			<cc:Work rdf:about="">
				<dc:format>image/svg+xml</dc:format>
				<dc:type rdf:resource="http://purl.org/dc/dcmitype/StillImage"/>
			</cc:Work>
		</rdf:RDF>
	</metadata>
	<defs id="e">
		<style id="current-color-scheme" type="text/css">.ColorScheme-Text{color:#090d11;}.ColorScheme-Background{color:#ffffff;}</style>
	</defs>
	<path id="b" class="ColorScheme-Background" d="m11.98 3c-3.2794 0.0095172-6.4119 1.8188-7.9883 4.8926-2.1018 4.0984-0.76347 9.1343 3.0957 11.648 0.2314 0.15033 0.54085 0.084769 0.69141-0.14648 0.15033-0.2314 0.08477-0.54085-0.14648-0.69141-3.4371-2.2391-4.6219-6.7034-2.75-10.354 1.8719-3.6501 6.1877-5.2913 10.012-3.8066s5.9037 5.6094 4.8223 9.5664c-1.0546 3.8588-4.7789 6.3226-8.7168 5.8242v-6.4336c0-0.277-0.21292-0.5-0.47656-0.5h-0.04688c-0.26363 0-0.47656 0.223-0.47656 0.5v6.8438c0 0.27006 0.2026 0.48726 0.45703 0.49805 0.02555 0.01471 0.05234 0.02712 0.08008 0.03711 4.5446 0.74856 8.9303-2.0629 10.145-6.5059 1.2143-4.4429-1.1302-9.0948-5.4238-10.762-1.0734-0.41674-2.1842-0.6145-3.2773-0.61133zm-2.0508 6.002c-0.3493 0.02429-0.66045 0.2295-0.82031 0.54102-0.23387 0.45643-0.084536 1.0158 0.3457 1.2949l0.38281 0.14844c0.50527 0.083185 0.99174-0.22876 1.127-0.72266 0.13464-0.4942-0.1259-1.0102-0.60352-1.1953-0.13723-0.053666-0.28462-0.076342-0.43164-0.066406z" style="fill-opacity:.5;fill:currentColor"/>
	<path id="c" class="ColorScheme-Text" d="m12.07 3.97c-0.23867 0-0.47566 0.010038-0.71165 0.027101-2.8319 0.23036-5.4238 1.9647-6.6499 4.6855-1.6347 3.6279-0.34864 7.9146 3.0133 10.044a0.50193 0.50193 0 1 0 0.53716-0.84687c-2.9459-1.8654-4.0673-5.6039-2.6349-8.7829 1.4325-3.179 4.9772-4.8156 8.3261-3.8445 3.3489 0.97114 5.4681 4.2485 4.9776 7.7007-0.44246 3.1145-2.8883 5.4932-5.9226 5.9304v-4.9071a1.0039 1.0039 0 0 0-1.0194-1.0175 1.0039 1.0039 0 0 0-0.98807 1.0175v5.0188a1.0039 1.0039 0 0 0 1.3468 0.95668c3.8281-0.16371 7.0318-3.0324 7.5753-6.8577 0.55968-3.9395-1.8695-7.6981-5.6912-8.8064-0.71657-0.20778-1.4424-0.31177-2.1585-0.31759zm-0.06866 4.9874a1.0038 1.0038 0 0 0-1.0038 1.0038 1.0038 1.0038 0 0 0 1.0038 1.0038 1.0038 1.0038 0 0 0 1.0038-1.0038 1.0038 1.0038 0 0 0-1.0038-1.0038z" style="fill-opacity:.75;fill:currentColor"/>
</svg>
