<svg height="96" viewBox="0 0 25.399999 25.4" width="96" xmlns="http://www.w3.org/2000/svg" xmlns:xlink="http://www.w3.org/1999/xlink"><defs id="antufoldercolor">
    <style type="text/css" id="current-color-scheme">
      .ColorScheme-Highlight {
        color:#45aaf5;
      }
      </style>
  </defs><linearGradient id="a" gradientUnits="userSpaceOnUse" x1="97.999968" x2="97.999968" y1="300.149986" y2="279.149986"><stop offset="0" stop-color="#fff" stop-opacity=".7"/><stop offset="1" stop-color="#fff" stop-opacity=".85"/></linearGradient><linearGradient id="b" gradientUnits="userSpaceOnUse" x1="47.510117" x2="47.000017" y1="379.188012" y2="356.983332"><stop offset="0" stop-color="#fff" stop-opacity=".2"/><stop offset="1" stop-color="#fff" stop-opacity="0"/></linearGradient><linearGradient id="c" gradientUnits="userSpaceOnUse" x1="81.333338" x2="81.333338" y1="414.983362" y2="365.650022"><stop offset="0" stop-color="#fff" stop-opacity="0"/><stop offset="1" stop-color="#fff" stop-opacity=".2"/></linearGradient><g stroke-linecap="round" stroke-linejoin="round" stroke-miterlimit="1.8" stroke-width="1.33333"><g transform="matrix(.39687499 0 0 .39687499 -13.493752 -140.619431)"><path d="m39.333346 356.31667 15.333327.00001c6 0 8.666666 8 13.333334 8l24.666662-.00001c2.954668 0 5.333337 2.37867 5.333337 5.33334v33.33335c0 2.95467-2.378669 5.33334-5.333337 5.33334h-53.333323c-2.954671 0-5.333339-2.37867-5.333339-5.33334v-41.33335c0-2.95467 2.378668-5.33334 5.333339-5.33334z" style="fill:currentColor"
class="ColorScheme-Highlight"/><path d="m39.333338 356.98337 15.333335-.00001c5.333334 0 8 8 13.333327 8l24.666694.00001c2.585323 0 4.666663 2.08133 4.666663 4.66667v33.33332c0 2.58533-2.08134 4.66666-4.666663 4.66666h-53.333356c-2.585333 0-4.666666-2.08133-4.666666-4.66666v-41.33332c0-2.58534 2.081333-4.66667 4.666666-4.66667z" fill-opacity=".12"/><path d="m39.333338 356.98336 15.333335-.00001c5.333334 0 8 8 13.333334 8l24.666667.00001c2.585333 0 4.666666 2.08133 4.666666 4.66667v33.33332c0 2.58533-2.081333 4.66666-4.666666 4.66666h-53.333336c-2.585333 0-4.666666-2.08133-4.666666-4.66666v-41.33332c0-2.58534 2.081333-4.66667 4.666666-4.66667z" fill="url(#b)"/><path d="m39.333346 356.31667c-2.954658 0-5.333317 2.37867-5.333317 5.33334v41.33333c0 2.95466 2.378659 5.33333 5.333317 5.33333h53.333343c2.954658 0 5.333317-2.37867 5.333317-5.33333v-33.33333c0-2.95467-2.378659-5.33334-5.333317-5.33334h-24.666684c-4.666633 0-7.333317-8-13.333317-8zm0 .66667h15.333342c5.333317 0 8 8 13.333317 8h24.666684c2.585298 0 4.666658 2.08133 4.666658 4.66667v33.33333c0 2.58533-2.08136 4.66666-4.666658 4.66666h-53.333343c-2.585323 0-4.666658-2.08133-4.666658-4.66666v-41.33333c0-2.58534 2.081335-4.66667 4.666658-4.66667z" fill-opacity=".2"/><path d="m39.333346 372.31667 15.999993.00001c5.333334 0 7.333334-8 12.666668-8l24.666659-.00001c2.954671 0 5.33334 2.37867 5.33334 5.33334v41.33335c0 2.95467-2.378669 5.33334-5.33334 5.33334h-53.33332c-2.954671 0-5.333339-2.37867-5.333339-5.33334v-33.33335c0-2.95467 2.378668-5.33334 5.333339-5.33334z" style="fill:currentColor"
class="ColorScheme-Highlight"/><path d="m39.333338 372.98336 16.000001-.00001c6 0 8-8 12.666668-8l24.666667.00001c2.585333 0 4.666666 2.08133 4.666666 4.66667v41.33332c0 2.58533-2.081333 4.66666-4.666666 4.66666h-53.333336c-2.585333 0-4.666666-2.08133-4.666666-4.66666v-33.33332c0-2.58534 2.081333-4.66667 4.666666-4.66667z" fill="url(#c)"/><path d="m68.000005 364.31667c-5.333317 0-7.333317 8-12.666659 8h-16c-2.954658 0-5.333342 2.37867-5.333342 5.33334v33.33333c0 2.95466 2.378684 5.33333 5.333342 5.33333h53.333343c2.954658 0 5.333317-2.37867 5.333317-5.33333v-41.33334c0-2.95466-2.378659-5.33333-5.333317-5.33333zm0 .66667h24.666684c2.585323 0 4.666658 2.08133 4.666658 4.66666v41.33334c0 2.58532-2.081335 4.66666-4.666658 4.66666h-53.333343c-2.585323 0-4.666658-2.08134-4.666658-4.66666v-33.33333c0-2.58534 2.081335-4.66667 4.666658-4.66667h16c6 0 8.000001-8 12.666659-8z" fill-opacity=".15"/></g><path d="m92.999969 279.15002c-3.84697 0-6.946683 3.0734-6.996095 6.90821-.0027.0305-.004.0611-.0039.0918 0 .2532.0131.50196.03906.74805.195888 2.95085 1.519453 5.47965 3.462895 7.66601 2.1069 2.37029 4.92202 4.40375 7.943345 6.41797.33591.2239.77348.2239 1.10938 0 3.021336-2.01422 5.836446-4.04768 7.943356-6.41797 1.94344-2.18636 3.26701-4.71515 3.46289-7.66601.0259-.24609.0391-.49486.0391-.74805-.00029-.0333-.002-.0665-.006-.0996-.0536-3.8311-3.1498-6.90039-6.9941-6.90039-1.96293 0-3.731286.80082-4.999996 2.09375-1.26871-1.29293-3.037065-2.09375-4.999995-2.09375z" fill-opacity=".15" opacity=".99" transform="matrix(.41892269425 0 0 .42092869143 -28.3544222414 -106.38975502369)"/><path d="m92.999969 279.15002c-3.84697 0-6.946683 3.0734-6.996095 6.90821-.0027.0305-.004.0611-.0039.0918 0 .2532.0131.50196.03906.74805.195888 2.95085 1.519453 5.47965 3.462895 7.66601 2.1069 2.37029 4.92202 4.40375 7.943345 6.41797.33591.2239.77348.2239 1.10938 0 3.021336-2.01422 5.836446-4.04768 7.943356-6.41797 1.94344-2.18636 3.26701-4.71515 3.46289-7.66601.0259-.24609.0391-.49486.0391-.74805-.00029-.0333-.002-.0665-.006-.0996-.0536-3.8311-3.1498-6.90039-6.9941-6.90039-1.96293 0-3.731286.80082-4.999996 2.09375-1.26871-1.29293-3.037065-2.09375-4.999995-2.09375z" fill="url(#a)" opacity=".99" transform="matrix(.41892269425 0 0 .42092869143 -28.35442184452 -106.65433967327)"/></g></svg>
