<svg height="96" viewBox="0 0 25.399999 25.4" width="96" xmlns="http://www.w3.org/2000/svg" xmlns:xlink="http://www.w3.org/1999/xlink"><defs id="antufoldercolor">
    <style type="text/css" id="current-color-scheme">
      .ColorScheme-Highlight {
        color:#45aaf5;
      }
      </style>
  </defs><linearGradient gradientUnits="userSpaceOnUse" x1="-11.421756" x2=".748606" y1="5.202151" y2="5.202151"><stop offset="0" stop-color="#c1eff2"/><stop offset="1" stop-color="#f0fdff"/></linearGradient><linearGradient id="a" gradientUnits="userSpaceOnUse" x1="-4.591166" x2="-4.591166" y1="13.338123" y2="4.077707"><stop offset="0" stop-color="#fff" stop-opacity=".7"/><stop offset="1" stop-color="#fff" stop-opacity=".85"/></linearGradient><linearGradient id="b" gradientUnits="userSpaceOnUse" x1="47.510117" x2="47.000017" y1="379.188012" y2="356.983332"><stop offset="0" stop-color="#fff" stop-opacity=".2"/><stop offset="1" stop-color="#fff" stop-opacity="0"/></linearGradient><linearGradient id="c" gradientUnits="userSpaceOnUse" x1="81.333338" x2="81.333338" y1="414.983362" y2="365.650022"><stop offset="0" stop-color="#fff" stop-opacity="0"/><stop offset="1" stop-color="#fff" stop-opacity=".2"/></linearGradient><g stroke-linecap="round" stroke-linejoin="round" stroke-miterlimit="1.8" stroke-width="1.33333"><g transform="matrix(.39687499 0 0 .39687499 -13.493752 -140.619431)"><path d="m39.333346 356.31667 15.333327.00001c6 0 8.666666 8 13.333334 8l24.666662-.00001c2.954668 0 5.333337 2.37867 5.333337 5.33334v33.33335c0 2.95467-2.378669 5.33334-5.333337 5.33334h-53.333323c-2.954671 0-5.333339-2.37867-5.333339-5.33334v-41.33335c0-2.95467 2.378668-5.33334 5.333339-5.33334z" style="fill:currentColor"
class="ColorScheme-Highlight"/><path d="m39.333338 356.98337 15.333335-.00001c5.333334 0 8 8 13.333327 8l24.666694.00001c2.585323 0 4.666663 2.08133 4.666663 4.66667v33.33332c0 2.58533-2.08134 4.66666-4.666663 4.66666h-53.333356c-2.585333 0-4.666666-2.08133-4.666666-4.66666v-41.33332c0-2.58534 2.081333-4.66667 4.666666-4.66667z" fill-opacity=".12"/><path d="m39.333338 356.98336 15.333335-.00001c5.333334 0 8 8 13.333334 8l24.666667.00001c2.585333 0 4.666666 2.08133 4.666666 4.66667v33.33332c0 2.58533-2.081333 4.66666-4.666666 4.66666h-53.333336c-2.585333 0-4.666666-2.08133-4.666666-4.66666v-41.33332c0-2.58534 2.081333-4.66667 4.666666-4.66667z" fill="url(#b)"/><path d="m39.333346 356.31667c-2.954658 0-5.333317 2.37867-5.333317 5.33334v41.33333c0 2.95466 2.378659 5.33333 5.333317 5.33333h53.333343c2.954658 0 5.333317-2.37867 5.333317-5.33333v-33.33333c0-2.95467-2.378659-5.33334-5.333317-5.33334h-24.666684c-4.666633 0-7.333317-8-13.333317-8zm0 .66667h15.333342c5.333317 0 8 8 13.333317 8h24.666684c2.585298 0 4.666658 2.08133 4.666658 4.66667v33.33333c0 2.58533-2.08136 4.66666-4.666658 4.66666h-53.333343c-2.585323 0-4.666658-2.08133-4.666658-4.66666v-41.33333c0-2.58534 2.081335-4.66667 4.666658-4.66667z" fill-opacity=".2"/><path d="m39.333346 372.31667 15.999993.00001c5.333334 0 7.333334-8 12.666668-8l24.666659-.00001c2.954671 0 5.33334 2.37867 5.33334 5.33334v41.33335c0 2.95467-2.378669 5.33334-5.33334 5.33334h-53.33332c-2.954671 0-5.333339-2.37867-5.333339-5.33334v-33.33335c0-2.95467 2.378668-5.33334 5.333339-5.33334z" style="fill:currentColor"
class="ColorScheme-Highlight"/><path d="m39.333338 372.98336 16.000001-.00001c6 0 8-8 12.666668-8l24.666667.00001c2.585333 0 4.666666 2.08133 4.666666 4.66667v41.33332c0 2.58533-2.081333 4.66666-4.666666 4.66666h-53.333336c-2.585333 0-4.666666-2.08133-4.666666-4.66666v-33.33332c0-2.58534 2.081333-4.66667 4.666666-4.66667z" fill="url(#c)"/><path d="m68.000005 364.31667c-5.333317 0-7.333317 8-12.666659 8h-16c-2.954658 0-5.333342 2.37867-5.333342 5.33334v33.33333c0 2.95466 2.378684 5.33333 5.333342 5.33333h53.333343c2.954658 0 5.333317-2.37867 5.333317-5.33333v-41.33334c0-2.95466-2.378659-5.33333-5.333317-5.33333zm0 .66667h24.666684c2.585323 0 4.666658 2.08133 4.666658 4.66666v41.33334c0 2.58532-2.081335 4.66666-4.666658 4.66666h-53.333343c-2.585323 0-4.666658-2.08134-4.666658-4.66666v-33.33333c0-2.58534 2.081335-4.66667 4.666658-4.66667h16c6 0 8.000001-8 12.666659-8z" fill-opacity=".15"/></g><path d="m-7.3863438-.61658579a1.0583349 1.0583349 0 0 0 -.2754354.0186035 1.0583349 1.0583349 0 0 0 -.6717936.45113525 1.0583349 1.0583349 0 0 0 .2930053 1.46709394l1.8536336 1.2361002h-4.1759721a1.0583349 1.0583349 0 0 0 -1.05885 1.0588501 1.0583349 1.0583349 0 0 0 1.05885 1.0583333h2.8018958l-2.9347048 2.3476603a1.0583333 1.0583333 0 0 0 -.100252.091984 1.0583333 1.0583333 0 0 0 -.10852.1343587 1.0583349 1.0583349 0 0 0 -.01809.027388 1.0583333 1.0583333 0 0 0 -.07028.1276408 1.0583349 1.0583349 0 0 0 -.0124.025838 1.0583333 1.0583333 0 0 0 -.08372.3358968 1.0583349 1.0583349 0 0 0 -.001.028939 1.0583333 1.0583333 0 0 0 .0021.1441773 1.0583349 1.0583349 0 0 0 .0031.035657 1.0583333 1.0583333 0 0 0 .09302.324528 1.0583349 1.0583349 0 0 0 .01964.038241 1.0583333 1.0583333 0 0 0 .06821.1136881 1.0583349 1.0583349 0 0 0 .01292.021187 1.0583349 1.0583349 0 0 0 .0098.011369 1.0583333 1.0583333 0 0 0 .01912.027389 1.0583333 1.0583333 0 0 0 .09198.1002523 1.0583333 1.0583333 0 0 0 .133325.1080037 1.0583349 1.0583349 0 0 0 .03152.020154 1.0583333 1.0583333 0 0 0 .114205.063045 1.0583349 1.0583349 0 0 0 .04496.021187 1.0583333 1.0583333 0 0 0 .128158.044442 1.0583349 1.0583349 0 0 0 .04858.012402 1.0583333 1.0583333 0 0 0 .1410765.022221 1.0583349 1.0583349 0 0 0 .055294.00258 1.0583333 1.0583333 0 0 0 .109554-.00207 1.0583349 1.0583349 0 0 0 .066663-.00568 1.0583333 1.0583333 0 0 0 .1126546-.021704 1.0583349 1.0583349 0 0 0 .072864-.020154 1.0583333 1.0583333 0 0 0 .1157552-.044442 1.0583349 1.0583349 0 0 0 .067179-.03514 1.0583333 1.0583333 0 0 0 .075448-.045475 1.0583349 1.0583349 0 0 0 .040308-.024288l1.5652791-1.1389486c.3625564 1.9720321 2.0825453 3.4571541 4.1625365 3.4571541 2.3452519 0 4.23333328-1.8880822 4.23333328-4.2333341 0-1.7977213-1.10925554-3.3269273-2.68355708-3.9429117l-4.9319986-3.2881713a1.0583349 1.0583349 0 0 0 -.5193481-.1751831zm3.9015705 4.49584949c1.612369 0 2.91041664 1.2980493 2.91041664 2.9104166 0 1.6123675-1.29804764 2.9104167-2.91041664 2.9104167-1.612367 0-2.9104166-1.2980492-2.9104166-2.9104167 0-1.6123673 1.2980496-2.9104166 2.9104166-2.9104166zm0 1.0583333c-1.0260521 0-1.8520833.8260313-1.8520833 1.8520833 0 1.0260521.8260312 1.8520833 1.8520833 1.8520833s1.8520833-.8260312 1.8520833-1.8520833c0-1.026052-.8260312-1.8520833-1.8520833-1.8520833z" fill-opacity=".15" transform="matrix(.99999999887 0 0 .99999999887 17.50740794949 10.93745945541)"/><path d="m-6.8814652 2.7899327a1.0583349 1.0583349 0 0 0 -.2754354.018604 1.0583349 1.0583349 0 0 0 -.6717936.4511353 1.0583349 1.0583349 0 0 0 .2930053 1.4670939l1.8536336 1.2361002h-4.1759721a1.0583349 1.0583349 0 0 0 -1.0588506 1.0588501 1.0583349 1.0583349 0 0 0 1.0588506 1.0583333h2.8018958l-2.9347048 2.3476605a1.0583333 1.0583333 0 0 0 -.1002526.09198 1.0583333 1.0583333 0 0 0 -.10852.134358 1.0583349 1.0583349 0 0 0 -.01809.02739 1.0583333 1.0583333 0 0 0 -.07028.127641 1.0583349 1.0583349 0 0 0 -.0124.02584 1.0583333 1.0583333 0 0 0 -.08372.335897 1.0583349 1.0583349 0 0 0 -.001.02894 1.0583333 1.0583333 0 0 0 .0021.144177 1.0583349 1.0583349 0 0 0 .0031.03566 1.0583333 1.0583333 0 0 0 .09302.324528 1.0583349 1.0583349 0 0 0 .01964.03824 1.0583333 1.0583333 0 0 0 .06821.113688 1.0583349 1.0583349 0 0 0 .01292.02119 1.0583349 1.0583349 0 0 0 .0098.01137 1.0583333 1.0583333 0 0 0 .01912.02739 1.0583333 1.0583333 0 0 0 .09198.100253 1.0583333 1.0583333 0 0 0 .1333256.108003 1.0583349 1.0583349 0 0 0 .03152.02015 1.0583333 1.0583333 0 0 0 .114205.06305 1.0583349 1.0583349 0 0 0 .04496.02119 1.0583333 1.0583333 0 0 0 .128158.04444 1.0583349 1.0583349 0 0 0 .04858.0124 1.0583333 1.0583333 0 0 0 .1410765.02222 1.0583349 1.0583349 0 0 0 .055294.0026 1.0583333 1.0583333 0 0 0 .109554-.0021 1.0583349 1.0583349 0 0 0 .066663-.0057 1.0583333 1.0583333 0 0 0 .1126546-.0217 1.0583349 1.0583349 0 0 0 .072864-.02015 1.0583333 1.0583333 0 0 0 .1157552-.04444 1.0583349 1.0583349 0 0 0 .067179-.03514 1.0583333 1.0583333 0 0 0 .075448-.04547 1.0583349 1.0583349 0 0 0 .040308-.02429l1.5652791-1.138948c.3625564 1.972032 2.0825453 3.457154 4.1625365 3.457154 2.34525184 0 4.2333333-1.888082 4.2333333-4.233334 0-1.7977214-1.10925562-3.3269274-2.6835571-3.9429118l-4.9319986-3.2881618a1.0583349 1.0583349 0 0 0 -.5193481-.1751831zm3.9015705 4.4958495c1.612369 0 2.91041658 1.2980493 2.91041658 2.9104168 0 1.612368-1.29804758 2.910417-2.91041658 2.910417-1.612367 0-2.9104166-1.298049-2.9104166-2.910417 0-1.6123675 1.2980496-2.9104168 2.9104166-2.9104168zm0 1.0583333c-1.0260521 0-1.8520833.8260313-1.8520833 1.8520835 0 1.026052.8260312 1.852083 1.8520833 1.852083s1.8520833-.826031 1.8520833-1.852083c0-1.0260522-.8260312-1.8520835-1.8520833-1.8520835z" fill="url(#a)" transform="matrix(.99999999887 0 0 .99999999887 17.00252978096 7.26631023541)"/></g></svg>
