<svg height="96" viewBox="0 0 25.399999 25.4" width="96" xmlns="http://www.w3.org/2000/svg" xmlns:xlink="http://www.w3.org/1999/xlink"><defs id="antufoldercolor">
    <style type="text/css" id="current-color-scheme">
      .ColorScheme-Highlight {
        color:#45aaf5;
      }
      </style>
  </defs><linearGradient id="a" gradientUnits="userSpaceOnUse" x1="38" x2="38" y1="392.98334" y2="371.64999"><stop offset="0" stop-color="#fff" stop-opacity=".7"/><stop offset="1" stop-color="#fff" stop-opacity=".85"/></linearGradient><linearGradient id="b" gradientUnits="userSpaceOnUse" x1="47.510117" x2="47.000017" y1="379.188012" y2="356.983332"><stop offset="0" stop-color="#fff" stop-opacity=".2"/><stop offset="1" stop-color="#fff" stop-opacity="0"/></linearGradient><linearGradient id="c" gradientUnits="userSpaceOnUse" x1="81.333338" x2="81.333338" y1="414.983362" y2="365.650022"><stop offset="0" stop-color="#fff" stop-opacity="0"/><stop offset="1" stop-color="#fff" stop-opacity=".2"/></linearGradient><g stroke-linecap="round" stroke-linejoin="round" stroke-miterlimit="1.8" stroke-width="1.33333"><g transform="matrix(.39687499 0 0 .39687499 -13.493752 -140.619431)"><path d="m39.333346 356.31667 15.333327.00001c6 0 8.666666 8 13.333334 8l24.666662-.00001c2.954668 0 5.333337 2.37867 5.333337 5.33334v33.33335c0 2.95467-2.378669 5.33334-5.333337 5.33334h-53.333323c-2.954671 0-5.333339-2.37867-5.333339-5.33334v-41.33335c0-2.95467 2.378668-5.33334 5.333339-5.33334z" style="fill:currentColor"
class="ColorScheme-Highlight"/><path d="m39.333338 356.98337 15.333335-.00001c5.333334 0 8 8 13.333327 8l24.666694.00001c2.585323 0 4.666663 2.08133 4.666663 4.66667v33.33332c0 2.58533-2.08134 4.66666-4.666663 4.66666h-53.333356c-2.585333 0-4.666666-2.08133-4.666666-4.66666v-41.33332c0-2.58534 2.081333-4.66667 4.666666-4.66667z" fill-opacity=".12"/><path d="m39.333338 356.98336 15.333335-.00001c5.333334 0 8 8 13.333334 8l24.666667.00001c2.585333 0 4.666666 2.08133 4.666666 4.66667v33.33332c0 2.58533-2.081333 4.66666-4.666666 4.66666h-53.333336c-2.585333 0-4.666666-2.08133-4.666666-4.66666v-41.33332c0-2.58534 2.081333-4.66667 4.666666-4.66667z" fill="url(#b)"/><path d="m39.333346 356.31667c-2.954658 0-5.333317 2.37867-5.333317 5.33334v41.33333c0 2.95466 2.378659 5.33333 5.333317 5.33333h53.333343c2.954658 0 5.333317-2.37867 5.333317-5.33333v-33.33333c0-2.95467-2.378659-5.33334-5.333317-5.33334h-24.666684c-4.666633 0-7.333317-8-13.333317-8zm0 .66667h15.333342c5.333317 0 8 8 13.333317 8h24.666684c2.585298 0 4.666658 2.08133 4.666658 4.66667v33.33333c0 2.58533-2.08136 4.66666-4.666658 4.66666h-53.333343c-2.585323 0-4.666658-2.08133-4.666658-4.66666v-41.33333c0-2.58534 2.081335-4.66667 4.666658-4.66667z" fill-opacity=".2"/><path d="m39.333346 372.31667 15.999993.00001c5.333334 0 7.333334-8 12.666668-8l24.666659-.00001c2.954671 0 5.33334 2.37867 5.33334 5.33334v41.33335c0 2.95467-2.378669 5.33334-5.33334 5.33334h-53.33332c-2.954671 0-5.333339-2.37867-5.333339-5.33334v-33.33335c0-2.95467 2.378668-5.33334 5.333339-5.33334z" style="fill:currentColor"
class="ColorScheme-Highlight"/><path d="m39.333338 372.98336 16.000001-.00001c6 0 8-8 12.666668-8l24.666667.00001c2.585333 0 4.666666 2.08133 4.666666 4.66667v41.33332c0 2.58533-2.081333 4.66666-4.666666 4.66666h-53.333336c-2.585333 0-4.666666-2.08133-4.666666-4.66666v-33.33332c0-2.58534 2.081333-4.66667 4.666666-4.66667z" fill="url(#c)"/><path d="m68.000005 364.31667c-5.333317 0-7.333317 8-12.666659 8h-16c-2.954658 0-5.333342 2.37867-5.333342 5.33334v33.33333c0 2.95466 2.378684 5.33333 5.333342 5.33333h53.333343c2.954658 0 5.333317-2.37867 5.333317-5.33333v-41.33334c0-2.95466-2.378659-5.33333-5.333317-5.33333zm0 .66667h24.666684c2.585323 0 4.666658 2.08133 4.666658 4.66666v41.33334c0 2.58532-2.081335 4.66666-4.666658 4.66666h-53.333343c-2.585323 0-4.666658-2.08134-4.666658-4.66666v-33.33333c0-2.58534 2.081335-4.66667 4.666658-4.66667h16c6 0 8.000001-8 12.666659-8z" fill-opacity=".15"/></g><g stroke-linecap="round" stroke-linejoin="round" stroke-miterlimit="1.8" stroke-width="1.4285" transform="matrix(.39687499 0 0 .39687499 -2.38124994 -136.38609203875)"><path d="m38 370.98333c-7.017326 0-12.666667 5.64934-12.666667 12.66666 0 7.01733 5.649341 12.66667 12.666667 12.66667s12.666667-5.64934 12.666667-12.66667c0-7.01732-5.649341-12.66666-12.666667-12.66666zm0 5.33333c.738665 0 1.333333.59467 1.333333 1.33333v5.33334h4c.738668 0 1.333334.59466 1.333334 1.33333s-.594666 1.33333-1.333334 1.33333h-5.333333c-.1385 0-.271732-.0211-.397135-.0599-.0418-.013-.08249-.0275-.122396-.0443-.03991-.0168-.0794-.0355-.117188-.056-.03779-.0205-.07392-.0425-.109375-.0664-.03546-.0239-.06996-.0497-.102864-.0768-.0329-.0271-.06493-.0558-.09505-.0859s-.05881-.0622-.08594-.0951-.05291-.0674-.07682-.10287c-.02391-.0355-.04593-.0716-.06641-.10937-.02048-.0378-.03917-.0773-.05599-.11719-.01682-.0399-.03132-.0806-.04427-.1224-.0066-.0213-.01268-.042-.01823-.0638-.0055-.0213-.0099-.0421-.01432-.0638-.0177-.087-.02734-.1772-.02734-.26953v-6.66667c0-.73866.594668-1.33333 1.333333-1.33333z" fill-opacity=".15"/><path d="m38 370.31667c-7.017326 0-12.666667 5.64934-12.666667 12.66666 0 7.01733 5.649341 12.66667 12.666667 12.66667s12.666667-5.64934 12.666667-12.66667c0-7.01732-5.649341-12.66666-12.666667-12.66666zm0 5.33333c.738665 0 1.333333.59467 1.333333 1.33333v5.33334h4c.738668 0 1.333334.59466 1.333334 1.33333s-.594666 1.33333-1.333334 1.33333h-5.333333c-.1385 0-.271732-.0211-.397135-.0599-.0418-.013-.08249-.0275-.122396-.0443-.03991-.0168-.0794-.0355-.117188-.056-.03779-.0205-.07392-.0425-.109375-.0664-.03546-.0239-.06996-.0497-.102864-.0768-.0329-.0271-.06493-.0558-.09505-.0859s-.05881-.0622-.08594-.0951-.05291-.0674-.07682-.10287c-.02391-.0355-.04593-.0716-.06641-.10937-.02048-.0378-.03917-.0773-.05599-.11719-.01682-.0399-.03132-.0806-.04427-.1224-.0066-.0213-.01268-.042-.01823-.0638-.0055-.0213-.0099-.0421-.01432-.0638-.0177-.087-.02734-.1772-.02734-.26953v-6.66667c0-.73866.594668-1.33333 1.333333-1.33333z" fill="url(#a)"/></g></g></svg>
