<svg height="96" viewBox="0 0 25.399999 25.4" width="96" xmlns="http://www.w3.org/2000/svg" xmlns:xlink="http://www.w3.org/1999/xlink"><defs id="antufoldercolor">
    <style type="text/css" id="current-color-scheme">
      .ColorScheme-Highlight {
        color:#45aaf5;
      }
      </style>
  </defs><linearGradient id="a" gradientUnits="userSpaceOnUse" x1="60" x2="60" y1="274.649993" y2="241.649983"><stop offset="0" stop-color="#fff" stop-opacity=".7"/><stop offset="1" stop-color="#fff" stop-opacity=".85"/></linearGradient><linearGradient id="b" gradientUnits="userSpaceOnUse" x1="47.510117" x2="47.000017" y1="379.188012" y2="356.983332"><stop offset="0" stop-color="#fff" stop-opacity=".2"/><stop offset="1" stop-color="#fff" stop-opacity="0"/></linearGradient><linearGradient id="c" gradientUnits="userSpaceOnUse" x1="81.333338" x2="81.333338" y1="414.983362" y2="365.650022"><stop offset="0" stop-color="#fff" stop-opacity="0"/><stop offset="1" stop-color="#fff" stop-opacity=".2"/></linearGradient><g stroke-linecap="round" stroke-linejoin="round" stroke-miterlimit="1.8" stroke-width="1.33333"><g transform="matrix(.39687499 0 0 .39687499 -13.493752 -140.619431)"><path d="m39.333346 356.31667 15.333327.00001c6 0 8.666666 8 13.333334 8l24.666662-.00001c2.954668 0 5.333337 2.37867 5.333337 5.33334v33.33335c0 2.95467-2.378669 5.33334-5.333337 5.33334h-53.333323c-2.954671 0-5.333339-2.37867-5.333339-5.33334v-41.33335c0-2.95467 2.378668-5.33334 5.333339-5.33334z" style="fill:currentColor"
class="ColorScheme-Highlight"/><path d="m39.333338 356.98337 15.333335-.00001c5.333334 0 8 8 13.333327 8l24.666694.00001c2.585323 0 4.666663 2.08133 4.666663 4.66667v33.33332c0 2.58533-2.08134 4.66666-4.666663 4.66666h-53.333356c-2.585333 0-4.666666-2.08133-4.666666-4.66666v-41.33332c0-2.58534 2.081333-4.66667 4.666666-4.66667z" fill-opacity=".12"/><path d="m39.333338 356.98336 15.333335-.00001c5.333334 0 8 8 13.333334 8l24.666667.00001c2.585333 0 4.666666 2.08133 4.666666 4.66667v33.33332c0 2.58533-2.081333 4.66666-4.666666 4.66666h-53.333336c-2.585333 0-4.666666-2.08133-4.666666-4.66666v-41.33332c0-2.58534 2.081333-4.66667 4.666666-4.66667z" fill="url(#b)"/><path d="m39.333346 356.31667c-2.954658 0-5.333317 2.37867-5.333317 5.33334v41.33333c0 2.95466 2.378659 5.33333 5.333317 5.33333h53.333343c2.954658 0 5.333317-2.37867 5.333317-5.33333v-33.33333c0-2.95467-2.378659-5.33334-5.333317-5.33334h-24.666684c-4.666633 0-7.333317-8-13.333317-8zm0 .66667h15.333342c5.333317 0 8 8 13.333317 8h24.666684c2.585298 0 4.666658 2.08133 4.666658 4.66667v33.33333c0 2.58533-2.08136 4.66666-4.666658 4.66666h-53.333343c-2.585323 0-4.666658-2.08133-4.666658-4.66666v-41.33333c0-2.58534 2.081335-4.66667 4.666658-4.66667z" fill-opacity=".2"/><path d="m39.333346 372.31667 15.999993.00001c5.333334 0 7.333334-8 12.666668-8l24.666659-.00001c2.954671 0 5.33334 2.37867 5.33334 5.33334v41.33335c0 2.95467-2.378669 5.33334-5.33334 5.33334h-53.33332c-2.954671 0-5.333339-2.37867-5.333339-5.33334v-33.33335c0-2.95467 2.378668-5.33334 5.333339-5.33334z" style="fill:currentColor"
class="ColorScheme-Highlight"/><path d="m39.333338 372.98336 16.000001-.00001c6 0 8-8 12.666668-8l24.666667.00001c2.585333 0 4.666666 2.08133 4.666666 4.66667v41.33332c0 2.58533-2.081333 4.66666-4.666666 4.66666h-53.333336c-2.585333 0-4.666666-2.08133-4.666666-4.66666v-33.33332c0-2.58534 2.081333-4.66667 4.666666-4.66667z" fill="url(#c)"/><path d="m68.000005 364.31667c-5.333317 0-7.333317 8-12.666659 8h-16c-2.954658 0-5.333342 2.37867-5.333342 5.33334v33.33333c0 2.95466 2.378684 5.33333 5.333342 5.33333h53.333343c2.954658 0 5.333317-2.37867 5.333317-5.33333v-41.33334c0-2.95466-2.378659-5.33333-5.333317-5.33333zm0 .66667h24.666684c2.585323 0 4.666658 2.08133 4.666658 4.66666v41.33334c0 2.58532-2.081335 4.66666-4.666658 4.66666h-53.333343c-2.585323 0-4.666658-2.08134-4.666658-4.66666v-33.33333c0-2.58534 2.081335-4.66667 4.666658-4.66667h16c6 0 8.000001-8 12.666659-8z" fill-opacity=".15"/></g><g transform="matrix(.26458332799 0 0 .26458332799 -3.17500041609 -52.82405944144)"><path d="m60.000002 240.64998c-6.093976 0-11 4.90604-11 11h5c0-3.32396 2.676013-6 6-6s6 2.67604 6 6v3h-12-5c-1.661998 0-3 1.33801-3 3v18c0 1.662 1.338002 3 3 3h22c1.661997 0 3-1.338 3-3v-18c0-1.66199-1.338003-3-3-3v-3c0-6.09396-4.906025-11-11-11zm0 20c2.215993 0 4 1.78403 4 4 0 1.48637-.802756 2.77713-2 3.4668v3.5332c0 1.108-.892004 2-2 2-1.107997 0-2-.892-2-2v-3.5332c-1.197245-.68967-2-1.98043-2-3.4668 0-2.21597 1.784006-4 4-4z" fill-opacity=".15"/><path d="m60.000002 239.64998c-6.093976 0-11 4.90604-11 11h5c0-3.32396 2.676013-6 6-6s6 2.67604 6 6v3h-12-5c-1.661998 0-3 1.33801-3 3v18c0 1.662 1.338002 3 3 3h22c1.661997 0 3-1.338 3-3v-18c0-1.66199-1.338003-3-3-3v-3c0-6.09396-4.906025-11-11-11zm0 20c2.215993 0 4 1.78403 4 4 0 1.48637-.802756 2.77713-2 3.4668v3.5332c0 1.108-.892004 2-2 2-1.107997 0-2-.892-2-2v-3.5332c-1.197245-.68967-2-1.98043-2-3.4668 0-2.21597 1.784006-4 4-4z" fill="url(#a)"/></g></g></svg>
