<svg height="96" viewBox="0 0 25.399999 25.4" width="96" xmlns="http://www.w3.org/2000/svg" xmlns:xlink="http://www.w3.org/1999/xlink"><defs id="antufoldercolor">
    <style type="text/css" id="current-color-scheme">
      .ColorScheme-Highlight {
        color:#45aaf5;
      }
      </style>
  </defs><linearGradient id="a" gradientUnits="userSpaceOnUse" x1="38" x2="38" y1="392.98334" y2="372.98334"><stop offset="0" stop-color="#fff" stop-opacity=".7"/><stop offset="1" stop-color="#fff" stop-opacity=".85"/></linearGradient><linearGradient id="b" gradientUnits="userSpaceOnUse" x1="47.510117" x2="47.000017" y1="379.188012" y2="356.983332"><stop offset="0" stop-color="#fff" stop-opacity=".2"/><stop offset="1" stop-color="#fff" stop-opacity="0"/></linearGradient><linearGradient id="c" gradientUnits="userSpaceOnUse" x1="81.333338" x2="81.333338" y1="414.983362" y2="365.650022"><stop offset="0" stop-color="#fff" stop-opacity="0"/><stop offset="1" stop-color="#fff" stop-opacity=".2"/></linearGradient><g stroke-linecap="round" stroke-linejoin="round" stroke-miterlimit="1.8" stroke-width="1.33333"><g transform="matrix(.39687499 0 0 .39687499 -13.493752 -140.619431)"><path d="m39.333346 356.31667 15.333327.00001c6 0 8.666666 8 13.333334 8l24.666662-.00001c2.954668 0 5.333337 2.37867 5.333337 5.33334v33.33335c0 2.95467-2.378669 5.33334-5.333337 5.33334h-53.333323c-2.954671 0-5.333339-2.37867-5.333339-5.33334v-41.33335c0-2.95467 2.378668-5.33334 5.333339-5.33334z" style="fill:currentColor"
class="ColorScheme-Highlight"/><path d="m39.333338 356.98337 15.333335-.00001c5.333334 0 8 8 13.333327 8l24.666694.00001c2.585323 0 4.666663 2.08133 4.666663 4.66667v33.33332c0 2.58533-2.08134 4.66666-4.666663 4.66666h-53.333356c-2.585333 0-4.666666-2.08133-4.666666-4.66666v-41.33332c0-2.58534 2.081333-4.66667 4.666666-4.66667z" fill-opacity=".12"/><path d="m39.333338 356.98336 15.333335-.00001c5.333334 0 8 8 13.333334 8l24.666667.00001c2.585333 0 4.666666 2.08133 4.666666 4.66667v33.33332c0 2.58533-2.081333 4.66666-4.666666 4.66666h-53.333336c-2.585333 0-4.666666-2.08133-4.666666-4.66666v-41.33332c0-2.58534 2.081333-4.66667 4.666666-4.66667z" fill="url(#b)"/><path d="m39.333346 356.31667c-2.954658 0-5.333317 2.37867-5.333317 5.33334v41.33333c0 2.95466 2.378659 5.33333 5.333317 5.33333h53.333343c2.954658 0 5.333317-2.37867 5.333317-5.33333v-33.33333c0-2.95467-2.378659-5.33334-5.333317-5.33334h-24.666684c-4.666633 0-7.333317-8-13.333317-8zm0 .66667h15.333342c5.333317 0 8 8 13.333317 8h24.666684c2.585298 0 4.666658 2.08133 4.666658 4.66667v33.33333c0 2.58533-2.08136 4.66666-4.666658 4.66666h-53.333343c-2.585323 0-4.666658-2.08133-4.666658-4.66666v-41.33333c0-2.58534 2.081335-4.66667 4.666658-4.66667z" fill-opacity=".2"/><path d="m39.333346 372.31667 15.999993.00001c5.333334 0 7.333334-8 12.666668-8l24.666659-.00001c2.954671 0 5.33334 2.37867 5.33334 5.33334v41.33335c0 2.95467-2.378669 5.33334-5.33334 5.33334h-53.33332c-2.954671 0-5.333339-2.37867-5.333339-5.33334v-33.33335c0-2.95467 2.378668-5.33334 5.333339-5.33334z" style="fill:currentColor"
class="ColorScheme-Highlight"/><path d="m39.333338 372.98336 16.000001-.00001c6 0 8-8 12.666668-8l24.666667.00001c2.585333 0 4.666666 2.08133 4.666666 4.66667v41.33332c0 2.58533-2.081333 4.66666-4.666666 4.66666h-53.333336c-2.585333 0-4.666666-2.08133-4.666666-4.66666v-33.33332c0-2.58534 2.081333-4.66667 4.666666-4.66667z" fill="url(#c)"/><path d="m68.000005 364.31667c-5.333317 0-7.333317 8-12.666659 8h-16c-2.954658 0-5.333342 2.37867-5.333342 5.33334v33.33333c0 2.95466 2.378684 5.33333 5.333342 5.33333h53.333343c2.954658 0 5.333317-2.37867 5.333317-5.33333v-41.33334c0-2.95466-2.378659-5.33333-5.333317-5.33333zm0 .66667h24.666684c2.585323 0 4.666658 2.08133 4.666658 4.66666v41.33334c0 2.58532-2.081335 4.66666-4.666658 4.66666h-53.333343c-2.585323 0-4.666658-2.08134-4.666658-4.66666v-33.33333c0-2.58534 2.081335-4.66667 4.666658-4.66667h16c6 0 8.000001-8 12.666659-8z" fill-opacity=".15"/></g><g transform="matrix(.39687499 0 0 .39687499 -2.38124994 -136.38609203875)"><path d="m26.666666 372.31667c-.738666 0-1.333334.59466-1.333334 1.33333v20c0 .73867.594668 1.33333 1.333334 1.33333h22.666667c.738666 0 1.333334-.59466 1.333334-1.33333v-20c0-.73867-.594668-1.33333-1.333334-1.33333zm3.333333 3.33333h16.000001c.369335 0 .666666.29733.666666.66667v1.33333h.666667c.369324 0 .666667.29734.666667.66667v2.66666c0 .36933-.297343.66667-.666667.66667h-.666667v2.66667h.666667c.369324 0 .666667.29734.666667.66666v2.66667c0 .36932-.297343.66667-.666667.66667h-.666667v.66666c0 .36934-.297331.66667-.666666.66667h-3.333334v1.33333c0 .36933-.297342.66667-.666666.66667h-8.000001c-.369325 0-.666667-.29734-.666667-.66667v-1.33333h-3.333333c-.369336 0-.666667-.29733-.666667-.66667v-.66666h-.666666c-.369325 0-.666667-.29735-.666667-.66667v-2.66667c0-.36932.297342-.66666.666667-.66666h.666666v-2.66667h-.666666c-.369325 0-.666667-.29734-.666667-.66667v-2.66666c0-.36933.297342-.66667.666667-.66667h.666666v-1.33333c0-.36934.297331-.66667.666667-.66667zm2 2.66668v4.66666l2.666667-.00001v-4.66666zm4.666667 0v4.66666l2.666667-.00001v-4.66666zm4.666667-.00001v4.66666l2.666666.00001v-4.66666z" fill-opacity=".15"/><path d="m26.666667 371.64999c-.738666 0-1.333334.59466-1.333334 1.33333v20c0 .73867.594668 1.33333 1.333334 1.33333h22.666667c.738666 0 1.333334-.59466 1.333334-1.33333v-20c0-.73867-.594668-1.33333-1.333334-1.33333zm3.333333 3.33333h16.000001c.369335 0 .666666.29733.666666.66667v1.33333h.666667c.369324 0 .666667.29734.666667.66667v2.66666c0 .36933-.297343.66667-.666667.66667h-.666667v2.66667h.666667c.369324 0 .666667.29734.666667.66666v2.66667c0 .36932-.297343.66667-.666667.66667h-.666667v.66666c0 .36934-.297331.66667-.666666.66667h-3.333334v1.33333c0 .36933-.297342.66667-.666666.66667h-8.000001c-.369325 0-.666667-.29734-.666667-.66667v-1.33333h-3.333333c-.369336 0-.666667-.29733-.666667-.66667v-.66666h-.666666c-.369325 0-.666667-.29735-.666667-.66667v-2.66667c0-.36932.297342-.66666.666667-.66666h.666666v-2.66667h-.666666c-.369325 0-.666667-.29734-.666667-.66667v-2.66666c0-.36933.297342-.66667.666667-.66667h.666666v-1.33333c0-.36934.297331-.66667.666667-.66667zm2 2.66668v4.66666l2.666667-.00001v-4.66666zm4.666667 0v4.66666l2.666667-.00001v-4.66666zm4.666667-.00001v4.66666l2.666666.00001v-4.66666z" fill="url(#a)"/></g></g></svg>
