<svg height="96" viewBox="0 0 25.399999 25.4" width="96" xmlns="http://www.w3.org/2000/svg" xmlns:xlink="http://www.w3.org/1999/xlink"><defs id="antufoldercolor">
    <style type="text/css" id="current-color-scheme">
      .ColorScheme-Highlight {
        color:#45aaf5;
      }
      </style>
  </defs><linearGradient id="a" gradientUnits="userSpaceOnUse" x1="-64.315819" x2="-64.315819" y1="291.4921" y2="247.64996"><stop offset="0" stop-color="#fff" stop-opacity=".7"/><stop offset="1" stop-color="#fff" stop-opacity=".85"/></linearGradient><linearGradient id="b" gradientUnits="userSpaceOnUse" x1="47.510117" x2="47.000017" y1="379.188012" y2="356.983332"><stop offset="0" stop-color="#fff" stop-opacity=".2"/><stop offset="1" stop-color="#fff" stop-opacity="0"/></linearGradient><linearGradient id="c" gradientUnits="userSpaceOnUse" x1="81.333338" x2="81.333338" y1="414.983362" y2="365.650022"><stop offset="0" stop-color="#fff" stop-opacity="0"/><stop offset="1" stop-color="#fff" stop-opacity=".2"/></linearGradient><g stroke-linecap="round" stroke-linejoin="round" stroke-miterlimit="1.8" stroke-width="1.33333"><g transform="matrix(.39687499 0 0 .39687499 -13.493752 -140.619431)"><path d="m39.333346 356.31667 15.333327.00001c6 0 8.666666 8 13.333334 8l24.666662-.00001c2.954668 0 5.333337 2.37867 5.333337 5.33334v33.33335c0 2.95467-2.378669 5.33334-5.333337 5.33334h-53.333323c-2.954671 0-5.333339-2.37867-5.333339-5.33334v-41.33335c0-2.95467 2.378668-5.33334 5.333339-5.33334z" style="fill:currentColor"
class="ColorScheme-Highlight"/><path d="m39.333338 356.98337 15.333335-.00001c5.333334 0 8 8 13.333327 8l24.666694.00001c2.585323 0 4.666663 2.08133 4.666663 4.66667v33.33332c0 2.58533-2.08134 4.66666-4.666663 4.66666h-53.333356c-2.585333 0-4.666666-2.08133-4.666666-4.66666v-41.33332c0-2.58534 2.081333-4.66667 4.666666-4.66667z" fill-opacity=".12"/><path d="m39.333338 356.98336 15.333335-.00001c5.333334 0 8 8 13.333334 8l24.666667.00001c2.585333 0 4.666666 2.08133 4.666666 4.66667v33.33332c0 2.58533-2.081333 4.66666-4.666666 4.66666h-53.333336c-2.585333 0-4.666666-2.08133-4.666666-4.66666v-41.33332c0-2.58534 2.081333-4.66667 4.666666-4.66667z" fill="url(#b)"/><path d="m39.333346 356.31667c-2.954658 0-5.333317 2.37867-5.333317 5.33334v41.33333c0 2.95466 2.378659 5.33333 5.333317 5.33333h53.333343c2.954658 0 5.333317-2.37867 5.333317-5.33333v-33.33333c0-2.95467-2.378659-5.33334-5.333317-5.33334h-24.666684c-4.666633 0-7.333317-8-13.333317-8zm0 .66667h15.333342c5.333317 0 8 8 13.333317 8h24.666684c2.585298 0 4.666658 2.08133 4.666658 4.66667v33.33333c0 2.58533-2.08136 4.66666-4.666658 4.66666h-53.333343c-2.585323 0-4.666658-2.08133-4.666658-4.66666v-41.33333c0-2.58534 2.081335-4.66667 4.666658-4.66667z" fill-opacity=".2"/><path d="m39.333346 372.31667 15.999993.00001c5.333334 0 7.333334-8 12.666668-8l24.666659-.00001c2.954671 0 5.33334 2.37867 5.33334 5.33334v41.33335c0 2.95467-2.378669 5.33334-5.33334 5.33334h-53.33332c-2.954671 0-5.333339-2.37867-5.333339-5.33334v-33.33335c0-2.95467 2.378668-5.33334 5.333339-5.33334z" style="fill:currentColor"
class="ColorScheme-Highlight"/><path d="m39.333338 372.98336 16.000001-.00001c6 0 8-8 12.666668-8l24.666667.00001c2.585333 0 4.666666 2.08133 4.666666 4.66667v41.33332c0 2.58533-2.081333 4.66666-4.666666 4.66666h-53.333336c-2.585333 0-4.666666-2.08133-4.666666-4.66666v-33.33332c0-2.58534 2.081333-4.66667 4.666666-4.66667z" fill="url(#c)"/><path d="m68.000005 364.31667c-5.333317 0-7.333317 8-12.666659 8h-16c-2.954658 0-5.333342 2.37867-5.333342 5.33334v33.33333c0 2.95466 2.378684 5.33333 5.333342 5.33333h53.333343c2.954658 0 5.333317-2.37867 5.333317-5.33333v-41.33334c0-2.95466-2.378659-5.33333-5.333317-5.33333zm0 .66667h24.666684c2.585323 0 4.666658 2.08133 4.666658 4.66666v41.33334c0 2.58532-2.081335 4.66666-4.666658 4.66666h-53.333343c-2.585323 0-4.666658-2.08134-4.666658-4.66666v-33.33333c0-2.58534 2.081335-4.66667 4.666658-4.66667h16c6 0 8.000001-8 12.666659-8z" fill-opacity=".15"/></g><g stroke-linecap="round" stroke-linejoin="round" stroke-miterlimit="1.8" transform="matrix(.39687499 0 0 .39687499 0 -99.476714)"><path d="m24 278.64999c-1.107998 0-2 .892-2 2v21.33333c0 1.108.892002 2.00001 2 2.00001h5.333334v-2.66667h2.666666v-2.66667h-2.666666v-2.66667h2.666666v2.66667h2.666667v-2.66667h2.666667v-2.66666h-2.666667v-2.66667h2.666667v-2.66667h-2.666667v-2.66666h2.666667v2.66666h2.666666v-2.66666h2.666667l-6.666667-6.66667zm16 9.33333v2.66667h2.666667v-2.66667zm0 2.66667h-2.666666v2.66667h2.666666zm0 2.66667v2.66666h2.666667v-2.66666zm0 2.66666h-2.666666v2.66667h2.666666zm0 2.66667v2.66667h2.666667v-2.66667zm0 2.66667h-2.666666v2.66667h2.666666zm-2.666666 0v-2.66667h-2.666667v2.66667zm-2.666667 0h-2.666667v2.66667h2.666667z" fill-opacity=".15" stroke-width="1.33333"/><path d="m-79.78952 246.3605c-2.143102 0-3.868423 1.72532-3.868423 3.86842v41.26317c0 2.1431 1.725321 3.86843 3.868423 3.86843h10.315794v-5.1579h5.157896v-5.1579h-5.157896v-5.1579h5.157896v5.1579h5.157897v-5.1579h5.157897v-5.15789h-5.157897v-5.1579h5.157897v-5.1579h-5.157897v-5.15789h5.157897v5.15789h5.157897v-5.15789h5.157897l-12.894742-12.89474zm30.947381 18.05263v5.1579h5.157897v-5.1579zm0 5.1579h-5.157897v5.1579h5.157897zm0 5.1579v5.15789h5.157897v-5.15789zm0 5.15789h-5.157897v5.1579h5.157897zm0 5.1579v5.1579h5.157897v-5.1579zm0 5.1579h-5.157897v5.1579h5.157897zm-5.157897 0v-5.1579h-5.157897v5.1579zm-5.157897 0h-5.157897v5.1579h5.157897z" fill="url(#a)" stroke-width="2.57895" transform="matrix(.51700659 0 0 .51700659 65.25170771445 150.61332311127)"/></g></g></svg>
