<svg height="96" viewBox="0 0 25.399999 25.4" width="96" xmlns="http://www.w3.org/2000/svg" xmlns:xlink="http://www.w3.org/1999/xlink"><defs id="antufoldercolor">
    <style type="text/css" id="current-color-scheme">
      .ColorScheme-Highlight {
        color:#45aaf5;
      }
      </style>
  </defs><linearGradient id="a" gradientUnits="userSpaceOnUse" x1="10.583334" x2="10.583334" y1="20.10833" y2="11.641665"><stop offset="0" stop-color="#fff" stop-opacity=".7"/><stop offset="1" stop-color="#fff" stop-opacity=".85"/></linearGradient><linearGradient id="b" gradientUnits="userSpaceOnUse" x1="47.510117" x2="47.000017" y1="379.188012" y2="356.983332"><stop offset="0" stop-color="#fff" stop-opacity=".2"/><stop offset="1" stop-color="#fff" stop-opacity="0"/></linearGradient><linearGradient id="c" gradientUnits="userSpaceOnUse" x1="81.333338" x2="81.333338" y1="414.983362" y2="365.650022"><stop offset="0" stop-color="#fff" stop-opacity="0"/><stop offset="1" stop-color="#fff" stop-opacity=".2"/></linearGradient><g stroke-linecap="round" stroke-linejoin="round" stroke-miterlimit="1.8" stroke-width="1.33333"><g transform="matrix(.39687499 0 0 .39687499 -13.493752 -140.619431)"><path d="m39.333346 356.31667 15.333327.00001c6 0 8.666666 8 13.333334 8l24.666662-.00001c2.954668 0 5.333337 2.37867 5.333337 5.33334v33.33335c0 2.95467-2.378669 5.33334-5.333337 5.33334h-53.333323c-2.954671 0-5.333339-2.37867-5.333339-5.33334v-41.33335c0-2.95467 2.378668-5.33334 5.333339-5.33334z" style="fill:currentColor"
class="ColorScheme-Highlight"/><path d="m39.333338 356.98337 15.333335-.00001c5.333334 0 8 8 13.333327 8l24.666694.00001c2.585323 0 4.666663 2.08133 4.666663 4.66667v33.33332c0 2.58533-2.08134 4.66666-4.666663 4.66666h-53.333356c-2.585333 0-4.666666-2.08133-4.666666-4.66666v-41.33332c0-2.58534 2.081333-4.66667 4.666666-4.66667z" fill-opacity=".12"/><path d="m39.333338 356.98336 15.333335-.00001c5.333334 0 8 8 13.333334 8l24.666667.00001c2.585333 0 4.666666 2.08133 4.666666 4.66667v33.33332c0 2.58533-2.081333 4.66666-4.666666 4.66666h-53.333336c-2.585333 0-4.666666-2.08133-4.666666-4.66666v-41.33332c0-2.58534 2.081333-4.66667 4.666666-4.66667z" fill="url(#b)"/><path d="m39.333346 356.31667c-2.954658 0-5.333317 2.37867-5.333317 5.33334v41.33333c0 2.95466 2.378659 5.33333 5.333317 5.33333h53.333343c2.954658 0 5.333317-2.37867 5.333317-5.33333v-33.33333c0-2.95467-2.378659-5.33334-5.333317-5.33334h-24.666684c-4.666633 0-7.333317-8-13.333317-8zm0 .66667h15.333342c5.333317 0 8 8 13.333317 8h24.666684c2.585298 0 4.666658 2.08133 4.666658 4.66667v33.33333c0 2.58533-2.08136 4.66666-4.666658 4.66666h-53.333343c-2.585323 0-4.666658-2.08133-4.666658-4.66666v-41.33333c0-2.58534 2.081335-4.66667 4.666658-4.66667z" fill-opacity=".2"/><path d="m39.333346 372.31667 15.999993.00001c5.333334 0 7.333334-8 12.666668-8l24.666659-.00001c2.954671 0 5.33334 2.37867 5.33334 5.33334v41.33335c0 2.95467-2.378669 5.33334-5.33334 5.33334h-53.33332c-2.954671 0-5.333339-2.37867-5.333339-5.33334v-33.33335c0-2.95467 2.378668-5.33334 5.333339-5.33334z" style="fill:currentColor"
class="ColorScheme-Highlight"/><path d="m39.333338 372.98336 16.000001-.00001c6 0 8-8 12.666668-8l24.666667.00001c2.585333 0 4.666666 2.08133 4.666666 4.66667v41.33332c0 2.58533-2.081333 4.66666-4.666666 4.66666h-53.333336c-2.585333 0-4.666666-2.08133-4.666666-4.66666v-33.33332c0-2.58534 2.081333-4.66667 4.666666-4.66667z" fill="url(#c)"/><path d="m68.000005 364.31667c-5.333317 0-7.333317 8-12.666659 8h-16c-2.954658 0-5.333342 2.37867-5.333342 5.33334v33.33333c0 2.95466 2.378684 5.33333 5.333342 5.33333h53.333343c2.954658 0 5.333317-2.37867 5.333317-5.33333v-41.33334c0-2.95466-2.378659-5.33333-5.333317-5.33333zm0 .66667h24.666684c2.585323 0 4.666658 2.08133 4.666658 4.66666v41.33334c0 2.58532-2.081335 4.66666-4.666658 4.66666h-53.333343c-2.585323 0-4.666658-2.08134-4.666658-4.66666v-33.33333c0-2.58534 2.081335-4.66667 4.666658-4.66667h16c6 0 8.000001-8 12.666659-8z" fill-opacity=".15"/></g><g stroke-width=".529165"><path d="m8.2020835 10.583333c-.293157 0-.529167.236005-.529167.529165v10.054165c0 .293152.23601.52917.529167.52917h8.9958335c.293158 0 .529167-.236018.529167-.52917v-10.054165c0-.29316-.236009-.529165-.529167-.529165zm.529166 1.05833h.264584c.146578 0 .264583.118007.264583.264585v.79375c0 .146578-.118005.264585-.264583.264585h-.264584c-.146578 0-.264583-.118007-.264583-.264585v-.79375c0-.146578.118005-.264585.264583-.264585zm7.6729175 0h.264583c.146578 0 .264584.118007.264584.264585v.79375c0 .146578-.118006.264585-.264584.264585h-.264583c-.146579 0-.264583-.118007-.264583-.264585v-.79375c0-.146578.118004-.264585.264583-.264585zm-5.820833.264585h4.233333c.293157 0 .529167.23601.529167.529165v7.408335c0 .29316-.23601.529165-.529167.529165h-4.233333c-.293158 0-.529167-.236005-.529167-.529165v-7.408335c0-.293155.236009-.529165.529167-.529165zm-1.8520845 1.5875h.264584c.146578 0 .264583.118003.264583.264585v.79375c0 .146578-.118005.264581-.264583.264581h-.264584c-.146578 0-.264583-.118003-.264583-.264581v-.79375c0-.146582.118005-.264585.264583-.264585zm7.6729175 0h.264583c.146578 0 .264584.118003.264584.264585v.79375c0 .146578-.118006.264581-.264584.264581h-.264583c-.146579 0-.264583-.118003-.264583-.264581v-.79375c0-.146582.118004-.264585.264583-.264585zm-5.0245.529165a.26460979.26460979 0 0 0 -.267167.264585v3.704166a.26460979.26460979 0 0 0 .416512.216527l2.645834-1.852085a.26460979.26460979 0 0 0 0-.433566l-2.645834-1.852085a.26460979.26460979 0 0 0 -.149345-.04754zm-2.6484175 1.32292h.264584c.146578 0 .264583.118003.264583.264581v.79375c0 .146581-.118005.264584-.264583.264584h-.264584c-.146578 0-.264583-.118003-.264583-.264584v-.79375c0-.146578.118005-.264581.264583-.264581zm7.6729175 0h.264583c.146578 0 .264584.118003.264584.264581v.79375c0 .146581-.118006.264584-.264584.264584h-.264583c-.146579 0-.264583-.118003-.264583-.264584v-.79375c0-.146578.118004-.264581.264583-.264581zm-7.6729175 1.852081h.264584c.146578 0 .264583.118006.264583.264584v.79375c0 .146578-.118005.264585-.264583.264585h-.264584c-.146578 0-.264583-.118007-.264583-.264585v-.79375c0-.146578.118005-.264584.264583-.264584zm7.6729175 0h.264583c.146578 0 .264584.118006.264584.264584v.79375c0 .146578-.118006.264585-.264584.264585h-.264583c-.146579 0-.264583-.118007-.264583-.264585v-.79375c0-.146578.118004-.264584.264583-.264584zm-7.6729175 1.852084h.264584c.146578 0 .264583.118003.264583.264585v.79375c0 .146578-.118005.26458-.264583.26458h-.264584c-.146578 0-.264583-.118002-.264583-.26458v-.79375c0-.146582.118005-.264585.264583-.264585zm7.6729175 0h.264583c.146578 0 .264584.118003.264584.264585v.79375c0 .146578-.118006.26458-.264584.26458h-.264583c-.146579 0-.264583-.118002-.264583-.26458v-.79375c0-.146582.118004-.264585.264583-.264585z" fill-opacity=".2"/><path d="m8.202084 10.31875c-.293158 0-.529168.236005-.529168.529165v10.054164c0 .293152.23601.529171.529168.529171h8.995833c.293158 0 .529167-.236019.529167-.529171v-10.054164c0-.29316-.236009-.529165-.529167-.529165zm.529166 1.05833h.264583c.146579 0 .264583.118007.264583.264585v.79375c0 .146578-.118004.264585-.264583.264585h-.264583c-.146579 0-.264583-.118007-.264583-.264585v-.79375c0-.146578.118004-.264585.264583-.264585zm7.672917 0h.264583c.146578 0 .264584.118007.264584.264585v.79375c0 .146578-.118006.264585-.264584.264585h-.264583c-.146579 0-.264583-.118007-.264583-.264585v-.79375c0-.146578.118004-.264585.264583-.264585zm-5.820833.264585h4.233333c.293157 0 .529167.23601.529167.529165v7.408334c0 .29316-.23601.529165-.529167.529165h-4.233333c-.293158 0-.529167-.236005-.529167-.529165v-7.408334c0-.293155.236009-.529165.529167-.529165zm-1.852084 1.5875h.264583c.146579 0 .264583.118003.264583.264586v.79375c0 .146578-.118004.264581-.264583.264581h-.264583c-.146579 0-.264583-.118003-.264583-.264581v-.79375c0-.146583.118004-.264586.264583-.264586zm7.672917 0h.264583c.146578 0 .264584.118003.264584.264586v.79375c0 .146578-.118006.264581-.264584.264581h-.264583c-.146579 0-.264583-.118003-.264583-.264581v-.79375c0-.146583.118004-.264586.264583-.264586zm-5.0245.529166a.26460979.26460979 0 0 0 -.267167.264585v3.704165a.26460979.26460979 0 0 0 .416512.216526l2.645834-1.852085a.26460979.26460979 0 0 0 0-.433566l-2.645834-1.852085a.26460979.26460979 0 0 0 -.149345-.04754zm-2.648417 1.322919h.264583c.146579 0 .264583.118003.264583.264581v.79375c0 .146581-.118004.264584-.264583.264584h-.264583c-.146579 0-.264583-.118004-.264583-.264584v-.79375c0-.146578.118004-.264581.264583-.264581zm7.672917 0h.264583c.146578 0 .264584.118003.264584.264581v.79375c0 .146581-.118006.264584-.264584.264584h-.264583c-.146579 0-.264583-.118004-.264583-.264584v-.79375c0-.146578.118004-.264581.264583-.264581zm-7.672917 1.852081h.264583c.146579 0 .264583.118006.264583.264584v.79375c0 .146578-.118004.264585-.264583.264585h-.264583c-.146579 0-.264583-.118007-.264583-.264585v-.79375c0-.146578.118004-.264584.264583-.264584zm7.672917 0h.264583c.146578 0 .264584.118006.264584.264584v.79375c0 .146578-.118006.264585-.264584.264585h-.264583c-.146579.000001-.264583-.118007-.264583-.264585v-.793749c0-.146579.118004-.264584.264583-.264585zm-7.672917 1.852084h.264583c.146579 0 .264583.118003.264583.264585v.79375c0 .146579-.118004.26458-.264583.26458h-.264583c-.146579 0-.264583-.118003-.264583-.26458v-.79375c0-.146581.118004-.264585.264583-.264585zm7.672917 0h.264583c.146578 0 .264584.118003.264584.264585v.79375c0 .146579-.118006.26458-.264584.26458h-.264583c-.146579 0-.264583-.118003-.264583-.26458v-.79375c0-.146581.118004-.264585.264583-.264585z" fill="url(#a)"/></g></g></svg>
