<svg height="96" viewBox="0 0 25.399999 25.4" width="96" xmlns="http://www.w3.org/2000/svg" xmlns:xlink="http://www.w3.org/1999/xlink"><defs id="antufoldercolor">
    <style type="text/css" id="current-color-scheme">
      .ColorScheme-Highlight {
        color:#45aaf5;
      }
      </style>
  </defs><linearGradient id="a" gradientUnits="userSpaceOnUse" x1="47.999994" x2="47.999994" y1="397.650002" y2="373.650002"><stop offset="0" stop-color="#fff" stop-opacity=".7"/><stop offset="1" stop-color="#fff" stop-opacity=".85"/></linearGradient><linearGradient id="b" gradientUnits="userSpaceOnUse" x1="47.510117" x2="47.000017" y1="379.188012" y2="356.983332"><stop offset="0" stop-color="#fff" stop-opacity=".2"/><stop offset="1" stop-color="#fff" stop-opacity="0"/></linearGradient><linearGradient id="c" gradientUnits="userSpaceOnUse" x1="81.333338" x2="81.333338" y1="414.983362" y2="365.650022"><stop offset="0" stop-color="#fff" stop-opacity="0"/><stop offset="1" stop-color="#fff" stop-opacity=".2"/></linearGradient><g stroke-linecap="round" stroke-linejoin="round" stroke-miterlimit="1.8" stroke-width="1.33333"><g transform="matrix(.39687499 0 0 .39687499 -13.493752 -140.619431)"><path d="m39.333346 356.31667 15.333327.00001c6 0 8.666666 8 13.333334 8l24.666662-.00001c2.954668 0 5.333337 2.37867 5.333337 5.33334v33.33335c0 2.95467-2.378669 5.33334-5.333337 5.33334h-53.333323c-2.954671 0-5.333339-2.37867-5.333339-5.33334v-41.33335c0-2.95467 2.378668-5.33334 5.333339-5.33334z" style="fill:currentColor"
class="ColorScheme-Highlight"/><path d="m39.333338 356.98337 15.333335-.00001c5.333334 0 8 8 13.333327 8l24.666694.00001c2.585323 0 4.666663 2.08133 4.666663 4.66667v33.33332c0 2.58533-2.08134 4.66666-4.666663 4.66666h-53.333356c-2.585333 0-4.666666-2.08133-4.666666-4.66666v-41.33332c0-2.58534 2.081333-4.66667 4.666666-4.66667z" fill-opacity=".12"/><path d="m39.333338 356.98336 15.333335-.00001c5.333334 0 8 8 13.333334 8l24.666667.00001c2.585333 0 4.666666 2.08133 4.666666 4.66667v33.33332c0 2.58533-2.081333 4.66666-4.666666 4.66666h-53.333336c-2.585333 0-4.666666-2.08133-4.666666-4.66666v-41.33332c0-2.58534 2.081333-4.66667 4.666666-4.66667z" fill="url(#b)"/><path d="m39.333346 356.31667c-2.954658 0-5.333317 2.37867-5.333317 5.33334v41.33333c0 2.95466 2.378659 5.33333 5.333317 5.33333h53.333343c2.954658 0 5.333317-2.37867 5.333317-5.33333v-33.33333c0-2.95467-2.378659-5.33334-5.333317-5.33334h-24.666684c-4.666633 0-7.333317-8-13.333317-8zm0 .66667h15.333342c5.333317 0 8 8 13.333317 8h24.666684c2.585298 0 4.666658 2.08133 4.666658 4.66667v33.33333c0 2.58533-2.08136 4.66666-4.666658 4.66666h-53.333343c-2.585323 0-4.666658-2.08133-4.666658-4.66666v-41.33333c0-2.58534 2.081335-4.66667 4.666658-4.66667z" fill-opacity=".2"/><path d="m39.333346 372.31667 15.999993.00001c5.333334 0 7.333334-8 12.666668-8l24.666659-.00001c2.954671 0 5.33334 2.37867 5.33334 5.33334v41.33335c0 2.95467-2.378669 5.33334-5.33334 5.33334h-53.33332c-2.954671 0-5.333339-2.37867-5.333339-5.33334v-33.33335c0-2.95467 2.378668-5.33334 5.333339-5.33334z" style="fill:currentColor"
class="ColorScheme-Highlight"/><path d="m39.333338 372.98336 16.000001-.00001c6 0 8-8 12.666668-8l24.666667.00001c2.585333 0 4.666666 2.08133 4.666666 4.66667v41.33332c0 2.58533-2.081333 4.66666-4.666666 4.66666h-53.333336c-2.585333 0-4.666666-2.08133-4.666666-4.66666v-33.33332c0-2.58534 2.081333-4.66667 4.666666-4.66667z" fill="url(#c)"/><path d="m68.000005 364.31667c-5.333317 0-7.333317 8-12.666659 8h-16c-2.954658 0-5.333342 2.37867-5.333342 5.33334v33.33333c0 2.95466 2.378684 5.33333 5.333342 5.33333h53.333343c2.954658 0 5.333317-2.37867 5.333317-5.33333v-41.33334c0-2.95466-2.378659-5.33333-5.333317-5.33333zm0 .66667h24.666684c2.585323 0 4.666658 2.08133 4.666658 4.66666v41.33334c0 2.58532-2.081335 4.66666-4.666658 4.66666h-53.333343c-2.585323 0-4.666658-2.08134-4.666658-4.66666v-33.33333c0-2.58534 2.081335-4.66667 4.666658-4.66667h16c6 0 8.000001-8 12.666659-8z" fill-opacity=".15"/></g><g stroke-linecap="round" stroke-linejoin="round" stroke-miterlimit="1.8" stroke-width="1.29915" transform="matrix(.39687499 0 0 .39687499 -2.38124994 -136.38609203875)"><path d="m44.311195 374.32056c-3.466399-.0854-6.816259 1.25397-9.26823 3.70572-3.622577 3.62298-4.705902 9.07148-2.74479 13.80468 1.960572 4.73285 6.578953 7.81881 11.701823 7.81901h25.333333v-2.66666h-25.333333c-4.044437-.0002-7.690548-2.43661-9.238283-6.17318-1.548322-3.73669-.693173-8.03812 2.16667-10.89844 2.860323-2.85984 7.161755-3.71497 10.898436-2.16665 3.736574 1.54774 6.172966 5.19382 6.173178 9.23827h2.666666c-.000207-5.12287-3.086151-9.74125-7.819012-11.70182-1.440138-.59674-2.978056-.92251-4.536458-.96093zm-.09895 3.99869c-2.371793-.0582-4.663711.85868-6.341146 2.53646-2.477914 2.47875-3.218936 6.20594-1.877603 9.44401 1.34132 3.23843 4.501293 5.35005 8.006511 5.35025h25.333332v-2.66666h-25.33333c-2.426792-.00022-4.614494-1.46227-5.54297-3.70444-.928202-2.24179-.414839-4.82197 1.300782-6.53775 1.715772-1.71563 4.295958-2.22899 6.537759-1.30079 2.242155.92848 3.70422 3.1162 3.704429 5.54298h2.666666c-.000215-3.50521-2.111829-6.6652-5.350262-8.0065-.985439-.40834-2.037793-.63128-3.104166-.65756zm-.09766 3.99869c-1.276997-.0312-2.510942.46254-3.414063 1.36589-1.3348 1.33468-1.734113 3.34204-1.011719 5.08594.722469 1.74349 2.423945 2.8802 4.311199 2.8802h25.333332v-2.66666h-25.333333c-.808821 0-1.538026-.48715-1.847657-1.23437-.309604-.74739-.138457-1.60768.433595-2.1797.572006-.57204 1.432299-.74318 2.179686-.43359.747215.30962 1.234381 1.03884 1.234376 1.84766h2.666666c.000007-1.88727-1.136708-3.58874-2.880209-4.3112-.530739-.21997-1.097532-.34004-1.671874-.35417z" fill-opacity=".15"/><path d="m44.311194 373.65392c-3.46639-.0854-6.816254 1.25397-9.268225 3.70572-3.622577 3.62298-4.705902 9.07148-2.74479 13.80468 1.960572 4.73285 6.578953 7.81881 11.701825 7.81901h25.33333v-2.66666h-25.33333c-4.044439-.0002-7.69055-2.43661-9.238285-6.17318-1.548322-3.73669-.693173-8.03812 2.16667-10.89844 2.860323-2.85984 7.161755-3.71497 10.898435-2.16665 3.73657 1.54774 6.17297 5.19382 6.17318 9.23827h2.66666c-.0002-5.12287-3.08615-9.74125-7.81901-11.70182-1.44014-.59674-2.97805-.92251-4.53646-.96093zm-.099 3.99869c-2.37179-.0582-4.663706.85868-6.341141 2.53646-2.477914 2.47875-3.218936 6.20594-1.877603 9.44401 1.34132 3.23843 4.501294 5.35005 8.006514 5.35025h25.33333v-2.66666h-25.33333c-2.42679-.00022-4.614495-1.46227-5.542971-3.70444-.928202-2.24179-.414839-4.82197 1.300782-6.53775 1.715769-1.71563 4.295959-2.22899 6.537759-1.30079 2.24215.92848 3.70422 3.1162 3.70443 5.54298h2.66666c-.00021-3.50521-2.11182-6.6652-5.35026-8.0065-.98544-.40834-2.03779-.63128-3.10416-.65756zm-.0976 3.99869c-1.277-.0312-2.51095.46254-3.41407 1.36589-1.334798 1.33468-1.734111 3.34204-1.011717 5.08594.722467 1.74349 2.423947 2.8802 4.311197 2.8802h25.33333v-2.66666h-25.33333c-.80882 0-1.53803-.48715-1.84766-1.23437-.3096-.74739-.13845-1.60768.4336-2.1797.572-.57204 1.4323-.74318 2.17969-.43359.74721.30962 1.23438 1.03884 1.23437 1.84766h2.66667c0-1.88727-1.13671-3.58874-2.88021-4.3112-.53074-.21997-1.09753-.34004-1.67188-.35417z" fill="url(#a)"/></g></g></svg>
