<svg height="96" viewBox="0 0 25.399999 25.4" width="96" xmlns="http://www.w3.org/2000/svg" xmlns:xlink="http://www.w3.org/1999/xlink"><defs id="antufoldercolor">
    <style type="text/css" id="current-color-scheme">
      .ColorScheme-Highlight {
        color:#45aaf5;
      }
      </style>
  </defs><linearGradient id="a" gradientUnits="userSpaceOnUse" x1="66.157402" x2="66.157402" y1="343.39679" y2="318.97565"><stop offset="0" stop-color="#fff" stop-opacity=".7"/><stop offset="1" stop-color="#fff" stop-opacity=".85"/></linearGradient><linearGradient id="b" gradientUnits="userSpaceOnUse" x1="47.510117" x2="47.000017" y1="379.188012" y2="356.983332"><stop offset="0" stop-color="#fff" stop-opacity=".2"/><stop offset="1" stop-color="#fff" stop-opacity="0"/></linearGradient><linearGradient id="c" gradientUnits="userSpaceOnUse" x1="81.333338" x2="81.333338" y1="414.983362" y2="365.650022"><stop offset="0" stop-color="#fff" stop-opacity="0"/><stop offset="1" stop-color="#fff" stop-opacity=".2"/></linearGradient><g stroke-linecap="round" stroke-linejoin="round" stroke-miterlimit="1.8" stroke-width="1.33333"><g transform="matrix(.39687499 0 0 .39687499 -13.493752 -140.619431)"><path d="m39.333346 356.31667 15.333327.00001c6 0 8.666666 8 13.333334 8l24.666662-.00001c2.954668 0 5.333337 2.37867 5.333337 5.33334v33.33335c0 2.95467-2.378669 5.33334-5.333337 5.33334h-53.333323c-2.954671 0-5.333339-2.37867-5.333339-5.33334v-41.33335c0-2.95467 2.378668-5.33334 5.333339-5.33334z" style="fill:currentColor"
class="ColorScheme-Highlight"/><path d="m39.333338 356.98337 15.333335-.00001c5.333334 0 8 8 13.333327 8l24.666694.00001c2.585323 0 4.666663 2.08133 4.666663 4.66667v33.33332c0 2.58533-2.08134 4.66666-4.666663 4.66666h-53.333356c-2.585333 0-4.666666-2.08133-4.666666-4.66666v-41.33332c0-2.58534 2.081333-4.66667 4.666666-4.66667z" fill-opacity=".12"/><path d="m39.333338 356.98336 15.333335-.00001c5.333334 0 8 8 13.333334 8l24.666667.00001c2.585333 0 4.666666 2.08133 4.666666 4.66667v33.33332c0 2.58533-2.081333 4.66666-4.666666 4.66666h-53.333336c-2.585333 0-4.666666-2.08133-4.666666-4.66666v-41.33332c0-2.58534 2.081333-4.66667 4.666666-4.66667z" fill="url(#b)"/><path d="m39.333346 356.31667c-2.954658 0-5.333317 2.37867-5.333317 5.33334v41.33333c0 2.95466 2.378659 5.33333 5.333317 5.33333h53.333343c2.954658 0 5.333317-2.37867 5.333317-5.33333v-33.33333c0-2.95467-2.378659-5.33334-5.333317-5.33334h-24.666684c-4.666633 0-7.333317-8-13.333317-8zm0 .66667h15.333342c5.333317 0 8 8 13.333317 8h24.666684c2.585298 0 4.666658 2.08133 4.666658 4.66667v33.33333c0 2.58533-2.08136 4.66666-4.666658 4.66666h-53.333343c-2.585323 0-4.666658-2.08133-4.666658-4.66666v-41.33333c0-2.58534 2.081335-4.66667 4.666658-4.66667z" fill-opacity=".2"/><path d="m39.333346 372.31667 15.999993.00001c5.333334 0 7.333334-8 12.666668-8l24.666659-.00001c2.954671 0 5.33334 2.37867 5.33334 5.33334v41.33335c0 2.95467-2.378669 5.33334-5.33334 5.33334h-53.33332c-2.954671 0-5.333339-2.37867-5.333339-5.33334v-33.33335c0-2.95467 2.378668-5.33334 5.333339-5.33334z" style="fill:currentColor"
class="ColorScheme-Highlight"/><path d="m39.333338 372.98336 16.000001-.00001c6 0 8-8 12.666668-8l24.666667.00001c2.585333 0 4.666666 2.08133 4.666666 4.66667v41.33332c0 2.58533-2.081333 4.66666-4.666666 4.66666h-53.333336c-2.585333 0-4.666666-2.08133-4.666666-4.66666v-33.33332c0-2.58534 2.081333-4.66667 4.666666-4.66667z" fill="url(#c)"/><path d="m68.000005 364.31667c-5.333317 0-7.333317 8-12.666659 8h-16c-2.954658 0-5.333342 2.37867-5.333342 5.33334v33.33333c0 2.95466 2.378684 5.33333 5.333342 5.33333h53.333343c2.954658 0 5.333317-2.37867 5.333317-5.33333v-41.33334c0-2.95466-2.378659-5.33333-5.333317-5.33333zm0 .66667h24.666684c2.585323 0 4.666658 2.08133 4.666658 4.66666v41.33334c0 2.58532-2.081335 4.66666-4.666658 4.66666h-53.333343c-2.585323 0-4.666658-2.08134-4.666658-4.66666v-33.33333c0-2.58534 2.081335-4.66667 4.666658-4.66667h16c6 0 8.000001-8 12.666659-8z" fill-opacity=".15"/></g><g stroke-linecap="round" stroke-linejoin="round" stroke-miterlimit="1.8"><path d="m56.236949 316.68766-.76167.001c-1.255163 0-2.290973 1.0343-2.290973 2.28948v1.52781a.76323708.76323708 0 0 0 .76316.76167c.03109 0 .05838.00098.08049.003.0185.002.04382.005.07602.0119.02642.005.04886.0124.07155.0194.0277.009.05076.0172.07006.0253.02528.0107.04854.0213.06708.0313.02095.0113.04129.0229.0626.0373.02008.0136.03951.0294.05813.0447.02144.0177.04058.0347.05515.0492.01456.0146.03145.0336.04919.0551.01543.0187.03117.038.04472.0581.01443.0214.02591.0416.03726.0626.01004.0185.02063.0403.0313.0656.0081.0193.01677.0438.02534.0716.0071.0229.01404.0452.01938.0715.0066.0322.0101.0576.01192.076.0022.0221.003.0494.003.0805s-.000781.0584-.003.0805c-.0019.0184-.0054.0438-.01192.076-.0053.0263-.0123.0487-.01938.0716-.0086.0277-.01724.0523-.02534.0715-.01069.0254-.02131.0472-.0313.0656-.01137.021-.02286.0413-.03726.0626-.01361.0202-.02938.0395-.04472.0581-.01774.0215-.03462.0405-.04919.0551-.01447.0145-.03358.0314-.05515.0492-.01868.0154-.03798.0311-.05813.0447-.02138.0144-.04157.0259-.0626.0373-.01845.01-.04171.0207-.06708.0313-.01922.008-.04237.0167-.07006.0253-.02287.007-.04532.0141-.07155.0194-.03211.007-.05762.0102-.07602.0119-.02211.002-.0494.003-.08049.003a.76323708.76323708 0 0 0 -.76316.76167v1.52782a.76323708.76323708 0 0 0 .76316.76316c.03109 0 .05838.002.08049.004.0184.002.04392.005.07602.0119.02622.005.04868.0108.07155.0179.0277.009.05085.0172.07006.0253.02537.0107.04863.0214.06708.0313.02103.0114.04122.0242.0626.0387.02016.0136.03945.0278.05813.0432.02157.0178.04068.0348.05515.0492.01445.0145.03141.0321.04919.0537.01534.0186.03111.041.04472.0611.0144.0214.02589.0401.03726.0611.01.0184.02061.0417.0313.0671.0081.0192.01675.0408.02534.0686.0071.0229.01404.0467.01938.073.0066.0322.0101.0592.01192.0775.0022.0221.003.0479.003.079s-.000781.0569-.003.079c-.0019.0184-.0054.0437-.01192.076-.0053.0263-.0123.0517-.01938.0745-.0086.0277-.01721.0493-.02534.0686-.01067.0253-.02126.05-.0313.0686-.01112.0204-.02317.0402-.03726.0611-.01355.0201-.02934.0394-.04472.0581-.0177.0215-.03468.0407-.04919.0552-.01447.0145-.03358.0329-.05515.0507-.01862.0154-.03805.0296-.05813.0432-.02131.0144-.04165.0245-.0626.0358-.01853.01-.04188.0237-.06708.0343-.01922.008-.04237.0167-.07006.0253-.02287.007-.04523.0125-.07155.0179-.0322.007-.05752.009-.07602.0104-.02211.002-.0494.004-.08049.004a.76323708.76323708 0 0 0 -.76316.76316v1.52632a.76323708.76323708 0 0 0 .76316.76316c.03109 0 .05838.002.08049.004.0185.002.04382.005.07602.0119.02622.005.04877.0124.07155.0194.0277.009.05076.0172.07006.0253v-.003c.02528.0107.04854.0243.06708.0343.02095.0113.04129.0229.0626.0373.02008.0135.03951.0294.05813.0447.02144.0177.04058.0332.05515.0477.01456.0146.03145.0337.04919.0552.01543.0187.03117.038.04472.0581.01443.0214.02591.0417.03726.0626.01.0184.02061.0418.0313.0671.0081.0193.01676.0424.02534.0701.0071.0229.01404.0467.01938.073.0066.0322.0101.0576.01192.076.0022.0221.003.0494.003.0805s-.000781.0569-.003.079c-.0019.0184-.0054.0438-.01192.076-.0053.0263-.01231.0501-.01938.073-.0086.0277-.01724.0509-.02534.0701-.01069.0254-.02131.0487-.0313.0671-.01137.021-.02286.0413-.03726.0626-.01361.0202-.02938.0395-.04472.0581-.01774.0215-.03462.0405-.04919.0552-.01457.0146-.03364.03-.05515.0477-.01868.0154-.03798.0311-.05813.0447-.02138.0144-.04157.0259-.0626.0373-.01845.01-.04171.0207-.06708.0313-.01922.008-.04237.0167-.07006.0253-.02287.007-.04532.0125-.07155.0179-.0323.007-.05772.0115-.07602.0134-.02211.002-.0494.004-.08049.004a.76323708.76323708 0 0 0 -.76316.76167v1.52782a.76323708.76323708 0 0 0 .76316.76316c.03099 0 .05828-.0008.08049.001.0184.002.04392.008.07602.0149.02622.005.04868.009.07155.0164.0277.009.05085.0172.07006.0253.02537.0107.04863.0214.06708.0313.02111.0114.04136.0258.0626.0402.02016.0136.03945.0263.05813.0417.02157.0178.04068.0348.05515.0492.01445.0145.03141.0335.04919.0551.01538.0186.03117.038.04472.0581.0144.0214.02589.0416.03726.0626.01.0184.02061.0432.0313.0686.0081.0192.01675.0408.02534.0686.0071.0229.01404.0452.01938.0715.0066.0322.0101.0576.01192.076.0022.0221.003.0494.003.0805s-.000781.0584-.003.0805c-.0019.0184-.0054.0437-.01192.076-.0053.0262-.0123.0501-.01938.073-.0086.0277-.01721.0508-.02534.0701-.01067.0253-.02129.0471-.0313.0656-.01133.0209-.02283.0412-.03726.0626-.01355.0201-.02934.0409-.04472.0596-.0177.0215-.03468.0392-.04919.0537-.01447.0145-.03358.0329-.05515.0507-.01862.0154-.03805.0296-.05813.0432-.02131.0144-.04165.026-.0626.0373-.01853.01-.04188.0222-.06708.0328-.01922.008-.04237.0153-.07006.0238-.02287.007-.04523.0141-.07155.0194-.0322.007-.05752.0102-.07602.0119-.02211.002-.0494.004-.08049.004a.76323708.76323708 0 0 0 -.76316.76316v1.52483a.76323708.76323708 0 0 0 .76316.76465c.03109 0 .05838.00098.08049.003.0183.002.04372.005.07602.0119.02622.005.04868.0124.07155.0194.02779.009.05076.0158.07006.0239.02537.0107.0487.0228.06708.0328.02095.0114.04129.0229.0626.0373.02008.0135.03951.0294.05813.0447.02144.0177.04058.0347.05515.0492.01456.0146.03145.0337.04919.0552.01543.0187.03117.038.04472.0581.01436.0213.02589.0416.03726.0626.01.0184.02061.0418.0313.0671.0081.0192.01675.0424.02534.0701.0071.0229.01404.0452.01938.0715.0066.0322.0101.0576.01192.076.0022.0221.003.0494.003.0805s-.000781.0584-.003.0805c-.0019.0184-.0054.0438-.01192.076-.0053.0263-.01231.0487-.01938.0716-.0086.0277-.01724.0493-.02534.0686-.01069.0254-.02131.0501-.0313.0686-.01137.021-.02286.0413-.03726.0626-.01361.0202-.02938.0395-.04472.0581-.01774.0215-.03462.0405-.04919.0551s-.03364.0315-.05515.0492c-.01868.0154-.03798.0296-.05813.0432-.02138.0144-.04157.0274-.0626.0388-.01845.01-.04171.0207-.06708.0313-.01922.008-.04237.0167-.07006.0253-.02287.007-.04532.0125-.07155.0179-.0323.007-.05772.0115-.07602.0134-.02211.002-.0494.001-.08049.001a.76323708.76323708 0 0 0 -.76316.76465v1.52632c0 1.25517 1.035804 2.28949 2.290973 2.28949h.76167a.76323708.76323708 0 0 0 .763161-.76465c0-.0311.0023-.0584.0045-.0805.0019-.0184.0039-.0437.01043-.076.0053-.0262.01379-.0501.02087-.073.0086-.0277.01426-.0509.02236-.07.01066-.0253.02427-.0471.03428-.0656.01137-.021.02137-.0413.03577-.0626.01355-.0201.03083-.0409.04621-.0596.01778-.0216.03325-.0392.0477-.0537.01447-.0145.03358-.0314.05515-.0492.01868-.0154.03798-.0311.05813-.0447.02132-.0144.04165-.026.0626-.0373.01845-.01.04171-.0207.06708-.0313.01922-.008.04237-.0167.07005-.0253.02287-.007.04532-.0125.07155-.0179.03211-.007.05911-.0115.07751-.0134.02202-.002.04791-.004.079-.004s.05847.002.08049.004c.0184.002.04392.007.07602.0134.02622.005.05017.0108.07304.0179.0277.009.04785.0172.06708.0253.02537.0107.05011.0214.06856.0313.02095.0113.04129.0229.0626.0373.02016.0136.04094.0293.05962.0447.02157.0178.03919.0348.05366.0492.01445.0145.03141.0321.04919.0537.01538.0186.03117.0395.04472.0596.0144.0213.02589.0416.03726.0626.01001.0185.02064.0403.0313.0656.0081.0192.01675.0423.02534.07.0071.0229.01254.0467.01789.073.0066.0322.01156.0576.01341.076.0022.0221.0045.0494.0045.0805a.76323708.76323708 0 0 0 .76167.76316h2.287992a.76323708.76323708 0 0 0 .764651-.76316c0-.0311.000781-.0584.003-.0805.0019-.0184.0054-.0437.01192-.076.0053-.0262.01231-.0501.01938-.073.0086-.0277.01724-.0509.02534-.07.01066-.0253.02129-.0471.0313-.0656.01137-.021.02287-.0413.03726-.0626.01354-.0201.02933-.0409.04472-.0596.01779-.0216.03474-.0392.04919-.0537.01448-.0145.03358-.0314.05515-.0492.01869-.0154.03799-.0311.05813-.0447.0213-.0144.04165-.026.0626-.0373.01845-.01.04169-.0207.06707-.0313.01921-.008.04236-.0167.07006-.0253.02286-.007.04532-.0125.07155-.0179.03211-.007.05762-.0115.07602-.0134.02202-.002.0494-.004.08049-.004s.05847.002.08049.004c.0184.002.04391.007.07602.0134.02622.005.04868.0108.07155.0179.0277.009.05234.0172.07155.0253.02537.0107.04713.0214.06558.0313.02095.0113.0413.0229.0626.0373.02015.0136.03944.0293.05813.0447.02157.0178.04067.0347.05515.0492.01445.0144.0314.0321.04919.0537.01539.0187.03118.0395.04472.0596.01439.0213.02589.0416.03726.0626.01001.0185.02064.0403.0313.0656.0081.0192.01675.0423.02534.07.0071.0228.01404.0467.01938.073.0066.0322.01011.0576.01192.076.0022.0221.003.0494.003.0805a.76323708.76323708 0 0 0 .76167.76316h3.052643a.76323708.76323708 0 0 0 .764651-.76316c0-.0311.000782-.0584.003-.0805.0019-.0184.0054-.0437.01192-.076.0053-.0262.0123-.0501.01938-.073.0086-.0277.01575-.0509.02385-.07a.76323708.76323708 0 0 0 .0015 0c.01065-.0253.02128-.0471.0313-.0656.01137-.021.02286-.0413.03726-.0626.01355-.0201.02934-.0409.04472-.0596.01778-.0216.03475-.0392.04919-.0537.01447-.0145.03358-.0314.05515-.0492.01869-.0154.03798-.0311.05813-.0447.02131-.0144.04165-.026.0626-.0373.01845-.01.04169-.0207.06707-.0313.01922-.008.04237-.0167.07006-.0253.02287-.007.04532-.0125.07155-.0179.03211-.007.05762-.0115.07602-.0134.02202-.002.0494-.004.08049-.004s.05847.002.08049.004c.0184.002.04391.007.07602.0134.02622.005.05017.0108.07304.0179.0277.009.05085.0172.07006.0253.02538.0107.04715.0214.06558.0313.02095.0113.04129.0229.0626.0373.02015.0136.03944.0293.05813.0447.02157.0178.04068.0348.05515.0492.01445.0145.03141.0321.04919.0537.01539.0187.03118.0395.04472.0596.01439.0213.02589.0416.03726.0626.01001.0185.02064.0403.0313.0656.0081.0192.01675.0423.02534.07.0071.0229.01255.0467.01789.073.0066.0322.01157.0576.01341.076.0022.0221.0045.0494.0045.0805a.76323708.76323708 0 0 0 .76167.76316h2.290973a.76323708.76323708 0 0 0 .76167-.76316c0-.0311.000781-.0584.003-.0805.0019-.0184.0054-.0437.01192-.076.0053-.0262.01231-.0501.01938-.073.0086-.0277.01725-.0509.02534-.07.01066-.0253.02129-.0471.0313-.0656.01137-.021.02287-.0413.03726-.0626.01354-.0201.02933-.0409.04472-.0596.01778-.0216.03474-.0392.04919-.0537.01448-.0145.03358-.0314.05515-.0492.01869-.0154.03798-.0311.05813-.0447.0213-.0144.04165-.026.0626-.0373.01845-.01.04021-.0207.06558-.0313.01921-.008.04385-.0167.07155-.0253.02286-.007.04532-.0125.07155-.0179.03211-.007.05762-.0115.07602-.0134.02202-.002.0494-.004.08049-.004s.05847.002.08049.004c.0184.002.04392.007.07602.0134.02622.005.04868.0108.07155.0179.0277.009.05084.0172.07005.0253.02537.0107.04863.0214.06708.0313.02095.0113.04129.0229.0626.0373.02015.0136.03945.0293.05813.0447.02156.0178.04068.0348.05515.0492.01444.0144.0314.0321.04919.0537.01539.0187.03118.0395.04472.0596.01439.0213.02589.0416.03726.0626.01001.0185.02064.0403.0313.0656.0081.0192.01676.0423.02534.07.0071.0229.01404.0467.01938.073.0066.0322.0101.0576.01192.076.0022.0221.003.0494.003.0805a.76323708.76323708 0 0 0 .764651.76316h.76167c1.25517 0 2.287992-1.03431 2.287992-2.28949v-1.52632a.76323708.76323708 0 0 0 -.76167-.76465c-.03109 0-.05688.00079-.079-.001-.0183-.002-.04372-.007-.07602-.0134-.02623-.005-.05018-.0108-.07304-.0179-.0277-.009-.05085-.0172-.07006-.0253-.02537-.0107-.04863-.0213-.06708-.0313-.02104-.0114-.04124-.0244-.0626-.0388-.02015-.0136-.03944-.0278-.05813-.0432-.02151-.0177-.04058-.0347-.05515-.0492-.01456-.0146-.02996-.0322-.0477-.0537-.01535-.0186-.03112-.0394-.04472-.0596-.01439-.0213-.02589-.0416-.03726-.0626-.01-.0184-.0236-.0432-.03428-.0686-.0081-.0192-.01377-.0393-.02236-.0671-.0071-.0228-.01404-.0467-.01938-.073-.0066-.0322-.0101-.0576-.01192-.076-.0022-.0221-.0045-.0494-.0045-.0805s.0023-.0584.0045-.0805c.0019-.0184.0054-.0438.01192-.076.0053-.0262.01229-.0486.01938-.0715.0086-.0277.01426-.0509.02236-.0701.01069-.0254.0243-.0487.03428-.0671.01137-.021.0229-.0413.03726-.0626.01354-.0201.02928-.0394.04472-.0581.01774-.0215.03314-.0406.0477-.0552.01457-.0146.0337-.0316.05515-.0492.01864-.0154.03806-.0312.05813-.0447.02129-.0144.04165-.026.0626-.0373.01837-.01.0417-.0221.06708-.0328.01929-.008.04227-.0153.07006-.0239.02285-.007.04681-.0141.07304-.0194.0323-.007.05772-.0102.07602-.0119.02211-.002.04791-.003.079-.003a.76323708.76323708 0 0 0 .76167-.76465v-1.52483a.76323708.76323708 0 0 0 -.76167-.76316c-.03109 0-.05688-.002-.079-.004-.0185-.002-.04382-.005-.07602-.0119-.02632-.005-.05018-.0124-.07304-.0194-.0277-.009-.05085-.0157-.07006-.0238-.02519-.0106-.04855-.0228-.06708-.0328-.02095-.0114-.04131-.0229-.0626-.0373-.02007-.0135-.0395-.0278-.05813-.0432-.02157-.0178-.04068-.0362-.05515-.0507-.0145-.0145-.03-.0322-.0477-.0537-.01539-.0187-.03118-.0395-.04472-.0596-.01442-.0214-.02593-.0417-.03726-.0626-.01001-.0185-.02361-.0403-.03428-.0656-.0081-.0193-.01378-.0424-.02236-.0701-.0071-.0229-.01404-.0467-.01938-.073-.0066-.0322-.0101-.0576-.01192-.076-.0022-.0221-.0045-.0494-.0045-.0805s.0023-.0569.0045-.079c.0019-.0184.0054-.0452.01192-.0775.0053-.0262.0123-.0487.01938-.0716.0086-.0277.01426-.0493.02236-.0686.01069-.0254.0243-.0501.03428-.0686.01137-.021.02287-.0413.03726-.0626.01354-.0201.02933-.0394.04472-.0581.01778-.0216.03325-.0406.0477-.0551.01447-.0145.03357-.0314.05515-.0492.01869-.0154.03798-.0281.05813-.0417.02122-.0143.04148-.0287.0626-.0402.01845-.01.0417-.0207.06708-.0313.01921-.008.04236-.0167.07006-.0253.02285-.007.04681-.011.07304-.0164.03211-.007.05762-.013.07602-.0149.02221-.002.048-.001.079-.001a.76323708.76323708 0 0 0 .76167-.76317v-1.52781a.76323708.76323708 0 0 0 -.76167-.76167c-.03109 0-.05688-.002-.079-.004-.0183-.002-.04372-.007-.07602-.0134-.02623-.005-.05018-.0108-.07304-.0179-.0277-.009-.05085-.0172-.07006-.0253-.02537-.0107-.04863-.0214-.06708-.0313-.02104-.0114-.04124-.0229-.0626-.0373-.02015-.0136-.03944-.0293-.05813-.0447-.02151-.0177-.04058-.0332-.05515-.0477-.01456-.0146-.02996-.0337-.0477-.0552-.01535-.0186-.03112-.0379-.04472-.0581-.01439-.0213-.02589-.0416-.03726-.0626-.01-.0184-.0236-.0418-.03428-.0671-.0081-.0192-.01377-.0423-.02236-.07-.0071-.0228-.01403-.0467-.01938-.073-.0066-.0322-.0101-.0576-.01192-.076-.0022-.0221-.0045-.0479-.0045-.079s.0023-.0584.0045-.0805c.0019-.0184.0054-.0437.01192-.076.0053-.0262.01229-.0501.01938-.073.0086-.0277.01423-.0508.02236-.0701.01069-.0253.0243-.0472.03428-.0656.01134-.0209.02283-.0412.03726-.0626.01354-.0201.02928-.0409.04472-.0596.01774-.0215.03314-.0391.0477-.0537.01457-.0146.0337-.0315.05515-.0492.01864-.0154.03806-.0312.05813-.0447.02129-.0144.04165-.026.0626-.0373.01853-.01.04179-.0221.06708-.0328v.001c.01929-.008.04236-.0167.07006-.0253.02277-.007.04681-.0141.07304-.0194.03221-.007.05752-.0102.07602-.0119.02211-.002.04791-.004.079-.004a.76323708.76323708 0 0 0 .76167-.76316v-1.52483a.76323708.76323708 0 0 0 -.76167-.76465c-.03109 0-.05688-.002-.079-.004-.0185-.002-.04382-.004-.07602-.0104-.02632-.005-.05018-.0108-.07304-.0179-.0277-.009-.05085-.0172-.07006-.0253-.02519-.0106-.04855-.0228-.06708-.0328-.02095-.0113-.04131-.0229-.0626-.0373-.02007-.0135-.0395-.0278-.05813-.0432-.02157-.0178-.04068-.0362-.05515-.0507-.0145-.0145-.03-.0336-.0477-.0551-.01539-.0187-.03118-.038-.04472-.0581-.01442-.0214-.02592-.0417-.03726-.0626-.01004-.0185-.02361-.0418-.03428-.0671-.0081-.0193-.01378-.0409-.02236-.0686-.0071-.0229-.01404-.0468-.01938-.073-.0066-.0322-.0101-.0591-.01192-.0775-.0022-.0221-.0045-.0479-.0045-.079s.0023-.0569.0045-.079c.0019-.0184.0054-.0453.01192-.0775.0053-.0262.0123-.0501.01938-.073.0086-.0277.01426-.0494.02236-.0686.01069-.0254.0243-.0486.03428-.0671.01137-.021.02287-.0397.03726-.0611.0136-.0202.02937-.0425.04472-.0611.01778-.0216.03325-.0392.0477-.0537.01447-.0145.03357-.0314.05515-.0492.01869-.0154.03798-.0296.05813-.0432.02136-.0144.04156-.0274.0626-.0387.01845-.01.0417-.0207.06708-.0313.01921-.008.04236-.0167.07006-.0253.02285-.007.04681-.0125.07304-.0179.03211-.007.05762-.0102.07602-.0119.02211-.002.04791-.003.079-.003a.76323708.76323708 0 0 0 .76167-.76466v-1.52781a.76323708.76323708 0 0 0 -.76167-.76167c-.03109 0-.05688-.00098-.079-.003-.0184-.002-.04391-.005-.07602-.0119-.02623-.005-.05018-.0124-.07304-.0194-.0277-.009-.05085-.0172-.07006-.0253-.02537-.0107-.04863-.0214-.06708-.0313-.02104-.0114-.04124-.0229-.0626-.0373-.02015-.0136-.03944-.0293-.05813-.0447-.02157-.0178-.04068-.0347-.05515-.0492-.01456-.0146-.02996-.0337-.0477-.0552-.01535-.0186-.03112-.0379-.04472-.0581-.01439-.0213-.02589-.0416-.03726-.0626-.01-.0184-.0236-.0402-.03428-.0656-.0081-.0192-.01377-.0438-.02236-.0715-.0071-.0229-.01404-.0453-.01938-.0716-.0066-.0322-.0101-.0576-.01192-.076-.0022-.0221-.0045-.0494-.0045-.0805s.0023-.0584.0045-.0805c.0019-.0184.0054-.0437.01192-.076.0053-.0262.0123-.0486.01938-.0715.0086-.0277.01423-.0508.02236-.0701.01067-.0253.02424-.0486.03428-.0671.01134-.0209.02283-.0412.03726-.0626.01354-.0201.02928-.0394.04472-.0581.01774-.0215.03314-.0405.0477-.0551.01457-.0146.0337-.0316.05515-.0492.01864-.0154.03806-.0312.05813-.0447.02129-.0144.04165-.026.0626-.0373.01853-.01.04179-.0207.06708-.0313.01929-.008.04236-.0167.07006-.0253.02267-.007.04662-.014.07304-.0194.03221-.007.05752-.0102.07602-.0119.02211-.002.04791-.003.079-.003a.76323708.76323708 0 0 0 .76167-.76167v-1.52781c0-1.25518-1.032828-2.28948-2.287992-2.28948h-.76167a.76323708.76323708 0 0 0 -.764651.76465c0 .0311-.000782.0554-.003.0775-.0019.0184-.0054.0453-.01192.0775-.0053.0263-.0123.0501-.01938.073-.0086.0277-.0172.0492-.02534.0686-.01067.0253-.02126.05-.0313.0686-.01135.0209-.02283.0382-.03726.0596-.01354.0201-.02928.0424-.04472.0611-.01775.0215-.03463.0405-.04919.0552-.01457.0146-.03371.0301-.05515.0477-.01863.0154-.03806.0296-.05813.0432-.02131.0144-.04165.0274-.0626.0387-.01853.01-.04179.0207-.06708.0313-.0193.008-.04236.0167-.07005.0253-.02269.007-.04513.0125-.07155.0179-.0322.007-.05752.0102-.07602.0119-.02211.002-.0494.004-.08049.004s-.05837-.002-.08049-.004c-.0185-.002-.04382-.005-.07602-.0119-.02642-.005-.04887-.0109-.07155-.0179-.0277-.009-.05226-.0172-.07155-.0253-.02529-.0107-.04706-.0213-.06558-.0313-.02095-.0113-.0413-.0243-.0626-.0387-.02007-.0135-.0395-.0278-.05813-.0432-.02144-.0177-.04057-.0332-.05515-.0477-.01456-.0146-.03145-.0337-.04919-.0552-.01544-.0187-.03118-.0411-.04472-.0611-.01442-.0214-.02591-.0386-.03726-.0596-.01004-.0185-.02063-.0432-.0313-.0686-.0081-.0193-.01676-.0409-.02534-.0686-.0071-.0229-.01404-.0467-.01938-.073-.0066-.0322-.0101-.0591-.01192-.0775-.0022-.0221-.003-.0464-.003-.0775a.76323708.76323708 0 0 0 -.76167-.76465h-2.290973a.76323708.76323708 0 0 0 -.76167.76465c0 .0311-.0023.0554-.0045.0775-.0019.0184-.0068.0453-.01341.0775-.0053.0262-.01081.0501-.01789.073-.0086.0277-.01721.0493-.02534.0686-.01067.0253-.02126.05-.0313.0686-.01134.0209-.02283.0382-.03726.0596-.01354.0201-.02928.0424-.04472.0611-.01774.0215-.03463.0405-.04919.0552-.01457.0146-.0337.03-.05515.0477-.01864.0154-.03806.0296-.05813.0432-.02131.0144-.04165.0274-.0626.0387-.01852.01-.0403.0207-.06558.0313-.01929.008-.04236.0167-.07006.0253-.02268.007-.04662.0125-.07304.0179-.03221.007-.05752.0102-.07602.0119-.02211.002-.0494.004-.08049.004s-.05837-.002-.08049-.004c-.0185-.002-.04382-.005-.07602-.0119-.02641-.005-.04886-.0109-.07155-.0179-.0277-.009-.05076-.0172-.07006-.0253-.02529-.0107-.04854-.0213-.06707-.0313-.02095-.0113-.04129-.0243-.0626-.0387-.02007-.0135-.0395-.0278-.05813-.0432-.02143-.0177-.04058-.0332-.05515-.0477-.01455-.0146-.03145-.0337-.04919-.0552-.01543-.0187-.03117-.0411-.04472-.0611-.01443-.0214-.02591-.0386-.03726-.0596-.01005-.0185-.02213-.0433-.03279-.0686h.003c-.0081-.0193-.01826-.0409-.02683-.0686-.0071-.0229-.01404-.0467-.01938-.073-.0066-.0322-.0086-.0591-.01043-.0775-.0022-.0221-.0045-.0464-.0045-.0775a.76323708.76323708 0 0 0 -.76316-.76465h-3.054134a.76323708.76323708 0 0 0 -.76167.76465c0 .0311-.000781.0554-.003.0775-.0019.0184-.0054.0453-.01192.0775-.0053.0263-.01231.0501-.01938.073-.0086.0277-.01721.0493-.02534.0686-.01067.0253-.02126.05-.0313.0686-.01134.0209-.02284.0382-.03726.0596-.01354.0201-.02929.0424-.04472.0611-.01775.0215-.03463.0405-.04919.0552-.01458.0146-.03371.03-.05515.0477-.01864.0154-.03806.0296-.05813.0432-.0213.0144-.04165.0274-.0626.0387-.01853.01-.04029.0207-.06558.0313-.01929.008-.04385.0167-.07155.0253-.02268.007-.04513.0125-.07155.0179-.03221.007-.05752.0102-.07602.0119-.02211.002-.0494.004-.08049.004s-.05837-.002-.08049-.004c-.0185-.002-.04382-.005-.07602-.0119-.02642-.005-.04887-.0109-.07155-.0179-.0277-.009-.05077-.0172-.07006-.0253-.02529-.0107-.04854-.0213-.06707-.0313-.02095-.0113-.0413-.0243-.0626-.0387-.02007-.0135-.0395-.0278-.05813-.0432-.02144-.0177-.04057-.0332-.05515-.0477-.01456-.0146-.03144-.0337-.04919-.0552-.01544-.0187-.03118-.0411-.04472-.0611-.01442-.0214-.02591-.0386-.03726-.0596-.01004-.0185-.02063-.0432-.0313-.0686-.0081-.0193-.01677-.0409-.02534-.0686-.0071-.0228-.01404-.0467-.01938-.073-.0066-.0322-.0101-.0591-.01192-.0775-.0022-.0221-.003-.0464-.003-.0775a.76323708.76323708 0 0 0 -.764651-.76465h-2.287992a.76323708.76323708 0 0 0 -.76167.76465c0 .0311-.0023.0554-.0045.0775-.0019.0184-.0068.0453-.01341.0775-.0053.0263-.01081.0501-.01789.073-.0086.0277-.01721.0493-.02534.0686-.01067.0253-.02126.05-.0313.0686-.01135.0209-.02283.0382-.03726.0596-.01355.0201-.02929.0424-.04472.0611-.01774.0215-.03463.0405-.04919.0552-.01457.0146-.03221.03-.05366.0477-.01862.0154-.03954.0296-.05962.0432-.02131.0144-.04165.0274-.0626.0387-.01853.01-.0418.0207-.06708.0313-.01898.008-.04154.0169-.06856.0253-.02268.007-.04662.0125-.07304.0179-.0322.007-.05752.0102-.07602.0119-.02211.002-.0494.004-.08049.004s-.05688-.002-.079-.004c-.0185-.002-.04382-.005-.07602-.0119-.02642-.005-.05035-.0109-.07304-.0179-.0277-.009-.05075-.0172-.07005-.0253-.02528-.0107-.04855-.0213-.06708-.0313-.02095-.0113-.04128-.0243-.0626-.0387-.02008-.0135-.03951-.0278-.05813-.0432-.02144-.0177-.04058-.0332-.05515-.0477-.01456-.0146-.02996-.0337-.0477-.0552-.01543-.0187-.03266-.0411-.04621-.0611-.01443-.0214-.02442-.0386-.03577-.0596-.01004-.0185-.02361-.0432-.03428-.0686-.0081-.0193-.01379-.0409-.02236-.0686-.0071-.0229-.01553-.0467-.02087-.073-.0066-.0322-.0086-.0591-.01043-.0775-.0022-.0221-.0045-.0464-.0045-.0775a.76323708.76323708 0 0 0 -.763161-.76465zm1.526321 4.58045h16.789538v19.84218h-16.789538zm9.581246 6.10529c-1.603162 0-2.930029 1.09362-3.311999 2.57417-.249788-.17825-.553788-.28469-.885386-.28469-.845566 0-1.526321.68076-1.526321 1.52632 0 .0115.0039.026.0045.0373-1.298215.18373-2.293954 1.2833-2.293954 2.63379 0 1.47978 1.191299 2.67107 2.671063 2.67107h8.394769c1.479767 0 2.671063-1.19126 2.671063-2.67107 0-1.36324-1.014977-2.46908-2.331218-2.63678.01673-.13787.04174-.27314.04174-.41586 0-1.90251-1.531676-3.43422-3.434223-3.43422z" fill-opacity=".15" transform="matrix(.34669408055 0 0 .34669408055 -10.23660022332 -98.68072879209)"/><path d="m56.236949 316.68766-.76167.001c-1.255163 0-2.290973 1.0343-2.290973 2.28948v1.52781a.76323708.76323708 0 0 0 .76316.76167c.03109 0 .05838.00098.08049.003.0185.002.04382.005.07602.0119.02642.005.04886.0124.07155.0194.0277.009.05076.0172.07006.0253.02528.0107.04854.0213.06708.0313.02095.0113.04129.0229.0626.0373.02008.0136.03951.0294.05813.0447.02144.0177.04058.0347.05515.0492.01456.0146.03145.0336.04919.0551.01543.0187.03117.038.04472.0581.01443.0214.02591.0416.03726.0626.01004.0185.02063.0403.0313.0656.0081.0193.01677.0438.02534.0716.0071.0229.01404.0452.01938.0715.0066.0322.0101.0576.01192.076.0022.0221.003.0494.003.0805s-.000781.0584-.003.0805c-.0019.0184-.0054.0438-.01192.076-.0053.0263-.0123.0487-.01938.0716-.0086.0277-.01724.0523-.02534.0715-.01069.0254-.02131.0472-.0313.0656-.01137.021-.02286.0413-.03726.0626-.01361.0202-.02938.0395-.04472.0581-.01774.0215-.03462.0405-.04919.0551-.01447.0145-.03358.0314-.05515.0492-.01868.0154-.03798.0311-.05813.0447-.02138.0144-.04157.0259-.0626.0373-.01845.01-.04171.0207-.06708.0313-.01922.008-.04237.0167-.07006.0253-.02287.007-.04532.0141-.07155.0194-.03211.007-.05762.0102-.07602.0119-.02211.002-.0494.003-.08049.003a.76323708.76323708 0 0 0 -.76316.76167v1.52782a.76323708.76323708 0 0 0 .76316.76316c.03109 0 .05838.002.08049.004.0184.002.04392.005.07602.0119.02622.005.04868.0108.07155.0179.0277.009.05085.0172.07006.0253.02537.0107.04863.0214.06708.0313.02103.0114.04122.0242.0626.0387.02016.0136.03945.0278.05813.0432.02157.0178.04068.0348.05515.0492.01445.0145.03141.0321.04919.0537.01534.0186.03111.041.04472.0611.0144.0214.02589.0401.03726.0611.01.0184.02061.0417.0313.0671.0081.0192.01675.0408.02534.0686.0071.0229.01404.0467.01938.073.0066.0322.0101.0592.01192.0775.0022.0221.003.0479.003.079s-.000781.0569-.003.079c-.0019.0184-.0054.0437-.01192.076-.0053.0263-.0123.0517-.01938.0745-.0086.0277-.01721.0493-.02534.0686-.01067.0253-.02126.05-.0313.0686-.01112.0204-.02317.0402-.03726.0611-.01355.0201-.02934.0394-.04472.0581-.0177.0215-.03468.0407-.04919.0552-.01447.0145-.03358.0329-.05515.0507-.01862.0154-.03805.0296-.05813.0432-.02131.0144-.04165.0245-.0626.0358-.01853.01-.04188.0237-.06708.0343-.01922.008-.04237.0167-.07006.0253-.02287.007-.04523.0125-.07155.0179-.0322.007-.05752.009-.07602.0104-.02211.002-.0494.004-.08049.004a.76323708.76323708 0 0 0 -.76316.76316v1.52632a.76323708.76323708 0 0 0 .76316.76316c.03109 0 .05838.002.08049.004.0185.002.04382.005.07602.0119.02622.005.04877.0124.07155.0194.0277.009.05076.0172.07006.0253v-.003c.02528.0107.04854.0243.06708.0343.02095.0113.04129.0229.0626.0373.02008.0135.03951.0294.05813.0447.02144.0177.04058.0332.05515.0477.01456.0146.03145.0337.04919.0552.01543.0187.03117.038.04472.0581.01443.0214.02591.0417.03726.0626.01.0184.02061.0418.0313.0671.0081.0193.01676.0424.02534.0701.0071.0229.01404.0467.01938.073.0066.0322.0101.0576.01192.076.0022.0221.003.0494.003.0805s-.000781.0569-.003.079c-.0019.0184-.0054.0438-.01192.076-.0053.0263-.01231.0501-.01938.073-.0086.0277-.01724.0509-.02534.0701-.01069.0254-.02131.0487-.0313.0671-.01137.021-.02286.0413-.03726.0626-.01361.0202-.02938.0395-.04472.0581-.01774.0215-.03462.0405-.04919.0552-.01457.0146-.03364.03-.05515.0477-.01868.0154-.03798.0311-.05813.0447-.02138.0144-.04157.0259-.0626.0373-.01845.01-.04171.0207-.06708.0313-.01922.008-.04237.0167-.07006.0253-.02287.007-.04532.0125-.07155.0179-.0323.007-.05772.0115-.07602.0134-.02211.002-.0494.004-.08049.004a.76323708.76323708 0 0 0 -.76316.76167v1.52782a.76323708.76323708 0 0 0 .76316.76316c.03099 0 .05828-.0008.08049.001.0184.002.04392.008.07602.0149.02622.005.04868.009.07155.0164.0277.009.05085.0172.07006.0253.02537.0107.04863.0214.06708.0313.02111.0114.04136.0258.0626.0402.02016.0136.03945.0263.05813.0417.02157.0178.04068.0348.05515.0492.01445.0145.03141.0335.04919.0551.01538.0186.03117.038.04472.0581.0144.0214.02589.0416.03726.0626.01.0184.02061.0432.0313.0686.0081.0192.01675.0408.02534.0686.0071.0229.01404.0452.01938.0715.0066.0322.0101.0576.01192.076.0022.0221.003.0494.003.0805s-.000781.0584-.003.0805c-.0019.0184-.0054.0437-.01192.076-.0053.0262-.0123.0501-.01938.073-.0086.0277-.01721.0508-.02534.0701-.01067.0253-.02129.0471-.0313.0656-.01133.0209-.02283.0412-.03726.0626-.01355.0201-.02934.0409-.04472.0596-.0177.0215-.03468.0392-.04919.0537-.01447.0145-.03358.0329-.05515.0507-.01862.0154-.03805.0296-.05813.0432-.02131.0144-.04165.026-.0626.0373-.01853.01-.04188.0222-.06708.0328-.01922.008-.04237.0153-.07006.0238-.02287.007-.04523.0141-.07155.0194-.0322.007-.05752.0102-.07602.0119-.02211.002-.0494.004-.08049.004a.76323708.76323708 0 0 0 -.76316.76316v1.52483a.76323708.76323708 0 0 0 .76316.76465c.03109 0 .05838.00098.08049.003.0183.002.04372.005.07602.0119.02622.005.04868.0124.07155.0194.02779.009.05076.0158.07006.0239.02537.0107.0487.0228.06708.0328.02095.0114.04129.0229.0626.0373.02008.0135.03951.0294.05813.0447.02144.0177.04058.0347.05515.0492.01456.0146.03145.0337.04919.0552.01543.0187.03117.038.04472.0581.01436.0213.02589.0416.03726.0626.01.0184.02061.0418.0313.0671.0081.0192.01675.0424.02534.0701.0071.0229.01404.0452.01938.0715.0066.0322.0101.0576.01192.076.0022.0221.003.0494.003.0805s-.000781.0584-.003.0805c-.0019.0184-.0054.0438-.01192.076-.0053.0263-.01231.0487-.01938.0716-.0086.0277-.01724.0493-.02534.0686-.01069.0254-.02131.0501-.0313.0686-.01137.021-.02286.0413-.03726.0626-.01361.0202-.02938.0395-.04472.0581-.01774.0215-.03462.0405-.04919.0551s-.03364.0315-.05515.0492c-.01868.0154-.03798.0296-.05813.0432-.02138.0144-.04157.0274-.0626.0388-.01845.01-.04171.0207-.06708.0313-.01922.008-.04237.0167-.07006.0253-.02287.007-.04532.0125-.07155.0179-.0323.007-.05772.0115-.07602.0134-.02211.002-.0494.001-.08049.001a.76323708.76323708 0 0 0 -.76316.76465v1.52632c0 1.25517 1.035804 2.28949 2.290973 2.28949h.76167a.76323708.76323708 0 0 0 .763161-.76465c0-.0311.0023-.0584.0045-.0805.0019-.0184.0039-.0437.01043-.076.0053-.0262.01379-.0501.02087-.073.0086-.0277.01426-.0509.02236-.07.01066-.0253.02427-.0471.03428-.0656.01137-.021.02137-.0413.03577-.0626.01355-.0201.03083-.0409.04621-.0596.01778-.0216.03325-.0392.0477-.0537.01447-.0145.03358-.0314.05515-.0492.01868-.0154.03798-.0311.05813-.0447.02132-.0144.04165-.026.0626-.0373.01845-.01.04171-.0207.06708-.0313.01922-.008.04237-.0167.07005-.0253.02287-.007.04532-.0125.07155-.0179.03211-.007.05911-.0115.07751-.0134.02202-.002.04791-.004.079-.004s.05847.002.08049.004c.0184.002.04392.007.07602.0134.02622.005.05017.0108.07304.0179.0277.009.04785.0172.06708.0253.02537.0107.05011.0214.06856.0313.02095.0113.04129.0229.0626.0373.02016.0136.04094.0293.05962.0447.02157.0178.03919.0348.05366.0492.01445.0145.03141.0321.04919.0537.01538.0186.03117.0395.04472.0596.0144.0213.02589.0416.03726.0626.01001.0185.02064.0403.0313.0656.0081.0192.01675.0423.02534.07.0071.0229.01254.0467.01789.073.0066.0322.01156.0576.01341.076.0022.0221.0045.0494.0045.0805a.76323708.76323708 0 0 0 .76167.76316h2.287992a.76323708.76323708 0 0 0 .764651-.76316c0-.0311.000781-.0584.003-.0805.0019-.0184.0054-.0437.01192-.076.0053-.0262.01231-.0501.01938-.073.0086-.0277.01724-.0509.02534-.07.01066-.0253.02129-.0471.0313-.0656.01137-.021.02287-.0413.03726-.0626.01354-.0201.02933-.0409.04472-.0596.01779-.0216.03474-.0392.04919-.0537.01448-.0145.03358-.0314.05515-.0492.01869-.0154.03799-.0311.05813-.0447.0213-.0144.04165-.026.0626-.0373.01845-.01.04169-.0207.06707-.0313.01921-.008.04236-.0167.07006-.0253.02286-.007.04532-.0125.07155-.0179.03211-.007.05762-.0115.07602-.0134.02202-.002.0494-.004.08049-.004s.05847.002.08049.004c.0184.002.04391.007.07602.0134.02622.005.04868.0108.07155.0179.0277.009.05234.0172.07155.0253.02537.0107.04713.0214.06558.0313.02095.0113.0413.0229.0626.0373.02015.0136.03944.0293.05813.0447.02157.0178.04067.0347.05515.0492.01445.0144.0314.0321.04919.0537.01539.0187.03118.0395.04472.0596.01439.0213.02589.0416.03726.0626.01001.0185.02064.0403.0313.0656.0081.0192.01675.0423.02534.07.0071.0228.01404.0467.01938.073.0066.0322.01011.0576.01192.076.0022.0221.003.0494.003.0805a.76323708.76323708 0 0 0 .76167.76316h3.052643a.76323708.76323708 0 0 0 .764651-.76316c0-.0311.000782-.0584.003-.0805.0019-.0184.0054-.0437.01192-.076.0053-.0262.0123-.0501.01938-.073.0086-.0277.01575-.0509.02385-.07a.76323708.76323708 0 0 0 .0015 0c.01065-.0253.02128-.0471.0313-.0656.01137-.021.02286-.0413.03726-.0626.01355-.0201.02934-.0409.04472-.0596.01778-.0216.03475-.0392.04919-.0537.01447-.0145.03358-.0314.05515-.0492.01869-.0154.03798-.0311.05813-.0447.02131-.0144.04165-.026.0626-.0373.01845-.01.04169-.0207.06707-.0313.01922-.008.04237-.0167.07006-.0253.02287-.007.04532-.0125.07155-.0179.03211-.007.05762-.0115.07602-.0134.02202-.002.0494-.004.08049-.004s.05847.002.08049.004c.0184.002.04391.007.07602.0134.02622.005.05017.0108.07304.0179.0277.009.05085.0172.07006.0253.02538.0107.04715.0214.06558.0313.02095.0113.04129.0229.0626.0373.02015.0136.03944.0293.05813.0447.02157.0178.04068.0348.05515.0492.01445.0145.03141.0321.04919.0537.01539.0187.03118.0395.04472.0596.01439.0213.02589.0416.03726.0626.01001.0185.02064.0403.0313.0656.0081.0192.01675.0423.02534.07.0071.0229.01255.0467.01789.073.0066.0322.01157.0576.01341.076.0022.0221.0045.0494.0045.0805a.76323708.76323708 0 0 0 .76167.76316h2.290973a.76323708.76323708 0 0 0 .76167-.76316c0-.0311.000781-.0584.003-.0805.0019-.0184.0054-.0437.01192-.076.0053-.0262.01231-.0501.01938-.073.0086-.0277.01725-.0509.02534-.07.01066-.0253.02129-.0471.0313-.0656.01137-.021.02287-.0413.03726-.0626.01354-.0201.02933-.0409.04472-.0596.01778-.0216.03474-.0392.04919-.0537.01448-.0145.03358-.0314.05515-.0492.01869-.0154.03798-.0311.05813-.0447.0213-.0144.04165-.026.0626-.0373.01845-.01.04021-.0207.06558-.0313.01921-.008.04385-.0167.07155-.0253.02286-.007.04532-.0125.07155-.0179.03211-.007.05762-.0115.07602-.0134.02202-.002.0494-.004.08049-.004s.05847.002.08049.004c.0184.002.04392.007.07602.0134.02622.005.04868.0108.07155.0179.0277.009.05084.0172.07005.0253.02537.0107.04863.0214.06708.0313.02095.0113.04129.0229.0626.0373.02015.0136.03945.0293.05813.0447.02156.0178.04068.0348.05515.0492.01444.0144.0314.0321.04919.0537.01539.0187.03118.0395.04472.0596.01439.0213.02589.0416.03726.0626.01001.0185.02064.0403.0313.0656.0081.0192.01676.0423.02534.07.0071.0229.01404.0467.01938.073.0066.0322.0101.0576.01192.076.0022.0221.003.0494.003.0805a.76323708.76323708 0 0 0 .764651.76316h.76167c1.25517 0 2.287992-1.03431 2.287992-2.28949v-1.52632a.76323708.76323708 0 0 0 -.76167-.76465c-.03109 0-.05688.00079-.079-.001-.0183-.002-.04372-.007-.07602-.0134-.02623-.005-.05018-.0108-.07304-.0179-.0277-.009-.05085-.0172-.07006-.0253-.02537-.0107-.04863-.0213-.06708-.0313-.02104-.0114-.04124-.0244-.0626-.0388-.02015-.0136-.03944-.0278-.05813-.0432-.02151-.0177-.04058-.0347-.05515-.0492-.01456-.0146-.02996-.0322-.0477-.0537-.01535-.0186-.03112-.0394-.04472-.0596-.01439-.0213-.02589-.0416-.03726-.0626-.01-.0184-.0236-.0432-.03428-.0686-.0081-.0192-.01377-.0393-.02236-.0671-.0071-.0228-.01404-.0467-.01938-.073-.0066-.0322-.0101-.0576-.01192-.076-.0022-.0221-.0045-.0494-.0045-.0805s.0023-.0584.0045-.0805c.0019-.0184.0054-.0438.01192-.076.0053-.0262.01229-.0486.01938-.0715.0086-.0277.01426-.0509.02236-.0701.01069-.0254.0243-.0487.03428-.0671.01137-.021.0229-.0413.03726-.0626.01354-.0201.02928-.0394.04472-.0581.01774-.0215.03314-.0406.0477-.0552.01457-.0146.0337-.0316.05515-.0492.01864-.0154.03806-.0312.05813-.0447.02129-.0144.04165-.026.0626-.0373.01837-.01.0417-.0221.06708-.0328.01929-.008.04227-.0153.07006-.0239.02285-.007.04681-.0141.07304-.0194.0323-.007.05772-.0102.07602-.0119.02211-.002.04791-.003.079-.003a.76323708.76323708 0 0 0 .76167-.76465v-1.52483a.76323708.76323708 0 0 0 -.76167-.76316c-.03109 0-.05688-.002-.079-.004-.0185-.002-.04382-.005-.07602-.0119-.02632-.005-.05018-.0124-.07304-.0194-.0277-.009-.05085-.0157-.07006-.0238-.02519-.0106-.04855-.0228-.06708-.0328-.02095-.0114-.04131-.0229-.0626-.0373-.02007-.0135-.0395-.0278-.05813-.0432-.02157-.0178-.04068-.0362-.05515-.0507-.0145-.0145-.03-.0322-.0477-.0537-.01539-.0187-.03118-.0395-.04472-.0596-.01442-.0214-.02593-.0417-.03726-.0626-.01001-.0185-.02361-.0403-.03428-.0656-.0081-.0193-.01378-.0424-.02236-.0701-.0071-.0229-.01404-.0467-.01938-.073-.0066-.0322-.0101-.0576-.01192-.076-.0022-.0221-.0045-.0494-.0045-.0805s.0023-.0569.0045-.079c.0019-.0184.0054-.0452.01192-.0775.0053-.0262.0123-.0487.01938-.0716.0086-.0277.01426-.0493.02236-.0686.01069-.0254.0243-.0501.03428-.0686.01137-.021.02287-.0413.03726-.0626.01354-.0201.02933-.0394.04472-.0581.01778-.0216.03325-.0406.0477-.0551.01447-.0145.03357-.0314.05515-.0492.01869-.0154.03798-.0281.05813-.0417.02122-.0143.04148-.0287.0626-.0402.01845-.01.0417-.0207.06708-.0313.01921-.008.04236-.0167.07006-.0253.02285-.007.04681-.011.07304-.0164.03211-.007.05762-.013.07602-.0149.02221-.002.048-.001.079-.001a.76323708.76323708 0 0 0 .76167-.76317v-1.52781a.76323708.76323708 0 0 0 -.76167-.76167c-.03109 0-.05688-.002-.079-.004-.0183-.002-.04372-.007-.07602-.0134-.02623-.005-.05018-.0108-.07304-.0179-.0277-.009-.05085-.0172-.07006-.0253-.02537-.0107-.04863-.0214-.06708-.0313-.02104-.0114-.04124-.0229-.0626-.0373-.02015-.0136-.03944-.0293-.05813-.0447-.02151-.0177-.04058-.0332-.05515-.0477-.01456-.0146-.02996-.0337-.0477-.0552-.01535-.0186-.03112-.0379-.04472-.0581-.01439-.0213-.02589-.0416-.03726-.0626-.01-.0184-.0236-.0418-.03428-.0671-.0081-.0192-.01377-.0423-.02236-.07-.0071-.0228-.01403-.0467-.01938-.073-.0066-.0322-.0101-.0576-.01192-.076-.0022-.0221-.0045-.0479-.0045-.079s.0023-.0584.0045-.0805c.0019-.0184.0054-.0437.01192-.076.0053-.0262.01229-.0501.01938-.073.0086-.0277.01423-.0508.02236-.0701.01069-.0253.0243-.0472.03428-.0656.01134-.0209.02283-.0412.03726-.0626.01354-.0201.02928-.0409.04472-.0596.01774-.0215.03314-.0391.0477-.0537.01457-.0146.0337-.0315.05515-.0492.01864-.0154.03806-.0312.05813-.0447.02129-.0144.04165-.026.0626-.0373.01853-.01.04179-.0221.06708-.0328v.001c.01929-.008.04236-.0167.07006-.0253.02277-.007.04681-.0141.07304-.0194.03221-.007.05752-.0102.07602-.0119.02211-.002.04791-.004.079-.004a.76323708.76323708 0 0 0 .76167-.76316v-1.52483a.76323708.76323708 0 0 0 -.76167-.76465c-.03109 0-.05688-.002-.079-.004-.0185-.002-.04382-.004-.07602-.0104-.02632-.005-.05018-.0108-.07304-.0179-.0277-.009-.05085-.0172-.07006-.0253-.02519-.0106-.04855-.0228-.06708-.0328-.02095-.0113-.04131-.0229-.0626-.0373-.02007-.0135-.0395-.0278-.05813-.0432-.02157-.0178-.04068-.0362-.05515-.0507-.0145-.0145-.03-.0336-.0477-.0551-.01539-.0187-.03118-.038-.04472-.0581-.01442-.0214-.02592-.0417-.03726-.0626-.01004-.0185-.02361-.0418-.03428-.0671-.0081-.0193-.01378-.0409-.02236-.0686-.0071-.0229-.01404-.0468-.01938-.073-.0066-.0322-.0101-.0591-.01192-.0775-.0022-.0221-.0045-.0479-.0045-.079s.0023-.0569.0045-.079c.0019-.0184.0054-.0453.01192-.0775.0053-.0262.0123-.0501.01938-.073.0086-.0277.01426-.0494.02236-.0686.01069-.0254.0243-.0486.03428-.0671.01137-.021.02287-.0397.03726-.0611.0136-.0202.02937-.0425.04472-.0611.01778-.0216.03325-.0392.0477-.0537.01447-.0145.03357-.0314.05515-.0492.01869-.0154.03798-.0296.05813-.0432.02136-.0144.04156-.0274.0626-.0387.01845-.01.0417-.0207.06708-.0313.01921-.008.04236-.0167.07006-.0253.02285-.007.04681-.0125.07304-.0179.03211-.007.05762-.0102.07602-.0119.02211-.002.04791-.003.079-.003a.76323708.76323708 0 0 0 .76167-.76466v-1.52781a.76323708.76323708 0 0 0 -.76167-.76167c-.03109 0-.05688-.00098-.079-.003-.0184-.002-.04391-.005-.07602-.0119-.02623-.005-.05018-.0124-.07304-.0194-.0277-.009-.05085-.0172-.07006-.0253-.02537-.0107-.04863-.0214-.06708-.0313-.02104-.0114-.04124-.0229-.0626-.0373-.02015-.0136-.03944-.0293-.05813-.0447-.02157-.0178-.04068-.0347-.05515-.0492-.01456-.0146-.02996-.0337-.0477-.0552-.01535-.0186-.03112-.0379-.04472-.0581-.01439-.0213-.02589-.0416-.03726-.0626-.01-.0184-.0236-.0402-.03428-.0656-.0081-.0192-.01377-.0438-.02236-.0715-.0071-.0229-.01404-.0453-.01938-.0716-.0066-.0322-.0101-.0576-.01192-.076-.0022-.0221-.0045-.0494-.0045-.0805s.0023-.0584.0045-.0805c.0019-.0184.0054-.0437.01192-.076.0053-.0262.0123-.0486.01938-.0715.0086-.0277.01423-.0508.02236-.0701.01067-.0253.02424-.0486.03428-.0671.01134-.0209.02283-.0412.03726-.0626.01354-.0201.02928-.0394.04472-.0581.01774-.0215.03314-.0405.0477-.0551.01457-.0146.0337-.0316.05515-.0492.01864-.0154.03806-.0312.05813-.0447.02129-.0144.04165-.026.0626-.0373.01853-.01.04179-.0207.06708-.0313.01929-.008.04236-.0167.07006-.0253.02267-.007.04662-.014.07304-.0194.03221-.007.05752-.0102.07602-.0119.02211-.002.04791-.003.079-.003a.76323708.76323708 0 0 0 .76167-.76167v-1.52781c0-1.25518-1.032828-2.28948-2.287992-2.28948h-.76167a.76323708.76323708 0 0 0 -.764651.76465c0 .0311-.000782.0554-.003.0775-.0019.0184-.0054.0453-.01192.0775-.0053.0263-.0123.0501-.01938.073-.0086.0277-.0172.0492-.02534.0686-.01067.0253-.02126.05-.0313.0686-.01135.0209-.02283.0382-.03726.0596-.01354.0201-.02928.0424-.04472.0611-.01775.0215-.03463.0405-.04919.0552-.01457.0146-.03371.0301-.05515.0477-.01863.0154-.03806.0296-.05813.0432-.02131.0144-.04165.0274-.0626.0387-.01853.01-.04179.0207-.06708.0313-.0193.008-.04236.0167-.07005.0253-.02269.007-.04513.0125-.07155.0179-.0322.007-.05752.0102-.07602.0119-.02211.002-.0494.004-.08049.004s-.05837-.002-.08049-.004c-.0185-.002-.04382-.005-.07602-.0119-.02642-.005-.04887-.0109-.07155-.0179-.0277-.009-.05226-.0172-.07155-.0253-.02529-.0107-.04706-.0213-.06558-.0313-.02095-.0113-.0413-.0243-.0626-.0387-.02007-.0135-.0395-.0278-.05813-.0432-.02144-.0177-.04057-.0332-.05515-.0477-.01456-.0146-.03145-.0337-.04919-.0552-.01544-.0187-.03118-.0411-.04472-.0611-.01442-.0214-.02591-.0386-.03726-.0596-.01004-.0185-.02063-.0432-.0313-.0686-.0081-.0193-.01676-.0409-.02534-.0686-.0071-.0229-.01404-.0467-.01938-.073-.0066-.0322-.0101-.0591-.01192-.0775-.0022-.0221-.003-.0464-.003-.0775a.76323708.76323708 0 0 0 -.76167-.76465h-2.290973a.76323708.76323708 0 0 0 -.76167.76465c0 .0311-.0023.0554-.0045.0775-.0019.0184-.0068.0453-.01341.0775-.0053.0262-.01081.0501-.01789.073-.0086.0277-.01721.0493-.02534.0686-.01067.0253-.02126.05-.0313.0686-.01134.0209-.02283.0382-.03726.0596-.01354.0201-.02928.0424-.04472.0611-.01774.0215-.03463.0405-.04919.0552-.01457.0146-.0337.03-.05515.0477-.01864.0154-.03806.0296-.05813.0432-.02131.0144-.04165.0274-.0626.0387-.01852.01-.0403.0207-.06558.0313-.01929.008-.04236.0167-.07006.0253-.02268.007-.04662.0125-.07304.0179-.03221.007-.05752.0102-.07602.0119-.02211.002-.0494.004-.08049.004s-.05837-.002-.08049-.004c-.0185-.002-.04382-.005-.07602-.0119-.02641-.005-.04886-.0109-.07155-.0179-.0277-.009-.05076-.0172-.07006-.0253-.02529-.0107-.04854-.0213-.06707-.0313-.02095-.0113-.04129-.0243-.0626-.0387-.02007-.0135-.0395-.0278-.05813-.0432-.02143-.0177-.04058-.0332-.05515-.0477-.01455-.0146-.03145-.0337-.04919-.0552-.01543-.0187-.03117-.0411-.04472-.0611-.01443-.0214-.02591-.0386-.03726-.0596-.01005-.0185-.02213-.0433-.03279-.0686h.003c-.0081-.0193-.01826-.0409-.02683-.0686-.0071-.0229-.01404-.0467-.01938-.073-.0066-.0322-.0086-.0591-.01043-.0775-.0022-.0221-.0045-.0464-.0045-.0775a.76323708.76323708 0 0 0 -.76316-.76465h-3.054134a.76323708.76323708 0 0 0 -.76167.76465c0 .0311-.000781.0554-.003.0775-.0019.0184-.0054.0453-.01192.0775-.0053.0263-.01231.0501-.01938.073-.0086.0277-.01721.0493-.02534.0686-.01067.0253-.02126.05-.0313.0686-.01134.0209-.02284.0382-.03726.0596-.01354.0201-.02929.0424-.04472.0611-.01775.0215-.03463.0405-.04919.0552-.01458.0146-.03371.03-.05515.0477-.01864.0154-.03806.0296-.05813.0432-.0213.0144-.04165.0274-.0626.0387-.01853.01-.04029.0207-.06558.0313-.01929.008-.04385.0167-.07155.0253-.02268.007-.04513.0125-.07155.0179-.03221.007-.05752.0102-.07602.0119-.02211.002-.0494.004-.08049.004s-.05837-.002-.08049-.004c-.0185-.002-.04382-.005-.07602-.0119-.02642-.005-.04887-.0109-.07155-.0179-.0277-.009-.05077-.0172-.07006-.0253-.02529-.0107-.04854-.0213-.06707-.0313-.02095-.0113-.0413-.0243-.0626-.0387-.02007-.0135-.0395-.0278-.05813-.0432-.02144-.0177-.04057-.0332-.05515-.0477-.01456-.0146-.03144-.0337-.04919-.0552-.01544-.0187-.03118-.0411-.04472-.0611-.01442-.0214-.02591-.0386-.03726-.0596-.01004-.0185-.02063-.0432-.0313-.0686-.0081-.0193-.01677-.0409-.02534-.0686-.0071-.0228-.01404-.0467-.01938-.073-.0066-.0322-.0101-.0591-.01192-.0775-.0022-.0221-.003-.0464-.003-.0775a.76323708.76323708 0 0 0 -.764651-.76465h-2.287992a.76323708.76323708 0 0 0 -.76167.76465c0 .0311-.0023.0554-.0045.0775-.0019.0184-.0068.0453-.01341.0775-.0053.0263-.01081.0501-.01789.073-.0086.0277-.01721.0493-.02534.0686-.01067.0253-.02126.05-.0313.0686-.01135.0209-.02283.0382-.03726.0596-.01355.0201-.02929.0424-.04472.0611-.01774.0215-.03463.0405-.04919.0552-.01457.0146-.03221.03-.05366.0477-.01862.0154-.03954.0296-.05962.0432-.02131.0144-.04165.0274-.0626.0387-.01853.01-.0418.0207-.06708.0313-.01898.008-.04154.0169-.06856.0253-.02268.007-.04662.0125-.07304.0179-.0322.007-.05752.0102-.07602.0119-.02211.002-.0494.004-.08049.004s-.05688-.002-.079-.004c-.0185-.002-.04382-.005-.07602-.0119-.02642-.005-.05035-.0109-.07304-.0179-.0277-.009-.05075-.0172-.07005-.0253-.02528-.0107-.04855-.0213-.06708-.0313-.02095-.0113-.04128-.0243-.0626-.0387-.02008-.0135-.03951-.0278-.05813-.0432-.02144-.0177-.04058-.0332-.05515-.0477-.01456-.0146-.02996-.0337-.0477-.0552-.01543-.0187-.03266-.0411-.04621-.0611-.01443-.0214-.02442-.0386-.03577-.0596-.01004-.0185-.02361-.0432-.03428-.0686-.0081-.0193-.01379-.0409-.02236-.0686-.0071-.0229-.01553-.0467-.02087-.073-.0066-.0322-.0086-.0591-.01043-.0775-.0022-.0221-.0045-.0464-.0045-.0775a.76323708.76323708 0 0 0 -.763161-.76465zm1.526321 4.58045h16.789538v19.84218h-16.789538zm9.581246 6.10529c-1.603162 0-2.930029 1.09362-3.311999 2.57417-.249788-.17825-.553788-.28469-.885386-.28469-.845566 0-1.526321.68076-1.526321 1.52632 0 .0115.0039.026.0045.0373-1.298215.18373-2.293954 1.2833-2.293954 2.63379 0 1.47978 1.191299 2.67107 2.671063 2.67107h8.394769c1.479767 0 2.671063-1.19126 2.671063-2.67107 0-1.36324-1.014977-2.46908-2.331218-2.63678.01673-.13787.04174-.27314.04174-.41586 0-1.90251-1.531676-3.43422-3.434223-3.43422z" fill="url(#a)" transform="matrix(.34669408055 0 0 .34669408055 -10.23637797332 -98.9453066948)"/></g></g></svg>
