<svg height="96" viewBox="0 0 25.399999 25.4" width="96" xmlns="http://www.w3.org/2000/svg" xmlns:xlink="http://www.w3.org/1999/xlink"><defs id="antufoldercolor">
    <style type="text/css" id="current-color-scheme">
      .ColorScheme-Highlight {
        color:#45aaf5;
      }
      </style>
  </defs><linearGradient id="a" gradientUnits="userSpaceOnUse" x1="30" x2="30" y1="303.98333" y2="267.31664"><stop offset="0" stop-color="#fff" stop-opacity=".7"/><stop offset="1" stop-color="#fff" stop-opacity=".85"/></linearGradient><linearGradient id="b" gradientUnits="userSpaceOnUse" x1="33.333332" x2="34.666668" y1="310.64998" y2="254.64998"><stop offset="0" stop-color="#2f425a"/><stop offset="1" stop-color="#374c62"/></linearGradient><linearGradient id="c" gradientTransform="matrix(1 0 0 -1 72.314963 572.81177)" gradientUnits="userSpaceOnUse" x1="-40.314964" x2="-40.314964" y1="313.64212" y2="265.7681"><stop offset="0" stop-color="#fff" stop-opacity=".2"/><stop offset="1" stop-color="#fff" stop-opacity="0"/></linearGradient><g transform="matrix(.39687499 0 0 .39687499 0 -99.47670961875)"><rect fill="#223240" height="60" ry="4" width="64" y="252.64998"/><rect fill="url(#b)" height="58.666653" ry="3.333333" width="62.666668" x=".666667" y="253.31667"/><rect fill="#223240" height="53.333317" ry="2" width="57.333332" x="3.333333" y="255.98332"/><path d="m5.333333 256.64998h53.333334c.738666 0 1.333333.59467 1.333333 1.33334v49.33334c0 .73866-.594667 1.33333-1.333333 1.33333h-53.333334c-.738666-0-1.333333-.59467-1.333333-1.33333v-49.33334c0-.73867.594667-1.33334 1.333333-1.33334z" style="fill:currentColor"
class="ColorScheme-Highlight" stroke-linecap="round" stroke-linejoin="round" stroke-miterlimit="1.8" stroke-width="1.33333"/><path d="m5.333333 308.64999h53.333334c.738666 0 1.333333-.59467 1.333333-1.33334v-49.33334c0-.73866-.594667-1.33333-1.333333-1.33333h-53.333334c-.738666.00001-1.333333.59467-1.333333 1.33334v49.33334c0 .73867.594667 1.33334 1.333333 1.33333z" fill="url(#c)" stroke-linecap="round" stroke-linejoin="round" stroke-miterlimit="1.8" stroke-width="1.33333"/><path d="m14 264.64998c-.369333 0-.666667.29733-.666667.66666v16.66667c0 .36933.297334.66667.666667.66667h20.666667c.369333 0 .666666-.29734.666666-.66667v-16.66667c0-.36933-.297333-.66666-.666666-.66666zm23.333333 10.66666v6.66667s.0098 2.66667-2.666666 2.66667h-6v8c0 .36933.297334.66666.666666.66666h20.666667c.369333 0 .666667-.29733.666667-.66666v-16.66667c0-.36933-.297334-.66667-.666667-.66667zm-30.666667 22.66667v6.66667 1.33333c0 .36933.297333.66667.666666.66667h49.333335c.369333 0 .666666-.29734.666666-.66667v-6-2z" fill-opacity=".15"/><path d="m14 263.98332c-.369333 0-.666667.29733-.666667.66666v16.66667c0 .36933.297334.66667.666667.66667h20.666667c.369333 0 .666666-.29734.666666-.66667v-16.66667c0-.36933-.297333-.66666-.666666-.66666zm23.333333 10.66666v6.66667s.0098 2.66667-2.666666 2.66667h-6v8c0 .36933.297334.66666.666666.66666h20.666667c.369333 0 .666667-.29733.666667-.66666v-16.66667c0-.36933-.297334-.66667-.666667-.66667zm-30.666666 22.66667v6.66667 1.33333c0 .36933.297333.66667.666666.66667h49.333334c.369333 0 .666666-.29734.666666-.66667v-6-2z" fill="url(#a)"/></g></svg>
