<svg height="128" viewBox="0 0 33.866666 33.866666" width="128" xmlns="http://www.w3.org/2000/svg" xmlns:xlink="http://www.w3.org/1999/xlink"><defs id="antufoldercolor">
    <style type="text/css" id="current-color-scheme">
      .ColorScheme-Highlight {
        color:#45aaf5;
      }
      </style>
  </defs><linearGradient id="a" gradientUnits="userSpaceOnUse" x1="16.404613" x2="16.404613" y1="289.85623" y2="278.21457"><stop offset="0" stop-color="#fff" stop-opacity=".7"/><stop offset="1" stop-color="#fff" stop-opacity=".85"/></linearGradient><linearGradient id="b"><stop offset="0" stop-color="#fff" stop-opacity="0"/><stop offset="1" stop-color="#fff" stop-opacity=".2"/></linearGradient><linearGradient id="c" gradientUnits="userSpaceOnUse" x1="-15.225001" x2="-15.225001" xlink:href="#b" y1="-2.175002" y2="14.824999"/><linearGradient id="d" gradientUnits="userSpaceOnUse" x1="1005.999991" x2="1005.999991" xlink:href="#b" y1="134.00001" y2="31.000003"/><g transform="translate(22.225003 3.175001)"><path d="m-18.78542-1.852084c-1.75437 0-3.175 1.42063523-3.175 3.1750002v24.8708328c0 1.754372 1.42063 3.175 3.175 3.175h26.9875c1.7543727 0 3.175-1.420628 3.175-3.175v-20.6374997c0-1.7543661-1.4206273-3.1750003-3.175-3.1750003h-12.9645806c-.5169191 0-.9456499-.223647-1.37718-.5968629-.4315301-.3732149-.8479896-.89289705-1.2975907-1.425752-.8991997-1.0657152-1.9701378-2.2107181-3.6752287-2.2107181z" style="fill:currentColor"
class="ColorScheme-Highlight"/><path d="m-18.78542-1.852084c-1.754372 0-3.175 1.4206352-3.175 3.1750016v24.8708294c0 1.754371 1.420628 3.175 3.175 3.175h26.9874998c1.754373 0 3.1750002-1.420629 3.1750002-3.175v-20.6374964c0-1.754364-1.4206272-3.175-3.1750002-3.175h-12.964583c-.516916 0-.945647-.223647-1.377183-.59686-.431509-.3732186-.847989-.8928999-1.297596-1.4257549-.899186-1.0657168-1.9701138-2.2107197-3.6752208-2.2107197z" fill-opacity=".080201"/><path d="m-18.78542-1.852084c-1.754372 0-3.175 1.42063523-3.175 3.1750005v24.8708335c0 1.75437 1.420628 3.174999 3.175 3.174999h26.9875c1.7543727 0 3.175-1.420629 3.175-3.174999v-20.6375005c0-1.754366-1.4206273-3.1749997-3.175-3.1749997h-12.9645832c-.5169165 0-.9456473-.223647-1.3771827-.5968629-.4315354-.373216-.8479896-.89289785-1.297596-1.4257528-.8991865-1.0657152-1.9701404-2.2107181-3.6752211-2.2107181zm0 .2645834h7.672917c3.1749998 0 3.9687498 4.2333338 6.3499998 4.2333338h12.9645832c1.6123708 0 2.910417 1.2980574 2.910417 2.9104163v20.6375005c0 1.612368-1.2980462 2.910416-2.910417 2.910416h-26.9875c-1.612371 0-2.910416-1.298048-2.910416-2.910416v-24.8708335c0-1.61236604 1.298045-2.9104171 2.910416-2.9104171z" fill-opacity=".2"/><path d="m-18.78542-1.8520877c-1.754372 0-3.175 1.42063519-3.175 3.1750016v24.8708301c0 1.754371 1.420628 3.175 3.175 3.175h26.9875003c1.754373 0 3.1749997-1.420629 3.1749997-3.175v-20.6374974c0-1.7543637-1.4206267-3.1749997-3.1749997-3.1749997h-12.9645832c-.516916 0-.945647-.223647-1.377183-.59686-.431509-.3732186-.847989-.8928999-1.297596-1.4257549-.899186-1.06571681-1.970114-2.2107197-3.6752211-2.2107197z" fill="url(#c)"/><g transform="matrix(.26458333 0 0 .26458333 -257.96875 -5.820837)"><path d="m959 31.000004c-6.4444 0-10.49209 4.32757-13.89062 8.35547-1.69927 2.01394-3.27332 3.97809-4.9043 5.38867s-3.25137 2.25586-5.20508 2.25586h-31c-6.63068 0-12 5.36933-12 12v62.999996c0 6.63069 5.36932 12 12 12h102c6.6307 0 12-5.36931 12-12v-78.999996c0-6.63067-5.3693-12-12-12z" style="fill:currentColor"
class="ColorScheme-Highlight"/><path d="m959 31.000004c-6.4444 0-10.4921 4.32757-13.89063 8.35546-1.69927 2.01394-3.27331 3.9781-4.90429 5.38868-1.63099 1.41058-3.25138 2.25586-5.20508 2.25586h-31c-6.63068 0-12 5.36932-12 12v62.999996c0 6.63069 5.36932 12 12 12h102c6.6307 0 12-5.36931 12-12v-78.999996c0-6.63068-5.3693-12-12-12z" fill="url(#d)"/><path d="m959 31.000004c-6.4444 0-10.49208 4.32757-13.89062 8.35547-1.69927 2.01394-3.27332 3.97809-4.9043 5.38867-1.63099 1.41058-3.25138 2.25586-5.20508 2.25586h-31c-6.63068 0-12 5.36933-12 12v62.999996c0 6.63069 5.36932 12 12 12h102c6.6307 0 12-5.36931 12-12v-78.999996c0-6.63067-5.3693-12-12-12zm0 1h47c6.094 0 11 4.90605 11 11v78.999996c0 6.09399-4.906 11-11 11h-102c-6.09398 0-11-4.90601-11-11v-62.999996c0-6.09395 4.90601-11 11-11h31c8.99999 0 12.00001-16 24-16z" fill-opacity=".2"/></g></g><g stroke-linecap="round" stroke-linejoin="round" stroke-miterlimit="1.8" stroke-width=".529167"><path d="m16.138555 277.6849c-.145512.00058-.263249.11855-.26355.26406v.0315c0 .0162-.000238.0324-.0021.0506-.0018.018-.0047.0353-.0078.0506-.0034.0167-.0071.0315-.01188.047-.0044.0142-.01075.0308-.01757.047-.0068.0161-.0143.0302-.02119.0429-.0076.014-.01633.028-.02532.0413-.008.0118-.01604.025-.02739.0388-.01084.0131-.02257.0247-.03307.0351-.01052.0105-.022.0207-.03514.0315-.01376.0113-.02532.0209-.03721.0289-.01331.009-.02736.0177-.04134.0253-.01276.007-.02892.0129-.04496.0196-.01611.007-.03069.0132-.04496.0176-.01541.005-.02975.008-.04651.0119-.01522.003-.03313.006-.05116.008-.01817.002-.03653.002-.05271.002h-.05839c-.01618 0-.03454-.00019-.05271-.002-.01803-.002-.03335-.005-.04858-.008-.01676-.003-.03368-.007-.04909-.0119-.01427-.004-.02885-.0108-.04496-.0176-.01604-.007-.03219-.0127-.04496-.0196-.01398-.008-.02751-.0163-.04082-.0253-.01189-.008-.02345-.0175-.03721-.0289-.01314-.0108-.02462-.021-.03514-.0315-.0105-.0105-.02224-.022-.03307-.0351-.01135-.0138-.01941-.0269-.02739-.0388-.009-.0133-.01775-.0274-.02532-.0413-.0069-.0127-.01492-.0268-.0217-.0429-.0068-.0162-.0111-.0328-.0155-.047-.0048-.0155-.01055-.0303-.01395-.047-.0031-.0152-.0039-.0326-.0057-.0506-.0018-.0181-.0041-.0344-.0041-.0506v-.0315c-.000581-.14529-.118203-.26294-.263495-.26355h-.79478c-.145313.00058-.262969.11824-.26355.26355v.0315c0 .0162-.0023.0324-.0041.0506-.0018.018-.0026.0353-.0057.0506-.0034.0167-.0092.0315-.01395.047-.0044.0142-.0087.0308-.0155.047-.0068.0161-.01431.0302-.02119.0429-.0076.014-.01685.028-.02584.0413-.008.0118-.01605.025-.02739.0388-.01084.0131-.02257.0247-.03307.0351-.01052.0105-.02199.0207-.03514.0315-.01376.0113-.02533.0209-.03721.0289-.01331.009-.02891.0177-.04289.0253-.01276.007-.02685.0129-.04289.0196-.01611.007-.03069.0132-.04496.0176-.01541.005-.03182.008-.04858.0119-.01522.003-.03106.006-.04909.008-.01817.002-.03654.002-.05271.002h-.05839c-.01618 0-.03454-.00019-.05271-.002-.01803-.002-.03594-.005-.05116-.008-.01676-.003-.03111-.007-.04651-.0119-.01427-.004-.02885-.0108-.04496-.0176-.01604-.007-.0322-.0127-.04496-.0196-.01399-.008-.02752-.0163-.04082-.0253-.01188-.008-.02345-.0175-.03721-.0289-.01314-.0108-.02462-.021-.03514-.0315-.0105-.0105-.02275-.022-.03359-.0351-.01135-.0138-.02095-.0269-.02894-.0388-.009-.0133-.0162-.0274-.02377-.0413-.0069-.0127-.0144-.0268-.02119-.0429-.0068-.0162-.01317-.0328-.01757-.047-.0048-.0155-.0085-.0303-.01189-.047-.0031-.0152-.006-.0326-.0078-.0506-.0018-.0181-.0021-.0344-.0021-.0506v-.0315c-.000584-.14612-.119504-.26411-.265628-.26355h-.5271c-.581735 0-1.05885.47711-1.05885 1.05885.000581.14531.118237.26297.26355.26355h.02946c.01625 0 .03461.002.05271.004.01803.002.03542.003.05064.006.01669.003.03149.009.04702.014.01421.004.02873.009.04496.0155.01616.007.03225.0148.04496.0217.01398.008.0275.0163.04082.0253.01184.008.02342.0161.03721.0274.01319.0109.02465.0226.03514.0331.01051.0105.02276.0219.03359.0351.01135.0138.02096.0274.02894.0393.009.0133.0162.0268.02377.0408.0069.0128.0144.0268.02119.0429.0074.0175.01349.0319.01757.045.0045.0145.0084.0317.01189.0491.0031.0152.006.0306.0078.0486.0018.0181.0021.0365.0021.0527v.0605c0 .0162-.000188.0325-.0021.0507-.0018.018-.0047.0358-.0078.0512-.0034.0167-.0071.031-.01189.0465-.0044.0142-.01075.0288-.01757.045-.0068.0161-.0143.0323-.02119.045-.0076.014-.01478.0275-.02377.0408-.008.0118-.01759.0234-.02894.0372-.01083.0131-.02309.0247-.03359.0351-.000003.00067-.000003.001 0 .002-.01052.0105-.02199.0202-.03514.031-.01375.0113-.02532.0215-.03721.0295-.01331.009-.02684.0157-.04082.0232-.01276.007-.02892.0149-.04496.0217-.01611.007-.03069.0132-.04496.0176-.01541.005-.03026.008-.04702.0119-.01522.003-.03261.006-.05064.008-.01817.002-.03653.002-.05271.002h-.02946c-.146121.00058-.264109.1195-.26355.26562v.79323c.000581.14531.118237.26297.26355.26355h.02946c.01625 0 .03461.002.05271.004.01803.002.03542.005.05064.008.01669.003.03149.007.04702.0119.01421.004.02873.0107.04496.0176.01616.007.03225.0122.04496.0191.01398.008.0275.0168.04082.0258.01184.008.02342.0175.03721.0289.01319.0109.02465.0211.03514.0315.01051.0105.02276.022.03359.0351.01135.0138.02096.0269.02894.0388.009.0133.0162.0273.02377.0413.0069.0127.0144.0268.02119.0429.0074.0175.01349.0319.01757.045.0045.0145.0084.0312.01189.0486.0031.0153.006.0311.0078.0491.0018.0181.0021.0365.0021.0527v.0605c0 .0162-.000188.0324-.0021.0507-.0018.018-.0047.0353-.0078.0506-.0034.0167-.0071.0315-.01189.047-.0044.0142-.01075.0308-.01757.047-.0068.0161-.0143.0302-.02119.0429-.0076.014-.01478.028-.02377.0413-.008.0118-.01759.025-.02894.0388-.01083.0131-.02309.0247-.03359.0351-.01052.0105-.02199.0202-.03514.031-.01375.0113-.02532.0215-.03721.0295-.01331.009-.02684.0177-.04082.0253-.01276.007-.02892.0129-.04496.0196-.01611.007-.03069.0132-.04496.0176-.01541.005-.03026.008-.04702.0119-.01522.003-.03261.006-.05064.008-.01817.002-.03653.002-.05271.002h-.02946c-.146121.00058-.264109.1195-.26355.26562v.79323c-.000559.14612.117429.26504.26355.26562h.02946c.01625 0 .03461-.00032.05271.002.01803.002.03542.005.05064.008.01669.003.03149.007.04702.0119.01421.004.02873.0107.04496.0176.01616.007.03225.0122.04496.0191.01398.008.0275.0168.04082.0258.01184.008.02342.0175.03721.0289.01319.0109.02465.0211.03514.0315.01051.0105.02276.022.03359.0351.01135.0138.02096.0269.02894.0388.009.0133.0162.0274.02377.0413.0069.0127.0144.0268.02119.0429.0074.0175.01349.0338.01757.047.0045.0145.0084.0291.01189.0465.0031.0152.006.0332.0078.0512.0018.0182.0021.0344.0021.0506v.0605c0 .0162-.000188.0346-.0021.0527-.0018.018-.0047.0339-.0078.0491-.0034.0167-.0071.031-.01189.0465-.0044.0142-.01075.0308-.01757.047-.0068.0161-.0143.0302-.02119.0429-.0076.014-.01478.028-.02377.0413-.008.0118-.01759.025-.02894.0388-.01083.0131-.02309.0247-.03359.0351-.01052.0105-.02199.0207-.03514.0315-.01375.0113-.02532.0209-.03721.0289-.01331.009-.02684.0177-.04082.0253-.01276.007-.02892.0129-.04496.0196-.01611.007-.03069.0132-.04496.0176-.01541.005-.03026.008-.04702.0119-.01522.003-.03261.006-.05064.008-.01817.002-.03653.004-.05271.004h-.02946c-.145313.00058-.262969.11824-.26355.26355v.79323c-.000559.14612.117429.26504.26355.26562h.02946c.01625 0 .03461.0002.05271.002.01803.002.03542.005.05064.008.01669.003.03149.007.04702.0119.01421.004.02873.0107.04496.0176.01616.007.03225.0143.04496.0212.01398.008.0275.0149.04082.0238.01184.008.02342.0175.03721.0289.01319.0109.02465.0211.03514.0315-.000003.00067-.000003.001 0 .002.01051.0105.02276.022.03359.0351.01135.0138.02096.0249.02894.0367.009.0133.0162.0274.02377.0413.0069.0128.0144.0289.02119.045.0074.0175.01349.0319.01757.045.0045.0145.0084.0291.01189.0465.0031.0152.006.0332.0078.0512.0018.0182.0021.0344.0021.0506v.0605c0 .0162-.000188.0346-.0021.0527-.0018.018-.0047.0334-.0078.0486-.0034.0167-.0071.0315-.01189.047-.0044.0142-.01075.0308-.01757.047-.0068.0161-.0143.0302-.02119.0429-.0076.014-.01478.0275-.02377.0408-.008.0118-.01759.0255-.02894.0393-.01083.0131-.02309.0246-.03359.0351-.01052.0105-.02199.0223-.03514.0331-.01375.0113-.02532.0194-.03721.0274-.01331.009-.02684.0177-.04082.0253-.01276.007-.02892.0149-.04496.0217-.01611.007-.03069.0111-.04496.0155-.01541.005-.03026.0105-.04702.0139-.01522.003-.03261.004-.05064.006-.01817.002-.03653.004-.05271.004h-.02946c-.145313.00058-.262969.11824-.26355.26355v.7953c.000581.14531.118237.26297.26355.26355h.02946c.01625 0 .03461.0002.05271.002.01803.002.03542.005.05064.008.01669.003.03149.007.04702.0119.01421.004.02873.0107.04496.0176.01616.007.03225.0148.04496.0217.01398.008.0275.0163.04082.0253.01184.008.02342.0156.03721.0269.01319.0109.02465.0231.03514.0336.01051.0105.02276.022.03359.0351.01135.0138.02096.0249.02894.0367.009.0133.0162.0273.02377.0413.0069.0127.0144.0289.02119.045.0074.0175.01349.0319.01757.045.0045.0145.0084.0312.01189.0486.0031.0152.006.0306.0078.0486.0018.0182.0021.0365.0021.0527v.0589c0 .0162-.000188.0346-.0021.0527-.0018.018-.0047.0334-.0078.0486-.0034.0167-.0071.0337-.01189.0491-.0044.0142-.01075.0288-.01757.045-.0068.0161-.0143.0317-.02119.0444-.0076.014-.01478.028-.02377.0413-.008.0118-.01759.0235-.02894.0372-.01083.0131-.02309.0242-.03359.0346-.01052.0105-.02199.0228-.03514.0336-.01375.0113-.02532.0194-.03721.0274-.01331.009-.02684.0177-.04082.0253-.01276.007-.02892.0144-.04496.0212-.01611.007-.03069.0132-.04496.0176-.01541.005-.03026.008-.04702.0119-.01522.003-.03261.004-.05064.006-.01817.002-.03653.004-.05271.004h-.02946c-.145516.00058-.263254.11855-.26355.26407 0 .58173.477111 1.05833 1.05885 1.05833h.5271c.14612.00056.265033-.11743.265617-.26355v-.0315c0-.0186.000487-.0351.0021-.0506.0015-.0154.0044-.0314.0078-.0486.0034-.0169.0075-.0325.01189-.047.0047-.0156.0095-.0304.0155-.045.0053-.0127.01336-.0272.0217-.0429.0089-.0167.01628-.0303.02325-.0408.007-.0105.01546-.0224.02739-.0372.01023-.0127.02265-.0265.03307-.0372.01079-.0111.02086-.0207.03307-.031.01291-.0109.0251-.0211.03721-.0294.01345-.009.02824-.0179.04134-.0253.01295-.007.02537-.0128.04082-.0196.01308-.006.02836-.0121.04496-.0176.01727-.006.03305-.0107.04702-.0139.01505-.003.03135-.006.04858-.008.01635-.002.03329-.003.05064-.004-.0025.00007.0028 0 .01395 0h.05839c.01624 0 .03461.0002.05271.002.01803.002.03387.005.04909.008.0167.003.03305.007.04858.0114.01421.004.02873.0107.04496.0176.01616.007.03018.0148.04289.0217.01398.008.0301.0143.04341.0233.01183.008.02289.0181.03669.0295.01319.0109.02465.0206.03514.031-.000003.00067-.000003.001 0 .002.0105.0105.02275.022.03359.0351.01135.0138.01941.0254.02739.0372.009.0133.01776.0269.02532.0408.0069.0127.0144.0289.02119.045.0074.0175.01142.0319.0155.045.0045.0145.01041.0296.01395.047.0031.0153.0038.0326.0057.0507.0018.0182.0041.0344.0041.0506v.0315c.000581.14531.118237.26297.26355.26355h.794784c.145515-.0003.263485-.11804.264067-.26355v-.0315c0-.0186.00002-.0351.0015-.0506.0015-.0155.0048-.0314.0083-.0486.0034-.0169.0069-.0325.01137-.047.0047-.0156.0094-.0304.0155-.045.0053-.0127.01337-.0272.0217-.0429.0089-.0167.01629-.0308.02325-.0413.007-.0105.01753-.0219.02946-.0367.01023-.0127.0211-.0265.03152-.0372.01079-.011.02086-.0212.03307-.0315.01292-.0109.0251-.0205.03721-.0289.01345-.009.02773-.0179.04082-.0253.01295-.007.02744-.0128.04289-.0196.01308-.006.02836-.0121.04496-.0176.01727-.006.03099-.0107.04496-.0139.01505-.003.03135-.006.04858-.008.01635-.002.03381-.003.05116-.004-.0025.00007.0023 0 .01344 0h.05839c.01625 0 .03461.0002.05271.002.01803.002.03594.005.05116.008.01669.003.03097.007.04651.0119.01421.004.02873.0107.04496.0176.01616.007.03225.0148.04496.0217.01398.008.02803.0143.04134.0233.01183.008.02341.0181.03721.0295.01319.0109.02465.0206.03514.031-.000003.00067-.000003.001 0 .002.0105.0105.02223.022.03307.0351.01135.0138.0194.0254.02739.0372.009.0133.01775.0269.02532.0408.0069.0127.0144.0289.02119.045.0074.0175.0135.0319.01757.045.0045.0145.0084.0291.01188.0465.0031.0152.0059.0332.0077.0512.0018.0182.0021.0344.0021.0506v.031c.000301.14551.118038.26348.26355.26406h.794784c.145714-.0003.263765-.11835.264067-.26406v-.031c0-.0186.0021-.0351.0036-.0506s.0028-.0319.0062-.0491c.0034-.0169.0069-.032.01137-.0465.0047-.0156.01152-.0304.01757-.045.0053-.0127.0113-.0272.01964-.0429.0089-.0167.01629-.0308.02325-.0413.007-.0105.01753-.0224.02946-.0372.01023-.0127.0211-.026.03152-.0367.01079-.011.02293-.0212.03514-.0315.01292-.0109.02458-.0205.03669-.0289.01345-.009.02618-.0184.03927-.0258.01295-.007.02744-.0123.04289-.0191.01308-.006.02836-.0121.04496-.0176.01727-.006.03306-.0107.04703-.0139.01505-.003.0298-.006.04703-.008.01635-.002.03329-.003.05064-.004-.0025.00007.0023 0 .01344 0h.06046c.01625 0 .03306.0002.05116.002.01803.002.03542.005.05064.008.01669.003.03149.007.04703.0119.01421.004.02873.0107.04496.0176.01616.007.03225.0143.04496.0212.01398.008.02751.0149.04082.0238.01183.008.02341.0175.03721.0289.01319.0109.02672.0211.03721.0315-.000003.00067-.000003.001 0 .002.0105.0105.02017.022.03101.0351.01135.0138.02147.0249.02946.0367.009.0133.01569.0274.02325.0413.0069.0128.01492.0289.0217.045.0074.0175.0135.0319.01757.045.0045.0145.0078.0291.01137.0465.0031.0152.0059.0332.0077.0512.0018.0182.0021.0344.0021.0506v.031c.000303.14632.119298.26462.265617.26406h.793234c.146319.00056.265314-.11774.265617-.26406v-.031c0-.0186.000537-.0351.0021-.0506.0015-.0155.0043-.0319.0077-.0491.0034-.0169.0069-.0325.01137-.047.0047-.0156.01-.0298.01602-.0444.0053-.0127.01078-.0277.01912-.0434.0089-.0167.01836-.0303.02532-.0408.007-.0105.01546-.0224.02739-.0372.01023-.0127.0211-.0265.03152-.0372.01079-.011.02293-.0207.03514-.031.01292-.0109.0251-.0211.03721-.0295.01345-.009.02567-.0179.03876-.0253.01295-.007.02744-.0128.04289-.0196.01308-.006.02836-.0121.04496-.0176.01727-.006.03305-.0102.04703-.0134.01505-.003.03187-.006.04909-.008.01635-.002.03122-.003.04858-.004h.0021c-.0025.00007.000739 0 .01189 0h.06046c.01625 0 .03254.0002.05064.002.01803.002.03542.005.05064.008.01669.003.03149.007.04703.0119.01421.004.0308.0107.04703.0176.01616.007.03018.0143.04289.0212.01398.008.02751.0149.04082.0238.01184.008.02547.0175.03927.0289.01319.0109.02465.0211.03514.0315-.000003.00067-.000003.001 0 .002.0105.0105.02017.0215.03101.0346.01135.0138.02147.0254.02946.0372.009.0133.01775.0274.02532.0413.0069.0127.01285.0283.01964.0444.0074.0175.0135.0319.01757.045.0045.0145.0084.0296.01189.047.0031.0152.0059.0326.0077.0506.0018.0182.0015.035.0015.0512v.031c.000584.14612.119497.26411.265617.26355h.529683c.581741 0 1.058334-.47661 1.058334-1.05834.000512-.14689-.118718-.26609-.265608-.26553h-.02894c-.01618 0-.03506-.002-.05323-.004-.01803-.002-.03335-.003-.04858-.006-.01676-.003-.03162-.007-.04703-.0114-.01427-.004-.0304-.0108-.04651-.0176-.01604-.007-.03064-.0148-.04341-.0217-.01398-.008-.02751-.0163-.04082-.0253-.01188-.008-.02552-.0161-.03927-.0274-.01314-.0108-.02462-.0226-.03514-.0331-.0105-.0105-.02224-.022-.03307-.0351-.01135-.0138-.0194-.0254-.02739-.0372-.009-.0133-.01775-.0268-.02532-.0408-.0069-.0127-.01441-.0289-.02119-.045-.0068-.0162-.01163-.0308-.01602-.045-.0048-.0155-.01004-.0324-.01344-.0491-.0031-.0152-.0039-.0306-.0057-.0486-.0018-.0181-.0041-.0365-.0041-.0527v-.0584c0-.0162.0023-.0346.0041-.0527.0018-.018.0026-.0339.0057-.0491.0035-.0174.009-.0341.01344-.0486.0041-.0132.0086-.0275.01602-.045.0068-.0161.01428-.0322.02119-.0449.0076-.014.01633-.0275.02532-.0408.008-.0118.01604-.0235.02739-.0372.01084-.0131.02257-.0247.03307-.0351.01049-.0105.02195-.0222.03514-.0331.0138-.0114.02744-.0195.03927-.0274.01331-.009.02684-.0177.04082-.0253.01271-.007.02725-.0149.04341-.0217.01563-.007.03066-.0133.04444-.0176.01553-.005.0324-.008.04909-.0119.01522-.003.03055-.006.04858-.008.0181-.002.03698-.002.05323-.002h.02894c.14612.00056.265033-.11743.265617-.26355v-.79478c-.00027-.14634-.119275-.26468-.265617-.26412h-.02894c-.01618 0-.03506-.002-.05323-.004-.01803-.002-.03335-.003-.04858-.006-.01676-.003-.03162-.009-.04703-.0139-.01427-.004-.0304-.009-.04651-.0155-.01604-.007-.03064-.0143-.04341-.0212-.01398-.008-.02751-.0163-.04082-.0253-.01188-.008-.02552-.0161-.03927-.0274-.01314-.0108-.02462-.0231-.03514-.0336-.0105-.0105-.02224-.0219-.03307-.0351-.01135-.0138-.0194-.0269-.02739-.0388-.009-.0133-.01775-.0273-.02532-.0413-.0069-.0127-.01441-.0268-.02119-.0429-.0068-.0162-.01163-.0328-.01602-.047-.0048-.0155-.01004-.0298-.01344-.0465-.0031-.0152-.0039-.0311-.0057-.0491-.0018-.0181-.0041-.0365-.0041-.0527v-.0605c0-.0162.0023-.0324.0041-.0506.0018-.018.0026-.0353.0057-.0506.0035-.0174.009-.0325.01344-.047.0041-.0131.0086-.0275.01602-.045.0068-.0161.01428-.0323.02119-.045.0076-.014.01633-.0275.02532-.0408.008-.0118.01604-.0234.02739-.0372.01084-.0131.02257-.0247.03307-.0351v-.00051-.00052-.00052-.00051c.01049-.0105.02195-.0202.03514-.031.0138-.0114.02744-.0215.03927-.0294.01331-.009.02684-.0158.04082-.0233.01271-.007.02725-.0149.04341-.0217.01563-.007.03066-.0133.04444-.0176.01553-.005.0324-.008.04909-.0119.01522-.003.03055-.006.04858-.008.0181-.002.03698-.002.05323-.002h.02894c.146925.00056.266173-.11869.265617-.26561v-.79272c-.000413-.14624-.119376-.26442-.265617-.26386h-.02894c-.01618 0-.03506-.002-.05323-.004-.01803-.002-.03335-.005-.04858-.008-.01676-.003-.03162-.007-.04703-.0119-.01427-.004-.0304-.0108-.04651-.0176-.01604-.007-.03064-.0122-.04341-.0191-.01398-.008-.02751-.0163-.04082-.0253-.01188-.008-.02552-.0182-.03927-.0295-.01314-.0108-.02462-.021-.03514-.0315-.0105-.0105-.02224-.0215-.03307-.0346-.01135-.0138-.0194-.0274-.02739-.0393-.009-.0133-.01775-.0268-.02532-.0408-.0069-.0127-.01441-.0273-.02119-.0434-.0068-.0162-.01163-.0323-.01602-.0465-.0048-.0155-.01004-.0303-.01344-.047-.0031-.0153-.0039-.0311-.0057-.0491-.0018-.0181-.0041-.0365-.0041-.0527v-.0605c0-.0162.0023-.0324.0041-.0506.0018-.018.0026-.0353.0057-.0506.0035-.0174.009-.0325.01344-.047.0041-.0131.0086-.0295.01602-.047.0068-.0161.01428-.0301.02119-.0429.0076-.014.01633-.028.02532-.0413.008-.0118.01604-.0249.02739-.0387.01084-.0131.02257-.0247.03307-.0351.01049-.0105.02195-.0207.03514-.0315.0138-.0114.02744-.0209.03927-.0289.01331-.009.02684-.0177.04082-.0253.01271-.007.02725-.0128.04341-.0196.01563-.007.03066-.0132.04444-.0176.01553-.005.0324-.008.04909-.0119.01522-.003.03055-.006.04858-.008.0181-.002.03698-.002.05323-.002h.02894c.146925.00056.266173-.11869.265617-.26561v-.79324c.000584-.14694-.118672-.26622-.265617-.26566h-.02894c-.01618 0-.03506-.00019-.05323-.002-.01803-.002-.03335-.005-.04858-.008-.01676-.003-.03162-.007-.04703-.0119-.01427-.004-.0304-.0108-.04651-.0176-.01604-.007-.03064-.0122-.04341-.0191-.01398-.008-.02751-.0168-.04082-.0258-.01188-.008-.02552-.0175-.03927-.0289-.01314-.0108-.02462-.021-.03514-.0315-.0105-.0105-.02224-.022-.03307-.0351-.01135-.0138-.01941-.0269-.02739-.0388-.009-.0133-.01775-.0274-.02532-.0413-.0069-.0127-.01441-.0268-.02119-.0429-.0068-.0162-.01163-.0328-.01602-.047-.0048-.0155-.01004-.0298-.01344-.0465-.0031-.0152-.0039-.0332-.0057-.0512-.0018-.0181-.0041-.0344-.0041-.0506v-.0605c0-.0186.000536-.0357.0021-.0512.0015-.0155.0043-.0314.0078-.0486.0034-.0169.0075-.0325.01189-.047.0047-.0156.01152-.0304.01757-.045.0053-.0127.01078-.0272.01912-.0429.0089-.0167.01681-.0303.02377-.0408.007-.0105.01701-.0245.02894-.0393.01023-.0127.0211-.0244.03152-.0351.01079-.0111.02292-.0207.03514-.031.01292-.0109.02303-.0211.03514-.0295.01345-.009.02773-.0179.04082-.0253.01295-.007.02744-.0148.04289-.0217.01308-.006.02836-.0121.04496-.0176.01727-.006.03099-.009.04496-.0114.01505-.003.03187-.008.04909-.0103.01635-.002.03329-.003.05064-.004-.0025.00007.0023 0 .01344 0h.02946c.14612.00056.265033-.11743.265617-.26355v-.79272c.00054-.14692-.118709-.26615-.265626-.26558h-.02946c-.01618 0-.03454-.00019-.05271-.002-.01803-.002-.03335-.005-.04858-.008-.01676-.003-.03162-.007-.04703-.0114-.01427-.004-.0304-.0108-.04651-.0176-.01604-.007-.03064-.0148-.04341-.0217-.01398-.008-.02751-.0144-.04082-.0233-.01188-.008-.02552-.0181-.03927-.0295-.01314-.0108-.02462-.0205-.03514-.031v-.00051-.00052-.00052-.00051c-.0105-.0105-.02224-.022-.03307-.0351-.01135-.0138-.01941-.0254-.02739-.0372-.009-.0133-.01775-.0269-.02532-.0408-.0069-.0127-.01441-.0289-.02119-.045-.0068-.0162-.01163-.0308-.01602-.045-.0048-.0155-.01004-.0303-.01344-.047-.0031-.0152-.0044-.0326-.0062-.0506-.0018-.0181-.0036-.0344-.0036-.0506v-.0605c0-.0186.000536-.0357.0021-.0512.0015-.0155.0043-.0314.0078-.0486.0034-.0169.0069-.0325.01137-.047v-.00051-.00052-.00052-.00051c.0047-.0156.01152-.0304.01757-.045.0053-.0127.0113-.0272.01964-.0429.0089-.0167.01681-.0303.02377-.0408.007-.0105.01701-.0224.02894-.0372.01023-.0127.0211-.0244.03152-.0351.01079-.0111.02292-.0227.03514-.0331.01292-.0109.02303-.019.03514-.0274.01345-.009.02773-.0179.04082-.0253.01295-.007.02744-.0148.04289-.0217.01308-.006.02836-.0121.04496-.0176.01727-.006.03099-.0108.04496-.014.01505-.003.03187-.006.04909-.008.01635-.002.03329-.003.05064-.004-.0025.00007.0023 0 .01344 0h.02946c.14612.00056.265033-.11743.265617-.26355 0-.58174-.476597-1.05833-1.058334-1.05833h-.529738c-.14612-.00056-.265033.11743-.265617.26355v.031c0 .0162.000278.0324-.0015.0506-.0018.018-.0047.0359-.0078.0512-.0034.0167-.0071.031-.01189.0465-.0044.0142-.01075.0308-.01757.047-.0068.0161-.01275.0302-.01964.0429-.0076.014-.01633.028-.02532.0413-.008.0118-.01811.025-.02946.0388-.01084.0131-.0205.0247-.03101.0351-.01052.0105-.022.0207-.03514.0315-.01376.0113-.02739.0209-.03927.0289-.01331.009-.02684.0182-.04082.0258-.01276.007-.02685.0124-.04289.0191-.01611.007-.03275.0132-.04703.0176-.01541.005-.03026.008-.04703.0119-.01522.003-.03261.006-.05064.008-.01817.002-.03446.002-.05064.002h-.06098c-.01618 0-.03248.00033-.05064-.002-.01803-.002-.03542-.005-.05064-.008-.01676-.003-.03162-.007-.04703-.0119-.01427-.004-.0304-.0108-.04651-.0176-.01604-.007-.03064-.0122-.04341-.0191-.01398-.008-.02751-.0168-.04082-.0258-.01188-.008-.02552-.0175-.03927-.0289-.01314-.0108-.02462-.021-.03514-.0315-.0105-.0105-.02017-.022-.03101-.0351-.01135-.0138-.02147-.0269-.02946-.0388-.009-.0133-.01776-.0274-.02532-.0413-.0069-.0127-.01286-.0268-.01964-.0429-.0068-.0162-.01317-.0328-.01757-.047-.0048-.0155-.008-.0298-.01137-.0465-.0031-.0152-.0065-.0332-.0083-.0512-.0018-.0181-.0015-.0344-.0015-.0506v-.031c-.000557-.14614-.119475-.26416-.265613-.2636h-.793242c-.14612-.00056-.265033.11743-.265617.26355v.031c0 .0162-.000238.0324-.0021.0506-.0018.018-.0046.0359-.0077.0512-.0034.0167-.0066.031-.01137.0465-.0044.0142-.01075.0308-.01757.047-.0068.0161-.01482.0302-.0217.0429-.0076.014-.01426.028-.02325.0413-.008.0118-.01811.025-.02946.0388-.01084.0131-.0205.0247-.03101.0351-.01052.0105-.02406.0207-.03721.0315-.01376.0113-.02532.0209-.03721.0289-.01331.009-.02684.0182-.04082.0258-.01276.007-.02892.0124-.04496.0191-.01611.007-.03068.0132-.04496.0176-.01541.005-.03026.008-.04703.0119-.01522.003-.03261.006-.05064.008-.01817.002-.03498.002-.05116.002h-.06043c-.01618 0-.03454.00033-.05271-.002-.01803-.002-.03335-.005-.04858-.008-.01676-.003-.03162-.007-.04703-.0119-.01427-.004-.03092-.0108-.04703-.0176-.01604-.007-.03013-.0122-.04289-.0191-.01398-.008-.02751-.0168-.04082-.0258-.01188-.008-.02552-.0175-.03927-.0289-.01314-.0108-.02462-.021-.03514-.0315-.0105-.0105-.02017-.022-.03101-.0351-.01135-.0138-.02147-.0269-.02946-.0388-.009-.0133-.01775-.0274-.02532-.0413-.0069-.0127-.01492-.0268-.0217-.0429-.0068-.0162-.0111-.0328-.0155-.047-.0048-.0155-.0085-.0298-.01189-.0465-.0031-.0152-.0059-.0332-.0077-.0512-.0018-.0181-.0036-.0344-.0036-.0506v-.031c-.000582-.14551-.118551-.26325-.264066-.26355zm-3.703135 1.8526h8.202087v9.525h-8.202087zm4.630651 2.38099c-.769264 0-1.417004.50015-1.638144 1.19424-.13988-.0847-.302404-.13591-.478524-.13591-.51303 0-.926042.41301-.926042.92604 0 .0494.007.0969.01447.14418-.602971.0597-1.072803.55956-1.072803 1.17874 0 .6596.531016 1.19062 1.190625 1.19062h.132292.555522 3.677814c.732895 0 1.322917-.59001 1.322917-1.32291 0-.64487-.457083-1.17857-1.066085-1.2976.0047-.052.0077-.10436.0077-.15761 0-.95277-.76703-1.71979-1.719793-1.71979z" fill-opacity=".15" transform="matrix(.99999998365 0 0 .99999998365 .52871776452 -262.86822768108)"/><path d="m16.138555 277.6849c-.145512.00058-.263249.11855-.26355.26406v.0315c0 .0162-.000238.0324-.0021.0506-.0018.018-.0047.0353-.0078.0506-.0034.0167-.0071.0315-.01188.047-.0044.0142-.01075.0308-.01757.047-.0068.0161-.0143.0302-.02119.0429-.0076.014-.01633.028-.02532.0413-.008.0118-.01604.025-.02739.0388-.01084.0131-.02257.0247-.03307.0351-.01052.0105-.022.0207-.03514.0315-.01376.0113-.02532.0209-.03721.0289-.01331.009-.02736.0177-.04134.0253-.01276.007-.02892.0129-.04496.0196-.01611.007-.03069.0132-.04496.0176-.01541.005-.02975.008-.04651.0119-.01522.003-.03313.006-.05116.008-.01817.002-.03653.002-.05271.002h-.05839c-.01618 0-.03454-.00019-.05271-.002-.01803-.002-.03335-.005-.04858-.008-.01676-.003-.03368-.007-.04909-.0119-.01427-.004-.02885-.0108-.04496-.0176-.01604-.007-.03219-.0127-.04496-.0196-.01398-.008-.02751-.0163-.04082-.0253-.01189-.008-.02345-.0175-.03721-.0289-.01314-.0108-.02462-.021-.03514-.0315-.0105-.0105-.02224-.022-.03307-.0351-.01135-.0138-.01941-.0269-.02739-.0388-.009-.0133-.01775-.0274-.02532-.0413-.0069-.0127-.01492-.0268-.0217-.0429-.0068-.0162-.0111-.0328-.0155-.047-.0048-.0155-.01055-.0303-.01395-.047-.0031-.0152-.0039-.0326-.0057-.0506-.0018-.0181-.0041-.0344-.0041-.0506v-.0315c-.000581-.14529-.118203-.26294-.263495-.26355h-.79478c-.145313.00058-.262969.11824-.26355.26355v.0315c0 .0162-.0023.0324-.0041.0506-.0018.018-.0026.0353-.0057.0506-.0034.0167-.0092.0315-.01395.047-.0044.0142-.0087.0308-.0155.047-.0068.0161-.01431.0302-.02119.0429-.0076.014-.01685.028-.02584.0413-.008.0118-.01605.025-.02739.0388-.01084.0131-.02257.0247-.03307.0351-.01052.0105-.02199.0207-.03514.0315-.01376.0113-.02533.0209-.03721.0289-.01331.009-.02891.0177-.04289.0253-.01276.007-.02685.0129-.04289.0196-.01611.007-.03069.0132-.04496.0176-.01541.005-.03182.008-.04858.0119-.01522.003-.03106.006-.04909.008-.01817.002-.03654.002-.05271.002h-.05839c-.01618 0-.03454-.00019-.05271-.002-.01803-.002-.03594-.005-.05116-.008-.01676-.003-.03111-.007-.04651-.0119-.01427-.004-.02885-.0108-.04496-.0176-.01604-.007-.0322-.0127-.04496-.0196-.01399-.008-.02752-.0163-.04082-.0253-.01188-.008-.02345-.0175-.03721-.0289-.01314-.0108-.02462-.021-.03514-.0315-.0105-.0105-.02275-.022-.03359-.0351-.01135-.0138-.02095-.0269-.02894-.0388-.009-.0133-.0162-.0274-.02377-.0413-.0069-.0127-.0144-.0268-.02119-.0429-.0068-.0162-.01317-.0328-.01757-.047-.0048-.0155-.0085-.0303-.01189-.047-.0031-.0152-.006-.0326-.0078-.0506-.0018-.0181-.0021-.0344-.0021-.0506v-.0315c-.000584-.14612-.119504-.26411-.265628-.26355h-.5271c-.581735 0-1.05885.47711-1.05885 1.05885.000581.14531.118237.26297.26355.26355h.02946c.01625 0 .03461.002.05271.004.01803.002.03542.003.05064.006.01669.003.03149.009.04702.014.01421.004.02873.009.04496.0155.01616.007.03225.0148.04496.0217.01398.008.0275.0163.04082.0253.01184.008.02342.0161.03721.0274.01319.0109.02465.0226.03514.0331.01051.0105.02276.0219.03359.0351.01135.0138.02096.0274.02894.0393.009.0133.0162.0268.02377.0408.0069.0128.0144.0268.02119.0429.0074.0175.01349.0319.01757.045.0045.0145.0084.0317.01189.0491.0031.0152.006.0306.0078.0486.0018.0181.0021.0365.0021.0527v.0605c0 .0162-.000188.0325-.0021.0507-.0018.018-.0047.0358-.0078.0512-.0034.0167-.0071.031-.01189.0465-.0044.0142-.01075.0288-.01757.045-.0068.0161-.0143.0323-.02119.045-.0076.014-.01478.0275-.02377.0408-.008.0118-.01759.0234-.02894.0372-.01083.0131-.02309.0247-.03359.0351-.000003.00067-.000003.001 0 .002-.01052.0105-.02199.0202-.03514.031-.01375.0113-.02532.0215-.03721.0295-.01331.009-.02684.0157-.04082.0232-.01276.007-.02892.0149-.04496.0217-.01611.007-.03069.0132-.04496.0176-.01541.005-.03026.008-.04702.0119-.01522.003-.03261.006-.05064.008-.01817.002-.03653.002-.05271.002h-.02946c-.146121.00058-.264109.1195-.26355.26562v.79323c.000581.14531.118237.26297.26355.26355h.02946c.01625 0 .03461.002.05271.004.01803.002.03542.005.05064.008.01669.003.03149.007.04702.0119.01421.004.02873.0107.04496.0176.01616.007.03225.0122.04496.0191.01398.008.0275.0168.04082.0258.01184.008.02342.0175.03721.0289.01319.0109.02465.0211.03514.0315.01051.0105.02276.022.03359.0351.01135.0138.02096.0269.02894.0388.009.0133.0162.0273.02377.0413.0069.0127.0144.0268.02119.0429.0074.0175.01349.0319.01757.045.0045.0145.0084.0312.01189.0486.0031.0153.006.0311.0078.0491.0018.0181.0021.0365.0021.0527v.0605c0 .0162-.000188.0324-.0021.0507-.0018.018-.0047.0353-.0078.0506-.0034.0167-.0071.0315-.01189.047-.0044.0142-.01075.0308-.01757.047-.0068.0161-.0143.0302-.02119.0429-.0076.014-.01478.028-.02377.0413-.008.0118-.01759.025-.02894.0388-.01083.0131-.02309.0247-.03359.0351-.01052.0105-.02199.0202-.03514.031-.01375.0113-.02532.0215-.03721.0295-.01331.009-.02684.0177-.04082.0253-.01276.007-.02892.0129-.04496.0196-.01611.007-.03069.0132-.04496.0176-.01541.005-.03026.008-.04702.0119-.01522.003-.03261.006-.05064.008-.01817.002-.03653.002-.05271.002h-.02946c-.146121.00058-.264109.1195-.26355.26562v.79323c-.000559.14612.117429.26504.26355.26562h.02946c.01625 0 .03461-.00032.05271.002.01803.002.03542.005.05064.008.01669.003.03149.007.04702.0119.01421.004.02873.0107.04496.0176.01616.007.03225.0122.04496.0191.01398.008.0275.0168.04082.0258.01184.008.02342.0175.03721.0289.01319.0109.02465.0211.03514.0315.01051.0105.02276.022.03359.0351.01135.0138.02096.0269.02894.0388.009.0133.0162.0274.02377.0413.0069.0127.0144.0268.02119.0429.0074.0175.01349.0338.01757.047.0045.0145.0084.0291.01189.0465.0031.0152.006.0332.0078.0512.0018.0182.0021.0344.0021.0506v.0605c0 .0162-.000188.0346-.0021.0527-.0018.018-.0047.0339-.0078.0491-.0034.0167-.0071.031-.01189.0465-.0044.0142-.01075.0308-.01757.047-.0068.0161-.0143.0302-.02119.0429-.0076.014-.01478.028-.02377.0413-.008.0118-.01759.025-.02894.0388-.01083.0131-.02309.0247-.03359.0351-.01052.0105-.02199.0207-.03514.0315-.01375.0113-.02532.0209-.03721.0289-.01331.009-.02684.0177-.04082.0253-.01276.007-.02892.0129-.04496.0196-.01611.007-.03069.0132-.04496.0176-.01541.005-.03026.008-.04702.0119-.01522.003-.03261.006-.05064.008-.01817.002-.03653.004-.05271.004h-.02946c-.145313.00058-.262969.11824-.26355.26355v.79323c-.000559.14612.117429.26504.26355.26562h.02946c.01625 0 .03461.0002.05271.002.01803.002.03542.005.05064.008.01669.003.03149.007.04702.0119.01421.004.02873.0107.04496.0176.01616.007.03225.0143.04496.0212.01398.008.0275.0149.04082.0238.01184.008.02342.0175.03721.0289.01319.0109.02465.0211.03514.0315-.000003.00067-.000003.001 0 .002.01051.0105.02276.022.03359.0351.01135.0138.02096.0249.02894.0367.009.0133.0162.0274.02377.0413.0069.0128.0144.0289.02119.045.0074.0175.01349.0319.01757.045.0045.0145.0084.0291.01189.0465.0031.0152.006.0332.0078.0512.0018.0182.0021.0344.0021.0506v.0605c0 .0162-.000188.0346-.0021.0527-.0018.018-.0047.0334-.0078.0486-.0034.0167-.0071.0315-.01189.047-.0044.0142-.01075.0308-.01757.047-.0068.0161-.0143.0302-.02119.0429-.0076.014-.01478.0275-.02377.0408-.008.0118-.01759.0255-.02894.0393-.01083.0131-.02309.0246-.03359.0351-.01052.0105-.02199.0223-.03514.0331-.01375.0113-.02532.0194-.03721.0274-.01331.009-.02684.0177-.04082.0253-.01276.007-.02892.0149-.04496.0217-.01611.007-.03069.0111-.04496.0155-.01541.005-.03026.0105-.04702.0139-.01522.003-.03261.004-.05064.006-.01817.002-.03653.004-.05271.004h-.02946c-.145313.00058-.262969.11824-.26355.26355v.7953c.000581.14531.118237.26297.26355.26355h.02946c.01625 0 .03461.0002.05271.002.01803.002.03542.005.05064.008.01669.003.03149.007.04702.0119.01421.004.02873.0107.04496.0176.01616.007.03225.0148.04496.0217.01398.008.0275.0163.04082.0253.01184.008.02342.0156.03721.0269.01319.0109.02465.0231.03514.0336.01051.0105.02276.022.03359.0351.01135.0138.02096.0249.02894.0367.009.0133.0162.0273.02377.0413.0069.0127.0144.0289.02119.045.0074.0175.01349.0319.01757.045.0045.0145.0084.0312.01189.0486.0031.0152.006.0306.0078.0486.0018.0182.0021.0365.0021.0527v.0589c0 .0162-.000188.0346-.0021.0527-.0018.018-.0047.0334-.0078.0486-.0034.0167-.0071.0337-.01189.0491-.0044.0142-.01075.0288-.01757.045-.0068.0161-.0143.0317-.02119.0444-.0076.014-.01478.028-.02377.0413-.008.0118-.01759.0235-.02894.0372-.01083.0131-.02309.0242-.03359.0346-.01052.0105-.02199.0228-.03514.0336-.01375.0113-.02532.0194-.03721.0274-.01331.009-.02684.0177-.04082.0253-.01276.007-.02892.0144-.04496.0212-.01611.007-.03069.0132-.04496.0176-.01541.005-.03026.008-.04702.0119-.01522.003-.03261.004-.05064.006-.01817.002-.03653.004-.05271.004h-.02946c-.145516.00058-.263254.11855-.26355.26407 0 .58173.477111 1.05833 1.05885 1.05833h.5271c.14612.00056.265033-.11743.265617-.26355v-.0315c0-.0186.000487-.0351.0021-.0506.0015-.0154.0044-.0314.0078-.0486.0034-.0169.0075-.0325.01189-.047.0047-.0156.0095-.0304.0155-.045.0053-.0127.01336-.0272.0217-.0429.0089-.0167.01628-.0303.02325-.0408.007-.0105.01546-.0224.02739-.0372.01023-.0127.02265-.0265.03307-.0372.01079-.0111.02086-.0207.03307-.031.01291-.0109.0251-.0211.03721-.0294.01345-.009.02824-.0179.04134-.0253.01295-.007.02537-.0128.04082-.0196.01308-.006.02836-.0121.04496-.0176.01727-.006.03305-.0107.04702-.0139.01505-.003.03135-.006.04858-.008.01635-.002.03329-.003.05064-.004-.0025.00007.0028 0 .01395 0h.05839c.01624 0 .03461.0002.05271.002.01803.002.03387.005.04909.008.0167.003.03305.007.04858.0114.01421.004.02873.0107.04496.0176.01616.007.03018.0148.04289.0217.01398.008.0301.0143.04341.0233.01183.008.02289.0181.03669.0295.01319.0109.02465.0206.03514.031-.000003.00067-.000003.001 0 .002.0105.0105.02275.022.03359.0351.01135.0138.01941.0254.02739.0372.009.0133.01776.0269.02532.0408.0069.0127.0144.0289.02119.045.0074.0175.01142.0319.0155.045.0045.0145.01041.0296.01395.047.0031.0153.0038.0326.0057.0507.0018.0182.0041.0344.0041.0506v.0315c.000581.14531.118237.26297.26355.26355h.794784c.145515-.0003.263485-.11804.264067-.26355v-.0315c0-.0186.00002-.0351.0015-.0506.0015-.0155.0048-.0314.0083-.0486.0034-.0169.0069-.0325.01137-.047.0047-.0156.0094-.0304.0155-.045.0053-.0127.01337-.0272.0217-.0429.0089-.0167.01629-.0308.02325-.0413.007-.0105.01753-.0219.02946-.0367.01023-.0127.0211-.0265.03152-.0372.01079-.011.02086-.0212.03307-.0315.01292-.0109.0251-.0205.03721-.0289.01345-.009.02773-.0179.04082-.0253.01295-.007.02744-.0128.04289-.0196.01308-.006.02836-.0121.04496-.0176.01727-.006.03099-.0107.04496-.0139.01505-.003.03135-.006.04858-.008.01635-.002.03381-.003.05116-.004-.0025.00007.0023 0 .01344 0h.05839c.01625 0 .03461.0002.05271.002.01803.002.03594.005.05116.008.01669.003.03097.007.04651.0119.01421.004.02873.0107.04496.0176.01616.007.03225.0148.04496.0217.01398.008.02803.0143.04134.0233.01183.008.02341.0181.03721.0295.01319.0109.02465.0206.03514.031-.000003.00067-.000003.001 0 .002.0105.0105.02223.022.03307.0351.01135.0138.0194.0254.02739.0372.009.0133.01775.0269.02532.0408.0069.0127.0144.0289.02119.045.0074.0175.0135.0319.01757.045.0045.0145.0084.0291.01188.0465.0031.0152.0059.0332.0077.0512.0018.0182.0021.0344.0021.0506v.031c.000301.14551.118038.26348.26355.26406h.794784c.145714-.0003.263765-.11835.264067-.26406v-.031c0-.0186.0021-.0351.0036-.0506s.0028-.0319.0062-.0491c.0034-.0169.0069-.032.01137-.0465.0047-.0156.01152-.0304.01757-.045.0053-.0127.0113-.0272.01964-.0429.0089-.0167.01629-.0308.02325-.0413.007-.0105.01753-.0224.02946-.0372.01023-.0127.0211-.026.03152-.0367.01079-.011.02293-.0212.03514-.0315.01292-.0109.02458-.0205.03669-.0289.01345-.009.02618-.0184.03927-.0258.01295-.007.02744-.0123.04289-.0191.01308-.006.02836-.0121.04496-.0176.01727-.006.03306-.0107.04703-.0139.01505-.003.0298-.006.04703-.008.01635-.002.03329-.003.05064-.004-.0025.00007.0023 0 .01344 0h.06046c.01625 0 .03306.0002.05116.002.01803.002.03542.005.05064.008.01669.003.03149.007.04703.0119.01421.004.02873.0107.04496.0176.01616.007.03225.0143.04496.0212.01398.008.02751.0149.04082.0238.01183.008.02341.0175.03721.0289.01319.0109.02672.0211.03721.0315-.000003.00067-.000003.001 0 .002.0105.0105.02017.022.03101.0351.01135.0138.02147.0249.02946.0367.009.0133.01569.0274.02325.0413.0069.0128.01492.0289.0217.045.0074.0175.0135.0319.01757.045.0045.0145.0078.0291.01137.0465.0031.0152.0059.0332.0077.0512.0018.0182.0021.0344.0021.0506v.031c.000303.14632.119298.26462.265617.26406h.793234c.146319.00056.265314-.11774.265617-.26406v-.031c0-.0186.000537-.0351.0021-.0506.0015-.0155.0043-.0319.0077-.0491.0034-.0169.0069-.0325.01137-.047.0047-.0156.01-.0298.01602-.0444.0053-.0127.01078-.0277.01912-.0434.0089-.0167.01836-.0303.02532-.0408.007-.0105.01546-.0224.02739-.0372.01023-.0127.0211-.0265.03152-.0372.01079-.011.02293-.0207.03514-.031.01292-.0109.0251-.0211.03721-.0295.01345-.009.02567-.0179.03876-.0253.01295-.007.02744-.0128.04289-.0196.01308-.006.02836-.0121.04496-.0176.01727-.006.03305-.0102.04703-.0134.01505-.003.03187-.006.04909-.008.01635-.002.03122-.003.04858-.004h.0021c-.0025.00007.000739 0 .01189 0h.06046c.01625 0 .03254.0002.05064.002.01803.002.03542.005.05064.008.01669.003.03149.007.04703.0119.01421.004.0308.0107.04703.0176.01616.007.03018.0143.04289.0212.01398.008.02751.0149.04082.0238.01184.008.02547.0175.03927.0289.01319.0109.02465.0211.03514.0315-.000003.00067-.000003.001 0 .002.0105.0105.02017.0215.03101.0346.01135.0138.02147.0254.02946.0372.009.0133.01775.0274.02532.0413.0069.0127.01285.0283.01964.0444.0074.0175.0135.0319.01757.045.0045.0145.0084.0296.01189.047.0031.0152.0059.0326.0077.0506.0018.0182.0015.035.0015.0512v.031c.000584.14612.119497.26411.265617.26355h.529683c.581741 0 1.058334-.47661 1.058334-1.05834.000512-.14689-.118718-.26609-.265608-.26553h-.02894c-.01618 0-.03506-.002-.05323-.004-.01803-.002-.03335-.003-.04858-.006-.01676-.003-.03162-.007-.04703-.0114-.01427-.004-.0304-.0108-.04651-.0176-.01604-.007-.03064-.0148-.04341-.0217-.01398-.008-.02751-.0163-.04082-.0253-.01188-.008-.02552-.0161-.03927-.0274-.01314-.0108-.02462-.0226-.03514-.0331-.0105-.0105-.02224-.022-.03307-.0351-.01135-.0138-.0194-.0254-.02739-.0372-.009-.0133-.01775-.0268-.02532-.0408-.0069-.0127-.01441-.0289-.02119-.045-.0068-.0162-.01163-.0308-.01602-.045-.0048-.0155-.01004-.0324-.01344-.0491-.0031-.0152-.0039-.0306-.0057-.0486-.0018-.0181-.0041-.0365-.0041-.0527v-.0584c0-.0162.0023-.0346.0041-.0527.0018-.018.0026-.0339.0057-.0491.0035-.0174.009-.0341.01344-.0486.0041-.0132.0086-.0275.01602-.045.0068-.0161.01428-.0322.02119-.0449.0076-.014.01633-.0275.02532-.0408.008-.0118.01604-.0235.02739-.0372.01084-.0131.02257-.0247.03307-.0351.01049-.0105.02195-.0222.03514-.0331.0138-.0114.02744-.0195.03927-.0274.01331-.009.02684-.0177.04082-.0253.01271-.007.02725-.0149.04341-.0217.01563-.007.03066-.0133.04444-.0176.01553-.005.0324-.008.04909-.0119.01522-.003.03055-.006.04858-.008.0181-.002.03698-.002.05323-.002h.02894c.14612.00056.265033-.11743.265617-.26355v-.79478c-.00027-.14634-.119275-.26468-.265617-.26412h-.02894c-.01618 0-.03506-.002-.05323-.004-.01803-.002-.03335-.003-.04858-.006-.01676-.003-.03162-.009-.04703-.0139-.01427-.004-.0304-.009-.04651-.0155-.01604-.007-.03064-.0143-.04341-.0212-.01398-.008-.02751-.0163-.04082-.0253-.01188-.008-.02552-.0161-.03927-.0274-.01314-.0108-.02462-.0231-.03514-.0336-.0105-.0105-.02224-.0219-.03307-.0351-.01135-.0138-.0194-.0269-.02739-.0388-.009-.0133-.01775-.0273-.02532-.0413-.0069-.0127-.01441-.0268-.02119-.0429-.0068-.0162-.01163-.0328-.01602-.047-.0048-.0155-.01004-.0298-.01344-.0465-.0031-.0152-.0039-.0311-.0057-.0491-.0018-.0181-.0041-.0365-.0041-.0527v-.0605c0-.0162.0023-.0324.0041-.0506.0018-.018.0026-.0353.0057-.0506.0035-.0174.009-.0325.01344-.047.0041-.0131.0086-.0275.01602-.045.0068-.0161.01428-.0323.02119-.045.0076-.014.01633-.0275.02532-.0408.008-.0118.01604-.0234.02739-.0372.01084-.0131.02257-.0247.03307-.0351v-.00051-.00052-.00052-.00051c.01049-.0105.02195-.0202.03514-.031.0138-.0114.02744-.0215.03927-.0294.01331-.009.02684-.0158.04082-.0233.01271-.007.02725-.0149.04341-.0217.01563-.007.03066-.0133.04444-.0176.01553-.005.0324-.008.04909-.0119.01522-.003.03055-.006.04858-.008.0181-.002.03698-.002.05323-.002h.02894c.146925.00056.266173-.11869.265617-.26561v-.79272c-.000413-.14624-.119376-.26442-.265617-.26386h-.02894c-.01618 0-.03506-.002-.05323-.004-.01803-.002-.03335-.005-.04858-.008-.01676-.003-.03162-.007-.04703-.0119-.01427-.004-.0304-.0108-.04651-.0176-.01604-.007-.03064-.0122-.04341-.0191-.01398-.008-.02751-.0163-.04082-.0253-.01188-.008-.02552-.0182-.03927-.0295-.01314-.0108-.02462-.021-.03514-.0315-.0105-.0105-.02224-.0215-.03307-.0346-.01135-.0138-.0194-.0274-.02739-.0393-.009-.0133-.01775-.0268-.02532-.0408-.0069-.0127-.01441-.0273-.02119-.0434-.0068-.0162-.01163-.0323-.01602-.0465-.0048-.0155-.01004-.0303-.01344-.047-.0031-.0153-.0039-.0311-.0057-.0491-.0018-.0181-.0041-.0365-.0041-.0527v-.0605c0-.0162.0023-.0324.0041-.0506.0018-.018.0026-.0353.0057-.0506.0035-.0174.009-.0325.01344-.047.0041-.0131.0086-.0295.01602-.047.0068-.0161.01428-.0301.02119-.0429.0076-.014.01633-.028.02532-.0413.008-.0118.01604-.0249.02739-.0387.01084-.0131.02257-.0247.03307-.0351.01049-.0105.02195-.0207.03514-.0315.0138-.0114.02744-.0209.03927-.0289.01331-.009.02684-.0177.04082-.0253.01271-.007.02725-.0128.04341-.0196.01563-.007.03066-.0132.04444-.0176.01553-.005.0324-.008.04909-.0119.01522-.003.03055-.006.04858-.008.0181-.002.03698-.002.05323-.002h.02894c.146925.00056.266173-.11869.265617-.26561v-.79324c.000584-.14694-.118672-.26622-.265617-.26566h-.02894c-.01618 0-.03506-.00019-.05323-.002-.01803-.002-.03335-.005-.04858-.008-.01676-.003-.03162-.007-.04703-.0119-.01427-.004-.0304-.0108-.04651-.0176-.01604-.007-.03064-.0122-.04341-.0191-.01398-.008-.02751-.0168-.04082-.0258-.01188-.008-.02552-.0175-.03927-.0289-.01314-.0108-.02462-.021-.03514-.0315-.0105-.0105-.02224-.022-.03307-.0351-.01135-.0138-.01941-.0269-.02739-.0388-.009-.0133-.01775-.0274-.02532-.0413-.0069-.0127-.01441-.0268-.02119-.0429-.0068-.0162-.01163-.0328-.01602-.047-.0048-.0155-.01004-.0298-.01344-.0465-.0031-.0152-.0039-.0332-.0057-.0512-.0018-.0181-.0041-.0344-.0041-.0506v-.0605c0-.0186.000536-.0357.0021-.0512.0015-.0155.0043-.0314.0078-.0486.0034-.0169.0075-.0325.01189-.047.0047-.0156.01152-.0304.01757-.045.0053-.0127.01078-.0272.01912-.0429.0089-.0167.01681-.0303.02377-.0408.007-.0105.01701-.0245.02894-.0393.01023-.0127.0211-.0244.03152-.0351.01079-.0111.02292-.0207.03514-.031.01292-.0109.02303-.0211.03514-.0295.01345-.009.02773-.0179.04082-.0253.01295-.007.02744-.0148.04289-.0217.01308-.006.02836-.0121.04496-.0176.01727-.006.03099-.009.04496-.0114.01505-.003.03187-.008.04909-.0103.01635-.002.03329-.003.05064-.004-.0025.00007.0023 0 .01344 0h.02946c.14612.00056.265033-.11743.265617-.26355v-.79272c.00054-.14692-.118709-.26615-.265626-.26558h-.02946c-.01618 0-.03454-.00019-.05271-.002-.01803-.002-.03335-.005-.04858-.008-.01676-.003-.03162-.007-.04703-.0114-.01427-.004-.0304-.0108-.04651-.0176-.01604-.007-.03064-.0148-.04341-.0217-.01398-.008-.02751-.0144-.04082-.0233-.01188-.008-.02552-.0181-.03927-.0295-.01314-.0108-.02462-.0205-.03514-.031v-.00051-.00052-.00052-.00051c-.0105-.0105-.02224-.022-.03307-.0351-.01135-.0138-.01941-.0254-.02739-.0372-.009-.0133-.01775-.0269-.02532-.0408-.0069-.0127-.01441-.0289-.02119-.045-.0068-.0162-.01163-.0308-.01602-.045-.0048-.0155-.01004-.0303-.01344-.047-.0031-.0152-.0044-.0326-.0062-.0506-.0018-.0181-.0036-.0344-.0036-.0506v-.0605c0-.0186.000536-.0357.0021-.0512.0015-.0155.0043-.0314.0078-.0486.0034-.0169.0069-.0325.01137-.047v-.00051-.00052-.00052-.00051c.0047-.0156.01152-.0304.01757-.045.0053-.0127.0113-.0272.01964-.0429.0089-.0167.01681-.0303.02377-.0408.007-.0105.01701-.0224.02894-.0372.01023-.0127.0211-.0244.03152-.0351.01079-.0111.02292-.0227.03514-.0331.01292-.0109.02303-.019.03514-.0274.01345-.009.02773-.0179.04082-.0253.01295-.007.02744-.0148.04289-.0217.01308-.006.02836-.0121.04496-.0176.01727-.006.03099-.0108.04496-.014.01505-.003.03187-.006.04909-.008.01635-.002.03329-.003.05064-.004-.0025.00007.0023 0 .01344 0h.02946c.14612.00056.265033-.11743.265617-.26355 0-.58174-.476597-1.05833-1.058334-1.05833h-.529738c-.14612-.00056-.265033.11743-.265617.26355v.031c0 .0162.000278.0324-.0015.0506-.0018.018-.0047.0359-.0078.0512-.0034.0167-.0071.031-.01189.0465-.0044.0142-.01075.0308-.01757.047-.0068.0161-.01275.0302-.01964.0429-.0076.014-.01633.028-.02532.0413-.008.0118-.01811.025-.02946.0388-.01084.0131-.0205.0247-.03101.0351-.01052.0105-.022.0207-.03514.0315-.01376.0113-.02739.0209-.03927.0289-.01331.009-.02684.0182-.04082.0258-.01276.007-.02685.0124-.04289.0191-.01611.007-.03275.0132-.04703.0176-.01541.005-.03026.008-.04703.0119-.01522.003-.03261.006-.05064.008-.01817.002-.03446.002-.05064.002h-.06098c-.01618 0-.03248.00033-.05064-.002-.01803-.002-.03542-.005-.05064-.008-.01676-.003-.03162-.007-.04703-.0119-.01427-.004-.0304-.0108-.04651-.0176-.01604-.007-.03064-.0122-.04341-.0191-.01398-.008-.02751-.0168-.04082-.0258-.01188-.008-.02552-.0175-.03927-.0289-.01314-.0108-.02462-.021-.03514-.0315-.0105-.0105-.02017-.022-.03101-.0351-.01135-.0138-.02147-.0269-.02946-.0388-.009-.0133-.01776-.0274-.02532-.0413-.0069-.0127-.01286-.0268-.01964-.0429-.0068-.0162-.01317-.0328-.01757-.047-.0048-.0155-.008-.0298-.01137-.0465-.0031-.0152-.0065-.0332-.0083-.0512-.0018-.0181-.0015-.0344-.0015-.0506v-.031c-.000557-.14614-.119475-.26416-.265613-.2636h-.793242c-.14612-.00056-.265033.11743-.265617.26355v.031c0 .0162-.000238.0324-.0021.0506-.0018.018-.0046.0359-.0077.0512-.0034.0167-.0066.031-.01137.0465-.0044.0142-.01075.0308-.01757.047-.0068.0161-.01482.0302-.0217.0429-.0076.014-.01426.028-.02325.0413-.008.0118-.01811.025-.02946.0388-.01084.0131-.0205.0247-.03101.0351-.01052.0105-.02406.0207-.03721.0315-.01376.0113-.02532.0209-.03721.0289-.01331.009-.02684.0182-.04082.0258-.01276.007-.02892.0124-.04496.0191-.01611.007-.03068.0132-.04496.0176-.01541.005-.03026.008-.04703.0119-.01522.003-.03261.006-.05064.008-.01817.002-.03498.002-.05116.002h-.06043c-.01618 0-.03454.00033-.05271-.002-.01803-.002-.03335-.005-.04858-.008-.01676-.003-.03162-.007-.04703-.0119-.01427-.004-.03092-.0108-.04703-.0176-.01604-.007-.03013-.0122-.04289-.0191-.01398-.008-.02751-.0168-.04082-.0258-.01188-.008-.02552-.0175-.03927-.0289-.01314-.0108-.02462-.021-.03514-.0315-.0105-.0105-.02017-.022-.03101-.0351-.01135-.0138-.02147-.0269-.02946-.0388-.009-.0133-.01775-.0274-.02532-.0413-.0069-.0127-.01492-.0268-.0217-.0429-.0068-.0162-.0111-.0328-.0155-.047-.0048-.0155-.0085-.0298-.01189-.0465-.0031-.0152-.0059-.0332-.0077-.0512-.0018-.0181-.0036-.0344-.0036-.0506v-.031c-.000582-.14551-.118551-.26325-.264066-.26355zm-3.703135 1.8526h8.202087v9.525h-8.202087zm4.630651 2.38099c-.769264 0-1.417004.50015-1.638144 1.19424-.13988-.0847-.302404-.13591-.478524-.13591-.51303 0-.926042.41301-.926042.92604 0 .0494.007.0969.01447.14418-.602971.0597-1.072803.55956-1.072803 1.17874 0 .6596.531016 1.19062 1.190625 1.19062h.132292.555522 3.677814c.732895 0 1.322917-.59001 1.322917-1.32291 0-.64487-.457083-1.17857-1.066085-1.2976.0047-.052.0077-.10436.0077-.15761 0-.95277-.76703-1.71979-1.719793-1.71979z" fill="url(#a)" transform="matrix(.99999998365 0 0 .99999998365 .52871776452 -263.13331907734)"/></g></svg>
