<svg height="128" viewBox="0 0 33.866666 33.866666" width="128" xmlns="http://www.w3.org/2000/svg" xmlns:xlink="http://www.w3.org/1999/xlink"><defs id="antufoldercolor">
    <style type="text/css" id="current-color-scheme">
      .ColorScheme-Highlight {
        color:#45aaf5;
      }
      </style>
  </defs><linearGradient id="a" gradientUnits="userSpaceOnUse" x1="97.999968" x2="97.999968" y1="300.149986" y2="279.149986"><stop offset="0" stop-color="#fff" stop-opacity=".7"/><stop offset="1" stop-color="#fff" stop-opacity=".85"/></linearGradient><linearGradient id="b"><stop offset="0" stop-color="#fff" stop-opacity="0"/><stop offset="1" stop-color="#fff" stop-opacity=".2"/></linearGradient><linearGradient id="c" gradientUnits="userSpaceOnUse" x1="-15.225001" x2="-15.225001" xlink:href="#b" y1="-2.175002" y2="14.824999"/><linearGradient id="d" gradientUnits="userSpaceOnUse" x1="1005.999991" x2="1005.999991" xlink:href="#b" y1="134.00001" y2="31.000003"/><g transform="translate(22.225003 3.175001)"><path d="m-18.78542-1.852084c-1.75437 0-3.175 1.42063523-3.175 3.1750002v24.8708328c0 1.754372 1.42063 3.175 3.175 3.175h26.9875c1.7543727 0 3.175-1.420628 3.175-3.175v-20.6374997c0-1.7543661-1.4206273-3.1750003-3.175-3.1750003h-12.9645806c-.5169191 0-.9456499-.223647-1.37718-.5968629-.4315301-.3732149-.8479896-.89289705-1.2975907-1.425752-.8991997-1.0657152-1.9701378-2.2107181-3.6752287-2.2107181z" style="fill:currentColor"
class="ColorScheme-Highlight"/><path d="m-18.78542-1.852084c-1.754372 0-3.175 1.4206352-3.175 3.1750016v24.8708294c0 1.754371 1.420628 3.175 3.175 3.175h26.9874998c1.754373 0 3.1750002-1.420629 3.1750002-3.175v-20.6374964c0-1.754364-1.4206272-3.175-3.1750002-3.175h-12.964583c-.516916 0-.945647-.223647-1.377183-.59686-.431509-.3732186-.847989-.8928999-1.297596-1.4257549-.899186-1.0657168-1.9701138-2.2107197-3.6752208-2.2107197z" fill-opacity=".080201"/><path d="m-18.78542-1.852084c-1.754372 0-3.175 1.42063523-3.175 3.1750005v24.8708335c0 1.75437 1.420628 3.174999 3.175 3.174999h26.9875c1.7543727 0 3.175-1.420629 3.175-3.174999v-20.6375005c0-1.754366-1.4206273-3.1749997-3.175-3.1749997h-12.9645832c-.5169165 0-.9456473-.223647-1.3771827-.5968629-.4315354-.373216-.8479896-.89289785-1.297596-1.4257528-.8991865-1.0657152-1.9701404-2.2107181-3.6752211-2.2107181zm0 .2645834h7.672917c3.1749998 0 3.9687498 4.2333338 6.3499998 4.2333338h12.9645832c1.6123708 0 2.910417 1.2980574 2.910417 2.9104163v20.6375005c0 1.612368-1.2980462 2.910416-2.910417 2.910416h-26.9875c-1.612371 0-2.910416-1.298048-2.910416-2.910416v-24.8708335c0-1.61236604 1.298045-2.9104171 2.910416-2.9104171z" fill-opacity=".2"/><path d="m-18.78542-1.8520877c-1.754372 0-3.175 1.42063519-3.175 3.1750016v24.8708301c0 1.754371 1.420628 3.175 3.175 3.175h26.9875003c1.754373 0 3.1749997-1.420629 3.1749997-3.175v-20.6374974c0-1.7543637-1.4206267-3.1749997-3.1749997-3.1749997h-12.9645832c-.516916 0-.945647-.223647-1.377183-.59686-.431509-.3732186-.847989-.8928999-1.297596-1.4257549-.899186-1.06571681-1.970114-2.2107197-3.6752211-2.2107197z" fill="url(#c)"/><g transform="matrix(.26458333 0 0 .26458333 -257.96875 -5.820837)"><path d="m959 31.000004c-6.4444 0-10.49209 4.32757-13.89062 8.35547-1.69927 2.01394-3.27332 3.97809-4.9043 5.38867s-3.25137 2.25586-5.20508 2.25586h-31c-6.63068 0-12 5.36933-12 12v62.999996c0 6.63069 5.36932 12 12 12h102c6.6307 0 12-5.36931 12-12v-78.999996c0-6.63067-5.3693-12-12-12z" style="fill:currentColor"
class="ColorScheme-Highlight"/><path d="m959 31.000004c-6.4444 0-10.4921 4.32757-13.89063 8.35546-1.69927 2.01394-3.27331 3.9781-4.90429 5.38868-1.63099 1.41058-3.25138 2.25586-5.20508 2.25586h-31c-6.63068 0-12 5.36932-12 12v62.999996c0 6.63069 5.36932 12 12 12h102c6.6307 0 12-5.36931 12-12v-78.999996c0-6.63068-5.3693-12-12-12z" fill="url(#d)"/><path d="m959 31.000004c-6.4444 0-10.49208 4.32757-13.89062 8.35547-1.69927 2.01394-3.27332 3.97809-4.9043 5.38867-1.63099 1.41058-3.25138 2.25586-5.20508 2.25586h-31c-6.63068 0-12 5.36933-12 12v62.999996c0 6.63069 5.36932 12 12 12h102c6.6307 0 12-5.36931 12-12v-78.999996c0-6.63067-5.3693-12-12-12zm0 1h47c6.094 0 11 4.90605 11 11v78.999996c0 6.09399-4.906 11-11 11h-102c-6.09398 0-11-4.90601-11-11v-62.999996c0-6.09395 4.90601-11 11-11h31c8.99999 0 12.00001-16 24-16z" fill-opacity=".2"/></g></g><g transform="matrix(.52916679229 0 0 .52916679229 -34.92500685167 -132.37107191648)"><path d="m92.999982 279.65002c-3.846969 0-6.946682 3.0734-6.996094 6.90821-.0027.0305-.004.0611-.0039.0918 0 .2532.0131.50196.03906.74805.195888 2.95085 1.519453 5.47965 3.462891 7.66601 2.106909 2.37029 4.922026 4.40375 7.943359 6.41797.335902.2239.773474.2239 1.109372 0 3.02134-2.01422 5.83645-4.04768 7.94336-6.41797 1.94344-2.18636 3.26701-4.71515 3.46289-7.66601.0259-.24609.0391-.49486.0391-.74805-.00029-.0333-.002-.0665-.006-.0996-.0536-3.8311-3.1498-6.90039-6.9941-6.90039-1.96293 0-3.73129.80082-4.999996 2.09375-1.268708-1.29293-3.037073-2.09375-5.000002-2.09375z" fill-opacity=".15" opacity=".99"/><path d="m92.999969 279.15002c-3.84697 0-6.946683 3.0734-6.996095 6.90821-.0027.0305-.004.0611-.0039.0918 0 .2532.0131.50196.03906.74805.195888 2.95085 1.519453 5.47965 3.462895 7.66601 2.1069 2.37029 4.92202 4.40375 7.943345 6.41797.33591.2239.77348.2239 1.10938 0 3.021336-2.01422 5.836446-4.04768 7.943356-6.41797 1.94344-2.18636 3.26701-4.71515 3.46289-7.66601.0259-.24609.0391-.49486.0391-.74805-.00029-.0333-.002-.0665-.006-.0996-.0536-3.8311-3.1498-6.90039-6.9941-6.90039-1.96293 0-3.731286.80082-4.999996 2.09375-1.26871-1.29293-3.037065-2.09375-4.999995-2.09375z" fill="url(#a)" opacity=".99"/></g></svg>
