<svg height="128" viewBox="0 0 33.866666 33.866666" width="128" xmlns="http://www.w3.org/2000/svg" xmlns:xlink="http://www.w3.org/1999/xlink"><defs id="antufoldercolor">
    <style type="text/css" id="current-color-scheme">
      .ColorScheme-Highlight {
        color:#45aaf5;
      }
      </style>
  </defs><linearGradient id="a" gradientUnits="userSpaceOnUse" x1="32.499069" x2="32.499069" y1="47.998798" y2="27.998037"><stop offset="0" stop-color="#fff" stop-opacity=".7"/><stop offset="1" stop-color="#fff" stop-opacity=".85"/></linearGradient><linearGradient id="b"><stop offset="0" stop-color="#fff" stop-opacity="0"/><stop offset="1" stop-color="#fff" stop-opacity=".2"/></linearGradient><linearGradient id="c" gradientUnits="userSpaceOnUse" x1="-15.225001" x2="-15.225001" xlink:href="#b" y1="-2.175002" y2="14.824999"/><linearGradient id="d" gradientUnits="userSpaceOnUse" x1="1005.999991" x2="1005.999991" xlink:href="#b" y1="134.00001" y2="31.000003"/><g transform="translate(22.225003 3.175001)"><path d="m-18.78542-1.852084c-1.75437 0-3.175 1.42063523-3.175 3.1750002v24.8708328c0 1.754372 1.42063 3.175 3.175 3.175h26.9875c1.7543727 0 3.175-1.420628 3.175-3.175v-20.6374997c0-1.7543661-1.4206273-3.1750003-3.175-3.1750003h-12.9645806c-.5169191 0-.9456499-.223647-1.37718-.5968629-.4315301-.3732149-.8479896-.89289705-1.2975907-1.425752-.8991997-1.0657152-1.9701378-2.2107181-3.6752287-2.2107181z" style="fill:currentColor"
class="ColorScheme-Highlight"/><path d="m-18.78542-1.852084c-1.754372 0-3.175 1.4206352-3.175 3.1750016v24.8708294c0 1.754371 1.420628 3.175 3.175 3.175h26.9874998c1.754373 0 3.1750002-1.420629 3.1750002-3.175v-20.6374964c0-1.754364-1.4206272-3.175-3.1750002-3.175h-12.964583c-.516916 0-.945647-.223647-1.377183-.59686-.431509-.3732186-.847989-.8928999-1.297596-1.4257549-.899186-1.0657168-1.9701138-2.2107197-3.6752208-2.2107197z" fill-opacity=".080201"/><path d="m-18.78542-1.852084c-1.754372 0-3.175 1.42063523-3.175 3.1750005v24.8708335c0 1.75437 1.420628 3.174999 3.175 3.174999h26.9875c1.7543727 0 3.175-1.420629 3.175-3.174999v-20.6375005c0-1.754366-1.4206273-3.1749997-3.175-3.1749997h-12.9645832c-.5169165 0-.9456473-.223647-1.3771827-.5968629-.4315354-.373216-.8479896-.89289785-1.297596-1.4257528-.8991865-1.0657152-1.9701404-2.2107181-3.6752211-2.2107181zm0 .2645834h7.672917c3.1749998 0 3.9687498 4.2333338 6.3499998 4.2333338h12.9645832c1.6123708 0 2.910417 1.2980574 2.910417 2.9104163v20.6375005c0 1.612368-1.2980462 2.910416-2.910417 2.910416h-26.9875c-1.612371 0-2.910416-1.298048-2.910416-2.910416v-24.8708335c0-1.61236604 1.298045-2.9104171 2.910416-2.9104171z" fill-opacity=".2"/><path d="m-18.78542-1.8520877c-1.754372 0-3.175 1.42063519-3.175 3.1750016v24.8708301c0 1.754371 1.420628 3.175 3.175 3.175h26.9875003c1.754373 0 3.1749997-1.420629 3.1749997-3.175v-20.6374974c0-1.7543637-1.4206267-3.1749997-3.1749997-3.1749997h-12.9645832c-.516916 0-.945647-.223647-1.377183-.59686-.431509-.3732186-.847989-.8928999-1.297596-1.4257549-.899186-1.06571681-1.970114-2.2107197-3.6752211-2.2107197z" fill="url(#c)"/><g transform="matrix(.26458333 0 0 .26458333 -257.96875 -5.820837)"><path d="m959 31.000004c-6.4444 0-10.49209 4.32757-13.89062 8.35547-1.69927 2.01394-3.27332 3.97809-4.9043 5.38867s-3.25137 2.25586-5.20508 2.25586h-31c-6.63068 0-12 5.36933-12 12v62.999996c0 6.63069 5.36932 12 12 12h102c6.6307 0 12-5.36931 12-12v-78.999996c0-6.63067-5.3693-12-12-12z" style="fill:currentColor"
class="ColorScheme-Highlight"/><path d="m959 31.000004c-6.4444 0-10.4921 4.32757-13.89063 8.35546-1.69927 2.01394-3.27331 3.9781-4.90429 5.38868-1.63099 1.41058-3.25138 2.25586-5.20508 2.25586h-31c-6.63068 0-12 5.36932-12 12v62.999996c0 6.63069 5.36932 12 12 12h102c6.6307 0 12-5.36931 12-12v-78.999996c0-6.63068-5.3693-12-12-12z" fill="url(#d)"/><path d="m959 31.000004c-6.4444 0-10.49208 4.32757-13.89062 8.35547-1.69927 2.01394-3.27332 3.97809-4.9043 5.38867-1.63099 1.41058-3.25138 2.25586-5.20508 2.25586h-31c-6.63068 0-12 5.36933-12 12v62.999996c0 6.63069 5.36932 12 12 12h102c6.6307 0 12-5.36931 12-12v-78.999996c0-6.63067-5.3693-12-12-12zm0 1h47c6.094 0 11 4.90605 11 11v78.999996c0 6.09399-4.906 11-11 11h-102c-6.09398 0-11-4.90601-11-11v-62.999996c0-6.09395 4.90601-11 11-11h31c8.99999 0 12.00001-16 24-16z" fill-opacity=".2"/></g></g><g fill="#dcf2ff" transform="matrix(.5291465 0 0 .5291465 47.624331 -137.48575)"><path d="m-72.939602 290.32538c-2.357653-.0144-4.644595.80458-6.457031 2.3125-3.567251 2.967-4.625057 7.99805-2.554688 12.15039 2.070499 4.15264 6.725619 6.33544 11.242188 5.27149 4.516207-1.0639 7.707407-5.09455 7.707031-9.73438h-10l6.017578-7.98633c-1.716954-1.29392-3.8052-2.00004-5.955078-2.01367zm31.939453.002c-4.432003 0-8 3.568-8 8v2 9l2-2 1.9375 2 2.0625-2 2 2 2-2 2 2 2-2 1.999998 2v-9-2c0-4.432-3.567995-8-7.999998-8zm-36.001953 4.99805c1.108 0 2 .89199 2 2s-.892 2-2 2-2-.89199-2-2 .892-2 2-2zm32.501953.002c.830999 0 1.5.669 1.5 1.5s-.669001 1.5-1.5 1.5c-.831005 0-1.5-.669-1.5-1.5s.668995-1.5 1.5-1.5zm7 0c.830999 0 1.5.66899 1.5 1.5 0 .831-.669001 1.5-1.5 1.5-.831006 0-1.5-.669-1.5-1.5 0-.83101.668994-1.5 1.5-1.5zm-21.501953 3.99799c-1.108 0-2 .892-2 2s.892 2 2 2 2-.892 2-2-.892-2-2-2zm6 0c-1.108 0-2 .892-2 2s.892 2 2 2 2-.892 2-2-.892-2-2-2z" fill="#000" fill-opacity=".15"/><path d="m17.060547 28.998047c-2.357653-.01445-4.644595.804583-6.457031 2.3125-3.5672513 2.967001-4.6250575 7.998049-2.5546879 12.150391 2.0704989 4.15264 6.7256189 6.335435 11.2421879 5.271484 4.516207-1.063898 7.707407-5.094546 7.707031-9.734375h-10l6.017578-7.986328c-1.716954-1.29392-3.8052-2.000047-5.955078-2.013672zm31.939453.001953c-4.432003 0-8 3.568-8 8v2 9l2-2 1.9375 2 2.0625-2 2 2 2-2 2 2 2-2 2 2v-9-2c0-4.432-3.567997-8-8-8zm-36.001953 4.998047c1.108 0 2 .891994 2 2s-.892 2-2 2-2-.891994-2-2 .892-2 2-2zm32.501953.001953c.830999 0 1.5.669 1.5 1.5s-.669001 1.5-1.5 1.5c-.831005 0-1.5-.669-1.5-1.5s.668995-1.5 1.5-1.5zm7 0c.830999 0 1.5.66899 1.5 1.5 0 .831-.669001 1.5-1.5 1.5-.831006 0-1.5-.669-1.5-1.5 0-.83101.668994-1.5 1.5-1.5zm-21.501953 3.997992c-1.108 0-2 .892-2 2s.892 2 2 2 2-.892 2-2-.892-2-2-2zm6 0c-1.108 0-2 .892-2 2s.892 2 2 2 2-.892 2-2-.892-2-2-2z" fill="url(#a)" transform="translate(-89.999998 260.82856)"/></g></svg>
