<svg height="128" viewBox="0 0 33.866666 33.866666" width="128" xmlns="http://www.w3.org/2000/svg" xmlns:xlink="http://www.w3.org/1999/xlink"><defs id="antufoldercolor">
    <style type="text/css" id="current-color-scheme">
      .ColorScheme-Highlight {
        color:#45aaf5;
      }
      </style>
  </defs><linearGradient id="a" gradientUnits="userSpaceOnUse" x1="22.340424" x2="22.340424" y1="296.01898" y2="282.61957"><stop offset="0" stop-color="#fff" stop-opacity=".7"/><stop offset="1" stop-color="#fff" stop-opacity=".85"/></linearGradient><linearGradient id="b"><stop offset="0" stop-color="#fff" stop-opacity="0"/><stop offset="1" stop-color="#fff" stop-opacity=".2"/></linearGradient><linearGradient id="c" gradientUnits="userSpaceOnUse" x1="-15.225001" x2="-15.225001" xlink:href="#b" y1="-2.175002" y2="14.824999"/><linearGradient id="d" gradientUnits="userSpaceOnUse" x1="1005.999991" x2="1005.999991" xlink:href="#b" y1="134.00001" y2="31.000003"/><g transform="translate(22.225003 3.175001)"><path d="m-18.78542-1.852084c-1.75437 0-3.175 1.42063523-3.175 3.1750002v24.8708328c0 1.754372 1.42063 3.175 3.175 3.175h26.9875c1.7543727 0 3.175-1.420628 3.175-3.175v-20.6374997c0-1.7543661-1.4206273-3.1750003-3.175-3.1750003h-12.9645806c-.5169191 0-.9456499-.223647-1.37718-.5968629-.4315301-.3732149-.8479896-.89289705-1.2975907-1.425752-.8991997-1.0657152-1.9701378-2.2107181-3.6752287-2.2107181z" style="fill:currentColor"
class="ColorScheme-Highlight"/><path d="m-18.78542-1.852084c-1.754372 0-3.175 1.4206352-3.175 3.1750016v24.8708294c0 1.754371 1.420628 3.175 3.175 3.175h26.9874998c1.754373 0 3.1750002-1.420629 3.1750002-3.175v-20.6374964c0-1.754364-1.4206272-3.175-3.1750002-3.175h-12.964583c-.516916 0-.945647-.223647-1.377183-.59686-.431509-.3732186-.847989-.8928999-1.297596-1.4257549-.899186-1.0657168-1.9701138-2.2107197-3.6752208-2.2107197z" fill-opacity=".080201"/><path d="m-18.78542-1.852084c-1.754372 0-3.175 1.42063523-3.175 3.1750005v24.8708335c0 1.75437 1.420628 3.174999 3.175 3.174999h26.9875c1.7543727 0 3.175-1.420629 3.175-3.174999v-20.6375005c0-1.754366-1.4206273-3.1749997-3.175-3.1749997h-12.9645832c-.5169165 0-.9456473-.223647-1.3771827-.5968629-.4315354-.373216-.8479896-.89289785-1.297596-1.4257528-.8991865-1.0657152-1.9701404-2.2107181-3.6752211-2.2107181zm0 .2645834h7.672917c3.1749998 0 3.9687498 4.2333338 6.3499998 4.2333338h12.9645832c1.6123708 0 2.910417 1.2980574 2.910417 2.9104163v20.6375005c0 1.612368-1.2980462 2.910416-2.910417 2.910416h-26.9875c-1.612371 0-2.910416-1.298048-2.910416-2.910416v-24.8708335c0-1.61236604 1.298045-2.9104171 2.910416-2.9104171z" fill-opacity=".2"/><path d="m-18.78542-1.8520877c-1.754372 0-3.175 1.42063519-3.175 3.1750016v24.8708301c0 1.754371 1.420628 3.175 3.175 3.175h26.9875003c1.754373 0 3.1749997-1.420629 3.1749997-3.175v-20.6374974c0-1.7543637-1.4206267-3.1749997-3.1749997-3.1749997h-12.9645832c-.516916 0-.945647-.223647-1.377183-.59686-.431509-.3732186-.847989-.8928999-1.297596-1.4257549-.899186-1.06571681-1.970114-2.2107197-3.6752211-2.2107197z" fill="url(#c)"/><g transform="matrix(.26458333 0 0 .26458333 -257.96875 -5.820837)"><path d="m959 31.000004c-6.4444 0-10.49209 4.32757-13.89062 8.35547-1.69927 2.01394-3.27332 3.97809-4.9043 5.38867s-3.25137 2.25586-5.20508 2.25586h-31c-6.63068 0-12 5.36933-12 12v62.999996c0 6.63069 5.36932 12 12 12h102c6.6307 0 12-5.36931 12-12v-78.999996c0-6.63067-5.3693-12-12-12z" style="fill:currentColor"
class="ColorScheme-Highlight"/><path d="m959 31.000004c-6.4444 0-10.4921 4.32757-13.89063 8.35546-1.69927 2.01394-3.27331 3.9781-4.90429 5.38868-1.63099 1.41058-3.25138 2.25586-5.20508 2.25586h-31c-6.63068 0-12 5.36932-12 12v62.999996c0 6.63069 5.36932 12 12 12h102c6.6307 0 12-5.36931 12-12v-78.999996c0-6.63068-5.3693-12-12-12z" fill="url(#d)"/><path d="m959 31.000004c-6.4444 0-10.49208 4.32757-13.89062 8.35547-1.69927 2.01394-3.27332 3.97809-4.9043 5.38867-1.63099 1.41058-3.25138 2.25586-5.20508 2.25586h-31c-6.63068 0-12 5.36933-12 12v62.999996c0 6.63069 5.36932 12 12 12h102c6.6307 0 12-5.36931 12-12v-78.999996c0-6.63067-5.3693-12-12-12zm0 1h47c6.094 0 11 4.90605 11 11v78.999996c0 6.09399-4.906 11-11 11h-102c-6.09398 0-11-4.90601-11-11v-62.999996c0-6.09395 4.90601-11 11-11h31c8.99999 0 12.00001-16 24-16z" fill-opacity=".2"/><g transform="matrix(3.7795277 0 0 3.7795277 882.5637445158 -1000.81196099705)"><path d="m20.592723 282.79025c-1.930665-.0281-3.790498.72646-5.155758 2.09186-2.043101 2.04304-2.654355 5.11562-1.548742 7.78505 1.105703 2.66954 3.710655 4.4101 6.600113 4.41006h15.08125v-1.32291h-15.08125c-.194148.00005-.388177-.01-.581359-.0289-.193056-.0195-.385015-.0487-.575159-.0873-.190207-.0385-.378373-.0864-.56379-.14366-.185283-.0573-.367583-.12392-.54622-.19946-.178779-.0756-.353664-.16012-.523999-.25321-.170326-.093-.335897-.19437-.496093-.30387-.16012-.10967-.314653-.2273-.463021-.35243-.148456-.12494-.290571-.25723-.425814-.39635-.135193-.13925-.263339-.28516-.383956-.43718-.120648-.15205-.233617-.31003-.338481-.47336-.104996-.16335-.201752-.33186-.289904-.50488-.06873-.13493-.132168-.27251-.19017-.41238-.07422-.17939-.139408-.36238-.195337-.54828-.05607-.18583-.102808-.37434-.140043-.56483-.03714-.19039-.06473-.38252-.08268-.57567-.01796-.19325-.02623-.38728-.02481-.58136.0015-.19406.01272-.38792.03359-.58086.02072-.19293.05107-.38472.09095-.57463.04002-.18994.08952-.37776.148312-.56275.05857-.185.126347-.36696.203088-.54519.07703-.17816.162918-.35235.257349-.52193.09419-.1697.196811-.33458.307475-.49403.110763-.15931.229422-.31298.355533-.46044.09845-.11525.201365-.22661.308508-.33383.137241-.13716.281253-.26737.431499-.39015.150212-.1228.30647-.23801.468188-.3452.161854-.10734.328978-.20651.500745-.29714.171669-.0906.347761-.17249.527616-.24546.179806-.0729.363142-.13667.549321-.19121.186235-.0547.375089-.10007.565856-.13591.190636-.0358.38294-.062.576193-.0785.193321-.0166.387349-.0235.581359-.0207.194123.003.38798.0155.580844.0377.19284.0221.384455.0538.574125.0951.189666.0414.377141.0923.561723.15245.1441.0468.286319.0992.42633.15709.179234.0744.354636.15769.525549.2496.170953.0917.337214.19192.498161.30024.160919.10844.316315.22486.465605.34882.149451.12402.292601.25544.428914.39377.136172.13816.265352.28303.387057.43408.12181.15113.235986.30825.342098.47078.105991.16261.203781.33042.293005.50281.08921.17226.169754.34886.241329.52915.07167.18039.134281.36425.187586.55089.05335.18664.09733.37583.131775.56689.0344.19087.05923.38335.07441.57671.01177.15112.01763.30265.01757.45422h1.322916c.000041-2.88945-1.740537-5.4944-4.410068-6.6001-.83423-.34559-1.726415-.52988-2.629296-.54312zm-.02687 1.85208c-1.430196-.021-2.807978.53787-3.819405 1.54926-1.513566 1.51343-1.966357 3.78963-1.147217 5.76709.819134 1.97737 2.748778 3.2666 4.889107 3.26647h15.081248v-1.32292h-15.08125c-.132363.00007-.264648-.006-.396358-.0196-.13165-.0132-.262554-.0331-.392224-.0594-.129715-.0263-.258033-.0591-.384473-.0982-.126383-.0391-.250734-.0844-.372587-.13591-.12183-.0516-.241007-.10915-.357084-.1726-.116036-.0634-.228831-.13256-.337964-.20722-.109364-.0748-.214916-.15497-.316259-.24029-.101076-.0852-.197832-.17541-.289905-.27027-.09225-.095-.179694-.19447-.262-.29817-.08215-.10358-.15907-.21121-.230476-.32247-.0715-.11136-.137382-.22622-.197405-.34416-.04689-.0922-.09016-.18611-.129707-.28164-.05064-.12224-.09514-.24694-.133325-.37362-.03826-.12666-.07017-.25515-.0956-.38499-.02531-.12989-.04411-.26097-.05633-.39274-.01229-.13175-.01798-.26404-.01705-.39636.000979-.13224.0086-.26435.02274-.39584.01411-.1317.03481-.26259.06201-.39222.02735-.12942.06115-.25739.101285-.38344.03995-.12608.08617-.25008.138493-.37155.05242-.12153.110889-.24037.175183-.35606.06427-.11574.134296-.22819.209807-.33693.07551-.10853.1564-.21321.242362-.31367.06711-.0787.137273-.1547.210323-.22789.09368-.0936.191993-.1824.294556-.26614.102468-.0836.209055-.16212.31936-.23513.110241-.0732.224071-.14077.341065-.20257.117022-.0618.237062-.11765.359668-.16743.122636-.0496.247677-.0931.374654-.13022.12688-.0372.255543-.0681.385506-.0925.130108-.0245.261358-.0424.393257-.0537.131804-.0113.264088-.0159.396359-.014.132286.002.264398.0103.395841.0253.131574.0151.262307.0369.391707.0651.129119.0282.256747.0629.382406.10387.09834.032.195396.0679.290938.10749.122296.0505.24199.10706.358635.1695.116521.0627.229833.13115.339514.20515.109835.0739.215904.15323.31781.23772.101731.0845.199177.17399.291972.2682.0929.0942.181036.19306.264066.2961.08299.10302.160771.21012.233061.3209.07235.11098.139094.2255.199988.34314.06093.11741.115944.23779.164848.36071.04878.12302.09138.2484.127641.37568.03638.1271.06639.25593.08992.38603.02344.13033.04034.26175.05064.39377.008.10298.01195.20624.01188.30954h1.322915c.000127-2.14033-1.28909-4.06996-3.266468-4.8891-.617985-.2559-1.278882-.39234-1.947685-.40205zm-.02739 1.85209c-.929623-.0136-1.825152.34973-2.482536 1.00717-.983423.98375-1.277515 2.46298-.745174 3.74809.532333 1.28525 1.786447 2.12331 3.177583 2.12339h15.08125v-1.32292h-15.08125c-.07058.00008-.14112-.003-.211356-.0103-.07025-.007-.140104-.0179-.20929-.032-.06904-.014-.137336-.0314-.204638-.0522-.06748-.0208-.133884-.045-.198954-.0724-.06506-.0275-.128699-.0582-.190687-.092-.06192-.0338-.122114-.0707-.180351-.11059-.05826-.0399-.114482-.0827-.168465-.12815-.05387-.0455-.105441-.0936-.154512-.14418-.04931-.0507-.09605-.10381-.140043-.15917-.04384-.0553-.08489-.11271-.12299-.17208-.038-.0594-.07301-.12059-.104903-.18345-.02504-.0492-.04813-.0994-.06925-.15038-.02707-.0651-.05087-.13148-.07131-.19895-.0203-.0677-.03721-.13631-.05064-.20567-.01347-.0692-.02347-.13907-.02997-.20929-.0066-.0702-.0097-.1408-.0093-.21136.000608-.0706.0047-.14116.0124-.21136.0075-.0701.01858-.13977.03307-.20877.01449-.0691.03243-.13737.05374-.20464.02131-.0673.04597-.13357.0739-.19844.028-.0647.05922-.12803.09353-.18965.0342-.0616.07145-.12144.111621-.17932.0404-.0581.08369-.11416.129708-.16794.03579-.0417.0732-.0821.112138-.12093.04979-.05.102051-.0974.156579-.14211.05471-.0447.111628-.0866.170533-.12557.0588-.039.119505-.075.181901-.108.06238-.033.126362-.0628.191719-.0894.06546-.0264.132211-.0495.199988-.0692.06769-.0199.136331-.0365.205672-.0496.06942-.013.139441-.0224.209806-.0284.07028-.006.140816-.009.211357-.008.07047.001.140837.006.21084.014.07012.008.139802.0196.208773.0346.06892.015.137045.0335.204121.0553.05241.0171.10412.0363.15503.0574.0652.0269.129015.0571.191202.0904.06225.0335.12279.07.181385.10955.05858.0394.115144.0816.169498.12661.0542.0451.106114.0929.155547.14314.04964.0503.09672.1031.141076.15813.04416.0549.08555.112.124023.17105.03867.059.07438.11987.106971.18242.03248.0627.0618.12707.08785.19275.02607.0657.04883.13258.06821.20051.01926.0677.03512.13637.04754.20567.01262.0694.02176.13946.02739.20981.0042.055.0063.11018.0062.16536h1.322917c-.000081-1.39114-.838129-2.64524-2.123385-3.17758-.401704-.1664-.831314-.25514-1.266072-.26149z" fill-opacity=".15"/><path d="m20.592723 282.52567c-1.930665-.0281-3.790497.72646-5.155757 2.09186-2.043102 2.04304-2.654356 5.11562-1.548743 7.78506 1.105703 2.66953 3.710655 4.4101 6.600114 4.41006h15.081249v-1.32291h-15.081249c-.194148.00005-.388177-.01-.58136-.0289-.193055-.0195-.385015-.0487-.575159-.0873-.190207-.0385-.378372-.0864-.563789-.14366-.185283-.0573-.367584-.12392-.54622-.19947-.178779-.0756-.353664-.16012-.523999-.25321-.170326-.093-.335897-.19437-.496094-.30386-.160119-.10968-.314653-.22731-.463021-.35243-.148455-.12494-.29057-.25723-.425814-.39636-.135193-.13924-.263338-.28515-.383955-.43718-.120649-.15205-.233617-.31003-.338481-.47336-.104996-.16335-.201752-.33186-.289905-.50488-.06873-.13493-.132167-.2725-.190169-.41238-.07422-.17939-.139409-.36238-.195337-.54828-.05607-.18583-.102808-.37434-.140043-.56483-.03714-.19039-.06473-.38252-.08268-.57567-.01795-.19325-.02623-.38728-.0248-.58136.0015-.19406.01272-.38791.03359-.58085.02072-.19294.05107-.38473.09095-.57464.04002-.18994.08952-.37776.148311-.56275.05857-.185.126347-.36696.203089-.54519.07703-.17816.162917-.35235.257348-.52193.09419-.1697.196811-.33458.307475-.49403.110763-.15931.229423-.31298.355534-.46044.09845-.11525.201365-.22661.308508-.33383.13724-.13716.281253-.26737.431498-.39015.150213-.1228.306471-.23801.468189-.3452.161853-.10734.328977-.20651.500744-.29714.17167-.0906.347762-.17249.527617-.24546.179806-.0729.363141-.13667.54932-.19121.186235-.0547.37509-.10007.565857-.13591.190635-.0358.382939-.062.576192-.0785.193321-.0166.38735-.0235.58136-.0207.194122.003.387979.0155.580843.0377.192841.0221.384455.0538.574125.0951.189666.0414.377142.0923.561723.15245.144101.0468.286319.0992.426331.15709.179234.0744.354636.15769.525549.2496.170953.0917.337214.19192.498161.30024.160918.10844.316314.22486.465604.34882.149451.12402.292602.25544.428915.39377.136171.13816.265351.28303.387056.43408.12181.15113.235986.30825.342098.47078.105991.16261.203782.33042.293005.50281.08921.17226.169754.34886.241329.52916.07167.18039.134281.36424.187586.55088.05335.18664.09733.37584.131775.56689.0344.19087.05923.38335.07441.57671.01177.15112.01763.30265.01757.45423h1.322916c.000042-2.88946-1.740536-5.49441-4.410066-6.60011-.83423-.34559-1.726416-.52988-2.629297-.54312zm-.02687 1.85208c-1.430196-.021-2.807978.53787-3.819405 1.54926-1.513565 1.51343-1.966357 3.78963-1.147217 5.76709.819135 1.97738 2.748779 3.2666 4.889107 3.26647h15.08125v-1.32292h-15.081251c-.132364.00008-.264649-.006-.396358-.0196-.13165-.0132-.262555-.0331-.392225-.0594-.129714-.0263-.258032-.0591-.384472-.0982-.126383-.0391-.250734-.0844-.372587-.13591-.12183-.0516-.241007-.10915-.357084-.1726-.116037-.0634-.228832-.13256-.337964-.20722-.109364-.0748-.214917-.15497-.31626-.24029-.101076-.0852-.197831-.17541-.289905-.27027-.09225-.095-.179694-.19447-.261999-.29817-.08215-.10358-.15907-.21121-.230477-.32247-.0715-.11136-.137382-.22622-.197404-.34416-.04689-.0922-.09016-.18611-.129708-.28164-.05064-.12224-.09514-.24694-.133325-.37362-.03826-.12666-.07017-.25515-.0956-.38499-.02531-.12989-.04411-.26097-.05633-.39274-.01229-.13175-.01798-.26404-.01705-.39636.000979-.13224.0086-.26435.02274-.39584.01411-.1317.03481-.26259.06201-.39222.02735-.12942.06115-.25739.101286-.38344.03994-.12608.08617-.25008.138493-.37155.05242-.12153.110888-.24037.175183-.35606.06427-.11574.134295-.22819.209806-.33693.07551-.10853.156401-.21321.242363-.31367.06711-.0787.137273-.1547.210323-.22789.09368-.0936.191992-.1824.294555-.26614.102469-.0836.209055-.16212.319361-.23513.11024-.0732.22407-.14077.341064-.20257.117023-.0618.237062-.11765.359668-.16743.122636-.0496.247677-.0931.374654-.13022.126881-.0372.255544-.0681.385506-.0925.130109-.0245.261358-.0424.393258-.0537.131803-.0113.264088-.0159.396358-.014.132287.002.264399.0103.395842.0253.131573.0151.262306.0369.391707.0651.129118.0282.256746.0629.382406.10387.09834.032.195396.0679.290938.10749.122295.0505.24199.10706.358634.1695.116521.0627.229833.13115.339514.20515.109835.0739.215905.15323.31781.23772.101731.0845.199178.17399.291972.2682.0929.0942.181036.19306.264067.2961.08299.10302.160771.21012.233061.32091.07235.11097.139093.22549.199987.34313.06093.11741.115944.2378.164848.36071.04878.12302.09138.2484.127641.37568.03638.1271.06639.25594.08992.38603.02344.13033.04034.26175.05064.39377.008.10299.01195.20624.01188.30954h1.322915c.000129-2.14033-1.289089-4.06996-3.266467-4.8891-.617984-.2559-1.278882-.39234-1.947684-.40205zm-.02739 1.85209c-.929622-.0136-1.825152.34973-2.482535 1.00717-.983423.98375-1.277516 2.46298-.745175 3.74809.532334 1.28526 1.786448 2.12331 3.177584 2.12339h15.08125v-1.32292h-15.08125c-.07058.00009-.14112-.003-.211357-.0103-.07025-.007-.140103-.0179-.209289-.032-.06904-.014-.137337-.0314-.204639-.0522-.06748-.0208-.133884-.045-.198954-.0724-.06506-.0275-.128699-.0582-.190686-.092-.06192-.0338-.122115-.0707-.180351-.11059-.05826-.0399-.114483-.0827-.168465-.12815-.05387-.0455-.105441-.0936-.154513-.14418-.04931-.0507-.09605-.10381-.140043-.15917-.04384-.0553-.08489-.11271-.12299-.17208-.038-.0594-.07301-.12059-.104903-.18345-.02504-.0492-.04813-.0994-.06925-.15038-.02707-.0651-.05087-.13148-.07131-.19895-.0203-.0677-.0372-.13631-.05064-.20567-.01347-.0692-.02347-.13907-.02997-.20929-.0066-.0702-.0097-.1408-.0093-.21136.000609-.0706.0047-.14116.0124-.21136.0075-.0701.01858-.13977.03307-.20877.01449-.0691.03243-.13737.05374-.20464.02131-.0673.04597-.13357.0739-.19844.028-.0647.05922-.12803.09353-.18965.0342-.0616.07145-.12144.111622-.17932.0404-.0581.08369-.11416.129707-.16794.03579-.0417.0732-.0821.112138-.12093.04979-.05.102052-.0974.15658-.14211.05471-.0447.111628-.0866.170532-.12557.0588-.039.119505-.075.181901-.108.06238-.033.126363-.0628.19172-.0894.06546-.0264.132211-.0495.199987-.0692.06769-.0199.136331-.0365.205673-.0496.06942-.013.139441-.0224.209806-.0284.07028-.006.140815-.009.211357-.008.07047.001.140836.006.210839.014.07012.008.139802.0196.208773.0346.06892.015.137045.0335.204122.0553.05241.0171.10412.0363.155029.0574.0652.0269.129016.0571.191203.0904.06225.0335.12279.07.181384.10955.05857.0394.115145.0816.169499.12661.0542.0451.106114.0929.155546.14314.04964.0503.09672.1031.141077.15813.04416.0549.08555.112.124023.17105.03867.059.07437.11987.10697.18242.03248.0627.0618.12707.08785.19275.02607.0657.04884.13258.06821.20051.01926.0677.03513.13637.04754.20567.01262.0694.02176.13946.02739.20981.0042.055.0063.11018.0062.16536h1.322917c-.000081-1.39114-.838129-2.64524-2.123385-3.17758-.401703-.1664-.831314-.25514-1.266072-.26149z" fill="url(#a)"/></g></g></g></svg>
