<svg height="128" viewBox="0 0 128 128" width="128" xmlns="http://www.w3.org/2000/svg" xmlns:xlink="http://www.w3.org/1999/xlink"><defs id="antufoldercolor">
    <style type="text/css" id="current-color-scheme">
      .ColorScheme-Highlight {
        color:#45aaf5;
      }
      </style>
  </defs><linearGradient id="a" gradientUnits="userSpaceOnUse" x1="166.999993" x2="166.999993" y1="382.650039" y2="270.650013"><stop offset="0" stop-color="#2f425a"/><stop offset="1" stop-color="#374c62"/></linearGradient><linearGradient id="b" gradientUnits="userSpaceOnUse" x1="167.000003" x2="167.000003" y1="374.650027" y2="278.649912"><stop offset="0" stop-color="#fff" stop-opacity="0"/><stop offset="1" stop-color="#fff" stop-opacity=".2"/></linearGradient><linearGradient id="c" gradientUnits="userSpaceOnUse" x1="166.99999" x2="166.99999" y1="370.649999" y2="298.649999"><stop offset="0" stop-color="#fff" stop-opacity=".7"/><stop offset="1" stop-color="#fff" stop-opacity=".85"/></linearGradient><g stroke-linecap="round" stroke-linejoin="round" stroke-miterlimit="1.8" transform="translate(-103 -262.64999)"><path d="m116 267.64999h101.99999c6.648 0 12 5.352 12 12v95.00005c0 6.648-5.352 12-12 12h-101.99999c-6.648 0-12-5.352-12-12v-95.00005c0-6.648 5.352-12 12-12z" fill="#223240" stroke-width="2"/><path d="m116 268.65001h102c6.09401 0 11.00001 4.90602 11.00001 11.00002v95.00001c0 6.094-4.906 10.99998-11.00001 10.99998h-102c-6.094 0-11-4.90598-11-10.99998v-95.00001c0-6.094 4.906-11.00002 11-11.00002z" fill="url(#a)" stroke-width="2"/><path d="m116 272.64996h101.99999c3.878 0 7.00001 3.12201 7.00001 6.99999v94.9999c0 3.87802-3.12201 7.00003-7.00001 7.00003h-101.99999c-3.878 0-7-3.12201-7-7.00003v-94.9999c0-3.87798 3.122-6.99999 7-6.99999z" fill="#223240" stroke-width="1.90772"/><path d="m116 273.64999h101.99999c3.324 0 6 2.67598 6 6v95.00001c0 3.32398-2.676 6-6 6h-101.99999c-3.324 0-6-2.67602-6-6v-95.00001c0-3.32402 2.676-6 6-6z" style="fill:currentColor"
class="ColorScheme-Highlight" stroke-width="1.89315"/><path d="m116 273.64999h102c3.32398 0 6 2.67598 6 6v95.00001c0 3.32398-2.67602 6-6 6h-102c-3.32401 0-6-2.67602-6-6v-95.00001c0-3.32402 2.67599-6 6-6z" fill="url(#b)" stroke-width="1.89315"/><g stroke-width="2"><path d="m131.33398 292.64999c-1.29266 0-2.33398 1.04137-2.33398 2.33401v30.33203c0 1.29267 1.04132 2.33397 2.33398 2.33397h40.33203c1.29267 0 2.33398-1.0413 2.33398-2.33397v-30.33203c0-1.29264-1.04131-2.33401-2.33398-2.33401zm46.66601 18v5.00001.99999 10.00002c0 .0865-.002.17235-.006.25776-.004.0854-.011.1697-.0197.25399-.009.0843-.0185.16894-.0314.25209-.0125.0828-.0283.16441-.0449.24605-.0166.0816-.034.16214-.0547.24227-.0204.0801-.0441.15987-.0684.23811-.0242.0782-.0502.15571-.0781.23244-.028.0767-.0583.15156-.0898.22677-.0314.0748-.0646.14967-.0996.22261-.0352.0729-.071.144-.10938.21468-.0384.0711-.0794.14022-.1211.20901-.0417.0688-.0841.13644-.12892.20296-.0448.0665-.0908.13304-.13867.19729-.0479.0642-.0976.12586-.14842.18747-.0509.0616-.10447.12245-.15821.18179-.0537.059-.10757.11717-.16407.17386-.0565.0563-.11467.11036-.17382.16403-.0592.0537-.11996.10734-.18165.15836-.0617.0506-.12336.10054-.1875.14854-.0641.048-.13077.0937-.19725.13871-.0665.045-.1344.0873-.20311.12888-.0687.0416-.13815.0828-.20897.12094-.0709.0385-.142.0745-.21483.10923-.0729.034-.14782.0677-.22265.0994-.0748.0302-.14994.062-.22659.0899-.0767.0265-.15401.0541-.23244.0782-.0784.0227-.15829.048-.2383.0684-.08.0189-.16067.0382-.24219.0548-.0815.0151-.16316.034-.24608.045-.0829.0113-.1677.0227-.25195.0302-.0842.008-.16845.0151-.25391.0189-.0855.004-.17125.008-.2578.008h-6-4-5v11.66605c0 1.29267 1.04132 2.33397 2.33398 2.33397h40.33209c1.29267 0 2.33399-1.0413 2.33399-2.33397v-30.33203c0-1.29264-1.04132-2.33402-2.33399-2.33402zm-63 46.00002v7.99998 2.00001 2.00001 3 1.99998c0 1.66197 1.33801 3 3 3h3 2.00001 13.99999 59 15 1.92187 1.07813 2c1.662 0 3-1.33803 3-3v-1.99998-3-2.00001-2.00001-7.99998h-8-87.99999z" fill-opacity=".15"/><path d="m131.33398 291.64999c-1.29266 0-2.33398 1.04137-2.33398 2.33401v30.33203c0 1.29267 1.04132 2.33397 2.33398 2.33397h40.33203c1.29267 0 2.33398-1.0413 2.33398-2.33397v-30.33203c0-1.29264-1.04131-2.33401-2.33398-2.33401zm46.66601 18v5.00001.99999 10.00002c0 .0865-.002.17234-.006.25776-.004.0854-.011.1697-.0196.25399-.009.0843-.0185.16894-.0314.25209-.0125.0828-.0283.16441-.0449.24605-.0166.0816-.034.16214-.0547.24226-.0204.0801-.0441.15988-.0684.23811-.0242.0782-.0502.15572-.0781.23245-.028.0767-.0583.15155-.0898.22677-.0314.0748-.0646.14967-.0996.22261-.0351.0729-.071.144-.10938.21468-.0384.0711-.0794.14022-.1211.20901-.0417.0688-.0841.13644-.12892.20296-.0448.0665-.0908.13304-.13867.19729-.0479.0642-.0976.12586-.14842.18746-.0509.0616-.10447.12246-.15821.1818-.0537.059-.10757.11716-.16407.17386-.0565.0563-.11467.11036-.17382.16403-.0592.0537-.11997.10734-.18165.15836-.0617.0506-.12336.10054-.1875.14854-.0641.048-.13077.0937-.19725.1387-.0665.045-.1344.0873-.20312.12889-.0687.0416-.13814.0828-.20897.12094-.0709.0385-.14195.0745-.21482.10923-.0729.034-.14782.0677-.22266.0994-.0748.0302-.14989.062-.22654.0899-.0767.0265-.15402.0541-.23244.0782-.0784.0227-.15825.048-.23826.0684-.08.0189-.16067.0382-.2422.0548-.0815.0151-.16316.034-.24608.045-.0829.0113-.1677.0227-.25194.0302-.0842.008-.16846.0151-.25391.0189-.0855.004-.17125.008-.2578.008h-6-4-5v11.66604c0 1.29267 1.04132 2.33397 2.33398 2.33397h40.33209c1.29267 0 2.33399-1.0413 2.33399-2.33397v-30.33203c0-1.29264-1.04132-2.33401-2.33399-2.33401zm-63 46.00002v7.99998 2.00001 2.00001 3 1.99998c0 1.66197 1.33801 3 3 3h3 2.00001 13.99999 59 15 1.92187 1.07813 2c1.662 0 3-1.33803 3-3v-1.99998-3-2.00001-2.00001-7.99998h-8-87.99999z" fill="url(#c)"/></g></g></svg>
