<?xml version="1.0" encoding="UTF-8"?>
<!-- Created with Inkscape (http://www.inkscape.org/) -->
<svg width="16" height="16" version="1.1" xmlns="http://www.w3.org/2000/svg" xmlns:cc="http://creativecommons.org/ns#" xmlns:dc="http://purl.org/dc/elements/1.1/" xmlns:rdf="http://www.w3.org/1999/02/22-rdf-syntax-ns#">
	<defs>
		<style id="current-color-scheme" type="text/css">.ColorScheme-Text {color:#090d11;}.ColorScheme-Background{color:#ffffff;}</style>
	</defs>
	<metadata>
		<rdf:RDF>
			<cc:Work rdf:about="">
				<dc:format>image/svg+xml</dc:format>
				<dc:type rdf:resource="http://purl.org/dc/dcmitype/StillImage"/>
			</cc:Work>
		</rdf:RDF>
	</metadata>
	<path id="d" class="ColorScheme-Text" d="m13.043 1.1191c-0.3373 0.00744-0.66197 0.1871-0.84375 0.50195-0.277 0.47978-0.11454 1.0882 0.36523 1.3652l0.86719 0.5c0.47978 0.277 1.0882 0.11454 1.3652-0.36523 0.277-0.47978 0.11454-1.0902-0.36523-1.3672l-0.86719-0.5c-0.11994-0.06925-0.24804-0.1108-0.37695-0.12695-0.04834-0.00606-0.09635-0.00888-0.14453-0.00781zm-11.695 0.38086 4.2441 11.732 0.14453-2.4023 1.2207-2.1152-2.6094-7.2148zm9.8516 1.8535-4.5 7.793-0.20117 3.3496 2.7988-1.8496 4.5-7.793z" style="fill-opacity:.75;fill:currentColor"/>
	<path id="c" class="ColorScheme-Background" d="m12.953 0.10938c-0.12848 0.009415-0.25667 0.031176-0.38086 0.064453-0.49677 0.13311-0.94412 0.45349-1.2168 0.92578-0.19326 0.33473-0.15216 0.70903-0.13672 1.0742l-0.36328-0.20898-0.5 0.86523-2.7441 4.7539-2.5625-7.084h-5.127l0.48633 1.3398 4.2441 11.732 0.92773-0.13281-0.17773 2.9707 4.6641-3.0801 5.1191-8.8652-0.36328-0.20898c0.32462-0.16922 0.66974-0.32102 0.86328-0.65625 0.54535-0.94458 0.21216-2.1871-0.73242-2.7324l-0.86523-0.5c-0.35422-0.20451-0.7493-0.28606-1.1348-0.25781zm0.08984 1.0098c0.04819-0.00106 0.09619 0.00176 0.14453 0.00781 0.12891 0.016152 0.25701 0.057706 0.37695 0.12695l0.86719 0.5c0.47978 0.277 0.64223 0.8874 0.36523 1.3672-0.277 0.47978-0.88549 0.64223-1.3652 0.36523l-0.86719-0.5c-0.47978-0.277-0.64223-0.88549-0.36523-1.3652 0.18178-0.31485 0.50645-0.49451 0.84375-0.50195zm-11.695 0.38086h3l2.6094 7.2148-1.2207 2.1152-0.14453 2.4023zm9.8516 1.8535 2.5977 1.5-4.5 7.793-2.7988 1.8496 0.072266-1.2012 0.019531-2e-3 0.13086-2.168 1.334-2.3125-0.00391-0.00781z" style="fill-opacity:.5;fill:currentColor"/>
</svg>
