<?xml version="1.0" encoding="UTF-8" standalone="no"?>
<!-- Created with Inkscape (http://www.inkscape.org/) -->

<svg
   width="48"
   height="48"
   viewBox="0 0 48 48"
   version="1.1"
   id="svg8"
   inkscape:version="1.2.2 (b0a8486541, 2022-12-01)"
   sodipodi:docname="application-x-audacity-project.svg"
   xml:space="preserve"
   xmlns:inkscape="http://www.inkscape.org/namespaces/inkscape"
   xmlns:sodipodi="http://sodipodi.sourceforge.net/DTD/sodipodi-0.dtd"
   xmlns:xlink="http://www.w3.org/1999/xlink"
   xmlns="http://www.w3.org/2000/svg"
   xmlns:svg="http://www.w3.org/2000/svg"
   xmlns:rdf="http://www.w3.org/1999/02/22-rdf-syntax-ns#"
   xmlns:cc="http://creativecommons.org/ns#"
   xmlns:dc="http://purl.org/dc/elements/1.1/"><title
     id="title7895">Antu icon Theme</title><defs
     id="defs2"><linearGradient
       inkscape:collect="always"
       id="linearGradient2437"><stop
         style="stop-color:#306dee;stop-opacity:1;"
         offset="0"
         id="stop2433" /><stop
         style="stop-color:#5795fb;stop-opacity:1;"
         offset="1"
         id="stop2435" /></linearGradient><style
       id="current-color-scheme"
       type="text/css">
      .ColorScheme-Text {
        color:#122036;
      }
      </style><style
       id="current-color-scheme-2"
       type="text/css">
      .ColorScheme-Text {
        color:#122036;
      }
      </style><style
       id="current-color-scheme-0"
       type="text/css">
      .ColorScheme-Text {
        color:#122036;
      }
      </style><linearGradient
       inkscape:collect="always"
       xlink:href="#linearGradient2437"
       id="linearGradient2439"
       x1="57.167561"
       y1="284.92191"
       x2="57.167561"
       y2="245.92191"
       gradientUnits="userSpaceOnUse" /></defs><sodipodi:namedview
     id="base"
     pagecolor="#ffffff"
     bordercolor="#666666"
     borderopacity="1.0"
     inkscape:pageopacity="0.0"
     inkscape:pageshadow="2"
     inkscape:zoom="11.313709"
     inkscape:cx="53.253977"
     inkscape:cy="27.930717"
     inkscape:document-units="px"
     inkscape:current-layer="g2217"
     showgrid="true"
     units="px"
     inkscape:window-width="2560"
     inkscape:window-height="1363"
     inkscape:window-x="0"
     inkscape:window-y="0"
     inkscape:window-maximized="1"
     objecttolerance="10"
     gridtolerance="10"
     guidetolerance="10"
     inkscape:snap-bbox="true"
     inkscape:bbox-paths="true"
     inkscape:bbox-nodes="true"
     inkscape:snap-bbox-edge-midpoints="true"
     inkscape:snap-bbox-midpoints="true"
     inkscape:object-paths="true"
     inkscape:snap-intersection-paths="true"
     inkscape:showpageshadow="2"
     inkscape:pagecheckerboard="0"
     inkscape:deskcolor="#d1d1d1"><inkscape:grid
       type="xygrid"
       id="grid7897"
       empspacing="4" /></sodipodi:namedview><metadata
     id="metadata5"><rdf:RDF><cc:Work
         rdf:about=""><dc:format>image/svg+xml</dc:format><dc:type
           rdf:resource="http://purl.org/dc/dcmitype/StillImage" /><dc:title>Antu icon Theme</dc:title></cc:Work></rdf:RDF></metadata><g
     inkscape:label="Capa 1"
     inkscape:groupmode="layer"
     id="layer1"
     transform="translate(0,-266.64999)"><g
       id="g2217"
       transform="translate(30.000001,16.999985)"><g
         id="g49676"
         transform="translate(-33.000001,-33.99999)"><g
           id="g8745"
           transform="translate(-30.16756,41.728085)"><path
             inkscape:connector-curvature="0"
             id="rect6397-1-8"
             d="m 41.16756,243.92191 h 32 c 1.662,0 3,1.33798 3,3 v 38 c 0,1.66197 -1.338,3 -3,3 h -32 c -1.661998,0 -3,-1.33803 -3,-3 v -38 c 0,-1.66202 1.338002,-3 3,-3 z"
             style="opacity:1;fill:#145cd8;fill-opacity:1;stroke:none;stroke-width:6;stroke-linecap:square;stroke-linejoin:round;stroke-miterlimit:18;stroke-dasharray:none;stroke-dashoffset:0;stroke-opacity:1;paint-order:markers stroke fill" /><path
             sodipodi:nodetypes="sssssssss"
             inkscape:connector-curvature="0"
             id="rect6399-4-97"
             d="m 41.16756,244.92191 h 32 c 1.108001,0 2,0.892 2,2.00001 v 38 c 0,1.10797 -0.891999,1.99997 -2,1.99997 h -32 c -1.107998,0 -2,-0.892 -2,-1.99997 v -38 c 0,-1.10801 0.892002,-2.00001 2,-2.00001 z"
             style="opacity:1;fill:url(#linearGradient2439);fill-opacity:1;stroke:none;stroke-width:6;stroke-linecap:square;stroke-linejoin:round;stroke-miterlimit:18;stroke-dasharray:none;stroke-dashoffset:0;stroke-opacity:1;paint-order:markers stroke fill" /></g><g
           id="path47998"
           style="fill:#fafcff;fill-opacity:1"
           transform="translate(-429,-52.499965)"><path
             id="path377-2"
             style="color:#000000;fill:#145cd8;fill-opacity:1;stroke-linecap:round;stroke-linejoin:round;stroke-miterlimit:1.8;paint-order:stroke fill markers"
             d="m 456,349.14996 c -6.09394,0 -11,4.90606 -11,11 v 1.25977 c -0.83003,0.57808 -1.54014,1.33548 -2.0625,2.24023 -1.24963,2.16442 -1.24963,4.83558 0,7 1.24963,2.16442 3.56325,3.5 6.0625,3.5 a 1.0001,1.0001 0 0 0 1,-1 v -5 h 1.95508 a 1.0001,1.0001 0 0 0 0.92773,-0.62891 l 0.9375,-2.34375 2.17774,7.25977 a 1.0001,1.0001 0 0 0 1.88476,0.084 l 1.75,-4.37109 H 462 v 5 a 1.0001,1.0001 0 0 0 1,1 c 2.49925,0 4.81287,-1.33558 6.0625,-3.5 1.24963,-2.16442 1.24963,-4.83558 0,-7 -0.52236,-0.90475 -1.23247,-1.66215 -2.0625,-2.24023 v -1.25977 c 0,-6.09394 -4.90606,-11 -11,-11 z m 0,3 c 0.1385,0 0.27538,0.003 0.41211,0.01 0.13673,0.007 0.27341,0.0177 0.4082,0.0312 0.1348,0.0136 0.2677,0.0306 0.40039,0.0508 0.1327,0.0202 0.26606,0.0438 0.39649,0.0703 0.13043,0.0266 0.25872,0.0571 0.38672,0.0898 0.128,0.0328 0.25545,0.0686 0.38086,0.10743 0.1254,0.0388 0.24845,0.0803 0.37109,0.125 0.12264,0.0447 0.24356,0.0921 0.36328,0.14257 0.11972,0.0505 0.23884,0.10412 0.35547,0.16016 0.11663,0.056 0.23233,0.11435 0.3457,0.17578 0.11338,0.0614 0.22403,0.12474 0.33399,0.19141 0.10995,0.0667 0.21785,0.13724 0.32422,0.20898 0.10636,0.0717 0.21183,0.14601 0.31445,0.22266 0.10262,0.0767 0.20208,0.15494 0.30078,0.23633 0.0987,0.0814 0.1964,0.16598 0.29102,0.25195 0.0946,0.086 0.18696,0.1733 0.27734,0.26367 0.0904,0.0904 0.17771,0.18272 0.26367,0.27734 0.086,0.0946 0.17057,0.19232 0.25195,0.29102 0.0814,0.0987 0.15968,0.19816 0.23633,0.30078 0.0766,0.10262 0.15092,0.20809 0.22266,0.31445 0.0717,0.10637 0.14231,0.21427 0.20898,0.32422 0.0667,0.10996 0.12997,0.22061 0.19141,0.33399 0.0614,0.11337 0.11975,0.22907 0.17578,0.3457 0.056,0.11663 0.10969,0.23575 0.16016,0.35547 0.0505,0.11972 0.0979,0.24064 0.14257,0.36328 0.0447,0.12264 0.0862,0.24569 0.125,0.37109 0.0388,0.12541 0.0746,0.25286 0.10743,0.38086 0.0328,0.128 0.0633,0.25629 0.0898,0.38672 0.0266,0.13043 0.0501,0.26379 0.0703,0.39649 0.0202,0.13269 0.0372,0.26559 0.0508,0.40039 0.0136,0.13479 0.0245,0.27147 0.0312,0.4082 0.007,0.13673 0.01,0.27361 0.01,0.41211 v 0.0742 c -0.32837,-0.0474 -0.66271,-0.0742 -1,-0.0742 a 1.0001,1.0001 0 0 0 -1,1 v 5 h -3.04492 a 1.0001,1.0001 0 0 0 -0.92774,0.62891 l -0.9375,2.34375 -2.17773,-7.25977 A 1.0001,1.0001 0 0 0 454,361.14996 a 1.0001,1.0001 0 0 0 -0.97266,0.62891 l -1.75,4.37109 H 450 v -5 a 1.0001,1.0001 0 0 0 -1,-1 c -0.33729,0 -0.67163,0.0268 -1,0.0742 v -0.0742 c 0,-0.1385 0.003,-0.27538 0.01,-0.41211 0.007,-0.13673 0.0177,-0.27341 0.0312,-0.4082 0.0136,-0.1348 0.0306,-0.2677 0.0508,-0.40039 0.0202,-0.1327 0.0438,-0.26606 0.0703,-0.39649 0.0266,-0.13043 0.0571,-0.25872 0.0898,-0.38672 0.0328,-0.128 0.0686,-0.25545 0.10743,-0.38086 0.0388,-0.1254 0.0803,-0.24845 0.125,-0.37109 0.0447,-0.12264 0.0921,-0.24356 0.14257,-0.36328 0.0505,-0.11972 0.10412,-0.23884 0.16016,-0.35547 0.056,-0.11663 0.11435,-0.23233 0.17578,-0.3457 0.0614,-0.11338 0.12474,-0.22403 0.19141,-0.33399 0.0667,-0.10995 0.13724,-0.21785 0.20898,-0.32422 0.0717,-0.10636 0.14601,-0.21183 0.22266,-0.31445 0.0767,-0.10262 0.15494,-0.20208 0.23633,-0.30078 0.0814,-0.0987 0.16598,-0.1964 0.25195,-0.29102 0.086,-0.0946 0.1733,-0.18696 0.26367,-0.27734 0.0904,-0.0904 0.18272,-0.17771 0.27734,-0.26367 0.0946,-0.086 0.19232,-0.17057 0.29102,-0.25195 0.0987,-0.0814 0.19816,-0.15968 0.30078,-0.23633 0.10262,-0.0766 0.20809,-0.15092 0.31445,-0.22266 0.10637,-0.0717 0.21427,-0.14231 0.32422,-0.20898 0.10996,-0.0667 0.22061,-0.12997 0.33399,-0.19141 0.11337,-0.0614 0.22907,-0.11975 0.3457,-0.17578 0.11663,-0.056 0.23575,-0.10969 0.35547,-0.16016 0.11972,-0.0505 0.24064,-0.0979 0.36328,-0.14257 0.12264,-0.0447 0.24569,-0.0862 0.37109,-0.125 0.12541,-0.0388 0.25286,-0.0746 0.38086,-0.10743 0.128,-0.0328 0.25629,-0.0633 0.38672,-0.0898 0.13043,-0.0266 0.26379,-0.0501 0.39649,-0.0703 0.13269,-0.0202 0.26559,-0.0372 0.40039,-0.0508 0.13479,-0.0136 0.27147,-0.0245 0.4082,-0.0312 0.13673,-0.007 0.27361,-0.01 0.41211,-0.01 z" /><path
             id="path377"
             style="color:#000000;fill:#fafcff;fill-opacity:1;stroke-linecap:round;stroke-linejoin:round;stroke-miterlimit:1.8;paint-order:stroke fill markers"
             d="M 456 348.14996 C 449.90606 348.14996 445 353.05602 445 359.14996 L 445 360.40973 C 444.16997 360.98781 443.45986 361.74521 442.9375 362.64996 C 441.68787 364.81438 441.68787 367.48554 442.9375 369.64996 C 444.18713 371.81438 446.50075 373.14996 449 373.14996 A 1.0001 1.0001 0 0 0 450 372.14996 L 450 367.14996 L 451.95508 367.14996 A 1.0001 1.0001 0 0 0 452.88281 366.52105 L 453.82031 364.1773 L 455.99805 371.43707 A 1.0001 1.0001 0 0 0 457.88281 371.52105 L 459.63281 367.14996 L 462 367.14996 L 462 372.14996 A 1.0001 1.0001 0 0 0 463 373.14996 C 465.49925 373.14996 467.81287 371.81438 469.0625 369.64996 C 470.31213 367.48554 470.31213 364.81438 469.0625 362.64996 C 468.54014 361.74521 467.83003 360.98781 467 360.40973 L 467 359.14996 C 467 353.05602 462.09394 348.14996 456 348.14996 z M 456 351.14996 C 456.1385 351.14996 456.27538 351.15273 456.41211 351.15973 C 456.54884 351.16673 456.68552 351.17738 456.82031 351.19098 C 456.95511 351.20458 457.08801 351.22156 457.2207 351.24176 C 457.3534 351.26196 457.48676 351.28557 457.61719 351.31207 C 457.74762 351.33867 457.87591 351.36921 458.00391 351.40191 C 458.13191 351.43471 458.25936 351.47051 458.38477 351.50934 C 458.51017 351.54813 458.63322 351.58964 458.75586 351.63434 C 458.8785 351.67903 458.99942 351.72644 459.11914 351.77691 C 459.23886 351.82741 459.35798 351.88103 459.47461 351.93707 C 459.59124 351.99307 459.70694 352.05142 459.82031 352.11285 C 459.93369 352.17425 460.04434 352.23759 460.1543 352.30426 C 460.26425 352.37096 460.37215 352.4415 460.47852 352.51324 C 460.58488 352.58494 460.69035 352.65925 460.79297 352.7359 C 460.89559 352.8126 460.99505 352.89084 461.09375 352.97223 C 461.19245 353.05363 461.29015 353.13821 461.38477 353.22418 C 461.47937 353.31018 461.57173 353.39748 461.66211 353.48785 C 461.75251 353.57825 461.83982 353.67057 461.92578 353.76519 C 462.01178 353.85979 462.09635 353.95751 462.17773 354.05621 C 462.25913 354.15491 462.33741 354.25437 462.41406 354.35699 C 462.49066 354.45961 462.56498 354.56508 462.63672 354.67144 C 462.70842 354.77781 462.77903 354.88571 462.8457 354.99566 C 462.9124 355.10562 462.97567 355.21627 463.03711 355.32965 C 463.09851 355.44302 463.15686 355.55872 463.21289 355.67535 C 463.26889 355.79198 463.32258 355.9111 463.37305 356.03082 C 463.42355 356.15054 463.47096 356.27146 463.51562 356.3941 C 463.56032 356.51674 463.60183 356.63979 463.64062 356.76519 C 463.67942 356.8906 463.71522 357.01805 463.74805 357.14605 C 463.78085 357.27405 463.81139 357.40234 463.83789 357.53277 C 463.86449 357.6632 463.888 357.79656 463.9082 357.92926 C 463.9284 358.06195 463.94538 358.19485 463.95898 358.32965 C 463.97258 358.46444 463.98343 358.60112 463.99023 358.73785 C 463.99723 358.87458 464 359.01146 464 359.14996 L 464 359.22418 C 463.67163 359.17678 463.33729 359.14996 463 359.14996 A 1.0001 1.0001 0 0 0 462 360.14996 L 462 365.14996 L 458.95508 365.14996 A 1.0001 1.0001 0 0 0 458.02734 365.77887 L 457.08984 368.12262 L 454.91211 360.86285 A 1.0001 1.0001 0 0 0 454 360.14996 A 1.0001 1.0001 0 0 0 453.02734 360.77887 L 451.27734 365.14996 L 450 365.14996 L 450 360.14996 A 1.0001 1.0001 0 0 0 449 359.14996 C 448.66271 359.14996 448.32837 359.17678 448 359.22418 L 448 359.14996 C 448 359.01146 448.00277 358.87458 448.00977 358.73785 C 448.01677 358.60112 448.02742 358.46444 448.04102 358.32965 C 448.05462 358.19485 448.0716 358.06195 448.0918 357.92926 C 448.112 357.79656 448.13561 357.6632 448.16211 357.53277 C 448.18871 357.40234 448.21925 357.27405 448.25195 357.14605 C 448.28475 357.01805 448.32055 356.8906 448.35938 356.76519 C 448.39817 356.63979 448.43968 356.51674 448.48438 356.3941 C 448.52907 356.27146 448.57648 356.15054 448.62695 356.03082 C 448.67745 355.9111 448.73107 355.79198 448.78711 355.67535 C 448.84311 355.55872 448.90146 355.44302 448.96289 355.32965 C 449.02429 355.21627 449.08763 355.10562 449.1543 354.99566 C 449.221 354.88571 449.29154 354.77781 449.36328 354.67144 C 449.43498 354.56508 449.50929 354.45961 449.58594 354.35699 C 449.66264 354.25437 449.74088 354.15491 449.82227 354.05621 C 449.90367 353.95751 449.98825 353.85981 450.07422 353.76519 C 450.16022 353.67059 450.24752 353.57823 450.33789 353.48785 C 450.42829 353.39745 450.52061 353.31014 450.61523 353.22418 C 450.70983 353.13818 450.80755 353.05361 450.90625 352.97223 C 451.00495 352.89083 451.10441 352.81255 451.20703 352.7359 C 451.30965 352.6593 451.41512 352.58498 451.52148 352.51324 C 451.62785 352.44154 451.73575 352.37093 451.8457 352.30426 C 451.95566 352.23756 452.06631 352.17429 452.17969 352.11285 C 452.29306 352.05145 452.40876 351.9931 452.52539 351.93707 C 452.64202 351.88107 452.76114 351.82738 452.88086 351.77691 C 453.00058 351.72641 453.1215 351.679 453.24414 351.63434 C 453.36678 351.58964 453.48983 351.54813 453.61523 351.50934 C 453.74064 351.47054 453.86809 351.43474 453.99609 351.40191 C 454.12409 351.36911 454.25238 351.33857 454.38281 351.31207 C 454.51324 351.28547 454.6466 351.26196 454.7793 351.24176 C 454.91199 351.22156 455.04489 351.20458 455.17969 351.19098 C 455.31448 351.17738 455.45116 351.16653 455.58789 351.15973 C 455.72462 351.15273 455.8615 351.14996 456 351.14996 z " /></g></g></g></g></svg>
