<?xml version="1.0" encoding="UTF-8" standalone="no"?>
<!-- Created with Inkscape (http://www.inkscape.org/) -->

<svg
   width="48"
   height="48"
   viewBox="0 0 48 48"
   version="1.1"
   id="svg8"
   inkscape:version="1.2.2 (b0a8486541, 2022-12-01)"
   sodipodi:docname="application-x-sif.svg"
   xml:space="preserve"
   xmlns:inkscape="http://www.inkscape.org/namespaces/inkscape"
   xmlns:sodipodi="http://sodipodi.sourceforge.net/DTD/sodipodi-0.dtd"
   xmlns:xlink="http://www.w3.org/1999/xlink"
   xmlns="http://www.w3.org/2000/svg"
   xmlns:svg="http://www.w3.org/2000/svg"
   xmlns:rdf="http://www.w3.org/1999/02/22-rdf-syntax-ns#"
   xmlns:cc="http://creativecommons.org/ns#"
   xmlns:dc="http://purl.org/dc/elements/1.1/"><title
     id="title7895">Antu icon Theme</title><defs
     id="defs2"><linearGradient
       inkscape:collect="always"
       id="linearGradient1622"><stop
         style="stop-color:#1c9cf5;stop-opacity:1;"
         offset="0"
         id="stop1618" /><stop
         style="stop-color:#1fb5f9;stop-opacity:1;"
         offset="1"
         id="stop1620" /></linearGradient><linearGradient
       inkscape:collect="always"
       xlink:href="#linearGradient1622"
       id="linearGradient1624"
       x1="21.99999"
       y1="330.64999"
       x2="21.99999"
       y2="290.64999"
       gradientUnits="userSpaceOnUse" /></defs><sodipodi:namedview
     id="base"
     pagecolor="#ffffff"
     bordercolor="#666666"
     borderopacity="1.0"
     inkscape:pageopacity="0.0"
     inkscape:pageshadow="2"
     inkscape:zoom="8.0000004"
     inkscape:cx="51.499998"
     inkscape:cy="27.999999"
     inkscape:document-units="px"
     inkscape:current-layer="g4564"
     showgrid="true"
     units="px"
     inkscape:window-width="2560"
     inkscape:window-height="1363"
     inkscape:window-x="0"
     inkscape:window-y="0"
     inkscape:window-maximized="1"
     objecttolerance="10"
     gridtolerance="10"
     guidetolerance="10"
     inkscape:snap-bbox="true"
     inkscape:bbox-paths="true"
     inkscape:bbox-nodes="true"
     inkscape:snap-bbox-edge-midpoints="true"
     inkscape:snap-bbox-midpoints="true"
     inkscape:object-paths="true"
     inkscape:snap-intersection-paths="true"
     inkscape:showpageshadow="2"
     inkscape:pagecheckerboard="0"
     inkscape:deskcolor="#d1d1d1"><inkscape:grid
       type="xygrid"
       id="grid7897"
       empspacing="4" /></sodipodi:namedview><metadata
     id="metadata5"><rdf:RDF><cc:Work
         rdf:about=""><dc:format>image/svg+xml</dc:format><dc:type
           rdf:resource="http://purl.org/dc/dcmitype/StillImage" /><dc:title>Antu icon Theme</dc:title></cc:Work></rdf:RDF></metadata><g
     inkscape:label="Capa 1"
     inkscape:groupmode="layer"
     id="layer1"
     transform="translate(0,-266.64999)"><g
       id="g4564"
       transform="translate(40,12)"><g
         id="g17018"
         transform="translate(-37.99999,-32.000005)"><path
           style="fill:#1568b4;fill-opacity:1;stroke:none;stroke-width:6;stroke-linecap:square;stroke-linejoin:round;stroke-miterlimit:18;stroke-dasharray:none;stroke-dashoffset:0;stroke-opacity:1;paint-order:markers stroke fill"
           d="m 5.99999,288.65 h 32 c 1.662,0 3,1.33799 3,3 v 37.99999 c 0,1.662 -1.338,3 -3,3 h -32 c -1.66199,0 -3,-1.338 -3,-3 v -38 c 0,-1.662 1.33801,-3 3,-2.99999 z"
           id="rect6397-1-9-0-3-6"
           inkscape:connector-curvature="0" /><path
           style="fill:url(#linearGradient1624);fill-opacity:1;stroke:none;stroke-width:6;stroke-linecap:square;stroke-linejoin:round;stroke-miterlimit:18;stroke-dasharray:none;stroke-dashoffset:0;stroke-opacity:1;paint-order:markers stroke fill"
           d="m 5.99999,289.65 h 32 c 1.108,0 2,0.89199 2,2 v 37.99999 c 0,1.108 -0.892,2 -2,2 h -32 c -1.10799,0 -2,-0.892 -2,-2 v -38 c 0,-1.108 0.89201,-2 2,-1.99999 z"
           id="rect6399-4-3-2-7-3"
           inkscape:connector-curvature="0"
           sodipodi:nodetypes="sssssssss" /><path
           id="rect850-5-9-7-9-7-0-4-4-1-0-2"
           style="fill:#ffffff;fill-opacity:0.2;stroke-width:1.2;stroke-linecap:round;stroke-linejoin:round;stroke-miterlimit:1.8;paint-order:stroke fill markers;stop-color:#000000"
           d="m 7,289.65 v 3 h 3 v -3 z m 3,3 v 3 h 3 v -3 z m 3,0 h 3 v -3 h -3 z m 3,0 v 3 h 3 v -3 z m 3,0 h 3 v -3 h -3 z m 3,0 v 3 h 3 v -3 z m 3,0 h 3 v -3 h -3 z m 3,0 v 3 h 3 v -3 z m 3,0 h 3 v -3 h -3 z m 3,0 v 3 h 3 v -3 z m 3,0 h 1.5 1.5 v -1.5 c 0,-0.83099 -0.669,-1.5 -1.5,-1.5 H 37 v 1.5 z m 0,3 v 3 h 3 v -3 z m 0,3 h -3 v 3 h 3 z m 0,3 v 3 h 3 v -3 z m 0,3 h -3 v 3 h 3 z m 0,3 v 3 h 3 v -3 z m 0,3 h -3 v 3 h 3 z m 0,3 v 2.99999 h 3 v -3 z m 0,2.99999 h -3 v 3 h 3 z m 0,3 v 3 h 3 v -3 z m 0,3 h -3 v 3 h 3 z m 0,3 v 3 h 3 v -3 z m 0,3 h -3 v 3 h 3 z m -3,0 v -3 h -3 v 3 z m -3,0 h -3 v 3 h 3 z m -3,0 v -3 h -3 v 3 z m -3,0 h -3 v 3 h 3 z m -3,0 v -3 h -3 v 3 z m -3,0 h -3 v 3 h 3 z m -3,0 v -3 h -3 v 3 z m -3,0 h -3 v 3 h 3 z m -3,0 v -3 H 7 v 3 z m -3,0 H 5.5 4 v 1.5 c 0,0.83099 0.669,1.5 1.5,1.5 H 7 v -1.5 z m 0,-3 v -3 H 4 v 3 z m 0,-3 h 3 v -3 H 7 Z m 0,-3 v -3 H 4 v 3 z m 0,-3 h 3 v -3 H 7 Z m 0,-3 v -3 H 4 v 3 z m 0,-3 h 3 v -3 H 7 Z m 0,-3 v -3 H 4 v 3 z m 0,-3 h 3 v -3 H 7 Z m 0,-3 v -3 H 4 v 3 z m 0,-3 h 3 v -3 H 7 Z m 0,-3 v -3 H 4 v 3 z m 3,3 v 3 h 3 v -3 z m 3,0 h 3 v -3 h -3 z m 3,0 v 3 h 3 v -3 z m 3,0 h 3 v -3 h -3 z m 3,0 v 3 h 3 v -3 z m 3,0 h 3 v -3 h -3 z m 3,0 v 3 h 3 v -3 z m 3,0 h 3 v -3 h -3 z m 0,3 v 3 h 3 v -3 z m 0,3 h -3 v 3 h 3 z m 0,3 v 3 h 3 v -3 z m 0,3 h -3 v 3 h 3 z m 0,3 v 3 h 3 v -3 z m 0,3 h -3 v 3 h 3 z m 0,3 v 3 h 3 v -3 z m 0,3 h -3 v 3 h 3 z m -3,0 v -3 h -3 v 3 z m -3,0 h -3 v 3 h 3 z m -3,0 v -3 h -3 v 3 z m -3,0 h -3 v 3 h 3 z m -3,0 v -3 h -3 v 3 z m -3,0 h -3 v 3 h 3 z m 0,-3 v -3 h -3 v 3 z m 0,-3 h 3 v -3 h -3 z m 0,-3 v -3 h -3 v 3 z m 0,-3 h 3 v -3 h -3 z m 0,-3 v -3 h -3 v 3 z m 0,-3 h 3 v -3 h -3 z m 3,0 v 3 h 3 v -3 z m 3,0 h 3 v -3 h -3 z m 3,0 v 3 h 3 v -3 z m 3,0 h 3 v -3 h -3 z m 0,3 v 3 h 3 v -3 z m 0,3 h -3 v 3 h 3 z m 0,3 v 3 h 3 v -3 z m 0,3 h -3 v 3 h 3 z m -3,0 v -3 h -3 v 3 z m -3,0 h -3 v 3 h 3 z m 0,-3 v -3 h -3 v 3 z m 0,-3 h 3 v -3 h -3 z" /><g
           id="path15846"
           transform="translate(-379,-416)"><path
             id="path16442-2"
             style="color:#000000;fill:#1568b4;fill-opacity:1;stroke-linecap:round;stroke-linejoin:round;stroke-miterlimit:1.8;paint-order:stroke fill markers"
             d="m 400.91996,714.64031 a 1.0001,1.0001 0 0 0 -0.10937,0.0293 1.0001,1.0001 0 0 0 -0.16602,0.0449 1.0001,1.0001 0 0 0 -0.082,0.0234 1.0001,1.0001 0 0 0 -0.0879,0.0644 1.0001,1.0001 0 0 0 -0.0918,0.0488 c -5.31485,4.17345 -9.90644,9.64471 -9.38086,19.83789 a 1.0001,1.0001 0 0 0 0.73243,0.91211 c 4.77119,1.31408 6.47654,2.96906 8.61718,4.79688 a 1.0001,1.0001 0 0 0 0.0195,0.01 1.0001,1.0001 0 0 0 0.2168,0.11329 1.0001,1.0001 0 0 0 0.18555,0.084 1.0001,1.0001 0 0 0 0.22656,0.006 1.0001,1.0001 0 0 0 0.22656,-0.006 1.0001,1.0001 0 0 0 0.18555,-0.084 1.0001,1.0001 0 0 0 0.2168,-0.11329 1.0001,1.0001 0 0 0 0.0195,-0.01 c 2.14064,-1.82782 3.846,-3.4828 8.61718,-4.79688 a 1.0001,1.0001 0 0 0 0.73243,-0.91211 c 0.52558,-10.19318 -4.06601,-15.66444 -9.38086,-19.83789 a 1.0001,1.0001 0 0 0 -0.002,-0.002 1.0001,1.0001 0 0 0 -0.17773,-0.11132 1.0001,1.0001 0 0 0 -0.082,-0.0234 1.0001,1.0001 0 0 0 -0.16602,-0.0449 1.0001,1.0001 0 0 0 -0.18945,-0.0195 1.0001,1.0001 0 0 0 -0.0801,-0.01 z" /><path
             id="path16442"
             style="color:#000000;fill:#f4fbff;stroke-linecap:round;stroke-linejoin:round;stroke-miterlimit:1.8;paint-order:stroke fill markers"
             d="m 400.91992,713.65194 a 1.0001,1.0001 0 0 0 -0.10937,0.0293 1.0001,1.0001 0 0 0 -0.16602,0.0449 1.0001,1.0001 0 0 0 -0.082,0.0234 1.0001,1.0001 0 0 0 -0.0879,0.0644 1.0001,1.0001 0 0 0 -0.0918,0.0488 c -5.31485,4.17345 -9.90644,9.64471 -9.38086,19.83789 a 1.0001,1.0001 0 0 0 0.73243,0.91211 c 4.77119,1.31408 6.47654,2.96906 8.61718,4.79688 a 1.0001,1.0001 0 0 0 0.0195,0.01 1.0001,1.0001 0 0 0 0.2168,0.11328 1.0001,1.0001 0 0 0 0.18555,0.084 1.0001,1.0001 0 0 0 0.22656,0.006 1.0001,1.0001 0 0 0 0.22656,-0.006 1.0001,1.0001 0 0 0 0.18555,-0.084 1.0001,1.0001 0 0 0 0.2168,-0.11328 1.0001,1.0001 0 0 0 0.0195,-0.01 c 2.14064,-1.82782 3.846,-3.4828 8.61718,-4.79688 a 1.0001,1.0001 0 0 0 0.73243,-0.91211 c 0.52558,-10.19318 -4.06601,-15.66444 -9.38086,-19.83789 a 1.0001,1.0001 0 0 0 -0.002,-0.002 1.0001,1.0001 0 0 0 -0.17773,-0.11133 1.0001,1.0001 0 0 0 -0.082,-0.0234 1.0001,1.0001 0 0 0 -0.16602,-0.0449 1.0001,1.0001 0 0 0 -0.18945,-0.0195 1.0001,1.0001 0 0 0 -0.0801,-0.01 z" /></g><g
           id="path15846-1"
           transform="translate(-379,-416)" /></g></g></g></svg>
