<?xml version="1.0" encoding="UTF-8" standalone="no"?>
<!-- Created with Inkscape (http://www.inkscape.org/) -->

<svg
   width="48"
   height="48"
   viewBox="0 0 48 48"
   version="1.1"
   id="svg8"
   inkscape:version="1.2.2 (b0a8486541, 2022-12-01)"
   sodipodi:docname="application-x-blender.svg"
   xml:space="preserve"
   xmlns:inkscape="http://www.inkscape.org/namespaces/inkscape"
   xmlns:sodipodi="http://sodipodi.sourceforge.net/DTD/sodipodi-0.dtd"
   xmlns:xlink="http://www.w3.org/1999/xlink"
   xmlns="http://www.w3.org/2000/svg"
   xmlns:svg="http://www.w3.org/2000/svg"
   xmlns:rdf="http://www.w3.org/1999/02/22-rdf-syntax-ns#"
   xmlns:cc="http://creativecommons.org/ns#"
   xmlns:dc="http://purl.org/dc/elements/1.1/"><title
     id="title7895">Antu icon Theme</title><defs
     id="defs2"><linearGradient
       inkscape:collect="always"
       id="linearGradient5566"><stop
         style="stop-color:#1da1f6;stop-opacity:1;"
         offset="0"
         id="stop5562" /><stop
         style="stop-color:#1fb3f9;stop-opacity:1;"
         offset="1"
         id="stop5564" /></linearGradient><linearGradient
       inkscape:collect="always"
       id="linearGradient4730"><stop
         style="stop-color:#e4e4e4;stop-opacity:1;"
         offset="0"
         id="stop4726" /><stop
         style="stop-color:#fbfbfb;stop-opacity:1;"
         offset="1"
         id="stop4728" /></linearGradient><linearGradient
       inkscape:collect="always"
       id="linearGradient2790"><stop
         style="stop-color:#ff6b3f;stop-opacity:1;"
         offset="0"
         id="stop2786" /><stop
         style="stop-color:#ff8f64;stop-opacity:1;"
         offset="1"
         id="stop2788" /></linearGradient><linearGradient
       gradientTransform="translate(-79.999997,-55.99997)"
       y2="322.64999"
       x2="60"
       y1="362.64999"
       x1="60"
       gradientUnits="userSpaceOnUse"
       id="linearGradient6625-7"
       xlink:href="#linearGradient4846"
       inkscape:collect="always" /><linearGradient
       inkscape:collect="always"
       id="linearGradient4846"><stop
         style="stop-color:#f1efea;stop-opacity:1;"
         offset="0"
         id="stop4842" /><stop
         style="stop-color:#fcfcfc;stop-opacity:1"
         offset="1"
         id="stop4844" /></linearGradient><style
       id="current-color-scheme"
       type="text/css">
      .ColorScheme-Text {
        color:#122036;
      }
      </style><style
       id="current-color-scheme-2"
       type="text/css">
      .ColorScheme-Text {
        color:#122036;
      }
      </style><style
       id="current-color-scheme-0"
       type="text/css">
      .ColorScheme-Text {
        color:#122036;
      }
      </style><style
       id="current-color-scheme-53562"
       type="text/css">
      .ColorScheme-Text {
        color:#122036;
      }
      </style><style
       id="current-color-scheme-2-9"
       type="text/css">
      .ColorScheme-Text {
        color:#122036;
      }
      </style><style
       id="current-color-scheme-0-1"
       type="text/css">
      .ColorScheme-Text {
        color:#122036;
      }
      </style><style
       id="current-color-scheme-59"
       type="text/css">
      .ColorScheme-Text {
        color:#122036;
      }
      </style><style
       type="text/css"
       id="current-color-scheme-5356">
      .ColorScheme-Text {
        color:#122036;
      }
      </style><style
       id="current-color-scheme-5"
       type="text/css">
      .ColorScheme-Text {
        color:#122036;
      }
      </style><style
       id="current-color-scheme-53"
       type="text/css">
      .ColorScheme-Text {
        color:#122036;
      }
      </style><style
       id="current-color-scheme-535"
       type="text/css">
      .ColorScheme-Text {
        color:#122036;
      }
      </style><style
       type="text/css"
       id="current-color-scheme-5-6">
      .ColorScheme-Text {
        color:#122036;
      }
      </style><style
       id="current-color-scheme-70"
       type="text/css">
      .ColorScheme-Text {
        color:#122036;
      }
      </style><style
       type="text/css"
       id="current-color-scheme-5-9">
      .ColorScheme-Text {
        color:#122036;
      }
      </style><style
       type="text/css"
       id="current-color-scheme-2-4">
      .ColorScheme-Text {
        color:#122036;
      }
      </style><style
       type="text/css"
       id="current-color-scheme-1">
      .ColorScheme-Text {
        color:#122036;
      }
      </style><style
       id="current-color-scheme-10"
       type="text/css">
      .ColorScheme-Text {
        color:#122036;
      }
      </style><style
       type="text/css"
       id="current-color-scheme-0-6">
      .ColorScheme-Text {
        color:#122036;
      }
      </style><style
       type="text/css"
       id="current-color-scheme-26">
      .ColorScheme-Text {
        color:#122036;
      }
      </style><style
       type="text/css"
       id="current-color-scheme-7">
      .ColorScheme-Text {
        color:#122036;
      }
      </style><style
       id="current-color-scheme-261"
       type="text/css">
      .ColorScheme-Text {
        color:#122036;
      }
      </style><style
       type="text/css"
       id="current-color-scheme-5-8">
      .ColorScheme-Text {
        color:#122036;
      }
      </style><style
       type="text/css"
       id="current-color-scheme-53-7">
      .ColorScheme-Text {
        color:#122036;
      }
      </style><style
       id="current-color-scheme-9"
       type="text/css">
      .ColorScheme-Text {
        color:#122036;
      }
      </style><style
       id="current-color-scheme-6"
       type="text/css">
      .ColorScheme-Text {
        color:#122036;
      }
      </style><style
       id="current-color-scheme-3"
       type="text/css">
      .ColorScheme-Text {
        color:#122036;
      }
      </style><style
       type="text/css"
       id="current-color-scheme-53562-9">
      .ColorScheme-Text {
        color:#122036;
      }
      </style><style
       id="current-color-scheme-5356-2"
       type="text/css">
      .ColorScheme-Text {
        color:#122036;
      }
      </style><style
       type="text/css"
       id="current-color-scheme-5-1">
      .ColorScheme-Text {
        color:#122036;
      }
      </style><style
       type="text/css"
       id="current-color-scheme-53-2">
      .ColorScheme-Text {
        color:#122036;
      }
      </style><style
       type="text/css"
       id="current-color-scheme-535-0">
      .ColorScheme-Text {
        color:#122036;
      }
      </style><style
       id="current-color-scheme-5-6-2"
       type="text/css">
      .ColorScheme-Text {
        color:#122036;
      }
      </style><style
       type="text/css"
       id="current-color-scheme-70-3">
      .ColorScheme-Text {
        color:#122036;
      }
      </style><style
       id="current-color-scheme-5-9-7"
       type="text/css">
      .ColorScheme-Text {
        color:#122036;
      }
      </style><style
       id="current-color-scheme-2-5"
       type="text/css">
      .ColorScheme-Text {
        color:#122036;
      }
      </style><style
       id="current-color-scheme-1-92"
       type="text/css">
      .ColorScheme-Text {
        color:#122036;
      }
      </style><style
       type="text/css"
       id="current-color-scheme-10-28">
      .ColorScheme-Text {
        color:#122036;
      }
      </style><style
       id="current-color-scheme-0-9"
       type="text/css">
      .ColorScheme-Text {
        color:#122036;
      }
      </style><style
       id="current-color-scheme-26-7"
       type="text/css">
      .ColorScheme-Text {
        color:#122036;
      }
      </style><style
       id="current-color-scheme-7-36"
       type="text/css">
      .ColorScheme-Text {
        color:#122036;
      }
      </style><style
       id="current-color-scheme-6-6"
       type="text/css">
      .ColorScheme-Text {
        color:#122036;
      }
      </style><style
       id="current-color-scheme-09"
       type="text/css">
      .ColorScheme-Text {
        color:#122036;
      }
      </style><style
       type="text/css"
       id="current-color-scheme-53562-3">
      .ColorScheme-Text {
        color:#122036;
      }
      </style><style
       id="current-color-scheme-5356-6"
       type="text/css">
      .ColorScheme-Text {
        color:#122036;
      }
      </style><style
       type="text/css"
       id="current-color-scheme-5-0">
      .ColorScheme-Text {
        color:#122036;
      }
      </style><style
       type="text/css"
       id="current-color-scheme-53-6">
      .ColorScheme-Text {
        color:#122036;
      }
      </style><style
       type="text/css"
       id="current-color-scheme-535-2">
      .ColorScheme-Text {
        color:#122036;
      }
      </style><style
       id="current-color-scheme-5-6-6"
       type="text/css">
      .ColorScheme-Text {
        color:#122036;
      }
      </style><style
       type="text/css"
       id="current-color-scheme-70-1">
      .ColorScheme-Text {
        color:#122036;
      }
      </style><style
       id="current-color-scheme-5-9-8"
       type="text/css">
      .ColorScheme-Text {
        color:#122036;
      }
      </style><style
       id="current-color-scheme-2-7"
       type="text/css">
      .ColorScheme-Text {
        color:#122036;
      }
      </style><style
       id="current-color-scheme-1-9"
       type="text/css">
      .ColorScheme-Text {
        color:#122036;
      }
      </style><style
       type="text/css"
       id="current-color-scheme-10-2">
      .ColorScheme-Text {
        color:#122036;
      }
      </style><style
       id="current-color-scheme-0-0"
       type="text/css">
      .ColorScheme-Text {
        color:#122036;
      }
      </style><style
       id="current-color-scheme-26-2"
       type="text/css">
      .ColorScheme-Text {
        color:#122036;
      }
      </style><style
       id="current-color-scheme-7-3"
       type="text/css">
      .ColorScheme-Text {
        color:#122036;
      }
      </style><style
       id="current-color-scheme-6-7"
       type="text/css">
      .ColorScheme-Text {
        color:#122036;
      }
      </style><style
       id="current-color-scheme-4"
       type="text/css">
      .ColorScheme-Text {
        color:#122036;
      }
      </style><style
       id="current-color-scheme-2-74"
       type="text/css">
      .ColorScheme-Text {
        color:#122036;
      }
      </style><style
       id="current-color-scheme-0-4"
       type="text/css">
      .ColorScheme-Text {
        color:#122036;
      }
      </style><style
       type="text/css"
       id="current-color-scheme-535629">
      .ColorScheme-Text {
        color:#122036;
      }
      </style><style
       type="text/css"
       id="current-color-scheme-7-1">
      .ColorScheme-Text {
        color:#122036;
      }
      </style><style
       type="text/css"
       id="current-color-scheme-5-2">
      .ColorScheme-Text {
        color:#122036;
      }
      </style><style
       type="text/css"
       id="current-color-scheme-0-7">
      .ColorScheme-Text {
        color:#122036;
      }
      </style><style
       type="text/css"
       id="current-color-scheme-7-9">
      .ColorScheme-Text {
        color:#122036;
      }
      </style><style
       type="text/css"
       id="current-color-scheme-5-3">
      .ColorScheme-Text {
        color:#122036;
      }
      </style><style
       type="text/css"
       id="current-color-scheme-79">
      .ColorScheme-Text {
        color:#122036;
      }
      </style><style
       type="text/css"
       id="current-color-scheme-7-2">
      .ColorScheme-Text {
        color:#122036;
      }
      </style><style
       type="text/css"
       id="current-color-scheme-5-0-0">
      .ColorScheme-Text {
        color:#122036;
      }
      </style><style
       id="current-color-scheme-92"
       type="text/css">
      .ColorScheme-Text {
        color:#122036;
      }
      </style><style
       type="text/css"
       id="current-color-scheme-5-02">
      .ColorScheme-Text {
        color:#122036;
      }
      </style><style
       type="text/css"
       id="current-color-scheme-53-3">
      .ColorScheme-Text {
        color:#122036;
      }
      </style><style
       id="current-color-scheme-9-7"
       type="text/css">
      .ColorScheme-Text {
        color:#122036;
      }
      </style><style
       id="current-color-scheme-6-5"
       type="text/css">
      .ColorScheme-Text {
        color:#122036;
      }
      </style><style
       id="current-color-scheme-3-9"
       type="text/css">
      .ColorScheme-Text {
        color:#122036;
      }
      </style><style
       type="text/css"
       id="current-color-scheme-53562-2">
      .ColorScheme-Text {
        color:#122036;
      }
      </style><style
       id="current-color-scheme-5356-28"
       type="text/css">
      .ColorScheme-Text {
        color:#122036;
      }
      </style><style
       type="text/css"
       id="current-color-scheme-5-1-9">
      .ColorScheme-Text {
        color:#122036;
      }
      </style><style
       type="text/css"
       id="current-color-scheme-53-2-7">
      .ColorScheme-Text {
        color:#122036;
      }
      </style><style
       type="text/css"
       id="current-color-scheme-535-3">
      .ColorScheme-Text {
        color:#122036;
      }
      </style><style
       id="current-color-scheme-5-6-61"
       type="text/css">
      .ColorScheme-Text {
        color:#122036;
      }
      </style><style
       type="text/css"
       id="current-color-scheme-70-2">
      .ColorScheme-Text {
        color:#122036;
      }
      </style><style
       id="current-color-scheme-5-9-9"
       type="text/css">
      .ColorScheme-Text {
        color:#122036;
      }
      </style><style
       id="current-color-scheme-2-3"
       type="text/css">
      .ColorScheme-Text {
        color:#122036;
      }
      </style><style
       id="current-color-scheme-1-1"
       type="text/css">
      .ColorScheme-Text {
        color:#122036;
      }
      </style><style
       type="text/css"
       id="current-color-scheme-10-9">
      .ColorScheme-Text {
        color:#122036;
      }
      </style><style
       id="current-color-scheme-0-47"
       type="text/css">
      .ColorScheme-Text {
        color:#122036;
      }
      </style><style
       id="current-color-scheme-26-8"
       type="text/css">
      .ColorScheme-Text {
        color:#122036;
      }
      </style><style
       id="current-color-scheme-7-4"
       type="text/css">
      .ColorScheme-Text {
        color:#122036;
      }
      </style><style
       id="current-color-scheme-6-6-5"
       type="text/css">
      .ColorScheme-Text {
        color:#122036;
      }
      </style><style
       id="current-color-scheme-09-0"
       type="text/css">
      .ColorScheme-Text {
        color:#122036;
      }
      </style><style
       type="text/css"
       id="current-color-scheme-53562-3-3">
      .ColorScheme-Text {
        color:#122036;
      }
      </style><style
       id="current-color-scheme-5356-6-6"
       type="text/css">
      .ColorScheme-Text {
        color:#122036;
      }
      </style><style
       type="text/css"
       id="current-color-scheme-5-0-1">
      .ColorScheme-Text {
        color:#122036;
      }
      </style><style
       type="text/css"
       id="current-color-scheme-53-6-0">
      .ColorScheme-Text {
        color:#122036;
      }
      </style><style
       type="text/css"
       id="current-color-scheme-535-2-6">
      .ColorScheme-Text {
        color:#122036;
      }
      </style><style
       id="current-color-scheme-5-6-6-3"
       type="text/css">
      .ColorScheme-Text {
        color:#122036;
      }
      </style><style
       type="text/css"
       id="current-color-scheme-70-1-2">
      .ColorScheme-Text {
        color:#122036;
      }
      </style><style
       id="current-color-scheme-5-9-8-0"
       type="text/css">
      .ColorScheme-Text {
        color:#122036;
      }
      </style><style
       id="current-color-scheme-2-7-6"
       type="text/css">
      .ColorScheme-Text {
        color:#122036;
      }
      </style><style
       id="current-color-scheme-1-9-1"
       type="text/css">
      .ColorScheme-Text {
        color:#122036;
      }
      </style><style
       type="text/css"
       id="current-color-scheme-10-2-5">
      .ColorScheme-Text {
        color:#122036;
      }
      </style><style
       id="current-color-scheme-0-0-5"
       type="text/css">
      .ColorScheme-Text {
        color:#122036;
      }
      </style><style
       id="current-color-scheme-26-2-4"
       type="text/css">
      .ColorScheme-Text {
        color:#122036;
      }
      </style><style
       id="current-color-scheme-7-3-7"
       type="text/css">
      .ColorScheme-Text {
        color:#122036;
      }
      </style><style
       id="current-color-scheme-6-7-6"
       type="text/css">
      .ColorScheme-Text {
        color:#122036;
      }
      </style><linearGradient
       inkscape:collect="always"
       xlink:href="#linearGradient2790"
       id="linearGradient2792"
       x1="5.2916665"
       y1="7.4083347"
       x2="5.2916665"
       y2="1.0583346"
       gradientUnits="userSpaceOnUse" /><linearGradient
       inkscape:collect="always"
       xlink:href="#linearGradient4730"
       id="linearGradient4732"
       x1="5.2916665"
       y1="6.879168"
       x2="5.2916665"
       y2="3.7041678"
       gradientUnits="userSpaceOnUse" /><linearGradient
       inkscape:collect="always"
       xlink:href="#linearGradient5566"
       id="linearGradient5568"
       x1="5.2916665"
       y1="6.0854177"
       x2="5.2916665"
       y2="4.7625012"
       gradientUnits="userSpaceOnUse" /></defs><sodipodi:namedview
     id="base"
     pagecolor="#ffffff"
     bordercolor="#666666"
     borderopacity="1.0"
     inkscape:pageopacity="0.0"
     inkscape:pageshadow="2"
     inkscape:zoom="16.000001"
     inkscape:cx="42.343747"
     inkscape:cy="21.374999"
     inkscape:document-units="px"
     inkscape:current-layer="g4901"
     showgrid="true"
     units="px"
     inkscape:window-width="2560"
     inkscape:window-height="1363"
     inkscape:window-x="0"
     inkscape:window-y="0"
     inkscape:window-maximized="1"
     objecttolerance="10"
     gridtolerance="10"
     guidetolerance="10"
     inkscape:snap-bbox="true"
     inkscape:bbox-paths="true"
     inkscape:bbox-nodes="true"
     inkscape:snap-bbox-edge-midpoints="true"
     inkscape:snap-bbox-midpoints="true"
     inkscape:object-paths="true"
     inkscape:snap-intersection-paths="true"
     inkscape:showpageshadow="2"
     inkscape:pagecheckerboard="0"
     inkscape:deskcolor="#d1d1d1"><inkscape:grid
       type="xygrid"
       id="grid7897"
       empspacing="4" /></sodipodi:namedview><metadata
     id="metadata5"><rdf:RDF><cc:Work
         rdf:about=""><dc:format>image/svg+xml</dc:format><dc:type
           rdf:resource="http://purl.org/dc/dcmitype/StillImage" /><dc:title>Antu icon Theme</dc:title></cc:Work></rdf:RDF></metadata><g
     inkscape:label="Capa 1"
     inkscape:groupmode="layer"
     id="layer1"
     transform="translate(0,-266.64999)"><g
       id="g4901"
       transform="translate(22.00001,-18.999995)"><g
         inkscape:label="Capa 1"
         id="layer1-6"
         transform="translate(-22.00001,18.999995)"><g
           inkscape:label="Capa 1"
           id="layer1-3"><g
             id="g8745"
             transform="translate(44,4)"><path
               inkscape:connector-curvature="0"
               id="rect6397-1"
               d="m -36,264.64999 h 32 c 1.662,0 3,1.33798 3,3 v 38 c 0,1.66197 -1.338,3 -3,3 h -32 c -1.661998,0 -3,-1.33803 -3,-3 v -38 c 0,-1.66202 1.338002,-3 3,-3 z"
               style="opacity:1;vector-effect:none;fill:#90a4ae;fill-opacity:1;stroke:none;stroke-width:6;stroke-linecap:square;stroke-linejoin:round;stroke-miterlimit:18;stroke-dasharray:none;stroke-dashoffset:0;stroke-opacity:1;paint-order:markers stroke fill" /><path
               sodipodi:nodetypes="sssssssss"
               inkscape:connector-curvature="0"
               id="rect6399-4"
               d="m -36,265.64999 h 32 c 1.108001,0 2,0.892 2,2.00001 v 38.00001 c 0,1.10797 -0.891999,1.99997 -2,1.99997 h -32 c -1.107998,0 -2,-0.892 -2,-1.99997 V 267.65 c 0,-1.10801 0.892002,-2.00001 2,-2.00001 z"
               style="opacity:1;vector-effect:none;fill:url(#linearGradient6625-7);fill-opacity:1;stroke:none;stroke-width:6;stroke-linecap:square;stroke-linejoin:round;stroke-miterlimit:18;stroke-dasharray:none;stroke-dashoffset:0;stroke-opacity:1;paint-order:markers stroke fill" /></g><g
             transform="matrix(1.5,0,0,1.5,34,-160.32499)"
             id="layer1-6-6"
             inkscape:label="Capa 1"><g
               transform="translate(84,-4)"
               id="g5329" /></g><g
             id="g2217"
             transform="translate(30.000001,16.999985)"><g
               id="g4540"
               transform="translate(-35.999991,-39.999995)"
               style="fill:#d6dbdb;fill-opacity:1"><g
                 id="g2779"
                 transform="translate(-120,53.000015)"
                 style="fill:#d6dbdb;fill-opacity:1"><path
                   id="rect850-5-9-7-9-7-0-4-4"
                   style="fill:#d6dbdb;fill-opacity:1;stroke-width:1.2;stroke-linecap:round;stroke-linejoin:round;stroke-miterlimit:1.8;paint-order:stroke fill markers;stop-color:#000000"
                   d="m 135,239.64999 v 3 h 3 v -3 z m 3,3 v 3 h 3 v -3 z m 3,0 h 3 v -3 h -3 z m 3,0 v 3 h 3 v -3 z m 3,0 h 3 v -3 h -3 z m 3,0 v 3 h 3 v -3 z m 3,0 h 3 v -3 h -3 z m 3,0 v 3 h 3 v -3 z m 3,0 h 3 v -3 h -3 z m 3,0 v 3 h 3 v -3 z m 3,0 h 1.5 1.5 v -1.5 c 0,-0.83099 -0.669,-1.5 -1.5,-1.5 H 165 v 1.5 z m 0,3 v 3 h 3 v -3 z m 0,3 h -3 v 3 h 3 z m 0,3 v 3 h 3 v -3 z m 0,3 h -3 v 3 h 3 z m 0,3 v 3 h 3 v -3 z m 0,3 h -3 v 3 h 3 z m 0,3 v 2.99999 h 3 v -3 z m 0,2.99999 h -3 v 3 h 3 z m 0,3 v 3 h 3 v -3 z m 0,3 h -3 v 3 h 3 z m 0,3 v 3 h 3 v -3 z m 0,3 h -3 v 3 h 3 z m -3,0 v -3 h -3 v 3 z m -3,0 h -3 v 3 h 3 z m -3,0 v -3 h -3 v 3 z m -3,0 h -3 v 3 h 3 z m -3,0 v -3 h -3 v 3 z m -3,0 h -3 v 3 h 3 z m -3,0 v -3 h -3 v 3 z m -3,0 h -3 v 3 h 3 z m -3,0 v -3 h -3 v 3 z m -3,0 h -1.5 -1.5 v 1.5 c 0,0.83099 0.669,1.5 1.5,1.5 h 1.5 v -1.5 z m 0,-3 v -3 h -3 v 3 z m 0,-3 h 3 v -3 h -3 z m 0,-3 v -3 h -3 v 3 z m 0,-3 h 3 v -3 h -3 z m 0,-3 v -3 h -3 v 3 z m 0,-3 h 3 v -3 h -3 z m 0,-3 v -3 h -3 v 3 z m 0,-3 h 3 v -3 h -3 z m 0,-3 v -3 h -3 v 3 z m 0,-3 h 3 v -3 h -3 z m 0,-3 v -3 h -3 v 3 z m 3,3 v 3 h 3 v -3 z m 3,0 h 3 v -3 h -3 z m 3,0 v 3 h 3 v -3 z m 3,0 h 3 v -3 h -3 z m 3,0 v 3 h 3 v -3 z m 3,0 h 3 v -3 h -3 z m 3,0 v 3 h 3 v -3 z m 3,0 h 3 v -3 h -3 z m 0,3 v 3 h 3 v -3 z m 0,3 h -3 v 3 h 3 z m 0,3 v 3 h 3 v -3 z m 0,3 h -3 v 3 h 3 z m 0,3 v 3 h 3 v -3 z m 0,3 h -3 v 3 h 3 z m 0,3 v 3 h 3 v -3 z m 0,3 h -3 v 3 h 3 z m -3,0 v -3 h -3 v 3 z m -3,0 h -3 v 3 h 3 z m -3,0 v -3 h -3 v 3 z m -3,0 h -3 v 3 h 3 z m -3,0 v -3 h -3 v 3 z m -3,0 h -3 v 3 h 3 z m 0,-3 v -3 h -3 v 3 z m 0,-3 h 3 v -3 h -3 z m 0,-3 v -3 h -3 v 3 z m 0,-3 h 3 v -3 h -3 z m 0,-3 v -3 h -3 v 3 z m 0,-3 h 3 v -3 h -3 z m 3,0 v 3 h 3 v -3 z m 3,0 h 3 v -3 h -3 z m 3,0 v 3 h 3 v -3 z m 3,0 h 3 v -3 h -3 z m 0,3 v 3 h 3 v -3 z m 0,3 h -3 v 3 h 3 z m 0,3 v 3 h 3 v -3 z m 0,3 h -3 v 3 h 3 z m -3,0 v -3 h -3 v 3 z m -3,0 h -3 v 3 h 3 z m 0,-3 v -3 h -3 v 3 z m 0,-3 h 3 v -3 h -3 z" /></g></g></g></g></g><g
         id="g38971"
         transform="translate(-315,-131)" /><g
         inkscape:label="Capa 1"
         id="layer1-5"
         transform="translate(-16.37503,3.37499)"><g
           inkscape:label="Capa 1"
           id="layer1-8"
           transform="matrix(3.7795276,0,0,3.7795276,2.3750197,290.27499)"><path
             id="rect8258-5"
             style="fill:#a7babe;fill-opacity:1;stroke:none;stroke-width:0.587964;stroke-linecap:round;stroke-linejoin:round;stroke-dasharray:none;stroke-opacity:1;stop-color:#000000"
             d="m 2.9150677,1.0583558 c -0.05942,-4.339e-4 -0.118705,0.00581 -0.176734,0.018603 -0.205949,0.045778 -0.3852,0.1716627 -0.498161,0.3498492 -0.235005,0.3700264 -0.125574,0.8604992 0.24443,1.0955404 l 0.610815,0.3886072 h -1.773018 c -0.43797301,2.851e-4 -0.79294801,0.3552608 -0.79323301,0.7932333 5.7e-4,0.4377705 0.355462,0.7924317 0.79323301,0.7927163 h 1.100708 l -1.302246,0.947229 C 0.76698769,5.7016998 0.68838769,6.1971115 0.94516169,6.5515602 1.2028477,6.9067403 1.6998367,6.9854436 2.0546547,6.72726 l 0.678511,-0.4935099 c 0.297882,1.1353458 1.32715,1.9683554 2.558501,1.9683554 1.46579,0 2.645833,-1.1800432 2.645833,-2.6458334 0,-1.3229167 -0.839773,-2.071407 -1.69137,-2.5223265 L 3.3357137,1.1823792 C 3.2099277,1.1023551 3.0641477,1.0593733 2.9150677,1.0583558 Z"
             sodipodi:nodetypes="cccccccccccccscccc" /><path
             id="rect8258"
             style="fill:#dd4d25;fill-opacity:1;stroke:none;stroke-width:0.587964;stroke-linecap:round;stroke-linejoin:round;stroke-dasharray:none;stroke-opacity:1;stop-color:#000000"
             d="m 2.9150675,0.79377114 c -0.059422,-4.339e-4 -0.1187044,0.00581 -0.1767334,0.018603 C 2.5323851,0.85815214 2.3531338,0.98403684 2.2401733,1.1622233 2.0051684,1.5322498 2.1145994,2.0227225 2.4846028,2.2577637 L 3.0954183,2.646371 H 1.3223999 C 0.88442738,2.646656 0.52945168,3.0016317 0.52916668,3.4396042 0.52973658,3.8773748 0.88462898,4.232036 1.3223999,4.2323206 h 1.100708 L 1.1208618,5.1795496 C 0.76698768,5.4371152 0.68838758,5.9325269 0.94516188,6.2869756 1.2028478,6.6421557 1.6998365,6.720859 2.0546549,6.4626754 L 2.7331665,5.9691655 c 0.297882,1.1353458 1.3271498,1.9683553 2.5585001,1.9683553 1.4657902,0 2.6458333,-1.1800431 2.6458333,-2.6458333 0,-1.3229167 -0.8397725,-2.0714071 -1.6913696,-2.5223266 L 3.3357137,0.91779454 C 3.2099278,0.83777044 3.0641477,0.79478864 2.9150675,0.79377114 Z"
             sodipodi:nodetypes="cccccccccccccscccc" /><path
             id="path9459"
             style="color:#000000;fill:url(#linearGradient2792);fill-opacity:1;stroke-linecap:round;stroke-linejoin:round"
             d="M 2.9347047,1.058592 C 2.7458682,1.050422 2.5670111,1.143591 2.4654827,1.3030213 2.3087051,1.5493564 2.3810897,1.8761263 2.6272299,2.0332093 L 4.0038901,2.9101584 H 1.3229168 C 1.030262,2.9098716 0.79294645,3.147187 0.79323335,3.4398418 0.79323225,3.7322948 1.030464,3.9692949 1.3229168,3.9690084 h 1.9109944 l -1.95802,1.4236857 C 1.0391869,5.5651227 0.98753875,5.8970139 1.1606528,6.1332174 1.33296,6.3686134 1.6632726,6.4201597 1.899109,6.2484558 L 2.9202353,5.5058655 c 0.1075208,1.2182129 1.1248731,2.1673096 2.3719482,2.1673096 1.3192111,0 2.38125,-1.0620389 2.38125,-2.38125 0,-1.0583333 -0.7930376,-1.8970629 -1.5673462,-2.2996012 L 3.1956707,1.1407574 C 3.1173889,1.0909657 3.0273921,1.0626301 2.9347047,1.058592 Z"
             sodipodi:nodetypes="ccccccccccccscccc" /><path
             style="fill:url(#linearGradient4732);fill-opacity:1;stroke:none;stroke-width:0.244086;stroke-linecap:round;stroke-linejoin:round;stroke-miterlimit:4;stroke-dasharray:none;stroke-opacity:1"
             d="m 5.291667,3.4395833 c 1.0260548,0 1.8520837,0.8260292 1.8520837,1.8520834 0,1.0260542 -0.8260289,1.8520834 -1.8520837,1.8520834 -1.026054,0 -1.8520829,-0.8260292 -1.8520829,-1.8520834 0,-1.0260542 0.8260289,-1.8520834 1.8520829,-1.8520834 z"
             id="rect903"
             inkscape:connector-curvature="0" /><path
             id="rect1902"
             d="m 5.2916665,4.2333331 c 0.5863166,0 1.0583333,0.4720166 1.0583333,1.0583333 0,0.5863166 -0.4720167,1.0583332 -1.0583333,1.0583332 -0.5863167,0 -1.0583333,-0.4720166 -1.0583333,-1.0583332 0,-0.5863167 0.4720166,-1.0583333 1.0583333,-1.0583333 z"
             style="fill:url(#linearGradient5568);fill-opacity:1;stroke:none;stroke-width:0.470369;stroke-linecap:round;stroke-linejoin:round;stroke-miterlimit:4;stroke-dasharray:none;stroke-dashoffset:0;stroke-opacity:1"
             inkscape:connector-curvature="0" /></g></g></g></g></svg>
