<?xml version="1.0" encoding="UTF-8" standalone="no"?>
<!-- Created with Inkscape (http://www.inkscape.org/) -->

<svg
   width="48"
   height="48"
   viewBox="0 0 48 48"
   version="1.1"
   id="svg8"
   inkscape:version="1.2.2 (b0a8486541, 2022-12-01)"
   sodipodi:docname="application-x-ms-dos-executable.svg"
   xml:space="preserve"
   xmlns:inkscape="http://www.inkscape.org/namespaces/inkscape"
   xmlns:sodipodi="http://sodipodi.sourceforge.net/DTD/sodipodi-0.dtd"
   xmlns:xlink="http://www.w3.org/1999/xlink"
   xmlns="http://www.w3.org/2000/svg"
   xmlns:svg="http://www.w3.org/2000/svg"
   xmlns:rdf="http://www.w3.org/1999/02/22-rdf-syntax-ns#"
   xmlns:cc="http://creativecommons.org/ns#"
   xmlns:dc="http://purl.org/dc/elements/1.1/"><title
     id="title7895">Antu icon Theme</title><defs
     id="defs2"><linearGradient
       inkscape:collect="always"
       id="linearGradient9824"><stop
         style="stop-color:#ffcb00;stop-opacity:1;"
         offset="0"
         id="stop9820" /><stop
         style="stop-color:#ffe000;stop-opacity:1;"
         offset="1"
         id="stop9822" /></linearGradient><linearGradient
       inkscape:collect="always"
       id="linearGradient7953"><stop
         style="stop-color:#1586f3;stop-opacity:1;"
         offset="0"
         id="stop7949" /><stop
         style="stop-color:#03b0fd;stop-opacity:1;"
         offset="1"
         id="stop7951" /></linearGradient><linearGradient
       inkscape:collect="always"
       id="linearGradient6496"><stop
         style="stop-color:#70dc23;stop-opacity:1;"
         offset="0"
         id="stop6492" /><stop
         style="stop-color:#a0ea1e;stop-opacity:1;"
         offset="1"
         id="stop6494" /></linearGradient><linearGradient
       inkscape:collect="always"
       id="linearGradient5177"><stop
         style="stop-color:#fc3c3c;stop-opacity:1;"
         offset="0"
         id="stop5173" /><stop
         style="stop-color:#fd5138;stop-opacity:1;"
         offset="1"
         id="stop5175" /></linearGradient><linearGradient
       inkscape:collect="always"
       id="linearGradient1670"><stop
         style="stop-color:#06111c;stop-opacity:1;"
         offset="0"
         id="stop1666" /><stop
         style="stop-color:#15272f;stop-opacity:1;"
         offset="1"
         id="stop1668" /></linearGradient><style
       id="current-color-scheme"
       type="text/css">
      .ColorScheme-Text {
        color:#122036;
      }
      </style><style
       id="current-color-scheme-2"
       type="text/css">
      .ColorScheme-Text {
        color:#122036;
      }
      </style><style
       id="current-color-scheme-0"
       type="text/css">
      .ColorScheme-Text {
        color:#122036;
      }
      </style><linearGradient
       inkscape:collect="always"
       xlink:href="#linearGradient1670"
       id="linearGradient1672"
       x1="149.99998"
       y1="281.64999"
       x2="149.99998"
       y2="239.64998"
       gradientUnits="userSpaceOnUse" /><linearGradient
       inkscape:collect="always"
       xlink:href="#linearGradient5177"
       id="linearGradient5179"
       x1="1.999999"
       y1="299.65002"
       x2="1.999999"
       y2="289.65002"
       gradientUnits="userSpaceOnUse" /><linearGradient
       inkscape:collect="always"
       xlink:href="#linearGradient6496"
       id="linearGradient6498"
       x1="13.999999"
       y1="298.65002"
       x2="13.999999"
       y2="290.65002"
       gradientUnits="userSpaceOnUse" /><linearGradient
       inkscape:collect="always"
       xlink:href="#linearGradient7953"
       id="linearGradient7955"
       x1="1.999999"
       y1="310.65002"
       x2="1.999999"
       y2="301.65002"
       gradientUnits="userSpaceOnUse" /><linearGradient
       inkscape:collect="always"
       xlink:href="#linearGradient9824"
       id="linearGradient9826"
       x1="13.999999"
       y1="310.65002"
       x2="13.999999"
       y2="302.65002"
       gradientUnits="userSpaceOnUse" /></defs><sodipodi:namedview
     id="base"
     pagecolor="#ffffff"
     bordercolor="#666666"
     borderopacity="1.0"
     inkscape:pageopacity="0.0"
     inkscape:pageshadow="2"
     inkscape:zoom="16.000001"
     inkscape:cx="25.124999"
     inkscape:cy="23.062499"
     inkscape:document-units="px"
     inkscape:current-layer="g93066"
     showgrid="true"
     units="px"
     inkscape:window-width="2560"
     inkscape:window-height="1369"
     inkscape:window-x="0"
     inkscape:window-y="0"
     inkscape:window-maximized="1"
     objecttolerance="10"
     gridtolerance="10"
     guidetolerance="10"
     inkscape:snap-bbox="true"
     inkscape:bbox-paths="true"
     inkscape:bbox-nodes="true"
     inkscape:snap-bbox-edge-midpoints="true"
     inkscape:snap-bbox-midpoints="true"
     inkscape:object-paths="true"
     inkscape:snap-intersection-paths="true"
     inkscape:showpageshadow="2"
     inkscape:pagecheckerboard="0"
     inkscape:deskcolor="#d1d1d1"><inkscape:grid
       type="xygrid"
       id="grid7897"
       empspacing="4" /></sodipodi:namedview><metadata
     id="metadata5"><rdf:RDF><cc:Work
         rdf:about=""><dc:format>image/svg+xml</dc:format><dc:type
           rdf:resource="http://purl.org/dc/dcmitype/StillImage" /><dc:title>Antu icon Theme</dc:title></cc:Work></rdf:RDF></metadata><g
     inkscape:label="Capa 1"
     inkscape:groupmode="layer"
     id="layer1"
     transform="translate(0,-266.64999)"><g
       id="g2217"
       transform="translate(30.000001,16.999985)"><g
         id="g4540"
         transform="translate(-35.999991,-39.999995)"><g
           id="g2779"
           transform="translate(-120,53.000015)"><path
             style="fill:#1a1a1a;fill-opacity:1;stroke:none;stroke-width:6;stroke-linecap:square;stroke-linejoin:round;stroke-miterlimit:18;stroke-dasharray:none;stroke-dashoffset:0;stroke-opacity:1;paint-order:markers stroke fill"
             d="m 133.99999,238.64999 h 32 c 1.662,0 3,1.33799 3,3 v 37.99999 c 0,1.662 -1.338,3 -3,3 h -32 c -1.66199,0 -3,-1.338 -3,-3 v -38 c 0,-1.662 1.33801,-3 3,-2.99999 z"
             id="rect6397-1-9"
             inkscape:connector-curvature="0" /><path
             style="fill:url(#linearGradient1672);fill-opacity:1;stroke:none;stroke-width:6;stroke-linecap:square;stroke-linejoin:round;stroke-miterlimit:18;stroke-dasharray:none;stroke-dashoffset:0;stroke-opacity:1;paint-order:markers stroke fill"
             d="m 133.99999,239.64999 h 32 c 1.108,0 2,0.89199 2,2 v 37.99999 c 0,1.108 -0.892,2 -2,2 h -32 c -1.10799,0 -2,-0.892 -2,-2 v -38 c 0,-1.108 0.89201,-2 2,-1.99999 z"
             id="rect6399-4-3"
             inkscape:connector-curvature="0"
             sodipodi:nodetypes="sssssssss" /><path
             id="rect850-5-9-7-9-7-0-4-4"
             style="fill:#2f3f46;fill-opacity:1;stroke-width:1.2;stroke-linecap:round;stroke-linejoin:round;stroke-miterlimit:1.8;paint-order:stroke fill markers;stop-color:#000000"
             d="m 135,239.64999 v 3 h 3 v -3 z m 3,3 v 3 h 3 v -3 z m 3,0 h 3 v -3 h -3 z m 3,0 v 3 h 3 v -3 z m 3,0 h 3 v -3 h -3 z m 3,0 v 3 h 3 v -3 z m 3,0 h 3 v -3 h -3 z m 3,0 v 3 h 3 v -3 z m 3,0 h 3 v -3 h -3 z m 3,0 v 3 h 3 v -3 z m 3,0 h 1.5 1.5 v -1.5 c 0,-0.83099 -0.669,-1.5 -1.5,-1.5 H 165 v 1.5 z m 0,3 v 3 h 3 v -3 z m 0,3 h -3 v 3 h 3 z m 0,3 v 3 h 3 v -3 z m 0,3 h -3 v 3 h 3 z m 0,3 v 3 h 3 v -3 z m 0,3 h -3 v 3 h 3 z m 0,3 v 2.99999 h 3 v -3 z m 0,2.99999 h -3 v 3 h 3 z m 0,3 v 3 h 3 v -3 z m 0,3 h -3 v 3 h 3 z m 0,3 v 3 h 3 v -3 z m 0,3 h -3 v 3 h 3 z m -3,0 v -3 h -3 v 3 z m -3,0 h -3 v 3 h 3 z m -3,0 v -3 h -3 v 3 z m -3,0 h -3 v 3 h 3 z m -3,0 v -3 h -3 v 3 z m -3,0 h -3 v 3 h 3 z m -3,0 v -3 h -3 v 3 z m -3,0 h -3 v 3 h 3 z m -3,0 v -3 h -3 v 3 z m -3,0 h -1.5 -1.5 v 1.5 c 0,0.83099 0.669,1.5 1.5,1.5 h 1.5 v -1.5 z m 0,-3 v -3 h -3 v 3 z m 0,-3 h 3 v -3 h -3 z m 0,-3 v -3 h -3 v 3 z m 0,-3 h 3 v -3 h -3 z m 0,-3 v -3 h -3 v 3 z m 0,-3 h 3 v -3 h -3 z m 0,-3 v -3 h -3 v 3 z m 0,-3 h 3 v -3 h -3 z m 0,-3 v -3 h -3 v 3 z m 0,-3 h 3 v -3 h -3 z m 0,-3 v -3 h -3 v 3 z m 3,3 v 3 h 3 v -3 z m 3,0 h 3 v -3 h -3 z m 3,0 v 3 h 3 v -3 z m 3,0 h 3 v -3 h -3 z m 3,0 v 3 h 3 v -3 z m 3,0 h 3 v -3 h -3 z m 3,0 v 3 h 3 v -3 z m 3,0 h 3 v -3 h -3 z m 0,3 v 3 h 3 v -3 z m 0,3 h -3 v 3 h 3 z m 0,3 v 3 h 3 v -3 z m 0,3 h -3 v 3 h 3 z m 0,3 v 3 h 3 v -3 z m 0,3 h -3 v 3 h 3 z m 0,3 v 3 h 3 v -3 z m 0,3 h -3 v 3 h 3 z m -3,0 v -3 h -3 v 3 z m -3,0 h -3 v 3 h 3 z m -3,0 v -3 h -3 v 3 z m -3,0 h -3 v 3 h 3 z m -3,0 v -3 h -3 v 3 z m -3,0 h -3 v 3 h 3 z m 0,-3 v -3 h -3 v 3 z m 0,-3 h 3 v -3 h -3 z m 0,-3 v -3 h -3 v 3 z m 0,-3 h 3 v -3 h -3 z m 0,-3 v -3 h -3 v 3 z m 0,-3 h 3 v -3 h -3 z m 3,0 v 3 h 3 v -3 z m 3,0 h 3 v -3 h -3 z m 3,0 v 3 h 3 v -3 z m 3,0 h 3 v -3 h -3 z m 0,3 v 3 h 3 v -3 z m 0,3 h -3 v 3 h 3 z m 0,3 v 3 h 3 v -3 z m 0,3 h -3 v 3 h 3 z m -3,0 v -3 h -3 v 3 z m -3,0 h -3 v 3 h 3 z m 0,-3 v -3 h -3 v 3 z m 0,-3 h 3 v -3 h -3 z" /></g></g><g
         id="g93066"
         transform="translate(-15,-28.000005)"><g
           id="g93076"
           transform="translate(1,1)"><path
             id="rect3388-8-4-1-9-6-2"
             style="fill:#1a1a1a;fill-opacity:1;stroke:none;stroke-width:2;stroke-linecap:round;stroke-linejoin:round;stroke-miterlimit:4;stroke-dasharray:none;stroke-opacity:1;paint-order:fill markers stroke"
             d="m -2.000001,289.65001 c -1.1079989,0 -2,0.892 -2,2 v 8 2 2 8 c 0,1.108 0.8920011,2 2,2 h 7 1 2 2 1 7 c 1.107999,0 2,-0.892 2,-2 v -8 -2 -2 -8 c 0,-1.108 -0.892001,-2 -2,-2 h -7 -1 -2 -2 -1 z" /><path
             style="fill:#b2262c;fill-opacity:1;stroke:none;stroke-width:2;stroke-linecap:round;stroke-linejoin:round;stroke-miterlimit:4;stroke-dasharray:none;stroke-opacity:1;paint-order:fill markers stroke"
             d="m -2.000001,288.65001 c -1.108,0 -2,0.892 -2,2 v 8 2 h 2 7 1 2 v -2 -1 -7 -2 h -2 -1 z"
             id="rect3388-8-4-1-9-6"
             inkscape:connector-curvature="0"
             sodipodi:nodetypes="ssccccccccccccs" /><path
             style="fill:url(#linearGradient5179);fill-opacity:1;stroke:none;stroke-width:2;stroke-linecap:round;stroke-linejoin:round;stroke-miterlimit:4;stroke-dasharray:none;stroke-opacity:1;paint-order:fill markers stroke"
             d="m -2.000001,289.65001 c -0.554,0 -1,0.446 -1,1 v 8 1 h 1 8 1 v -1 -8 -1 h -1 z"
             id="rect3388-8-8-96-9-9"
             inkscape:connector-curvature="0"
             sodipodi:nodetypes="sscccccccccs" /><path
             style="fill:#0f49bf;fill-opacity:1;stroke:none;stroke-width:2;stroke-linecap:round;stroke-linejoin:round;stroke-miterlimit:4;stroke-dasharray:none;stroke-opacity:1;paint-order:fill markers stroke"
             d="m -2.000001,312.65001 c -1.108,0 -2,-0.892 -2,-2 v -8 -2 h 2 7 1 2 v 2 1 7 2 h -2 -1 z"
             id="rect3388-8-4-1-9-6-0"
             inkscape:connector-curvature="0"
             sodipodi:nodetypes="ssccccccccccccs" /><path
             style="fill:url(#linearGradient7955);fill-opacity:1;stroke:none;stroke-width:2;stroke-linecap:round;stroke-linejoin:round;stroke-miterlimit:4;stroke-dasharray:none;stroke-opacity:1;paint-order:fill markers stroke"
             d="m -2.000001,311.65001 c -0.554,0 -1,-0.44601 -1,-1 v -8 -1 h 1 8 1 v 1 8 1 h -1 z"
             id="rect3388-8-8-96-9-9-4"
             inkscape:connector-curvature="0"
             sodipodi:nodetypes="sscccccccccs" /><path
             style="fill:#55b01b;fill-opacity:1;stroke:none;stroke-width:2;stroke-linecap:round;stroke-linejoin:round;stroke-miterlimit:4;stroke-dasharray:none;stroke-opacity:1;paint-order:fill markers stroke"
             d="m 17.999999,288.65001 c 1.108,0 2,0.892 2,2 v 8 2 h -2 -7 -1 -2 v -2 -1 -7 -2 h 2 1 z"
             id="rect3388-8-4-1-9-6-8"
             inkscape:connector-curvature="0"
             sodipodi:nodetypes="ssccccccccccccs" /><path
             style="fill:url(#linearGradient6498);fill-opacity:1;stroke:none;stroke-width:2;stroke-linecap:round;stroke-linejoin:round;stroke-miterlimit:4;stroke-dasharray:none;stroke-opacity:1;paint-order:fill markers stroke"
             d="m 17.999999,289.65001 c 0.554,0 1,0.446 1,1 v 8 1 h -1 -8 -1 v -1 -8 -1 h 1 z"
             id="rect3388-8-8-96-9-9-5"
             inkscape:connector-curvature="0"
             sodipodi:nodetypes="sscccccccccs" /><path
             style="fill:#f69101;fill-opacity:1;stroke:none;stroke-width:2;stroke-linecap:round;stroke-linejoin:round;stroke-miterlimit:4;stroke-dasharray:none;stroke-opacity:1;paint-order:fill markers stroke"
             d="m 17.999999,312.65001 c 1.108,0 2,-0.892 2,-2 v -8 -2 h -2 -7 -1 -2 v 2 1 7 2 h 2 1 z"
             id="rect3388-8-4-1-9-6-0-1"
             inkscape:connector-curvature="0"
             sodipodi:nodetypes="ssccccccccccccs" /><path
             style="fill:url(#linearGradient9826);fill-opacity:1;stroke:none;stroke-width:2;stroke-linecap:round;stroke-linejoin:round;stroke-miterlimit:4;stroke-dasharray:none;stroke-opacity:1;paint-order:fill markers stroke"
             d="m 17.999999,311.65001 c 0.554,0 1,-0.44601 1,-1 v -8 -1 h -1 -8 -1 v 1 8 1 h 1 z"
             id="rect3388-8-8-96-9-9-4-2"
             inkscape:connector-curvature="0"
             sodipodi:nodetypes="sscccccccccs" /></g></g></g></g></svg>
