<?xml version="1.0" encoding="UTF-8" standalone="no"?>
<!-- Created with Inkscape (http://www.inkscape.org/) -->

<svg
   width="48"
   height="48"
   viewBox="0 0 48 48"
   version="1.1"
   id="svg8"
   inkscape:version="1.2.2 (b0a8486541, 2022-12-01)"
   sodipodi:docname="application-vnd.iccprofile.svg"
   xml:space="preserve"
   xmlns:inkscape="http://www.inkscape.org/namespaces/inkscape"
   xmlns:sodipodi="http://sodipodi.sourceforge.net/DTD/sodipodi-0.dtd"
   xmlns:xlink="http://www.w3.org/1999/xlink"
   xmlns="http://www.w3.org/2000/svg"
   xmlns:svg="http://www.w3.org/2000/svg"
   xmlns:rdf="http://www.w3.org/1999/02/22-rdf-syntax-ns#"
   xmlns:cc="http://creativecommons.org/ns#"
   xmlns:dc="http://purl.org/dc/elements/1.1/"><title
     id="title7895">Antu icon Theme</title><defs
     id="defs2"><linearGradient
       inkscape:collect="always"
       id="linearGradient14396"><stop
         style="stop-color:#272727;stop-opacity:1;"
         offset="0"
         id="stop14392" /><stop
         style="stop-color:#4d4d4d;stop-opacity:1;"
         offset="1"
         id="stop14394" /></linearGradient><linearGradient
       inkscape:collect="always"
       id="linearGradient12594"><stop
         style="stop-color:#e7e8e9;stop-opacity:1;"
         offset="0"
         id="stop12590" /><stop
         style="stop-color:#ecf5fd;stop-opacity:1;"
         offset="1"
         id="stop12592" /></linearGradient><linearGradient
       inkscape:collect="always"
       id="linearGradient9895"><stop
         style="stop-color:#2bb773;stop-opacity:1;"
         offset="0"
         id="stop9891" /><stop
         style="stop-color:#56d38c;stop-opacity:1;"
         offset="1"
         id="stop9893" /></linearGradient><linearGradient
       inkscape:collect="always"
       id="linearGradient8438"><stop
         style="stop-color:#ffc900;stop-opacity:1;"
         offset="0"
         id="stop8434" /><stop
         style="stop-color:#ffe200;stop-opacity:1;"
         offset="1"
         id="stop8436" /></linearGradient><linearGradient
       inkscape:collect="always"
       id="linearGradient7188"><stop
         style="stop-color:#2c84ef;stop-opacity:1;"
         offset="0"
         id="stop7184" /><stop
         style="stop-color:#4cb0f3;stop-opacity:1;"
         offset="1"
         id="stop7186" /></linearGradient><linearGradient
       inkscape:collect="always"
       id="linearGradient5731"><stop
         style="stop-color:#f34242;stop-opacity:1;"
         offset="0"
         id="stop5727" /><stop
         style="stop-color:#ff6767;stop-opacity:1;"
         offset="1"
         id="stop5729" /></linearGradient><linearGradient
       gradientTransform="translate(-79.999997,-55.99997)"
       y2="322.64999"
       x2="60"
       y1="362.64999"
       x1="60"
       gradientUnits="userSpaceOnUse"
       id="linearGradient6625-7"
       xlink:href="#linearGradient4846"
       inkscape:collect="always" /><linearGradient
       inkscape:collect="always"
       id="linearGradient4846"><stop
         style="stop-color:#f1efea;stop-opacity:1;"
         offset="0"
         id="stop4842" /><stop
         style="stop-color:#fcfcfc;stop-opacity:1"
         offset="1"
         id="stop4844" /></linearGradient><style
       id="current-color-scheme"
       type="text/css">
      .ColorScheme-Text {
        color:#122036;
      }
      </style><style
       id="current-color-scheme-2"
       type="text/css">
      .ColorScheme-Text {
        color:#122036;
      }
      </style><style
       id="current-color-scheme-0"
       type="text/css">
      .ColorScheme-Text {
        color:#122036;
      }
      </style><linearGradient
       inkscape:collect="always"
       xlink:href="#linearGradient5731"
       id="linearGradient5733"
       x1="-9.00002"
       y1="313.64999"
       x2="-9.00002"
       y2="305.64999"
       gradientUnits="userSpaceOnUse" /><linearGradient
       inkscape:collect="always"
       xlink:href="#linearGradient7188"
       id="linearGradient7190"
       x1="2.99998"
       y1="313.64999"
       x2="2.99998"
       y2="305.64999"
       gradientUnits="userSpaceOnUse" /><linearGradient
       inkscape:collect="always"
       xlink:href="#linearGradient8438"
       id="linearGradient8440"
       x1="-9.00002"
       y1="301.64999"
       x2="-9.00002"
       y2="293.64999"
       gradientUnits="userSpaceOnUse" /><linearGradient
       inkscape:collect="always"
       xlink:href="#linearGradient9895"
       id="linearGradient9897"
       x1="2.99998"
       y1="301.64999"
       x2="2.99998"
       y2="293.64999"
       gradientUnits="userSpaceOnUse" /><linearGradient
       inkscape:collect="always"
       xlink:href="#linearGradient12594"
       id="linearGradient12596"
       x1="-3.00002"
       y1="307.64999"
       x2="-3.00002"
       y2="298.64999"
       gradientUnits="userSpaceOnUse" /><linearGradient
       inkscape:collect="always"
       xlink:href="#linearGradient14396"
       id="linearGradient14400"
       x1="-3.00002"
       y1="305.64999"
       x2="-3.00002"
       y2="301.64999"
       gradientUnits="userSpaceOnUse" /></defs><sodipodi:namedview
     id="base"
     pagecolor="#ffffff"
     bordercolor="#666666"
     borderopacity="1.0"
     inkscape:pageopacity="0.0"
     inkscape:pageshadow="2"
     inkscape:zoom="7.9999996"
     inkscape:cx="65.937503"
     inkscape:cy="11.750001"
     inkscape:document-units="px"
     inkscape:current-layer="layer1"
     showgrid="true"
     units="px"
     inkscape:window-width="2560"
     inkscape:window-height="1363"
     inkscape:window-x="0"
     inkscape:window-y="0"
     inkscape:window-maximized="1"
     objecttolerance="10"
     gridtolerance="10"
     guidetolerance="10"
     inkscape:snap-bbox="true"
     inkscape:bbox-paths="true"
     inkscape:bbox-nodes="true"
     inkscape:snap-bbox-edge-midpoints="true"
     inkscape:snap-bbox-midpoints="true"
     inkscape:object-paths="true"
     inkscape:snap-intersection-paths="true"
     inkscape:showpageshadow="2"
     inkscape:pagecheckerboard="0"
     inkscape:deskcolor="#d1d1d1"><inkscape:grid
       type="xygrid"
       id="grid7897"
       empspacing="4" /></sodipodi:namedview><metadata
     id="metadata5"><rdf:RDF><cc:Work
         rdf:about=""><dc:format>image/svg+xml</dc:format><dc:type
           rdf:resource="http://purl.org/dc/dcmitype/StillImage" /><dc:title>Antu icon Theme</dc:title></cc:Work></rdf:RDF></metadata><g
     inkscape:label="Capa 1"
     inkscape:groupmode="layer"
     id="layer1"
     transform="translate(0,-266.64999)"><g
       inkscape:label="Capa 1"
       id="layer1-3"><g
         id="g8745"
         transform="translate(44,4)"><path
           inkscape:connector-curvature="0"
           id="rect6397-1"
           d="m -36,264.64999 h 32 c 1.662,0 3,1.33798 3,3 v 38 c 0,1.66197 -1.338,3 -3,3 h -32 c -1.661998,0 -3,-1.33803 -3,-3 v -38 c 0,-1.66202 1.338002,-3 3,-3 z"
           style="opacity:1;vector-effect:none;fill:#90a4ae;fill-opacity:1;stroke:none;stroke-width:6;stroke-linecap:square;stroke-linejoin:round;stroke-miterlimit:18;stroke-dasharray:none;stroke-dashoffset:0;stroke-opacity:1;paint-order:markers stroke fill" /><path
           sodipodi:nodetypes="sssssssss"
           inkscape:connector-curvature="0"
           id="rect6399-4"
           d="m -36,265.64999 h 32 c 1.108001,0 2,0.892 2,2.00001 v 38.00001 c 0,1.10797 -0.891999,1.99997 -2,1.99997 h -32 c -1.107998,0 -2,-0.892 -2,-1.99997 V 267.65 c 0,-1.10801 0.892002,-2.00001 2,-2.00001 z"
           style="opacity:1;vector-effect:none;fill:url(#linearGradient6625-7);fill-opacity:1;stroke:none;stroke-width:6;stroke-linecap:square;stroke-linejoin:round;stroke-miterlimit:18;stroke-dasharray:none;stroke-dashoffset:0;stroke-opacity:1;paint-order:markers stroke fill" /></g><g
         transform="matrix(1.5,0,0,1.5,34,-160.32499)"
         id="layer1-6-6"
         inkscape:label="Capa 1"><g
           transform="translate(84,-4)"
           id="g5329" /></g><g
         id="g2217"
         transform="translate(30.000001,16.999985)"><g
           id="g4540"
           transform="translate(-35.999991,-39.999995)"
           style="fill:#d6dbdb;fill-opacity:1"><g
             id="g2779"
             transform="translate(-120,53.000015)"
             style="fill:#d6dbdb;fill-opacity:1"><path
               id="rect850-5-9-7-9-7-0-4-4"
               style="fill:#d6dbdb;fill-opacity:1;stroke-width:1.2;stroke-linecap:round;stroke-linejoin:round;stroke-miterlimit:1.8;paint-order:stroke fill markers;stop-color:#000000"
               d="m 135,239.64999 v 3 h 3 v -3 z m 3,3 v 3 h 3 v -3 z m 3,0 h 3 v -3 h -3 z m 3,0 v 3 h 3 v -3 z m 3,0 h 3 v -3 h -3 z m 3,0 v 3 h 3 v -3 z m 3,0 h 3 v -3 h -3 z m 3,0 v 3 h 3 v -3 z m 3,0 h 3 v -3 h -3 z m 3,0 v 3 h 3 v -3 z m 3,0 h 1.5 1.5 v -1.5 c 0,-0.83099 -0.669,-1.5 -1.5,-1.5 H 165 v 1.5 z m 0,3 v 3 h 3 v -3 z m 0,3 h -3 v 3 h 3 z m 0,3 v 3 h 3 v -3 z m 0,3 h -3 v 3 h 3 z m 0,3 v 3 h 3 v -3 z m 0,3 h -3 v 3 h 3 z m 0,3 v 2.99999 h 3 v -3 z m 0,2.99999 h -3 v 3 h 3 z m 0,3 v 3 h 3 v -3 z m 0,3 h -3 v 3 h 3 z m 0,3 v 3 h 3 v -3 z m 0,3 h -3 v 3 h 3 z m -3,0 v -3 h -3 v 3 z m -3,0 h -3 v 3 h 3 z m -3,0 v -3 h -3 v 3 z m -3,0 h -3 v 3 h 3 z m -3,0 v -3 h -3 v 3 z m -3,0 h -3 v 3 h 3 z m -3,0 v -3 h -3 v 3 z m -3,0 h -3 v 3 h 3 z m -3,0 v -3 h -3 v 3 z m -3,0 h -1.5 -1.5 v 1.5 c 0,0.83099 0.669,1.5 1.5,1.5 h 1.5 v -1.5 z m 0,-3 v -3 h -3 v 3 z m 0,-3 h 3 v -3 h -3 z m 0,-3 v -3 h -3 v 3 z m 0,-3 h 3 v -3 h -3 z m 0,-3 v -3 h -3 v 3 z m 0,-3 h 3 v -3 h -3 z m 0,-3 v -3 h -3 v 3 z m 0,-3 h 3 v -3 h -3 z m 0,-3 v -3 h -3 v 3 z m 0,-3 h 3 v -3 h -3 z m 0,-3 v -3 h -3 v 3 z m 3,3 v 3 h 3 v -3 z m 3,0 h 3 v -3 h -3 z m 3,0 v 3 h 3 v -3 z m 3,0 h 3 v -3 h -3 z m 3,0 v 3 h 3 v -3 z m 3,0 h 3 v -3 h -3 z m 3,0 v 3 h 3 v -3 z m 3,0 h 3 v -3 h -3 z m 0,3 v 3 h 3 v -3 z m 0,3 h -3 v 3 h 3 z m 0,3 v 3 h 3 v -3 z m 0,3 h -3 v 3 h 3 z m 0,3 v 3 h 3 v -3 z m 0,3 h -3 v 3 h 3 z m 0,3 v 3 h 3 v -3 z m 0,3 h -3 v 3 h 3 z m -3,0 v -3 h -3 v 3 z m -3,0 h -3 v 3 h 3 z m -3,0 v -3 h -3 v 3 z m -3,0 h -3 v 3 h 3 z m -3,0 v -3 h -3 v 3 z m -3,0 h -3 v 3 h 3 z m 0,-3 v -3 h -3 v 3 z m 0,-3 h 3 v -3 h -3 z m 0,-3 v -3 h -3 v 3 z m 0,-3 h 3 v -3 h -3 z m 0,-3 v -3 h -3 v 3 z m 0,-3 h 3 v -3 h -3 z m 3,0 v 3 h 3 v -3 z m 3,0 h 3 v -3 h -3 z m 3,0 v 3 h 3 v -3 z m 3,0 h 3 v -3 h -3 z m 0,3 v 3 h 3 v -3 z m 0,3 h -3 v 3 h 3 z m 0,3 v 3 h 3 v -3 z m 0,3 h -3 v 3 h 3 z m -3,0 v -3 h -3 v 3 z m -3,0 h -3 v 3 h 3 z m 0,-3 v -3 h -3 v 3 z m 0,-3 h 3 v -3 h -3 z" /></g></g></g></g><g
       id="g4901-2"
       transform="translate(22.00001,-18.999995)"><g
         id="g1374-9"
         transform="translate(-325.00001,-150.00001)" /><g
         id="g27431"
         transform="translate(5.00001,6)"><g
           id="g38971"
           transform="translate(-320.00001,-137)" /><g
           id="g27464-6"
           transform="translate(44,-6)"><path
             id="rect4496-7-2"
             style="fill:#a7babe;fill-opacity:1;stroke:none;stroke-width:0.587864;stroke-linecap:round;stroke-linejoin:round;stroke-miterlimit:4;stroke-dasharray:none;stroke-opacity:1"
             d="m -53.00002,298.64999 c -3.323997,0 -6,2.67601 -6,6 0,3.324 2.676003,6 6,6 3.323997,0 6,-2.676 6,-6 0,-3.32399 -2.676003,-6 -6,-6 z m 6,6 c 0,3.324 2.676003,6 6,6 3.323999,0 6,-2.676 6,-6 0,-3.32399 -2.676001,-6 -6,-6 -3.323997,0 -6,2.67601 -6,6 z m 6,6 c -3.323997,0 -6,2.67597 -6,6 0,3.32398 2.676003,6 6,6 3.323997,0 6,-2.67602 6,-6 0,-3.32403 -2.676003,-6 -6,-6 z m -6,6 c 0,-3.32403 -2.676003,-6 -6,-6 -3.323998,0 -6,2.67597 -6,6 0,3.32398 2.676002,6 6,6 3.323997,0 6,-2.67602 6,-6 z" /></g><g
           id="g27464"><path
             inkscape:connector-curvature="0"
             style="fill:#278c5a;fill-opacity:1;stroke:none;stroke-width:0.587864;stroke-linecap:round;stroke-linejoin:round;stroke-miterlimit:4;stroke-dasharray:none;stroke-opacity:1"
             d="m 2.9999579,291.64996 c 3.3240028,0 6.0000003,2.67598 6.0000003,5.99996 0,3.32401 -2.6759975,6.00002 -6.0000003,6.00002 -3.32400009,0 -5.9999997,-2.67601 -5.9999997,-6.00002 0,-3.32398 2.67599961,-5.99996 5.9999997,-5.99996 z"
             id="rect4496-7" /><path
             inkscape:connector-curvature="0"
             style="fill:url(#linearGradient9897);fill-opacity:1;stroke:none;stroke-width:0.500787;stroke-linecap:round;stroke-linejoin:round;stroke-miterlimit:4;stroke-dasharray:none;stroke-opacity:1"
             d="m 2.9999788,292.64996 c 2.7700003,0 5.0000012,2.23005 5.0000012,5.00003 0,2.77001 -2.2300009,5 -5.0000012,5 -2.76999943,0 -4.9999988,-2.22999 -4.9999988,-5 0,-2.76998 2.22999937,-5.00003 4.9999988,-5.00003 z"
             id="rect4570" /><path
             inkscape:connector-curvature="0"
             style="fill:#fd9909;fill-opacity:1;stroke:none;stroke-width:0.587864;stroke-linecap:round;stroke-linejoin:round;stroke-miterlimit:4;stroke-dasharray:none;stroke-opacity:1"
             d="m -9.000021,291.64999 c 3.3240003,0 6,2.67597 6,5.99996 0,3.32401 -2.6759997,6.00002 -6,6.00002 -3.324,0 -6,-2.67601 -6,-6.00002 0,-3.32399 2.676,-5.99996 6,-5.99996 z"
             id="rect4496-7-5" /><path
             inkscape:connector-curvature="0"
             style="fill:url(#linearGradient8440);fill-opacity:1;stroke:none;stroke-width:0.500787;stroke-linecap:round;stroke-linejoin:round;stroke-miterlimit:4;stroke-dasharray:none;stroke-opacity:1"
             d="m -9.00002,292.64999 c 2.7699991,0 4.999999,2.22998 4.999999,5 0,2.77001 -2.2299999,5 -4.999999,5 -2.770001,0 -5.000001,-2.22999 -5.000001,-5 0,-2.77002 2.23,-5 5.000001,-5 z"
             id="rect4570-9" /><path
             inkscape:connector-curvature="0"
             style="fill:#0c5fd9;fill-opacity:1;stroke:none;stroke-width:0.587864;stroke-linecap:round;stroke-linejoin:round;stroke-miterlimit:4;stroke-dasharray:none;stroke-opacity:1"
             d="m 2.9999799,303.65002 c 3.3240001,0 6,2.67594 6,5.99996 0,3.32399 -2.6759999,6.00002 -6,6.00002 -3.32399982,0 -6,-2.67603 -6,-6.00002 0,-3.32402 2.67600018,-5.99996 6,-5.99996 z"
             id="rect4496" /><path
             inkscape:connector-curvature="0"
             style="fill:url(#linearGradient7190);fill-opacity:1;stroke:none;stroke-width:0.500787;stroke-linecap:round;stroke-linejoin:round;stroke-miterlimit:4;stroke-dasharray:none;stroke-opacity:1"
             d="m 2.9999799,304.64997 c 2.77,0 5.0000002,2.22998 5.0000002,5 0,2.77002 -2.2300002,5.00003 -5.0000002,5.00003 -2.76999968,0 -4.9999998,-2.23001 -4.9999998,-5.00003 0,-2.77002 2.23000012,-5 4.9999998,-5 z"
             id="rect4570-9-6" /><path
             inkscape:connector-curvature="0"
             style="fill:#b62e2e;fill-opacity:1;stroke:none;stroke-width:0.587864;stroke-linecap:round;stroke-linejoin:round;stroke-miterlimit:4;stroke-dasharray:none;stroke-opacity:1"
             d="m -9.00002,303.65004 c 3.3240008,0 6,2.67594 6,5.99996 0,3.32399 -2.6759992,6.00002 -6,6.00002 -3.324001,0 -6,-2.67603 -6,-6.00002 0,-3.32402 2.675999,-5.99996 6,-5.99996 z"
             id="rect4496-3" /><path
             inkscape:connector-curvature="0"
             style="fill:url(#linearGradient5733);fill-opacity:1;stroke:none;stroke-width:0.500787;stroke-linecap:round;stroke-linejoin:round;stroke-miterlimit:4;stroke-dasharray:none;stroke-opacity:1"
             d="m -9.00002,304.64999 c 2.7699991,0 4.999999,2.23002 4.999999,5.00002 0,2.77002 -2.2299999,5 -4.999999,5 -2.770001,0 -5.000001,-2.22998 -5.000001,-5 0,-2.77001 2.23,-5.00002 5.000001,-5.00002 z"
             id="rect4570-9-6-5" /></g><path
           inkscape:connector-curvature="0"
           style="fill:#b5c3c9;fill-opacity:1;stroke:none;stroke-width:0.587864;stroke-linecap:round;stroke-linejoin:round;stroke-miterlimit:4;stroke-dasharray:none;stroke-opacity:1"
           d="m -3.0000194,297.65 c 3.32399948,0 5.9999994,2.67593 5.9999994,5.99995 0,3.32399 -2.67599992,6.00002 -5.9999994,6.00002 -3.3240006,0 -6.0000006,-2.67603 -6.0000006,-6.00002 0,-3.32402 2.676,-5.99995 6.0000006,-5.99995 z"
           id="rect4496-1" /><path
           inkscape:connector-curvature="0"
           style="fill:url(#linearGradient12596);fill-opacity:1;stroke:none;stroke-width:0.500787;stroke-linecap:round;stroke-linejoin:round;stroke-miterlimit:4;stroke-dasharray:none;stroke-opacity:1"
           d="m -3.0000195,298.64997 c 2.7699994,0 4.9999995,2.23002 4.9999995,5.00003 0,2.77002 -2.2300001,5 -4.9999995,5 -2.7700005,0 -5.0000005,-2.22998 -5.0000005,-5 0,-2.77001 2.23,-5.00003 5.0000005,-5.00003 z"
           id="rect4570-9-6-2" /><path
           id="rect27518-6"
           style="fill:url(#linearGradient14400);fill-opacity:1;stroke-width:2;stroke-linecap:round;stroke-linejoin:round;stroke-miterlimit:1.8;paint-order:stroke fill markers;stop-color:#000000"
           d="m -3.00002,300.64999 -1.5957031,2.79101 v 0.002 c -0.2536542,0.3352 -0.4042969,0.75241 -0.4042969,1.20704 0,1.10799 0.8920011,2 2,2 1.1079989,0 2,-0.89201 2,-2 0,-0.45463 -0.1506427,-0.87184 -0.4042969,-1.20704 -3.119e-4,-4.1e-4 3.116e-4,-0.002 0,-0.002 z" /></g></g></g></svg>
