<?xml version="1.0" encoding="UTF-8" standalone="no"?>
<!-- Created with Inkscape (http://www.inkscape.org/) -->

<svg
   width="48"
   height="48"
   viewBox="0 0 48 48"
   version="1.1"
   id="svg8"
   inkscape:version="1.2.2 (b0a8486541, 2022-12-01)"
   sodipodi:docname="application-x-smb-server.svg"
   xml:space="preserve"
   xmlns:inkscape="http://www.inkscape.org/namespaces/inkscape"
   xmlns:sodipodi="http://sodipodi.sourceforge.net/DTD/sodipodi-0.dtd"
   xmlns:xlink="http://www.w3.org/1999/xlink"
   xmlns="http://www.w3.org/2000/svg"
   xmlns:svg="http://www.w3.org/2000/svg"
   xmlns:rdf="http://www.w3.org/1999/02/22-rdf-syntax-ns#"
   xmlns:cc="http://creativecommons.org/ns#"
   xmlns:dc="http://purl.org/dc/elements/1.1/"><title
     id="title7895">Antu icon Theme</title><defs
     id="defs2"><linearGradient
       inkscape:collect="always"
       id="linearGradient11969"><stop
         style="stop-color:#ffcd00;stop-opacity:1;"
         offset="0"
         id="stop11965" /><stop
         style="stop-color:#fdcc00;stop-opacity:1;"
         offset="1"
         id="stop11967" /></linearGradient><linearGradient
       inkscape:collect="always"
       id="linearGradient9201"><stop
         style="stop-color:#118ff5;stop-opacity:1;"
         offset="0"
         id="stop9197" /><stop
         style="stop-color:#04aefd;stop-opacity:1;"
         offset="1"
         id="stop9199" /></linearGradient><linearGradient
       inkscape:collect="always"
       id="linearGradient5674"><stop
         style="stop-color:#73dd22;stop-opacity:1;"
         offset="0"
         id="stop5670" /><stop
         style="stop-color:#98e81f;stop-opacity:1;"
         offset="1"
         id="stop5672" /></linearGradient><linearGradient
       inkscape:collect="always"
       id="linearGradient4355"><stop
         style="stop-color:#fc3f3b;stop-opacity:1;"
         offset="0"
         id="stop4351" /><stop
         style="stop-color:#e74334;stop-opacity:1;"
         offset="1"
         id="stop4353" /></linearGradient><linearGradient
       inkscape:collect="always"
       id="linearGradient2330"><stop
         style="stop-color:#f1efea;stop-opacity:1;"
         offset="0"
         id="stop2326" /><stop
         style="stop-color:#fcfcfc;stop-opacity:1;"
         offset="1"
         id="stop2328" /></linearGradient><style
       id="current-color-scheme"
       type="text/css">
      .ColorScheme-Text {
        color:#122036;
      }
      </style><style
       id="current-color-scheme-2"
       type="text/css">
      .ColorScheme-Text {
        color:#122036;
      }
      </style><style
       id="current-color-scheme-0"
       type="text/css">
      .ColorScheme-Text {
        color:#122036;
      }
      </style><style
       id="current-color-scheme-5"
       type="text/css">
      .ColorScheme-Text {
        color:#122036;
      }
      </style><linearGradient
       inkscape:collect="always"
       xlink:href="#linearGradient2330"
       id="linearGradient2332"
       x1="-6.000001"
       y1="294.64999"
       x2="-6.000001"
       y2="252.65001"
       gradientUnits="userSpaceOnUse" /><linearGradient
       inkscape:collect="always"
       xlink:href="#linearGradient4355"
       id="linearGradient4357"
       x1="-1.000001"
       y1="284.64999"
       x2="-1.000001"
       y2="279.64999"
       gradientUnits="userSpaceOnUse" /><linearGradient
       inkscape:collect="always"
       xlink:href="#linearGradient5674"
       id="linearGradient5676"
       x1="5.999999"
       y1="284.64999"
       x2="5.999999"
       y2="279.64999"
       gradientUnits="userSpaceOnUse" /><linearGradient
       inkscape:collect="always"
       xlink:href="#linearGradient9201"
       id="linearGradient9203"
       x1="-1e-06"
       y1="291.64999"
       x2="-1e-06"
       y2="286.64999"
       gradientUnits="userSpaceOnUse" /><linearGradient
       inkscape:collect="always"
       xlink:href="#linearGradient11969"
       id="linearGradient11971"
       x1="5.999999"
       y1="291.64999"
       x2="5.999999"
       y2="286.64999"
       gradientUnits="userSpaceOnUse" /></defs><sodipodi:namedview
     id="base"
     pagecolor="#ffffff"
     bordercolor="#666666"
     borderopacity="1.0"
     inkscape:pageopacity="0.0"
     inkscape:pageshadow="2"
     inkscape:zoom="11.313709"
     inkscape:cx="49.409083"
     inkscape:cy="33.852735"
     inkscape:document-units="px"
     inkscape:current-layer="g2217"
     showgrid="true"
     units="px"
     inkscape:window-width="2560"
     inkscape:window-height="1363"
     inkscape:window-x="0"
     inkscape:window-y="0"
     inkscape:window-maximized="1"
     objecttolerance="10"
     gridtolerance="10"
     guidetolerance="10"
     inkscape:snap-bbox="true"
     inkscape:bbox-paths="true"
     inkscape:bbox-nodes="true"
     inkscape:snap-bbox-edge-midpoints="true"
     inkscape:snap-bbox-midpoints="true"
     inkscape:object-paths="true"
     inkscape:snap-intersection-paths="true"
     inkscape:showpageshadow="2"
     inkscape:pagecheckerboard="0"
     inkscape:deskcolor="#d1d1d1"
     showguides="false"><inkscape:grid
       type="xygrid"
       id="grid7897"
       empspacing="4" /></sodipodi:namedview><metadata
     id="metadata5"><rdf:RDF><cc:Work
         rdf:about=""><dc:format>image/svg+xml</dc:format><dc:type
           rdf:resource="http://purl.org/dc/dcmitype/StillImage" /><dc:title>Antu icon Theme</dc:title></cc:Work></rdf:RDF></metadata><g
     inkscape:label="Capa 1"
     inkscape:groupmode="layer"
     id="layer1"
     transform="translate(0,-266.64999)"><g
       id="g2217"
       transform="translate(30.000001,16.999985)"><path
         style="fill:#90a4ae;fill-opacity:1;stroke:none;stroke-width:6;stroke-linecap:square;stroke-linejoin:round;stroke-miterlimit:18;stroke-dasharray:none;stroke-dashoffset:0;stroke-opacity:1;paint-order:markers stroke fill"
         d="m -22,251.65001 h 32 c 1.662,0 3,1.33799 3,3 V 292.65 c 0,1.662 -1.338,3 -3,3 h -32 c -1.66199,0 -3,-1.338 -3,-3 v -38 c 0,-1.662 1.33801,-3 3,-2.99999 z"
         id="rect6397-1-9-0"
         inkscape:connector-curvature="0" /><path
         style="fill:url(#linearGradient2332);fill-opacity:1;stroke:none;stroke-width:6;stroke-linecap:square;stroke-linejoin:round;stroke-miterlimit:18;stroke-dasharray:none;stroke-dashoffset:0;stroke-opacity:1;paint-order:markers stroke fill"
         d="m -22,252.65001 h 32 c 1.108,0 2,0.89199 2,2 V 292.65 c 0,1.108 -0.892,2 -2,2 h -32 c -1.10799,0 -2,-0.892 -2,-2 v -38 c 0,-1.108 0.89201,-2 2,-1.99999 z"
         id="rect6399-4-3-2"
         inkscape:connector-curvature="0"
         sodipodi:nodetypes="sssssssss" /><path
         id="rect850-5-9-7-9-7-0-4-4-1"
         style="fill:#d6dbdb;fill-opacity:1;stroke-width:1.2;stroke-linecap:round;stroke-linejoin:round;stroke-miterlimit:1.8;paint-order:stroke fill markers;stop-color:#000000"
         d="m -20.99999,252.65001 v 3 h 3 v -3 z m 3,3 v 3 h 3 v -3 z m 3,0 h 3 v -3 h -3 z m 3,0 v 3 h 3 v -3 z m 3,0 h 3 v -3 h -3 z m 3,0 v 3 h 3 v -3 z m 3,0 h 3 v -3 h -3 z m 3,0 v 3 h 3 v -3 z m 3,0 h 3 v -3 h -3 z m 3,0 v 3 h 3 v -3 z m 3,0 h 1.5 1.5 v -1.5 c 0,-0.83099 -0.669,-1.5 -1.5,-1.5 h -1.5 v 1.5 z m 0,3 v 3 h 3 v -3 z m 0,3 h -3 v 3 h 3 z m 0,3 v 3 h 3 v -3 z m 0,3 h -3 v 3 h 3 z m 0,3 v 3 h 3 v -3 z m 0,3 h -3 v 3 h 3 z m 0,3 V 279.65 h 3 v -3 z m 0,2.99999 h -3 v 3 h 3 z m 0,3 v 3 h 3 v -3 z m 0,3 h -3 v 3 h 3 z m 0,3 v 3 h 3 v -3 z m 0,3 h -3 v 3 h 3 z m -3,0 v -3 h -3 v 3 z m -3,0 h -3 v 3 h 3 z m -3,0 v -3 h -3 v 3 z m -3,0 h -3 v 3 h 3 z m -3,0 v -3 h -3 v 3 z m -3,0 h -3 v 3 h 3 z m -3,0 v -3 h -3 v 3 z m -3,0 h -3 v 3 h 3 z m -3,0 v -3 h -3 v 3 z m -3,0 h -1.5 -1.5 v 1.5 c 0,0.83099 0.669,1.5 1.5,1.5 h 1.5 v -1.5 z m 0,-3 v -3 h -3 v 3 z m 0,-3 h 3 v -3 h -3 z m 0,-3 v -3 h -3 v 3 z m 0,-3 h 3 v -3 h -3 z m 0,-3 v -3 h -3 v 3 z m 0,-3 h 3 v -3 h -3 z m 0,-3 v -3 h -3 v 3 z m 0,-3 h 3 v -3 h -3 z m 0,-3 v -3 h -3 v 3 z m 0,-3 h 3 v -3 h -3 z m 0,-3 v -3 h -3 v 3 z m 3,3 v 3 h 3 v -3 z m 3,0 h 3 v -3 h -3 z m 3,0 v 3 h 3 v -3 z m 3,0 h 3 v -3 h -3 z m 3,0 v 3 h 3 v -3 z m 3,0 h 3 v -3 h -3 z m 3,0 v 3 h 3 v -3 z m 3,0 h 3 v -3 h -3 z m 0,3 v 3 h 3 v -3 z m 0,3 h -3 v 3 h 3 z m 0,3 v 3 h 3 v -3 z m 0,3 h -3 v 3 h 3 z m 0,3 v 3 h 3 v -3 z m 0,3 h -3 v 3 h 3 z m 0,3 v 3 h 3 v -3 z m 0,3 h -3 v 3 h 3 z m -3,0 v -3 h -3 v 3 z m -3,0 h -3 v 3 h 3 z m -3,0 v -3 h -3 v 3 z m -3,0 h -3 v 3 h 3 z m -3,0 v -3 h -3 v 3 z m -3,0 h -3 v 3 h 3 z m 0,-3 v -3 h -3 v 3 z m 0,-3 h 3 v -3 h -3 z m 0,-3 v -3 h -3 v 3 z m 0,-3 h 3 v -3 h -3 z m 0,-3 v -3 h -3 v 3 z m 0,-3 h 3 v -3 h -3 z m 3,0 v 3 h 3 v -3 z m 3,0 h 3 v -3 h -3 z m 3,0 v 3 h 3 v -3 z m 3,0 h 3 v -3 h -3 z m 0,3 v 3 h 3 v -3 z m 0,3 h -3 v 3 h 3 z m 0,3 v 3 h 3 v -3 z m 0,3 h -3 v 3 h 3 z m -3,0 v -3 h -3 v 3 z m -3,0 h -3 v 3 h 3 z m 0,-3 v -3 h -3 v 3 z m 0,-3 h 3 v -3 h -3 z" /><path
         id="rect1728-9"
         style="fill:#a8bbbf;fill-opacity:1;stroke-width:2;stroke-linecap:round;stroke-linejoin:round;stroke-miterlimit:1.8;paint-order:fill markers stroke;stop-color:#000000"
         d="m -14.000001,264.65 c -1.107994,0 -2,0.89202 -2,2 v 16 c 0,1.10801 0.892006,2 2,2 h 10 v 2 7 h 7 7 v -7 -7 h -6 v -13 c 0,-1.10798 -0.892003,-2 -2,-2 z m 1,3 h 14 v 2 h 1 v 3 h -1 v 3 h 1 v 3 h -1 v 1 h -5 v 2 h -6 v -1 h -3 v -1 -1 h -1 v -3 h 1 v -3 h -1 v -3 h 1 z m 2,2 v 4 h 2 v -4 z m 4,0 v 4 h 2 v -4 z m 4,0 v 4 h 2 v -4 z" /><g
         id="g5832"
         transform="matrix(1,0,0,-1,-61.000002,285.64999)"
         style="fill:#8aa3be;fill-opacity:1"><g
           inkscape:label="Capa 1"
           id="layer1-1"
           transform="scale(3.7795276)"
           style="fill:#8aa3be;fill-opacity:1"><path
             id="rect1728"
             style="opacity:1;fill:#798a8a;fill-opacity:1;stroke-width:0.529167;stroke-linecap:round;stroke-linejoin:round;stroke-miterlimit:1.8;paint-order:fill markers stroke;stop-color:#000000"
             d="m 12.435417,5.82083 c -0.293157,0 -0.529167,-0.2360093 -0.529167,-0.5291667 V 1.05833 c 0,-0.29315744 0.23601,-0.52916667 0.529167,-0.52916667 h 4.233333 c 0.293158,0 0.529167,0.23600923 0.529167,0.52916667 v 4.2333333 c 0,0.2931574 -0.236009,0.5291667 -0.529167,0.5291667 z M 12.7,5.02708 h 3.704167 V 4.4979133 h 0.264583 v -0.79375 h -0.264583 v -0.79375 h 0.264583 v -0.79375 H 16.404167 V 1.85208 1.5874967 h -0.79375 V 1.3229133 H 13.49375 V 1.5874967 H 12.7 V 1.85208 2.1166633 h -0.264583 v 0.79375 H 12.7 v 0.79375 h -0.264583 v 0.79375 H 12.7 Z M 13.229167,4.4979133 V 3.43958 h 0.529167 v 1.0583333 z m 1.058333,0 V 3.43958 h 0.529167 v 1.0583333 z m 1.058334,0 V 3.43958 H 15.875 v 1.0583333 z" /></g></g><path
         style="fill:#b2262c;fill-opacity:1;stroke:none;stroke-width:4;stroke-linecap:round;stroke-linejoin:round;stroke-miterlimit:4;stroke-dasharray:none;stroke-dashoffset:0;stroke-opacity:1"
         d="m -4.000001,278.65 h 7 v 7 h -7 z"
         id="rect875-2" /><path
         style="fill:#56b11c;fill-opacity:1;stroke:none;stroke-width:4;stroke-linecap:round;stroke-linejoin:round;stroke-miterlimit:4;stroke-dasharray:none;stroke-dashoffset:0;stroke-opacity:1"
         d="m 2.999999,278.65 h 7 v 7 h -7 z"
         id="rect875-2-7" /><path
         style="fill:#0f49bf;fill-opacity:1;stroke:none;stroke-width:4;stroke-linecap:round;stroke-linejoin:round;stroke-miterlimit:4;stroke-dasharray:none;stroke-dashoffset:0;stroke-opacity:1"
         d="m -4.000001,285.65 h 7 v 7 h -7 z"
         id="rect875-2-0" /><path
         style="fill:#f59101;fill-opacity:1;stroke:none;stroke-width:4;stroke-linecap:round;stroke-linejoin:round;stroke-miterlimit:4;stroke-dasharray:none;stroke-dashoffset:0;stroke-opacity:1"
         d="m 2.999999,285.65 h 7 v 7 h -7 z"
         id="rect875-2-7-9" /><path
         style="fill:url(#linearGradient4357);fill-opacity:1;stroke:none;stroke-width:4;stroke-linecap:round;stroke-linejoin:round;stroke-miterlimit:4;stroke-dasharray:none;stroke-dashoffset:0;stroke-opacity:1"
         d="m -3.000001,279.65 h 5 v 5 h -5 z"
         id="rect875-2-3" /><path
         style="fill:url(#linearGradient5676);fill-opacity:1;stroke:none;stroke-width:4;stroke-linecap:round;stroke-linejoin:round;stroke-miterlimit:4;stroke-dasharray:none;stroke-dashoffset:0;stroke-opacity:1"
         d="m 3.999999,279.65 h 5 v 5 h -5 z"
         id="rect875-2-3-6" /><path
         style="fill:url(#linearGradient9203);fill-opacity:1;stroke:none;stroke-width:4;stroke-linecap:round;stroke-linejoin:round;stroke-miterlimit:4;stroke-dasharray:none;stroke-dashoffset:0;stroke-opacity:1"
         d="m -3.000001,286.65 h 5 v 5 h -5 z"
         id="rect875-2-3-0" /><path
         style="fill:url(#linearGradient11971);fill-opacity:1;stroke:none;stroke-width:4;stroke-linecap:round;stroke-linejoin:round;stroke-miterlimit:4;stroke-dasharray:none;stroke-dashoffset:0;stroke-opacity:1"
         d="m 3.999999,286.65 h 5 v 5 h -5 z"
         id="rect875-2-3-62" /></g></g></svg>
