<?xml version="1.0" encoding="UTF-8" standalone="no"?>
<!-- Created with Inkscape (http://www.inkscape.org/) -->

<svg
   width="48"
   height="48"
   viewBox="0 0 48 48"
   version="1.1"
   id="svg8"
   inkscape:version="1.2.2 (b0a8486541, 2022-12-01)"
   sodipodi:docname="application-x-firmware.svg"
   xml:space="preserve"
   xmlns:inkscape="http://www.inkscape.org/namespaces/inkscape"
   xmlns:sodipodi="http://sodipodi.sourceforge.net/DTD/sodipodi-0.dtd"
   xmlns:xlink="http://www.w3.org/1999/xlink"
   xmlns="http://www.w3.org/2000/svg"
   xmlns:svg="http://www.w3.org/2000/svg"
   xmlns:rdf="http://www.w3.org/1999/02/22-rdf-syntax-ns#"
   xmlns:cc="http://creativecommons.org/ns#"
   xmlns:dc="http://purl.org/dc/elements/1.1/"><title
     id="title7895">Antu icon Theme</title><defs
     id="defs2"><linearGradient
       inkscape:collect="always"
       id="linearGradient4018"><stop
         style="stop-color:#2a303b;stop-opacity:1;"
         offset="0"
         id="stop4014" /><stop
         style="stop-color:#353d4a;stop-opacity:1;"
         offset="1"
         id="stop4016" /></linearGradient><linearGradient
       inkscape:collect="always"
       id="linearGradient1802"><stop
         style="stop-color:#209e6e;stop-opacity:1;"
         offset="0"
         id="stop1798" /><stop
         style="stop-color:#24b17a;stop-opacity:1;"
         offset="1"
         id="stop1800" /></linearGradient><style
       type="text/css"
       id="current-color-scheme">
      .ColorScheme-Text {
        color:#122036;
      }
      </style><style
       type="text/css"
       id="current-color-scheme-7">
      .ColorScheme-Text {
        color:#122036;
      }
      </style><style
       type="text/css"
       id="current-color-scheme-5">
      .ColorScheme-Text {
        color:#122036;
      }
      </style><style
       type="text/css"
       id="current-color-scheme-0">
      .ColorScheme-Text {
        color:#122036;
      }
      </style><style
       type="text/css"
       id="current-color-scheme-7-9">
      .ColorScheme-Text {
        color:#122036;
      }
      </style><style
       type="text/css"
       id="current-color-scheme-5-3">
      .ColorScheme-Text {
        color:#122036;
      }
      </style><style
       type="text/css"
       id="current-color-scheme-79">
      .ColorScheme-Text {
        color:#122036;
      }
      </style><style
       type="text/css"
       id="current-color-scheme-7-2">
      .ColorScheme-Text {
        color:#122036;
      }
      </style><style
       type="text/css"
       id="current-color-scheme-5-0">
      .ColorScheme-Text {
        color:#122036;
      }
      </style><style
       id="current-color-scheme-367"
       type="text/css">
      .ColorScheme-Text {
        color:#122036;
      }
      </style><style
       id="current-color-scheme-6"
       type="text/css">
      .ColorScheme-Text {
        color:#122036;
      }
      </style><style
       type="text/css"
       id="current-color-scheme-67">
      .ColorScheme-Text {
        color:#36404d;
      }
      </style><style
       type="text/css"
       id="current-color-scheme-36">
      .ColorScheme-Text {
        color:#36404d;
      }
      </style><style
       type="text/css"
       id="current-color-scheme-67-7">
      .ColorScheme-Text {
        color:#122036;
      }
      </style><style
       type="text/css"
       id="current-color-scheme-7-5">
      .ColorScheme-Text {
        color:#122036;
      }
      </style><style
       type="text/css"
       id="current-color-scheme-5-35">
      .ColorScheme-Text {
        color:#122036;
      }
      </style><style
       type="text/css"
       id="current-color-scheme-6-53">
      .ColorScheme-Text {
        color:#122036;
      }
      </style><style
       type="text/css"
       id="current-color-scheme-1">
      .ColorScheme-Text {
        color:#122036;
      }
      </style><style
       id="current-color-scheme-10"
       type="text/css">
      .ColorScheme-Text {
        color:#122036;
      }
      </style><style
       id="current-color-scheme-5-7"
       type="text/css">
      .ColorScheme-Text {
        color:#122036;
      }
      </style><style
       id="current-color-scheme-1-2"
       type="text/css">
      .ColorScheme-Text {
        color:#122036;
      }
      </style><style
       type="text/css"
       id="current-color-scheme-10-9">
      .ColorScheme-Text {
        color:#122036;
      }
      </style><style
       type="text/css"
       id="current-color-scheme-675">
      .ColorScheme-Text {
        color:#122036;
      }
      </style><style
       type="text/css"
       id="current-color-scheme-1-3">
      .ColorScheme-Text {
        color:#122036;
      }
      </style><style
       id="current-color-scheme-10-56"
       type="text/css">
      .ColorScheme-Text {
        color:#122036;
      }
      </style><style
       id="current-color-scheme-5-291"
       type="text/css">
      .ColorScheme-Text {
        color:#122036;
      }
      </style><style
       id="current-color-scheme-1-2-27"
       type="text/css">
      .ColorScheme-Text {
        color:#122036;
      }
      </style><style
       type="text/css"
       id="current-color-scheme-10-9-0">
      .ColorScheme-Text {
        color:#122036;
      }
      </style><style
       type="text/css"
       id="current-color-scheme-6-93">
      .ColorScheme-Text {
        color:#122036;
      }
      </style><style
       type="text/css"
       id="current-color-scheme-1-9">
      .ColorScheme-Text {
        color:#122036;
      }
      </style><style
       id="current-color-scheme-10-1"
       type="text/css">
      .ColorScheme-Text {
        color:#122036;
      }
      </style><style
       type="text/css"
       id="current-color-scheme-7-60">
      .ColorScheme-Text {
        color:#122036;
      }
      </style><style
       type="text/css"
       id="current-color-scheme-1-5">
      .ColorScheme-Text {
        color:#122036;
      }
      </style><style
       id="current-color-scheme-10-3"
       type="text/css">
      .ColorScheme-Text {
        color:#122036;
      }
      </style><style
       id="current-color-scheme-5-5"
       type="text/css">
      .ColorScheme-Text {
        color:#122036;
      }
      </style><style
       id="current-color-scheme-1-2-6"
       type="text/css">
      .ColorScheme-Text {
        color:#122036;
      }
      </style><style
       type="text/css"
       id="current-color-scheme-10-9-2">
      .ColorScheme-Text {
        color:#122036;
      }
      </style><style
       type="text/css"
       id="current-color-scheme-6-9">
      .ColorScheme-Text {
        color:#122036;
      }
      </style><style
       type="text/css"
       id="current-color-scheme-1-9-1">
      .ColorScheme-Text {
        color:#122036;
      }
      </style><style
       id="current-color-scheme-10-1-2"
       type="text/css">
      .ColorScheme-Text {
        color:#122036;
      }
      </style><style
       id="current-color-scheme-535"
       type="text/css">
      .ColorScheme-Text {
        color:#122036;
      }
      </style><style
       id="current-color-scheme-7-6"
       type="text/css">
      .ColorScheme-Text {
        color:#122036;
      }
      </style><style
       id="current-color-scheme-5-29"
       type="text/css">
      .ColorScheme-Text {
        color:#122036;
      }
      </style><style
       id="current-color-scheme-2"
       type="text/css">
      .ColorScheme-Text {
        color:#122036;
      }
      </style><style
       id="current-color-scheme-7-7"
       type="text/css">
      .ColorScheme-Text {
        color:#122036;
      }
      </style><style
       id="current-color-scheme-5-0-6"
       type="text/css">
      .ColorScheme-Text {
        color:#122036;
      }
      </style><style
       type="text/css"
       id="current-color-scheme-9">
      .ColorScheme-Text {
        color:#122036;
      }
      </style><style
       type="text/css"
       id="current-color-scheme-1-12">
      .ColorScheme-Text {
        color:#122036;
      }
      </style><style
       id="current-color-scheme-10-7"
       type="text/css">
      .ColorScheme-Text {
        color:#122036;
      }
      </style><style
       type="text/css"
       id="current-color-scheme-6-0">
      .ColorScheme-Text {
        color:#122036;
      }
      </style><style
       type="text/css"
       id="current-color-scheme-7-1">
      .ColorScheme-Text {
        color:#122036;
      }
      </style><style
       type="text/css"
       id="current-color-scheme-5-2">
      .ColorScheme-Text {
        color:#122036;
      }
      </style><style
       id="current-color-scheme-3"
       type="text/css">
      .ColorScheme-Text {
        color:#122036;
      }
      </style><style
       id="current-color-scheme-7-75"
       type="text/css">
      .ColorScheme-Text {
        color:#122036;
      }
      </style><style
       id="current-color-scheme-5-9"
       type="text/css">
      .ColorScheme-Text {
        color:#122036;
      }
      </style><style
       type="text/css"
       id="current-color-scheme-9-2">
      .ColorScheme-Text {
        color:#122036;
      }
      </style><style
       type="text/css"
       id="current-color-scheme-1-2-9">
      .ColorScheme-Text {
        color:#122036;
      }
      </style><style
       id="current-color-scheme-10-8"
       type="text/css">
      .ColorScheme-Text {
        color:#122036;
      }
      </style><style
       type="text/css"
       id="current-color-scheme-6-9-3">
      .ColorScheme-Text {
        color:#122036;
      }
      </style><style
       type="text/css"
       id="current-color-scheme-7-1-7">
      .ColorScheme-Text {
        color:#122036;
      }
      </style><style
       type="text/css"
       id="current-color-scheme-5-2-3">
      .ColorScheme-Text {
        color:#122036;
      }
      </style><style
       type="text/css"
       id="current-color-scheme-106">
      .ColorScheme-Text {
        color:#122036;
      }
      </style><style
       type="text/css"
       id="current-color-scheme-7-3">
      .ColorScheme-Text {
        color:#122036;
      }
      </style><style
       type="text/css"
       id="current-color-scheme-5-20">
      .ColorScheme-Text {
        color:#122036;
      }
      </style><style
       id="current-color-scheme-9-6"
       type="text/css">
      .ColorScheme-Text {
        color:#122036;
      }
      </style><style
       id="current-color-scheme-1-1"
       type="text/css">
      .ColorScheme-Text {
        color:#122036;
      }
      </style><style
       type="text/css"
       id="current-color-scheme-10-5">
      .ColorScheme-Text {
        color:#122036;
      }
      </style><style
       id="current-color-scheme-6-5"
       type="text/css">
      .ColorScheme-Text {
        color:#122036;
      }
      </style><style
       id="current-color-scheme-7-1-4"
       type="text/css">
      .ColorScheme-Text {
        color:#122036;
      }
      </style><style
       id="current-color-scheme-5-2-7"
       type="text/css">
      .ColorScheme-Text {
        color:#122036;
      }
      </style><style
       type="text/css"
       id="current-color-scheme-53">
      .ColorScheme-Text {
        color:#122036;
      }
      </style><style
       type="text/css"
       id="current-color-scheme-1-56">
      .ColorScheme-Text {
        color:#122036;
      }
      </style><style
       id="current-color-scheme-10-2"
       type="text/css">
      .ColorScheme-Text {
        color:#122036;
      }
      </style><style
       id="current-color-scheme-5-91"
       type="text/css">
      .ColorScheme-Text {
        color:#122036;
      }
      </style><style
       id="current-color-scheme-1-2-2"
       type="text/css">
      .ColorScheme-Text {
        color:#122036;
      }
      </style><style
       type="text/css"
       id="current-color-scheme-10-9-6">
      .ColorScheme-Text {
        color:#122036;
      }
      </style><style
       type="text/css"
       id="current-color-scheme-6-7">
      .ColorScheme-Text {
        color:#122036;
      }
      </style><style
       type="text/css"
       id="current-color-scheme-1-9-0">
      .ColorScheme-Text {
        color:#122036;
      }
      </style><style
       id="current-color-scheme-10-1-6"
       type="text/css">
      .ColorScheme-Text {
        color:#122036;
      }
      </style><style
       type="text/css"
       id="current-color-scheme-7-0">
      .ColorScheme-Text {
        color:#122036;
      }
      </style><style
       type="text/css"
       id="current-color-scheme-1-5-2">
      .ColorScheme-Text {
        color:#122036;
      }
      </style><style
       id="current-color-scheme-10-3-6"
       type="text/css">
      .ColorScheme-Text {
        color:#122036;
      }
      </style><style
       id="current-color-scheme-5-5-1"
       type="text/css">
      .ColorScheme-Text {
        color:#122036;
      }
      </style><style
       id="current-color-scheme-1-2-6-8"
       type="text/css">
      .ColorScheme-Text {
        color:#122036;
      }
      </style><style
       type="text/css"
       id="current-color-scheme-10-9-2-7">
      .ColorScheme-Text {
        color:#122036;
      }
      </style><style
       type="text/css"
       id="current-color-scheme-6-9-9">
      .ColorScheme-Text {
        color:#122036;
      }
      </style><style
       type="text/css"
       id="current-color-scheme-1-9-1-9">
      .ColorScheme-Text {
        color:#122036;
      }
      </style><style
       id="current-color-scheme-10-1-2-2"
       type="text/css">
      .ColorScheme-Text {
        color:#122036;
      }
      </style><style
       type="text/css"
       id="current-color-scheme-6753">
      .ColorScheme-Text {
        color:#36404d;
      }
      </style><style
       type="text/css"
       id="current-color-scheme-6-56">
      .ColorScheme-Text {
        color:#122036;
      }
      </style><style
       type="text/css"
       id="current-color-scheme-1-29">
      .ColorScheme-Text {
        color:#122036;
      }
      </style><style
       id="current-color-scheme-10-12"
       type="text/css">
      .ColorScheme-Text {
        color:#122036;
      }
      </style><linearGradient
       inkscape:collect="always"
       xlink:href="#linearGradient1802"
       id="linearGradient1804"
       x1="56.999989"
       y1="352.64999"
       x2="56.999989"
       y2="312.64999"
       gradientUnits="userSpaceOnUse" /><linearGradient
       inkscape:collect="always"
       xlink:href="#linearGradient4018"
       id="linearGradient4020"
       x1="56.999989"
       y1="341.64999"
       x2="56.999989"
       y2="323.64999"
       gradientUnits="userSpaceOnUse" /></defs><sodipodi:namedview
     id="base"
     pagecolor="#ffffff"
     bordercolor="#666666"
     borderopacity="1.0"
     inkscape:pageopacity="0.0"
     inkscape:pageshadow="2"
     inkscape:zoom="11.313709"
     inkscape:cx="29.565901"
     inkscape:cy="32.084969"
     inkscape:document-units="px"
     inkscape:current-layer="layer1"
     showgrid="true"
     units="px"
     inkscape:window-width="2560"
     inkscape:window-height="1369"
     inkscape:window-x="0"
     inkscape:window-y="0"
     inkscape:window-maximized="1"
     objecttolerance="10"
     gridtolerance="10"
     guidetolerance="10"
     inkscape:snap-bbox="true"
     inkscape:bbox-paths="true"
     inkscape:bbox-nodes="true"
     inkscape:snap-bbox-edge-midpoints="true"
     inkscape:snap-bbox-midpoints="true"
     inkscape:object-paths="true"
     inkscape:snap-intersection-paths="true"
     inkscape:showpageshadow="2"
     inkscape:pagecheckerboard="0"
     inkscape:deskcolor="#d1d1d1"><inkscape:grid
       type="xygrid"
       id="grid7897"
       empspacing="4" /></sodipodi:namedview><metadata
     id="metadata5"><rdf:RDF><cc:Work
         rdf:about=""><dc:format>image/svg+xml</dc:format><dc:type
           rdf:resource="http://purl.org/dc/dcmitype/StillImage" /><dc:title>Antu icon Theme</dc:title></cc:Work></rdf:RDF></metadata><g
     inkscape:label="Capa 1"
     inkscape:groupmode="layer"
     id="layer1"
     transform="translate(0,-266.64999)"><g
       id="layer1-6"
       inkscape:label="Capa 1"
       transform="translate(-52.019105,-6.0217069)"><g
         id="g935"
         transform="translate(31.019097,-0.9782931)"
         style="fill:#8fc3a9;fill-opacity:1" /></g><g
       id="layer1-6-3-8"
       inkscape:label="Capa 1"
       transform="matrix(0.88888889,0,0,0.88888889,-41.572538,15.941752)"><g
         id="g935-7-9"
         transform="translate(31.019097,-0.9782931)"
         style="fill:#8fc3a9;fill-opacity:1" /></g><g
       id="g60942"
       transform="translate(-32.99999,-42.000005)"><path
         style="fill:#00804b;fill-opacity:1;stroke:none;stroke-width:6;stroke-linecap:square;stroke-linejoin:round;stroke-miterlimit:18;stroke-dasharray:none;stroke-dashoffset:0;stroke-opacity:1;paint-order:markers stroke fill"
         d="m 40.99999,310.65 h 32 c 1.662,0 3,1.33799 3,3 v 37.99999 c 0,1.662 -1.338,3 -3,3 h -32 c -1.66199,0 -3,-1.338 -3,-3 v -38 c 0,-1.662 1.33801,-3 3,-2.99999 z"
         id="rect6397-1-9-0"
         inkscape:connector-curvature="0" /><path
         id="path639"
         style="fill:url(#linearGradient1804);fill-opacity:1;stroke:none;stroke-width:6;stroke-linecap:square;stroke-linejoin:round;stroke-miterlimit:18;stroke-dasharray:none;stroke-dashoffset:0;stroke-opacity:1;paint-order:markers stroke fill"
         d="M 40.99999 311.64999 C 39.892001 311.64999 38.99999 312.542 38.99999 313.64999 L 38.99999 329.64999 L 43.99999 329.64999 L 43.99999 334.64999 L 47.99999 334.64999 L 47.99999 335.64999 L 42.99999 335.64999 L 42.99999 334.64999 L 42.99999 330.64999 L 38.99999 330.64999 L 38.99999 351.64999 C 38.99999 352.75799 39.892001 353.64999 40.99999 353.64999 L 52.99999 353.64999 L 52.99999 349.64999 L 53.99999 349.64999 L 56.99999 349.64999 L 56.99999 348.56601 C 56.416011 348.36111 55.99999 347.8057 55.99999 347.14999 C 55.99999 346.319 56.668991 345.64999 57.49999 345.64999 C 58.330989 345.64999 58.99999 346.319 58.99999 347.14999 C 58.99999 347.8057 58.583969 348.36111 57.99999 348.56601 L 57.99999 349.64999 L 57.99999 350.64999 L 53.99999 350.64999 L 53.99999 353.64999 L 72.99999 353.64999 C 74.107989 353.64999 74.99999 352.75799 74.99999 351.64999 L 74.99999 338.64999 L 69.99999 338.64999 L 69.99999 340.64999 L 69.99999 341.64999 L 65.99999 341.64999 L 65.99999 340.64999 L 68.99999 340.64999 L 68.99999 338.64999 L 68.99999 337.64999 L 74.99999 337.64999 L 74.99999 327.64999 L 70.99999 327.64999 L 70.99999 326.64999 L 70.99999 323.56601 C 70.416011 323.36111 69.99999 322.8057 69.99999 322.14999 C 69.99999 321.319 70.668991 320.64999 71.49999 320.64999 C 72.330989 320.64999 72.99999 321.319 72.99999 322.14999 C 72.99999 322.8057 72.583969 323.36111 71.99999 323.56601 L 71.99999 326.64999 L 74.99999 326.64999 L 74.99999 316.64999 L 69.916006 316.64999 C 69.711106 317.23397 69.155699 317.64999 68.49999 317.64999 C 67.668991 317.64999 66.99999 316.98099 66.99999 316.14999 C 66.99999 315.319 67.668991 314.64999 68.49999 314.64999 C 69.155699 314.64999 69.711106 315.06602 69.916006 315.64999 L 74.99999 315.64999 L 74.99999 313.64999 C 74.99999 312.54199 74.107989 311.64999 72.99999 311.64999 L 53.99999 311.64999 L 53.99999 315.64999 L 57.083974 315.64999 C 57.288874 315.06602 57.844281 314.64999 58.49999 314.64999 C 59.330989 314.64999 59.99999 315.319 59.99999 316.14999 C 59.99999 316.98099 59.330989 317.64999 58.49999 317.64999 C 57.844281 317.64999 57.288874 317.23397 57.083974 316.64999 L 53.99999 316.64999 L 52.99999 316.64999 L 52.99999 315.64999 L 52.99999 311.64999 L 40.99999 311.64999 z M 42.49999 313.64999 C 43.330989 313.64999 43.99999 314.319 43.99999 315.14999 C 43.99999 315.8057 43.583969 316.36111 42.99999 316.56601 L 42.99999 321.73398 C 43.583969 321.93888 43.99999 322.49429 43.99999 323.14999 C 43.99999 323.98099 43.330989 324.64999 42.49999 324.64999 C 41.668991 324.64999 40.99999 323.98099 40.99999 323.14999 C 40.99999 322.49429 41.416011 321.93888 41.99999 321.73398 L 41.99999 316.56601 C 41.416011 316.36111 40.99999 315.8057 40.99999 315.14999 C 40.99999 314.319 41.668991 313.64999 42.49999 313.64999 z M 42.474599 314.64999 C 42.20969 314.66329 41.99999 314.88166 41.99999 315.14999 C 41.99999 315.42699 42.22299 315.64999 42.49999 315.64999 C 42.77699 315.64999 42.99999 315.42699 42.99999 315.14999 C 42.99999 314.873 42.77699 314.64999 42.49999 314.64999 C 42.49099 314.64999 42.483199 314.64957 42.474599 314.64999 z M 58.474599 315.64999 C 58.20969 315.66329 57.99999 315.88166 57.99999 316.14999 C 57.99999 316.42699 58.22299 316.64999 58.49999 316.64999 C 58.77699 316.64999 58.99999 316.42699 58.99999 316.14999 C 58.99999 315.873 58.77699 315.64999 58.49999 315.64999 C 58.49099 315.64999 58.483199 315.64957 58.474599 315.64999 z M 68.474599 315.64999 C 68.20969 315.66329 67.99999 315.88166 67.99999 316.14999 C 67.99999 316.42699 68.22299 316.64999 68.49999 316.64999 C 68.77699 316.64999 68.99999 316.42699 68.99999 316.14999 C 68.99999 315.873 68.77699 315.64999 68.49999 315.64999 C 68.49099 315.64999 68.483199 315.64957 68.474599 315.64999 z M 71.474599 321.64999 C 71.20969 321.66329 70.99999 321.88166 70.99999 322.14999 C 70.99999 322.42699 71.22299 322.64999 71.49999 322.64999 C 71.77699 322.64999 71.99999 322.42699 71.99999 322.14999 C 71.99999 321.873 71.77699 321.64999 71.49999 321.64999 C 71.49099 321.64999 71.483199 321.64957 71.474599 321.64999 z M 42.474599 322.64999 C 42.20969 322.66329 41.99999 322.88166 41.99999 323.14999 C 41.99999 323.42699 42.22299 323.64999 42.49999 323.64999 C 42.77699 323.64999 42.99999 323.42699 42.99999 323.14999 C 42.99999 322.873 42.77699 322.64999 42.49999 322.64999 C 42.49099 322.64999 42.483199 322.64957 42.474599 322.64999 z M 70.49999 330.64999 C 71.330989 330.64999 71.99999 331.319 71.99999 332.14999 C 71.99999 332.98099 71.330989 333.64999 70.49999 333.64999 C 69.844281 333.64999 69.288874 333.23397 69.083974 332.64999 L 65.99999 332.64999 L 65.99999 331.64999 L 69.083974 331.64999 C 69.288874 331.06602 69.844281 330.64999 70.49999 330.64999 z M 70.474599 331.64999 C 70.20969 331.66329 69.99999 331.88166 69.99999 332.14999 C 69.99999 332.42699 70.22299 332.64999 70.49999 332.64999 C 70.77699 332.64999 70.99999 332.42699 70.99999 332.14999 C 70.99999 331.873 70.77699 331.64999 70.49999 331.64999 C 70.49099 331.64999 70.483199 331.64957 70.474599 331.64999 z M 57.474599 346.64999 C 57.20969 346.66329 56.99999 346.88166 56.99999 347.14999 C 56.99999 347.42699 57.22299 347.64999 57.49999 347.64999 C 57.77699 347.64999 57.99999 347.42699 57.99999 347.14999 C 57.99999 346.873 57.77699 346.64999 57.49999 346.64999 C 57.49099 346.64999 57.483199 346.64957 57.474599 346.64999 z M 64.466787 347.64999 L 64.533193 347.64999 C 65.182432 347.64999 65.729738 348.06763 65.923818 348.64999 L 70.083974 348.64999 C 70.288874 348.06602 70.844281 347.64999 71.49999 347.64999 C 72.330989 347.64999 72.99999 348.319 72.99999 349.14999 C 72.99999 349.98099 72.330989 350.64999 71.49999 350.64999 C 70.844281 350.64999 70.288874 350.23397 70.083974 349.64999 L 65.923818 349.64999 C 65.729738 350.23236 65.182432 350.64999 64.533193 350.64999 L 64.466787 350.64999 C 63.654248 350.64999 62.99999 349.99574 62.99999 349.1832 L 62.99999 349.11679 C 62.99999 348.30425 63.654248 347.65 64.466787 347.64999 z M 42.49999 348.64999 C 43.155699 348.64999 43.711106 349.06602 43.916006 349.64999 L 47.083974 349.64999 C 47.288874 349.06602 47.844281 348.64999 48.49999 348.64999 C 49.330989 348.64999 49.99999 349.319 49.99999 350.14999 C 49.99999 350.98099 49.330989 351.64999 48.49999 351.64999 C 47.844281 351.64999 47.288874 351.23397 47.083974 350.64999 L 43.916006 350.64999 C 43.711106 351.23397 43.155699 351.64999 42.49999 351.64999 C 41.668991 351.64999 40.99999 350.98099 40.99999 350.14999 C 40.99999 349.319 41.668991 348.64999 42.49999 348.64999 z M 64.474599 348.64999 C 64.20969 348.66329 63.99999 348.88166 63.99999 349.14999 C 63.99999 349.42699 64.22299 349.64999 64.49999 349.64999 C 64.77699 349.64999 64.99999 349.42699 64.99999 349.14999 C 64.99999 348.873 64.77699 348.64999 64.49999 348.64999 C 64.49099 348.64999 64.483199 348.64957 64.474599 348.64999 z M 71.474599 348.64999 C 71.20969 348.66329 70.99999 348.88166 70.99999 349.14999 C 70.99999 349.42699 71.22299 349.64999 71.49999 349.64999 C 71.77699 349.64999 71.99999 349.42699 71.99999 349.14999 C 71.99999 348.873 71.77699 348.64999 71.49999 348.64999 C 71.49099 348.64999 71.483199 348.64957 71.474599 348.64999 z M 42.474599 349.64999 C 42.20969 349.66329 41.99999 349.88166 41.99999 350.14999 C 41.99999 350.42699 42.22299 350.64999 42.49999 350.64999 C 42.77699 350.64999 42.99999 350.42699 42.99999 350.14999 C 42.99999 349.873 42.77699 349.64999 42.49999 349.64999 C 42.49099 349.64999 42.483199 349.64957 42.474599 349.64999 z M 48.474599 349.64999 C 48.20969 349.66329 47.99999 349.88166 47.99999 350.14999 C 47.99999 350.42699 48.22299 350.64999 48.49999 350.64999 C 48.77699 350.64999 48.99999 350.42699 48.99999 350.14999 C 48.99999 349.873 48.77699 349.64999 48.49999 349.64999 C 48.49099 349.64999 48.483199 349.64957 48.474599 349.64999 z " /><path
         style="fill:#15151a;stroke-width:2.00001;stroke-linecap:round;stroke-linejoin:round;stroke-miterlimit:1.8;paint-order:stroke fill markers;stop-color:#000000;fill-opacity:1"
         d="m 49,320.64997 h 16 c 0.55401,0 1.00001,0.446 1.00001,1.00001 v 22.00003 c 0,0.55399 -0.446,1 -1.00001,1 H 49 c -0.554,0 -1,-0.44601 -1,-1 v -22.00003 c 0,-0.55401 0.446,-1.00001 1,-1.00001 z"
         id="rect58679" /><path
         style="fill:url(#linearGradient4020);stroke-width:2.00001;stroke-linecap:round;stroke-linejoin:round;stroke-miterlimit:1.8;paint-order:stroke fill markers;stop-color:#000000;fill-opacity:1"
         d="m 49,321.64999 h 16 v 22 H 49 Z"
         id="rect58879" /><path
         id="path686-2"
         d="m 55.99999,323.64999 v 1 h 1 v -1 z m 1,1 v 1 h 1 v -1 z m 1,0 h 1 v -1 h -1 z m 1,0 v 1 h 1 v -1 z m 1,0 h 1 v -1 h -1 z m 1,0 v 1 h 1 v -1 z m 1,0 h 1 v -1 h -1 z m 1,0 v 1 h 1 v -1 z m -13,7 v 1 h 1 v -1 z m 1,1 v 1 h 1 v -1 z m 0,1 h -1 v 1 h 1 z m 0,1 v 1 h 1 v -1 z m 0,1 h -1 v 1 h 1 z m 0,1 v 1 h 1 v -1 z m 0,1 h -1 v 1 h 1 z m -1,2 v 4 h 4 l -2,-2 z m 6,2 v 1 h 1 v -1 z m 1,1 v 1 h 1 v -1 z m 1,0 h 1 v -1 h -1 z m 1,0 v 1 h 1 v -1 z m -3,0 h -1 v 1 h 1 z"
         style="fill:#1d2027;fill-opacity:1" /><path
         id="path686"
         d="M 55.99999 322.64999 L 55.99999 323.64999 L 56.99999 323.64999 L 56.99999 322.64999 L 55.99999 322.64999 z M 56.99999 323.64999 L 56.99999 324.64999 L 57.99999 324.64999 L 57.99999 323.64999 L 56.99999 323.64999 z M 57.99999 323.64999 L 58.99999 323.64999 L 58.99999 322.64999 L 57.99999 322.64999 L 57.99999 323.64999 z M 58.99999 323.64999 L 58.99999 324.64999 L 59.99999 324.64999 L 59.99999 323.64999 L 58.99999 323.64999 z M 59.99999 323.64999 L 60.99999 323.64999 L 60.99999 322.64999 L 59.99999 322.64999 L 59.99999 323.64999 z M 60.99999 323.64999 L 60.99999 324.64999 L 61.99999 324.64999 L 61.99999 323.64999 L 60.99999 323.64999 z M 61.99999 323.64999 L 62.99999 323.64999 L 62.99999 322.64999 L 61.99999 322.64999 L 61.99999 323.64999 z M 62.99999 323.64999 L 62.99999 324.64999 L 63.99999 324.64999 L 63.99999 323.64999 L 62.99999 323.64999 z M 49.99999 330.64999 L 49.99999 331.64999 L 50.99999 331.64999 L 50.99999 330.64999 L 49.99999 330.64999 z M 50.99999 331.64999 L 50.99999 332.64999 L 51.99999 332.64999 L 51.99999 331.64999 L 50.99999 331.64999 z M 50.99999 332.64999 L 49.99999 332.64999 L 49.99999 333.64999 L 50.99999 333.64999 L 50.99999 332.64999 z M 50.99999 333.64999 L 50.99999 334.64999 L 51.99999 334.64999 L 51.99999 333.64999 L 50.99999 333.64999 z M 50.99999 334.64999 L 49.99999 334.64999 L 49.99999 335.64999 L 50.99999 335.64999 L 50.99999 334.64999 z M 50.99999 335.64999 L 50.99999 336.64999 L 51.99999 336.64999 L 51.99999 335.64999 L 50.99999 335.64999 z M 50.99999 336.64999 L 49.99999 336.64999 L 49.99999 337.64999 L 50.99999 337.64999 L 50.99999 336.64999 z M 49.99999 338.64999 L 49.99999 342.64999 L 53.99999 342.64999 L 51.99999 340.64999 L 49.99999 338.64999 z M 55.99999 340.64999 L 55.99999 341.64999 L 56.99999 341.64999 L 56.99999 340.64999 L 55.99999 340.64999 z M 56.99999 341.64999 L 56.99999 342.64999 L 57.99999 342.64999 L 57.99999 341.64999 L 56.99999 341.64999 z M 57.99999 341.64999 L 58.99999 341.64999 L 58.99999 340.64999 L 57.99999 340.64999 L 57.99999 341.64999 z M 58.99999 341.64999 L 58.99999 342.64999 L 59.99999 342.64999 L 59.99999 341.64999 L 58.99999 341.64999 z M 55.99999 341.64999 L 54.99999 341.64999 L 54.99999 342.64999 L 55.99999 342.64999 L 55.99999 341.64999 z "
         style="fill:#d9dce2;fill-opacity:1" /></g></g></svg>
