<?xml version="1.0" encoding="UTF-8" standalone="no"?>
<!-- Created with Inkscape (http://www.inkscape.org/) -->

<svg
   width="48"
   height="48"
   viewBox="0 0 48 48"
   version="1.1"
   id="svg8"
   inkscape:version="1.2.2 (b0a8486541, 2022-12-01)"
   sodipodi:docname="application-x-python-bytecode.svg"
   xml:space="preserve"
   xmlns:inkscape="http://www.inkscape.org/namespaces/inkscape"
   xmlns:sodipodi="http://sodipodi.sourceforge.net/DTD/sodipodi-0.dtd"
   xmlns:xlink="http://www.w3.org/1999/xlink"
   xmlns="http://www.w3.org/2000/svg"
   xmlns:svg="http://www.w3.org/2000/svg"
   xmlns:rdf="http://www.w3.org/1999/02/22-rdf-syntax-ns#"
   xmlns:cc="http://creativecommons.org/ns#"
   xmlns:dc="http://purl.org/dc/elements/1.1/"><title
     id="title7895">Antu icon Theme</title><defs
     id="defs2"><linearGradient
       inkscape:collect="always"
       id="linearGradient7599"><stop
         style="stop-color:#fbc800;stop-opacity:1;"
         offset="0"
         id="stop7595" /><stop
         style="stop-color:#ffde00;stop-opacity:1;"
         offset="1"
         id="stop7597" /></linearGradient><linearGradient
       inkscape:collect="always"
       id="linearGradient6487"><stop
         style="stop-color:#3875f1;stop-opacity:1;"
         offset="0"
         id="stop6483" /><stop
         style="stop-color:#5491fb;stop-opacity:1;"
         offset="1"
         id="stop6485" /></linearGradient><linearGradient
       inkscape:collect="always"
       id="linearGradient2806"><stop
         style="stop-color:#262626;stop-opacity:1;"
         offset="0"
         id="stop2802" /><stop
         style="stop-color:#333333;stop-opacity:1;"
         offset="1"
         id="stop2804" /></linearGradient><linearGradient
       inkscape:collect="always"
       xlink:href="#linearGradient2806"
       id="linearGradient2808"
       x1="-13"
       y1="298.64999"
       x2="-13"
       y2="258.64999"
       gradientUnits="userSpaceOnUse"
       gradientTransform="translate(35,7)" /><linearGradient
       inkscape:collect="always"
       xlink:href="#linearGradient6487"
       id="linearGradient6489"
       x1="24"
       y1="297.64999"
       x2="24"
       y2="288.64999"
       gradientUnits="userSpaceOnUse" /><linearGradient
       inkscape:collect="always"
       xlink:href="#linearGradient7599"
       id="linearGradient7601"
       x1="30"
       y1="302.64999"
       x2="30"
       y2="291.64999"
       gradientUnits="userSpaceOnUse" /></defs><sodipodi:namedview
     id="base"
     pagecolor="#ffffff"
     bordercolor="#666666"
     borderopacity="1.0"
     inkscape:pageopacity="0.0"
     inkscape:pageshadow="2"
     inkscape:zoom="16"
     inkscape:cx="22.90625"
     inkscape:cy="22"
     inkscape:document-units="px"
     inkscape:current-layer="layer1"
     showgrid="true"
     units="px"
     inkscape:window-width="2560"
     inkscape:window-height="1363"
     inkscape:window-x="0"
     inkscape:window-y="0"
     inkscape:window-maximized="1"
     objecttolerance="10"
     gridtolerance="10"
     guidetolerance="10"
     inkscape:snap-bbox="true"
     inkscape:bbox-paths="true"
     inkscape:bbox-nodes="true"
     inkscape:snap-bbox-edge-midpoints="true"
     inkscape:snap-bbox-midpoints="true"
     inkscape:object-paths="true"
     inkscape:snap-intersection-paths="true"
     inkscape:showpageshadow="2"
     inkscape:pagecheckerboard="0"
     inkscape:deskcolor="#d1d1d1"
     showguides="false"><inkscape:grid
       type="xygrid"
       id="grid7897"
       empspacing="4" /></sodipodi:namedview><metadata
     id="metadata5"><rdf:RDF><cc:Work
         rdf:about=""><dc:format>image/svg+xml</dc:format><dc:type
           rdf:resource="http://purl.org/dc/dcmitype/StillImage" /><dc:title>Antu icon Theme</dc:title></cc:Work></rdf:RDF></metadata><g
     inkscape:label="Capa 1"
     inkscape:groupmode="layer"
     id="layer1"
     transform="translate(0,-266.64999)"><g
       id="g111736"
       transform="translate(1,5)"><path
         inkscape:connector-curvature="0"
         id="rect6397-1-48"
         d="m 7,263.64999 h 32 c 1.662,0 3,1.33798 3,3 v 38 c 0,1.66197 -1.338,3 -3,3 H 7 c -1.661998,0 -3,-1.33803 -3,-3 v -38 c 0,-1.66202 1.338002,-3 3,-3 z"
         style="fill:#1a1a1a;fill-opacity:1;stroke:none;stroke-width:6;stroke-linecap:square;stroke-linejoin:round;stroke-miterlimit:18;stroke-dasharray:none;stroke-dashoffset:0;stroke-opacity:1;paint-order:markers stroke fill" /><path
         sodipodi:nodetypes="sssssssss"
         inkscape:connector-curvature="0"
         id="rect6399-4-7"
         d="m 7,264.64999 h 32 c 1.108001,0 2,0.892 2,2.00001 v 38.00001 c 0,1.10797 -0.891999,1.99997 -2,1.99997 H 7 c -1.107998,0 -2,-0.892 -2,-1.99997 V 266.65 c 0,-1.10801 0.892002,-2.00001 2,-2.00001 z"
         style="fill:url(#linearGradient2808);fill-opacity:1;stroke:none;stroke-width:6;stroke-linecap:square;stroke-linejoin:round;stroke-miterlimit:18;stroke-dasharray:none;stroke-dashoffset:0;stroke-opacity:1;paint-order:markers stroke fill" /><path
         id="path999-3-2"
         style="fill:#1a1a1a;fill-opacity:1;stroke:none;stroke-width:2;stroke-linecap:round;stroke-linejoin:round;stroke-miterlimit:4;stroke-dasharray:none;stroke-dashoffset:0;stroke-opacity:1"
         d="m 9,270.64999 v 2 h 8 v -2 z m 10,0 v 2 h 3 v -2 z m 5,0 v 2 h 4 v -2 z m 6,0 v 2 h 2 v -2 z m -21,4 v 2 h 4 v -2 z m 6,0 v 2 h 8 v -2 z m 10,0 v 2 h 6 v -2 z m -16,4 v 2 h 3 v -2 z m 5,0 v 2 h 4 v -2 z m 6,0 v 2 h 8 v -2 z m 10,0 v 2 h 2 v -2 z m -21,4 v 2 h 11 v -2 z m 13,0 v 2 h 4 v -2 z m 6,0 v 2 h 4 v -2 z m -19,4 v 2 h 4 v -2 z m 6,0 v 2 h 8 v -2 z m 14,1 c -2.198696,0 -4,1.8013 -4,4 -2.198697,0 -4,1.8013 -4,4 v 2 c 0,2.1987 1.801303,4 4,4 0,1.94785 1.401894,3.58655 3.261719,3.93164 a 1.0001,1.0001 0 0 0 0.002,0 c 0.239445,0.0444 0.485383,0.0684 0.736328,0.0684 h 2 c 2.198695,0 4,-1.8013 4,-4 2.198696,0 4,-1.8013 4,-4 v -2 c 0,-2.19869 -1.801304,-4 -4,-4 0,-1.94785 -1.403847,-3.5885 -3.263672,-3.93359 -0.239503,-0.0444 -0.485428,-0.0664 -0.736375,-0.0664 z m 2.369141,1.86719 a 1.0001,1.0001 0 0 0 0.296875,0.16015 l -0.292969,0.006 C 32.303394,289.85582 33,290.65323 33,291.64999 v 2 1 c 0,0.0404 -0.0029,0.0742 -0.0059,0.10352 -0.0024,0.024 -0.007,0.0574 -0.01563,0.0996 -0.007,0.0344 -0.01416,0.0658 -0.02344,0.0957 -0.01122,0.0362 -0.02254,0.0665 -0.0332,0.0918 -0.01398,0.0332 -0.02793,0.0638 -0.04102,0.0879 -0.0149,0.0275 -0.03192,0.0521 -0.05078,0.0801 -0.01779,0.0264 -0.03646,0.0536 -0.05664,0.0781 -0.02328,0.0282 -0.04547,0.0533 -0.06445,0.0723 -0.01903,0.019 -0.04408,0.0412 -0.07227,0.0645 -0.02443,0.0202 -0.04979,0.0389 -0.07617,0.0566 -0.02798,0.0189 -0.05457,0.034 -0.08203,0.0488 a 1.0001,1.0001 0 0 0 0,0.002 c -0.02419,0.0131 -0.05472,0.027 -0.08789,0.041 -0.02519,0.0106 -0.05547,0.022 -0.0918,0.0332 -0.02996,0.009 -0.05937,0.0164 -0.09375,0.0234 -0.04145,0.008 -0.07751,0.0132 -0.101562,0.0156 -0.02875,0.003 -0.06361,0.006 -0.103516,0.006 h -4 c -0.09713,0 -0.201429,0.003 -0.306641,0.0137 -0.109861,0.0112 -0.209237,0.029 -0.296875,0.0469 -0.09603,0.0195 -0.193589,0.0446 -0.289062,0.0742 -0.08911,0.0276 -0.180884,0.0598 -0.275391,0.0996 -0.08654,0.0365 -0.174504,0.0786 -0.263672,0.12696 -0.08589,0.0465 -0.16766,0.0955 -0.246093,0.14843 -0.08003,0.054 -0.15817,0.1126 -0.232422,0.17383 -0.0705,0.0581 -0.141558,0.12203 -0.212891,0.19336 -0.07132,0.0713 -0.135168,0.14232 -0.193359,0.21289 -0.06122,0.0743 -0.119849,0.15044 -0.173828,0.23047 -0.05288,0.0784 -0.101905,0.16218 -0.148438,0.24805 -0.04826,0.0891 -0.09044,0.17703 -0.126953,0.26367 -0.03988,0.0946 -0.07202,0.1863 -0.09961,0.27539 -0.02956,0.0955 -0.05467,0.19111 -0.07422,0.28711 v 0.002 c -0.0023,0.0115 -0.0036,0.0271 -0.0059,0.0391 -0.01546,0.0789 -0.03131,0.16162 -0.04102,0.25781 -0.01064,0.10544 -0.01367,0.20851 -0.01367,0.30664 v 1 c -1.125281,0 -2,-0.87472 -2,-2 v -2 c 0,-1.12528 0.874719,-2 2,-2 h 1 4 a 1.0001,1.0001 0 0 0 1,-1 v -1 a 1.0001,1.0001 0 0 0 -1,-1 h -2.59375 c 0.348803,-0.56534 0.864126,-1 1.59375,-1 h 2 c 0.128424,0 0.252947,0.0109 0.373047,0.0332 z M 9,290.64999 v 2 h 11 v -2 z m 26,3 c 1.125281,0 2,0.87472 2,2 v 2 c 0,1.12528 -0.874719,2 -2,2 h -1 -4 a 1.0001,1.0001 0 0 0 -1,1 v 1 a 1.0001,1.0001 0 0 0 1,1 h 2.59375 c -0.348804,0.56535 -0.864126,1 -1.59375,1 h -2 c -0.128427,0 -0.252936,-0.0129 -0.373047,-0.0352 l 0.002,0.0684 a 1.0001,1.0001 0 0 0 -0.267578,-0.0625 l 0.265625,-0.006 C 27.696606,303.44221 27,302.64675 27,301.64999 v -1 -1 -1 c 0,-0.0404 9.5e-4,-0.0761 0.0039,-0.10547 0.0024,-0.024 0.009,-0.0574 0.01758,-0.0996 0.007,-0.0344 0.01416,-0.0658 0.02344,-0.0957 0.01125,-0.0363 0.0226,-0.0647 0.0332,-0.0898 0.01394,-0.0331 0.02785,-0.0636 0.04102,-0.0879 0.01491,-0.0275 0.02997,-0.0541 0.04883,-0.082 0.01776,-0.0263 0.03843,-0.0537 0.05859,-0.0781 0.02319,-0.0281 0.0454,-0.0513 0.06445,-0.0703 0.01905,-0.019 0.04406,-0.0412 0.07227,-0.0645 0.02445,-0.0202 0.04983,-0.0408 0.07617,-0.0586 0.02793,-0.0188 0.05455,-0.0339 0.08203,-0.0488 0.02421,-0.0131 0.05472,-0.029 0.08789,-0.043 0.02521,-0.0106 0.05355,-0.02 0.08984,-0.0312 0.02993,-0.009 0.0613,-0.0184 0.0957,-0.0254 0.04224,-0.009 0.07552,-0.0132 0.09961,-0.0156 0.02908,-0.003 0.06481,-0.004 0.105469,-0.004 h 4 c 0.09774,0 0.198766,-0.005 0.304688,-0.0156 0.110783,-0.0112 0.210656,-0.0289 0.298828,-0.0469 0.09606,-0.0196 0.191664,-0.0427 0.287109,-0.0723 0.08907,-0.0276 0.182814,-0.0617 0.277344,-0.10156 0.08655,-0.0365 0.174492,-0.0767 0.263672,-0.125 0.08592,-0.0466 0.167703,-0.0975 0.246093,-0.15039 0.07998,-0.0539 0.158151,-0.11063 0.232422,-0.17188 0.07051,-0.0581 0.141548,-0.12201 0.212891,-0.19336 0.0714,-0.0714 0.135251,-0.14438 0.193359,-0.21484 0.0612,-0.0742 0.117912,-0.15047 0.171875,-0.23047 0.05288,-0.0784 0.103856,-0.16022 0.150391,-0.24609 0.04836,-0.0892 0.09047,-0.17713 0.126953,-0.26367 0.03979,-0.0944 0.07199,-0.18817 0.09961,-0.27735 0.02956,-0.0954 0.05467,-0.1911 0.07422,-0.28711 0.01797,-0.0882 0.03375,-0.18808 0.04492,-0.29883 0.01064,-0.10543 0.01563,-0.20655 0.01563,-0.30468 z m -26,1 v 2 h 4 v -2 z m 6,0 v 2 h 4 v -2 z m -6,4 v 2 h 8 v -2 z" /><path
         id="path999-3"
         style="fill:#5492fb;fill-opacity:1;stroke:none;stroke-width:2;stroke-linecap:round;stroke-linejoin:round;stroke-miterlimit:4;stroke-dasharray:none;stroke-dashoffset:0;stroke-opacity:1"
         d="m 9.000002,269.64999 v 2 h 8 v -2 z m 21,0 v 2 h 2 v -2 z m -15,4 v 2 h 8 v -2 z m 10,0 v 2 h 6 v -2 z m -16,4 v 2 h 3 v -2 z m 11,0 v 2 h 8 v -2 z m 10,0 v 2 h 2 v -2 z m -8,4 v 2 h 4 v -2 z m 6,0 v 2 h 4 v -2 z m -19,8 v 2 h 11 v -2 z m 0,4 v 2 h 4 v -2 z m 0,4 v 2 h 8 v -2 z" /><path
         id="path997"
         style="fill:#fedb00;fill-opacity:1;stroke:none;stroke-width:2;stroke-linecap:round;stroke-linejoin:round;stroke-miterlimit:4;stroke-dasharray:none;stroke-dashoffset:0;stroke-opacity:1"
         d="m 19.000002,269.64999 v 2 h 3 v -2 z m 5,0 v 2 h 4 v -2 z m -15,4 v 2 h 4 v -2 z m 5,4 v 2 h 4 v -2 z m -5,4 v 2 h 11 v -2 z m 0,4 v 2 h 4 v -2 z m 6,0 v 2 h 8 v -2 z m 0,8 v 2 h 4 v -2 z" /><path
         style="stroke-linecap:round;stroke-linejoin:round;stroke-miterlimit:1.8;fill:#3b61af;fill-opacity:1"
         d="m 31.369142,288.51718 a 1.0001,1.0001 0 0 0 0.296875,0.16016 l -0.292969,0.006 c 0.930348,0.17263 1.626954,0.97004 1.626954,1.9668 v 2 1 c 0,0.0404 -9.44e-4,0.0742 -0.0039,0.10352 -0.0024,0.024 -0.009,0.0574 -0.01758,0.0996 -0.007,0.0344 -0.01416,0.0658 -0.02344,0.0957 -0.01122,0.0362 -0.02254,0.0665 -0.0332,0.0918 -0.01398,0.0332 -0.02793,0.0638 -0.04102,0.0879 -0.0149,0.0275 -0.03192,0.0521 -0.05078,0.0801 -0.01779,0.0264 -0.03646,0.0537 -0.05664,0.0781 -0.02328,0.0282 -0.04547,0.0533 -0.06445,0.0723 -0.01903,0.019 -0.04408,0.0412 -0.07227,0.0645 -0.02443,0.0201 -0.04979,0.0388 -0.07617,0.0566 -0.02798,0.0189 -0.05457,0.034 -0.08203,0.0488 a 1.0001,1.0001 0 0 0 0,0.002 c -0.02419,0.0131 -0.05472,0.027 -0.08789,0.041 -0.02519,0.0106 -0.05547,0.022 -0.0918,0.0332 -0.02996,0.009 -0.05937,0.0164 -0.09375,0.0234 -0.04226,0.009 -0.07559,0.0132 -0.09961,0.0156 a 1.0001,1.0001 0 0 0 -0.002,0 c -0.02887,0.003 -0.06276,0.006 -0.103515,0.006 h -4 c -0.09784,0 -0.198964,0.003 -0.304688,0.0137 -0.110704,0.0112 -0.210628,0.0289 -0.298828,0.0469 -0.09603,0.0196 -0.19359,0.0446 -0.289063,0.0742 -0.08911,0.0276 -0.180883,0.0598 -0.27539,0.0996 -0.08654,0.0365 -0.174504,0.0786 -0.263672,0.12696 -0.08589,0.0465 -0.167661,0.0955 -0.246094,0.14843 -0.08003,0.054 -0.15817,0.11261 -0.232422,0.17383 -0.0705,0.0581 -0.141557,0.12203 -0.21289,0.19336 -0.07132,0.0713 -0.135169,0.14232 -0.19336,0.21289 -0.06122,0.0743 -0.119849,0.15044 -0.173828,0.23047 -0.05288,0.0784 -0.101904,0.16218 -0.148437,0.24805 -0.04826,0.0891 -0.09044,0.17704 -0.126953,0.26367 -0.03988,0.0946 -0.07202,0.1863 -0.09961,0.27539 -0.02956,0.0955 -0.05467,0.19111 -0.07422,0.28711 -0.01797,0.0882 -0.03375,0.18808 -0.04492,0.29883 -0.01064,0.10543 -0.01563,0.20851 -0.01563,0.30664 v 1 c -1.125282,0 -2,-0.87472 -2,-2 v -2 c 0,-1.12528 0.874718,-2 2,-2 h 1 4 a 1.0001,1.0001 0 0 0 1,-1 v -1 a 1.0001,1.0001 0 0 0 -1,-1 h -2.59375 c 0.348803,-0.56535 0.864125,-1 1.59375,-1 h 2 c 0.128424,0 0.252946,0.0109 0.373046,0.0332 z"
         id="path387" /><path
         style="stroke-linecap:round;stroke-linejoin:round;stroke-miterlimit:1.8;fill:#3b61af;fill-opacity:1"
         d="m 29.000002,286.64999 c -2.198698,0 -4,1.8013 -4,4 -2.198699,0 -4,1.8013 -4,4 v 2 c 0,2.1987 1.801301,4 4,4 h 1 a 1.0001,1.0001 0 0 0 1,-1 v -2 c 0,-0.0404 9.44e-4,-0.0761 0.0039,-0.10547 0.0024,-0.024 0.009,-0.0574 0.01758,-0.0996 0.007,-0.0344 0.01416,-0.0657 0.02344,-0.0957 0.01125,-0.0363 0.0226,-0.0647 0.0332,-0.0898 0.01394,-0.0331 0.02785,-0.0636 0.04102,-0.0879 0.01491,-0.0275 0.02997,-0.0541 0.04883,-0.082 0.01776,-0.0263 0.03843,-0.0537 0.05859,-0.0781 0.02319,-0.0281 0.0454,-0.0513 0.06445,-0.0703 0.01905,-0.019 0.04407,-0.0412 0.07227,-0.0645 0.02445,-0.0202 0.04983,-0.0408 0.07617,-0.0586 0.02793,-0.0188 0.05455,-0.0339 0.08203,-0.0488 0.02421,-0.0131 0.05472,-0.029 0.08789,-0.043 0.02521,-0.0106 0.05355,-0.02 0.08984,-0.0312 0.02993,-0.009 0.0613,-0.0184 0.0957,-0.0254 0.04224,-0.009 0.07552,-0.0132 0.09961,-0.0156 0.02908,-0.003 0.06481,-0.004 0.105469,-0.004 h 4 c 0.09774,0 0.198765,-0.005 0.304687,-0.0156 0.110784,-0.0112 0.210656,-0.0289 0.298828,-0.0469 0.09606,-0.0196 0.191665,-0.0427 0.28711,-0.0723 0.08907,-0.0276 0.182813,-0.0617 0.277343,-0.10156 0.08655,-0.0365 0.174492,-0.0767 0.263672,-0.125 0.08592,-0.0466 0.167704,-0.0975 0.246094,-0.15039 0.07998,-0.0539 0.158151,-0.11063 0.232422,-0.17188 0.07051,-0.0581 0.141547,-0.12201 0.21289,-0.19336 0.0714,-0.0714 0.135252,-0.14438 0.19336,-0.21484 0.0612,-0.0742 0.117912,-0.15047 0.171875,-0.23047 0.05288,-0.0784 0.103855,-0.16022 0.15039,-0.24609 0.04836,-0.0892 0.09047,-0.17712 0.126954,-0.26367 0.03979,-0.0944 0.07199,-0.18817 0.09961,-0.27735 0.02956,-0.0955 0.05467,-0.1911 0.07422,-0.28711 0.01797,-0.0882 0.03375,-0.18808 0.04492,-0.29883 0.01064,-0.10543 0.01563,-0.20655 0.01563,-0.30468 v -1 -2 c 0,-1.94785 -1.403845,-3.58851 -3.263672,-3.9336 -0.239456,-0.0444 -0.485381,-0.0664 -0.736328,-0.0664 z"
         id="path109080-0" /><path
         style="stroke-linecap:round;stroke-linejoin:round;stroke-miterlimit:1.8;fill-opacity:1;fill:url(#linearGradient6489)"
         d="m 28.999854,287.64933 c -1.661991,0 -3,1.33801 -3,3 h 4 v 1 h -4 -1 c -1.661992,0 -3,1.33801 -3,3 v 2 c 0,1.66199 1.338008,3 3,3 h 1 v -2 c 0,-0.0693 0.003,-0.13768 0.0098,-0.20508 0.0068,-0.0674 0.01797,-0.134 0.03125,-0.19922 0.01328,-0.0652 0.02941,-0.1287 0.04883,-0.1914 0.01942,-0.0627 0.04117,-0.12374 0.06641,-0.1836 0.02523,-0.0599 0.05327,-0.11909 0.08398,-0.17578 0.03072,-0.0567 0.06374,-0.11088 0.09961,-0.16406 0.03587,-0.0532 0.07454,-0.10495 0.115234,-0.1543 0.04069,-0.0494 0.08372,-0.0974 0.128907,-0.14258 0.04519,-0.0452 0.09323,-0.0882 0.142578,-0.1289 0.04935,-0.0407 0.101113,-0.0794 0.154297,-0.11524 0.05318,-0.0359 0.107376,-0.0689 0.164062,-0.0996 0.05669,-0.0307 0.115922,-0.0588 0.175781,-0.084 0.05986,-0.0252 0.120892,-0.047 0.183594,-0.0664 0.0627,-0.0194 0.126192,-0.0356 0.191406,-0.0488 0.06522,-0.0133 0.131822,-0.0245 0.199219,-0.0312 0.0674,-0.007 0.135829,-0.01 0.205078,-0.01 h 4 c 0.06925,0 0.137681,-0.003 0.205078,-0.01 0.0674,-0.007 0.134004,-0.018 0.199219,-0.0312 0.06522,-0.0133 0.128704,-0.0294 0.191406,-0.0488 0.0627,-0.0194 0.123735,-0.0412 0.183594,-0.0664 0.05986,-0.0252 0.119095,-0.0533 0.175781,-0.084 0.05669,-0.0307 0.110879,-0.0637 0.164063,-0.0996 0.05318,-0.0359 0.104946,-0.0745 0.154297,-0.11523 0.04935,-0.0407 0.09739,-0.0837 0.142578,-0.12891 0.04519,-0.0452 0.08821,-0.0932 0.128906,-0.14258 0.04069,-0.0494 0.07936,-0.10111 0.115234,-0.1543 0.03587,-0.0532 0.06889,-0.10737 0.09961,-0.16406 0.03072,-0.0567 0.05875,-0.11592 0.08398,-0.17578 0.02523,-0.0599 0.04699,-0.12089 0.06641,-0.18359 0.01942,-0.0627 0.03555,-0.12619 0.04883,-0.19141 0.01328,-0.0652 0.02445,-0.13182 0.03125,-0.19922 0.0068,-0.0674 0.0098,-0.13583 0.0098,-0.20508 v -1 -2 c 0,-1.4723 -1.050223,-2.69036 -2.445312,-2.94922 -0.0509,0.0115 -0.101071,0.0238 -0.150391,0.0391 0.04932,-0.0153 0.09949,-0.0276 0.150391,-0.0391 -0.179778,-0.0333 -0.365041,-0.0508 -0.554727,-0.0508 z"
         id="path109082-1" /><path
         style="stroke-linecap:round;stroke-linejoin:round;stroke-miterlimit:1.8;fill:#fb9607;fill-opacity:1"
         d="m 35.000002,292.64999 c 1.125282,0 2,0.87472 2,2 v 2 c 0,1.12528 -0.874718,2 -2,2 h -1 -4 a 1.0001,1.0001 0 0 0 -1,1 v 1 a 1.0001,1.0001 0 0 0 1,1 h 2.59375 c -0.348804,0.56535 -0.864125,1 -1.59375,1 h -2 c -0.128427,0 -0.252936,-0.0129 -0.373047,-0.0352 l 0.002,0.0684 a 1.0001,1.0001 0 0 0 -0.267578,-0.0625 l 0.265625,-0.006 c -0.930348,-0.17262 -1.626953,-0.96808 -1.626953,-1.96484 v -2 -1 c 0,-0.0404 9.44e-4,-0.0761 0.0039,-0.10547 0.0024,-0.0241 0.009,-0.0574 0.01758,-0.0996 0.007,-0.0344 0.01416,-0.0657 0.02344,-0.0957 0.01122,-0.0362 0.02254,-0.0645 0.0332,-0.0899 0.01398,-0.0332 0.02793,-0.0638 0.04102,-0.0879 0.0149,-0.0275 0.02997,-0.0541 0.04883,-0.082 0.01779,-0.0264 0.03841,-0.0536 0.05859,-0.0781 0.02328,-0.0282 0.04547,-0.0513 0.06445,-0.0703 0.01903,-0.019 0.04408,-0.0412 0.07227,-0.0645 0.02443,-0.0202 0.04979,-0.0408 0.07617,-0.0586 0.02798,-0.0189 0.05457,-0.034 0.08203,-0.0488 0.02419,-0.0131 0.05472,-0.029 0.08789,-0.043 0.02519,-0.0106 0.05352,-0.02 0.08984,-0.0312 0.02996,-0.009 0.06132,-0.0184 0.0957,-0.0254 0.04226,-0.009 0.07559,-0.0132 0.09961,-0.0156 0.02887,-0.003 0.06471,-0.004 0.105469,-0.004 h 4 c 0.09784,0 0.198964,-0.005 0.304687,-0.0156 0.110704,-0.0112 0.210628,-0.0289 0.298828,-0.0469 0.09603,-0.0196 0.191637,-0.0427 0.28711,-0.0723 0.08911,-0.0276 0.182836,-0.0617 0.277343,-0.10156 0.08654,-0.0365 0.174505,-0.0767 0.263672,-0.125 0.08589,-0.0465 0.167662,-0.0975 0.246094,-0.1504 0.08003,-0.054 0.158171,-0.11064 0.232422,-0.17187 0.0705,-0.0581 0.141557,-0.12203 0.21289,-0.19336 0.07132,-0.0713 0.135169,-0.14427 0.19336,-0.21484 0.06122,-0.0743 0.117896,-0.15044 0.171875,-0.23047 0.05288,-0.0784 0.103857,-0.16023 0.15039,-0.2461 0.04826,-0.0891 0.09044,-0.17703 0.126954,-0.26367 0.03988,-0.0946 0.07202,-0.18826 0.09961,-0.27734 0.02956,-0.0955 0.05467,-0.19111 0.07422,-0.28711 0.01797,-0.0882 0.03375,-0.18808 0.04492,-0.29883 0.01064,-0.10543 0.01563,-0.20656 0.01563,-0.30469 z"
         id="path383" /><path
         style="stroke-linecap:round;stroke-linejoin:round;stroke-miterlimit:1.8;fill:#fb9607;fill-opacity:1"
         d="m 34.000002,290.64999 a 1.0001,1.0001 0 0 0 -1,1 v 2 c 0,0.0404 -0.0029,0.0742 -0.0059,0.10352 -0.0024,0.024 -0.007,0.0574 -0.01563,0.0996 -0.007,0.0344 -0.01416,0.0658 -0.02344,0.0957 -0.01125,0.0363 -0.0226,0.0667 -0.0332,0.0918 -0.01394,0.0331 -0.02785,0.0636 -0.04102,0.0879 -0.01491,0.0275 -0.03192,0.0521 -0.05078,0.0801 -0.01776,0.0263 -0.03648,0.0537 -0.05664,0.0781 -0.02319,0.0281 -0.0454,0.0532 -0.06445,0.0723 -0.01905,0.019 -0.04407,0.0412 -0.07227,0.0645 -0.02445,0.0202 -0.04983,0.0389 -0.07617,0.0566 -0.02793,0.0188 -0.05455,0.0359 -0.08203,0.0508 -0.02421,0.0131 -0.05472,0.027 -0.08789,0.041 -0.02521,0.0106 -0.0555,0.022 -0.0918,0.0332 -0.02993,0.009 -0.05935,0.0164 -0.09375,0.0234 -0.04224,0.009 -0.07747,0.0132 -0.101563,0.0156 -0.02875,0.003 -0.06361,0.006 -0.103515,0.006 h -4 c -0.09775,0 -0.200719,0.003 -0.306641,0.0137 -0.109933,0.0112 -0.209265,0.029 -0.296875,0.0469 -0.09606,0.0196 -0.193618,0.0447 -0.289063,0.0742 -0.08907,0.0276 -0.18086,0.0598 -0.27539,0.0996 -0.08655,0.0365 -0.174492,0.0786 -0.263672,0.12695 -0.08592,0.0466 -0.167704,0.0956 -0.246094,0.14844 -0.07998,0.0539 -0.158151,0.11258 -0.232422,0.17383 -0.07051,0.0581 -0.141547,0.12201 -0.21289,0.19336 -0.0714,0.0714 -0.135252,0.14242 -0.19336,0.21289 -0.06119,0.0742 -0.119865,0.15046 -0.173828,0.23046 -0.05288,0.0784 -0.101902,0.16218 -0.148437,0.24805 -0.04836,0.0892 -0.09047,0.17712 -0.126953,0.26367 -0.03979,0.0944 -0.07199,0.18621 -0.09961,0.27539 -0.02956,0.0955 -0.05467,0.19306 -0.07422,0.28907 -0.01797,0.0882 -0.0357,0.18612 -0.04687,0.29687 -0.01064,0.10544 -0.01367,0.20851 -0.01367,0.30664 v 1 2 c 0,1.94785 1.401891,3.58655 3.261718,3.93164 a 1.0001,1.0001 0 0 0 0.002,0 c 0.239445,0.0444 0.485384,0.0684 0.736329,0.0684 h 2 c 2.198697,0 4,-1.8013 4,-4 2.198698,0 4,-1.8013 4,-4 v -2 c 0,-2.1987 -1.801302,-4 -4,-4 z"
         id="path109086-5" /><path
         style="stroke-linecap:round;stroke-linejoin:round;stroke-miterlimit:1.8;fill-opacity:1;fill:url(#linearGradient7601)"
         d="m 30.999854,303.64933 c 1.661991,0 3,-1.33801 3,-3 h -4 v -1 h 4 1 c 1.661992,0 3,-1.33801 3,-3 v -2 c 0,-1.66199 -1.338008,-3 -3,-3 h -1 v 2 c 0,0.0692 -0.003,0.13768 -0.0098,0.20508 -0.0068,0.0674 -0.01797,0.134 -0.03125,0.19922 -0.01328,0.0652 -0.02941,0.1287 -0.04883,0.1914 -0.01942,0.0627 -0.04117,0.12374 -0.06641,0.1836 -0.02523,0.0599 -0.05327,0.11909 -0.08398,0.17578 -0.03072,0.0567 -0.06374,0.11088 -0.09961,0.16406 -0.03587,0.0532 -0.07454,0.10495 -0.115234,0.1543 -0.04069,0.0494 -0.08372,0.0974 -0.128907,0.14258 -0.04519,0.0452 -0.09323,0.0882 -0.142578,0.1289 -0.04935,0.0407 -0.101113,0.0794 -0.154297,0.11524 -0.05318,0.0359 -0.107376,0.0689 -0.164062,0.0996 -0.05669,0.0307 -0.115922,0.0587 -0.175781,0.084 -0.05986,0.0252 -0.120892,0.047 -0.183594,0.0664 -0.0627,0.0194 -0.126192,0.0356 -0.191406,0.0488 -0.06522,0.0133 -0.131822,0.0245 -0.199219,0.0312 -0.0674,0.007 -0.135829,0.01 -0.205078,0.01 h -4 c -0.06925,0 -0.137681,0.003 -0.205078,0.01 -0.0674,0.007 -0.134004,0.018 -0.199219,0.0312 -0.06522,0.0133 -0.128704,0.0294 -0.191406,0.0488 -0.0627,0.0194 -0.123735,0.0412 -0.183594,0.0664 -0.05986,0.0252 -0.119095,0.0533 -0.175781,0.084 -0.05669,0.0307 -0.110879,0.0637 -0.164063,0.0996 -0.05318,0.0359 -0.104946,0.0745 -0.154297,0.11523 -0.04935,0.0407 -0.09739,0.0837 -0.142578,0.12891 -0.04519,0.0452 -0.08821,0.0932 -0.128906,0.14258 -0.04069,0.0494 -0.07936,0.10111 -0.115234,0.1543 -0.03587,0.0532 -0.06889,0.10737 -0.09961,0.16406 -0.03072,0.0567 -0.05875,0.11592 -0.08398,0.17578 -0.02523,0.0599 -0.04699,0.12089 -0.06641,0.18359 -0.01942,0.0627 -0.03555,0.1262 -0.04883,0.19141 -0.01328,0.0652 -0.02445,0.13182 -0.03125,0.19922 -0.0068,0.0674 -0.0098,0.13583 -0.0098,0.20508 v 1 2 c 0,1.4723 1.050223,2.69036 2.445312,2.94922 0.0509,-0.0115 0.101071,-0.0238 0.150391,-0.0391 -0.04932,0.0153 -0.09949,0.0276 -0.150391,0.0391 0.179778,0.0333 0.365041,0.0508 0.554727,0.0508 z"
         id="path109088-7" /></g></g></svg>
