<?xml version="1.0" encoding="UTF-8" standalone="no"?>
<!-- Created with Inkscape (http://www.inkscape.org/) -->

<svg
   width="48"
   height="48"
   viewBox="0 0 48 48"
   version="1.1"
   id="svg8"
   inkscape:version="1.2.2 (b0a8486541, 2022-12-01)"
   sodipodi:docname="application-x-partial-download.svg"
   xml:space="preserve"
   xmlns:inkscape="http://www.inkscape.org/namespaces/inkscape"
   xmlns:sodipodi="http://sodipodi.sourceforge.net/DTD/sodipodi-0.dtd"
   xmlns:xlink="http://www.w3.org/1999/xlink"
   xmlns="http://www.w3.org/2000/svg"
   xmlns:svg="http://www.w3.org/2000/svg"
   xmlns:rdf="http://www.w3.org/1999/02/22-rdf-syntax-ns#"
   xmlns:cc="http://creativecommons.org/ns#"
   xmlns:dc="http://purl.org/dc/elements/1.1/"><title
     id="title7895">Antu icon Theme</title><defs
     id="defs2"><linearGradient
       inkscape:collect="always"
       id="linearGradient1287"><stop
         style="stop-color:#e4e4e4;stop-opacity:1;"
         offset="0"
         id="stop1283" /><stop
         style="stop-color:#fbfbfb;stop-opacity:1;"
         offset="1"
         id="stop1285" /></linearGradient><linearGradient
       inkscape:collect="always"
       xlink:href="#linearGradient1287"
       id="linearGradient1289"
       x1="317"
       y1="440.65018"
       x2="317"
       y2="419.65018"
       gradientUnits="userSpaceOnUse" /></defs><sodipodi:namedview
     id="base"
     pagecolor="#ffffff"
     bordercolor="#666666"
     borderopacity="1.0"
     inkscape:pageopacity="0.0"
     inkscape:pageshadow="2"
     inkscape:zoom="22.627418"
     inkscape:cx="16.042484"
     inkscape:cy="20.240931"
     inkscape:document-units="px"
     inkscape:current-layer="g42100"
     showgrid="true"
     units="px"
     inkscape:window-width="2560"
     inkscape:window-height="1369"
     inkscape:window-x="0"
     inkscape:window-y="0"
     inkscape:window-maximized="1"
     objecttolerance="10"
     gridtolerance="10"
     guidetolerance="10"
     inkscape:snap-bbox="true"
     inkscape:bbox-paths="true"
     inkscape:bbox-nodes="true"
     inkscape:snap-bbox-edge-midpoints="true"
     inkscape:snap-bbox-midpoints="true"
     inkscape:object-paths="true"
     inkscape:snap-intersection-paths="true"
     inkscape:showpageshadow="2"
     inkscape:pagecheckerboard="0"
     inkscape:deskcolor="#d1d1d1"><inkscape:grid
       type="xygrid"
       id="grid7897"
       empspacing="4" /></sodipodi:namedview><metadata
     id="metadata5"><rdf:RDF><cc:Work
         rdf:about=""><dc:format>image/svg+xml</dc:format><dc:type
           rdf:resource="http://purl.org/dc/dcmitype/StillImage" /><dc:title>Antu icon Theme</dc:title></cc:Work></rdf:RDF></metadata><g
     inkscape:label="Capa 1"
     inkscape:groupmode="layer"
     id="layer1"
     transform="translate(0,-266.64999)"><g
       id="g42100"
       transform="translate(20.25,13.25)"><g
         id="g101999"
         transform="translate(-32,-26.0002)"><path
           id="rect6397-1-9-0-8"
           style="fill:#535e66;fill-opacity:1;stroke:none;stroke-width:6;stroke-linecap:square;stroke-linejoin:round;stroke-miterlimit:18;stroke-dasharray:none;stroke-dashoffset:0;stroke-opacity:1;paint-order:markers stroke fill"
           d="m 16.75,306.39999 v 3 h 1 v -1 -2 z m 37,0 v 2 1 h 1 v -3 z m -37,7 v 3 h 1 v -3 z m 37,0 v 3 h 1 v -3 z m -37,7 v 2 c 0,1.662 1.33801,3 3,3 v -1 c -1.108,0 -2,-0.892 -2,-2 v -2 z m 37,0 v 2 c 0,1.108 -0.892,2 -2,2 v 1 c 1.662,0 3,-1.338 3,-3 v -2 z m -30,4 v 1 h 3 v -1 z m 7,0 v 1 h 3 v -1 z m 7,0 v 1 h 3 v -1 z m 7,0 v 1 h 3 v -1 z" /><g
           id="path99352"
           transform="translate(-281.25,-137.25)"><path
             style="color:#000000;fill:#535e66;fill-opacity:1;stroke-linecap:square;stroke-linejoin:round;stroke-miterlimit:18;paint-order:markers stroke fill"
             d="m 301,418.65039 c -1.64471,-1e-5 -3,1.35529 -3,3 v 19 c 3.5e-4,0.89063 1.07704,1.33658 1.70703,0.70703 L 302,439.06445 l 2.29297,2.29297 c 0.39053,0.39037 1.02353,0.39037 1.41406,0 L 308,439.06445 l 2.29297,2.29297 c 0.39053,0.39037 1.02353,0.39037 1.41406,0 L 314,439.06445 l 2.29297,2.29297 c 0.39053,0.39037 1.02353,0.39037 1.41406,0 L 320,439.06445 l 2.29297,2.29297 c 0.39053,0.39037 1.02353,0.39037 1.41406,0 L 326,439.06445 l 2.29297,2.29297 c 0.39053,0.39037 1.02353,0.39037 1.41406,0 L 332,439.06445 l 2.29297,2.29297 c 0.62999,0.62955 1.70668,0.1836 1.70703,-0.70703 v -19 c 0,-1.64471 -1.3553,-3 -3,-3 z"
             id="path99897"
             sodipodi:nodetypes="csccccccccccccccccccccssc" /><path
             style="color:#000000;fill:url(#linearGradient1289);fill-opacity:1;stroke-width:2;stroke-linecap:square;stroke-linejoin:round;stroke-miterlimit:18;paint-order:markers stroke fill"
             d="m 301,419.64999 c -1.10799,-10e-6 -2,0.892 -2,2 v 19 l 3,-3 3,3 3,-3 3,3 3,-3 3,3 3,-3 3,3 3,-3 3,3 3,-3 3,3 v -19 c 0,-1.10801 -0.892,-2 -2,-2 z"
             id="path99899" /></g><path
           id="path99495"
           style="fill:#ccced0;fill-opacity:1;stroke-width:1.2;stroke-linecap:round;stroke-linejoin:round;stroke-miterlimit:1.8;paint-order:stroke fill markers;stop-color:#000000"
           d="m 19.75,282.39999 c -1.108,0 -2,0.892 -2,2 v 1 h 2 1 v -1 -2 z m 1,3 v 3 h 3 v -3 z m 3,0 h 3 v -3 h -3 z m 3,0 v 3 h 3 v -3 z m 3,0 h 3 v -3 h -3 z m 3,0 v 3 h 3 v -3 z m 3,0 h 3 v -3 h -3 z m 3,0 v 3 h 3 v -3 z m 3,0 h 3 v -3 h -3 z m 3,0 v 3 h 3 v -3 z m 3,0 h 3 v -3 h -3 z m 3,0 v 3 h 3 v -3 z m 0,3 h -3 v 3 h 3 z m 0,3 v 3 h 3 v -3 z m 0,3 h -3 v 3 h 3 z m 0,3 v 3 h 3 v -3 z m 0,3 h -3 v 3 z m -3,0 v -3 h -3 v 3 z m -3,0 h -3 v 3 z m -3,0 v -3 h -3 v 3 z m -3,0 h -3 v 3 z m -3,0 v -3 h -3 v 3 z m -3,0 h -3 v 3 z m -3,0 v -3 h -3 v 3 z m -3,0 h -3 v 3 z m -3,0 v -3 h -3 v 3 z m -3,0 h -3 v 3 z m 0,-3 v -3 h -3 v 3 z m 0,-3 h 3 v -3 h -3 z m 0,-3 v -3 h -3 v 3 z m 3,0 h 3 v -3 h -3 z m 3,0 v 3 h 3 v -3 z m 3,0 h 3 v -3 h -3 z m 3,0 v 3 h 3 v -3 z m 3,0 h 3 v -3 h -3 z m 3,0 v 3 h 3 v -3 z m 3,0 h 3 v -3 h -3 z m 3,0 v 3 h 3 v -3 z m 0,3 h -3 v 3 h 3 z m -6,0 h -3 v 3 h 3 z m -6,0 h -3 v 3 h 3 z m -6,0 h -3 v 3 h 3 z" /><path
           id="path101323"
           style="fill:#ccced0;fill-opacity:1;stroke:none;stroke-width:2;stroke-linecap:round;stroke-linejoin:round;stroke-miterlimit:1.8;stroke-dasharray:none;stroke-opacity:1;paint-order:stroke fill markers;stop-color:#000000"
           d="m 19.75,282.39999 v 2 h -2 c 0,0.36464 0.0965,0.70624 0.26563,1 h 1.73437 1 v -1 -1.73438 c -0.29376,-0.16912 -0.63536,-0.26562 -1,-0.26562 z" /></g></g></g></svg>
