<?xml version="1.0" encoding="UTF-8" standalone="no"?>
<!-- Created with Inkscape (http://www.inkscape.org/) -->

<svg
   width="48"
   height="48"
   viewBox="0 0 48 48"
   version="1.1"
   id="svg8"
   inkscape:version="1.2.2 (b0a8486541, 2022-12-01)"
   sodipodi:docname="application-x-kdenlivetitle.svg"
   xmlns:inkscape="http://www.inkscape.org/namespaces/inkscape"
   xmlns:sodipodi="http://sodipodi.sourceforge.net/DTD/sodipodi-0.dtd"
   xmlns:xlink="http://www.w3.org/1999/xlink"
   xmlns="http://www.w3.org/2000/svg"
   xmlns:svg="http://www.w3.org/2000/svg"
   xmlns:rdf="http://www.w3.org/1999/02/22-rdf-syntax-ns#"
   xmlns:cc="http://creativecommons.org/ns#"
   xmlns:dc="http://purl.org/dc/elements/1.1/">
  <title
     id="title7895">Antu icon Theme</title>
  <defs
     id="defs2">
    <linearGradient
       gradientTransform="translate(0)"
       inkscape:collect="always"
       xlink:href="#linearGradient4565"
       id="linearGradient6986"
       x1="24"
       y1="307.64999"
       x2="24"
       y2="273.64999"
       gradientUnits="userSpaceOnUse" />
    <linearGradient
       gradientTransform="translate(-35.999997,-51.999966)"
       y2="322.64999"
       x2="60"
       y1="362.64999"
       x1="60"
       gradientUnits="userSpaceOnUse"
       id="linearGradient6625-7"
       xlink:href="#linearGradient4580"
       inkscape:collect="always" />
    <linearGradient
       id="linearGradient4580"
       inkscape:collect="always">
      <stop
         id="stop4576"
         offset="0"
         style="stop-color:#06111c;stop-opacity:1" />
      <stop
         id="stop4578-6"
         offset="1"
         style="stop-color:#15272f;stop-opacity:1" />
    </linearGradient>
    <linearGradient
       id="linearGradient4565"
       inkscape:collect="always">
      <stop
         id="stop4561"
         offset="0"
         style="stop-color:#1780f2;stop-opacity:1" />
      <stop
         id="stop4563"
         offset="1"
         style="stop-color:#02b3fe;stop-opacity:1" />
    </linearGradient>
  </defs>
  <sodipodi:namedview
     id="base"
     pagecolor="#ffffff"
     bordercolor="#666666"
     borderopacity="1.0"
     inkscape:pageopacity="0.0"
     inkscape:pageshadow="2"
     inkscape:zoom="11.313709"
     inkscape:cx="26.737475"
     inkscape:cy="11.490485"
     inkscape:document-units="px"
     inkscape:current-layer="layer1"
     showgrid="true"
     units="px"
     inkscape:window-width="2560"
     inkscape:window-height="1369"
     inkscape:window-x="0"
     inkscape:window-y="0"
     inkscape:window-maximized="1"
     objecttolerance="10"
     gridtolerance="10"
     guidetolerance="10"
     inkscape:snap-bbox="true"
     inkscape:bbox-paths="true"
     inkscape:bbox-nodes="true"
     inkscape:snap-bbox-edge-midpoints="true"
     inkscape:snap-bbox-midpoints="true"
     inkscape:object-paths="true"
     inkscape:snap-intersection-paths="true"
     inkscape:showpageshadow="2"
     inkscape:pagecheckerboard="0"
     inkscape:deskcolor="#d1d1d1">
    <inkscape:grid
       type="xygrid"
       id="grid7897"
       empspacing="4" />
  </sodipodi:namedview>
  <metadata
     id="metadata5">
    <rdf:RDF>
      <cc:Work
         rdf:about="">
        <dc:format>image/svg+xml</dc:format>
        <dc:type
           rdf:resource="http://purl.org/dc/dcmitype/StillImage" />
        <dc:title>Antu icon Theme</dc:title>
      </cc:Work>
    </rdf:RDF>
  </metadata>
  <g
     inkscape:label="Capa 1"
     inkscape:groupmode="layer"
     id="layer1"
     transform="translate(0,-266.64999)">
    <path
       inkscape:connector-curvature="0"
       id="rect6397-1"
       d="m 8,268.64999 h 32 c 1.662,0 3,1.33798 3,3 v 38 c 0,1.66197 -1.338,3 -3,3 H 8 c -1.661998,0 -3,-1.33803 -3,-3 v -38 c 0,-1.66202 1.338002,-3 3,-3 z"
       style="vector-effect:none;fill:#01060b;fill-opacity:0.992157;stroke:none;stroke-width:6;stroke-linecap:square;stroke-linejoin:round;stroke-miterlimit:18;stroke-dasharray:none;stroke-dashoffset:0;stroke-opacity:1;paint-order:markers stroke fill" />
    <path
       sodipodi:nodetypes="sssssssss"
       inkscape:connector-curvature="0"
       id="rect6399-4"
       d="m 8,269.64999 h 32 c 1.108001,0 2,0.892 2,2.00001 v 38.00001 c 0,1.10797 -0.891999,1.99997 -2,1.99997 H 8 c -1.107998,0 -2,-0.892 -2,-1.99997 V 271.65 c 0,-1.10801 0.892002,-2.00001 2,-2.00001 z"
       style="vector-effect:none;fill:url(#linearGradient6625-7);fill-opacity:1;stroke:none;stroke-width:6;stroke-linecap:square;stroke-linejoin:round;stroke-miterlimit:18;stroke-dasharray:none;stroke-dashoffset:0;stroke-opacity:1;paint-order:markers stroke fill" />
    <path
       style="vector-effect:none;fill:url(#linearGradient6986);fill-opacity:1;stroke:none;stroke-width:2;stroke-linecap:round;stroke-linejoin:round;stroke-miterlimit:4;stroke-dasharray:none;stroke-dashoffset:0;stroke-opacity:0.960784"
       d="m 15,272.65 h 18 c 1.108,0 2,0.892 2,2 v 32 c 0,1.108 -0.892,2 -2,2 H 15 c -1.108,0 -2,-0.892 -2,-2 v -32 c 0,-1.108 0.892,-2 2,-2 z"
       id="rect6978" />
    <path
       id="rect73168-2"
       style="fill:#ffffff;fill-opacity:0.27963525;stroke:none;stroke-width:0.8;stroke-linecap:round;stroke-linejoin:round;stroke-miterlimit:1.8;stroke-opacity:1;paint-order:stroke fill markers;stop-color:#000000"
       d="m 15,272.64999 v 2 h 2 v -2 z m 2,2 v 2 h 2 v -2 z m 2,0 h 2 v -2 h -2 z m 2,0 v 2 h 2 v -2 z m 2,0 h 2 v -2 h -2 z m 2,0 v 2 h 2 v -2 z m 2,0 h 2 v -2 h -2 z m 2,0 v 2 h 2 v -2 z m 2,0 h 2 v -2 h -2 z m 2,0 v 2 h 2 v -2 z m 0,2 h -2 v 2 h 2 z m 0,2 v 2 h 2 v -2 z m 0,2 h -2 v 2 h 2 z m 0,2 v 2 h 2 v -2 z m 0,2 h -2 v 2 h 2 z m 0,2 v 2 h 2 v -2 z m 0,2 h -2 v 2 h 2 z m 0,2 v 2 h 2 v -2 z m 0,2 h -2 v 2 h 2 z m 0,2 v 2 h 2 v -2 z m 0,2 h -2 v 2 h 2 z m 0,2 v 2 h 2 v -2 z m 0,2 h -2 v 2 h 2 z m 0,2 v 2 h 2 v -2 z m 0,2 h -2 v 2 h 2 z m 0,2 v 2 c 0.0346,0 0.0693,-2.3e-4 0.10352,-0.002 0.0342,-0.002 0.0679,-0.004 0.10156,-0.008 0.0337,-0.003 0.0664,-0.009 0.0996,-0.0137 0.0332,-0.005 0.067,-0.0109 0.0996,-0.0176 0.0326,-0.007 0.0637,-0.0133 0.0957,-0.0215 0.032,-0.008 0.0643,-0.0176 0.0957,-0.0273 0.0314,-0.01 0.0631,-0.0201 0.0937,-0.0312 0.0307,-0.0112 0.0599,-0.0225 0.0899,-0.0352 0.0299,-0.0126 0.0607,-0.027 0.0898,-0.041 0.0292,-0.014 0.0576,-0.0276 0.0859,-0.043 0.0283,-0.0154 0.0565,-0.0322 0.084,-0.0488 0.0275,-0.0167 0.0535,-0.0328 0.0801,-0.0508 0.0266,-0.0179 0.0525,-0.0375 0.0781,-0.0566 0.0257,-0.0192 0.0515,-0.0383 0.0762,-0.0586 0.0247,-0.0204 0.0486,-0.041 0.0723,-0.0625 0.0237,-0.0215 0.0477,-0.0438 0.0703,-0.0664 0.0226,-0.0226 0.0449,-0.0467 0.0664,-0.0703 0.0215,-0.0237 0.0421,-0.0476 0.0625,-0.0723 0.0204,-0.0247 0.0394,-0.0505 0.0586,-0.0762 0.0192,-0.0257 0.0387,-0.0515 0.0566,-0.0781 0.0179,-0.0266 0.0341,-0.0526 0.0508,-0.0801 0.0167,-0.0275 0.0335,-0.0556 0.0488,-0.084 0.0154,-0.0283 0.029,-0.0568 0.043,-0.0859 0.014,-0.0292 0.0284,-0.0599 0.041,-0.0898 0.0126,-0.0299 0.024,-0.0592 0.0352,-0.0898 0.0112,-0.0307 0.0215,-0.0624 0.0312,-0.0937 0.01,-0.0314 0.0191,-0.0637 0.0273,-0.0957 0.008,-0.032 0.0149,-0.0631 0.0215,-0.0957 0.007,-0.0326 0.0125,-0.0664 0.0176,-0.0996 0.005,-0.0332 0.0103,-0.0659 0.0137,-0.0996 0.003,-0.0337 0.006,-0.0674 0.008,-0.10156 0.002,-0.0342 0.002,-0.0689 0.002,-0.10352 z m -2,0 h -2 v 2 h 2 z m -2,0 v -2 h -2 v 2 z m -2,0 h -2 v 2 h 2 z m -2,0 v -2 h -2 v 2 z m -2,0 h -2 v 2 h 2 z m -2,0 v -2 h -2 v 2 z m -2,0 h -2 v 2 h 2 z m -2,0 v -2 h -2 v 2 z m -2,0 h -2 c 0,0.0346 2.3e-4,0.0693 0.002,0.10352 0.002,0.0342 0.004,0.0679 0.008,0.10156 0.003,0.0337 0.009,0.0664 0.0137,0.0996 0.005,0.0332 0.0109,0.067 0.0176,0.0996 0.007,0.0326 0.0133,0.0637 0.0215,0.0957 0.008,0.032 0.0176,0.0643 0.0273,0.0957 0.01,0.0313 0.0201,0.0631 0.0312,0.0937 0.0112,0.0307 0.0225,0.0599 0.0352,0.0898 0.0126,0.0299 0.027,0.0607 0.041,0.0898 0.014,0.0292 0.0276,0.0576 0.043,0.0859 0.0154,0.0283 0.0322,0.0565 0.0488,0.084 0.0167,0.0275 0.0329,0.0535 0.0508,0.0801 0.0179,0.0266 0.0375,0.0525 0.0566,0.0781 0.0192,0.0256 0.0382,0.0515 0.0586,0.0762 0.0204,0.0247 0.041,0.0486 0.0625,0.0723 0.0215,0.0237 0.0438,0.0477 0.0664,0.0703 0.0226,0.0226 0.0467,0.0449 0.0703,0.0664 0.0236,0.0215 0.0476,0.0421 0.0723,0.0625 0.0247,0.0204 0.0505,0.0394 0.0762,0.0586 0.0257,0.0192 0.0515,0.0387 0.0781,0.0566 0.0266,0.0179 0.0526,0.0341 0.0801,0.0508 0.0275,0.0167 0.0556,0.0335 0.084,0.0488 0.0283,0.0154 0.0568,0.029 0.0859,0.043 0.0292,0.014 0.0599,0.0284 0.0898,0.041 0.0299,0.0126 0.0592,0.024 0.0899,0.0352 0.0307,0.0112 0.0624,0.0215 0.0937,0.0312 0.0313,0.01 0.0637,0.0191 0.0957,0.0273 0.032,0.008 0.0631,0.0149 0.0957,0.0215 0.0326,0.007 0.0664,0.0125 0.0996,0.0176 0.0332,0.005 0.0659,0.0103 0.0996,0.0137 0.0337,0.003 0.0674,0.006 0.10156,0.008 0.0342,0.002 0.0689,0.002 0.10352,0.002 z m 0,-2 v -2 h -2 v 2 z m 0,-2 h 2 v -2 h -2 z m 0,-2 v -2 h -2 v 2 z m 0,-2 h 2 v -2 h -2 z m 0,-2 v -2 h -2 v 2 z m 0,-2 h 2 v -2 h -2 z m 0,-2 v -2 h -2 v 2 z m 0,-2 h 2 v -2 h -2 z m 0,-2 v -2 h -2 v 2 z m 0,-2 h 2 v -2 h -2 z m 0,-2 v -2 h -2 v 2 z m 0,-2 h 2 v -2 h -2 z m 0,-2 v -2 h -2 v 2 z m 0,-2 h 2 v -2 h -2 z m 0,-2 v -2 h -2 v 2 z m 2,2 v 2 h 2 v -2 z m 2,0 h 2 v -2 h -2 z m 2,0 v 2 h 2 v -2 z m 2,0 h 2 v -2 h -2 z m 2,0 v 2 h 2 v -2 z m 2,0 h 2 v -2 h -2 z m 2,0 v 2 h 2 v -2 z m 0,2 h -2 v 2 h 2 z m 0,2 v 2 h 2 v -2 z m 0,2 h -2 v 2 h 2 z m 0,2 v 2 h 2 v -2 z m 0,2 h -2 v 2 h 2 z m 0,2 v 2 h 2 v -2 z m 0,2 h -2 v 2 h 2 z m 0,2 v 2 h 2 v -2 z m 0,2 h -2 v 2 h 2 z m 0,2 v 2 h 2 v -2 z m 0,2 h -2 v 2 h 2 z m 0,2 v 2 h 2 v -2 z m -2,0 h -2 v 2 h 2 z m -2,0 v -2 h -2 v 2 z m -2,0 h -2 v 2 h 2 z m -2,0 v -2 h -2 v 2 z m -2,0 h -2 v 2 h 2 z m 0,-2 v -2 h -2 v 2 z m 0,-2 h 2 v -2 h -2 z m 0,-2 v -2 h -2 v 2 z m 0,-2 h 2 v -2 h -2 z m 0,-2 v -2 h -2 v 2 z m 0,-2 h 2 v -2 h -2 z m 0,-2 v -2 h -2 v 2 z m 0,-2 h 2 v -2 h -2 z m 0,-2 v -2 h -2 v 2 z m 0,-2 h 2 v -2 h -2 z m 2,0 v 2 h 2 v -2 z m 2,0 h 2 v -2 h -2 z m 2,0 v 2 h 2 v -2 z m 0,2 h -2 v 2 h 2 z m 0,2 v 2 h 2 v -2 z m 0,2 h -2 v 2 h 2 z m 0,2 v 2 h 2 v -2 z m 0,2 h -2 v 2 h 2 z m 0,2 v 2 h 2 v -2 z m 0,2 h -2 v 2 h 2 z m 0,2 v 2 h 2 v -2 z m -2,0 h -2 v 2 h 2 z m 0,-2 v -2 h -2 v 2 z m 0,-4 v -2 h -2 v 2 z m 0,-4 v -2 h -2 v 2 z" />
    <path
       id="path6994-7"
       d="m 19,283.64999 a 1.0001,1.0001 0 0 0 -1.009766,1 v 14 a 1.0001,1.0001 0 0 0 1.574219,0.81836 l 10,-7 a 1.0001,1.0001 0 0 0 0,-1.63868 l -10,-7 A 1.0001,1.0001 0 0 0 19,283.64999 Z"
       style="color:#000000;font-style:normal;font-variant:normal;font-weight:normal;font-stretch:normal;font-size:medium;line-height:normal;font-family:sans-serif;font-variant-ligatures:normal;font-variant-position:normal;font-variant-caps:normal;font-variant-numeric:normal;font-variant-alternates:normal;font-feature-settings:normal;text-indent:0;text-align:start;text-decoration:none;text-decoration-line:none;text-decoration-style:solid;text-decoration-color:#000000;letter-spacing:normal;word-spacing:normal;text-transform:none;writing-mode:lr-tb;direction:ltr;text-orientation:mixed;dominant-baseline:auto;baseline-shift:baseline;text-anchor:start;white-space:normal;shape-padding:0;clip-rule:nonzero;display:inline;overflow:visible;visibility:visible;isolation:auto;mix-blend-mode:normal;color-interpolation:sRGB;color-interpolation-filters:linearRGB;solid-color:#000000;solid-opacity:1;vector-effect:none;fill:#0f49bf;fill-opacity:1;fill-rule:nonzero;stroke:none;stroke-width:2;stroke-linecap:round;stroke-linejoin:round;stroke-miterlimit:4;stroke-dasharray:none;stroke-dashoffset:0;stroke-opacity:1;color-rendering:auto;image-rendering:auto;shape-rendering:auto;text-rendering:auto;enable-background:accumulate"
       inkscape:connector-curvature="0" />
    <path
       id="path6994"
       d="m 19.009766,282.64999 a 1.0001,1.0001 0 0 0 -1.009766,1 v 14 a 1.0001,1.0001 0 0 0 1.574219,0.81836 l 10,-7 a 1.0001,1.0001 0 0 0 0,-1.63867 l -10,-7 a 1.0001,1.0001 0 0 0 -0.564453,-0.17969 z"
       style="color:#000000;font-style:normal;font-variant:normal;font-weight:normal;font-stretch:normal;font-size:medium;line-height:normal;font-family:sans-serif;font-variant-ligatures:normal;font-variant-position:normal;font-variant-caps:normal;font-variant-numeric:normal;font-variant-alternates:normal;font-feature-settings:normal;text-indent:0;text-align:start;text-decoration:none;text-decoration-line:none;text-decoration-style:solid;text-decoration-color:#000000;letter-spacing:normal;word-spacing:normal;text-transform:none;writing-mode:lr-tb;direction:ltr;text-orientation:mixed;dominant-baseline:auto;baseline-shift:baseline;text-anchor:start;white-space:normal;shape-padding:0;clip-rule:nonzero;display:inline;overflow:visible;visibility:visible;isolation:auto;mix-blend-mode:normal;color-interpolation:sRGB;color-interpolation-filters:linearRGB;solid-color:#000000;solid-opacity:1;vector-effect:none;fill:#ffffff;fill-opacity:1;fill-rule:nonzero;stroke:none;stroke-width:2;stroke-linecap:round;stroke-linejoin:round;stroke-miterlimit:4;stroke-dasharray:none;stroke-dashoffset:0;stroke-opacity:1;color-rendering:auto;image-rendering:auto;shape-rendering:auto;text-rendering:auto;enable-background:accumulate"
       inkscape:connector-curvature="0" />
    <path
       id="rect7021-6"
       d="m 9,274.64999 c -0.553998,0 -1,0.446 -1,1 v 3 c 0,0.554 0.446002,1 1,1 h 1 c 0.553998,0 1,-0.446 1,-1 v -3 c 0,-0.554 -0.446002,-1 -1,-1 z m 29,0 c -0.553998,0 -1,0.446 -1,1 v 3 c 0,0.554 0.446002,1 1,1 h 1 c 0.553998,0 1,-0.446 1,-1 v -3 c 0,-0.554 -0.446002,-1 -1,-1 z m -29,7 c -0.553998,0 -1,0.446 -1,1 v 3 c 0,0.554 0.446002,1 1,1 h 1 c 0.553998,0 1,-0.446 1,-1 v -3 c 0,-0.554 -0.446002,-1 -1,-1 z m 29,0 c -0.553998,0 -1,0.446 -1,1 v 3 c 0,0.554 0.446002,1 1,1 h 1 c 0.553998,0 1,-0.446 1,-1 v -3 c 0,-0.554 -0.446002,-1 -1,-1 z m -29,7 c -0.553998,0 -1,0.446 -1,1 v 3 c 0,0.554 0.446002,1 1,1 h 1 c 0.553998,0 1,-0.446 1,-1 v -3 c 0,-0.554 -0.446002,-1 -1,-1 z m 29,0 c -0.553998,0 -1,0.446 -1,1 v 3 c 0,0.554 0.446002,1 1,1 h 1 c 0.553998,0 1,-0.446 1,-1 v -3 c 0,-0.554 -0.446002,-1 -1,-1 z m -29,7 c -0.553998,0 -1,0.446 -1,1 v 3 c 0,0.554 0.446002,1 1,1 h 1 c 0.553998,0 1,-0.446 1,-1 v -3 c 0,-0.554 -0.446002,-1 -1,-1 z m 29,0 c -0.553998,0 -1,0.446 -1,1 v 3 c 0,0.554 0.446002,1 1,1 h 1 c 0.553998,0 1,-0.446 1,-1 v -3 c 0,-0.554 -0.446002,-1 -1,-1 z m -29,7 c -0.553998,0 -1,0.446 -1,1 v 3 c 0,0.554 0.446002,1 1,1 h 1 c 0.553998,0 1,-0.446 1,-1 v -3 c 0,-0.554 -0.446002,-1 -1,-1 z m 29,0 c -0.553998,0 -1,0.446 -1,1 v 3 c 0,0.554 0.446002,1 1,1 h 1 c 0.553998,0 1,-0.446 1,-1 v -3 c 0,-0.554 -0.446002,-1 -1,-1 z"
       style="vector-effect:none;fill:#02070c;fill-opacity:1;stroke:none;stroke-width:2;stroke-linecap:round;stroke-linejoin:round;stroke-miterlimit:4;stroke-dasharray:none;stroke-dashoffset:0;stroke-opacity:0.960784"
       inkscape:connector-curvature="0" />
    <path
       id="rect7021"
       d="m 9,273.64999 c -0.553998,0 -1,0.446 -1,1 v 3 c 0,0.554 0.446002,1 1,1 h 1 c 0.553998,0 1,-0.446 1,-1 v -3 c 0,-0.554 -0.446002,-1 -1,-1 z m 29,0 c -0.553998,0 -1,0.446 -1,1 v 3 c 0,0.554 0.446002,1 1,1 h 1 c 0.553998,0 1,-0.446 1,-1 v -3 c 0,-0.554 -0.446002,-1 -1,-1 z m -29,7 c -0.553998,0 -1,0.446 -1,1 v 3 c 0,0.554 0.446002,1 1,1 h 1 c 0.553998,0 1,-0.446 1,-1 v -3 c 0,-0.554 -0.446002,-1 -1,-1 z m 29,0 c -0.553998,0 -1,0.446 -1,1 v 3 c 0,0.554 0.446002,1 1,1 h 1 c 0.553998,0 1,-0.446 1,-1 v -3 c 0,-0.554 -0.446002,-1 -1,-1 z m -29,7 c -0.553998,0 -1,0.446 -1,1 v 3 c 0,0.554 0.446002,1 1,1 h 1 c 0.553998,0 1,-0.446 1,-1 v -3 c 0,-0.554 -0.446002,-1 -1,-1 z m 29,0 c -0.553998,0 -1,0.446 -1,1 v 3 c 0,0.554 0.446002,1 1,1 h 1 c 0.553998,0 1,-0.446 1,-1 v -3 c 0,-0.554 -0.446002,-1 -1,-1 z m -29,7 c -0.553998,0 -1,0.446 -1,1 v 3 c 0,0.554 0.446002,1 1,1 h 1 c 0.553998,0 1,-0.446 1,-1 v -3 c 0,-0.554 -0.446002,-1 -1,-1 z m 29,0 c -0.553998,0 -1,0.446 -1,1 v 3 c 0,0.554 0.446002,1 1,1 h 1 c 0.553998,0 1,-0.446 1,-1 v -3 c 0,-0.554 -0.446002,-1 -1,-1 z m -29,7 c -0.553998,0 -1,0.446 -1,1 v 3 c 0,0.554 0.446002,1 1,1 h 1 c 0.553998,0 1,-0.446 1,-1 v -3 c 0,-0.554 -0.446002,-1 -1,-1 z m 29,0 c -0.553998,0 -1,0.446 -1,1 v 3 c 0,0.554 0.446002,1 1,1 h 1 c 0.553998,0 1,-0.446 1,-1 v -3 c 0,-0.554 -0.446002,-1 -1,-1 z"
       style="vector-effect:none;fill:#f1f2f3;fill-opacity:1;stroke:none;stroke-width:2;stroke-linecap:round;stroke-linejoin:round;stroke-miterlimit:4;stroke-dasharray:none;stroke-dashoffset:0;stroke-opacity:0.960784"
       inkscape:connector-curvature="0" />
  </g>
</svg>
