<?xml version="1.0" encoding="UTF-8" standalone="no"?>
<!-- Created with Inkscape (http://www.inkscape.org/) -->

<svg
   width="48"
   height="48"
   viewBox="0 0 48 48"
   version="1.1"
   id="svg8"
   inkscape:version="1.2.2 (b0a8486541, 2022-12-01)"
   sodipodi:docname="application-mac-binhex40.svg"
   xml:space="preserve"
   xmlns:inkscape="http://www.inkscape.org/namespaces/inkscape"
   xmlns:sodipodi="http://sodipodi.sourceforge.net/DTD/sodipodi-0.dtd"
   xmlns:xlink="http://www.w3.org/1999/xlink"
   xmlns="http://www.w3.org/2000/svg"
   xmlns:svg="http://www.w3.org/2000/svg"
   xmlns:rdf="http://www.w3.org/1999/02/22-rdf-syntax-ns#"
   xmlns:cc="http://creativecommons.org/ns#"
   xmlns:dc="http://purl.org/dc/elements/1.1/"><title
     id="title7895">Antu icon Theme</title><defs
     id="defs2"><linearGradient
       inkscape:collect="always"
       id="linearGradient4596"><stop
         style="stop-color:#d4deea;stop-opacity:1;"
         offset="0"
         id="stop4592" /><stop
         style="stop-color:#f0f1f2;stop-opacity:1;"
         offset="1"
         id="stop4594" /></linearGradient><linearGradient
       inkscape:collect="always"
       id="linearGradient3208"><stop
         style="stop-color:#1e74ee;stop-opacity:1;"
         offset="0"
         id="stop3204" /><stop
         style="stop-color:#1b9df3;stop-opacity:1;"
         offset="1"
         id="stop3206" /></linearGradient><linearGradient
       gradientTransform="translate(-79.999997,-55.99997)"
       y2="322.64999"
       x2="60"
       y1="362.64999"
       x1="60"
       gradientUnits="userSpaceOnUse"
       id="linearGradient6625-7"
       xlink:href="#linearGradient4846"
       inkscape:collect="always" /><linearGradient
       inkscape:collect="always"
       id="linearGradient4846"><stop
         style="stop-color:#e4efef;stop-opacity:1"
         offset="0"
         id="stop4842" /><stop
         style="stop-color:#fcfcfc;stop-opacity:1"
         offset="1"
         id="stop4844" /></linearGradient><style
       id="current-color-scheme"
       type="text/css">
      .ColorScheme-Text {
        color:#122036;
      }
      </style><style
       id="current-color-scheme-2"
       type="text/css">
      .ColorScheme-Text {
        color:#122036;
      }
      </style><style
       id="current-color-scheme-0"
       type="text/css">
      .ColorScheme-Text {
        color:#122036;
      }
      </style><linearGradient
       inkscape:collect="always"
       xlink:href="#linearGradient3208"
       id="linearGradient3210"
       x1="-21"
       y1="308.65018"
       x2="-21"
       y2="286.65018"
       gradientUnits="userSpaceOnUse" /><linearGradient
       inkscape:collect="always"
       xlink:href="#linearGradient4596"
       id="linearGradient4598"
       x1="-8"
       y1="308.65018"
       x2="-8"
       y2="286.65018"
       gradientUnits="userSpaceOnUse" /></defs><sodipodi:namedview
     id="base"
     pagecolor="#ffffff"
     bordercolor="#666666"
     borderopacity="1.0"
     inkscape:pageopacity="0.0"
     inkscape:pageshadow="2"
     inkscape:zoom="45.254834"
     inkscape:cx="35.012834"
     inkscape:cy="34.493553"
     inkscape:document-units="px"
     inkscape:current-layer="g2217"
     showgrid="true"
     units="px"
     inkscape:window-width="2560"
     inkscape:window-height="1363"
     inkscape:window-x="0"
     inkscape:window-y="0"
     inkscape:window-maximized="1"
     objecttolerance="10"
     gridtolerance="10"
     guidetolerance="10"
     inkscape:snap-bbox="true"
     inkscape:bbox-paths="true"
     inkscape:bbox-nodes="true"
     inkscape:snap-bbox-edge-midpoints="true"
     inkscape:snap-bbox-midpoints="true"
     inkscape:object-paths="true"
     inkscape:snap-intersection-paths="true"
     inkscape:showpageshadow="2"
     inkscape:pagecheckerboard="0"
     inkscape:deskcolor="#d1d1d1"><inkscape:grid
       type="xygrid"
       id="grid7897"
       empspacing="4" /></sodipodi:namedview><metadata
     id="metadata5"><rdf:RDF><cc:Work
         rdf:about=""><dc:format>image/svg+xml</dc:format><dc:type
           rdf:resource="http://purl.org/dc/dcmitype/StillImage" /><dc:title>Antu icon Theme</dc:title></cc:Work></rdf:RDF></metadata><g
     inkscape:label="Capa 1"
     inkscape:groupmode="layer"
     id="layer1"
     transform="translate(0,-266.64999)"><g
       id="g8745"
       transform="translate(44,4)"><path
         inkscape:connector-curvature="0"
         id="rect6397-1"
         d="m -36,264.64999 h 32 c 1.662,0 3,1.33798 3,3 v 38 c 0,1.66197 -1.338,3 -3,3 h -32 c -1.661998,0 -3,-1.33803 -3,-3 v -38 c 0,-1.66202 1.338002,-3 3,-3 z"
         style="opacity:1;vector-effect:none;fill:#90a4ae;fill-opacity:1;stroke:none;stroke-width:6;stroke-linecap:square;stroke-linejoin:round;stroke-miterlimit:18;stroke-dasharray:none;stroke-dashoffset:0;stroke-opacity:1;paint-order:markers stroke fill" /><path
         sodipodi:nodetypes="sssssssss"
         inkscape:connector-curvature="0"
         id="rect6399-4"
         d="m -36,265.64999 h 32 c 1.108001,0 2,0.892 2,2.00001 v 38.00001 c 0,1.10797 -0.891999,1.99997 -2,1.99997 h -32 c -1.107998,0 -2,-0.892 -2,-1.99997 V 267.65 c 0,-1.10801 0.892002,-2.00001 2,-2.00001 z"
         style="opacity:1;vector-effect:none;fill:url(#linearGradient6625-7);fill-opacity:1.0;stroke:none;stroke-width:6;stroke-linecap:square;stroke-linejoin:round;stroke-miterlimit:18;stroke-dasharray:none;stroke-dashoffset:0;stroke-opacity:1;paint-order:markers stroke fill" /></g><g
       transform="matrix(1.5,0,0,1.5,34,-160.32499)"
       id="layer1-6"
       inkscape:label="Capa 1"><g
         transform="translate(84,-4)"
         id="g5329" /></g><g
       id="g2217"
       transform="translate(30.000001,16.999985)"><g
         id="g4540"
         transform="translate(-35.999991,-39.999995)"
         style="fill:#d6dbdb;fill-opacity:1"><g
           id="g2779"
           transform="translate(-120,53.000015)"
           style="fill:#d6dbdb;fill-opacity:1"><path
             id="rect850-5-9-7-9-7-0-4-4"
             style="fill:#d6dbdb;fill-opacity:1;stroke-width:1.2;stroke-linecap:round;stroke-linejoin:round;stroke-miterlimit:1.8;paint-order:stroke fill markers;stop-color:#000000"
             d="m 135,239.64999 v 3 h 3 v -3 z m 3,3 v 3 h 3 v -3 z m 3,0 h 3 v -3 h -3 z m 3,0 v 3 h 3 v -3 z m 3,0 h 3 v -3 h -3 z m 3,0 v 3 h 3 v -3 z m 3,0 h 3 v -3 h -3 z m 3,0 v 3 h 3 v -3 z m 3,0 h 3 v -3 h -3 z m 3,0 v 3 h 3 v -3 z m 3,0 h 1.5 1.5 v -1.5 c 0,-0.83099 -0.669,-1.5 -1.5,-1.5 H 165 v 1.5 z m 0,3 v 3 h 3 v -3 z m 0,3 h -3 v 3 h 3 z m 0,3 v 3 h 3 v -3 z m 0,3 h -3 v 3 h 3 z m 0,3 v 3 h 3 v -3 z m 0,3 h -3 v 3 h 3 z m 0,3 v 2.99999 h 3 v -3 z m 0,2.99999 h -3 v 3 h 3 z m 0,3 v 3 h 3 v -3 z m 0,3 h -3 v 3 h 3 z m 0,3 v 3 h 3 v -3 z m 0,3 h -3 v 3 h 3 z m -3,0 v -3 h -3 v 3 z m -3,0 h -3 v 3 h 3 z m -3,0 v -3 h -3 v 3 z m -3,0 h -3 v 3 h 3 z m -3,0 v -3 h -3 v 3 z m -3,0 h -3 v 3 h 3 z m -3,0 v -3 h -3 v 3 z m -3,0 h -3 v 3 h 3 z m -3,0 v -3 h -3 v 3 z m -3,0 h -1.5 -1.5 v 1.5 c 0,0.83099 0.669,1.5 1.5,1.5 h 1.5 v -1.5 z m 0,-3 v -3 h -3 v 3 z m 0,-3 h 3 v -3 h -3 z m 0,-3 v -3 h -3 v 3 z m 0,-3 h 3 v -3 h -3 z m 0,-3 v -3 h -3 v 3 z m 0,-3 h 3 v -3 h -3 z m 0,-3 v -3 h -3 v 3 z m 0,-3 h 3 v -3 h -3 z m 0,-3 v -3 h -3 v 3 z m 0,-3 h 3 v -3 h -3 z m 0,-3 v -3 h -3 v 3 z m 3,3 v 3 h 3 v -3 z m 3,0 h 3 v -3 h -3 z m 3,0 v 3 h 3 v -3 z m 3,0 h 3 v -3 h -3 z m 3,0 v 3 h 3 v -3 z m 3,0 h 3 v -3 h -3 z m 3,0 v 3 h 3 v -3 z m 3,0 h 3 v -3 h -3 z m 0,3 v 3 h 3 v -3 z m 0,3 h -3 v 3 h 3 z m 0,3 v 3 h 3 v -3 z m 0,3 h -3 v 3 h 3 z m 0,3 v 3 h 3 v -3 z m 0,3 h -3 v 3 h 3 z m 0,3 v 3 h 3 v -3 z m 0,3 h -3 v 3 h 3 z m -3,0 v -3 h -3 v 3 z m -3,0 h -3 v 3 h 3 z m -3,0 v -3 h -3 v 3 z m -3,0 h -3 v 3 h 3 z m -3,0 v -3 h -3 v 3 z m -3,0 h -3 v 3 h 3 z m 0,-3 v -3 h -3 v 3 z m 0,-3 h 3 v -3 h -3 z m 0,-3 v -3 h -3 v 3 z m 0,-3 h 3 v -3 h -3 z m 0,-3 v -3 h -3 v 3 z m 0,-3 h 3 v -3 h -3 z m 3,0 v 3 h 3 v -3 z m 3,0 h 3 v -3 h -3 z m 3,0 v 3 h 3 v -3 z m 3,0 h 3 v -3 h -3 z m 0,3 v 3 h 3 v -3 z m 0,3 h -3 v 3 h 3 z m 0,3 v 3 h 3 v -3 z m 0,3 h -3 v 3 h 3 z m -3,0 v -3 h -3 v 3 z m -3,0 h -3 v 3 h 3 z m 0,-3 v -3 h -3 v 3 z m 0,-3 h 3 v -3 h -3 z" /></g></g><g
         inkscape:label="Capa 1"
         id="layer1-6-9"
         transform="translate(-22.000001,-25.000185)"><g
           id="g945"
           transform="translate(1.9955523,7)" /><g
           id="g3363"
           transform="translate(13,20)"><g
             id="g2777"
             transform="translate(18,-19)"><rect
               style="fill:#c4d3d5;fill-opacity:1;stroke-width:52;stroke-linecap:round;stroke-linejoin:round;stroke-miterlimit:1.8;paint-order:stroke fill markers;stop-color:#000000"
               id="rect1574-2"
               width="26"
               height="26"
               x="-28"
               y="285.65018"
               ry="2" /><rect
               style="opacity:1;fill:#0b50b5;fill-opacity:1;stroke-width:52;stroke-linecap:round;stroke-linejoin:round;stroke-miterlimit:1.8;paint-order:stroke fill markers;stop-color:#000000"
               id="rect1574"
               width="26"
               height="26"
               x="-28"
               y="284.64999"
               ry="2" /><path
               id="rect2096"
               style="opacity:1;fill:url(#linearGradient3210);stroke-width:2;stroke-linecap:round;stroke-linejoin:round;stroke-miterlimit:1.8;paint-order:stroke fill markers;stop-color:#000000;fill-opacity:1"
               d="m -26,285.64999 h 22 c 0.554,0 1,0.446 1,1 v 22 c 0,0.554 -0.446,1 -1,1 h -22 c -0.554,0 -1,-0.446 -1,-1 v -22 c 0,-0.554 0.446,-1 1,-1 z" /><g
               id="rect2096-6"><path
                 style="color:#000000;fill:#acb8c3;fill-opacity:1;stroke-linecap:round;stroke-linejoin:round;stroke-miterlimit:1.8;paint-order:stroke fill markers"
                 d="m -12.845703,284.64999 c -0.335779,2.4e-4 -0.649028,0.16897 -0.833984,0.44922 -2.472691,3.75166 -3.956712,8.51846 -4.164063,12.49805 -0.0011,0.0175 -0.0018,0.0351 -0.002,0.0527 0,0.83333 0.564221,1.52528 1.052734,1.76953 0.488514,0.24426 0.947266,0.23047 0.947266,0.23047 h 2 c 0.169745,0 -0.02455,-0.0648 -0.01953,-0.0547 0.005,0.0101 0.01953,0.0508 0.01953,0.0508 -2e-6,4e-5 2e-6,0.004 0,0.004 -0.0039,0.0731 -0.325812,6.23871 1.052734,10.32031 0.137414,0.4062 0.518495,0.6796 0.947313,0.67962 L -4,310.65039 c 1.0907017,6e-5 2,-0.9093 2,-2 v -22 c 0,-1.0907 -0.9092983,-1.99995 -2,-2 z m 0.621094,2 8.224609,4e-4 v 22 l -7,-4e-4 c -0.943159,-3.47238 -0.845703,-8.95898 -0.845703,-8.95898 2.29e-4,-0.0124 2.29e-4,-0.0247 0,-0.0371 0,0 0.01554,-0.45929 -0.228516,-0.94922 -0.244057,-0.48993 -0.93753,-1.05469 -1.771484,-1.05469 h -1.992187 c 0.187331,-3.40738 1.534236,-7.66611 3.613281,-11 z"
                 id="path2358"
                 sodipodi:nodetypes="ccccccscccccsssscccccccssccc" /><path
                 style="color:#000000;fill:url(#linearGradient4598);stroke-width:2;stroke-linecap:round;stroke-linejoin:round;stroke-miterlimit:1.8;paint-order:stroke fill markers;fill-opacity:1"
                 d="M -12.845703,285.64959 -4,285.64999 c 0.554,3e-5 1,0.446 1,1 v 22 c 0,0.554 -0.446,1.00003 -1,1 l -7.845703,-4e-4 c -1.2652,-3.74601 -1,-10 -1,-10 0,0 0.0037,-1 -1,-1 h -2 c 0,0 -1,0 -1,-1 0.196291,-3.76732 1.643359,-8.42441 4,-12 z"
                 id="path2360"
                 sodipodi:nodetypes="cssssccsccc" /></g></g><path
             style="color:#000000;font-style:normal;font-variant:normal;font-weight:normal;font-stretch:normal;font-size:medium;line-height:normal;font-family:sans-serif;font-variant-ligatures:normal;font-variant-position:normal;font-variant-caps:normal;font-variant-numeric:normal;font-variant-alternates:normal;font-feature-settings:normal;text-indent:0;text-align:start;text-decoration:none;text-decoration-line:none;text-decoration-style:solid;text-decoration-color:#000000;letter-spacing:normal;word-spacing:normal;text-transform:none;writing-mode:lr-tb;direction:ltr;text-orientation:mixed;dominant-baseline:auto;baseline-shift:baseline;text-anchor:start;white-space:normal;shape-padding:0;clip-rule:nonzero;display:inline;overflow:visible;visibility:visible;isolation:auto;mix-blend-mode:normal;color-interpolation:sRGB;color-interpolation-filters:linearRGB;solid-color:#000000;solid-opacity:1;fill:#293949;fill-opacity:1;fill-rule:nonzero;stroke:none;stroke-width:1.0263;stroke-linecap:round;stroke-linejoin:round;stroke-miterlimit:4;stroke-dasharray:none;stroke-dashoffset:0;stroke-opacity:1;color-rendering:auto;image-rendering:auto;shape-rendering:auto;text-rendering:auto;enable-background:accumulate"
             d="m 11.484789,281.62598 c -0.179522,10e-4 -0.345432,0.0959 -0.4375,0.25 -1.596339,2.42647 -4.30637,3.74593 -8.059008,3.7461 -3.752637,1.7e-4 -6.454117,-1.32012 -8.0405935,-3.7461 -0.093805,-0.14786 -0.2565307,-0.2377 -0.4316406,-0.23828 -0.4126979,-0.002 -0.6590075,0.45897 -0.4277344,0.80078 1.8831257,2.8796 4.9128555,4.21112 8.8999685,4.21094 3.987114,-1.8e-4 7.023235,-1.33324 8.91643,-4.21094 0.244599,-0.34067 -5.39e-4,-0.81499 -0.419922,-0.8125 z"
             id="path966"
             inkscape:connector-curvature="0"
             sodipodi:nodetypes="ccscccscc" /><path
             id="rect2975"
             style="opacity:1;fill:#293949;stroke-linecap:round;stroke-linejoin:round;stroke-miterlimit:1.8;paint-order:stroke fill markers;stop-color:#000000;fill-opacity:1"
             d="m -3.5,272.65018 c 0.277,0 0.5,0.223 0.5,0.5 v 2.00001 c 0,0.277 -0.223,0.5 -0.5,0.5 -0.277,0 -0.5,-0.223 -0.5,-0.5 v -2.00001 c 0,-0.277 0.223,-0.5 0.5,-0.5 z" /><path
             id="rect3443"
             style="opacity:1;fill:#293949;stroke-linecap:round;stroke-linejoin:round;stroke-miterlimit:1.8;paint-order:stroke fill markers;stop-color:#000000;fill-opacity:1"
             d="m 9.5,272.65018 c 0.277,0 0.5,0.223 0.5,0.5 v 2 c 0,0.277 -0.223,0.5 -0.5,0.5 -0.277,0 -0.5,-0.223 -0.5,-0.5 v -2 c 0,-0.277 0.223,-0.5 0.5,-0.5 z" /></g></g></g></g></svg>
