<?xml version="1.0" encoding="UTF-8" standalone="no"?>
<!-- Created with Inkscape (http://www.inkscape.org/) -->

<svg
   width="48"
   height="48"
   viewBox="0 0 48 48"
   version="1.1"
   id="svg8"
   inkscape:version="1.2.2 (b0a8486541, 2022-12-01)"
   sodipodi:docname="application-x-theme.svg"
   xml:space="preserve"
   xmlns:inkscape="http://www.inkscape.org/namespaces/inkscape"
   xmlns:sodipodi="http://sodipodi.sourceforge.net/DTD/sodipodi-0.dtd"
   xmlns:xlink="http://www.w3.org/1999/xlink"
   xmlns="http://www.w3.org/2000/svg"
   xmlns:svg="http://www.w3.org/2000/svg"
   xmlns:rdf="http://www.w3.org/1999/02/22-rdf-syntax-ns#"
   xmlns:cc="http://creativecommons.org/ns#"
   xmlns:dc="http://purl.org/dc/elements/1.1/"><title
     id="title7895">Antu icon Theme</title><defs
     id="defs2"><linearGradient
       inkscape:collect="always"
       id="linearGradient4159"><stop
         style="stop-color:#f1efea;stop-opacity:1;"
         offset="0"
         id="stop4155" /><stop
         style="stop-color:#fcfcfc;stop-opacity:1;"
         offset="1"
         id="stop4157" /></linearGradient><linearGradient
       inkscape:collect="always"
       id="linearGradient2960"><stop
         style="stop-color:#1c9bf5;stop-opacity:1;"
         offset="0"
         id="stop2956" /><stop
         style="stop-color:#1fb5f9;stop-opacity:1;"
         offset="1"
         id="stop2958" /></linearGradient><style
       id="current-color-scheme"
       type="text/css">
      .ColorScheme-Text {
        color:#122036;
      }
      </style><style
       id="current-color-scheme-2"
       type="text/css">
      .ColorScheme-Text {
        color:#122036;
      }
      </style><style
       id="current-color-scheme-0"
       type="text/css">
      .ColorScheme-Text {
        color:#122036;
      }
      </style><linearGradient
       inkscape:collect="always"
       xlink:href="#linearGradient2960"
       id="linearGradient2962"
       x1="24"
       y1="329.64999"
       x2="24"
       y2="287.64999"
       gradientUnits="userSpaceOnUse"
       gradientTransform="translate(-39.000001,-34.999995)" /><linearGradient
       inkscape:collect="always"
       xlink:href="#linearGradient4159"
       id="linearGradient4161"
       x1="42"
       y1="328.64999"
       x2="42"
       y2="289.64999"
       gradientUnits="userSpaceOnUse"
       gradientTransform="translate(-39.000001,-34.999995)" /></defs><sodipodi:namedview
     id="base"
     pagecolor="#ffffff"
     bordercolor="#666666"
     borderopacity="1.0"
     inkscape:pageopacity="0.0"
     inkscape:pageshadow="2"
     inkscape:zoom="16.000001"
     inkscape:cx="7.6874997"
     inkscape:cy="33.249999"
     inkscape:document-units="px"
     inkscape:current-layer="g2217"
     showgrid="true"
     units="px"
     inkscape:window-width="2560"
     inkscape:window-height="1363"
     inkscape:window-x="0"
     inkscape:window-y="0"
     inkscape:window-maximized="1"
     objecttolerance="10"
     gridtolerance="10"
     guidetolerance="10"
     inkscape:snap-bbox="true"
     inkscape:bbox-paths="true"
     inkscape:bbox-nodes="true"
     inkscape:snap-bbox-edge-midpoints="true"
     inkscape:snap-bbox-midpoints="true"
     inkscape:object-paths="true"
     inkscape:snap-intersection-paths="true"
     inkscape:showpageshadow="2"
     inkscape:pagecheckerboard="0"
     inkscape:deskcolor="#d1d1d1"><inkscape:grid
       type="xygrid"
       id="grid7897"
       empspacing="4" /></sodipodi:namedview><metadata
     id="metadata5"><rdf:RDF><cc:Work
         rdf:about=""><dc:format>image/svg+xml</dc:format><dc:type
           rdf:resource="http://purl.org/dc/dcmitype/StillImage" /><dc:title>Antu icon Theme</dc:title></cc:Work></rdf:RDF></metadata><g
     inkscape:label="Capa 1"
     inkscape:groupmode="layer"
     id="layer1"
     transform="translate(0,-266.64999)"><g
       id="g2217"
       transform="translate(30.000001,16.999985)"><path
         id="rect6397-1-9-0-3-4"
         style="fill:#90a4ae;fill-opacity:1;stroke:none;stroke-width:6;stroke-linecap:square;stroke-linejoin:round;stroke-miterlimit:18;stroke-dasharray:none;stroke-dashoffset:0;stroke-opacity:1;paint-order:markers stroke fill"
         d="m -6.000001,251.65 v 44 h 16 c 1.662,0 3,-1.338 3,-3 v -38 c 0,-1.66201 -1.338,-3 -3,-3 z" /><path
         id="path22523"
         style="fill:#1568b4;fill-opacity:1;stroke:none;stroke-width:6;stroke-linecap:square;stroke-linejoin:round;stroke-miterlimit:18;stroke-dasharray:none;stroke-dashoffset:0;stroke-opacity:1;paint-order:markers stroke fill"
         d="m -22.000001,251.65 c -1.66199,-1e-5 -3,1.338 -3,3 v 38 c 0,1.662 1.33801,3 3,3 h 16 v -44 z" /><path
         id="rect6399-4-3-2-7-4"
         style="fill:url(#linearGradient2962);fill-opacity:1;stroke:none;stroke-width:6;stroke-linecap:square;stroke-linejoin:round;stroke-miterlimit:18;stroke-dasharray:none;stroke-dashoffset:0;stroke-opacity:1;paint-order:markers stroke fill"
         d="m -6.000001,252.65 h -16 c -1.10799,-1e-5 -2,0.892 -2,2 v 38 c 0,1.108 0.89201,2 2,2 h 16 z" /><path
         id="path22865"
         style="fill:url(#linearGradient4161);fill-opacity:1;stroke:none;stroke-width:6;stroke-linecap:square;stroke-linejoin:round;stroke-miterlimit:18;stroke-dasharray:none;stroke-dashoffset:0;stroke-opacity:1;paint-order:markers stroke fill"
         d="m -6.000001,252.65 v 42 h 16 c 1.108,0 2,-0.892 2,-2 v -38 c 0,-1.10801 -0.892,-2 -2,-2 z" /><path
         id="rect850-5-9-7-9-7-0-4-4-1-0-3"
         style="fill:#ffffff;fill-opacity:0.2;stroke-width:1.2;stroke-linecap:round;stroke-linejoin:round;stroke-miterlimit:1.8;paint-order:stroke fill markers;stop-color:#000000"
         d="m -21.000001,252.65 v 3 h 3 v -3 z m 3,3 v 3 h 3 v -3 z m 3,0 h 3 v -3 h -3 z m 3,0 v 3 h 3 v -3 z m 3,0 h 3 v -3 h -3 z m 0,3 v 3 h 3 v -3 z m 0,3 h -3 v 3 h 3 z m 0,3 v 3 h 3 v -3 z m 0,3 h -3 v 3 h 3 z m 0,3 v 3 h 3 v -3 z m 0,3 h -3 v 3 h 3 z m 0,3 v 3 h 3 v -3 z m -3,0 h -3 v 3 h 3 z m -3,3 h -3 v 3 h 3 z m 0,3 v 3 h 3 v -3 z m 3,3 v 3 h 3 v -3 z m 3,0 h 3 v -3 h -3 z m 0,3 v 3 h 3 v -3 z m 0,3 h -3 v 3 h 3 z m -3,0 v -3 h -3 v 3 z m -3,0 h -3 v 3 h 3 z m -3,0 v -3 h -3 v 3 z m -3,0 h -1.5 -1.5 v 1.5 c 0,0.831 0.669001,1.5 1.5,1.5 h 1.5 v -1.5 z m 0,-3 v -3 h -3 v 3 z m 0,-3 h 3 v -3 h -3 z m 0,-3 v -3 h -3 v 3 z m 0,-3 h 3 v -3 h -3 z m 0,-3 v -3 h -3 v 3 z m 0,-3 h 3 v -3 h -3 z m 0,-3 v -3 h -3 v 3 z m 0,-3 h 3 v -3 h -3 z m 0,-3 v -3 h -3 v 3 z m 0,-3 h 3 v -3 h -3 z m 0,-3 v -3 h -3 v 3 z m 3,3 v 3 h 3 v -3 z m 3,0 h 3 v -3 h -3 z m 0,3 v 3 h 3 v -3 z m 0,3 h -3 v 3 h 3 z m -3,6 v 3 h 3 v -3 z m 0,12 v 3 h 3 v -3 z" /><path
         id="path22699"
         style="fill:#44acff;fill-opacity:1;stroke-width:1.2;stroke-linecap:round;stroke-linejoin:round;stroke-miterlimit:1.8;paint-order:stroke fill markers;stop-color:#000000"
         d="m -9.000001,279.65 h -3 v 3 h 3 z" /><path
         id="path22695"
         style="fill:#d6dbdb;fill-opacity:1;stroke-width:1.2;stroke-linecap:round;stroke-linejoin:round;stroke-miterlimit:1.8;paint-order:stroke fill markers;stop-color:#000000"
         d="m -3.000001,252.65 v 3 h 3 v -3 z m 3,3 v 3 h 3 v -3 z m 3,0 h 3 v -3 h -3 z m 3,0 v 3 h 3 v -3 z m 3,0 h 1.5 1.5 v -1.5 c 0,-0.831 -0.669001,-1.5 -1.5,-1.5 h -1.5 v 1.5 z m 0,3 v 3 h 3 v -3 z m 0,3 h -3 v 3 h 3 z m 0,3 v 3 h 3 v -3 z m 0,3 h -3 v 3 h 3 z m 0,3 v 3 h 3 v -3 z m 0,3 h -3 v 3 h 3 z m 0,3 v 3 h 3 v -3 z m 0,3 h -3 v 3 h 3 z m 0,3 v 3 h 3 v -3 z m 0,3 h -3 v 3 h 3 z m 0,3 v 3 h 3 v -3 z m 0,3 h -3 v 3 h 3 z m -3,0 v -3 h -3 v 3 z m -3,0 h -3 v 3 h 3 z m -3,0 v -3 h -3 v 3 z m -3,0 h -3 v 3 h 3 z m 0,-3 v -3 h -3 v 3 z m 0,-3 h 3 v -3 h -3 z m 0,-3 v -3 h -3 v 3 z m 0,-3 h 3 v -3 h -3 z m 0,-3 v -3 h -3 v 3 z m 0,-3 h 3 v -3 h -3 z m 0,-3 v -3 h -3 v 3 z m 0,-3 h 3 v -3 h -3 z m 3,-3 h 3 v -3 h -3 z m 0,-3 v -3 h -3 v 3 z m -3,-3 v -3 h -3 v 3 z m 6,3 h 3 v -3 h -3 z m 0,3 v 3 h 3 v -3 z m 0,3 h -3 v 3 h 3 z m 0,3 v 3 h 3 v -3 z m 0,3 h -3 v 3 h 3 z m 0,3 v 3 h 3 v -3 z m 0,3 h -3 v 3 h 3 z m 0,3 v 3 h 3 v -3 z m 0,3 h -3 v 3 h 3 z" /><path
         id="path22671"
         style="fill:#44acff;fill-opacity:1;stroke-width:1.2;stroke-linecap:round;stroke-linejoin:round;stroke-miterlimit:1.8;paint-order:stroke fill markers;stop-color:#000000"
         d="m -15.000001,273.65 h 3 v -3 h -3 z" /><path
         id="path22629"
         style="fill:#fafafa;fill-opacity:1;stroke-width:1.2;stroke-linecap:round;stroke-linejoin:round;stroke-miterlimit:1.8;paint-order:stroke fill markers;stop-color:#000000"
         d="m -6.000001,261.65 v 3 h 3 v -3 z" /><path
         id="path57822-0-9"
         style="fill:#000000;fill-opacity:0.10357144;stroke:none;stroke-width:2;stroke-linecap:round;stroke-linejoin:round;stroke-miterlimit:1.8;stroke-opacity:1;paint-order:stroke fill markers;stop-color:#000000"
         d="m -3.000001,262.64999 -3,3 5,5.00001 -5,4.99997 3,3 8,-7.99997 z m -9.05273,2.00001 c -1.08388,0.0265 -1.94727,0.90932 -1.94727,1.99997 0,1.10801 0.892,2.00002 2,2.00002 1.108,0 2,-0.89201 2,-2.00002 0,-1.10796 -0.892,-1.99997 -2,-1.99997 -0.0173,0 -0.0355,-4.5e-4 -0.0527,0 z m -1.94727,6 c -1.662,0 -3,1.33799 -3,3 0,1.66197 1.338,3 3,3 1.662,0 3,-1.33803 3,-3 0,-1.66201 -1.338,-3 -3,-3 z m 4,6.99999 c -2.216,0 -4,1.78402 -4,3.99998 0,2.21602 1.784,4.00003 4,4.00003 2.216,0 4,-1.78401 4,-4.00003 0,-2.21597 -1.784,-3.99998 -4,-3.99998 z" /><path
         id="path57822-0"
         style="fill:#3d434a;fill-opacity:1;stroke:none;stroke-width:2;stroke-linecap:round;stroke-linejoin:round;stroke-miterlimit:1.8;stroke-opacity:1;paint-order:stroke fill markers;stop-color:#000000"
         d="m -3.000001,261.64999 -3,3 5,5.00001 -5,4.99999 3,3 8,-7.99999 z m -9.05273,2.00001 c -1.08388,0.0265 -1.94727,0.90932 -1.94727,1.99999 0,1.10799 0.892,2 2,2 1.108,0 2,-0.89201 2,-2 0,-1.10798 -0.892,-1.99999 -2,-1.99999 -0.0173,0 -0.0355,-4.5e-4 -0.0527,0 z m -1.94727,6 c -1.662,0 -3,1.33799 -3,3 0,1.66197 1.338,3 3,3 1.662,0 3,-1.33803 3,-3 0,-1.66201 -1.338,-3 -3,-3 z m 4,6.99999 c -2.216,0 -4,1.78404 -4,4 0,2.216 1.784,4.00002 4,4.00002 2.216,0 4,-1.78402 4,-4.00002 0,-2.21598 -1.784,-4 -4,-4 z" /></g></g></svg>
