<?xml version="1.0" encoding="UTF-8" standalone="no"?>
<!-- Created with Inkscape (http://www.inkscape.org/) -->

<svg
   width="48"
   height="48"
   viewBox="0 0 48 48"
   version="1.1"
   id="svg8"
   inkscape:version="1.2.2 (b0a8486541, 2022-12-01)"
   sodipodi:docname="application-vnd.oasis.opendocument.database.svg"
   xml:space="preserve"
   xmlns:inkscape="http://www.inkscape.org/namespaces/inkscape"
   xmlns:sodipodi="http://sodipodi.sourceforge.net/DTD/sodipodi-0.dtd"
   xmlns:xlink="http://www.w3.org/1999/xlink"
   xmlns="http://www.w3.org/2000/svg"
   xmlns:svg="http://www.w3.org/2000/svg"
   xmlns:rdf="http://www.w3.org/1999/02/22-rdf-syntax-ns#"
   xmlns:cc="http://creativecommons.org/ns#"
   xmlns:dc="http://purl.org/dc/elements/1.1/"><title
     id="title7895">Antu icon Theme</title><defs
     id="defs2"><linearGradient
       inkscape:collect="always"
       id="linearGradient950"><stop
         style="stop-color:#a065a6;stop-opacity:1;"
         offset="0"
         id="stop946" /><stop
         style="stop-color:#bc83bf;stop-opacity:1;"
         offset="1"
         id="stop948" /></linearGradient><style
       id="current-color-scheme"
       type="text/css">
      .ColorScheme-Text {
        color:#122036;
      }
      </style><style
       id="current-color-scheme-2"
       type="text/css">
      .ColorScheme-Text {
        color:#122036;
      }
      </style><style
       id="current-color-scheme-0"
       type="text/css">
      .ColorScheme-Text {
        color:#122036;
      }
      </style><linearGradient
       inkscape:collect="always"
       xlink:href="#linearGradient950"
       id="linearGradient952"
       x1="-6.000001"
       y1="292.64999"
       x2="-6.000001"
       y2="254.65001"
       gradientUnits="userSpaceOnUse" /></defs><sodipodi:namedview
     id="base"
     pagecolor="#ffffff"
     bordercolor="#666666"
     borderopacity="1.0"
     inkscape:pageopacity="0.0"
     inkscape:pageshadow="2"
     inkscape:zoom="22.627418"
     inkscape:cx="16.064581"
     inkscape:cy="36.54858"
     inkscape:document-units="px"
     inkscape:current-layer="g2217"
     showgrid="true"
     units="px"
     inkscape:window-width="2560"
     inkscape:window-height="1363"
     inkscape:window-x="0"
     inkscape:window-y="0"
     inkscape:window-maximized="1"
     objecttolerance="10"
     gridtolerance="10"
     guidetolerance="10"
     inkscape:snap-bbox="true"
     inkscape:bbox-paths="true"
     inkscape:bbox-nodes="true"
     inkscape:snap-bbox-edge-midpoints="true"
     inkscape:snap-bbox-midpoints="true"
     inkscape:object-paths="true"
     inkscape:snap-intersection-paths="true"
     inkscape:showpageshadow="2"
     inkscape:pagecheckerboard="0"
     inkscape:deskcolor="#d1d1d1"><inkscape:grid
       type="xygrid"
       id="grid7897"
       empspacing="4" /></sodipodi:namedview><metadata
     id="metadata5"><rdf:RDF><cc:Work
         rdf:about=""><dc:format>image/svg+xml</dc:format><dc:type
           rdf:resource="http://purl.org/dc/dcmitype/StillImage" /><dc:title>Antu icon Theme</dc:title></cc:Work></rdf:RDF></metadata><g
     inkscape:label="Capa 1"
     inkscape:groupmode="layer"
     id="layer1"
     transform="translate(0,-266.64999)"><g
       id="g2217"
       transform="translate(30.000001,16.999985)"><g
         id="g8973"><path
           style="fill:#8631a6;fill-opacity:1;stroke:none;stroke-width:6;stroke-linecap:square;stroke-linejoin:round;stroke-miterlimit:18;stroke-dasharray:none;stroke-dashoffset:0;stroke-opacity:1;paint-order:markers stroke fill"
           d="m -22.000001,251.65 h 32 c 1.662,0 3,1.33797 3,3 v 38 c 0,1.66197 -1.338,3 -3,3 h -32 c -1.662,0 -3,-1.33803 -3,-3 v -38 c 0,-1.66203 1.338,-3 3,-3 z"
           id="rect6397-1-7"
           inkscape:connector-curvature="0" /><path
           style="fill:url(#linearGradient952);fill-opacity:1;stroke:none;stroke-width:6;stroke-linecap:square;stroke-linejoin:round;stroke-miterlimit:18;stroke-dasharray:none;stroke-dashoffset:0;stroke-opacity:1;paint-order:markers stroke fill"
           d="m -22.000001,252.65 h 32 c 1.10799,0 2,0.892 2,2.00002 v 38.00001 c 0,1.10798 -0.89201,1.99997 -2,1.99997 h -32 c -1.108,0 -2,-0.89202 -2,-1.99997 v -38.00001 c 0,-1.10802 0.892,-2.00002 2,-2.00002 z"
           id="rect6399-4-2"
           inkscape:connector-curvature="0"
           sodipodi:nodetypes="sssssssss" /><path
           id="rect2341-9"
           d="m -18.000001,262.65 v 9 8 8 h 24 v -9 -8 h -8 v -8 z m 1,1 h 14 v 7 h -14 z m 1,1 v 5 h 12 v -5 z m -1,7 h 15 7 v 7 h -22 z m 1,1 v 5 h 20 v -5 z m -1,7 h 22 v 7 h -22 z m 1,1 v 5 h 20 v -5 z"
           style="fill:#8631a6;fill-opacity:1;stroke:none;stroke-width:2;stroke-linecap:round;stroke-linejoin:round;stroke-miterlimit:4;stroke-dasharray:none;stroke-dashoffset:0;stroke-opacity:1"
           inkscape:connector-curvature="0"
           sodipodi:nodetypes="ccccccccccccccccccccccccccccccccccccccccc" /><path
           id="rect2341-9-3"
           d="m -18.000001,261.65001 v 8.99999 8 8 h 24 v -9 -8 h -8 v -8 z m 1,1 h 14 V 269.65 h -14 z m 1,1 V 268.65 h 12 v -5 z m -1,6.99999 h 15 7 v 7 h -22 z m 1,1 v 5 h 20 v -5 z m -1,7 h 22 v 7 h -22 z m 1,1 v 5 h 20 v -5 z"
           style="fill:#f4ecf7;fill-opacity:1;stroke:none;stroke-width:2;stroke-linecap:round;stroke-linejoin:round;stroke-miterlimit:4;stroke-dasharray:none;stroke-dashoffset:0;stroke-opacity:1"
           inkscape:connector-curvature="0"
           sodipodi:nodetypes="ccccccccccccccccccccccccccccccccccccccccc" /></g></g></g></svg>
