<?xml version="1.0" encoding="UTF-8" standalone="no"?>
<!-- Created with Inkscape (http://www.inkscape.org/) -->

<svg
   width="48"
   height="48"
   viewBox="0 0 48 48"
   version="1.1"
   id="svg8"
   inkscape:version="1.2.2 (b0a8486541, 2022-12-01)"
   sodipodi:docname="audio-prs.sid.svg"
   xmlns:inkscape="http://www.inkscape.org/namespaces/inkscape"
   xmlns:sodipodi="http://sodipodi.sourceforge.net/DTD/sodipodi-0.dtd"
   xmlns:xlink="http://www.w3.org/1999/xlink"
   xmlns="http://www.w3.org/2000/svg"
   xmlns:svg="http://www.w3.org/2000/svg"
   xmlns:rdf="http://www.w3.org/1999/02/22-rdf-syntax-ns#"
   xmlns:cc="http://creativecommons.org/ns#"
   xmlns:dc="http://purl.org/dc/elements/1.1/">
  <title
     id="title7895">Antu icon Theme</title>
  <defs
     id="defs2">
    <linearGradient
       inkscape:collect="always"
       xlink:href="#linearGradient37298"
       id="linearGradient37300"
       x1="-35"
       y1="439.64999"
       x2="-35"
       y2="400.64999"
       gradientUnits="userSpaceOnUse"
       gradientTransform="translate(176,-28)" />
    <linearGradient
       inkscape:collect="always"
       id="linearGradient37298">
      <stop
         style="stop-color:#263238;stop-opacity:1;"
         offset="0"
         id="stop37294" />
      <stop
         style="stop-color:#37474f;stop-opacity:1;"
         offset="1"
         id="stop37296" />
    </linearGradient>
    <linearGradient
       inkscape:collect="always"
       xlink:href="#linearGradient27613"
       id="linearGradient27615"
       x1="103.57492"
       y1="424.64999"
       x2="103.57492"
       y2="412.64999"
       gradientUnits="userSpaceOnUse"
       gradientTransform="translate(38.42508,-16.000004)" />
    <linearGradient
       inkscape:collect="always"
       id="linearGradient27613">
      <stop
         style="stop-color:#e4efef;stop-opacity:1;"
         offset="0"
         id="stop27609" />
      <stop
         style="stop-color:#fbfbfb;stop-opacity:1;"
         offset="1"
         id="stop27611" />
    </linearGradient>
    <linearGradient
       inkscape:collect="always"
       xlink:href="#linearGradient28795"
       id="linearGradient28797"
       x1="102.57492"
       y1="418.64999"
       x2="102.57492"
       y2="412.64999"
       gradientUnits="userSpaceOnUse"
       gradientTransform="translate(38.42508,-16.000004)" />
    <linearGradient
       inkscape:collect="always"
       id="linearGradient28795">
      <stop
         style="stop-color:#262c36;stop-opacity:1;"
         offset="0"
         id="stop28791" />
      <stop
         style="stop-color:#333b49;stop-opacity:1;"
         offset="1"
         id="stop28793" />
    </linearGradient>
    <linearGradient
       inkscape:collect="always"
       xlink:href="#linearGradient31966"
       id="linearGradient31968"
       x1="-35"
       y1="416.64999"
       x2="-35"
       y2="410.64999"
       gradientUnits="userSpaceOnUse"
       gradientTransform="translate(176,-28)" />
    <linearGradient
       inkscape:collect="always"
       id="linearGradient31966">
      <stop
         style="stop-color:#ffd100;stop-opacity:1;"
         offset="0"
         id="stop31962" />
      <stop
         style="stop-color:#ffdf00;stop-opacity:1;"
         offset="1"
         id="stop31964" />
    </linearGradient>
    <linearGradient
       inkscape:collect="always"
       xlink:href="#linearGradient27613"
       id="linearGradient30842"
       x1="94.574921"
       y1="393.64999"
       x2="94.574921"
       y2="390.64999"
       gradientUnits="userSpaceOnUse"
       gradientTransform="translate(38.42508,-16.000004)" />
    <linearGradient
       inkscape:collect="always"
       xlink:href="#linearGradient33147"
       id="linearGradient33149"
       x1="-21"
       y1="412.64999"
       x2="-21"
       y2="410.64999"
       gradientUnits="userSpaceOnUse"
       gradientTransform="translate(176,-28)" />
    <linearGradient
       inkscape:collect="always"
       id="linearGradient33147">
      <stop
         style="stop-color:#34bd78;stop-opacity:1;"
         offset="0"
         id="stop33143" />
      <stop
         style="stop-color:#50cf89;stop-opacity:1;"
         offset="1"
         id="stop33145" />
    </linearGradient>
    <linearGradient
       inkscape:collect="always"
       xlink:href="#linearGradient33147"
       id="linearGradient35125"
       gradientUnits="userSpaceOnUse"
       x1="-21"
       y1="412.64999"
       x2="-21"
       y2="410.64999"
       gradientTransform="translate(176,-22)" />
    <linearGradient
       inkscape:collect="always"
       xlink:href="#linearGradient35729"
       id="linearGradient35170"
       gradientUnits="userSpaceOnUse"
       gradientTransform="translate(150,-22)"
       x1="-21"
       y1="412.64999"
       x2="-21"
       y2="410.64999" />
    <linearGradient
       inkscape:collect="always"
       id="linearGradient35729">
      <stop
         style="stop-color:#ff7549;stop-opacity:1;"
         offset="0"
         id="stop35725" />
      <stop
         style="stop-color:#ff8b60;stop-opacity:1;"
         offset="1"
         id="stop35727" />
    </linearGradient>
    <linearGradient
       inkscape:collect="always"
       xlink:href="#linearGradient35729"
       id="linearGradient37291"
       gradientUnits="userSpaceOnUse"
       gradientTransform="translate(150,-28)"
       x1="-21"
       y1="412.64999"
       x2="-21"
       y2="410.64999" />
  </defs>
  <sodipodi:namedview
     id="base"
     pagecolor="#ffffff"
     bordercolor="#666666"
     borderopacity="1.0"
     inkscape:pageopacity="0.0"
     inkscape:pageshadow="2"
     inkscape:zoom="5.6568544"
     inkscape:cx="71.506171"
     inkscape:cy="23.157746"
     inkscape:document-units="px"
     inkscape:current-layer="layer1"
     showgrid="true"
     units="px"
     inkscape:window-width="2560"
     inkscape:window-height="1353"
     inkscape:window-x="0"
     inkscape:window-y="0"
     inkscape:window-maximized="1"
     objecttolerance="10"
     gridtolerance="10"
     guidetolerance="10"
     inkscape:snap-bbox="true"
     inkscape:bbox-paths="true"
     inkscape:bbox-nodes="true"
     inkscape:snap-bbox-edge-midpoints="true"
     inkscape:snap-bbox-midpoints="true"
     inkscape:object-paths="true"
     inkscape:snap-intersection-paths="true"
     inkscape:showpageshadow="2"
     inkscape:pagecheckerboard="0"
     inkscape:deskcolor="#d1d1d1">
    <inkscape:grid
       type="xygrid"
       id="grid7897"
       empspacing="4" />
  </sodipodi:namedview>
  <metadata
     id="metadata5">
    <rdf:RDF>
      <cc:Work
         rdf:about="">
        <dc:format>image/svg+xml</dc:format>
        <dc:type
           rdf:resource="http://purl.org/dc/dcmitype/StillImage" />
        <dc:title>Antu icon Theme</dc:title>
      </cc:Work>
    </rdf:RDF>
  </metadata>
  <g
     inkscape:label="Capa 1"
     inkscape:groupmode="layer"
     id="layer1"
     transform="translate(0,-266.64999)">
    <g
       id="g38350"
       transform="translate(-118,-102)">
      <path
         inkscape:connector-curvature="0"
         id="rect6397-1-73"
         d="m 126,370.64999 h 32 c 1.662,0 3,1.33798 3,3 v 38 c 0,1.66197 -1.338,3 -3,3 h -32 c -1.662,0 -3,-1.33803 -3,-3 v -38 c 0,-1.66202 1.338,-3 3,-3 z"
         style="fill:#1a2226;fill-opacity:1;stroke:none;stroke-width:6;stroke-linecap:square;stroke-linejoin:round;stroke-miterlimit:18;stroke-dasharray:none;stroke-dashoffset:0;stroke-opacity:1;paint-order:markers stroke fill" />
      <path
         id="rect6399-4-65"
         style="fill:url(#linearGradient37300);fill-opacity:1;stroke:none;stroke-width:6;stroke-linecap:square;stroke-linejoin:round;stroke-miterlimit:18;stroke-dasharray:none;stroke-dashoffset:0;stroke-opacity:1;paint-order:markers stroke fill"
         d="m 126,371.64999 c -1.108,0 -2,0.89199 -2,2 v 38 c 0,1.10797 0.892,2 2,2 h 32 c 1.108,0 2,-0.89203 2,-2 v -38 c 0,-1.10801 -0.892,-2 -2,-2 z m 3.5,2 c 1.385,0 2.5,1.115 2.5,2.5 0,1.385 -1.115,2.5 -2.5,2.5 -1.385,0 -2.5,-1.115 -2.5,-2.5 0,-1.385 1.115,-2.5 2.5,-2.5 z m 7,0 c 1.385,0 2.5,1.115 2.5,2.5 0,1.385 -1.115,2.5 -2.5,2.5 -1.385,0 -2.5,-1.115 -2.5,-2.5 0,-1.385 1.115,-2.5 2.5,-2.5 z m 4.5,0 h 17 v 1 h -17 z m 0,2 h 17 v 1 h -17 z m 0,2 h 17 v 1 h -17 z" />
      <path
         id="rect2787-8"
         style="fill:#1a2226;fill-opacity:1;stroke-width:2;stroke-linecap:square;stroke-miterlimit:1.8;paint-order:stroke fill markers;stop-color:#000000"
         d="m 127,382.64999 v 4 h 4 v -4 z m 6,0 v 10 h 18 v -10 z m 20,0 v 4 h 4 v -4 z m -26,6 v 4 h 4 v -4 z m 26,0 v 4 h 4 v -4 z m -24,7 v 16 h 5 1 5 5 5 5 v -16 h -3 -2 -2 -2 -1 -3 -2 -3 -3 -1 z" />
      <rect
         style="fill:#50c1f9;fill-opacity:1;stroke-width:2;stroke-linecap:square;stroke-miterlimit:1.8;paint-order:stroke fill markers;stop-color:#000000"
         id="rect3694"
         width="0.99999994"
         height="0.99999994"
         x="134"
         y="388.64999" />
      <path
         id="rect2787"
         style="fill:#1a2226;fill-opacity:1;stroke-width:2;stroke-linecap:square;stroke-miterlimit:1.8;paint-order:stroke fill markers;stop-color:#000000"
         d="m 129,394.64999 v 16 h 5 1 5 5 5 5 v -16 h -5 -5 -5 -5 -1 z" />
      <path
         id="rect2789"
         style="fill:url(#linearGradient27615);fill-opacity:1;stroke-width:2;stroke-linecap:square;stroke-miterlimit:1.8;paint-order:stroke fill markers;stop-color:#000000"
         d="m 130,395.64999 v 14 h 4 v -14 z m 5,0 v 14 h 4 v -14 z m 5,0 v 14 h 4 v -14 z m 5,0 v 14 h 4 v -14 z m 5,0 v 14 h 4 v -14 z" />
      <path
         id="rect3073"
         style="fill:#1a2226;fill-opacity:1;stroke-width:2;stroke-linecap:square;stroke-miterlimit:1.8;paint-order:stroke fill markers;stop-color:#000000"
         d="m 133,394.64999 v 9 h 4 v -9 z m 9,0 v 9 h 4 v -9 z m 6,0 v 9 h 4 v -9 z" />
      <path
         id="rect3120"
         style="fill:url(#linearGradient28797);fill-opacity:1;stroke-width:2;stroke-linecap:square;stroke-miterlimit:1.8;paint-order:stroke fill markers;stop-color:#000000"
         d="m 134,395.64999 v 7 h 2 v -7 z m 9,0 v 7 h 2 v -7 z m 6,0 v 7 h 2 v -7 z" />
      <path
         id="rect3178"
         style="fill:#f79303;fill-opacity:1;stroke-width:2;stroke-linecap:square;stroke-miterlimit:1.8;paint-order:stroke fill markers;stop-color:#000000"
         d="m 133,381.64999 h 18 v 10 h -18 z" />
      <path
         id="rect3361"
         style="fill:url(#linearGradient31968);fill-opacity:1;stroke-width:2;stroke-linecap:square;stroke-miterlimit:1.8;paint-order:stroke fill markers;stop-color:#000000"
         d="m 134,382.64999 h 16 v 8 h -16 z" />
      <path
         id="rect3512"
         style="fill:#278c5a;fill-opacity:1;stroke-width:2;stroke-linecap:square;stroke-miterlimit:1.8;paint-order:stroke fill markers;stop-color:#000000"
         d="m 153,381.64999 h 4 v 4 h -4 z" />
      <path
         id="rect3514"
         style="fill:#278c5a;fill-opacity:1;stroke-width:2;stroke-linecap:square;stroke-miterlimit:1.8;paint-order:stroke fill markers;stop-color:#000000"
         d="m 153,387.64999 h 4 v 4 h -4 z" />
      <path
         id="rect3512-2"
         style="fill:#dd4d25;fill-opacity:1;stroke-width:2;stroke-linecap:square;stroke-miterlimit:1.8;paint-order:stroke fill markers;stop-color:#000000"
         d="m 127,381.64999 h 4 v 4 h -4 z" />
      <path
         id="rect3514-0"
         style="fill:#dd4d25;fill-opacity:1;stroke-width:2;stroke-linecap:square;stroke-miterlimit:1.8;paint-order:stroke fill markers;stop-color:#000000"
         d="m 127,387.64999 h 4 v 4 h -4 z" />
      <path
         id="rect3719"
         style="fill:#714500;fill-opacity:1;stroke-width:2;stroke-linecap:square;stroke-miterlimit:1.8;paint-order:stroke fill markers;stop-color:#000000"
         d="m 139,385.64999 v 2 h -1 v 1 h -1 v -1 h -1 v 1 h -1 v 1 h -1 v 1 h 1 1 1 1 1 1 1 1 1 2 1 1 1 1 1 v -3 h -1 v 1 h -1 v 1 h -1 v -2 h -1 v -1 h -1 v 3 h -2 v -2 h -1 v 1 h -1 v 1 h -1 v -4 z" />
      <path
         id="rect3851"
         style="fill:url(#linearGradient30842);fill-opacity:1;stroke-width:2;stroke-linecap:square;stroke-miterlimit:1.8;paint-order:stroke fill markers;stop-color:#000000"
         d="m 129.5,374.64999 c -0.831,0 -1.5,0.669 -1.5,1.5 0,0.831 0.669,1.5 1.5,1.5 0.831,0 1.5,-0.669 1.5,-1.5 0,-0.831 -0.669,-1.5 -1.5,-1.5 z m 7,0 c -0.831,0 -1.5,0.669 -1.5,1.5 0,0.831 0.669,1.5 1.5,1.5 0.831,0 1.5,-0.669 1.5,-1.5 0,-0.831 -0.669,-1.5 -1.5,-1.5 z" />
      <path
         id="rect3961"
         style="fill:url(#linearGradient33149);fill-opacity:1;stroke-width:2;stroke-linecap:square;stroke-miterlimit:1.8;paint-order:stroke fill markers;stop-color:#000000"
         d="m 154,382.64999 h 2 v 2 h -2 z" />
      <path
         id="rect3961-4"
         style="fill:url(#linearGradient35125);fill-opacity:1;stroke-width:2;stroke-linecap:square;stroke-miterlimit:1.8;paint-order:stroke fill markers;stop-color:#000000"
         d="m 154,388.64999 h 2 v 2 h -2 z" />
      <path
         id="rect3961-4-5"
         style="fill:url(#linearGradient35170);fill-opacity:1;stroke-width:2;stroke-linecap:square;stroke-miterlimit:1.8;paint-order:stroke fill markers;stop-color:#000000"
         d="m 128,388.64999 h 2 v 2 h -2 z" />
      <path
         id="rect3961-4-5-9"
         style="fill:url(#linearGradient37291);fill-opacity:1;stroke-width:2;stroke-linecap:square;stroke-miterlimit:1.8;paint-order:stroke fill markers;stop-color:#000000"
         d="m 128,382.64999 h 2 v 2 h -2 z" />
    </g>
  </g>
</svg>
