<?xml version="1.0" encoding="UTF-8" standalone="no"?>
<!-- Created with Inkscape (http://www.inkscape.org/) -->

<svg
   width="48"
   height="48"
   viewBox="0 0 48 48"
   version="1.1"
   id="svg8"
   inkscape:version="1.2.2 (b0a8486541, 2022-12-01)"
   sodipodi:docname="image-svg+xml-compressed.svg"
   xml:space="preserve"
   xmlns:inkscape="http://www.inkscape.org/namespaces/inkscape"
   xmlns:sodipodi="http://sodipodi.sourceforge.net/DTD/sodipodi-0.dtd"
   xmlns:xlink="http://www.w3.org/1999/xlink"
   xmlns="http://www.w3.org/2000/svg"
   xmlns:svg="http://www.w3.org/2000/svg"
   xmlns:rdf="http://www.w3.org/1999/02/22-rdf-syntax-ns#"
   xmlns:cc="http://creativecommons.org/ns#"
   xmlns:dc="http://purl.org/dc/elements/1.1/"><title
     id="title7895">Antu icon Theme</title><defs
     id="defs2"><linearGradient
       inkscape:collect="always"
       id="linearGradient2330"><stop
         style="stop-color:#157eef;stop-opacity:1;"
         offset="0"
         id="stop2326" /><stop
         style="stop-color:#33aefa;stop-opacity:1;"
         offset="1"
         id="stop2328" /></linearGradient><style
       id="current-color-scheme"
       type="text/css">
      .ColorScheme-Text {
        color:#122036;
      }
      </style><style
       id="current-color-scheme-2"
       type="text/css">
      .ColorScheme-Text {
        color:#122036;
      }
      </style><style
       id="current-color-scheme-0"
       type="text/css">
      .ColorScheme-Text {
        color:#122036;
      }
      </style><style
       id="current-color-scheme-5"
       type="text/css">
      .ColorScheme-Text {
        color:#122036;
      }
      </style><linearGradient
       inkscape:collect="always"
       xlink:href="#linearGradient2330"
       id="linearGradient2332"
       x1="-6.000001"
       y1="294.64999"
       x2="-6.000001"
       y2="252.65001"
       gradientUnits="userSpaceOnUse" /><style
       id="current-color-scheme-53"
       type="text/css">
      .ColorScheme-Text {
        color:#122036;
      }
      </style><style
       id="current-color-scheme-2-5"
       type="text/css">
      .ColorScheme-Text {
        color:#122036;
      }
      </style><style
       id="current-color-scheme-0-6"
       type="text/css">
      .ColorScheme-Text {
        color:#122036;
      }
      </style><style
       type="text/css"
       id="current-color-scheme-535">
      .ColorScheme-Text {
        color:#122036;
      }
      </style><style
       id="current-color-scheme-5-6"
       type="text/css">
      .ColorScheme-Text {
        color:#122036;
      }
      </style><style
       id="current-color-scheme-2-29"
       type="text/css">
      .ColorScheme-Text {
        color:#122036;
      }
      </style><style
       id="current-color-scheme-1"
       type="text/css">
      .ColorScheme-Text {
        color:#122036;
      }
      </style><style
       type="text/css"
       id="current-color-scheme-10">
      .ColorScheme-Text {
        color:#122036;
      }
      </style><style
       id="current-color-scheme-0-1"
       type="text/css">
      .ColorScheme-Text {
        color:#122036;
      }
      </style><style
       id="current-color-scheme-26"
       type="text/css">
      .ColorScheme-Text {
        color:#122036;
      }
      </style><style
       type="text/css"
       id="current-color-scheme-27">
      .ColorScheme-Text {
        color:#122036;
      }
      </style><style
       type="text/css"
       id="current-color-scheme-7">
      .ColorScheme-Text {
        color:#122036;
      }
      </style><style
       type="text/css"
       id="current-color-scheme-5-09">
      .ColorScheme-Text {
        color:#122036;
      }
      </style><style
       type="text/css"
       id="current-color-scheme-0-3">
      .ColorScheme-Text {
        color:#122036;
      }
      </style><style
       type="text/css"
       id="current-color-scheme-7-9">
      .ColorScheme-Text {
        color:#122036;
      }
      </style><style
       type="text/css"
       id="current-color-scheme-5-3">
      .ColorScheme-Text {
        color:#122036;
      }
      </style><style
       type="text/css"
       id="current-color-scheme-79">
      .ColorScheme-Text {
        color:#122036;
      }
      </style><style
       type="text/css"
       id="current-color-scheme-7-2">
      .ColorScheme-Text {
        color:#122036;
      }
      </style><style
       type="text/css"
       id="current-color-scheme-5-0">
      .ColorScheme-Text {
        color:#122036;
      }
      </style><style
       type="text/css"
       id="current-color-scheme-9">
      .ColorScheme-Text {
        color:#122036;
      }
      </style><style
       id="current-color-scheme-5-2"
       type="text/css">
      .ColorScheme-Text {
        color:#122036;
      }
      </style><style
       id="current-color-scheme-2-2"
       type="text/css">
      .ColorScheme-Text {
        color:#122036;
      }
      </style><style
       id="current-color-scheme-1-8"
       type="text/css">
      .ColorScheme-Text {
        color:#122036;
      }
      </style><style
       type="text/css"
       id="current-color-scheme-10-9">
      .ColorScheme-Text {
        color:#122036;
      }
      </style><style
       id="current-color-scheme-0-7"
       type="text/css">
      .ColorScheme-Text {
        color:#122036;
      }
      </style><style
       id="current-color-scheme-26-3"
       type="text/css">
      .ColorScheme-Text {
        color:#122036;
      }
      </style><style
       type="text/css"
       id="current-color-scheme-27-6">
      .ColorScheme-Text {
        color:#122036;
      }
      </style><style
       type="text/css"
       id="current-color-scheme-7-1">
      .ColorScheme-Text {
        color:#122036;
      }
      </style><style
       type="text/css"
       id="current-color-scheme-5-09-2">
      .ColorScheme-Text {
        color:#122036;
      }
      </style><style
       type="text/css"
       id="current-color-scheme-0-3-9">
      .ColorScheme-Text {
        color:#122036;
      }
      </style><style
       type="text/css"
       id="current-color-scheme-7-9-3">
      .ColorScheme-Text {
        color:#122036;
      }
      </style><style
       type="text/css"
       id="current-color-scheme-5-3-1">
      .ColorScheme-Text {
        color:#122036;
      }
      </style><style
       type="text/css"
       id="current-color-scheme-79-9">
      .ColorScheme-Text {
        color:#122036;
      }
      </style><style
       type="text/css"
       id="current-color-scheme-7-2-4">
      .ColorScheme-Text {
        color:#122036;
      }
      </style><style
       type="text/css"
       id="current-color-scheme-5-0-7">
      .ColorScheme-Text {
        color:#122036;
      }
      </style><style
       type="text/css"
       id="current-color-scheme-62">
      .ColorScheme-Text {
        color:#122036;
      }
      </style><style
       type="text/css"
       id="current-color-scheme-63">
      .ColorScheme-Text {
        color:#36404d;
      }
      </style><style
       type="text/css"
       id="current-color-scheme-67">
      .ColorScheme-Text {
        color:#122036;
      }
      </style><style
       type="text/css"
       id="current-color-scheme-7-6">
      .ColorScheme-Text {
        color:#122036;
      }
      </style><style
       type="text/css"
       id="current-color-scheme-5-1">
      .ColorScheme-Text {
        color:#122036;
      }
      </style><style
       type="text/css"
       id="current-color-scheme-6">
      .ColorScheme-Text {
        color:#122036;
      }
      </style><style
       type="text/css"
       id="current-color-scheme-1-87">
      .ColorScheme-Text {
        color:#122036;
      }
      </style><style
       id="current-color-scheme-10-92"
       type="text/css">
      .ColorScheme-Text {
        color:#122036;
      }
      </style><style
       id="current-color-scheme-5-7"
       type="text/css">
      .ColorScheme-Text {
        color:#122036;
      }
      </style><style
       id="current-color-scheme-1-2"
       type="text/css">
      .ColorScheme-Text {
        color:#122036;
      }
      </style><style
       type="text/css"
       id="current-color-scheme-10-9-0">
      .ColorScheme-Text {
        color:#122036;
      }
      </style><style
       type="text/css"
       id="current-color-scheme-75">
      .ColorScheme-Text {
        color:#122036;
      }
      </style><style
       type="text/css"
       id="current-color-scheme-1-3">
      .ColorScheme-Text {
        color:#122036;
      }
      </style><style
       id="current-color-scheme-10-5"
       type="text/css">
      .ColorScheme-Text {
        color:#122036;
      }
      </style><style
       id="current-color-scheme-5-6-2"
       type="text/css">
      .ColorScheme-Text {
        color:#122036;
      }
      </style><style
       id="current-color-scheme-1-2-2"
       type="text/css">
      .ColorScheme-Text {
        color:#122036;
      }
      </style><style
       type="text/css"
       id="current-color-scheme-10-9-9">
      .ColorScheme-Text {
        color:#122036;
      }
      </style><style
       type="text/css"
       id="current-color-scheme-6-1">
      .ColorScheme-Text {
        color:#122036;
      }
      </style><style
       type="text/css"
       id="current-color-scheme-1-9">
      .ColorScheme-Text {
        color:#122036;
      }
      </style><style
       id="current-color-scheme-10-1"
       type="text/css">
      .ColorScheme-Text {
        color:#122036;
      }
      </style><style
       type="text/css"
       id="current-color-scheme-7-2-3">
      .ColorScheme-Text {
        color:#122036;
      }
      </style><style
       type="text/css"
       id="current-color-scheme-1-5">
      .ColorScheme-Text {
        color:#122036;
      }
      </style><style
       id="current-color-scheme-10-3"
       type="text/css">
      .ColorScheme-Text {
        color:#122036;
      }
      </style><style
       id="current-color-scheme-5-5"
       type="text/css">
      .ColorScheme-Text {
        color:#122036;
      }
      </style><style
       id="current-color-scheme-1-2-6"
       type="text/css">
      .ColorScheme-Text {
        color:#122036;
      }
      </style><style
       type="text/css"
       id="current-color-scheme-10-9-2">
      .ColorScheme-Text {
        color:#122036;
      }
      </style><style
       type="text/css"
       id="current-color-scheme-6-9">
      .ColorScheme-Text {
        color:#122036;
      }
      </style><style
       type="text/css"
       id="current-color-scheme-1-9-1">
      .ColorScheme-Text {
        color:#122036;
      }
      </style><style
       id="current-color-scheme-10-1-2"
       type="text/css">
      .ColorScheme-Text {
        color:#122036;
      }
      </style><style
       type="text/css"
       id="current-color-scheme-5356">
      .ColorScheme-Text {
        color:#122036;
      }
      </style><style
       type="text/css"
       id="current-color-scheme-63-2">
      .ColorScheme-Text {
        color:#36404d;
      }
      </style><style
       type="text/css"
       id="current-color-scheme-67-9">
      .ColorScheme-Text {
        color:#122036;
      }
      </style><style
       type="text/css"
       id="current-color-scheme-7-12">
      .ColorScheme-Text {
        color:#122036;
      }
      </style><style
       type="text/css"
       id="current-color-scheme-5-70">
      .ColorScheme-Text {
        color:#122036;
      }
      </style><style
       type="text/css"
       id="current-color-scheme-6-93">
      .ColorScheme-Text {
        color:#122036;
      }
      </style><style
       type="text/css"
       id="current-color-scheme-1-6">
      .ColorScheme-Text {
        color:#122036;
      }
      </style><style
       id="current-color-scheme-10-0"
       type="text/css">
      .ColorScheme-Text {
        color:#122036;
      }
      </style><style
       id="current-color-scheme-5-7-6"
       type="text/css">
      .ColorScheme-Text {
        color:#122036;
      }
      </style><style
       id="current-color-scheme-1-2-26"
       type="text/css">
      .ColorScheme-Text {
        color:#122036;
      }
      </style><style
       type="text/css"
       id="current-color-scheme-10-9-1">
      .ColorScheme-Text {
        color:#122036;
      }
      </style><style
       type="text/css"
       id="current-color-scheme-75-8">
      .ColorScheme-Text {
        color:#122036;
      }
      </style><style
       type="text/css"
       id="current-color-scheme-1-3-7">
      .ColorScheme-Text {
        color:#122036;
      }
      </style><style
       id="current-color-scheme-10-5-9"
       type="text/css">
      .ColorScheme-Text {
        color:#122036;
      }
      </style><style
       id="current-color-scheme-5-6-20"
       type="text/css">
      .ColorScheme-Text {
        color:#122036;
      }
      </style><style
       id="current-color-scheme-1-2-2-2"
       type="text/css">
      .ColorScheme-Text {
        color:#122036;
      }
      </style><style
       type="text/css"
       id="current-color-scheme-10-9-9-3">
      .ColorScheme-Text {
        color:#122036;
      }
      </style><style
       type="text/css"
       id="current-color-scheme-6-1-7">
      .ColorScheme-Text {
        color:#122036;
      }
      </style><style
       type="text/css"
       id="current-color-scheme-1-9-5">
      .ColorScheme-Text {
        color:#122036;
      }
      </style><style
       id="current-color-scheme-10-1-9"
       type="text/css">
      .ColorScheme-Text {
        color:#122036;
      }
      </style><style
       type="text/css"
       id="current-color-scheme-7-2-2">
      .ColorScheme-Text {
        color:#122036;
      }
      </style><style
       type="text/css"
       id="current-color-scheme-1-5-2">
      .ColorScheme-Text {
        color:#122036;
      }
      </style><style
       id="current-color-scheme-10-3-8"
       type="text/css">
      .ColorScheme-Text {
        color:#122036;
      }
      </style><style
       id="current-color-scheme-5-5-9"
       type="text/css">
      .ColorScheme-Text {
        color:#122036;
      }
      </style><style
       id="current-color-scheme-1-2-6-7"
       type="text/css">
      .ColorScheme-Text {
        color:#122036;
      }
      </style><style
       type="text/css"
       id="current-color-scheme-10-9-2-3">
      .ColorScheme-Text {
        color:#122036;
      }
      </style><style
       type="text/css"
       id="current-color-scheme-6-9-6">
      .ColorScheme-Text {
        color:#122036;
      }
      </style><style
       type="text/css"
       id="current-color-scheme-1-9-1-1">
      .ColorScheme-Text {
        color:#122036;
      }
      </style><style
       id="current-color-scheme-10-1-2-2"
       type="text/css">
      .ColorScheme-Text {
        color:#122036;
      }
      </style><linearGradient
       id="linearGradient4506"
       inkscape:collect="always"><stop
         id="stop4502"
         offset="0"
         style="stop-color:#252a34;stop-opacity:1" /><stop
         id="stop4504"
         offset="1"
         style="stop-color:#353d4b;stop-opacity:1" /></linearGradient><linearGradient
       inkscape:collect="always"
       xlink:href="#linearGradient4506"
       id="linearGradient1042"
       x1="24"
       y1="301.64999"
       x2="24"
       y2="279.64999"
       gradientUnits="userSpaceOnUse" /></defs><sodipodi:namedview
     id="base"
     pagecolor="#ffffff"
     bordercolor="#666666"
     borderopacity="1.0"
     inkscape:pageopacity="0.0"
     inkscape:pageshadow="2"
     inkscape:zoom="16.000001"
     inkscape:cx="25.249998"
     inkscape:cy="26.937498"
     inkscape:document-units="px"
     inkscape:current-layer="layer1-62"
     showgrid="true"
     units="px"
     inkscape:window-width="2560"
     inkscape:window-height="1353"
     inkscape:window-x="0"
     inkscape:window-y="0"
     inkscape:window-maximized="1"
     objecttolerance="10"
     gridtolerance="10"
     guidetolerance="10"
     inkscape:snap-bbox="true"
     inkscape:bbox-paths="true"
     inkscape:bbox-nodes="true"
     inkscape:snap-bbox-edge-midpoints="true"
     inkscape:snap-bbox-midpoints="true"
     inkscape:object-paths="true"
     inkscape:snap-intersection-paths="true"
     inkscape:showpageshadow="2"
     inkscape:pagecheckerboard="0"
     inkscape:deskcolor="#d1d1d1"
     showguides="false"><inkscape:grid
       type="xygrid"
       id="grid7897"
       empspacing="4" /></sodipodi:namedview><metadata
     id="metadata5"><rdf:RDF><cc:Work
         rdf:about=""><dc:format>image/svg+xml</dc:format><dc:type
           rdf:resource="http://purl.org/dc/dcmitype/StillImage" /><dc:title>Antu icon Theme</dc:title></cc:Work></rdf:RDF></metadata><g
     inkscape:label="Capa 1"
     inkscape:groupmode="layer"
     id="layer1"
     transform="translate(0,-266.64999)"><g
       id="g2217"
       transform="translate(30.000001,16.999985)"><path
         style="fill:#166ec1;fill-opacity:1;stroke:none;stroke-width:6;stroke-linecap:square;stroke-linejoin:round;stroke-miterlimit:18;stroke-dasharray:none;stroke-dashoffset:0;stroke-opacity:1;paint-order:markers stroke fill"
         d="m -22,251.65001 h 32 c 1.662,0 3,1.33799 3,3 V 292.65 c 0,1.662 -1.338,3 -3,3 h -32 c -1.66199,0 -3,-1.338 -3,-3 v -38 c 0,-1.662 1.33801,-3 3,-2.99999 z"
         id="rect6397-1-9-0"
         inkscape:connector-curvature="0" /><path
         style="fill:url(#linearGradient2332);fill-opacity:1;stroke:none;stroke-width:6;stroke-linecap:square;stroke-linejoin:round;stroke-miterlimit:18;stroke-dasharray:none;stroke-dashoffset:0;stroke-opacity:1;paint-order:markers stroke fill"
         d="m -22,252.65001 h 32 c 1.108,0 2,0.89199 2,2 V 292.65 c 0,1.108 -0.892,2 -2,2 h -32 c -1.10799,0 -2,-0.892 -2,-2 v -38 c 0,-1.108 0.89201,-2 2,-1.99999 z"
         id="rect6399-4-3-2"
         inkscape:connector-curvature="0"
         sodipodi:nodetypes="sssssssss" /><path
         id="rect850-5-9-7-9-7-0-4-4-1"
         style="fill:#ffffff;fill-opacity:0.28999999;stroke-width:1.2;stroke-linecap:round;stroke-linejoin:round;stroke-miterlimit:1.8;paint-order:stroke fill markers;stop-color:#000000"
         d="m -20.99999,252.65001 v 3 h 3 v -3 z m 3,3 v 3 h 3 v -3 z m 3,0 h 3 v -3 h -3 z m 3,0 v 3 h 3 v -3 z m 3,0 h 3 v -3 h -3 z m 3,0 v 3 h 3 v -3 z m 3,0 h 3 v -3 h -3 z m 3,0 v 3 h 3 v -3 z m 3,0 h 3 v -3 h -3 z m 3,0 v 3 h 3 v -3 z m 3,0 h 1.5 1.5 v -1.5 c 0,-0.83099 -0.669,-1.5 -1.5,-1.5 h -1.5 v 1.5 z m 0,3 v 3 h 3 v -3 z m 0,3 h -3 v 3 h 3 z m 0,3 v 3 h 3 v -3 z m 0,3 h -3 v 3 h 3 z m 0,3 v 3 h 3 v -3 z m 0,3 h -3 v 3 h 3 z m 0,3 V 279.65 h 3 v -3 z m 0,2.99999 h -3 v 3 h 3 z m 0,3 v 3 h 3 v -3 z m 0,3 h -3 v 3 h 3 z m 0,3 v 3 h 3 v -3 z m 0,3 h -3 v 3 h 3 z m -3,0 v -3 h -3 v 3 z m -3,0 h -3 v 3 h 3 z m -3,0 v -3 h -3 v 3 z m -3,0 h -3 v 3 h 3 z m -3,0 v -3 h -3 v 3 z m -3,0 h -3 v 3 h 3 z m -3,0 v -3 h -3 v 3 z m -3,0 h -3 v 3 h 3 z m -3,0 v -3 h -3 v 3 z m -3,0 h -1.5 -1.5 v 1.5 c 0,0.83099 0.669,1.5 1.5,1.5 h 1.5 v -1.5 z m 0,-3 v -3 h -3 v 3 z m 0,-3 h 3 v -3 h -3 z m 0,-3 v -3 h -3 v 3 z m 0,-3 h 3 v -3 h -3 z m 0,-3 v -3 h -3 v 3 z m 0,-3 h 3 v -3 h -3 z m 0,-3 v -3 h -3 v 3 z m 0,-3 h 3 v -3 h -3 z m 0,-3 v -3 h -3 v 3 z m 0,-3 h 3 v -3 h -3 z m 0,-3 v -3 h -3 v 3 z m 3,3 v 3 h 3 v -3 z m 3,0 h 3 v -3 h -3 z m 3,0 v 3 h 3 v -3 z m 3,0 h 3 v -3 h -3 z m 3,0 v 3 h 3 v -3 z m 3,0 h 3 v -3 h -3 z m 3,0 v 3 h 3 v -3 z m 3,0 h 3 v -3 h -3 z m 0,3 v 3 h 3 v -3 z m 0,3 h -3 v 3 h 3 z m 0,3 v 3 h 3 v -3 z m 0,3 h -3 v 3 h 3 z m 0,3 v 3 h 3 v -3 z m 0,3 h -3 v 3 h 3 z m 0,3 v 3 h 3 v -3 z m 0,3 h -3 v 3 h 3 z m -3,0 v -3 h -3 v 3 z m -3,0 h -3 v 3 h 3 z m -3,0 v -3 h -3 v 3 z m -3,0 h -3 v 3 h 3 z m -3,0 v -3 h -3 v 3 z m -3,0 h -3 v 3 h 3 z m 0,-3 v -3 h -3 v 3 z m 0,-3 h 3 v -3 h -3 z m 0,-3 v -3 h -3 v 3 z m 0,-3 h 3 v -3 h -3 z m 0,-3 v -3 h -3 v 3 z m 0,-3 h 3 v -3 h -3 z m 3,0 v 3 h 3 v -3 z m 3,0 h 3 v -3 h -3 z m 3,0 v 3 h 3 v -3 z m 3,0 h 3 v -3 h -3 z m 0,3 v 3 h 3 v -3 z m 0,3 h -3 v 3 h 3 z m 0,3 v 3 h 3 v -3 z m 0,3 h -3 v 3 h 3 z m -3,0 v -3 h -3 v 3 z m -3,0 h -3 v 3 h 3 z m 0,-3 v -3 h -3 v 3 z m 0,-3 h 3 v -3 h -3 z" /><g
         inkscape:label="Capa 1"
         id="layer1-62"
         transform="translate(-30.000001,-16.999985)"><path
           style="color:#000000;font-style:normal;font-variant:normal;font-weight:normal;font-stretch:normal;font-size:medium;line-height:normal;font-family:sans-serif;font-variant-ligatures:normal;font-variant-position:normal;font-variant-caps:normal;font-variant-numeric:normal;font-variant-alternates:normal;font-feature-settings:normal;text-indent:0;text-align:start;text-decoration:none;text-decoration-line:none;text-decoration-style:solid;text-decoration-color:#000000;letter-spacing:normal;word-spacing:normal;text-transform:none;writing-mode:lr-tb;direction:ltr;text-orientation:mixed;dominant-baseline:auto;baseline-shift:baseline;text-anchor:start;white-space:normal;shape-padding:0;clip-rule:nonzero;display:inline;overflow:visible;visibility:visible;isolation:auto;mix-blend-mode:normal;color-interpolation:sRGB;color-interpolation-filters:linearRGB;solid-color:#000000;solid-opacity:1;vector-effect:none;fill:#166ec1;fill-opacity:1;fill-rule:nonzero;stroke:none;stroke-width:2;stroke-linecap:round;stroke-linejoin:round;stroke-miterlimit:4;stroke-dasharray:none;stroke-dashoffset:0;stroke-opacity:1;color-rendering:auto;image-rendering:auto;shape-rendering:auto;text-rendering:auto;enable-background:accumulate"
           d="m 24.005527,278.65001 c -0.305914,-0.002 -0.595903,0.13619 -0.787109,0.375 l -11.999999,15 c -0.351817,0.44091 -0.269602,1.08537 0.18164,1.42383 l 12,9 c 0.346304,0.26057 0.821028,0.26844 1.175781,0.0195 l 12.132812,-8.53516 c 0.467208,-0.32968 0.563379,-0.98327 0.210938,-1.43356 l -12.132813,-15.4668 c -0.188367,-0.24012 -0.476065,-0.38109 -0.78125,-0.38281 z"
           id="path1017-3"
           inkscape:connector-curvature="0"
           sodipodi:nodetypes="cccccccccc" /><path
           style="color:#000000;font-style:normal;font-variant:normal;font-weight:normal;font-stretch:normal;font-size:medium;line-height:normal;font-family:sans-serif;font-variant-ligatures:normal;font-variant-position:normal;font-variant-caps:normal;font-variant-numeric:normal;font-variant-alternates:normal;font-feature-settings:normal;text-indent:0;text-align:start;text-decoration:none;text-decoration-line:none;text-decoration-style:solid;text-decoration-color:#000000;letter-spacing:normal;word-spacing:normal;text-transform:none;writing-mode:lr-tb;direction:ltr;text-orientation:mixed;dominant-baseline:auto;baseline-shift:baseline;text-anchor:start;white-space:normal;shape-padding:0;clip-rule:nonzero;display:inline;overflow:visible;visibility:visible;opacity:1;isolation:auto;mix-blend-mode:normal;color-interpolation:sRGB;color-interpolation-filters:linearRGB;solid-color:#000000;solid-opacity:1;vector-effect:none;fill:#15151a;fill-opacity:1;fill-rule:nonzero;stroke:none;stroke-width:2;stroke-linecap:round;stroke-linejoin:round;stroke-miterlimit:4;stroke-dasharray:none;stroke-dashoffset:0;stroke-opacity:1;color-rendering:auto;image-rendering:auto;shape-rendering:auto;text-rendering:auto;enable-background:accumulate"
           d="m 24.005859,277.65039 c -0.305915,-0.002 -0.595903,0.13619 -0.787109,0.375 l -12,15 c -0.351817,0.44091 -0.269602,1.08537 0.181641,1.42383 l 12,9 c 0.346303,0.26057 0.821028,0.26844 1.175781,0.0195 l 12.132812,-8.53516 c 0.467208,-0.32968 0.563379,-0.98327 0.210938,-1.43356 L 24.787109,278.0332 c -0.188367,-0.24012 -0.476065,-0.38109 -0.78125,-0.38281 z"
           id="path1017"
           inkscape:connector-curvature="0"
           sodipodi:nodetypes="cccccccccc" /><path
           style="fill:url(#linearGradient1042);fill-opacity:1;stroke:none;stroke-width:2;stroke-linecap:round;stroke-linejoin:round;stroke-miterlimit:4;stroke-dasharray:none;stroke-opacity:1"
           d="m 12,293.64999 12,-15 L 36.133212,294.1166 24,302.64999 Z"
           id="path1017-2"
           inkscape:connector-curvature="0" /><path
           style="fill:#15151a;fill-opacity:1;stroke:none;stroke-width:1px;stroke-linecap:butt;stroke-linejoin:miter;stroke-opacity:1"
           d="m 24,281.64999 -5,6 h 3 l 2,2 c 0,0 2,-2 2,-2 h 3 z"
           id="path1058"
           inkscape:connector-curvature="0" /><path
           style="fill:#f3f7f7;fill-opacity:1;stroke:none;stroke-width:1px;stroke-linecap:butt;stroke-linejoin:miter;stroke-opacity:1"
           d="m 24,280.64999 -5,6 h 3 l 2,2 c 0,0 2,-2 2,-2 h 3 z"
           id="path1058-8"
           inkscape:connector-curvature="0" /></g></g></g></svg>
