<?xml version="1.0" encoding="UTF-8" standalone="no"?>
<!-- Created with Inkscape (http://www.inkscape.org/) -->

<svg
   width="48"
   height="48"
   viewBox="0 0 48 48"
   version="1.1"
   id="svg8"
   inkscape:version="1.2.2 (b0a8486541, 2022-12-01)"
   sodipodi:docname="image-x-ico.svg"
   xml:space="preserve"
   xmlns:inkscape="http://www.inkscape.org/namespaces/inkscape"
   xmlns:sodipodi="http://sodipodi.sourceforge.net/DTD/sodipodi-0.dtd"
   xmlns:xlink="http://www.w3.org/1999/xlink"
   xmlns="http://www.w3.org/2000/svg"
   xmlns:svg="http://www.w3.org/2000/svg"
   xmlns:rdf="http://www.w3.org/1999/02/22-rdf-syntax-ns#"
   xmlns:cc="http://creativecommons.org/ns#"
   xmlns:dc="http://purl.org/dc/elements/1.1/"><title
     id="title7895">Antu icon Theme</title><defs
     id="defs2"><style
       id="current-color-scheme"
       type="text/css">
      .ColorScheme-Text {
        color:#122036;
      }
      </style><style
       id="current-color-scheme-2"
       type="text/css">
      .ColorScheme-Text {
        color:#122036;
      }
      </style><style
       id="current-color-scheme-0"
       type="text/css">
      .ColorScheme-Text {
        color:#122036;
      }
      </style><style
       id="current-color-scheme-5"
       type="text/css">
      .ColorScheme-Text {
        color:#122036;
      }
      </style><linearGradient
       gradientTransform="translate(-79.999997,-55.99997)"
       y2="322.64999"
       x2="60"
       y1="362.64999"
       x1="60"
       gradientUnits="userSpaceOnUse"
       id="linearGradient6625-7"
       xlink:href="#linearGradient4846"
       inkscape:collect="always" /><linearGradient
       inkscape:collect="always"
       id="linearGradient4846"><stop
         style="stop-color:#e4efef;stop-opacity:1"
         offset="0"
         id="stop4842" /><stop
         style="stop-color:#fcfcfc;stop-opacity:1"
         offset="1"
         id="stop4844" /></linearGradient><linearGradient
       inkscape:collect="always"
       xlink:href="#linearGradient4355"
       id="linearGradient4357"
       x1="-1.000001"
       y1="284.64999"
       x2="-1.000001"
       y2="279.64999"
       gradientUnits="userSpaceOnUse"
       gradientTransform="translate(50.999999,56.000005)" /><linearGradient
       inkscape:collect="always"
       id="linearGradient4355"><stop
         style="stop-color:#fc3f3b;stop-opacity:1;"
         offset="0"
         id="stop4351" /><stop
         style="stop-color:#e74334;stop-opacity:1;"
         offset="1"
         id="stop4353" /></linearGradient><linearGradient
       inkscape:collect="always"
       xlink:href="#linearGradient5674"
       id="linearGradient5676"
       x1="5.999999"
       y1="284.64999"
       x2="5.999999"
       y2="279.64999"
       gradientUnits="userSpaceOnUse"
       gradientTransform="translate(50.999999,56.000005)" /><linearGradient
       inkscape:collect="always"
       id="linearGradient5674"><stop
         style="stop-color:#73dd22;stop-opacity:1;"
         offset="0"
         id="stop5670" /><stop
         style="stop-color:#98e81f;stop-opacity:1;"
         offset="1"
         id="stop5672" /></linearGradient><linearGradient
       inkscape:collect="always"
       xlink:href="#linearGradient9201"
       id="linearGradient9203"
       x1="-1e-06"
       y1="291.64999"
       x2="-1e-06"
       y2="286.64999"
       gradientUnits="userSpaceOnUse"
       gradientTransform="translate(50.999999,56.000005)" /><linearGradient
       inkscape:collect="always"
       id="linearGradient9201"><stop
         style="stop-color:#118ff5;stop-opacity:1;"
         offset="0"
         id="stop9197" /><stop
         style="stop-color:#04aefd;stop-opacity:1;"
         offset="1"
         id="stop9199" /></linearGradient><linearGradient
       inkscape:collect="always"
       xlink:href="#linearGradient11969"
       id="linearGradient11971"
       x1="5.999999"
       y1="291.64999"
       x2="5.999999"
       y2="286.64999"
       gradientUnits="userSpaceOnUse"
       gradientTransform="translate(50.999999,56.000005)" /><linearGradient
       inkscape:collect="always"
       id="linearGradient11969"><stop
         style="stop-color:#ffcd00;stop-opacity:1;"
         offset="0"
         id="stop11965" /><stop
         style="stop-color:#fdcc00;stop-opacity:1;"
         offset="1"
         id="stop11967" /></linearGradient></defs><sodipodi:namedview
     id="base"
     pagecolor="#ffffff"
     bordercolor="#666666"
     borderopacity="1.0"
     inkscape:pageopacity="0.0"
     inkscape:pageshadow="2"
     inkscape:zoom="11.313709"
     inkscape:cx="49.453278"
     inkscape:cy="33.852736"
     inkscape:document-units="px"
     inkscape:current-layer="g2217"
     showgrid="true"
     units="px"
     inkscape:window-width="2560"
     inkscape:window-height="1363"
     inkscape:window-x="0"
     inkscape:window-y="0"
     inkscape:window-maximized="1"
     objecttolerance="10"
     gridtolerance="10"
     guidetolerance="10"
     inkscape:snap-bbox="true"
     inkscape:bbox-paths="true"
     inkscape:bbox-nodes="true"
     inkscape:snap-bbox-edge-midpoints="true"
     inkscape:snap-bbox-midpoints="true"
     inkscape:object-paths="true"
     inkscape:snap-intersection-paths="true"
     inkscape:showpageshadow="2"
     inkscape:pagecheckerboard="0"
     inkscape:deskcolor="#d1d1d1"
     showguides="false"><inkscape:grid
       type="xygrid"
       id="grid7897"
       empspacing="4" /></sodipodi:namedview><metadata
     id="metadata5"><rdf:RDF><cc:Work
         rdf:about=""><dc:format>image/svg+xml</dc:format><dc:type
           rdf:resource="http://purl.org/dc/dcmitype/StillImage" /><dc:title>Antu icon Theme</dc:title></cc:Work></rdf:RDF></metadata><g
     inkscape:label="Capa 1"
     inkscape:groupmode="layer"
     id="layer1"
     transform="translate(0,-266.64999)"><g
       id="g2217"
       transform="translate(30.000001,16.999985)"><g
         id="g2762"
         transform="translate(-51,-56)"><g
           id="g8745"
           transform="translate(64.999999,43.000015)"><path
             inkscape:connector-curvature="0"
             id="rect6397-1"
             d="m -36,264.64999 h 32 c 1.662,0 3,1.33798 3,3 v 38 c 0,1.66197 -1.338,3 -3,3 h -32 c -1.661998,0 -3,-1.33803 -3,-3 v -38 c 0,-1.66202 1.338002,-3 3,-3 z"
             style="opacity:1;vector-effect:none;fill:#90a4ae;fill-opacity:1;stroke:none;stroke-width:6;stroke-linecap:square;stroke-linejoin:round;stroke-miterlimit:18;stroke-dasharray:none;stroke-dashoffset:0;stroke-opacity:1;paint-order:markers stroke fill" /><path
             sodipodi:nodetypes="sssssssss"
             inkscape:connector-curvature="0"
             id="rect6399-4"
             d="m -36,265.64999 h 32 c 1.108001,0 2,0.892 2,2.00001 v 38.00001 c 0,1.10797 -0.891999,1.99997 -2,1.99997 h -32 c -1.107998,0 -2,-0.892 -2,-1.99997 V 267.65 c 0,-1.10801 0.892002,-2.00001 2,-2.00001 z"
             style="opacity:1;vector-effect:none;fill:url(#linearGradient6625-7);fill-opacity:1;stroke:none;stroke-width:6;stroke-linecap:square;stroke-linejoin:round;stroke-miterlimit:18;stroke-dasharray:none;stroke-dashoffset:0;stroke-opacity:1;paint-order:markers stroke fill" /></g><g
           transform="matrix(1.5,0,0,1.5,54.999999,-121.32498)"
           id="layer1-6"
           inkscape:label="Capa 1"><g
             transform="translate(84,-4)"
             id="g5329"><path
               id="rect850-5-9-7-9-7-0-4-4-1"
               style="fill:#d0dcdf;fill-opacity:1;stroke-width:0.8;stroke-linecap:round;stroke-linejoin:round;stroke-miterlimit:1.8;paint-order:stroke fill markers;stop-color:#000000"
               d="m -100.66667,290.64999 v 2 h 2.000003 v -2 z m 2.000003,2 v 2 h 2 v -2 z m 2,0 h 2 v -2 h -2 z m 2,0 v 2 h 2 v -2 z m 2,0 h 2 v -2 h -2 z m 2,0 v 2 h 2 v -2 z m 2,0 h 2 v -2 h -2 z m 2,0 v 2 h 2 v -2 z m 2,0 h 2 v -2 h -2 z m 2,0 v 2 h 2 v -2 z m 2,0 h 1 1 v -1 c 0,-0.55399 -0.446,-1 -1,-1 h -1 v 1 z m 0,2 v 2 h 2 v -2 z m 0,2 h -2 v 2 h 2 z m 0,2 v 2 h 2 v -2 z m 0,2 h -2 v 2 h 2 z m 0,2 v 2 h 2 v -2 z m 0,2 h -2 v 2 h 2 z m 0,2 v 1.99999 h 2 v -2 z m 0,1.99999 h -2 v 2 h 2 z m 0,2 v 2 h 2 v -2 z m 0,2 h -2 v 2 h 2 z m 0,2 v 2 h 2 v -2 z m 0,2 h -2 v 2 h 2 z m -2,0 v -2 h -2 v 2 z m -2,0 h -2 v 2 h 2 z m -2,0 v -2 h -2 v 2 z m -2,0 h -2 v 2 h 2 z m -2,0 v -2 h -2 v 2 z m -2,0 h -2 v 2 h 2 z m -2,0 v -2 h -2 v 2 z m -2,0 h -2 v 2 h 2 z m -2,0 v -2 h -2.000003 v 2 z m -2.000003,0 h -1 -1 v 1 c 0,0.554 0.446,1 1,1 h 1 v -1 z m 0,-2 v -2 h -2 v 2 z m 0,-2 h 2.000003 v -2 h -2.000003 z m 0,-2 v -2 h -2 v 2 z m 0,-2 h 2.000003 v -2 h -2.000003 z m 0,-2 v -2 h -2 v 2 z m 0,-2 h 2.000003 v -2 h -2.000003 z m 0,-2 v -2 h -2 v 2 z m 0,-2 h 2.000003 v -2 h -2.000003 z m 0,-2 v -2 h -2 v 2 z m 0,-2 h 2.000003 v -2 h -2.000003 z m 0,-2 v -2 h -2 v 2 z m 2.000003,2 v 2 h 2 v -2 z m 2,0 h 2 v -2 h -2 z m 2,0 v 2 h 2 v -2 z m 2,0 h 2 v -2 h -2 z m 2,0 v 2 h 2 v -2 z m 2,0 h 2 v -2 h -2 z m 2,0 v 2 h 2 v -2 z m 2,0 h 2 v -2 h -2 z m 0,2 v 2 h 2 v -2 z m 0,2 h -2 v 2 h 2 z m 0,2 v 2 h 2 v -2 z m 0,2 h -2 v 2 h 2 z m 0,2 v 2 h 2 v -2 z m 0,2 h -2 v 2 h 2 z m 0,2 v 2 h 2 v -2 z m 0,2 h -2 v 2 h 2 z m -2,0 v -2 h -2 v 2 z m -2,0 h -2 v 2 h 2 z m -2,0 v -2 h -2 v 2 z m -2,0 h -2 v 2 h 2 z m -2,0 v -2 h -2 v 2 z m -2,0 h -2 v 2 h 2 z m 0,-2 v -2 h -2 v 2 z m 0,-2 h 2 v -2 h -2 z m 0,-2 v -2 h -2 v 2 z m 0,-2 h 2 v -2 h -2 z m 0,-2 v -2 h -2 v 2 z m 0,-2 h 2 v -2 h -2 z m 2,0 v 2 h 2 v -2 z m 2,0 h 2 v -2 h -2 z m 2,0 v 2 h 2 v -2 z m 2,0 h 2 v -2 h -2 z m 0,2 v 2 h 2 v -2 z m 0,2 h -2 v 2 h 2 z m 0,2 v 2 h 2 v -2 z m 0,2 h -2 v 2 h 2 z m -2,0 v -2 h -2 v 2 z m -2,0 h -2 v 2 h 2 z m 0,-2 v -2 h -2 v 2 z m 0,-2 h 2 v -2 h -2 z" /></g></g><path
           id="rect1891-3-5"
           style="fill:#ffffff;fill-opacity:1;stroke:none;stroke-width:2;stroke-linecap:round;stroke-linejoin:round;stroke-miterlimit:1.8;paint-order:stroke fill markers;stop-color:#000000"
           d="m 31.999999,317.65001 v 6 h 2 v 14 h -2 v 6 h 6 v -2 h 9 v 1 7 h 7 7 v -7 -7 h -5 v -12 h 2 v -6 h -6 v 2 h -14 v -2 z m 2,2 h 2 v 2 h -2 z m 20,0 h 2 v 2 h -2 z m -16,2 h 7 7 v 2 h 2 v 7 5 h -1.507812 c 0.952678,-1.42836 1.507812,-3.14698 1.507812,-5 0,-4.98598 -4.01402,-9 -9,-9 -4.98598,0 -9,4.01402 -9,9 0,4.98599 4.01402,9 9,9 0.688276,0 1.356769,-0.0796 2,-0.22461 v 0.22461 h -2 -7 v -2 h -2 v -7 -7 h 2 z m -4,18 h 2 v 2 h -2 z" /><path
           id="rect1891-5"
           style="fill:#77909d;fill-opacity:1;stroke:none;stroke-width:2;stroke-linecap:round;stroke-linejoin:round;stroke-miterlimit:1.8;paint-order:stroke fill markers;stop-color:#000000"
           d="m 31.999999,316.65001 v 6 h 2 v 14 h -2 v 6 h 6 v -2 h 14 v 2 h 6 v -6 h -2 v -14 h 2 v -6 h -6 v 2 h -14 v -2 z m 2,2 h 2 v 2 h -2 z m 20,0 h 2 v 2 h -2 z m -16,2 h 7 7 v 2 h 2 v 7 7 h -2 v 2 h -7 -7 v -2 h -2 v -7 -7 h 2 z m -2,9 c 0,4.98599 4.014015,9 9,9 4.985985,0 9,-4.01401 9,-9 0,-4.98598 -4.014015,-9 -9,-9 -4.985985,0 -9,4.01402 -9,9 z m -2,9 h 2 v 2 h -2 z m 20,0 h 2 v 2 h -2 z"
           sodipodi:nodetypes="ccccccccccccccccccccccccccccccccccccccccccccccccssssscccccccccc" /><path
           style="fill:#b2262c;fill-opacity:1;stroke:none;stroke-width:4;stroke-linecap:round;stroke-linejoin:round;stroke-miterlimit:4;stroke-dasharray:none;stroke-dashoffset:0;stroke-opacity:1"
           d="m 46.999998,334.65 h 7 v 7 h -7 z"
           id="rect875-2" /><path
           style="fill:#56b11c;fill-opacity:1;stroke:none;stroke-width:4;stroke-linecap:round;stroke-linejoin:round;stroke-miterlimit:4;stroke-dasharray:none;stroke-dashoffset:0;stroke-opacity:1"
           d="m 53.999998,334.65 h 7 v 7 h -7 z"
           id="rect875-2-7" /><path
           style="fill:#0f49bf;fill-opacity:1;stroke:none;stroke-width:4;stroke-linecap:round;stroke-linejoin:round;stroke-miterlimit:4;stroke-dasharray:none;stroke-dashoffset:0;stroke-opacity:1"
           d="m 46.999998,341.65 h 7 v 7 h -7 z"
           id="rect875-2-0" /><path
           style="fill:#f59101;fill-opacity:1;stroke:none;stroke-width:4;stroke-linecap:round;stroke-linejoin:round;stroke-miterlimit:4;stroke-dasharray:none;stroke-dashoffset:0;stroke-opacity:1"
           d="m 53.999998,341.65 h 7 v 7 h -7 z"
           id="rect875-2-7-9" /><path
           style="fill:url(#linearGradient4357);fill-opacity:1;stroke:none;stroke-width:4;stroke-linecap:round;stroke-linejoin:round;stroke-miterlimit:4;stroke-dasharray:none;stroke-dashoffset:0;stroke-opacity:1"
           d="m 47.999998,335.65 h 5 v 5 h -5 z"
           id="rect875-2-3" /><path
           style="fill:url(#linearGradient5676);fill-opacity:1;stroke:none;stroke-width:4;stroke-linecap:round;stroke-linejoin:round;stroke-miterlimit:4;stroke-dasharray:none;stroke-dashoffset:0;stroke-opacity:1"
           d="m 54.999998,335.65 h 5 v 5 h -5 z"
           id="rect875-2-3-6" /><path
           style="fill:url(#linearGradient9203);fill-opacity:1;stroke:none;stroke-width:4;stroke-linecap:round;stroke-linejoin:round;stroke-miterlimit:4;stroke-dasharray:none;stroke-dashoffset:0;stroke-opacity:1"
           d="m 47.999998,342.65 h 5 v 5 h -5 z"
           id="rect875-2-3-0" /><path
           style="fill:url(#linearGradient11971);fill-opacity:1;stroke:none;stroke-width:4;stroke-linecap:round;stroke-linejoin:round;stroke-miterlimit:4;stroke-dasharray:none;stroke-dashoffset:0;stroke-opacity:1"
           d="m 54.999998,342.65 h 5 v 5 h -5 z"
           id="rect875-2-3-62" /></g></g></g></svg>
