<?xml version="1.0" encoding="UTF-8" standalone="no"?>
<!-- Created with Inkscape (http://www.inkscape.org/) -->

<svg
   width="48"
   height="48"
   viewBox="0 0 48 48"
   version="1.1"
   id="svg8"
   inkscape:version="1.2.2 (b0a8486541, 2022-12-01)"
   sodipodi:docname="image-x-adobe-dng.svg"
   xml:space="preserve"
   xmlns:inkscape="http://www.inkscape.org/namespaces/inkscape"
   xmlns:sodipodi="http://sodipodi.sourceforge.net/DTD/sodipodi-0.dtd"
   xmlns:xlink="http://www.w3.org/1999/xlink"
   xmlns="http://www.w3.org/2000/svg"
   xmlns:svg="http://www.w3.org/2000/svg"
   xmlns:rdf="http://www.w3.org/1999/02/22-rdf-syntax-ns#"
   xmlns:cc="http://creativecommons.org/ns#"
   xmlns:dc="http://purl.org/dc/elements/1.1/"><title
     id="title7895">Antu icon Theme</title><defs
     id="defs2"><linearGradient
       gradientTransform="translate(-71,-66)"
       y2="322.64999"
       x2="60"
       y1="362.64999"
       x1="60"
       gradientUnits="userSpaceOnUse"
       id="linearGradient6625-7-2"
       xlink:href="#linearGradient4602"
       inkscape:collect="always" /><linearGradient
       inkscape:collect="always"
       id="linearGradient4602"><stop
         style="stop-color:#24b3cd;stop-opacity:1;"
         offset="0"
         id="stop4598" /><stop
         style="stop-color:#3bc6e0;stop-opacity:1;"
         offset="1"
         id="stop4600" /></linearGradient><style
       type="text/css"
       id="current-color-scheme">
      .ColorScheme-Text {
        color:#122036;
      }
      </style><style
       id="current-color-scheme-5"
       type="text/css">
      .ColorScheme-Text {
        color:#122036;
      }
      </style><style
       id="current-color-scheme-2"
       type="text/css">
      .ColorScheme-Text {
        color:#122036;
      }
      </style><style
       id="current-color-scheme-1"
       type="text/css">
      .ColorScheme-Text {
        color:#122036;
      }
      </style><style
       type="text/css"
       id="current-color-scheme-10">
      .ColorScheme-Text {
        color:#122036;
      }
      </style><style
       id="current-color-scheme-0"
       type="text/css">
      .ColorScheme-Text {
        color:#122036;
      }
      </style><style
       id="current-color-scheme-26"
       type="text/css">
      .ColorScheme-Text {
        color:#122036;
      }
      </style><style
       type="text/css"
       id="current-color-scheme-27">
      .ColorScheme-Text {
        color:#122036;
      }
      </style><style
       type="text/css"
       id="current-color-scheme-7">
      .ColorScheme-Text {
        color:#122036;
      }
      </style><style
       type="text/css"
       id="current-color-scheme-5-09">
      .ColorScheme-Text {
        color:#122036;
      }
      </style><style
       type="text/css"
       id="current-color-scheme-0-3">
      .ColorScheme-Text {
        color:#122036;
      }
      </style><style
       type="text/css"
       id="current-color-scheme-7-9">
      .ColorScheme-Text {
        color:#122036;
      }
      </style><style
       type="text/css"
       id="current-color-scheme-5-3">
      .ColorScheme-Text {
        color:#122036;
      }
      </style><style
       type="text/css"
       id="current-color-scheme-79">
      .ColorScheme-Text {
        color:#122036;
      }
      </style><style
       type="text/css"
       id="current-color-scheme-7-2">
      .ColorScheme-Text {
        color:#122036;
      }
      </style><style
       type="text/css"
       id="current-color-scheme-5-0">
      .ColorScheme-Text {
        color:#122036;
      }
      </style></defs><sodipodi:namedview
     id="base"
     pagecolor="#ffffff"
     bordercolor="#666666"
     borderopacity="1.0"
     inkscape:pageopacity="0.0"
     inkscape:pageshadow="2"
     inkscape:zoom="22.627418"
     inkscape:cx="9.3691644"
     inkscape:cy="27.798134"
     inkscape:document-units="px"
     inkscape:current-layer="layer1"
     showgrid="true"
     units="px"
     inkscape:window-width="2560"
     inkscape:window-height="1353"
     inkscape:window-x="0"
     inkscape:window-y="0"
     inkscape:window-maximized="1"
     objecttolerance="10"
     gridtolerance="10"
     guidetolerance="10"
     inkscape:snap-bbox="true"
     inkscape:bbox-paths="true"
     inkscape:bbox-nodes="true"
     inkscape:snap-bbox-edge-midpoints="true"
     inkscape:snap-bbox-midpoints="true"
     inkscape:object-paths="true"
     inkscape:snap-intersection-paths="true"
     inkscape:showpageshadow="2"
     inkscape:pagecheckerboard="0"
     inkscape:deskcolor="#d1d1d1"><inkscape:grid
       type="xygrid"
       id="grid7897"
       empspacing="4" /></sodipodi:namedview><metadata
     id="metadata5"><rdf:RDF><cc:Work
         rdf:about=""><dc:format>image/svg+xml</dc:format><dc:type
           rdf:resource="http://purl.org/dc/dcmitype/StillImage" /><dc:title>Antu icon Theme</dc:title></cc:Work></rdf:RDF></metadata><g
     inkscape:label="Capa 1"
     inkscape:groupmode="layer"
     id="layer1"
     transform="translate(0,-266.64999)"><g
       transform="translate(35,14)"
       id="g1593"><path
         style="opacity:1;vector-effect:none;fill:#288799;fill-opacity:1;stroke:none;stroke-width:6;stroke-linecap:square;stroke-linejoin:round;stroke-miterlimit:18;stroke-dasharray:none;stroke-dashoffset:0;stroke-opacity:1;paint-order:markers stroke fill"
         d="M -27,254.64999 H 5.0000002 c 1.662,0 3,1.338 3,3 v 38 c 0,1.662 -1.338,3 -3,3 H -27 c -1.662,0 -3,-1.338 -3,-3 v -38 c 0,-1.662 1.338,-3 3,-3 z"
         id="rect6397-1-4"
         inkscape:connector-curvature="0" /><path
         style="opacity:1;vector-effect:none;fill:url(#linearGradient6625-7-2);fill-opacity:1;stroke:none;stroke-width:6;stroke-linecap:square;stroke-linejoin:round;stroke-miterlimit:18;stroke-dasharray:none;stroke-dashoffset:0;stroke-opacity:1;paint-order:markers stroke fill"
         d="M -27,255.64999 H 5.0000002 c 1.108,0 2,0.892 2,2 v 38 c 0,1.108 -0.892,2 -2,2 H -27 c -1.108,0 -2,-0.892 -2,-2 v -38 c 0,-1.108 0.892,-2 2,-2 z"
         id="rect6399-4-9"
         inkscape:connector-curvature="0"
         sodipodi:nodetypes="sssssssss" /></g><g
       id="g4566-3-2"
       transform="translate(-645,-153)"
       style="fill:#288799;fill-opacity:1"><path
         id="path4414-5-9"
         style="color:#000000;fill:#288799;fill-opacity:1;stroke-linecap:round;stroke-linejoin:round;stroke-miterlimit:1.8;-inkscape-stroke:none;paint-order:stroke fill markers"
         d="m 668.86133,434.65992 a 1.0001,1.0001 0 0 0 -0.3086,0.0957 l -6,3 a 1,1 0 0 0 -0.44726,1.3418 1,1 0 0 0 1.3418,0.44726 l 5.52734,-2.76367 7.83008,4.34766 -8.7793,4.39062 -8.53906,-4.74414 A 1.0001,1.0001 0 0 0 658,441.65015 v 9 a 1.0001,1.0001 0 0 0 0.51367,0.87305 l 9,5 a 1,1 0 0 0 0.0742,0.0234 1.0001,1.0001 0 0 0 0.17969,0.0586 1,1 0 0 0 0.20898,0.0312 1.0001,1.0001 0 0 0 0.1836,-0.0156 1,1 0 0 0 0.19922,-0.0527 1.0001,1.0001 0 0 0 0.0879,-0.0234 l 10,-5 A 1.0001,1.0001 0 0 0 679,450.65015 v -9.03516 -0.96484 a 1.0001,1.0001 0 0 0 -0.51367,-0.875 l -9,-5 a 1.0001,1.0001 0 0 0 -0.625,-0.11523 z M 677,443.26734 v 6.76367 l -8,4 v -3.38086 a 1,1 0 0 0 -1,-1 1,1 0 0 0 -1,1 v 3.29883 l -7,-3.88672 v -6.71289 l 7.51367,4.17383 a 1.0001,1.0001 0 0 0 0.9336,0.0215 z" /></g><g
       id="g4566-3"
       transform="translate(-644.99999,-154)"><path
         id="path4414-5"
         style="color:#000000;fill:#e2fbf8;fill-opacity:1;stroke-linecap:round;stroke-linejoin:round;stroke-miterlimit:1.8;-inkscape-stroke:none;paint-order:stroke fill markers"
         d="m 668.86133,434.65992 a 1.0001,1.0001 0 0 0 -0.3086,0.0957 l -6,3 a 1,1 0 0 0 -0.44726,1.3418 1,1 0 0 0 1.3418,0.44726 l 5.52734,-2.76367 7.83008,4.34766 -8.7793,4.39062 -8.53906,-4.74414 A 1.0001,1.0001 0 0 0 658,441.65015 v 9 a 1.0001,1.0001 0 0 0 0.51367,0.87305 l 9,5 a 1,1 0 0 0 0.0742,0.0234 1.0001,1.0001 0 0 0 0.17969,0.0586 1,1 0 0 0 0.20898,0.0312 1.0001,1.0001 0 0 0 0.1836,-0.0156 1,1 0 0 0 0.19922,-0.0527 1.0001,1.0001 0 0 0 0.0879,-0.0234 l 10,-5 A 1.0001,1.0001 0 0 0 679,450.65015 v -9.03516 -0.96484 a 1.0001,1.0001 0 0 0 -0.51367,-0.875 l -9,-5 a 1.0001,1.0001 0 0 0 -0.625,-0.11523 z M 677,443.26734 v 6.76367 l -8,4 v -3.38086 a 1,1 0 0 0 -1,-1 1,1 0 0 0 -1,1 v 3.29883 l -7,-3.88672 v -6.71289 l 7.51367,4.17383 a 1.0001,1.0001 0 0 0 0.9336,0.0215 z" /></g></g></svg>
