<?xml version="1.0" encoding="UTF-8" standalone="no"?>
<!-- Created with Inkscape (http://www.inkscape.org/) -->

<svg
   width="48"
   height="48"
   viewBox="0 0 48 48"
   version="1.1"
   id="svg8"
   inkscape:version="1.2.2 (b0a8486541, 2022-12-01)"
   sodipodi:docname="message-partial.svg"
   xml:space="preserve"
   xmlns:inkscape="http://www.inkscape.org/namespaces/inkscape"
   xmlns:sodipodi="http://sodipodi.sourceforge.net/DTD/sodipodi-0.dtd"
   xmlns:xlink="http://www.w3.org/1999/xlink"
   xmlns="http://www.w3.org/2000/svg"
   xmlns:svg="http://www.w3.org/2000/svg"
   xmlns:rdf="http://www.w3.org/1999/02/22-rdf-syntax-ns#"
   xmlns:cc="http://creativecommons.org/ns#"
   xmlns:dc="http://purl.org/dc/elements/1.1/"><title
     id="title7895">Antu icon Theme</title><defs
     id="defs2"><linearGradient
       inkscape:collect="always"
       id="linearGradient2444"><stop
         style="stop-color:#fc393d;stop-opacity:1;"
         offset="0"
         id="stop2440" /><stop
         style="stop-color:#fd5238;stop-opacity:1;"
         offset="1"
         id="stop2442" /></linearGradient><linearGradient
       inkscape:collect="always"
       id="linearGradient1606"><stop
         style="stop-color:#d4e6e6;stop-opacity:1;"
         offset="0"
         id="stop1602" /><stop
         style="stop-color:#f6f8f8;stop-opacity:1;"
         offset="1"
         id="stop1604" /></linearGradient><style
       id="current-color-scheme"
       type="text/css">
      .ColorScheme-Text {
        color:#122036;
      }
      </style><style
       id="current-color-scheme-2"
       type="text/css">
      .ColorScheme-Text {
        color:#122036;
      }
      </style><style
       id="current-color-scheme-0"
       type="text/css">
      .ColorScheme-Text {
        color:#122036;
      }
      </style><style
       id="current-color-scheme-53562"
       type="text/css">
      .ColorScheme-Text {
        color:#122036;
      }
      </style><style
       type="text/css"
       id="current-color-scheme-5">
      .ColorScheme-Text {
        color:#122036;
      }
      </style><style
       type="text/css"
       id="current-color-scheme-2-91">
      .ColorScheme-Text {
        color:#122036;
      }
      </style><style
       type="text/css"
       id="current-color-scheme-1">
      .ColorScheme-Text {
        color:#122036;
      }
      </style><style
       id="current-color-scheme-10"
       type="text/css">
      .ColorScheme-Text {
        color:#122036;
      }
      </style><style
       id="current-color-scheme-20"
       type="text/css">
      .ColorScheme-Text {
        color:#122036;
      }
      </style><style
       type="text/css"
       id="current-color-scheme-1-2">
      .ColorScheme-Text {
        color:#122036;
      }
      </style><style
       type="text/css"
       id="current-color-scheme-9">
      .ColorScheme-Text {
        color:#122036;
      }
      </style><style
       id="current-color-scheme-53"
       type="text/css">
      .ColorScheme-Text {
        color:#122036;
      }
      </style><style
       type="text/css"
       id="current-color-scheme-5-3">
      .ColorScheme-Text {
        color:#122036;
      }
      </style><style
       type="text/css"
       id="current-color-scheme-2-7">
      .ColorScheme-Text {
        color:#122036;
      }
      </style><style
       type="text/css"
       id="current-color-scheme-1-1">
      .ColorScheme-Text {
        color:#122036;
      }
      </style><style
       id="current-color-scheme-10-5"
       type="text/css">
      .ColorScheme-Text {
        color:#122036;
      }
      </style><style
       id="current-color-scheme-535"
       type="text/css">
      .ColorScheme-Text {
        color:#122036;
      }
      </style><style
       id="current-color-scheme-0-2"
       type="text/css">
      .ColorScheme-Text {
        color:#122036;
      }
      </style><style
       id="current-color-scheme-5356"
       type="text/css">
      .ColorScheme-Text {
        color:#122036;
      }
      </style><style
       type="text/css"
       id="current-color-scheme-93">
      .ColorScheme-Text {
        color:#36404d;
      }
      </style><style
       id="current-color-scheme-26"
       type="text/css">
      .ColorScheme-Text {
        color:#122036;
      }
      </style><style
       type="text/css"
       id="current-color-scheme-1-18">
      .ColorScheme-Text {
        color:#122036;
      }
      </style><style
       type="text/css"
       id="current-color-scheme-6">
      .ColorScheme-Text {
        color:#36404d;
      }
      </style><style
       type="text/css"
       id="current-color-scheme-7">
      .ColorScheme-Text {
        color:#36404d;
      }
      </style><style
       type="text/css"
       id="current-color-scheme-5-7">
      .ColorScheme-Text {
        color:#122036;
      }
      </style><style
       id="current-color-scheme-1-3"
       type="text/css">
      .ColorScheme-Text {
        color:#122036;
      }
      </style><style
       type="text/css"
       id="current-color-scheme-2-9">
      .ColorScheme-Text {
        color:#36404d;
      }
      </style><linearGradient
       inkscape:collect="always"
       xlink:href="#linearGradient1606"
       id="linearGradient1608"
       x1="22.99964"
       y1="317.65045"
       x2="22.99964"
       y2="276.65045"
       gradientUnits="userSpaceOnUse" /><linearGradient
       inkscape:collect="always"
       xlink:href="#linearGradient2444"
       id="linearGradient2446"
       x1="22.99964"
       y1="312.65045"
       x2="22.99964"
       y2="282.65045"
       gradientUnits="userSpaceOnUse" /><style
       id="current-color-scheme-35"
       type="text/css">
      .ColorScheme-Text {
        color:#122036;
      }
      </style><style
       type="text/css"
       id="current-color-scheme-5-62">
      .ColorScheme-Text {
        color:#122036;
      }
      </style><style
       type="text/css"
       id="current-color-scheme-2-912">
      .ColorScheme-Text {
        color:#122036;
      }
      </style><style
       type="text/css"
       id="current-color-scheme-1-7">
      .ColorScheme-Text {
        color:#122036;
      }
      </style><style
       id="current-color-scheme-10-0"
       type="text/css">
      .ColorScheme-Text {
        color:#122036;
      }
      </style><style
       id="current-color-scheme-20-9"
       type="text/css">
      .ColorScheme-Text {
        color:#122036;
      }
      </style><style
       type="text/css"
       id="current-color-scheme-1-2-3">
      .ColorScheme-Text {
        color:#122036;
      }
      </style><style
       type="text/css"
       id="current-color-scheme-9-6">
      .ColorScheme-Text {
        color:#122036;
      }
      </style><style
       id="current-color-scheme-53-0"
       type="text/css">
      .ColorScheme-Text {
        color:#122036;
      }
      </style><style
       type="text/css"
       id="current-color-scheme-5-3-6">
      .ColorScheme-Text {
        color:#122036;
      }
      </style><style
       type="text/css"
       id="current-color-scheme-2-7-2">
      .ColorScheme-Text {
        color:#122036;
      }
      </style><style
       type="text/css"
       id="current-color-scheme-1-1-6">
      .ColorScheme-Text {
        color:#122036;
      }
      </style><style
       id="current-color-scheme-10-5-1"
       type="text/css">
      .ColorScheme-Text {
        color:#122036;
      }
      </style><style
       id="current-color-scheme-535-8"
       type="text/css">
      .ColorScheme-Text {
        color:#122036;
      }
      </style><style
       id="current-color-scheme-0-7"
       type="text/css">
      .ColorScheme-Text {
        color:#122036;
      }
      </style><style
       id="current-color-scheme-5356-9"
       type="text/css">
      .ColorScheme-Text {
        color:#122036;
      }
      </style><style
       type="text/css"
       id="current-color-scheme-93-2">
      .ColorScheme-Text {
        color:#36404d;
      }
      </style><style
       id="current-color-scheme-26-0"
       type="text/css">
      .ColorScheme-Text {
        color:#122036;
      }
      </style><style
       type="text/css"
       id="current-color-scheme-1-18-2">
      .ColorScheme-Text {
        color:#122036;
      }
      </style><style
       type="text/css"
       id="current-color-scheme-6-3">
      .ColorScheme-Text {
        color:#36404d;
      }
      </style><style
       type="text/css"
       id="current-color-scheme-7-75">
      .ColorScheme-Text {
        color:#36404d;
      }
      </style><style
       type="text/css"
       id="current-color-scheme-5-7-9">
      .ColorScheme-Text {
        color:#122036;
      }
      </style><style
       id="current-color-scheme-1-3-2"
       type="text/css">
      .ColorScheme-Text {
        color:#122036;
      }
      </style><style
       type="text/css"
       id="current-color-scheme-2-9-2">
      .ColorScheme-Text {
        color:#36404d;
      }
      </style><style
       id="current-color-scheme-535629"
       type="text/css">
      .ColorScheme-Text {
        color:#122036;
      }
      </style><style
       type="text/css"
       id="current-color-scheme-5-12">
      .ColorScheme-Text {
        color:#122036;
      }
      </style><style
       type="text/css"
       id="current-color-scheme-53-7">
      .ColorScheme-Text {
        color:#122036;
      }
      </style><style
       id="current-color-scheme-9-0"
       type="text/css">
      .ColorScheme-Text {
        color:#122036;
      }
      </style><style
       id="current-color-scheme-6-9"
       type="text/css">
      .ColorScheme-Text {
        color:#122036;
      }
      </style><style
       id="current-color-scheme-3"
       type="text/css">
      .ColorScheme-Text {
        color:#122036;
      }
      </style><style
       type="text/css"
       id="current-color-scheme-53562-8">
      .ColorScheme-Text {
        color:#122036;
      }
      </style><style
       id="current-color-scheme-5356-3"
       type="text/css">
      .ColorScheme-Text {
        color:#122036;
      }
      </style><style
       type="text/css"
       id="current-color-scheme-5-1">
      .ColorScheme-Text {
        color:#122036;
      }
      </style><style
       type="text/css"
       id="current-color-scheme-53-2">
      .ColorScheme-Text {
        color:#122036;
      }
      </style><style
       type="text/css"
       id="current-color-scheme-535-6">
      .ColorScheme-Text {
        color:#122036;
      }
      </style><style
       id="current-color-scheme-5-6"
       type="text/css">
      .ColorScheme-Text {
        color:#122036;
      }
      </style><style
       type="text/css"
       id="current-color-scheme-70">
      .ColorScheme-Text {
        color:#122036;
      }
      </style><style
       id="current-color-scheme-5-9"
       type="text/css">
      .ColorScheme-Text {
        color:#122036;
      }
      </style><style
       id="current-color-scheme-2-0"
       type="text/css">
      .ColorScheme-Text {
        color:#122036;
      }
      </style><style
       id="current-color-scheme-1-6"
       type="text/css">
      .ColorScheme-Text {
        color:#122036;
      }
      </style><style
       type="text/css"
       id="current-color-scheme-10-26">
      .ColorScheme-Text {
        color:#122036;
      }
      </style><style
       id="current-color-scheme-0-1"
       type="text/css">
      .ColorScheme-Text {
        color:#122036;
      }
      </style><style
       id="current-color-scheme-26-8"
       type="text/css">
      .ColorScheme-Text {
        color:#122036;
      }
      </style><style
       id="current-color-scheme-7-7"
       type="text/css">
      .ColorScheme-Text {
        color:#122036;
      }
      </style><style
       id="current-color-scheme-6-6"
       type="text/css">
      .ColorScheme-Text {
        color:#122036;
      }
      </style><style
       id="current-color-scheme-09"
       type="text/css">
      .ColorScheme-Text {
        color:#122036;
      }
      </style><style
       type="text/css"
       id="current-color-scheme-53562-3">
      .ColorScheme-Text {
        color:#122036;
      }
      </style><style
       id="current-color-scheme-5356-6"
       type="text/css">
      .ColorScheme-Text {
        color:#122036;
      }
      </style><style
       type="text/css"
       id="current-color-scheme-5-0">
      .ColorScheme-Text {
        color:#122036;
      }
      </style><style
       type="text/css"
       id="current-color-scheme-53-6">
      .ColorScheme-Text {
        color:#122036;
      }
      </style><style
       type="text/css"
       id="current-color-scheme-535-2">
      .ColorScheme-Text {
        color:#122036;
      }
      </style><style
       id="current-color-scheme-5-6-6"
       type="text/css">
      .ColorScheme-Text {
        color:#122036;
      }
      </style><style
       type="text/css"
       id="current-color-scheme-70-1">
      .ColorScheme-Text {
        color:#122036;
      }
      </style><style
       id="current-color-scheme-5-9-8"
       type="text/css">
      .ColorScheme-Text {
        color:#122036;
      }
      </style><style
       id="current-color-scheme-2-7-9"
       type="text/css">
      .ColorScheme-Text {
        color:#122036;
      }
      </style><style
       id="current-color-scheme-1-9"
       type="text/css">
      .ColorScheme-Text {
        color:#122036;
      }
      </style><style
       type="text/css"
       id="current-color-scheme-10-2">
      .ColorScheme-Text {
        color:#122036;
      }
      </style><style
       id="current-color-scheme-0-0"
       type="text/css">
      .ColorScheme-Text {
        color:#122036;
      }
      </style><style
       id="current-color-scheme-26-2"
       type="text/css">
      .ColorScheme-Text {
        color:#122036;
      }
      </style><style
       id="current-color-scheme-7-3"
       type="text/css">
      .ColorScheme-Text {
        color:#122036;
      }
      </style><style
       id="current-color-scheme-6-7"
       type="text/css">
      .ColorScheme-Text {
        color:#122036;
      }
      </style></defs><sodipodi:namedview
     id="base"
     pagecolor="#ffffff"
     bordercolor="#666666"
     borderopacity="1.0"
     inkscape:pageopacity="0.0"
     inkscape:pageshadow="2"
     inkscape:zoom="22.627418"
     inkscape:cx="20.992232"
     inkscape:cy="22.450639"
     inkscape:document-units="px"
     inkscape:current-layer="g9604"
     showgrid="true"
     units="px"
     inkscape:window-width="2560"
     inkscape:window-height="1363"
     inkscape:window-x="0"
     inkscape:window-y="0"
     inkscape:window-maximized="1"
     objecttolerance="10"
     gridtolerance="10"
     guidetolerance="10"
     inkscape:snap-bbox="true"
     inkscape:bbox-paths="true"
     inkscape:bbox-nodes="true"
     inkscape:snap-bbox-edge-midpoints="true"
     inkscape:snap-bbox-midpoints="true"
     inkscape:object-paths="true"
     inkscape:snap-intersection-paths="true"
     inkscape:showpageshadow="2"
     inkscape:pagecheckerboard="0"
     inkscape:deskcolor="#d1d1d1"><inkscape:grid
       type="xygrid"
       id="grid7897"
       empspacing="4" /></sodipodi:namedview><metadata
     id="metadata5"><rdf:RDF><cc:Work
         rdf:about=""><dc:format>image/svg+xml</dc:format><dc:type
           rdf:resource="http://purl.org/dc/dcmitype/StillImage" /><dc:title>Antu icon Theme</dc:title></cc:Work></rdf:RDF></metadata><g
     inkscape:label="Capa 1"
     inkscape:groupmode="layer"
     id="layer1"
     transform="translate(0,-266.64999)"><g
       id="g2217"
       transform="translate(30.000001,16.999985)"><g
         id="g9604"
         transform="translate(-28.999641,-24.000445)"><path
           id="path4625"
           style="fill:#90a4ae;fill-opacity:1;stroke:none;stroke-width:6;stroke-linecap:square;stroke-linejoin:round;stroke-miterlimit:18;stroke-dasharray:none;stroke-dashoffset:0;stroke-opacity:1;paint-order:markers stroke fill"
           d="m 18,275.6509 h -5 v 0.5 c 0,0.10387 -0.0113,0.20491 -0.0312,0.30273 -0.0199,0.0978 -0.0481,0.19147 -0.0859,0.28125 -0.0378,0.0898 -0.0849,0.17609 -0.13867,0.25586 -0.0538,0.0798 -0.11386,0.15488 -0.18164,0.22266 -0.0678,0.0678 -0.14288,0.12783 -0.22266,0.18164 -0.0798,0.0538 -0.16607,0.10082 -0.25586,0.13867 -0.0898,0.0378 -0.18342,0.066 -0.28125,0.0859 -0.0978,0.0199 -0.19886,0.0312 -0.30273,0.0312 -0.10387,0 -0.20491,-0.0113 -0.30273,-0.0312 -0.0978,-0.0199 -0.19147,-0.0481 -0.28125,-0.0859 -0.0898,-0.0378 -0.17609,-0.0849 -0.25586,-0.13867 -0.0798,-0.0538 -0.15488,-0.11386 -0.22266,-0.18164 -0.0678,-0.0678 -0.12783,-0.14288 -0.18164,-0.22266 -0.0538,-0.0798 -0.10082,-0.16607 -0.13867,-0.25586 -0.0378,-0.0898 -0.066,-0.18342 -0.0859,-0.28125 C 10.01133,276.35581 10,276.25477 10,276.1509 v -0.5 H 7 c -1.66199,-10e-6 -3,1.338 -3,3 v 4 h 0.5 c 0.10387,0 0.20491,0.0113 0.30273,0.0312 0.0978,0.0199 0.19147,0.0481 0.28125,0.0859 0.0898,0.0378 0.17609,0.0849 0.25586,0.13867 0.0798,0.0538 0.15488,0.11386 0.22266,0.18164 0.0678,0.0678 0.12783,0.14288 0.18164,0.22266 0.0538,0.0798 0.10082,0.16607 0.13867,0.25586 0.0378,0.0898 0.066,0.18342 0.0859,0.28125 0.0199,0.0978 0.0312,0.19886 0.0312,0.30273 0,0.10387 -0.0113,0.20491 -0.0312,0.30273 -0.0199,0.0978 -0.0481,0.19147 -0.0859,0.28125 -0.0378,0.0898 -0.0849,0.17609 -0.13867,0.25586 -0.0538,0.0798 -0.11386,0.15488 -0.18164,0.22266 -0.0678,0.0678 -0.14288,0.12783 -0.22266,0.18164 -0.0798,0.0538 -0.16607,0.10082 -0.25586,0.13867 -0.0898,0.0378 -0.18342,0.066 -0.28125,0.0859 -0.0978,0.0199 -0.19886,0.0312 -0.30273,0.0312 H 4 v 4 h 0.5 c 0.10387,0 0.20491,0.0113 0.30273,0.0312 0.0978,0.0199 0.19147,0.0481 0.28125,0.0859 0.0898,0.0378 0.17609,0.0849 0.25586,0.13867 0.0798,0.0538 0.15488,0.11386 0.22266,0.18164 0.0678,0.0678 0.12783,0.14288 0.18164,0.22266 0.0538,0.0798 0.10082,0.16607 0.13867,0.25586 0.0378,0.0898 0.066,0.18342 0.0859,0.28125 0.0199,0.0978 0.0312,0.19886 0.0312,0.30273 0,0.10387 -0.0113,0.20491 -0.0312,0.30273 -0.0199,0.0978 -0.0481,0.19147 -0.0859,0.28125 -0.0378,0.0898 -0.0849,0.17609 -0.13867,0.25586 -0.0538,0.0798 -0.11386,0.15488 -0.18164,0.22266 -0.0678,0.0678 -0.14288,0.12783 -0.22266,0.18164 -0.0798,0.0538 -0.16607,0.10082 -0.25586,0.13867 -0.0898,0.0379 -0.18342,0.066 -0.28125,0.0859 -0.0978,0.0199 -0.19886,0.0312 -0.30273,0.0312 H 4 v 4 h 0.5 c 0.10387,0 0.20491,0.0113 0.30273,0.0312 0.0978,0.0199 0.19147,0.0481 0.28125,0.0859 0.0898,0.0378 0.17609,0.0849 0.25586,0.13867 0.0798,0.0538 0.15488,0.11386 0.22266,0.18164 0.0678,0.0678 0.12783,0.14288 0.18164,0.22266 0.0538,0.0798 0.10082,0.16607 0.13867,0.25586 0.0378,0.0898 0.066,0.18342 0.0859,0.28125 0.0199,0.0978 0.0312,0.19886 0.0312,0.30273 0,0.10387 -0.0113,0.20491 -0.0312,0.30273 -0.0199,0.0978 -0.0481,0.19147 -0.0859,0.28125 -0.0378,0.0898 -0.0849,0.17609 -0.13867,0.25586 -0.0538,0.0798 -0.11386,0.15488 -0.18164,0.22266 -0.0678,0.0678 -0.14288,0.12783 -0.22266,0.18164 -0.0798,0.0538 -0.16607,0.10082 -0.25586,0.13867 -0.0898,0.0379 -0.18342,0.066 -0.28125,0.0859 -0.0978,0.0199 -0.19886,0.0312 -0.30273,0.0312 H 4 v 4 h 0.5 c 0.10387,0 0.20491,0.0113 0.30273,0.0312 0.0978,0.0199 0.19147,0.0481 0.28125,0.0859 0.0898,0.0378 0.17609,0.0849 0.25586,0.13867 0.0798,0.0538 0.15488,0.11386 0.22266,0.18164 0.0678,0.0678 0.12783,0.14288 0.18164,0.22266 0.0538,0.0798 0.10082,0.16607 0.13867,0.25586 0.0378,0.0898 0.066,0.18342 0.0859,0.28125 0.0199,0.0978 0.0312,0.19886 0.0312,0.30273 0,0.10387 -0.0113,0.20491 -0.0312,0.30273 -0.0199,0.0978 -0.0481,0.19147 -0.0859,0.28125 -0.0378,0.0898 -0.0849,0.17609 -0.13867,0.25586 -0.0538,0.0798 -0.11386,0.15488 -0.18164,0.22266 -0.0678,0.0678 -0.14288,0.12783 -0.22266,0.18164 -0.0798,0.0538 -0.16607,0.10082 -0.25586,0.13867 -0.0898,0.0379 -0.18342,0.066 -0.28125,0.0859 -0.0978,0.0199 -0.19886,0.0312 -0.30273,0.0312 H 4 v 4 h 0.5 c 0.10387,0 0.20491,0.0113 0.30273,0.0312 0.0978,0.0199 0.19147,0.0481 0.28125,0.0859 0.0898,0.0378 0.17609,0.0849 0.25586,0.13867 0.0798,0.0538 0.15488,0.11386 0.22266,0.18164 0.0678,0.0678 0.12783,0.14288 0.18164,0.22266 0.0538,0.0798 0.10082,0.16607 0.13867,0.25586 0.0378,0.0898 0.066,0.18342 0.0859,0.28125 0.0199,0.0978 0.0312,0.19886 0.0312,0.30273 0,0.10387 -0.0113,0.20491 -0.0312,0.30273 -0.0199,0.0978 -0.0481,0.19147 -0.0859,0.28125 -0.0378,0.0898 -0.0849,0.17609 -0.13867,0.25586 -0.0538,0.0798 -0.11386,0.15488 -0.18164,0.22266 -0.0678,0.0678 -0.14288,0.12783 -0.22266,0.18164 -0.0798,0.0538 -0.16607,0.10082 -0.25586,0.13867 -0.0898,0.0379 -0.18342,0.066 -0.28125,0.0859 C 4.70493,313.6387 4.60387,313.65 4.5,313.65 H 4 v 3 c 0,1.662 1.33801,3 3,3 h 2 v -0.5 c 0,-0.10387 0.0113,-0.20491 0.0312,-0.30273 0.0199,-0.0978 0.0481,-0.19147 0.0859,-0.28125 0.0378,-0.0898 0.0849,-0.17609 0.13867,-0.25586 0.0538,-0.0798 0.11386,-0.15488 0.18164,-0.22266 0.0678,-0.0678 0.14288,-0.12783 0.22266,-0.18164 0.0798,-0.0538 0.16607,-0.10082 0.25586,-0.13867 0.0898,-0.0379 0.18342,-0.066 0.28125,-0.0859 0.0978,-0.0199 0.19886,-0.0312 0.30273,-0.0312 0.10387,0 0.20491,0.0113 0.30273,0.0312 0.0978,0.0199 0.19147,0.0481 0.28125,0.0859 0.0898,0.0378 0.17609,0.0849 0.25586,0.13867 0.0798,0.0538 0.15488,0.11386 0.22266,0.18164 0.0678,0.0678 0.12783,0.14288 0.18164,0.22266 0.0538,0.0798 0.10082,0.16607 0.13867,0.25586 0.0378,0.0898 0.066,0.18342 0.0859,0.28125 0.0199,0.0978 0.0312,0.19886 0.0312,0.30273 v 0.5 h 5 v -0.5 c 0,-0.10387 0.0113,-0.20491 0.0312,-0.30273 0.0199,-0.0978 0.0481,-0.19147 0.0859,-0.28125 0.0378,-0.0898 0.0849,-0.17609 0.13867,-0.25586 0.0538,-0.0798 0.11386,-0.15488 0.18164,-0.22266 0.0678,-0.0678 0.14288,-0.12783 0.22266,-0.18164 0.0798,-0.0538 0.16607,-0.10082 0.25586,-0.13867 0.0898,-0.0379 0.18342,-0.066 0.28125,-0.0859 0.0978,-0.0199 0.19886,-0.0312 0.30273,-0.0312 0.10387,0 0.20491,0.0113 0.30273,0.0312 0.0978,0.0199 0.19147,0.0481 0.28125,0.0859 0.0898,0.0378 0.17609,0.0849 0.25586,0.13867 0.0798,0.0538 0.15488,0.11386 0.22266,0.18164 0.0678,0.0678 0.12783,0.14288 0.18164,0.22266 0.0538,0.0798 0.10082,0.16607 0.13867,0.25586 0.0378,0.0898 0.066,0.18342 0.0859,0.28125 0.0199,0.0978 0.0312,0.19886 0.0312,0.30273 v 0.5 h 5 v -0.5 c 0,-0.10387 0.0113,-0.20491 0.0312,-0.30273 0.0199,-0.0978 0.0481,-0.19147 0.0859,-0.28125 0.0378,-0.0898 0.0849,-0.17609 0.13867,-0.25586 0.0538,-0.0798 0.11386,-0.15488 0.18164,-0.22266 0.0678,-0.0678 0.14288,-0.12783 0.22266,-0.18164 0.0798,-0.0538 0.16607,-0.10082 0.25586,-0.13867 0.0898,-0.0379 0.18342,-0.066 0.28125,-0.0859 0.0978,-0.0199 0.19886,-0.0312 0.30273,-0.0312 0.10387,0 0.20491,0.0113 0.30273,0.0312 0.0978,0.0199 0.19147,0.0481 0.28125,0.0859 0.0898,0.0378 0.17609,0.0849 0.25586,0.13867 0.0798,0.0538 0.15488,0.11386 0.22266,0.18164 0.0678,0.0678 0.12783,0.14288 0.18164,0.22266 0.0538,0.0798 0.10082,0.16607 0.13867,0.25586 0.0378,0.0898 0.066,0.18342 0.0859,0.28125 0.0199,0.0978 0.0312,0.19886 0.0312,0.30273 v 0.5 h 5 v -0.5 c 0,-0.10387 0.0113,-0.20491 0.0312,-0.30273 0.0199,-0.0978 0.0481,-0.19147 0.0859,-0.28125 0.0378,-0.0898 0.0849,-0.17609 0.13867,-0.25586 0.0538,-0.0798 0.11386,-0.15488 0.18164,-0.22266 0.0678,-0.0678 0.14288,-0.12783 0.22266,-0.18164 0.0798,-0.0538 0.16607,-0.10082 0.25586,-0.13867 0.0898,-0.0379 0.18342,-0.066 0.28125,-0.0859 0.0978,-0.0199 0.19886,-0.0312 0.30273,-0.0312 0.10387,0 0.20491,0.0113 0.30273,0.0312 0.0978,0.0199 0.19147,0.0481 0.28125,0.0859 0.0898,0.0378 0.17609,0.0849 0.25586,0.13867 0.0798,0.0538 0.15488,0.11386 0.22266,0.18164 0.0678,0.0678 0.12783,0.14288 0.18164,0.22266 0.0538,0.0798 0.10082,0.16607 0.13867,0.25586 0.0378,0.0898 0.066,0.18342 0.0859,0.28125 0.0199,0.0978 0.0312,0.19886 0.0312,0.30273 v 0.5 h 3 c 1.662,0 3,-1.338 3,-3 v -3 h -0.5 c -0.10387,0 -0.20491,-0.0113 -0.30273,-0.0312 -0.0978,-0.0199 -0.19147,-0.0481 -0.28125,-0.0859 -0.0898,-0.0378 -0.17609,-0.0849 -0.25586,-0.13867 -0.0798,-0.0538 -0.15488,-0.11386 -0.22266,-0.18164 -0.0678,-0.0678 -0.12783,-0.14288 -0.18164,-0.22266 -0.0538,-0.0798 -0.10082,-0.16607 -0.13867,-0.25586 -0.0378,-0.0898 -0.066,-0.18342 -0.0859,-0.28125 -0.0199,-0.0978 -0.0312,-0.19886 -0.0312,-0.30273 0,-0.10387 0.0113,-0.20491 0.0312,-0.30273 0.0199,-0.0978 0.0481,-0.19147 0.0859,-0.28125 0.0378,-0.0898 0.0849,-0.17609 0.13867,-0.25586 0.0538,-0.0798 0.11386,-0.15488 0.18164,-0.22266 0.0678,-0.0678 0.14288,-0.12783 0.22266,-0.18164 0.0798,-0.0538 0.16607,-0.10082 0.25586,-0.13867 0.0898,-0.0379 0.18342,-0.066 0.28125,-0.0859 0.0978,-0.0199 0.19886,-0.0312 0.30273,-0.0312 h 0.5 v -4 h -0.5 c -0.10387,0 -0.20491,-0.0113 -0.30273,-0.0312 -0.0978,-0.0199 -0.19147,-0.0481 -0.28125,-0.0859 -0.0898,-0.0378 -0.17609,-0.0849 -0.25586,-0.13867 -0.0798,-0.0538 -0.15488,-0.11386 -0.22266,-0.18164 -0.0678,-0.0678 -0.12783,-0.14288 -0.18164,-0.22266 -0.0538,-0.0798 -0.10082,-0.16607 -0.13867,-0.25586 -0.0378,-0.0898 -0.066,-0.18342 -0.0859,-0.28125 -0.0199,-0.0978 -0.0312,-0.19886 -0.0312,-0.30273 0,-0.10387 0.0113,-0.20491 0.0312,-0.30273 0.0199,-0.0978 0.0481,-0.19147 0.0859,-0.28125 0.0378,-0.0898 0.0849,-0.17609 0.13867,-0.25586 0.0538,-0.0798 0.11386,-0.15488 0.18164,-0.22266 0.0678,-0.0678 0.14288,-0.12783 0.22266,-0.18164 0.0798,-0.0538 0.16607,-0.10082 0.25586,-0.13867 0.0898,-0.0379 0.18342,-0.066 0.28125,-0.0859 0.0978,-0.0199 0.19886,-0.0312 0.30273,-0.0312 h 0.5 v -4 h -0.5 c -0.10387,0 -0.20491,-0.0113 -0.30273,-0.0312 -0.0978,-0.0199 -0.19147,-0.0481 -0.28125,-0.0859 -0.0898,-0.0378 -0.17609,-0.0849 -0.25586,-0.13867 -0.0798,-0.0538 -0.15488,-0.11386 -0.22266,-0.18164 -0.0678,-0.0678 -0.12783,-0.14288 -0.18164,-0.22266 -0.0538,-0.0798 -0.10082,-0.16607 -0.13867,-0.25586 -0.0378,-0.0898 -0.066,-0.18342 -0.0859,-0.28125 -0.0199,-0.0978 -0.0312,-0.19886 -0.0312,-0.30273 0,-0.10387 0.0113,-0.20491 0.0312,-0.30273 0.0199,-0.0978 0.0481,-0.19147 0.0859,-0.28125 0.0378,-0.0898 0.0849,-0.17609 0.13867,-0.25586 0.0538,-0.0798 0.11386,-0.15488 0.18164,-0.22266 0.0678,-0.0678 0.14288,-0.12783 0.22266,-0.18164 0.0798,-0.0538 0.16607,-0.10082 0.25586,-0.13867 0.0898,-0.0379 0.18342,-0.066 0.28125,-0.0859 0.0978,-0.0199 0.19886,-0.0312 0.30273,-0.0312 h 0.5 v -4 h -0.5 c -0.10387,0 -0.20491,-0.0113 -0.30273,-0.0312 -0.0978,-0.0199 -0.19147,-0.0481 -0.28125,-0.0859 -0.0898,-0.0378 -0.17609,-0.0849 -0.25586,-0.13867 -0.0798,-0.0538 -0.15488,-0.11386 -0.22266,-0.18164 -0.0678,-0.0678 -0.12783,-0.14288 -0.18164,-0.22266 -0.0538,-0.0798 -0.10082,-0.16607 -0.13867,-0.25586 -0.0378,-0.0898 -0.066,-0.18342 -0.0859,-0.28125 -0.0199,-0.0978 -0.0312,-0.19886 -0.0312,-0.30273 0,-0.10387 0.0113,-0.20491 0.0312,-0.30273 0.0199,-0.0978 0.0481,-0.19147 0.0859,-0.28125 0.0378,-0.0898 0.0849,-0.17609 0.13867,-0.25586 0.0538,-0.0798 0.11386,-0.15488 0.18164,-0.22266 0.0678,-0.0678 0.14288,-0.12783 0.22266,-0.18164 0.0798,-0.0538 0.16607,-0.10082 0.25586,-0.13867 0.0898,-0.0378 0.18342,-0.066 0.28125,-0.0859 0.0978,-0.0199 0.19886,-0.0312 0.30273,-0.0312 h 0.5 v -4 h -0.5 c -0.10387,0 -0.20491,-0.0113 -0.30273,-0.0312 -0.0978,-0.0199 -0.19147,-0.0481 -0.28125,-0.0859 -0.0898,-0.0378 -0.17609,-0.0849 -0.25586,-0.13867 -0.0798,-0.0538 -0.15488,-0.11386 -0.22266,-0.18164 -0.0678,-0.0678 -0.12783,-0.14288 -0.18164,-0.22266 -0.0538,-0.0798 -0.10082,-0.16607 -0.13867,-0.25586 -0.0378,-0.0898 -0.066,-0.18342 -0.0859,-0.28125 -0.0199,-0.0978 -0.0312,-0.19886 -0.0312,-0.30273 0,-0.10387 0.0113,-0.20491 0.0312,-0.30273 0.0199,-0.0978 0.0481,-0.19147 0.0859,-0.28125 0.0378,-0.0898 0.0849,-0.17609 0.13867,-0.25586 0.0538,-0.0798 0.11386,-0.15488 0.18164,-0.22266 0.0678,-0.0678 0.14288,-0.12783 0.22266,-0.18164 0.0798,-0.0538 0.16607,-0.10082 0.25586,-0.13867 0.0898,-0.0378 0.18342,-0.066 0.28125,-0.0859 0.0978,-0.0199 0.19886,-0.0312 0.30273,-0.0312 h 0.5 v -4 c 0,-1.66201 -1.338,-3 -3,-3 h -2 v 0.5 c 0,0.10387 -0.0113,0.20491 -0.0312,0.30273 -0.0199,0.0978 -0.0481,0.19147 -0.0859,0.28125 -0.0378,0.0898 -0.0849,0.17609 -0.13867,0.25586 -0.0538,0.0798 -0.11386,0.15488 -0.18164,0.22266 -0.0678,0.0678 -0.14288,0.12783 -0.22266,0.18164 -0.0798,0.0538 -0.16607,0.10082 -0.25586,0.13867 -0.0898,0.0378 -0.18342,0.066 -0.28125,0.0859 -0.0978,0.0199 -0.19886,0.0312 -0.30273,0.0312 -0.10387,0 -0.20491,-0.0113 -0.30273,-0.0312 -0.0978,-0.0199 -0.19147,-0.0481 -0.28125,-0.0859 -0.0898,-0.0378 -0.17609,-0.0849 -0.25586,-0.13867 -0.0798,-0.0538 -0.15488,-0.11386 -0.22266,-0.18164 -0.0678,-0.0678 -0.12783,-0.14288 -0.18164,-0.22266 -0.0538,-0.0798 -0.10082,-0.16607 -0.13867,-0.25586 -0.0378,-0.0898 -0.066,-0.18342 -0.0859,-0.28125 C 34.01133,276.35581 34,276.25477 34,276.1509 v -0.5 h -5 v 0.5 c 0,0.10387 -0.0113,0.20491 -0.0312,0.30273 -0.0199,0.0978 -0.0481,0.19147 -0.0859,0.28125 -0.0378,0.0898 -0.0849,0.17609 -0.13867,0.25586 -0.0538,0.0798 -0.11386,0.15488 -0.18164,0.22266 -0.0678,0.0678 -0.14288,0.12783 -0.22266,0.18164 -0.0798,0.0538 -0.16607,0.10082 -0.25586,0.13867 -0.0898,0.0378 -0.18342,0.066 -0.28125,0.0859 -0.0978,0.0199 -0.19886,0.0312 -0.30273,0.0312 -0.10387,0 -0.20491,-0.0113 -0.30273,-0.0312 -0.0978,-0.0199 -0.19147,-0.0481 -0.28125,-0.0859 -0.0898,-0.0378 -0.17609,-0.0849 -0.25586,-0.13867 -0.0798,-0.0538 -0.15488,-0.11386 -0.22266,-0.18164 -0.0678,-0.0678 -0.12783,-0.14288 -0.18164,-0.22266 -0.0538,-0.0798 -0.10082,-0.16607 -0.13867,-0.25586 -0.0378,-0.0898 -0.066,-0.18342 -0.0859,-0.28125 C 26.01133,276.35581 26,276.25477 26,276.1509 v -0.5 h -5 v 0.5 c 0,0.10387 -0.0113,0.20491 -0.0312,0.30273 -0.0199,0.0978 -0.0481,0.19147 -0.0859,0.28125 -0.0378,0.0898 -0.0849,0.17609 -0.13867,0.25586 -0.0538,0.0798 -0.11386,0.15488 -0.18164,0.22266 -0.0678,0.0678 -0.14288,0.12783 -0.22266,0.18164 -0.0798,0.0538 -0.16607,0.10082 -0.25586,0.13867 -0.0898,0.0378 -0.18342,0.066 -0.28125,0.0859 -0.0978,0.0199 -0.19886,0.0312 -0.30273,0.0312 -0.10387,0 -0.20491,-0.0113 -0.30273,-0.0312 -0.0978,-0.0199 -0.19147,-0.0481 -0.28125,-0.0859 -0.0898,-0.0378 -0.17609,-0.0849 -0.25586,-0.13867 -0.0798,-0.0538 -0.15488,-0.11386 -0.22266,-0.18164 -0.0678,-0.0678 -0.12783,-0.14288 -0.18164,-0.22266 -0.0538,-0.0798 -0.10082,-0.16607 -0.13867,-0.25586 -0.0378,-0.0898 -0.066,-0.18342 -0.0859,-0.28125 C 18.01133,276.35581 18,276.25477 18,276.1509 Z" /><path
           id="path4545"
           style="fill:url(#linearGradient1608);fill-opacity:1;stroke:none;stroke-width:6;stroke-linecap:square;stroke-linejoin:round;stroke-miterlimit:18;stroke-dasharray:none;stroke-dashoffset:0;stroke-opacity:1;paint-order:markers stroke fill"
           d="m 7,276.6509 c -1.10799,-10e-6 -2,0.892 -2,2 v 3.05078 c 0.002,3.8e-4 0.004,-3.8e-4 0.006,0 0.16304,0.0332 0.3191,0.0815 0.46875,0.14453 0.14965,0.0631 0.29282,0.14079 0.42578,0.23047 0.13296,0.0897 0.25617,0.19172 0.36914,0.30469 0.11297,0.11297 0.21501,0.23618 0.30469,0.36914 0.0897,0.13296 0.16738,0.27613 0.23047,0.42578 0.0631,0.14965 0.11134,0.30571 0.14453,0.46875 0.0332,0.16304 0.0508,0.33274 0.0508,0.50586 0,0.17312 -0.0176,0.34282 -0.0508,0.50586 -0.0332,0.16304 -0.0815,0.3191 -0.14453,0.46875 -0.0631,0.14965 -0.14079,0.29282 -0.23047,0.42578 -0.0897,0.13296 -0.19172,0.25617 -0.30469,0.36914 -0.11297,0.11297 -0.23618,0.21501 -0.36914,0.30469 -0.13296,0.0897 -0.27613,0.16738 -0.42578,0.23047 -0.14965,0.0631 -0.30571,0.11134 -0.46875,0.14453 -0.002,3.8e-4 -0.004,-3.8e-4 -0.006,0 v 2.10156 c 0.002,3.8e-4 0.004,-3.8e-4 0.006,0 0.16304,0.0332 0.3191,0.0815 0.46875,0.14453 0.14965,0.0631 0.29282,0.14079 0.42578,0.23047 0.13296,0.0897 0.25617,0.19172 0.36914,0.30469 0.11297,0.11297 0.21501,0.23618 0.30469,0.36914 0.0897,0.13296 0.16738,0.27613 0.23047,0.42578 0.0631,0.14965 0.11134,0.30571 0.14453,0.46875 0.0332,0.16304 0.0508,0.33274 0.0508,0.50586 0,0.17312 -0.0176,0.34282 -0.0508,0.50586 -0.0332,0.16304 -0.0815,0.3191 -0.14453,0.46875 -0.0631,0.14965 -0.14079,0.29282 -0.23047,0.42578 -0.0897,0.13296 -0.19172,0.25617 -0.30469,0.36914 -0.11297,0.11297 -0.23618,0.21501 -0.36914,0.30469 -0.13296,0.0897 -0.27613,0.16738 -0.42578,0.23047 -0.14965,0.0631 -0.30571,0.11134 -0.46875,0.14453 -0.002,3.8e-4 -0.004,-3.8e-4 -0.006,0 v 2.10156 c 0.002,3.8e-4 0.004,-3.8e-4 0.006,0 0.16304,0.0332 0.3191,0.0815 0.46875,0.14453 0.14965,0.0631 0.29282,0.14079 0.42578,0.23047 0.13296,0.0897 0.25617,0.19172 0.36914,0.30469 0.11297,0.11297 0.21501,0.23618 0.30469,0.36914 0.0897,0.13296 0.16738,0.27613 0.23047,0.42578 0.0631,0.14965 0.11134,0.30571 0.14453,0.46875 0.0332,0.16304 0.0508,0.33274 0.0508,0.50586 0,0.17312 -0.0176,0.34282 -0.0508,0.50586 -0.0332,0.16304 -0.0815,0.3191 -0.14453,0.46875 -0.0631,0.14965 -0.14079,0.29282 -0.23047,0.42578 -0.0897,0.13296 -0.19172,0.25617 -0.30469,0.36914 -0.11297,0.11297 -0.23618,0.21501 -0.36914,0.30469 -0.13296,0.0897 -0.27613,0.16738 -0.42578,0.23047 -0.14965,0.0631 -0.30571,0.11134 -0.46875,0.14453 -0.002,3.8e-4 -0.004,-3.8e-4 -0.006,0 v 2.10156 c 0.002,3.8e-4 0.004,-3.8e-4 0.006,0 0.16304,0.0332 0.3191,0.0815 0.46875,0.14453 0.14965,0.0631 0.29282,0.14079 0.42578,0.23047 0.13296,0.0897 0.25617,0.19172 0.36914,0.30469 0.11297,0.11297 0.21501,0.23618 0.30469,0.36914 0.0897,0.13296 0.16738,0.27613 0.23047,0.42578 0.0631,0.14965 0.11134,0.30571 0.14453,0.46875 0.0332,0.16304 0.0508,0.33274 0.0508,0.50586 0,0.17312 -0.0176,0.34282 -0.0508,0.50586 -0.0332,0.16304 -0.0815,0.3191 -0.14453,0.46875 -0.0631,0.14965 -0.14079,0.29282 -0.23047,0.42578 -0.0897,0.13296 -0.19172,0.25617 -0.30469,0.36914 -0.11297,0.11297 -0.23618,0.21501 -0.36914,0.30469 -0.13296,0.0897 -0.27613,0.16738 -0.42578,0.23047 -0.14965,0.0631 -0.30571,0.11134 -0.46875,0.14453 -0.002,3.8e-4 -0.004,-3.8e-4 -0.006,0 v 2.10156 c 0.002,3.8e-4 0.004,-3.8e-4 0.006,0 0.16304,0.0332 0.3191,0.0815 0.46875,0.14453 0.14965,0.0631 0.29282,0.14079 0.42578,0.23047 0.13296,0.0897 0.25617,0.19172 0.36914,0.30469 0.11297,0.11297 0.21501,0.23618 0.30469,0.36914 0.0897,0.13296 0.16738,0.27613 0.23047,0.42578 0.0631,0.14965 0.11134,0.30571 0.14453,0.46875 0.0332,0.16304 0.0508,0.33274 0.0508,0.50586 0,0.17312 -0.0176,0.34282 -0.0508,0.50586 -0.0332,0.16304 -0.0815,0.3191 -0.14453,0.46875 -0.0631,0.14965 -0.14079,0.29282 -0.23047,0.42578 -0.0897,0.13296 -0.19172,0.25617 -0.30469,0.36914 -0.11297,0.11297 -0.23618,0.21501 -0.36914,0.30469 -0.13296,0.0897 -0.27613,0.16738 -0.42578,0.23047 -0.14965,0.0631 -0.30571,0.11134 -0.46875,0.14453 -0.002,3.8e-4 -0.004,-3.8e-4 -0.006,0 v 2.05078 c 0,1.108 0.89201,2 2,2 h 1.05078 c 3.8e-4,-0.002 -3.8e-4,-0.004 0,-0.006 0.0332,-0.16304 0.0815,-0.3191 0.14453,-0.46875 0.0631,-0.14965 0.14079,-0.29282 0.23047,-0.42578 0.0897,-0.13296 0.19172,-0.25617 0.30469,-0.36914 0.11297,-0.11297 0.23618,-0.21501 0.36914,-0.30469 0.13296,-0.0897 0.27613,-0.16738 0.42578,-0.23047 0.14965,-0.0631 0.30571,-0.11134 0.46875,-0.14453 0.16304,-0.0332 0.33274,-0.0508 0.50586,-0.0508 0.17312,0 0.34282,0.0176 0.50586,0.0508 0.16304,0.0332 0.3191,0.0815 0.46875,0.14453 0.14965,0.0631 0.29282,0.14079 0.42578,0.23047 0.13296,0.0897 0.25617,0.19172 0.36914,0.30469 0.11297,0.11297 0.21501,0.23618 0.30469,0.36914 0.0897,0.13296 0.16738,0.27613 0.23047,0.42578 0.0631,0.14965 0.11134,0.30571 0.14453,0.46875 3.8e-4,0.002 -3.8e-4,0.004 0,0.006 h 3.10156 c 3.8e-4,-0.002 -3.8e-4,-0.004 0,-0.006 0.0332,-0.16304 0.0815,-0.3191 0.14453,-0.46875 0.0631,-0.14965 0.14079,-0.29282 0.23047,-0.42578 0.0897,-0.13296 0.19172,-0.25617 0.30469,-0.36914 0.11297,-0.11297 0.23618,-0.21501 0.36914,-0.30469 0.13296,-0.0897 0.27613,-0.16738 0.42578,-0.23047 0.14965,-0.0631 0.30571,-0.11134 0.46875,-0.14453 0.16304,-0.0332 0.33274,-0.0508 0.50586,-0.0508 0.17312,0 0.34282,0.0176 0.50586,0.0508 0.16304,0.0332 0.3191,0.0815 0.46875,0.14453 0.14965,0.0631 0.29282,0.14079 0.42578,0.23047 0.13296,0.0897 0.25617,0.19172 0.36914,0.30469 0.11297,0.11297 0.21501,0.23618 0.30469,0.36914 0.0897,0.13296 0.16738,0.27613 0.23047,0.42578 0.0631,0.14965 0.11134,0.30571 0.14453,0.46875 3.8e-4,0.002 -3.8e-4,0.004 0,0.006 h 3.10156 c 3.8e-4,-0.002 -3.8e-4,-0.004 0,-0.006 0.0332,-0.16304 0.0815,-0.3191 0.14453,-0.46875 0.0631,-0.14965 0.14079,-0.29282 0.23047,-0.42578 0.0897,-0.13296 0.19172,-0.25617 0.30469,-0.36914 0.11297,-0.11297 0.23618,-0.21501 0.36914,-0.30469 0.13296,-0.0897 0.27613,-0.16738 0.42578,-0.23047 0.14965,-0.0631 0.30571,-0.11134 0.46875,-0.14453 0.16304,-0.0332 0.33274,-0.0508 0.50586,-0.0508 0.17312,0 0.34282,0.0176 0.50586,0.0508 0.16304,0.0332 0.3191,0.0815 0.46875,0.14453 0.14965,0.0631 0.29282,0.14079 0.42578,0.23047 0.13296,0.0897 0.25617,0.19172 0.36914,0.30469 0.11297,0.11297 0.21501,0.23618 0.30469,0.36914 0.0897,0.13296 0.16738,0.27613 0.23047,0.42578 0.0631,0.14965 0.11134,0.30571 0.14453,0.46875 3.8e-4,0.002 -3.8e-4,0.004 0,0.006 h 3.10156 c 3.8e-4,-0.002 -3.8e-4,-0.004 0,-0.006 0.0332,-0.16304 0.0815,-0.3191 0.14453,-0.46875 0.0631,-0.14965 0.14079,-0.29282 0.23047,-0.42578 0.0897,-0.13296 0.19172,-0.25617 0.30469,-0.36914 0.11297,-0.11297 0.23618,-0.21501 0.36914,-0.30469 0.13296,-0.0897 0.27613,-0.16738 0.42578,-0.23047 0.14965,-0.0631 0.30571,-0.11134 0.46875,-0.14453 0.16304,-0.0332 0.33274,-0.0508 0.50586,-0.0508 0.17312,0 0.34282,0.0176 0.50586,0.0508 0.16304,0.0332 0.3191,0.0815 0.46875,0.14453 0.14965,0.0631 0.29282,0.14079 0.42578,0.23047 0.13296,0.0897 0.25617,0.19172 0.36914,0.30469 0.11297,0.11297 0.21501,0.23618 0.30469,0.36914 0.0897,0.13296 0.16738,0.27613 0.23047,0.42578 0.0631,0.14965 0.11134,0.30571 0.14453,0.46875 3.8e-4,0.002 -3.8e-4,0.004 0,0.006 H 39 c 1.108,0 2,-0.892 2,-2 v -2.05078 c -0.002,-3.8e-4 -0.004,3.8e-4 -0.006,0 -0.16304,-0.0332 -0.3191,-0.0815 -0.46875,-0.14453 -0.14965,-0.0631 -0.29282,-0.14079 -0.42578,-0.23047 -0.13296,-0.0897 -0.25617,-0.19172 -0.36914,-0.30469 -0.11297,-0.11297 -0.21501,-0.23618 -0.30469,-0.36914 -0.0897,-0.13296 -0.16738,-0.27613 -0.23047,-0.42578 -0.0631,-0.14965 -0.11134,-0.30571 -0.14453,-0.46875 -0.0332,-0.16304 -0.0508,-0.33274 -0.0508,-0.50586 0,-0.17312 0.0176,-0.34282 0.0508,-0.50586 0.0332,-0.16304 0.0815,-0.3191 0.14453,-0.46875 0.0631,-0.14965 0.14079,-0.29282 0.23047,-0.42578 0.0897,-0.13296 0.19172,-0.25617 0.30469,-0.36914 0.11297,-0.11297 0.23618,-0.21501 0.36914,-0.30469 0.13296,-0.0897 0.27613,-0.16738 0.42578,-0.23047 0.14965,-0.0631 0.30571,-0.11134 0.46875,-0.14453 0.002,-3.8e-4 0.004,3.8e-4 0.006,0 v -2.10156 c -0.002,-3.8e-4 -0.004,3.8e-4 -0.006,0 -0.16304,-0.0332 -0.3191,-0.0815 -0.46875,-0.14453 -0.14965,-0.0631 -0.29282,-0.14079 -0.42578,-0.23047 -0.13296,-0.0897 -0.25617,-0.19172 -0.36914,-0.30469 -0.11297,-0.11297 -0.21501,-0.23618 -0.30469,-0.36914 -0.0897,-0.13296 -0.16738,-0.27613 -0.23047,-0.42578 -0.0631,-0.14965 -0.11134,-0.30571 -0.14453,-0.46875 -0.0332,-0.16304 -0.0508,-0.33274 -0.0508,-0.50586 0,-0.17312 0.0176,-0.34282 0.0508,-0.50586 0.0332,-0.16304 0.0815,-0.3191 0.14453,-0.46875 0.0631,-0.14965 0.14079,-0.29282 0.23047,-0.42578 0.0897,-0.13296 0.19172,-0.25617 0.30469,-0.36914 0.11297,-0.11297 0.23618,-0.21501 0.36914,-0.30469 0.13296,-0.0897 0.27613,-0.16738 0.42578,-0.23047 0.14965,-0.0631 0.30571,-0.11134 0.46875,-0.14453 0.002,-3.8e-4 0.004,3.8e-4 0.006,0 v -2.10156 c -0.002,-3.8e-4 -0.004,3.8e-4 -0.006,0 -0.16304,-0.0332 -0.3191,-0.0815 -0.46875,-0.14453 -0.14965,-0.0631 -0.29282,-0.14079 -0.42578,-0.23047 -0.13296,-0.0897 -0.25617,-0.19172 -0.36914,-0.30469 -0.11297,-0.11297 -0.21501,-0.23618 -0.30469,-0.36914 -0.0897,-0.13296 -0.16738,-0.27613 -0.23047,-0.42578 -0.0631,-0.14965 -0.11134,-0.30571 -0.14453,-0.46875 -0.0332,-0.16304 -0.0508,-0.33274 -0.0508,-0.50586 0,-0.17312 0.0176,-0.34282 0.0508,-0.50586 0.0332,-0.16304 0.0815,-0.3191 0.14453,-0.46875 0.0631,-0.14965 0.14079,-0.29282 0.23047,-0.42578 0.0897,-0.13296 0.19172,-0.25617 0.30469,-0.36914 0.11297,-0.11297 0.23618,-0.21501 0.36914,-0.30469 0.13296,-0.0897 0.27613,-0.16738 0.42578,-0.23047 0.14965,-0.0631 0.30571,-0.11134 0.46875,-0.14453 0.002,-3.8e-4 0.004,3.8e-4 0.006,0 v -2.10156 c -0.002,-3.8e-4 -0.004,3.8e-4 -0.006,0 -0.16304,-0.0332 -0.3191,-0.0815 -0.46875,-0.14453 -0.14965,-0.0631 -0.29282,-0.14079 -0.42578,-0.23047 -0.13296,-0.0897 -0.25617,-0.19172 -0.36914,-0.30469 -0.11297,-0.11297 -0.21501,-0.23618 -0.30469,-0.36914 -0.0897,-0.13296 -0.16738,-0.27613 -0.23047,-0.42578 -0.0631,-0.14965 -0.11134,-0.30571 -0.14453,-0.46875 -0.0332,-0.16304 -0.0508,-0.33274 -0.0508,-0.50586 0,-0.17312 0.0176,-0.34282 0.0508,-0.50586 0.0332,-0.16304 0.0815,-0.3191 0.14453,-0.46875 0.0631,-0.14965 0.14079,-0.29282 0.23047,-0.42578 0.0897,-0.13296 0.19172,-0.25617 0.30469,-0.36914 0.11297,-0.11297 0.23618,-0.21501 0.36914,-0.30469 0.13296,-0.0897 0.27613,-0.16738 0.42578,-0.23047 0.14965,-0.0631 0.30571,-0.11134 0.46875,-0.14453 0.002,-3.8e-4 0.004,3.8e-4 0.006,0 v -2.10156 c -0.002,-3.8e-4 -0.004,3.8e-4 -0.006,0 -0.16304,-0.0332 -0.3191,-0.0815 -0.46875,-0.14453 -0.14965,-0.0631 -0.29282,-0.14079 -0.42578,-0.23047 -0.13296,-0.0897 -0.25617,-0.19172 -0.36914,-0.30469 -0.11297,-0.11297 -0.21501,-0.23618 -0.30469,-0.36914 -0.0897,-0.13296 -0.16738,-0.27613 -0.23047,-0.42578 -0.0631,-0.14965 -0.11134,-0.30571 -0.14453,-0.46875 -0.0332,-0.16304 -0.0508,-0.33274 -0.0508,-0.50586 0,-0.17312 0.0176,-0.34282 0.0508,-0.50586 0.0332,-0.16304 0.0815,-0.3191 0.14453,-0.46875 0.0631,-0.14965 0.14079,-0.29282 0.23047,-0.42578 0.0897,-0.13296 0.19172,-0.25617 0.30469,-0.36914 0.11297,-0.11297 0.23618,-0.21501 0.36914,-0.30469 0.13296,-0.0897 0.27613,-0.16738 0.42578,-0.23047 0.14965,-0.0631 0.30571,-0.11134 0.46875,-0.14453 0.002,-3.8e-4 0.004,3.8e-4 0.006,0 v -3.05078 c 0,-1.10801 -0.892,-2 -2,-2 h -1.05078 c -3.8e-4,0.002 3.8e-4,0.004 0,0.006 -0.0332,0.16304 -0.0815,0.3191 -0.14453,0.46875 -0.0631,0.14965 -0.14079,0.29282 -0.23047,0.42578 -0.0897,0.13296 -0.19172,0.25617 -0.30469,0.36914 -0.11297,0.11297 -0.23618,0.21501 -0.36914,0.30469 -0.13296,0.0897 -0.27613,0.16738 -0.42578,0.23047 -0.14965,0.0631 -0.30571,0.11134 -0.46875,0.14453 -0.16304,0.0332 -0.33274,0.0508 -0.50586,0.0508 -0.17312,0 -0.34282,-0.0176 -0.50586,-0.0508 -0.16304,-0.0332 -0.3191,-0.0815 -0.46875,-0.14453 -0.14965,-0.0631 -0.29282,-0.14079 -0.42578,-0.23047 -0.13296,-0.0897 -0.25617,-0.19172 -0.36914,-0.30469 -0.11297,-0.11297 -0.21501,-0.23618 -0.30469,-0.36914 -0.0897,-0.13296 -0.16738,-0.27613 -0.23047,-0.42578 -0.0631,-0.14965 -0.11134,-0.30571 -0.14453,-0.46875 -3.8e-4,-0.002 3.8e-4,-0.004 0,-0.006 h -3.10156 c -3.8e-4,0.002 3.8e-4,0.004 0,0.006 -0.0332,0.16304 -0.0815,0.3191 -0.14453,0.46875 -0.0631,0.14965 -0.14079,0.29282 -0.23047,0.42578 -0.0897,0.13296 -0.19172,0.25617 -0.30469,0.36914 -0.11297,0.11297 -0.23618,0.21501 -0.36914,0.30469 -0.13296,0.0897 -0.27613,0.16738 -0.42578,0.23047 -0.14965,0.0631 -0.30571,0.11134 -0.46875,0.14453 -0.16304,0.0332 -0.33274,0.0508 -0.50586,0.0508 -0.17312,0 -0.34282,-0.0176 -0.50586,-0.0508 -0.16304,-0.0332 -0.3191,-0.0815 -0.46875,-0.14453 -0.14965,-0.0631 -0.29282,-0.14079 -0.42578,-0.23047 -0.13296,-0.0897 -0.25617,-0.19172 -0.36914,-0.30469 -0.11297,-0.11297 -0.21501,-0.23618 -0.30469,-0.36914 -0.0897,-0.13296 -0.16738,-0.27613 -0.23047,-0.42578 -0.0631,-0.14965 -0.11134,-0.30571 -0.14453,-0.46875 -3.8e-4,-0.002 3.8e-4,-0.004 0,-0.006 h -3.10156 c -3.8e-4,0.002 3.8e-4,0.004 0,0.006 -0.0332,0.16304 -0.0815,0.3191 -0.14453,0.46875 -0.0631,0.14965 -0.14079,0.29282 -0.23047,0.42578 -0.0897,0.13296 -0.19172,0.25617 -0.30469,0.36914 -0.11297,0.11297 -0.23618,0.21501 -0.36914,0.30469 -0.13296,0.0897 -0.27613,0.16738 -0.42578,0.23047 -0.14965,0.0631 -0.30571,0.11134 -0.46875,0.14453 -0.16304,0.0332 -0.33274,0.0508 -0.50586,0.0508 -0.17312,0 -0.34282,-0.0176 -0.50586,-0.0508 -0.16304,-0.0332 -0.3191,-0.0815 -0.46875,-0.14453 -0.14965,-0.0631 -0.29282,-0.14079 -0.42578,-0.23047 -0.13296,-0.0897 -0.25617,-0.19172 -0.36914,-0.30469 -0.11297,-0.11297 -0.21501,-0.23618 -0.30469,-0.36914 -0.0897,-0.13296 -0.16738,-0.27613 -0.23047,-0.42578 -0.0631,-0.14965 -0.11134,-0.30571 -0.14453,-0.46875 -3.8e-4,-0.002 3.8e-4,-0.004 0,-0.006 h -3.09961 c -3.9e-4,0.002 -0.002,0.004 -0.002,0.006 -0.008,0.0408 -0.0171,0.0811 -0.0273,0.12109 -0.0102,0.04 -0.0211,0.078 -0.0332,0.11719 -0.0121,0.0392 -0.0251,0.0789 -0.0391,0.11719 -0.014,0.0383 -0.0291,0.0759 -0.0449,0.11328 -0.0158,0.0374 -0.0333,0.0749 -0.0508,0.11133 -0.0175,0.0364 -0.0355,0.072 -0.0547,0.10742 -0.0192,0.0354 -0.0397,0.0711 -0.0606,0.10547 -0.0208,0.0344 -0.042,0.0683 -0.0644,0.10156 -0.0224,0.0332 -0.0464,0.0656 -0.0703,0.0977 -0.024,0.0321 -0.0488,0.0629 -0.0742,0.0937 -0.0254,0.0308 -0.0513,0.0622 -0.0781,0.0918 -0.0269,0.0296 -0.0538,0.0577 -0.082,0.0859 -0.0282,0.0282 -0.0564,0.0552 -0.0859,0.082 -0.0296,0.0269 -0.0609,0.0527 -0.0918,0.0781 -0.0308,0.0254 -0.0617,0.0503 -0.0937,0.0742 -0.0321,0.0239 -0.0644,0.0479 -0.0977,0.0703 -0.0332,0.0224 -0.0672,0.0436 -0.10156,0.0644 -0.0344,0.0208 -0.07,0.0414 -0.10547,0.0606 -0.0354,0.0192 -0.071,0.0372 -0.10742,0.0547 -0.0365,0.0175 -0.0739,0.035 -0.11133,0.0508 -0.0374,0.0158 -0.075,0.0309 -0.11328,0.0449 -0.0383,0.014 -0.078,0.0269 -0.11719,0.0391 -0.0392,0.0121 -0.0772,0.023 -0.11719,0.0332 -0.04,0.0102 -0.0803,0.019 -0.12109,0.0273 -0.0408,0.008 -0.0835,0.0152 -0.125,0.0215 -0.0415,0.006 -0.0829,0.0114 -0.125,0.0156 -0.0421,0.004 -0.0842,0.008 -0.12695,0.01 -0.0427,0.002 -0.0856,0.004 -0.12891,0.004 -0.0433,0 -0.0862,-0.002 -0.12891,-0.004 -0.0427,-0.002 -0.0848,-0.006 -0.12695,-0.01 -0.0421,-0.004 -0.0835,-0.009 -0.125,-0.0156 -0.0415,-0.006 -0.0842,-0.0132 -0.125,-0.0215 -0.0408,-0.008 -0.0811,-0.0171 -0.12109,-0.0273 -0.04,-0.0102 -0.078,-0.0211 -0.11719,-0.0332 -0.0392,-0.0121 -0.0789,-0.0251 -0.11719,-0.0391 -0.0383,-0.014 -0.0759,-0.0291 -0.11328,-0.0449 -0.0374,-0.0158 -0.0749,-0.0333 -0.11133,-0.0508 -0.0364,-0.0175 -0.072,-0.0355 -0.10742,-0.0547 -0.0354,-0.0192 -0.0711,-0.0397 -0.10547,-0.0606 -0.0344,-0.0208 -0.0683,-0.042 -0.10156,-0.0644 -0.0332,-0.0224 -0.0656,-0.0464 -0.0977,-0.0703 -0.0321,-0.024 -0.0629,-0.0488 -0.0937,-0.0742 -0.0308,-0.0254 -0.0622,-0.0513 -0.0918,-0.0781 -0.0296,-0.0269 -0.0577,-0.0538 -0.0859,-0.082 -0.0282,-0.0282 -0.0552,-0.0564 -0.082,-0.0859 -0.0269,-0.0296 -0.0527,-0.0609 -0.0781,-0.0918 -0.0254,-0.0308 -0.0503,-0.0617 -0.0742,-0.0937 -0.0239,-0.0321 -0.0479,-0.0644 -0.0703,-0.0977 -0.0224,-0.0332 -0.0436,-0.0672 -0.0644,-0.10156 -0.0208,-0.0344 -0.0414,-0.07 -0.0606,-0.10547 -0.0192,-0.0354 -0.0372,-0.071 -0.0547,-0.10742 -0.0175,-0.0365 -0.035,-0.0739 -0.0508,-0.11133 -0.0158,-0.0374 -0.0309,-0.075 -0.0449,-0.11328 -0.014,-0.0383 -0.0269,-0.078 -0.0391,-0.11719 -0.0121,-0.0392 -0.023,-0.0772 -0.0332,-0.11719 -0.0102,-0.04 -0.019,-0.0803 -0.0273,-0.12109 -4e-4,-0.002 -0.002,-0.004 -0.002,-0.006 z" /><path
           id="rect2599"
           style="fill:#b2262c;stroke-width:2;stroke-linecap:round;stroke-linejoin:round;stroke-miterlimit:1.8;paint-order:stroke fill markers;stop-color:#000000;fill-opacity:1"
           d="m 10,280.65091 h 26 c 0.554,0 1,0.446 1,1 v 32 c 0,0.554 -0.446,1 -1,1 H 10 c -0.554,0 -1,-0.446 -1,-1 v -32 c 0,-0.554 0.446,-1 1,-1 z" /><path
           id="rect3761"
           style="fill:url(#linearGradient2446);stroke-width:2;stroke-linecap:round;stroke-linejoin:round;stroke-miterlimit:1.8;paint-order:stroke fill markers;stop-color:#000000;fill-opacity:1"
           d="m 10,281.65091 h 26 v 31.99997 H 10 Z" /><path
           id="rect9934-3"
           style="fill:#b2262c;fill-opacity:1;stroke-width:2;stroke-linecap:round;stroke-linejoin:round;stroke-miterlimit:1.8;paint-order:stroke fill markers;stop-color:#000000"
           d="m 15.99964,291.65045 v 4 h 2 v -4 z m 12,0 v 4 h 2 v -4 z m -12,10 v 2 h 14 v -2 z m 14,2 v 2 h 2 v -2 z m -14,0 h -2 v 2 h 2 z" /><path
           id="rect9934"
           style="fill:#fbebee;fill-opacity:1;stroke-width:2;stroke-linecap:round;stroke-linejoin:round;stroke-miterlimit:1.8;paint-order:stroke fill markers;stop-color:#000000"
           d="m 15.99964,290.65045 v 4 h 2 v -4 z m 12,0 v 4 h 2 v -4 z m -12,10 v 2 h 14 v -2 z m 14,2 v 2 h 2 v -2 z m -14,0 h -2 v 2 h 2 z" /></g></g></g></svg>
