<?xml version="1.0" encoding="UTF-8" standalone="no"?>
<!-- Created with Inkscape (http://www.inkscape.org/) -->

<svg
   width="48"
   height="48"
   viewBox="0 0 48 48"
   version="1.1"
   id="svg8"
   inkscape:version="1.2.2 (b0a8486541, 2022-12-01)"
   sodipodi:docname="text-x-python3.svg"
   xml:space="preserve"
   xmlns:inkscape="http://www.inkscape.org/namespaces/inkscape"
   xmlns:sodipodi="http://sodipodi.sourceforge.net/DTD/sodipodi-0.dtd"
   xmlns:xlink="http://www.w3.org/1999/xlink"
   xmlns="http://www.w3.org/2000/svg"
   xmlns:svg="http://www.w3.org/2000/svg"
   xmlns:rdf="http://www.w3.org/1999/02/22-rdf-syntax-ns#"
   xmlns:cc="http://creativecommons.org/ns#"
   xmlns:dc="http://purl.org/dc/elements/1.1/"><title
     id="title7895">Antu icon Theme</title><defs
     id="defs2"><linearGradient
       inkscape:collect="always"
       id="linearGradient6075"><stop
         style="stop-color:#fac500;stop-opacity:1;"
         offset="0"
         id="stop6071" /><stop
         style="stop-color:#ffe100;stop-opacity:1;"
         offset="1"
         id="stop6073" /></linearGradient><linearGradient
       inkscape:collect="always"
       id="linearGradient5032"><stop
         style="stop-color:#3572f0;stop-opacity:1;"
         offset="0"
         id="stop5028" /><stop
         style="stop-color:#5492fa;stop-opacity:1;"
         offset="1"
         id="stop5030" /></linearGradient><style
       type="text/css"
       id="current-color-scheme">
      .ColorScheme-Text {
        color:#122036;
      }
      </style><style
       id="current-color-scheme-5"
       type="text/css">
      .ColorScheme-Text {
        color:#122036;
      }
      </style><style
       id="current-color-scheme-2"
       type="text/css">
      .ColorScheme-Text {
        color:#122036;
      }
      </style><style
       id="current-color-scheme-1"
       type="text/css">
      .ColorScheme-Text {
        color:#122036;
      }
      </style><style
       type="text/css"
       id="current-color-scheme-10">
      .ColorScheme-Text {
        color:#122036;
      }
      </style><style
       id="current-color-scheme-0"
       type="text/css">
      .ColorScheme-Text {
        color:#122036;
      }
      </style><style
       id="current-color-scheme-26"
       type="text/css">
      .ColorScheme-Text {
        color:#122036;
      }
      </style><style
       type="text/css"
       id="current-color-scheme-27">
      .ColorScheme-Text {
        color:#122036;
      }
      </style><style
       type="text/css"
       id="current-color-scheme-7">
      .ColorScheme-Text {
        color:#122036;
      }
      </style><style
       type="text/css"
       id="current-color-scheme-5-09">
      .ColorScheme-Text {
        color:#122036;
      }
      </style><style
       type="text/css"
       id="current-color-scheme-0-3">
      .ColorScheme-Text {
        color:#122036;
      }
      </style><style
       type="text/css"
       id="current-color-scheme-7-9">
      .ColorScheme-Text {
        color:#122036;
      }
      </style><style
       type="text/css"
       id="current-color-scheme-5-3">
      .ColorScheme-Text {
        color:#122036;
      }
      </style><style
       type="text/css"
       id="current-color-scheme-79">
      .ColorScheme-Text {
        color:#122036;
      }
      </style><style
       type="text/css"
       id="current-color-scheme-7-2">
      .ColorScheme-Text {
        color:#122036;
      }
      </style><style
       type="text/css"
       id="current-color-scheme-5-0">
      .ColorScheme-Text {
        color:#122036;
      }
      </style><style
       id="current-color-scheme-04"
       type="text/css">
      .ColorScheme-Text {
        color:#122036;
      }
      </style><style
       id="current-color-scheme-6"
       type="text/css">
      .ColorScheme-Text {
        color:#122036;
      }
      </style><style
       id="current-color-scheme-67"
       type="text/css">
      .ColorScheme-Text {
        color:#122036;
      }
      </style><style
       type="text/css"
       id="current-color-scheme-1-8">
      .ColorScheme-Text {
        color:#122036;
      }
      </style><linearGradient
       id="linearGradient4846"
       inkscape:collect="always"><stop
         id="stop4842"
         offset="0"
         style="stop-color:#e4efef;stop-opacity:1" /><stop
         id="stop4844"
         offset="1"
         style="stop-color:#fcfcfc;stop-opacity:1" /></linearGradient><style
       id="current-color-scheme-56"
       type="text/css">
      .ColorScheme-Text {
        color:#122036;
      }
      </style><style
       id="current-color-scheme-2-2"
       type="text/css">
      .ColorScheme-Text {
        color:#122036;
      }
      </style><style
       id="current-color-scheme-0-9"
       type="text/css">
      .ColorScheme-Text {
        color:#122036;
      }
      </style><style
       id="current-color-scheme-5-1"
       type="text/css">
      .ColorScheme-Text {
        color:#122036;
      }
      </style><linearGradient
       inkscape:collect="always"
       xlink:href="#linearGradient4846"
       id="linearGradient2332"
       x1="-6.000001"
       y1="294.64999"
       x2="-6.000001"
       y2="252.65001"
       gradientUnits="userSpaceOnUse"
       gradientTransform="translate(30,16.999985)" /><style
       id="current-color-scheme-53"
       type="text/css">
      .ColorScheme-Text {
        color:#122036;
      }
      </style><style
       id="current-color-scheme-2-5"
       type="text/css">
      .ColorScheme-Text {
        color:#122036;
      }
      </style><style
       id="current-color-scheme-0-6"
       type="text/css">
      .ColorScheme-Text {
        color:#122036;
      }
      </style><linearGradient
       inkscape:collect="always"
       xlink:href="#linearGradient5032"
       id="linearGradient5034"
       x1="19"
       y1="296.64999"
       x2="19"
       y2="278.64999"
       gradientUnits="userSpaceOnUse" /><linearGradient
       inkscape:collect="always"
       xlink:href="#linearGradient6075"
       id="linearGradient6077"
       x1="30"
       y1="302.64999"
       x2="30"
       y2="285.64999"
       gradientUnits="userSpaceOnUse" /></defs><sodipodi:namedview
     id="base"
     pagecolor="#ffffff"
     bordercolor="#666666"
     borderopacity="1.0"
     inkscape:pageopacity="0.0"
     inkscape:pageshadow="2"
     inkscape:zoom="8.0000004"
     inkscape:cx="8.3749996"
     inkscape:cy="37.999998"
     inkscape:document-units="px"
     inkscape:current-layer="layer1"
     showgrid="true"
     units="px"
     inkscape:window-width="2560"
     inkscape:window-height="1363"
     inkscape:window-x="0"
     inkscape:window-y="0"
     inkscape:window-maximized="1"
     objecttolerance="10"
     gridtolerance="10"
     guidetolerance="10"
     inkscape:snap-bbox="true"
     inkscape:bbox-paths="true"
     inkscape:bbox-nodes="true"
     inkscape:snap-bbox-edge-midpoints="true"
     inkscape:snap-bbox-midpoints="true"
     inkscape:object-paths="true"
     inkscape:snap-intersection-paths="true"
     inkscape:showpageshadow="2"
     inkscape:pagecheckerboard="0"
     inkscape:deskcolor="#d1d1d1"><inkscape:grid
       type="xygrid"
       id="grid7897"
       empspacing="4" /></sodipodi:namedview><metadata
     id="metadata5"><rdf:RDF><cc:Work
         rdf:about=""><dc:format>image/svg+xml</dc:format><dc:type
           rdf:resource="http://purl.org/dc/dcmitype/StillImage" /><dc:title>Antu icon Theme</dc:title></cc:Work></rdf:RDF></metadata><g
     inkscape:label="Capa 1"
     inkscape:groupmode="layer"
     id="layer1"
     transform="translate(0,-266.64999)"><path
       style="fill:#90a4ae;fill-opacity:1;stroke:none;stroke-width:6;stroke-linecap:square;stroke-linejoin:round;stroke-miterlimit:18;stroke-dasharray:none;stroke-dashoffset:0;stroke-opacity:1;paint-order:markers stroke fill"
       d="m 8,268.65 h 32 c 1.662,0 3,1.33798 3,3 v 37.99998 c 0,1.662 -1.338,3 -3,3 H 8 c -1.66199,0 -3,-1.338 -3,-3 v -38 c 0,-1.662 1.33801,-3 3,-2.99998 z"
       id="rect6397-1-9-0"
       inkscape:connector-curvature="0" /><path
       style="fill:url(#linearGradient2332);fill-opacity:1;stroke:none;stroke-width:6;stroke-linecap:square;stroke-linejoin:round;stroke-miterlimit:18;stroke-dasharray:none;stroke-dashoffset:0;stroke-opacity:1;paint-order:markers stroke fill"
       d="m 8,269.65 h 32 c 1.108,0 2,0.89198 2,2 v 37.99998 c 0,1.108 -0.892,2 -2,2 H 8 c -1.10799,0 -2,-0.892 -2,-2 v -38 c 0,-1.108 0.89201,-2 2,-1.99998 z"
       id="rect6399-4-3-2"
       inkscape:connector-curvature="0"
       sodipodi:nodetypes="sssssssss" /><path
       id="rect850-5-9-7-9-7-0-4-4-1"
       style="fill:#d0dcdf;fill-opacity:1;stroke-width:1.2;stroke-linecap:round;stroke-linejoin:round;stroke-miterlimit:1.8;paint-order:stroke fill markers;stop-color:#000000"
       d="m 9,269.64999 v 3 h 3 v -3 z m 3,3 v 3 h 3 v -3 z m 3,0 h 3 v -3 h -3 z m 3,0 v 3 h 3 v -3 z m 3,0 h 3 v -3 h -3 z m 3,0 v 3 h 3 v -3 z m 3,0 h 3 v -3 h -3 z m 3,0 v 3 h 3 v -3 z m 3,0 h 3 v -3 h -3 z m 3,0 v 3 h 3 v -3 z m 3,0 h 1.5 1.5 v -1.5 c 0,-0.831 -0.669,-1.5 -1.5,-1.5 H 39 v 1.5 z m 0,3 v 3 h 3 v -3 z m 0,3 h -3 v 3 h 3 z m 0,3 v 3 h 3 v -3 z m 0,3 h -3 v 3 h 3 z m 0,3 v 3 h 3 v -3 z m 0,3 h -3 v 3 h 3 z m 0,3 v 2.99998 h 3 v -3 z m 0,3 h -3 v 3 h 3 z m 0,3 v 3 h 3 v -3 z m 0,3 h -3 v 3 h 3 z m 0,3 v 3 h 3 v -3 z m 0,3 h -3 v 3 h 3 z m -3,0 v -3 h -3 v 3 z m -3,0 h -3 v 3 h 3 z m -3,0 v -3 h -3 v 3 z m -3,0 h -3 v 3 h 3 z m -3,0 v -3 h -3 v 3 z m -3,0 h -3 v 3 h 3 z m -3,0 v -3 h -3 v 3 z m -3,0 h -3 v 3 h 3 z m -3,0 v -3 H 9 v 3 z m -3,0 H 7.5 6 v 1.5 c 0,0.83098 0.669,1.5 1.5,1.5 H 9 v -1.5 z m 0,-3 v -3 H 6 v 3 z m 0,-3 h 3 v -3 H 9 Z m 0,-3 v -3 H 6 v 3 z m 0,-3 h 3 v -3 H 9 Z m 0,-3 v -3 H 6 v 3 z m 0,-3 h 3 v -3 H 9 Z m 0,-3 v -3 H 6 v 3 z m 0,-3 h 3 v -3 H 9 Z m 0,-3 v -3 H 6 v 3 z m 0,-3 h 3 v -3 H 9 Z m 0,-3 v -3 H 6 v 3 z m 3,3 v 3 h 3 v -3 z m 3,0 h 3 v -3 h -3 z m 3,0 v 3 h 3 v -3 z m 3,0 h 3 v -3 h -3 z m 3,0 v 3 h 3 v -3 z m 3,0 h 3 v -3 h -3 z m 3,0 v 3 h 3 v -3 z m 3,0 h 3 v -3 h -3 z m 0,3 v 3 h 3 v -3 z m 0,3 h -3 v 3 h 3 z m 0,3 v 3 h 3 v -3 z m 0,3 h -3 v 3 h 3 z m 0,3 v 3 h 3 v -3 z m 0,3 h -3 v 3 h 3 z m 0,3 v 3 h 3 v -3 z m 0,3 h -3 v 3 h 3 z m -3,0 v -3 h -3 v 3 z m -3,0 h -3 v 3 h 3 z m -3,0 v -3 h -3 v 3 z m -3,0 h -3 v 3 h 3 z m -3,0 v -3 h -3 v 3 z m -3,0 h -3 v 3 h 3 z m 0,-3 v -3 h -3 v 3 z m 0,-3 h 3 v -3 h -3 z m 0,-3 v -3 h -3 v 3 z m 0,-3 h 3 v -3 h -3 z m 0,-3 v -3 h -3 v 3 z m 0,-3 h 3 v -3 h -3 z m 3,0 v 3 h 3 v -3 z m 3,0 h 3 v -3 h -3 z m 3,0 v 3 h 3 v -3 z m 3,0 h 3 v -3 h -3 z m 0,3 v 3 h 3 v -3 z m 0,3 h -3 v 3 h 3 z m 0,3 v 3 h 3 v -3 z m 0,3 h -3 v 3 h 3 z m -3,0 v -3 h -3 v 3 z m -3,0 h -3 v 3 h 3 z m 0,-3 v -3 h -3 v 3 z m 0,-3 h 3 v -3 h -3 z" /><path
       id="path9356-3"
       style="color:#000000;fill:#90a4ae;fill-opacity:1;stroke:#90a4ae;stroke-width:2.00001;stroke-linecap:round;stroke-linejoin:round;stroke-miterlimit:1.8;stroke-opacity:1;paint-order:stroke fill markers"
       d="m 21.99707,280.65099 c -2.215991,0 -4,1.784 -4,4 v 1 h 1 v -0.002 h 5.007813 v 1 l -4.009766,0.002 -0.990234,-0.002 h -1.089844 c -2.720071,0 -4.910156,2.19009 -4.910156,4.91015 v 1.17969 c 0,2.72007 2.190085,4.91016 4.910156,4.91016 h 0.08984 v -2.99024 -0.01 -0.01 c 0,-0.10352 0.0054,-0.20588 0.01563,-0.30664 0.01012,-0.10074 0.02506,-0.19938 0.04492,-0.29687 0.01986,-0.0975 0.04518,-0.19337 0.07422,-0.28711 0.02904,-0.0937 0.06189,-0.1859 0.09961,-0.27539 0.03774,-0.0895 0.07907,-0.17697 0.125,-0.26172 0.04594,-0.0848 0.09676,-0.16659 0.150391,-0.2461 0.05364,-0.0795 0.111026,-0.15668 0.171875,-0.23047 0.06085,-0.0738 0.123845,-0.14533 0.191406,-0.21289 0.06757,-0.0676 0.139097,-0.13055 0.21289,-0.1914 0.07379,-0.0609 0.150951,-0.11825 0.230469,-0.17188 0.07952,-0.0536 0.161342,-0.10446 0.246094,-0.15039 0.08476,-0.0459 0.172232,-0.0873 0.261719,-0.125 0.0895,-0.0377 0.181649,-0.0706 0.27539,-0.0996 0.09373,-0.029 0.189617,-0.0544 0.28711,-0.0742 0.09749,-0.0199 0.196124,-0.0347 0.296875,-0.0449 0.100745,-0.0101 0.203124,-0.0156 0.30664,-0.0156 h 3.009766 1.009765 1.990235 c 1.107989,0 2,-0.89201 2,-2 v -1 -4 c 0,-0.0952 -0.004,-0.18949 -0.0098,-0.28321 v 0.28516 c 0,-2.216 -1.784008,-4 -4,-4 z m 8,6 v 2.99023 0.01 0.01 c 0,0.10352 -0.0054,0.20588 -0.01563,0.30664 -0.01012,0.10074 -0.02507,0.19938 -0.04492,0.29687 -0.01986,0.0975 -0.04518,0.19337 -0.07422,0.28711 -0.02904,0.0937 -0.06189,0.1859 -0.09961,0.27539 -0.03774,0.0895 -0.07907,0.17697 -0.125,0.26172 -0.04594,0.0848 -0.09676,0.16658 -0.15039,0.24609 -0.05364,0.0795 -0.111026,0.15668 -0.171875,0.23047 -0.06085,0.0738 -0.123846,0.14533 -0.191407,0.21289 -0.06757,0.0676 -0.139097,0.13056 -0.21289,0.19141 -0.07379,0.0609 -0.150951,0.11824 -0.230469,0.17187 -0.07952,0.0536 -0.161342,0.10447 -0.246094,0.1504 -0.08476,0.0459 -0.172231,0.0873 -0.261718,0.125 -0.0895,0.0377 -0.18165,0.0706 -0.275391,0.0996 -0.09373,0.029 -0.189617,0.0544 -0.287109,0.0742 -0.09749,0.0199 -0.196124,0.0347 -0.296875,0.0449 -0.100745,0.0101 -0.203125,0.0156 -0.306641,0.0156 H 23.997065 22.9873 20.997065 c -1.107988,0 -2,0.89201 -2,2 v 1 4 c 0,0.0952 0.004,0.18948 0.0098,0.2832 v -0.28515 c 0,2.21599 1.784008,4 4,4 h 2.998047 c 2.215992,0 4,-1.78401 4,-4 v -1 h -1 v 0.002 h -5.007813 v -1 l 4.009766,-0.002 0.990234,0.002 h 1.089844 c 2.720071,0 4.910156,-2.19009 4.910156,-4.91016 v -1.17968 c 0,-2.72007 -2.190085,-4.91016 -4.910156,-4.91016 z" /><path
       id="path9356"
       style="color:#000000;fill:#3b61af;fill-opacity:1;stroke:#3b61af;stroke-width:2.00001;stroke-linecap:round;stroke-linejoin:round;stroke-miterlimit:1.8;stroke-opacity:1;paint-order:stroke fill markers"
       d="m 21.995141,279.65 c -2.215994,0 -3.999999,1.784 -3.999999,4 v 1 h 1 v -0.002 h 5.007812 v -0.998 h 0.0019 v 1.99804 l -4.009765,0.002 -0.990235,-0.002 h -1.089843 c -2.720074,0 -4.910157,2.19009 -4.910157,4.91016 v 1.17969 c 0,2.72007 2.190083,4.91015 4.910157,4.91015 h 0.08985 v -2.99023 -0.01 -0.01 c 0,-0.10352 0.0054,-0.20589 0.01562,-0.30665 0.01012,-0.10074 0.02506,-0.19938 0.04492,-0.29687 0.01986,-0.0975 0.04517,-0.19337 0.07421,-0.28711 0.02904,-0.0937 0.06188,-0.1859 0.0996,-0.27539 0.03774,-0.0895 0.07907,-0.17697 0.125004,-0.26172 0.04594,-0.0848 0.09676,-0.16658 0.15039,-0.24609 0.05364,-0.0795 0.111027,-0.15668 0.171876,-0.23047 0.06085,-0.0738 0.123845,-0.14533 0.191406,-0.21289 0.06757,-0.0676 0.139098,-0.13056 0.212891,-0.19141 0.07379,-0.0609 0.150951,-0.11824 0.230469,-0.17187 0.07952,-0.0536 0.161341,-0.10446 0.246093,-0.15039 0.08476,-0.0459 0.172231,-0.0873 0.261718,-0.12501 0.0895,-0.0377 0.181651,-0.0706 0.275392,-0.0996 0.09373,-0.029 0.189616,-0.0544 0.287109,-0.0742 0.09749,-0.0199 0.196124,-0.0347 0.296875,-0.0449 0.100745,-0.0101 0.203124,-0.0156 0.30664,-0.0156 h 3.009766 1.009766 1.990235 c 1.10799,0 1.999999,-0.89201 1.999999,-2 v -0.99988 -4 c 0,-0.0952 -0.004,-0.18948 -0.0098,-0.2832 V 283.65 c 0,-2.216 -1.784007,-4 -4.000001,-4 z"
       sodipodi:nodetypes="sscccccccccsssscccscssssssssssssscsccsscsccss" /><path
       id="path9356-6"
       style="color:#000000;fill:url(#linearGradient5034);stroke:none;stroke-width:2.00001;stroke-linecap:round;stroke-linejoin:round;stroke-miterlimit:1.8;stroke-opacity:1;paint-order:stroke fill markers;fill-opacity:1"
       d="m 21.995142,279.65 c -2.215992,0 -4,1.784 -4,4 v 1 h 1 v -0.002 h 5.007812 v -0.99804 h 0.002 v 1.99808 l -4.009766,0.002 -0.990234,-0.002 H 17.91511 c -2.720071,0 -4.910156,2.19009 -4.910156,4.91016 v 1.17969 c 0,2.72006 2.190085,4.91015 4.910156,4.91015 h 0.08984 v -2.99023 -0.01 -0.01 c 0,-0.10352 0.0054,-0.20588 0.01563,-0.30664 0.01012,-0.10074 0.02507,-0.19939 0.04492,-0.29688 0.01986,-0.0975 0.04518,-0.19337 0.07422,-0.28711 0.02904,-0.0937 0.06189,-0.1859 0.09961,-0.27539 0.03774,-0.0895 0.07907,-0.17697 0.125,-0.26172 0.04594,-0.0848 0.09676,-0.16658 0.15039,-0.24609 0.05364,-0.0795 0.111026,-0.15668 0.171875,-0.23047 0.06085,-0.0738 0.123846,-0.14533 0.191406,-0.21289 0.06757,-0.0676 0.139098,-0.13056 0.212891,-0.19141 0.07379,-0.0609 0.150951,-0.11824 0.230469,-0.17187 0.07952,-0.0536 0.161342,-0.10446 0.246094,-0.15039 0.08476,-0.0459 0.172231,-0.0873 0.261718,-0.125 0.0895,-0.0377 0.18165,-0.0706 0.275391,-0.0996 0.09373,-0.029 0.189616,-0.0544 0.287109,-0.0742 0.09749,-0.0199 0.196124,-0.0347 0.296875,-0.0449 0.100745,-0.0101 0.203125,-0.0156 0.306641,-0.0156 h 3.009766 1.009765 1.990235 c 1.107989,0 2,-0.89201 2,-2 v -1 -4 c 0,-0.0952 -0.004,-0.18948 -0.0098,-0.2832 v 0.28516 c 0,-2.216 -1.784008,-4 -4,-4 z m 0.5,1 c 0.830997,0 1.5,0.669 1.5,1.5 0,0.831 -0.669003,1.5 -1.5,1.5 -0.830996,0 -1.5,-0.669 -1.5,-1.5 0,-0.831 0.669004,-1.5 1.5,-1.5 z" /><path
       id="path9356-62"
       style="color:#000000;fill:#fb9607;fill-opacity:1;stroke:#fb9607;stroke-width:2.00001;stroke-linecap:round;stroke-linejoin:round;stroke-miterlimit:1.8;stroke-opacity:1;paint-order:stroke fill markers"
       d="m 26.00486,302.64804 c 2.215994,0 3.999999,-1.784 3.999999,-4 v -1 h -1 v 0.002 h -5.007812 v 0.99805 h -0.0019 V 296.65 l 4.009765,-0.002 0.990235,0.002 h 1.089843 c 2.720074,0 4.910157,-2.19009 4.910157,-4.91016 v -1.17969 c 0,-2.72007 -2.190083,-4.91015 -4.910157,-4.91015 h -0.08985 v 2.99023 0.01 0.01 c 0,0.10352 -0.0054,0.20589 -0.01562,0.30665 -0.01012,0.10074 -0.02507,0.19938 -0.04492,0.29687 -0.01986,0.0975 -0.04517,0.19337 -0.07421,0.28711 -0.02904,0.0937 -0.06188,0.1859 -0.0996,0.27539 -0.03774,0.0895 -0.07907,0.17697 -0.125004,0.26172 -0.04594,0.0848 -0.09676,0.16658 -0.15039,0.24609 -0.05364,0.0795 -0.111027,0.15668 -0.171876,0.23047 -0.06085,0.0738 -0.123845,0.14533 -0.191406,0.21289 -0.06757,0.0676 -0.139098,0.13056 -0.212891,0.19141 -0.07379,0.0609 -0.150951,0.11824 -0.230469,0.17187 -0.07952,0.0536 -0.161341,0.10446 -0.246093,0.15039 -0.08476,0.0459 -0.172231,0.0873 -0.261718,0.12501 -0.0895,0.0377 -0.181651,0.0706 -0.275392,0.0996 -0.09373,0.029 -0.189616,0.0544 -0.287109,0.0742 -0.09749,0.0199 -0.196124,0.0347 -0.296875,0.0449 -0.100745,0.0101 -0.203124,0.0156 -0.30664,0.0156 H 23.995161 22.985395 20.99516 c -1.10799,0 -1.999999,0.89201 -1.999999,2 v 0.99988 4 c 0,0.0952 0.004,0.18948 0.0098,0.2832 v -0.28516 c 0,2.216 1.784007,4 4.000001,4 z"
       sodipodi:nodetypes="sscccccccccsssscccscssssssssssssscsccsscsccss" /><path
       id="path9356-6-6"
       style="color:#000000;fill:url(#linearGradient6077);fill-opacity:1;stroke:none;stroke-width:2.00001;stroke-linecap:round;stroke-linejoin:round;stroke-miterlimit:1.8;stroke-opacity:1;paint-order:stroke fill markers"
       d="m 29.995142,285.65 v 2.99023 0.01 0.01 c 0,0.10352 -0.0054,0.20588 -0.01563,0.30664 -0.01012,0.10074 -0.02507,0.19939 -0.04492,0.29688 -0.01986,0.0975 -0.04518,0.19337 -0.07422,0.28711 -0.02904,0.0937 -0.06189,0.1859 -0.09961,0.27539 -0.03774,0.0895 -0.07907,0.17697 -0.125,0.26172 -0.04594,0.0848 -0.09676,0.16658 -0.150391,0.24609 -0.05364,0.0795 -0.111026,0.15668 -0.171875,0.23047 -0.06085,0.0738 -0.123845,0.14533 -0.191406,0.21289 -0.06757,0.0676 -0.139098,0.13056 -0.212891,0.19141 -0.07379,0.0609 -0.15095,0.11824 -0.230468,0.17187 -0.07952,0.0536 -0.161342,0.10446 -0.246094,0.15039 -0.08476,0.0459 -0.172232,0.0873 -0.261719,0.125 -0.0895,0.0377 -0.181649,0.0706 -0.27539,0.0996 -0.09373,0.029 -0.189617,0.0544 -0.28711,0.0742 -0.09749,0.0199 -0.196124,0.0347 -0.296875,0.0449 -0.100745,0.0101 -0.203124,0.0156 -0.30664,0.0156 h -3.009766 -1.009766 -1.990234 c -1.107989,0 -2,0.89201 -2,2 v 1 4 c 0,0.0952 0.004,0.18948 0.0098,0.2832 v -0.28555 c 0,2.216 1.784008,4 4,4 h 3 c 2.215991,0 4,-1.784 4,-4 v -1 h -1 v 0.002 h -5.007842 v 0.998 h -0.002 V 296.65 l 4.009766,-0.002 0.990234,0.002 h 1.089844 c 2.720071,0 4.910156,-2.19009 4.910156,-4.91016 v -1.17969 c 0,-2.72006 -2.190085,-4.91015 -4.910156,-4.91015 z m -4.5,13 c 0.830997,0 1.5,0.669 1.5,1.5 0,0.831 -0.669003,1.5 -1.5,1.5 -0.830996,0 -1.5,-0.669 -1.5,-1.5 0,-0.831 0.669004,-1.5 1.5,-1.5 z" /></g></svg>
