<?xml version="1.0" encoding="UTF-8" standalone="no"?>
<!-- Created with Inkscape (http://www.inkscape.org/) -->

<svg
   width="48"
   height="48"
   viewBox="0 0 48 48"
   version="1.1"
   id="svg8"
   inkscape:version="1.2.2 (b0a8486541, 2022-12-01)"
   sodipodi:docname="text-x-rust.svg"
   xml:space="preserve"
   xmlns:inkscape="http://www.inkscape.org/namespaces/inkscape"
   xmlns:sodipodi="http://sodipodi.sourceforge.net/DTD/sodipodi-0.dtd"
   xmlns:xlink="http://www.w3.org/1999/xlink"
   xmlns="http://www.w3.org/2000/svg"
   xmlns:svg="http://www.w3.org/2000/svg"
   xmlns:rdf="http://www.w3.org/1999/02/22-rdf-syntax-ns#"
   xmlns:cc="http://creativecommons.org/ns#"
   xmlns:dc="http://purl.org/dc/elements/1.1/"><title
     id="title7895">Antu icon Theme</title><defs
     id="defs2"><linearGradient
       gradientTransform="translate(-71.999997,-63.99997)"
       y2="322.64999"
       x2="60"
       y1="362.64999"
       x1="60"
       gradientUnits="userSpaceOnUse"
       id="linearGradient6625-7"
       xlink:href="#linearGradient1500-3"
       inkscape:collect="always" /><linearGradient
       inkscape:collect="always"
       id="linearGradient1500-3"><stop
         style="stop-color:#5866b3;stop-opacity:1;"
         offset="0"
         id="stop1496-6" /><stop
         style="stop-color:#7784ca;stop-opacity:1;"
         offset="1"
         id="stop1498-0" /></linearGradient><style
       id="current-color-scheme"
       type="text/css">
      .ColorScheme-Text {
        color:#122036;
      }
      </style><style
       type="text/css"
       id="current-color-scheme-53">
      .ColorScheme-Text {
        color:#122036;
      }
      </style><style
       id="current-color-scheme-5"
       type="text/css">
      .ColorScheme-Text {
        color:#122036;
      }
      </style><style
       id="current-color-scheme-2"
       type="text/css">
      .ColorScheme-Text {
        color:#122036;
      }
      </style><style
       id="current-color-scheme-1"
       type="text/css">
      .ColorScheme-Text {
        color:#122036;
      }
      </style><style
       type="text/css"
       id="current-color-scheme-10">
      .ColorScheme-Text {
        color:#122036;
      }
      </style><style
       id="current-color-scheme-0"
       type="text/css">
      .ColorScheme-Text {
        color:#122036;
      }
      </style><style
       id="current-color-scheme-26"
       type="text/css">
      .ColorScheme-Text {
        color:#122036;
      }
      </style><style
       id="current-color-scheme-7"
       type="text/css">
      .ColorScheme-Text {
        color:#122036;
      }
      </style><style
       id="current-color-scheme-535"
       type="text/css">
      .ColorScheme-Text {
        color:#122036;
      }
      </style><style
       type="text/css"
       id="current-color-scheme-53-6">
      .ColorScheme-Text {
        color:#122036;
      }
      </style><style
       id="current-color-scheme-5-2"
       type="text/css">
      .ColorScheme-Text {
        color:#122036;
      }
      </style><style
       id="current-color-scheme-2-9"
       type="text/css">
      .ColorScheme-Text {
        color:#122036;
      }
      </style><style
       id="current-color-scheme-1-1"
       type="text/css">
      .ColorScheme-Text {
        color:#122036;
      }
      </style><style
       type="text/css"
       id="current-color-scheme-10-2">
      .ColorScheme-Text {
        color:#122036;
      }
      </style><style
       id="current-color-scheme-0-7"
       type="text/css">
      .ColorScheme-Text {
        color:#122036;
      }
      </style><style
       id="current-color-scheme-26-0"
       type="text/css">
      .ColorScheme-Text {
        color:#122036;
      }
      </style><style
       id="current-color-scheme-7-9"
       type="text/css">
      .ColorScheme-Text {
        color:#122036;
      }
      </style><style
       id="current-color-scheme-5356"
       type="text/css">
      .ColorScheme-Text {
        color:#122036;
      }
      </style><style
       type="text/css"
       id="current-color-scheme-53-2">
      .ColorScheme-Text {
        color:#122036;
      }
      </style><style
       id="current-color-scheme-5-9"
       type="text/css">
      .ColorScheme-Text {
        color:#122036;
      }
      </style><style
       id="current-color-scheme-2-1"
       type="text/css">
      .ColorScheme-Text {
        color:#122036;
      }
      </style><style
       id="current-color-scheme-1-27"
       type="text/css">
      .ColorScheme-Text {
        color:#122036;
      }
      </style><style
       type="text/css"
       id="current-color-scheme-10-0">
      .ColorScheme-Text {
        color:#122036;
      }
      </style><style
       id="current-color-scheme-0-9"
       type="text/css">
      .ColorScheme-Text {
        color:#122036;
      }
      </style><style
       id="current-color-scheme-26-3"
       type="text/css">
      .ColorScheme-Text {
        color:#122036;
      }
      </style><style
       id="current-color-scheme-7-60"
       type="text/css">
      .ColorScheme-Text {
        color:#122036;
      }
      </style><style
       id="current-color-scheme-535-6"
       type="text/css">
      .ColorScheme-Text {
        color:#122036;
      }
      </style><style
       type="text/css"
       id="current-color-scheme-53-6-2">
      .ColorScheme-Text {
        color:#122036;
      }
      </style><style
       id="current-color-scheme-5-2-6"
       type="text/css">
      .ColorScheme-Text {
        color:#122036;
      }
      </style><style
       id="current-color-scheme-2-9-1"
       type="text/css">
      .ColorScheme-Text {
        color:#122036;
      }
      </style><style
       id="current-color-scheme-1-1-8"
       type="text/css">
      .ColorScheme-Text {
        color:#122036;
      }
      </style><style
       type="text/css"
       id="current-color-scheme-10-2-7">
      .ColorScheme-Text {
        color:#122036;
      }
      </style><style
       id="current-color-scheme-0-7-9"
       type="text/css">
      .ColorScheme-Text {
        color:#122036;
      }
      </style><style
       id="current-color-scheme-26-0-2"
       type="text/css">
      .ColorScheme-Text {
        color:#122036;
      }
      </style><style
       id="current-color-scheme-7-9-0"
       type="text/css">
      .ColorScheme-Text {
        color:#122036;
      }
      </style><style
       type="text/css"
       id="current-color-scheme-3">
      .ColorScheme-Text {
        color:#36404d;
      }
      </style><style
       type="text/css"
       id="current-color-scheme-67">
      .ColorScheme-Text {
        color:#122036;
      }
      </style><style
       type="text/css"
       id="current-color-scheme-7-6">
      .ColorScheme-Text {
        color:#122036;
      }
      </style><style
       type="text/css"
       id="current-color-scheme-5-75">
      .ColorScheme-Text {
        color:#122036;
      }
      </style><style
       type="text/css"
       id="current-color-scheme-6">
      .ColorScheme-Text {
        color:#122036;
      }
      </style><style
       type="text/css"
       id="current-color-scheme-1-3">
      .ColorScheme-Text {
        color:#122036;
      }
      </style><style
       id="current-color-scheme-10-5"
       type="text/css">
      .ColorScheme-Text {
        color:#122036;
      }
      </style><style
       id="current-color-scheme-5-7"
       type="text/css">
      .ColorScheme-Text {
        color:#122036;
      }
      </style><style
       id="current-color-scheme-1-2"
       type="text/css">
      .ColorScheme-Text {
        color:#122036;
      }
      </style><style
       type="text/css"
       id="current-color-scheme-10-9">
      .ColorScheme-Text {
        color:#122036;
      }
      </style></defs><sodipodi:namedview
     id="base"
     pagecolor="#ffffff"
     bordercolor="#666666"
     borderopacity="1.0"
     inkscape:pageopacity="0.0"
     inkscape:pageshadow="2"
     inkscape:zoom="11.313709"
     inkscape:cx="50.248773"
     inkscape:cy="32.880464"
     inkscape:document-units="px"
     inkscape:current-layer="layer1"
     showgrid="true"
     units="px"
     inkscape:window-width="2560"
     inkscape:window-height="1363"
     inkscape:window-x="0"
     inkscape:window-y="0"
     inkscape:window-maximized="1"
     objecttolerance="10"
     gridtolerance="10"
     guidetolerance="10"
     inkscape:snap-bbox="true"
     inkscape:bbox-paths="true"
     inkscape:bbox-nodes="true"
     inkscape:snap-bbox-edge-midpoints="true"
     inkscape:snap-bbox-midpoints="true"
     inkscape:object-paths="true"
     inkscape:snap-intersection-paths="true"
     inkscape:showpageshadow="2"
     inkscape:pagecheckerboard="0"
     inkscape:deskcolor="#d1d1d1"><inkscape:grid
       type="xygrid"
       id="grid7897"
       empspacing="4" /></sodipodi:namedview><metadata
     id="metadata5"><rdf:RDF><cc:Work
         rdf:about=""><dc:format>image/svg+xml</dc:format><dc:type
           rdf:resource="http://purl.org/dc/dcmitype/StillImage" /><dc:title>Antu icon Theme</dc:title></cc:Work></rdf:RDF></metadata><g
     inkscape:label="Capa 1"
     inkscape:groupmode="layer"
     id="layer1"
     transform="translate(0,-266.64999)"><g
       id="g5242"
       transform="translate(36,12)"><path
         inkscape:connector-curvature="0"
         id="rect6397-1"
         d="M -28,256.64999 H 4 c 1.662,0 3,1.33798 3,3 v 38 c 0,1.66197 -1.338,3 -3,3 h -32 c -1.661998,0 -3,-1.33803 -3,-3 v -38 c 0,-1.66202 1.338002,-3 3,-3 z"
         style="opacity:1;vector-effect:none;fill:#4a5599;fill-opacity:1;stroke:none;stroke-width:6;stroke-linecap:square;stroke-linejoin:round;stroke-miterlimit:18;stroke-dasharray:none;stroke-dashoffset:0;stroke-opacity:1;paint-order:markers stroke fill" /><path
         sodipodi:nodetypes="sssssssss"
         inkscape:connector-curvature="0"
         id="rect6399-4"
         d="M -28,257.64999 H 4 c 1.108001,0 2,0.892 2,2.00001 v 38.00001 c 0,1.10797 -0.891999,1.99997 -2,1.99997 h -32 c -1.107998,0 -2,-0.892 -2,-1.99997 V 259.65 c 0,-1.10801 0.892002,-2.00001 2,-2.00001 z"
         style="opacity:1;vector-effect:none;fill:url(#linearGradient6625-7);fill-opacity:1.0;stroke:none;stroke-width:6;stroke-linecap:square;stroke-linejoin:round;stroke-miterlimit:18;stroke-dasharray:none;stroke-dashoffset:0;stroke-opacity:1;paint-order:markers stroke fill" /><path
         sodipodi:nodetypes="ccccccccccccccccccccccccccccccccccccccccccccccccccccccccccccccccccccccccccccccccccccccccccccccccccccccccc"
         inkscape:connector-curvature="0"
         id="rect1001"
         d="m -26,263.64999 v 2 h 8 v -2 z m 10,0 v 2 h 3 v -2 z m 5,0 v 2 h 4 v -2 z m 6,0 v 2 h 2 v -2 z m -21,4 v 2 h 4 v -2 z m 6,0 v 2 h 8 v -2 z m 10,0 v 2 h 6 v -2 z m -16,4 v 2 h 3 v -2 z m 5,0 v 2 h 4 v -2 z m 6,0 v 2 h 8 v -2 z m 10,0 v 2 h 2 v -2 z m -21,4 v 2 h 11 v -2 z m 13,0 v 2 h 4 v -2 z m 6,0 v 2 h 4 v -2 z m -19,4 v 2 h 4 v -2 z m 6,0 v 2 h 8 v -2 z m 10,0 v 2 h 6 v -2 z m -16,4 v 2 h 11 v -2 z m 0,4 v 2 h 4 v -2 z m 6,0 v 2 h 4 v -2 z m -6,4 v 2 h 8 v -2 z"
         style="opacity:1;vector-effect:none;fill:#4a5599;fill-opacity:1;stroke:none;stroke-width:2;stroke-linecap:round;stroke-linejoin:round;stroke-miterlimit:4;stroke-dasharray:none;stroke-dashoffset:0;stroke-opacity:1" /></g><path
       id="path4782-2"
       style="fill:#eaecf6;fill-opacity:1;fill-rule:evenodd;stroke:none;stroke-width:1px;stroke-linecap:butt;stroke-linejoin:miter;stroke-opacity:1"
       d="m 10,274.64999 v 2 h 8 v -2 z m 10,0 v 2 h 3 v -2 z m 5,0 v 2 h 4 v -2 z m 6,0 v 2 h 2 v -2 z m -21,4 v 2 h 4 v -2 z m 6,0 v 2 h 8 v -2 z m 10,0 v 2 h 6 v -2 z m -16,4 v 2 h 3 v -2 z m 5,0 v 2 h 4 v -2 z m 6,0 v 2 h 8 v -2 z m 10,0 v 2 h 2 v -2 z m -21,4 v 2 h 11 v -2 z m 13,0 v 2 h 4 v -2 z m 6,0 v 2 h 4 v -2 z m -19,4 v 2 h 4 v -2 z m 6,0 v 2 h 8 v -2 z m 10,0 v 2 h 6 v -2 z m -16,4 v 2 h 11 v -2 z m 0,4 v 2 h 4 v -2 z m 6,0 v 2 h 4 v -2 z m -6,4 v 2 h 8 v -2 z"
       sodipodi:nodetypes="ccccccccccccccccccccccccccccccccccccccccccccccccccccccccccccccccccccccccccccccccccccccccccccccccccccccccc" /><g
       inkscape:label="Capa 1"
       id="layer1-6"
       transform="translate(-42.826717,1.8977847)"><path
         id="path338"
         style="fill:#4a5599;fill-opacity:1"
         d="M 67.826717 295.75221 L 67.826717 297.75221 L 69.826717 297.75221 L 69.826717 300.75221 L 69.826717 301.75221 L 69.826717 303.75221 L 67.826717 303.75221 L 67.826717 305.75221 L 73.826717 305.75221 L 73.826717 303.75221 L 71.826717 303.75221 L 71.826717 301.75221 L 74.826717 301.75221 L 74.826717 305.75221 L 76.826717 305.75221 L 78.826717 305.75221 L 80.826717 305.75221 L 80.826717 303.75221 L 80.826717 301.75221 L 78.826717 301.75221 L 78.826717 303.75221 L 76.826717 303.75221 L 76.826717 301.75221 L 77.826717 301.75221 L 77.826717 300.75221 L 77.826717 299.75221 L 77.826717 295.75221 L 76.826717 295.75221 L 71.826717 295.75221 L 67.826717 295.75221 z M 71.826717 297.75221 L 75.826717 297.75221 L 75.826717 299.75221 L 71.826717 299.75221 L 71.826717 297.75221 z " /><path
         d="m 67.826717,294.75221 v 2 h 2 v 3 1 2 h -2 v 2 h 6 v -2 h -2 v -2 h 3 v 4 h 2 2 2 v -2 -2 h -2 v 2 h -2 v -2 h 1 v -1 -1 -4 h -1 -5 z m 4,2 h 4 v 2 h -4 z"
         fill="#d9def6"
         stroke-linecap="round"
         stroke-linejoin="round"
         stroke-miterlimit="1.8"
         stroke-width="4"
         id="path375-3"
         style="fill:#eaecf6;fill-opacity:1" /></g></g></svg>
