<?xml version="1.0" encoding="UTF-8" standalone="no"?>
<!-- Created with Inkscape (http://www.inkscape.org/) -->

<svg
   width="48"
   height="48"
   viewBox="0 0 48 48"
   version="1.1"
   id="svg8"
   inkscape:version="1.2.2 (b0a8486541, 2022-12-01)"
   sodipodi:docname="application-x-kplato.svg"
   xml:space="preserve"
   xmlns:inkscape="http://www.inkscape.org/namespaces/inkscape"
   xmlns:sodipodi="http://sodipodi.sourceforge.net/DTD/sodipodi-0.dtd"
   xmlns:xlink="http://www.w3.org/1999/xlink"
   xmlns="http://www.w3.org/2000/svg"
   xmlns:svg="http://www.w3.org/2000/svg"
   xmlns:rdf="http://www.w3.org/1999/02/22-rdf-syntax-ns#"
   xmlns:cc="http://creativecommons.org/ns#"
   xmlns:dc="http://purl.org/dc/elements/1.1/"><title
     id="title7895">Antu icon Theme</title><defs
     id="defs2"><linearGradient
       inkscape:collect="always"
       id="linearGradient2400"><stop
         style="stop-color:#f4203f;stop-opacity:1;"
         offset="0"
         id="stop2396" /><stop
         style="stop-color:#fa3551;stop-opacity:1;"
         offset="1"
         id="stop2398" /></linearGradient><linearGradient
       inkscape:collect="always"
       id="linearGradient1564"><stop
         style="stop-color:#e5efef;stop-opacity:1;"
         offset="0"
         id="stop1560" /><stop
         style="stop-color:#f5f9f9;stop-opacity:1;"
         offset="1"
         id="stop1562" /></linearGradient><style
       id="current-color-scheme"
       type="text/css">
      .ColorScheme-Text {
        color:#122036;
      }
      </style><style
       id="current-color-scheme-2"
       type="text/css">
      .ColorScheme-Text {
        color:#122036;
      }
      </style><style
       id="current-color-scheme-0"
       type="text/css">
      .ColorScheme-Text {
        color:#122036;
      }
      </style><linearGradient
       inkscape:collect="always"
       xlink:href="#linearGradient1564"
       id="linearGradient1566"
       x1="-1.000001"
       y1="291.64999"
       x2="-1.000001"
       y2="260.64999"
       gradientUnits="userSpaceOnUse" /><linearGradient
       inkscape:collect="always"
       xlink:href="#linearGradient2400"
       id="linearGradient2402"
       x1="-1.000001"
       y1="258.64999"
       x2="-1.000001"
       y2="250.64999"
       gradientUnits="userSpaceOnUse" /></defs><sodipodi:namedview
     id="base"
     pagecolor="#ffffff"
     bordercolor="#666666"
     borderopacity="1.0"
     inkscape:pageopacity="0.0"
     inkscape:pageshadow="2"
     inkscape:zoom="11.313709"
     inkscape:cx="24.57196"
     inkscape:cy="35.532114"
     inkscape:document-units="px"
     inkscape:current-layer="g2217"
     showgrid="true"
     units="px"
     inkscape:window-width="1492"
     inkscape:window-height="1335"
     inkscape:window-x="0"
     inkscape:window-y="0"
     inkscape:window-maximized="0"
     objecttolerance="10"
     gridtolerance="10"
     guidetolerance="10"
     inkscape:snap-bbox="true"
     inkscape:bbox-paths="true"
     inkscape:bbox-nodes="true"
     inkscape:snap-bbox-edge-midpoints="true"
     inkscape:snap-bbox-midpoints="true"
     inkscape:object-paths="true"
     inkscape:snap-intersection-paths="true"
     inkscape:showpageshadow="2"
     inkscape:pagecheckerboard="0"
     inkscape:deskcolor="#d1d1d1"><inkscape:grid
       type="xygrid"
       id="grid7897"
       empspacing="4" /></sodipodi:namedview><metadata
     id="metadata5"><rdf:RDF><cc:Work
         rdf:about=""><dc:format>image/svg+xml</dc:format><dc:type
           rdf:resource="http://purl.org/dc/dcmitype/StillImage" /><dc:title>Antu icon Theme</dc:title></cc:Work></rdf:RDF></metadata><g
     inkscape:label="Capa 1"
     inkscape:groupmode="layer"
     id="layer1"
     transform="translate(0,-266.64999)"><g
       id="g2217"
       transform="translate(30.000001,16.999985)"><g
         id="g109871"
         transform="translate(-5,2.000005)"><path
           inkscape:connector-curvature="0"
           id="rect6397-1-5"
           d="m -17,249.65 h 32 c 1.662,0 3,1.33798 3,3 v 38.00001 c 0,1.66197 -1.338,3 -3,3 h -32 c -1.661998,0 -3,-1.33803 -3,-3 V 252.65 c 0,-1.66202 1.338002,-3 3,-3 z"
           style="fill:#92a6b0;fill-opacity:1;stroke:none;stroke-width:6;stroke-linecap:square;stroke-linejoin:round;stroke-miterlimit:18;stroke-dasharray:none;stroke-dashoffset:0;stroke-opacity:1;paint-order:markers stroke fill" /><path
           id="rect6399-4-9"
           style="fill:url(#linearGradient1566);fill-opacity:1;stroke:none;stroke-width:6;stroke-linecap:square;stroke-linejoin:round;stroke-miterlimit:18;stroke-dasharray:none;stroke-dashoffset:0;stroke-opacity:1;paint-order:markers stroke fill"
           d="M -17.000001 250.65 C -18.107998 250.65 -19.000001 251.54199 -19.000001 252.65 L -19.000001 290.65 C -19.000001 291.75797 -18.107998 292.65 -17.000001 292.65 L 14.999999 292.65 C 16.107999 292.65 16.999999 291.75797 16.999999 290.65 L 16.999999 252.65 C 16.999999 251.54199 16.107999 250.65 14.999999 250.65 L -17.000001 250.65 z M -14.000001 265.65 L 11.999999 265.65 L 11.999999 285.65 L 11.999999 286.65 L -1e-06 286.65 L -14.000001 286.65 L -14.000001 285.65 L -14.000001 281.65 L -14.000001 280.65 L -14.000001 276.65 L -14.000001 275.65 L -14.000001 271.65 L -14.000001 270.65 L -14.000001 266.65 L -14.000001 265.65 z M -13.000001 266.65 L -13.000001 270.65 L -9.000001 270.65 L -9.000001 266.65 L -13.000001 266.65 z M -8.000001 266.65 L -8.000001 270.65 L -4.000001 270.65 L -4.000001 266.65 L -8.000001 266.65 z M -3.000001 266.65 L -3.000001 270.65 L 0.999999 270.65 L 0.999999 266.65 L -3.000001 266.65 z M 1.999999 266.65 L 1.999999 270.65 L 5.999999 270.65 L 5.999999 266.65 L 1.999999 266.65 z M 6.999999 266.65 L 6.999999 270.65 L 10.999999 270.65 L 10.999999 266.65 L 6.999999 266.65 z M -13.000001 271.65 L -13.000001 275.65 L -9.000001 275.65 L -9.000001 271.65 L -13.000001 271.65 z M -8.000001 271.65 L -8.000001 275.65 L -4.000001 275.65 L -4.000001 271.65 L -8.000001 271.65 z M -3.000001 271.65 L -3.000001 275.65 L 0.999999 275.65 L 0.999999 271.65 L -3.000001 271.65 z M 1.999999 271.65 L 1.999999 275.65 L 5.999999 275.65 L 5.999999 271.65 L 1.999999 271.65 z M 6.999999 271.65 L 6.999999 275.65 L 10.999999 275.65 L 10.999999 271.65 L 6.999999 271.65 z M -13.000001 276.65 L -13.000001 280.65 L -9.000001 280.65 L -9.000001 276.65 L -13.000001 276.65 z M -8.000001 276.65 L -8.000001 280.65 L -4.000001 280.65 L -4.000001 276.65 L -8.000001 276.65 z M -3.000001 276.65 L -3.000001 280.65 L 0.999999 280.65 L 0.999999 276.65 L -3.000001 276.65 z M 1.999999 276.65 L 1.999999 280.65 L 5.999999 280.65 L 5.999999 276.65 L 1.999999 276.65 z M 6.999999 276.65 L 6.999999 280.65 L 10.999999 280.65 L 10.999999 276.65 L 6.999999 276.65 z M -13.000001 281.65 L -13.000001 285.65 L -9.000001 285.65 L -9.000001 281.65 L -13.000001 281.65 z M -8.000001 281.65 L -8.000001 285.65 L -4.000001 285.65 L -4.000001 281.65 L -8.000001 281.65 z M -3.000001 281.65 L -3.000001 285.65 L -1e-06 285.65 L 0.999999 285.65 L 0.999999 281.65 L -3.000001 281.65 z M 1.999999 281.65 L 1.999999 285.65 L 5.999999 285.65 L 5.999999 281.65 L 1.999999 281.65 z M 6.999999 281.65 L 6.999999 285.65 L 10.999999 285.65 L 10.999999 281.65 L 6.999999 281.65 z " /><path
           id="rect6397-1-5-4"
           style="fill:#bc0722;fill-opacity:1;stroke:none;stroke-width:6;stroke-linecap:square;stroke-linejoin:round;stroke-miterlimit:18;stroke-dasharray:none;stroke-dashoffset:0;stroke-opacity:1;paint-order:markers stroke fill"
           d="m -17.000001,249.65 c -1.661996,0 -3,1.33798 -3,3 v 3 1.00001 3 h 3 32 3 v -3 -1.00001 -3 c 0,-1.66202 -1.338002,-3 -3,-3 z" /><path
           id="rect6399-4-9-6"
           style="fill:url(#linearGradient2402);fill-opacity:1;stroke:none;stroke-width:6;stroke-linecap:square;stroke-linejoin:round;stroke-miterlimit:18;stroke-dasharray:none;stroke-dashoffset:0;stroke-opacity:1;paint-order:markers stroke fill"
           d="m -17.000001,250.65 c -1.107997,0 -2,0.892 -2,2 v 3 1.00001 2 h 2 32 2 v -2 -1.00001 -3 c 0,-1.108 -0.892,-2 -2,-2 z" /></g></g></g></svg>
