<?xml version="1.0" encoding="UTF-8" standalone="no"?>
<!-- Created with Inkscape (http://www.inkscape.org/) -->

<svg
   width="48"
   height="48"
   viewBox="0 0 48 48"
   version="1.1"
   id="svg8"
   inkscape:version="1.2.2 (b0a8486541, 2022-12-01)"
   sodipodi:docname="text-x-csharp.svg"
   xml:space="preserve"
   xmlns:inkscape="http://www.inkscape.org/namespaces/inkscape"
   xmlns:sodipodi="http://sodipodi.sourceforge.net/DTD/sodipodi-0.dtd"
   xmlns:xlink="http://www.w3.org/1999/xlink"
   xmlns="http://www.w3.org/2000/svg"
   xmlns:svg="http://www.w3.org/2000/svg"
   xmlns:rdf="http://www.w3.org/1999/02/22-rdf-syntax-ns#"
   xmlns:cc="http://creativecommons.org/ns#"
   xmlns:dc="http://purl.org/dc/elements/1.1/"><title
     id="title7895">Antu icon Theme</title><defs
     id="defs2"><linearGradient
       gradientTransform="translate(-71.999997,-63.99997)"
       y2="322.64999"
       x2="60"
       y1="362.64999"
       x1="60"
       gradientUnits="userSpaceOnUse"
       id="linearGradient6625-7"
       xlink:href="#linearGradient1500-3"
       inkscape:collect="always" /><linearGradient
       inkscape:collect="always"
       id="linearGradient1500-3"><stop
         style="stop-color:#263238;stop-opacity:1"
         offset="0"
         id="stop1496-6" /><stop
         style="stop-color:#37474f;stop-opacity:1"
         offset="1"
         id="stop1498-0" /></linearGradient></defs><sodipodi:namedview
     id="base"
     pagecolor="#ffffff"
     bordercolor="#666666"
     borderopacity="1.0"
     inkscape:pageopacity="0.0"
     inkscape:pageshadow="2"
     inkscape:zoom="11.313709"
     inkscape:cx="56.038211"
     inkscape:cy="27.400387"
     inkscape:document-units="px"
     inkscape:current-layer="layer1"
     showgrid="true"
     units="px"
     inkscape:window-width="2560"
     inkscape:window-height="1363"
     inkscape:window-x="0"
     inkscape:window-y="0"
     inkscape:window-maximized="1"
     objecttolerance="10"
     gridtolerance="10"
     guidetolerance="10"
     inkscape:snap-bbox="true"
     inkscape:bbox-paths="true"
     inkscape:bbox-nodes="true"
     inkscape:snap-bbox-edge-midpoints="true"
     inkscape:snap-bbox-midpoints="true"
     inkscape:object-paths="true"
     inkscape:snap-intersection-paths="true"
     inkscape:showpageshadow="2"
     inkscape:pagecheckerboard="0"
     inkscape:deskcolor="#d1d1d1"><inkscape:grid
       type="xygrid"
       id="grid7897"
       empspacing="4" /></sodipodi:namedview><metadata
     id="metadata5"><rdf:RDF><cc:Work
         rdf:about=""><dc:format>image/svg+xml</dc:format><dc:type
           rdf:resource="http://purl.org/dc/dcmitype/StillImage" /><dc:title>Antu icon Theme</dc:title></cc:Work></rdf:RDF></metadata><g
     inkscape:label="Capa 1"
     inkscape:groupmode="layer"
     id="layer1"
     transform="translate(0,-266.64999)"><g
       id="g5242"
       transform="translate(36,12)"><path
         inkscape:connector-curvature="0"
         id="rect6397-1"
         d="M -28,256.64999 H 4 c 1.662,0 3,1.33798 3,3 v 38 c 0,1.66197 -1.338,3 -3,3 h -32 c -1.661998,0 -3,-1.33803 -3,-3 v -38 c 0,-1.66202 1.338002,-3 3,-3 z"
         style="opacity:1;vector-effect:none;fill:#1a2226;fill-opacity:1;stroke:none;stroke-width:6;stroke-linecap:square;stroke-linejoin:round;stroke-miterlimit:18;stroke-dasharray:none;stroke-dashoffset:0;stroke-opacity:1;paint-order:markers stroke fill" /><path
         sodipodi:nodetypes="sssssssss"
         inkscape:connector-curvature="0"
         id="rect6399-4"
         d="M -28,257.64999 H 4 c 1.108001,0 2,0.892 2,2.00001 v 38.00001 c 0,1.10797 -0.891999,1.99997 -2,1.99997 h -32 c -1.107998,0 -2,-0.892 -2,-1.99997 V 259.65 c 0,-1.10801 0.892002,-2.00001 2,-2.00001 z"
         style="opacity:1;vector-effect:none;fill:url(#linearGradient6625-7);fill-opacity:1.0;stroke:none;stroke-width:6;stroke-linecap:square;stroke-linejoin:round;stroke-miterlimit:18;stroke-dasharray:none;stroke-dashoffset:0;stroke-opacity:1;paint-order:markers stroke fill" /></g><g
       inkscape:label="Capa 1"
       id="layer1-6-9"
       transform="translate(29,-1)"><g
         id="g5242-2-7"
         transform="translate(36,12)" /><path
         id="path999-2-3"
         style="opacity:1;vector-effect:none;fill:#1a2226;fill-opacity:1;stroke:none;stroke-width:2;stroke-linecap:round;stroke-linejoin:round;stroke-miterlimit:4;stroke-dasharray:none;stroke-dashoffset:0;stroke-opacity:1"
         d="m -19,276.64999 v 2 h 8 v -2 z m 10,0 v 2 h 3 v -2 z m 5,0 v 2 h 4 v -2 z m 6,0 v 2 h 2 v -2 z m -21,4 v 2 h 4 v -2 z m 6,0 v 2 h 8 v -2 z m 10,0 v 2 h 6 v -2 z m -16,4 v 2 h 3 v -2 z m 5,0 v 2 h 4 v -2 z m 6,0 v 2 h 8 v -2 z m 10,0 v 2 h 2 v -2 z m -21,4 v 2 h 11 v -2 z m 13,0 v 2 h 4 v -2 z m 6,0 v 2 h 4 v -2 z m -19,4 v 2 h 4 v -2 z m 6,0 v 2 h 8 v -2 z m 10,0 v 2 h 6 v -2 z m -16,4 v 2 h 11 v -2 z m 13,0 v 2 h 5 v -2 z m 7,0 v 2 h 3 v -2 z m -20,4 v 2 h 4 v -2 z m 6,0 v 2 h 4 v -2 z m 6,0 v 2 h 4 v -2 z m 9,0 v 2 H 0 v 2 h 2 v 2 H 0 v 2 h 2 v 2 h 2 v -2 h 2 v 2 h 2 v -2 h 2 v -2 H 8 v -2 h 2 v -2 H 8 v -2 H 6 v 2 H 4 v -2 z m -21,4 v 2 h 8 v -2 z m 10,0 v 2 h 4 v -2 z m 13,0 h 2 v 2 H 4 Z" /></g><g
       inkscape:label="Capa 1"
       id="layer1-6"><g
         id="g5242-2"
         transform="translate(36,12)" /><path
         style="opacity:1;vector-effect:none;fill:#ffffff;fill-opacity:1;stroke:none;stroke-width:2;stroke-linecap:round;stroke-linejoin:round;stroke-miterlimit:4;stroke-dasharray:none;stroke-dashoffset:0;stroke-opacity:1"
         d="m 10,274.64999 v 2 h 8 v -2 z"
         id="path999-2" /><path
         style="opacity:1;vector-effect:none;fill:#67d4f1;fill-opacity:1;stroke:none;stroke-width:2;stroke-linecap:round;stroke-linejoin:round;stroke-miterlimit:4;stroke-dasharray:none;stroke-dashoffset:0;stroke-opacity:1"
         d="m 20,274.64999 v 2 h 3 v -2 z"
         id="path997-7" /><path
         style="opacity:1;fill:#ace7f7;fill-opacity:1;stroke:none;stroke-width:2;stroke-linecap:round;stroke-linejoin:round;stroke-miterlimit:4;stroke-dasharray:none;stroke-dashoffset:0;stroke-opacity:1"
         d="m 25,274.64999 v 2 h 4 v -2 z"
         id="path995-0" /><path
         style="opacity:1;vector-effect:none;fill:#67d4f1;fill-opacity:1;stroke:none;stroke-width:2;stroke-linecap:round;stroke-linejoin:round;stroke-miterlimit:4;stroke-dasharray:none;stroke-dashoffset:0;stroke-opacity:1"
         d="m 31,274.64999 v 2 h 2 v -2 z"
         id="path993-9" /><path
         style="opacity:1;fill:#ace7f7;fill-opacity:1;stroke:none;stroke-width:2;stroke-linecap:round;stroke-linejoin:round;stroke-miterlimit:4;stroke-dasharray:none;stroke-dashoffset:0;stroke-opacity:1"
         d="m 10,278.64999 v 2 h 4 v -2 z"
         id="path991-3" /><path
         style="opacity:1;fill:#ace7f7;fill-opacity:1;stroke:none;stroke-width:2;stroke-linecap:round;stroke-linejoin:round;stroke-miterlimit:4;stroke-dasharray:none;stroke-dashoffset:0;stroke-opacity:1"
         d="m 16,278.64999 v 2 h 8 v -2 z"
         id="path989-6" /><path
         style="opacity:1;vector-effect:none;fill:#67d4f1;fill-opacity:1;stroke:none;stroke-width:2;stroke-linecap:round;stroke-linejoin:round;stroke-miterlimit:4;stroke-dasharray:none;stroke-dashoffset:0;stroke-opacity:1"
         d="m 26,278.64999 v 2 h 6 v -2 z"
         id="path987-0" /><path
         style="opacity:1;vector-effect:none;fill:#ffffff;fill-opacity:1;stroke:none;stroke-width:2;stroke-linecap:round;stroke-linejoin:round;stroke-miterlimit:4;stroke-dasharray:none;stroke-dashoffset:0;stroke-opacity:1"
         d="m 10,282.64999 v 2 h 3 v -2 z"
         id="path985-6" /><path
         style="opacity:1;vector-effect:none;fill:#67d4f1;fill-opacity:1;stroke:none;stroke-width:2;stroke-linecap:round;stroke-linejoin:round;stroke-miterlimit:4;stroke-dasharray:none;stroke-dashoffset:0;stroke-opacity:1"
         d="m 15,282.64999 v 2 h 4 v -2 z"
         id="path983-2" /><path
         style="opacity:1;fill:#ace7f7;fill-opacity:1;stroke:none;stroke-width:2;stroke-linecap:round;stroke-linejoin:round;stroke-miterlimit:4;stroke-dasharray:none;stroke-dashoffset:0;stroke-opacity:1"
         d="m 21,282.64999 v 2 h 8 v -2 z"
         id="path981-6" /><path
         style="opacity:1;fill:#ace7f7;fill-opacity:1;stroke:none;stroke-width:2;stroke-linecap:round;stroke-linejoin:round;stroke-miterlimit:4;stroke-dasharray:none;stroke-dashoffset:0;stroke-opacity:1"
         d="m 31,282.64999 v 2 h 2 v -2 z"
         id="path979-1" /><path
         style="opacity:1;vector-effect:none;fill:#67d4f1;fill-opacity:1;stroke:none;stroke-width:2;stroke-linecap:round;stroke-linejoin:round;stroke-miterlimit:4;stroke-dasharray:none;stroke-dashoffset:0;stroke-opacity:1"
         d="m 10,286.64999 v 2 h 11 v -2 z"
         id="path977-8" /><path
         style="opacity:1;vector-effect:none;fill:#ffffff;fill-opacity:1;stroke:none;stroke-width:2;stroke-linecap:round;stroke-linejoin:round;stroke-miterlimit:4;stroke-dasharray:none;stroke-dashoffset:0;stroke-opacity:1"
         d="m 23,286.64999 v 2 h 4 v -2 z"
         id="path975-7" /><path
         style="vector-effect:none;fill:#ffffff;fill-opacity:1;stroke:none;stroke-width:2;stroke-linecap:round;stroke-linejoin:round;stroke-miterlimit:4;stroke-dasharray:none;stroke-dashoffset:0;stroke-opacity:1"
         d="m 30,294.64999 v 2 h 3 v -2 z"
         id="path975-2"
         sodipodi:nodetypes="ccccc" /><path
         style="opacity:1;vector-effect:none;fill:#67d4f1;fill-opacity:1;stroke:none;stroke-width:2;stroke-linecap:round;stroke-linejoin:round;stroke-miterlimit:4;stroke-dasharray:none;stroke-dashoffset:0;stroke-opacity:1"
         d="m 29,286.64999 v 2 h 4 v -2 z"
         id="path973-9" /><path
         style="opacity:1;fill:#ace7f7;fill-opacity:1;stroke:none;stroke-width:2;stroke-linecap:round;stroke-linejoin:round;stroke-miterlimit:4;stroke-dasharray:none;stroke-dashoffset:0;stroke-opacity:1"
         d="m 10,290.64999 v 2 h 4 v -2 z"
         id="path971-2" /><path
         style="opacity:1;vector-effect:none;fill:#67d4f1;fill-opacity:1;stroke:none;stroke-width:2;stroke-linecap:round;stroke-linejoin:round;stroke-miterlimit:4;stroke-dasharray:none;stroke-dashoffset:0;stroke-opacity:1"
         d="m 16,290.64999 v 2 h 8 v -2 z"
         id="path969-0" /><path
         style="opacity:1;fill:#ace7f7;fill-opacity:1;stroke:none;stroke-width:2;stroke-linecap:round;stroke-linejoin:round;stroke-miterlimit:4;stroke-dasharray:none;stroke-dashoffset:0;stroke-opacity:1"
         d="m 26,290.64999 v 2 h 6 v -2 z"
         id="path967-2" /><path
         style="opacity:1;vector-effect:none;fill:#ffffff;fill-opacity:1;stroke:none;stroke-width:2;stroke-linecap:round;stroke-linejoin:round;stroke-miterlimit:4;stroke-dasharray:none;stroke-dashoffset:0;stroke-opacity:1"
         d="m 10,294.64999 v 2 h 11 v -2 z"
         id="path965-3" /><path
         style="opacity:1;fill:#ace7f7;fill-opacity:1;stroke:none;stroke-width:2;stroke-linecap:round;stroke-linejoin:round;stroke-miterlimit:4;stroke-dasharray:none;stroke-dashoffset:0;stroke-opacity:1"
         d="m 23,294.64999 v 2 h 5 v -2 z"
         id="path963-7"
         sodipodi:nodetypes="ccccc" /><path
         style="opacity:1;fill:#ace7f7;fill-opacity:1;stroke:none;stroke-width:2;stroke-linecap:round;stroke-linejoin:round;stroke-miterlimit:4;stroke-dasharray:none;stroke-dashoffset:0;stroke-opacity:1"
         d="m 10,298.64999 v 2 h 4 v -2 z"
         id="path961-5" /><path
         style="opacity:1;vector-effect:none;fill:#67d4f1;fill-opacity:1;stroke:none;stroke-width:2;stroke-linecap:round;stroke-linejoin:round;stroke-miterlimit:4;stroke-dasharray:none;stroke-dashoffset:0;stroke-opacity:1"
         d="m 16,298.64999 v 2 h 4 v -2 z"
         id="path959-9" /><path
         style="opacity:1;vector-effect:none;fill:#67d4f1;fill-opacity:1;stroke:none;stroke-width:2;stroke-linecap:round;stroke-linejoin:round;stroke-miterlimit:4;stroke-dasharray:none;stroke-dashoffset:0;stroke-opacity:1"
         d="m 22,298.64999 v 2 h 4 v -2 z"
         id="path957-2" /><path
         style="opacity:1;vector-effect:none;fill:#67d4f1;fill-opacity:1;stroke:none;stroke-width:2;stroke-linecap:round;stroke-linejoin:round;stroke-miterlimit:4;stroke-dasharray:none;stroke-dashoffset:0;stroke-opacity:1"
         d="m 10,302.64999 v 2 h 8 v -2 z"
         id="path955-2" /><path
         style="opacity:1;fill:#ace7f7;fill-opacity:1;stroke:none;stroke-width:2;stroke-linecap:round;stroke-linejoin:round;stroke-miterlimit:4;stroke-dasharray:none;stroke-dashoffset:0;stroke-opacity:1"
         d="m 20,302.64999 v 2 h 4 v -2 z"
         id="rect1001-2-8" /><path
         style="fill:#67d4f1;fill-opacity:1;stroke:none;stroke-width:4;stroke-linecap:round;stroke-linejoin:round;stroke-miterlimit:4;stroke-dasharray:none;stroke-opacity:1"
         d="m 31,298.64999 v 2 h -2 v 2 h 2 v 2 h -2 v 2 h 2 v 2 h 2 v -2 h 2 v 2 h 2 v -2 h 2 v -2 h -2 v -2 h 2 v -2 h -2 v -2 h -2 v 2 h -2 v -2 z m 2,4 h 2 v 2 h -2 z"
         id="rect925-7"
         inkscape:connector-curvature="0" /></g></g></svg>
