<?xml version="1.0" encoding="UTF-8" standalone="no"?>
<!-- Created with Inkscape (http://www.inkscape.org/) -->

<svg
   width="48"
   height="48"
   viewBox="0 0 48 48"
   version="1.1"
   id="svg8"
   inkscape:version="1.2.2 (b0a8486541, 2022-12-01)"
   sodipodi:docname="application-x-rpm.svg"
   xml:space="preserve"
   xmlns:inkscape="http://www.inkscape.org/namespaces/inkscape"
   xmlns:sodipodi="http://sodipodi.sourceforge.net/DTD/sodipodi-0.dtd"
   xmlns:xlink="http://www.w3.org/1999/xlink"
   xmlns="http://www.w3.org/2000/svg"
   xmlns:svg="http://www.w3.org/2000/svg"
   xmlns:rdf="http://www.w3.org/1999/02/22-rdf-syntax-ns#"
   xmlns:cc="http://creativecommons.org/ns#"
   xmlns:dc="http://purl.org/dc/elements/1.1/"><title
     id="title7895">Antu icon Theme</title><defs
     id="defs2"><linearGradient
       inkscape:collect="always"
       id="linearGradient1787"><stop
         style="stop-color:#fbebee;stop-opacity:1;"
         offset="0"
         id="stop1783" /><stop
         style="stop-color:#ffffff;stop-opacity:1;"
         offset="1"
         id="stop1785" /></linearGradient><linearGradient
       gradientTransform="translate(-79.999997,-55.99997)"
       y2="322.64999"
       x2="60"
       y1="362.64999"
       x1="60"
       gradientUnits="userSpaceOnUse"
       id="linearGradient6625-7"
       xlink:href="#linearGradient4582"
       inkscape:collect="always" /><linearGradient
       inkscape:collect="always"
       id="linearGradient4582"><stop
         style="stop-color:#fc393d;stop-opacity:1"
         offset="0"
         id="stop4578" /><stop
         style="stop-color:#fd5238;stop-opacity:1"
         offset="1"
         id="stop4580" /></linearGradient><linearGradient
       inkscape:collect="always"
       xlink:href="#linearGradient1787"
       id="linearGradient1789"
       x1="24"
       y1="307.64999"
       x2="24"
       y2="296.64999"
       gradientUnits="userSpaceOnUse" /></defs><sodipodi:namedview
     id="base"
     pagecolor="#ffffff"
     bordercolor="#666666"
     borderopacity="1.0"
     inkscape:pageopacity="0.0"
     inkscape:pageshadow="2"
     inkscape:zoom="16"
     inkscape:cx="17.84375"
     inkscape:cy="37.1875"
     inkscape:document-units="px"
     inkscape:current-layer="layer1"
     showgrid="true"
     units="px"
     inkscape:window-width="2560"
     inkscape:window-height="1363"
     inkscape:window-x="0"
     inkscape:window-y="0"
     inkscape:window-maximized="1"
     objecttolerance="10"
     gridtolerance="10"
     guidetolerance="10"
     inkscape:snap-bbox="true"
     inkscape:bbox-paths="true"
     inkscape:bbox-nodes="true"
     inkscape:snap-bbox-edge-midpoints="true"
     inkscape:snap-bbox-midpoints="true"
     inkscape:object-paths="true"
     inkscape:snap-intersection-paths="true"
     inkscape:showpageshadow="2"
     inkscape:pagecheckerboard="0"
     inkscape:deskcolor="#d1d1d1"><inkscape:grid
       type="xygrid"
       id="grid7897"
       empspacing="4" /></sodipodi:namedview><metadata
     id="metadata5"><rdf:RDF><cc:Work
         rdf:about=""><dc:format>image/svg+xml</dc:format><dc:type
           rdf:resource="http://purl.org/dc/dcmitype/StillImage" /><dc:title>Antu icon Theme</dc:title></cc:Work></rdf:RDF></metadata><g
     inkscape:label="Capa 1"
     inkscape:groupmode="layer"
     id="layer1"
     transform="translate(0,-266.64999)"><g
       id="g8745"
       transform="translate(44,4)"><path
         inkscape:connector-curvature="0"
         id="rect6397-1"
         d="m -36,264.64999 h 32 c 1.662,0 3,1.33798 3,3 v 38 c 0,1.66197 -1.338,3 -3,3 h -32 c -1.661998,0 -3,-1.33803 -3,-3 v -38 c 0,-1.66202 1.338002,-3 3,-3 z"
         style="opacity:1;vector-effect:none;fill:#b2262c;fill-opacity:1;stroke:none;stroke-width:6;stroke-linecap:square;stroke-linejoin:round;stroke-miterlimit:18;stroke-dasharray:none;stroke-dashoffset:0;stroke-opacity:1;paint-order:markers stroke fill" /><path
         sodipodi:nodetypes="sssssssss"
         inkscape:connector-curvature="0"
         id="rect6399-4"
         d="m -36,265.64999 h 32 c 1.108001,0 2,0.892 2,2.00001 v 38.00001 c 0,1.10797 -0.891999,1.99997 -2,1.99997 h -32 c -1.107998,0 -2,-0.892 -2,-1.99997 V 267.65 c 0,-1.10801 0.892002,-2.00001 2,-2.00001 z"
         style="opacity:1;vector-effect:none;fill:url(#linearGradient6625-7);fill-opacity:1.0;stroke:none;stroke-width:6;stroke-linecap:square;stroke-linejoin:round;stroke-miterlimit:18;stroke-dasharray:none;stroke-dashoffset:0;stroke-opacity:1;paint-order:markers stroke fill" /><path
         inkscape:connector-curvature="0"
         style="opacity:1;fill:#010102;fill-opacity:1;stroke:none;stroke-width:1;stroke-linecap:round;stroke-linejoin:round;stroke-miterlimit:4;stroke-dasharray:none;stroke-opacity:1"
         d="m -24,264.64999 v 4 4 11 c 0,2.216 1.784,4 4,4 2.216,0 4,-1.784 4,-4 v -11 -4 -4 h -4 z"
         id="rect916" /><path
         inkscape:connector-curvature="0"
         style="opacity:1;fill:#292929;fill-opacity:1;stroke:none;stroke-width:1;stroke-linecap:round;stroke-linejoin:round;stroke-miterlimit:4;stroke-dasharray:none;stroke-opacity:1"
         d="m -23,265.64999 v 3 2 13 c 0,1.662 1.338,3 3,3 1.662,0 3,-1.338 3,-3 v -13 -2 -3 h -3 z"
         id="rect921" /><path
         id="path8130"
         d="m -20,265.64999 v 1 h 1 v -1 z m 0,1 h -1 v 1 h 1 z m 0,1 v 1 h 1 v -1 z m 0,1 h -1 v 1 h 1 z m 0,1 v 1 h 1 v -1 z m 0,1 h -1 v 1 h 1 z m 0,1 v 1 h 1 v -1 z m 0,1 h -1 v 1 h 1 z m 0,1 v 1 h 1 v -1 z m 0,1 h -1 v 1 h 1 z m 0,1 v 1 h 1 v -1 z m 0,1 h -1 v 1 h 1 z m 0,1 v 1 h 1 v -1 z m 0,1 h -1 v 1 h 1 z m 0,1 v 1 h 1 v -1 z m 0,1 h -1 v 1 h 1 z m 0,1 v 1 h 1 v -1 z m 0,1 h -1 v 1 h 1 z m 0,1 v 1 h 1 v -1 z m 0,1 h -1 v 1 h 1 z"
         style="opacity:1;fill:#f2f2f2;fill-opacity:1;stroke:none;stroke-width:1;stroke-linecap:round;stroke-linejoin:round;stroke-miterlimit:4;stroke-dasharray:none;stroke-opacity:1"
         inkscape:connector-curvature="0" /></g><path
       style="stroke-width:1.16666;fill:#b2262c;fill-opacity:1"
       d="m 24,295.64999 c -3.865986,0 -7,3.13401 -7,7 0,3.866 3.134014,7 7,7 3.865986,0 6.99999,-3.134 7,-7 -10e-6,-3.86599 -3.134014,-7 -7,-7 z"
       id="path299" /><path
       style="fill:url(#linearGradient1789);stroke-width:2.52983;stroke-linecap:square;stroke-miterlimit:1.8;fill-opacity:1"
       d="m 30,302.64999 a 6,6 0 0 1 -6,6 6,6 0 0 1 -6,-6 6,6 0 0 1 6,-6 6,6 0 0 1 6,6 z"
       id="circle111933-6" /><path
       style="fill:#292929;fill-opacity:1"
       d="m 24,300.64999 -0.93946,3.66601 a 1,1 0 0 0 -0.0508,0.19727 l -0.01,0.0371 h 0.006 a 1,1 0 0 0 -0.006,0.0996 1,1 0 0 0 1,1 1,1 0 0 0 1,-1 1,1 0 0 0 -0.004,-0.0996 h 0.004 l -0.0117,-0.043 v -0.004 a 1,1 0 0 0 -0.0527,-0.20703 z"
       id="path111935-0" /><path
       style="fill:#b2262c;fill-opacity:1;stroke:none;stroke-width:2.22222;stroke-linecap:round;stroke-linejoin:round;stroke-miterlimit:1.8;stroke-dasharray:none;stroke-opacity:1;paint-order:stroke fill markers;stop-color:#000000"
       d="m 23.999994,297.64999 a 5,5 0 0 0 -5,5 h 1 a 4,4 0 0 1 4,-4 4,4 0 0 1 4.000001,4 h 1 a 5,5 0 0 0 -5.000001,-5 z"
       id="path112760" /><path
       style="fill:#292929;fill-opacity:1;stroke:none;stroke-width:2.22222;stroke-linecap:round;stroke-linejoin:round;stroke-miterlimit:1.8;stroke-dasharray:none;stroke-opacity:1;paint-order:stroke fill markers;stop-color:#000000"
       d="m 23.999994,297.64999 a 5,5 0 0 0 -5,5 h 1 a 4,4 0 0 1 4,-4 z"
       id="path112760-9" /></g></svg>
