<?xml version="1.0" encoding="UTF-8" standalone="no"?>
<!-- Created with Inkscape (http://www.inkscape.org/) -->

<svg
   width="48"
   height="48"
   viewBox="0 0 48 48"
   version="1.1"
   id="svg8"
   inkscape:version="1.2.2 (b0a8486541, 2022-12-01)"
   sodipodi:docname="text-x-qml.svg"
   xml:space="preserve"
   xmlns:inkscape="http://www.inkscape.org/namespaces/inkscape"
   xmlns:sodipodi="http://sodipodi.sourceforge.net/DTD/sodipodi-0.dtd"
   xmlns:xlink="http://www.w3.org/1999/xlink"
   xmlns="http://www.w3.org/2000/svg"
   xmlns:svg="http://www.w3.org/2000/svg"
   xmlns:rdf="http://www.w3.org/1999/02/22-rdf-syntax-ns#"
   xmlns:cc="http://creativecommons.org/ns#"
   xmlns:dc="http://purl.org/dc/elements/1.1/"><title
     id="title7895">Antu icon Theme</title><defs
     id="defs2"><linearGradient
       inkscape:collect="always"
       id="linearGradient4116"><stop
         style="stop-color:#e2e2e2;stop-opacity:1;"
         offset="0"
         id="stop4112" /><stop
         style="stop-color:#f5f5f5;stop-opacity:1;"
         offset="1"
         id="stop4114" /></linearGradient><linearGradient
       inkscape:collect="always"
       id="linearGradient2245"><stop
         style="stop-color:#209c6c;stop-opacity:1;"
         offset="0"
         id="stop2241" /><stop
         style="stop-color:#24b07a;stop-opacity:1;"
         offset="1"
         id="stop2243" /></linearGradient><linearGradient
       inkscape:collect="always"
       id="linearGradient2330"><stop
         style="stop-color:#e4efef;stop-opacity:1;"
         offset="0"
         id="stop2326" /><stop
         style="stop-color:#fcfcfc;stop-opacity:1;"
         offset="1"
         id="stop2328" /></linearGradient><style
       id="current-color-scheme"
       type="text/css">
      .ColorScheme-Text {
        color:#122036;
      }
      </style><style
       id="current-color-scheme-2"
       type="text/css">
      .ColorScheme-Text {
        color:#122036;
      }
      </style><style
       id="current-color-scheme-0"
       type="text/css">
      .ColorScheme-Text {
        color:#122036;
      }
      </style><style
       id="current-color-scheme-5"
       type="text/css">
      .ColorScheme-Text {
        color:#122036;
      }
      </style><linearGradient
       inkscape:collect="always"
       xlink:href="#linearGradient2330"
       id="linearGradient2332"
       x1="-6.000001"
       y1="294.64999"
       x2="-6.000001"
       y2="252.65001"
       gradientUnits="userSpaceOnUse" /><style
       id="current-color-scheme-53"
       type="text/css">
      .ColorScheme-Text {
        color:#122036;
      }
      </style><style
       id="current-color-scheme-2-5"
       type="text/css">
      .ColorScheme-Text {
        color:#122036;
      }
      </style><style
       id="current-color-scheme-0-6"
       type="text/css">
      .ColorScheme-Text {
        color:#122036;
      }
      </style><style
       type="text/css"
       id="current-color-scheme-56">
      .ColorScheme-Text {
        color:#122036;
      }
      </style><style
       id="current-color-scheme-5-2"
       type="text/css">
      .ColorScheme-Text {
        color:#122036;
      }
      </style><style
       id="current-color-scheme-2-9"
       type="text/css">
      .ColorScheme-Text {
        color:#122036;
      }
      </style><style
       id="current-color-scheme-1"
       type="text/css">
      .ColorScheme-Text {
        color:#122036;
      }
      </style><style
       type="text/css"
       id="current-color-scheme-10">
      .ColorScheme-Text {
        color:#122036;
      }
      </style><style
       id="current-color-scheme-0-1"
       type="text/css">
      .ColorScheme-Text {
        color:#122036;
      }
      </style><style
       id="current-color-scheme-26"
       type="text/css">
      .ColorScheme-Text {
        color:#122036;
      }
      </style><style
       type="text/css"
       id="current-color-scheme-27">
      .ColorScheme-Text {
        color:#122036;
      }
      </style><style
       type="text/css"
       id="current-color-scheme-7">
      .ColorScheme-Text {
        color:#122036;
      }
      </style><style
       type="text/css"
       id="current-color-scheme-5-09">
      .ColorScheme-Text {
        color:#122036;
      }
      </style><style
       type="text/css"
       id="current-color-scheme-0-3">
      .ColorScheme-Text {
        color:#122036;
      }
      </style><style
       type="text/css"
       id="current-color-scheme-7-9">
      .ColorScheme-Text {
        color:#122036;
      }
      </style><style
       type="text/css"
       id="current-color-scheme-5-3">
      .ColorScheme-Text {
        color:#122036;
      }
      </style><style
       type="text/css"
       id="current-color-scheme-79">
      .ColorScheme-Text {
        color:#122036;
      }
      </style><style
       type="text/css"
       id="current-color-scheme-7-2">
      .ColorScheme-Text {
        color:#122036;
      }
      </style><style
       type="text/css"
       id="current-color-scheme-5-0">
      .ColorScheme-Text {
        color:#122036;
      }
      </style><style
       id="current-color-scheme-04"
       type="text/css">
      .ColorScheme-Text {
        color:#122036;
      }
      </style><style
       id="current-color-scheme-6"
       type="text/css">
      .ColorScheme-Text {
        color:#122036;
      }
      </style><style
       id="current-color-scheme-67"
       type="text/css">
      .ColorScheme-Text {
        color:#122036;
      }
      </style><style
       type="text/css"
       id="current-color-scheme-1-8">
      .ColorScheme-Text {
        color:#122036;
      }
      </style><linearGradient
       inkscape:collect="always"
       xlink:href="#linearGradient2245"
       id="linearGradient2247"
       x1="3.175"
       y1="2.3812499"
       x2="3.175"
       y2="0.79374999"
       gradientUnits="userSpaceOnUse" /><linearGradient
       inkscape:collect="always"
       xlink:href="#linearGradient4116"
       id="linearGradient4118"
       x1="3.175"
       y1="5.5562501"
       x2="3.175"
       y2="2.3812499"
       gradientUnits="userSpaceOnUse" /></defs><sodipodi:namedview
     id="base"
     pagecolor="#ffffff"
     bordercolor="#666666"
     borderopacity="1.0"
     inkscape:pageopacity="0.0"
     inkscape:pageshadow="2"
     inkscape:zoom="8.0000005"
     inkscape:cx="38.062498"
     inkscape:cy="26.562498"
     inkscape:document-units="px"
     inkscape:current-layer="g2217"
     showgrid="true"
     units="px"
     inkscape:window-width="1469"
     inkscape:window-height="1236"
     inkscape:window-x="0"
     inkscape:window-y="0"
     inkscape:window-maximized="0"
     objecttolerance="10"
     gridtolerance="10"
     guidetolerance="10"
     inkscape:snap-bbox="true"
     inkscape:bbox-paths="true"
     inkscape:bbox-nodes="true"
     inkscape:snap-bbox-edge-midpoints="true"
     inkscape:snap-bbox-midpoints="true"
     inkscape:object-paths="true"
     inkscape:snap-intersection-paths="true"
     inkscape:showpageshadow="2"
     inkscape:pagecheckerboard="0"
     inkscape:deskcolor="#d1d1d1"
     showguides="false"><inkscape:grid
       type="xygrid"
       id="grid7897"
       empspacing="4" /></sodipodi:namedview><metadata
     id="metadata5"><rdf:RDF><cc:Work
         rdf:about=""><dc:format>image/svg+xml</dc:format><dc:type
           rdf:resource="http://purl.org/dc/dcmitype/StillImage" /><dc:title>Antu icon Theme</dc:title></cc:Work></rdf:RDF></metadata><g
     inkscape:label="Capa 1"
     inkscape:groupmode="layer"
     id="layer1"
     transform="translate(0,-266.64999)"><g
       id="g2217"
       transform="translate(30.000001,16.999985)"><path
         style="fill:#90a4ae;fill-opacity:1;stroke:none;stroke-width:6;stroke-linecap:square;stroke-linejoin:round;stroke-miterlimit:18;stroke-dasharray:none;stroke-dashoffset:0;stroke-opacity:1;paint-order:markers stroke fill"
         d="m -22,251.65001 h 32 c 1.662,0 3,1.33799 3,3 V 292.65 c 0,1.662 -1.338,3 -3,3 h -32 c -1.66199,0 -3,-1.338 -3,-3 v -38 c 0,-1.662 1.33801,-3 3,-2.99999 z"
         id="rect6397-1-9-0"
         inkscape:connector-curvature="0" /><path
         style="fill:url(#linearGradient2332);fill-opacity:1;stroke:none;stroke-width:6;stroke-linecap:square;stroke-linejoin:round;stroke-miterlimit:18;stroke-dasharray:none;stroke-dashoffset:0;stroke-opacity:1;paint-order:markers stroke fill"
         d="m -22,252.65001 h 32 c 1.108,0 2,0.89199 2,2 V 292.65 c 0,1.108 -0.892,2 -2,2 h -32 c -1.10799,0 -2,-0.892 -2,-2 v -38 c 0,-1.108 0.89201,-2 2,-1.99999 z"
         id="rect6399-4-3-2"
         inkscape:connector-curvature="0"
         sodipodi:nodetypes="sssssssss" /><path
         id="rect850-5-9-7-9-7-0-4-4-1"
         style="fill:#d0dcdf;fill-opacity:1;stroke-width:1.2;stroke-linecap:round;stroke-linejoin:round;stroke-miterlimit:1.8;paint-order:stroke fill markers;stop-color:#000000"
         d="m -20.99999,252.65001 v 3 h 3 v -3 z m 3,3 v 3 h 3 v -3 z m 3,0 h 3 v -3 h -3 z m 3,0 v 3 h 3 v -3 z m 3,0 h 3 v -3 h -3 z m 3,0 v 3 h 3 v -3 z m 3,0 h 3 v -3 h -3 z m 3,0 v 3 h 3 v -3 z m 3,0 h 3 v -3 h -3 z m 3,0 v 3 h 3 v -3 z m 3,0 h 1.5 1.5 v -1.5 c 0,-0.83099 -0.669,-1.5 -1.5,-1.5 h -1.5 v 1.5 z m 0,3 v 3 h 3 v -3 z m 0,3 h -3 v 3 h 3 z m 0,3 v 3 h 3 v -3 z m 0,3 h -3 v 3 h 3 z m 0,3 v 3 h 3 v -3 z m 0,3 h -3 v 3 h 3 z m 0,3 V 279.65 h 3 v -3 z m 0,2.99999 h -3 v 3 h 3 z m 0,3 v 3 h 3 v -3 z m 0,3 h -3 v 3 h 3 z m 0,3 v 3 h 3 v -3 z m 0,3 h -3 v 3 h 3 z m -3,0 v -3 h -3 v 3 z m -3,0 h -3 v 3 h 3 z m -3,0 v -3 h -3 v 3 z m -3,0 h -3 v 3 h 3 z m -3,0 v -3 h -3 v 3 z m -3,0 h -3 v 3 h 3 z m -3,0 v -3 h -3 v 3 z m -3,0 h -3 v 3 h 3 z m -3,0 v -3 h -3 v 3 z m -3,0 h -1.5 -1.5 v 1.5 c 0,0.83099 0.669,1.5 1.5,1.5 h 1.5 v -1.5 z m 0,-3 v -3 h -3 v 3 z m 0,-3 h 3 v -3 h -3 z m 0,-3 v -3 h -3 v 3 z m 0,-3 h 3 v -3 h -3 z m 0,-3 v -3 h -3 v 3 z m 0,-3 h 3 v -3 h -3 z m 0,-3 v -3 h -3 v 3 z m 0,-3 h 3 v -3 h -3 z m 0,-3 v -3 h -3 v 3 z m 0,-3 h 3 v -3 h -3 z m 0,-3 v -3 h -3 v 3 z m 3,3 v 3 h 3 v -3 z m 3,0 h 3 v -3 h -3 z m 3,0 v 3 h 3 v -3 z m 3,0 h 3 v -3 h -3 z m 3,0 v 3 h 3 v -3 z m 3,0 h 3 v -3 h -3 z m 3,0 v 3 h 3 v -3 z m 3,0 h 3 v -3 h -3 z m 0,3 v 3 h 3 v -3 z m 0,3 h -3 v 3 h 3 z m 0,3 v 3 h 3 v -3 z m 0,3 h -3 v 3 h 3 z m 0,3 v 3 h 3 v -3 z m 0,3 h -3 v 3 h 3 z m 0,3 v 3 h 3 v -3 z m 0,3 h -3 v 3 h 3 z m -3,0 v -3 h -3 v 3 z m -3,0 h -3 v 3 h 3 z m -3,0 v -3 h -3 v 3 z m -3,0 h -3 v 3 h 3 z m -3,0 v -3 h -3 v 3 z m -3,0 h -3 v 3 h 3 z m 0,-3 v -3 h -3 v 3 z m 0,-3 h 3 v -3 h -3 z m 0,-3 v -3 h -3 v 3 z m 0,-3 h 3 v -3 h -3 z m 0,-3 v -3 h -3 v 3 z m 0,-3 h 3 v -3 h -3 z m 3,0 v 3 h 3 v -3 z m 3,0 h 3 v -3 h -3 z m 3,0 v 3 h 3 v -3 z m 3,0 h 3 v -3 h -3 z m 0,3 v 3 h 3 v -3 z m 0,3 h -3 v 3 h 3 z m 0,3 v 3 h 3 v -3 z m 0,3 h -3 v 3 h 3 z m -3,0 v -3 h -3 v 3 z m -3,0 h -3 v 3 h 3 z m 0,-3 v -3 h -3 v 3 z m 0,-3 h 3 v -3 h -3 z" /><g
         inkscape:label="Capa 1"
         id="layer1-9"
         transform="translate(-30.000001,-16.999985)"><path
           id="rect1001-3"
           style="vector-effect:none;fill:#b9c7cd;fill-opacity:1;stroke:none;stroke-width:2;stroke-linecap:round;stroke-linejoin:round;stroke-miterlimit:4;stroke-dasharray:none;stroke-dashoffset:0;stroke-opacity:1"
           d="m 12.99998,277.64999 c -0.0693,0 -0.13596,0.006 -0.20117,0.0195 -0.0652,0.0133 -0.1296,0.0334 -0.18945,0.0586 -0.0599,0.0252 -0.11674,0.0559 -0.16993,0.0918 -0.0532,0.0359 -0.10129,0.0779 -0.14648,0.12305 -0.0452,0.0452 -0.0872,0.0933 -0.12305,0.14648 -0.0359,0.0532 -0.0666,0.11007 -0.0918,0.16993 -0.0252,0.0598 -0.0453,0.12423 -0.0586,0.18945 C 12.0062,278.514 12,278.58072 12,278.64997 v 4 2 1 11 c 0,0.554 0.446,1 1,1 h 22 c 0.554,0 1,-0.446 1,-1 v -12 -6 c 0,-0.0693 -0.006,-0.13596 -0.0195,-0.20117 -0.0133,-0.0652 -0.0334,-0.1296 -0.0586,-0.18945 -0.0252,-0.0599 -0.0559,-0.11674 -0.0918,-0.16993 -0.0359,-0.0532 -0.0779,-0.10129 -0.12305,-0.14648 -0.0452,-0.0452 -0.0933,-0.0872 -0.14648,-0.12305 -0.0532,-0.0359 -0.11007,-0.0666 -0.16993,-0.0918 -0.0599,-0.0252 -0.12423,-0.0453 -0.18945,-0.0586 -0.0652,-0.0133 -0.13192,-0.0195 -0.20117,-0.0195 z m -2,24 v 2 h 8 v -2 z m 10,0 v 2 h 3 v -2 z m 5,0 v 2 h 4 v -2 z m 6,0 v 2 h 5 v -2 z m -21,4 v 2 h 4 v -2 z m 6,0 v 2 h 8 v -2 z m 10,0 v 2 h 9 v -2 z" /><path
           sodipodi:nodetypes="ccccccccccccccccccccccccccccccccccc"
           inkscape:connector-curvature="0"
           id="rect1001"
           d="m 11,300.64999 v 2 h 8 v -2 z m 10,0 v 2 h 3 v -2 z m 5,0 v 2 h 4 v -2 z m 6,0 v 2 h 5 v -2 z m -21,4 v 2 h 4 v -2 z m 6,0 v 2 h 8 v -2 z m 10,0 v 2 h 9 v -2 z"
           style="vector-effect:none;fill:#00804b;fill-opacity:1;stroke:none;stroke-width:2;stroke-linecap:round;stroke-linejoin:round;stroke-miterlimit:4;stroke-dasharray:none;stroke-dashoffset:0;stroke-opacity:1" /><g
           inkscape:label="Capa 1"
           id="layer1-8"
           transform="matrix(3.7795276,0,0,3.7795276,12,274.64999)"><path
             id="rect1345"
             style="opacity:1;fill:#90a4ae;fill-opacity:1;stroke-width:0.529167;stroke-linecap:round;stroke-linejoin:round;stroke-miterlimit:1.8;paint-order:fill markers stroke;stop-color:#000000"
             d="m 0.26458331,0.52916639 5.82083319,2.3e-7 c 0.1465792,10e-9 0.2645833,0.11800417 0.2645833,0.26458331 V 5.5562497 c 0,0.1465792 -0.1180041,0.2645833 -0.2645833,0.2645833 l -5.8208332,-2e-7 C 0.11800412,5.8208328 -4.9840764e-8,5.7028287 -4.9532986e-8,5.5562495 l 1e-8,-4.76249977 C -3.9225208e-8,0.64717057 0.11800413,0.52916638 0.26458331,0.52916639 Z"
             sodipodi:nodetypes="sssssssss" /><path
             id="rect1345-7"
             style="fill:url(#linearGradient4118);fill-opacity:1;stroke-width:0.529167;stroke-linecap:round;stroke-linejoin:round;stroke-miterlimit:1.8;paint-order:fill markers stroke;stop-color:#000000"
             d="M 0.26458333,0.79374993 H 6.0854166 V 5.5562499 H 0.26458333 Z"
             sodipodi:nodetypes="ccccc" /><path
             id="rect1852"
             style="opacity:1;fill:#00804b;fill-opacity:1;stroke-width:0.529167;stroke-linecap:round;stroke-linejoin:round;stroke-miterlimit:1.8;paint-order:fill markers stroke;stop-color:#000000"
             d="M 0.26458335,0.52916658 H 6.0854165 c 0.1465792,0 0.2645833,0.11800417 0.2645833,0.26458335 V 2.3812497 c 0,0.1465792 -0.1180041,0.2645834 -0.2645833,0.2645834 H 0.26458335 C 0.11800417,2.6458331 0,2.5278289 0,2.3812497 V 0.79374993 C 0,0.64717075 0.11800417,0.52916658 0.26458335,0.52916658 Z"
             sodipodi:nodetypes="sssssssss" /><path
             id="rect2458"
             style="opacity:1;fill:#00804b;fill-opacity:1;stroke-width:0.529167;stroke-linecap:round;stroke-linejoin:round;stroke-miterlimit:1.8;paint-order:fill markers stroke;stop-color:#000000"
             d="m 0,1.8520832 6.0854165,1e-7 v 0.79375 L 0,2.6458332 Z"
             sodipodi:nodetypes="ccccc" /><path
             id="rect2460"
             style="opacity:1;fill:url(#linearGradient2247);fill-opacity:1;stroke-width:0.529167;stroke-linecap:round;stroke-linejoin:round;stroke-miterlimit:1.8;paint-order:fill markers stroke;stop-color:#000000"
             d="m 0.26458333,0.79374996 5.82083307,-3e-8 V 2.3812499 l -5.82083307,1e-7 z"
             sodipodi:nodetypes="ccccc" /><path
             id="rect3411"
             style="opacity:1;fill:#e1eee9;fill-opacity:1;stroke-width:0.529167;stroke-linecap:round;stroke-linejoin:round;stroke-miterlimit:1.8;paint-order:fill markers stroke;stop-color:#000000"
             d="M 1.0443807,1.0583333 C 0.75760427,1.0655504 0.52916666,1.2989226 0.52916666,1.5875 c 0,0.293158 0.23600861,0.5291666 0.52916674,0.5291666 0.293158,0 0.5291666,-0.2360086 0.5291666,-0.5291666 0,-0.293158 -0.2360086,-0.5291667 -0.5291666,-0.5291667 -0.00458,0 -0.0094,-1.145e-4 -0.013953,0 z m 1.3229167,0 C 2.0805209,1.0655504 1.8520833,1.2989226 1.8520833,1.5875 c 0,0.293158 0.2360086,0.5291666 0.5291667,0.5291666 0.293158,0 0.5291667,-0.2360086 0.5291667,-0.5291666 0,-0.293158 -0.2360087,-0.5291667 -0.5291667,-0.5291667 -0.00458,0 -0.0094,-1.145e-4 -0.013953,0 z m 1.3229166,0 C 3.4034376,1.0655504 3.175,1.2989226 3.175,1.5875 c 0,0.293158 0.2360087,0.5291666 0.5291667,0.5291666 0.293158,0 0.5291666,-0.2360086 0.5291666,-0.5291666 0,-0.293158 -0.2360086,-0.5291667 -0.5291666,-0.5291667 -0.00458,0 -0.0094,-1.145e-4 -0.013953,0 z" /></g><g
           inkscape:label="Capa 1"
           id="layer1-8-6"
           transform="matrix(3.7795276,0,0,3.7795276,88,282.64999)" /></g></g></g></svg>
