<?xml version="1.0" encoding="UTF-8" standalone="no"?>
<!-- Created with Inkscape (http://www.inkscape.org/) -->

<svg
   width="48"
   height="48"
   viewBox="0 0 48 48"
   version="1.1"
   id="svg8"
   inkscape:version="1.2.2 (b0a8486541, 2022-12-01)"
   sodipodi:docname="text-xml.svg"
   xml:space="preserve"
   xmlns:inkscape="http://www.inkscape.org/namespaces/inkscape"
   xmlns:sodipodi="http://sodipodi.sourceforge.net/DTD/sodipodi-0.dtd"
   xmlns:xlink="http://www.w3.org/1999/xlink"
   xmlns="http://www.w3.org/2000/svg"
   xmlns:svg="http://www.w3.org/2000/svg"
   xmlns:rdf="http://www.w3.org/1999/02/22-rdf-syntax-ns#"
   xmlns:cc="http://creativecommons.org/ns#"
   xmlns:dc="http://purl.org/dc/elements/1.1/"><title
     id="title7895">Antu icon Theme</title><defs
     id="defs2"><linearGradient
       gradientTransform="translate(-79.999997,-55.99997)"
       y2="322.64999"
       x2="60"
       y1="362.64999"
       x1="60"
       gradientUnits="userSpaceOnUse"
       id="linearGradient6625-7"
       xlink:href="#linearGradient2902"
       inkscape:collect="always" /><linearGradient
       id="linearGradient2902"
       inkscape:collect="always"><stop
         id="stop2898"
         offset="0"
         style="stop-color:#7986cb;stop-opacity:1;" /><stop
         id="stop2900"
         offset="1"
         style="stop-color:#828fd9;stop-opacity:1;" /></linearGradient><style
       id="current-color-scheme"
       type="text/css">
      .ColorScheme-Text {
        color:#122036;
      }
      </style><style
       type="text/css"
       id="current-color-scheme-53">
      .ColorScheme-Text {
        color:#122036;
      }
      </style><style
       id="current-color-scheme-5"
       type="text/css">
      .ColorScheme-Text {
        color:#122036;
      }
      </style><style
       id="current-color-scheme-2"
       type="text/css">
      .ColorScheme-Text {
        color:#122036;
      }
      </style><style
       id="current-color-scheme-1"
       type="text/css">
      .ColorScheme-Text {
        color:#122036;
      }
      </style><style
       type="text/css"
       id="current-color-scheme-10">
      .ColorScheme-Text {
        color:#122036;
      }
      </style><style
       id="current-color-scheme-0"
       type="text/css">
      .ColorScheme-Text {
        color:#122036;
      }
      </style><style
       id="current-color-scheme-26"
       type="text/css">
      .ColorScheme-Text {
        color:#122036;
      }
      </style><style
       id="current-color-scheme-7"
       type="text/css">
      .ColorScheme-Text {
        color:#122036;
      }
      </style><style
       id="current-color-scheme-535"
       type="text/css">
      .ColorScheme-Text {
        color:#122036;
      }
      </style><style
       id="current-color-scheme-2-6"
       type="text/css">
      .ColorScheme-Text {
        color:#122036;
      }
      </style><style
       id="current-color-scheme-0-2"
       type="text/css">
      .ColorScheme-Text {
        color:#122036;
      }
      </style></defs><sodipodi:namedview
     id="base"
     pagecolor="#ffffff"
     bordercolor="#666666"
     borderopacity="1.0"
     inkscape:pageopacity="0.0"
     inkscape:pageshadow="2"
     inkscape:zoom="22.627418"
     inkscape:cx="29.831066"
     inkscape:cy="21.257397"
     inkscape:document-units="px"
     inkscape:current-layer="g4540"
     showgrid="true"
     units="px"
     inkscape:window-width="2560"
     inkscape:window-height="1363"
     inkscape:window-x="0"
     inkscape:window-y="0"
     inkscape:window-maximized="1"
     objecttolerance="10"
     gridtolerance="10"
     guidetolerance="10"
     inkscape:snap-bbox="true"
     inkscape:bbox-paths="true"
     inkscape:bbox-nodes="true"
     inkscape:snap-bbox-edge-midpoints="true"
     inkscape:snap-bbox-midpoints="true"
     inkscape:object-paths="true"
     inkscape:snap-intersection-paths="true"
     inkscape:showpageshadow="2"
     inkscape:pagecheckerboard="0"
     inkscape:deskcolor="#d1d1d1"><inkscape:grid
       type="xygrid"
       id="grid7897"
       empspacing="4" /></sodipodi:namedview><metadata
     id="metadata5"><rdf:RDF><cc:Work
         rdf:about=""><dc:format>image/svg+xml</dc:format><dc:type
           rdf:resource="http://purl.org/dc/dcmitype/StillImage" /><dc:title>Antu icon Theme</dc:title></cc:Work></rdf:RDF></metadata><g
     inkscape:label="Capa 1"
     inkscape:groupmode="layer"
     id="layer1"
     transform="translate(0,-266.64999)"><g
       id="g8745"
       transform="translate(44,4)"><path
         inkscape:connector-curvature="0"
         id="rect6397-1"
         d="m -36,264.64999 h 32 c 1.662,0 3,1.33798 3,3 v 38 c 0,1.66197 -1.338,3 -3,3 h -32 c -1.661998,0 -3,-1.33803 -3,-3 v -38 c 0,-1.66202 1.338002,-3 3,-3 z"
         style="opacity:1;vector-effect:none;fill:#4a5599;fill-opacity:1;stroke:none;stroke-width:6;stroke-linecap:square;stroke-linejoin:round;stroke-miterlimit:18;stroke-dasharray:none;stroke-dashoffset:0;stroke-opacity:1;paint-order:markers stroke fill" /><path
         sodipodi:nodetypes="sssssssss"
         inkscape:connector-curvature="0"
         id="rect6399-4"
         d="m -36,265.64999 h 32 c 1.108001,0 2,0.892 2,2.00001 v 38.00001 c 0,1.10797 -0.891999,1.99997 -2,1.99997 h -32 c -1.107998,0 -2,-0.892 -2,-1.99997 V 267.65 c 0,-1.10801 0.892002,-2.00001 2,-2.00001 z"
         style="opacity:1;vector-effect:none;fill:url(#linearGradient6625-7);fill-opacity:1.0;stroke:none;stroke-width:6;stroke-linecap:square;stroke-linejoin:round;stroke-miterlimit:18;stroke-dasharray:none;stroke-dashoffset:0;stroke-opacity:1;paint-order:markers stroke fill" /><g
         id="g2217"
         transform="translate(-13.999999,12.999985)"><g
           id="g4540"
           transform="translate(-35.999991,-39.999995)"><g
             id="g2779"
             transform="translate(-120,53.000015)"
             style="fill:#ffffff;fill-opacity:0.13095239"><path
               id="rect850-5-9-7-9-7-0-4-4"
               style="fill:#ffffff;fill-opacity:0.13095239;stroke-width:1.2;stroke-linecap:round;stroke-linejoin:round;stroke-miterlimit:1.8;paint-order:stroke fill markers;stop-color:#000000"
               d="m 135,239.64999 v 3 h 3 v -3 z m 3,3 v 3 h 3 v -3 z m 3,0 h 3 v -3 h -3 z m 3,0 v 3 h 3 v -3 z m 3,0 h 3 v -3 h -3 z m 3,0 v 3 h 3 v -3 z m 3,0 h 3 v -3 h -3 z m 3,0 v 3 h 3 v -3 z m 3,0 h 3 v -3 h -3 z m 3,0 v 3 h 3 v -3 z m 3,0 h 1.5 1.5 v -1.5 c 0,-0.83099 -0.669,-1.5 -1.5,-1.5 H 165 v 1.5 z m 0,3 v 3 h 3 v -3 z m 0,3 h -3 v 3 h 3 z m 0,3 v 3 h 3 v -3 z m 0,3 h -3 v 3 h 3 z m 0,3 v 3 h 3 v -3 z m 0,3 h -3 v 3 h 3 z m 0,3 v 2.99999 h 3 v -3 z m 0,2.99999 h -3 v 3 h 3 z m 0,3 v 3 h 3 v -3 z m 0,3 h -3 v 3 h 3 z m 0,3 v 3 h 3 v -3 z m 0,3 h -3 v 3 h 3 z m -3,0 v -3 h -3 v 3 z m -3,0 h -3 v 3 h 3 z m -3,0 v -3 h -3 v 3 z m -3,0 h -3 v 3 h 3 z m -3,0 v -3 h -3 v 3 z m -3,0 h -3 v 3 h 3 z m -3,0 v -3 h -3 v 3 z m -3,0 h -3 v 3 h 3 z m -3,0 v -3 h -3 v 3 z m -3,0 h -1.5 -1.5 v 1.5 c 0,0.83099 0.669,1.5 1.5,1.5 h 1.5 v -1.5 z m 0,-3 v -3 h -3 v 3 z m 0,-3 h 3 v -3 h -3 z m 0,-3 v -3 h -3 v 3 z m 0,-3 h 3 v -3 h -3 z m 0,-3 v -3 h -3 v 3 z m 0,-3 h 3 v -3 h -3 z m 0,-3 v -3 h -3 v 3 z m 0,-3 h 3 v -3 h -3 z m 0,-3 v -3 h -3 v 3 z m 0,-3 h 3 v -3 h -3 z m 0,-3 v -3 h -3 v 3 z m 3,3 v 3 h 3 v -3 z m 3,0 h 3 v -3 h -3 z m 3,0 v 3 h 3 v -3 z m 3,0 h 3 v -3 h -3 z m 3,0 v 3 h 3 v -3 z m 3,0 h 3 v -3 h -3 z m 3,0 v 3 h 3 v -3 z m 3,0 h 3 v -3 h -3 z m 0,3 v 3 h 3 v -3 z m 0,3 h -3 v 3 h 3 z m 0,3 v 3 h 3 v -3 z m 0,3 h -3 v 3 h 3 z m 0,3 v 3 h 3 v -3 z m 0,3 h -3 v 3 h 3 z m 0,3 v 3 h 3 v -3 z m 0,3 h -3 v 3 h 3 z m -3,0 v -3 h -3 v 3 z m -3,0 h -3 v 3 h 3 z m -3,0 v -3 h -3 v 3 z m -3,0 h -3 v 3 h 3 z m -3,0 v -3 h -3 v 3 z m -3,0 h -3 v 3 h 3 z m 0,-3 v -3 h -3 v 3 z m 0,-3 h 3 v -3 h -3 z m 0,-3 v -3 h -3 v 3 z m 0,-3 h 3 v -3 h -3 z m 0,-3 v -3 h -3 v 3 z m 0,-3 h 3 v -3 h -3 z m 3,0 v 3 h 3 v -3 z m 3,0 h 3 v -3 h -3 z m 3,0 v 3 h 3 v -3 z m 3,0 h 3 v -3 h -3 z m 0,3 v 3 h 3 v -3 z m 0,3 h -3 v 3 h 3 z m 0,3 v 3 h 3 v -3 z m 0,3 h -3 v 3 h 3 z m -3,0 v -3 h -3 v 3 z m -3,0 h -3 v 3 h 3 z m 0,-3 v -3 h -3 v 3 z m 0,-3 h 3 v -3 h -3 z" /></g><g
             stroke-linecap="round"
             stroke-linejoin="round"
             stroke-miterlimit="1.8"
             id="g706"
             transform="matrix(1.4284948,0,0,1.4284948,127.13764,-118.68442)"><path
               d="m -70,308.64999 4,-12"
               fill="#a2aee9"
               stroke-width="2"
               id="path704" /></g><path
             id="path2090-0"
             style="color:#000000;fill:#4a5599;fill-opacity:1;stroke-linecap:round;stroke-linejoin:round;stroke-miterlimit:1.8;paint-order:stroke fill markers"
             d="m 32.929483,304.65246 a 1,1 0 0 0 -0.878906,0.68164 l -6,18 a 1,1 0 0 0 0.632813,1.26563 1,1 0 0 0 1.265625,-0.63281 l 6,-18 a 1,1 0 0 0 -0.632813,-1.26563 1,1 0 0 0 -0.386719,-0.0488 z m -10.085937,3.01172 a 1,1 0 0 0 -0.550781,0.2793 l -6,6 a 1.0001,1.0001 0 0 0 0,1.41406 l 6,6 a 1,1 0 0 0 1.414062,0 1,1 0 0 0 0,-1.41406 l -5.292968,-5.29297 5.292968,-5.29297 a 1,1 0 0 0 0,-1.41406 1,1 0 0 0 -0.863281,-0.2793 z m 14,0 a 1,1 0 0 0 -0.550781,0.2793 1,1 0 0 0 0,1.41406 l 5.292968,5.29297 -5.292968,5.29297 a 1,1 0 0 0 0,1.41406 1,1 0 0 0 1.414062,0 l 6,-6 a 1.0001,1.0001 0 0 0 0,-1.41406 l -6,-6 a 1,1 0 0 0 -0.863281,-0.2793 z" /><path
             id="path2090"
             style="color:#000000;fill:#eaedf9;stroke-linecap:round;stroke-linejoin:round;stroke-miterlimit:1.8;paint-order:stroke fill markers"
             d="m 32.929677,303.65195 a 1,1 0 0 0 -0.878906,0.68164 l -6,18 a 1,1 0 0 0 0.632813,1.26563 1,1 0 0 0 1.265625,-0.63281 l 6,-18 a 1,1 0 0 0 -0.632813,-1.26563 1,1 0 0 0 -0.386719,-0.0488 z m -10.085937,3.01172 a 1,1 0 0 0 -0.550781,0.2793 l -6,6 a 1.0001,1.0001 0 0 0 0,1.41406 l 6,6 a 1,1 0 0 0 1.414062,0 1,1 0 0 0 0,-1.41406 l -5.292968,-5.29297 5.292968,-5.29297 a 1,1 0 0 0 0,-1.41406 1,1 0 0 0 -0.863281,-0.2793 z m 14,0 a 1,1 0 0 0 -0.550781,0.2793 1,1 0 0 0 0,1.41406 l 5.292968,5.29297 -5.292968,5.29297 a 1,1 0 0 0 0,1.41406 1,1 0 0 0 1.414062,0 l 6,-6 a 1.0001,1.0001 0 0 0 0,-1.41406 l -6,-6 a 1,1 0 0 0 -0.863281,-0.2793 z" /></g><g
           transform="translate(24.918525,-38.769442)"
           id="g708" /></g></g></g></svg>
