<?xml version="1.0" encoding="UTF-8" standalone="no"?>
<!-- Created with Inkscape (http://www.inkscape.org/) -->

<svg
   width="48"
   height="48"
   viewBox="0 0 48 48"
   version="1.1"
   id="svg8"
   inkscape:version="1.2.2 (b0a8486541, 2022-12-01)"
   sodipodi:docname="application-x-chm.svg"
   xml:space="preserve"
   xmlns:inkscape="http://www.inkscape.org/namespaces/inkscape"
   xmlns:sodipodi="http://sodipodi.sourceforge.net/DTD/sodipodi-0.dtd"
   xmlns:xlink="http://www.w3.org/1999/xlink"
   xmlns="http://www.w3.org/2000/svg"
   xmlns:svg="http://www.w3.org/2000/svg"
   xmlns:rdf="http://www.w3.org/1999/02/22-rdf-syntax-ns#"
   xmlns:cc="http://creativecommons.org/ns#"
   xmlns:dc="http://purl.org/dc/elements/1.1/"><title
     id="title7895">Antu icon Theme</title><defs
     id="defs2"><linearGradient
       inkscape:collect="always"
       id="linearGradient2072"><stop
         style="stop-color:#1178ee;stop-opacity:1;"
         offset="0"
         id="stop2068" /><stop
         style="stop-color:#34b0fa;stop-opacity:1;"
         offset="1"
         id="stop2070" /></linearGradient><style
       id="current-color-scheme"
       type="text/css">
      .ColorScheme-Text {
        color:#122036;
      }
      </style><style
       id="current-color-scheme-2"
       type="text/css">
      .ColorScheme-Text {
        color:#122036;
      }
      </style><style
       id="current-color-scheme-0"
       type="text/css">
      .ColorScheme-Text {
        color:#122036;
      }
      </style><style
       id="current-color-scheme-3"
       type="text/css">
      .ColorScheme-Text {
        color:#122036;
      }
      </style><style
       id="current-color-scheme-1"
       type="text/css">
      .ColorScheme-Text {
        color:#122036;
      }
      </style><style
       type="text/css"
       id="current-color-scheme-10">
      .ColorScheme-Text {
        color:#122036;
      }
      </style><style
       type="text/css"
       id="current-color-scheme-5">
      .ColorScheme-Text {
        color:#122036;
      }
      </style><style
       type="text/css"
       id="current-color-scheme-1-2">
      .ColorScheme-Text {
        color:#122036;
      }
      </style><style
       id="current-color-scheme-10-9"
       type="text/css">
      .ColorScheme-Text {
        color:#122036;
      }
      </style><style
       id="current-color-scheme-6"
       type="text/css">
      .ColorScheme-Text {
        color:#122036;
      }
      </style><style
       id="current-color-scheme-1-9"
       type="text/css">
      .ColorScheme-Text {
        color:#122036;
      }
      </style><style
       type="text/css"
       id="current-color-scheme-10-1">
      .ColorScheme-Text {
        color:#122036;
      }
      </style><style
       id="current-color-scheme-7"
       type="text/css">
      .ColorScheme-Text {
        color:#122036;
      }
      </style><style
       id="current-color-scheme-1-5"
       type="text/css">
      .ColorScheme-Text {
        color:#122036;
      }
      </style><style
       type="text/css"
       id="current-color-scheme-10-3">
      .ColorScheme-Text {
        color:#122036;
      }
      </style><style
       type="text/css"
       id="current-color-scheme-5-5">
      .ColorScheme-Text {
        color:#122036;
      }
      </style><style
       type="text/css"
       id="current-color-scheme-1-2-6">
      .ColorScheme-Text {
        color:#122036;
      }
      </style><style
       id="current-color-scheme-10-9-2"
       type="text/css">
      .ColorScheme-Text {
        color:#122036;
      }
      </style><style
       id="current-color-scheme-6-9"
       type="text/css">
      .ColorScheme-Text {
        color:#122036;
      }
      </style><style
       id="current-color-scheme-1-9-1"
       type="text/css">
      .ColorScheme-Text {
        color:#122036;
      }
      </style><style
       type="text/css"
       id="current-color-scheme-10-1-2">
      .ColorScheme-Text {
        color:#122036;
      }
      </style><linearGradient
       inkscape:collect="always"
       xlink:href="#linearGradient2072"
       id="linearGradient2074"
       x1="42.999996"
       y1="290.65002"
       x2="42.999996"
       y2="250.65001"
       gradientUnits="userSpaceOnUse" /></defs><sodipodi:namedview
     id="base"
     pagecolor="#ffffff"
     bordercolor="#666666"
     borderopacity="1.0"
     inkscape:pageopacity="0.0"
     inkscape:pageshadow="2"
     inkscape:zoom="8.0000004"
     inkscape:cx="14.562499"
     inkscape:cy="56.187497"
     inkscape:document-units="px"
     inkscape:current-layer="g2217"
     showgrid="true"
     units="px"
     inkscape:window-width="1471"
     inkscape:window-height="1330"
     inkscape:window-x="0"
     inkscape:window-y="0"
     inkscape:window-maximized="0"
     objecttolerance="10"
     gridtolerance="10"
     guidetolerance="10"
     inkscape:snap-bbox="true"
     inkscape:bbox-paths="true"
     inkscape:bbox-nodes="true"
     inkscape:snap-bbox-edge-midpoints="true"
     inkscape:snap-bbox-midpoints="true"
     inkscape:object-paths="true"
     inkscape:snap-intersection-paths="true"
     inkscape:showpageshadow="2"
     inkscape:pagecheckerboard="0"
     inkscape:deskcolor="#d1d1d1"><inkscape:grid
       type="xygrid"
       id="grid7897"
       empspacing="4" /></sodipodi:namedview><metadata
     id="metadata5"><rdf:RDF><cc:Work
         rdf:about=""><dc:format>image/svg+xml</dc:format><dc:type
           rdf:resource="http://purl.org/dc/dcmitype/StillImage" /><dc:title>Antu icon Theme</dc:title></cc:Work></rdf:RDF></metadata><g
     inkscape:label="Capa 1"
     inkscape:groupmode="layer"
     id="layer1"
     transform="translate(0,-266.64999)"><g
       id="g2217"
       transform="translate(30.000001,16.999985)"><g
         id="g5552"
         transform="translate(-48.999999,2.999995)"><path
           style="fill:#0e44b2;fill-opacity:1;stroke:none;stroke-width:6;stroke-linecap:square;stroke-linejoin:round;stroke-miterlimit:18;stroke-dasharray:none;stroke-dashoffset:0;stroke-opacity:1;paint-order:markers stroke fill"
           d="m 26.999999,248.65001 h 31.999997 c 1.662002,0 3,1.33798 3,3 v 38 c 0,1.66197 -1.337998,3 -3,3 H 26.999999 c -1.661998,0 -3,-1.33803 -3,-3 v -38 c 0,-1.66202 1.338002,-3 3,-3 z"
           id="rect6397-1-7"
           inkscape:connector-curvature="0" /><path
           style="fill:url(#linearGradient2074);fill-opacity:1;stroke:none;stroke-width:6;stroke-linecap:square;stroke-linejoin:round;stroke-miterlimit:18;stroke-dasharray:none;stroke-dashoffset:0;stroke-opacity:1;paint-order:markers stroke fill"
           d="m 26.999999,249.64999 h 31.999997 c 1.107999,0 2.000001,0.892 2.000001,2.00002 v 38 c 0,1.10798 -0.892002,1.99998 -2.000001,1.99998 H 26.999999 c -1.107999,0 -2.000001,-0.89201 -2.000001,-1.99998 v -38 c 0,-1.10802 0.892002,-2.00002 2.000001,-2.00002 z"
           id="rect6399-4-2"
           inkscape:connector-curvature="0"
           sodipodi:nodetypes="sssssssss" /><path
           id="rect4570-9-6-3-6"
           style="fill:#0e44b2;fill-opacity:1;stroke:none;stroke-width:1.20189;stroke-linecap:round;stroke-linejoin:round;stroke-miterlimit:4;stroke-dasharray:none;stroke-opacity:1"
           d="m 42.999998,259.65001 c -6.647994,0 -12,5.35196 -12,12 0,6.64804 5.352006,12 12,12 6.647993,0 12,-5.35196 12,-12 0,-6.64804 -5.352007,-12 -12,-12 z m 0,3.99999 c 1.108001,0 2,0.892 2,2.00001 0,1.108 -0.891999,1.99997 -2,1.99997 -1.107995,0 -2,-0.89197 -2,-1.99997 0,-1.10801 0.892005,-2.00001 2,-2.00001 z m 0,6 c 1.108001,0 2,0.892 2,2.00001 v 3 3 c 0,1.108 -0.891999,1.99997 -2,1.99997 -1.107995,0 -2,-0.89197 -2,-1.99997 v -3 -3 c 0,-1.10801 0.892005,-2.00001 2,-2.00001 z" /><path
           id="rect4570-9-6-3"
           style="fill:#eef8fe;fill-opacity:1;stroke:none;stroke-width:1.20189;stroke-linecap:round;stroke-linejoin:round;stroke-miterlimit:4;stroke-dasharray:none;stroke-opacity:1"
           d="m 42.999998,258.65004 c -6.647994,0 -12,5.35196 -12,12 0,6.64804 5.352006,12 12,12 6.647993,0 12,-5.35196 12,-12 0,-6.64804 -5.352007,-12 -12,-12 z m 0,3.99999 c 1.108001,0 2,0.892 2,2.00001 0,1.108 -0.891999,1.99997 -2,1.99997 -1.107995,0 -2,-0.89197 -2,-1.99997 0,-1.10801 0.892005,-2.00001 2,-2.00001 z m 0,6 c 1.108001,0 2,0.892 2,2.00001 v 3 3 c 0,1.108 -0.891999,1.99997 -2,1.99997 -1.107995,0 -2,-0.89197 -2,-1.99997 v -3 -3 c 0,-1.10801 0.892005,-2.00001 2,-2.00001 z" /></g></g></g></svg>
