<?xml version="1.0" encoding="UTF-8" standalone="no"?>
<!-- Created with Inkscape (http://www.inkscape.org/) -->

<svg
   width="48"
   height="48"
   viewBox="0 0 48 48"
   version="1.1"
   id="svg8"
   inkscape:version="1.2.2 (b0a8486541, 2022-12-01)"
   sodipodi:docname="video-x-mng.svg"
   xml:space="preserve"
   xmlns:inkscape="http://www.inkscape.org/namespaces/inkscape"
   xmlns:sodipodi="http://sodipodi.sourceforge.net/DTD/sodipodi-0.dtd"
   xmlns:xlink="http://www.w3.org/1999/xlink"
   xmlns="http://www.w3.org/2000/svg"
   xmlns:svg="http://www.w3.org/2000/svg"
   xmlns:rdf="http://www.w3.org/1999/02/22-rdf-syntax-ns#"
   xmlns:cc="http://creativecommons.org/ns#"
   xmlns:dc="http://purl.org/dc/elements/1.1/"><title
     id="title7895">Antu icon Theme</title><defs
     id="defs2"><linearGradient
       gradientTransform="translate(-44,-17.896076)"
       inkscape:collect="always"
       xlink:href="#linearGradient4565"
       id="linearGradient6986"
       x1="24"
       y1="307.64999"
       x2="24"
       y2="273.64999"
       gradientUnits="userSpaceOnUse" /><linearGradient
       gradientTransform="translate(-79.999997,-69.896046)"
       y2="322.64999"
       x2="60"
       y1="362.64999"
       x1="60"
       gradientUnits="userSpaceOnUse"
       id="linearGradient6625-7"
       xlink:href="#linearGradient4580"
       inkscape:collect="always" /><linearGradient
       id="linearGradient4580"
       inkscape:collect="always"><stop
         id="stop4576"
         offset="0"
         style="stop-color:#06111c;stop-opacity:1" /><stop
         id="stop4578-6"
         offset="1"
         style="stop-color:#15272f;stop-opacity:1" /></linearGradient><linearGradient
       id="linearGradient4565"
       inkscape:collect="always"><stop
         id="stop4561"
         offset="0"
         style="stop-color:#1780f2;stop-opacity:1" /><stop
         id="stop4563"
         offset="1"
         style="stop-color:#02b3fe;stop-opacity:1" /></linearGradient><style
       id="current-color-scheme"
       type="text/css">
      .ColorScheme-Text {
        color:#122036;
      }
      </style><style
       id="current-color-scheme-2"
       type="text/css">
      .ColorScheme-Text {
        color:#122036;
      }
      </style><style
       id="current-color-scheme-0"
       type="text/css">
      .ColorScheme-Text {
        color:#122036;
      }
      </style></defs><sodipodi:namedview
     id="base"
     pagecolor="#ffffff"
     bordercolor="#666666"
     borderopacity="1.0"
     inkscape:pageopacity="0.0"
     inkscape:pageshadow="2"
     inkscape:zoom="16"
     inkscape:cx="28.187499"
     inkscape:cy="20.749999"
     inkscape:document-units="px"
     inkscape:current-layer="layer1"
     showgrid="true"
     units="px"
     inkscape:window-width="2560"
     inkscape:window-height="1363"
     inkscape:window-x="0"
     inkscape:window-y="0"
     inkscape:window-maximized="1"
     objecttolerance="10"
     gridtolerance="10"
     guidetolerance="10"
     inkscape:snap-bbox="true"
     inkscape:bbox-paths="true"
     inkscape:bbox-nodes="true"
     inkscape:snap-bbox-edge-midpoints="true"
     inkscape:snap-bbox-midpoints="true"
     inkscape:object-paths="true"
     inkscape:snap-intersection-paths="true"
     inkscape:showpageshadow="2"
     inkscape:pagecheckerboard="0"
     inkscape:deskcolor="#d1d1d1"><inkscape:grid
       type="xygrid"
       id="grid7897"
       empspacing="4" /></sodipodi:namedview><metadata
     id="metadata5"><rdf:RDF><cc:Work
         rdf:about=""><dc:format>image/svg+xml</dc:format><dc:type
           rdf:resource="http://purl.org/dc/dcmitype/StillImage" /><dc:title>Antu icon Theme</dc:title></cc:Work></rdf:RDF></metadata><g
     inkscape:label="Capa 1"
     inkscape:groupmode="layer"
     id="layer1"
     transform="translate(0,-266.64999)"><g
       id="g7735"
       transform="translate(44,17.89608)"><path
         inkscape:connector-curvature="0"
         id="rect6397-1"
         d="m -36,250.75391 h 32 c 1.662,0 3,1.33798 3,3 v 38 c 0,1.66197 -1.338,3 -3,3 h -32 c -1.661998,0 -3,-1.33803 -3,-3 v -38 c 0,-1.66202 1.338002,-3 3,-3 z"
         style="opacity:1;vector-effect:none;fill:#01060b;fill-opacity:0.99215686;stroke:none;stroke-width:6;stroke-linecap:square;stroke-linejoin:round;stroke-miterlimit:18;stroke-dasharray:none;stroke-dashoffset:0;stroke-opacity:1;paint-order:markers stroke fill" /><path
         sodipodi:nodetypes="sssssssss"
         inkscape:connector-curvature="0"
         id="rect6399-4"
         d="m -36,251.75391 h 32 c 1.108001,0 2,0.892 2,2.00001 v 38.00001 c 0,1.10797 -0.891999,1.99997 -2,1.99997 h -32 c -1.107998,0 -2,-0.892 -2,-1.99997 v -38.00001 c 0,-1.10801 0.892002,-2.00001 2,-2.00001 z"
         style="opacity:1;vector-effect:none;fill:url(#linearGradient6625-7);fill-opacity:1;stroke:none;stroke-width:6;stroke-linecap:square;stroke-linejoin:round;stroke-miterlimit:18;stroke-dasharray:none;stroke-dashoffset:0;stroke-opacity:1;paint-order:markers stroke fill" /><path
         style="opacity:1;vector-effect:none;fill:url(#linearGradient6986);fill-opacity:1;stroke:none;stroke-width:2;stroke-linecap:round;stroke-linejoin:round;stroke-miterlimit:4;stroke-dasharray:none;stroke-dashoffset:0;stroke-opacity:0.96078431"
         d="m -29,254.75392 h 18 c 1.108,0 2,0.892 2,2 v 32 c 0,1.108 -0.892,2 -2,2 h -18 c -1.108,0 -2,-0.892 -2,-2 v -32 c 0,-1.108 0.892,-2 2,-2 z"
         id="rect6978" /><path
         id="rect7021-6"
         d="m -35,256.75391 c -0.553998,0 -1,0.446 -1,1 v 3 c 0,0.554 0.446002,1 1,1 h 1 c 0.553998,0 1,-0.446 1,-1 v -3 c 0,-0.554 -0.446002,-1 -1,-1 z m 29,0 c -0.553998,0 -1,0.446 -1,1 v 3 c 0,0.554 0.446002,1 1,1 h 1 c 0.553998,0 1,-0.446 1,-1 v -3 c 0,-0.554 -0.446002,-1 -1,-1 z m -29,7 c -0.553998,0 -1,0.446 -1,1 v 3 c 0,0.554 0.446002,1 1,1 h 1 c 0.553998,0 1,-0.446 1,-1 v -3 c 0,-0.554 -0.446002,-1 -1,-1 z m 29,0 c -0.553998,0 -1,0.446 -1,1 v 3 c 0,0.554 0.446002,1 1,1 h 1 c 0.553998,0 1,-0.446 1,-1 v -3 c 0,-0.554 -0.446002,-1 -1,-1 z m -29,7 c -0.553998,0 -1,0.446 -1,1 v 3 c 0,0.554 0.446002,1 1,1 h 1 c 0.553998,0 1,-0.446 1,-1 v -3 c 0,-0.554 -0.446002,-1 -1,-1 z m 29,0 c -0.553998,0 -1,0.446 -1,1 v 3 c 0,0.554 0.446002,1 1,1 h 1 c 0.553998,0 1,-0.446 1,-1 v -3 c 0,-0.554 -0.446002,-1 -1,-1 z m -29,7 c -0.553998,0 -1,0.446 -1,1 v 3 c 0,0.554 0.446002,1 1,1 h 1 c 0.553998,0 1,-0.446 1,-1 v -3 c 0,-0.554 -0.446002,-1 -1,-1 z m 29,0 c -0.553998,0 -1,0.446 -1,1 v 3 c 0,0.554 0.446002,1 1,1 h 1 c 0.553998,0 1,-0.446 1,-1 v -3 c 0,-0.554 -0.446002,-1 -1,-1 z m -29,7 c -0.553998,0 -1,0.446 -1,1 v 3 c 0,0.554 0.446002,1 1,1 h 1 c 0.553998,0 1,-0.446 1,-1 v -3 c 0,-0.554 -0.446002,-1 -1,-1 z m 29,0 c -0.553998,0 -1,0.446 -1,1 v 3 c 0,0.554 0.446002,1 1,1 h 1 c 0.553998,0 1,-0.446 1,-1 v -3 c 0,-0.554 -0.446002,-1 -1,-1 z"
         style="opacity:1;vector-effect:none;fill:#02070c;fill-opacity:1;stroke:none;stroke-width:2;stroke-linecap:round;stroke-linejoin:round;stroke-miterlimit:4;stroke-dasharray:none;stroke-dashoffset:0;stroke-opacity:0.96078431"
         inkscape:connector-curvature="0" /><path
         id="rect7021"
         d="m -35,255.75391 c -0.553998,0 -1,0.446 -1,1 v 3 c 0,0.554 0.446002,1 1,1 h 1 c 0.553998,0 1,-0.446 1,-1 v -3 c 0,-0.554 -0.446002,-1 -1,-1 z m 29,0 c -0.553998,0 -1,0.446 -1,1 v 3 c 0,0.554 0.446002,1 1,1 h 1 c 0.553998,0 1,-0.446 1,-1 v -3 c 0,-0.554 -0.446002,-1 -1,-1 z m -29,7 c -0.553998,0 -1,0.446 -1,1 v 3 c 0,0.554 0.446002,1 1,1 h 1 c 0.553998,0 1,-0.446 1,-1 v -3 c 0,-0.554 -0.446002,-1 -1,-1 z m 29,0 c -0.553998,0 -1,0.446 -1,1 v 3 c 0,0.554 0.446002,1 1,1 h 1 c 0.553998,0 1,-0.446 1,-1 v -3 c 0,-0.554 -0.446002,-1 -1,-1 z m -29,7 c -0.553998,0 -1,0.446 -1,1 v 3 c 0,0.554 0.446002,1 1,1 h 1 c 0.553998,0 1,-0.446 1,-1 v -3 c 0,-0.554 -0.446002,-1 -1,-1 z m 29,0 c -0.553998,0 -1,0.446 -1,1 v 3 c 0,0.554 0.446002,1 1,1 h 1 c 0.553998,0 1,-0.446 1,-1 v -3 c 0,-0.554 -0.446002,-1 -1,-1 z m -29,7 c -0.553998,0 -1,0.446 -1,1 v 3 c 0,0.554 0.446002,1 1,1 h 1 c 0.553998,0 1,-0.446 1,-1 v -3 c 0,-0.554 -0.446002,-1 -1,-1 z m 29,0 c -0.553998,0 -1,0.446 -1,1 v 3 c 0,0.554 0.446002,1 1,1 h 1 c 0.553998,0 1,-0.446 1,-1 v -3 c 0,-0.554 -0.446002,-1 -1,-1 z m -29,7 c -0.553998,0 -1,0.446 -1,1 v 3 c 0,0.554 0.446002,1 1,1 h 1 c 0.553998,0 1,-0.446 1,-1 v -3 c 0,-0.554 -0.446002,-1 -1,-1 z m 29,0 c -0.553998,0 -1,0.446 -1,1 v 3 c 0,0.554 0.446002,1 1,1 h 1 c 0.553998,0 1,-0.446 1,-1 v -3 c 0,-0.554 -0.446002,-1 -1,-1 z"
         style="opacity:1;vector-effect:none;fill:#f1f2f3;fill-opacity:1;stroke:none;stroke-width:2;stroke-linecap:round;stroke-linejoin:round;stroke-miterlimit:4;stroke-dasharray:none;stroke-dashoffset:0;stroke-opacity:0.96078431"
         inkscape:connector-curvature="0" /></g><g
       id="g179771"
       transform="translate(-3.999999,-16.00002)"><path
         id="path178457"
         style="fill:#dcecfe;fill-opacity:1;stroke:none;stroke-width:1.46667px;stroke-linecap:butt;stroke-linejoin:miter;stroke-opacity:1"
         d="m 36.999999,324.65 c 0.06925,0 0.137681,-0.003 0.205078,-0.01 0.0674,-0.007 0.134004,-0.018 0.199219,-0.0312 0.06522,-0.0133 0.128704,-0.0294 0.191406,-0.0488 0.0627,-0.0194 0.123735,-0.0412 0.183594,-0.0664 0.05986,-0.0252 0.119095,-0.0533 0.175781,-0.084 0.05669,-0.0307 0.110879,-0.0637 0.164063,-0.0996 0.05318,-0.0359 0.104946,-0.0745 0.154296,-0.11523 0.04935,-0.0407 0.09739,-0.0837 0.142579,-0.12891 0.04519,-0.0452 0.08821,-0.0932 0.128906,-0.14258 0.04069,-0.0494 0.07936,-0.10111 0.115234,-0.15429 0.03587,-0.0532 0.06889,-0.10738 0.09961,-0.16407 0.03072,-0.0567 0.05875,-0.11592 0.08398,-0.17578 0.02523,-0.0599 0.04698,-0.12089 0.06641,-0.18359 0.01942,-0.0627 0.03555,-0.12619 0.04883,-0.19141 0.01328,-0.0652 0.02445,-0.13182 0.03125,-0.19922 0.0068,-0.0674 0.0098,-0.13583 0.0098,-0.20508 v -9 l -3,-3 -6.628906,5.88868 z" /><path
         id="path178441"
         style="fill:#8fcaf9;fill-opacity:1;stroke:none;stroke-width:1.46667px;stroke-linecap:butt;stroke-linejoin:miter;stroke-opacity:1"
         d="m 16.999999,311.65 v 11 c 0,0.0693 0.003,0.13769 0.0098,0.20508 0.0068,0.0674 0.01797,0.13401 0.03125,0.19922 0.01328,0.0652 0.02941,0.12871 0.04883,0.19141 0.01942,0.0627 0.04117,0.12373 0.06641,0.18359 0.02523,0.0599 0.05327,0.1191 0.08398,0.17578 0.03072,0.0567 0.06374,0.11088 0.09961,0.16407 0.03587,0.0532 0.07454,0.10494 0.115234,0.15429 0.04069,0.0494 0.08372,0.0974 0.128906,0.14258 0.04519,0.0452 0.09323,0.0882 0.142578,0.12891 0.04935,0.0407 0.101114,0.0794 0.154297,0.11523 0.05318,0.0359 0.107376,0.0689 0.164063,0.0996 0.05669,0.0307 0.115922,0.0588 0.175781,0.084 0.05986,0.0252 0.120892,0.047 0.183594,0.0664 0.0627,0.0194 0.126191,0.0356 0.191406,0.0488 0.06522,0.0133 0.131821,0.0245 0.199219,0.0312 0.0674,0.007 0.135828,0.01 0.205078,0.01 h 18 l -16,-17 z" /><path
         id="path178425"
         style="fill:#dcecfe;fill-opacity:1;stroke:none;stroke-width:1.46667px;stroke-linecap:butt;stroke-linejoin:miter;stroke-opacity:1"
         d="m 16.999999,311.65 v 11 c 0,0.0693 0.003,0.13769 0.0098,0.20508 0.0068,0.0674 0.01797,0.13401 0.03125,0.19922 0.01328,0.0652 0.02941,0.12871 0.04883,0.19141 0.01942,0.0627 0.04117,0.12373 0.06641,0.18359 0.02523,0.0599 0.05327,0.1191 0.08398,0.17578 0.03072,0.0567 0.06374,0.11088 0.09961,0.16407 0.03587,0.0532 0.07454,0.10494 0.115234,0.15429 0.04069,0.0494 0.08372,0.0974 0.128906,0.14258 0.04519,0.0452 0.09323,0.0882 0.142578,0.12891 0.04935,0.0407 0.101114,0.0794 0.154297,0.11523 0.05318,0.0359 0.107376,0.0689 0.164063,0.0996 0.05669,0.0307 0.115922,0.0588 0.175781,0.084 0.05986,0.0252 0.120892,0.047 0.183594,0.0664 0.0627,0.0194 0.126191,0.0356 0.191406,0.0488 0.06522,0.0133 0.131821,0.0245 0.199219,0.0312 0.0674,0.007 0.135828,0.01 0.205078,0.01 h 10 l -8,-17 z" /><path
         id="rect8706-3-5-3"
         d="m 30.999997,295.65 h 5e-6 c 2.215999,0 3.999997,1.784 3.999997,4.00001 0,2.21601 -1.783998,3.99999 -3.999997,3.99999 h -5e-6 c -2.215999,0 -3.999998,-1.78398 -3.999998,-3.99999 0,-2.21601 1.783999,-4.00001 3.999998,-4.00001 z"
         style="fill:#dcecfe;fill-opacity:1;stroke:none;stroke-width:2.66666;stroke-linecap:round;stroke-linejoin:round;stroke-miterlimit:4;stroke-dasharray:none;stroke-dashoffset:0;stroke-opacity:1;paint-order:stroke markers fill"
         inkscape:connector-curvature="0" /></g></g></svg>
