<?xml version="1.0" encoding="UTF-8" standalone="no"?>
<!-- Created with Inkscape (http://www.inkscape.org/) -->

<svg
   width="48"
   height="48"
   viewBox="0 0 48 48"
   version="1.1"
   id="svg8"
   inkscape:version="1.2.2 (b0a8486541, 2022-12-01)"
   sodipodi:docname="virtualbox-vmdk.svg"
   xml:space="preserve"
   xmlns:inkscape="http://www.inkscape.org/namespaces/inkscape"
   xmlns:sodipodi="http://sodipodi.sourceforge.net/DTD/sodipodi-0.dtd"
   xmlns:xlink="http://www.w3.org/1999/xlink"
   xmlns="http://www.w3.org/2000/svg"
   xmlns:svg="http://www.w3.org/2000/svg"
   xmlns:rdf="http://www.w3.org/1999/02/22-rdf-syntax-ns#"
   xmlns:cc="http://creativecommons.org/ns#"
   xmlns:dc="http://purl.org/dc/elements/1.1/"><title
     id="title7895">Antu icon Theme</title><defs
     id="defs2"><style
       id="current-color-scheme"
       type="text/css">
      .ColorScheme-Text {
        color:#122036;
      }
      </style><style
       id="current-color-scheme-2"
       type="text/css">
      .ColorScheme-Text {
        color:#122036;
      }
      </style><style
       id="current-color-scheme-0"
       type="text/css">
      .ColorScheme-Text {
        color:#122036;
      }
      </style><linearGradient
       gradientTransform="translate(-71,-66)"
       y2="322.64999"
       x2="60"
       y1="362.64999"
       x1="60"
       gradientUnits="userSpaceOnUse"
       id="linearGradient6625-7-2"
       xlink:href="#linearGradient4602"
       inkscape:collect="always" /><linearGradient
       inkscape:collect="always"
       id="linearGradient4602"><stop
         style="stop-color:#24b3cd;stop-opacity:1;"
         offset="0"
         id="stop4598" /><stop
         style="stop-color:#3bc6e0;stop-opacity:1;"
         offset="1"
         id="stop4600" /></linearGradient></defs><sodipodi:namedview
     id="base"
     pagecolor="#ffffff"
     bordercolor="#666666"
     borderopacity="1.0"
     inkscape:pageopacity="0.0"
     inkscape:pageshadow="2"
     inkscape:zoom="22.627418"
     inkscape:cx="29.565901"
     inkscape:cy="28.770406"
     inkscape:document-units="px"
     inkscape:current-layer="g2217"
     showgrid="true"
     units="px"
     inkscape:window-width="2560"
     inkscape:window-height="1363"
     inkscape:window-x="0"
     inkscape:window-y="0"
     inkscape:window-maximized="1"
     objecttolerance="10"
     gridtolerance="10"
     guidetolerance="10"
     inkscape:snap-bbox="true"
     inkscape:bbox-paths="true"
     inkscape:bbox-nodes="true"
     inkscape:snap-bbox-edge-midpoints="true"
     inkscape:snap-bbox-midpoints="true"
     inkscape:object-paths="true"
     inkscape:snap-intersection-paths="true"
     inkscape:showpageshadow="2"
     inkscape:pagecheckerboard="0"
     inkscape:deskcolor="#d1d1d1"><inkscape:grid
       type="xygrid"
       id="grid7897"
       empspacing="4" /></sodipodi:namedview><metadata
     id="metadata5"><rdf:RDF><cc:Work
         rdf:about=""><dc:format>image/svg+xml</dc:format><dc:type
           rdf:resource="http://purl.org/dc/dcmitype/StillImage" /><dc:title>Antu icon Theme</dc:title></cc:Work></rdf:RDF></metadata><g
     inkscape:label="Capa 1"
     inkscape:groupmode="layer"
     id="layer1"
     transform="translate(0,-266.64999)"><g
       id="g2217"
       transform="translate(30.000001,16.999985)"><g
         transform="translate(4.9999989,-2.999985)"
         id="g1593"><path
           style="opacity:1;vector-effect:none;fill:#288799;fill-opacity:1;stroke:none;stroke-width:6;stroke-linecap:square;stroke-linejoin:round;stroke-miterlimit:18;stroke-dasharray:none;stroke-dashoffset:0;stroke-opacity:1;paint-order:markers stroke fill"
           d="M -27,254.64999 H 5.0000002 c 1.662,0 3,1.338 3,3 v 38 c 0,1.662 -1.338,3 -3,3 H -27 c -1.662,0 -3,-1.338 -3,-3 v -38 c 0,-1.662 1.338,-3 3,-3 z"
           id="rect6397-1-4"
           inkscape:connector-curvature="0" /><path
           style="opacity:1;vector-effect:none;fill:url(#linearGradient6625-7-2);fill-opacity:1;stroke:none;stroke-width:6;stroke-linecap:square;stroke-linejoin:round;stroke-miterlimit:18;stroke-dasharray:none;stroke-dashoffset:0;stroke-opacity:1;paint-order:markers stroke fill"
           d="M -27,255.64999 H 5.0000002 c 1.108,0 2,0.892 2,2 v 38 c 0,1.108 -0.892,2 -2,2 H -27 c -1.108,0 -2,-0.892 -2,-2 v -38 c 0,-1.108 0.892,-2 2,-2 z"
           id="rect6399-4-9"
           inkscape:connector-curvature="0"
           sodipodi:nodetypes="sssssssss" /></g><path
         id="rect128778-2"
         style="fill:#288799;fill-opacity:1;stroke:none;stroke-width:2;stroke-linecap:round;stroke-linejoin:round;stroke-miterlimit:1.8;stroke-opacity:1;paint-order:stroke fill markers;stop-color:#000000"
         d="m -16.000001,263.65 c -0.553997,0 -1,0.446 -1,1 v 9.99999 10 c 0,0.554 0.446003,1 1,1 H 4 c 0.554,0 1,-0.446 1,-1 v -10 -10 c 0,-0.55399 -0.446,-1 -1,-1 z m 1,2 H 3 v 7.99999 H 1 a 1.0001,1.0001 0 0 0 -0.832031,0.44532 l -0.699219,1.04882 -1.492191,-6.71094 a 1.0001,1.0001 0 0 0 -0.925779,-0.78125 1.0001,1.0001 0 0 0 -1,0.68164 L -5.7207,273.65 H -7 a 1.0001,1.0001 0 0 0 -0.94922,0.68358 l -1.050781,3.15236 -2.050781,-6.15236 a 1.0001,1.0001 0 0 0 -1.898438,0 l -0.771484,2.31642 h -1.279297 z m 11.806641,6.7422 1.216799,5.4746 a 1.0001,1.0001 0 0 0 1.808591,0.3379 L 1.53515,275.65 H 3 v 8 h -18.000001 v -8 h 2 a 1.0001,1.0001 0 0 0 0.949219,-0.68359 l 0.05078,-0.15234 2.05078,6.15234 a 1.0001,1.0001 0 0 0 1.898441,0 L -6.2793,275.65 H -5 a 1.0001,1.0001 0 0 0 0.949219,-0.68359 z" /><path
         id="rect128778"
         style="fill:#e2fbf8;fill-opacity:1;stroke:none;stroke-width:2;stroke-linecap:round;stroke-linejoin:round;stroke-miterlimit:1.8;stroke-opacity:1;paint-order:stroke fill markers;stop-color:#000000"
         d="m -16.000001,262.65001 c -0.553997,0 -1,0.44599 -1,1 v 9.99999 10 c 0,0.554 0.446003,1 1,1 H 3.9999995 c 0.554,0 1,-0.446 1,-1 v -10 -10 c 0,-0.554 -0.446,-1 -1,-1 z m 1,2 H 2.9999995 V 272.65 h -2 a 1.0001,1.0001 0 0 0 -0.83203,0.44532 l -0.69922,1.04882 -1.49219,-6.71093 a 1.0001,1.0001 0 0 0 -0.92578,-0.78125 1.0001,1.0001 0 0 0 -1,0.68164 l -1.77148,5.31641 h -1.2793 a 1.0001,1.0001 0 0 0 -0.94922,0.68359 l -1.050781,3.15235 -2.0507805,-6.15235 a 1.0001,1.0001 0 0 0 -1.898438,0 l -0.771484,2.31641 h -1.279297 z m 11.8066405,6.74219 1.2168,5.4746 a 1.0001,1.0001 0 0 0 1.80859,0.3379 l 1.70312,-2.55469 h 1.46485 v 8 H -15.000001 v -8 h 2 a 1.0001,1.0001 0 0 0 0.949219,-0.68359 l 0.05078,-0.15235 2.0507805,6.15235 a 1.0001,1.0001 0 0 0 1.898441,0 l 1.77148,-5.31641 h 1.2793 a 1.0001,1.0001 0 0 0 0.94922,-0.68359 z" /></g></g></svg>
