<?xml version="1.0" encoding="UTF-8" standalone="no"?>
<!-- Created with Inkscape (http://www.inkscape.org/) -->

<svg
   width="48"
   height="48"
   viewBox="0 0 48 48"
   version="1.1"
   id="svg8"
   inkscape:version="1.2.2 (b0a8486541, 2022-12-01)"
   sodipodi:docname="x-kde-nsplugin-generated.svg"
   xml:space="preserve"
   xmlns:inkscape="http://www.inkscape.org/namespaces/inkscape"
   xmlns:sodipodi="http://sodipodi.sourceforge.net/DTD/sodipodi-0.dtd"
   xmlns:xlink="http://www.w3.org/1999/xlink"
   xmlns="http://www.w3.org/2000/svg"
   xmlns:svg="http://www.w3.org/2000/svg"
   xmlns:rdf="http://www.w3.org/1999/02/22-rdf-syntax-ns#"
   xmlns:cc="http://creativecommons.org/ns#"
   xmlns:dc="http://purl.org/dc/elements/1.1/"><title
     id="title7895">Antu icon Theme</title><defs
     id="defs2"><linearGradient
       inkscape:collect="always"
       id="linearGradient2471"><stop
         style="stop-color:#3572f0;stop-opacity:1;"
         offset="0"
         id="stop2467" /><stop
         style="stop-color:#5593fb;stop-opacity:1;"
         offset="1"
         id="stop2469" /></linearGradient><style
       id="current-color-scheme"
       type="text/css">
      .ColorScheme-Text {
        color:#122036;
      }
      </style><style
       id="current-color-scheme-2"
       type="text/css">
      .ColorScheme-Text {
        color:#122036;
      }
      </style><style
       id="current-color-scheme-0"
       type="text/css">
      .ColorScheme-Text {
        color:#122036;
      }
      </style><style
       type="text/css"
       id="current-color-scheme-36">
      .ColorScheme-Text {
        color:#36404d;
      }
      </style><style
       id="current-color-scheme-3"
       type="text/css">
      .ColorScheme-Text {
        color:#122036;
      }
      </style><style
       type="text/css"
       id="current-color-scheme-5">
      .ColorScheme-Text {
        color:#122036;
      }
      </style><style
       type="text/css"
       id="current-color-scheme-2-7">
      .ColorScheme-Text {
        color:#122036;
      }
      </style><style
       type="text/css"
       id="current-color-scheme-1">
      .ColorScheme-Text {
        color:#122036;
      }
      </style><style
       id="current-color-scheme-10"
       type="text/css">
      .ColorScheme-Text {
        color:#122036;
      }
      </style><style
       type="text/css"
       id="current-color-scheme-0-5">
      .ColorScheme-Text {
        color:#122036;
      }
      </style><style
       type="text/css"
       id="current-color-scheme-26">
      .ColorScheme-Text {
        color:#122036;
      }
      </style><linearGradient
       inkscape:collect="always"
       xlink:href="#linearGradient2471"
       id="linearGradient2473"
       x1="-7.000001"
       y1="293.64999"
       x2="-7.000001"
       y2="252.65001"
       gradientUnits="userSpaceOnUse" /></defs><sodipodi:namedview
     id="base"
     pagecolor="#ffffff"
     bordercolor="#666666"
     borderopacity="1.0"
     inkscape:pageopacity="0.0"
     inkscape:pageshadow="2"
     inkscape:zoom="11.313709"
     inkscape:cx="60.899569"
     inkscape:cy="35.885667"
     inkscape:document-units="px"
     inkscape:current-layer="g2217"
     showgrid="true"
     units="px"
     inkscape:window-width="2560"
     inkscape:window-height="1363"
     inkscape:window-x="0"
     inkscape:window-y="0"
     inkscape:window-maximized="1"
     objecttolerance="10"
     gridtolerance="10"
     guidetolerance="10"
     inkscape:snap-bbox="true"
     inkscape:bbox-paths="true"
     inkscape:bbox-nodes="true"
     inkscape:snap-bbox-edge-midpoints="true"
     inkscape:snap-bbox-midpoints="true"
     inkscape:object-paths="true"
     inkscape:snap-intersection-paths="true"
     inkscape:showpageshadow="2"
     inkscape:pagecheckerboard="0"
     inkscape:deskcolor="#d1d1d1"><inkscape:grid
       type="xygrid"
       id="grid7897"
       empspacing="4" /></sodipodi:namedview><metadata
     id="metadata5"><rdf:RDF><cc:Work
         rdf:about=""><dc:format>image/svg+xml</dc:format><dc:type
           rdf:resource="http://purl.org/dc/dcmitype/StillImage" /><dc:title>Antu icon Theme</dc:title></cc:Work></rdf:RDF></metadata><g
     inkscape:label="Capa 1"
     inkscape:groupmode="layer"
     id="layer1"
     transform="translate(0,-266.64999)"><g
       id="g2217"
       transform="translate(30.000001,16.999985)"><path
         style="fill:#33518f;fill-opacity:1;stroke:none;stroke-width:6;stroke-linecap:square;stroke-linejoin:round;stroke-miterlimit:18;stroke-dasharray:none;stroke-dashoffset:0;stroke-opacity:1;paint-order:markers stroke fill"
         d="M -22,251.65001 H 9.999997 c 1.662002,0 3,1.33798 3,3 v 38 c 0,1.66197 -1.337998,3 -3,3 H -22 c -1.661998,0 -3,-1.33803 -3,-3 v -38 c 0,-1.66202 1.338002,-3 3,-3 z"
         id="rect6397-1-7"
         inkscape:connector-curvature="0" /><path
         style="fill:url(#linearGradient2473);fill-opacity:1;stroke:none;stroke-width:6;stroke-linecap:square;stroke-linejoin:round;stroke-miterlimit:18;stroke-dasharray:none;stroke-dashoffset:0;stroke-opacity:1;paint-order:markers stroke fill"
         d="M -22,252.64999 H 9.999997 c 1.107999,0 2.000001,0.89199 2.000001,2.00002 v 38 c 0,1.10798 -0.892002,1.99998 -2.000001,1.99998 H -22 c -1.107999,0 -2.000001,-0.89202 -2.000001,-1.99998 v -38 c 0,-1.10803 0.892002,-2.00002 2.000001,-2.00002 z"
         id="rect6399-4-2"
         inkscape:connector-curvature="0"
         sodipodi:nodetypes="sssssssss" /><path
         style="fill:#33518f;fill-opacity:1;stroke:none;stroke-width:2;stroke-linecap:round;stroke-linejoin:round;stroke-miterlimit:4;stroke-dasharray:none;stroke-opacity:1"
         d="m -7.500001,260.65 c -1.385,0 -2.5,1.115 -2.5,2.5 v 1.5 h -6 c -1.661998,0 -3,1.33802 -3,3 v 6 h 1.5 c 0.48475,0 0.946219,0.0968 1.365234,0.27345 0.419016,0.17664 0.795016,0.43367 1.111328,0.75 0.316313,0.31632 0.57336,0.69231 0.75,1.11132 0.176641,0.41903 0.273438,0.88048 0.273438,1.36523 0,0.48477 -0.0968,0.94622 -0.273438,1.36523 -0.17664,0.41902 -0.433687,0.79502 -0.75,1.11134 -0.316312,0.3163 -0.692312,0.57335 -1.111328,0.75 -0.419015,0.17665 -0.880484,0.27343 -1.365234,0.27343 h -1.5 v 5 c 0,1.662 1.338002,3 3,3 h 5 v -1.5 c 0,-0.48475 0.0968,-0.9462 0.273438,-1.36523 0.176639,-0.41901 0.433687,-0.79502 0.75,-1.11132 0.316311,-0.31633 0.692312,-0.57336 1.111328,-0.75 0.419015,-0.17665 0.880484,-0.27345 1.365234,-0.27345 0.48475,0 0.946219,0.0968 1.365234,0.27345 0.419016,0.17664 0.795017,0.43367 1.111328,0.75 0.316313,0.31632 0.573361,0.69231 0.75,1.11132 0.176641,0.41903 0.273438,0.88048 0.273438,1.36523 v 1.5 h 6 c 1.662002,0 3,-1.338 3,-3 v -6 h 1.5 c 1.385,0 2.5,-1.115 2.5,-2.5 0,-1.385 -1.115,-2.5 -2.5,-2.5 h -1.5 v -7 c 0,-1.66198 -1.337998,-3 -3,-3 h -7 v -1.5 c 0,-1.385 -1.115,-2.5 -2.5,-2.5 z"
         id="rect868-5" /><path
         style="fill:#fbfcfd;fill-opacity:1;stroke:none;stroke-width:2;stroke-linecap:round;stroke-linejoin:round;stroke-miterlimit:4;stroke-dasharray:none;stroke-opacity:1"
         d="m -7.5,259.65 c -1.385,0 -2.5,1.115 -2.5,2.5 v 1.5 h -6 c -1.661998,0 -3,1.338 -3,3 v 6 h 1.5 c 0.48475,0 0.946219,0.0968 1.365234,0.27344 0.419016,0.17664 0.795016,0.43368 1.111328,0.75 0.316313,0.31631 0.57336,0.69231 0.75,1.11133 C -14.096797,275.20378 -14,275.66525 -14,276.15 c 0,0.48475 -0.0968,0.94622 -0.273438,1.36523 -0.17664,0.41902 -0.433687,0.79502 -0.75,1.11133 -0.316312,0.31631 -0.692312,0.57336 -1.111328,0.75 C -16.553781,279.5532 -17.01525,279.65 -17.5,279.65 H -19 v 5 c 0,1.662 1.338002,3 3,3 h 5 v -1.5 c 0,-0.48475 0.0968,-0.94622 0.273438,-1.36523 0.176639,-0.41902 0.433687,-0.79502 0.75,-1.11133 0.316311,-0.31632 0.692312,-0.57336 1.111328,-0.75 C -8.446219,282.7468 -7.98475,282.65 -7.5,282.65 c 0.48475,0 0.946219,0.0968 1.365234,0.27344 0.419016,0.17664 0.795017,0.43368 1.111328,0.75 0.316313,0.31631 0.573361,0.69231 0.75,1.11133 C -4.096797,285.20378 -4,285.66525 -4,286.15 v 1.5 h 6 c 1.662002,0 3,-1.338 3,-3 v -6 h 1.5 c 1.385,0 2.5,-1.115 2.5,-2.5 0,-1.385 -1.115,-2.5 -2.5,-2.5 H 5 v -7 c 0,-1.662 -1.337998,-3 -3,-3 h -7 v -1.5 c 0,-1.385 -1.115,-2.5 -2.5,-2.5 z"
         id="rect868" /></g></g></svg>
