<?xml version="1.0" encoding="UTF-8" standalone="no"?>
<!-- Created with Inkscape (http://www.inkscape.org/) -->

<svg
   width="48"
   height="48"
   viewBox="0 0 48 48"
   version="1.1"
   id="svg8"
   inkscape:version="1.2.2 (b0a8486541, 2022-12-01)"
   sodipodi:docname="x-media-podcast.svg"
   xml:space="preserve"
   xmlns:inkscape="http://www.inkscape.org/namespaces/inkscape"
   xmlns:sodipodi="http://sodipodi.sourceforge.net/DTD/sodipodi-0.dtd"
   xmlns:xlink="http://www.w3.org/1999/xlink"
   xmlns="http://www.w3.org/2000/svg"
   xmlns:svg="http://www.w3.org/2000/svg"
   xmlns:rdf="http://www.w3.org/1999/02/22-rdf-syntax-ns#"
   xmlns:cc="http://creativecommons.org/ns#"
   xmlns:dc="http://purl.org/dc/elements/1.1/"><title
     id="title7895">Antu icon Theme</title><defs
     id="defs2"><linearGradient
       inkscape:collect="always"
       id="linearGradient2406"><stop
         style="stop-color:#5967b4;stop-opacity:1;"
         offset="0"
         id="stop2402" /><stop
         style="stop-color:#7683ca;stop-opacity:1;"
         offset="1"
         id="stop2404" /></linearGradient><style
       id="current-color-scheme"
       type="text/css">
      .ColorScheme-Text {
        color:#122036;
      }
      </style><style
       id="current-color-scheme-2"
       type="text/css">
      .ColorScheme-Text {
        color:#122036;
      }
      </style><style
       id="current-color-scheme-0"
       type="text/css">
      .ColorScheme-Text {
        color:#122036;
      }
      </style><style
       type="text/css"
       id="current-color-scheme-3">
      .ColorScheme-Text {
        color:#36404d;
      }
      </style><style
       type="text/css"
       id="current-color-scheme-67">
      .ColorScheme-Text {
        color:#122036;
      }
      </style><style
       type="text/css"
       id="current-color-scheme-7">
      .ColorScheme-Text {
        color:#122036;
      }
      </style><style
       type="text/css"
       id="current-color-scheme-5">
      .ColorScheme-Text {
        color:#122036;
      }
      </style><style
       type="text/css"
       id="current-color-scheme-6">
      .ColorScheme-Text {
        color:#122036;
      }
      </style><style
       type="text/css"
       id="current-color-scheme-1">
      .ColorScheme-Text {
        color:#122036;
      }
      </style><style
       id="current-color-scheme-10"
       type="text/css">
      .ColorScheme-Text {
        color:#122036;
      }
      </style><style
       id="current-color-scheme-5-7"
       type="text/css">
      .ColorScheme-Text {
        color:#122036;
      }
      </style><style
       id="current-color-scheme-1-2"
       type="text/css">
      .ColorScheme-Text {
        color:#122036;
      }
      </style><style
       type="text/css"
       id="current-color-scheme-10-9">
      .ColorScheme-Text {
        color:#122036;
      }
      </style><linearGradient
       inkscape:collect="always"
       xlink:href="#linearGradient2406"
       id="linearGradient2408"
       x1="-6.000001"
       y1="293.64999"
       x2="-6.000001"
       y2="253.65001"
       gradientUnits="userSpaceOnUse" /></defs><sodipodi:namedview
     id="base"
     pagecolor="#ffffff"
     bordercolor="#666666"
     borderopacity="1.0"
     inkscape:pageopacity="0.0"
     inkscape:pageshadow="2"
     inkscape:zoom="8.0000004"
     inkscape:cx="57.499997"
     inkscape:cy="60.874997"
     inkscape:document-units="px"
     inkscape:current-layer="g2217"
     showgrid="true"
     units="px"
     inkscape:window-width="2560"
     inkscape:window-height="1363"
     inkscape:window-x="0"
     inkscape:window-y="0"
     inkscape:window-maximized="1"
     objecttolerance="10"
     gridtolerance="10"
     guidetolerance="10"
     inkscape:snap-bbox="true"
     inkscape:bbox-paths="true"
     inkscape:bbox-nodes="true"
     inkscape:snap-bbox-edge-midpoints="true"
     inkscape:snap-bbox-midpoints="true"
     inkscape:object-paths="true"
     inkscape:snap-intersection-paths="true"
     inkscape:showpageshadow="2"
     inkscape:pagecheckerboard="0"
     inkscape:deskcolor="#d1d1d1"><inkscape:grid
       type="xygrid"
       id="grid7897"
       empspacing="4" /></sodipodi:namedview><metadata
     id="metadata5"><rdf:RDF><cc:Work
         rdf:about=""><dc:format>image/svg+xml</dc:format><dc:type
           rdf:resource="http://purl.org/dc/dcmitype/StillImage" /><dc:title>Antu icon Theme</dc:title></cc:Work></rdf:RDF></metadata><g
     inkscape:label="Capa 1"
     inkscape:groupmode="layer"
     id="layer1"
     transform="translate(0,-266.64999)"><g
       id="g2217"
       transform="translate(30.000001,16.999985)"><path
         style="fill:#4a5599;fill-opacity:1;stroke:none;stroke-width:6;stroke-linecap:square;stroke-linejoin:round;stroke-miterlimit:18;stroke-dasharray:none;stroke-dashoffset:0;stroke-opacity:1;paint-order:markers stroke fill"
         d="M -22,251.65 H 9.9999975 c 1.6620025,0 2.9999995,1.33799 2.9999995,3 v 38.00001 c 0,1.66197 -1.337998,3 -2.9999995,3 H -22 c -1.661998,0 -3,-1.33803 -3,-3 V 254.65 c 0,-1.66201 1.338002,-3 3,-3 z"
         id="rect6397-1-6"
         inkscape:connector-curvature="0" /><path
         style="fill:url(#linearGradient2408);fill-opacity:1;stroke:none;stroke-width:6;stroke-linecap:square;stroke-linejoin:round;stroke-miterlimit:18;stroke-dasharray:none;stroke-dashoffset:0;stroke-opacity:1;paint-order:markers stroke fill"
         d="M -22,252.65001 H 9.9999975 c 1.1079995,0 2.0000015,0.892 2.0000015,2.00001 v 38.00001 c 0,1.10797 -0.892002,1.99998 -2.0000015,1.99998 H -22 c -1.107998,0 -2.000001,-0.89201 -2.000001,-1.99998 v -38.00001 c 0,-1.10801 0.892003,-2.00001 2.000001,-2.00001 z"
         id="rect6399-4-8"
         inkscape:connector-curvature="0"
         sodipodi:nodetypes="sssssssss" /><path
         style="fill:#4b569a;fill-opacity:1;stroke:none;stroke-width:4;stroke-linecap:round;stroke-linejoin:round;stroke-miterlimit:4;stroke-dasharray:none;stroke-opacity:1"
         d="m -6.000001,262.64999 c -2.77,0 -5,2.23 -5,5.00001 H -8 v 1 h -3.000001 v 1 H -8 v 1 h -3.000001 v 1 H -8 v 1 h -3.000001 c 0,2.76999 2.23,5 5,5 2.77,0 5,-2.23001 5,-5 h -3 v -1 h 3 v -1 h -3 v -1 h 3 v -1 h -3 v -1 h 3 c 0,-2.77001 -2.23,-5 -5,-5.00001 z m -12.999999,6 c -0.554,0 -1,0.44601 -1,1 0,0.554 0.446,1 1,1 0.553999,0 1,-0.446 1,-1 0,-0.55399 -0.446001,-1 -1,-1 z m 26,0 c -0.554,0 -1,0.44601 -1,1 0,0.554 0.446,1 1,1 0.554,0 1,-0.446 1,-1 0,-0.55399 -0.446,-1 -1,-1 z m -26,4 c -0.554,0 -1,0.44601 -1,1 0,0.554 0.446,1 1,1 0.553999,0 1,-0.446 1,-1 0,-0.55399 -0.446001,-1 -1,-1 z m 26,0 c -0.554,0 -1,0.44601 -1,1 0,0.554 0.446,1 1,1 0.554,0 1,-0.446 1,-1 0,-0.55399 -0.446,-1 -1,-1 z m -22.798829,10e-6 c 0.488058,4.71325 4.095501,8.47783 8.798828,8.94921 V 286.65 h 2 v -5.05079 c 4.703327,-0.47138 8.310771,-4.23596 8.798829,-8.94921 h -2 c -0.510148,3.93339 -3.722076,7 -7.798829,7 -4.076753,0 -7.288679,-3.06661 -7.798828,-7 z M -19,276.64999 c -0.554,0 -1,0.44601 -1,1 0,0.554 0.446,1 1,1 0.553999,0 1,-0.446 1,-1 0,-0.55399 -0.446001,-1 -1,-1 z m 26,0 c -0.554,0 -1,0.44601 -1,1 0,0.55399 0.446,1 1,1 0.553999,0 1,-0.44601 1,-1 0,-0.55399 -0.446001,-1 -1,-1 z m -26,4 c -0.554,0 -1,0.44601 -1,1 0,0.554 0.446,1 1,1 0.553999,0 1,-0.446 1,-1 0,-0.55399 -0.446001,-1 -1,-1 z m 26,0 c -0.554,0 -1,0.44601 -1,1 0,0.554 0.446,1 1,1 0.553999,0 1,-0.446 1,-1 0,-0.55399 -0.446001,-1 -1,-1 z"
         id="rect918-6"
         inkscape:connector-curvature="0"
         sodipodi:nodetypes="sccccccccccccsccccccccccccssssssssssssssssssssscccccccsccssssssssssssssssssss" /><path
         style="fill:#f0f2fb;fill-opacity:1;stroke:none;stroke-width:4;stroke-linecap:round;stroke-linejoin:round;stroke-miterlimit:4;stroke-dasharray:none;stroke-opacity:1"
         d="m -6.0000015,261.64999 c -2.77,0 -5.0000005,2.23 -5.0000005,5.00001 h 3.0000005 v 1 h -3.0000005 v 1 h 3.0000005 v 1 h -3.0000005 v 1 h 3.0000005 v 1 h -3.0000005 c 0,2.76999 2.2300005,5 5.0000005,5 2.77,0 5,-2.23001 5,-5 h -3 v -1 h 3 v -1 h -3 v -1 h 3 v -1 h -3 v -1 h 3 c 0,-2.77001 -2.23,-5 -5,-5.00001 z m -12.9999995,6 c -0.554,0 -1,0.446 -1,1 0,0.554 0.446,1 1,1 0.553999,0 1,-0.446 1,-1 0,-0.554 -0.446001,-1 -1,-1 z m 25.9999995,0 c -0.554,0 -1,0.446 -1,1 0,0.554 0.446,1 1,1 0.554,0 1,-0.446 1,-1 0,-0.554 -0.446,-1 -1,-1 z m -25.9999995,4 c -0.554,0 -1,0.446 -1,1 0,0.554 0.446,1 1,1 0.553999,0 1,-0.446 1,-1 0,-0.554 -0.446001,-1 -1,-1 z m 25.9999995,0 c -0.554,0 -1,0.44601 -1,1 0,0.554 0.446,1 1,1 0.554,0 1,-0.446 1,-1 0,-0.55399 -0.446,-1 -1,-1 z M -15.79883,271.65 c 0.488058,4.71325 4.095501,8.47783 8.7988285,8.94921 V 285.65 h 2 v -5.05079 c 4.703327,-0.47138 8.310771,-4.23596 8.798828,-8.94921 h -2 c -0.510148,3.93337 -3.722075,7 -7.798828,7 -4.0767535,0 -7.2886795,-3.06663 -7.7988285,-7 z m -3.201171,3.99999 c -0.554,0 -1,0.446 -1,1 0,0.554 0.446,1 1,1 0.553999,0 1,-0.446 1,-1 0,-0.554 -0.446001,-1 -1,-1 z m 25.9999995,0 c -0.554,0 -1,0.446 -1,1 0,0.55399 0.446,1 1,1 0.554,0 1,-0.44601 1,-1 0,-0.554 -0.446,-1 -1,-1 z m -25.9999995,4 c -0.554,0 -1,0.446 -1,1 0,0.554 0.446,1 1,1 0.553999,0 1,-0.446 1,-1 0,-0.554 -0.446001,-1 -1,-1 z m 25.9999995,0 c -0.554,0 -1,0.446 -1,1 0,0.554 0.446,1 1,1 0.554,0 1,-0.446 1,-1 0,-0.554 -0.446,-1 -1,-1 z"
         id="rect918"
         inkscape:connector-curvature="0"
         sodipodi:nodetypes="sccccccccccccsccccccccccccssssssssssssssssssssscccccccsccssssssssssssssssssss" /></g></g></svg>
