<?xml version="1.0" encoding="UTF-8"?>
<!-- Created with Inkscape (http://www.inkscape.org/) -->
<svg width="22" height="22" version="1.1" xmlns="http://www.w3.org/2000/svg" xmlns:cc="http://creativecommons.org/ns#" xmlns:dc="http://purl.org/dc/elements/1.1/" xmlns:rdf="http://www.w3.org/1999/02/22-rdf-syntax-ns#">
	<defs>
		<style id="current-color-scheme" type="text/css">.ColorScheme-Text {color:#090d11;}.ColorScheme-Background{color:#ffffff;}</style>
	</defs>
	<metadata>
		<rdf:RDF>
			<cc:Work rdf:about="">
				<dc:format>image/svg+xml</dc:format>
				<dc:type rdf:resource="http://purl.org/dc/dcmitype/StillImage"/>
			</cc:Work>
		</rdf:RDF>
	</metadata>
	<path id="c" class="ColorScheme-Background" d="m11 0.9375-0.84375 0.78125-0.71875 0.6875v0.03125l-7 7h-0.03125l-0.6875 0.71875-0.78125 0.84375 0.78125 0.84375 0.6875 0.71875h0.03125l7 7v0.03125l0.71875 0.6875 0.84375 0.78125 0.84375-0.78125 0.71875-0.6875v-0.03125l4.5625-4.5625h-1.6875l-3.7188 3.7188-0.71875 0.6875-0.71875-0.6875-7-7-0.6875-0.71875 0.6875-0.71875 7-7 0.71875-0.6875 0.71875 0.6875 3.7188 3.7188h1.6875l-4.5625-4.5625v-0.03125l-0.71875-0.6875zm-1 8.0625v4h11v-4h-6.4375zm1 1h9v2h-9z" style="fill-opacity:.5;fill:currentColor"/>
	<path id="b" class="ColorScheme-Text" d="m11 2.5938-0.71875 0.6875-7 7-0.6875 0.71875 0.6875 0.71875 7 7 0.71875 0.6875 0.71875-0.6875 5.7188-5.7188h-2.875l-3.5625 3.5625-5.5625-5.5625 5.5625-5.5625 3.5625 3.5625h2.875l-5.7188-5.7188zm0 7.4062v2h9v-2z" style="fill-opacity:.75;fill:currentColor"/>
</svg>
