<?xml version="1.0" encoding="UTF-8" standalone="no"?>
<!-- Created with Inkscape (http://www.inkscape.org/) -->

<svg
   width="48"
   height="48"
   viewBox="0 0 12.7 12.7"
   version="1.1"
   id="svg5"
   inkscape:version="1.2.2 (b0a8486541, 2022-12-01)"
   sodipodi:docname="firefox-developer.svg"
   xml:space="preserve"
   xmlns:inkscape="http://www.inkscape.org/namespaces/inkscape"
   xmlns:sodipodi="http://sodipodi.sourceforge.net/DTD/sodipodi-0.dtd"
   xmlns:xlink="http://www.w3.org/1999/xlink"
   xmlns="http://www.w3.org/2000/svg"
   xmlns:svg="http://www.w3.org/2000/svg"><sodipodi:namedview
     id="namedview7"
     pagecolor="#ffffff"
     bordercolor="#9c9c9c"
     borderopacity="0.24705882"
     inkscape:showpageshadow="false"
     inkscape:pageopacity="0.0"
     inkscape:pagecheckerboard="0"
     inkscape:deskcolor="#5e5e5e"
     inkscape:document-units="px"
     showgrid="true"
     inkscape:zoom="20.70196"
     inkscape:cx="45.889375"
     inkscape:cy="21.640463"
     inkscape:window-width="2560"
     inkscape:window-height="1367"
     inkscape:window-x="0"
     inkscape:window-y="0"
     inkscape:window-maximized="1"
     inkscape:current-layer="layer1"><inkscape:grid
       type="xygrid"
       id="grid132"
       originx="0"
       originy="0" /></sodipodi:namedview><defs
     id="defs2"><linearGradient
       inkscape:collect="always"
       id="linearGradient11411"><stop
         style="stop-color:#c7e6f3;stop-opacity:1;"
         offset="0"
         id="stop11407" /><stop
         style="stop-color:#fffcf2;stop-opacity:1;"
         offset="1"
         id="stop11409" /></linearGradient><linearGradient
       inkscape:collect="always"
       id="linearGradient10299"><stop
         style="stop-color:#1190f6;stop-opacity:1;"
         offset="0"
         id="stop10295" /><stop
         style="stop-color:#02b2fe;stop-opacity:1;"
         offset="1"
         id="stop10297" /></linearGradient><linearGradient
       inkscape:collect="always"
       id="linearGradient8221"><stop
         style="stop-color:#5f6780;stop-opacity:1;"
         offset="0"
         id="stop8217" /><stop
         style="stop-color:#9298b5;stop-opacity:1;"
         offset="1"
         id="stop8219" /></linearGradient><linearGradient
       inkscape:collect="always"
       id="linearGradient6281"><stop
         style="stop-color:#5f6780;stop-opacity:1;"
         offset="0"
         id="stop6277" /><stop
         style="stop-color:#959bb9;stop-opacity:1;"
         offset="1"
         id="stop6279" /></linearGradient><linearGradient
       inkscape:collect="always"
       id="linearGradient5514"><stop
         style="stop-color:#5f6780;stop-opacity:1;"
         offset="0"
         id="stop5510" /><stop
         style="stop-color:#9399b7;stop-opacity:1;"
         offset="1"
         id="stop5512" /></linearGradient><linearGradient
       inkscape:collect="always"
       xlink:href="#linearGradient5514"
       id="linearGradient5516"
       x1="7.1437497"
       y1="10.847917"
       x2="7.1437497"
       y2="2.3812497"
       gradientUnits="userSpaceOnUse" /><linearGradient
       inkscape:collect="always"
       xlink:href="#linearGradient6281"
       id="linearGradient6283"
       x1="9.260416"
       y1="5.2916665"
       x2="9.260416"
       y2="0.79374963"
       gradientUnits="userSpaceOnUse" /><linearGradient
       inkscape:collect="always"
       xlink:href="#linearGradient8221"
       id="linearGradient8223"
       x1="5.0270829"
       y1="3.4395831"
       x2="5.0270829"
       y2="2.645833"
       gradientUnits="userSpaceOnUse" /><linearGradient
       inkscape:collect="always"
       xlink:href="#linearGradient10299"
       id="linearGradient10301"
       x1="7.6729159"
       y1="7.9374995"
       x2="7.6729159"
       y2="3.7041664"
       gradientUnits="userSpaceOnUse" /><linearGradient
       inkscape:collect="always"
       xlink:href="#linearGradient11411"
       id="linearGradient11413"
       x1="4.2333326"
       y1="7.6729164"
       x2="4.2333326"
       y2="4.7624998"
       gradientUnits="userSpaceOnUse" /></defs><g
     inkscape:label="Capa 1"
     inkscape:groupmode="layer"
     id="layer1"><g
       id="g2710"
       transform="translate(-0.7937495,0.52916702)"><path
         style="fill:#393d4d;fill-opacity:1;stroke:#393d4d;stroke-width:0.529167;stroke-linecap:round;stroke-linejoin:round;stroke-dasharray:none;stroke-opacity:1"
         d="M 9.251631,0.26455934 C 9.218671,3.9952983 11.632881,1.5874763 12.241467,6.7741093 L 9.735921,8.9306243 6.905733,6.0252233 C 6.893023,4.0937183 6.873153,1.8810973 9.251631,0.26455934 Z"
         id="path11309"
         sodipodi:nodetypes="ccccc" /><path
         style="fill:url(#linearGradient6283);fill-opacity:1;stroke:none;stroke-width:0.529167;stroke-linecap:round;stroke-linejoin:round;stroke-dasharray:none;stroke-opacity:1"
         d="M 9.251631,0.26455934 C 9.218671,3.9952983 11.632881,1.5874763 12.241467,6.7741093 L 9.735921,8.9306243 6.905733,6.0252233 C 6.893023,4.0937183 6.873153,1.8810973 9.251631,0.26455934 Z"
         id="path11309-2"
         sodipodi:nodetypes="ccccc" /><path
         id="circle11315-2"
         style="fill:#1670d8;stroke-width:0.317499;fill-opacity:1"
         d="M 10.574547,6.3499761 A 3.175,3.175 0 0 1 7.3995468,9.5249763 3.175,3.175 0 0 1 4.2245469,6.3499761 a 3.175,3.175 0 0 1 3.1749999,-3.175 3.175,3.175 0 0 1 3.1750002,3.175 z" /><path
         style="fill:#393d4d;fill-opacity:1;stroke:#393d4d;stroke-width:0.529167;stroke-linecap:round;stroke-linejoin:round;stroke-dasharray:none;stroke-opacity:1"
         d="m 3.69274,3.9252243 c 0.367594,-0.364752 0.967836,-1.214091 1.684019,-1.449535 -0.192411,1.025569 0.05703,1.351534 0.181192,1.875869 L 4.406849,4.0531243 Z"
         id="path11313" /><path
         id="circle11315"
         style="fill:url(#linearGradient10301);stroke-width:0.291041;fill-opacity:1"
         d="M 10.318857,6.3821435 A 2.9104166,2.9104166 0 0 1 7.4084408,9.2925601 2.9104166,2.9104166 0 0 1 4.4980242,6.3821435 2.9104166,2.9104166 0 0 1 7.4084408,3.4717269 2.9104166,2.9104166 0 0 1 10.318857,6.3821435 Z" /><g
         inkscape:label="Capa 1"
         id="layer1-3"
         transform="translate(18.25625,7.9375)"><path
           id="path1450"
           style="opacity:1;fill:#e6f9ff;fill-opacity:1;stroke-width:0.793748;stroke-linecap:round;stroke-linejoin:round;stroke-miterlimit:1.8;paint-order:fill markers stroke;stop-color:#000000"
           d="m -11.109916,-4.3847453 a 0.1322915,0.1322915 0 0 0 -0.09147,0.042891 c -0.196405,0.2140104 -0.362859,0.421346 -0.502295,0.622701 a 0.39687499,0.39687499 0 0 1 -5.17e-4,0 0.39687499,0.39687499 0 0 0 -0.06098,-0.00465 0.39687499,0.39687499 0 0 0 -0.396875,0.396875 0.39687499,0.39687499 0 0 0 0.09198,0.2537312 c -0.102326,0.2326955 -0.168192,0.4567506 -0.202055,0.6728264 a 0.39687499,0.39687499 0 0 0 -0.02222,-5.168e-4 0.39687499,0.39687499 0 0 0 -0.319877,0.162264 c -0.18054,-0.081737 -0.360845,-0.17391 -0.540535,-0.2769857 a 0.1322915,0.1322915 0 0 0 -0.09974,-0.013436 0.1322915,0.1322915 0 0 0 -0.0801,0.062528 0.1322915,0.1322915 0 0 0 0.04909,0.1793173 c 0.197474,0.1132778 0.395818,0.2148238 0.594796,0.303858 a 0.39687499,0.39687499 0 0 0 0.396358,0.3762044 0.39687499,0.39687499 0 0 0 0.03617,-0.00207 c 0.0053,0.026909 0.01138,0.053448 0.01757,0.080099 0.07604,0.327192 0.215925,0.63210757 0.391708,0.92242427 a 0.39687499,0.39687499 0 0 0 -0.04806,0.1798364 c -0.20616,0.0786929 -0.406433,0.1753518 -0.599446,0.2940389 a 0.1322915,0.1322915 0 0 0 -0.04289,0.181901 0.1322915,0.1322915 0 0 0 0.181384,0.044958 c 0.174123,-0.1070706 0.355701,-0.195745 0.543635,-0.2682001 a 0.39687499,0.39687499 0 0 0 0.313676,0.1545125 0.39687499,0.39687499 0 0 0 0.05736,-0.00465 c 0.161999,0.2100389 0.333194,0.4149392 0.501262,0.6180501 a 0.1322915,0.1322915 0 0 0 0.187585,0.01757 0.1322915,0.1322915 0 0 0 0.01757,-0.1855184 c -0.159415,-0.1926551 -0.3185,-0.38455 -0.468188,-0.5777434 a 0.39687499,0.39687499 0 0 0 0.09818,-0.2196248 c 0.461914,-0.0868757 0.951044,-0.1075938 1.4557245,-0.0956014 0.083024,0.1749586 0.1786762,0.3480538 0.287321,0.5183146 a 0.1322915,0.1322915 0 0 0 0.1834513,0.040824 0.1322915,0.1322915 0 0 0 0.039274,-0.1834513 c -0.077097,-0.1208216 -0.1468676,-0.2428327 -0.210323,-0.365352 0.20434,0.00949 0.4107686,0.022898 0.6185669,0.038757 a 0.1322915,0.1322915 0 0 0 0.142627,-0.1209225 0.1322915,0.1322915 0 0 0 -0.1229899,-0.142627 c -0.2562934,-0.0195603 -0.5125662,-0.0359823 -0.7668783,-0.0454753 -0.096138,-0.2226865 -0.1701556,-0.44834137 -0.2216919,-0.67644447 a 0.39687499,0.39687499 0 0 0 0.1380011,-0.1488277 c 0.4394485,-0.088681 0.8391417,-0.2481634 1.1787394,-0.4728393 a 0.1322915,0.1322915 0 0 0 0.03669,-0.1834514 0.1322915,0.1322915 0 0 0 -0.1834513,-0.037207 c -0.2847771,0.1884069 -0.6218129,0.3277276 -0.9958049,0.4123779 a 0.39687499,0.39687499 0 0 0 -0.2619992,-0.2831868 c -0.013213,-0.5895728 0.1174932,-1.1956114 0.3948079,-1.8184937 a 0.1322915,0.1322915 0 0 0 -0.06873,-0.1741496 0.1322915,0.1322915 0 0 0 -0.1736328,0.066663 c -0.2906673,0.6528734 -0.4269848,1.2997188 -0.4123778,1.9306315 a 0.39687499,0.39687499 0 0 0 -0.26045,0.372587 c -0.49995,0.011901 -1.038612,-0.061003 -1.58905,-0.2289266 a 0.39687499,0.39687499 0 0 0 0.0015,-0.035657 0.39687499,0.39687499 0 0 0 -0.12609,-0.2904215 c 0.02422,-0.2044592 0.08109,-0.4182009 0.177767,-0.6438884 a 0.39687499,0.39687499 0 0 0 0.08061,0.00827 0.39687499,0.39687499 0 0 0 0.396875,-0.3968767 0.39687499,0.39687499 0 0 0 -0.103353,-0.2671672 c 0.128959,-0.1820927 0.283149,-0.3717423 0.465088,-0.5699911 a 0.1322915,0.1322915 0 0 0 -0.0078,-0.1870687 0.1322915,0.1322915 0 0 0 -0.0956,-0.03359 z m -0.900203,2.6592692 c 0.622251,0.1951953 1.233931,0.2757698 1.80144,0.2506307 a 0.39687499,0.39687499 0 0 0 5.17e-4,5.167e-4 0.39687499,0.39687499 0 0 0 0.2526974,0.1291911 c 0.046084,0.2059601 0.1086839,0.40982267 0.1881022,0.61081537 -0.3125366,-0.00427 -0.6217156,0.00443 -0.9244906,0.03514 -0.160058,0.016233 -0.318878,0.038615 -0.474907,0.068213 a 0.39687499,0.39687499 0 0 0 -0.33383,-0.1824179 0.39687499,0.39687499 0 0 0 -0.144694,0.0268717 C -11.798961,-1.0458633 -11.918511,-1.3111774 -11.982731,-1.5875 c -0.01061,-0.04565 -0.01969,-0.091536 -0.02739,-0.1379761 z" /></g><path
         style="fill:url(#linearGradient8223);fill-opacity:1;stroke:none;stroke-width:0.529167;stroke-linecap:round;stroke-linejoin:round;stroke-dasharray:none;stroke-opacity:1"
         d="m 3.69274,3.9252243 c 0.367594,-0.364752 0.967836,-1.214091 1.684019,-1.449535 -0.192411,1.025569 0.05703,1.351534 0.181192,1.875869 L 4.406849,4.0531243 Z"
         id="path11313-3" /><path
         id="ellipse841"
         style="fill:#393d4d;fill-opacity:1;stroke:#393d4d;stroke-width:0.529167;stroke-linecap:round;stroke-linejoin:round;stroke-dasharray:none;stroke-opacity:1"
         d="m 3.88555,2.0582483 c -1.143745,0.884486 -1.90614,2.225029 -2.015897,3.743957 -0.0048,0.05152 -0.0087,0.10565 -0.01137,0.163815 -0.0031,0.06791 -0.0062,0.135716 -0.0062,0.213423 0,2.888358 2.369169,5.2296557 5.291667,5.2296557 2.922498,0 5.291667,-2.3412977 5.291667,-5.2296557 0,-1.344726 -0.513219,-2.57091 -1.357023,-3.497461 0.01881,-7.14e-4 -0.07933,-0.07611 -0.129708,-0.05736 0.246003,0.407756 0.417419,0.865372 0.499711,1.352889 5.7e-5,3.44e-4 -5.7e-5,6.88e-4 0,10e-4 0.01265,0.07508 0.02292,0.151032 0.03152,0.227376 0.004,0.03701 0.0084,0.07379 0.01137,0.111105 0.0023,0.02711 0.004,0.05438 0.0057,0.08165 0.0044,0.07556 0.0077,0.151748 0.0077,0.22841 v 5.29e-4 C 11.5044,6.7714203 9.766144,8.5095173 7.622241,8.5095173 6.245114,8.5763673 5.209153,7.8156123 4.926798,6.9917803 4.744631,6.4602663 4.804281,6.2359883 5.299902,5.9055413 5.569107,5.7346533 5.948144,5.6189143 6.569075,5.5991003 7.136294,5.2260643 7.179787,5.0826213 7.152502,4.9696813 6.976299,4.9215013 6.490366,4.7349253 6.058512,4.3950393 5.676014,4.0939983 5.192431,3.4871613 4.077754,3.4767493 3.867171,3.0712583 3.906159,2.5396983 3.885518,2.0582313 Z" /><path
         id="ellipse841-7"
         style="fill:url(#linearGradient5516);fill-opacity:1;stroke:none;stroke-width:0.529167;stroke-linecap:round;stroke-linejoin:round;stroke-dasharray:none;stroke-opacity:1"
         d="m 3.88555,2.0582483 c -1.143745,0.884486 -1.90614,2.225029 -2.015897,3.743958 -0.0049,0.05152 -0.0087,0.105649 -0.01137,0.163814 -0.0031,0.06791 -0.0062,0.135716 -0.0062,0.213424 0,2.888357 2.369168,5.2296547 5.291666,5.2296547 2.922498,0 5.291667,-2.3412977 5.291667,-5.2296547 0,-1.344727 -0.513219,-2.570911 -1.357023,-3.497461 0.01881,-7.15e-4 -0.07933,-0.07611 -0.129708,-0.05736 0.246003,0.407755 0.41742,0.865371 0.499711,1.352888 5.7e-5,3.44e-4 -5.7e-5,6.88e-4 0,10e-4 0.01265,0.07508 0.02292,0.151032 0.03152,0.227377 0.004,0.03701 0.0084,0.07379 0.01137,0.111104 0.0023,0.02711 0.004,0.05438 0.0057,0.08165 0.0044,0.07556 0.0077,0.151748 0.0078,0.22841 v 5.29e-4 C 11.504495,6.7714183 9.766238,8.5095153 7.622335,8.5095153 6.245209,8.5763553 5.209247,7.8156103 4.926893,6.9917783 4.74473,6.4602663 4.80438,6.2359883 5.300001,5.9055413 5.569206,5.7346533 5.948243,5.6189143 6.569174,5.5991003 7.136393,5.2260643 7.179886,5.0826223 7.152601,4.9696813 6.976398,4.9215013 6.490465,4.7349253 6.058611,4.3950393 5.676113,4.0939983 5.19253,3.4871613 4.077854,3.4767493 3.86727,3.0712583 3.906258,2.5396993 3.885617,2.0582313 Z" /><path
         style="fill:#393d4d;fill-opacity:1;stroke:#393d4d;stroke-width:0.529167;stroke-linecap:round;stroke-linejoin:round;stroke-dasharray:none;stroke-opacity:1"
         d="m 4.216429,4.7961663 c -0.360108,-0.0078 -0.73896,0.115682 -0.979774,0.280018 -0.04313,0.04313 0.419282,0.82396 1.224101,0.832424 -0.07452,1.298259 0.963406,2.105595 1.615875,2.293451 l 1.98e-4,-5.82e-4 c -1.73e-4,-8.9e-5 -3.44e-4,-2e-4 -5.29e-4,-2.91e-4 -0.05258,-0.02607 -0.103719,-0.05348 -0.153435,-0.08215 -0.0046,-0.0027 -0.0092,-0.0054 -0.01386,-0.0081 -0.02779,-0.01625 -0.0551,-0.03288 -0.08196,-0.04989 -0.0053,-0.0033 -0.01052,-0.0066 -0.01574,-0.01 -0.02688,-0.01729 -0.05325,-0.03496 -0.07916,-0.05298 -0.0041,-0.0028 -0.0082,-0.0056 -0.01222,-0.0084 -0.01487,-0.01047 -0.02961,-0.02103 -0.04414,-0.03173 -0.02851,-0.02099 -0.0563,-0.04245 -0.0835,-0.06428 -0.0065,-0.0052 -0.01284,-0.01038 -0.01922,-0.0156 -0.01927,-0.01578 -0.03821,-0.03173 -0.0568,-0.04791 -0.009,-0.0079 -0.01802,-0.0158 -0.0269,-0.02376 -0.0129,-0.01157 -0.02565,-0.02321 -0.0382,-0.03497 -0.01213,-0.01135 -0.02413,-0.02277 -0.03593,-0.03429 -0.0097,-0.0095 -0.01937,-0.01906 -0.02888,-0.02869 -0.01382,-0.01398 -0.02743,-0.02806 -0.04076,-0.04226 -2.57e-4,-2.65e-4 -5.03e-4,-5.56e-4 -7.67e-4,-8.21e-4 -0.0082,-0.0088 -0.01628,-0.01768 -0.02434,-0.02656 -0.01135,-0.0125 -0.02254,-0.02506 -0.03352,-0.03772 -0.0086,-0.01 -0.01719,-0.01997 -0.0256,-0.03004 -0.01119,-0.01339 -0.02212,-0.02688 -0.03289,-0.04042 -0.0061,-0.0076 -0.01222,-0.01525 -0.01816,-0.02294 -0.01351,-0.01748 -0.02656,-0.03513 -0.03936,-0.05284 -0.0051,-0.0071 -0.01018,-0.01411 -0.01517,-0.0212 -0.01331,-0.01892 -0.02624,-0.03793 -0.03873,-0.05709 -0.0034,-0.0052 -0.0067,-0.0105 -0.01005,-0.01574 -0.01241,-0.01944 -0.02451,-0.03893 -0.03608,-0.05858 -0.0025,-0.0042 -0.0048,-0.0083 -0.0072,-0.01251 -0.01165,-0.02016 -0.02277,-0.04046 -0.03352,-0.0608 -0.002,-0.0038 -0.0041,-0.0075 -0.006,-0.0113 -0.01122,-0.02163 -0.02184,-0.04339 -0.03202,-0.0652 -0.0021,-0.0046 -0.0042,-0.0091 -0.0063,-0.01372 -0.01,-0.02186 -0.01949,-0.04378 -0.0284,-0.06578 -0.0014,-0.0035 -0.0027,-0.007 -0.0041,-0.01048 -0.0093,-0.02341 -0.01816,-0.04688 -0.02623,-0.07041 -0.182161,-0.531573 -0.122869,-0.755877 0.372752,-1.086325 0.269205,-0.170888 0.648374,-0.28638 1.269306,-0.306194 0.567219,-0.373036 0.610647,-0.516931 0.583362,-0.629872 -0.956651,0.758325 -1.850267,0.111902 -2.69166,-0.145985 -0.07918,-0.0169 -0.161274,-0.02568 -0.244376,-0.02748 z"
         id="path11324" /><path
         style="fill:url(#linearGradient11413);fill-opacity:1;stroke:none;stroke-width:0.529167;stroke-linecap:round;stroke-linejoin:round;stroke-dasharray:none;stroke-opacity:1"
         d="m 4.216429,4.7961663 c -0.360108,-0.0078 -0.73896,0.115682 -0.979774,0.280019 -0.04313,0.04313 0.419282,0.823959 1.224101,0.832423 -0.07452,1.29826 0.963406,2.105595 1.615875,2.293452 l 1.98e-4,-5.82e-4 c -1.73e-4,-8.9e-5 -3.44e-4,-2.01e-4 -5.29e-4,-2.92e-4 -0.05258,-0.02607 -0.103719,-0.05348 -0.153435,-0.08215 -0.0046,-0.0027 -0.0092,-0.0054 -0.01386,-0.0081 -0.02779,-0.01625 -0.0551,-0.03288 -0.08196,-0.04989 -0.0053,-0.0033 -0.01052,-0.0066 -0.01574,-0.01 -0.02688,-0.01729 -0.05325,-0.03496 -0.07916,-0.05298 -0.0041,-0.0028 -0.0082,-0.0056 -0.01222,-0.0085 -0.01487,-0.01047 -0.02961,-0.02103 -0.04414,-0.03173 -0.02851,-0.02099 -0.0563,-0.04245 -0.0835,-0.06428 -0.0065,-0.0052 -0.01284,-0.01038 -0.01922,-0.0156 -0.01927,-0.01578 -0.03821,-0.03173 -0.0568,-0.04791 -0.009,-0.0079 -0.01802,-0.0158 -0.0269,-0.02376 -0.0129,-0.01157 -0.02565,-0.02321 -0.0382,-0.03497 -0.01213,-0.01135 -0.02413,-0.02277 -0.03593,-0.03429 -0.0097,-0.0095 -0.01937,-0.01906 -0.02888,-0.02869 -0.01382,-0.01398 -0.02743,-0.02806 -0.04076,-0.04226 -2.57e-4,-2.65e-4 -5.03e-4,-5.56e-4 -7.67e-4,-8.2e-4 -0.0082,-0.0088 -0.01628,-0.01769 -0.02434,-0.02656 -0.01135,-0.0125 -0.02254,-0.02506 -0.03352,-0.03772 -0.0086,-0.01 -0.01719,-0.01997 -0.0256,-0.03004 -0.01119,-0.01339 -0.02212,-0.02688 -0.03289,-0.04042 -0.0061,-0.0076 -0.01222,-0.01525 -0.01816,-0.02294 -0.01351,-0.01748 -0.02656,-0.03513 -0.03936,-0.05284 -0.0051,-0.0071 -0.01018,-0.01411 -0.01517,-0.0212 -0.01331,-0.01892 -0.02624,-0.03794 -0.03873,-0.05709 -0.0034,-0.0052 -0.0067,-0.0105 -0.01005,-0.01574 -0.01241,-0.01944 -0.02451,-0.03893 -0.03608,-0.05858 -0.0025,-0.0042 -0.0048,-0.0083 -0.0072,-0.01251 -0.01165,-0.02016 -0.02277,-0.04046 -0.03352,-0.0608 -0.002,-0.0038 -0.0041,-0.0075 -0.006,-0.0113 -0.01122,-0.02163 -0.02184,-0.04339 -0.03202,-0.0652 -0.0021,-0.0046 -0.0042,-0.0091 -0.0063,-0.01372 -0.01,-0.02186 -0.01949,-0.04378 -0.0284,-0.06578 -0.0014,-0.0035 -0.0027,-0.007 -0.0041,-0.01048 -0.0093,-0.02341 -0.01816,-0.04688 -0.02623,-0.07041 -0.182168,-0.531514 -0.122876,-0.755818 0.372745,-1.086266 0.269205,-0.170888 0.648375,-0.28638 1.269306,-0.306194 0.567219,-0.373036 0.610648,-0.516931 0.583363,-0.629872 -0.956651,0.758325 -1.850267,0.111902 -2.691661,-0.145985 -0.07918,-0.0169 -0.161274,-0.02568 -0.244375,-0.02748 z"
         id="path11324-5" /></g></g></svg>
