<?xml version="1.0" encoding="UTF-8" standalone="no"?>
<!-- Created with Inkscape (http://www.inkscape.org/) -->

<svg
   width="48"
   height="48"
   viewBox="0 0 12.7 12.7"
   version="1.1"
   id="svg5"
   inkscape:version="1.2.2 (b0a8486541, 2022-12-01)"
   sodipodi:docname="libreoffice-impress.svg"
   xmlns:inkscape="http://www.inkscape.org/namespaces/inkscape"
   xmlns:sodipodi="http://sodipodi.sourceforge.net/DTD/sodipodi-0.dtd"
   xmlns:xlink="http://www.w3.org/1999/xlink"
   xmlns="http://www.w3.org/2000/svg"
   xmlns:svg="http://www.w3.org/2000/svg">
  <sodipodi:namedview
     id="namedview7"
     pagecolor="#ffffff"
     bordercolor="#9c9c9c"
     borderopacity="0.24705882"
     inkscape:showpageshadow="false"
     inkscape:pageopacity="0.0"
     inkscape:pagecheckerboard="0"
     inkscape:deskcolor="#5e5e5e"
     inkscape:document-units="px"
     showgrid="true"
     inkscape:zoom="5.1754899"
     inkscape:cx="90.619441"
     inkscape:cy="49.850353"
     inkscape:window-width="2560"
     inkscape:window-height="1363"
     inkscape:window-x="0"
     inkscape:window-y="0"
     inkscape:window-maximized="1"
     inkscape:current-layer="layer1">
    <inkscape:grid
       type="xygrid"
       id="grid132"
       originx="0"
       originy="0" />
  </sodipodi:namedview>
  <defs
     id="defs2">
    <linearGradient
       inkscape:collect="always"
       xlink:href="#linearGradient58195"
       id="linearGradient58197"
       x1="35.454166"
       y1="14.287499"
       x2="35.454166"
       y2="3.7041667"
       gradientUnits="userSpaceOnUse" />
    <linearGradient
       inkscape:collect="always"
       id="linearGradient58195">
      <stop
         style="stop-color:#f34242;stop-opacity:1;"
         offset="0"
         id="stop58191" />
      <stop
         style="stop-color:#ff6666;stop-opacity:1;"
         offset="1"
         id="stop58193" />
    </linearGradient>
  </defs>
  <g
     inkscape:label="Capa 1"
     inkscape:groupmode="layer"
     id="layer1">
    <g
       id="g60781"
       transform="translate(-24.077093,-12.435416)">
      <g
         id="g16471"
         transform="translate(-5.0270826,9.7895835)">
        <path
           id="path2529-7"
           style="color:#000000;fill:#b52d2d;fill-opacity:1;stroke-width:0.264583;stroke-linecap:round;stroke-linejoin:round;-inkscape-stroke:none"
           d="m 31.220834,3.175 c -0.43516,0 -0.79375,0.3585897 -0.79375,0.7937499 V 14.022916 c 0,0.435161 0.358591,0.79375 0.79375,0.79375 H 39.6875 c 0.435158,0 0.79375,-0.358589 0.79375,-0.79375 V 8.2020832 c 2.5e-5,-0.067654 -0.02587,-0.1327441 -0.07235,-0.181901 l -4.497917,-4.7625 C 35.860991,3.2048767 35.791468,3.1749761 35.71875,3.175 Z m 5.820833,0 c -0.230406,2.645e-4 -0.350418,0.2744443 -0.194303,0.4438993 l 3.174999,3.4395833 c 0.16335,0.1766491 0.458582,0.061283 0.458887,-0.179316 V 3.9687499 c 0,0 0.0036,-0.1875234 -0.09405,-0.3829235 C 40.2895,3.3904316 40.040277,3.175 39.6875,3.175 Z"
           sodipodi:nodetypes="ssssssccccscccccssc" />
        <path
           id="path2533-2"
           style="color:#000000;fill:url(#linearGradient58197);fill-opacity:1;stroke-width:0.529167;stroke-linecap:round;stroke-linejoin:round;-inkscape-stroke:none"
           d="m 31.220834,3.4395833 c -0.293158,0 -0.529167,0.2360083 -0.529167,0.5291666 V 14.022916 c 0,0.293159 0.236009,0.529167 0.529167,0.529167 H 39.6875 c 0.293158,0 0.529167,-0.236008 0.529167,-0.529167 V 8.2020832 L 35.71875,3.4395833 Z m 5.820833,0 3.175,3.4395833 V 3.9687499 c 0,0 -1e-6,-0.5291666 -0.529167,-0.5291666 z" />
        <g
           id="g6249"
           transform="matrix(0.26458333,0,0,0.26458333,30.1625,-70.551142)"
           style="fill:#fde0e0;fill-opacity:1">
          <path
             inkscape:connector-curvature="0"
             id="rect3465-8"
             d="M 14.999999,296.64999 V 302.65 h 6 a 6.0000003,6.0000003 0 0 0 -6,-6.00001 z m -1,1 a 6.0000003,6.0000003 0 0 0 -5.5429694,3.70312 6.0000003,6.0000003 0 0 0 1.300781,6.53906 6.0000003,6.0000003 0 0 0 6.5390634,1.30079 6.0000003,6.0000003 0 0 0 3.703124,-5.54297 h -5.999999 z m 8.999999,1 v 3 h 9.000001 v -3 z m 3.000001,4.00001 v 2.99999 h 6 V 302.65 Z m -5,4 v 2.99999 h 11 V 306.65 Z"
             style="vector-effect:none;fill:#b52d2d;fill-opacity:1;stroke:none;stroke-width:2;stroke-linecap:round;stroke-linejoin:round;stroke-miterlimit:4;stroke-dasharray:none;stroke-dashoffset:0;stroke-opacity:1" />
          <path
             inkscape:connector-curvature="0"
             id="rect3465"
             d="M 15,295.64999 V 301.65 h 6 a 6.0000003,6.0000003 0 0 0 -6,-6.00001 z m -1,1 a 6.0000003,6.0000003 0 0 0 -5.5429691,3.70312 6.0000003,6.0000003 0 0 0 1.300781,6.53906 6.0000003,6.0000003 0 0 0 6.5390631,1.30079 6.0000003,6.0000003 0 0 0 3.703124,-5.54297 H 14 Z m 8.999999,1 v 3 H 32 v -3 z M 26,301.65 v 2.99999 h 6 V 301.65 Z m -5,4 v 2.99999 H 32 V 305.65 Z"
             style="opacity:1;vector-effect:none;fill:#ffffff;fill-opacity:1;stroke:none;stroke-width:2;stroke-linecap:round;stroke-linejoin:round;stroke-miterlimit:4;stroke-dasharray:none;stroke-dashoffset:0;stroke-opacity:1" />
        </g>
      </g>
    </g>
  </g>
</svg>
