<?xml version="1.0" encoding="UTF-8" standalone="no"?>
<!-- Created with Inkscape (http://www.inkscape.org/) -->

<svg
   width="48"
   height="48"
   viewBox="0 0 12.7 12.7"
   version="1.1"
   id="svg5"
   inkscape:version="1.2.2 (b0a8486541, 2022-12-01)"
   sodipodi:docname="libreoffice-math.svg"
   xmlns:inkscape="http://www.inkscape.org/namespaces/inkscape"
   xmlns:sodipodi="http://sodipodi.sourceforge.net/DTD/sodipodi-0.dtd"
   xmlns:xlink="http://www.w3.org/1999/xlink"
   xmlns="http://www.w3.org/2000/svg"
   xmlns:svg="http://www.w3.org/2000/svg">
  <sodipodi:namedview
     id="namedview7"
     pagecolor="#ffffff"
     bordercolor="#9c9c9c"
     borderopacity="0.24705882"
     inkscape:showpageshadow="false"
     inkscape:pageopacity="0.0"
     inkscape:pagecheckerboard="0"
     inkscape:deskcolor="#5e5e5e"
     inkscape:document-units="px"
     showgrid="true"
     inkscape:zoom="5.1754899"
     inkscape:cx="90.619441"
     inkscape:cy="49.850353"
     inkscape:window-width="2560"
     inkscape:window-height="1363"
     inkscape:window-x="0"
     inkscape:window-y="0"
     inkscape:window-maximized="1"
     inkscape:current-layer="layer1">
    <inkscape:grid
       type="xygrid"
       id="grid132"
       originx="0"
       originy="0" />
  </sodipodi:namedview>
  <defs
     id="defs2">
    <linearGradient
       inkscape:collect="always"
       xlink:href="#linearGradient41741"
       id="linearGradient41743"
       x1="21.034374"
       y1="22.225"
       x2="21.034374"
       y2="11.377083"
       gradientUnits="userSpaceOnUse"
       gradientTransform="translate(-4.2333331,-5.5562495)" />
    <linearGradient
       inkscape:collect="always"
       id="linearGradient41741">
      <stop
         style="stop-color:#dd366b;stop-opacity:1;"
         offset="0"
         id="stop41737" />
      <stop
         style="stop-color:#f25183;stop-opacity:1;"
         offset="1"
         id="stop41739" />
    </linearGradient>
  </defs>
  <g
     inkscape:label="Capa 1"
     inkscape:groupmode="layer"
     id="layer1">
    <g
       id="g45386"
       transform="translate(-10.318758,-5.0270837)">
      <path
         id="path2529-61"
         style="color:#000000;fill:#ba205b;fill-opacity:1;stroke-width:0.264583;stroke-linecap:round;stroke-linejoin:round;-inkscape-stroke:none"
         d="m 12.435417,5.5562504 c -0.43516,0 -0.79375,0.3585898 -0.79375,0.79375 V 16.404167 c 0,0.43516 0.358591,0.79375 0.79375,0.79375 h 8.466666 c 0.435158,0 0.79375,-0.35859 0.79375,-0.79375 v -5.820833 c 2.4e-5,-0.06765 -0.02585,-0.132744 -0.07235,-0.181901 L 17.125566,5.6389327 c -0.04999,-0.052811 -0.119517,-0.082711 -0.192235,-0.08268 z m 5.820833,0 c -0.230407,2.646e-4 -0.350417,0.2744443 -0.194302,0.4438994 l 3.174997,3.4395833 c 0.163351,0.176649 0.458584,0.06128 0.458888,-0.1793161 V 6.3500004 c 0,0 0.0036,-0.1875235 -0.09405,-0.3829235 -0.0977,-0.1953948 -0.346922,-0.4108265 -0.699699,-0.4108265 z"
         sodipodi:nodetypes="ssssssccccscccccssc" />
      <path
         id="path2533-5"
         style="color:#000000;fill:url(#linearGradient41743);fill-opacity:1;stroke-width:0.529167;stroke-linecap:round;stroke-linejoin:round;-inkscape-stroke:none"
         d="m 12.435417,5.8208337 c -0.293158,0 -0.529167,0.2360083 -0.529167,0.5291667 V 16.404167 c 0,0.293158 0.236009,0.529167 0.529167,0.529167 h 8.466666 c 0.293159,0 0.529167,-0.236009 0.529167,-0.529167 V 10.583334 L 16.933333,5.8208337 Z m 5.820833,0 3.175,3.4395833 V 6.3500004 c 0,0 0,-0.5291667 -0.529167,-0.5291667 z" />
      <path
         sodipodi:nodetypes="cccccccccccccsssssccccccccccccccc"
         inkscape:connector-curvature="0"
         id="rect961-0"
         d="m 14.552083,9.7895837 v 0.7937503 h -0.79375 v 0.79375 h 0.79375 v 0.79375 h 0.79375 v -0.79375 h 0.79375 v -0.79375 h -0.79375 V 9.7895837 Z m 3.704167,0.2645833 c -0.439738,0 -0.79375,0.354012 -0.79375,0.79375 0,0.439737 0.354012,0.79375 0.79375,0.79375 0.439737,0 0.79375,-0.354013 0.79375,-0.79375 0,-0.439738 -0.354013,-0.79375 -0.79375,-0.79375 z M 16.933333,12.7 v 0.79375 h 2.645834 V 12.7 Z m -3.175,0.79375 v 0.79375 h 2.38125 v -0.79375 z m 3.175,0.529167 v 0.79375 h 2.645834 v -0.79375 z"
         style="fill:#ba205b;fill-opacity:1;stroke:none;stroke-width:0.264583;stroke-linecap:round;stroke-linejoin:round;stroke-miterlimit:4;stroke-dasharray:none;stroke-opacity:1" />
      <g
         id="g7550"
         transform="matrix(0.26458333,0,0,0.26458333,21.166667,-66.053225)"
         style="fill:#f7e0e5;fill-opacity:1">
        <path
           sodipodi:nodetypes="cccccccccccccsssssccccccccccccccc"
           inkscape:connector-curvature="0"
           id="rect961"
           d="m -25,285.64999 v 3 h -3 v 3 h 3 v 3 h 3 v -3 h 3 v -3 h -3 v -3 z m 14,1 c -1.662,0 -3,1.338 -3,3 0,1.662 1.338,3 3,3 1.662,0 3,-1.338 3,-3 0,-1.662 -1.338,-3 -3,-3 z m -5,10 v 3 h 10 v -3 z m -12,3 v 3 h 9 v -3 z m 12,2 v 3 h 10 v -3 z"
           style="opacity:1;fill:#ffffff;fill-opacity:1;stroke:none;stroke-width:1;stroke-linecap:round;stroke-linejoin:round;stroke-miterlimit:4;stroke-dasharray:none;stroke-opacity:1" />
      </g>
    </g>
  </g>
</svg>
