<?xml version="1.0" encoding="UTF-8" standalone="no"?>
<!-- Created with Inkscape (http://www.inkscape.org/) -->

<svg
   width="48"
   height="48"
   viewBox="0 0 12.7 12.7"
   version="1.1"
   id="svg5"
   inkscape:version="1.2.2 (b0a8486541, 2022-12-01)"
   sodipodi:docname="libreoffice-writer.svg"
   xmlns:inkscape="http://www.inkscape.org/namespaces/inkscape"
   xmlns:sodipodi="http://sodipodi.sourceforge.net/DTD/sodipodi-0.dtd"
   xmlns:xlink="http://www.w3.org/1999/xlink"
   xmlns="http://www.w3.org/2000/svg"
   xmlns:svg="http://www.w3.org/2000/svg">
  <sodipodi:namedview
     id="namedview7"
     pagecolor="#ffffff"
     bordercolor="#9c9c9c"
     borderopacity="0.24705882"
     inkscape:showpageshadow="false"
     inkscape:pageopacity="0.0"
     inkscape:pagecheckerboard="0"
     inkscape:deskcolor="#5e5e5e"
     inkscape:document-units="px"
     showgrid="true"
     inkscape:zoom="5.1754899"
     inkscape:cx="90.619441"
     inkscape:cy="49.850353"
     inkscape:window-width="2560"
     inkscape:window-height="1363"
     inkscape:window-x="0"
     inkscape:window-y="0"
     inkscape:window-maximized="1"
     inkscape:current-layer="layer1">
    <inkscape:grid
       type="xygrid"
       id="grid132"
       originx="0"
       originy="0" />
  </sodipodi:namedview>
  <defs
     id="defs2">
    <linearGradient
       inkscape:collect="always"
       xlink:href="#linearGradient32325"
       id="linearGradient32327"
       x1="22.225"
       y1="24.606249"
       x2="22.225"
       y2="14.022917"
       gradientUnits="userSpaceOnUse"
       gradientTransform="translate(-2.1166665,-7.1437494)" />
    <linearGradient
       inkscape:collect="always"
       id="linearGradient32325">
      <stop
         style="stop-color:#1980f1;stop-opacity:1;"
         offset="0"
         id="stop32321" />
      <stop
         style="stop-color:#1fb4f9;stop-opacity:1;"
         offset="1"
         id="stop32323" />
    </linearGradient>
  </defs>
  <g
     inkscape:label="Capa 1"
     inkscape:groupmode="layer"
     id="layer1">
    <g
       id="g36652"
       transform="translate(-13.758342,-6.0854169)">
      <path
         id="path2529-9"
         style="color:#000000;fill:#1467b4;fill-opacity:1;stroke-width:0.264583;stroke-linecap:round;stroke-linejoin:round;-inkscape-stroke:none"
         d="m 15.875,6.6145837 c -0.435159,0 -0.79375,0.3585898 -0.79375,0.79375 V 17.4625 c 0,0.43516 0.358592,0.79375 0.79375,0.79375 h 8.466667 c 0.435157,0 0.79375,-0.35859 0.79375,-0.79375 v -5.820833 c 2.4e-5,-0.06765 -0.02586,-0.132744 -0.07235,-0.181901 l -4.497916,-4.7625 c -0.04999,-0.0528 -0.119519,-0.082709 -0.192237,-0.08268 z m 5.820833,0 c -0.230406,2.646e-4 -0.350418,0.2744444 -0.194303,0.4438994 l 3.175,3.4395829 c 0.16335,0.176649 0.458581,0.06128 0.458887,-0.179316 V 7.4083337 c 0,0 0.0036,-0.1875234 -0.09405,-0.3829235 -0.0977,-0.1953948 -0.346922,-0.4108265 -0.699698,-0.4108265 z"
         sodipodi:nodetypes="ssssssccccscccccssc" />
      <path
         id="path2533-0"
         style="color:#000000;fill:url(#linearGradient32327);fill-opacity:1;stroke-width:0.529167;stroke-linecap:round;stroke-linejoin:round;-inkscape-stroke:none"
         d="m 15.875,6.8791671 c -0.293158,0 -0.529166,0.2360083 -0.529166,0.5291666 V 17.4625 c 0,0.293159 0.236008,0.529167 0.529166,0.529167 h 8.466667 c 0.293158,0 0.529166,-0.236008 0.529166,-0.529167 V 11.641667 L 20.372917,6.8791671 Z m 5.820833,0 3.175,3.4395829 V 7.4083337 c 0,0 -1e-6,-0.5291666 -0.529166,-0.5291666 z" />
      <path
         id="rect3682-3"
         d="m 17.197916,11.377084 v 0.79375 H 20.6375 v -0.79375 z m 0,1.5875 v 0.79375 h 5.820834 v -0.79375 z m 0,1.5875 v 0.79375 h 5.820834 v -0.79375 z"
         style="vector-effect:none;fill:#1467b4;fill-opacity:1;stroke:none;stroke-width:0.529167;stroke-linecap:round;stroke-linejoin:round;stroke-miterlimit:4;stroke-dasharray:none;stroke-dashoffset:0;stroke-opacity:1"
         inkscape:connector-curvature="0" />
      <path
         id="rect3682"
         d="m 17.197917,11.1125 v 0.79375 H 20.6375 V 11.1125 Z m 0,1.5875 v 0.79375 H 23.01875 V 12.7 Z m 0,1.5875 v 0.79375 H 23.01875 V 14.2875 Z"
         style="vector-effect:none;fill:#fcfcfc;fill-opacity:1;stroke:none;stroke-width:0.529167;stroke-linecap:round;stroke-linejoin:round;stroke-miterlimit:4;stroke-dasharray:none;stroke-dashoffset:0;stroke-opacity:1"
         inkscape:connector-curvature="0" />
    </g>
  </g>
</svg>
