<?xml version="1.0" encoding="UTF-8" standalone="no"?>
<!-- Created with Inkscape (http://www.inkscape.org/) -->

<svg
   width="48"
   height="48"
   viewBox="0 0 12.7 12.7"
   version="1.1"
   id="svg5"
   inkscape:version="1.2.2 (b0a8486541, 2022-12-01)"
   sodipodi:docname="libreoffice-main.svg"
   xmlns:inkscape="http://www.inkscape.org/namespaces/inkscape"
   xmlns:sodipodi="http://sodipodi.sourceforge.net/DTD/sodipodi-0.dtd"
   xmlns:xlink="http://www.w3.org/1999/xlink"
   xmlns="http://www.w3.org/2000/svg"
   xmlns:svg="http://www.w3.org/2000/svg">
  <sodipodi:namedview
     id="namedview7"
     pagecolor="#ffffff"
     bordercolor="#9c9c9c"
     borderopacity="0.24705882"
     inkscape:showpageshadow="false"
     inkscape:pageopacity="0.0"
     inkscape:pagecheckerboard="0"
     inkscape:deskcolor="#5e5e5e"
     inkscape:document-units="px"
     showgrid="true"
     inkscape:zoom="5.1754899"
     inkscape:cx="90.619441"
     inkscape:cy="49.850353"
     inkscape:window-width="2560"
     inkscape:window-height="1363"
     inkscape:window-x="0"
     inkscape:window-y="0"
     inkscape:window-maximized="1"
     inkscape:current-layer="layer1">
    <inkscape:grid
       type="xygrid"
       id="grid132"
       originx="0"
       originy="0" />
  </sodipodi:namedview>
  <defs
     id="defs2">
    <linearGradient
       inkscape:collect="always"
       xlink:href="#linearGradient38890"
       id="linearGradient38892"
       x1="21.001143"
       y1="18.358093"
       x2="21.001143"
       y2="7.5101767"
       gradientUnits="userSpaceOnUse" />
    <linearGradient
       inkscape:collect="always"
       id="linearGradient38890">
      <stop
         style="stop-color:#233a39;stop-opacity:1;"
         offset="0"
         id="stop38886" />
      <stop
         style="stop-color:#434d4d;stop-opacity:1;"
         offset="1"
         id="stop38888" />
    </linearGradient>
    <linearGradient
       inkscape:collect="always"
       xlink:href="#linearGradient38606"
       id="linearGradient38608"
       x1="-21.625601"
       y1="308.03491"
       x2="-21.625601"
       y2="273.03491"
       gradientUnits="userSpaceOnUse" />
    <linearGradient
       inkscape:collect="always"
       id="linearGradient38606">
      <stop
         style="stop-color:#e3e3e3;stop-opacity:1;"
         offset="0"
         id="stop38602" />
      <stop
         style="stop-color:#fcfcfc;stop-opacity:1;"
         offset="1"
         id="stop38604" />
    </linearGradient>
  </defs>
  <g
     inkscape:label="Capa 1"
     inkscape:groupmode="layer"
     id="layer1">
    <g
       id="g41262"
       transform="translate(-0.69469849,-14.185656)">
      <g
         id="g10774"
         transform="translate(-13.857393,7.571073)">
        <path
           id="path2529-2"
           style="color:#000000;fill:#232c2c;fill-opacity:1;stroke-width:0.264583;stroke-linecap:round;stroke-linejoin:round;-inkscape-stroke:none"
           d="m 16.66875,7.14375 c -0.43516,0 -0.79375,0.3585897 -0.79375,0.7937499 V 17.991666 c 0,0.435161 0.358591,0.79375 0.79375,0.79375 h 8.466666 c 0.435158,0 0.79375,-0.358589 0.79375,-0.79375 v -5.820833 c 2.5e-5,-0.06765 -0.02586,-0.132744 -0.07235,-0.181901 L 21.358902,7.2264322 C 21.308907,7.1736267 21.239384,7.1437261 21.166666,7.14375 Z m 5.820833,0 c -0.230406,2.645e-4 -0.350418,0.2744443 -0.194303,0.4438993 l 3.174999,3.4395837 c 0.16335,0.176649 0.458582,0.06128 0.458887,-0.179316 V 7.9374999 c 0,0 0.0036,-0.1875234 -0.09405,-0.3829235 C 25.737416,7.3591816 25.488193,7.14375 25.135416,7.14375 Z"
           sodipodi:nodetypes="ssssssccccscccccssc" />
        <path
           id="path2533-6"
           style="color:#000000;fill:url(#linearGradient38892);fill-opacity:1;stroke-width:0.529167;stroke-linecap:round;stroke-linejoin:round;-inkscape-stroke:none"
           d="m 16.66875,7.4083333 c -0.293158,0 -0.529167,0.2360083 -0.529167,0.5291666 V 17.991666 c 0,0.293159 0.236009,0.529167 0.529167,0.529167 h 8.466666 c 0.293158,0 0.529167,-0.236008 0.529167,-0.529167 V 12.170833 L 21.166666,7.4083333 Z m 5.820833,0 3.175,3.4395837 V 7.9374999 c 0,0 -1e-6,-0.5291666 -0.529167,-0.5291666 z" />
        <g
           id="g6888"
           transform="matrix(0.26458333,0,0,0.26458333,26.458333,-63.936559)">
          <path
             inkscape:connector-curvature="0"
             style="color:#000000;font-style:normal;font-variant:normal;font-weight:normal;font-stretch:normal;font-size:medium;line-height:normal;font-family:sans-serif;font-variant-ligatures:normal;font-variant-position:normal;font-variant-caps:normal;font-variant-numeric:normal;font-variant-alternates:normal;font-feature-settings:normal;text-indent:0;text-align:start;text-decoration:none;text-decoration-line:none;text-decoration-style:solid;text-decoration-color:#000000;letter-spacing:normal;word-spacing:normal;text-transform:none;writing-mode:lr-tb;direction:ltr;text-orientation:mixed;dominant-baseline:auto;baseline-shift:baseline;text-anchor:start;white-space:normal;shape-padding:0;clip-rule:nonzero;display:inline;overflow:visible;visibility:visible;opacity:1;isolation:auto;mix-blend-mode:normal;color-interpolation:sRGB;color-interpolation-filters:linearRGB;solid-color:#000000;solid-opacity:1;vector-effect:none;fill:#232c2c;fill-opacity:1;fill-rule:nonzero;stroke:none;stroke-width:2;stroke-linecap:round;stroke-linejoin:round;stroke-miterlimit:4;stroke-dasharray:none;stroke-dashoffset:0;stroke-opacity:1;color-rendering:auto;image-rendering:auto;shape-rendering:auto;text-rendering:auto;enable-background:accumulate"
             d="m -36,271.64999 c -0.552262,6e-5 -0.999945,0.44774 -1,1 v 36 c 5.5e-5,0.55226 0.447738,0.99994 1,1 h 30 c 0.5522619,-6e-5 0.9999448,-0.44774 1,-1 v -20 c -2.213e-4,-0.25032 -0.094306,-0.49146 -0.263672,-0.67578 l -15,-16 c -0.189233,-0.20639 -0.45632,-0.32399 -0.736328,-0.32422 z"
             id="path2248-1"
             sodipodi:nodetypes="ccccccccccc" />
          <path
             sodipodi:nodetypes="cccccc"
             inkscape:connector-curvature="0"
             id="rect2225-0-8"
             d="m -36,272.64999 h 15 l 15,16 v 20 h -30 z"
             style="opacity:1;vector-effect:none;fill:url(#linearGradient38608);fill-opacity:1;stroke:none;stroke-width:2;stroke-linecap:round;stroke-linejoin:round;stroke-miterlimit:4;stroke-dasharray:none;stroke-dashoffset:0;stroke-opacity:1" />
        </g>
      </g>
    </g>
  </g>
</svg>
