<?xml version="1.0" encoding="UTF-8" standalone="no"?>
<!-- Created with Inkscape (http://www.inkscape.org/) -->

<svg
   width="48"
   height="48"
   viewBox="0 0 12.7 12.7"
   version="1.1"
   id="svg5"
   inkscape:version="1.2.2 (b0a8486541, 2022-12-01)"
   sodipodi:docname="libreoffice-draw.svg"
   xmlns:inkscape="http://www.inkscape.org/namespaces/inkscape"
   xmlns:sodipodi="http://sodipodi.sourceforge.net/DTD/sodipodi-0.dtd"
   xmlns:xlink="http://www.w3.org/1999/xlink"
   xmlns="http://www.w3.org/2000/svg"
   xmlns:svg="http://www.w3.org/2000/svg">
  <sodipodi:namedview
     id="namedview7"
     pagecolor="#ffffff"
     bordercolor="#9c9c9c"
     borderopacity="0.24705882"
     inkscape:showpageshadow="false"
     inkscape:pageopacity="0.0"
     inkscape:pagecheckerboard="0"
     inkscape:deskcolor="#5e5e5e"
     inkscape:document-units="px"
     showgrid="true"
     inkscape:zoom="5.1754899"
     inkscape:cx="90.619441"
     inkscape:cy="49.850353"
     inkscape:window-width="2560"
     inkscape:window-height="1363"
     inkscape:window-x="0"
     inkscape:window-y="0"
     inkscape:window-maximized="1"
     inkscape:current-layer="layer1">
    <inkscape:grid
       type="xygrid"
       id="grid132"
       originx="0"
       originy="0" />
  </sodipodi:namedview>
  <defs
     id="defs2">
    <linearGradient
       inkscape:collect="always"
       xlink:href="#linearGradient54666"
       id="linearGradient54668"
       x1="22.225"
       y1="16.933332"
       x2="22.225"
       y2="6.3499999"
       gradientUnits="userSpaceOnUse"
       gradientTransform="translate(-3.9687501,0.79375)" />
    <linearGradient
       inkscape:collect="always"
       id="linearGradient54666">
      <stop
         style="stop-color:#ffbf01;stop-opacity:1;"
         offset="0"
         id="stop54662" />
      <stop
         style="stop-color:#ffd702;stop-opacity:1;"
         offset="1"
         id="stop54664" />
    </linearGradient>
  </defs>
  <g
     inkscape:label="Capa 1"
     inkscape:groupmode="layer"
     id="layer1">
    <g
       id="g57796"
       transform="translate(-11.906258,-6.085417)">
      <path
         id="path2529-0"
         style="color:#000000;fill:#e68900;fill-opacity:1;stroke-width:0.264583;stroke-linecap:round;stroke-linejoin:round;-inkscape-stroke:none"
         d="m 14.022917,6.614584 c -0.43516,0 -0.79375,0.3585897 -0.79375,0.7937499 V 17.4625 c 0,0.435161 0.358591,0.79375 0.79375,0.79375 h 8.466666 c 0.435158,0 0.79375,-0.358589 0.79375,-0.79375 v -5.820833 c 2.5e-5,-0.06765 -0.02586,-0.132744 -0.07235,-0.181901 L 18.713069,6.6972662 c -0.04999,-0.052806 -0.119518,-0.082706 -0.192236,-0.082682 z m 5.820833,0 c -0.230406,2.645e-4 -0.350418,0.2744443 -0.194303,0.4438993 l 3.174999,3.4395837 c 0.16335,0.176649 0.458582,0.06128 0.458887,-0.179316 V 7.4083339 c 0,0 0.0036,-0.1875234 -0.09405,-0.3829235 -0.0977,-0.1953948 -0.346923,-0.4108264 -0.6997,-0.4108264 z"
         sodipodi:nodetypes="ssssssccccscccccssc" />
      <path
         id="path2533-48"
         style="color:#000000;fill:url(#linearGradient54668);fill-opacity:1;stroke-width:0.529167;stroke-linecap:round;stroke-linejoin:round;-inkscape-stroke:none"
         d="m 14.022917,6.8791673 c -0.293158,0 -0.529167,0.2360083 -0.529167,0.5291666 V 17.4625 c 0,0.293159 0.236009,0.529167 0.529167,0.529167 h 8.466666 c 0.293158,0 0.529167,-0.236008 0.529167,-0.529167 V 11.641667 L 18.520833,6.8791673 Z m 5.820833,0 3.175,3.4395837 V 7.4083339 c 0,0 -1e-6,-0.5291666 -0.529167,-0.5291666 z" />
      <path
         id="rect3593-2"
         d="m 16.139583,11.377083 c -0.146579,0 -0.264583,0.118004 -0.264583,0.264583 v 1.5875 c 0,0.146579 0.118004,0.264584 0.264583,0.264584 h 1.5875 c 0.14658,0 0.264584,-0.118005 0.264584,-0.264584 v -1.5875 c 0,-0.146579 -0.118004,-0.264583 -0.264584,-0.264583 z m 2.645834,0 c -0.146579,0 -0.264584,0.118004 -0.264584,0.264583 v 1.5875 c 0,0.146579 0.118005,0.264584 0.264584,0.264584 h 1.5875 c 0.146579,0 0.264583,-0.118005 0.264583,-0.264584 v -1.5875 c 0,-0.146579 -0.118004,-0.264583 -0.264583,-0.264583 z m -2.645834,2.645833 c -0.146579,0 -0.264583,0.118004 -0.264583,0.264584 v 1.5875 c 0,0.146579 0.118004,0.264583 0.264583,0.264583 h 1.5875 c 0.14658,0 0.264584,-0.118004 0.264584,-0.264583 v -1.5875 c 0,-0.14658 -0.118004,-0.264584 -0.264584,-0.264584 z m 2.645834,0 c -0.146579,0 -0.264584,0.118004 -0.264584,0.264584 v 1.5875 c 0,0.146579 0.118005,0.264583 0.264584,0.264583 h 1.5875 c 0.146579,0 0.264583,-0.118004 0.264583,-0.264583 v -1.5875 c 0,-0.14658 -0.118004,-0.264584 -0.264583,-0.264584 z"
         style="vector-effect:none;fill:#e68900;fill-opacity:1;stroke:none;stroke-width:0.529167;stroke-linecap:round;stroke-linejoin:round;stroke-miterlimit:4;stroke-dasharray:none;stroke-dashoffset:0;stroke-opacity:1"
         inkscape:connector-curvature="0" />
      <path
         id="rect3593"
         d="m 16.139583,11.1125 c -0.146579,0 -0.264583,0.118004 -0.264583,0.264583 v 1.5875 c 0,0.146579 0.118004,0.264583 0.264583,0.264583 h 1.5875 c 0.14658,0 0.264584,-0.118004 0.264584,-0.264583 v -1.5875 c 0,-0.146579 -0.118004,-0.264583 -0.264584,-0.264583 z m 2.645834,0 c -0.146579,0 -0.264584,0.118004 -0.264584,0.264583 v 1.5875 c 0,0.146579 0.118005,0.264583 0.264584,0.264583 h 1.5875 c 0.146579,0 0.264583,-0.118004 0.264583,-0.264583 v -1.5875 c 0,-0.146579 -0.118004,-0.264583 -0.264583,-0.264583 z m -2.645834,2.645833 c -0.146579,0 -0.264583,0.118004 -0.264583,0.264583 v 1.5875 c 0,0.146579 0.118004,0.264584 0.264583,0.264584 h 1.5875 c 0.14658,0 0.264584,-0.118005 0.264584,-0.264584 v -1.5875 c 0,-0.146579 -0.118004,-0.264583 -0.264584,-0.264583 z m 2.645834,0 c -0.146579,0 -0.264584,0.118004 -0.264584,0.264583 v 1.5875 c 0,0.146579 0.118005,0.264584 0.264584,0.264584 h 1.5875 c 0.146579,0 0.264583,-0.118005 0.264583,-0.264584 v -1.5875 c 0,-0.146579 -0.118004,-0.264583 -0.264583,-0.264583 z"
         style="vector-effect:none;fill:#f9f7ed;fill-opacity:1;stroke:none;stroke-width:0.529167;stroke-linecap:round;stroke-linejoin:round;stroke-miterlimit:4;stroke-dasharray:none;stroke-dashoffset:0;stroke-opacity:1"
         inkscape:connector-curvature="0" />
    </g>
  </g>
</svg>
