<?xml version="1.0" encoding="UTF-8" standalone="no"?>
<!-- Created with Inkscape (http://www.inkscape.org/) -->

<svg
   width="48"
   height="48"
   viewBox="0 0 12.7 12.7"
   version="1.1"
   id="svg5"
   inkscape:version="1.2.2 (b0a8486541, 2022-12-01)"
   sodipodi:docname="thunderbird.svg"
   xml:space="preserve"
   xmlns:inkscape="http://www.inkscape.org/namespaces/inkscape"
   xmlns:sodipodi="http://sodipodi.sourceforge.net/DTD/sodipodi-0.dtd"
   xmlns:xlink="http://www.w3.org/1999/xlink"
   xmlns="http://www.w3.org/2000/svg"
   xmlns:svg="http://www.w3.org/2000/svg"><sodipodi:namedview
     id="namedview7"
     pagecolor="#ffffff"
     bordercolor="#9c9c9c"
     borderopacity="0.24705882"
     inkscape:showpageshadow="false"
     inkscape:pageopacity="0.0"
     inkscape:pagecheckerboard="0"
     inkscape:deskcolor="#5e5e5e"
     inkscape:document-units="px"
     showgrid="true"
     inkscape:zoom="14.638496"
     inkscape:cx="56.221623"
     inkscape:cy="25.070882"
     inkscape:window-width="2560"
     inkscape:window-height="1369"
     inkscape:window-x="0"
     inkscape:window-y="0"
     inkscape:window-maximized="1"
     inkscape:current-layer="g80990"><inkscape:grid
       type="xygrid"
       id="grid132"
       originx="0"
       originy="0" /></sodipodi:namedview><defs
     id="defs2"><linearGradient
       inkscape:collect="always"
       id="linearGradient95816"><stop
         style="stop-color:#1f7ddc;stop-opacity:1;"
         offset="0"
         id="stop95812" /><stop
         style="stop-color:#7986cb;stop-opacity:1;"
         offset="1"
         id="stop95814" /></linearGradient><linearGradient
       inkscape:collect="always"
       id="linearGradient94704"><stop
         style="stop-color:#0d55a5;stop-opacity:1;"
         offset="0"
         id="stop94700" /><stop
         style="stop-color:#485599;stop-opacity:1;"
         offset="1"
         id="stop94702" /></linearGradient><linearGradient
       inkscape:collect="always"
       id="linearGradient93923"><stop
         style="stop-color:#2f5097;stop-opacity:1;"
         offset="0"
         id="stop93919" /><stop
         style="stop-color:#4a5599;stop-opacity:1;"
         offset="1"
         id="stop93921" /></linearGradient><linearGradient
       inkscape:collect="always"
       id="linearGradient93639"><stop
         style="stop-color:#e4e4e4;stop-opacity:1;"
         offset="0"
         id="stop93635" /><stop
         style="stop-color:#f3f3f3;stop-opacity:1;"
         offset="1"
         id="stop93637" /></linearGradient><linearGradient
       inkscape:collect="always"
       id="linearGradient91906"><stop
         style="stop-color:#0e55a5;stop-opacity:1;"
         offset="0"
         id="stop91902" /><stop
         style="stop-color:#495599;stop-opacity:1;"
         offset="1"
         id="stop91904" /></linearGradient><linearGradient
       inkscape:collect="always"
       id="linearGradient89276"><stop
         style="stop-color:#0d55a5;stop-opacity:1;"
         offset="0"
         id="stop89272" /><stop
         style="stop-color:#495599;stop-opacity:1;"
         offset="1"
         id="stop89274" /></linearGradient><linearGradient
       inkscape:collect="always"
       id="linearGradient86922"><stop
         style="stop-color:#2672d0;stop-opacity:1;"
         offset="0"
         id="stop86918" /><stop
         style="stop-color:#6673be;stop-opacity:1;"
         offset="1"
         id="stop86920" /></linearGradient><linearGradient
       inkscape:collect="always"
       id="linearGradient86017"><stop
         style="stop-color:#0d55a5;stop-opacity:1;"
         offset="0"
         id="stop86013" /><stop
         style="stop-color:#4a5599;stop-opacity:1;"
         offset="1"
         id="stop86015" /></linearGradient><linearGradient
       inkscape:collect="always"
       id="linearGradient84606"><stop
         style="stop-color:#0e6fd2;stop-opacity:1;"
         offset="0"
         id="stop84602" /><stop
         style="stop-color:#7986cb;stop-opacity:1;"
         offset="1"
         id="stop84604" /></linearGradient><style
       id="current-color-scheme"
       type="text/css">
      .ColorScheme-Text {
        color:#122036;
      }
      </style><style
       type="text/css"
       id="current-color-scheme-23">
      .ColorScheme-Text {
        color:#122036;
      }
      </style><style
       id="current-color-scheme-5"
       type="text/css">
      .ColorScheme-Text {
        color:#122036;
      }
      </style><style
       id="current-color-scheme-2"
       type="text/css">
      .ColorScheme-Text {
        color:#122036;
      }
      </style><style
       id="current-color-scheme-1"
       type="text/css">
      .ColorScheme-Text {
        color:#122036;
      }
      </style><style
       type="text/css"
       id="current-color-scheme-10">
      .ColorScheme-Text {
        color:#122036;
      }
      </style><style
       id="current-color-scheme-0"
       type="text/css">
      .ColorScheme-Text {
        color:#122036;
      }
      </style><style
       id="current-color-scheme-26"
       type="text/css">
      .ColorScheme-Text {
        color:#122036;
      }
      </style><style
       type="text/css"
       id="current-color-scheme-9">
      .ColorScheme-Text {
        color:#122036;
      }
      </style><linearGradient
       inkscape:collect="always"
       xlink:href="#linearGradient84606"
       id="linearGradient84608"
       x1="15.875001"
       y1="15.578401"
       x2="16.139585"
       y2="4.730484"
       gradientUnits="userSpaceOnUse" /><linearGradient
       inkscape:collect="always"
       xlink:href="#linearGradient86017"
       id="linearGradient86019"
       x1="16.139585"
       y1="15.049234"
       x2="16.139585"
       y2="3.936734"
       gradientUnits="userSpaceOnUse" /><linearGradient
       inkscape:collect="always"
       xlink:href="#linearGradient86922"
       id="linearGradient86924"
       x1="10.847918"
       y1="12.932568"
       x2="10.847918"
       y2="6.3179841"
       gradientUnits="userSpaceOnUse" /><linearGradient
       inkscape:collect="always"
       xlink:href="#linearGradient89276"
       id="linearGradient89278"
       x1="8.9958344"
       y1="13.19715"
       x2="8.9958344"
       y2="5.5242338"
       gradientUnits="userSpaceOnUse" /><linearGradient
       inkscape:collect="always"
       xlink:href="#linearGradient91906"
       id="linearGradient91908"
       x1="8.9958344"
       y1="13.19715"
       x2="8.9958344"
       y2="5.5242338"
       gradientUnits="userSpaceOnUse" /><linearGradient
       inkscape:collect="always"
       xlink:href="#linearGradient93639"
       id="linearGradient93641"
       x1="14.022918"
       y1="10.815901"
       x2="14.022918"
       y2="7.6409006"
       gradientUnits="userSpaceOnUse" /><linearGradient
       inkscape:collect="always"
       xlink:href="#linearGradient93923"
       id="linearGradient93925"
       x1="11.641668"
       y1="9.7575674"
       x2="11.641668"
       y2="3.6721506"
       gradientUnits="userSpaceOnUse" /><linearGradient
       inkscape:collect="always"
       xlink:href="#linearGradient94704"
       id="linearGradient94706"
       x1="11.641668"
       y1="9.7575674"
       x2="11.641668"
       y2="3.6721506"
       gradientUnits="userSpaceOnUse" /><linearGradient
       inkscape:collect="always"
       xlink:href="#linearGradient95816"
       id="linearGradient95818"
       x1="10.054168"
       y1="8.9638176"
       x2="10.318751"
       y2="3.936734"
       gradientUnits="userSpaceOnUse" /></defs><g
     inkscape:label="Capa 1"
     inkscape:groupmode="layer"
     id="layer1"><g
       id="g80990"
       transform="translate(-7.4083347,-2.6138173)"><path
         style="fill:url(#linearGradient93925);fill-opacity:1;stroke:url(#linearGradient94706);stroke-width:0.529167;stroke-linecap:round;stroke-linejoin:round;stroke-dasharray:none;stroke-opacity:1"
         d="m 11.650465,3.672127 c 0.03295,3.7307389 -2.3812503,1.3229169 -2.9898365,6.50955 l 2.5055465,2.156515 2.830188,-2.905401 c 0.01273,-1.9315051 0.03257,-4.1441261 -2.345898,-5.760664 z"
         id="path11309-8"
         sodipodi:nodetypes="ccccc" /><path
         style="fill:url(#linearGradient95818);fill-opacity:1;stroke:none;stroke-width:0.529167;stroke-linecap:round;stroke-linejoin:round;stroke-dasharray:none;stroke-opacity:1"
         d="m 11.650465,3.672127 c 0.03295,3.7307389 -2.3812503,1.3229169 -2.9898365,6.50955 l 2.5055465,2.156515 2.830188,-2.905401 c 0.01273,-1.9315051 0.03257,-4.1441261 -2.345898,-5.760664 z"
         id="path11309-2-8"
         sodipodi:nodetypes="ccccc" /><path
         id="circle15091-1-7-5-1-6-2"
         style="fill:#7f9099;fill-opacity:1;stroke-width:0.529167"
         d="M 10.31875,9.7895833 A 3.7041668,3.7041668 0 0 0 14.022914,13.493748 3.7041668,3.7041668 0 0 0 17.727083,9.7895833 3.7041668,3.7041668 0 0 0 14.022914,6.0854135 3.7041668,3.7041668 0 0 0 10.31875,9.7895833 Z" /><path
         id="circle15091-1-7-5-1-6-2-9-9"
         style="fill:url(#linearGradient93641);fill-opacity:1;stroke-width:0.49137"
         d="m 14.022916,6.35 a 3.4395835,3.4395835 0 0 0 -2.827217,1.4825969 l 2.827217,2.2215701 2.828252,-2.2220869 A 3.4395835,3.4395835 0 0 0 14.022916,6.35 Z m 2.970879,1.7068726 -2.808614,2.2055504 a 0.26461005,0.26461005 0 0 1 -0.04238,0.02687 0.26461005,0.26461005 0 0 1 -0.0465,0.0186 0.26461005,0.26461005 0 0 1 -0.0491,0.0093 0.26461005,0.26461005 0 0 1 -0.05013,0 0.26461005,0.26461005 0 0 1 -0.0491,-0.0093 0.26461005,0.26461005 0 0 1 -0.0465,-0.0186 0.26461005,0.26461005 0 0 1 -0.04187,-0.02687 L 11.054105,8.0579062 a 3.4395835,3.4395835 0 0 0 -0.470772,1.7316771 3.4395835,3.4395835 0 0 0 3.439583,3.4395837 3.4395835,3.4395835 0 0 0 3.439585,-3.4395837 3.4395835,3.4395835 0 0 0 -0.468706,-1.7327107 z" /><path
         id="ellipse841-5"
         style="fill:url(#linearGradient89278);fill-opacity:1;stroke:url(#linearGradient91908);stroke-width:0.52916667;stroke-linecap:round;stroke-linejoin:round;stroke-dasharray:none;stroke-opacity:1"
         d="m 18.767848,9.2097729 c 0.0049,0.05152 0.0086,0.1056494 0.01137,0.163815 0.003,0.06791 0.0062,0.1357163 0.0062,0.213423 0,2.8883581 -2.369169,5.2296561 -5.291667,5.2296561 -2.922498,0 -5.2916661,-2.341298 -5.2916661,-5.2296561 0,-1.344726 0.5132182,-2.57091 1.3570221,-3.497461 -0.018811,-7.14e-4 0.079336,-0.07611 0.1297048,-0.05736 -0.2460025,0.407756 -0.4174183,0.865372 -0.4997112,1.3528889 -5.61e-5,3.441e-4 5.76e-5,6.88e-4 0,0.001 -0.012581,0.075081 -0.022919,0.1510317 -0.031513,0.227376 -0.00394,0.037011 -0.00834,0.073789 -0.011368,0.1111047 -0.00227,0.02711 -0.00394,0.05438 -0.00576,0.08165 -0.0044,0.07556 -0.00773,0.1517481 -0.00773,0.22841 v 5.29e-4 c 2.88e-4,2.1438395 1.7385444,3.8819365 3.8824474,3.8819365 1.377127,0.06685 2.942254,-0.693905 3.22461,-1.517737 0.164297,-0.0806 2.545548,-1.1389319 2.527978,-1.1895755 z"
         sodipodi:nodetypes="ccsssccsccccssccc" /><path
         id="ellipse841-7-0"
         style="fill:url(#linearGradient86924);fill-opacity:1;stroke:none;stroke-width:0.529167;stroke-linecap:round;stroke-linejoin:round;stroke-dasharray:none;stroke-opacity:1"
         d="m 18.767848,9.209774 c 0.0049,0.05152 0.0086,0.1056494 0.01137,0.1638139 0.003,0.06791 0.0062,0.1357163 0.0062,0.2134241 0,2.888357 -2.369167,5.229655 -5.291666,5.229655 -2.922498,0 -5.2916671,-2.341298 -5.2916671,-5.229655 0,-1.3447271 0.5132197,-2.5709111 1.3570237,-3.4974611 -0.018811,-7.15e-4 0.079336,-0.07611 0.1297047,-0.05736 C 9.4428108,6.439946 9.2713935,6.897562 9.1891021,7.385079 c -5.6e-5,3.441e-4 5.76e-5,6.88e-4 0,9.999e-4 -0.012581,0.075081 -0.022919,0.1510317 -0.031513,0.2273771 -0.00394,0.037011 -0.00834,0.073789 -0.011368,0.1111047 -0.00227,0.02711 -0.00394,0.05438 -0.00576,0.08165 -0.0044,0.07556 -0.00773,0.1517481 -0.00773,0.22841 v 5.29e-4 c 2.91e-4,2.1438373 1.7385489,3.8819343 3.8824519,3.8819343 1.377126,0.06684 2.942254,-0.693905 3.224608,-1.517737 -0.100192,-0.0806 2.545644,-1.1389297 2.528074,-1.1895723 z"
         sodipodi:nodetypes="ccsssccsccccssccc" /><path
         id="path78132"
         style="fill:#4e8fe4;fill-opacity:1;stroke:url(#linearGradient86019);stroke-width:0.529167;stroke-linecap:round;stroke-linejoin:round;stroke-dasharray:none;stroke-opacity:1;paint-order:stroke fill markers;stop-color:#000000"
         d="m 13.493744,6.0534006 c -0.780851,0.3512734 -1.222183,1.0067799 -0.887284,1.6474447 0.01535,-0.019208 0.03103,-0.038158 0.04702,-0.056845 0.04582,-0.050251 0.09393,-0.09836 0.14418,-0.1441773 0.05034,-0.045802 0.102754,-0.089258 0.157096,-0.1302247 0.05434,-0.041161 0.110561,-0.079787 0.168465,-0.1157551 0.05804,-0.035813 0.1177,-0.068921 0.178801,-0.099218 0.06087,-0.030417 0.123126,-0.058007 0.186552,-0.082682 0.06357,-0.024506 0.128234,-0.04606 0.193787,-0.064596 0.06556,-0.018733 0.131948,-0.034426 0.198955,-0.047025 0.06689,-0.012399 0.134312,-0.021717 0.202054,-0.027905 0.06785,-0.00641 0.135965,-0.00969 0.204123,-0.00982 0.02309,-1.7e-5 0.04617,3.276e-4 0.06924,0.00103 0.02327,8.384e-4 0.04653,0.00205 0.06977,0.00362 0.02312,0.00136 0.0462,0.00308 0.06924,0.00517 0.02295,0.00223 0.04587,0.00481 0.06873,0.00775 0.02296,0.00291 0.04587,0.00618 0.06872,0.00982 0.02298,0.00361 0.04588,0.00756 0.06873,0.011884 0.02263,0.0043 0.0452,0.00894 0.06769,0.013945 0.02265,0.00515 0.04522,0.010671 0.06769,0.016537 0.0225,0.00567 0.04488,0.011702 0.06718,0.018086 0.02216,0.00655 0.0442,0.01343 0.06615,0.020671 0.02199,0.00706 0.04387,0.014476 0.06563,0.022221 0.02183,0.00793 0.04353,0.016195 0.06512,0.024804 0.02149,0.00844 0.04285,0.017236 0.06409,0.026355 0.02134,0.00931 0.04253,0.018958 0.06356,0.028939 0.02101,0.00984 0.04185,0.019999 0.06253,0.03049 0.02049,0.010535 0.04082,0.021388 0.06098,0.032556 0.02033,0.01105 0.04049,0.022421 0.06046,0.034106 0.01999,0.011747 0.0398,0.023805 0.05943,0.036174 0.01949,0.012444 0.03879,0.025192 0.05787,0.03824 0.01916,0.01296 0.03811,0.02623 0.05684,0.03979 0.01882,0.013657 0.03742,0.027613 0.05581,0.041858 0.01814,0.014188 0.03606,0.02866 0.05375,0.043409 0.01798,0.01487 0.03573,0.030037 0.05323,0.045475 0.0173,0.015235 0.03435,0.03074 0.05116,0.046508 0.01696,0.015928 0.03368,0.032121 0.05013,0.048576 0.01628,0.016285 0.0323,0.032824 0.04806,0.04961 0.01595,0.016805 0.03162,0.033861 0.04702,0.05116 0.01526,0.017506 0.03025,0.035249 0.04496,0.053226 0.0147,0.017859 0.02922,0.035948 0.04341,0.05426 0.01425,0.018212 0.02819,0.036645 0.04187,0.055294 0.01349,0.018739 0.02683,0.03769 0.03979,0.056845 0.01304,0.019091 0.0258,0.038385 0.03824,0.057878 0.01243,0.019619 0.02444,0.03943 0.03617,0.059427 0.01182,0.01997 0.0234,0.040127 0.03462,0.060461 0.01106,0.02033 0.02168,0.04083 0.03204,0.061495 0.01061,0.020507 0.02099,0.04118 0.03101,0.062012 0.0099,0.021037 0.01928,0.042226 0.02842,0.063562 0.0091,0.021221 0.0179,0.042583 0.02636,0.064079 0.0086,0.021572 0.01689,0.04328 0.0248,0.065112 0.0077,0.021759 0.01516,0.043638 0.02222,0.065628 0.0073,0.021939 0.0141,0.043991 0.02067,0.066145 0.0064,0.022297 0.01243,0.044693 0.01808,0.067179 0.0059,0.022477 0.01137,0.045046 0.01654,0.067696 0.005,0.022491 0.0097,0.045059 0.01394,0.067696 0.0044,0.022846 0.0083,0.045758 0.01182,0.06873 0.0036,0.022856 0.007,0.04577 0.0099,0.06873 0.0029,0.022868 0.0056,0.045781 0.0077,0.06873 0.0021,0.023053 0.0038,0.046139 0.0052,0.069247 0.0015,0.023234 0.0027,0.046492 0.0036,0.069764 7.04e-4,0.023075 0.001,0.04616 0.001,0.069247 -0.204537,2.8791918 -4.333941,4.7801768 -6.5204944,4.2596968 1.0534214,0.898934 2.3927124,1.393061 3.7775514,1.393714 3.216125,-1.36e-4 5.823288,-2.607296 5.823424,-5.8234177 V 8.6992339 C 19.520435,7.88945 19.406373,7.0826776 18.520831,6.3179839 h 1.058335 L 17.991668,5.524234 c 0,0 0.641004,-0.3569978 1.322917,-0.5291668 C 16.778215,3.7510317 14.60233,3.872452 13.493744,6.0534006 Z"
         sodipodi:nodetypes="ccccccccccccccccccccccccccccccccccccccccccccccccccccccccccccccccccccccc" /><path
         id="path78132-9"
         style="fill:url(#linearGradient84608);fill-opacity:1;stroke:none;stroke-width:0.529167;stroke-linecap:round;stroke-linejoin:round;stroke-dasharray:none;stroke-opacity:1;paint-order:stroke fill markers;stop-color:#000000"
         d="m 13.493744,6.0534006 c -0.780851,0.3512734 -1.222183,1.0067799 -0.887284,1.6474447 0.01535,-0.019208 0.03103,-0.038158 0.04702,-0.056845 0.04582,-0.050251 0.09393,-0.09836 0.14418,-0.1441773 0.05034,-0.045802 0.102754,-0.089258 0.157096,-0.1302247 0.05434,-0.041161 0.110561,-0.079787 0.168465,-0.1157551 0.05804,-0.035813 0.1177,-0.068921 0.178801,-0.099218 0.06087,-0.030417 0.123126,-0.058007 0.186552,-0.082682 0.06357,-0.024506 0.128234,-0.04606 0.193787,-0.064596 0.06556,-0.018733 0.131948,-0.034426 0.198955,-0.047025 0.06689,-0.012399 0.134312,-0.021717 0.202054,-0.027905 0.06785,-0.00641 0.135965,-0.00969 0.204123,-0.00982 0.02309,-1.7e-5 0.04617,3.276e-4 0.06924,0.00103 0.02327,8.384e-4 0.04653,0.00205 0.06977,0.00362 0.02312,0.00136 0.0462,0.00308 0.06924,0.00517 0.02295,0.00223 0.04587,0.00481 0.06873,0.00775 0.02296,0.00291 0.04587,0.00618 0.06872,0.00982 0.02298,0.00361 0.04588,0.00756 0.06873,0.011884 0.02263,0.0043 0.0452,0.00894 0.06769,0.013945 0.02265,0.00515 0.04522,0.010671 0.06769,0.016537 0.0225,0.00567 0.04488,0.011702 0.06718,0.018086 0.02216,0.00655 0.0442,0.01343 0.06615,0.020671 0.02199,0.00706 0.04387,0.014476 0.06563,0.022221 0.02183,0.00793 0.04353,0.016195 0.06512,0.024804 0.02149,0.00844 0.04285,0.017236 0.06409,0.026355 0.02134,0.00931 0.04253,0.018958 0.06356,0.028939 0.02101,0.00984 0.04185,0.019999 0.06253,0.03049 0.02049,0.010535 0.04082,0.021388 0.06098,0.032556 0.02033,0.01105 0.04049,0.022421 0.06046,0.034106 0.01999,0.011747 0.0398,0.023805 0.05943,0.036174 0.01949,0.012444 0.03879,0.025192 0.05787,0.03824 0.01916,0.01296 0.03811,0.02623 0.05684,0.03979 0.01882,0.013657 0.03742,0.027613 0.05581,0.041858 0.01814,0.014188 0.03606,0.02866 0.05375,0.043409 0.01798,0.01487 0.03573,0.030037 0.05323,0.045475 0.0173,0.015235 0.03435,0.03074 0.05116,0.046508 0.01696,0.015928 0.03368,0.032121 0.05013,0.048576 0.01628,0.016285 0.0323,0.032824 0.04806,0.04961 0.01595,0.016805 0.03162,0.033861 0.04702,0.05116 0.01526,0.017506 0.03025,0.035249 0.04496,0.053226 0.0147,0.017859 0.02922,0.035948 0.04341,0.05426 0.01425,0.018212 0.02819,0.036645 0.04187,0.055294 0.01349,0.018739 0.02683,0.03769 0.03979,0.056845 0.01304,0.019091 0.0258,0.038385 0.03824,0.057878 0.01243,0.019619 0.02444,0.03943 0.03617,0.059427 0.01182,0.01997 0.0234,0.040127 0.03462,0.060461 0.01106,0.02033 0.02168,0.04083 0.03204,0.061495 0.01061,0.020507 0.02099,0.04118 0.03101,0.062012 0.0099,0.021037 0.01928,0.042226 0.02842,0.063562 0.0091,0.021221 0.0179,0.042583 0.02636,0.064079 0.0086,0.021572 0.01689,0.04328 0.0248,0.065112 0.0077,0.021759 0.01516,0.043638 0.02222,0.065628 0.0073,0.021939 0.0141,0.043991 0.02067,0.066145 0.0064,0.022297 0.01243,0.044693 0.01808,0.067179 0.0059,0.022477 0.01137,0.045046 0.01654,0.067696 0.005,0.022491 0.0097,0.045059 0.01394,0.067696 0.0044,0.022846 0.0083,0.045758 0.01182,0.06873 0.0036,0.022856 0.007,0.04577 0.0099,0.06873 0.0029,0.022868 0.0056,0.045781 0.0077,0.06873 0.0021,0.023053 0.0038,0.046139 0.0052,0.069247 0.0015,0.023234 0.0027,0.046492 0.0036,0.069764 7.04e-4,0.023075 0.001,0.04616 0.001,0.069247 -0.204537,2.8791918 -4.333941,4.7801768 -6.5204936,4.2596968 1.0534206,0.898934 2.3927116,1.393061 3.7775506,1.393714 3.216125,-1.36e-4 5.823288,-2.607296 5.823424,-5.8234177 V 8.6992339 C 19.520434,7.88945 19.406373,7.0826776 18.520831,6.3179839 h 1.058335 L 17.991668,5.524234 c 0,0 0.641004,-0.3569978 1.322917,-0.5291668 C 16.778215,3.7510317 14.60233,3.872452 13.493744,6.0534006 Z"
         sodipodi:nodetypes="ccccccccccccccccccccccccccccccccccccccccccccccccccccccccccccccccccccccc" /></g></g></svg>
