<?xml version="1.0" encoding="UTF-8" standalone="no"?>
<!-- Created with Inkscape (http://www.inkscape.org/) -->

<svg
   width="128"
   height="128"
   viewBox="0 0 33.866665 33.866665"
   version="1.1"
   id="svg1399"
   inkscape:version="1.2.2 (b0a8486541, 2022-12-01)"
   sodipodi:docname="application-wps-office.xlsx.svg"
   xmlns:inkscape="http://www.inkscape.org/namespaces/inkscape"
   xmlns:sodipodi="http://sodipodi.sourceforge.net/DTD/sodipodi-0.dtd"
   xmlns:xlink="http://www.w3.org/1999/xlink"
   xmlns="http://www.w3.org/2000/svg"
   xmlns:svg="http://www.w3.org/2000/svg"
   xmlns:rdf="http://www.w3.org/1999/02/22-rdf-syntax-ns#"
   xmlns:cc="http://creativecommons.org/ns#"
   xmlns:dc="http://purl.org/dc/elements/1.1/">
  <defs
     id="defs1393">
    <linearGradient
       inkscape:collect="always"
       xlink:href="#linearGradient961"
       id="linearGradient951"
       x1="176"
       y1="282.64999"
       x2="176"
       y2="170.64999"
       gradientUnits="userSpaceOnUse"
       gradientTransform="matrix(0.26458332,0,0,0.26458332,-43.225796,230.55095)" />
    <linearGradient
       inkscape:collect="always"
       id="linearGradient961">
      <stop
         style="stop-color:#29b672;stop-opacity:1"
         offset="0"
         id="stop957" />
      <stop
         style="stop-color:#56d38c;stop-opacity:1"
         offset="1"
         id="stop959" />
    </linearGradient>
  </defs>
  <sodipodi:namedview
     id="base"
     pagecolor="#ffffff"
     bordercolor="#666666"
     borderopacity="1.0"
     inkscape:pageopacity="0.0"
     inkscape:pageshadow="2"
     inkscape:zoom="7.9195959"
     inkscape:cx="72.478446"
     inkscape:cy="59.472731"
     inkscape:document-units="px"
     inkscape:current-layer="layer1"
     showgrid="false"
     inkscape:showpageshadow="false"
     units="px"
     inkscape:window-width="2560"
     inkscape:window-height="1353"
     inkscape:window-x="0"
     inkscape:window-y="0"
     inkscape:window-maximized="1"
     inkscape:pagecheckerboard="0"
     inkscape:deskcolor="#d1d1d1" />
  <metadata
     id="metadata1396">
    <rdf:RDF>
      <cc:Work
         rdf:about="">
        <dc:format>image/svg+xml</dc:format>
        <dc:type
           rdf:resource="http://purl.org/dc/dcmitype/StillImage" />
      </cc:Work>
    </rdf:RDF>
  </metadata>
  <g
     inkscape:label="Capa 1"
     inkscape:groupmode="layer"
     id="layer1"
     transform="translate(0,-263.13338)">
    <g
       id="g1568"
       transform="translate(13.592464,-10.452047)">
      <path
         id="rect928"
         d="m -9.094547,273.85001 h 24.870832 c 1.172633,0 2.116666,0.94403 2.116666,2.11667 v 29.10416 c 0,1.17264 -0.944033,2.11667 -2.116666,2.11667 H -9.094547 c -1.172633,0 -2.116667,-0.94403 -2.116667,-2.11667 v -29.10416 c 0,-1.17264 0.944034,-2.11667 2.116667,-2.11667 z"
         style="opacity:1;vector-effect:none;fill:#278c5a;fill-opacity:1;stroke:none;stroke-width:0.60079932;stroke-linecap:round;stroke-linejoin:round;stroke-miterlimit:4;stroke-dasharray:none;stroke-dashoffset:0;stroke-opacity:1"
         inkscape:connector-curvature="0" />
      <path
         id="rect928-2"
         d="m -9.094547,274.11459 h 24.870832 c 1.026054,0 1.852083,0.82603 1.852083,1.85209 v 29.10416 c 0,1.02606 -0.826029,1.85209 -1.852083,1.85209 H -9.094547 c -1.026054,0 -1.852083,-0.82603 -1.852083,-1.85209 v -29.10416 c 0,-1.02606 0.826029,-1.85209 1.852083,-1.85209 z"
         style="opacity:1;vector-effect:none;fill:url(#linearGradient951);fill-opacity:1;stroke:none;stroke-width:0.60079932;stroke-linecap:round;stroke-linejoin:round;stroke-miterlimit:4;stroke-dasharray:none;stroke-dashoffset:0;stroke-opacity:1"
         inkscape:connector-curvature="0" />
    </g>
    <path
       id="path1726"
       style="fill:#278c5a;fill-opacity:1;stroke-width:3.175;stroke-linecap:round;stroke-linejoin:round;paint-order:stroke markers fill;stop-color:#000000"
       d="m 14.2875,271.86463 c -2.784994,0 -5.0270838,2.24209 -5.0270838,5.02707 0,2.78501 2.2420898,5.0271 5.0270838,5.0271 h 0.529167 4.7625 c 0.01626,0 0.03221,1e-4 0.04806,5.1e-4 0.01626,4e-4 0.03168,10e-4 0.04753,0.002 0.01626,7.9e-4 0.03189,10e-4 0.04753,0.002 0.01626,10e-4 0.03085,0.002 0.0465,0.004 0.01626,0.002 0.03158,0.004 0.04703,0.006 0.01626,0.002 0.03075,0.004 0.04599,0.006 0.01626,0.002 0.03075,0.004 0.04599,0.008 0.01626,0.002 0.03044,0.006 0.04548,0.008 0.01423,0.004 0.03012,0.006 0.04495,0.0102 0.01423,0.004 0.02961,0.006 0.04445,0.0102 0.01423,0.004 0.02929,0.008 0.04392,0.0122 0.01423,0.004 0.02949,0.008 0.04392,0.0142 0.01423,0.004 0.02898,0.008 0.04341,0.0142 0.01423,0.004 0.02867,0.0102 0.0429,0.0142 0.01423,0.006 0.02886,0.0102 0.04288,0.0163 0.01423,0.006 0.02804,0.0122 0.04186,0.0163 0.01423,0.006 0.02721,0.0122 0.04083,0.0183 0.01423,0.006 0.02689,0.0122 0.0403,0.0183 0.01423,0.006 0.02709,0.0142 0.0403,0.0203 0.01423,0.006 0.02658,0.0142 0.03979,0.0207 0.01423,0.008 0.02648,0.0142 0.03928,0.0221 0.01219,0.008 0.02544,0.0142 0.03825,0.0228 0.01219,0.008 0.02512,0.0163 0.03772,0.0238 0.01219,0.008 0.02532,0.0163 0.03772,0.0244 0.01219,0.008 0.02418,0.0163 0.03617,0.0254 0.01219,0.008 0.02439,0.0183 0.03617,0.0264 0.01219,0.008 0.02355,0.0183 0.03514,0.0268 0.01219,0.0102 0.02325,0.0183 0.03463,0.0278 0.01219,0.0102 0.02292,0.0183 0.0341,0.0289 0.01016,0.0102 0.02209,0.0203 0.03307,0.0295 0.01016,0.0102 0.02199,0.0205 0.03256,0.0301 0.01016,0.0102 0.02199,0.0205 0.03256,0.0311 0.01016,0.0102 0.02065,0.0213 0.03101,0.0321 0.01016,0.0102 0.02042,0.0215 0.02998,0.0325 0.01016,0.0102 0.02032,0.022 0.02945,0.0331 0.01016,0.0102 0.01992,0.0228 0.02841,0.0341 0.01016,0.0122 0.01829,0.023 0.02739,0.0345 0.0081,0.0122 0.0187,0.0232 0.0279,0.0351 0.0081,0.0122 0.01829,0.024 0.02583,0.0362 0.0081,0.0122 0.01788,0.0238 0.02532,0.0362 0.0081,0.0122 0.01666,0.0246 0.02481,0.0372 0.0081,0.0122 0.01626,0.0256 0.02378,0.0382 0.0081,0.0122 0.01423,0.0254 0.02221,0.0382 0.0081,0.0122 0.01382,0.0262 0.0217,0.0392 0.0061,0.0122 0.01463,0.0264 0.0212,0.0398 0.0061,0.0142 0.01402,0.0262 0.02012,0.0398 0.0061,0.0142 0.01199,0.0272 0.01809,0.0408 0.0061,0.0142 0.0126,0.0274 0.0187,0.0413 0.0061,0.0142 0.01199,0.0278 0.01605,0.0419 0.0061,0.0142 0.01036,0.0278 0.01646,0.0419 0.0041,0.0142 0.01,0.0285 0.01402,0.0429 0.0041,0.0142 0.01037,0.0293 0.01443,0.0439 0.0041,0.0142 0.0077,0.0293 0.01179,0.0439 0.0041,0.0142 0.0083,0.0286 0.0124,0.0435 0.0041,0.0142 0.0077,0.0301 0.0097,0.0449 0.0041,0.0142 0.0063,0.0299 0.01036,0.0449 0.0041,0.0142 0.0063,0.0303 0.0083,0.0455 0.002,0.0142 0.0063,0.0307 0.0083,0.0459 0.002,0.0163 0.0037,0.0305 0.0057,0.0459 0.002,0.0163 0.0043,0.0309 0.0063,0.0465 0.0016,0.0163 0.002,0.0313 0.0041,0.0469 0.0012,0.0163 0.0018,0.0317 0.002,0.0476 7.92e-4,0.0162 0.0017,0.0317 0.002,0.0476 4.06e-4,0.0163 5.16e-4,0.0321 5.16e-4,0.048 0,0.0163 -1.1e-4,0.0321 -5.16e-4,0.048 -4.07e-4,0.0163 -0.0013,0.0317 -0.002,0.0476 -7.93e-4,0.0163 -0.0014,0.0313 -0.002,0.0469 -0.0012,0.0163 -0.002,0.0315 -0.0041,0.047 -0.0016,0.0163 -0.0043,0.0315 -0.0063,0.0469 -0.002,0.0163 -0.0037,0.0307 -0.0057,0.0459 -0.002,0.0163 -0.0043,0.0303 -0.0083,0.0455 -0.002,0.0142 -0.0063,0.0307 -0.0083,0.0459 -0.002,0.0142 -0.0063,0.0297 -0.01036,0.0445 -0.0041,0.0142 -0.0077,0.0301 -0.0097,0.0449 -0.0041,0.0142 -0.0083,0.0293 -0.0124,0.0439 -0.0041,0.0142 -0.0077,0.0295 -0.01179,0.0439 -0.0041,0.0142 -0.01037,0.0291 -0.01443,0.0435 -0.0041,0.0142 -0.01,0.0286 -0.01402,0.0429 -0.0041,0.0142 -0.01036,0.0287 -0.01646,0.0429 -0.0061,0.0142 -0.01,0.028 -0.01605,0.0419 -0.0061,0.0142 -0.0126,0.0272 -0.0187,0.0408 -0.0061,0.0142 -0.01199,0.0268 -0.01809,0.0402 -0.0061,0.0142 -0.01402,0.027 -0.02012,0.0402 -0.0061,0.0142 -0.01463,0.0266 -0.0212,0.0398 -0.0081,0.0122 -0.01382,0.0264 -0.0217,0.0392 -0.0081,0.0122 -0.01423,0.0256 -0.02221,0.0382 -0.0081,0.0122 -0.01626,0.0252 -0.02378,0.0378 -0.0081,0.0122 -0.01666,0.0254 -0.02481,0.0378 -0.0081,0.0122 -0.01585,0.024 -0.02532,0.0362 -0.0081,0.0122 -0.01626,0.0242 -0.02583,0.0362 -0.0081,0.0122 -0.0187,0.0234 -0.0279,0.0352 -0.01016,0.0122 -0.01829,0.0232 -0.02739,0.0345 -0.01016,0.0122 -0.01992,0.023 -0.02841,0.0342 -0.01016,0.0122 -0.02032,0.0222 -0.02945,0.0331 -0.01016,0.0102 -0.02042,0.0217 -0.02998,0.0325 -0.01016,0.0102 -0.02044,0.0215 -0.03101,0.0321 -0.01016,0.0102 -0.02179,0.0209 -0.03256,0.0311 -0.01016,0.0102 -0.02158,0.0203 -0.03256,0.0299 -0.01016,0.0102 -0.02189,0.0203 -0.03307,0.0295 -0.01219,0.0102 -0.02272,0.0203 -0.0341,0.0289 -0.01219,0.0102 -0.02305,0.0183 -0.03463,0.0274 -0.01219,0.0102 -0.02335,0.0183 -0.03514,0.0274 -0.01219,0.008 -0.02418,0.0163 -0.03617,0.0258 -0.01219,0.008 -0.02378,0.0163 -0.03617,0.0254 -0.01219,0.008 -0.02512,0.0163 -0.03772,0.0248 -0.01219,0.008 -0.02492,0.0163 -0.03772,0.0238 -0.01219,0.008 -0.02544,0.0142 -0.03825,0.0222 -0.01219,0.008 -0.02628,0.0142 -0.03928,0.0222 -0.01423,0.006 -0.02638,0.0142 -0.03979,0.0207 -0.01423,0.006 -0.02689,0.0142 -0.0403,0.0203 -0.01423,0.006 -0.02668,0.0122 -0.0403,0.0183 -0.01423,0.006 -0.02701,0.0122 -0.04083,0.0183 -0.01423,0.006 -0.02784,0.0122 -0.04186,0.0163 -0.01423,0.006 -0.02867,0.0102 -0.04288,0.0163 -0.01423,0.006 -0.02847,0.0102 -0.0429,0.0142 -0.01423,0.004 -0.02878,0.0102 -0.04341,0.0142 -0.01423,0.004 -0.02928,0.008 -0.04392,0.0122 -0.01423,0.004 -0.02908,0.008 -0.04392,0.0122 -0.01423,0.004 -0.02961,0.008 -0.04445,0.0102 -0.01423,0.004 -0.02992,0.006 -0.04495,0.0102 -0.01423,0.004 -0.03024,0.006 -0.04548,0.008 -0.01423,0.002 -0.03075,0.006 -0.04599,0.008 -0.01626,0.002 -0.03055,0.004 -0.04599,0.006 -0.01626,0.002 -0.03158,0.004 -0.04703,0.006 -0.01626,0.002 -0.03065,0.002 -0.0465,0.004 -0.01626,10e-4 -0.03168,0.002 -0.04753,0.002 -0.01626,7.9e-4 -0.03168,0.001 -0.04753,0.002 -0.01626,3.9e-4 -0.03221,5.1e-4 -0.04806,5.1e-4 H 19.314583 18.018023 15.875 14.637349 10.821561 c -0.8648867,0 -1.5611448,0.69625 -1.5611448,1.56114 v 0.0526 c 0,0.86488 0.6962581,1.56114 1.5611448,1.56114 H 15.875 18.018023 l 1.29656,0.004 c 2.784984,0 5.027083,-2.24209 5.027083,-5.02707 0,-2.78501 -2.242099,-5.02708 -5.027083,-5.02708 h -0.349849 -0.4439 -4.497918 c -0.01605,0 -0.03213,-1.2e-4 -0.04806,-5.3e-4 -0.01585,-4e-4 -0.03172,-10e-4 -0.04753,-0.002 -0.01585,-7.9e-4 -0.03182,-10e-4 -0.04753,-0.002 -0.01565,-0.001 -0.03091,-0.002 -0.04652,-0.004 -0.01565,-0.002 -0.03154,-0.004 -0.04703,-0.006 -0.01544,-0.002 -0.03063,-0.004 -0.04599,-0.006 -0.01544,-0.002 -0.03077,-0.004 -0.04599,-0.008 -0.01524,-0.002 -0.03038,-0.006 -0.04548,-0.008 -0.01504,-0.004 -0.03,-0.006 -0.04495,-0.0102 -0.01504,-0.004 -0.03014,-0.006 -0.04495,-0.0102 -0.01483,-0.004 -0.02926,-0.008 -0.04392,-0.0122 -0.01463,-0.004 -0.02941,-0.008 -0.04392,-0.0142 -0.01443,-0.004 -0.02904,-0.008 -0.04341,-0.0142 -0.01443,-0.004 -0.0287,-0.0102 -0.0429,-0.0142 -0.01423,-0.006 -0.02835,-0.0102 -0.04237,-0.0163 -0.01402,-0.006 -0.02801,-0.0122 -0.04186,-0.0163 -0.01382,-0.006 -0.02766,-0.0122 -0.04134,-0.0183 -0.01362,-0.006 -0.0268,-0.0122 -0.0403,-0.0183 -0.01341,-0.006 -0.02699,-0.0142 -0.0403,-0.0203 -0.01341,-0.006 -0.02666,-0.0142 -0.03979,-0.0207 -0.01321,-0.006 -0.02634,-0.0142 -0.03928,-0.0217 -0.01301,-0.008 -0.02551,-0.0142 -0.03825,-0.0228 -0.0128,-0.008 -0.0252,-0.0163 -0.03772,-0.0238 -0.0126,-0.008 -0.0254,-0.0163 -0.03772,-0.0244 -0.0124,-0.008 -0.02408,-0.0163 -0.03617,-0.0254 -0.01219,-0.008 -0.02431,-0.0183 -0.03617,-0.0264 -0.01179,-0.008 -0.02349,-0.0183 -0.03514,-0.0268 -0.01158,-0.0102 -0.02319,-0.0183 -0.03463,-0.0278 -0.01138,-0.0102 -0.0229,-0.0183 -0.0341,-0.0289 -0.01118,-0.0102 -0.02213,-0.0203 -0.03307,-0.0295 -0.01097,-0.0102 -0.02185,-0.0203 -0.03256,-0.0299 -0.01077,-0.0102 -0.02158,-0.0205 -0.03203,-0.0311 -0.01037,-0.0102 -0.02079,-0.0213 -0.03101,-0.0321 -0.01016,-0.0102 -0.02012,-0.0215 -0.02998,-0.0325 -0.01,-0.0102 -0.01971,-0.022 -0.02945,-0.0331 -0.0098,-0.0102 -0.01951,-0.0228 -0.02894,-0.0341 -0.0093,-0.0122 -0.01829,-0.023 -0.02739,-0.0346 -0.0091,-0.0122 -0.01849,-0.0232 -0.0274,-0.0351 -0.0089,-0.0122 -0.01727,-0.024 -0.02583,-0.0362 -0.0085,-0.0122 -0.01748,-0.0238 -0.02583,-0.0362 -0.0083,-0.0122 -0.01626,-0.0246 -0.02429,-0.0372 -0.0079,-0.0122 -0.01605,-0.0256 -0.02378,-0.0382 -0.0077,-0.0122 -0.01484,-0.0254 -0.02221,-0.0382 -0.0075,-0.0122 -0.01504,-0.0262 -0.02221,-0.0392 -0.0071,-0.0122 -0.01382,-0.0264 -0.02067,-0.0398 -0.0067,-0.0142 -0.01362,-0.0262 -0.02012,-0.0398 -0.0065,-0.0142 -0.0124,-0.0272 -0.0187,-0.0408 -0.0061,-0.0142 -0.01219,-0.0274 -0.01809,-0.0413 -0.0059,-0.0142 -0.01158,-0.0278 -0.01707,-0.0419 -0.0055,-0.0142 -0.01077,-0.0283 -0.01605,-0.0423 -0.0051,-0.0142 -0.01016,-0.0285 -0.01504,-0.0429 -0.0049,-0.0142 -0.0096,-0.0289 -0.01402,-0.0435 -0.0045,-0.0142 -0.0087,-0.0293 -0.01301,-0.0439 -0.0041,-0.0142 -0.0085,-0.0291 -0.0124,-0.0439 -0.0039,-0.0142 -0.0073,-0.0301 -0.01077,-0.0449 -0.0035,-0.0142 -0.0063,-0.0299 -0.0093,-0.0449 -0.003,-0.0142 -0.0061,-0.0303 -0.0087,-0.0455 -0.0026,-0.0142 -0.0055,-0.0307 -0.0077,-0.0459 -0.0022,-0.0163 -0.0043,-0.0305 -0.0063,-0.0459 -0.002,-0.0163 -0.0041,-0.0309 -0.0057,-0.0465 -0.0016,-0.0163 -0.0028,-0.0313 -0.0041,-0.0469 -0.0012,-0.0163 -0.0018,-0.0317 -0.0026,-0.0476 -7.96e-4,-0.0163 -0.0017,-0.0317 -0.002,-0.0476 -4e-4,-0.0163 -5.16e-4,-0.0321 -5.16e-4,-0.048 0,-0.0163 1.16e-4,-0.0321 5.16e-4,-0.0482 4e-4,-0.0163 0.0013,-0.0317 0.002,-0.0476 7.97e-4,-0.0163 0.0014,-0.0313 0.0026,-0.0469 0.0012,-0.0163 0.0026,-0.0315 0.0041,-0.0469 0.0016,-0.0163 0.0037,-0.0315 0.0057,-0.0469 0.002,-0.0163 0.0039,-0.0307 0.0063,-0.0459 0.0022,-0.0163 0.0051,-0.0307 0.0077,-0.0459 0.0026,-0.0142 0.0057,-0.0303 0.0087,-0.0455 0.003,-0.0142 0.0059,-0.0301 0.0093,-0.0449 0.0035,-0.0142 0.0071,-0.0301 0.01077,-0.0449 0.0039,-0.0142 0.0083,-0.0293 0.0124,-0.0439 0.0041,-0.0142 0.0083,-0.0295 0.01301,-0.0439 0.0045,-0.0142 0.0091,-0.0291 0.01402,-0.0435 0.0049,-0.0142 0.0098,-0.0287 0.01504,-0.0429 0.0051,-0.0142 0.01057,-0.0285 0.01605,-0.0425 0.0055,-0.0142 0.01118,-0.028 0.01707,-0.0419 0.0059,-0.0142 0.01199,-0.0276 0.01809,-0.0413 0.0061,-0.0142 0.01219,-0.0268 0.0187,-0.0402 0.0065,-0.0142 0.01341,-0.027 0.02012,-0.0402 0.0067,-0.0142 0.01362,-0.0266 0.02067,-0.0398 0.0071,-0.0122 0.01484,-0.0264 0.02221,-0.0392 0.0073,-0.0122 0.01443,-0.0254 0.02221,-0.0382 0.0077,-0.0122 0.01585,-0.0252 0.02378,-0.0378 0.0079,-0.0122 0.01605,-0.0254 0.02429,-0.0378 0.0083,-0.0122 0.01727,-0.0242 0.02583,-0.0362 0.0085,-0.0122 0.01687,-0.0244 0.02583,-0.0362 0.0089,-0.0122 0.01829,-0.0234 0.0274,-0.0352 0.0091,-0.0122 0.01788,-0.0232 0.02739,-0.0345 0.0093,-0.0122 0.01931,-0.023 0.02894,-0.0341 0.0098,-0.0122 0.01951,-0.0221 0.02945,-0.0331 0.01,-0.0102 0.01971,-0.022 0.02998,-0.0325 0.01016,-0.0102 0.02055,-0.0215 0.03101,-0.0321 0.01036,-0.0102 0.02132,-0.0207 0.03203,-0.0311 0.01077,-0.0102 0.0216,-0.0203 0.03256,-0.0299 0.01097,-0.0102 0.02189,-0.0203 0.03307,-0.0295 0.01118,-0.0102 0.02268,-0.0203 0.0341,-0.0289 0.01138,-0.0102 0.02296,-0.0183 0.03463,-0.0274 0.01158,-0.0102 0.02327,-0.0183 0.03514,-0.0274 0.01179,-0.008 0.02408,-0.0163 0.03617,-0.0258 0.01219,-0.008 0.02386,-0.0163 0.03617,-0.0254 0.0124,-0.008 0.0252,-0.0163 0.03772,-0.0248 0.0126,-0.008 0.025,-0.0163 0.03772,-0.0238 0.0128,-0.008 0.02532,-0.0142 0.03825,-0.0222 0.01301,-0.008 0.02615,-0.0142 0.03928,-0.0222 0.01321,-0.008 0.02648,-0.0142 0.03979,-0.0207 0.01341,-0.006 0.0268,-0.0142 0.0403,-0.0203 0.01341,-0.006 0.02662,-0.0122 0.0403,-0.0183 0.01362,-0.006 0.02748,-0.0122 0.04134,-0.0183 0.01382,-0.006 0.02782,-0.0122 0.04186,-0.0163 0.01402,-0.006 0.02819,-0.0102 0.04237,-0.0163 0.01423,-0.006 0.02853,-0.0102 0.0429,-0.0142 0.01443,-0.004 0.0289,-0.0102 0.04341,-0.0142 0.01443,-0.004 0.02927,-0.008 0.04392,-0.0122 0.01463,-0.004 0.0291,-0.008 0.04392,-0.0122 0.01484,-0.004 0.03,-0.008 0.04495,-0.0102 0.01504,-0.004 0.02985,-0.006 0.04495,-0.0102 0.01504,-0.004 0.03024,-0.006 0.04548,-0.008 0.01524,-0.002 0.03063,-0.006 0.04599,-0.008 0.01545,-0.002 0.0305,-0.004 0.04599,-0.006 0.01545,-0.002 0.03142,-0.004 0.04703,-0.006 0.01565,-0.002 0.03079,-0.002 0.04652,-0.004 0.01565,-10e-4 0.03172,-0.002 0.04753,-0.002 0.01585,-8e-4 0.0316,-0.002 0.04753,-0.002 0.01585,-3.8e-4 0.03203,-5e-4 0.04806,-5e-4 h 0.264584 1.296562 2.143021 1.237651 3.815788 c 0.86489,0 1.561144,-0.69626 1.561144,-1.56114 v -0.0526 c 0,-0.86489 -0.696254,-1.56114 -1.561144,-1.56114 h -5.053439 -2.143021 z" />
    <path
       id="path1726-5"
       style="fill:#f2fbf6;fill-opacity:1;stroke-width:3.175;stroke-linecap:round;stroke-linejoin:round;paint-order:stroke markers fill;stop-color:#000000"
       d="m 14.2875,271.60005 c -2.784994,0 -5.0270838,2.24209 -5.0270838,5.02707 0,2.78501 2.2420898,5.0271 5.0270838,5.0271 h 0.529167 4.7625 c 0.01626,0 0.03221,10e-5 0.04806,5.1e-4 0.01626,4e-4 0.03168,0.001 0.04753,0.002 0.01626,7.9e-4 0.03189,0.001 0.04753,0.002 0.01626,0.001 0.03085,0.002 0.0465,0.004 0.01626,0.002 0.03158,0.004 0.04703,0.006 0.01626,0.002 0.03075,0.004 0.04599,0.006 0.01626,0.002 0.03075,0.004 0.04599,0.008 0.01626,0.002 0.03044,0.006 0.04548,0.008 0.01423,0.004 0.03012,0.006 0.04495,0.0102 0.01423,0.004 0.02961,0.006 0.04445,0.0102 0.01423,0.004 0.02929,0.008 0.04392,0.0122 0.01423,0.004 0.02949,0.008 0.04392,0.0142 0.01423,0.004 0.02898,0.008 0.04341,0.0142 0.01423,0.004 0.02867,0.0102 0.0429,0.0142 0.01423,0.006 0.02886,0.0102 0.04288,0.0163 0.01423,0.006 0.02804,0.0122 0.04186,0.0163 0.01423,0.006 0.02721,0.0122 0.04083,0.0183 0.01423,0.006 0.02689,0.0122 0.0403,0.0183 0.01423,0.006 0.02709,0.0142 0.0403,0.0203 0.01423,0.006 0.02658,0.0142 0.03979,0.0207 0.01423,0.008 0.02648,0.0142 0.03928,0.0221 0.01219,0.008 0.02544,0.0142 0.03825,0.0228 0.01219,0.008 0.02512,0.0163 0.03772,0.0238 0.01219,0.008 0.02532,0.0163 0.03772,0.0244 0.01219,0.008 0.02418,0.0163 0.03617,0.0254 0.01219,0.008 0.02439,0.0183 0.03617,0.0264 0.01219,0.008 0.02355,0.0183 0.03514,0.0268 0.01219,0.0102 0.02325,0.0183 0.03463,0.0278 0.01219,0.0102 0.02292,0.0183 0.0341,0.0289 0.01016,0.0102 0.02209,0.0203 0.03307,0.0295 0.01016,0.0102 0.02199,0.0205 0.03256,0.0301 0.01016,0.0102 0.02199,0.0205 0.03256,0.0311 0.01016,0.0102 0.02065,0.0213 0.03101,0.0321 0.01016,0.0102 0.02042,0.0215 0.02998,0.0325 0.01016,0.0102 0.02032,0.022 0.02945,0.0331 0.01016,0.0102 0.01992,0.0228 0.02841,0.0341 0.01016,0.0122 0.01829,0.023 0.02739,0.0345 0.0081,0.0122 0.0187,0.0232 0.0279,0.0351 0.0081,0.0122 0.01829,0.024 0.02583,0.0362 0.0081,0.0122 0.01788,0.0238 0.02532,0.0362 0.0081,0.0122 0.01666,0.0246 0.02481,0.0372 0.0081,0.0122 0.01626,0.0256 0.02378,0.0382 0.0081,0.0122 0.01423,0.0254 0.02221,0.0382 0.0081,0.0122 0.01382,0.0262 0.0217,0.0392 0.0061,0.0122 0.01463,0.0264 0.0212,0.0398 0.0061,0.0142 0.01402,0.0262 0.02012,0.0398 0.0061,0.0142 0.01199,0.0272 0.01809,0.0408 0.0061,0.0142 0.0126,0.0274 0.0187,0.0413 0.0061,0.0142 0.01199,0.0278 0.01605,0.0419 0.0061,0.0142 0.01036,0.0278 0.01646,0.0419 0.0041,0.0142 0.01,0.0285 0.01402,0.0429 0.0041,0.0142 0.01037,0.0293 0.01443,0.0439 0.0041,0.0142 0.0077,0.0293 0.01179,0.0439 0.0041,0.0142 0.0083,0.0286 0.0124,0.0435 0.0041,0.0142 0.0077,0.0301 0.0097,0.0449 0.0041,0.0142 0.0063,0.0299 0.01036,0.0449 0.0041,0.0142 0.0063,0.0303 0.0083,0.0455 0.002,0.0142 0.0063,0.0307 0.0083,0.0459 0.002,0.0163 0.0037,0.0305 0.0057,0.0459 0.002,0.0163 0.0043,0.0309 0.0063,0.0465 0.0016,0.0163 0.002,0.0313 0.0041,0.0469 0.0012,0.0163 0.0018,0.0317 0.002,0.0476 7.92e-4,0.0162 0.0017,0.0317 0.002,0.0476 4.06e-4,0.0163 5.16e-4,0.0321 5.16e-4,0.048 0,0.0163 -1.1e-4,0.0321 -5.16e-4,0.048 -4.07e-4,0.0163 -0.0013,0.0317 -0.002,0.0476 -7.93e-4,0.0163 -0.0014,0.0313 -0.002,0.0469 -0.0012,0.0163 -0.002,0.0315 -0.0041,0.047 -0.0016,0.0163 -0.0043,0.0315 -0.0063,0.0469 -0.002,0.0163 -0.0037,0.0307 -0.0057,0.0459 -0.002,0.0163 -0.0043,0.0303 -0.0083,0.0455 -0.002,0.0142 -0.0063,0.0307 -0.0083,0.0459 -0.002,0.0142 -0.0063,0.0297 -0.01036,0.0445 -0.0041,0.0142 -0.0077,0.0301 -0.0097,0.0449 -0.0041,0.0142 -0.0083,0.0293 -0.0124,0.0439 -0.0041,0.0142 -0.0077,0.0295 -0.01179,0.0439 -0.0041,0.0142 -0.01037,0.0291 -0.01443,0.0435 -0.0041,0.0142 -0.01,0.0286 -0.01402,0.0429 -0.0041,0.0142 -0.01036,0.0287 -0.01646,0.0429 -0.0061,0.0142 -0.01,0.028 -0.01605,0.0419 -0.0061,0.0142 -0.0126,0.0272 -0.0187,0.0408 -0.0061,0.0142 -0.01199,0.0268 -0.01809,0.0402 -0.0061,0.0142 -0.01402,0.027 -0.02012,0.0402 -0.0061,0.0142 -0.01463,0.0266 -0.0212,0.0398 -0.0081,0.0122 -0.01382,0.0264 -0.0217,0.0392 -0.0081,0.0122 -0.01423,0.0256 -0.02221,0.0382 -0.0081,0.0122 -0.01626,0.0252 -0.02378,0.0378 -0.0081,0.0122 -0.01666,0.0254 -0.02481,0.0378 -0.0081,0.0122 -0.01585,0.024 -0.02532,0.0362 -0.0081,0.0122 -0.01626,0.0242 -0.02583,0.0362 -0.0081,0.0122 -0.0187,0.0234 -0.0279,0.0352 -0.01016,0.0122 -0.01829,0.0232 -0.02739,0.0345 -0.01016,0.0122 -0.01992,0.023 -0.02841,0.0342 -0.01016,0.0122 -0.02032,0.0222 -0.02945,0.0331 -0.01016,0.0102 -0.02042,0.0217 -0.02998,0.0325 -0.01016,0.0102 -0.02044,0.0215 -0.03101,0.0321 -0.01016,0.0102 -0.02179,0.0209 -0.03256,0.0311 -0.01016,0.0102 -0.02158,0.0203 -0.03256,0.0299 -0.01016,0.0102 -0.02189,0.0203 -0.03307,0.0295 -0.01219,0.0102 -0.02272,0.0203 -0.0341,0.0289 -0.01219,0.0102 -0.02305,0.0183 -0.03463,0.0274 -0.01219,0.0102 -0.02335,0.0183 -0.03514,0.0274 -0.01219,0.008 -0.02418,0.0163 -0.03617,0.0258 -0.01219,0.008 -0.02378,0.0163 -0.03617,0.0254 -0.01219,0.008 -0.02512,0.0163 -0.03772,0.0248 -0.01219,0.008 -0.02492,0.0163 -0.03772,0.0238 -0.01219,0.008 -0.02544,0.0142 -0.03825,0.0222 -0.01219,0.008 -0.02628,0.0142 -0.03928,0.0222 -0.01423,0.006 -0.02638,0.0142 -0.03979,0.0207 -0.01423,0.006 -0.02689,0.0142 -0.0403,0.0203 -0.01423,0.006 -0.02668,0.0122 -0.0403,0.0183 -0.01423,0.006 -0.02701,0.0122 -0.04083,0.0183 -0.01423,0.006 -0.02784,0.0122 -0.04186,0.0163 -0.01423,0.006 -0.02867,0.0102 -0.04288,0.0163 -0.01423,0.006 -0.02847,0.0102 -0.0429,0.0142 -0.01423,0.004 -0.02878,0.0102 -0.04341,0.0142 -0.01423,0.004 -0.02928,0.008 -0.04392,0.0122 -0.01423,0.004 -0.02908,0.008 -0.04392,0.0122 -0.01423,0.004 -0.02961,0.008 -0.04445,0.0102 -0.01423,0.004 -0.02992,0.006 -0.04495,0.0102 -0.01423,0.004 -0.03024,0.006 -0.04548,0.008 -0.01423,0.002 -0.03075,0.006 -0.04599,0.008 -0.01626,0.002 -0.03055,0.004 -0.04599,0.006 -0.01626,0.002 -0.03158,0.004 -0.04703,0.006 -0.01626,0.002 -0.03065,0.002 -0.0465,0.004 -0.01626,10e-4 -0.03168,0.002 -0.04753,0.002 -0.01626,7.9e-4 -0.03168,10e-4 -0.04753,0.002 -0.01626,3.9e-4 -0.03221,5.1e-4 -0.04806,5.1e-4 H 19.314583 18.018023 15.875 14.637349 10.821561 c -0.8648867,0 -1.5611448,0.69625 -1.5611448,1.56114 v 0.0526 c 0,0.86488 0.6962581,1.56114 1.5611448,1.56114 H 15.875 18.018023 l 1.29656,0.004 c 2.784984,0 5.027083,-2.24209 5.027083,-5.02707 0,-2.78501 -2.242099,-5.02708 -5.027083,-5.02708 h -0.349849 -0.4439 -4.497918 c -0.01605,0 -0.03213,-1.2e-4 -0.04806,-5.3e-4 -0.01585,-4e-4 -0.03172,-0.001 -0.04753,-0.002 -0.01585,-7.9e-4 -0.03182,-0.001 -0.04753,-0.002 -0.01565,-10e-4 -0.03091,-0.002 -0.04652,-0.004 -0.01565,-0.002 -0.03154,-0.004 -0.04703,-0.006 -0.01544,-0.002 -0.03063,-0.004 -0.04599,-0.006 -0.01544,-0.002 -0.03077,-0.004 -0.04599,-0.008 -0.01524,-0.002 -0.03038,-0.006 -0.04548,-0.008 -0.01504,-0.004 -0.03,-0.006 -0.04495,-0.0102 -0.01504,-0.004 -0.03014,-0.006 -0.04495,-0.0102 -0.01483,-0.004 -0.02926,-0.008 -0.04392,-0.0122 -0.01463,-0.004 -0.02941,-0.008 -0.04392,-0.0142 -0.01443,-0.004 -0.02904,-0.008 -0.04341,-0.0142 -0.01443,-0.004 -0.0287,-0.0102 -0.0429,-0.0142 -0.01423,-0.006 -0.02835,-0.0102 -0.04237,-0.0163 -0.01402,-0.006 -0.02801,-0.0122 -0.04186,-0.0163 -0.01382,-0.006 -0.02766,-0.0122 -0.04134,-0.0183 -0.01362,-0.006 -0.0268,-0.0122 -0.0403,-0.0183 -0.01341,-0.006 -0.02699,-0.0142 -0.0403,-0.0203 -0.01341,-0.006 -0.02666,-0.0142 -0.03979,-0.0207 -0.01321,-0.006 -0.02634,-0.0142 -0.03928,-0.0217 -0.01301,-0.008 -0.02551,-0.0142 -0.03825,-0.0228 -0.0128,-0.008 -0.0252,-0.0163 -0.03772,-0.0238 -0.0126,-0.008 -0.0254,-0.0163 -0.03772,-0.0244 -0.0124,-0.008 -0.02408,-0.0163 -0.03617,-0.0254 -0.01219,-0.008 -0.02431,-0.0183 -0.03617,-0.0264 -0.01179,-0.008 -0.02349,-0.0183 -0.03514,-0.0268 -0.01158,-0.0102 -0.02319,-0.0183 -0.03463,-0.0278 -0.01138,-0.0102 -0.0229,-0.0183 -0.0341,-0.0289 -0.01118,-0.0102 -0.02213,-0.0203 -0.03307,-0.0295 -0.01097,-0.0102 -0.02185,-0.0203 -0.03256,-0.0299 -0.01077,-0.0102 -0.02158,-0.0205 -0.03203,-0.0311 -0.01037,-0.0102 -0.02079,-0.0213 -0.03101,-0.0321 -0.01016,-0.0102 -0.02012,-0.0215 -0.02998,-0.0325 -0.01,-0.0102 -0.01971,-0.022 -0.02945,-0.0331 -0.0098,-0.0102 -0.01951,-0.0228 -0.02894,-0.0341 -0.0093,-0.0122 -0.01829,-0.023 -0.02739,-0.0346 -0.0091,-0.0122 -0.01849,-0.0232 -0.0274,-0.0351 -0.0089,-0.0122 -0.01727,-0.024 -0.02583,-0.0362 -0.0085,-0.0122 -0.01748,-0.0238 -0.02583,-0.0362 -0.0083,-0.0122 -0.01626,-0.0246 -0.02429,-0.0372 -0.0079,-0.0122 -0.01605,-0.0256 -0.02378,-0.0382 -0.0077,-0.0122 -0.01484,-0.0254 -0.02221,-0.0382 -0.0075,-0.0122 -0.01504,-0.0262 -0.02221,-0.0392 -0.0071,-0.0122 -0.01382,-0.0264 -0.02067,-0.0398 -0.0067,-0.0142 -0.01362,-0.0262 -0.02012,-0.0398 -0.0065,-0.0142 -0.0124,-0.0272 -0.0187,-0.0408 -0.0061,-0.0142 -0.01219,-0.0274 -0.01809,-0.0413 -0.0059,-0.0142 -0.01158,-0.0278 -0.01707,-0.0419 -0.0055,-0.0142 -0.01077,-0.0283 -0.01605,-0.0423 -0.0051,-0.0142 -0.01016,-0.0285 -0.01504,-0.0429 -0.0049,-0.0142 -0.0096,-0.0289 -0.01402,-0.0435 -0.0045,-0.0142 -0.0087,-0.0293 -0.01301,-0.0439 -0.0041,-0.0142 -0.0085,-0.0291 -0.0124,-0.0439 -0.0039,-0.0142 -0.0073,-0.0301 -0.01077,-0.0449 -0.0035,-0.0142 -0.0063,-0.0299 -0.0093,-0.0449 -0.003,-0.0142 -0.0061,-0.0303 -0.0087,-0.0455 -0.0026,-0.0142 -0.0055,-0.0307 -0.0077,-0.0459 -0.0022,-0.0163 -0.0043,-0.0305 -0.0063,-0.0459 -0.002,-0.0163 -0.0041,-0.0309 -0.0057,-0.0465 -0.0016,-0.0163 -0.0028,-0.0313 -0.0041,-0.0469 -0.0012,-0.0163 -0.0018,-0.0317 -0.0026,-0.0476 -7.96e-4,-0.0163 -0.0017,-0.0317 -0.002,-0.0476 -4e-4,-0.0163 -5.16e-4,-0.0321 -5.16e-4,-0.048 0,-0.0163 1.16e-4,-0.0321 5.16e-4,-0.0482 4e-4,-0.0163 0.0013,-0.0317 0.002,-0.0476 7.97e-4,-0.0163 0.0014,-0.0313 0.0026,-0.0469 0.0012,-0.0163 0.0026,-0.0315 0.0041,-0.0469 0.0016,-0.0163 0.0037,-0.0315 0.0057,-0.0469 0.002,-0.0163 0.0039,-0.0307 0.0063,-0.0459 0.0022,-0.0163 0.0051,-0.0307 0.0077,-0.0459 0.0026,-0.0142 0.0057,-0.0303 0.0087,-0.0455 0.003,-0.0142 0.0059,-0.0301 0.0093,-0.0449 0.0035,-0.0142 0.0071,-0.0301 0.01077,-0.0449 0.0039,-0.0142 0.0083,-0.0293 0.0124,-0.0439 0.0041,-0.0142 0.0083,-0.0295 0.01301,-0.0439 0.0045,-0.0142 0.0091,-0.0291 0.01402,-0.0435 0.0049,-0.0142 0.0098,-0.0287 0.01504,-0.0429 0.0051,-0.0142 0.01057,-0.0285 0.01605,-0.0425 0.0055,-0.0142 0.01118,-0.028 0.01707,-0.0419 0.0059,-0.0142 0.01199,-0.0276 0.01809,-0.0413 0.0061,-0.0142 0.01219,-0.0268 0.0187,-0.0402 0.0065,-0.0142 0.01341,-0.027 0.02012,-0.0402 0.0067,-0.0142 0.01362,-0.0266 0.02067,-0.0398 0.0071,-0.0122 0.01484,-0.0264 0.02221,-0.0392 0.0073,-0.0122 0.01443,-0.0254 0.02221,-0.0382 0.0077,-0.0122 0.01585,-0.0252 0.02378,-0.0378 0.0079,-0.0122 0.01605,-0.0254 0.02429,-0.0378 0.0083,-0.0122 0.01727,-0.0242 0.02583,-0.0362 0.0085,-0.0122 0.01687,-0.0244 0.02583,-0.0362 0.0089,-0.0122 0.01829,-0.0234 0.0274,-0.0352 0.0091,-0.0122 0.01788,-0.0232 0.02739,-0.0345 0.0093,-0.0122 0.01931,-0.023 0.02894,-0.0341 0.0098,-0.0122 0.01951,-0.0221 0.02945,-0.0331 0.01,-0.0102 0.01971,-0.022 0.02998,-0.0325 0.01016,-0.0102 0.02055,-0.0215 0.03101,-0.0321 0.01036,-0.0102 0.02132,-0.0207 0.03203,-0.0311 0.01077,-0.0102 0.0216,-0.0203 0.03256,-0.0299 0.01097,-0.0102 0.02189,-0.0203 0.03307,-0.0295 0.01118,-0.0102 0.02268,-0.0203 0.0341,-0.0289 0.01138,-0.0102 0.02296,-0.0183 0.03463,-0.0274 0.01158,-0.0102 0.02327,-0.0183 0.03514,-0.0274 0.01179,-0.008 0.02408,-0.0163 0.03617,-0.0258 0.01219,-0.008 0.02386,-0.0163 0.03617,-0.0254 0.0124,-0.008 0.0252,-0.0163 0.03772,-0.0248 0.0126,-0.008 0.025,-0.0163 0.03772,-0.0238 0.0128,-0.008 0.02532,-0.0142 0.03825,-0.0222 0.01301,-0.008 0.02615,-0.0142 0.03928,-0.0222 0.01321,-0.008 0.02648,-0.0142 0.03979,-0.0207 0.01341,-0.006 0.0268,-0.0142 0.0403,-0.0203 0.01341,-0.006 0.02662,-0.0122 0.0403,-0.0183 0.01362,-0.006 0.02748,-0.0122 0.04134,-0.0183 0.01382,-0.006 0.02782,-0.0122 0.04186,-0.0163 0.01402,-0.006 0.02819,-0.0102 0.04237,-0.0163 0.01423,-0.006 0.02853,-0.0102 0.0429,-0.0142 0.01443,-0.004 0.0289,-0.0102 0.04341,-0.0142 0.01443,-0.004 0.02927,-0.008 0.04392,-0.0122 0.01463,-0.004 0.0291,-0.008 0.04392,-0.0122 0.01484,-0.004 0.03,-0.008 0.04495,-0.0102 0.01504,-0.004 0.02985,-0.006 0.04495,-0.0102 0.01504,-0.004 0.03024,-0.006 0.04548,-0.008 0.01524,-0.002 0.03063,-0.006 0.04599,-0.008 0.01545,-0.002 0.0305,-0.004 0.04599,-0.006 0.01545,-0.002 0.03142,-0.004 0.04703,-0.006 0.01565,-0.002 0.03079,-0.002 0.04652,-0.004 0.01565,-0.001 0.03172,-0.002 0.04753,-0.002 0.01585,-8e-4 0.0316,-0.002 0.04753,-0.002 0.01585,-3.8e-4 0.03203,-5e-4 0.04806,-5e-4 h 0.264584 1.296562 2.143021 1.237651 3.815788 c 0.86489,0 1.561144,-0.69626 1.561144,-1.56114 v -0.0526 c 0,-0.86489 -0.696254,-1.56114 -1.561144,-1.56114 h -5.053439 -2.143021 z" />
  </g>
</svg>
