<?xml version="1.0" encoding="UTF-8" standalone="no"?>
<!-- Created with Inkscape (http://www.inkscape.org/) -->

<svg
   width="22"
   height="22"
   viewBox="0 0 5.8208332 5.8208335"
   version="1.1"
   id="svg8"
   inkscape:version="1.3.2 (091e20ef0f, 2023-11-25, custom)"
   sodipodi:docname="insync-folder.svg"
   xmlns:inkscape="http://www.inkscape.org/namespaces/inkscape"
   xmlns:sodipodi="http://sodipodi.sourceforge.net/DTD/sodipodi-0.dtd"
   xmlns:xlink="http://www.w3.org/1999/xlink"
   xmlns="http://www.w3.org/2000/svg"
   xmlns:svg="http://www.w3.org/2000/svg"
   xmlns:rdf="http://www.w3.org/1999/02/22-rdf-syntax-ns#"
   xmlns:cc="http://creativecommons.org/ns#"
   xmlns:dc="http://purl.org/dc/elements/1.1/">
  <defs
     id="defs2">
    <linearGradient
       inkscape:collect="always"
       xlink:href="#linearGradient6"
       id="linearGradient7"
       x1="9.164197"
       y1="291.85263"
       x2="7.8172321"
       y2="289.15872"
       gradientUnits="userSpaceOnUse" />
    <linearGradient
       id="linearGradient6"
       inkscape:collect="always">
      <stop
         style="stop-color:#f4b459;stop-opacity:1;"
         offset="0"
         id="stop6" />
      <stop
         style="stop-color:#f9c886;stop-opacity:1;"
         offset="1"
         id="stop7" />
    </linearGradient>
    <linearGradient
       inkscape:collect="always"
       xlink:href="#linearGradient8"
       id="linearGradient9"
       x1="4.4498205"
       y1="291.85263"
       x2="6.1335263"
       y2="289.15872"
       gradientUnits="userSpaceOnUse" />
    <linearGradient
       id="linearGradient8"
       inkscape:collect="always">
      <stop
         style="stop-color:#38be7b;stop-opacity:1;"
         offset="0"
         id="stop8" />
      <stop
         style="stop-color:#4ccb87;stop-opacity:1;"
         offset="1"
         id="stop9" />
    </linearGradient>
    <linearGradient
       inkscape:collect="always"
       xlink:href="#linearGradient4"
       id="linearGradient5"
       x1="7.1437497"
       y1="289.83218"
       x2="7.1437497"
       y2="288.1485"
       gradientUnits="userSpaceOnUse" />
    <linearGradient
       id="linearGradient4"
       inkscape:collect="always">
      <stop
         style="stop-color:#33afa5;stop-opacity:1;"
         offset="0"
         id="stop4" />
      <stop
         style="stop-color:#52b8ac;stop-opacity:1;"
         offset="1"
         id="stop5" />
    </linearGradient>
    <linearGradient
       inkscape:collect="always"
       xlink:href="#linearGradient12"
       id="linearGradient13"
       x1="7.1437497"
       y1="293.87308"
       x2="7.1437497"
       y2="292.52612"
       gradientUnits="userSpaceOnUse" />
    <linearGradient
       id="linearGradient12"
       inkscape:collect="always">
      <stop
         style="stop-color:#43abf6;stop-opacity:1;"
         offset="0"
         id="stop12" />
      <stop
         style="stop-color:#4bbcf9;stop-opacity:1;"
         offset="1"
         id="stop13" />
    </linearGradient>
    <linearGradient
       inkscape:collect="always"
       xlink:href="#linearGradient10"
       id="linearGradient11"
       x1="4.7865615"
       y1="293.87308"
       x2="4.7865615"
       y2="292.52612"
       gradientUnits="userSpaceOnUse" />
    <linearGradient
       id="linearGradient10"
       inkscape:collect="always">
      <stop
         style="stop-color:#49aaf4;stop-opacity:1;"
         offset="0"
         id="stop10" />
      <stop
         style="stop-color:#62b4f1;stop-opacity:1;"
         offset="1"
         id="stop11" />
    </linearGradient>
    <linearGradient
       inkscape:collect="always"
       xlink:href="#linearGradient14"
       id="linearGradient15"
       x1="9.5009384"
       y1="293.87308"
       x2="9.5009384"
       y2="292.18939"
       gradientUnits="userSpaceOnUse" />
    <linearGradient
       id="linearGradient14"
       inkscape:collect="always">
      <stop
         style="stop-color:#f66060;stop-opacity:1;"
         offset="0"
         id="stop14" />
      <stop
         style="stop-color:#f77070;stop-opacity:1;"
         offset="1"
         id="stop15" />
    </linearGradient>
  </defs>
  <sodipodi:namedview
     id="base"
     pagecolor="#ffffff"
     bordercolor="#666666"
     borderopacity="1.0"
     inkscape:pageopacity="0.0"
     inkscape:pageshadow="2"
     inkscape:zoom="22.4"
     inkscape:cx="6.6294643"
     inkscape:cy="12.5"
     inkscape:document-units="px"
     inkscape:current-layer="g15"
     showgrid="true"
     units="px"
     inkscape:showpageshadow="false"
     inkscape:snap-bbox="true"
     inkscape:bbox-paths="true"
     inkscape:bbox-nodes="true"
     inkscape:snap-bbox-edge-midpoints="true"
     inkscape:snap-bbox-midpoints="true"
     inkscape:object-paths="true"
     inkscape:snap-intersection-paths="true"
     inkscape:window-width="2560"
     inkscape:window-height="1364"
     inkscape:window-x="0"
     inkscape:window-y="0"
     inkscape:window-maximized="1"
     inkscape:pagecheckerboard="0"
     inkscape:deskcolor="#d1d1d1">
    <inkscape:grid
       type="xygrid"
       id="grid815"
       originx="0"
       originy="0"
       spacingy="1"
       spacingx="1"
       units="px"
       visible="true" />
  </sodipodi:namedview>
  <metadata
     id="metadata5">
    <rdf:RDF>
      <cc:Work
         rdf:about="">
        <dc:format>image/svg+xml</dc:format>
        <dc:type
           rdf:resource="http://purl.org/dc/dcmitype/StillImage" />
        <dc:title />
      </cc:Work>
    </rdf:RDF>
  </metadata>
  <g
     inkscape:label="Capa 1"
     inkscape:groupmode="layer"
     id="layer1"
     transform="translate(0,-291.17916)">
    <g
       id="g15"
       transform="matrix(0.78571717,0,0,0.78571717,-2.7025699,65.569702)">
      <g
         id="path4-7">
        <path
           style="color:#000000;fill:#cb8936;stroke-linecap:round;stroke-linejoin:round;-inkscape-stroke:none;paint-order:markers stroke fill"
           d="m 8.1738281,287.8125 a 0.33677467,0.33677467 0 0 0 -0.2890625,0.13477 L 6.875,289.29297 a 0.33677467,0.33677467 0 0 0 -0.033203,0.35351 l 1.3476562,2.69336 a 0.33677467,0.33677467 0 0 0 0.3007813,0.18555 h 2.0214846 a 0.33677467,0.33677467 0 0 0 0.291015,-0.50586 L 8.4453125,287.97852 A 0.33677467,0.33677467 0 0 0 8.1738281,287.8125 Z m -0.054687,0.94336 1.8066407,3.09766 H 8.6992188 l -1.1621094,-2.32227 z"
           id="path9" />
        <path
           style="color:#000000;fill:url(#linearGradient7);stroke-linecap:round;stroke-linejoin:round;-inkscape-stroke:none;paint-order:markers stroke fill"
           d="m 8.1539734,288.14848 -1.0102236,1.34697 1.3469648,2.69393 h 2.0204464 z"
           id="path10" />
      </g>
      <g
         id="path4">
        <path
           style="color:#000000;fill:#2b8e5c;stroke-linecap:round;stroke-linejoin:round;-inkscape-stroke:none;paint-order:markers stroke fill"
           d="m 6.1132812,287.8125 a 0.33677467,0.33677467 0 0 0 -0.2714843,0.16602 l -2.3554688,4.04101 a 0.33677467,0.33677467 0 0 0 0.2890625,0.50586 H 5.796875 a 0.33677467,0.33677467 0 0 0 0.3007812,-0.18555 l 1.3476563,-2.69336 a 0.33677467,0.33677467 0 0 0 -0.03125,-0.35351 l -1.0117188,-1.3457 A 0.33677467,0.33677467 0 0 0 6.1132812,287.8125 Z m 0.054687,0.94336 L 6.75,289.53125 5.5878906,291.85352 H 4.3613281 Z"
           id="path5" />
        <path
           style="color:#000000;fill:url(#linearGradient9);stroke-linecap:round;stroke-linejoin:round;-inkscape-stroke:none;paint-order:markers stroke fill"
           d="m 6.1335262,288.14848 1.0102236,1.34697 -1.3469648,2.69393 H 3.7763379 Z"
           id="path6" />
      </g>
      <g
         id="path3">
        <path
           style="color:#000000;fill:#2a8e5b;stroke-linecap:round;stroke-linejoin:round;-inkscape-stroke:none;paint-order:markers stroke fill"
           d="m 6.1328125,287.8125 a 0.33677467,0.33677467 0 0 0 -0.2871094,0.50977 l 1.0097656,1.68359 a 0.33677467,0.33677467 0 0 0 0.5761719,0 l 1.0117188,-1.68359 A 0.33677467,0.33677467 0 0 0 8.1542969,287.8125 Z m 0.5957031,0.67187 h 0.8300781 l -0.4140625,0.69336 z"
           id="path7" />
        <path
           style="color:#000000;fill:url(#linearGradient5);stroke-linecap:round;stroke-linejoin:round;-inkscape-stroke:none;paint-order:markers stroke fill"
           d="m 6.1335262,288.14848 h 2.0204472 l -1.0102236,1.68371 z"
           id="path8" />
      </g>
      <g
         id="path2">
        <path
           style="color:#000000;fill:#3584d9;stroke-linecap:round;stroke-linejoin:round;-inkscape-stroke:none;paint-order:markers stroke fill"
           d="m 5.796875,291.85352 a 0.33677467,0.33677467 0 0 0 -0.2890625,0.1621 l -1.0097656,1.6836 a 0.33677467,0.33677467 0 0 0 0.2890625,0.50976 H 9.5 a 0.33677467,0.33677467 0 0 0 0.2890625,-0.50976 l -1.0097656,-1.6836 a 0.33677467,0.33677467 0 0 0 -0.2890625,-0.1621 z m 0.1914062,0.67187 h 2.3125001 l 0.6074218,1.01172 H 5.3808594 Z"
           id="path11" />
        <path
           style="color:#000000;fill:url(#linearGradient13);stroke-linecap:round;stroke-linejoin:round;-inkscape-stroke:none;paint-order:markers stroke fill"
           d="m 4.7865615,293.87309 1.0102235,-1.68371 h 2.6939296 l 1.0102235,1.68371 z"
           id="path12" />
      </g>
      <g
         id="path1">
        <path
           style="color:#000000;fill:#3182d8;stroke-linecap:round;stroke-linejoin:round;-inkscape-stroke:none;paint-order:markers stroke fill"
           d="m 3.7753906,291.85352 a 0.33677467,0.33677467 0 0 0 -0.2871093,0.50976 l 1.0097656,1.68359 a 0.33677467,0.33677467 0 0 0 0.578125,0 l 1.0097656,-1.68359 A 0.33677467,0.33677467 0 0 0 5.796875,291.85352 Z m 0.5957031,0.67187 h 0.8300782 l -0.4140625,0.69141 z"
           id="path13" />
        <path
           style="color:#000000;fill:url(#linearGradient11);stroke-linecap:round;stroke-linejoin:round;-inkscape-stroke:none;paint-order:markers stroke fill"
           d="M 4.7865615,293.87309 3.7763379,292.18938 H 5.796785 Z"
           id="path14" />
      </g>
      <g
         id="path1-6">
        <path
           style="color:#000000;fill:#c54345;stroke-linecap:round;stroke-linejoin:round;-inkscape-stroke:none;paint-order:markers stroke fill"
           d="m 8.4902344,291.85352 a 0.33677467,0.33677467 0 0 0 -0.2890625,0.50976 l 1.0117187,1.68359 a 0.33677467,0.33677467 0 0 0 0.5761719,0 l 1.0117185,-1.68359 a 0.33677467,0.33677467 0 0 0 -0.289062,-0.50976 z m 0.5957031,0.67187 H 9.9160156 L 9.5,293.21875 Z"
           id="path15" />
        <path
           style="color:#000000;fill:url(#linearGradient15);stroke-linecap:round;stroke-linejoin:round;-inkscape-stroke:none;paint-order:markers stroke fill"
           d="m 9.5009381,293.87309 1.0102239,-1.68371 H 8.4907145 Z"
           id="path16" />
      </g>
    </g>
  </g>
</svg>
