<?xml version="1.0" encoding="UTF-8" standalone="no"?>
<svg
   height="22"
   viewBox="0 0 22 22"
   width="22"
   version="1.1"
   id="svg6"
   sodipodi:docname="folder-torrents.svg"
   inkscape:version="1.3.2 (091e20ef0f, 2023-11-25, custom)"
   xml:space="preserve"
   xmlns:inkscape="http://www.inkscape.org/namespaces/inkscape"
   xmlns:sodipodi="http://sodipodi.sourceforge.net/DTD/sodipodi-0.dtd"
   xmlns:xlink="http://www.w3.org/1999/xlink"
   xmlns="http://www.w3.org/2000/svg"
   xmlns:svg="http://www.w3.org/2000/svg"
   xmlns:rdf="http://www.w3.org/1999/02/22-rdf-syntax-ns#"
   xmlns:cc="http://creativecommons.org/ns#"
   xmlns:dc="http://purl.org/dc/elements/1.1/"><metadata
     id="metadata10"><rdf:RDF><cc:Work
         rdf:about=""><dc:format>image/svg+xml</dc:format><dc:type
           rdf:resource="http://purl.org/dc/dcmitype/StillImage" /></cc:Work></rdf:RDF></metadata><sodipodi:namedview
     pagecolor="#ffffff"
     bordercolor="#666666"
     borderopacity="1"
     objecttolerance="10"
     gridtolerance="10"
     guidetolerance="10"
     inkscape:pageopacity="0"
     inkscape:pageshadow="2"
     inkscape:window-width="2560"
     inkscape:window-height="1364"
     id="namedview8"
     showgrid="true"
     inkscape:zoom="32"
     inkscape:cx="14.765625"
     inkscape:cy="6.03125"
     inkscape:window-x="0"
     inkscape:window-y="0"
     inkscape:window-maximized="1"
     inkscape:current-layer="g1470"
     inkscape:showpageshadow="2"
     inkscape:pagecheckerboard="0"
     inkscape:deskcolor="#d1d1d1"><inkscape:grid
       type="xygrid"
       id="grid817"
       originx="0"
       originy="0"
       spacingy="1"
       spacingx="1"
       units="px"
       visible="true" /></sodipodi:namedview><defs
     id="defs2"><style
       type="text/css"
       id="current-color-scheme">
      .ColorScheme-Text {
        color:#36404d;
      }
      </style><style
       type="text/css"
       id="current-color-scheme-79">
      .ColorScheme-Text {
        color:#36404d;
      }
      </style><style
       type="text/css"
       id="current-color-scheme-67">
      .ColorScheme-Text {
        color:#122036;
      }
      </style><style
       type="text/css"
       id="current-color-scheme-7">
      .ColorScheme-Text {
        color:#122036;
      }
      </style><style
       type="text/css"
       id="current-color-scheme-5">
      .ColorScheme-Text {
        color:#122036;
      }
      </style><style
       type="text/css"
       id="current-color-scheme-6">
      .ColorScheme-Text {
        color:#122036;
      }
      </style><style
       type="text/css"
       id="current-color-scheme-1">
      .ColorScheme-Text {
        color:#122036;
      }
      </style><style
       id="current-color-scheme-10"
       type="text/css">
      .ColorScheme-Text {
        color:#122036;
      }
      </style><style
       id="current-color-scheme-5-7"
       type="text/css">
      .ColorScheme-Text {
        color:#122036;
      }
      </style><style
       id="current-color-scheme-1-2"
       type="text/css">
      .ColorScheme-Text {
        color:#122036;
      }
      </style><style
       type="text/css"
       id="current-color-scheme-10-9">
      .ColorScheme-Text {
        color:#122036;
      }
      </style><style
       type="text/css"
       id="current-color-scheme-29">
      .ColorScheme-Text {
        color:#36404d;
      }
      </style><style
       type="text/css"
       id="current-color-scheme-67-1">
      .ColorScheme-Text {
        color:#122036;
      }
      </style><style
       type="text/css"
       id="current-color-scheme-7-2">
      .ColorScheme-Text {
        color:#122036;
      }
      </style><style
       type="text/css"
       id="current-color-scheme-5-70">
      .ColorScheme-Text {
        color:#122036;
      }
      </style><style
       type="text/css"
       id="current-color-scheme-6-9">
      .ColorScheme-Text {
        color:#122036;
      }
      </style><style
       type="text/css"
       id="current-color-scheme-1-3">
      .ColorScheme-Text {
        color:#122036;
      }
      </style><style
       id="current-color-scheme-10-6"
       type="text/css">
      .ColorScheme-Text {
        color:#122036;
      }
      </style><style
       id="current-color-scheme-5-7-0"
       type="text/css">
      .ColorScheme-Text {
        color:#122036;
      }
      </style><style
       id="current-color-scheme-1-2-6"
       type="text/css">
      .ColorScheme-Text {
        color:#122036;
      }
      </style><style
       type="text/css"
       id="current-color-scheme-10-9-2">
      .ColorScheme-Text {
        color:#122036;
      }
      </style><style
       type="text/css"
       id="current-color-scheme-2">
      .ColorScheme-Text {
        color:#36404d;
      }
      </style><style
       type="text/css"
       id="current-color-scheme-67-9">
      .ColorScheme-Text {
        color:#122036;
      }
      </style><style
       type="text/css"
       id="current-color-scheme-7-1">
      .ColorScheme-Text {
        color:#122036;
      }
      </style><style
       type="text/css"
       id="current-color-scheme-5-2">
      .ColorScheme-Text {
        color:#122036;
      }
      </style><style
       type="text/css"
       id="current-color-scheme-6-7">
      .ColorScheme-Text {
        color:#122036;
      }
      </style><style
       type="text/css"
       id="current-color-scheme-1-0">
      .ColorScheme-Text {
        color:#122036;
      }
      </style><style
       id="current-color-scheme-10-93"
       type="text/css">
      .ColorScheme-Text {
        color:#122036;
      }
      </style><style
       id="current-color-scheme-5-7-6"
       type="text/css">
      .ColorScheme-Text {
        color:#122036;
      }
      </style><style
       id="current-color-scheme-1-2-0"
       type="text/css">
      .ColorScheme-Text {
        color:#122036;
      }
      </style><style
       type="text/css"
       id="current-color-scheme-10-9-6">
      .ColorScheme-Text {
        color:#122036;
      }
      </style><style
       type="text/css"
       id="current-color-scheme-20">
      .ColorScheme-Text {
        color:#122036;
      }
      </style><style
       type="text/css"
       id="current-color-scheme-1-23">
      .ColorScheme-Text {
        color:#122036;
      }
      </style><style
       id="current-color-scheme-10-7"
       type="text/css">
      .ColorScheme-Text {
        color:#122036;
      }
      </style><style
       id="current-color-scheme-6-5"
       type="text/css">
      .ColorScheme-Text {
        color:#122036;
      }
      </style><style
       id="current-color-scheme-1-9"
       type="text/css">
      .ColorScheme-Text {
        color:#122036;
      }
      </style><style
       type="text/css"
       id="current-color-scheme-10-1">
      .ColorScheme-Text {
        color:#122036;
      }
      </style><style
       id="current-color-scheme-56"
       type="text/css">
      .ColorScheme-Text {
        color:#122036;
      }
      </style><style
       id="current-color-scheme-1-91"
       type="text/css">
      .ColorScheme-Text {
        color:#122036;
      }
      </style><style
       type="text/css"
       id="current-color-scheme-10-2">
      .ColorScheme-Text {
        color:#122036;
      }
      </style><style
       type="text/css"
       id="current-color-scheme-5-9">
      .ColorScheme-Text {
        color:#122036;
      }
      </style><style
       type="text/css"
       id="current-color-scheme-1-2-2">
      .ColorScheme-Text {
        color:#122036;
      }
      </style><style
       id="current-color-scheme-10-9-28"
       type="text/css">
      .ColorScheme-Text {
        color:#122036;
      }
      </style><style
       id="current-color-scheme-6-7-9"
       type="text/css">
      .ColorScheme-Text {
        color:#122036;
      }
      </style><style
       id="current-color-scheme-1-9-0"
       type="text/css">
      .ColorScheme-Text {
        color:#122036;
      }
      </style><style
       type="text/css"
       id="current-color-scheme-10-1-9">
      .ColorScheme-Text {
        color:#122036;
      }
      </style><style
       type="text/css"
       id="current-color-scheme-59">
      .ColorScheme-Text {
        color:#36404d;
      }
      </style><linearGradient
       inkscape:collect="always"
       xlink:href="#linearGradient16188-3"
       id="linearGradient16190-7"
       x1="-0.79374999"
       y1="5.8208332"
       x2="-0.79374999"
       y2="1.5875"
       gradientUnits="userSpaceOnUse"
       gradientTransform="translate(3.96875,-0.52916651)" /><linearGradient
       inkscape:collect="always"
       id="linearGradient16188-3"><stop
         style="stop-color:#6b7cdb;stop-opacity:1;"
         offset="0"
         id="stop16184-5" /><stop
         style="stop-color:#8593e4;stop-opacity:1;"
         offset="1"
         id="stop16186-6" /></linearGradient><style
       type="text/css"
       id="current-color-scheme-93">
      .ColorScheme-Text {
        color:#122036;
      }
      </style><style
       id="current-color-scheme-675"
       type="text/css">
      .ColorScheme-Text {
        color:#122036;
      }
      </style><style
       id="current-color-scheme-1-1"
       type="text/css">
      .ColorScheme-Text {
        color:#122036;
      }
      </style><style
       type="text/css"
       id="current-color-scheme-10-94">
      .ColorScheme-Text {
        color:#122036;
      }
      </style><style
       type="text/css"
       id="current-color-scheme-5-78">
      .ColorScheme-Text {
        color:#122036;
      }
      </style><style
       type="text/css"
       id="current-color-scheme-1-2-4">
      .ColorScheme-Text {
        color:#122036;
      }
      </style><style
       id="current-color-scheme-10-9-5"
       type="text/css">
      .ColorScheme-Text {
        color:#122036;
      }
      </style><style
       id="current-color-scheme-9"
       type="text/css">
      .ColorScheme-Text {
        color:#122036;
      }
      </style><style
       id="current-color-scheme-2-0"
       type="text/css">
      .ColorScheme-Text {
        color:#122036;
      }
      </style><style
       id="current-color-scheme-4"
       type="text/css">
      .ColorScheme-Text {
        color:#122036;
      }
      </style><style
       id="current-color-scheme-7-3"
       type="text/css">
      .ColorScheme-Text {
        color:#122036;
      }
      </style><style
       id="current-color-scheme-5-0"
       type="text/css">
      .ColorScheme-Text {
        color:#122036;
      }
      </style><style
       type="text/css"
       id="current-color-scheme-9-6">
      .ColorScheme-Text {
        color:#122036;
      }
      </style><style
       type="text/css"
       id="current-color-scheme-1-29">
      .ColorScheme-Text {
        color:#122036;
      }
      </style><style
       id="current-color-scheme-10-90"
       type="text/css">
      .ColorScheme-Text {
        color:#122036;
      }
      </style><style
       type="text/css"
       id="current-color-scheme-6-6">
      .ColorScheme-Text {
        color:#122036;
      }
      </style><style
       type="text/css"
       id="current-color-scheme-7-1-1">
      .ColorScheme-Text {
        color:#122036;
      }
      </style><style
       type="text/css"
       id="current-color-scheme-5-2-06">
      .ColorScheme-Text {
        color:#122036;
      }
      </style><style
       id="current-color-scheme-67-3"
       type="text/css">
      .ColorScheme-Text {
        color:#122036;
      }
      </style><style
       type="text/css"
       id="current-color-scheme-3">
      .ColorScheme-Text {
        color:#122036;
      }
      </style><style
       type="text/css"
       id="current-color-scheme-7-5">
      .ColorScheme-Text {
        color:#122036;
      }
      </style><style
       type="text/css"
       id="current-color-scheme-5-6">
      .ColorScheme-Text {
        color:#122036;
      }
      </style><style
       id="current-color-scheme-9-9"
       type="text/css">
      .ColorScheme-Text {
        color:#122036;
      }
      </style><style
       id="current-color-scheme-1-8"
       type="text/css">
      .ColorScheme-Text {
        color:#122036;
      }
      </style><style
       type="text/css"
       id="current-color-scheme-10-7-20">
      .ColorScheme-Text {
        color:#122036;
      }
      </style><style
       id="current-color-scheme-6-2"
       type="text/css">
      .ColorScheme-Text {
        color:#122036;
      }
      </style><style
       id="current-color-scheme-7-1-8"
       type="text/css">
      .ColorScheme-Text {
        color:#122036;
      }
      </style><style
       id="current-color-scheme-5-2-2"
       type="text/css">
      .ColorScheme-Text {
        color:#122036;
      }
      </style><style
       id="current-color-scheme-13"
       type="text/css">
      .ColorScheme-Text {
        color:#122036;
      }
      </style><style
       id="current-color-scheme-7-2-61"
       type="text/css">
      .ColorScheme-Text {
        color:#122036;
      }
      </style><style
       id="current-color-scheme-5-1"
       type="text/css">
      .ColorScheme-Text {
        color:#122036;
      }
      </style><style
       type="text/css"
       id="current-color-scheme-9-5">
      .ColorScheme-Text {
        color:#122036;
      }
      </style><style
       type="text/css"
       id="current-color-scheme-1-9-5">
      .ColorScheme-Text {
        color:#122036;
      }
      </style><style
       id="current-color-scheme-10-91"
       type="text/css">
      .ColorScheme-Text {
        color:#122036;
      }
      </style><style
       type="text/css"
       id="current-color-scheme-6-4">
      .ColorScheme-Text {
        color:#122036;
      }
      </style><style
       type="text/css"
       id="current-color-scheme-7-1-9">
      .ColorScheme-Text {
        color:#122036;
      }
      </style><style
       type="text/css"
       id="current-color-scheme-5-2-1">
      .ColorScheme-Text {
        color:#122036;
      }
      </style><style
       id="current-color-scheme-56-5"
       type="text/css">
      .ColorScheme-Text {
        color:#122036;
      }
      </style><style
       id="current-color-scheme-1-291"
       type="text/css">
      .ColorScheme-Text {
        color:#122036;
      }
      </style><style
       type="text/css"
       id="current-color-scheme-10-2-4">
      .ColorScheme-Text {
        color:#122036;
      }
      </style><style
       type="text/css"
       id="current-color-scheme-5-7-7">
      .ColorScheme-Text {
        color:#122036;
      }
      </style><style
       type="text/css"
       id="current-color-scheme-1-2-0-6">
      .ColorScheme-Text {
        color:#122036;
      }
      </style><style
       id="current-color-scheme-10-9-9"
       type="text/css">
      .ColorScheme-Text {
        color:#122036;
      }
      </style><style
       id="current-color-scheme-9-3"
       type="text/css">
      .ColorScheme-Text {
        color:#122036;
      }
      </style><style
       id="current-color-scheme-2-6"
       type="text/css">
      .ColorScheme-Text {
        color:#122036;
      }
      </style><style
       id="current-color-scheme-4-0"
       type="text/css">
      .ColorScheme-Text {
        color:#122036;
      }
      </style><style
       id="current-color-scheme-7-6"
       type="text/css">
      .ColorScheme-Text {
        color:#122036;
      }
      </style><style
       id="current-color-scheme-5-0-2"
       type="text/css">
      .ColorScheme-Text {
        color:#122036;
      }
      </style><style
       type="text/css"
       id="current-color-scheme-9-6-6">
      .ColorScheme-Text {
        color:#122036;
      }
      </style><style
       type="text/css"
       id="current-color-scheme-1-29-1">
      .ColorScheme-Text {
        color:#122036;
      }
      </style><style
       id="current-color-scheme-10-90-8"
       type="text/css">
      .ColorScheme-Text {
        color:#122036;
      }
      </style><style
       type="text/css"
       id="current-color-scheme-6-7-5">
      .ColorScheme-Text {
        color:#122036;
      }
      </style><style
       type="text/css"
       id="current-color-scheme-7-1-92">
      .ColorScheme-Text {
        color:#122036;
      }
      </style><style
       type="text/css"
       id="current-color-scheme-5-2-0">
      .ColorScheme-Text {
        color:#122036;
      }
      </style><style
       id="current-color-scheme-67-2"
       type="text/css">
      .ColorScheme-Text {
        color:#122036;
      }
      </style><style
       type="text/css"
       id="current-color-scheme-3-3">
      .ColorScheme-Text {
        color:#122036;
      }
      </style><style
       type="text/css"
       id="current-color-scheme-7-5-7">
      .ColorScheme-Text {
        color:#122036;
      }
      </style><style
       type="text/css"
       id="current-color-scheme-5-6-5">
      .ColorScheme-Text {
        color:#122036;
      }
      </style><style
       id="current-color-scheme-9-9-9"
       type="text/css">
      .ColorScheme-Text {
        color:#122036;
      }
      </style><style
       id="current-color-scheme-1-8-2"
       type="text/css">
      .ColorScheme-Text {
        color:#122036;
      }
      </style><style
       type="text/css"
       id="current-color-scheme-10-7-2">
      .ColorScheme-Text {
        color:#122036;
      }
      </style><style
       id="current-color-scheme-6-2-8"
       type="text/css">
      .ColorScheme-Text {
        color:#122036;
      }
      </style><style
       id="current-color-scheme-7-1-8-9"
       type="text/css">
      .ColorScheme-Text {
        color:#122036;
      }
      </style><style
       id="current-color-scheme-5-2-2-7"
       type="text/css">
      .ColorScheme-Text {
        color:#122036;
      }
      </style><style
       id="current-color-scheme-13-3"
       type="text/css">
      .ColorScheme-Text {
        color:#122036;
      }
      </style><style
       id="current-color-scheme-7-2-6"
       type="text/css">
      .ColorScheme-Text {
        color:#122036;
      }
      </style><style
       id="current-color-scheme-5-1-1"
       type="text/css">
      .ColorScheme-Text {
        color:#122036;
      }
      </style><style
       type="text/css"
       id="current-color-scheme-9-5-2">
      .ColorScheme-Text {
        color:#122036;
      }
      </style><style
       type="text/css"
       id="current-color-scheme-1-9-9">
      .ColorScheme-Text {
        color:#122036;
      }
      </style><style
       id="current-color-scheme-10-91-3"
       type="text/css">
      .ColorScheme-Text {
        color:#122036;
      }
      </style><style
       type="text/css"
       id="current-color-scheme-6-4-1">
      .ColorScheme-Text {
        color:#122036;
      }
      </style><style
       type="text/css"
       id="current-color-scheme-7-1-9-9">
      .ColorScheme-Text {
        color:#122036;
      }
      </style><style
       type="text/css"
       id="current-color-scheme-5-2-1-4">
      .ColorScheme-Text {
        color:#122036;
      }
      </style></defs><g
     id="g1470"
     transform="translate(3.7040394,-289.06237)"><g
       inkscape:label="Capa 1"
       id="layer1-6"
       transform="matrix(3.7795277,0,0,3.7795277,-4.7040394,288.06237)"><path
         id="rect15701-1"
         style="opacity:1;fill:#4a5599;fill-opacity:1;stroke-width:0.529167;stroke-linecap:round;stroke-linejoin:round;stroke-miterlimit:1.8;paint-order:fill markers stroke;stop-color:#000000"
         d="m 3.1749999,0.52916664 c 1.4657916,0 2.6458332,1.18004166 2.6458332,2.64583326 0,1.4657916 -1.1800416,2.6458332 -2.6458332,2.6458332 -1.4657916,0 -2.64583326,-1.1800416 -2.64583326,-2.6458332 0,-1.4657916 1.18004166,-2.64583326 2.64583326,-2.64583326 z" /><path
         id="rect15701-2-8"
         style="fill:url(#linearGradient16190-7);stroke-width:0.47625;stroke-linecap:round;stroke-linejoin:round;stroke-miterlimit:1.8;paint-order:fill markers stroke;stop-color:#000000"
         d="m 3.175,0.79374999 c 1.3192124,0 2.3812499,1.06203741 2.3812499,2.38124991 0,1.3192124 -1.0620375,2.3812499 -2.3812499,2.3812499 -1.3192125,0 -2.38124995,-1.0620375 -2.38124995,-2.3812499 0,-1.3192125 1.06203745,-2.38124991 2.38124995,-2.38124991 z" /></g><path
       id="rect15701-2-8-8-6"
       style="fill:#4a5599;fill-opacity:1;stroke:none;stroke-width:1.8;stroke-linecap:round;stroke-linejoin:round;stroke-miterlimit:1.8;stroke-opacity:1;paint-order:fill markers stroke;stop-color:#000000"
       d="m 7.2295538,294.05737 a 6.9999998,6.9999998 0 0 0 -4.882812,2.05078 6.9999998,6.9999998 0 0 0 -1.517578,7.62891 6.9999998,6.9999998 0 0 0 6.466797,4.32031 h 5.6660162 c 0.37632,-0.3046 0.728475,-0.63925 1.050782,-1 H 7.2959608 a 6.0000002,6.0000002 0 0 1 -5.542969,-3.70313 6.0000002,6.0000002 0 0 1 1.300781,-6.53906 6.0000002,6.0000002 0 0 1 4.179688,-1.75781 v -0.0137 a 6.0000002,6.0000002 0 0 1 2.359375,0.45703 6.0000002,6.0000002 0 0 1 3.7031262,5.54297 h -1 a 4.9999999,4.9999999 0 0 0 0,0.002 4.9999999,4.9999999 0 0 0 0,0.004 4.9999999,4.9999999 0 0 0 0,0.002 4.9999999,4.9999999 0 0 0 0,0.002 4.9999999,4.9999999 0 0 0 0,0.002 4.9999999,4.9999999 0 0 0 0,0.002 4.9999999,4.9999999 0 0 0 0,0.002 h 2 a 6.9999998,6.9999998 0 0 0 -4.320314,-6.4668 6.9999998,6.9999998 0 0 0 -2.7460942,-0.5332 z m 5.0664082,6.98633 a 4.9999999,4.9999999 0 0 0 -3.0859392,-4.60547 4.9999999,4.9999999 0 0 0 -1.835937,-0.38086 4.9999999,4.9999999 0 0 0 -3.613282,1.46484 4.9999999,4.9999999 0 0 0 -1.083984,5.44922 4.9999999,4.9999999 0 0 0 4.619141,3.08594 h 7.4921882 c 0.185418,-0.278 0.353719,-0.56834 0.507813,-0.86719 v -0.13281 H 7.2959608 a 4,4 0 0 1 -3.695313,-2.46875 4,4 0 0 1 0.867188,-4.35938 4,4 0 0 1 2.828125,-1.17187 v -0.002 a 4,4 0 0 1 1.53125,0.30468 4,4 0 0 1 2.4687512,3.6836 z m -1,0 h -1 a 3.0000001,3.0000001 0 0 1 0,0.002 3.0000001,3.0000001 0 0 1 0,0.002 3.0000001,3.0000001 0 0 1 0,0.002 3.0000001,3.0000001 0 0 1 0,0.002 3.0000001,3.0000001 0 0 1 0,0.002 3.0000001,3.0000001 0 0 1 0,0.002 3.0000001,3.0000001 0 0 1 0,0.002 3.0000001,3.0000001 0 0 1 0,0.002 h 1 a 4,4 0 0 1 0,-0.004 4,4 0 0 1 0,-0.002 4,4 0 0 1 0,-0.002 4,4 0 0 1 0,-0.002 4,4 0 0 1 0,-0.004 4,4 0 0 1 0,-0.002 z m -1,0 a 3.0000001,3.0000001 0 0 1 0,-0.002 3.0000001,3.0000001 0 0 1 0,-0.002 3.0000001,3.0000001 0 0 1 0,-0.002 3.0000001,3.0000001 0 0 1 0,-0.002 3.0000001,3.0000001 0 0 1 0,-0.002 3.0000001,3.0000001 0 0 1 0,-0.002 3.0000001,3.0000001 0 0 1 0,-0.002 3.0000001,3.0000001 0 0 1 0,-0.002 3.0000001,3.0000001 0 0 1 0,-0.002 3.0000001,3.0000001 0 0 1 0,-0.002 3.0000001,3.0000001 0 0 1 0,-0.002 3.0000001,3.0000001 0 0 1 0,-0.002 3.0000001,3.0000001 0 0 1 0,-0.002 3.0000001,3.0000001 0 0 1 0,-0.002 3.0000001,3.0000001 0 0 1 0,-0.002 3.0000001,3.0000001 0 0 1 0,-0.002 3.0000001,3.0000001 0 0 1 0,-0.002 3.0000001,3.0000001 0 0 1 0,-0.002 3.0000001,3.0000001 0 0 1 0,-0.002 3.0000001,3.0000001 0 0 1 0,-0.002 3.0000001,3.0000001 0 0 1 0,-0.002 3.0000001,3.0000001 0 0 1 0,-0.002 3.0000001,3.0000001 0 0 1 0,-0.002 3.0000001,3.0000001 0 0 1 0,-0.002 3.0000001,3.0000001 0 0 1 0,-0.002 3.0000001,3.0000001 0 0 0 -0.002,-0.0605 3.0000001,3.0000001 0 0 0 -0.0039,-0.0625 3.0000001,3.0000001 0 0 0 -0.0039,-0.0606 3.0000001,3.0000001 0 0 0 -0.0059,-0.0605 3.0000001,3.0000001 0 0 0 -0.0059,-0.0605 3.0000001,3.0000001 0 0 0 -0.0078,-0.0605 3.0000001,3.0000001 0 0 0 -0.0098,-0.0605 3.0000001,3.0000001 0 0 0 -0.01172,-0.0586 3.0000001,3.0000001 0 0 0 -0.01172,-0.0605 3.0000001,3.0000001 0 0 0 -0.01172,-0.0586 3.0000001,3.0000001 0 0 0 -0.01367,-0.0605 3.0000001,3.0000001 0 0 0 -0.01563,-0.0586 3.0000001,3.0000001 0 0 0 -0.01758,-0.0586 3.0000001,3.0000001 0 0 0 -0.01758,-0.0586 3.0000001,3.0000001 0 0 0 -0.01758,-0.0566 3.0000001,3.0000001 0 0 0 -0.02149,-0.0586 3.0000001,3.0000001 0 0 0 -0.02148,-0.0566 3.0000001,3.0000001 0 0 0 -0.02149,-0.0566 3.0000001,3.0000001 0 0 0 -0.02344,-0.0566 3.0000001,3.0000001 0 0 0 -0.02539,-0.0566 3.0000001,3.0000001 0 0 0 -0.02539,-0.0547 3.0000001,3.0000001 0 0 0 -0.02734,-0.0547 3.0000001,3.0000001 0 0 0 -0.02734,-0.0527 3.0000001,3.0000001 0 0 0 -0.0293,-0.0547 3.0000001,3.0000001 0 0 0 -0.0293,-0.0547 3.0000001,3.0000001 0 0 0 -0.03125,-0.0527 3.0000001,3.0000001 0 0 0 -0.033203,-0.0488 3.0000001,3.0000001 0 0 0 -0.033203,-0.0508 3.0000001,3.0000001 0 0 0 -0.033203,-0.0508 3.0000001,3.0000001 0 0 0 -0.037109,-0.0508 3.0000001,3.0000001 0 0 0 -0.035157,-0.0488 3.0000001,3.0000001 0 0 0 -0.037109,-0.0469 3.0000001,3.0000001 0 0 0 -0.039062,-0.0469 3.0000001,3.0000001 0 0 0 -0.039063,-0.0469 3.0000001,3.0000001 0 0 0 -0.041016,-0.0469 3.0000001,3.0000001 0 0 0 -0.041015,-0.0449 3.0000001,3.0000001 0 0 0 -0.041016,-0.043 3.0000001,3.0000001 0 0 0 -0.042969,-0.0449 3.0000001,3.0000001 0 0 0 -0.044921,-0.043 3.0000001,3.0000001 0 0 0 -0.044922,-0.041 3.0000001,3.0000001 0 0 0 -0.044922,-0.041 A 3.0000001,3.0000001 0 0 0 9.221587,298.7538 3.0000001,3.0000001 0 0 0 9.174712,298.7147 3.0000001,3.0000001 0 0 0 9.127837,298.6776 3.0000001,3.0000001 0 0 0 9.079009,298.6385 3.0000001,3.0000001 0 0 0 9.030181,298.6014 3.0000001,3.0000001 0 0 0 8.979399,298.5662 3.0000001,3.0000001 0 0 0 8.928618,298.533 3.0000001,3.0000001 0 0 0 8.877837,298.5018 3.0000001,3.0000001 0 0 0 8.825102,298.4725 3.0000001,3.0000001 0 0 0 8.772368,298.4432 3.0000001,3.0000001 0 0 0 8.719634,298.412 3.0000001,3.0000001 0 0 0 8.664946,298.3827 3.0000001,3.0000001 0 0 0 8.610259,298.3554 3.0000001,3.0000001 0 0 0 8.555571,298.328 3.0000001,3.0000001 0 0 0 8.500884,298.3026 3.0000001,3.0000001 0 0 0 8.444243,298.2792 3.0000001,3.0000001 0 0 0 8.205962,298.1933 3.0000001,3.0000001 0 0 0 7.963774,298.1249 3.0000001,3.0000001 0 0 0 7.715727,298.08 a 3.0000001,3.0000001 0 0 0 -0.251953,-0.0254 3.0000001,3.0000001 0 0 0 -0.251953,-0.002 3.0000001,3.0000001 0 0 0 -0.251953,0.0176 3.0000001,3.0000001 0 0 0 -0.25,0.0391 3.0000001,3.0000001 0 0 0 -0.244141,0.0586 3.0000001,3.0000001 0 0 0 -0.240234,0.0801 3.0000001,3.0000001 0 0 0 -0.230469,0.0996 3.0000001,3.0000001 0 0 0 -0.222656,0.11914 3.0000001,3.0000001 0 0 0 -0.212891,0.13672 3.0000001,3.0000001 0 0 0 -0.199218,0.1543 3.0000001,3.0000001 0 0 0 -0.185547,0.17188 3.0000001,3.0000001 0 0 0 -0.171875,0.18554 3.0000001,3.0000001 0 0 0 -0.154297,0.19922 3.0000001,3.0000001 0 0 0 -0.136719,0.21289 3.0000001,3.0000001 0 0 0 -0.11914,0.22266 3.0000001,3.0000001 0 0 0 -0.09961,0.23047 3.0000001,3.0000001 0 0 0 -0.080078,0.24023 3.0000001,3.0000001 0 0 0 -0.058594,0.24414 3.0000001,3.0000001 0 0 0 -0.039062,0.25 3.0000001,3.0000001 0 0 0 -0.017578,0.25195 3.0000001,3.0000001 0 0 0 0.00195,0.25391 3.0000001,3.0000001 0 0 0 0.02539,0.25195 3.0000001,3.0000001 0 0 0 0.046875,0.24805 3.0000001,3.0000001 0 0 0 0.066407,0.24219 3.0000001,3.0000001 0 0 0 0.085937,0.23828 3.0000001,3.0000001 0 0 0 0.105469,0.22852 3.0000001,3.0000001 0 0 0 0.125,0.21875 3.0000001,3.0000001 0 0 0 0.144531,0.20898 3.0000001,3.0000001 0 0 0 0.160156,0.19336 3.0000001,3.0000001 0 0 0 0.175782,0.18164 3.0000001,3.0000001 0 0 0 0.189453,0.16602 3.0000001,3.0000001 0 0 0 0.205078,0.14843 3.0000001,3.0000001 0 0 0 0.214844,0.13086 3.0000001,3.0000001 0 0 0 0.226562,0.11328 3.0000001,3.0000001 0 0 0 0.234375,0.0937 3.0000001,3.0000001 0 0 0 0.240235,0.0723 3.0000001,3.0000001 0 0 0 0.248046,0.0527 3.0000001,3.0000001 0 0 0 0.25,0.0332 3.0000001,3.0000001 0 0 0 0.251954,0.0117 v 0.002 h 8.490234 c 0.114065,-0.3247 0.208348,-0.65922 0.285156,-1 H 7.2959608 v -0.002 c -0.03462,0 -0.06933,-1.8e-4 -0.103516,-0.002 -0.03418,-0.002 -0.06786,-0.004 -0.101563,-0.008 -0.033699,-0.003 -0.066429,-0.009 -0.099609,-0.0156 -0.01659,-0.002 -0.034331,-0.004 -0.050781,-0.008 -0.01645,-0.003 -0.032518,-0.008 -0.048828,-0.0117 -0.03261,-0.008 -0.063703,-0.0139 -0.095703,-0.0215 -0.01639,-0.004 -0.032439,-0.009 -0.048829,-0.0156 -0.01584,-0.004 -0.031205,-0.009 -0.046875,-0.0156 -0.01567,-0.004 -0.031375,-0.01 -0.046875,-0.0137 -0.01551,-0.004 -0.031545,-0.0118 -0.046875,-0.0156 -0.01533,-0.004 -0.029771,-0.0119 -0.044921,-0.0195 -0.01515,-0.008 -0.029962,-0.01 -0.044922,-0.0176 -0.01496,-0.008 -0.030152,-0.0119 -0.044922,-0.0195 -0.01478,-0.008 -0.030352,-0.0158 -0.044922,-0.0234 -0.01459,-0.008 -0.028569,-0.0139 -0.042969,-0.0215 -0.01436,-0.008 -0.028799,-0.0158 -0.042969,-0.0234 -0.01417,-0.008 -0.027065,-0.0158 -0.041015,-0.0234 -0.01395,-0.008 -0.029219,-0.0178 -0.042969,-0.0254 -0.01376,-0.008 -0.027476,-0.0159 -0.041016,-0.0273 -0.01353,-0.008 -0.025782,-0.014 -0.039062,-0.0254 -0.0133,-0.008 -0.027966,-0.0197 -0.041016,-0.0273 -0.01308,-0.008 -0.024259,-0.018 -0.037109,-0.0293 -0.01281,-0.0113 -0.026503,-0.0199 -0.039063,-0.0312 -0.01259,-0.0113 -0.024749,-0.018 -0.037109,-0.0293 -0.01232,-0.0113 -0.025009,-0.0201 -0.037109,-0.0312 -0.01209,-0.0113 -0.023327,-0.018 -0.035157,-0.0293 -0.01183,-0.0113 -0.023586,-0.0239 -0.035156,-0.0352 -0.01156,-0.0113 -0.023846,-0.0219 -0.035156,-0.0332 -0.0113,-0.0113 -0.022173,-0.0219 -0.033203,-0.0332 -0.01104,-0.0113 -0.022433,-0.0238 -0.033203,-0.0351 -0.01073,-0.0113 -0.02078,-0.0219 -0.03125,-0.0332 -0.01047,-0.0113 -0.02108,-0.0278 -0.03125,-0.0391 -0.01017,-0.0113 -0.019427,-0.022 -0.029297,-0.0371 -0.0099,-0.0113 -0.019737,-0.0267 -0.029297,-0.0391 -0.0096,-0.0113 -0.020037,-0.0229 -0.029297,-0.0391 -0.0093,-0.0113 -0.018394,-0.0263 -0.027344,-0.041 -0.009,-0.0151 -0.01674,-0.0267 -0.02539,-0.0391 -0.0087,-0.0151 -0.017041,-0.0267 -0.025391,-0.041 -0.0084,-0.0151 -0.017381,-0.0301 -0.025391,-0.043 -0.008,-0.0151 -0.015767,-0.0267 -0.023437,-0.041 -0.0077,-0.0151 -0.014154,-0.0301 -0.021484,-0.043 -0.0073,-0.0151 -0.014495,-0.0301 -0.021485,-0.043 -0.007,-0.0151 -0.014834,-0.0301 -0.021484,-0.0449 -0.0067,-0.0151 -0.013221,-0.0301 -0.019531,-0.0449 -0.0063,-0.0151 -0.011639,-0.0301 -0.017579,-0.0449 -0.0059,-0.0151 -0.011978,-0.0301 -0.017578,-0.0449 -0.0056,-0.0151 -0.010405,-0.0302 -0.015625,-0.0469 -0.0052,-0.0151 -0.010785,-0.0302 -0.015625,-0.0469 -0.0048,-0.0151 -0.0092,-0.0302 -0.013672,-0.0469 -0.0045,-0.0151 -0.0095,-0.034 -0.013671,-0.0488 -0.0041,-0.0151 -0.008,-0.0302 -0.011719,-0.0469 -0.0037,-0.0151 -0.00647,-0.034 -0.00977,-0.0488 -0.0033,-0.0151 -0.00686,-0.0341 -0.00976,-0.0488 -0.0029,-0.0151 -0.00531,-0.0341 -0.00781,-0.0508 -0.0025,-0.0151 -0.00571,-0.0302 -0.00781,-0.0488 -0.0021,-0.0151 -0.00416,-0.0342 -0.00586,-0.0508 -0.0028,-0.0302 -0.00631,-0.058 -0.00781,-0.0879 -0.0017,-0.034 -0.00195,-0.0688 -0.00195,-0.10352 0,-0.004 -1.1e-5,-0.009 0,-0.0156 0,-0.0189 -4.34e-4,-0.0338 0,-0.0527 3.16e-4,-0.0151 0.00135,-0.0258 0.00195,-0.0371 0.0017,-0.034 0.00441,-0.0679 0.00781,-0.10156 3.63e-4,-0.004 -4.52e-4,-0.009 0,-0.0156 0.0017,-0.0151 0.00376,-0.0342 0.00586,-0.0508 0.0021,-0.0151 0.00531,-0.034 0.00781,-0.0488 0.0025,-0.0151 0.00491,-0.0342 0.00781,-0.0508 0.0029,-0.0151 0.00647,-0.034 0.00976,-0.0469 0.0033,-0.0151 0.00607,-0.034 0.00977,-0.0488 0.0037,-0.0151 0.0076,-0.0341 0.011719,-0.0488 0.0041,-0.0151 0.0092,-0.0302 0.013671,-0.0469 0.0045,-0.0151 0.0088,-0.0302 0.013672,-0.0469 0.0048,-0.0151 0.010405,-0.0302 0.015625,-0.0469 0.0052,-0.0151 0.010025,-0.0302 0.015625,-0.0469 0.0056,-0.0151 0.011648,-0.0301 0.017578,-0.0449 0.006,-0.0151 0.011269,-0.0301 0.017579,-0.0449 0.0063,-0.0151 0.012881,-0.0301 0.019531,-0.0449 0.0066,-0.0151 0.014494,-0.034 0.021484,-0.0469 0.007,-0.0151 0.014155,-0.0301 0.021485,-0.043 0.0073,-0.0151 0.013814,-0.0301 0.021484,-0.043 0.0077,-0.0151 0.015417,-0.0301 0.023437,-0.043 0.008,-0.0151 0.017041,-0.0263 0.025391,-0.041 0.0084,-0.0151 0.016741,-0.0263 0.025391,-0.041 0.0087,-0.0151 0.01643,-0.0267 0.02539,-0.0391 0.009,-0.0151 0.018084,-0.0263 0.027344,-0.041 0.0093,-0.0113 0.019737,-0.022 0.029297,-0.0371 0.0096,-0.0113 0.019427,-0.0267 0.029297,-0.0391 0.0099,-0.0113 0.019127,-0.0266 0.029297,-0.0391 0.01017,-0.0113 0.02078,-0.0278 0.03125,-0.0391 0.01047,-0.0113 0.02052,-0.0219 0.03125,-0.0332 0.01073,-0.0113 0.022203,-0.0219 0.033203,-0.0332 0.01104,-0.0113 0.021863,-0.0238 0.033203,-0.0351 0.0113,-0.0113 0.023586,-0.0219 0.035156,-0.0332 0.01157,-0.0113 0.023326,-0.0239 0.035156,-0.0352 0.01183,-0.0113 0.023057,-0.018 0.035157,-0.0293 0.01209,-0.0113 0.024749,-0.0239 0.037109,-0.0312 0.01232,-0.0113 0.024519,-0.018 0.037109,-0.0293 0.01259,-0.0113 0.026233,-0.02 0.039063,-0.0312 0.01281,-0.0113 0.024029,-0.018 0.037109,-0.0293 0.01308,-0.008 0.027696,-0.0197 0.041016,-0.0274 0.0133,-0.008 0.025552,-0.0141 0.039062,-0.0254 0.01353,-0.008 0.027286,-0.0197 0.041016,-0.0273 0.01376,-0.008 0.029029,-0.0178 0.042969,-0.0254 0.01395,-0.008 0.026845,-0.0158 0.041015,-0.0234 0.01417,-0.008 0.028569,-0.0139 0.042969,-0.0215 0.01436,-0.008 0.028379,-0.0158 0.042969,-0.0234 0.01459,-0.008 0.030162,-0.0158 0.044922,-0.0234 0.01478,-0.008 0.029972,-0.0138 0.044922,-0.0176 0.01496,-0.008 0.029772,-0.0119 0.044922,-0.0195 0.01515,-0.008 0.029591,-0.0119 0.044921,-0.0195 0.01533,-0.004 0.031375,-0.01 0.046875,-0.0137 0.01551,-0.004 0.031205,-0.0118 0.046875,-0.0156 0.01567,-0.004 0.031035,-0.009 0.046875,-0.0156 0.01584,-0.004 0.032829,-0.0118 0.048829,-0.0156 0.016,-0.004 0.030725,-0.006 0.046875,-0.01 0.01615,-0.004 0.032518,-0.008 0.048828,-0.0117 0.01631,-0.003 0.032378,-0.008 0.048828,-0.0117 0.01645,-0.003 0.034191,-0.004 0.050781,-0.008 0.01659,-0.003 0.032108,-0.008 0.048828,-0.008 0.01672,-0.002 0.033931,-0.004 0.050781,-0.008 0.01685,-0.002 0.033812,-0.003 0.050782,-0.004 0.01697,-0.001 0.033691,-0.005 0.050781,-0.006 0.01709,-8.7e-4 0.033581,-0.002 0.050781,-0.002 0.0172,-4.1e-4 0.035425,0 0.052735,0 0.01731,0 0.035524,-4.1e-4 0.052734,0 0.0172,4.2e-4 0.033691,9e-4 0.050781,0.002 0.01709,8.3e-4 0.033811,0.005 0.050781,0.006 0.01697,10e-4 0.033932,0.002 0.050782,0.004 0.01685,0.002 0.034061,0.004 0.050781,0.008 0.01672,0.002 0.032238,0.004 0.048828,0.008 0.01659,0.003 0.034331,0.004 0.050781,0.008 0.01645,0.003 0.032518,0.008 0.048828,0.0117 0.0163,0.003 0.032669,0.008 0.048829,0.0117 0.01615,0.004 0.030875,0.006 0.046875,0.01 0.016,0.004 0.032988,0.009 0.048828,0.0156 0.01584,0.004 0.031205,0.009 0.046875,0.0156 0.01567,0.004 0.031375,0.0118 0.046875,0.0156 0.01551,0.004 0.031545,0.01 0.046875,0.0137 0.01533,0.004 0.029772,0.0119 0.044922,0.0195 0.01515,0.008 0.029961,0.0119 0.044921,0.0195 0.01496,0.008 0.030152,0.01 0.044922,0.0176 0.01477,0.008 0.030342,0.0158 0.044922,0.0234 0.01458,0.008 0.028589,0.0158 0.042969,0.0234 0.01438,0.008 0.028799,0.0139 0.042969,0.0215 0.01417,0.008 0.027045,0.0158 0.041015,0.0234 0.01396,0.008 0.029219,0.0178 0.042969,0.0254 0.01374,0.008 0.027486,0.0159 0.041016,0.0273 0.01352,0.008 0.025762,0.0141 0.039062,0.0254 0.01329,0.008 0.027946,0.0198 0.041016,0.0274 0.01307,0.008 0.024279,0.018 0.037109,0.0293 0.01283,0.0113 0.026483,0.0199 0.039063,0.0312 0.01258,0.0113 0.024769,0.018 0.037109,0.0293 0.01234,0.0113 0.025019,0.0237 0.037109,0.0312 0.01209,0.0113 0.023327,0.018 0.035157,0.0293 0.01183,0.0113 0.023586,0.0239 0.035156,0.0352 0.01156,0.0113 0.023856,0.0219 0.035156,0.0332 0.0113,0.0113 0.022183,0.024 0.033203,0.0351 0.01103,0.0113 0.022463,0.0219 0.033203,0.0332 0.01075,0.0113 0.02079,0.0219 0.03125,0.0332 0.01046,0.0113 0.02108,0.0278 0.03125,0.0391 0.01017,0.0113 0.019417,0.0229 0.029297,0.0391 0.0099,0.0113 0.019717,0.0267 0.029297,0.0391 0.0096,0.0113 0.020017,0.022 0.029297,0.0371 0.0093,0.0113 0.018374,0.0263 0.027344,0.041 0.009,0.0151 0.01674,0.0267 0.02539,0.0391 0.0087,0.0151 0.017061,0.0263 0.025391,0.041 0.0083,0.0151 0.017381,0.0263 0.025391,0.041 0.008,0.0151 0.015757,0.0301 0.023437,0.043 0.0077,0.0151 0.014145,0.0301 0.021485,0.043 0.0073,0.0151 0.014484,0.0301 0.021484,0.043 0.007,0.0151 0.014834,0.0302 0.021484,0.0469 0.0067,0.0151 0.013222,0.0301 0.019532,0.0449 0.0063,0.0151 0.011628,0.0301 0.017578,0.0449 0.006,0.0151 0.011988,0.0301 0.017578,0.0449 0.0056,0.0151 0.010395,0.0302 0.015625,0.0469 0.0052,0.0151 0.010765,0.0302 0.015625,0.0469 0.0049,0.0151 0.0092,0.0302 0.013672,0.0469 0.0045,0.0151 0.0096,0.0302 0.013672,0.0469 0.0041,0.0151 0.008,0.0341 0.011718,0.0488 0.0037,0.0151 0.00637,0.034 0.00977,0.0488 0.0033,0.0151 0.00677,0.034 0.00977,0.0469 0.0029,0.0151 0.00531,0.0342 0.00781,0.0508 0.0025,0.0151 0.00571,0.0302 0.00781,0.0488 0.0021,0.0151 0.00416,0.0342 0.00586,0.0508 4.56e-4,0.004 -3.65e-4,0.009 0,0.0156 0.0034,0.034 0.00611,0.0672 0.00781,0.10156 5.49e-4,0.0113 0.00155,0.0258 0.00195,0.0371 4.33e-4,0.0189 0,0.0338 0,0.0527 z" /><path
       id="rect15701-2-8-8"
       style="fill:#f0f1fb;fill-opacity:1;stroke:none;stroke-width:1.8;stroke-linecap:round;stroke-linejoin:round;stroke-miterlimit:1.8;stroke-opacity:1;paint-order:fill markers stroke;stop-color:#000000"
       d="m 7.2295538,293.06007 c -1.8333682,0.0178 -3.5865883,0.75411 -4.882812,2.05078 -2.00220424,2.00202 -2.60117277,5.01305 -1.517578,7.62891 1.0836989,2.61524 3.6359125,4.32032 6.466797,4.32031 h 5.6660152 c 0.37632,-0.3046 0.728475,-0.63925 1.050782,-1 H 7.2959608 c -2.4264741,0 -4.6140863,-1.46149 -5.542969,-3.70313 -0.92879287,-2.24216 -0.4153915,-4.82305 1.300781,-6.53906 1.1096744,-1.11009 2.610168,-1.74114 4.179688,-1.75781 v -0.0137 c 0.8092322,-0.008 1.6117866,0.14713 2.359375,0.45703 2.2416392,0.92888 3.7031302,3.1165 3.7031252,5.54297 h -1 v 0.002 0.004 0.002 0.002 0.002 0.002 0.002 h 2 c 7e-6,-2.83089 -1.705067,-5.3831 -4.3203132,-6.4668 -0.8701659,-0.36069 -1.8041778,-0.54204 -2.746094,-0.5332 z m 5.0664072,6.98633 c -0.0055,-2.01708 -1.222494,-3.83331 -3.0859382,-4.60547 -0.5824864,-0.24159 -1.2054165,-0.37082 -1.835937,-0.38086 -1.3530249,-0.0208 -2.6566969,0.50773 -3.613282,1.46484 -1.4301452,1.43001 -1.8579797,3.58075 -1.083984,5.44922 0.7740694,1.86803 2.5970795,3.08594 4.619141,3.08594 h 7.4921872 c 0.185418,-0.278 0.353719,-0.56834 0.507813,-0.86719 v -0.13281 H 7.2959608 c -1.6176488,0 -3.0760568,-0.97432 -3.695313,-2.46875 -0.6191981,-1.49478 -0.2769301,-3.21537 0.867188,-4.35938 0.7500228,-0.75018 1.7673211,-1.17171 2.828125,-1.17187 v -0.002 c 0.5254745,0 1.0458009,0.10353 1.53125,0.30468 1.4904952,0.61762 2.4640262,2.07022 2.4687502,3.6836 z m -1,0 h -1 v 0.002 0.002 0.002 l 1,0.006 v -0.002 -0.002 -0.002 -0.004 z m -1,0 v -0.002 -0.006 -0.002 -0.002 -0.002 -0.002 -0.002 -0.002 -0.002 -0.002 -0.002 -0.002 -0.002 -0.002 -0.002 -0.002 -0.002 -0.002 -0.002 -0.002 -0.002 -0.002 -0.002 c -4.63e-4,-0.0202 -0.0011,-0.0403 -0.002,-0.0605 -0.0011,-0.0208 -0.0024,-0.0417 -0.0039,-0.0625 -0.0011,-0.0202 -0.0024,-0.0404 -0.0039,-0.0606 -0.0018,-0.0202 -0.0037,-0.0403 -0.0059,-0.0605 -0.0018,-0.0202 -0.0037,-0.0403 -0.0059,-0.0605 -0.0024,-0.0202 -0.005,-0.0404 -0.0078,-0.0605 -0.0031,-0.0202 -0.0063,-0.0404 -0.0098,-0.0605 -0.0037,-0.0196 -0.0076,-0.0391 -0.01172,-0.0586 -0.0037,-0.0202 -0.0076,-0.0404 -0.01172,-0.0605 -0.0037,-0.0196 -0.0076,-0.0391 -0.01172,-0.0586 -0.0043,-0.0202 -0.0089,-0.0404 -0.01367,-0.0605 -0.005,-0.0196 -0.01022,-0.0391 -0.01563,-0.0586 -0.0057,-0.0196 -0.01152,-0.0391 -0.01758,-0.0586 -0.0057,-0.0196 -0.01152,-0.0391 -0.01758,-0.0586 -0.0057,-0.0189 -0.01153,-0.0378 -0.01758,-0.0566 -0.007,-0.0196 -0.01412,-0.0391 -0.02149,-0.0586 -0.007,-0.0189 -0.01413,-0.0378 -0.02148,-0.0566 -0.007,-0.0189 -0.01414,-0.0378 -0.02149,-0.0566 -0.0076,-0.019 -0.01543,-0.0378 -0.02344,-0.0566 -0.0083,-0.019 -0.01673,-0.0378 -0.02539,-0.0566 -0.0083,-0.0183 -0.01674,-0.0365 -0.02539,-0.0547 -0.00893,-0.0183 -0.018044,-0.0366 -0.027344,-0.0547 -0.00894,-0.0177 -0.018056,-0.0352 -0.027344,-0.0527 -0.00958,-0.0183 -0.019343,-0.0366 -0.029297,-0.0547 -0.00958,-0.0183 -0.019343,-0.0366 -0.029297,-0.0547 -0.010237,-0.0177 -0.020654,-0.0352 -0.03125,-0.0527 -0.010907,-0.0164 -0.021976,-0.0326 -0.033203,-0.0488 -0.010896,-0.017 -0.021964,-0.034 -0.033203,-0.0508 -0.010896,-0.017 -0.021964,-0.034 -0.033203,-0.0508 -0.012192,-0.0171 -0.024562,-0.034 -0.037109,-0.0508 -0.011556,-0.0164 -0.023275,-0.0326 -0.035157,-0.0488 -0.012213,-0.0158 -0.024584,-0.0314 -0.037109,-0.0469 -0.012861,-0.0158 -0.025883,-0.0314 -0.039062,-0.0469 -0.012862,-0.0158 -0.025883,-0.0314 -0.039063,-0.0469 -0.013509,-0.0158 -0.027182,-0.0314 -0.041016,-0.0469 -0.01352,-0.0151 -0.027192,-0.0301 -0.041015,-0.0449 -0.01353,-0.0145 -0.027202,-0.0288 -0.041016,-0.043 -0.014168,-0.0151 -0.028491,-0.0301 -0.042969,-0.0449 -0.014825,-0.0145 -0.029799,-0.0288 -0.044921,-0.043 -0.014835,-0.0138 -0.02981,-0.0275 -0.044922,-0.041 -0.014835,-0.0138 -0.02981,-0.0275 -0.044922,-0.041 -0.015492,-0.0132 -0.031118,-0.0262 -0.046875,-0.0391 -0.015492,-0.0132 -0.031118,-0.0262 -0.046875,-0.0391 -0.015501,-0.0125 -0.031127,-0.0249 -0.046875,-0.0371 -0.01614,-0.0132 -0.032417,-0.0262 -0.048828,-0.0391 -0.016149,-0.0125 -0.032426,-0.0249 -0.048828,-0.0371 -0.016806,-0.0119 -0.033734,-0.0236 -0.050782,-0.0352 -0.016815,-0.0112 -0.033742,-0.0223 -0.050781,-0.0332 -0.016823,-0.0106 -0.033751,-0.021 -0.050781,-0.0312 -0.01748,-0.01 -0.035059,-0.0197 -0.052735,-0.0293 -0.017479,-0.01 -0.035058,-0.0197 -0.052734,-0.0293 -0.017471,-0.0106 -0.03505,-0.021 -0.052734,-0.0312 -0.018128,-0.01 -0.036358,-0.0197 -0.054688,-0.0293 -0.018136,-0.009 -0.036366,-0.0184 -0.054687,-0.0273 -0.018136,-0.009 -0.036366,-0.0184 -0.054688,-0.0274 -0.018143,-0.009 -0.036373,-0.0171 -0.054687,-0.0254 -0.0188,-0.008 -0.037681,-0.0158 -0.056641,-0.0234 -0.078182,-0.032 -0.1576801,-0.0606 -0.238281,-0.0859 -0.079737,-0.0262 -0.1605375,-0.049 -0.242188,-0.0684 -0.082017,-0.0184 -0.1647721,-0.0334 -0.248047,-0.0449 -0.083589,-0.012 -0.1676486,-0.0205 -0.251953,-0.0254 -0.083919,-0.004 -0.1679777,-0.005 -0.251953,-0.002 -0.084194,0.002 -0.168253,0.008 -0.251953,0.0176 -0.083846,0.01 -0.1672537,0.0226 -0.25,0.0391 -0.082162,0.0161 -0.1636141,0.0357 -0.244141,0.0586 -0.08117,0.0233 -0.1613191,0.05 -0.240234,0.0801 -0.078179,0.03 -0.1550695,0.0632 -0.230469,0.0996 -0.075858,0.0366 -0.1501424,0.0763 -0.222656,0.11914 -0.072855,0.0426 -0.1438815,0.0882 -0.212891,0.13672 -0.068538,0.0486 -0.1350023,0.1001 -0.199218,0.1543 -0.064238,0.0547 -0.1261417,0.112 -0.185547,0.17188 -0.059874,0.0594 -0.117217,0.1213 -0.171875,0.18554 -0.0542,0.0642 -0.1056775,0.13068 -0.154297,0.19922 -0.048547,0.069 -0.09416,0.14004 -0.136719,0.21289 -0.042821,0.0725 -0.082569,0.1468 -0.11914,0.22266 -0.036405,0.0754 -0.069637,0.15229 -0.09961,0.23047 -0.030062,0.0789 -0.056778,0.15906 -0.080078,0.24023 -0.02293,0.0805 -0.042478,0.16198 -0.058594,0.24414 -0.016531,0.0827 -0.029563,0.16615 -0.039062,0.25 -0.00939,0.0837 -0.015258,0.16776 -0.017578,0.25195 -0.00293,0.0846 -0.00228,0.16934 0.00195,0.25391 0.00491,0.0843 0.013384,0.16836 0.02539,0.25195 0.012138,0.0833 0.027777,0.16606 0.046875,0.24805 0.018745,0.0816 0.040901,0.16242 0.066407,0.24219 0.025278,0.0806 0.053949,0.1601 0.085937,0.23828 0.031944,0.0776 0.067132,0.15386 0.105469,0.22852 0.038585,0.0746 0.080288,0.14762 0.125,0.21875 0.045204,0.0717 0.093424,0.14139 0.144531,0.20898 0.050664,0.0667 0.1040958,0.13117 0.160156,0.19336 0.056016,0.063 0.1146622,0.12359 0.175782,0.18164 0.060799,0.058 0.1240054,0.11336 0.189453,0.16602 0.06624,0.0523 0.1346606,0.10186 0.205078,0.14843 0.069754,0.0466 0.1414312,0.0903 0.214844,0.13086 0.073892,0.0409 0.1494802,0.0787 0.226562,0.11328 0.076776,0.0345 0.1549701,0.0658 0.234375,0.0937 0.079035,0.0274 0.1591836,0.0516 0.240235,0.0723 0.081902,0.0211 0.1646582,0.0386 0.248046,0.0527 0.082831,0.0146 0.1662381,0.0256 0.25,0.0332 0.083784,0.007 0.1678425,0.0113 0.251954,0.0117 v 0.002 h 8.490234 c 0.114065,-0.3247 0.208348,-0.65922 0.285156,-1 H 7.2959608 v -0.002 c -0.03462,0 -0.06933,-1.8e-4 -0.103516,-0.002 -0.03418,-0.002 -0.06786,-0.004 -0.101563,-0.008 -0.033699,-0.003 -0.066429,-0.009 -0.099609,-0.0156 -0.01659,-0.002 -0.034331,-0.004 -0.050781,-0.008 -0.01645,-0.003 -0.032518,-0.008 -0.048828,-0.0117 -0.03261,-0.008 -0.063703,-0.0139 -0.095703,-0.0215 -0.01639,-0.004 -0.032439,-0.009 -0.048829,-0.0156 -0.01584,-0.004 -0.031205,-0.009 -0.046875,-0.0156 -0.01567,-0.004 -0.031375,-0.01 -0.046875,-0.0137 -0.01551,-0.004 -0.031545,-0.0118 -0.046875,-0.0156 -0.01533,-0.004 -0.029771,-0.0119 -0.044921,-0.0195 -0.01515,-0.008 -0.029962,-0.01 -0.044922,-0.0176 -0.01496,-0.008 -0.030152,-0.0119 -0.044922,-0.0195 -0.01478,-0.008 -0.030352,-0.0158 -0.044922,-0.0234 -0.01459,-0.008 -0.028569,-0.0139 -0.042969,-0.0215 -0.01436,-0.008 -0.028799,-0.0158 -0.042969,-0.0234 -0.01417,-0.008 -0.027065,-0.0158 -0.041015,-0.0234 -0.01395,-0.008 -0.029219,-0.0178 -0.042969,-0.0254 -0.01376,-0.008 -0.027476,-0.0159 -0.041016,-0.0273 -0.01353,-0.008 -0.025782,-0.014 -0.039062,-0.0254 -0.0133,-0.008 -0.027966,-0.0197 -0.041016,-0.0273 -0.01308,-0.008 -0.024259,-0.018 -0.037109,-0.0293 -0.01281,-0.0113 -0.026503,-0.0199 -0.039063,-0.0312 -0.01259,-0.0113 -0.024749,-0.018 -0.037109,-0.0293 -0.01232,-0.0113 -0.025009,-0.0201 -0.037109,-0.0312 -0.01209,-0.0113 -0.023327,-0.018 -0.035157,-0.0293 -0.01183,-0.0113 -0.023586,-0.0239 -0.035156,-0.0352 -0.01156,-0.0113 -0.023846,-0.0219 -0.035156,-0.0332 -0.0113,-0.0113 -0.022173,-0.0219 -0.033203,-0.0332 -0.01104,-0.0113 -0.022433,-0.0238 -0.033203,-0.0351 -0.01073,-0.0113 -0.02078,-0.0219 -0.03125,-0.0332 -0.01047,-0.0113 -0.02108,-0.0278 -0.03125,-0.0391 -0.01017,-0.0113 -0.019427,-0.022 -0.029297,-0.0371 -0.0099,-0.0113 -0.019737,-0.0267 -0.029297,-0.0391 -0.0096,-0.0113 -0.020037,-0.0229 -0.029297,-0.0391 -0.0093,-0.0113 -0.018394,-0.0263 -0.027344,-0.041 -0.009,-0.0151 -0.01674,-0.0267 -0.02539,-0.0391 -0.0087,-0.0151 -0.017041,-0.0267 -0.025391,-0.041 -0.0084,-0.0151 -0.017381,-0.0301 -0.025391,-0.043 -0.008,-0.0151 -0.015767,-0.0267 -0.023437,-0.041 -0.0077,-0.0151 -0.014154,-0.0301 -0.021484,-0.043 -0.0073,-0.0151 -0.014495,-0.0301 -0.021485,-0.043 -0.007,-0.0151 -0.014834,-0.0301 -0.021484,-0.0449 -0.0067,-0.0151 -0.013221,-0.0301 -0.019531,-0.0449 -0.0063,-0.0151 -0.011639,-0.0301 -0.017579,-0.0449 -0.0059,-0.0151 -0.011978,-0.0301 -0.017578,-0.0449 -0.0056,-0.0151 -0.010405,-0.0302 -0.015625,-0.0469 -0.0052,-0.0151 -0.010785,-0.0302 -0.015625,-0.0469 -0.0048,-0.0151 -0.0092,-0.0302 -0.013672,-0.0469 -0.0045,-0.0151 -0.0095,-0.034 -0.013671,-0.0488 -0.0041,-0.0151 -0.008,-0.0302 -0.011719,-0.0469 -0.0037,-0.0151 -0.00647,-0.034 -0.00977,-0.0488 -0.0033,-0.0151 -0.00686,-0.0341 -0.00976,-0.0488 -0.0029,-0.0151 -0.00531,-0.0341 -0.00781,-0.0508 -0.0025,-0.0151 -0.00571,-0.0302 -0.00781,-0.0488 -0.0021,-0.0151 -0.00416,-0.0342 -0.00586,-0.0508 -0.0028,-0.0302 -0.00631,-0.058 -0.00781,-0.0879 -0.0017,-0.034 -0.00195,-0.0688 -0.00195,-0.10352 0,-0.004 -1.1e-5,-0.009 0,-0.0156 0,-0.0189 -4.34e-4,-0.0338 0,-0.0527 3.16e-4,-0.0151 0.00135,-0.0258 0.00195,-0.0371 0.0017,-0.034 0.00441,-0.0679 0.00781,-0.10156 3.63e-4,-0.004 -4.52e-4,-0.009 0,-0.0156 0.0017,-0.0151 0.00376,-0.0342 0.00586,-0.0508 0.0021,-0.0151 0.00531,-0.034 0.00781,-0.0488 0.0025,-0.0151 0.00491,-0.0342 0.00781,-0.0508 0.0029,-0.0151 0.00647,-0.034 0.00976,-0.0469 0.0033,-0.0151 0.00607,-0.034 0.00977,-0.0488 0.0037,-0.0151 0.0076,-0.0341 0.011719,-0.0488 0.0041,-0.0151 0.0092,-0.0302 0.013671,-0.0469 0.0045,-0.0151 0.0088,-0.0302 0.013672,-0.0469 0.0048,-0.0151 0.010405,-0.0302 0.015625,-0.0469 0.0052,-0.0151 0.010025,-0.0302 0.015625,-0.0469 0.0056,-0.0151 0.011648,-0.0301 0.017578,-0.0449 0.006,-0.0151 0.011269,-0.0301 0.017579,-0.0449 0.0063,-0.0151 0.012881,-0.0301 0.019531,-0.0449 0.0066,-0.0151 0.014494,-0.034 0.021484,-0.0469 0.007,-0.0151 0.014155,-0.0301 0.021485,-0.043 0.0073,-0.0151 0.013814,-0.0301 0.021484,-0.043 0.0077,-0.0151 0.015417,-0.0301 0.023437,-0.043 0.008,-0.0151 0.017041,-0.0263 0.025391,-0.041 0.0084,-0.0151 0.016741,-0.0263 0.025391,-0.041 0.0087,-0.0151 0.01643,-0.0267 0.02539,-0.0391 0.009,-0.0151 0.018084,-0.0263 0.027344,-0.041 0.0093,-0.0113 0.019737,-0.022 0.029297,-0.0371 0.0096,-0.0113 0.019427,-0.0267 0.029297,-0.0391 0.0099,-0.0113 0.019127,-0.0266 0.029297,-0.0391 0.01017,-0.0113 0.02078,-0.0278 0.03125,-0.0391 0.01047,-0.0113 0.02052,-0.0219 0.03125,-0.0332 0.01073,-0.0113 0.022203,-0.0219 0.033203,-0.0332 0.01104,-0.0113 0.021863,-0.0238 0.033203,-0.0351 0.0113,-0.0113 0.023586,-0.0219 0.035156,-0.0332 0.01157,-0.0113 0.023326,-0.0239 0.035156,-0.0352 0.01183,-0.0113 0.023057,-0.018 0.035157,-0.0293 0.01209,-0.0113 0.024749,-0.0239 0.037109,-0.0312 0.01232,-0.0113 0.024519,-0.018 0.037109,-0.0293 0.01259,-0.0113 0.026233,-0.02 0.039063,-0.0312 0.01281,-0.0113 0.024029,-0.018 0.037109,-0.0293 0.01308,-0.008 0.027696,-0.0197 0.041016,-0.0274 0.0133,-0.008 0.025552,-0.0141 0.039062,-0.0254 0.01353,-0.008 0.027286,-0.0197 0.041016,-0.0273 0.01376,-0.008 0.029029,-0.0178 0.042969,-0.0254 0.01395,-0.008 0.026845,-0.0158 0.041015,-0.0234 0.01417,-0.008 0.028569,-0.0139 0.042969,-0.0215 0.01436,-0.008 0.028379,-0.0158 0.042969,-0.0234 0.01459,-0.008 0.030162,-0.0158 0.044922,-0.0234 0.01478,-0.008 0.029972,-0.0138 0.044922,-0.0176 0.01496,-0.008 0.029772,-0.0119 0.044922,-0.0195 0.01515,-0.008 0.029591,-0.0119 0.044921,-0.0195 0.01533,-0.004 0.031375,-0.01 0.046875,-0.0137 0.01551,-0.004 0.031205,-0.0118 0.046875,-0.0156 0.01567,-0.004 0.031035,-0.009 0.046875,-0.0156 0.01584,-0.004 0.032829,-0.0118 0.048829,-0.0156 0.016,-0.004 0.030725,-0.006 0.046875,-0.01 0.01615,-0.004 0.032518,-0.008 0.048828,-0.0117 0.01631,-0.003 0.032378,-0.008 0.048828,-0.0117 0.01645,-0.003 0.034191,-0.004 0.050781,-0.008 0.01659,-0.003 0.032108,-0.008 0.048828,-0.008 0.01672,-0.002 0.033931,-0.004 0.050781,-0.008 0.01685,-0.002 0.033812,-0.003 0.050782,-0.004 0.01697,-0.001 0.033691,-0.005 0.050781,-0.006 0.01709,-8.7e-4 0.033581,-0.002 0.050781,-0.002 0.0172,-4.1e-4 0.035425,0 0.052735,0 0.01731,0 0.035524,-4.1e-4 0.052734,0 0.0172,4.2e-4 0.033691,9e-4 0.050781,0.002 0.01709,8.3e-4 0.033811,0.005 0.050781,0.006 0.01697,10e-4 0.033932,0.002 0.050782,0.004 0.01685,0.002 0.034061,0.004 0.050781,0.008 0.01672,0.002 0.032238,0.004 0.048828,0.008 0.01659,0.003 0.034331,0.004 0.050781,0.008 0.01645,0.003 0.032518,0.008 0.048828,0.0117 0.0163,0.003 0.032669,0.008 0.048829,0.0117 0.01615,0.004 0.030875,0.006 0.046875,0.01 0.016,0.004 0.032988,0.009 0.048828,0.0156 0.01584,0.004 0.031205,0.009 0.046875,0.0156 0.01567,0.004 0.031375,0.0118 0.046875,0.0156 0.01551,0.004 0.031545,0.01 0.046875,0.0137 0.01533,0.004 0.029772,0.0119 0.044922,0.0195 0.01515,0.008 0.029961,0.0119 0.044921,0.0195 0.01496,0.008 0.030152,0.01 0.044922,0.0176 0.01477,0.008 0.030342,0.0158 0.044922,0.0234 0.01458,0.008 0.028589,0.0158 0.042969,0.0234 0.01438,0.008 0.028799,0.0139 0.042969,0.0215 0.01417,0.008 0.027045,0.0158 0.041015,0.0234 0.01396,0.008 0.029219,0.0178 0.042969,0.0254 0.01374,0.008 0.027486,0.0159 0.041016,0.0273 0.01352,0.008 0.025762,0.0141 0.039062,0.0254 0.01329,0.008 0.027946,0.0198 0.041016,0.0274 0.01307,0.008 0.024279,0.018 0.037109,0.0293 0.01283,0.0113 0.026483,0.0199 0.039063,0.0312 0.01258,0.0113 0.024769,0.018 0.037109,0.0293 0.01234,0.0113 0.025019,0.0237 0.037109,0.0312 0.01209,0.0113 0.023327,0.018 0.035157,0.0293 0.01183,0.0113 0.023586,0.0239 0.035156,0.0352 0.01156,0.0113 0.023856,0.0219 0.035156,0.0332 0.0113,0.0113 0.022183,0.024 0.033203,0.0351 0.01103,0.0113 0.022463,0.0219 0.033203,0.0332 0.01075,0.0113 0.02079,0.0219 0.03125,0.0332 0.01046,0.0113 0.02108,0.0278 0.03125,0.0391 0.01017,0.0113 0.019417,0.0229 0.029297,0.0391 0.0099,0.0113 0.019717,0.0267 0.029297,0.0391 0.0096,0.0113 0.020017,0.022 0.029297,0.0371 0.0093,0.0113 0.018374,0.0263 0.027344,0.041 0.009,0.0151 0.01674,0.0267 0.02539,0.0391 0.0087,0.0151 0.017061,0.0263 0.025391,0.041 0.0083,0.0151 0.017381,0.0263 0.025391,0.041 0.008,0.0151 0.015757,0.0301 0.023437,0.043 0.0077,0.0151 0.014145,0.0301 0.021485,0.043 0.0073,0.0151 0.014484,0.0301 0.021484,0.043 0.007,0.0151 0.014834,0.0302 0.021484,0.0469 0.0067,0.0151 0.013222,0.0301 0.019532,0.0449 0.0063,0.0151 0.011628,0.0301 0.017578,0.0449 0.006,0.0151 0.011988,0.0301 0.017578,0.0449 0.0056,0.0151 0.010395,0.0302 0.015625,0.0469 0.0052,0.0151 0.010765,0.0302 0.015625,0.0469 0.0049,0.0151 0.0092,0.0302 0.013672,0.0469 0.0045,0.0151 0.0096,0.0302 0.013672,0.0469 0.0041,0.0151 0.008,0.0341 0.011718,0.0488 0.0037,0.0151 0.00637,0.034 0.00977,0.0488 0.0033,0.0151 0.00677,0.034 0.00977,0.0469 0.0029,0.0151 0.00531,0.0342 0.00781,0.0508 0.0025,0.0151 0.00571,0.0302 0.00781,0.0488 0.0021,0.0151 0.00416,0.0342 0.00586,0.0508 4.56e-4,0.004 -3.65e-4,0.009 0,0.0156 0.0034,0.034 0.00611,0.0672 0.00781,0.10156 5.49e-4,0.0113 0.00155,0.0258 0.00195,0.0371 4.33e-4,0.0189 0,0.0338 0,0.0527 z"
       sodipodi:nodetypes="ccccccccccccccccccccccccccccccccccccccccccccccccccccccccccccccccccccccccccccccccccccccccccccccccccccccccccccccccccccccccccccccccccccccccccccccccccccccccccccccccccccccccccccccccccccccccccccccccccccccccccccccsccccsscccccccccccccccccccccccccscccccccccccccccccccccccccccccssccssccscccccccccccccccccscccccsccsccsscccccscccccccccccccccssscscsccssccccccccccccccccccccccccccccc" /></g></svg>
