<?xml version="1.0" encoding="UTF-8" standalone="no"?>
<!-- Created with Inkscape (http://www.inkscape.org/) -->

<svg
   width="22"
   height="22"
   viewBox="0 0 22 22"
   version="1.1"
   id="svg8"
   inkscape:version="1.3.2 (091e20ef0f, 2023-11-25, custom)"
   sodipodi:docname="folder-mail.svg"
   xml:space="preserve"
   xmlns:inkscape="http://www.inkscape.org/namespaces/inkscape"
   xmlns:sodipodi="http://sodipodi.sourceforge.net/DTD/sodipodi-0.dtd"
   xmlns:xlink="http://www.w3.org/1999/xlink"
   xmlns="http://www.w3.org/2000/svg"
   xmlns:svg="http://www.w3.org/2000/svg"
   xmlns:rdf="http://www.w3.org/1999/02/22-rdf-syntax-ns#"
   xmlns:cc="http://creativecommons.org/ns#"
   xmlns:dc="http://purl.org/dc/elements/1.1/"><defs
     id="defs2"><linearGradient
       id="linearGradient25"
       inkscape:collect="always"><stop
         style="stop-color:#3fa2f4;stop-opacity:1;"
         offset="0"
         id="stop25" /><stop
         style="stop-color:#4fc1f9;stop-opacity:1;"
         offset="1"
         id="stop26" /></linearGradient><linearGradient
       id="linearGradient23"
       inkscape:collect="always"><stop
         style="stop-color:#d4e6e6;stop-opacity:1;"
         offset="0"
         id="stop23" /><stop
         style="stop-color:#f6f9f9;stop-opacity:1;"
         offset="1"
         id="stop24" /></linearGradient><style
       id="current-color-scheme"
       type="text/css">
      .ColorScheme-Text {
        color:#122036;
      }
      </style><style
       type="text/css"
       id="current-color-scheme-5">
      .ColorScheme-Text {
        color:#122036;
      }
      </style><style
       type="text/css"
       id="current-color-scheme-2">
      .ColorScheme-Text {
        color:#122036;
      }
      </style><style
       type="text/css"
       id="current-color-scheme-1">
      .ColorScheme-Text {
        color:#122036;
      }
      </style><style
       id="current-color-scheme-10"
       type="text/css">
      .ColorScheme-Text {
        color:#122036;
      }
      </style><style
       id="current-color-scheme-20"
       type="text/css">
      .ColorScheme-Text {
        color:#122036;
      }
      </style><style
       type="text/css"
       id="current-color-scheme-1-2">
      .ColorScheme-Text {
        color:#122036;
      }
      </style><style
       type="text/css"
       id="current-color-scheme-9">
      .ColorScheme-Text {
        color:#122036;
      }
      </style><style
       id="current-color-scheme-53"
       type="text/css">
      .ColorScheme-Text {
        color:#122036;
      }
      </style><style
       type="text/css"
       id="current-color-scheme-5-3">
      .ColorScheme-Text {
        color:#122036;
      }
      </style><style
       type="text/css"
       id="current-color-scheme-2-7">
      .ColorScheme-Text {
        color:#122036;
      }
      </style><style
       type="text/css"
       id="current-color-scheme-1-1">
      .ColorScheme-Text {
        color:#122036;
      }
      </style><style
       id="current-color-scheme-10-5"
       type="text/css">
      .ColorScheme-Text {
        color:#122036;
      }
      </style><style
       id="current-color-scheme-535"
       type="text/css">
      .ColorScheme-Text {
        color:#122036;
      }
      </style><style
       id="current-color-scheme-0"
       type="text/css">
      .ColorScheme-Text {
        color:#122036;
      }
      </style><style
       id="current-color-scheme-5356"
       type="text/css">
      .ColorScheme-Text {
        color:#122036;
      }
      </style><style
       type="text/css"
       id="current-color-scheme-93">
      .ColorScheme-Text {
        color:#36404d;
      }
      </style><style
       id="current-color-scheme-26"
       type="text/css">
      .ColorScheme-Text {
        color:#122036;
      }
      </style><style
       type="text/css"
       id="current-color-scheme-1-18">
      .ColorScheme-Text {
        color:#122036;
      }
      </style><style
       type="text/css"
       id="current-color-scheme-6">
      .ColorScheme-Text {
        color:#36404d;
      }
      </style><style
       type="text/css"
       id="current-color-scheme-7">
      .ColorScheme-Text {
        color:#36404d;
      }
      </style><style
       type="text/css"
       id="current-color-scheme-5-7">
      .ColorScheme-Text {
        color:#122036;
      }
      </style><style
       id="current-color-scheme-1-3"
       type="text/css">
      .ColorScheme-Text {
        color:#122036;
      }
      </style><style
       type="text/css"
       id="current-color-scheme-2-9">
      .ColorScheme-Text {
        color:#36404d;
      }
      </style><linearGradient
       inkscape:collect="always"
       xlink:href="#linearGradient23"
       id="linearGradient24"
       x1="11"
       y1="310.17917"
       x2="10.984375"
       y2="294.17917"
       gradientUnits="userSpaceOnUse" /><linearGradient
       inkscape:collect="always"
       xlink:href="#linearGradient25"
       id="linearGradient26"
       x1="11"
       y1="308.17917"
       x2="11"
       y2="296.17917"
       gradientUnits="userSpaceOnUse" /><style
       type="text/css"
       id="current-color-scheme-56">
      .ColorScheme-Text {
        color:#36404d;
      }
      </style></defs><sodipodi:namedview
     id="base"
     pagecolor="#ffffff"
     bordercolor="#666666"
     borderopacity="1.0"
     inkscape:pageopacity="0.0"
     inkscape:pageshadow="2"
     inkscape:zoom="11.313709"
     inkscape:cx="27.621359"
     inkscape:cy="34.736621"
     inkscape:document-units="px"
     inkscape:current-layer="layer1"
     showgrid="true"
     units="px"
     inkscape:showpageshadow="false"
     inkscape:snap-bbox="true"
     inkscape:bbox-paths="true"
     inkscape:bbox-nodes="true"
     inkscape:snap-bbox-edge-midpoints="true"
     inkscape:snap-bbox-midpoints="true"
     inkscape:object-paths="true"
     inkscape:snap-intersection-paths="true"
     inkscape:window-width="2560"
     inkscape:window-height="1364"
     inkscape:window-x="0"
     inkscape:window-y="0"
     inkscape:window-maximized="1"
     inkscape:pagecheckerboard="0"
     inkscape:deskcolor="#d1d1d1"><inkscape:grid
       type="xygrid"
       id="grid815"
       originx="0"
       originy="0"
       spacingy="1"
       spacingx="1"
       units="px"
       visible="true" /></sodipodi:namedview><metadata
     id="metadata5"><rdf:RDF><cc:Work
         rdf:about=""><dc:format>image/svg+xml</dc:format><dc:type
           rdf:resource="http://purl.org/dc/dcmitype/StillImage" /></cc:Work></rdf:RDF></metadata><g
     inkscape:label="Capa 1"
     inkscape:groupmode="layer"
     id="layer1"
     transform="translate(0,-291.17916)"><g
       id="path4"><path
         style="color:#000000;fill:#90a4ae;stroke-linecap:round;stroke-linejoin:round;-inkscape-stroke:none;paint-order:stroke markers fill;fill-opacity:1"
         d="m 4,292.17969 c -1.0907017,0 -2,0.9093 -2,2 v 1 c 5.52e-5,0.55226 0.4477381,0.99994 1,1 -0.5522619,6e-5 -0.9999448,0.44774 -1,1 v 1 c 5.52e-5,0.55226 0.4477381,0.99994 1,1 -0.5522619,6e-5 -0.9999448,0.44774 -1,1 v 1 c 5.52e-5,0.55226 0.4477381,0.99994 1,1 -0.5522619,6e-5 -0.9999448,0.44774 -1,1 v 1 c 5.52e-5,0.55226 0.4477381,0.99994 1,1 -0.5522619,6e-5 -0.9999448,0.44774 -1,1 v 1 c 5.52e-5,0.55226 0.4477381,0.99994 1,1 -0.5522619,6e-5 -0.9999448,0.44774 -1,1 v 1 c 0,1.0907 0.9092983,2 2,2 h 0.015625 c 0.5522619,-6e-5 0.9999448,-0.44774 1,-1 5.52e-5,0.55226 0.4477381,0.99994 1,1 H 7 c 0.5522619,-6e-5 0.9999448,-0.44774 1,-1 5.52e-5,0.55226 0.4477381,0.99994 1,1 h 1 c 0.552262,-6e-5 0.999945,-0.44774 1,-1 5.5e-5,0.55226 0.447738,0.99994 1,1 h 1 c 0.552262,-6e-5 0.999945,-0.44774 1,-1 5.5e-5,0.55226 0.447738,0.99994 1,1 h 1 c 0.552262,-6e-5 0.999945,-0.44774 1,-1 5.5e-5,0.55226 0.447738,0.99994 1,1 1.090702,0 2,-0.9093 2,-2 v -1 c -5.5e-5,-0.55226 -0.447738,-0.99994 -1,-1 0.552262,-6e-5 0.999945,-0.44774 1,-1 v -1 c -5.5e-5,-0.55226 -0.447738,-0.99994 -1,-1 0.552262,-6e-5 0.999945,-0.44774 1,-1 v -1 c -5.5e-5,-0.55226 -0.447738,-0.99994 -1,-1 0.552262,-6e-5 0.999945,-0.44774 1,-1 v -1 c -5.5e-5,-0.55226 -0.447738,-0.99994 -1,-1 0.552262,-6e-5 0.999945,-0.44774 1,-1 v -1 c -5.5e-5,-0.55226 -0.447738,-0.99994 -1,-1 0.552262,-6e-5 0.999945,-0.44774 1,-1 v -1 c 0,-1.09071 -0.909298,-2 -2,-2 h -0.01563 c -0.540122,0.008 -0.975939,0.44425 -0.98437,0.98437 h -0.03125 c -0.0084,-0.54012 -0.444251,-0.97594 -0.984375,-0.98437 H 15 c -0.552262,6e-5 -0.999945,0.44774 -1,1 -5.5e-5,-0.55226 -0.447738,-0.99994 -1,-1 h -1 c -0.552262,6e-5 -0.999945,0.44774 -1,1 -5.5e-5,-0.55226 -0.447738,-0.99994 -1,-1 H 9 c -0.5522619,6e-5 -0.9999448,0.44774 -1,1 -5.52e-5,-0.55226 -0.4477381,-0.99994 -1,-1 H 6 c -0.5522619,6e-5 -0.9999448,0.44774 -1,1 -5.52e-5,-0.55226 -0.4477381,-0.99994 -1,-1 z"
         id="path22"
         sodipodi:nodetypes="cscccccccccccccccsssccccccccccccccscccccccccccccccsscccccccccccccccc" /><path
         style="color:#000000;fill:url(#linearGradient24);fill-opacity:1;stroke-linecap:round;stroke-linejoin:round;-inkscape-stroke:none;paint-order:stroke markers fill"
         d="M 15.984375,293.17916 H 15 v 0.0156 c 0,0.54491 -0.439446,0.98442 -0.984375,0.98437 h -0.03125 C 13.439446,294.17916 13,293.7397 13,293.19479 v -0.0156 h -1 v 0.0156 c 0,0.54491 -0.439446,0.98442 -0.984375,0.98437 h -0.03125 C 10.439446,294.17916 10,293.7397 10,293.19479 v -0.0156 H 9 v 0.0156 c 0,0.54491 -0.439445,0.98442 -0.984375,0.98437 H 7.984375 C 7.439445,294.17916 7,293.7397 7,293.19479 v -0.0156 H 6 v 0.0156 c 0,0.54491 -0.439445,0.98437 -0.984375,0.98437 H 4.984375 C 4.439445,294.17916 4,293.7397 4,293.19479 v -0.0156 c -0.5539994,0 -1,0.446 -1,1 v 1 H 3.015625 C 3.560554,295.17916 4,295.61861 4,296.16354 v 0.0312 c 0,0.54491 -0.439446,0.98437 -0.984375,0.98437 H 3 v 1 H 3.015625 C 3.560554,298.17916 4,298.61861 4,299.16354 v 0.0312 c 0,0.54491 -0.439446,0.98437 -0.984375,0.98437 H 3 v 1 H 3.015625 C 3.560554,301.17916 4,301.61861 4,302.16354 v 0.0312 c 0,0.54491 -0.439446,0.98437 -0.984375,0.98437 H 3 v 1 H 3.015625 C 3.560554,304.17916 4,304.61861 4,305.16354 v 0.0312 c 0,0.54491 -0.439446,0.98437 -0.984375,0.98437 H 3 v 1 H 3.015625 C 3.560554,307.17916 4,307.61861 4,308.16354 v 0.0312 c 0,0.54491 -0.439446,0.98437 -0.984375,0.98437 H 3 v 1 c 0,0.554 0.4460006,1 1,1 h 0.015625 v -0.0156 c 0,-0.54493 0.439445,-0.98438 0.984375,-0.98438 h 0.03125 c 0.54493,0 0.984375,0.43945 0.984375,0.98438 v 0.0156 H 7 v -0.0156 c 0,-0.54493 0.439445,-0.98438 0.984375,-0.98438 h 0.03125 C 8.560555,310.17911 9,310.61861 9,311.16354 v 0.0156 h 1 v -0.0156 c 0,-0.54493 0.439446,-0.98438 0.984375,-0.98438 h 0.03125 C 11.560554,310.17911 12,310.61861 12,311.16354 v 0.0156 h 1 v -0.0156 c 0,-0.54493 0.439446,-0.98438 0.984375,-0.98438 h 0.03125 C 14.560554,310.17911 15,310.61861 15,311.16354 v 0.0156 h 1 v -0.0156 c 0,-0.54493 0.439446,-0.98438 0.984375,-0.98438 h 0.03125 C 17.560554,310.17911 18,310.61861 18,311.16354 v 0.0156 c 0.553999,0 1,-0.446 1,-1 v -1 h -0.01563 C 18.439447,309.17916 18,308.7397 18,308.19479 v -0.0312 c 0,-0.54493 0.439447,-0.98438 0.984375,-0.98438 H 19 v -1 h -0.01563 C 18.439447,306.17916 18,305.7397 18,305.19479 v -0.0312 c 0,-0.54493 0.439447,-0.98438 0.984375,-0.98438 H 19 v -1 h -0.01563 C 18.439447,303.17916 18,302.7397 18,302.19479 v -0.0312 c 0,-0.54493 0.439447,-0.98438 0.984375,-0.98438 H 19 v -1 h -0.01563 C 18.439447,300.17916 18,299.7397 18,299.19479 v -0.0312 c 0,-0.54493 0.439447,-0.98438 0.984375,-0.98438 H 19 v -1 h -0.01563 C 18.439447,297.17916 18,296.7397 18,296.19479 v -0.0312 c 0,-0.54493 0.439447,-0.98438 0.984375,-0.98438 H 19 v -1 c 0,-0.554 -0.446001,-1 -1,-1 h -0.01563 c 0,0.54493 -0.439446,0.98441 -0.984375,0.98438 h -0.03125 c -0.544929,0 -0.984375,-0.43945 -0.984375,-0.98438 z"
         id="path23" /></g><path
       id="rect24"
       style="fill:#3182d9;stroke-width:2;stroke-linecap:round;stroke-linejoin:round;paint-order:stroke markers fill"
       d="m 5,295.17917 h 12 v 14 H 5 Z" /><path
       id="rect25"
       style="fill:url(#linearGradient26);stroke-width:2;stroke-linecap:round;stroke-linejoin:round;paint-order:stroke markers fill"
       d="m 6,296.17917 h 10 v 12 H 6 Z" /><path
       id="rect26-3"
       style="fill:#3182d9;fill-opacity:1;stroke:none;stroke-width:2;stroke-linecap:round;stroke-linejoin:round;stroke-dasharray:none;stroke-opacity:1;paint-order:stroke markers fill"
       d="m 11,300.17916 c -1.107999,0 -2,0.892 -2,2 -1.107997,0 -2,0.892 -2,2 0,1.108 0.892003,2 2,2 h 3.5 0.25 v -0.0137 c 1.266501,-0.1249 2.25,-1.18591 2.25,-2.48633 0,-1.30378 -0.988527,-2.36792 -2.259766,-2.48828 C 12.39711,300.58578 11.74802,300.17916 11,300.17916 Z" /><path
       id="rect26"
       style="fill:#f4fbff;fill-opacity:1;stroke:none;stroke-width:2;stroke-linecap:round;stroke-linejoin:round;stroke-dasharray:none;stroke-opacity:1;paint-order:stroke markers fill"
       d="m 11,299.17916 c -1.107999,0 -2,0.892 -2,2 -1.107997,0 -2,0.892 -2,2 0,1.108 0.892003,2 2,2 h 3.5 0.25 v -0.0137 c 1.266501,-0.1249 2.25,-1.18591 2.25,-2.48633 0,-1.30378 -0.988527,-2.36792 -2.259766,-2.48828 C 12.39711,299.58578 11.74802,299.17916 11,299.17916 Z" /></g></svg>
