<?xml version="1.0" encoding="UTF-8" standalone="no"?>
<!-- Created with Inkscape (http://www.inkscape.org/) -->

<svg
   width="22"
   height="22"
   viewBox="0 0 22 22"
   version="1.1"
   id="svg8"
   inkscape:version="1.3.2 (091e20ef0f, 2023-11-25, custom)"
   sodipodi:docname="folder-templates.svg"
   xml:space="preserve"
   xmlns:inkscape="http://www.inkscape.org/namespaces/inkscape"
   xmlns:sodipodi="http://sodipodi.sourceforge.net/DTD/sodipodi-0.dtd"
   xmlns="http://www.w3.org/2000/svg"
   xmlns:svg="http://www.w3.org/2000/svg"
   xmlns:rdf="http://www.w3.org/1999/02/22-rdf-syntax-ns#"
   xmlns:cc="http://creativecommons.org/ns#"
   xmlns:dc="http://purl.org/dc/elements/1.1/"><defs
     id="defs2"><style
       type="text/css"
       id="current-color-scheme">
      .ColorScheme-Text {
        color:#36404d;
      }
      </style><style
       type="text/css"
       id="current-color-scheme-67">
      .ColorScheme-Text {
        color:#122036;
      }
      </style><style
       type="text/css"
       id="current-color-scheme-7">
      .ColorScheme-Text {
        color:#122036;
      }
      </style><style
       type="text/css"
       id="current-color-scheme-5">
      .ColorScheme-Text {
        color:#122036;
      }
      </style><style
       type="text/css"
       id="current-color-scheme-6">
      .ColorScheme-Text {
        color:#122036;
      }
      </style><style
       type="text/css"
       id="current-color-scheme-1">
      .ColorScheme-Text {
        color:#122036;
      }
      </style><style
       id="current-color-scheme-10"
       type="text/css">
      .ColorScheme-Text {
        color:#122036;
      }
      </style><style
       id="current-color-scheme-5-7"
       type="text/css">
      .ColorScheme-Text {
        color:#122036;
      }
      </style><style
       id="current-color-scheme-1-2"
       type="text/css">
      .ColorScheme-Text {
        color:#122036;
      }
      </style><style
       type="text/css"
       id="current-color-scheme-10-9">
      .ColorScheme-Text {
        color:#122036;
      }
      </style><style
       id="current-color-scheme-53"
       type="text/css">
      .ColorScheme-Text {
        color:#122036;
      }
      </style><style
       id="current-color-scheme-6-5"
       type="text/css">
      .ColorScheme-Text {
        color:#122036;
      }
      </style><style
       type="text/css"
       id="current-color-scheme-9">
      .ColorScheme-Text {
        color:#36404d;
      }
      </style><style
       id="current-color-scheme-3"
       type="text/css">
      .ColorScheme-Text {
        color:#36404d;
      }
      </style><linearGradient
       id="a"
       gradientUnits="userSpaceOnUse"
       x1="23.5"
       x2="23.5"
       y1="303.14999"
       y2="288.14999"
       gradientTransform="translate(-14,5.5291775)"><stop
         offset="0"
         stop-color="#fff"
         stop-opacity=".7"
         id="stop1"
         style="stop-color:#d3e6e6;stop-opacity:1;" /><stop
         offset="1"
         stop-color="#fff"
         stop-opacity=".85"
         id="stop2"
         style="stop-color:#fcfcfc;stop-opacity:1;" /></linearGradient></defs><sodipodi:namedview
     id="base"
     pagecolor="#ffffff"
     bordercolor="#666666"
     borderopacity="1.0"
     inkscape:pageopacity="0.0"
     inkscape:pageshadow="2"
     inkscape:zoom="15.839192"
     inkscape:cx="22.065519"
     inkscape:cy="20.139916"
     inkscape:document-units="px"
     inkscape:current-layer="layer1"
     showgrid="true"
     units="px"
     inkscape:showpageshadow="false"
     inkscape:snap-bbox="true"
     inkscape:bbox-paths="true"
     inkscape:bbox-nodes="true"
     inkscape:snap-bbox-edge-midpoints="true"
     inkscape:snap-bbox-midpoints="true"
     inkscape:object-paths="true"
     inkscape:snap-intersection-paths="true"
     inkscape:window-width="2560"
     inkscape:window-height="1364"
     inkscape:window-x="0"
     inkscape:window-y="0"
     inkscape:window-maximized="1"
     inkscape:pagecheckerboard="0"
     inkscape:deskcolor="#d1d1d1"><inkscape:grid
       type="xygrid"
       id="grid815"
       originx="0"
       originy="0"
       spacingy="1"
       spacingx="1"
       units="px"
       visible="true" /></sodipodi:namedview><metadata
     id="metadata5"><rdf:RDF><cc:Work
         rdf:about=""><dc:format>image/svg+xml</dc:format><dc:type
           rdf:resource="http://purl.org/dc/dcmitype/StillImage" /></cc:Work></rdf:RDF></metadata><g
     inkscape:label="Capa 1"
     inkscape:groupmode="layer"
     id="layer1"
     transform="translate(0,-291.17916)"><g
       id="path14"
       style="stroke:#90a4ae;stroke-width:2;stroke-linecap:round;stroke-linejoin:round"><g
         id="path3"><path
           id="path5"
           style="color:#000000;fill:#90a4ae;stroke:none;-inkscape-stroke:none"
           d="M 5 292.17916 C 3.9093005 292.17916 3 293.08846 3 294.17916 L 3 310.17916 C 3 311.26986 3.9092885 312.17916 5 312.17916 L 8 312.17916 L 10 312.17916 L 12 312.17916 L 14 312.17916 L 15 312.17916 L 16 312.17916 C 16.55226 312.1791 16.999945 311.73142 17 311.17916 L 17 310.17916 L 18 310.17916 C 18.55226 310.1791 18.999945 309.73142 19 309.17916 L 19 307.17916 L 19 305.17916 L 19 303.17916 L 19 301.17916 L 19 298.17916 C 18.999949 297.91396 18.894567 297.65964 18.707031 297.47213 L 13.707031 292.47213 C 13.51952 292.28459 13.265199 292.17921 13 292.17916 L 5 292.17916 z " /><path
           id="path4"
           style="color:#000000;fill:url(#a);stroke:none;-inkscape-stroke:none"
           d="M 5 293.17916 C 4.4460006 293.17916 4 293.62516 4 294.17916 L 4 310.17916 C 4 310.73315 4.4460006 311.17916 5 311.17916 L 8 311.17916 L 8 309.17916 L 10 309.17916 L 10 307.17916 L 8 307.17916 L 8 305.17916 L 10 305.17916 L 10 303.17916 L 12 303.17916 L 12 301.17916 L 14 301.17916 L 14 303.17916 L 16 303.17916 L 16 301.17916 L 18 301.17916 L 18 298.17916 L 13 293.17916 L 5 293.17916 z M 16 303.17916 L 16 305.17916 L 18 305.17916 L 18 303.17916 L 16 303.17916 z M 16 305.17916 L 14 305.17916 L 14 307.17916 L 16 307.17916 L 16 305.17916 z M 16 307.17916 L 16 309.17916 L 18 309.17916 L 18 307.17916 L 16 307.17916 z M 16 309.17916 L 14 309.17916 L 14 311.17916 L 16 311.17916 L 16 309.17916 z M 14 309.17916 L 14 307.17916 L 12 307.17916 L 12 309.17916 L 14 309.17916 z M 12 309.17916 L 10 309.17916 L 10 311.17916 L 12 311.17916 L 12 309.17916 z M 12 307.17916 L 12 305.17916 L 10 305.17916 L 10 307.17916 L 12 307.17916 z M 12 305.17916 L 14 305.17916 L 14 303.17916 L 12 303.17916 L 12 305.17916 z " /></g></g></g></svg>
