<?xml version="1.0" encoding="UTF-8" standalone="no"?>
<svg
   height="22"
   viewBox="0 0 22 22"
   width="22"
   version="1.1"
   id="svg6"
   sodipodi:docname="folder-black.svg"
   inkscape:version="1.3.2 (091e20ef0f, 2023-11-25, custom)"
   xmlns:inkscape="http://www.inkscape.org/namespaces/inkscape"
   xmlns:sodipodi="http://sodipodi.sourceforge.net/DTD/sodipodi-0.dtd"
   xmlns:xlink="http://www.w3.org/1999/xlink"
   xmlns="http://www.w3.org/2000/svg"
   xmlns:svg="http://www.w3.org/2000/svg"
   xmlns:rdf="http://www.w3.org/1999/02/22-rdf-syntax-ns#"
   xmlns:cc="http://creativecommons.org/ns#"
   xmlns:dc="http://purl.org/dc/elements/1.1/">
  <metadata
     id="metadata10">
    <rdf:RDF>
      <cc:Work
         rdf:about="">
        <dc:format>image/svg+xml</dc:format>
        <dc:type
           rdf:resource="http://purl.org/dc/dcmitype/StillImage" />
        <dc:title />
      </cc:Work>
    </rdf:RDF>
  </metadata>
  <sodipodi:namedview
     pagecolor="#ffffff"
     bordercolor="#666666"
     borderopacity="1"
     objecttolerance="10"
     gridtolerance="10"
     guidetolerance="10"
     inkscape:pageopacity="0"
     inkscape:pageshadow="2"
     inkscape:window-width="2560"
     inkscape:window-height="1364"
     id="namedview8"
     showgrid="true"
     inkscape:zoom="10.727273"
     inkscape:cx="4.427966"
     inkscape:cy="11.372881"
     inkscape:window-x="0"
     inkscape:window-y="0"
     inkscape:window-maximized="1"
     inkscape:current-layer="svg6"
     inkscape:showpageshadow="2"
     inkscape:pagecheckerboard="0"
     inkscape:deskcolor="#d1d1d1">
    <inkscape:grid
       type="xygrid"
       id="grid837"
       originx="0"
       originy="0"
       spacingy="1"
       spacingx="1"
       units="px"
       visible="true" />
  </sodipodi:namedview>
  <defs
     id="defs2">
    <style
       type="text/css"
       id="current-color-scheme">
      .ColorScheme-Text {
        color:#122036;
      }
      </style>
    <style
       id="current-color-scheme-67"
       type="text/css">
      .ColorScheme-Text {
        color:#122036;
      }
      </style>
    <style
       id="current-color-scheme-1"
       type="text/css">
      .ColorScheme-Text {
        color:#122036;
      }
      </style>
    <style
       type="text/css"
       id="current-color-scheme-10">
      .ColorScheme-Text {
        color:#122036;
      }
      </style>
    <style
       type="text/css"
       id="current-color-scheme-5">
      .ColorScheme-Text {
        color:#122036;
      }
      </style>
    <style
       type="text/css"
       id="current-color-scheme-1-2">
      .ColorScheme-Text {
        color:#122036;
      }
      </style>
    <style
       id="current-color-scheme-10-9"
       type="text/css">
      .ColorScheme-Text {
        color:#122036;
      }
      </style>
    <style
       id="current-color-scheme-9"
       type="text/css">
      .ColorScheme-Text {
        color:#122036;
      }
      </style>
    <style
       id="current-color-scheme-2"
       type="text/css">
      .ColorScheme-Text {
        color:#122036;
      }
      </style>
    <style
       id="current-color-scheme-4"
       type="text/css">
      .ColorScheme-Text {
        color:#122036;
      }
      </style>
    <style
       id="current-color-scheme-7"
       type="text/css">
      .ColorScheme-Text {
        color:#122036;
      }
      </style>
    <style
       id="current-color-scheme-5-0"
       type="text/css">
      .ColorScheme-Text {
        color:#122036;
      }
      </style>
    <style
       type="text/css"
       id="current-color-scheme-9-6">
      .ColorScheme-Text {
        color:#122036;
      }
      </style>
    <style
       type="text/css"
       id="current-color-scheme-1-29">
      .ColorScheme-Text {
        color:#122036;
      }
      </style>
    <style
       id="current-color-scheme-10-90"
       type="text/css">
      .ColorScheme-Text {
        color:#122036;
      }
      </style>
    <style
       type="text/css"
       id="current-color-scheme-6">
      .ColorScheme-Text {
        color:#122036;
      }
      </style>
    <style
       type="text/css"
       id="current-color-scheme-7-1">
      .ColorScheme-Text {
        color:#122036;
      }
      </style>
    <style
       type="text/css"
       id="current-color-scheme-5-2">
      .ColorScheme-Text {
        color:#122036;
      }
      </style>
    <linearGradient
       inkscape:collect="always"
       xlink:href="#linearGradient31"
       id="linearGradient28"
       gradientUnits="userSpaceOnUse"
       gradientTransform="translate(25.001953,35.041038)"
       x1="2.9541011"
       y1="-13.013672"
       x2="2.949219"
       y2="-18.027344" />
    <linearGradient
       id="linearGradient31"
       inkscape:collect="always">
      <stop
         style="stop-color:#627c8a;stop-opacity:1;"
         offset="0"
         id="stop30" />
      <stop
         style="stop-color:#30445b;stop-opacity:1;"
         offset="1"
         id="stop31" />
    </linearGradient>
    <linearGradient
       inkscape:collect="always"
       xlink:href="#linearGradient29"
       id="linearGradient25-3"
       x1="19.050781"
       y1="21"
       x2="19.047852"
       y2="4.972652"
       gradientUnits="userSpaceOnUse" />
    <linearGradient
       id="linearGradient29"
       inkscape:collect="always">
      <stop
         style="stop-color:#455f76;stop-opacity:1;"
         offset="0"
         id="stop28" />
      <stop
         style="stop-color:#637d8a;stop-opacity:1;"
         offset="1"
         id="stop29" />
    </linearGradient>
  </defs>
  <g
     id="g1"
     transform="translate(-36.000489,-33)">
    <g
       id="g2"
       transform="translate(11,19)">
      <path
         style="color:#000000;fill:url(#linearGradient28);fill-opacity:1;stroke-linecap:round;stroke-linejoin:round;-inkscape-stroke:none;paint-order:markers stroke fill"
         d="M 27.953125,16.000027 C 26.884712,15.994327 26,16.88719 26,17.949245 v 15.101563 c 0,1.062047 0.885219,1.949219 1.947266,1.949219 H 44.050781 C 45.112828,35.000027 46,34.112855 46,33.050808 V 20.949245 c 0,-1.062046 -0.887172,-1.949218 -1.949219,-1.949218 H 37 c -0.252235,0 -0.340793,-0.04977 -0.521484,-0.210938 -0.180692,-0.161168 -0.398438,-0.462337 -0.648438,-0.833984 -0.25,-0.371647 -0.532255,-0.814636 -0.976562,-1.210938 C 34.409208,16.347866 33.747764,16 33,16 Z"
         id="path9-5-2"
         sodipodi:nodetypes="cssssssssssscc" />
      <path
         id="path7-5-6-7-5"
         style="color:#000000;fill:#223240;fill-opacity:1;stroke-linecap:round;stroke-linejoin:round;-inkscape-stroke:none;paint-order:markers stroke fill"
         d="m 33,16 c 0.752233,0 1.415872,0.329701 1.859375,0.732422 0.443502,0.402721 0.724609,0.852117 0.974608,1.230469 0.25,0.378352 0.468895,0.686755 0.650391,0.851562 0.181496,0.164807 0.267861,0.212891 0.515625,0.212891 l 7.046875,-0.02734 c 1.068412,-0.0057 1.953125,0.88716 1.953125,1.949215 v 12.1015 c 0,1.062046 -0.88522,1.949219 -1.947266,1.949219 H 27.949219 C 26.887173,34.999938 26,34.112765 26,33.050719 v -15.1015 C 26,16.887173 26.887175,16 27.949219,16 Z m 0,1 H 27.949219 C 27.423874,17 27,17.423874 27,17.949219 v 15.1015 c 0,0.525345 0.423874,0.949219 0.949219,0.949219 h 16.103514 c 0.525345,0 0.947266,-0.423874 0.947266,-0.949219 v -12.1015 c 0,-0.525344 -0.421929,-0.952008 -0.947266,-0.949219 l -7.052734,0.02734 c -1.999998,0 -2.000002,-3.027344 -3.999999,-3.027344 z"
         sodipodi:nodetypes="ssssccssssssssssssssssccs" />
      <g
         id="rect6-3-9-8"
         transform="translate(25.000977,14)">
        <path
           style="color:#000000;fill:url(#linearGradient25-3);fill-opacity:1;stroke-linecap:round;stroke-linejoin:round;-inkscape-stroke:none;paint-order:markers stroke fill"
           d="M 12,5 C 11.247766,5 10.584128,5.3297007 10.140625,5.7324219 9.6971221,6.135143 9.4160154,6.5845384 9.1660156,6.9628906 8.9160159,7.3412428 8.6971214,7.649646 8.515625,7.8144531 8.3341286,7.9792603 8.2477647,8.0273438 8,8.0273438 L 2.953125,8 C 1.8847121,7.9943274 1,8.8871629 1,9.9492188 V 19.050781 C 1,20.112828 1.8852191,21 2.9472656,21 H 19.050781 C 20.112828,21 21,20.112828 21,19.050781 V 6.9492187 C 21,5.8871723 20.112826,5 19.050781,5 Z"
           id="path7-9-9"
           sodipodi:nodetypes="ssssccssssssss" />
      </g>
      <g
         id="rect6-3-3-25-0"
         style="fill:#000000;fill-opacity:0.2"
         transform="translate(25.000977,14)">
        <path
           id="path7-5-3-2"
           style="color:#000000;fill:#223240;fill-opacity:1;stroke-linecap:round;stroke-linejoin:round;-inkscape-stroke:none;paint-order:markers stroke fill"
           d="m 12,4.9999962 c -0.752233,0 -1.415872,0.3297011 -1.859375,0.7324219 C 9.6971225,6.1351388 9.4160152,6.5845351 9.1660156,6.9628869 8.9160161,7.3412387 8.6971212,7.6496424 8.515625,7.8144494 8.3341288,7.9792564 8.2477644,8.02734 8,8.02734 L 2.953125,7.9999962 C 1.8847131,7.9943237 0.99999998,8.8871602 0.99999998,9.949215 v 9.101562 c 0,1.062046 0.88522022,1.949219 1.94726562,1.949219 H 19.050781 C 20.112827,20.999996 21,20.112823 21,19.050777 V 6.949215 C 21,5.8871697 20.112825,4.9999962 19.050781,4.9999962 Z m 0,1 h 7.050781 C 19.576126,5.9999962 20,6.4238705 20,6.949215 v 12.101562 c 0,0.525345 -0.423874,0.949219 -0.949219,0.949219 H 2.9472656 C 2.4219214,19.999996 2,19.576122 2,19.050777 V 9.949215 C 2,9.4238708 2.4219288,8.9972071 2.9472656,8.9999962 L 8,9.02734 c 1.999998,0 2.000002,-3.0273438 4,-3.0273438 z"
           sodipodi:nodetypes="ssssccssssssssssssssssccs" />
      </g>
    </g>
  </g>
</svg>
