<?xml version="1.0" encoding="UTF-8" standalone="no"?>
<svg
   height="22"
   viewBox="0 0 5.8208332 5.8208335"
   width="22"
   version="1.1"
   id="svg9"
   sodipodi:docname="folder-tar.svg"
   inkscape:version="1.3.2 (091e20ef0f, 2023-11-25, custom)"
   xmlns:inkscape="http://www.inkscape.org/namespaces/inkscape"
   xmlns:sodipodi="http://sodipodi.sourceforge.net/DTD/sodipodi-0.dtd"
   xmlns:xlink="http://www.w3.org/1999/xlink"
   xmlns="http://www.w3.org/2000/svg"
   xmlns:svg="http://www.w3.org/2000/svg">
  <sodipodi:namedview
     id="namedview9"
     pagecolor="#ffffff"
     bordercolor="#000000"
     borderopacity="0.25"
     inkscape:showpageshadow="2"
     inkscape:pageopacity="0.0"
     inkscape:pagecheckerboard="0"
     inkscape:deskcolor="#d1d1d1"
     inkscape:zoom="13.181818"
     inkscape:cx="-7.0172414"
     inkscape:cy="5.9931034"
     inkscape:window-width="2560"
     inkscape:window-height="1364"
     inkscape:window-x="0"
     inkscape:window-y="0"
     inkscape:window-maximized="1"
     inkscape:current-layer="svg9" />
  <defs
     id="kuyenfoldercolor">
    <style
       type="text/css"
       id="current-color-scheme">
      .ColorScheme-Highlight {
        color:#03b2fe;
      }
      </style>
    <linearGradient
       inkscape:collect="always"
       xlink:href="#linearGradient4111"
       id="linearGradient4113"
       x1="3.7041664"
       y1="1.0583333"
       x2="3.7041664"
       y2="5.2916665"
       gradientUnits="userSpaceOnUse" />
    <linearGradient
       inkscape:collect="always"
       id="linearGradient4111">
      <stop
         style="stop-color:#2c9df7;stop-opacity:1;"
         offset="0"
         id="stop4107" />
      <stop
         style="stop-color:#70b9f1;stop-opacity:1;"
         offset="1"
         id="stop4109" />
    </linearGradient>
  </defs>
  <g
     id="g9"
     transform="translate(-6.8791666,-4.4979165)">
    <g
       id="g2"
       transform="matrix(0.26458333,0,0,-0.26458333,6.6145834,10.583333)">
      <g
         inkscape:label="Capa 1"
         id="layer1"
         transform="scale(3.7795276)">
        <path
           id="rect1728"
           style="opacity:1;fill:#2381cc;fill-opacity:1;stroke-width:0.529167;stroke-linecap:round;stroke-linejoin:round;stroke-miterlimit:1.8;paint-order:fill markers stroke;stop-color:#000000"
           d="m 1.0583333,0.52916664 h 4.2333332 c 0.2931583,0 0.5291666,0.23600832 0.5291666,0.52916666 v 4.2333332 c 0,0.2931583 -0.2360083,0.5291666 -0.5291666,0.5291666 H 1.0583333 c -0.29315834,0 -0.52916666,-0.2360083 -0.52916666,-0.5291666 V 1.0583333 c 0,-0.29315834 0.23600832,-0.52916666 0.52916666,-0.52916666 z" />
        <path
           id="rect1728-7"
           style="fill:url(#linearGradient4113);stroke-width:0.529167;stroke-linecap:round;stroke-linejoin:round;stroke-miterlimit:1.8;paint-order:fill markers stroke;stop-color:#000000"
           d="m 1.0583333,0.79374999 h 4.2333341 c 0.1465792,0 0.2645834,0.11800416 0.2645834,0.26458331 v 4.2333332 c 0,0.1465791 -0.1180042,0.2645833 -0.2645834,0.2645833 H 1.0583333 c -0.14657915,0 -0.26458331,-0.1180042 -0.26458331,-0.2645833 V 1.0583333 c 0,-0.14657915 0.11800416,-0.26458331 0.26458331,-0.26458331 z" />
      </g>
    </g>
    <path
       d="M 8.9983039,4.7625 V 5.0270833 5.2916666 5.55625 7.4083333 c 0,0.4397428 0.3540125,0.79375 0.7937501,0.79375 0.439737,0 0.79375,-0.3540072 0.79375,-0.79375 V 5.55625 5.2916666 5.0270833 4.7625 Z"
       fill="#010102"
       id="path13"
       sodipodi:nodetypes="ccccsssccccc"
       style="stroke-width:0.264583" />
    <path
       d="m 9.2628872,5.0270621 v 0.7937421 l -10e-8,1.5875211 c 0,0.2931584 0.2360084,0.529172 0.5291669,0.529172 0.293158,0 0.529167,-0.2360136 0.529167,-0.529172 V 5.8208042 5.0270621 H 9.792054 Z"
       fill="url(#a)"
       id="path14"
       style="fill:#262626;fill-opacity:1;stroke-width:0.264583"
       sodipodi:nodetypes="ccssscccc" />
    <path
       d="m 9.792054,5.0270833 h 0.264583 z m 0,0 H 9.5274705 V 5.2916666 H 9.792054 Z m 0,0.2645833 V 5.55625 h 0.264583 V 5.2916666 Z m 0,0.2645834 H 9.5274705 V 5.8208333 H 9.792054 Z m 0,0.2645833 v 0.2645834 h 0.264583 V 5.8208333 Z m 0,0.2645834 H 9.5274705 V 6.3500001 H 9.792054 Z m 0,0.2645834 v 0.2645833 h 0.264583 V 6.3500001 Z m 0,0.2645833 H 9.5274705 V 6.8791666 H 9.792054 Z m 0,0.2645832 v 0.2645833 h 0.264583 V 6.8791666 Z m 0,0.2645833 H 9.5274705 V 7.4083333 H 9.792054 Z m 0,0.2645834 v 0.2645833 h 0.264583 V 7.4083333 Z"
       fill="#fefefe"
       id="path15"
       sodipodi:nodetypes="ccccccccccccccccccccccccccccccccccccccccccccccccccccc"
       style="stroke-width:0.264583" />
  </g>
</svg>
