<?xml version="1.0" encoding="UTF-8" standalone="no"?>
<!-- Created with Inkscape (http://www.inkscape.org/) -->

<svg
   width="22"
   height="22"
   viewBox="0 0 22 22"
   version="1.1"
   id="svg1"
   inkscape:version="1.3.2 (091e20ef0f, 2023-11-25, custom)"
   sodipodi:docname="library-music.svg"
   xml:space="preserve"
   xmlns:inkscape="http://www.inkscape.org/namespaces/inkscape"
   xmlns:sodipodi="http://sodipodi.sourceforge.net/DTD/sodipodi-0.dtd"
   xmlns:xlink="http://www.w3.org/1999/xlink"
   xmlns="http://www.w3.org/2000/svg"
   xmlns:svg="http://www.w3.org/2000/svg"><sodipodi:namedview
     id="namedview1"
     pagecolor="#ffffff"
     bordercolor="#000000"
     borderopacity="0.25"
     inkscape:showpageshadow="false"
     inkscape:pageopacity="0.0"
     inkscape:pagecheckerboard="true"
     inkscape:deskcolor="#d1d1d1"
     inkscape:document-units="px"
     inkscape:zoom="46.443345"
     inkscape:cx="6.2764644"
     inkscape:cy="6.5025463"
     inkscape:window-width="2560"
     inkscape:window-height="1364"
     inkscape:window-x="0"
     inkscape:window-y="0"
     inkscape:window-maximized="1"
     inkscape:current-layer="layer1"
     showgrid="true"><inkscape:grid
       id="grid3"
       units="px"
       originx="0"
       originy="0"
       spacingx="1"
       spacingy="1"
       empcolor="#0099e5"
       empopacity="0.30196078"
       color="#0099e5"
       opacity="0.14901961"
       empspacing="5"
       dotted="false"
       gridanglex="30"
       gridanglez="30"
       visible="true" /></sodipodi:namedview><defs
     id="defs1"><linearGradient
       inkscape:collect="always"
       xlink:href="#linearGradient1733"
       id="linearGradient1735"
       x1="8"
       y1="307.64999"
       x2="8"
       y2="295.64999"
       gradientUnits="userSpaceOnUse"
       gradientTransform="translate(-2,-289.65004)" /><linearGradient
       inkscape:collect="always"
       id="linearGradient1733"><stop
         style="stop-color:#595e78;stop-opacity:1;"
         offset="0"
         id="stop1729" /><stop
         style="stop-color:#6f7793;stop-opacity:1;"
         offset="1"
         id="stop1731" /></linearGradient><linearGradient
       inkscape:collect="always"
       xlink:href="#linearGradient895"
       id="linearGradient3"
       gradientUnits="userSpaceOnUse"
       gradientTransform="matrix(0.26458333,0,0,0.26458333,-2.1166664,292.06439)"
       x1="7"
       y1="13.000012"
       x2="7"
       y2="3.0000126" /><linearGradient
       id="linearGradient895"
       inkscape:collect="always"><stop
         id="stop891"
         offset="0"
         style="stop-color:#595e78;stop-opacity:1;" /><stop
         id="stop893"
         offset="1"
         style="stop-color:#6f7793;stop-opacity:1;" /></linearGradient></defs><g
     inkscape:label="Capa 1"
     inkscape:groupmode="layer"
     id="layer1"><path
       id="rect4689-9"
       d="M 13,1.99997 8,3.99998 v 3 0.99999 4.5508 C 7.410448,12.20911 6.733029,11.99998 6,11.99998 3.784,11.99998 2,13.784 2,15.99997 2,18.21598 3.784,20 6,20 c 2.216,0 4,-1.78402 4,-4.00003 V 10.99996 7.1992 l 3,-1.19924 z"
       style="fill:#363c4d;fill-opacity:1;stroke:#363c4d;stroke-width:2;stroke-linecap:round;stroke-linejoin:round;stroke-dasharray:none;stroke-opacity:1"
       inkscape:connector-curvature="0"
       sodipodi:nodetypes="cccccsssscccc" /><path
       id="rect4689-9-9"
       d="M 13,1.99997 8,3.99998 v 3 0.99999 4.5508 C 7.410448,12.20911 6.733029,11.99998 6,11.99998 3.784,11.99998 2,13.784 2,15.99997 2,18.21598 3.784,20 6,20 c 2.216,0 4,-1.78402 4,-4.00003 V 10.99996 7.1992 l 3,-1.19924 z"
       style="fill:url(#linearGradient1735);fill-opacity:1;stroke:none;stroke-width:2;stroke-linecap:round;stroke-linejoin:round;stroke-dasharray:none;stroke-opacity:1"
       inkscape:connector-curvature="0"
       sodipodi:nodetypes="cccccsssscccc" /><g
       id="g2018"
       transform="matrix(3.7795275,0,0,3.7795275,17,-1100.8654)"><path
         id="rect3"
         style="fill:#363c4d;stroke-width:0.529167;stroke-linecap:round;stroke-linejoin:round;paint-order:markers stroke fill"
         d="m 8e-8,293.3873 h 0.52916658 v 1.7198 H 8e-8 Z"
         sodipodi:nodetypes="ccccc" /><path
         id="path3"
         style="fill:#363c4d;fill-opacity:1;stroke:#363c4d;stroke-width:0.529167;stroke-linecap:round;stroke-linejoin:round;stroke-miterlimit:4;stroke-dasharray:none;stroke-opacity:1;paint-order:fill markers stroke"
         d="m 0.79375001,292.59355 -0.52916667,0.26459 v 0.52917 l 0.52916667,-0.26459 z m -1.19062502,1.85209 c -0.36644754,0 -0.66145829,0.29501 -0.66145829,0.66146 0,0.36645 0.29501075,0.66146 0.66145829,0.66146 0.3664476,0 0.66145835,-0.29501 0.66145835,-0.66146 0,-0.36645 -0.29501075,-0.66146 -0.66145835,-0.66146 z"
         sodipodi:nodetypes="cccccsssss" /><path
         id="path3-6"
         style="fill:url(#linearGradient3);fill-opacity:1;stroke:none;stroke-width:0.529167;stroke-linecap:round;stroke-linejoin:round;stroke-miterlimit:4;stroke-dasharray:none;stroke-opacity:1;paint-order:fill markers stroke"
         d="m 0.79375004,292.59355 -0.5291667,0.26459 v 0.52917 l 0.5291667,-0.26459 z m -1.19062505,1.85209 c -0.36644754,0 -0.66145829,0.29501 -0.66145829,0.66146 0,0.36645 0.29501075,0.66146 0.66145829,0.66146 0.3664476,0 0.66145835,-0.29501 0.66145835,-0.66146 0,-0.36645 -0.29501075,-0.66146 -0.66145835,-0.66146 z"
         sodipodi:nodetypes="cccccsssss" /></g></g></svg>
