<svg height="22" viewBox="0 0 22 22" width="22" xmlns="http://www.w3.org/2000/svg" xmlns:xlink="http://www.w3.org/1999/xlink"><defs id="antufoldercolor">
    <style type="text/css" id="current-color-scheme">
      .ColorScheme-Highlight {
        color:#45aaf5;
      }
      </style>
  </defs><linearGradient id="a" gradientUnits="userSpaceOnUse" x1="6" x2="6" y1="-10.027377" y2="-17.027376"><stop offset="0" stop-color="#fff" stop-opacity=".2"/><stop offset="1" stop-color="#fff" stop-opacity="0"/></linearGradient><linearGradient id="b" gradientUnits="userSpaceOnUse" x1="52.00286" x2="52.00286" y1="66.027376" y2="54.027376"><stop offset="0" stop-color="#fff" stop-opacity="0"/><stop offset="1" stop-color="#fff" stop-opacity=".2"/></linearGradient><g transform="translate(-41.002929 -47.027379)"><g transform="translate(41.001953 68.041043)"><path d="m2.951172-19.041016c-1.068413-.0057-1.953125.887163-1.953125 1.949218v15.1015627c0 1.0620471.885219 1.9492191 1.947266 1.9492191h16.103515c1.062047 0 1.949219-.887172 1.949219-1.9492191v-12.1015627c0-1.062046-.887172-1.949218-1.949219-1.949218h-7.050781c-.252235 0-.340793-.04977-.521484-.210938-.180692-.161168-.398438-.462337-.648438-.833984s-.532255-.814636-.9765624-1.210938c-.4443076-.396301-1.1057515-.716797-1.8535156-.716797z" style="fill:currentColor"
class="ColorScheme-Highlight"/><path d="m8-19.027344c.752233 0 1.415872.329701 1.859375.732422.443502.402721.72461.852117.974609 1.230469.25.378352.468895.686755.650391.851562s.267861.212891.515625.212891l7.046875-.02734c1.068412-.005674 1.953125.88716 1.953125 1.949215v12.1014996c0 1.062046-.88522 1.949219-1.947266 1.949219h-16.103515c-1.062046-0-1.949219-.887173-1.949219-1.949219v-15.1014996c0-1.062046.887175-1.949219 1.949219-1.949219zm0 1h-5.050781c-.525345 0-.949219.423874-.949219.949219v15.1014998c0 .525345.423874.949219.949219.949219h16.103515c.525345 0 .947266-.423874.947266-.949219v-12.1014998c0-.525344-.421929-.952008-.947266-.949219l-7.052734.027344c-1.999998 0-2.000002-3.027344-4-3.027344z" fill-opacity=".2"/><path d="m2.949219-18.027373c-.525345 0-.949219.423874-.949219.949219v15.1015618c0 .525345.423875.949219.949219.949219h16.103516c.525344 0 .947265-.423874.947265-.949219v-12.1015618c0-.525344-.421929-.952008-.947265-.949219l-7.052735.02734c-1.999996 0-2.000003-3.027344-4-3.027344z" fill-opacity=".098039"/><path d="m2.9492192-18.027373c-.525345 0-.949219.423874-.949219.949219v15.1015618c0 .525345.423875.949219.949219.949219h16.1035158c.525344 0 .947265-.423874.947265-.949219v-12.1015618c0-.525344-.421929-.952008-.947265-.949219l-7.052735.02734c-1.999996 0-2.000003-3.027344-3.9999998-3.027344z" fill="url(#a)"/></g><path d="m53.002929 52.027375c-.752234 0-1.415872.329701-1.859375.732422s-.72461.852116-.974609 1.230469c-.25.378352-.468895.686755-.650391.851562s-.26786.212891-.515625.212891l-5.046875-.02734c-1.068413-.0057-1.953125.887163-1.953125 1.949219v9.101562c0 1.062047.885219 1.949219 1.947266 1.949219h16.103515c1.062047 0 1.949219-.887172 1.949219-1.949219v-12.101566c0-1.062047-.887174-1.949219-1.949219-1.949219z" style="fill:currentColor"
class="ColorScheme-Highlight"/><path d="m43.951067 56.027376 5.051724.02682c2 0 2-3.026821 4-3.026821h7.051862c.525345 0 .948276.42293.948276.948275v12.10345c0 .525345-.422931.948276-.948276.948276h-16.103586c-.525345 0-.948276-.422931-.948276-.948276v-9.103449c0-.525344.422938-.951065.948276-.948275z" fill="url(#b)"/><path d="m53.002929 52.027371c-.752233 0-1.415872.329701-1.859375.732422s-.72461.852117-.974609 1.230469c-.25.378352-.468895.686755-.650391.851562s-.267861.212891-.515625.212891l-5.046875-.02734c-1.068412-.0057-1.953125.887164-1.953125 1.949219v9.101562c0 1.062046.88522 1.949219 1.947266 1.949219h16.103515c1.062046 0 1.949219-.887173 1.949219-1.949219v-12.101566c0-1.062045-.887175-1.949219-1.949219-1.949219zm0 1h7.050781c.525345 0 .949219.423874.949219.949219v12.101562c0 .525345-.423874.949219-.949219.949219h-16.103515c-.525345 0-.947266-.423874-.947266-.949219v-9.101562c0-.525344.421929-.952008.947266-.949219l5.052734.02734c1.999998 0 2.000002-3.027344 4-3.027344z" fill-opacity=".2"/></g></svg>
