<?xml version="1.0" encoding="UTF-8" standalone="no"?>
<!-- Created with Inkscape (http://www.inkscape.org/) -->

<svg
   width="22"
   height="22"
   viewBox="0 0 22 22"
   version="1.1"
   id="svg1"
   inkscape:version="1.3.2 (091e20ef0f, 2023-11-25, custom)"
   sodipodi:docname="user-trash-full.svg"
   xmlns:inkscape="http://www.inkscape.org/namespaces/inkscape"
   xmlns:sodipodi="http://sodipodi.sourceforge.net/DTD/sodipodi-0.dtd"
   xmlns:xlink="http://www.w3.org/1999/xlink"
   xmlns="http://www.w3.org/2000/svg"
   xmlns:svg="http://www.w3.org/2000/svg">
  <sodipodi:namedview
     id="namedview1"
     pagecolor="#ffffff"
     bordercolor="#000000"
     borderopacity="0.25"
     inkscape:showpageshadow="false"
     inkscape:pageopacity="0.0"
     inkscape:pagecheckerboard="true"
     inkscape:deskcolor="#d1d1d1"
     inkscape:document-units="px"
     inkscape:zoom="5.8054181"
     inkscape:cx="51.761991"
     inkscape:cy="58.049221"
     inkscape:window-width="2560"
     inkscape:window-height="1364"
     inkscape:window-x="0"
     inkscape:window-y="0"
     inkscape:window-maximized="1"
     inkscape:current-layer="layer1" />
  <defs
     id="defs1">
    <linearGradient
       inkscape:collect="always"
       xlink:href="#linearGradient16"
       id="linearGradient17"
       x1="7.5"
       y1="9"
       x2="9"
       y2="7"
       gradientUnits="userSpaceOnUse"
       gradientTransform="translate(85,42)" />
    <linearGradient
       id="linearGradient16"
       inkscape:collect="always">
      <stop
         style="stop-color:#22a874;stop-opacity:1;"
         offset="0"
         id="stop16" />
      <stop
         style="stop-color:#27be84;stop-opacity:1;"
         offset="1"
         id="stop17" />
    </linearGradient>
    <linearGradient
       inkscape:collect="always"
       xlink:href="#linearGradient14"
       id="linearGradient15"
       x1="10"
       y1="8"
       x2="10"
       y2="2"
       gradientUnits="userSpaceOnUse"
       gradientTransform="translate(85,42)" />
    <linearGradient
       id="linearGradient14"
       inkscape:collect="always">
      <stop
         style="stop-color:#0e95f7;stop-opacity:1;"
         offset="0"
         id="stop14" />
      <stop
         style="stop-color:#54cafe;stop-opacity:1;"
         offset="1"
         id="stop15" />
    </linearGradient>
    <linearGradient
       inkscape:collect="always"
       xlink:href="#linearGradient3"
       id="linearGradient4"
       x1="14"
       y1="10"
       x2="14"
       y2="4"
       gradientUnits="userSpaceOnUse"
       gradientTransform="translate(85,42)" />
    <linearGradient
       id="linearGradient3"
       inkscape:collect="always">
      <stop
         style="stop-color:#ffc900;stop-opacity:1;"
         offset="0"
         id="stop3" />
      <stop
         style="stop-color:#ffe93d;stop-opacity:1;"
         offset="1"
         id="stop4" />
    </linearGradient>
    <linearGradient
       inkscape:collect="always"
       xlink:href="#linearGradient6437"
       id="linearGradient6439"
       x1="3.175"
       y1="5.2916665"
       x2="3.175"
       y2="2.6458333"
       gradientUnits="userSpaceOnUse"
       gradientTransform="matrix(3.7795276,0,0,3.7795276,84,41)" />
    <linearGradient
       inkscape:collect="always"
       id="linearGradient6437">
      <stop
         style="stop-color:#cccccc;stop-opacity:1;"
         offset="0"
         id="stop6433" />
      <stop
         style="stop-color:#e4e4e4;stop-opacity:1;"
         offset="1"
         id="stop6435" />
    </linearGradient>
    <linearGradient
       inkscape:collect="always"
       xlink:href="#linearGradient7505"
       id="linearGradient7507"
       x1="3.175"
       y1="4.7624998"
       x2="3.175"
       y2="3.175"
       gradientUnits="userSpaceOnUse"
       gradientTransform="matrix(3.7795276,0,0,3.7795276,84,41)" />
    <linearGradient
       inkscape:collect="always"
       id="linearGradient7505">
      <stop
         style="stop-color:#c4c4c4;stop-opacity:1;"
         offset="0"
         id="stop7501" />
      <stop
         style="stop-color:#a7a7a7;stop-opacity:1;"
         offset="1"
         id="stop7503" />
    </linearGradient>
  </defs>
  <g
     inkscape:label="Capa 1"
     inkscape:groupmode="layer"
     id="layer1">
    <g
       id="g1"
       transform="translate(-85,-42)">
      <path
         id="rect1-6"
         style="fill:#1586f3;stroke-width:2;stroke-linecap:round;stroke-linejoin:round;paint-order:stroke fill markers"
         d="m 93,43 h 4 c 0.554,0 1,0.446 1,1 v 5 c 0,0.554 -0.446,1 -1,1 h -4 c -0.554001,0 -1,-0.446 -1,-1 v -5 c 0,-0.554 0.445999,-1 1,-1 z" />
      <path
         id="rect2-2"
         style="fill:url(#linearGradient15);stroke-width:2;stroke-linecap:round;stroke-linejoin:round;paint-order:stroke fill markers"
         d="m 93,44 h 4 v 6 h -4 z" />
      <path
         id="rect1-6-9"
         style="fill:#fe9500;stroke-width:2;stroke-linecap:round;stroke-linejoin:round;paint-order:stroke fill markers"
         d="M 96.999999,45 H 101 c 0.554,0 1,0.446 1,1 v 5 c 0,0.554 -0.446,1 -1,1 h -4.000001 c -0.554,0 -1,-0.446 -1,-1 v -5 c 0,-0.554 0.446,-1 1,-1 z" />
      <path
         id="rect2-2-2"
         style="fill:url(#linearGradient4);stroke-width:2;stroke-linecap:round;stroke-linejoin:round;paint-order:stroke fill markers"
         d="M 96.999999,46 H 101 v 6 h -4.000001 z" />
      <path
         id="rect1"
         style="fill:#00804b;stroke-width:2;stroke-linecap:round;stroke-linejoin:round;paint-order:stroke fill markers"
         d="m 91,46 h 3 c 0.554,0 1,0.446 1,1 v 3 c 0,0.554 -0.446,1 -1,1 h -3 c -0.554,0 -1,-0.446 -1,-1 v -3 c 0,-0.554 0.446,-1 1,-1 z" />
      <path
         id="rect2"
         style="fill:url(#linearGradient17);stroke-width:2;stroke-linecap:round;stroke-linejoin:round;paint-order:stroke fill markers"
         d="m 91,47 h 3 v 4 h -3 z" />
      <path
         id="rect1-1"
         style="fill:#cc0120;stroke-width:2;stroke-linecap:round;stroke-linejoin:round;paint-order:stroke fill markers"
         d="m 94,47 h 3 c 0.554,0 1,0.446 1,1 v 3 c 0,0.554 -0.446,1 -1,1 h -3 c -0.554,0 -1,-0.446 -1,-1 v -3 c 0,-0.554 0.446,-1 1,-1 z" />
      <path
         id="rect1575"
         style="fill:#a6a6a6;fill-opacity:0.992157;stroke:none;stroke-width:2;stroke-linecap:round;stroke-linejoin:round;stroke-miterlimit:1.8;paint-order:fill markers stroke;stop-color:#000000"
         d="m 92,49 h -3 v 1 1 1 1 0 9 c 0,0.553999 0.446001,1 1,1 h 12 c 0.554,0 1,-0.446001 1,-1 v -9 0 -1 -1 -1 -1 h -3 z"
         sodipodi:nodetypes="cccccccsssscccccccc" />
      <path
         id="rect5175"
         style="fill:url(#linearGradient6439);stroke-width:2;stroke-linecap:round;stroke-linejoin:round;stroke-miterlimit:1.8;paint-order:fill markers stroke;stop-color:#000000"
         d="m 90,50 h 12 V 62 H 90 Z" />
      <path
         id="rect7494"
         style="fill:url(#linearGradient7507);fill-opacity:1;stroke:none;stroke-width:2;stroke-linecap:round;stroke-linejoin:round;stroke-miterlimit:1.8;paint-order:fill markers stroke;stop-color:#000000"
         d="m 93,52 c -0.553999,0 -1,0.446001 -1,1 v 6 c 0,0.553999 0.446001,1 1,1 0.554,0 1,-0.446001 1,-1 v -6 c 0,-0.553999 -0.446,-1 -1,-1 z m 3,0 c -0.553999,0 -1,0.446001 -1,1 v 6 c 0,0.553999 0.446001,1 1,1 0.554,0 1,-0.446001 1,-1 v -6 c 0,-0.553999 -0.446,-1 -1,-1 z m 3,0 c -0.553999,0 -1,0.446001 -1,1 v 6 c 0,0.553999 0.446001,1 1,1 0.554,0 1,-0.446001 1,-1 v -6 c 0,-0.553999 -0.446,-1 -1,-1 z" />
    </g>
  </g>
</svg>
