<svg height="48" viewBox="0 0 48 48" width="48" xmlns="http://www.w3.org/2000/svg" xmlns:xlink="http://www.w3.org/1999/xlink"><defs id="antufoldercolor">
    <style type="text/css" id="current-color-scheme">
      .ColorScheme-Highlight {
        color:#45aaf5;
      }
      </style>
  </defs><linearGradient id="a" gradientUnits="userSpaceOnUse" x1="11.999996" x2="11.999996" y1="303.649954" y2="264.650029"><stop offset="0" stop-color="#293b4e"/><stop offset="1" stop-color="#384d63"/></linearGradient><linearGradient id="b" gradientUnits="userSpaceOnUse" x1="11.999996" x2="11.999996" y1="301.650085" y2="266.649996"><stop offset="0" stop-color="#fff" stop-opacity="0"/><stop offset="1" stop-color="#fff" stop-opacity=".2"/></linearGradient><linearGradient id="c" gradientUnits="userSpaceOnUse" x1="9.999995" x2="9.999995" y1="299.650005" y2="272.649929"><stop offset="0" stop-color="#fff" stop-opacity=".7"/><stop offset="1" stop-color="#fff" stop-opacity=".85"/></linearGradient><g stroke-linecap="round" stroke-linejoin="round" stroke-miterlimit="1.8" stroke-width="2" transform="translate(12.000003 -259.64999)"><path d="m-9.0000039 261.64999h42.0000009c1.661998 0 3 1.33803 3 3v39c0 1.66197-1.338002 3-3 3h-42.0000009c-1.6620021 0-3.0000001-1.33803-3.0000001-3v-39c0-1.66197 1.337998-3 3.0000001-3z" fill="#223240"/><path d="m-9.0000039 262.65001h42.0000009c1.108002 0 2.000001.89201 2.000001 2.00002v38.99996c0 1.10797-.891999 1.99997-2.000001 1.99997h-42.0000009c-1.1079991 0-2.0000011-.892-2.0000011-1.99997v-38.99996c0-1.10801.892002-2.00002 2.0000011-2.00002z" fill="url(#a)"/><path d="m-7.0000026 264.64991h38.0000016c1.107999 0 1.999998.89201 1.999998 2.00001v35.00006c0 1.108-.891999 2.00001-1.999998 2.00001h-38.0000016c-1.1080025 0-2.0000013-.89201-2.0000013-2.00001v-35.00006c0-1.108.8919988-2.00001 2.0000013-2.00001z" fill="#223240"/><path d="m-7.0000026 265.64994h37.9999976c.554 0 .999999.44602.999999 1.00002v35.00002c0 .554-.445999.99998-.999999.99998h-37.9999976c-.5540031 0-1.0000025-.44598-1.0000025-.99998v-35.00002c0-.554.4459994-1.00002 1.0000025-1.00002z" style="fill:currentColor"
class="ColorScheme-Highlight"/><path d="m-7.0000026 265.64998h37.9999976c.554 0 .999999.44602.999999 1.00002v35.00001c0 .55401-.445999.99999-.999999.99999h-37.9999976c-.5540031 0-1.0000025-.44598-1.0000025-.99999v-35.00001c0-.554.4459994-1.00002 1.0000025-1.00002z" fill="url(#b)"/><path d="m-1.0000063 270.64999c-.5539994 0-.9999987.44598-.9999987.99999v12c0 .554.4459993.99998.9999987.99998h15.0000003c.553999 0 .999999-.44598.999999-.99998v-12c0-.55401-.446-.99999-.999999-.99999zm18.0000003 6v6.99999s.01096 3-3 3h-5.0000014v3c0 .554.4460031.99998 1.0000025.99998h14.9999959c.554 0 1.000003-.44598 1.000003-.99998v-12c0-.55401-.446003-.99999-1.000003-.99999zm-23.0000016 18v6.99999h36.0000006v-6.99999z" fill-opacity=".15"/><path d="m-1.0000025 269.65c-.5539994 0-1.0000025.44598-1.0000025.99999v12c0 .554.4460031.99999 1.0000025.99999h15.0000005c.553999 0 .999998-.44599.999998-.99999v-12c0-.55401-.445999-.99999-.999998-.99999zm18.0000005 6v6.99999s.01096 3-3 3h-5.0000017v3c0 .554.4460032.99999.9999988.99999h14.9999999c.554 0 1.000003-.44599 1.000003-.99999v-12c0-.55401-.446003-.99999-1.000003-.99999zm-23.0000018 18v6.99999h36.0000008v-6.99999z" fill="url(#c)"/></g></svg>
