<svg height="48" viewBox="0 0 48 48" width="48" xmlns="http://www.w3.org/2000/svg" xmlns:xlink="http://www.w3.org/1999/xlink"><defs id="antufoldercolor">
    <style type="text/css" id="current-color-scheme">
      .ColorScheme-Highlight {
        color:#45aaf5;
      }
      </style>
  </defs><linearGradient id="a" gradientUnits="userSpaceOnUse" x1="24" x2="24" y1="304.673023" y2="290.673023"><stop offset="0" stop-color="#fff" stop-opacity=".7"/><stop offset="1" stop-color="#fff" stop-opacity=".85"/></linearGradient><linearGradient id="b" gradientUnits="userSpaceOnUse" x1="-40.672332" x2="-40.999998" y1="279.485577" y2="261.648043"><stop offset="0" stop-color="#fff" stop-opacity=".2"/><stop offset="1" stop-color="#fff" stop-opacity="0"/></linearGradient><linearGradient id="c" gradientUnits="userSpaceOnUse" x1="-26.000002" x2="-26" y1="304.649995" y2="267.651945"><stop offset="0" stop-color="#fff" stop-opacity="0"/><stop offset="1" stop-color="#fff" stop-opacity=".2"/></linearGradient><g transform="translate(50.000004 -258.64999)"><path d="m-47 260.64999c-1.644703 0-3 1.3553-3 3v39c0 1.6447 1.355297 3 3 3h42.0000007c1.644703 0 3-1.3553 3-3v-33c0-1.6447-1.355297-3-3-3h-21.9980447c-.505981 0-.774153-.16675-1.154298-.59766-.380145-.43089-.765929-1.12884-1.195314-1.89258-.429384-.76372-.909713-1.59749-1.638671-2.29296-.728961-.69549-1.763671-1.2168-3.013674-1.2168z" style="fill:currentColor"
class="ColorScheme-Highlight"/><path d="m-46.999996 261.64999h12.999995c3.999999 0 3.746593 6 6.999999 6h21.9999989c1.1080025 0 2.0000013.892 2.0000013 2v32.99999c0 1.10801-.8919988 2.00001-2.0000013 2.00001h-41.9999929c-1.108003 0-2.000001-.892-2.000001-2.00001v-38.99999c0-1.108.891998-2 2.000001-2z" fill-opacity=".12"/><path d="m-46.999996 261.64999h12.999995c3.999999 0 3.746593 6 6.999999 6h21.9999989c1.1080025 0 2.0000013.892 2.0000013 2v32.99999c0 1.10801-.8919988 2.00001-2.0000013 2.00001h-41.9999929c-1.108003 0-2.000001-.892-2.000001-2.00001v-38.99999c0-1.108.891998-2 2.000001-2z" fill="url(#b)"/><path d="m-47 260.64999c-1.644707 0-3 1.35529-3 3v39c0 1.6447 1.355293 3 3 3h42.0000007c1.6446992 0 3-1.3553 3-3v-33c0-1.64471-1.355297-3-3-3h-21.9980487c-.505981 0-.774157-.16676-1.154298-.59766-.380141-.43089-.765929-1.12884-1.19531-1.89258-.429384-.76372-.909717-1.59749-1.638674-2.29296-.728958-.69549-1.763668-1.2168-3.013671-1.2168zm0 1.00195h12.999999c3.999995 0 3.746597 6 6.999999 6h22.0000027c1.1080025 0 2.0000013.89201 2.0000013 2v33c0 1.10801-.8919988 2-2.0000013 2h-41.9999967c-1.108006 0-2.000005-.89199-2.000005-2v-39c0-1.10799.891999-2 2.000001-2z" fill-opacity=".15"/><path d="m-27.000002 266.64999c-1.120721 0-2.041935.58128-2.654298 1.27539-.612359.69411-1.02356 1.49811-1.437498 2.23437-.413941.73627-.825196 1.39861-1.27539 1.82813-.450195.42951-.882815.66211-1.632813.66211h-13.000003c-1.644706 0-3 1.3553-3 3v27c0 1.6447 1.355294 3 3 3h42.0000009c1.6447068 0 3-1.3553 3-3v-33c0-1.6447-1.3552932-3-3-3z" style="fill:currentColor"
class="ColorScheme-Highlight"/><path d="m-47 273.65195h12.999999c3.999999 0 3.746593-6 6.999999-6h21.9999989c1.1079987 0 2.0000013.89201 2.0000013 1.99999v33c0 1.108-.8920026 2.00001-2.0000013 2.00001h-41.9999969c-1.107999 0-1.999997-.89201-1.999997-2.00001v-27c0-1.10798.891998-1.99999 1.999997-1.99999z" fill="url(#c)"/><path d="m-27.000002 266.64999c-1.120721 0-2.041931.58128-2.654294 1.27539s-1.023561 1.49812-1.437502 2.23438c-.413938.73626-.825196 1.3986-1.27539 1.82812-.450195.42952-.882815.66211-1.632813.66211h-12.999999c-1.644703 0-3.000004 1.3553-3.000004 3v27c0 1.6447 1.355301 3 3.000004 3h42.0000007c1.6447068 0 3-1.3553 3-3v-33c0-1.6447-1.3552932-3-3-3zm0 1.00196h22.0000027c1.1079987 0 1.9999975.89202 1.9999975 2v33c0 1.10798-.8919988 1.99999-1.9999975 1.99999h-42.0000007c-1.108002 0-2.000005-.89201-2.000005-1.99999v-27c0-1.10798.892003-2 2.000005-2h12.999999c3.999995 0 3.746597-6 6.999999-6z" fill-opacity=".15"/><g transform="translate(-50.000004 -8)"><path d="m19.999996 289.65153c-2.738294 0-4.945848 2.18039-4.996094 4.90625-.0028.0312-.0041.0625-.0039.0937 0 .19419.01382.38395.03516.57226.167523 2.11921 1.232482 4.11384 2.683594 5.92774 1.581261 1.97658 3.638974 3.76682 5.681641 5.29882.355407.26625.843811.26625 1.199218 0 2.042667-1.532 4.10038-3.32224 5.681641-5.29882 1.451112-1.8139 2.516071-3.80853 2.683594-5.92774.02133-.18826.03515-.37802.03515-.57221-.000294-.0333-.0022-.0665-.0059-.0996-.05334-2.72305-2.257816-4.90039-4.9941-4.90039-1.647081 0-3.090068.79987-4 2.02148-.909932-1.22161-2.352919-2.02148-4-2.02148z" fill-opacity=".15" opacity=".99"/><path d="m20 288.67302c-2.738294 0-4.945848 2.18039-4.996094 4.90625-.0028.0312-.0041.0625-.0039.0937 0 .19419.01382.38395.03516.57226.167523 2.11921 1.232482 4.11384 2.683594 5.92774 1.581261 1.97658 3.638974 3.76682 5.681641 5.29882.355407.26625.843811.26625 1.199218 0 2.042667-1.532 4.10038-3.32224 5.681641-5.29882 1.451112-1.8139 2.516071-3.80853 2.683594-5.92774.02133-.18826.03515-.37802.03515-.57221-.000294-.0333-.0022-.0665-.0059-.0996-.05334-2.72305-2.257816-4.90039-4.9941-4.90039-1.647081 0-3.090068.79987-4 2.02148-.909932-1.22161-2.352919-2.02148-4-2.02148z" fill="url(#a)" opacity=".99"/></g></g></svg>
