<svg height="48" viewBox="0 0 48 48" width="48" xmlns="http://www.w3.org/2000/svg" xmlns:xlink="http://www.w3.org/1999/xlink"><defs id="antufoldercolor">
    <style type="text/css" id="current-color-scheme">
      .ColorScheme-Highlight {
        color:#45aaf5;
      }
      </style>
  </defs><linearGradient id="a" gradientUnits="userSpaceOnUse" x1="73.946426" x2="73.946426" y1="301.47141" y2="281.47141"><stop offset="0" stop-color="#fff" stop-opacity=".7"/><stop offset="1" stop-color="#fff" stop-opacity=".85"/></linearGradient><linearGradient id="b" gradientUnits="userSpaceOnUse" x1="-40.672332" x2="-40.999998" y1="279.485577" y2="261.648043"><stop offset="0" stop-color="#fff" stop-opacity=".2"/><stop offset="1" stop-color="#fff" stop-opacity="0"/></linearGradient><linearGradient id="c" gradientUnits="userSpaceOnUse" x1="-26.000002" x2="-26" y1="304.649995" y2="267.651945"><stop offset="0" stop-color="#fff" stop-opacity="0"/><stop offset="1" stop-color="#fff" stop-opacity=".2"/></linearGradient><g transform="translate(50.000004 -258.64999)"><path d="m-47 260.64999c-1.644703 0-3 1.3553-3 3v39c0 1.6447 1.355297 3 3 3h42.0000007c1.644703 0 3-1.3553 3-3v-33c0-1.6447-1.355297-3-3-3h-21.9980447c-.505981 0-.774153-.16675-1.154298-.59766-.380145-.43089-.765929-1.12884-1.195314-1.89258-.429384-.76372-.909713-1.59749-1.638671-2.29296-.728961-.69549-1.763671-1.2168-3.013674-1.2168z" style="fill:currentColor"
class="ColorScheme-Highlight"/><path d="m-46.999996 261.64999h12.999995c3.999999 0 3.746593 6 6.999999 6h21.9999989c1.1080025 0 2.0000013.892 2.0000013 2v32.99999c0 1.10801-.8919988 2.00001-2.0000013 2.00001h-41.9999929c-1.108003 0-2.000001-.892-2.000001-2.00001v-38.99999c0-1.108.891998-2 2.000001-2z" fill-opacity=".12"/><path d="m-46.999996 261.64999h12.999995c3.999999 0 3.746593 6 6.999999 6h21.9999989c1.1080025 0 2.0000013.892 2.0000013 2v32.99999c0 1.10801-.8919988 2.00001-2.0000013 2.00001h-41.9999929c-1.108003 0-2.000001-.892-2.000001-2.00001v-38.99999c0-1.108.891998-2 2.000001-2z" fill="url(#b)"/><path d="m-47 260.64999c-1.644707 0-3 1.35529-3 3v39c0 1.6447 1.355293 3 3 3h42.0000007c1.6446992 0 3-1.3553 3-3v-33c0-1.64471-1.355297-3-3-3h-21.9980487c-.505981 0-.774157-.16676-1.154298-.59766-.380141-.43089-.765929-1.12884-1.19531-1.89258-.429384-.76372-.909717-1.59749-1.638674-2.29296-.728958-.69549-1.763668-1.2168-3.013671-1.2168zm0 1.00195h12.999999c3.999995 0 3.746597 6 6.999999 6h22.0000027c1.1080025 0 2.0000013.89201 2.0000013 2v33c0 1.10801-.8919988 2-2.0000013 2h-41.9999967c-1.108006 0-2.000005-.89199-2.000005-2v-39c0-1.10799.891999-2 2.000001-2z" fill-opacity=".15"/><path d="m-27.000002 266.64999c-1.120721 0-2.041935.58128-2.654298 1.27539-.612359.69411-1.02356 1.49811-1.437498 2.23437-.413941.73627-.825196 1.39861-1.27539 1.82813-.450195.42951-.882815.66211-1.632813.66211h-13.000003c-1.644706 0-3 1.3553-3 3v27c0 1.6447 1.355294 3 3 3h42.0000009c1.6447068 0 3-1.3553 3-3v-33c0-1.6447-1.3552932-3-3-3z" style="fill:currentColor"
class="ColorScheme-Highlight"/><path d="m-47 273.65195h12.999999c3.999999 0 3.746593-6 6.999999-6h21.9999989c1.1079987 0 2.0000013.89201 2.0000013 1.99999v33c0 1.108-.8920026 2.00001-2.0000013 2.00001h-41.9999969c-1.107999 0-1.999997-.89201-1.999997-2.00001v-27c0-1.10798.891998-1.99999 1.999997-1.99999z" fill="url(#c)"/><path d="m-27.000002 266.64999c-1.120721 0-2.041931.58128-2.654294 1.27539s-1.023561 1.49812-1.437502 2.23438c-.413938.73626-.825196 1.3986-1.27539 1.82812-.450195.42952-.882815.66211-1.632813.66211h-12.999999c-1.644703 0-3.000004 1.3553-3.000004 3v27c0 1.6447 1.355301 3 3.000004 3h42.0000007c1.6447068 0 3-1.3553 3-3v-33c0-1.6447-1.3552932-3-3-3zm0 1.00196h22.0000027c1.1079987 0 1.9999975.89202 1.9999975 2v33c0 1.10798-.8919988 1.99999-1.9999975 1.99999h-42.0000007c-1.108002 0-2.000005-.89201-2.000005-1.99999v-27c0-1.10798.892003-2 2.000005-2h12.999999c3.999995 0 3.746597-6 6.999999-6z" fill-opacity=".15"/><g transform="translate(-91.946432 -.82143)"><path d="m71.090958 282.47337a10 10 0 0 0 -7.216797 2.92774 10 10 0 0 0 -2.167968 10.89648 10 10 0 0 0 9.238281 6.17383v-2a8 8 0 0 1 -.798828-.0391 8 8 0 0 1 -.791016-.12109 8 8 0 0 1 -.773437-.19727 8 8 0 0 1 -.751954-.27344 8 8 0 0 1 -.720703-.34765 8 8 0 0 1 -.68164-.41797 8 8 0 0 1 -.636719-.48438 8 8 0 0 1 -.583984-.54492 8 8 0 0 1 -.529297-.60156 8 8 0 0 1 -.464844-.65039 8 8 0 0 1 -.396484-.69336 8 8 0 0 1 -.261719-.56836 8 8 0 0 1 -.269531-.75195 8 8 0 0 1 -.191407-.77735 8 8 0 0 1 -.113281-.79101 8 8 0 0 1 -.03516-.79883 8 8 0 0 1 .04687-.79883 8 8 0 0 1 .125-.78906 8 8 0 0 1 .203125-.77344 8 8 0 0 1 .279297-.75 8 8 0 0 1 .353515-.7168 8 8 0 0 1 .421875-.67773 8 8 0 0 1 .490235-.63477 8 8 0 0 1 .423828-.45703 8 8 0 0 1 .591797-.53711 8 8 0 0 1 .644531-.47461 8 8 0 0 1 .6875-.4082 8 8 0 0 1 .724609-.33789 8 8 0 0 1 .75586-.26172 8 8 0 0 1 .777344-.1875 8 8 0 0 1 .792968-.10742 8 8 0 0 1 .798828-.0293 8 8 0 0 1 .796875.0527 8 8 0 0 1 .789063.13086 8 8 0 0 1 .771484.20898 8 8 0 0 1 .585938.2168 8 8 0 0 1 .722656.3418 8 8 0 0 1 .685547.41406 8 8 0 0 1 .640625.47852 8 8 0 0 1 .58789.54101 8 8 0 0 1 .533204.59766 8 8 0 0 1 .46875.64648 8 8 0 0 1 .404296.68945 8 8 0 0 1 .332032.72852 8 8 0 0 1 .257812.75781 8 8 0 0 1 .179688.77735 8 8 0 0 1 .103515.79297 8 8 0 0 1 .02344.625h2a10 10 0 0 0 -6.173821-9.23828 10 10 0 0 0 -3.679688-.75977zm-.04492 2.99805a7 7 0 0 0 -5.050781 2.05078 7 7 0 0 0 -1.517578 7.62891 7 7 0 0 0 6.466797 4.32031v-2a5 5 0 0 1 -.5-.0254 5 5 0 0 1 -.494141-.0742 5 5 0 0 1 -.484375-.12305 5 5 0 0 1 -.46875-.17187 5 5 0 0 1 -.449219-.2168 5 5 0 0 1 -.425781-.26172 5 5 0 0 1 -.398437-.30273 5 5 0 0 1 -.365235-.33984 5 5 0 0 1 -.330078-.37696 5 5 0 0 1 -.291015-.40625 5 5 0 0 1 -.248047-.43359 5 5 0 0 1 -.164063-.35352 5 5 0 0 1 -.167968-.4707 5 5 0 0 1 -.121094-.48633 5 5 0 0 1 -.07031-.49414 5 5 0 0 1 -.02148-.5 5 5 0 0 1 .0293-.49805 5 5 0 0 1 .07813-.49414 5 5 0 0 1 .126953-.48242 5 5 0 0 1 .173828-.46875 5 5 0 0 1 .220703-.44922 5 5 0 0 1 .265625-.42383 5 5 0 0 1 .304688-.39453 5 5 0 0 1 .265625-.28711 5 5 0 0 1 .371093-.33593 5 5 0 0 1 .402344-.29688 5 5 0 0 1 .429688-.25391 5 5 0 0 1 .453125-.21093 5 5 0 0 1 .470703-.16407 5 5 0 0 1 .486328-.11718 5 5 0 0 1 .496094-.0684 5 5 0 0 1 .498031-.0176 5 5 0 0 1 .5.0332 5 5 0 0 1 .492188.082 5 5 0 0 1 .482422.13086 5 5 0 0 1 .367187.13477 5 5 0 0 1 .451172.21289 5 5 0 0 1 .427735.25976 5 5 0 0 1 .40039.29883 5 5 0 0 1 .367188.33789 5 5 0 0 1 .333984.37305 5 5 0 0 1 .292969.40429 5 5 0 0 1 .251953.43165 5 5 0 0 1 .207031.45507 5 5 0 0 1 .16211.47266 5 5 0 0 1 .113281.48633 5 5 0 0 1 .0625.49609 5 5 0 0 1 .01563.39063h2a7 7 0 0 0 -4.320313-6.4668 7 7 0 0 0 -2.578125-.5332zm-.04297 3a4 4 0 0 0 -2.886717 1.17188 4 4 0 0 0 -.867188 4.35937 4 4 0 0 0 3.695313 2.46875v-2a2 2 0 0 1 -.199219-.01 2 2 0 0 1 -.197266-.0293 2 2 0 0 1 -.195312-.0508 2 2 0 0 1 -.1875-.0684 2 2 0 0 1 -.179688-.0859 2 2 0 0 1 -.169921-.10547 2 2 0 0 1 -.160157-.12109 2 2 0 0 1 -.146484-.13672 2 2 0 0 1 -.130859-.14844 2 2 0 0 1 -.117188-.16406 2 2 0 0 1 -.09961-.17383 2 2 0 0 1 -.06445-.14062 2 2 0 0 1 -.06641-.18946 2 2 0 0 1 -.04883-.19336 2 2 0 0 1 -.0293-.19726 2 2 0 0 1 -.0078-.19922 2 2 0 0 1 .01172-.20117 2 2 0 0 1 .03125-.19727 2 2 0 0 1 .05078-.19336 2 2 0 0 1 .07031-.1875 2 2 0 0 1 .08789-.17773 2 2 0 0 1 .105469-.16992 2 2 0 0 1 .123047-.15821 2 2 0 0 1 .105468-.11523 2 2 0 0 1 .148438-.13477 2 2 0 0 1 .160156-.11718 2 2 0 0 1 .171875-.10352 2 2 0 0 1 .181641-.084 2 2 0 0 1 .189453-.0664 2 2 0 0 1 .193359-.0449 2 2 0 0 1 .199219-.0273 2 2 0 0 1 .199219-.008 2 2 0 0 1 .199218.0137 2 2 0 0 1 .197266.0312 2 2 0 0 1 .19336.0527 2 2 0 0 1 .146484.0547 2 2 0 0 1 .179687.0859 2 2 0 0 1 .171875.10352 2 2 0 0 1 .160157.11914 2 2 0 0 1 .146484.13476 2 2 0 0 1 .132813.15039 2 2 0 0 1 .11914.16016 2 2 0 0 1 .09961.17383 2 2 0 0 1 .08398.18164 2 2 0 0 1 .06445.18945 2 2 0 0 1 .04492.19531 2 2 0 0 1 .02539.19727 2 2 0 0 1 .0078.15627h2a4 4 0 0 0 -2.46875-3.69531 4 4 0 0 0 -1.472656-.30469zm-.05664 6v2h18v-2zm0 3v2h18v-2zm0 3v2h18v-2z" fill-opacity=".15"/><path d="m71.090959 281.47337a10 10 0 0 0 -7.216797 2.92774 10 10 0 0 0 -2.167968 10.89648 10 10 0 0 0 9.238281 6.17383v-2a8 8 0 0 1 -.798828-.0391 8 8 0 0 1 -.791016-.1211 8 8 0 0 1 -.773437-.19726 8 8 0 0 1 -.751954-.27344 8 8 0 0 1 -.720703-.34766 8 8 0 0 1 -.68164-.41796 8 8 0 0 1 -.636719-.48438 8 8 0 0 1 -.583984-.54492 8 8 0 0 1 -.529297-.60156 8 8 0 0 1 -.464844-.65039 8 8 0 0 1 -.396484-.69336 8 8 0 0 1 -.261719-.56836 8 8 0 0 1 -.269531-.75196 8 8 0 0 1 -.191407-.77734 8 8 0 0 1 -.113281-.79102 8 8 0 0 1 -.03516-.79882 8 8 0 0 1 .04687-.79883 8 8 0 0 1 .125-.78906 8 8 0 0 1 .203125-.77344 8 8 0 0 1 .279297-.75 8 8 0 0 1 .353515-.7168 8 8 0 0 1 .421875-.67773 8 8 0 0 1 .490235-.63477 8 8 0 0 1 .423828-.45703 8 8 0 0 1 .591797-.53711 8 8 0 0 1 .644531-.47461 8 8 0 0 1 .6875-.4082 8 8 0 0 1 .724609-.33789 8 8 0 0 1 .75586-.26172 8 8 0 0 1 .777344-.1875 8 8 0 0 1 .792968-.10742 8 8 0 0 1 .798828-.0293 8 8 0 0 1 .796875.0527 8 8 0 0 1 .789063.13086 8 8 0 0 1 .771484.20898 8 8 0 0 1 .585938.2168 8 8 0 0 1 .722656.3418 8 8 0 0 1 .685547.41406 8 8 0 0 1 .640625.47851 8 8 0 0 1 .58789.54102 8 8 0 0 1 .533204.59766 8 8 0 0 1 .46875.64648 8 8 0 0 1 .404296.68945 8 8 0 0 1 .332032.72852 8 8 0 0 1 .257812.75781 8 8 0 0 1 .179688.77734 8 8 0 0 1 .103515.79297 8 8 0 0 1 .02344.625h2a10 10 0 0 0 -6.173821-9.23827 10 10 0 0 0 -3.679688-.75977zm-.04492 2.99805a7 7 0 0 0 -5.050781 2.05078 7 7 0 0 0 -1.517578 7.62891 7 7 0 0 0 6.466797 4.32031v-2a5 5 0 0 1 -.5-.0254 5 5 0 0 1 -.494141-.0742 5 5 0 0 1 -.484375-.12305 5 5 0 0 1 -.46875-.17187 5 5 0 0 1 -.449219-.2168 5 5 0 0 1 -.425781-.26172 5 5 0 0 1 -.398437-.30273 5 5 0 0 1 -.365235-.33985 5 5 0 0 1 -.330078-.37695 5 5 0 0 1 -.291015-.40625 5 5 0 0 1 -.248047-.43359 5 5 0 0 1 -.164063-.35352 5 5 0 0 1 -.167968-.4707 5 5 0 0 1 -.121094-.48633 5 5 0 0 1 -.07031-.49414 5 5 0 0 1 -.02148-.5 5 5 0 0 1 .0293-.49805 5 5 0 0 1 .07813-.49414 5 5 0 0 1 .126953-.48242 5 5 0 0 1 .173828-.46875 5 5 0 0 1 .220703-.44922 5 5 0 0 1 .265625-.42383 5 5 0 0 1 .304688-.39453 5 5 0 0 1 .265625-.28711 5 5 0 0 1 .371093-.33594 5 5 0 0 1 .402344-.29687 5 5 0 0 1 .429688-.25391 5 5 0 0 1 .453125-.21093 5 5 0 0 1 .470703-.16407 5 5 0 0 1 .486328-.11718 5 5 0 0 1 .496094-.0684 5 5 0 0 1 .498031-.0176 5 5 0 0 1 .5.0332 5 5 0 0 1 .492188.082 5 5 0 0 1 .482422.13086 5 5 0 0 1 .367187.13476 5 5 0 0 1 .451172.21289 5 5 0 0 1 .427735.25977 5 5 0 0 1 .40039.29883 5 5 0 0 1 .367188.33789 5 5 0 0 1 .333984.37305 5 5 0 0 1 .292969.40429 5 5 0 0 1 .251953.43164 5 5 0 0 1 .207031.45508 5 5 0 0 1 .16211.47266 5 5 0 0 1 .113281.48633 5 5 0 0 1 .0625.49609 5 5 0 0 1 .01563.39063h2a7 7 0 0 0 -4.320313-6.4668 7 7 0 0 0 -2.578125-.5332zm-.04297 3a4 4 0 0 0 -2.886717 1.17187 4 4 0 0 0 -.867188 4.35938 4 4 0 0 0 3.695313 2.46875v-2a2 2 0 0 1 -.199219-.01 2 2 0 0 1 -.197266-.0293 2 2 0 0 1 -.195312-.0508 2 2 0 0 1 -.1875-.0684 2 2 0 0 1 -.179688-.0859 2 2 0 0 1 -.169921-.10547 2 2 0 0 1 -.160157-.12109 2 2 0 0 1 -.146484-.13672 2 2 0 0 1 -.130859-.14844 2 2 0 0 1 -.117188-.16406 2 2 0 0 1 -.09961-.17383 2 2 0 0 1 -.06445-.14063 2 2 0 0 1 -.06641-.18945 2 2 0 0 1 -.04883-.19336 2 2 0 0 1 -.0293-.19726 2 2 0 0 1 -.0078-.19922 2 2 0 0 1 .01172-.20117 2 2 0 0 1 .03125-.19727 2 2 0 0 1 .05078-.19336 2 2 0 0 1 .07031-.1875 2 2 0 0 1 .08789-.17773 2 2 0 0 1 .105469-.16993 2 2 0 0 1 .123047-.1582 2 2 0 0 1 .105468-.11523 2 2 0 0 1 .148438-.13477 2 2 0 0 1 .160156-.11719 2 2 0 0 1 .171875-.10351 2 2 0 0 1 .181641-.084 2 2 0 0 1 .189453-.0664 2 2 0 0 1 .193359-.0449 2 2 0 0 1 .199219-.0273 2 2 0 0 1 .199219-.008 2 2 0 0 1 .199218.0137 2 2 0 0 1 .197266.0312 2 2 0 0 1 .19336.0527 2 2 0 0 1 .146484.0547 2 2 0 0 1 .179687.0859 2 2 0 0 1 .171875.10351 2 2 0 0 1 .160157.11915 2 2 0 0 1 .146484.13476 2 2 0 0 1 .132813.15039 2 2 0 0 1 .11914.16016 2 2 0 0 1 .09961.17383 2 2 0 0 1 .08398.18164 2 2 0 0 1 .06445.18945 2 2 0 0 1 .04492.19531 2 2 0 0 1 .02539.19727 2 2 0 0 1 .0078.15627h2a4 4 0 0 0 -2.46875-3.69531 4 4 0 0 0 -1.472656-.30469zm-.05664 6v2h18v-2zm0 3v2h18v-2zm0 3v2h18v-2z" fill="url(#a)"/><ellipse cx="-19.142857" cy="312.64999" fill="#7caee6" fill-opacity=".430435" rx="5" ry="0" transform="scale(-1 1)"/></g></g></svg>
