<svg height="48" viewBox="0 0 48 48" width="48" xmlns="http://www.w3.org/2000/svg" xmlns:xlink="http://www.w3.org/1999/xlink"><defs id="antufoldercolor">
    <style type="text/css" id="current-color-scheme">
      .ColorScheme-Highlight {
        color:#45aaf5;
      }
      </style>
  </defs><linearGradient id="a" gradientUnits="userSpaceOnUse" x1="-4.67233156362" x2="-4.99999754178" y1="282.48557702176" y2="264.64804321093"><stop offset="0" stop-color="#fff" stop-opacity=".2"/><stop offset="1" stop-color="#fff" stop-opacity="0"/></linearGradient><linearGradient id="b" gradientUnits="userSpaceOnUse" x1="9.999998" x2="10" y1="307.649995" y2="270.651945"><stop offset="0" stop-color="#fff" stop-opacity="0"/><stop offset="1" stop-color="#fff" stop-opacity=".2"/></linearGradient><g transform="translate(14.000004 -261.64999)"><path d="m-11 263.64999c-1.644703 0-3 1.3553-3 3v39c0 1.6447 1.355297 3 3 3h42.000001c1.644703 0 3-1.3553 3-3v-33c0-1.6447-1.355297-3-3-3h-21.9980453c-.5059805 0-.7741531-.16675-1.154298-.59766-.3801448-.43089-.7659288-1.12884-1.1953134-1.89258-.4293845-.76372-.9097134-1.59749-1.6386708-2.29296-.7289613-.69549-1.7636712-1.2168-3.0136744-1.2168z" style="fill:currentColor"
class="ColorScheme-Highlight"/><path d="m-10.999996 264.64999h12.9999951c3.9999988 0 3.7465928 6 6.9999988 6h21.9999991c1.108002 0 2.000001.892 2.000001 2v32.99999c0 1.10801-.891999 2.00001-2.000001 2.00001h-41.999993c-1.108003 0-2.000001-.892-2.000001-2.00001v-38.99999c0-1.108.891998-2 2.000001-2z" fill-opacity=".12"/><path d="m-10.999996 264.64999h12.9999951c3.9999988 0 3.7465928 6 6.9999988 6h21.9999991c1.108002 0 2.000001.892 2.000001 2v32.99999c0 1.10801-.891999 2.00001-2.000001 2.00001h-41.999993c-1.108003 0-2.000001-.892-2.000001-2.00001v-38.99999c0-1.108.891998-2 2.000001-2z" fill="url(#a)"/><path d="m-11 263.64999c-1.644707 0-3 1.35529-3 3v39c0 1.6447 1.355293 3 3 3h42.000001c1.644699 0 3-1.3553 3-3v-33c0-1.64471-1.355297-3-3-3h-21.9980491c-.5059805 0-.7741568-.16676-1.1542979-.59766-.3801411-.43089-.7659289-1.12884-1.1953097-1.89258-.4293845-.76372-.9097171-1.59749-1.6386746-2.29296-.7289575-.69549-1.7636674-1.2168-3.0136706-1.2168zm0 1.00195h12.9999991c3.999995 0 3.7465966 6 6.9999988 6h22.0000031c1.108002 0 2.000001.89201 2.000001 2v33c0 1.10801-.891999 2-2.000001 2h-41.999997c-1.108006 0-2.000005-.89199-2.000005-2v-39c0-1.10799.891999-2 2.000001-2z" fill-opacity=".15"/><path d="m8.9999979 269.64999c-1.1207206 0-2.0419351.58128-2.654298 1.27539-.612359.69411-1.0235603 1.49811-1.4374979 2.23437-.4139415.73627-.8251956 1.39861-1.2753903 1.82813-.4501946.42951-.8828145.66211-1.6328126.66211h-13.0000031c-1.644706 0-3 1.3553-3 3v27c0 1.6447 1.355294 3 3 3h42.000001c1.644707 0 3-1.3553 3-3v-33c0-1.6447-1.355293-3-3-3z" style="fill:currentColor"
class="ColorScheme-Highlight"/><path d="m-11 276.65195h12.9999991c3.9999988 0 3.7465928-6 6.9999988-6h21.9999991c1.107999 0 2.000001.89201 2.000001 1.99999v33c0 1.108-.892002 2.00001-2.000001 2.00001h-41.999997c-1.107999 0-1.999997-.89201-1.999997-2.00001v-27c0-1.10798.891998-1.99999 1.999997-1.99999z" fill="url(#b)"/><path d="m8.9999979 269.64999c-1.1207206 0-2.0419314.58128-2.6542942 1.27539s-1.0235603 1.49812-1.4375017 2.23438c-.4139377.73626-.8251956 1.3986-1.2753903 1.82812-.4501946.42952-.8828145.66211-1.6328126.66211h-12.9999991c-1.644703 0-3.000004 1.3553-3.000004 3v27c0 1.6447 1.355301 3 3.000004 3h42.000001c1.644706 0 3-1.3553 3-3v-33c0-1.6447-1.355294-3-3-3zm0 1.00196h22.0000031c1.107998 0 1.999997.89202 1.999997 2v33c0 1.10798-.891999 1.99999-1.999997 1.99999h-42.000001c-1.108002 0-2.000005-.89201-2.000005-1.99999v-27c0-1.10798.892003-2 2.000005-2h12.9999991c3.999995 0 3.7465966-6 6.9999988-6z" fill-opacity=".15"/></g></svg>
