<?xml version="1.0" encoding="UTF-8" standalone="no"?>
<!-- Created with Inkscape (http://www.inkscape.org/) -->

<svg
   width="32"
   height="32"
   viewBox="0 0 32 32"
   version="1.1"
   id="svg8"
   inkscape:version="1.2.2 (b0a8486541, 2022-12-01)"
   sodipodi:docname="calligrawords.svg"
   xml:space="preserve"
   xmlns:inkscape="http://www.inkscape.org/namespaces/inkscape"
   xmlns:sodipodi="http://sodipodi.sourceforge.net/DTD/sodipodi-0.dtd"
   xmlns:xlink="http://www.w3.org/1999/xlink"
   xmlns="http://www.w3.org/2000/svg"
   xmlns:svg="http://www.w3.org/2000/svg"
   xmlns:rdf="http://www.w3.org/1999/02/22-rdf-syntax-ns#"
   xmlns:cc="http://creativecommons.org/ns#"
   xmlns:dc="http://purl.org/dc/elements/1.1/"><title
     id="title7895">Antu icon Theme</title><defs
     id="defs2"><linearGradient
       inkscape:collect="always"
       xlink:href="#linearGradient4582"
       id="linearGradient852"
       x1="8.7123508"
       y1="295.33688"
       x2="8.7123508"
       y2="288.45773"
       gradientUnits="userSpaceOnUse"
       gradientTransform="matrix(3.7795275,0,0,3.7795275,8.071431,-772.58391)" /><linearGradient
       id="linearGradient4582"
       inkscape:collect="always"><stop
         id="stop4578"
         offset="0"
         style="stop-color:#1982f1;stop-opacity:1;" /><stop
         id="stop4580"
         offset="1"
         style="stop-color:#1fb3f9;stop-opacity:1;" /></linearGradient></defs><sodipodi:namedview
     id="base"
     pagecolor="#ffffff"
     bordercolor="#666666"
     borderopacity="1.0"
     inkscape:pageopacity="0.0"
     inkscape:pageshadow="2"
     inkscape:zoom="11.2"
     inkscape:cx="14.508929"
     inkscape:cy="11.741071"
     inkscape:document-units="px"
     inkscape:current-layer="g872"
     showgrid="true"
     units="px"
     inkscape:window-width="1506"
     inkscape:window-height="1366"
     inkscape:window-x="0"
     inkscape:window-y="0"
     inkscape:window-maximized="0"
     objecttolerance="10"
     gridtolerance="10"
     guidetolerance="10"
     inkscape:showpageshadow="2"
     inkscape:pagecheckerboard="0"
     inkscape:deskcolor="#d1d1d1"><inkscape:grid
       type="xygrid"
       id="grid7897"
       empspacing="4" /></sodipodi:namedview><metadata
     id="metadata5"><rdf:RDF><cc:Work
         rdf:about=""><dc:format>image/svg+xml</dc:format><dc:type
           rdf:resource="http://purl.org/dc/dcmitype/StillImage" /><dc:title>Antu icon Theme</dc:title></cc:Work></rdf:RDF></metadata><g
     inkscape:label="Capa 1"
     inkscape:groupmode="layer"
     id="layer1"
     transform="translate(0,-282.64999)"><g
       id="g872"
       transform="translate(-24,-32)"><path
         id="rect843"
         d="m 27,315.64999 h 26 c 1.108,0 2,0.892 2,2 v 26 c 0,1.108 -0.892,2 -2,2 H 27 c -1.108,0 -2,-0.892 -2,-2 v -26 c 0,-1.108 0.892,-2 2,-2 z"
         style="opacity:1;fill:#1467b4;fill-opacity:1;stroke:none;stroke-width:2.39314151;stroke-linecap:round;stroke-linejoin:round;stroke-miterlimit:4;stroke-dasharray:none;stroke-opacity:1"
         inkscape:connector-curvature="0" /><path
         id="rect843-3"
         d="m 27,316.64999 h 26 c 0.553999,0 1,0.446 1,1 v 26 c 0,0.554 -0.446001,1 -1,1 H 27 c -0.554,0 -1,-0.446 -1,-1 v -26 c 0,-0.554 0.446,-1 1,-1 z"
         style="opacity:1;fill:url(#linearGradient852);fill-opacity:1;stroke:none;stroke-width:2.23359871;stroke-linecap:round;stroke-linejoin:round;stroke-miterlimit:4;stroke-dasharray:none;stroke-opacity:1"
         inkscape:connector-curvature="0" /><g
         id="path8336"
         transform="translate(1,-1)"><path
           id="path8360-6"
           style="color:#000000;fill:#1467b4;fill-opacity:0.980392;stroke-width:2;stroke-linecap:round;stroke-linejoin:round;-inkscape-stroke:none"
           d="m 44,324.64999 a 1.0001,1.0001 0 0 0 -0.707031,0.29297 l -2,2 a 1.0001,1.0001 0 0 0 0,1.41406 l 3,3 a 1.0001,1.0001 0 0 0 1.414062,0 l 2,-2 a 1.0001,1.0001 0 0 0 0,-1.41406 l -3,-3 A 1.0001,1.0001 0 0 0 44,324.64999 Z m -4,4 a 1.0001,1.0001 0 0 0 -0.707031,0.29297 l -8,8 A 1.0001,1.0001 0 0 0 31,337.64999 v 3 a 1.0001,1.0001 0 0 0 1,1 h 3 a 1.0001,1.0001 0 0 0 0.707031,-0.29297 l 8,-8 a 1.0001,1.0001 0 0 0 0,-1.41406 l -3,-3 A 1.0001,1.0001 0 0 0 40,328.64999 Z" /><path
           id="path8360"
           style="color:#000000;fill:#fcfcfc;fill-opacity:0.980392;stroke-width:2;stroke-linecap:round;stroke-linejoin:round;-inkscape-stroke:none"
           d="m 44,323.64999 a 1.0001,1.0001 0 0 0 -0.707031,0.29297 l -2,2 a 1.0001,1.0001 0 0 0 0,1.41406 l 3,3 a 1.0001,1.0001 0 0 0 1.414062,0 l 2,-2 a 1.0001,1.0001 0 0 0 0,-1.41406 l -3,-3 A 1.0001,1.0001 0 0 0 44,323.64999 Z m -4,4 a 1.0001,1.0001 0 0 0 -0.707031,0.29297 l -8,8 A 1.0001,1.0001 0 0 0 31,336.64999 v 3 a 1.0001,1.0001 0 0 0 1,1 h 3 a 1.0001,1.0001 0 0 0 0.707031,-0.29297 l 8,-8 a 1.0001,1.0001 0 0 0 0,-1.41406 l -3,-3 A 1.0001,1.0001 0 0 0 40,327.64999 Z" /></g></g></g></svg>
