<?xml version="1.0" encoding="UTF-8" standalone="no"?>
<!-- Created with Inkscape (http://www.inkscape.org/) -->

<svg
   width="32"
   height="32"
   viewBox="0 0 8.4666667 8.4666667"
   version="1.1"
   id="svg5"
   inkscape:version="1.2.2 (b0a8486541, 2022-12-01)"
   sodipodi:docname="firefox.svg"
   xml:space="preserve"
   xmlns:inkscape="http://www.inkscape.org/namespaces/inkscape"
   xmlns:sodipodi="http://sodipodi.sourceforge.net/DTD/sodipodi-0.dtd"
   xmlns:xlink="http://www.w3.org/1999/xlink"
   xmlns="http://www.w3.org/2000/svg"
   xmlns:svg="http://www.w3.org/2000/svg"><sodipodi:namedview
     id="namedview7"
     pagecolor="#ffffff"
     bordercolor="#9c9c9c"
     borderopacity="0.24705882"
     inkscape:showpageshadow="false"
     inkscape:pageopacity="0.0"
     inkscape:pagecheckerboard="0"
     inkscape:deskcolor="#5e5e5e"
     inkscape:document-units="px"
     showgrid="true"
     inkscape:zoom="20.70196"
     inkscape:cx="4.9270697"
     inkscape:cy="23.81417"
     inkscape:window-width="2560"
     inkscape:window-height="1367"
     inkscape:window-x="0"
     inkscape:window-y="0"
     inkscape:window-maximized="1"
     inkscape:current-layer="g1427"><inkscape:grid
       type="xygrid"
       id="grid132"
       originx="0"
       originy="0" /></sodipodi:namedview><defs
     id="defs2"><linearGradient
       inkscape:collect="always"
       id="linearGradient31772"><stop
         style="stop-color:#d8e2eb;stop-opacity:1;"
         offset="0"
         id="stop31768" /><stop
         style="stop-color:#f0f1f2;stop-opacity:1;"
         offset="1"
         id="stop31770" /></linearGradient><linearGradient
       inkscape:collect="always"
       id="linearGradient29970"><stop
         style="stop-color:#e0e0e0;stop-opacity:1;"
         offset="0"
         id="stop29966" /><stop
         style="stop-color:#fffcf2;stop-opacity:1;"
         offset="1"
         id="stop29968" /></linearGradient><linearGradient
       inkscape:collect="always"
       id="linearGradient28720"><stop
         style="stop-color:#a065a6;stop-opacity:1;"
         offset="0"
         id="stop28716" /><stop
         style="stop-color:#bb82be;stop-opacity:1;"
         offset="1"
         id="stop28718" /></linearGradient><linearGradient
       inkscape:collect="always"
       id="linearGradient27470"><stop
         style="stop-color:#a065a6;stop-opacity:1;"
         offset="0"
         id="stop27466" /><stop
         style="stop-color:#bc83bf;stop-opacity:1;"
         offset="1"
         id="stop27468" /></linearGradient><linearGradient
       inkscape:collect="always"
       id="linearGradient26565"><stop
         style="stop-color:#a065a6;stop-opacity:1;"
         offset="0"
         id="stop26561" /><stop
         style="stop-color:#bc83bf;stop-opacity:1;"
         offset="1"
         id="stop26563" /></linearGradient><linearGradient
       inkscape:collect="always"
       xlink:href="#linearGradient26565"
       id="linearGradient26567"
       x1="1.5878862"
       y1="22.754089"
       x2="1.5878862"
       y2="15.081172"
       gradientUnits="userSpaceOnUse" /><linearGradient
       inkscape:collect="always"
       xlink:href="#linearGradient27470"
       id="linearGradient27472"
       x1="3.4399695"
       y1="18.785339"
       x2="3.4399695"
       y2="15.345756"
       gradientUnits="userSpaceOnUse" /><linearGradient
       inkscape:collect="always"
       xlink:href="#linearGradient28720"
       id="linearGradient28722"
       x1="0.00038624374"
       y1="17.197838"
       x2="0.00038624374"
       y2="16.933256"
       gradientUnits="userSpaceOnUse" /><linearGradient
       inkscape:collect="always"
       xlink:href="#linearGradient29970"
       id="linearGradient29972"
       x1="0.00038624374"
       y1="19.579088"
       x2="0.00038624374"
       y2="18.520756"
       gradientUnits="userSpaceOnUse" /><linearGradient
       inkscape:collect="always"
       xlink:href="#linearGradient31772"
       id="linearGradient31774"
       x1="42.860703"
       y1="18.792856"
       x2="42.860703"
       y2="16.411606"
       gradientUnits="userSpaceOnUse" /></defs><g
     inkscape:label="Capa 1"
     inkscape:groupmode="layer"
     id="layer1"><g
       id="g1427"
       transform="translate(-11.900065,-6.6224527)"><g
         id="g10465"
         transform="translate(-19.054002,0.79410256)"><g
           id="g19157"
           transform="translate(-7.4087199,-7.4082554)"><g
             id="path15085"
             transform="translate(41.008234,-1.5799831)"><path
               style="color:#000000;fill:#704276;stroke-linecap:round;stroke-linejoin:round;-inkscape-stroke:none;fill-opacity:1"
               d="m 2.8671875,15.107422 a 0.26460981,0.26460981 0 0 0 -0.2636719,0.01953 C 1.7218708,15.726166 1.3352894,16.446531 1.1992187,17.166016 1.0631481,17.8855 1.1519353,18.596483 1.15625,19.251953 a 0.26460981,0.26460981 0 0 0 0.074219,0.181641 l 1.9824219,2.035156 a 0.26460981,0.26460981 0 0 0 0.3613282,0.01563 L 5.328125,19.974609 a 0.26460981,0.26460981 0 0 0 0.091797,-0.21289 C 5.3525484,18.275053 4.7163902,17.586238 4.1386719,17.087891 3.5609536,16.589543 3.0880182,16.29541 3.015625,15.326172 a 0.26460981,0.26460981 0 0 0 -0.1484375,-0.21875 z m -0.21875,0.703125 c 0.217803,0.785893 0.6856793,1.281922 1.1445313,1.677734 0.5318797,0.458807 0.9814475,0.947493 1.0703124,2.189453 L 3.4179688,20.921875 1.6875,19.144531 C 1.676618,18.486474 1.609106,17.843422 1.71875,17.263672 1.817077,16.743762 2.103798,16.269629 2.6484375,15.810547 Z"
               id="path18412" /><path
               style="color:#000000;fill:url(#linearGradient27472);fill-opacity:1;stroke-width:0.529167;stroke-linecap:round;stroke-linejoin:round;-inkscape-stroke:none"
               d="m 2.7523211,15.345833 c 0.1580956,2.116667 2.2747622,1.5875 2.4035043,4.428328 L 3.4019401,21.283724 1.4208047,19.249939 c -0.0089,-1.352055 -0.3334189,-2.772527 1.3315164,-3.904106 z"
               id="path18410" /></g><g
             id="path15089"
             transform="translate(41.008234,-1.5799831)"><path
               style="color:#000000;fill:#704276;stroke-linecap:round;stroke-linejoin:round;-inkscape-stroke:none;fill-opacity:1"
               d="m 0.2421875,16.513672 c -0.31950042,0.105035 -0.57425358,0.324845 -0.78710937,0.539062 -0.2128558,0.214218 -0.3892101,0.433006 -0.49609373,0.539063 a 0.26460981,0.26460981 0 0 0 0.13867185,0.449219 l 0.49023437,0.08789 0.79687501,0.205078 a 0.26460981,0.26460981 0 0 0 0.32421874,-0.316406 c -0.099555,-0.42043 -0.25017226,-0.535945 -0.125,-1.203125 A 0.26460981,0.26460981 0 0 0 0.2421875,16.513672 Z m -0.13085938,0.71289 c 0.0147957,0.181168 0.006998,0.373973 0.0449219,0.501954 l -0.4453125,-0.115235 a 0.26460981,0.26460981 0 0 0 -0.0195313,-0.0039 l -0.0253906,-0.0039 c 0.0568571,-0.06334 0.1022237,-0.117453 0.16406251,-0.179688 0.09122167,-0.09181 0.18567777,-0.12902 0.28124999,-0.199219 z"
               id="path18646" /><path
               style="color:#000000;fill:url(#linearGradient28722);stroke-width:0.529167;stroke-linecap:round;stroke-linejoin:round;-inkscape-stroke:none;fill-opacity:1"
               d="m -0.85486877,17.779937 c 0.25731669,-0.255327 0.67748669,-0.849865 1.17881553,-1.014676 -0.13468799,0.7179 0.0399232,0.946076 0.12683464,1.313111 l -0.80577269,-0.208905 z"
               id="path18644" /></g><path
             id="circle15091"
             style="fill:#a6b2bd;stroke-width:0.302381;fill-opacity:1"
             d="m 44.7124,17.999184 a 2.1166666,2.1166666 0 0 1 -2.116666,2.116666 2.1166666,2.1166666 0 0 1 -2.116667,-2.116666 2.1166666,2.1166666 0 0 1 2.116667,-2.116667 2.1166666,2.1166666 0 0 1 2.116666,2.116667 z" /><path
             id="circle15091-8"
             style="fill:url(#linearGradient31774);stroke-width:0.264583;fill-opacity:1"
             d="m 44.447817,17.999184 a 1.8520833,1.8520833 0 0 1 -1.852083,1.852083 1.8520833,1.8520833 0 0 1 -1.852084,-1.852083 1.8520833,1.8520833 0 0 1 1.852084,-1.852084 1.8520833,1.8520833 0 0 1 1.852083,1.852084 z" /><g
             id="ellipse841-2"
             transform="translate(41.008234,-1.5799831)"><path
               style="color:#000000;fill:#704276;stroke-linecap:round;stroke-linejoin:round;-inkscape-stroke:none;fill-opacity:1"
               d="m -0.6875,16.232422 a 0.26460981,0.26460981 0 0 0 -0.2734375,0.03125 c -0.869202,0.672175 -1.3386276,1.694354 -1.4101563,2.824219 3.3e-4,-0.0052 6.145e-4,-0.0021 0,0.0078 -0.00659,0.08037 -0.00977,0.165557 -0.00977,0.261719 0,2.166534 1.78168997,3.925781 3.96875,3.925781 2.18706,0 3.96875,-1.759247 3.96875,-3.925781 0,-0.975769 -0.3741657,-1.86228 -0.9707031,-2.548828 -0.00108,-0.0038 -0.00388,-0.01361 -0.00391,-0.01367 -1.693e-4,-3.64e-4 -0.014978,-0.02958 -0.021484,-0.03906 -0.00651,-0.0095 -0.0126,-0.01559 -0.017578,-0.02148 -0.00191,-0.0023 -0.0041,-0.0019 -0.00586,-0.0039 -0.00738,-0.0083 -0.013932,-0.01624 -0.019531,-0.02148 -0.027728,-0.02595 -0.045394,-0.03826 -0.070312,-0.05273 -0.049837,-0.02894 -0.1111728,-0.101338 -0.2890625,-0.03516 A 0.26460981,0.26460981 0 0 0 4.02343,17.005867 c 0.1554306,0.25763 0.2644202,0.545752 0.3164062,0.853516 a 0.26460981,0.26460981 0 0 0 0,0.002 c 0.014201,0.08416 0.025459,0.167604 0.03125,0.251953 0.00103,0.015 9.873e-4,0.03347 0.00195,0.05469 -9.5e-6,4.67e-4 -4.653e-4,-0.0095 0,0.002 6.46e-4,0.01457 0.00179,0.02418 0.00195,0.0293 6.698e-4,0.02323 0,0.04737 0,0.07227 0,0.02556 -0.0011,0.05615 -0.00195,0.08984 -0.047466,1.310578 -1.1135912,2.275391 -2.4511719,2.275391 a 0.26460981,0.26460981 0 0 0 -0.011719,0.002 c -0.8762963,0.04253 -1.47813885,-0.370328 -1.62499995,-0.798828 -0.0572054,-0.16691 -0.0544244,-0.234869 -0.0449219,-0.263672 0.009314,-0.02823 0.0521613,-0.08628 0.19921875,-0.185547 0.13904423,-0.08796 0.34961974,-0.160927 0.7539063,-0.173828 a 0.26460981,0.26460981 0 0 0 0.1367187,-0.04297 c 0.208981,-0.137438 0.3337895,-0.234999 0.421875,-0.34375 0.088086,-0.108751 0.1226723,-0.285393 0.099609,-0.380859 a 0.26460981,0.26460981 0 0 0 -0.1875,-0.19336 C 1.5886769,18.235245 1.2555943,18.107702 0.9921875,17.900391 0.77392568,17.72861 0.28103862,17.351268 -0.43945313,17.259766 c -0.0711613,-0.194351 -0.0817487,-0.473325 -0.0957031,-0.798829 A 0.26460981,0.26460981 0 0 0 -0.6875,16.232422 Z m 5.0195312,0.412109 a 0.26460981,0.26460981 0 0 0 -0.2285156,0.158203 c 0.00184,-0.0057 0.00587,-0.0176 0.00586,-0.01758 -5.35e-5,1.02e-4 0.058684,-0.0743 0.058594,-0.07422 -9.02e-5,8e-5 0.066534,-0.04303 0.066406,-0.04297 -2.558e-4,1.13e-4 0.098068,-0.02345 0.097656,-0.02344 z m -0.2324218,0.171875 a 0.26460981,0.26460981 0 0 0 0.046875,0.267578 c -0.00274,-0.0029 -0.00413,-0.0035 -0.00781,-0.0078 -0.00414,-0.0049 -0.00971,-0.01287 -0.015625,-0.02148 -0.00591,-0.0086 -0.019701,-0.03552 -0.019531,-0.03516 1.694e-4,3.64e-4 -0.023472,-0.08037 -0.023437,-0.08008 1.73e-5,1.44e-4 0.00197,-0.06848 0.00195,-0.06836 -1.12e-5,7.8e-5 0.00947,-0.0296 0.017578,-0.05469 z m -5.07031253,0.279297 c 0.0178813,0.170136 -0.0156791,0.322845 0.0722656,0.492188 a 0.26460981,0.26460981 0 0 0 0.23046875,0.142578 c 0.6851871,0.0064 1.04028061,0.356317 1.33203125,0.585937 0.21546832,0.169583 0.36852203,0.209004 0.54296873,0.283203 -0.044299,0.03712 -0.061287,0.0573 -0.1503906,0.117188 -0.38004241,0.0285 -0.69257767,0.09341 -0.90234376,0.226562 a 0.26460981,0.26460981 0 0 0 -0.003906,0.002 c -0.19236786,0.128259 -0.34793651,0.264411 -0.4140625,0.464844 -0.066126,0.200434 -0.0214836,0.396413 0.0488281,0.601563 0.24755594,0.7223 1.09409702,1.199463 2.14062496,1.152343 1.4746833,-0.0022 2.6151938,-1.072269 2.8398438,-2.482421 0.055909,0.243053 0.2617187,0.415636 0.2617187,0.675781 0,1.87717 -1.535012,3.396484 -3.4394531,3.396484 -1.90444114,0 -3.4394531,-1.519314 -3.4394531,-3.396484 0,-0.08627 0.0024,-0.160267 0.00781,-0.22461 a 0.26460981,0.26460981 0 0 0 0,-0.0059 c -3.385e-4,0.0055 -6.126e-4,0.0038 0,-0.0059 0.051228,-0.809196 0.3848026,-1.479098 0.87304686,-2.025391 z"
               id="path18419" /><path
               style="color:#000000;fill:url(#linearGradient26567);stroke-width:0.529167;stroke-linecap:round;stroke-linejoin:round;-inkscape-stroke:none;fill-opacity:1"
               d="m -0.79891764,16.472896 c -0.80348166,0.621352 -1.24032196,1.563938 -1.30793046,2.631881 -1.413e-4,0.0022 -3.788e-4,0.0045 -5.168e-4,0.0067 -0.00615,0.07311 -0.0093,0.154207 -0.0093,0.246497 0,2.021854 1.65841405,3.660758 3.7041667,3.660758 2.0457526,0 3.7041667,-1.638904 3.7041667,-3.660758 0,-0.941311 -0.3596651,-1.799843 -0.9503296,-2.44843 0.013166,-5e-4 -0.055169,-0.05291 -0.090434,-0.03979 0.1729725,0.286706 0.2946265,0.607864 0.3519165,0.950847 -7.026e-4,-0.0014 -0.00136,-0.0028 -0.00207,-0.0041 0.015441,0.09152 0.027121,0.184317 0.03359,0.278536 0.00138,0.02008 0.00218,0.04025 0.0031,0.06046 4.33e-5,0.001 -4.21e-5,0.0021 0,0.0031 4.86e-4,0.01096 0.0012,0.02208 0.00155,0.03307 7.641e-4,0.0265 0.00103,0.0529 0.00103,0.07958 0,0.03328 -0.00125,0.06649 -0.00207,0.09974 -0.052548,1.450901 -1.2481701,2.531111 -2.7155965,2.531111 -0.96399036,0.04679 -1.68905798,-0.398967 -1.88670656,-0.975651 -0.12751731,-0.37206 -0.08596909,-0.528846 0.26096598,-0.76016 C 0.48505825,19.046665 0.75079669,18.9657 1.185449,18.95183 1.582503,18.690704 1.612792,18.590089 1.5936928,18.51103 1.4703589,18.477287 1.1301548,18.346893 0.82785645,18.108972 0.56010684,17.898242 0.11571633,17.473406 -0.66455892,17.466117 -0.81196748,17.182274 -0.78446915,16.809924 -0.79891764,16.472896 Z"
               id="path18417" /></g><g
             id="path15100"
             transform="translate(41.008234,-1.5799831)"><path
               style="color:#000000;fill:#704276;stroke-linecap:round;stroke-linejoin:round;-inkscape-stroke:none;fill-opacity:1"
               d="m -0.45507813,17.992187 c -0.31603134,-0.0069 -0.58622347,0.10376 -0.78906247,0.242188 a 0.26460981,0.26460981 0 0 0 -0.037109,0.03125 c -4.718e-4,4.72e-4 -0.054363,0.07936 -0.054687,0.08008 -3.25e-4,7.2e-4 -0.018213,0.04686 -0.021484,0.06445 -0.00654,0.0352 -0.00542,0.05746 -0.00391,0.07617 0.00304,0.03743 0.011004,0.05915 0.017578,0.08008 0.013148,0.04185 0.029883,0.07642 0.050781,0.115235 0.041796,0.07764 0.1009921,0.165043 0.1855468,0.253906 0.12654097,0.132988 0.36949984,0.211894 0.60937502,0.273437 0.0234671,0.431691 0.12980419,0.839053 0.34570313,1.128907 0.25171605,0.337939 0.56436674,0.567375 0.87304687,0.65625 a 0.26460981,0.26460981 0 0 0 0.0253906,0.0078 L 0.9472627,21.0371 a 0.26460981,0.26460981 0 0 0 0.1328154,-0.509756 c -0.42533446,-0.145915 -0.70098017,-0.413404 -0.79492185,-0.6875 -0.0572056,-0.16691 -0.0544243,-0.23487 -0.0449219,-0.263672 0.009314,-0.02823 0.0521612,-0.08628 0.19921875,-0.185547 0.13922504,-0.08808 0.34962635,-0.160928 0.7539063,-0.173828 a 0.26460981,0.26460981 0 0 0 0.1367187,-0.04297 c 0.2089003,-0.137385 0.3334289,-0.234564 0.421875,-0.34375 0.043996,-0.05423 0.079431,-0.117109 0.097656,-0.1875 0.018254,-0.07061 0.013747,-0.144581 0.00195,-0.193359 A 0.26460981,0.26460981 0 0 0 1.40625,18.324219 C 1.3116034,18.419534 1.2298485,18.453363 1.1269531,18.464844 1.0240577,18.476324 0.89488267,18.45551 0.75,18.410156 0.46023467,18.31945 0.12873142,18.128145 -0.21289063,18.023437 a 0.26460981,0.26460981 0 0 0 -0.0214844,-0.0059 c -0.073979,-0.01579 -0.14803124,-0.02382 -0.22070313,-0.02539 z m -0.0117188,0.529297 c 0.0401173,8.69e-4 0.0768532,0.005 0.11132813,0.01172 0.21405923,0.06742 0.51136145,0.217698 0.82226563,0.332031 -0.0898718,0.03433 -0.23979834,0.03197 -0.31250001,0.07813 a 0.26460981,0.26460981 0 0 0 -0.003906,0.002 c -0.0726768,0.04846 -0.09712524,0.122085 -0.15625,0.175782 2.069e-5,-0.02728 -0.02308318,-0.04246 -0.02148437,-0.07031 A 0.26460981,0.26460981 0 0 0 -0.2890625,18.771484 c -0.17904271,-0.0019 -0.29933905,-0.08892 -0.39648437,-0.18164 0.0734686,-0.02244 0.1327964,-0.07024 0.21874994,-0.06836 z"
               id="path18425" /><path
               style="color:#000000;fill:url(#linearGradient29972);fill-opacity:1;stroke-width:0.529167;stroke-linecap:round;stroke-linejoin:round;-inkscape-stroke:none"
               d="m -0.4614706,18.257283 c -0.25207571,-0.0055 -0.46446647,0.08133 -0.6330363,0.196371 -0.030194,0.03019 0.24019383,0.576469 0.80356851,0.582393 -0.0521611,0.908784 0.62795901,1.573306 1.08468831,1.704806 l 0.20050442,0.03669 C 0.50880029,20.611004 0.16256443,20.296714 0.03565677,19.926432 c -0.12751755,-0.372061 -0.08596956,-0.528847 0.26096594,-0.76016 0.18844392,-0.119622 0.4536649,-0.200588 0.88831789,-0.214457 0.1985272,-0.130563 0.305857,-0.221167 0.3607014,-0.288872 0.027428,-0.03381 0.041687,-0.06169 0.048059,-0.0863 0.00637,-0.02464 0.00478,-0.04586 0,-0.06563 -0.5352005,0.538984 -1.2951465,-0.05409 -1.8841228,-0.234611 -0.0554241,-0.01183 -0.11287773,-0.01786 -0.171049,-0.01912 z"
               id="path18423" /></g></g></g><g
         id="path4235-2"
         style="fill:#1d52a3;fill-opacity:1" /><g
         id="path4235-2-6"
         style="fill:#648ece;fill-opacity:1"
         transform="translate(4.9660547e-5,-8.3177922e-5)" /></g></g></svg>
