<?xml version="1.0" encoding="UTF-8" standalone="no"?>
<!-- Created with Inkscape (http://www.inkscape.org/) -->

<svg
   width="32"
   height="32"
   viewBox="0 0 8.4666662 8.4666664"
   version="1.1"
   id="svg1399"
   inkscape:version="1.2.2 (b0a8486541, 2022-12-01)"
   sodipodi:docname="gimp.svg"
   xml:space="preserve"
   xmlns:inkscape="http://www.inkscape.org/namespaces/inkscape"
   xmlns:sodipodi="http://sodipodi.sourceforge.net/DTD/sodipodi-0.dtd"
   xmlns:xlink="http://www.w3.org/1999/xlink"
   xmlns="http://www.w3.org/2000/svg"
   xmlns:svg="http://www.w3.org/2000/svg"
   xmlns:rdf="http://www.w3.org/1999/02/22-rdf-syntax-ns#"
   xmlns:cc="http://creativecommons.org/ns#"
   xmlns:dc="http://purl.org/dc/elements/1.1/"><defs
     id="defs1393"><linearGradient
       inkscape:collect="always"
       id="linearGradient69287"><stop
         style="stop-color:#efefef;stop-opacity:1;"
         offset="0"
         id="stop69283" /><stop
         style="stop-color:#fcfcfc;stop-opacity:1;"
         offset="1"
         id="stop69285" /></linearGradient><linearGradient
       inkscape:collect="always"
       id="linearGradient67416"><stop
         style="stop-color:#262626;stop-opacity:1;"
         offset="0"
         id="stop67412" /><stop
         style="stop-color:#333333;stop-opacity:1;"
         offset="1"
         id="stop67414" /></linearGradient><linearGradient
       inkscape:collect="always"
       id="linearGradient65476"><stop
         style="stop-color:#2c2c2c;stop-opacity:1;"
         offset="0"
         id="stop65472" /><stop
         style="stop-color:#333333;stop-opacity:1;"
         offset="1"
         id="stop65474" /></linearGradient><linearGradient
       inkscape:collect="always"
       id="linearGradient63881"><stop
         style="stop-color:#ab7849;stop-opacity:1;"
         offset="0"
         id="stop63877" /><stop
         style="stop-color:#af8f70;stop-opacity:1;"
         offset="1"
         id="stop63879" /></linearGradient><linearGradient
       inkscape:collect="always"
       xlink:href="#linearGradient63881"
       id="linearGradient63883"
       x1="3.7046089"
       y1="295.62384"
       x2="3.7046089"
       y2="290.0676"
       gradientUnits="userSpaceOnUse" /><linearGradient
       inkscape:collect="always"
       xlink:href="#linearGradient65476"
       id="linearGradient65478"
       x1="4.2337756"
       y1="292.71344"
       x2="4.2337756"
       y2="291.91968"
       gradientUnits="userSpaceOnUse" /><linearGradient
       inkscape:collect="always"
       xlink:href="#linearGradient67416"
       id="linearGradient67418"
       x1="1.0587757"
       y1="293.50717"
       x2="1.0587757"
       y2="291.65509"
       gradientUnits="userSpaceOnUse" /><linearGradient
       inkscape:collect="always"
       xlink:href="#linearGradient69287"
       id="linearGradient69289"
       x1="2.6462755"
       y1="291.91968"
       x2="2.6462755"
       y2="288.74469"
       gradientUnits="userSpaceOnUse" /></defs><sodipodi:namedview
     id="base"
     pagecolor="#ffffff"
     bordercolor="#666666"
     borderopacity="1.0"
     inkscape:pageopacity="0.0"
     inkscape:pageshadow="2"
     inkscape:zoom="22.4"
     inkscape:cx="18.258929"
     inkscape:cy="12.5"
     inkscape:document-units="px"
     inkscape:current-layer="g13179"
     showgrid="true"
     inkscape:showpageshadow="false"
     units="px"
     inkscape:window-width="2560"
     inkscape:window-height="1367"
     inkscape:window-x="0"
     inkscape:window-y="0"
     inkscape:window-maximized="1"
     inkscape:pagecheckerboard="0"
     inkscape:deskcolor="#d1d1d1"><inkscape:grid
       type="xygrid"
       id="grid4524" /></sodipodi:namedview><metadata
     id="metadata1396"><rdf:RDF><cc:Work
         rdf:about=""><dc:format>image/svg+xml</dc:format><dc:type
           rdf:resource="http://purl.org/dc/dcmitype/StillImage" /><dc:title /></cc:Work></rdf:RDF></metadata><g
     inkscape:label="Capa 1"
     inkscape:groupmode="layer"
     id="layer1"
     transform="translate(0,-288.53338)"><g
       id="g13179"
       transform="translate(0.52872432,0.31786332)"><path
         style="fill:#90a4ae;fill-opacity:1;stroke:none;stroke-width:0.519275;stroke-linecap:round;stroke-linejoin:round;stroke-miterlimit:4;stroke-dasharray:none;stroke-dashoffset:0;stroke-opacity:1;paint-order:normal"
         d="m 0.265027,288.4801 h 5.820832 c 0.293159,0 0.529168,0.23601 0.529168,0.52917 v 5.82083 c 0,0.29316 -0.236009,0.52917 -0.529168,0.52917 H 0.265026 c -0.293157,0 -0.529167,-0.23601 -0.529167,-0.52917 v -5.82083 c 0,-0.29316 0.23601,-0.52917 0.529168,-0.52917 z"
         id="rect842-2-6-7-4"
         inkscape:connector-curvature="0" /><path
         style="fill:#c4c4c4;fill-opacity:1;stroke:none;stroke-width:0.479331;stroke-linecap:round;stroke-linejoin:round;stroke-miterlimit:4;stroke-dasharray:none;stroke-dashoffset:0;stroke-opacity:1;paint-order:normal"
         d="m 0.265025,288.74469 h 5.820834 c 0.14658,0 0.264584,0.118 0.264584,0.26458 v 5.82084 c 0,0.14658 -0.118004,0.26458 -0.264584,0.26458 H 0.265025 c -0.146579,0 -0.264583,-0.118 -0.264583,-0.26458 v -5.82084 c 0,-0.14658 0.118004,-0.26458 0.264583,-0.26458 z"
         id="rect842-3-6-2-3-3"
         inkscape:connector-curvature="0" /><path
         style="fill:url(#linearGradient69289);fill-opacity:1;stroke:none;stroke-width:0.529167;stroke-linecap:round;stroke-linejoin:round;stroke-miterlimit:4;stroke-dasharray:none;stroke-dashoffset:0;stroke-opacity:1;paint-order:normal"
         d="m 0.265025,288.74469 c -0.146565,0 -0.264583,0.11803 -0.264583,0.26459 v 0.52916 0.26459 h 0.264583 0.529167 0.264583 v -0.26459 -0.52916 -0.26459 H 0.794192 Z m 0.79375,1.05834 v 1.05833 h 1.058334 v -1.05833 z m 1.058334,0 h 1.058334 v -1.05834 H 2.117109 Z m 1.058334,0 v 1.05833 h 1.058333 v -1.05833 z m 1.058333,0 h 1.058333 v -1.05834 H 4.233776 Z m 1.058333,0 v 1.05833 h 1.058334 v -1.05833 z m 0,1.05833 H 4.233776 v 1.05833 h 1.058333 z m 0,1.05833 v 1.05834 h 1.058334 v -1.05834 z m 0,1.05834 H 4.233776 v 1.05833 h 1.058333 z m 0,1.05833 v 0.26458 0.52917 0.26458 h 0.264584 0.529166 c 0.146566,0 0.264584,-0.11801 0.264584,-0.26458 v -0.52917 -0.26458 H 6.085859 5.556693 Z m -1.058333,0 H 3.175443 v 1.05833 h 1.058333 z m -1.058333,0 v -1.05833 H 2.117109 v 1.05833 z m -1.058334,0 H 1.058775 v 1.05833 h 1.058334 z m -1.058334,0 v -1.05833 H 4.43e-4 v 1.05833 z m 0,-1.05833 h 1.058334 v -1.05834 H 1.058775 Z m 0,-1.05834 v -1.05833 H 4.43e-4 v 1.05833 z m 1.058334,0 h 1.058334 v -1.05833 H 2.117109 Z m 1.058334,0 v 1.05834 h 1.058333 v -1.05834 z"
         id="rect859-6-0-9-6-1"
         inkscape:connector-curvature="0" /><path
         id="path3035-1-4"
         style="fill:#6a492c;fill-opacity:1;stroke-width:0.548766;stroke-linecap:round;stroke-linejoin:round;stroke-miterlimit:1.8;paint-order:stroke fill markers;stop-color:#000000"
         d="m 7.403609,289.53793 c -0.0507,10e-4 -0.100027,0.0167 -0.14211,0.045 l -1.519288,1.01389 H 3.969194 l -1.422653,-0.99994 c -0.07931,-0.0631 -0.187672,-0.0753 -0.279053,-0.0315 -0.09175,0.0439 -0.150204,0.13652 -0.150379,0.23823 v 2.11615 H 0.265027 v 0.79375 0.13229 h 0.0041 c 0.04515,1.2751 0.743351,2.43721 1.847949,3.07578 1.146074,0.66169 2.558095,0.66169 3.704168,0 1.104599,-0.63857 1.802801,-1.80068 1.847949,-3.07578 h 0.0041 v -0.13229 -0.78548 c 2.27e-4,-0.003 3.99e-4,-0.006 5.17e-4,-0.009 v -2.11512 c 6.02e-4,-0.14877 -0.121526,-0.2688 -0.270268,-0.26562 z m -0.259416,0.75965 v 1.35754 l -4.497916,0.26458 v -1.56735 l 1.065051,0.71521 c 0.04716,0.0379 0.105887,0.0585 0.166398,0.0584 h 1.944583 c 0.05211,-2.6e-4 0.102987,-0.0159 0.146245,-0.045 z"
         sodipodi:nodetypes="ccccccccccccccccccccccccccccccc" /><path
         id="path3035-6-2-9"
         style="fill:url(#linearGradient63883);fill-opacity:1;stroke-width:0.509568;stroke-linecap:round;stroke-linejoin:round;stroke-miterlimit:1.8;paint-order:stroke fill markers;stop-color:#000000"
         d="m 2.381693,289.80303 v 2.38125 H 0.529609 v 0.52917 0.13229 h 0.0041 c 0.04516,1.18045 0.692934,2.25513 1.715657,2.84634 1.064211,0.61442 2.375373,0.61442 3.439584,0 1.022723,-0.59121 1.670498,-1.66589 1.715658,-2.84634 h 0.0041 v -0.13229 -0.79375 -2.11667 l -1.587501,1.05834 H 3.877209 Z"
         sodipodi:nodetypes="cccccccccccccccc" /><path
         inkscape:connector-curvature="0"
         id="rect2465-1-9-2"
         d="m 5.027527,290.86137 c -0.541302,0 -1.002922,0.32295 -1.208195,0.78651 -0.183779,-0.31159 -0.519086,-0.52193 -0.908472,-0.52193 -0.586318,0 -1.058334,0.47203 -1.058334,1.05834 0,0.58632 0.472017,1.05833 1.058334,1.05833 0.389386,0 0.724693,-0.21034 0.908472,-0.52193 0.205273,0.46356 0.666893,0.78651 1.208195,0.78651 0.732896,0 1.322916,-0.59002 1.322916,-1.32291 0,-0.7329 -0.59002,-1.32292 -1.322916,-1.32292 z"
         style="fill:#a6a6a6;fill-opacity:1;stroke:none;stroke-width:2.64583;stroke-linecap:round;stroke-linejoin:round;stroke-miterlimit:4;stroke-dasharray:none;stroke-dashoffset:0;stroke-opacity:1;paint-order:normal" /><path
         inkscape:connector-curvature="0"
         id="rect2465-3-6-8-3-0"
         d="m 5.027527,291.12594 c -0.586317,0 -1.058334,0.47203 -1.058334,1.05834 0,0.58632 0.472017,1.05833 1.058334,1.05833 0.586316,0 1.058333,-0.47201 1.058333,-1.05833 0,-0.58631 -0.472017,-1.05834 -1.058333,-1.05834 z m -2.116667,0.26459 c -0.439737,0 -0.793751,0.35401 -0.793751,0.79375 0,0.43973 0.354013,0.79375 0.793751,0.79375 0.439738,0 0.79375,-0.35402 0.79375,-0.79375 0,-0.43974 -0.354012,-0.79375 -0.79375,-0.79375 z"
         style="fill:#f1f1f1;fill-opacity:1;stroke:none;stroke-width:1.5875;stroke-linecap:round;stroke-linejoin:round;stroke-miterlimit:4;stroke-dasharray:none;stroke-dashoffset:0;stroke-opacity:1;paint-order:normal" /><path
         inkscape:connector-curvature="0"
         id="rect2465-3-6-0-7-1-6"
         d="m 3.175444,291.65511 c -0.29316,0 -0.529167,0.23601 -0.529167,0.52917 0,0.29316 0.236007,0.52916 0.529167,0.52916 0.293158,0 0.529166,-0.236 0.529166,-0.52916 0,-0.29316 -0.236008,-0.52917 -0.529166,-0.52917 z m 2.116665,0 c -0.293158,0 -0.529167,0.23601 -0.529167,0.52917 0,0.29316 0.236009,0.52916 0.529167,0.52916 0.293159,0 0.529167,-0.236 0.529167,-0.52916 0,-0.29316 -0.236008,-0.52917 -0.529167,-0.52917 z"
         style="fill:url(#linearGradient65478);fill-opacity:1;stroke:none;stroke-width:1.05833;stroke-linecap:round;stroke-linejoin:round;stroke-miterlimit:4;stroke-dasharray:none;stroke-dashoffset:0;stroke-opacity:1;paint-order:normal" /><path
         id="path8354-7-6-9-8"
         style="fill:#1a1a1a;stroke-width:0.75595;stroke-linecap:round;stroke-linejoin:round;stroke-miterlimit:1.8;paint-order:stroke fill markers;stop-color:#000000;fill-opacity:1"
         d="m 2.381693,292.71344 a 1.3229164,1.3229164 0 0 1 -1.322917,1.32293 1.3229164,1.3229164 0 0 1 -1.322916,-1.32293 1.3229164,1.3229164 0 0 1 1.322916,-1.32291 1.3229164,1.3229164 0 0 1 1.322917,1.32291 z" /><path
         id="path8354-0-4-9"
         style="fill:url(#linearGradient67418);stroke-width:0.604763;stroke-linecap:round;stroke-linejoin:round;stroke-miterlimit:1.8;paint-order:stroke fill markers;stop-color:#000000;fill-opacity:1"
         d="m 2.11711,292.71344 a 1.0583333,1.0583333 0 0 1 -1.058334,1.05834 1.0583333,1.0583333 0 0 1 -1.058332,-1.05834 1.0583333,1.0583333 0 0 1 1.058332,-1.05833 1.0583333,1.0583333 0 0 1 1.058334,1.05833 z" /></g></g></svg>
