<?xml version="1.0" encoding="UTF-8" standalone="no"?>
<!-- Created with Inkscape (http://www.inkscape.org/) -->

<svg
   width="32"
   height="32"
   viewBox="0 0 32 32"
   version="1.1"
   id="svg8"
   inkscape:version="1.2.2 (b0a8486541, 2022-12-01)"
   sodipodi:docname="kdenlive.svg"
   xml:space="preserve"
   xmlns:inkscape="http://www.inkscape.org/namespaces/inkscape"
   xmlns:sodipodi="http://sodipodi.sourceforge.net/DTD/sodipodi-0.dtd"
   xmlns:xlink="http://www.w3.org/1999/xlink"
   xmlns="http://www.w3.org/2000/svg"
   xmlns:svg="http://www.w3.org/2000/svg"
   xmlns:rdf="http://www.w3.org/1999/02/22-rdf-syntax-ns#"
   xmlns:cc="http://creativecommons.org/ns#"
   xmlns:dc="http://purl.org/dc/elements/1.1/"><title
     id="title7895">Antu icon Theme</title><defs
     id="defs2"><linearGradient
       inkscape:collect="always"
       id="linearGradient11260"><stop
         style="stop-color:#306dee;stop-opacity:1;"
         offset="0"
         id="stop11256" /><stop
         style="stop-color:#5795fb;stop-opacity:1;"
         offset="1"
         id="stop11258" /></linearGradient><linearGradient
       inkscape:collect="always"
       id="linearGradient8354"><stop
         style="stop-color:#f5203f;stop-opacity:1;"
         offset="0"
         id="stop8350" /><stop
         style="stop-color:#fc3855;stop-opacity:1;"
         offset="1"
         id="stop8352" /></linearGradient><linearGradient
       inkscape:collect="always"
       id="linearGradient5931"><stop
         style="stop-color:#306dee;stop-opacity:1;"
         offset="0"
         id="stop5927" /><stop
         style="stop-color:#5795fb;stop-opacity:1;"
         offset="1"
         id="stop5929" /></linearGradient><linearGradient
       id="linearGradient3286"
       inkscape:collect="always"><stop
         id="stop3282"
         offset="0"
         style="stop-color:#242935;stop-opacity:1;" /><stop
         id="stop3284"
         offset="1"
         style="stop-color:#343c4b;stop-opacity:1;" /></linearGradient><linearGradient
       gradientTransform="matrix(3.7795275,0,0,3.7795275,-24.928569,-786.58392)"
       gradientUnits="userSpaceOnUse"
       y2="288.98691"
       x2="8.4477682"
       y1="295.60147"
       x1="8.4477682"
       id="linearGradient852"
       xlink:href="#linearGradient3286"
       inkscape:collect="always" /><linearGradient
       inkscape:collect="always"
       xlink:href="#linearGradient5931"
       id="linearGradient5933"
       x1="-0.00035829999"
       y1="326.14999"
       x2="-0.00035829999"
       y2="309.14999"
       gradientUnits="userSpaceOnUse" /><linearGradient
       inkscape:collect="always"
       xlink:href="#linearGradient8354"
       id="linearGradient8356"
       x1="15.999641"
       y1="309.64999"
       x2="15.999641"
       y2="288.64999"
       gradientUnits="userSpaceOnUse" /><linearGradient
       inkscape:collect="always"
       xlink:href="#linearGradient11260"
       id="linearGradient11262"
       x1="19.999641"
       y1="304.64999"
       x2="19.999641"
       y2="292.64999"
       gradientUnits="userSpaceOnUse" /></defs><sodipodi:namedview
     id="base"
     pagecolor="#ffffff"
     bordercolor="#666666"
     borderopacity="1.0"
     inkscape:pageopacity="0.0"
     inkscape:pageshadow="2"
     inkscape:zoom="5.6"
     inkscape:cx="-15.178572"
     inkscape:cy="-20.357143"
     inkscape:document-units="px"
     inkscape:current-layer="layer1"
     showgrid="true"
     units="px"
     inkscape:window-width="2560"
     inkscape:window-height="1363"
     inkscape:window-x="0"
     inkscape:window-y="0"
     inkscape:window-maximized="1"
     objecttolerance="10"
     gridtolerance="10"
     guidetolerance="10"
     inkscape:snap-bbox="true"
     inkscape:bbox-paths="true"
     inkscape:bbox-nodes="true"
     inkscape:snap-bbox-edge-midpoints="true"
     inkscape:snap-bbox-midpoints="true"
     inkscape:object-paths="true"
     inkscape:snap-intersection-paths="true"
     inkscape:showpageshadow="2"
     inkscape:pagecheckerboard="0"
     inkscape:deskcolor="#d1d1d1"><inkscape:grid
       type="xygrid"
       id="grid7897"
       empspacing="4" /></sodipodi:namedview><metadata
     id="metadata5"><rdf:RDF><cc:Work
         rdf:about=""><dc:format>image/svg+xml</dc:format><dc:type
           rdf:resource="http://purl.org/dc/dcmitype/StillImage" /><dc:title>Antu icon Theme</dc:title></cc:Work></rdf:RDF></metadata><g
     inkscape:label="Capa 1"
     inkscape:groupmode="layer"
     id="layer1"
     transform="translate(0,-282.64999)"><g
       id="g2211"
       transform="translate(52)"><g
         id="g1445"
         transform="translate(-51.999641,-4e-6)"><path
           transform="translate(8.999641,-17.999996)"
           inkscape:connector-curvature="0"
           style="opacity:1;fill:#15151a;fill-opacity:1;stroke:none;stroke-width:2.39314151;stroke-linecap:round;stroke-linejoin:round;stroke-miterlimit:4;stroke-dasharray:none;stroke-opacity:1"
           d="M -5.9999995,301.64999 H 20 c 1.108,0 2,0.892 2,2 v 26 c 0,1.108 -0.892,2 -2,2 H -5.9999995 c -1.108,0 -2,-0.892 -2,-2 v -26 c 0,-1.108 0.892,-2 2,-2 z"
           id="rect843" /><path
           transform="translate(8.999641,-17.999996)"
           inkscape:connector-curvature="0"
           style="opacity:1;fill:url(#linearGradient852);fill-opacity:1;stroke:none;stroke-width:2.23359871;stroke-linecap:round;stroke-linejoin:round;stroke-miterlimit:4;stroke-dasharray:none;stroke-opacity:1"
           d="M -5.9999995,302.64999 H 20 c 0.554,0 1,0.446 1,1 v 26 c 0,0.554 -0.446,1 -1,1 H -5.9999995 c -0.554,0 -1,-0.446 -1,-1 v -26 c 0,-0.554 0.446,-1 1,-1 z"
           id="rect843-3" /><path
           id="rect4183-6"
           style="fill:#15151a;fill-opacity:1;stroke:none;stroke-width:2;stroke-linecap:round;stroke-linejoin:round;stroke-miterlimit:4;stroke-dasharray:none;stroke-dashoffset:0;stroke-opacity:1"
           d="m 15.999641,287.64999 c -1.107999,0 -2,0.89201 -2,2 v 20 c 0,1.108 0.892001,2 2,2 1.107999,0 2,-0.892 2,-2 v -20 c 0,-1.10799 -0.892001,-2 -2,-2 z m -6.5,3 c -0.8309983,0 -1.5,0.669 -1.5,1.5 0,0.831 0.6690017,1.5 1.5,1.5 h 2 c 0.830998,0 1.5,-0.669 1.5,-1.5 0,-0.831 -0.669002,-1.5 -1.5,-1.5 z m 10.542969,2 c -0.568961,-0.0244 -1.043435,0.43052 -1.042969,1 v 12 c 0.0014,0.82304 0.940834,1.29221 1.599609,0.79883 l 8,-6 c 0.532898,-0.40006 0.532898,-1.19955 0,-1.59961 l -8,-6 c -0.16123,-0.12099 -0.355257,-0.19043 -0.55664,-0.19922 z m -13.5644534,2 c -0.8187566,0 -1.4785156,0.65976 -1.4785156,1.47852 v 0.043 c 0,0.81876 0.659759,1.47851 1.4785156,1.47851 h 5.0429684 c 0.818757,0 1.478516,-0.65975 1.478516,-1.47851 v -0.043 c 0,-0.81876 -0.659759,-1.47852 -1.478516,-1.47852 z m -1.9785156,4 c -0.8309984,0 -1.5,0.669 -1.5,1.5 0,0.831 0.6690016,1.5 1.5,1.5 h 7 c 0.830998,0 1.5,-0.669 1.5,-1.5 0,-0.831 -0.669002,-1.5 -1.5,-1.5 z m 2,3.98633 c -0.8309984,0 -1.5,0.669 -1.5,1.5 0,0.831 0.6690016,1.5 1.5,1.5 h 5 c 0.830998,0 1.5,-0.669 1.5,-1.5 0,-0.831 -0.669002,-1.5 -1.5,-1.5 z m 3,4.01367 c -0.8309984,0 -1.5,0.669 -1.5,1.5 0,0.831 0.6690016,1.5 1.5,1.5 h 2 c 0.830998,0 1.5,-0.669 1.5,-1.5 0,-0.831 -0.669002,-1.5 -1.5,-1.5 z" /><path
           id="rect4183"
           style="opacity:1;fill:url(#linearGradient5933);fill-opacity:1;stroke:none;stroke-width:2;stroke-linecap:round;stroke-linejoin:round;stroke-miterlimit:4;stroke-dasharray:none;stroke-dashoffset:0;stroke-opacity:1"
           d="M -0.5003583 308.14999 C -1.3313574 308.14999 -2.0003583 308.81899 -2.0003583 309.64999 C -2.0003583 310.48099 -1.3313574 311.14999 -0.5003583 311.14999 L 1.4996417 311.14999 C 2.3306409 311.14999 2.9996417 310.48099 2.9996417 309.64999 C 2.9996417 308.81899 2.3306409 308.14999 1.4996417 308.14999 L -0.5003583 308.14999 z M -3.5218427 312.14999 C -4.3406001 312.14999 -5.0003583 312.80975 -5.0003583 313.62851 L -5.0003583 313.67147 C -5.0003583 314.49023 -4.3406001 315.14999 -3.5218427 315.14999 L 1.5211261 315.14999 C 2.3398835 315.14999 2.9996417 314.49023 2.9996417 313.67147 L 2.9996417 313.62851 C 2.9996417 312.80975 2.3398835 312.14999 1.5211261 312.14999 L -3.5218427 312.14999 z M -5.5003583 316.14999 C -6.3313575 316.14999 -7.0003583 316.81899 -7.0003583 317.64999 C -7.0003583 318.48099 -6.3313575 319.14999 -5.5003583 319.14999 L 1.4996417 319.14999 C 2.3306409 319.14999 2.9996417 318.48099 2.9996417 317.64999 C 2.9996417 316.81899 2.3306409 316.14999 1.4996417 316.14999 L -5.5003583 316.14999 z M -3.5003583 320.13632 C -4.3313575 320.13632 -5.0003583 320.80532 -5.0003583 321.63632 C -5.0003583 322.46732 -4.3313575 323.13632 -3.5003583 323.13632 L 1.4996417 323.13632 C 2.3306409 323.13632 2.9996417 322.46732 2.9996417 321.63632 C 2.9996417 320.80532 2.3306409 320.13632 1.4996417 320.13632 L -3.5003583 320.13632 z M -0.5003583 324.14999 C -1.3313575 324.14999 -2.0003583 324.81899 -2.0003583 325.64999 C -2.0003583 326.48099 -1.3313575 327.14999 -0.5003583 327.14999 L 1.4996417 327.14999 C 2.3306409 327.14999 2.9996417 326.48099 2.9996417 325.64999 C 2.9996417 324.81899 2.3306409 324.14999 1.4996417 324.14999 L -0.5003583 324.14999 z "
           transform="translate(9.9999993,-18.499996)" /><path
           sodipodi:nodetypes="cccccccc"
           inkscape:connector-curvature="0"
           id="path1347"
           d="m 20.042969,291.65034 c -0.568961,-0.0244 -1.043435,0.43052 -1.042969,1 v 12 c 0.0014,0.82304 0.940833,1.29221 1.599609,0.79883 l 8,-6 c 0.532898,-0.40006 0.532898,-1.19955 0,-1.59961 l -8,-6 c -0.16123,-0.12099 -0.355256,-0.19043 -0.55664,-0.19922 z"
           style="color:#000000;font-style:normal;font-variant:normal;font-weight:normal;font-stretch:normal;font-size:medium;line-height:normal;font-family:sans-serif;font-variant-ligatures:normal;font-variant-position:normal;font-variant-caps:normal;font-variant-numeric:normal;font-variant-alternates:normal;font-feature-settings:normal;text-indent:0;text-align:start;text-decoration:none;text-decoration-line:none;text-decoration-style:solid;text-decoration-color:#000000;letter-spacing:normal;word-spacing:normal;text-transform:none;writing-mode:lr-tb;direction:ltr;text-orientation:mixed;dominant-baseline:auto;baseline-shift:baseline;text-anchor:start;white-space:normal;shape-padding:0;clip-rule:nonzero;display:inline;overflow:visible;visibility:visible;opacity:1;isolation:auto;mix-blend-mode:normal;color-interpolation:sRGB;color-interpolation-filters:linearRGB;solid-color:#000000;solid-opacity:1;vector-effect:none;fill:url(#linearGradient11262);fill-opacity:1;fill-rule:nonzero;stroke:none;stroke-width:2;stroke-linecap:round;stroke-linejoin:round;stroke-miterlimit:4;stroke-dasharray:none;stroke-dashoffset:0;stroke-opacity:1;color-rendering:auto;image-rendering:auto;shape-rendering:auto;text-rendering:auto;enable-background:accumulate" /><path
           style="opacity:1;vector-effect:none;fill:url(#linearGradient8356);fill-opacity:1;stroke:none;stroke-width:2;stroke-linecap:round;stroke-linejoin:round;stroke-miterlimit:4;stroke-dasharray:none;stroke-dashoffset:0;stroke-opacity:1"
           d="m 16,286.64999 c 1.108,0 2,0.892 2,2 v 19.99998 c 0,1.108 -0.892,2 -2,2 -1.108,0 -2,-0.892 -2,-2 v -19.99998 c 0,-1.108 0.892,-2 2,-2 z"
           id="rect1361"
           inkscape:connector-curvature="0"
           sodipodi:nodetypes="sssssss" /></g></g></g></svg>
