<?xml version="1.0" encoding="UTF-8" standalone="no"?>
<!-- Created with Inkscape (http://www.inkscape.org/) -->

<svg
   width="32"
   height="32"
   viewBox="0 0 8.4666667 8.4666667"
   version="1.1"
   id="svg5"
   inkscape:version="1.2.2 (b0a8486541, 2022-12-01)"
   sodipodi:docname="libreoffice-base.svg"
   xmlns:inkscape="http://www.inkscape.org/namespaces/inkscape"
   xmlns:sodipodi="http://sodipodi.sourceforge.net/DTD/sodipodi-0.dtd"
   xmlns:xlink="http://www.w3.org/1999/xlink"
   xmlns="http://www.w3.org/2000/svg"
   xmlns:svg="http://www.w3.org/2000/svg">
  <sodipodi:namedview
     id="namedview7"
     pagecolor="#ffffff"
     bordercolor="#9c9c9c"
     borderopacity="0.24705882"
     inkscape:showpageshadow="false"
     inkscape:pageopacity="0.0"
     inkscape:pagecheckerboard="0"
     inkscape:deskcolor="#5e5e5e"
     inkscape:document-units="px"
     showgrid="true"
     inkscape:zoom="5.1754899"
     inkscape:cx="90.619441"
     inkscape:cy="49.850353"
     inkscape:window-width="2560"
     inkscape:window-height="1363"
     inkscape:window-x="0"
     inkscape:window-y="0"
     inkscape:window-maximized="1"
     inkscape:current-layer="layer1">
    <inkscape:grid
       type="xygrid"
       id="grid132"
       originx="0"
       originy="0" />
  </sodipodi:namedview>
  <defs
     id="defs2">
    <linearGradient
       inkscape:collect="always"
       xlink:href="#linearGradient85593"
       id="linearGradient85595"
       x1="82"
       y1="315.64999"
       x2="82"
       y2="289.64999"
       gradientUnits="userSpaceOnUse"
       gradientTransform="matrix(0.26458333,0,0,0.26458333,-1.3229164,-69.228225)" />
    <linearGradient
       inkscape:collect="always"
       id="linearGradient85593">
      <stop
         style="stop-color:#a065a6;stop-opacity:1;"
         offset="0"
         id="stop85589" />
      <stop
         style="stop-color:#bc83bf;stop-opacity:1;"
         offset="1"
         id="stop85591" />
    </linearGradient>
  </defs>
  <g
     inkscape:label="Capa 1"
     inkscape:groupmode="layer"
     id="layer1">
    <g
       id="g87655"
       transform="translate(-16.139601,-6.6145837)">
      <path
         id="path2011"
         style="color:#000000;fill:#704276;fill-opacity:1;stroke-width:0.264583;stroke-linecap:round;stroke-linejoin:round;-inkscape-stroke:none"
         d="m 17.4625,6.8791672 c -0.288582,0 -0.529167,0.2405857 -0.529167,0.5291667 V 14.2875 c 0,0.288582 0.240585,0.529167 0.529167,0.529167 h 5.820833 c 0.288581,0 0.529167,-0.240585 0.529167,-0.529167 v -3.968749 a 0.26460979,0.26460979 0 0 0 -0.07751,-0.187069 l -3.175,-3.1749998 a 0.26460979,0.26460979 0 0 0 -0.187068,-0.077515 z m 3.96875,0 a 0.26460979,0.26460979 0 0 0 -0.187069,0.4516517 l 2.116667,2.1166667 A 0.26460979,0.26460979 0 0 0 23.8125,9.2604172 V 7.4083339 c 0,0 0.0036,-0.1213776 -0.06098,-0.2506319 C 23.686896,7.0284504 23.503819,6.8791672 23.283333,6.8791672 Z M 17.4625,7.4083339 h 2.800863 l 3.01997,3.0199701 V 14.2875 H 17.4625 Z m 4.607471,0 h 1.213362 v 1.2133633 z" />
      <path
         id="path2015"
         style="color:#000000;fill:url(#linearGradient85595);fill-opacity:1;stroke-width:0.529167;stroke-linecap:round;stroke-linejoin:round;-inkscape-stroke:none"
         d="m 17.4625,7.1437506 c -0.146579,0 -0.264583,0.1180041 -0.264583,0.2645833 V 14.2875 c 0,0.14658 0.118004,0.264584 0.264583,0.264584 h 5.820833 c 0.146579,0 0.264584,-0.118004 0.264584,-0.264584 v -3.968749 l -3.175,-3.1750004 z m 3.96875,0 2.116667,2.1166666 V 7.4083339 c 0,0 -1e-6,-0.2645833 -0.264584,-0.2645833 z" />
      <path
         id="rect4496-3-2"
         d="m 18.256251,9.5250005 v 1.3229165 2.910417 h 4.233332 V 10.847917 H 21.166666 V 9.5250005 Z m 0.264582,0.2645834 h 2.38125 v 1.0583331 h -2.38125 z m 0.264583,0.2645831 v 0.529167 H 20.6375 v -0.529167 z m -0.264583,1.058334 H 22.225 v 1.058333 h -3.704167 z m 0.264583,0.264583 v 0.529166 h 3.175 v -0.529166 z m -0.264583,1.058333 H 22.225 V 13.49375 H 18.520833 Z M 18.785416,12.7 v 0.529167 h 3.175 V 12.7 Z"
         style="opacity:0.98;fill:#704276;fill-opacity:1;stroke:none;stroke-width:0.529167;stroke-linecap:square;stroke-linejoin:miter;stroke-miterlimit:4;stroke-dasharray:none;stroke-opacity:1;paint-order:stroke markers fill"
         inkscape:connector-curvature="0" />
      <path
         id="rect4496-3"
         d="m 18.256251,9.2604172 v 1.3229168 2.910416 h 4.233333 V 10.583334 H 21.166667 V 9.2604172 Z m 0.264583,0.2645833 h 2.38125 v 1.0583335 h -2.38125 z m 0.264583,0.2645834 v 0.5291671 h 1.852084 V 9.7895839 Z M 18.520834,10.847917 H 22.225 v 1.058333 h -3.704166 z m 0.264583,0.264584 v 0.529166 h 3.175 v -0.529166 z m -0.264583,1.058333 H 22.225 v 1.058333 h -3.704166 z m 0.264583,0.264583 v 0.529167 h 3.175 v -0.529167 z"
         style="opacity:0.98;fill:#fbfbfb;fill-opacity:1;stroke:none;stroke-width:0.529167;stroke-linecap:square;stroke-linejoin:miter;stroke-miterlimit:4;stroke-dasharray:none;stroke-opacity:1;paint-order:stroke markers fill"
         inkscape:connector-curvature="0" />
    </g>
  </g>
</svg>
