<?xml version="1.0" encoding="UTF-8" standalone="no"?>
<!-- Created with Inkscape (http://www.inkscape.org/) -->

<svg
   width="32"
   height="32"
   viewBox="0 0 8.4666667 8.4666667"
   version="1.1"
   id="svg5"
   inkscape:version="1.2.2 (b0a8486541, 2022-12-01)"
   sodipodi:docname="libreoffice-draw.svg"
   xmlns:inkscape="http://www.inkscape.org/namespaces/inkscape"
   xmlns:sodipodi="http://sodipodi.sourceforge.net/DTD/sodipodi-0.dtd"
   xmlns:xlink="http://www.w3.org/1999/xlink"
   xmlns="http://www.w3.org/2000/svg"
   xmlns:svg="http://www.w3.org/2000/svg">
  <sodipodi:namedview
     id="namedview7"
     pagecolor="#ffffff"
     bordercolor="#9c9c9c"
     borderopacity="0.24705882"
     inkscape:showpageshadow="false"
     inkscape:pageopacity="0.0"
     inkscape:pagecheckerboard="0"
     inkscape:deskcolor="#5e5e5e"
     inkscape:document-units="px"
     showgrid="true"
     inkscape:zoom="5.1754899"
     inkscape:cx="90.619441"
     inkscape:cy="49.850353"
     inkscape:window-width="2560"
     inkscape:window-height="1363"
     inkscape:window-x="0"
     inkscape:window-y="0"
     inkscape:window-maximized="1"
     inkscape:current-layer="layer1">
    <inkscape:grid
       type="xygrid"
       id="grid132"
       originx="0"
       originy="0" />
  </sodipodi:namedview>
  <defs
     id="defs2">
    <linearGradient
       inkscape:collect="always"
       xlink:href="#linearGradient83504"
       id="linearGradient83506"
       x1="21.431252"
       y1="14.2875"
       x2="21.431252"
       y2="7.4083333"
       gradientUnits="userSpaceOnUse"
       gradientTransform="translate(0.26458281,-0.79375028)" />
    <linearGradient
       inkscape:collect="always"
       id="linearGradient83504">
      <stop
         style="stop-color:#ffbf01;stop-opacity:1;"
         offset="0"
         id="stop83500" />
      <stop
         style="stop-color:#ffd702;stop-opacity:1;"
         offset="1"
         id="stop83502" />
    </linearGradient>
  </defs>
  <g
     inkscape:label="Capa 1"
     inkscape:groupmode="layer"
     id="layer1">
    <g
       id="g84951"
       transform="translate(-17.462518,-5.8208334)">
      <path
         id="path2011-9"
         style="color:#000000;fill:#e68900;fill-opacity:1;stroke-width:0.264583;stroke-linecap:round;stroke-linejoin:round;-inkscape-stroke:none"
         d="m 18.785417,6.0854166 c -0.288582,0 -0.529167,0.2405856 -0.529167,0.5291667 V 13.49375 c 0,0.288581 0.240585,0.529167 0.529167,0.529167 h 5.820833 c 0.288581,0 0.529167,-0.240586 0.529167,-0.529167 V 9.5249997 c -1.4e-5,-0.07017 -0.0279,-0.137456 -0.07751,-0.187068 l -3.175,-3.1750001 c -0.04961,-0.04962 -0.116901,-0.077502 -0.187069,-0.077515 z m 3.96875,0 c -0.235648,9.26e-5 -0.353639,0.2849668 -0.187069,0.4516517 l 2.116667,2.1166666 c 0.166686,0.1665711 0.451559,0.04858 0.451652,-0.1870683 V 6.6145833 c 0,0 0.0036,-0.1213776 -0.06098,-0.2506319 -0.06463,-0.1292516 -0.247703,-0.2785348 -0.468188,-0.2785348 z"
         sodipodi:nodetypes="ssssssccccscccccssc" />
      <path
         id="path2015-0"
         style="color:#000000;fill:url(#linearGradient83506);fill-opacity:1;stroke-width:0.529167;stroke-linecap:round;stroke-linejoin:round;-inkscape-stroke:none"
         d="m 18.785417,6.3499999 c -0.146579,0 -0.264584,0.1180042 -0.264584,0.2645834 V 13.49375 c 0,0.146579 0.118005,0.264583 0.264584,0.264583 h 5.820833 c 0.146578,0 0.264583,-0.118004 0.264583,-0.264583 V 9.5249997 l -3.175,-3.1749998 z m 3.96875,0 2.116666,2.1166667 V 6.6145833 c 0,0 0,-0.2645834 -0.264583,-0.2645834 z" />
      <path
         sodipodi:nodetypes="cccccccccccccccccccc"
         inkscape:connector-curvature="0"
         id="rect3215-6"
         d="M 20.108334,9.5250008 V 10.847917 H 21.43125 V 9.5250008 Z m 1.852083,0 v 1.3229162 h 1.322917 V 9.5250008 Z m -1.852083,1.8520832 v 1.322917 h 1.322916 v -1.322917 z m 1.852083,0 v 1.322917 h 1.322917 v -1.322917 z"
         style="fill:#e68900;fill-opacity:1;stroke:none;stroke-width:0.529167;stroke-linecap:square;stroke-linejoin:miter;stroke-miterlimit:4;stroke-dasharray:none;stroke-opacity:1;paint-order:stroke markers fill" />
      <path
         sodipodi:nodetypes="cccccccccccccccccccc"
         inkscape:connector-curvature="0"
         id="rect3215"
         d="M 20.108334,9.2604175 V 10.583334 H 21.43125 V 9.2604175 Z m 1.852083,0 v 1.3229165 h 1.322917 V 9.2604175 Z m -1.852083,1.8520835 v 1.322916 h 1.322916 v -1.322916 z m 1.852083,0 v 1.322916 h 1.322917 v -1.322916 z"
         style="fill:#f9f7ed;fill-opacity:1;stroke:none;stroke-width:0.529167;stroke-linecap:square;stroke-linejoin:miter;stroke-miterlimit:4;stroke-dasharray:none;stroke-opacity:1;paint-order:stroke markers fill" />
    </g>
  </g>
</svg>
