<?xml version="1.0" encoding="UTF-8" standalone="no"?>
<!-- Created with Inkscape (http://www.inkscape.org/) -->

<svg
   width="32"
   height="32"
   viewBox="0 0 8.4666667 8.4666667"
   version="1.1"
   id="svg5"
   inkscape:version="1.2.2 (b0a8486541, 2022-12-01)"
   sodipodi:docname="libreoffice-impress.svg"
   xmlns:inkscape="http://www.inkscape.org/namespaces/inkscape"
   xmlns:sodipodi="http://sodipodi.sourceforge.net/DTD/sodipodi-0.dtd"
   xmlns:xlink="http://www.w3.org/1999/xlink"
   xmlns="http://www.w3.org/2000/svg"
   xmlns:svg="http://www.w3.org/2000/svg">
  <sodipodi:namedview
     id="namedview7"
     pagecolor="#ffffff"
     bordercolor="#9c9c9c"
     borderopacity="0.24705882"
     inkscape:showpageshadow="false"
     inkscape:pageopacity="0.0"
     inkscape:pagecheckerboard="0"
     inkscape:deskcolor="#5e5e5e"
     inkscape:document-units="px"
     showgrid="true"
     inkscape:zoom="5.1754899"
     inkscape:cx="90.619441"
     inkscape:cy="49.850353"
     inkscape:window-width="2560"
     inkscape:window-height="1363"
     inkscape:window-x="0"
     inkscape:window-y="0"
     inkscape:window-maximized="1"
     inkscape:current-layer="layer1">
    <inkscape:grid
       type="xygrid"
       id="grid132"
       originx="0"
       originy="0" />
  </sodipodi:namedview>
  <defs
     id="defs2">
    <linearGradient
       inkscape:collect="always"
       xlink:href="#linearGradient80559"
       id="linearGradient80561"
       x1="17.4625"
       y1="26.19375"
       x2="17.4625"
       y2="19.314583"
       gradientUnits="userSpaceOnUse"
       gradientTransform="translate(3.9687498,-12.170834)" />
    <linearGradient
       inkscape:collect="always"
       id="linearGradient80559">
      <stop
         style="stop-color:#f34242;stop-opacity:1;"
         offset="0"
         id="stop80555" />
      <stop
         style="stop-color:#ff6666;stop-opacity:1;"
         offset="1"
         id="stop80557" />
    </linearGradient>
  </defs>
  <g
     inkscape:label="Capa 1"
     inkscape:groupmode="layer"
     id="layer1">
    <g
       id="g83076"
       transform="translate(-17.197935,-6.3499971)">
      <path
         id="path2011-3"
         style="color:#000000;fill:#b52d2d;fill-opacity:1;stroke-width:0.264583;stroke-linecap:round;stroke-linejoin:round;-inkscape-stroke:none"
         d="m 18.520834,6.614583 c -0.288582,0 -0.529167,0.240586 -0.529167,0.529167 v 6.879166 c 0,0.288581 0.240585,0.529167 0.529167,0.529167 h 5.820833 c 0.288581,0 0.529167,-0.240586 0.529167,-0.529167 v -3.96875 c -1.4e-5,-0.07017 -0.0279,-0.137456 -0.07751,-0.187068 l -3.175,-3.175 c -0.04961,-0.04962 -0.116901,-0.0775 -0.187069,-0.07752 z m 3.96875,0 c -0.235648,9.3e-5 -0.353639,0.284967 -0.187069,0.451652 l 2.116667,2.116666 c 0.166686,0.166571 0.451559,0.04858 0.451652,-0.187068 V 7.14375 c 0,0 0.0036,-0.121378 -0.06098,-0.250632 -0.06463,-0.129252 -0.247703,-0.278535 -0.468188,-0.278535 z"
         sodipodi:nodetypes="ssssssccccscccccssc" />
      <path
         id="path2015-1"
         style="color:#000000;fill:url(#linearGradient80561);fill-opacity:1;stroke-width:0.529167;stroke-linecap:round;stroke-linejoin:round;-inkscape-stroke:none"
         d="m 18.520834,6.879166 c -0.146579,0 -0.264584,0.118004 -0.264584,0.264584 v 6.879166 c 0,0.146579 0.118005,0.264583 0.264584,0.264583 h 5.820833 c 0.146578,0 0.264583,-0.118004 0.264583,-0.264583 v -3.96875 l -3.175,-3.175 z m 3.96875,0 2.116666,2.116667 V 7.14375 c 0,0 0,-0.264584 -0.264583,-0.264584 z" />
      <g
         inkscape:label="Capa 1"
         id="layer1-0"
         transform="matrix(0.26458333,0,0,0.26458333,17.197917,-67.905309)"
         style="fill:#fde1e1;fill-opacity:1">
        <g
           id="g2980"
           transform="translate(11,-2.9998)"
           style="fill:#fde1e1;fill-opacity:1" />
        <path
           style="opacity:0.98;fill:#b52d2d;fill-opacity:1;stroke:none;stroke-width:1.77778;stroke-linecap:square;stroke-linejoin:miter;stroke-miterlimit:4;stroke-dasharray:none;stroke-opacity:1;paint-order:stroke markers fill"
           d="m 13,295.64999 v 4 h 4 c 0,-2.20914 -1.790861,-4 -4,-4 z m -1,1 c -1.617649,0 -3.0760561,0.97432 -3.6953131,2.46875 -0.619196,1.49478 -0.276928,3.21537 0.8671882,4.35937 1.1440099,1.14412 2.8645989,1.48639 4.3593749,0.86719 1.494426,-0.61925 2.468753,-2.07766 2.46875,-3.69531 h -4 z m 6,0 v 2 h 6 v -2 z m 2,3 v 2 h 4 v -2 z m -3,3 v 2 h 7 v -2 z"
           id="path2316-3-4"
           inkscape:connector-curvature="0"
           sodipodi:nodetypes="cccccccccccccccccccccccccc" />
        <path
           style="opacity:0.98;fill:#ffffff;fill-opacity:1;stroke:none;stroke-width:1.77778;stroke-linecap:square;stroke-linejoin:miter;stroke-miterlimit:4;stroke-dasharray:none;stroke-opacity:1;paint-order:stroke markers fill"
           d="m 13,294.64999 v 4 h 4 c 0,-2.20914 -1.790861,-4 -4,-4 z m -1,1 c -1.617649,0 -3.0760562,0.97432 -3.6953132,2.46875 -0.619196,1.49478 -0.276928,3.21537 0.867188,4.35937 1.1440102,1.14412 2.8645992,1.48639 4.3593752,0.86719 1.494426,-0.61925 2.468753,-2.07766 2.46875,-3.69531 h -4 z m 6,0 v 2 h 6 v -2 z m 2,3 v 2 h 4 v -2 z m -3,3 v 2 h 7 v -2 z"
           id="path2316-3"
           inkscape:connector-curvature="0"
           sodipodi:nodetypes="cccccccccccccccccccccccccc" />
      </g>
    </g>
  </g>
</svg>
