<?xml version="1.0" encoding="UTF-8" standalone="no"?>
<!-- Created with Inkscape (http://www.inkscape.org/) -->

<svg
   width="32"
   height="32"
   viewBox="0 0 32 32"
   version="1.1"
   id="svg8"
   inkscape:version="1.2.2 (b0a8486541, 2022-12-01)"
   sodipodi:docname="preferences-system-windows-behavior.svg"
   xml:space="preserve"
   xmlns:inkscape="http://www.inkscape.org/namespaces/inkscape"
   xmlns:sodipodi="http://sodipodi.sourceforge.net/DTD/sodipodi-0.dtd"
   xmlns:xlink="http://www.w3.org/1999/xlink"
   xmlns="http://www.w3.org/2000/svg"
   xmlns:svg="http://www.w3.org/2000/svg"
   xmlns:rdf="http://www.w3.org/1999/02/22-rdf-syntax-ns#"
   xmlns:cc="http://creativecommons.org/ns#"
   xmlns:dc="http://purl.org/dc/elements/1.1/"><title
     id="title7895">Antu icon Theme</title><defs
     id="defs2"><style
       type="text/css"
       id="current-color-scheme">
      .ColorScheme-Text {
        color:#122036;
      }
      </style><style
       id="current-color-scheme-1"
       type="text/css">
      .ColorScheme-Text {
        color:#122036;
      }
      </style><linearGradient
       inkscape:collect="always"
       xlink:href="#linearGradient1116"
       id="linearGradient31772"
       gradientUnits="userSpaceOnUse"
       gradientTransform="translate(54,13.99998)"
       x1="-10"
       y1="315.64999"
       x2="-10"
       y2="299.64999" /><linearGradient
       inkscape:collect="always"
       id="linearGradient1116"><stop
         style="stop-color:#dadada;stop-opacity:1"
         offset="0"
         id="stop1111" /><stop
         style="stop-color:#fcfcfc;stop-opacity:1"
         offset="1"
         id="stop1113" /></linearGradient><linearGradient
       inkscape:collect="always"
       xlink:href="#linearGradient4582-3"
       id="linearGradient31774"
       gradientUnits="userSpaceOnUse"
       gradientTransform="translate(46,11.99998)"
       x1="-2"
       y1="302.64999"
       x2="-2"
       y2="292.64999" /><linearGradient
       id="linearGradient4582-3"
       inkscape:collect="always"><stop
         id="stop4578-5"
         offset="0"
         style="stop-color:#272d37;stop-opacity:1;" /><stop
         id="stop4580-6"
         offset="1"
         style="stop-color:#343b49;stop-opacity:1;" /></linearGradient><linearGradient
       inkscape:collect="always"
       xlink:href="#linearGradient31576"
       id="linearGradient31776"
       gradientUnits="userSpaceOnUse"
       gradientTransform="matrix(5.03937,0,0,5.03937,62.41116,-1182.3322)"
       x1="-3.6534665"
       y1="299.83554"
       x2="-3.6534665"
       y2="296.66052" /><linearGradient
       id="linearGradient31576"
       inkscape:collect="always"><stop
         id="stop31572"
         offset="0"
         style="stop-color:#2e3541;stop-opacity:1;" /><stop
         id="stop31574"
         offset="1"
         style="stop-color:#333a48;stop-opacity:1;" /></linearGradient><linearGradient
       inkscape:collect="always"
       xlink:href="#linearGradient1037-1"
       id="linearGradient31835"
       gradientUnits="userSpaceOnUse"
       gradientTransform="matrix(3.7795276,0,0,3.7795276,55.3983,291.70933)"
       x1="-3.0158014"
       y1="8.7155495"
       x2="-3.0158014"
       y2="6.3342996" /><linearGradient
       inkscape:collect="always"
       id="linearGradient1037-1"><stop
         style="stop-color:#e5efef;stop-opacity:1;"
         offset="0"
         id="stop1033" /><stop
         style="stop-color:#fbfbfb;stop-opacity:1;"
         offset="1"
         id="stop1035" /></linearGradient></defs><sodipodi:namedview
     id="base"
     pagecolor="#ffffff"
     bordercolor="#666666"
     borderopacity="1.0"
     inkscape:pageopacity="0.0"
     inkscape:pageshadow="2"
     inkscape:zoom="22.627417"
     inkscape:cx="21.146912"
     inkscape:cy="15.335378"
     inkscape:document-units="px"
     inkscape:current-layer="layer1"
     showgrid="true"
     units="px"
     inkscape:window-width="2560"
     inkscape:window-height="1353"
     inkscape:window-x="0"
     inkscape:window-y="0"
     inkscape:window-maximized="1"
     objecttolerance="10"
     gridtolerance="10"
     guidetolerance="10"
     inkscape:showpageshadow="2"
     inkscape:pagecheckerboard="0"
     inkscape:deskcolor="#d1d1d1"><inkscape:grid
       type="xygrid"
       id="grid7897"
       empspacing="4" /></sodipodi:namedview><metadata
     id="metadata5"><rdf:RDF><cc:Work
         rdf:about=""><dc:format>image/svg+xml</dc:format><dc:type
           rdf:resource="http://purl.org/dc/dcmitype/StillImage" /><dc:title>Antu icon Theme</dc:title></cc:Work></rdf:RDF></metadata><g
     inkscape:label="Capa 1"
     inkscape:groupmode="layer"
     id="layer1"
     transform="translate(0,-282.64999)"><g
       id="g56537"
       transform="translate(-28,-18.99998)"><path
         inkscape:connector-curvature="0"
         style="fill:#90a4ae;fill-opacity:1;stroke:none;stroke-width:0.808;stroke-linecap:round;stroke-linejoin:round;stroke-miterlimit:4;stroke-dasharray:none;stroke-opacity:1;paint-order:stroke markers fill"
         d="m 30,303.64997 h 28.00001 c 1.108,0 1.99999,0.892 1.99999,2 v 24.00001 c 0,1.108 -0.89199,1.99999 -1.99999,1.99999 H 30 c -1.108,0 -2,-0.89199 -2,-1.99999 v -24.00001 c 0,-1.108 0.892,-2 2,-2 z"
         id="rect941-4-4-3" /><path
         inkscape:connector-curvature="0"
         style="fill:url(#linearGradient31772);fill-opacity:1;stroke:none;stroke-width:0.808;stroke-linecap:round;stroke-linejoin:round;stroke-miterlimit:4;stroke-dasharray:none;stroke-opacity:1;paint-order:stroke markers fill"
         d="m 30,304.64997 h 28 c 0.554,0 1,0.446 1,1 v 24 c 0,0.554 -0.446,1 -1,1 H 30 c -0.554,0 -1,-0.446 -1,-1 v -24 c 0,-0.554 0.446,-1 1,-1 z"
         id="rect943-3-7-4" /><path
         sodipodi:nodetypes="ssccccccccsss"
         inkscape:connector-curvature="0"
         id="rect866-8-9-9"
         d="m 30,303.64997 c -1.10799,0 -2,0.892 -2,2 v 2 1 2 h 2 28 2 v -2 -1 -2 c 0,-1.108 -0.892,-2 -2,-2 z"
         style="fill:#1f1f26;fill-opacity:1;stroke:none;stroke-width:0.808;stroke-linecap:round;stroke-linejoin:round;stroke-miterlimit:4;stroke-dasharray:none;stroke-opacity:1;paint-order:stroke markers fill" /><path
         sodipodi:nodetypes="ssccccccccsss"
         inkscape:connector-curvature="0"
         id="rect868-6-2-0"
         d="m 30,304.64997 c -0.55399,0 -1,0.446 -1,1 v 2 1 1 h 1 28 1 v -1 -1 -2 c 0,-0.554 -0.446,-1 -1,-1 z"
         style="fill:url(#linearGradient31774);fill-opacity:1;stroke:none;stroke-width:0.808;stroke-linecap:round;stroke-linejoin:round;stroke-miterlimit:4;stroke-dasharray:none;stroke-opacity:1;paint-order:stroke markers fill" /><path
         inkscape:connector-curvature="0"
         style="fill:#1f1f26;fill-opacity:1;stroke:none;stroke-width:0.881795;stroke-linecap:round;stroke-linejoin:round;stroke-miterlimit:4;stroke-dasharray:none;stroke-opacity:1"
         d="m 44,311.64999 c 4.986,0 9,4.0139 9,8.99993 0,4.98598 -4.014,9.00001 -9,9.00001 -4.986,0 -9,-4.01403 -9,-9.00001 0,-4.98603 4.014,-8.99993 9,-8.99993 z"
         id="rect4496-3-5-2" /><path
         inkscape:connector-curvature="0"
         style="fill:url(#linearGradient31776);fill-opacity:1;stroke:none;stroke-width:0.801259;stroke-linecap:round;stroke-linejoin:round;stroke-miterlimit:4;stroke-dasharray:none;stroke-opacity:1"
         d="m 44,312.64996 c 4.432,0 8,3.56801 8,8.00003 0,4.43205 -3.568,8.00003 -8,8.00003 -4.432,0 -8,-3.568 -8,-8.00003 0,-4.43202 3.568,-8.00003 8,-8.00003 z"
         id="rect4570-9-6-5-93-0" /><path
         inkscape:connector-curvature="0"
         style="color:#000000;font-style:normal;font-variant:normal;font-weight:normal;font-stretch:normal;font-size:medium;line-height:normal;font-family:sans-serif;font-variant-ligatures:normal;font-variant-position:normal;font-variant-caps:normal;font-variant-numeric:normal;font-variant-alternates:normal;font-feature-settings:normal;text-indent:0;text-align:start;text-decoration:none;text-decoration-line:none;text-decoration-style:solid;text-decoration-color:#000000;letter-spacing:normal;word-spacing:normal;text-transform:none;writing-mode:lr-tb;direction:ltr;text-orientation:mixed;dominant-baseline:auto;baseline-shift:baseline;text-anchor:start;white-space:normal;shape-padding:0;clip-rule:nonzero;display:inline;overflow:visible;visibility:visible;isolation:auto;mix-blend-mode:normal;color-interpolation:sRGB;color-interpolation-filters:linearRGB;solid-color:#000000;solid-opacity:1;fill:#1f1f26;fill-opacity:1;fill-rule:nonzero;stroke:none;stroke-width:2;stroke-linecap:round;stroke-linejoin:round;stroke-miterlimit:4;stroke-dasharray:none;stroke-dashoffset:0;stroke-opacity:1;color-rendering:auto;image-rendering:auto;shape-rendering:auto;text-rendering:auto;enable-background:accumulate"
         d="m 41,315.64999 c -0.35117,8e-4 -0.67732,0.18485 -0.85742,0.48633 l -2.9961,4.99804 c -0.19178,0.3178 -0.19178,0.71541 0,1.03321 l 2.9961,4.99804 c 0.1801,0.30148 0.50625,0.48553 0.85742,0.48633 h 6 c 0.35117,-8e-4 0.67732,-0.18485 0.85742,-0.48633 l 2.9961,-4.99804 c 0.19178,-0.3178 0.19178,-0.71541 0,-1.03321 l -2.9961,-4.99804 C 47.67732,315.83484 47.35117,315.65079 47,315.64999 Z m 3,3 c 1.662,0 3,1.338 3,3 0,1.662 -1.338,3 -3,3 -1.662,0 -3,-1.338 -3,-3 0,-1.662 1.338,-3 3,-3 z"
         id="path837-5-1" /><path
         inkscape:connector-curvature="0"
         style="color:#000000;font-style:normal;font-variant:normal;font-weight:normal;font-stretch:normal;font-size:medium;line-height:normal;font-family:sans-serif;font-variant-ligatures:normal;font-variant-position:normal;font-variant-caps:normal;font-variant-numeric:normal;font-variant-alternates:normal;font-feature-settings:normal;text-indent:0;text-align:start;text-decoration:none;text-decoration-line:none;text-decoration-style:solid;text-decoration-color:#000000;letter-spacing:normal;word-spacing:normal;text-transform:none;writing-mode:lr-tb;direction:ltr;text-orientation:mixed;dominant-baseline:auto;baseline-shift:baseline;text-anchor:start;white-space:normal;shape-padding:0;clip-rule:nonzero;display:inline;overflow:visible;visibility:visible;isolation:auto;mix-blend-mode:normal;color-interpolation:sRGB;color-interpolation-filters:linearRGB;solid-color:#000000;solid-opacity:1;fill:url(#linearGradient31835);fill-opacity:1;fill-rule:nonzero;stroke:none;stroke-width:2;stroke-linecap:round;stroke-linejoin:round;stroke-miterlimit:4;stroke-dasharray:none;stroke-dashoffset:0;stroke-opacity:1;color-rendering:auto;image-rendering:auto;shape-rendering:auto;text-rendering:auto;enable-background:accumulate"
         d="m 41,314.64999 c -0.35117,8e-4 -0.67732,0.18485 -0.85742,0.48633 l -2.9961,4.99804 c -0.19178,0.3178 -0.19178,0.71541 0,1.03321 l 2.9961,4.99804 c 0.1801,0.30148 0.50625,0.48553 0.85742,0.48633 h 6 c 0.35117,-8e-4 0.67732,-0.18485 0.85742,-0.48633 l 2.9961,-4.99804 c 0.19178,-0.3178 0.19178,-0.71541 0,-1.03321 l -2.9961,-4.99804 C 47.67732,314.83484 47.35117,314.65079 47,314.64999 Z m 3,3 c 1.662,0 3,1.338 3,3 0,1.662 -1.338,3 -3,3 -1.662,0 -3,-1.338 -3,-3 0,-1.662 1.338,-3 3,-3 z"
         id="path837-2" /></g></g></svg>
