<?xml version="1.0" encoding="UTF-8" standalone="no"?>
<!-- Created with Inkscape (http://www.inkscape.org/) -->

<svg
   width="32"
   height="32"
   viewBox="0 0 32 32"
   version="1.1"
   id="svg8"
   inkscape:version="1.2.2 (b0a8486541, 2022-12-01)"
   sodipodi:docname="steam.svg"
   xmlns:inkscape="http://www.inkscape.org/namespaces/inkscape"
   xmlns:sodipodi="http://sodipodi.sourceforge.net/DTD/sodipodi-0.dtd"
   xmlns:xlink="http://www.w3.org/1999/xlink"
   xmlns="http://www.w3.org/2000/svg"
   xmlns:svg="http://www.w3.org/2000/svg"
   xmlns:rdf="http://www.w3.org/1999/02/22-rdf-syntax-ns#"
   xmlns:cc="http://creativecommons.org/ns#"
   xmlns:dc="http://purl.org/dc/elements/1.1/">
  <title
     id="title7895">Antu icon Theme</title>
  <defs
     id="defs2">
    <style
       type="text/css"
       id="current-color-scheme">
      .ColorScheme-Text {
        color:#122036;
      }
      </style>
    <linearGradient
       id="linearGradient4565"
       inkscape:collect="always">
      <stop
         id="stop4561"
         offset="0"
         style="stop-color:#1955aa;stop-opacity:1;" />
      <stop
         id="stop4563"
         offset="1"
         style="stop-color:#3066b2;stop-opacity:1;" />
    </linearGradient>
    <linearGradient
       inkscape:collect="always"
       xlink:href="#linearGradient4565"
       id="linearGradient8622"
       gradientUnits="userSpaceOnUse"
       gradientTransform="matrix(3.7795275,0,0,3.7795275,5.392881,-812.36956)"
       x1="2.8064666"
       y1="297.66144"
       x2="2.8064666"
       y2="290.25311" />
  </defs>
  <sodipodi:namedview
     id="base"
     pagecolor="#ffffff"
     bordercolor="#666666"
     borderopacity="1.0"
     inkscape:pageopacity="0.0"
     inkscape:pageshadow="2"
     inkscape:zoom="15.839192"
     inkscape:cx="26.263966"
     inkscape:cy="27.274119"
     inkscape:document-units="px"
     inkscape:current-layer="layer1"
     showgrid="true"
     units="px"
     inkscape:window-width="2560"
     inkscape:window-height="1367"
     inkscape:window-x="0"
     inkscape:window-y="0"
     inkscape:window-maximized="1"
     objecttolerance="10"
     gridtolerance="10"
     guidetolerance="10"
     inkscape:showpageshadow="2"
     inkscape:pagecheckerboard="0"
     inkscape:deskcolor="#d1d1d1">
    <inkscape:grid
       type="xygrid"
       id="grid7897"
       empspacing="4" />
  </sodipodi:namedview>
  <metadata
     id="metadata5">
    <rdf:RDF>
      <cc:Work
         rdf:about="">
        <dc:format>image/svg+xml</dc:format>
        <dc:type
           rdf:resource="http://purl.org/dc/dcmitype/StillImage" />
        <dc:title>Antu icon Theme</dc:title>
      </cc:Work>
    </rdf:RDF>
  </metadata>
  <g
     inkscape:label="Capa 1"
     inkscape:groupmode="layer"
     id="layer1"
     transform="translate(0,-282.64999)">
    <path
       id="rect4570-9-6-0-5-3"
       d="m 16,283.64999 c 8.309999,0 14.999999,6.68993 14.999999,14.99997 0,8.31005 -6.69,15.00009 -14.999999,15.00009 -8.310001,0 -15.000001,-6.69004 -15.000001,-15.00009 0,-8.31004 6.69,-14.99997 15.000001,-14.99997 z"
       style="fill:#144488;fill-opacity:1;stroke:none;stroke-width:1.50236;stroke-linecap:round;stroke-linejoin:round;stroke-miterlimit:4;stroke-dasharray:none;stroke-opacity:1"
       inkscape:connector-curvature="0" />
    <path
       id="rect4570-9-6-0-5"
       d="m 16,284.64999 c 7.755999,0 13.999999,6.24393 13.999999,13.99997 0,7.75605 -6.244,14.00009 -13.999999,14.00009 -7.756001,0 -14.000001,-6.24404 -14.000001,-14.00009 0,-7.75604 6.244,-13.99997 14.000001,-13.99997 z"
       style="fill:url(#linearGradient8622);fill-opacity:1;stroke:none;stroke-width:1.4022;stroke-linecap:round;stroke-linejoin:round;stroke-miterlimit:4;stroke-dasharray:none;stroke-opacity:1"
       inkscape:connector-curvature="0" />
    <path
       id="rect4496-6"
       style="fill:#144488;fill-opacity:1;stroke:none;stroke-width:1.46966;stroke-linecap:round;stroke-linejoin:round;stroke-miterlimit:4;stroke-dasharray:none;stroke-opacity:1"
       d="m 21.5,291.14999 c -0.18242,0 -0.363258,0.008 -0.541016,0.0254 -0.177756,0.0172 -0.353092,0.0426 -0.52539,0.0762 -0.172298,0.0336 -0.341772,0.0758 -0.507813,0.125 -0.166041,0.0492 -0.32734,0.10595 -0.486328,0.16992 -0.158987,0.064 -0.31566,0.13493 -0.466797,0.2129 -0.151136,0.078 -0.296965,0.16274 -0.439453,0.2539 -0.142488,0.0912 -0.28102,0.18941 -0.414062,0.29297 -0.133044,0.10356 -0.261965,0.21296 -0.384766,0.32813 -0.122801,0.11515 -0.239801,0.23535 -0.351563,0.36132 -0.11176,0.12597 -0.216481,0.25661 -0.316406,0.39258 -0.09993,0.13597 -0.193958,0.2767 -0.28125,0.42188 -0.08729,0.14517 -0.168327,0.29563 -0.242187,0.44922 -0.07386,0.15357 -0.141539,0.31146 -0.201172,0.47265 -0.05963,0.1612 -0.111642,0.32614 -0.15625,0.49414 -0.04461,0.16801 -0.08059,0.33966 -0.109375,0.51367 -0.02879,0.17402 -0.05033,0.35007 -0.0625,0.5293 l -3.107422,4.88281 c -0.09752,0.002 -0.193468,0.008 -0.289062,0.0176 -0.0956,0.009 -0.191708,0.0214 -0.285157,0.0371 -0.09345,0.0157 -0.184311,0.0345 -0.27539,0.0566 -0.09108,0.0221 -0.181046,0.048 -0.269532,0.0762 -0.176971,0.0564 -0.348411,0.12388 -0.513671,0.20313 -0.16526,0.0793 -0.3248,0.16951 -0.476563,0.26953 l -6.9023438,-3.45117 c -0.2346361,-0.11769 -0.4901446,-0.18803 -0.7519531,-0.20703 -0.2623702,-0.0188 -0.5258633,0.0144 -0.7753906,0.0976 -0.1279948,0.0561 -0.2497538,0.12552 -0.3632813,0.20703 C 2.0030543,298.52258 2,298.5858 2,298.64999 c 0,1.19158 0.1481885,2.34618 0.4257812,3.44922 l 6.5878907,3.29297 c 0.00782,0.13135 0.020975,0.26109 0.041016,0.38867 0.020041,0.12758 0.046444,0.25374 0.078125,0.37695 0.031681,0.12321 0.06859,0.24308 0.1113281,0.36133 0.042738,0.11825 0.09132,0.23495 0.1445313,0.34766 0.053212,0.1127 0.1126795,0.22156 0.1757812,0.32812 0.063102,0.10656 0.1307165,0.21072 0.203125,0.31055 0.072409,0.0998 0.149337,0.1946 0.2304688,0.28711 0.081132,0.0925 0.1665871,0.18298 0.2558591,0.26758 0.08927,0.0846 0.182469,0.16414 0.279297,0.24023 0.09683,0.0761 0.19698,0.14785 0.300781,0.21484 0.103801,0.067 0.210123,0.12825 0.320313,0.18555 0.110191,0.0573 0.223847,0.11118 0.339844,0.1582 0.115997,0.047 0.234248,0.0888 0.355468,0.125 0.121219,0.0362 0.245236,0.0652 0.371094,0.0899 0.125859,0.0247 0.254852,0.044 0.384766,0.0566 0.129915,0.0126 0.261145,0.0195 0.394531,0.0195 0.12627,0 0.251802,-0.006 0.375,-0.0176 0.123199,-0.0113 0.243651,-0.0286 0.363281,-0.0508 0.119629,-0.0222 0.237954,-0.0495 0.353516,-0.082 0.115562,-0.0325 0.228848,-0.069 0.339844,-0.11133 0.110996,-0.0423 0.22024,-0.089 0.326171,-0.14062 0.105932,-0.0517 0.208223,-0.10943 0.308594,-0.16993 0.10037,-0.0605 0.198659,-0.12453 0.292969,-0.19335 0.09431,-0.0688 0.185686,-0.1421 0.273437,-0.21875 0.08775,-0.0767 0.171259,-0.15624 0.251954,-0.24024 0.08069,-0.084 0.157327,-0.17284 0.230468,-0.26367 0.07314,-0.0908 0.141944,-0.18409 0.207032,-0.28125 0.06509,-0.0972 0.127056,-0.19779 0.183593,-0.30078 0.05654,-0.103 0.108762,-0.20808 0.15625,-0.31641 0.04749,-0.10832 0.09097,-0.21887 0.128907,-0.33203 0.03794,-0.11316 0.06976,-0.23017 0.09766,-0.34766 0.0279,-0.11749 0.05101,-0.2361 0.06836,-0.35742 l 4.939453,-3.59179 c 0.178763,-0.0126 0.355751,-0.0333 0.529297,-0.0625 0.173546,-0.0292 0.344183,-0.0664 0.511719,-0.11133 0.167535,-0.0449 0.331458,-0.0983 0.492188,-0.15821 0.16073,-0.0598 0.317572,-0.12716 0.470703,-0.20117 0.153131,-0.074 0.302527,-0.15482 0.447265,-0.24219 0.144738,-0.0874 0.284371,-0.18131 0.419922,-0.28125 0.135551,-0.0999 0.267009,-0.20468 0.392578,-0.3164 0.12557,-0.11172 0.246534,-0.22886 0.361328,-0.35156 0.114794,-0.12271 0.222948,-0.25187 0.326172,-0.38477 0.103224,-0.1329 0.200156,-0.26981 0.291016,-0.41211 0.09086,-0.1423 0.176204,-0.29049 0.253906,-0.44141 0.0777,-0.15091 0.149141,-0.30611 0.212891,-0.46484 0.06375,-0.15873 0.118965,-0.32057 0.167969,-0.48633 0.049,-0.16576 0.09154,-0.33386 0.125,-0.50586 0.03346,-0.17199 0.05904,-0.34795 0.07617,-0.52539 C 26.991734,297.01164 27,296.83208 27,296.64999 c 0,-0.19044 -0.0086,-0.37911 -0.02734,-0.56445 -0.01871,-0.18535 -0.04747,-0.36754 -0.08398,-0.54688 -0.03651,-0.17934 -0.08136,-0.35491 -0.134766,-0.52734 -0.05341,-0.17243 -0.116152,-0.34125 -0.185547,-0.50586 -0.06939,-0.16461 -0.145994,-0.32458 -0.230468,-0.48047 -0.08447,-0.15589 -0.176745,-0.30882 -0.275391,-0.45508 -0.09865,-0.14625 -0.202544,-0.28616 -0.314453,-0.42187 -0.11191,-0.13572 -0.231203,-0.26636 -0.355469,-0.39063 -0.124266,-0.12426 -0.254911,-0.24356 -0.390625,-0.35547 -0.135714,-0.11191 -0.27562,-0.2158 -0.421875,-0.31445 -0.146255,-0.0987 -0.29919,-0.19092 -0.455078,-0.27539 -0.155888,-0.0845 -0.315856,-0.16107 -0.480469,-0.23047 -0.164613,-0.0694 -0.333429,-0.13214 -0.505859,-0.18555 -0.172431,-0.0534 -0.348004,-0.0983 -0.527344,-0.13476 -0.17934,-0.0365 -0.361533,-0.0653 -0.546875,-0.084 -0.185342,-0.0187 -0.374017,-0.0273 -0.564453,-0.0273 z m 0,2 c 0.121187,0 0.24143,0.006 0.359375,0.0176 0.117945,0.0119 0.233531,0.0295 0.347656,0.0527 0.114126,0.0232 0.226209,0.0519 0.335938,0.0859 0.109728,0.034 0.217512,0.073 0.322265,0.11719 0.104754,0.0442 0.20744,0.0947 0.306641,0.14844 0.0992,0.0538 0.194038,0.11105 0.287109,0.17382 0.09307,0.0628 0.183168,0.12996 0.269532,0.20118 0.08636,0.0712 0.168969,0.14748 0.248046,0.22656 0.07908,0.0791 0.155348,0.16168 0.226563,0.24804 0.07121,0.0864 0.138397,0.17646 0.201172,0.26954 0.06277,0.0931 0.120072,0.1879 0.173828,0.28711 0.05376,0.0992 0.104278,0.20188 0.148437,0.30664 0.04416,0.10475 0.0832,0.21253 0.117188,0.32226 0.03399,0.10973 0.0627,0.22181 0.08594,0.33594 0.02323,0.11412 0.04083,0.22971 0.05273,0.34766 0.01191,0.11798 0.01758,0.23818 0.01758,0.35937 0,0.12119 -0.0057,0.24143 -0.01758,0.35938 -0.01191,0.11793 -0.02951,0.23353 -0.05273,0.34765 -0.02323,0.11413 -0.05195,0.22621 -0.08594,0.33594 -0.03399,0.10973 -0.07303,0.21751 -0.117188,0.32226 -0.04416,0.10476 -0.09468,0.20744 -0.148437,0.30665 -0.05376,0.0992 -0.111054,0.19403 -0.173828,0.2871 -0.06277,0.0931 -0.129957,0.18317 -0.201172,0.26954 -0.07122,0.0864 -0.147484,0.16896 -0.226563,0.24804 -0.07908,0.0791 -0.161683,0.15535 -0.248046,0.22657 -0.08636,0.0712 -0.17646,0.13839 -0.269532,0.20117 -0.09307,0.0628 -0.187908,0.12007 -0.287109,0.17383 -0.0992,0.0538 -0.201887,0.10427 -0.306641,0.14843 -0.104753,0.0442 -0.212537,0.0832 -0.322265,0.11719 -0.109729,0.034 -0.221812,0.0627 -0.335938,0.0859 -0.114125,0.0232 -0.229711,0.0408 -0.347656,0.0527 -0.117945,0.0119 -0.238188,0.0176 -0.359375,0.0176 -0.121187,0 -0.24143,-0.006 -0.359375,-0.0176 -0.117945,-0.0119 -0.233531,-0.0295 -0.347656,-0.0527 -0.114126,-0.0232 -0.226209,-0.0519 -0.335938,-0.0859 -0.109728,-0.034 -0.217512,-0.073 -0.322265,-0.11719 -0.104754,-0.0442 -0.20744,-0.0947 -0.306641,-0.14843 -0.0992,-0.0538 -0.194038,-0.11106 -0.287109,-0.17383 -0.09307,-0.0628 -0.183168,-0.12997 -0.269532,-0.20117 -0.08636,-0.0712 -0.168968,-0.14749 -0.248046,-0.22657 -0.07908,-0.0791 -0.155348,-0.16168 -0.226563,-0.24804 -0.07122,-0.0864 -0.138397,-0.17646 -0.201172,-0.26954 -0.06278,-0.0931 -0.120072,-0.18791 -0.173828,-0.2871 -0.05376,-0.0992 -0.104277,-0.20189 -0.148437,-0.30665 -0.04416,-0.10475 -0.0832,-0.21253 -0.117188,-0.32226 -0.03399,-0.10973 -0.0627,-0.22181 -0.08594,-0.33594 -0.02323,-0.11412 -0.04083,-0.22972 -0.05273,-0.34765 C 18.00567,296.89142 18,296.77118 18,296.64999 c 0,-0.12119 0.0057,-0.24144 0.01758,-0.35937 0.01191,-0.11795 0.02951,-0.23354 0.05273,-0.34766 0.02323,-0.11413 0.05195,-0.22621 0.08594,-0.33594 0.03399,-0.10973 0.07303,-0.21751 0.117188,-0.32226 0.04416,-0.10476 0.09468,-0.20745 0.148437,-0.30664 0.05376,-0.0992 0.111054,-0.19404 0.173828,-0.28711 0.06277,-0.0931 0.129957,-0.18317 0.201172,-0.26954 0.07122,-0.0864 0.147485,-0.16896 0.226563,-0.24804 0.07908,-0.0791 0.161683,-0.15536 0.248046,-0.22656 0.08636,-0.0712 0.17646,-0.1384 0.269532,-0.20118 0.09307,-0.0628 0.187908,-0.12008 0.287109,-0.17382 0.0992,-0.0538 0.201887,-0.10428 0.306641,-0.14844 0.104753,-0.0442 0.212537,-0.0832 0.322265,-0.11719 0.109729,-0.034 0.221812,-0.0627 0.335938,-0.0859 0.114125,-0.0232 0.229711,-0.0408 0.347656,-0.0527 0.117945,-0.0119 0.238188,-0.0176 0.359375,-0.0176 z m 0,1 c -0.08656,0 -0.171613,0.005 -0.255859,0.0137 -0.08425,0.009 -0.168482,0.0205 -0.25,0.0371 -0.08152,0.0166 -0.159904,0.0362 -0.238282,0.0606 -0.07838,0.0243 -0.155644,0.0524 -0.230468,0.084 -0.07482,0.0315 -0.147892,0.0671 -0.21875,0.10547 -0.07086,0.0384 -0.140552,0.0802 -0.207032,0.125 -0.06648,0.0448 -0.129718,0.0937 -0.191406,0.14453 -0.06169,0.0509 -0.12125,0.10367 -0.177734,0.16016 -0.05648,0.0565 -0.109289,0.11604 -0.160157,0.17773 -0.05087,0.0617 -0.09969,0.12493 -0.144531,0.19141 -0.04484,0.0665 -0.0866,0.13617 -0.125,0.20703 -0.0384,0.0709 -0.07393,0.14393 -0.105469,0.21875 -0.03154,0.0748 -0.05971,0.15209 -0.08398,0.23047 -0.02428,0.0784 -0.04395,0.15676 -0.06055,0.23828 -0.0166,0.0815 -0.0286,0.16575 -0.03711,0.25 -0.0085,0.0842 -0.01367,0.1693 -0.01367,0.25586 0,0.0866 0.0052,0.17161 0.01367,0.25586 0.0085,0.0842 0.02051,0.16848 0.03711,0.25 0.0166,0.0815 0.03627,0.1599 0.06055,0.23828 0.02428,0.0784 0.05244,0.15565 0.08398,0.23047 0.03154,0.0748 0.06707,0.14789 0.105469,0.21875 0.0384,0.0709 0.08016,0.14055 0.125,0.20703 0.04484,0.0665 0.09366,0.12972 0.144531,0.19141 0.05087,0.0617 0.103673,0.12125 0.160157,0.17773 0.05648,0.0565 0.116045,0.10929 0.177734,0.16016 0.06169,0.0509 0.124926,0.0997 0.191406,0.14453 0.06648,0.0448 0.136174,0.0866 0.207032,0.125 0.07086,0.0384 0.143926,0.0739 0.21875,0.10547 0.07482,0.0315 0.15209,0.0597 0.230468,0.084 0.07838,0.0243 0.156764,0.0439 0.238282,0.0606 0.08152,0.0166 0.165753,0.0286 0.25,0.0371 0.08425,0.008 0.169296,0.0137 0.255859,0.0137 0.08656,0 0.171612,-0.005 0.255859,-0.0137 0.08425,-0.009 0.168481,-0.0205 0.25,-0.0371 0.08152,-0.0166 0.159904,-0.0363 0.238282,-0.0606 0.07838,-0.0243 0.155644,-0.0524 0.230468,-0.084 0.07482,-0.0315 0.147892,-0.0671 0.21875,-0.10547 0.07086,-0.0384 0.140553,-0.0802 0.207032,-0.125 0.06648,-0.0448 0.129718,-0.0937 0.191406,-0.14453 0.06169,-0.0509 0.121249,-0.10367 0.177734,-0.16016 0.05648,-0.0565 0.109289,-0.11604 0.160157,-0.17773 0.05087,-0.0617 0.09969,-0.12493 0.144531,-0.19141 0.04484,-0.0665 0.0866,-0.13617 0.125,-0.20703 0.0384,-0.0709 0.07393,-0.14393 0.105469,-0.21875 0.03154,-0.0748 0.05971,-0.15209 0.08398,-0.23047 0.02428,-0.0784 0.04395,-0.15676 0.06055,-0.23828 0.0166,-0.0815 0.02861,-0.16575 0.03711,-0.25 0.0085,-0.0842 0.01367,-0.1693 0.01367,-0.25586 0,-0.0866 -0.0052,-0.17161 -0.01367,-0.25586 -0.0085,-0.0842 -0.02051,-0.16848 -0.03711,-0.25 -0.0166,-0.0815 -0.03627,-0.1599 -0.06055,-0.23828 -0.02428,-0.0784 -0.05244,-0.15565 -0.08398,-0.23047 -0.03154,-0.0748 -0.06707,-0.14789 -0.105469,-0.21875 -0.0384,-0.0709 -0.08016,-0.14055 -0.125,-0.20703 -0.04484,-0.0665 -0.09366,-0.12972 -0.144531,-0.19141 -0.05087,-0.0617 -0.103673,-0.12125 -0.160157,-0.17773 -0.05648,-0.0565 -0.116045,-0.10929 -0.177734,-0.16016 -0.06169,-0.0509 -0.124926,-0.0997 -0.191406,-0.14453 -0.06648,-0.0448 -0.136174,-0.0866 -0.207032,-0.125 -0.07086,-0.0384 -0.143926,-0.0739 -0.21875,-0.10547 -0.07482,-0.0315 -0.15209,-0.0597 -0.230468,-0.084 -0.07838,-0.0243 -0.156764,-0.0439 -0.238282,-0.0606 -0.08152,-0.0166 -0.165753,-0.0286 -0.25,-0.0371 -0.08425,-0.008 -0.169296,-0.0137 -0.255859,-0.0137 z m -8.5,8 c 0.103874,0 0.205545,0.005 0.306641,0.0156 0.101095,0.0102 0.201008,0.025 0.298828,0.0449 0.09782,0.0199 0.195012,0.0451 0.289062,0.0742 0.09405,0.0291 0.185601,0.0617 0.275391,0.0996 0.08979,0.0378 0.176689,0.0808 0.261719,0.12695 0.08503,0.0461 0.168267,0.0966 0.248047,0.15039 0.07977,0.0538 0.156438,0.11087 0.230468,0.17187 0.07403,0.0611 0.145111,0.12556 0.212891,0.19336 0.06778,0.0678 0.132319,0.13889 0.193359,0.21289 0.06104,0.074 0.118065,0.15067 0.171875,0.23047 0.05381,0.0798 0.104311,0.16305 0.150391,0.24805 0.04607,0.085 0.0891,0.17192 0.126953,0.26172 0.03785,0.0898 0.07048,0.18129 0.09961,0.27539 0.02913,0.094 0.0543,0.19126 0.07422,0.28906 0.01991,0.0978 0.03471,0.19773 0.04492,0.29883 0.01023,0.1011 0.01563,0.20277 0.01563,0.30664 0,0.10387 -0.0054,0.20531 -0.01563,0.30664 -0.0102,0.1011 -0.025,0.20103 -0.04492,0.29883 -0.01992,0.0978 -0.04509,0.19506 -0.07422,0.28906 -0.02913,0.0941 -0.06176,0.18559 -0.09961,0.27539 -0.03785,0.0898 -0.08087,0.17672 -0.126953,0.26172 -0.04608,0.085 -0.09658,0.16825 -0.150391,0.24805 -0.05381,0.0798 -0.110835,0.15647 -0.171875,0.23047 -0.06104,0.074 -0.125579,0.14509 -0.193359,0.21289 -0.06778,0.0678 -0.138861,0.13226 -0.212891,0.19336 -0.07403,0.061 -0.150699,0.11807 -0.230468,0.17187 -0.07978,0.0538 -0.163017,0.10429 -0.248047,0.15039 -0.08503,0.0461 -0.171929,0.0891 -0.261719,0.12696 -0.08979,0.0378 -0.181341,0.0705 -0.275391,0.0996 -0.09405,0.0291 -0.191242,0.0543 -0.289062,0.0742 -0.09782,0.0199 -0.197733,0.0347 -0.298828,0.0449 -0.101096,0.0106 -0.202766,0.0156 -0.306641,0.0156 -0.08673,0 -0.173013,-0.005 -0.257812,-0.0117 -0.0848,-0.007 -0.167411,-0.0172 -0.25,-0.0312 -0.08259,-0.014 -0.164051,-0.0302 -0.244141,-0.0508 -0.08009,-0.0206 -0.159028,-0.0454 -0.236328,-0.0723 -0.0773,-0.0268 -0.154286,-0.0569 -0.228516,-0.0898 -0.07423,-0.0328 -0.145917,-0.0688 -0.216797,-0.10742 -0.141754,-0.0771 -0.27768,-0.16547 -0.404297,-0.26367 -0.126617,-0.0982 -0.244319,-0.20529 -0.353515,-0.32227 -0.109196,-0.11698 -0.209338,-0.24352 -0.298828,-0.37695 -0.08949,-0.13344 -0.168829,-0.2743 -0.236328,-0.42188 -0.03375,-0.0738 -0.06398,-0.14966 -0.0918,-0.22656 -0.02782,-0.0769 -0.05261,-0.15467 -0.07422,-0.23437 l 1.925781,0.96289 c 0.0038,0.002 0.0079,0.004 0.01172,0.006 l 0.06055,0.0293 c 0.09109,0.0454 0.186596,0.0836 0.285156,0.11524 0.09856,0.0316 0.200193,0.0564 0.304687,0.0723 0.0046,6.7e-4 0.0091,0.001 0.01367,0.002 0.09518,0.0135 0.191896,0.0215 0.291016,0.0215 0.11135,0 0.219871,-0.01 0.326172,-0.0273 h 0.002 0.002 c 0.105118,-0.0174 0.207771,-0.043 0.306641,-0.0762 0.09887,-0.0332 0.193956,-0.0739 0.285156,-0.12109 0.0937,-0.0486 0.183358,-0.10402 0.267578,-0.16601 0.08422,-0.062 0.163018,-0.13068 0.236328,-0.20508 0.07335,-0.0745 0.140482,-0.15504 0.201172,-0.24024 0.06069,-0.0852 0.11495,-0.17493 0.162109,-0.26953 0.03316,-0.0665 0.06412,-0.13458 0.08984,-0.20508 0.0255,-0.0699 0.04675,-0.14144 0.06445,-0.21484 0.01594,-0.066 0.02791,-0.13463 0.03711,-0.20313 8e-4,-0.006 0.0032,-0.0116 0.0039,-0.0176 v -0.002 -0.002 -0.002 -0.002 -0.002 -0.002 c 0.0079,-0.0663 0.01422,-0.13307 0.01563,-0.20117 7.8e-5,-0.004 -5.6e-5,-0.008 0,-0.0117 v -0.002 -0.002 -0.002 -0.002 -0.002 c 6.2e-5,-0.007 0,-0.0125 0,-0.0195 0,-0.0659 -0.0036,-0.13181 -0.0098,-0.19531 -0.0068,-0.0707 -0.01734,-0.14069 -0.03125,-0.20899 v -0.002 c -7e-4,-0.003 -0.0013,-0.006 -0.002,-0.01 -0.0013,-0.005 -0.0026,-0.0104 -0.0039,-0.0156 -0.01423,-0.0652 -0.03235,-0.12881 -0.05273,-0.19141 -0.001,-0.003 -8.54e-4,-0.007 -0.002,-0.01 -0.0013,-0.003 -0.0026,-0.007 -0.0039,-0.01 -0.02298,-0.0682 -0.05019,-0.13462 -0.08008,-0.19922 -0.0317,-0.0685 -0.06671,-0.13542 -0.105469,-0.19922 -0.03876,-0.0638 -0.08126,-0.12459 -0.126953,-0.18359 -0.06857,-0.0885 -0.144202,-0.17215 -0.226562,-0.24805 -0.08236,-0.0759 -0.171425,-0.14387 -0.265625,-0.20507 -0.06299,-0.0409 -0.127653,-0.0776 -0.195313,-0.11133 l -0.04687,-0.0234 -1.953125,-0.97656 c 0.08552,-0.0336 0.172609,-0.0639 0.261719,-0.0899 0.08911,-0.026 0.181078,-0.0485 0.273438,-0.0664 0.09236,-0.0179 0.186,-0.032 0.28125,-0.041 0.09525,-0.01 0.191272,-0.0137 0.289062,-0.0137 z"
       sodipodi:nodetypes="scsscccscsssccsscccsssccccccsccsssssccsccscsssscssccsccsccssssccccccccscsssssssscsssscccsccsccssscssccccccccssccscssscccccccccssscsscccscccsssccscsssscccsccccsssscssccsccccccsscscsccccccccscsccscssccsccscccsssscsccccccccscsccsscssccccccccscccscsccccccccccsscscssccccscssccccsccscccccccccscccccccccsccccccsccccccccccscccccsscs" />
    <path
       id="path8713"
       style="fill:#d8effc;fill-opacity:1;stroke:none;stroke-width:2;stroke-linecap:round;stroke-linejoin:round"
       d="M 2.0175781 297.95077 C 2.0062914 298.1824 2 298.41547 2 298.64999 C 2 298.89237 2.0055272 299.13337 2.0175781 299.37265 C 2.029629 299.61193 2.0484527 299.84964 2.0722656 300.08554 C 2.0960786 300.32143 2.12487 300.55449 2.1601562 300.78671 C 2.1954425 301.01893 2.2367325 301.24986 2.2832031 301.47812 C 2.287096 301.49724 2.2929047 301.51566 2.296875 301.53476 L 9.0136719 304.89218 C 9.1387407 306.99389 10.86581 308.64999 13 308.64999 C 15.020317 308.64999 16.679415 307.16732 16.957031 305.22616 L 21.896484 301.63437 C 24.756691 301.43215 27 299.06342 27 296.14999 C 27 293.10299 24.546981 290.64999 21.5 290.64999 C 18.581278 290.64999 16.208335 292.90145 16.013672 295.76913 L 12.90625 300.65194 C 12.126111 300.66974 11.403925 300.91202 10.796875 301.3121 L 3.8945312 297.86093 A 2 2 0 0 0 2.3671875 297.75155 A 2 2 0 0 0 2.0175781 297.95077 z M 21.5 292.64999 C 23.43899 292.64999 25 294.21099 25 296.14999 C 25 298.08899 23.43899 299.64999 21.5 299.64999 C 19.56101 299.64999 18 298.08899 18 296.14999 C 18 294.21099 19.56101 292.64999 21.5 292.64999 z M 21.5 293.64999 C 20.115002 293.64999 19 294.76499 19 296.14999 C 19 297.53499 20.115002 298.64999 21.5 298.64999 C 22.884998 298.64999 24 297.53499 24 296.14999 C 24 294.76499 22.884998 293.64999 21.5 293.64999 z M 13 301.64999 C 14.66199 301.64999 16 302.98799 16 304.64999 C 16 306.31199 14.66199 307.64999 13 307.64999 C 11.612366 307.64999 10.453177 306.71623 10.107422 305.44101 L 12.033203 306.4039 C 12.037003 306.4059 12.041102 306.40776 12.044922 306.40976 L 12.105469 306.43905 C 12.287647 306.52985 12.486321 306.59479 12.695312 306.62655 A 2 2 0 0 0 12.708984 306.62851 C 12.804164 306.64231 12.900881 306.64999 13 306.64999 C 13.11135 306.64999 13.219871 306.63995 13.326172 306.62265 L 13.328125 306.62265 A 2 2 0 0 0 13.330078 306.62265 C 13.540314 306.58795 13.739483 306.51988 13.921875 306.42538 C 14.109282 306.32828 14.279153 306.20314 14.425781 306.05429 C 14.572485 305.90535 14.694733 305.73371 14.789062 305.54452 C 14.822222 305.47802 14.853186 305.40996 14.878906 305.33944 C 14.904406 305.26954 14.925659 305.19795 14.943359 305.1246 C 14.959299 305.0586 14.971229 304.98994 14.980469 304.92147 C 14.981272 304.91547 14.983675 304.9099 14.984375 304.9039 A 2 2 0 0 0 14.984375 304.90194 A 2 2 0 0 0 14.984375 304.89999 A 2 2 0 0 0 14.984375 304.89804 A 2 2 0 0 0 14.984375 304.89608 A 2 2 0 0 0 14.984375 304.89413 A 2 2 0 0 0 14.984375 304.89218 C 14.992275 304.82588 14.99864 304.75914 15 304.69101 C 15.000078 304.68701 14.999944 304.68299 15 304.67929 A 2 2 0 0 0 15 304.67733 A 2 2 0 0 0 15 304.67538 A 2 2 0 0 0 15 304.67343 A 2 2 0 0 0 15 304.67147 A 2 2 0 0 0 15 304.66952 C 15.000062 304.66252 15 304.65649 15 304.64999 C 15 304.58409 14.996434 304.51895 14.990234 304.45468 C 14.983434 304.38398 14.972894 304.31402 14.958984 304.24569 A 2 2 0 0 0 14.958984 304.24374 C 14.958307 304.24074 14.957731 304.23797 14.957031 304.23397 A 2 2 0 0 0 14.953125 304.21835 C 14.938895 304.15315 14.920771 304.08952 14.900391 304.02694 C 14.899391 304.02394 14.899512 304.02018 14.898438 304.01718 A 2 2 0 0 0 14.894531 304.00741 C 14.871551 303.93921 14.844343 303.87283 14.814453 303.80819 C 14.751063 303.67113 14.673405 303.54338 14.582031 303.42538 C 14.444894 303.24829 14.278235 303.09461 14.089844 302.97226 C 14.026854 302.93136 13.962192 302.89466 13.894531 302.86093 L 13.847656 302.83749 L 11.894531 301.86093 C 12.236607 301.72684 12.608827 301.64999 13 301.64999 z " />
    <g
       id="path7911">
      <path
         style="color:#000000;fill:#144488;fill-opacity:0.410714;stroke-width:4;stroke-linecap:round;stroke-linejoin:round;-inkscape-stroke:none"
         d="m 39,305.64999 10,5"
         id="path8036" />
    </g>
  </g>
</svg>
