<?xml version="1.0" encoding="UTF-8" standalone="no"?>
<!-- Created with Inkscape (http://www.inkscape.org/) -->

<svg
   width="32"
   height="32"
   viewBox="0 0 32 32"
   version="1.1"
   id="svg8"
   inkscape:version="1.2.2 (b0a8486541, 2022-12-01)"
   sodipodi:docname="thunderbird.svg"
   xml:space="preserve"
   xmlns:inkscape="http://www.inkscape.org/namespaces/inkscape"
   xmlns:sodipodi="http://sodipodi.sourceforge.net/DTD/sodipodi-0.dtd"
   xmlns:xlink="http://www.w3.org/1999/xlink"
   xmlns="http://www.w3.org/2000/svg"
   xmlns:svg="http://www.w3.org/2000/svg"
   xmlns:rdf="http://www.w3.org/1999/02/22-rdf-syntax-ns#"
   xmlns:cc="http://creativecommons.org/ns#"
   xmlns:dc="http://purl.org/dc/elements/1.1/"><title
     id="title7895">Antu icon Theme</title><defs
     id="defs2"><linearGradient
       inkscape:collect="always"
       id="linearGradient70924"><stop
         style="stop-color:#0d55a5;stop-opacity:1;"
         offset="0"
         id="stop70920" /><stop
         style="stop-color:#4a5599;stop-opacity:1;"
         offset="1"
         id="stop70922" /></linearGradient><linearGradient
       inkscape:collect="always"
       id="linearGradient70433"><stop
         style="stop-color:#174b96;stop-opacity:1;"
         offset="0"
         id="stop70429" /><stop
         style="stop-color:#4a5599;stop-opacity:1;"
         offset="1"
         id="stop70431" /></linearGradient><linearGradient
       inkscape:collect="always"
       id="linearGradient70425"><stop
         style="stop-color:#0d55a5;stop-opacity:1;"
         offset="0"
         id="stop70421" /><stop
         style="stop-color:#4a5599;stop-opacity:1;"
         offset="1"
         id="stop70423" /></linearGradient><linearGradient
       inkscape:collect="always"
       id="linearGradient64412"><stop
         style="stop-color:#0f72d6;stop-opacity:1;"
         offset="0"
         id="stop64408" /><stop
         style="stop-color:#6673be;stop-opacity:1;"
         offset="1"
         id="stop64410" /></linearGradient><linearGradient
       inkscape:collect="always"
       id="linearGradient63921"><stop
         style="stop-color:#1581e4;stop-opacity:1;"
         offset="0"
         id="stop63917" /><stop
         style="stop-color:#5664b3;stop-opacity:1;"
         offset="1"
         id="stop63919" /></linearGradient><linearGradient
       inkscape:collect="always"
       id="linearGradient62809"><stop
         style="stop-color:#0e6fd2;stop-opacity:1;"
         offset="0"
         id="stop62805" /><stop
         style="stop-color:#7986cb;stop-opacity:1;"
         offset="1"
         id="stop62807" /></linearGradient><linearGradient
       inkscape:collect="always"
       id="linearGradient61766"><stop
         style="stop-color:#e4e4e4;stop-opacity:1;"
         offset="0"
         id="stop61762" /><stop
         style="stop-color:#fbfbfb;stop-opacity:1;"
         offset="1"
         id="stop61764" /></linearGradient><style
       id="current-color-scheme"
       type="text/css">
      .ColorScheme-Text {
        color:#122036;
      }
      </style><style
       type="text/css"
       id="current-color-scheme-23">
      .ColorScheme-Text {
        color:#122036;
      }
      </style><style
       id="current-color-scheme-5"
       type="text/css">
      .ColorScheme-Text {
        color:#122036;
      }
      </style><style
       id="current-color-scheme-2"
       type="text/css">
      .ColorScheme-Text {
        color:#122036;
      }
      </style><style
       id="current-color-scheme-1"
       type="text/css">
      .ColorScheme-Text {
        color:#122036;
      }
      </style><style
       type="text/css"
       id="current-color-scheme-10">
      .ColorScheme-Text {
        color:#122036;
      }
      </style><style
       id="current-color-scheme-0"
       type="text/css">
      .ColorScheme-Text {
        color:#122036;
      }
      </style><style
       id="current-color-scheme-26"
       type="text/css">
      .ColorScheme-Text {
        color:#122036;
      }
      </style><style
       type="text/css"
       id="current-color-scheme-9">
      .ColorScheme-Text {
        color:#122036;
      }
      </style><linearGradient
       inkscape:collect="always"
       xlink:href="#linearGradient61766"
       id="linearGradient61768"
       x1="-43.999996"
       y1="306.64999"
       x2="-43.999996"
       y2="300.64999"
       gradientUnits="userSpaceOnUse" /><linearGradient
       inkscape:collect="always"
       xlink:href="#linearGradient62809"
       id="linearGradient62811"
       x1="-35.999996"
       y1="311.64999"
       x2="-35.999996"
       y2="293.64999"
       gradientUnits="userSpaceOnUse" /><linearGradient
       inkscape:collect="always"
       xlink:href="#linearGradient63921"
       id="linearGradient63923"
       x1="-53.999996"
       y1="304.64999"
       x2="-52.999996"
       y2="290.64999"
       gradientUnits="userSpaceOnUse" /><linearGradient
       inkscape:collect="always"
       xlink:href="#linearGradient64412"
       id="linearGradient64414"
       x1="-55.999996"
       y1="319.64999"
       x2="-55.999996"
       y2="298.64999"
       gradientUnits="userSpaceOnUse" /><linearGradient
       inkscape:collect="always"
       xlink:href="#linearGradient70425"
       id="linearGradient70427"
       x1="-41.999996"
       y1="318.64999"
       x2="-39.999996"
       y2="291.64999"
       gradientUnits="userSpaceOnUse" /><linearGradient
       inkscape:collect="always"
       xlink:href="#linearGradient70433"
       id="linearGradient70435"
       x1="-50.999996"
       y1="300.64999"
       x2="-49.999996"
       y2="290.64999"
       gradientUnits="userSpaceOnUse" /><linearGradient
       inkscape:collect="always"
       xlink:href="#linearGradient70924"
       id="linearGradient70926"
       x1="-56.999996"
       y1="313.64999"
       x2="-57.999996"
       y2="294.64999"
       gradientUnits="userSpaceOnUse" /></defs><sodipodi:namedview
     id="base"
     pagecolor="#ffffff"
     bordercolor="#666666"
     borderopacity="1.0"
     inkscape:pageopacity="0.0"
     inkscape:pageshadow="2"
     inkscape:zoom="15.839192"
     inkscape:cx="43.184021"
     inkscape:cy="19.571705"
     inkscape:document-units="px"
     inkscape:current-layer="g3090"
     showgrid="true"
     units="px"
     inkscape:window-width="2560"
     inkscape:window-height="1369"
     inkscape:window-x="0"
     inkscape:window-y="0"
     inkscape:window-maximized="1"
     objecttolerance="10"
     gridtolerance="10"
     guidetolerance="10"
     inkscape:snap-bbox="true"
     inkscape:bbox-paths="true"
     inkscape:bbox-nodes="true"
     inkscape:snap-bbox-edge-midpoints="true"
     inkscape:snap-bbox-midpoints="true"
     inkscape:object-paths="true"
     inkscape:snap-intersection-paths="true"
     inkscape:showpageshadow="2"
     inkscape:pagecheckerboard="0"
     inkscape:deskcolor="#d1d1d1"><inkscape:grid
       type="xygrid"
       id="grid7897"
       empspacing="4" /></sodipodi:namedview><metadata
     id="metadata5"><rdf:RDF><cc:Work
         rdf:about=""><dc:format>image/svg+xml</dc:format><dc:type
           rdf:resource="http://purl.org/dc/dcmitype/StillImage" /><dc:title>Antu icon Theme</dc:title></cc:Work></rdf:RDF></metadata><g
     inkscape:label="Capa 1"
     inkscape:groupmode="layer"
     id="layer1"
     transform="translate(0,-282.64999)"><g
       id="g3090"
       transform="translate(59.999996,-5.00001)"><path
         style="color:#000000;fill:#679fea;fill-opacity:1;stroke:url(#linearGradient70435);stroke-width:1.99464;stroke-linecap:round;stroke-linejoin:round;stroke-dasharray:none;stroke-opacity:1;paint-order:stroke fill markers"
         d="m -47.999994,289.64724 c -0.597643,7.95566 -8.599171,5.96675 -9.085848,16.64422 l 6.630125,5.67382 7.489188,-7.64414 c 0.03364,-5.08181 1.260407,-10.42077 -5.033465,-14.6739 z"
         id="path18410-6" /><path
         style="color:#000000;fill:url(#linearGradient63923);fill-opacity:1;stroke:none;stroke-width:1.99464;stroke-linecap:round;stroke-linejoin:round;stroke-dasharray:none;stroke-opacity:1;paint-order:stroke fill markers"
         d="m -47.999996,289.65 c -0.597642,7.95566 -8.599171,5.96675 -9.085848,16.64422 l 6.630125,5.67382 7.489188,-7.64414 c 0.03364,-5.08181 1.260407,-10.42077 -5.033465,-14.6739 z"
         id="path18410-6-8" /><path
         id="circle15091-1-7-5-1"
         style="fill:#7f9099;fill-opacity:1;stroke-width:1.28572"
         d="m -52.999988,304.49837 a 9.0000002,9.0000002 0 0 0 8.999996,8.99999 9.0000002,9.0000002 0 0 0 9.000004,-8.99999 9.0000002,9.0000002 0 0 0 -9.000004,-9.00001 9.0000002,9.0000002 0 0 0 -8.999996,9.00001 z" /><path
         id="path52559-4"
         style="fill:url(#linearGradient61768);fill-opacity:1;stroke-width:1.14286"
         d="M -43.999996 296.49766 A 7.9999989 7.9999989 0 0 0 -50.99023 300.61484 L -49.400387 301.49766 L -43.999996 304.49766 L -38.599605 301.49766 L -37.007809 300.61289 A 7.9999989 7.9999989 0 0 0 -43.999996 296.49766 z M -51.417965 301.51328 A 7.9999989 7.9999989 0 0 0 -51.999996 304.49766 A 7.9999989 7.9999989 0 0 0 -43.999996 312.49766 A 7.9999989 7.9999989 0 0 0 -35.999996 304.49766 A 7.9999989 7.9999989 0 0 0 -36.576168 301.51719 L -38.109371 302.3707 L -43.999996 305.64023 L -49.882809 302.3707 L -51.417965 301.51328 z " /><path
         style="color:#000000;fill:#679fea;fill-opacity:1;stroke:url(#linearGradient70926);stroke-width:1.99464;stroke-linecap:round;stroke-linejoin:round;stroke-dasharray:none;stroke-opacity:1;paint-order:stroke fill markers"
         d="m -30.034418,303.93635 c 5.33e-4,0.008 0.0014,0.0169 0.002,0.0252 0.02343,0.27479 0.03515,0.5796 0.03515,0.92648 0,7.5993 -6.269221,13.75924 -14.00268,13.75924 -7.733456,0 -14.002681,-6.15994 -14.002681,-13.75924 0,-3.53799 1.359627,-6.76485 3.592486,-9.20262 -0.04979,-0.002 0.208558,-0.19887 0.341847,-0.14955 -0.653878,1.07761 -1.113761,2.2847 -1.330331,3.57383 0.0027,-0.005 0.0053,-0.0105 0.0079,-0.0154 -0.05837,0.34399 -0.10252,0.69277 -0.126977,1.0469 -0.0053,0.0755 -0.0083,0.15128 -0.01172,0.22725 -1.66e-4,0.004 1.59e-4,0.008 0,0.0116 -0.0018,0.0412 -0.0045,0.083 -0.0057,0.12429 -0.0029,0.0996 -0.0038,0.19883 -0.0038,0.29911 0,0.12509 0.0049,0.24991 0.0079,0.37488 0.198652,5.45333 4.718396,9.51338 10.265635,9.51338 3.644124,0.17587 6.385063,-1.49955 7.132225,-3.66706 0.134238,-0.14775 8.135769,-3.13111 8.098659,-3.08831 z"
         id="path18417-0"
         sodipodi:nodetypes="ccssscccccsccscccc" /><path
         style="color:#000000;fill:url(#linearGradient64414);fill-opacity:1;stroke:none;stroke-width:1.99464;stroke-linecap:round;stroke-linejoin:round;stroke-dasharray:none;stroke-opacity:1;paint-order:stroke fill markers"
         d="m -30.034466,303.93908 c 5.33e-4,0.008 0.0014,0.0169 0.002,0.0252 0.02343,0.27479 0.03515,0.5796 0.03515,0.92648 0,7.5993 -6.269221,13.75924 -14.00268,13.75924 -7.733502,-3e-5 -14.002727,-6.15997 -14.002727,-13.75927 0,-3.53799 1.359627,-6.76485 3.592486,-9.20262 -0.04979,-0.002 0.208558,-0.19887 0.341847,-0.14955 -0.653878,1.07761 -1.113761,2.2847 -1.330331,3.57383 0.0027,-0.005 0.0053,-0.0105 0.0079,-0.0154 -0.05837,0.34399 -0.10252,0.69277 -0.126977,1.0469 -0.0053,0.0755 -0.0083,0.15128 -0.01172,0.22725 -1.66e-4,0.004 1.59e-4,0.008 0,0.0116 -0.0018,0.0412 -0.0045,0.083 -0.0057,0.12429 -0.0029,0.0996 -0.0038,0.19883 -0.0038,0.29911 0,0.12509 0.0049,0.24991 0.0079,0.37488 0.198652,5.45333 4.718396,9.51338 10.265635,9.51338 3.644124,0.17587 6.385063,-1.49955 7.132226,-3.66706 0.134237,-0.14775 8.135768,-3.13111 8.098658,-3.08831 z"
         id="path18417-0-9"
         sodipodi:nodetypes="ccssscccccsccscccc" /><path
         id="path15987"
         style="fill:#679fea;fill-opacity:1;stroke:url(#linearGradient70427);stroke-width:1.99464;stroke-linecap:round;stroke-linejoin:round;stroke-dasharray:none;stroke-opacity:1;paint-order:stroke fill markers;stop-color:#000000"
         inkscape:transform-center-x="-6.0119913"
         inkscape:transform-center-y="7.1392397"
         d="m -37.364102,292.6446 c -2.198136,-0.005 -4.416683,0.5279 -6.073427,1.9928 -0.605139,0.53507 -1.136362,1.19322 -1.562801,1.99668 -1.871099,1.23123 -2.524682,2.44307 -2.137127,3.63793 a 6.0011481,5.9667435 0 0 1 0.05667,-0.0563 6.0011481,5.9667435 0 0 1 0.339919,-0.29134 6.0011481,5.9667435 0 0 1 0.359425,-0.26416 6.0011481,5.9667435 0 0 1 0.380933,-0.23695 6.0011481,5.9667435 0 0 1 0.396559,-0.20977 6.0011481,5.9667435 0 0 1 0.412187,-0.17869 6.0011481,5.9667435 0 0 1 0.42391,-0.14762 6.0011481,5.9667435 0 0 1 0.431724,-0.11459 6.0011481,5.9667435 0 0 1 0.441491,-0.0835 6.0011481,5.9667435 0 0 1 0.445397,-0.0486 6.0011481,5.9667435 0 0 1 0.449306,-0.0175 6.0011481,5.9667435 0 0 1 0.15431,0.002 6.0011481,5.9667435 0 0 1 0.154311,0.006 6.0011481,5.9667435 0 0 1 0.15431,0.01 6.0011481,5.9667435 0 0 1 0.154311,0.0136 6.0011481,5.9667435 0 0 1 0.152383,0.0175 6.0011481,5.9667435 0 0 1 0.154348,0.0233 6.0011481,5.9667435 0 0 1 0.152383,0.0252 6.0011481,5.9667435 0 0 1 0.150418,0.0291 6.0011481,5.9667435 0 0 1 0.152383,0.033 6.0011481,5.9667435 0 0 1 0.148448,0.0369 6.0011481,5.9667435 0 0 1 0.150418,0.0408 6.0011481,5.9667435 0 0 1 0.146521,0.0466 6.0011481,5.9667435 0 0 1 0.146521,0.0486 6.0011481,5.9667435 0 0 1 0.146521,0.0505 6.0011481,5.9667435 0 0 1 0.14259,0.0563 6.0011481,5.9667435 0 0 1 0.14259,0.0602 6.0011481,5.9667435 0 0 1 0.140663,0.0641 6.0011481,5.9667435 0 0 1 0.138697,0.066 6.0011481,5.9667435 0 0 1 0.138698,0.0699 6.0011481,5.9667435 0 0 1 0.134804,0.0738 6.0011481,5.9667435 0 0 1 0.132839,0.0777 6.0011481,5.9667435 0 0 1 0.132839,0.0816 6.0011481,5.9667435 0 0 1 0.128946,0.0835 6.0011481,5.9667435 0 0 1 0.126977,0.0874 6.0011481,5.9667435 0 0 1 0.125012,0.0913 6.0011481,5.9667435 0 0 1 0.123084,0.0932 6.0011481,5.9667435 0 0 1 0.119153,0.0971 6.0011481,5.9667435 0 0 1 0.117226,0.101 6.0011481,5.9667435 0 0 1 0.115261,0.10294 6.0011481,5.9667435 0 0 1 0.111367,0.10488 6.0011481,5.9667435 0 0 1 0.109399,0.10877 6.0011481,5.9667435 0 0 1 0.105467,0.11071 6.0011481,5.9667435 0 0 1 0.10354,0.11459 6.0011481,5.9667435 0 0 1 0.101575,0.11654 6.0011481,5.9667435 0 0 1 0.09768,0.11848 6.0011481,5.9667435 0 0 1 0.09379,0.12237 6.0011481,5.9667435 0 0 1 0.09182,0.1243 6.0011481,5.9667435 0 0 1 0.08789,0.12626 6.0011481,5.9667435 0 0 1 0.084,0.12819 6.0011481,5.9667435 0 0 1 0.08203,0.13207 6.0011481,5.9667435 0 0 1 0.07814,0.13208 6.0011481,5.9667435 0 0 1 0.07424,0.13403 6.0011481,5.9667435 0 0 1 0.07031,0.1379 6.0011481,5.9667435 0 0 1 0.06642,0.1379 6.0011481,5.9667435 0 0 1 0.06445,0.13986 6.0011481,5.9667435 0 0 1 0.06056,0.14178 6.0011481,5.9667435 0 0 1 0.05667,0.14177 6.0011481,5.9667435 0 0 1 0.05081,0.14568 6.0011481,5.9667435 0 0 1 0.04884,0.14568 6.0011481,5.9667435 0 0 1 0.04687,0.14568 6.0011481,5.9667435 0 0 1 0.04102,0.14956 6.0011481,5.9667435 0 0 1 0.03704,0.1476 6.0011481,5.9667435 0 0 1 0.03326,0.15151 6.0011481,5.9667435 0 0 1 0.02948,0.14955 6.0011481,5.9667435 0 0 1 0.02532,0.15151 6.0011481,5.9667435 0 0 1 0.02343,0.15342 6.0011481,5.9667435 0 0 1 0.01776,0.15151 6.0011481,5.9667435 0 0 1 0.01361,0.15343 6.0011481,5.9667435 0 0 1 0.0098,0.15343 6.0011481,5.9667435 0 0 1 0.0057,0.15342 6.0011481,5.9667435 0 0 1 0,0.002 6.0011481,5.9667435 0 0 1 0,0.002 6.0011481,5.9667435 0 0 1 0,0.002 6.0011481,5.9667435 0 0 1 0,0.002 6.0011481,5.9667435 0 0 1 0,0.002 6.0011481,5.9667435 0 0 1 0,0.002 6.0011481,5.9667435 0 0 1 0,0.002 6.0011481,5.9667435 0 0 1 0,0.002 6.0011481,5.9667435 0 0 1 0,0.002 6.0011481,5.9667435 0 0 1 0,0.002 6.0011481,5.9667435 0 0 1 0,0.002 6.0011481,5.9667435 0 0 1 0,0.002 6.0011481,5.9667435 0 0 1 0,0.002 6.0011481,5.9667435 0 0 1 0,0.002 6.0011481,5.9667435 0 0 1 0,0.002 6.0011481,5.9667435 0 0 1 0,0.002 6.0011481,5.9667435 0 0 1 0,0.002 6.0011481,5.9667435 0 0 1 0,0.002 6.0011481,5.9667435 0 0 1 0,0.002 6.0011481,5.9667435 0 0 1 0,0.002 6.0011481,5.9667435 0 0 1 0,0.002 6.0011481,5.9667435 0 0 1 0,0.002 6.0011481,5.9667435 0 0 1 0,0.002 6.0011481,5.9667435 0 0 1 0.002,0.004 6.0011481,5.9667435 0 0 1 0,0.002 6.0011481,5.9667435 0 0 1 0,0.002 6.0011481,5.9667435 0 0 1 0,0.002 6.0011481,5.9667435 0 0 1 0,0.002 6.0011481,5.9667435 0 0 1 0,0.002 6.0011481,5.9667435 0 0 1 0,0.002 6.0011481,5.9667435 0 0 1 0,0.002 6.0011481,5.9667435 0 0 1 0,0.002 6.0011481,5.9667435 0 0 1 0,0.002 6.0011481,5.9667435 0 0 1 0,0.002 6.0011481,5.9667435 0 0 1 0,0.002 6.0011481,5.9667435 0 0 1 0,0.002 6.0011481,5.9667435 0 0 1 0,0.002 6.0011481,5.9667435 0 0 1 0,0.002 6.0011481,5.9667435 0 0 1 0,0.002 6.0011481,5.9667435 0 0 1 0,0.002 6.0011481,5.9667435 0 0 1 0,0.002 6.0011481,5.9667435 0 0 1 0,0.002 6.0011481,5.9667435 0 0 1 0,0.002 6.0011481,5.9667435 0 0 1 0,0.002 6.0011481,5.9667435 0 0 1 0,0.002 6.0011481,5.9667435 0 0 1 0,0.002 6.0011481,5.9667435 0 0 1 0,0.002 6.0011481,5.9667435 0 0 1 0,0.002 6.0011481,5.9667435 0 0 1 0,0.002 6.0011481,5.9667435 0 0 1 0,0.002 6.0011481,5.9667435 0 0 1 0,0.002 6.0011481,5.9667435 0 0 1 0,0.002 6.0011481,5.9667435 0 0 1 0,0.002 6.0011481,5.9667435 0 0 1 0,0.002 6.0011481,5.9667435 0 0 1 0,0.002 6.0011481,5.9667435 0 0 1 0,0.002 6.0011481,5.9667435 0 0 1 0,0.002 6.0011481,5.9667435 0 0 1 0,0.002 6.0011481,5.9667435 0 0 1 0,0.002 6.0011481,5.9667435 0 0 1 0,0.002 6.0011481,5.9667435 0 0 1 0,0.002 6.0011481,5.9667435 0 0 1 0,0.002 6.0011481,5.9667435 0 0 1 0,0.002 6.0011481,5.9667435 0 0 1 0,0.002 6.0011481,5.9667435 0 0 1 0,0.002 6.0011481,5.9667435 0 0 1 0,0.002 6.0011481,5.9667435 0 0 1 0,0.002 6.0011481,5.9667435 0 0 1 0,0.002 6.0011481,5.9667435 0 0 1 0,0.002 6.0011481,5.9667435 0 0 1 0,0.002 6.0011481,5.9667435 0 0 1 0,0.002 6.0011481,5.9667435 0 0 1 0,0.002 6.0011481,5.9667435 0 0 1 0,0.002 6.0011481,5.9667435 0 0 1 0,0.002 6.0011481,5.9667435 0 0 1 0,0.002 6.0011481,5.9667435 0 0 1 0,0.002 6.0011481,5.9667435 0 0 1 0,0.002 6.0011481,5.9667435 0 0 1 0,0.002 6.0011481,5.9667435 0 0 1 -0.01776,0.44673 6.0011481,5.9667435 0 0 1 -0.002,0.0116 11.002105,10.939029 0 0 1 -0.01739,0.44478 11.002105,10.939029 0 0 1 -0.113263,0.89732 11.002105,10.939029 0 0 1 -0.185572,0.88569 11.002105,10.939029 0 0 1 -0.259817,0.86626 11.002105,10.939029 0 0 1 -0.330129,0.84101 11.002105,10.939029 0 0 1 -0.400469,0.81383 11.002105,10.939029 0 0 1 -0.464933,0.77498 11.002105,10.939029 0 0 1 -0.529397,0.73613 11.002105,10.939029 0 0 1 -0.586049,0.68951 11.002105,10.939029 0 0 1 -0.644654,0.64096 11.002105,10.939029 0 0 1 -0.693494,0.58269 11.002105,10.939029 0 0 1 -0.740374,0.52636 11.002105,10.939029 0 0 1 -0.779446,0.46227 11.002105,10.939029 0 0 1 -0.818519,0.39817 11.002105,10.939029 0 0 1 -0.845865,0.32824 11.002105,10.939029 0 0 1 -0.871261,0.25833 11.002105,10.939029 0 0 1 -0.890793,0.18451 11.002105,10.939029 0 0 1 -0.902516,0.11264 11.002105,10.939029 0 0 1 -0.908379,0.0368 11.002105,10.939029 0 0 1 -0.908376,-0.0368 11.002105,10.939029 0 0 1 -0.902516,-0.11264 11.002105,10.939029 0 0 1 -0.890797,-0.18451 11.002105,10.939029 0 0 1 -0.871261,-0.25833 11.002105,10.939029 0 0 1 -0.845865,-0.32824 11.002105,10.939029 0 0 1 -0.818515,-0.39817 11.002105,10.939029 0 0 1 -0.779446,-0.46227 11.002105,10.939029 0 0 1 -0.740374,-0.52636 11.002105,10.939029 0 0 1 -0.660285,-0.55355 c 2.533328,3.54217 6.694783,5.84437 11.418203,5.84437 7.757437,0 14.002676,-6.20943 14.002676,-13.9224 0,-1.38373 -0.201486,-2.7181 -0.57628,-3.97783 -0.0053,-0.0181 -0.0102,-0.0363 -0.0155,-0.0544 -0.0031,-0.0104 -0.0064,-0.0207 -0.0098,-0.0311 -0.0083,-0.0285 -0.01663,-0.0571 -0.02532,-0.0855 -0.01436,-0.0462 -0.03024,-0.0918 -0.04495,-0.1379 -0.02003,-0.0629 -0.03943,-0.12612 -0.06056,-0.18841 -0.03666,-0.10794 -0.0761,-0.2157 -0.11526,-0.32242 -0.03916,-0.10672 -0.07942,-0.21113 -0.121119,-0.31659 -0.04166,-0.10546 -0.08475,-0.21048 -0.128942,-0.31466 -0.04415,-0.10417 -0.08816,-0.20792 -0.134805,-0.31076 -0.04661,-0.10285 -0.09553,-0.2054 -0.144555,-0.30689 -0.04903,-0.10148 -0.099,-0.20291 -0.150418,-0.30299 -0.05141,-0.10009 -0.104485,-0.19852 -0.158241,-0.29718 -0.03439,-0.0634 -0.06997,-0.12562 -0.105506,-0.1884 -0.06948,-0.0488 -0.139491,-0.0919 -0.209011,-0.12625 h 0.138697 1.861683 c 0,0 -1.451076,-1.93321 -2.988852,-2.14041 0.764121,-0.28678 1.601291,-0.84282 2.988617,-0.84282 -1.341755,-0.93191 -3.994243,-1.86093 -6.766918,-1.98693 -0.199256,-0.009 -0.399655,-0.0132 -0.599725,-0.0136 z" /><path
         id="path15987-2"
         style="fill:url(#linearGradient62811);fill-opacity:1;stroke:none;stroke-width:1.99464;stroke-linecap:round;stroke-linejoin:round;stroke-dasharray:none;stroke-opacity:1;paint-order:stroke fill markers;stop-color:#000000"
         inkscape:transform-center-x="-6.0119913"
         inkscape:transform-center-y="7.1392397"
         d="m -37.36689,292.65009 c -2.198136,-0.005 -4.416683,0.5279 -6.073427,1.9928 -0.605139,0.53507 -1.136362,1.19322 -1.562801,1.99668 -1.871099,1.23123 -2.524682,2.44307 -2.137127,3.63793 a 6.0011481,5.9667435 0 0 1 0.05667,-0.0563 6.0011481,5.9667435 0 0 1 0.339919,-0.29134 6.0011481,5.9667435 0 0 1 0.359426,-0.26416 6.0011481,5.9667435 0 0 1 0.380932,-0.23695 6.0011481,5.9667435 0 0 1 0.39656,-0.20977 6.0011481,5.9667435 0 0 1 0.412187,-0.17869 6.0011481,5.9667435 0 0 1 0.42391,-0.14762 6.0011481,5.9667435 0 0 1 0.431723,-0.11459 6.0011481,5.9667435 0 0 1 0.441492,-0.0835 6.0011481,5.9667435 0 0 1 0.445397,-0.0486 6.0011481,5.9667435 0 0 1 0.449305,-0.0175 6.0011481,5.9667435 0 0 1 0.154311,0.002 6.0011481,5.9667435 0 0 1 0.15431,0.006 6.0011481,5.9667435 0 0 1 0.154311,0.01 6.0011481,5.9667435 0 0 1 0.15431,0.0136 6.0011481,5.9667435 0 0 1 0.152383,0.0175 6.0011481,5.9667435 0 0 1 0.154349,0.0233 6.0011481,5.9667435 0 0 1 0.152383,0.0252 6.0011481,5.9667435 0 0 1 0.150417,0.0291 6.0011481,5.9667435 0 0 1 0.152383,0.033 6.0011481,5.9667435 0 0 1 0.148449,0.0369 6.0011481,5.9667435 0 0 1 0.150417,0.0408 6.0011481,5.9667435 0 0 1 0.146521,0.0466 6.0011481,5.9667435 0 0 1 0.146521,0.0486 6.0011481,5.9667435 0 0 1 0.146521,0.0505 6.0011481,5.9667435 0 0 1 0.142591,0.0563 6.0011481,5.9667435 0 0 1 0.14259,0.0602 6.0011481,5.9667435 0 0 1 0.140662,0.0641 6.0011481,5.9667435 0 0 1 0.138698,0.066 6.0011481,5.9667435 0 0 1 0.138697,0.0699 6.0011481,5.9667435 0 0 1 0.134804,0.0738 6.0011481,5.9667435 0 0 1 0.13284,0.0777 6.0011481,5.9667435 0 0 1 0.132839,0.0816 6.0011481,5.9667435 0 0 1 0.128946,0.0835 6.0011481,5.9667435 0 0 1 0.126977,0.0874 6.0011481,5.9667435 0 0 1 0.125011,0.0913 6.0011481,5.9667435 0 0 1 0.123084,0.0932 6.0011481,5.9667435 0 0 1 0.119154,0.0971 6.0011481,5.9667435 0 0 1 0.117226,0.101 6.0011481,5.9667435 0 0 1 0.11526,0.10294 6.0011481,5.9667435 0 0 1 0.111368,0.10488 6.0011481,5.9667435 0 0 1 0.109398,0.10877 6.0011481,5.9667435 0 0 1 0.105468,0.11071 6.0011481,5.9667435 0 0 1 0.10354,0.11459 6.0011481,5.9667435 0 0 1 0.101575,0.11654 6.0011481,5.9667435 0 0 1 0.09768,0.11848 6.0011481,5.9667435 0 0 1 0.09379,0.12237 6.0011481,5.9667435 0 0 1 0.09182,0.1243 6.0011481,5.9667435 0 0 1 0.08789,0.12626 6.0011481,5.9667435 0 0 1 0.084,0.12819 6.0011481,5.9667435 0 0 1 0.08203,0.13207 6.0011481,5.9667435 0 0 1 0.07814,0.13208 6.0011481,5.9667435 0 0 1 0.07424,0.13403 6.0011481,5.9667435 0 0 1 0.07031,0.1379 6.0011481,5.9667435 0 0 1 0.06642,0.1379 6.0011481,5.9667435 0 0 1 0.06445,0.13986 6.0011481,5.9667435 0 0 1 0.06056,0.14178 6.0011481,5.9667435 0 0 1 0.05667,0.14177 6.0011481,5.9667435 0 0 1 0.05081,0.14568 6.0011481,5.9667435 0 0 1 0.04884,0.14568 6.0011481,5.9667435 0 0 1 0.04687,0.14568 6.0011481,5.9667435 0 0 1 0.04102,0.14956 6.0011481,5.9667435 0 0 1 0.03704,0.1476 6.0011481,5.9667435 0 0 1 0.03326,0.15151 6.0011481,5.9667435 0 0 1 0.02948,0.14955 6.0011481,5.9667435 0 0 1 0.02532,0.15151 6.0011481,5.9667435 0 0 1 0.02343,0.15342 6.0011481,5.9667435 0 0 1 0.01776,0.15151 6.0011481,5.9667435 0 0 1 0.01361,0.15343 6.0011481,5.9667435 0 0 1 0.0098,0.15343 6.0011481,5.9667435 0 0 1 0.0057,0.15342 6.0011481,5.9667435 0 0 1 0,0.002 6.0011481,5.9667435 0 0 1 0,0.002 6.0011481,5.9667435 0 0 1 0,0.002 6.0011481,5.9667435 0 0 1 0,0.002 6.0011481,5.9667435 0 0 1 0,0.002 6.0011481,5.9667435 0 0 1 0,0.002 6.0011481,5.9667435 0 0 1 0,0.002 6.0011481,5.9667435 0 0 1 0,0.002 6.0011481,5.9667435 0 0 1 0,0.002 6.0011481,5.9667435 0 0 1 0,0.002 6.0011481,5.9667435 0 0 1 0,0.002 6.0011481,5.9667435 0 0 1 0,0.002 6.0011481,5.9667435 0 0 1 0,0.002 6.0011481,5.9667435 0 0 1 0,0.002 6.0011481,5.9667435 0 0 1 0,0.002 6.0011481,5.9667435 0 0 1 0,0.002 6.0011481,5.9667435 0 0 1 0,0.002 6.0011481,5.9667435 0 0 1 0,0.002 6.0011481,5.9667435 0 0 1 0,0.002 6.0011481,5.9667435 0 0 1 0,0.002 6.0011481,5.9667435 0 0 1 0,0.002 6.0011481,5.9667435 0 0 1 0,0.002 6.0011481,5.9667435 0 0 1 0,0.002 6.0011481,5.9667435 0 0 1 0.002,0.004 6.0011481,5.9667435 0 0 1 0,0.002 6.0011481,5.9667435 0 0 1 0,0.002 6.0011481,5.9667435 0 0 1 0,0.002 6.0011481,5.9667435 0 0 1 0,0.002 6.0011481,5.9667435 0 0 1 0,0.002 6.0011481,5.9667435 0 0 1 0,0.002 6.0011481,5.9667435 0 0 1 0,0.002 6.0011481,5.9667435 0 0 1 0,0.002 6.0011481,5.9667435 0 0 1 0,0.002 6.0011481,5.9667435 0 0 1 0,0.002 6.0011481,5.9667435 0 0 1 0,0.002 6.0011481,5.9667435 0 0 1 0,0.002 6.0011481,5.9667435 0 0 1 0,0.002 6.0011481,5.9667435 0 0 1 0,0.002 6.0011481,5.9667435 0 0 1 0,0.002 6.0011481,5.9667435 0 0 1 0,0.002 6.0011481,5.9667435 0 0 1 0,0.002 6.0011481,5.9667435 0 0 1 0,0.002 6.0011481,5.9667435 0 0 1 0,0.002 6.0011481,5.9667435 0 0 1 0,0.002 6.0011481,5.9667435 0 0 1 0,0.002 6.0011481,5.9667435 0 0 1 0,0.002 6.0011481,5.9667435 0 0 1 0,0.002 6.0011481,5.9667435 0 0 1 0,0.002 6.0011481,5.9667435 0 0 1 0,0.002 6.0011481,5.9667435 0 0 1 0,0.002 6.0011481,5.9667435 0 0 1 0,0.002 6.0011481,5.9667435 0 0 1 0,0.002 6.0011481,5.9667435 0 0 1 0,0.002 6.0011481,5.9667435 0 0 1 0,0.002 6.0011481,5.9667435 0 0 1 0,0.002 6.0011481,5.9667435 0 0 1 0,0.002 6.0011481,5.9667435 0 0 1 0,0.002 6.0011481,5.9667435 0 0 1 0,0.002 6.0011481,5.9667435 0 0 1 0,0.002 6.0011481,5.9667435 0 0 1 0,0.002 6.0011481,5.9667435 0 0 1 0,0.002 6.0011481,5.9667435 0 0 1 0,0.002 6.0011481,5.9667435 0 0 1 0,0.002 6.0011481,5.9667435 0 0 1 0,0.002 6.0011481,5.9667435 0 0 1 0,0.002 6.0011481,5.9667435 0 0 1 0,0.002 6.0011481,5.9667435 0 0 1 0,0.002 6.0011481,5.9667435 0 0 1 0,0.002 6.0011481,5.9667435 0 0 1 0,0.002 6.0011481,5.9667435 0 0 1 0,0.002 6.0011481,5.9667435 0 0 1 0,0.002 6.0011481,5.9667435 0 0 1 0,0.002 6.0011481,5.9667435 0 0 1 0,0.002 6.0011481,5.9667435 0 0 1 0,0.002 6.0011481,5.9667435 0 0 1 0,0.002 6.0011481,5.9667435 0 0 1 0,0.002 6.0011481,5.9667435 0 0 1 0,0.002 6.0011481,5.9667435 0 0 1 0,0.002 6.0011481,5.9667435 0 0 1 -0.01776,0.44673 6.0011481,5.9667435 0 0 1 -0.002,0.0116 11.002105,10.939029 0 0 1 -0.01739,0.44478 11.002105,10.939029 0 0 1 -0.113263,0.89732 11.002105,10.939029 0 0 1 -0.185573,0.88569 11.002105,10.939029 0 0 1 -0.259816,0.86626 11.002105,10.939029 0 0 1 -0.330129,0.84101 11.002105,10.939029 0 0 1 -0.400469,0.81383 11.002105,10.939029 0 0 1 -0.464933,0.77498 11.002105,10.939029 0 0 1 -0.529398,0.73613 11.002105,10.939029 0 0 1 -0.586048,0.68951 11.002105,10.939029 0 0 1 -0.644654,0.64096 11.002105,10.939029 0 0 1 -0.693495,0.58269 11.002105,10.939029 0 0 1 -0.740373,0.52636 11.002105,10.939029 0 0 1 -0.779446,0.46227 11.002105,10.939029 0 0 1 -0.818519,0.39817 11.002105,10.939029 0 0 1 -0.845865,0.32824 11.002105,10.939029 0 0 1 -0.871261,0.25833 11.002105,10.939029 0 0 1 -0.890793,0.18451 11.002105,10.939029 0 0 1 -0.902516,0.11264 11.002105,10.939029 0 0 1 -0.90838,0.0368 11.002105,10.939029 0 0 1 -0.908375,-0.0368 11.002105,10.939029 0 0 1 -0.902516,-0.11264 11.002105,10.939029 0 0 1 -0.890797,-0.18451 11.002105,10.939029 0 0 1 -0.871261,-0.25833 11.002105,10.939029 0 0 1 -0.845865,-0.32824 11.002105,10.939029 0 0 1 -0.818515,-0.39817 11.002105,10.939029 0 0 1 -0.779446,-0.46227 11.002105,10.939029 0 0 1 -0.740374,-0.52636 11.002105,10.939029 0 0 1 -0.660285,-0.55355 c 2.533328,3.54217 6.694783,5.84437 11.418203,5.84437 7.757434,-0.005 14.002673,-6.21438 14.002673,-13.92735 0,-1.38373 -0.201486,-2.7181 -0.57628,-3.97783 -0.0053,-0.0181 -0.0102,-0.0363 -0.0155,-0.0544 -0.0031,-0.0104 -0.0064,-0.0207 -0.0098,-0.0311 -0.0083,-0.0285 -0.01663,-0.0571 -0.02532,-0.0855 -0.01436,-0.0462 -0.03024,-0.0918 -0.04495,-0.1379 -0.02003,-0.0629 -0.03943,-0.12612 -0.06056,-0.18841 -0.03666,-0.10794 -0.0761,-0.2157 -0.11526,-0.32242 -0.03916,-0.10672 -0.07942,-0.21113 -0.121119,-0.31659 -0.04166,-0.10546 -0.08475,-0.21048 -0.128942,-0.31466 -0.04415,-0.10417 -0.08816,-0.20792 -0.134805,-0.31076 -0.04661,-0.10285 -0.09553,-0.2054 -0.144555,-0.30689 -0.04903,-0.10148 -0.09901,-0.20291 -0.150418,-0.30299 -0.05141,-0.10009 -0.104485,-0.19852 -0.158241,-0.29718 -0.03439,-0.0634 -0.06997,-0.12562 -0.105506,-0.1884 -0.06948,-0.0488 -0.139491,-0.0919 -0.209011,-0.12625 h 0.138697 1.861683 c 0,0 -1.451076,-1.93321 -2.988852,-2.14041 0.764121,-0.28678 1.601291,-0.84282 2.988617,-0.84282 -1.341755,-0.93191 -3.994243,-1.86093 -6.766918,-1.98693 -0.199256,-0.009 -0.399655,-0.0132 -0.599725,-0.0136 z" /></g></g></svg>
