<?xml version="1.0" encoding="UTF-8" standalone="no"?>
<!-- Created with Inkscape (http://www.inkscape.org/) -->

<svg
   width="32"
   height="32"
   viewBox="0 0 32 32"
   version="1.1"
   id="svg8"
   inkscape:version="1.2.2 (b0a8486541, 2022-12-01)"
   sodipodi:docname="window-duplicate.svg"
   xml:space="preserve"
   xmlns:inkscape="http://www.inkscape.org/namespaces/inkscape"
   xmlns:sodipodi="http://sodipodi.sourceforge.net/DTD/sodipodi-0.dtd"
   xmlns:xlink="http://www.w3.org/1999/xlink"
   xmlns="http://www.w3.org/2000/svg"
   xmlns:svg="http://www.w3.org/2000/svg"
   xmlns:rdf="http://www.w3.org/1999/02/22-rdf-syntax-ns#"
   xmlns:cc="http://creativecommons.org/ns#"
   xmlns:dc="http://purl.org/dc/elements/1.1/"><title
     id="title7895">Antu icon Theme</title><defs
     id="defs2"><linearGradient
       inkscape:collect="always"
       id="linearGradient8746"><stop
         style="stop-color:#d3e5e5;stop-opacity:1;"
         offset="0"
         id="stop8742" /><stop
         style="stop-color:#fafbfb;stop-opacity:1;"
         offset="1"
         id="stop8744" /></linearGradient><linearGradient
       inkscape:collect="always"
       id="linearGradient8255"><stop
         style="stop-color:#d0e4e4;stop-opacity:1;"
         offset="0"
         id="stop8251" /><stop
         style="stop-color:#fafbfb;stop-opacity:1;"
         offset="1"
         id="stop8253" /></linearGradient><linearGradient
       inkscape:collect="always"
       id="linearGradient5796"><stop
         style="stop-color:#1486f4;stop-opacity:1;"
         offset="0"
         id="stop5792" /><stop
         style="stop-color:#03b1fe;stop-opacity:1;"
         offset="1"
         id="stop5794" /></linearGradient><linearGradient
       inkscape:collect="always"
       id="linearGradient3166"><stop
         style="stop-color:#495259;stop-opacity:1;"
         offset="0"
         id="stop3162" /><stop
         style="stop-color:#5c6871;stop-opacity:1;"
         offset="1"
         id="stop3164" /></linearGradient><style
       id="current-color-scheme"
       type="text/css">
      .ColorScheme-Text {
        color:#122036;
      }
      </style><style
       type="text/css"
       id="current-color-scheme-1">
      .ColorScheme-Text {
        color:#122036;
      }
      </style><style
       id="current-color-scheme-18"
       type="text/css">
      .ColorScheme-Text {
        color:#122036;
      }
      </style><style
       type="text/css"
       id="current-color-scheme-1-7">
      .ColorScheme-Text {
        color:#122036;
      }
      </style><style
       type="text/css"
       id="current-color-scheme-6">
      .ColorScheme-Text {
        color:#36404d;
      }
      </style><style
       type="text/css"
       id="current-color-scheme-7">
      .ColorScheme-Text {
        color:#36404d;
      }
      </style><style
       type="text/css"
       id="current-color-scheme-5">
      .ColorScheme-Text {
        color:#122036;
      }
      </style><style
       id="current-color-scheme-1-3"
       type="text/css">
      .ColorScheme-Text {
        color:#122036;
      }
      </style><style
       type="text/css"
       id="current-color-scheme-2">
      .ColorScheme-Text {
        color:#36404d;
      }
      </style><linearGradient
       inkscape:collect="always"
       xlink:href="#linearGradient3166"
       id="linearGradient3168"
       x1="3.999999"
       y1="289.64999"
       x2="3.999999"
       y2="283.64999"
       gradientUnits="userSpaceOnUse" /><linearGradient
       inkscape:collect="always"
       xlink:href="#linearGradient5796"
       id="linearGradient5798"
       x1="60"
       y1="299.64999"
       x2="60"
       y2="291.64999"
       gradientUnits="userSpaceOnUse" /><linearGradient
       inkscape:collect="always"
       xlink:href="#linearGradient8255"
       id="linearGradient8257"
       x1="58"
       y1="313.64999"
       x2="58"
       y2="298.64999"
       gradientUnits="userSpaceOnUse" /><linearGradient
       inkscape:collect="always"
       xlink:href="#linearGradient8746"
       id="linearGradient8748"
       x1="2.999999"
       y1="305.64999"
       x2="2.999999"
       y2="290.64999"
       gradientUnits="userSpaceOnUse" /></defs><sodipodi:namedview
     id="base"
     pagecolor="#ffffff"
     bordercolor="#666666"
     borderopacity="1.0"
     inkscape:pageopacity="0.0"
     inkscape:pageshadow="2"
     inkscape:zoom="22.4"
     inkscape:cx="35.491071"
     inkscape:cy="21.339286"
     inkscape:document-units="px"
     inkscape:current-layer="layer1"
     showgrid="true"
     units="px"
     inkscape:window-width="2560"
     inkscape:window-height="1353"
     inkscape:window-x="0"
     inkscape:window-y="0"
     inkscape:window-maximized="1"
     objecttolerance="10"
     gridtolerance="10"
     guidetolerance="10"
     inkscape:showpageshadow="2"
     inkscape:pagecheckerboard="0"
     inkscape:deskcolor="#d1d1d1"><inkscape:grid
       type="xygrid"
       id="grid7897"
       empspacing="4" /></sodipodi:namedview><metadata
     id="metadata5"><rdf:RDF><cc:Work
         rdf:about=""><dc:format>image/svg+xml</dc:format><dc:type
           rdf:resource="http://purl.org/dc/dcmitype/StillImage" /><dc:title>Antu icon Theme</dc:title></cc:Work></rdf:RDF></metadata><g
     inkscape:label="Capa 1"
     inkscape:groupmode="layer"
     id="layer1"
     transform="translate(0,-282.64999)"><g
       id="g694"
       transform="translate(10e-7,1)"><path
         inkscape:connector-curvature="0"
         style="fill:#90a4ae;fill-opacity:1;stroke:none;stroke-width:0.808;stroke-linecap:round;stroke-linejoin:round;stroke-miterlimit:4;stroke-dasharray:none;stroke-opacity:1;paint-order:stroke markers fill"
         d="m 1.999996,282.64999 h 24.000008 c 1.107998,0 1.999996,0.892 1.999996,2 V 304.65 c 0,1.108 -0.891998,1.99999 -1.999996,1.99999 H 1.999996 C 0.891998,306.64999 0,305.758 0,304.65 v -20.00001 c 0,-1.108 0.891998,-2 1.999996,-2 z"
         id="rect941-2"
         sodipodi:nodetypes="sssssssss" /><path
         inkscape:connector-curvature="0"
         style="fill:url(#linearGradient8748);fill-opacity:1;stroke:none;stroke-width:0.808;stroke-linecap:round;stroke-linejoin:round;stroke-miterlimit:4;stroke-dasharray:none;stroke-opacity:1;paint-order:stroke markers fill"
         d="m 2,283.64999 h 24 c 0.554,0 1,0.446 1,1 v 20 c 0,0.554 -0.446,1 -1,1 H 2 c -0.554,0 -1,-0.446 -1,-1 v -20 c 0,-0.554 0.446,-1 1,-1 z"
         id="rect943-9"
         sodipodi:nodetypes="sssssssss" /><path
         sodipodi:nodetypes="ssccccccccsss"
         inkscape:connector-curvature="0"
         id="rect866-1"
         d="m 2,282.64999 c -1.107998,0 -2,0.892 -2,2 v 3 1 2 h 2 24 2 v -2 -1 -3 c 0,-1.108 -0.892002,-2 -2,-2 z"
         style="fill:#343b40;fill-opacity:1;stroke:none;stroke-width:0.808;stroke-linecap:round;stroke-linejoin:round;stroke-miterlimit:4;stroke-dasharray:none;stroke-opacity:1;paint-order:stroke markers fill" /><path
         sodipodi:nodetypes="ssccccccccsss"
         inkscape:connector-curvature="0"
         id="rect868-2"
         d="m 2,283.64999 c -0.553998,0 -1,0.446 -1,1 v 3 1 1 h 1 24 1 v -1 -1 -3 c 0,-0.554 -0.446002,-1 -1,-1 z"
         style="fill:url(#linearGradient3168);fill-opacity:1;stroke:none;stroke-width:0.808;stroke-linecap:round;stroke-linejoin:round;stroke-miterlimit:4;stroke-dasharray:none;stroke-opacity:1;paint-order:stroke markers fill" /><path
         inkscape:connector-curvature="0"
         style="fill:#343b40;fill-opacity:1;stroke:none;stroke-width:0.359111;stroke-linecap:round;stroke-linejoin:round;stroke-miterlimit:4;stroke-dasharray:none;stroke-opacity:1;paint-order:stroke markers fill"
         d="m 8.999999,284.64999 h 2e-6 c 1.108,0 1.999999,0.892 1.999999,2 0,1.108 -0.891999,2 -1.999999,2 h -2e-6 c -1.108,0 -1.999999,-0.892 -1.999999,-2 0,-1.108 0.891999,-2 1.999999,-2 z"
         id="rect836-7-7"
         sodipodi:nodetypes="sssssss" /><path
         inkscape:connector-curvature="0"
         style="fill:#ffffff;fill-opacity:1;stroke:none;stroke-width:0.269334;stroke-linecap:round;stroke-linejoin:round;stroke-miterlimit:4;stroke-dasharray:none;stroke-opacity:1;paint-order:stroke markers fill"
         d="m 9,285.64999 c 0.554,0 1,0.446 1,1 0,0.554 -0.446,1 -1,1 -0.554,0 -1,-0.446 -1,-1 0,-0.554 0.446,-1 1,-1 z"
         id="rect880-5-0"
         sodipodi:nodetypes="sssss" /><path
         inkscape:connector-curvature="0"
         style="fill:#343b40;fill-opacity:1;stroke:none;stroke-width:0.359111;stroke-linecap:round;stroke-linejoin:round;stroke-miterlimit:4;stroke-dasharray:none;stroke-opacity:1;paint-order:stroke markers fill"
         d="m 13.999999,284.64999 h 2e-6 c 1.108,0 1.999999,0.892 1.999999,2 0,1.108 -0.891999,2 -1.999999,2 h -2e-6 c -1.108,0 -1.999999,-0.892 -1.999999,-2 0,-1.108 0.891999,-2 1.999999,-2 z"
         id="rect836-9"
         sodipodi:nodetypes="sssssss" /><path
         inkscape:connector-curvature="0"
         style="fill:#343b40;fill-opacity:1;stroke:none;stroke-width:0.359111;stroke-linecap:round;stroke-linejoin:round;stroke-miterlimit:4;stroke-dasharray:none;stroke-opacity:1;paint-order:stroke markers fill"
         d="m 4,284.64999 h 2e-6 c 1.108,0 1.999999,0.892 1.999999,2 0,1.108 -0.891999,2 -1.999999,2 H 4 c -1.107999,0 -1.999999,-0.892 -1.999999,-2 0,-1.108 0.892,-2 1.999999,-2 z"
         id="rect836-5-3"
         sodipodi:nodetypes="sssssss" /><path
         inkscape:connector-curvature="0"
         style="fill:#ffffff;fill-opacity:1;stroke:none;stroke-width:0.269334;stroke-linecap:round;stroke-linejoin:round;stroke-miterlimit:4;stroke-dasharray:none;stroke-opacity:1;paint-order:stroke markers fill"
         d="m 4,285.64999 c 0.554,0 1,0.446 1,1 0,0.554 -0.446,1 -1,1 -0.554,0 -1,-0.446 -1,-1 0,-0.554 0.446,-1 1,-1 z"
         id="rect880-6"
         sodipodi:nodetypes="sssss" /><path
         inkscape:connector-curvature="0"
         style="fill:#ffffff;fill-opacity:1;stroke:none;stroke-width:0.269334;stroke-linecap:round;stroke-linejoin:round;stroke-miterlimit:4;stroke-dasharray:none;stroke-opacity:1;paint-order:stroke markers fill"
         d="m 14,285.64999 c 0.554,0 1,0.446 1,1 0,0.554 -0.446,1 -1,1 -0.554,0 -1,-0.446 -1,-1 0,-0.554 0.446,-1 1,-1 z"
         id="rect880-3-0"
         sodipodi:nodetypes="sssss" /></g><g
       id="g706"
       transform="translate(-40,-1)"><path
         inkscape:connector-curvature="0"
         style="fill:#90a4ae;fill-opacity:1;stroke:none;stroke-width:0.808;stroke-linecap:round;stroke-linejoin:round;stroke-miterlimit:4;stroke-dasharray:none;stroke-opacity:1;paint-order:stroke markers fill"
         d="m 45.999996,290.64999 h 24.000008 c 1.107998,0 1.999996,0.892 1.999996,2 V 312.65 c 0,1.108 -0.891998,1.99999 -1.999996,1.99999 H 45.999996 C 44.891998,314.64999 44,313.758 44,312.65 v -20.00001 c 0,-1.108 0.891998,-2 1.999996,-2 z"
         id="rect941"
         sodipodi:nodetypes="sssssssss" /><path
         inkscape:connector-curvature="0"
         style="fill:url(#linearGradient8257);fill-opacity:1;stroke:none;stroke-width:0.808;stroke-linecap:round;stroke-linejoin:round;stroke-miterlimit:4;stroke-dasharray:none;stroke-opacity:1;paint-order:stroke markers fill"
         d="m 46,291.64999 h 24 c 0.554,0 1,0.446 1,1 v 20 c 0,0.554 -0.446,1 -1,1 H 46 c -0.554,0 -1,-0.446 -1,-1 v -20 c 0,-0.554 0.446,-1 1,-1 z"
         id="rect943"
         sodipodi:nodetypes="sssssssss" /><path
         sodipodi:nodetypes="ssccccccccsss"
         inkscape:connector-curvature="0"
         id="rect866"
         d="m 46,290.64999 c -1.107998,0 -2,0.892 -2,2 v 3 1 2 h 2 24 2 v -2 -1 -3 c 0,-1.108 -0.892002,-2 -2,-2 z"
         style="fill:#1570d9;fill-opacity:0.98039216;stroke:none;stroke-width:0.808;stroke-linecap:round;stroke-linejoin:round;stroke-miterlimit:4;stroke-dasharray:none;stroke-opacity:1;paint-order:stroke markers fill" /><path
         sodipodi:nodetypes="ssccccccccsss"
         inkscape:connector-curvature="0"
         id="rect868"
         d="m 46,291.64999 c -0.553998,0 -1,0.446 -1,1 v 3 1 1 h 1 24 1 v -1 -1 -3 c 0,-0.554 -0.446002,-1 -1,-1 z"
         style="fill:url(#linearGradient5798);fill-opacity:1;stroke:none;stroke-width:0.808;stroke-linecap:round;stroke-linejoin:round;stroke-miterlimit:4;stroke-dasharray:none;stroke-opacity:1;paint-order:stroke markers fill" /><path
         inkscape:connector-curvature="0"
         style="fill:#1570d9;fill-opacity:0.98039216;stroke:none;stroke-width:0.359111;stroke-linecap:round;stroke-linejoin:round;stroke-miterlimit:4;stroke-dasharray:none;stroke-opacity:1;paint-order:stroke markers fill"
         d="m 52.999999,292.64999 h 2e-6 c 1.108,0 1.999999,0.892 1.999999,2 0,1.108 -0.891999,2 -1.999999,2 h -2e-6 c -1.108,0 -1.999999,-0.892 -1.999999,-2 0,-1.108 0.891999,-2 1.999999,-2 z"
         id="rect836-7"
         sodipodi:nodetypes="sssssss" /><path
         inkscape:connector-curvature="0"
         style="fill:#d7f0fe;fill-opacity:1;stroke:none;stroke-width:0.269334;stroke-linecap:round;stroke-linejoin:round;stroke-miterlimit:4;stroke-dasharray:none;stroke-opacity:1;paint-order:stroke markers fill"
         d="m 53,293.64999 c 0.554,0 1,0.446 1,1 0,0.554 -0.446,1 -1,1 -0.554,0 -1,-0.446 -1,-1 0,-0.554 0.446,-1 1,-1 z"
         id="rect880-5"
         sodipodi:nodetypes="sssss" /><path
         inkscape:connector-curvature="0"
         style="fill:#1570d9;fill-opacity:0.98039216;stroke:none;stroke-width:0.359111;stroke-linecap:round;stroke-linejoin:round;stroke-miterlimit:4;stroke-dasharray:none;stroke-opacity:1;paint-order:stroke markers fill"
         d="m 57.999999,292.64999 h 2e-6 c 1.108,0 1.999999,0.892 1.999999,2 0,1.108 -0.891999,2 -1.999999,2 h -2e-6 c -1.108,0 -1.999999,-0.892 -1.999999,-2 0,-1.108 0.891999,-2 1.999999,-2 z"
         id="rect836"
         sodipodi:nodetypes="sssssss" /><path
         inkscape:connector-curvature="0"
         style="fill:#1570d9;fill-opacity:0.98039216;stroke:none;stroke-width:0.359111;stroke-linecap:round;stroke-linejoin:round;stroke-miterlimit:4;stroke-dasharray:none;stroke-opacity:1;paint-order:stroke markers fill"
         d="m 48,292.64999 h 2e-6 c 1.108,0 1.999999,0.892 1.999999,2 0,1.108 -0.891999,2 -1.999999,2 H 48 c -1.107999,0 -1.999999,-0.892 -1.999999,-2 0,-1.108 0.892,-2 1.999999,-2 z"
         id="rect836-5"
         sodipodi:nodetypes="sssssss" /><path
         inkscape:connector-curvature="0"
         style="fill:#d7f0fe;fill-opacity:1;stroke:none;stroke-width:0.269334;stroke-linecap:round;stroke-linejoin:round;stroke-miterlimit:4;stroke-dasharray:none;stroke-opacity:1;paint-order:stroke markers fill"
         d="m 48,293.64999 c 0.554,0 1,0.446 1,1 0,0.554 -0.446,1 -1,1 -0.554,0 -1,-0.446 -1,-1 0,-0.554 0.446,-1 1,-1 z"
         id="rect880"
         sodipodi:nodetypes="sssss" /><path
         inkscape:connector-curvature="0"
         style="fill:#d7f0fe;fill-opacity:1;stroke:none;stroke-width:0.269334;stroke-linecap:round;stroke-linejoin:round;stroke-miterlimit:4;stroke-dasharray:none;stroke-opacity:1;paint-order:stroke markers fill"
         d="m 58,293.64999 c 0.554,0 1,0.446 1,1 0,0.554 -0.446,1 -1,1 -0.554,0 -1,-0.446 -1,-1 0,-0.554 0.446,-1 1,-1 z"
         id="rect880-3"
         sodipodi:nodetypes="sssss" /></g></g></svg>
