<?xml version="1.0" encoding="UTF-8"?>
<!-- Created with Inkscape (http://www.inkscape.org/) -->
<svg width="18" height="18" version="1.1" xmlns="http://www.w3.org/2000/svg" xmlns:cc="http://creativecommons.org/ns#" xmlns:dc="http://purl.org/dc/elements/1.1/" xmlns:rdf="http://www.w3.org/1999/02/22-rdf-syntax-ns#">
	<defs>
		<style id="current-color-scheme" type="text/css">.ColorScheme-Text {color:#090d11;}.ColorScheme-Background{color:#ffffff;}</style>
	</defs>
	<metadata>
		<rdf:RDF>
			<cc:Work rdf:about="">
				<dc:format>image/svg+xml</dc:format>
				<dc:type rdf:resource="http://purl.org/dc/dcmitype/StillImage"/>
			</cc:Work>
		</rdf:RDF>
	</metadata>
	<path id="c" class="ColorScheme-Text" d="m5 2v2h9v9h2v-11zm-3 3v11h11v-2h-9v-9zm3 0v8h8v-8zm2 2h4v1h-4zm0 2h4v1h-4z" style="fill-opacity:.75;fill:currentColor"/>
	<path class="ColorScheme-Background" d="m4 1v3h-3v13h13v-3h3v-13h-12zm1 1h11v11h-2v-9h-9zm-3 3h2v9h9v2h-11zm3 0h8v8h-8zm2 2v1h4v-1zm0 2v1h4v-1z" style="fill-opacity:.5;fill:currentColor"/>
</svg>
