<?xml version="1.0" encoding="UTF-8"?>
<svg id="c" width="18" height="18" version="1.1" xmlns="http://www.w3.org/2000/svg" xmlns:cc="http://creativecommons.org/ns#" xmlns:dc="http://purl.org/dc/elements/1.1/" xmlns:rdf="http://www.w3.org/1999/02/22-rdf-syntax-ns#">
	<metadata id="a">
		<rdf:RDF>
			<cc:Work rdf:about="">
				<dc:format>image/svg+xml</dc:format>
				<dc:type rdf:resource="http://purl.org/dc/dcmitype/StillImage"/>
			</cc:Work>
		</rdf:RDF>
	</metadata>
	<defs>
		<style id="current-color-scheme" type="text/css">.ColorScheme-Text {color:#090d11;}.ColorScheme-Background{color:#ffffff;}</style>
	</defs>
	<path id="b" class="ColorScheme-Text" d="m3 2c-0.554 0-1 0.446-1 1v9c0 0.554 0.446 1 1 1h4l0.19141 0.19141 1.5078-2.1914h-1.1992c-0.27614 0-0.5-0.22386-0.5-0.5s0.22386-0.5 0.5-0.5h1.8887l1.375-2h-3.2637c-0.27614 0-0.5-0.22386-0.5-0.5s0.22386-0.5 0.5-0.5h3.9531l1.375-2h-5.3281c-0.27614 0-0.5-0.22386-0.5-0.5s0.22386-0.5 0.5-0.5h5.75c0.07959 4.222e-4 0.15794 0.019841 0.22852 0.056641l1.0957-1.5938 1.4258 0.53711c0-0.554-0.446-1-1-1zm13 1-2.7871 4-0.69531 1-0.88672 1.2715-0.50781 0.72852-0.69531 1-2.2285 3.1992-1.2773 1.832 2.582-1.0215 1.1016-1.6152 0.39453-0.39453h4c0.554 0 1-0.446 1-1v-6.5156l0.89844-1.3184zm-11.5 1h1c0.27614 0 0.5 0.22386 0.5 0.5s-0.22386 0.5-0.5 0.5h-1c-0.27614 0-0.5-0.22386-0.5-0.5s0.22386-0.5 0.5-0.5zm0 3h1c0.27614 0 0.5 0.22386 0.5 0.5s-0.22386 0.5-0.5 0.5h-1c-0.27614 0-0.5-0.22386-0.5-0.5s0.22386-0.5 0.5-0.5zm0 3h1c0.27614 0 0.5 0.22386 0.5 0.5s-0.22386 0.5-0.5 0.5h-1c-0.27614 0-0.5-0.22386-0.5-0.5s0.22386-0.5 0.5-0.5zm8.4199 0h0.33008c0.27614 0 0.5 0.22386 0.5 0.5s-0.22386 0.5-0.5 0.5h-1.0117z" style="fill-opacity:.75;fill:currentColor"/>
	<path id="d" class="ColorScheme-Background" d="m3 1c-1.0907 0-2 0.9093-2 2v9c0 1.0907 0.9093 2 2 2h3.5859l0.45312 0.45312-0.11719 1.5781 0.69531-1 0.58203-0.83203 2.2285-3.1992 0.69531-1 0.50781-0.72852 0.88672-1.2715 0.69531-1 2.7871-4-1.4258-0.53711-1.0977 1.5938c-0.069991-0.0365-0.14763-0.055909-0.22656-0.056641h-5.75c-0.27614 0-0.5 0.22386-0.5 0.5s0.22386 0.5 0.5 0.5h5.3281l-1.375 2h-3.9531c-0.27614 0-0.5 0.22386-0.5 0.5s0.22386 0.5 0.5 0.5h3.2637l-1.375 2h-1.8887c-0.27614 0-0.5 0.22386-0.5 0.5s0.22386 0.5 0.5 0.5h1.1992l-1.5078 2.1914-0.19141-0.19141h-4c-0.554 0-1-0.446-1-1v-9c0-0.554 0.446-1 1-1h12c0.554 0 1 0.446 1 1l0.89844 1.166-0.89844 1.3184v6.5156c0 0.554-0.446 1-1 1h-4l-0.39453 0.39453-1.1016 1.6152-1.3672 0.54102 0.15625 0.15625c0.39053 0.39037 1.0235 0.39037 1.4141 0l1.707-1.707h3.5859c1.0907 0 2-0.9093 2-2v-9c0-1.0907-0.9093-2-2-2zm1.5 3c-0.27614 0-0.5 0.22386-0.5 0.5s0.22386 0.5 0.5 0.5h1c0.27614 0 0.5-0.22386 0.5-0.5s-0.22386-0.5-0.5-0.5zm0 3c-0.27614 0-0.5 0.22386-0.5 0.5s0.22386 0.5 0.5 0.5h1c0.27614 0 0.5-0.22386 0.5-0.5s-0.22386-0.5-0.5-0.5zm0 3c-0.27614 0-0.5 0.22386-0.5 0.5s0.22386 0.5 0.5 0.5h1c0.27614 0 0.5-0.22386 0.5-0.5s-0.22386-0.5-0.5-0.5zm8.4199 0-0.68164 1h1.0117c0.27614 0 0.5-0.22386 0.5-0.5s-0.22386-0.5-0.5-0.5z" style="fill-opacity:.5;fill:currentColor"/>
</svg>
